<svg  id="fndm-gvve2c4hv3" viewBox="199 39 201 172" xmlns="http://www.w3.org/2000/svg">
   <path d="m215.825,211l-16.825,0l0,-36l16.396,0c7.231,0 11.67,3.651 11.67,9.347l0,0.073c0,4.09 -2.148,6.353 -4.654,7.74c4.081,1.607 6.587,4.016 6.587,8.836l0,0.073c0.072,6.645 -5.226,9.931 -13.174,9.931zm3.509,-25.412c0,-2.336 -1.79,-3.724 -5.084,-3.724l-7.66,0l0,7.594l7.16,0c3.436,0 5.584,-1.168 5.584,-3.797l0,-0.073zm2.004,14.459c0,-2.41 -1.79,-3.944 -5.727,-3.944l-8.95,0l0,7.96l9.236,0c3.437,0 5.513,-1.241 5.513,-3.943l0,-0.073l-0.072,0zm37.768,10.953l-7.482,-11.538l-6,0l0,11.538l-7.624,0l0,-36l15.882,0c8.189,0 13.13,4.454 13.13,11.903l0,0.073c0,5.841 -3.036,9.493 -7.483,11.172l8.471,12.852l-8.894,0zm0.141,-23.732c0,-3.36 -2.259,-5.112 -6,-5.112l-7.623,0l0,10.37l7.764,0c3.741,0 5.86,-2.045 5.86,-5.112l0,-0.146l-0.001,0zm44.527,22.732l-3.276,-8.04l-15.142,0l-3.276,8.04l-8.08,0l15.36,-36l7.28,0l15.36,36l-8.226,0zm-10.92,-26.584l-4.804,11.59l9.536,0l-4.732,-11.59zm62.444,-8.978l7.702,0l0,35.978l-7.702,0l0,-35.978zm-23.53,36.562c-5.3,0 -10.599,-1.897 -14.768,-5.765l4.522,-5.62c3.11,2.7 6.43,4.38 10.387,4.38c3.11,0 5.017,-1.315 5.017,-3.358l0,-0.073c0,-1.97 -1.201,-3.065 -6.995,-4.598c-6.996,-1.824 -11.518,-3.867 -11.518,-11.02l0,-0.072c0,-6.568 5.088,-10.874 12.224,-10.874c5.088,0 9.398,1.679 12.931,4.598l-3.957,5.984c-3.109,-2.19 -6.147,-3.576 -9.044,-3.576c-2.968,0 -4.452,1.387 -4.452,3.138l0,0.073c0,2.335 1.484,3.138 7.49,4.744c7.066,1.897 11.023,4.524 11.023,10.8l0,0.073c-0.07,7.152 -5.37,11.166 -12.86,11.166zm68.232,-8.215l-16.867,0l0,-28.785l-8.133,0l0,36l25,0l0,-7.215zm-98.912,-60.785l-18.088,0l0,15l19.044,0c6.838,-0.069 10.956,-2.408 10.956,-7.362l0,-0.207c-0.074,-4.61 -3.75,-7.431 -11.912,-7.431m-87.088,15l32,0l-15.964,-39l-16.036,39zm95,-36.967l0,-0.2c0,-4.355 -3.756,-6.833 -10.533,-6.833l-15.467,0l0,14l14.436,0c7.145,0 11.564,-2.077 11.564,-6.967m-77,-48.033c0,-1.267 -0.974,-2 -3.13,-2l-4.87,0l0,4l5.009,0c1.878,-0.067 2.991,-0.667 2.991,-2m-2,-6c0,-1.31 -0.848,-2 -2.424,-2l-3.576,0l0,4l3.394,0c1.576,0 2.606,-0.62 2.606,-2m30.466,-1l-2.466,6l5,0l-2.534,-6z"/>
   <path d="m199,39l0,117.927l0.367,0l24.813,-57.942l15.416,0l24.813,57.942l3.524,0l0,-58.015l33.255,0c14.683,0 23.639,7.225 23.639,18.463l0,0.219c0,8.027 -4.331,12.697 -9.397,15.543c8.296,3.138 13.434,8.173 13.434,17.733l0,0.22c0,2.115 -0.293,4.086 -0.88,5.91l14.388,0c-4.551,-6.13 -7.194,-13.792 -7.194,-22.184l0,-0.22c0,-20.286 15.343,-36.851 37.366,-36.851c12.333,0 20.188,3.721 26.502,9.413l-10.131,11.53c-4.992,-4.086 -10.13,-6.494 -16.518,-6.494c-12.112,0 -20.775,9.997 -20.775,22.184l0,0.219c0,12.187 8.516,22.403 20.775,22.403c8.222,0 13.214,-3.284 18.867,-8.32l8.296,8.32l0.44,0l0,-118l-201,0zm161.578,29.993c0,-5.692 4.478,-10.363 10.718,-10.363s10.645,4.598 10.645,10.29l0,0.073c0,5.692 -4.552,10.362 -10.718,10.362c-6.167,0 -10.645,-4.597 -10.645,-10.362zm-35.017,0c0,-5.692 4.331,-10.363 10.498,-10.363c3.817,0 6.093,1.24 7.928,3.065l-2.79,3.211c-1.541,-1.387 -3.156,-2.262 -5.138,-2.262c-3.377,0 -5.8,2.773 -5.8,6.203l0,0.073c0,3.43 2.35,6.275 5.8,6.275c2.276,0 3.67,-0.948 5.285,-2.335l2.79,2.846c-2.055,2.19 -4.331,3.576 -8.222,3.576c-5.946,0.073 -10.351,-4.451 -10.351,-10.29l0,0.001zm-36.192,-9.998l4.111,0l9.397,12.333l0,-12.333l4.405,0l0,19.995l-3.744,0l-9.838,-12.697l0,12.697l-4.332,0l0,-19.995l0.001,0zm-29.805,-0.146l4.111,0l8.59,20.141l-4.625,0l-1.836,-4.451l-8.515,0l-1.836,4.451l-4.478,0l8.59,-20.14l-0.001,-0.001zm-40.45,0.146l9.324,0c4.11,0 6.607,2.043 6.607,5.181l0,0.073c0,2.262 -1.175,3.503 -2.643,4.306c2.35,0.875 3.744,2.189 3.744,4.889l0,0.073c0,3.649 -3.01,5.473 -7.561,5.473l-9.544,0l0,-19.995l0.074,0l-0.001,0z"/>
   <path d="m370.533,76c3.267,0 5.467,-2.651 5.467,-5.93l0,-0.07c0,-3.28 -2.267,-6 -5.533,-6c-3.267,0 -5.467,2.651 -5.467,5.93l0,0.07c0,3.28 2.333,6 5.533,6"/>
  </svg>