<svg  id="fndm-car7reqlwv" viewBox="114 78 371 94" xmlns="http://www.w3.org/2000/svg">
   <path d="m354.959,136.597c0,23.399 -15.3,35.2 -28.183,35.403c-8.454,0 -15.097,-3.866 -18.117,-7.935l0,6.918l-18.72,0l0,-92.983l19.123,0l0,31.333c3.02,-4.069 9.461,-8.342 17.916,-8.138c12.883,0 27.98,11.8 27.98,35.402l0.001,0zm37.04,-35.402c-17.313,0 -32.41,12.615 -32.41,35.402c0,20.754 14.695,35.403 34.02,35.403c9.058,0 17.714,-2.645 23.15,-7.325l1.811,-16.277c-6.643,4.476 -14.695,6.715 -22.948,6.715c-9.059,0 -15.5,-4.477 -16.91,-11.19l42.073,0c0.2,-1.832 0.2,-3.663 0.2,-5.494c0.202,-24.62 -13.688,-37.234 -28.987,-37.234l0.001,0zm-83.541,35.402c0,10.987 5.838,17.702 13.487,17.702c8.254,0 13.487,-6.715 13.487,-17.702c0,-10.783 -5.233,-17.7 -13.487,-17.7c-7.65,0 -13.487,7.12 -13.487,17.7zm-49.923,-35.402c9.864,0 21.942,5.29 21.942,26.247l0,29.909c0,6.917 2.013,10.376 6.643,13.428l-19.93,0c-4.026,-3.459 -5.838,-8.138 -5.838,-15.056l0,-26.043c0,-7.325 -3.22,-10.987 -8.454,-10.987c-5.838,0 -9.462,5.086 -9.462,13.225l0,23.805c0,9.36 1.61,11.8 5.435,15.056l-19.928,0c-3.221,-3.459 -4.63,-8.138 -4.63,-15.056l0,-26.043c0,-7.325 -3.221,-10.987 -8.455,-10.987c-5.838,0 -9.461,5.086 -9.461,13.225l0,38.861l-19.124,0l0,-68.363l18.117,0l0,6.714c2.617,-3.459 7.247,-7.935 16.708,-7.935c7.851,0 13.89,4.07 17.111,9.97c3.22,-4.477 8.857,-9.97 19.325,-9.97l0.001,0zm-116.554,70.602c8.455,0 14.896,-3.866 17.916,-7.936l0,6.918l18.922,0l0,-68.363l-18.922,0l0,6.917c-3.02,-4.069 -9.461,-8.138 -17.916,-8.138c-12.883,0 -27.981,11.8 -27.981,35.402c0,23.399 15.299,35.2 27.981,35.2zm18.52,-35.2c0,10.987 -5.838,17.702 -13.487,17.702c-8.254,0 -13.488,-6.715 -13.488,-17.702c0,-10.783 5.234,-17.7 13.488,-17.7c7.649,0 13.487,7.12 13.487,17.7zm291.284,12.412l12.883,-46.593l20.332,0l-22.546,68.16l-21.338,0l-22.747,-68.16l20.533,0l12.883,46.593zm-61.196,-31.537c6.845,0 11.072,5.493 11.474,12.411l-23.552,0c1.007,-7.731 5.838,-12.411 12.078,-12.411z" fill="#283488"/>
  </svg>