<svg xmlns="http://www.w3.org/2000/svg" fill-rule="evenodd" clip-rule="evenodd" image-rendering="optimizeQuality" shape-rendering="geometricPrecision" text-rendering="geometricPrecision" viewBox="-2 1 6600 3300"><g><rect width="6600" height="3300" x="-2" y="1" fill="none"/><g fill-rule="nonzero"><path fill="#fe8a00" d="M2433.87 1600.94c10.52,-17.18 24.93,-31.03 38.23,-45.43 80.33,-86.99 169.54,-162.89 264.83,-232.7 147.38,-108.6 304.73,-200.57 467.07,-285.34 145.16,-75.35 293.64,-144.05 444.35,-207.77 142.94,-60.39 288.1,-116.35 434.37,-168.98 96.96,-34.91 194.47,-68.15 292.54,-99.73 91.42,-29.37 182.84,-57.62 274.81,-84.22 124.66,-36.57 249.88,-70.36 376.2,-99.73 59.28,-13.85 119.12,-28.25 180.62,-31.58 20.5,-1.11 41.55,-2.22 62.05,4.99 23.83,8.86 30.48,24.37 19.4,48.2 -12.75,27.7 -33.25,49.31 -54.3,70.36 -62.06,62.06 -132.42,114.69 -203.34,165.11 -103.61,73.69 -211.09,142.39 -320.24,208.32 -124.11,74.8 -250.43,145.72 -378.42,213.31 -94.74,49.87 -190.59,97.52 -288.1,141.29 -111.37,49.86 -223.28,97.51 -342.41,127.43 -60.94,15.51 -122.44,16.62 -185.05,12.74 -77.57,-4.98 -154.58,-17.73 -231.59,-26.04 -7.2,-0.55 -14.41,-1.11 -21.06,2.77 -3.87,-1.11 -7.2,-2.21 -11.08,-2.77 -65.37,-6.09 -131.31,-8.86 -197.24,-4.98 -95.85,6.09 -188.38,27.7 -277.02,66.48 -88.65,38.78 -169.54,89.76 -244.34,150.15 -3.33,2.77 -6.65,5.54 -10.53,7.2 -8.86,2.22 -16.06,7.2 -21.61,14.41 -1.66,2.21 -3.87,4.43 -6.09,6.09 -8.31,3.88 -14.96,9.97 -19.39,17.73 -4.99,4.99 -9.42,9.97 -15.52,14.41 -6.09,3.87 -11.63,8.31 -17.17,13.29 -1.66,3.88 -4.43,7.76 -9.97,4.99l0 0z"/><path fill="#727272" d="M1647.67 2309.57c94.74,12.19 160.67,63.16 171.2,171.2 4.99,68.15 -1.11,137.96 1.11,193.92l0 197.24 0 0c0,29.92 -5.54,37.68 -32.69,48.76 -41.55,17.17 -85.88,23.27 -129.65,30.47 -40.44,6.65 -81.44,4.43 -121.89,4.99 -44.32,0.55 -86.99,-9.42 -127.99,-25.49 -68.7,-27.7 -105.26,-83.66 -105.26,-157.9 0,-24.94 -1.11,-49.87 5.54,-74.8 17.17,-67.04 59.83,-109.7 123,-134.08 33.24,-12.74 67.59,-19.39 103.6,-19.95 50.98,-1.1 101.95,-1.1 152.92,-0.55 9.97,0 13.85,-2.77 13.85,-12.74 0,-17.18 -0.55,-34.36 -4.43,-50.42 -9.97,-39.89 -41,-64.27 -86.43,-69.26 -68.71,-7.75 -135.75,4.43 -201.68,19.95 -4.43,1.11 -8.86,2.21 -13.85,2.77 -8.86,1.11 -15.51,-1.66 -17.73,-10.53 -6.09,-21.05 -12.19,-41.55 -16.62,-62.61 -2.77,-12.74 6.65,-18.83 17.73,-22.71 35.46,-13.3 72.03,-20.5 109.15,-24.94 53.19,-6.09 106.37,-9.97 160.12,-3.32l0 0zm41 334.65c-53.74,1.11 -108.04,-2.77 -161.78,2.77 -63.17,6.65 -111.92,41.55 -107.49,116.9 1.66,36.02 14.96,64.27 50.42,78.12 13.85,5.54 27.7,9.42 42.66,11.64 38.23,5.54 75.91,4.43 114.13,-0.56 21.61,-2.77 43.22,-6.09 64.27,-13.29 6.65,-1.66 8.32,-4.99 8.32,-11.64l0 0 0 -85.32c0,-28.26 -0.56,-57.07 0.55,-85.88 0,-8.31 -1.11,-12.74 -11.08,-12.74zm664.86 -311.38c69.26,32.69 103.61,91.42 116.9,164.55 4.99,26.6 5.54,53.19 4.99,79.79 -1.11,52.63 -32.13,85.87 -85.32,88.64 -52.64,3.33 -105.83,0.56 -150.15,1.67l-172.31 0 0 0c-14.96,0 -15.51,1.11 -14.41,16.06 1.11,27.15 6.65,53.19 17.73,77.57 23.27,50.42 64.27,77.57 117.46,88.1 59.29,11.08 115.8,-1.11 170.1,-23.83 2.77,-1.11 5.54,-2.77 8.31,-3.88 19.94,-8.86 26.04,-6.09 36.56,13.3 7.76,14.96 15.52,29.36 22.17,44.32 7.75,16.63 4.43,25.49 -11.08,34.91 -34.91,20.5 -72.59,29.36 -111.92,37.12 -40.45,7.76 -81.45,6.65 -121.89,4.99 -108.6,-4.99 -199.46,-75.91 -228.83,-180.07 -26.59,-96.4 -28.81,-193.36 5.54,-288.66 34.36,-93.63 98.07,-157.35 197.8,-176.74 67.59,-13.3 134.63,-7.76 198.35,22.16l0 0zm-49.87 93.08c-31.02,-19.94 -65.37,-21.61 -100.28,-21.05 -30.47,0.55 -57.07,11.08 -80.34,30.47 -37.67,31.03 -58.17,72.03 -63.71,120.23 -1.59,16.96 -1.66,17.69 13.85,17.73l136.3 0c45.43,0 91.41,-0.56 137.95,0.55 12.19,0 17.73,-2.21 16.63,-16.06 -1.11,-13.86 -3.33,-27.71 -5.54,-41.56 -6.1,-37.12 -21.61,-69.25 -54.86,-90.31l0 0z"/><path fill="#fe7606" d="M2433.87 1600.94c9.97,-4.99 16.06,-15.51 26.59,-19.95 4.43,8.87 -5.54,12.19 -7.2,19.95 9.42,-2.77 19.39,-2.77 28.25,-5.54 6.65,-2.22 13.3,-2.77 19.95,-1.66 3.88,0.55 7.76,1.1 11.08,0 24.93,-8.87 50.97,-14.96 76.46,-19.4 35.46,-6.09 69.81,-17.72 105.82,-21.05 17.73,-1.66 35.46,-4.99 52.64,-9.97 17.17,-4.44 34.9,-7.76 52.63,-8.87 12.75,-0.55 24.38,-3.88 35.46,-8.31 25.49,-10.53 52.64,-12.19 79.23,-17.17 33.25,-6.1 65.38,-13.85 98.62,-18.84 22.72,-3.33 44.33,-11.08 66.49,-16.07 18.28,-4.43 36.01,-5.54 54.3,-4.98 -18.84,24.37 -40.45,45.43 -62.06,67.59 -73.13,75.35 -150.7,146.27 -238.79,203.89 -86.44,57.07 -177.3,105.27 -277.58,134.63 -41.56,12.19 -84.22,20.5 -127.99,17.73 -18.28,-1.1 -35.46,-4.98 -51.53,-12.18 -35.45,-16.07 -53.18,-53.75 -45.98,-94.75 8.31,-45.98 29.92,-86.43 55.4,-124.66 15.52,-21.61 29.92,-42.66 48.21,-60.39z"/><path fill="#727272" d="M3562.47 2957.26c-68.15,-2.22 -135.19,-10.53 -199.46,-36.02 -8.31,-3.32 -16.07,-7.2 -24.38,-11.63 -15.51,-8.31 -18.84,-16.07 -11.63,-32.14 7.2,-17.17 14.96,-34.35 22.71,-50.97 7.76,-16.07 14.96,-19.39 31.58,-12.74 28.26,11.08 57.07,22.16 86.99,29.36 47.09,11.08 94.19,17.73 142.95,9.42 14.95,-2.22 28.81,-7.76 40.99,-16.62 42.67,-29.37 43.77,-89.21 1.67,-119.12 -32.69,-23.27 -70.92,-36.57 -108.04,-50.98 -45.99,-17.73 -92.53,-33.79 -132.97,-63.16 -45.99,-33.24 -63.17,-78.67 -60.95,-135.19 3.32,-78.67 60.95,-137.4 136.3,-154.02 40.44,-8.87 80.89,-10.53 121.89,-7.21 47.65,3.33 94.19,12.19 139.06,29.37 20.5,7.76 24.94,17.17 17.18,37.68 -5.54,14.95 -11.64,29.91 -17.73,44.87 -7.76,18.84 -12.74,21.06 -32.14,14.41 -35.45,-12.75 -71.47,-22.72 -108.59,-26.04 -27.7,-2.22 -55.96,-4.43 -83.66,3.32 -28.26,7.76 -49.31,24.38 -54.85,54.3 -4.99,28.81 8.31,50.42 31.58,65.93 28.81,19.95 61.5,31.03 93.08,43.77 31.03,12.19 62.05,23.27 91.97,38.23 33.8,16.62 63.72,38.23 86.99,69.26 42.66,57.06 39.34,181.17 -51.53,236.58 -27.15,16.62 -56.51,24.93 -86.43,32.68 -24.38,6.65 -48.2,5.55 -72.58,6.65l0 0.01z"/><path fill="#ec510d" d="M3134.74 1469.08c-6.09,3.87 -11.08,6.09 -19.39,3.32 -6.65,-2.77 -16.07,-2.77 -22.72,3.32 -5.54,4.99 -12.74,3.33 -19.39,4.99 -25.48,6.1 -50.97,13.3 -76.46,17.73 -32.13,5.54 -63.71,12.19 -95.85,17.73 -26.04,4.43 -53.74,5.54 -77.01,19.95 -8.87,5.54 -19.95,3.32 -29.92,3.87 -22.72,1.11 -43.77,8.31 -65.93,12.19 -26.04,4.99 -52.64,4.99 -78.12,14.41 -24.94,9.42 -53.19,5.54 -77.57,16.06 -19.39,8.87 -41.55,3.88 -59.28,16.63 -1.11,1.1 -3.33,0.55 -4.99,0.55 -19.39,-4.43 -37.12,1.11 -54.85,8.31 -2.77,1.11 -5.54,0.56 -6.65,-1.66 -1.66,-3.33 0,-7.2 2.22,-9.42 4.43,-4.43 9.42,-8.31 11.08,-14.96 4.98,-4.43 9.97,-8.86 14.96,-12.74 7.2,-5.54 12.19,-13.3 20.5,-17.73 1.66,-1.66 3.32,-3.33 4.98,-4.99 6.65,-5.54 12.75,-11.08 20.5,-14.96 32.14,-26.59 64.83,-51.52 99.18,-74.24 33.24,-21.61 67.59,-41 102.5,-59.28 36.01,-19.4 73.69,-34.35 111.92,-48.21 47.09,-17.17 96.4,-27.14 146.26,-35.46 69.81,-11.63 140.18,-9.41 210.54,-8.86 21.06,0 42.11,5.54 63.17,4.43 4.98,0 8.31,1.66 9.41,6.65 -40.44,50.97 -82,103.61 -129.09,152.36l0 0.01z"/><path fill="#727272" d="M2587.34 2657.51c0,-80.89 0,-161.78 0,-242.12 0,-17.17 1.11,-33.79 4.98,-50.41 6.1,-26.6 24.38,-41 49.32,-48.21 21.6,-6.09 44.32,-7.75 66.48,-9.42 69.81,-6.09 138.51,-1.1 204.45,24.38 29.36,11.08 55.4,27.71 79.78,47.1 17.73,14.4 18.28,21.05 4.99,39.33 -12.19,16.07 -24.94,32.14 -37.13,48.76 -13.29,17.18 -19.39,18.28 -36.01,3.88 -28.81,-25.49 -62.05,-43.22 -99.17,-52.08 -36.02,-8.87 -72.03,-9.42 -108.6,-2.77 -6.65,1.11 -9.97,4.43 -9.97,10.52 0,4.44 -0.56,9.42 -0.56,13.86 0,156.24 0,311.93 0,468.17 0,33.24 -1.66,34.9 -35.46,34.9 -21.05,0 -41.55,0.56 -62.6,-0.55 -17.73,-1.11 -20.5,-3.88 -20.5,-22.16 0,-60.95 0,-122.45 0,-183.39 0,-27.15 0,-53.75 0,-79.79l0 0zm626.08 -27.14c0,95.85 0,191.14 0,286.99 0,21.06 -2.77,24.38 -22.72,24.94 -26.04,0.55 -52.08,1.1 -77.57,-0.56 -12.74,-0.55 -17.17,-7.2 -17.17,-18.84 0,-4.98 0,-9.97 0,-15.51 0,-185.61 0,-370.66 0,-556.27 0,-3.87 0,-7.75 0,-11.63 0.55,-17.73 4.43,-22.16 21.61,-22.16 24.93,-0.56 49.31,-0.56 74.24,0 18.28,0.55 22.16,4.43 22.16,23.27 -0.55,96.96 -0.55,193.36 -0.55,289.77l0 0zm-135.19 -475.93c0,-44.33 33.24,-77.02 78.12,-76.46 44.88,0 78.12,33.79 77.57,78.67 0,43.22 -34.91,77.57 -78.68,77.02 -49.86,-0.56 -80.89,-41 -77.01,-79.23l0 0z"/><path fill="#fe7606" d="M2495.92 1550.52c-5.54,7.2 -10.53,14.96 -20.5,17.73 4.43,-8.86 9.97,-16.07 20.5,-17.73zm25.49 -20.5c-4.99,7.2 -12.19,12.19 -20.5,14.96 4.43,-8.31 10.52,-14.4 20.5,-14.96z"/></g></g></svg>