<svg xmlns="http://www.w3.org/2000/svg" fill-rule="evenodd" clip-rule="evenodd" image-rendering="optimizeQuality" shape-rendering="geometricPrecision" text-rendering="geometricPrecision" viewBox="-2 1 6600 3300"><defs><linearGradient id="a" x1="556.47" x2="893.96" y1="601.64" y2="1660.62" gradientUnits="userSpaceOnUse"><stop offset="0" stop-color="#c5ce21"/><stop offset="0.0392157" stop-color="#c5ce21"/><stop offset="0.180392" stop-color="#b4c423"/><stop offset="0.470588" stop-color="#88aa28"/><stop offset="0.8" stop-color="#50882e"/><stop offset="1" stop-color="#50882e"/></linearGradient></defs><g><g><rect width="6600" height="3300" x="-2" y="1" fill="none"/><g><g><path fill="url(#a)" d="M258.1 1497.35c0,78.33 30.13,186.79 120.51,271.15 30.13,30.13 60.26,54.23 102.43,72.3 -24.1,120.52 -30.12,253.08 -18.07,409.74l84.36 -6.02c-30.13,-144.62 -36.16,-271.15 -18.08,-385.64 349.48,132.56 903.83,-168.71 476.02,-1422.03 -48.21,566.4 -741.15,524.22 -747.17,1060.5z"/></g><path fill="#50882e" fill-rule="nonzero" d="M6060.71 2262.59l-132.56 0 -241.02 596.53 132.56 0 48.21 -126.53 283.2 0 36.15 84.36c6.03,18.07 18.08,42.17 60.26,42.17l90.38 0 -277.18 -596.53zm-168.71 379.61l96.41 -265.12 108.46 265.12 -204.87 0zm-4296.23 -54.23l289.23 0 0 -78.33 -289.23 0 0 -168.71 301.28 0 0 -78.33 -421.79 0 0 596.53 427.82 0 0 -84.36 -307.31 0 0 -186.79 0 -0.01zm1174.99 0l289.23 0 0 -78.33 -289.23 0 0 -168.71 301.28 0 0 -78.33 -421.79 0 0 596.53 427.81 0 0 -84.36 -307.3 0 0 -186.79 0 -0.01zm2723.55 -325.38l126.54 0 0 596.53 -126.54 0 0 -596.53zm-313.33 319.36c0,18.08 12.05,36.15 54.23,36.15l42.18 0 0 126.54c-24.1,12.05 -54.23,18.08 -90.38,18.08 -120.51,0 -186.79,-72.31 -186.79,-204.87 0,-120.51 60.25,-204.87 186.79,-204.87 48.2,0 96.41,6.02 144.61,18.08l0 -96.41c-42.18,-12.05 -90.38,-18.08 -144.61,-18.08 -216.92,0 -313.33,156.66 -313.33,301.28 0,150.64 96.41,301.27 313.33,301.27 90.38,0 162.69,-30.12 204.87,-72.3l0 -241.02 -162.69 0c-42.18,-6.03 -48.21,24.1 -48.21,36.15l0 0zm-2922.39 -319.36c-216.93,0 -313.33,150.64 -313.33,301.28 0,150.64 96.4,301.28 313.33,301.28 210.89,0 313.32,-156.67 313.32,-301.28 0,-150.64 -96.4,-301.28 -313.32,-301.28zm0 500.13c-120.52,0 -186.8,-72.31 -186.8,-204.87 0,-132.57 66.28,-204.87 186.8,-204.87 120.51,0 186.79,72.3 186.79,204.87 0,132.56 -66.28,204.87 -186.79,204.87zm2410.22 -180.77c48.2,-12.05 126.54,-54.23 126.54,-156.67 0,-84.35 -66.28,-162.69 -186.8,-162.69l-265.12 0 0 596.53 120.51 0 0 -518.19 96.41 0c90.38,0 108.46,54.23 108.46,90.38 0,54.23 -42.18,90.38 -102.43,90.38 -42.18,0 -66.29,18.08 -66.29,42.18 0,18.08 12.05,36.16 54.23,42.18 54.23,6.03 78.34,66.28 108.46,132.56 0,0 24.11,60.26 36.16,78.34 6.02,18.07 18.07,42.17 60.25,42.17l96.41 0 -42.18 -90.38c-48.2,-96.41 -84.35,-150.64 -144.61,-186.79l0 0zm-3416.49 -319.36l0 409.74 -325.38 -409.74 -126.54 0 0 596.53 120.51 0 0 -439.86c0,0 265.12,343.46 325.38,421.79 6.03,12.05 18.08,18.07 42.18,18.07l90.38 0 0 -596.53 -126.53 0zm2705.47 325.38l289.23 0 0 -78.33 -289.23 0 0 -168.71 301.28 0 0 -78.33 -421.79 0 0 596.53 427.82 0 0 -84.36 -307.31 0 0 -186.79 0 -0.01zm-343.45 -325.38l0 409.74 -325.38 -409.74 -132.57 0 0 596.53 120.52 0 0 -439.86c0,0 265.12,343.46 325.38,421.79 6.02,12.05 18.07,18.07 42.17,18.07l90.39 0 0 -596.53 -120.51 0z"/></g></g></g></svg>