<svg  id="fndm-miuhrpc4ui" viewBox="0.08389950543642044 -0.02474282495677471 640.1509399414062 148.11474609375" xmlns="http://www.w3.org/2000/svg">
   <g xmlns="http://www.w3.org/2000/svg" fill="none">
    <path d="m518.634,119.156c12.4,-12.39 25.5,-24.208 33.69,-40.129c12.447,-24.144 7.172,-42.846 -16.318,-56.727c-17.579,-10.399 -37.166,-14.797 -56.936,-18.526c-1.482,-0.28 -2.948,-0.63 -4.414,-0.94c-0.407,-0.797 -0.797,-1.666 -1.235,-2.495l6.765,0.367a1.33,1.33 0 0 0 2.143,0.056l6.503,0.167l7.036,0.438c20.08,-0.414 38.917,4.096 55.707,15.276c16.917,11.259 21.889,27.403 15.02,46.615c-5.506,15.403 -15.22,28.096 -26.216,39.961c1.594,1.188 2.988,0.606 4.255,-0.055c21.985,-11.587 43.906,-23.3 62.656,-39.938a86.744,86.744 0 0 0 10.36,-10.886c8.438,-10.662 8.566,-17.483 0.287,-30.455c9.092,2.231 15.546,6.638 19.92,13.387c3.881,6.016 2.622,12.574 -0.98,18.542c-5.72,9.499 -14.343,16.057 -23.347,22.025c-27.292,18.12 -56.95,31.547 -87.381,43.372c-2.526,-0.454 -5.044,3.243 -7.515,-0.056l0,0.001z" fill="#13A665"/>
    <path d="m343.473,148.09c-4.247,-0.335 -8.494,-0.925 -12.75,-0.957c-6.239,-0.056 -6.693,-2.82 -5.147,-8.136c1.339,-4.565 2.51,-6.757 7.514,-3.984c5.96,3.275 12.582,3.188 19.124,2.478c9.563,-1.051 18.798,-10.582 19.643,-20.008c0.382,-4.28 -1.674,-4.104 -4.479,-2.47c-5.633,3.267 -11.705,4.279 -18.128,3.769c-8.263,-0.662 -13.65,-5.515 -14.152,-13.77c-1.012,-16.797 3.985,-31.802 15.284,-44.296c9.06,-10.024 21.514,-11.156 33.698,-3.785c1.434,0.868 2.67,1.737 3.594,-0.215c2.789,-5.865 8.016,-2.39 12.064,-3.06c3.028,-0.502 2.661,2.31 2.128,4.27c-6.287,22.966 -11.881,46.154 -19.196,68.776c-5.092,15.69 -17.085,21.196 -39.197,21.387l0,0.001zm38.575,-72.513c0,-5.482 -0.207,-11.156 -6.438,-13.132c-6.55,-2.104 -11.825,0.797 -15.586,6.183a54.615,54.615 0 0 0 -9.435,26.67c-0.43,4.662 -1.116,10.264 4.359,12.495c5.474,2.231 10.837,0.75 15.06,-3.793a43.739,43.739 0 0 0 12.04,-28.4l0,-0.023z" fill="#77BE4C"/>
    <path d="m25.988,58.198c5.761,-2.972 11.387,-6.662 18.55,-6.375c10.678,0.407 15.659,4.909 16.216,15.467a62.552,62.552 0 0 1 -7.466,33.292c-8.717,16.359 -25.347,23.435 -43.093,18.43c-5.339,-1.505 -8.646,-4.653 -9.562,-10.295a41.117,41.117 0 0 1 0.797,-17.132a13338.692,13338.692 0 0 1 16.399,-60.918c1.442,-5.355 8.35,-8.454 13.18,-6.064c2.884,1.426 1.091,3.466 0.669,5.148c-1.945,7.769 -4.032,15.498 -6.128,23.228c-0.398,1.633 -1.402,3.235 0.438,5.219zm19.69,15.682c-0.135,-4.487 0.685,-9.562 -4.78,-11.49c-5.045,-1.81 -9.244,0.613 -12.941,3.904a22.463,22.463 0 0 0 -3.005,3.323a54.544,54.544 0 0 0 -10.725,30.606c-0.406,8.12 4.335,11.777 12.351,9.953a15.14,15.14 0 0 0 9.562,-6.765c5.721,-9.005 9.14,-18.814 9.538,-29.547l0,0.016z" fill="#13A665"/>
    <path d="m508.467,73.84c-0.271,28.415 -19.292,48.081 -44.918,46.424c-14.566,-0.94 -21.841,-8.375 -20.949,-22.71c1.227,-19.921 11.833,-42.838 37.547,-45.747c18.136,-2.048 28.471,5.714 28.32,22.033zm-14.782,0.454c0.136,-5.076 -1.163,-9.658 -6.446,-11.546c-7.124,-2.55 -13.777,-0.638 -18.423,4.972c-7.594,9.188 -11.156,20.208 -10.949,32.113c0.12,7.442 4.837,11.155 12.344,10.542c5.729,-0.494 10.637,-2.75 13.928,-7.801a58.448,58.448 0 0 0 9.546,-28.28zm66.959,12.63c6.375,-9.275 13.251,-18.327 17.14,-29.069c7.171,-19.77 -0.797,-37.642 -21.395,-47.667c-6.056,-2.948 -12.383,-5.347 -19.523,-8.398c3.012,-0.343 5.355,-1.1 7.546,-0.797c19.634,2.9 39.26,5.769 56.966,15.809c15.14,8.566 18.208,21.037 7.73,35.005c-12.32,16.423 -29.117,27.292 -47.086,36.535l-1.378,-1.418zm-247.14,-35.173c16.885,0.614 22.025,7.3 18.152,22.36c-3.379,13.1 -6.917,26.168 -10.415,39.236c-1.354,5.068 -11.761,8.71 -13.889,4.494c-2.7,-5.37 -4.446,-1.737 -6.59,-0.733c-5.577,2.63 -11.362,3.984 -17.53,2.9c-9.705,-1.665 -13.714,-7.912 -10.988,-17.45a23.905,23.905 0 0 1 15.14,-16.479a70.194,70.194 0 0 1 22.757,-4.661c3.578,-0.12 6.216,-0.654 7.172,-4.821c0.956,-4.168 2.988,-8.359 -0.088,-12.184c-2.685,-3.33 -6.645,-3.107 -10.43,-2.056a13.467,13.467 0 0 0 -7.315,5.028c-0.75,1.004 -1.283,2.39 -2.28,2.957c-4.175,2.39 -9.338,3.131 -12.637,0.08c-2.606,-2.391 1.267,-5.865 3.107,-8.216c6.885,-8.75 16.774,-10.16 25.834,-10.455zm-5.506,38.32c-7.459,1.084 -15.076,2.136 -19.124,9.714c-1.323,2.486 -2.781,5.578 -0.447,8.462c2.51,3.092 5.825,2.502 8.957,1.419c7.379,-2.558 11.713,-8.327 14.79,-15.076c1.856,-4.096 -0.87,-4.718 -4.176,-4.519z" fill="#77BE4C"/>
    <path d="m134.566,114.59c-4.909,0.136 -8.16,4.263 -12.989,5.092c-9.363,1.594 -18.136,-0.622 -20.885,-6.271c-2.932,-6.024 0.231,-16.893 6.797,-22.375c8.534,-7.132 19.124,-8.415 29.579,-9.65c7.116,-0.837 12.231,-9.419 9.251,-15.89c-2.534,-5.497 -13.706,-5.457 -17.953,1.109c-3.538,5.482 -7.968,5.051 -12.869,4.996c-3.458,-0.04 -4.263,-1.315 -2.685,-4.718c6.008,-12.996 30.893,-20.104 42.99,-12.04c4.199,2.797 5.617,7.124 4.956,11.81c-2.39,16.948 -8.351,33.02 -12.487,49.555c-1.299,5.203 -6.43,1.817 -9.73,2.637c-3.625,0.909 -3.983,-1.713 -4.119,-4.366c0.189,-0.05 0.37,-0.127 0.534,-0.231c0.056,-0.048 -0.056,-0.28 -0.088,-0.43l-0.302,0.772zm2.175,-24.614c-10.056,0.16 -18.606,5.004 -20.662,11.458c-0.884,2.757 -1.108,5.443 1.195,7.642c2.048,1.952 4.558,1.873 7.02,1.068c7.562,-2.478 12.583,-7.833 15.993,-14.782c1.96,-3.984 0.98,-6.27 -3.546,-5.386zm35.627,30.511c-2.566,-0.335 -6.024,-0.853 -9.507,-1.227c-4.032,-0.447 -7.171,-0.797 -5.856,-6.694c1.378,-6.064 4.374,-5.33 8.637,-3.817c6.845,2.43 13.794,2.757 20.535,-0.39c6.98,-3.267 7.69,-8.51 1.745,-13.26c-3.721,-2.972 -7.801,-5.474 -11.634,-8.303c-10.67,-7.88 -11.171,-19.036 -0.701,-27.514c10.47,-8.479 22.495,-9.053 34.95,-5.483c5.577,1.594 1.593,5.228 1.37,7.92c-0.263,3.77 -2.454,3.316 -5.283,2.304c-6.215,-2.231 -12.542,-3.634 -18.925,-0.223c-6.383,3.41 -6.821,7.466 -0.892,11.809a241.96,241.96 0 0 0 11.777,8.088c9.713,6.295 11.458,13.65 3.06,25.642c-6.734,9.642 -17.634,10.534 -29.276,11.148z" fill="#13A665"/>
    <path d="m429.867,61.043c4.78,-2.957 8.526,-6.606 13.41,-7.865c2.861,-0.75 7.387,-3.658 8.335,0.558c0.86,3.785 -0.055,11.076 -4.247,11.617c-23.698,3.068 -25.833,22.12 -30.702,39.356c-0.948,3.379 -2.024,6.742 -2.733,10.168c-0.606,2.893 -1.825,3.984 -5.012,4.128c-10.248,0.39 -10.24,0.51 -7.515,-9.38c4.526,-16.446 9.475,-32.805 13.172,-49.443c1.474,-6.63 4.837,-6.534 9.92,-6.94c6.168,-0.502 4.678,4 5.372,7.8l0,0.001z" fill="#77BE4C"/>
    <path d="m240.537,118.168c4.845,-18.216 9.674,-36.384 14.487,-54.504c3.028,-11.403 6.04,-22.805 9.148,-34.176c1.195,-4.407 9.904,-7.45 13.211,-4.638c2.32,1.984 0.486,4.295 0,6.271c-6.613,24.973 -13.355,49.906 -20.064,74.847c-0.191,0.726 -0.486,1.427 -0.677,2.152c-3.148,11.761 -3.148,11.761 -16.105,10.048zm-181.305,-0.168c5.419,-20.303 10.782,-40.566 16.272,-60.798c1.873,-6.909 7.857,-3.498 11.315,-3.188c6.231,0.598 -0.741,5.538 2.104,8.4c4.701,-2.599 8.295,-7.913 14.128,-9.14c2.773,-0.582 7.633,-3.539 8.183,0.47c0.526,3.777 0.614,10.98 -5.123,11.745c-17.826,2.35 -23.523,14.893 -27.173,29.746c-1.131,4.614 -2.462,9.18 -3.705,13.77c-3.02,11.187 -3.02,11.187 -16,8.996l-0.001,-0.001zm157.52,0.758c-5.475,1.012 -7.419,0 -5.626,-6.072c5.14,-17.53 9.562,-35.284 14.287,-52.95c1.347,-5.02 9.284,-8.367 13.547,-5.73c1.777,1.108 0.972,2.51 0.59,3.913c-5.077,18.87 -10.296,37.706 -15.14,56.64c-1.26,4.932 -4.312,4.629 -7.658,4.199zm21.092,-80.123c-2.104,-1.004 -7.642,2.638 -6.877,-3.57c0.63,-5.163 0.59,-12.526 9.562,-10.621c2.885,0.613 7.778,-2.694 8.32,2.797c0.733,7.362 -3.403,11.355 -11.005,11.394z" fill="#13A665"/>
    <path d="m518.634,119.156c2.47,3.299 4.989,-0.414 7.475,0.056c-5.196,3.984 -11.363,5.323 -17.483,6.685c4.008,-1.195 5.602,-6.08 10.008,-6.74l0,-0.001zm-45.22,-118.816c0.414,0.796 0.797,1.665 1.235,2.493c-2.781,0.861 -5.227,-0.541 -8.223,-1.115a7.26,7.26 0 0 1 6.988,-1.379l0,0.001zm22.446,1.027l-7.034,-0.437c2.398,-0.693 4.725,-0.215 7.036,0.438l-0.002,-0.001zm66.162,86.991c-0.796,0.925 -1.824,2.311 -2.82,1.26c-0.996,-1.053 0.502,-1.993 1.442,-2.694l1.378,1.434zm-79.7,-87.596a1.33,1.33 0 0 1 -2.143,-0.056l2.143,0.056z" fill="#77BE4C"/>
    <path d="m134.566,114.59l0.302,-0.797c0,0.152 0.144,0.383 0.088,0.43a1.896,1.896 0 0 1 -0.534,0.232l0.144,0.135z" fill="#FEFEFE"/>
   </g>
  </svg>