<svg xmlns="http://www.w3.org/2000/svg" fill-rule="evenodd" clip-rule="evenodd" image-rendering="optimizeQuality" shape-rendering="geometricPrecision" text-rendering="geometricPrecision" viewBox="-2 1 6600 3300"><g><rect width="6600" height="3300" x="-2" y="1" fill="none"/><g><g><g><g><path fill="#21b354" d="M2654.69 1752.79c0,51.75 -18.54,96.62 -55.01,133.37 -36.56,36.84 -81.6,55.1 -133.46,55.1 -51.74,0 -96.76,-18.41 -133.41,-55.06 -36.64,-36.64 -55.05,-81.66 -55.05,-133.41l0 -203.58c0,-51.86 18.26,-96.9 55.1,-133.46 36.75,-36.47 81.62,-55.01 133.36,-55.01 51.86,0 96.75,18.39 133.42,55.06 36.66,36.68 55.05,81.57 55.05,133.41l0 203.58zm-76.05 -206.56c0,-31.21 -10.86,-57.19 -33.38,-79.3 -21.85,-22.26 -47.85,-33.14 -79.04,-33.14 -31.24,0 -57.07,11.4 -79.22,33.34 -22.16,21.95 -33.19,47.85 -33.19,79.1l0 209.57c0,31.18 11.23,57.12 33.25,79.14 22.04,22.04 47.96,33.27 79.16,33.27 31.25,0 57.15,-11.03 79.1,-33.21 21.91,-22.13 33.32,-47.98 33.32,-79.2l0 -209.57zm-1307.47 -65.89c-3.55,-4.66 -7.47,-9.06 -11.93,-13.41 -21.82,-22.26 -47.83,-33.14 -79.01,-33.14 -31.25,0 -57.08,11.4 -79.23,33.34 -22.15,21.95 -33.18,47.85 -33.18,79.1l0 209.57c0,31.18 11.23,57.12 33.25,79.14 22.04,22.04 47.96,33.27 79.16,33.27 31.23,0 57.14,-11.03 79.1,-33.21 21.91,-22.13 33.31,-47.98 33.31,-79.2l0 -47.66c0,-7.37 -10.66,-20.82 -18.25,-20.8l-66.11 0.15c-49.37,0.13 -49.92,-79.64 -0.11,-79.64l67.15 0c44.55,0 93.37,45.17 93.37,90.43l0 54.51c0,51.73 -18.56,96.64 -55,133.37 -36.56,36.82 -81.63,55.1 -133.46,55.1 -51.74,0 -96.77,-18.41 -133.41,-55.06 -36.64,-36.64 -55.05,-81.66 -55.05,-133.41l0 -203.58c0,-51.86 18.25,-96.9 55.09,-133.46 36.76,-36.47 81.63,-55.01 133.37,-55.01 51.86,0 96.75,18.39 133.41,55.06 6.03,6.05 11.62,12.51 16.93,19.19 30.05,37.75 -32.75,76.81 -58.77,46.13l-0.63 -0.78zm-727.18 3.41l-127.01 429.46c-4.96,16.77 -18.28,26.54 -35.73,26.54 -22.81,0 -38.04,-14.23 -38.04,-37.27l0 -7.27 146.64 -496.32c6.64,-25.63 29.25,-35.14 53.81,-35.14 24.81,0 47.88,9.37 54.54,35.16l144.81 492.62c1.35,3.49 1.83,7.19 1.83,10.95 0,23.04 -15.24,37.27 -38.02,37.27 -17.65,0 -31.46,-9.48 -36.49,-26.56l-126.34 -429.44zm0.04 317.42c31.88,0 57.73,-25.86 57.73,-57.73 0,-31.9 -25.85,-57.73 -57.73,-57.73 -31.9,0 -57.75,25.83 -57.75,57.73 0,31.87 25.85,57.73 57.75,57.73zm1490.11 114.37c0,2.28 -0.46,4.13 -1.33,5.85 -0.31,0.57 -0.7,1.09 -1.18,1.59l-71.22 0c-1.04,-0.85 -1.93,-1.79 -2.72,-2.87 -1.61,-2.14 -2.96,-4.99 -4.13,-8.27l-51.46 -127.65c-22.57,-56.01 -47.85,-91.41 -117.53,-91.41l-49.83 0 0 222.76c0,2.26 -0.59,4.13 -1.91,5.85 -0.46,0.57 -0.98,1.11 -1.59,1.59l-67.76 0c-0.59,-0.48 -1.07,-1.02 -1.48,-1.59 -1.18,-1.57 -1.77,-3.57 -1.77,-5.85l0 -500.74c0,-10.84 2.96,-18.39 8.88,-22.81 5.92,-4.29 12.25,-6.42 18.91,-6.42l119.16 0c14.21,0 25.89,0.28 35.34,1 9.31,0.7 17.75,1.57 25.28,2.29 21.74,3.7 40.82,9.4 57.51,17.1 16.56,7.86 30.47,17.69 41.7,29.68 11.38,11.97 19.82,25.66 25.43,41.21 5.62,15.39 8.43,32.51 8.43,51.18 0,17.98 -2.51,34.23 -7.53,48.66 -5.18,14.25 -12.43,26.94 -21.89,37.93 -9.6,10.96 -20.96,20.58 -34.3,28.66 -13.27,8.02 -20.37,14.84 -36.92,20.38 9.31,4.01 17.58,8.86 25.13,14.84 7.53,5.99 14.51,13.26 20.98,21.55 15.01,19.21 65.38,154.28 78.33,184.96 3.98,9.98 6.66,17.12 7.68,21.1 1.18,4.01 1.79,7.14 1.79,9.43zm-112.22 -380.22c0,-21.1 -4.87,-39.08 -14.77,-53.76 -9.77,-14.56 -26.18,-25.12 -49.4,-31.54 -7.25,-1.98 -15.36,-3.26 -24.39,-4.13 -9.16,-0.85 -21,-1.28 -35.78,-1.28l-62.84 0 0 174.53 72.74 0c43.31,0 90.44,-5.04 107.78,-47.46 4.53,-11.07 6.66,-23.23 6.66,-36.36z"/><path fill="#373435" fill-rule="nonzero" d="M3214.66 1468.63c-4,-5.27 -8.51,-10.36 -13.47,-15.23 -25.46,-25.94 -56.38,-38.91 -92.81,-38.91 -35.94,0 -66.86,12.97 -92.82,38.91 -25.94,25.46 -38.91,56.4 -38.91,92.83l0 209.57c0,35.9 12.97,66.84 38.91,92.8 25.96,25.94 56.88,38.91 92.82,38.91 36.43,0 67.24,-13.1 92.81,-38.91 25.81,-26.07 38.91,-56.9 38.91,-92.8l0 -63.11c0,-18.32 -19.3,-40.12 -37.6,-40.1l-81.56 0.15c-23.89,0.04 -24.39,-41.02 -0.07,-41.02l82.58 0c34.23,0 74.07,36.91 74.07,71.11l0 69.96c0,46.4 -16.34,86.46 -49.39,119.75 -32.82,33.05 -72.85,49.42 -119.75,49.42 -46.41,0 -86.32,-16.48 -119.76,-49.42 -32.93,-33.42 -49.4,-73.35 -49.4,-119.75l0 -203.58c0,-46.9 16.47,-86.83 49.4,-119.75 33.44,-32.94 73.35,-49.39 119.76,-49.39 46.9,0 86.8,16.45 119.75,49.39 5.63,5.64 10.73,11.58 15.49,17.56 14.3,17.98 -19.26,33.06 -28.96,21.61zm1222.63 426.36c0,11.99 -5.99,17.98 -17.98,17.98l-29.18 0 -68.87 0c-34.92,0 -64.86,-12.23 -89.8,-36.67 -24.96,-24.96 -37.43,-54.64 -37.43,-89.08l0 -388.46c0,-12.47 6.23,-18.72 18.72,-18.72 12.46,0 18.71,6.25 18.71,18.72l0 385.48c0,25.43 8.96,47.39 26.94,65.86 18.45,17.96 40.67,26.94 66.61,26.94l94.3 0c11.99,0 17.98,5.99 17.98,17.95zm1273.09 -2.24c2,3.51 3,6.99 3,10.49 0,12.47 -6.48,18.72 -19.48,18.72 -6.48,0 -11.46,-3.01 -14.97,-8.99l-144.44 -230.53c-4,-5.98 -7.75,-5.98 -11.23,0l-144.46 230.53c-3.98,5.98 -8.99,8.99 -14.97,8.99 -12.97,0 -19.46,-6.25 -19.46,-18.72 0,-3.5 1.01,-6.98 2.99,-10.49l150.44 -243.25c3.51,-6.49 3.51,-13.21 0,-20.19l-123.48 -220.06c-2.01,-3.51 -3.01,-6.99 -3.01,-10.49 0,-5.49 2.14,-10.36 6.38,-14.58 4.22,-4.24 9.09,-6.38 14.58,-6.38 6.48,0 11.49,3.25 14.97,9.73l116.02 208.09c1,2.48 2.98,3.74 5.99,3.74 2.5,0 4.48,-1.26 5.98,-3.74l116.77 -206.59c3.5,-6.48 8.48,-9.73 14.97,-9.73 12.96,0 19.45,6.49 19.45,19.46 0,3.5 -1,6.98 -2.98,10.49l-122.75 220.06c-3.5,6.48 -3.24,13.46 0.74,20.95l148.95 242.49zm366.17 -241.82c-5.52,-10.03 -10.83,-18.9 -12.36,-21.62l-123.48 -220.06c-2.01,-3.49 -3.01,-6.99 -3.01,-10.49 0,-5.49 2.14,-10.34 6.38,-14.58 4.24,-4.24 9.1,-6.35 14.58,-6.35 6.48,0 11.49,3.22 14.97,9.72l116.02 208.07c1,2.48 2.98,3.74 5.99,3.74 2.48,0 4.48,-1.26 5.98,-3.74l116.77 -206.59c3.5,-6.48 8.48,-9.73 14.97,-9.73 12.97,0 19.45,6.49 19.45,19.46 0,3.5 -1,7 -2.98,10.49l-122.75 220.06c-1.39,2.48 -6.98,11.18 -13.1,21.36l0 251.07c0,12.47 -6.24,18.71 -18.71,18.71 -12.49,0 -18.72,-6.24 -18.72,-18.71l0 -250.81zm-1145.2 -221.47c-0.98,-2.5 -2.48,-3.74 -4.48,-3.74 -1.51,0 -2.75,1.24 -3.75,3.74l-78.59 265.71 165 0 -78.18 -265.71zm-99.92 309.99l-49.77 168.27c-2.48,8.49 -8.22,12.73 -17.21,12.73 -12.47,0 -18.71,-5.98 -18.71,-17.97l0 -4.48 145.94 -494c3.5,-13.97 15.23,-20.95 35.19,-20.95 20.45,0 32.44,6.98 35.92,20.95l145.21 494c0.5,1 0.74,2.5 0.74,4.48 0,11.99 -6.23,17.97 -18.7,17.97 -9.48,0 -15.47,-4.24 -17.97,-12.73l-49.5 -168.27 -191.14 0zm-1091.48 -309.99c-1.01,-2.5 -2.49,-3.74 -4.49,-3.74 -1.5,0 -2.74,1.24 -3.74,3.74l-78.6 265.71 165.01 0 -78.18 -265.71zm-99.93 309.99l-49.76 168.27c-2.5,8.49 -8.23,12.73 -17.21,12.73 -12.47,0 -18.72,-5.98 -18.72,-17.97l0 -4.48 145.95 -494c3.5,-13.97 15.23,-20.95 35.18,-20.95 20.46,0 32.43,6.98 35.93,20.95l145.2 494c0.5,1 0.74,2.5 0.74,4.48 0,11.99 -6.22,17.97 -18.71,17.97 -9.47,0 -15.45,-4.24 -17.95,-12.73l-49.51 -168.27 -191.14 0z"/></g><rect width="6600" height="3300" x="-2" y="1" fill="none"/></g></g></g></g></svg>