<svg  id="fndm-r1i9uh8ejq" viewBox="0.7036290168762207 0.8800210952758789 999.1913452148438 548.78564453125" xmlns="http://www.w3.org/2000/svg">
   <g xmlns="http://www.w3.org/2000/svg" fill="none">
    <path d="m226.105,33.849c-25.859,0 -51.718,0.304 -76.937,7.018c-11.556,3.081 -22.28,7.879 -30.293,17.325c-9.654,11.325 -9.283,18.5 2.414,27.745c9.29,7.345 19.873,12.788 30.121,18.655a156.74,156.74 0 0 1 44.187,37.808c28.592,35.164 13.204,71.122 -11.31,91.5c-28.45,23.646 -61.587,32.565 -97.211,36.166c-26.594,2.681 -52.728,0.179 -78.594,-5.644c-2.822,-0.63 -8.042,-0.089 -7.768,-4.158c0.208,-3.127 5.028,-2.228 7.88,-2.548c25.413,-2.792 51.078,-2.302 76.432,-6.126c22.628,-3.409 44.996,-7.427 65.76,-17.682c6.461,-3.194 12.247,-7.278 17.905,-11.652c20.564,-15.908 21.537,-33.42 9.239,-56.07c-10.568,-19.397 -26.839,-33.218 -45.657,-44.172c-11.4,-6.631 -22.955,-12.966 -33.382,-21.142c-16.115,-12.625 -19.234,-29.364 -8.065,-46.378c12.246,-18.64 31.555,-26.735 51.643,-33.196c20.63,-6.61 42.182,-7.018 63.57,-8.377c18.944,-1.203 37.874,-0.609 56.819,-0.089a32.557,32.557 0 0 1 15.655,4.456c5.287,3.06 5.376,6.943 0.066,9.914a50.113,50.113 0 0 1 -24.417,6.61c-9.35,0.081 -18.685,0.037 -28.057,0.037zm773.79,485.38c-3.357,2.97 -7.709,3.23 -12.008,3.616a6609.557,6609.557 0 0 1 -245.984,17.393c-65.916,3.416 -131.87,5.607 -197.853,7.3c-101.741,2.614 -203.483,2.391 -305.224,1.582c-57.74,-0.46 -115.473,-1.916 -173.205,-3.223c-12.915,-0.29 -25.71,-2.496 -38.246,-5.8a45.902,45.902 0 0 1 -6.884,-2.659c-1.203,-0.535 -2.703,-1.092 -2.436,-2.852c0.267,-1.76 1.738,-2.139 3.06,-2.228c3.824,-0.326 7.679,-0.66 11.518,-0.609c75.615,1.122 151.23,2.54 226.853,3.41c101.741,1.165 203.52,1.395 305.276,0a7670.852,7670.852 0 0 0 225.108,-6.499a5781.634,5781.634 0 0 0 179.48,-10.857c9.306,-0.698 18.67,-0.528 28.013,-0.743c1.143,-0.074 2.057,0.468 2.532,2.169zm-346.098,-508.083c-0.357,2.161 -0.32,4.456 -1.159,6.446c-2.027,4.709 0.416,7.063 3.988,9.313c8.6,5.414 17.289,10.731 25.628,16.531c19.554,13.613 23.193,33.24 9.722,52.846c-11.72,17.08 -28.547,27.708 -46.787,36.634a348.757,348.757 0 0 1 -74.263,26.735c-11.318,2.637 -17.08,9.038 -21.596,19.643a1369.684,1369.684 0 0 1 -52.467,110.059c-2.577,4.834 -6.09,7.641 -11.712,7.47c-9.966,-0.289 -12.981,-4.589 -8.57,-13.448c14.563,-29.245 29.453,-58.327 44.143,-87.52c4.07,-8.088 7.716,-16.405 11.845,-24.463c2.45,-4.782 0.98,-6.483 -3.98,-6.602a681.035,681.035 0 0 1 -20.587,-0.831c-2.369,-0.134 -5.503,0.066 -5.674,-3.313c-0.14,-2.718 2.585,-3.178 4.634,-3.906c8.17,-2.881 16.725,-3.342 25.154,-4.144c8.911,-0.846 14.243,-4.173 18.974,-12.587c13.991,-24.857 31.465,-47.663 44.113,-73.38c4.24,-8.63 8.837,-17.081 13.115,-25.688c1.069,-2.154 2.762,-4.798 1.329,-6.996c-1.649,-2.54 -4.575,-0.787 -6.862,-0.408a147.324,147.324 0 0 0 -54.369,20.586c-4.084,2.562 -9.758,6.92 -12.877,2.346c-3.119,-4.574 4.159,-6.735 7.293,-9.023c21.67,-15.84 45.538,-26.735 72.6,-28.755c8.414,-0.623 14.028,-3.639 17.474,-11.072c2.77,-5.941 7.687,-7.315 13.687,-6.543c6,0.772 7.478,4.73 7.204,10.07zm25.034,65.568c-0.17,-14.482 -13.16,-30.746 -25.829,-34.444c-11.266,-3.282 -22.502,1.352 -30.537,14.028c-17.17,27.107 -33.864,54.51 -50.633,81.869c-0.988,1.611 -3.713,3.512 -1.53,5.688c1.782,1.76 4.188,0.067 6.216,-0.467c19.702,-5.147 38.431,-12.96 57.294,-20.497c15.596,-6.231 27.582,-16.613 37.763,-29.453c4.345,-5.466 7.211,-11.667 7.256,-16.724zm123.278,318.442c-10.798,0.141 -13.65,-3.587 -9.788,-13.137c32.81,-81.014 63.116,-162.987 98.161,-243.095c14.2,-32.468 30.671,-63.866 47.53,-95.057c8.978,-16.598 24.729,-18.291 37.42,-4.404c2.837,3.097 1.055,5.48 -0.475,8.102c-24.87,42.412 -49.444,85.01 -74.702,127.199c-21.58,36.04 -37.525,74.568 -51.798,113.861c-10.494,28.903 -21.277,57.71 -27.092,88.114c-2.621,13.627 -8.458,18.298 -19.256,18.417zm6.631,-181.998a104012.647,104012.647 0 0 0 -41.669,35.9c-9.974,8.606 -19.85,17.34 -29.891,25.865a39.189,39.189 0 0 1 -8.236,5.4c-8.57,4.165 -16.71,-0.342 -18.068,-9.922c-1.203,-8.51 1.656,-16.271 4.76,-23.958c12.452,-30.8 24.893,-61.602 37.325,-92.406c0.936,-2.31 1.767,-4.582 3.617,-6.372c3.913,-3.78 8.05,-5.443 13.367,-2.592c5.317,2.852 5.444,7.427 4.188,12.076c-1.359,5.012 -3.55,9.802 -5.458,14.66a198997.09,198997.09 0 0 1 -27.195,68.99c-0.743,1.968 -2.117,3.906 -1.166,6.818c3.438,-0.104 5.592,-2.63 7.983,-4.545c30.5,-24.455 58.505,-51.54 84.66,-80.532c3.714,-4.077 7.145,-8.421 13.591,-8.028c7.226,0.438 9.023,3.075 5.392,9.387c-15.655,27.233 -28.05,55.973 -39.3,85.21c-4.53,11.771 -7.962,23.958 -11.95,35.936a46.883,46.883 0 0 1 -7.085,13.888c-2.77,3.609 -6.282,5.562 -10.738,3.334c-4.805,-2.406 -3.179,-6.453 -1.827,-10.048c8.8,-23.385 17.712,-46.741 26.564,-70.112c0.95,-2.518 1.745,-5.087 2.622,-7.634l-1.486,-1.315zm-140.054,9.513c-10.931,8.117 -18.833,19.309 -31.428,25.198c-10.07,4.708 -20.051,8.971 -31.562,7.426c-10.538,-1.403 -15.714,-6.869 -15.855,-17.51c-0.216,-16.257 6.683,-29.922 16.984,-41.79c14.214,-16.337 31.391,-29.044 50.655,-38.876c11.823,-6.038 24.56,-7.798 37.63,-6.736c11.577,0.95 16.776,8.17 14.622,19.791c-1.968,10.59 -5.198,20.987 -10.182,30.382c-12.624,23.838 -18.707,49.712 -25.524,75.422c-1.485,5.6 -1.604,13.62 -9.914,12.625c-8.17,-0.995 -8.77,-8.437 -9.038,-15.358c-0.438,-11.37 4.456,-21.395 7.634,-31.844c1.931,-6.26 3.98,-12.491 5.978,-18.73zm-42.33,0.528c3.453,-0.097 6.394,-1.604 9.395,-3.008c17.08,-8.006 29.92,-21.173 42.114,-35.067c2.882,-3.283 6.684,-6.684 3.15,-11.46c-3.32,-4.522 -7.85,-3.11 -11.942,-1.106c-13.598,6.684 -26.735,14.11 -38.12,24.277a33.33,33.33 0 0 0 -10.65,18.195c-1.054,4.745 0.298,8.228 6.023,8.169l0.03,0zm-331.639,-3.327c-5.199,4.953 -10.003,9.736 -15.009,14.303c-11.043,10.07 -23.92,16.635 -38.788,18.395c-17.957,2.124 -26.438,-6.884 -23.838,-24.864a61.876,61.876 0 0 1 16.731,-34.31c14.266,-14.89 29.832,-28.279 48.48,-37.874a68.694,68.694 0 0 1 43.073,-6.906c9.26,1.485 13.523,8.25 11.429,18.432a146.255,146.255 0 0 1 -13.687,38.75c-10.13,19.176 -14.853,40.066 -20.281,60.763c-1.107,4.256 -2.191,8.518 -3.52,12.707c-1.107,3.505 -2.8,6.862 -7.13,6.907c-4.894,0.051 -7.426,-3.313 -8.689,-7.48a34.547,34.547 0 0 1 0.26,-20.303c3.09,-10.248 6.402,-20.437 9.602,-30.656c0.795,-2.495 1.998,-4.938 1.367,-7.864zm-47.633,-5.778c0.134,6.565 4.3,8.503 11.437,5.362c18.789,-8.28 33.626,-21.537 46.407,-37.333c2.562,-3.163 6.335,-6.305 3.238,-10.76c-3.446,-4.961 -8.303,-3.26 -12.625,-1.21c-13.456,6.378 -26.193,13.99 -37.377,23.86c-6.104,5.377 -10.062,12.268 -11.08,20.081z" fill="#CA3733"/>
    <path d="m527.823,417.361c7.575,-7.21 16.011,-11.481 26.69,-9.996c6.313,0.876 11.883,3.03 15.655,8.08c2.845,3.78 4.263,4.278 7.79,0.401c7.984,-8.77 18.507,-10.397 29.58,-7.701c9.87,2.376 16.197,11.763 16.568,24.915c0.475,16.762 0.178,33.545 0.46,50.314c0.075,4.389 -1.537,5.748 -5.77,5.666c-19.07,-0.364 -15.023,2.228 -15.358,-14.934c-0.237,-12.098 0.075,-24.203 -0.178,-36.3c-0.148,-6.959 -1.663,-13.368 -10.397,-14.288c-6.95,-0.743 -12.342,3.32 -14.748,11.577c-3.461,11.882 -1.426,24.062 -1.946,36.107c-0.067,1.649 0.185,3.327 -0.045,4.946c-0.586,4.166 2.302,10.338 -1.893,12.075c-4.709,1.946 -10.813,0.973 -16.25,0.55c-4.076,-0.32 -2.777,-4.136 -2.8,-6.624c-0.11,-14.021 0,-28.05 -0.118,-42.07c-0.052,-4.627 -0.037,-9.484 -3.446,-13.257c-5.792,-6.409 -17.08,-3.55 -20.898,5.31c-2.77,6.468 -2.896,13.368 -2.881,20.274c0,9.9 -0.282,19.814 0.104,29.706c0.223,5.48 -1.641,7.166 -7.048,7.01c-17.08,-0.483 -13.924,1.805 -14.11,-13.798c-0.178,-18.7 -0.245,-37.407 0.141,-56.099c0.067,-3.535 -3.386,-9.335 3.996,-10.456c10.961,-1.664 14.288,-0.104 16.902,8.592z" fill="#0F0F0F"/>
    <path d="m438.96,177.556c-1.397,34.236 -13.873,63.124 -36.88,87.312c-9.484,9.981 -24.73,10.902 -37.875,3.082c-17.593,-10.442 -22.457,-27.166 -21.172,-45.917c2.228,-32.476 20.296,-55.639 46.556,-72.712c12.276,-7.99 25.294,-4.352 37.6,1.99c11.34,5.852 11.28,16.48 11.77,26.245l0.001,0zm-77.235,46.786c-0.349,4.835 0.861,9.38 2.146,13.858c1.842,6.364 4.902,11.689 12.365,12.766c7.664,1.099 13.977,-1.693 17.6,-8.11c10.338,-18.283 18.745,-37.443 20.527,-58.668c1.084,-12.862 -6.825,-18.403 -18.224,-12.194c-20.549,11.147 -33.255,28.131 -34.414,52.319l0,0.03l0,-0.001zm537.61,13.026c0.698,-31.116 15.825,-53.35 38.416,-71.568c15.73,-12.691 29.052,-13.687 46.133,-3.587c5.837,3.446 9.409,7.999 10.189,14.95c3.609,32.067 -6.818,60.027 -24.752,85.848c-0.632,0.906 -1.33,1.753 -1.998,2.63c-9.075,11.882 -19.309,21.773 -36.048,17.08c-17.556,-4.96 -27.915,-16.769 -30.96,-34.793c-0.639,-3.81 -0.728,-7.678 -0.98,-10.56zm18.922,-3.713a42.546,42.546 0 0 0 2.228,15.499c1.908,5.867 4.5,11.325 11.682,12.35c7.53,1.07 14.177,-1.344 17.719,-7.753c10.516,-18.99 19.657,-38.617 20.89,-60.844c0.58,-10.568 -7.426,-16.338 -16.694,-11.348c-20.697,11.132 -34.206,27.7 -35.825,52.11l0,-0.014z" fill="#CA3733"/>
    <path d="m693.996,407.083c25.323,0.602 41.706,17.98 41.112,43.6c-0.564,24.619 -18.202,40.934 -43.467,40.221c-25.1,-0.742 -40.637,-17.548 -40.028,-43.384c0.58,-24.5 17.898,-41.024 42.383,-40.437zm-20.601,41.016c0.133,5.792 0.742,11.459 3.334,16.798c3.127,6.365 8.347,9.209 15.157,9.513c6.996,0.32 13.472,-1.344 16.91,-7.916c5.637,-10.753 6.587,-22.064 1.01,-33.181c-3.364,-6.684 -9.298,-9.862 -16.828,-9.81c-7.53,0.052 -13.018,3.616 -16.531,10.27a28.361,28.361 0 0 0 -3.052,14.326zm-424.551,31.926c-8.169,6.446 -15.803,10.88 -25.331,10.961c-14.11,0.126 -24.878,-7.968 -26.735,-21.715c-2.532,-18.566 -0.624,-37.34 -1.129,-56.01c-0.082,-3.104 1.485,-4.136 4.456,-4.552c14.95,-2.101 16.553,-0.817 16.62,13.799c0.052,12.097 -0.133,24.202 0.423,36.27c0.468,10.248 4.234,14.793 11.407,15.595c8.043,0.921 14.073,-3.267 17.244,-12.201c3.981,-11.2 2.147,-22.866 2.548,-34.347c0.096,-2.748 0,-5.503 0,-8.25c0,-10.873 0,-10.331 11.265,-11.007c8.11,-0.482 10.093,2.228 9.892,10.093c-0.55,21.157 -0.364,42.33 -0.066,63.495c0.074,5.451 -1.597,7.471 -6.989,6.884c-5.896,-0.616 -14.035,3.223 -13.605,-9.015zm196.301,11.221c-5.428,-0.795 -10.842,-1.73 -16.293,-2.324c-4.953,-0.535 -6.134,-2.897 -5.674,-7.761c0.936,-10.018 0.624,-10.048 10.523,-7.3c5.637,1.567 11.326,2.406 17.081,0.616c3.899,-1.218 6.951,-3.394 7.114,-8.005c0.149,-4.137 -2.101,-6.773 -5.666,-8.244c-5.072,-2.086 -10.196,-4.106 -15.41,-5.814c-8.08,-2.644 -13.13,-7.798 -14.273,-16.338c-1.255,-9.41 1.032,-17.727 9.276,-23.126c13.085,-8.555 27.477,-7.063 41.416,-3.216c6.239,1.723 1.939,8.17 1.872,12.306c-0.074,4.455 -3.877,2.725 -6.327,2.146c-5.674,-1.352 -11.385,-2.273 -17.148,-1.203c-3.713,0.676 -6.64,2.562 -7.218,6.825c-0.55,4.121 2.05,6.134 5.198,7.485c4.79,2.065 9.699,3.87 14.615,5.615c9.454,3.371 15.254,9.72 15.87,19.94c0.639,10.604 -3.78,18.64 -13.263,23.667c-6.81,3.58 -14.11,4.597 -21.693,4.731zm-314.335,-43.66c0,-3.564 -0.312,-7.166 0.066,-10.694c0.914,-8.443 0.112,-14.451 -11.14,-12.959c-6.564,0.87 -3.712,-5.265 -4.054,-8.458c-0.342,-3.038 -1.047,-7.486 4.344,-6.617c9.603,1.552 12.076,-2.896 10.88,-11.481c-0.854,-6.164 4.523,-5.837 8.17,-7.04c12.914,-4.24 13.44,-4.182 12.765,9.104c-0.401,7.954 2.466,9.9 9.795,9.44c8.296,-0.528 11.14,4.084 8.741,12.297c-1.158,3.996 -4.173,2.845 -6.683,2.97c-11.66,0.483 -11.682,0.431 -11.638,12.15c0,9.06 -0.2,18.135 0.312,27.166c0.498,8.822 4.018,11.548 12.863,10.709c3.082,-0.29 6.795,-1.56 6.075,3.386c-0.61,4.189 4.33,10.687 -3.61,12.298c-19.501,3.966 -36.203,-1.292 -36.827,-25.77c-0.141,-5.487 0,-10.975 0,-16.47l-0.06,-0.03l0.001,-0.001zm190.39,-25.338c6.03,-8.31 11.34,-14.504 20.578,-15.232c5.117,-0.4 8.028,0.891 7.315,6.684a29.371,29.371 0 0 0 0,5.77c0.408,5.555 0.133,9.135 -7.687,8.028c-9.23,-1.3 -14.778,4.047 -16.946,14.288c-2.719,12.774 -2.095,25.807 -1.352,38.655c0.527,9.179 -4.203,8.688 -10.434,8.71c-6.424,0 -11.31,0.617 -10.947,-8.91c0.795,-20.876 0.35,-41.804 0.186,-62.71c-0.037,-5.472 -0.111,-9.869 7.59,-8.91c5.688,0.742 13.033,-1.701 11.14,8.577c-0.171,0.987 0.237,2.05 0.556,5.05l0.001,0z" fill="#0F0F0F"/>
    <path d="m761.152,447.438c-0.089,-15.484 9.654,-25.992 24.292,-26.275c14.853,-0.282 25.25,9.967 25.383,25.116c0.156,15.596 -13.278,31.124 -26.898,31.005c-13.3,-0.104 -22.665,-12.402 -22.777,-29.846z" fill="#CA3733"/>
    <path d="m394.512,448.567c0,11.533 -0.156,23.021 0.067,34.584c0.082,4.218 -1.314,5.689 -5.584,5.941c-15.596,0.98 -15.596,1.13 -15.596,-14.8c0,-19.212 0.223,-38.432 -0.096,-57.644c-0.104,-5.941 1.21,-8.236 7.679,-8.057c13.53,0.37 13.538,0 13.53,13.612l0,26.364z" fill="#0F0F0F"/>
    <path d="m308.396,121.004c-7.477,0.117 -14.945,-0.56 -22.279,-2.02c-3.639,-0.653 -5.592,-2.361 -4.916,-6.037c0.676,-3.676 1.396,-9.32 6.104,-8.17c18.12,4.338 35.974,-1.031 53.923,-0.311c3.127,0.119 7.642,-1.1 8.645,2.733c1.136,4.374 -3.513,5.458 -6.588,7.018c-11.874,5.993 -24.767,6.379 -34.889,6.787z" fill="#CA3733"/>
    <path d="m384.494,374.66c8.355,-2.184 10.798,1.358 10.197,9.654c-0.743,10.152 -0.238,9.46 -12.024,10.397c-9.788,0.742 -8.911,-4.53 -9.543,-11.244c-0.861,-9.669 4.122,-10.219 11.37,-8.808l0,0.001z" fill="#0F0F0F"/>
   </g>
  </svg>