<svg xmlns="http://www.w3.org/2000/svg" fill-rule="evenodd" clip-rule="evenodd" image-rendering="optimizeQuality" shape-rendering="geometricPrecision" text-rendering="geometricPrecision" viewBox="-2 1 6599.990234375 3300"><g><rect width="6599.99" height="3300" x="-2" y="1" fill="none"/><path fill="#273e74" fill-rule="nonzero" d="M2764.02 2039.23l-171.96 0 -68.06 -179.47 -316.18 0 -65.52 179.47 -168.8 0 306.08 -788.34 168.61 0 315.83 788.34zm-291.77 -312.67l-109.55 -291.77 -106.43 291.77 215.98 0zm445.12 312.67l0 -781.72 159.64 0 0 648.5 395.29 0 0 133.22 -554.93 0zm736.51 0l0 -781.72 159.65 0 0 648.5 395.27 0 0 133.22 -554.92 0zm758.43 0l0 -788.34 159.63 0 0 788.34 -159.63 0zm375.39 0l0 -788.34 548.62 0 0 133.25 -388.98 0 0 175.04 362.36 0 0 133.24 -362.36 0 0 213.59 388.98 0 0 133.22 -548.62 0zm766.58 -788.34l353.89 0c162.23,0 310.06,125.46 311.73,310.87l1.46 163.14c1.59,178.64 -144.45,314.33 -304.54,314.33l-362.54 0 0 -788.34zm159.65 133.25l0 521.87 181.97 0c86.29,0 169.47,-70.74 169.47,-179.97l0 -157.38c0,-129.68 -95.81,-184.52 -184.83,-184.52l-166.61 0zm-4112.18 718.22c-160.15,-209.74 -504.35,-252.58 -767.97,-161.29 103.1,-101.69 271.8,-193.04 385.74,-196.38l-238.02 -443.09c-10.53,-19.63 -58.24,-17.69 -68.99,1.69l-380.3 686.86c-34.54,62.41 34.58,82.67 79.07,73.98 341.31,-66.5 793.99,-113.87 962.42,139.93 -182.48,-111.36 -495.19,-77.43 -673.12,-52.04 -97.05,13.84 -258.16,48 -364.52,64.47 -94.8,14.66 -212.42,-42.43 -137.83,-178.98l495.16 -906.5c40.37,-73.86 129.88,-51.49 156.94,-3.68l551.42 975.03z"/></g></svg>