<svg  id="fndm-k6fymgv5sy" viewBox="1.322845458984375 -1 6837.67724609375 3460" clip-rule="evenodd" xmlns="http://www.w3.org/2000/svg">
   <path d="m1985,1434l718,-718l718,718l-718,718l-718,-718z" fill="#ffcc29"/>
   <path d="m2703,2152l-718,-718l718,-718l0,1436z" fill="#f58634"/>
   <path d="m3420,-1l718,718l-718,718l-718,-718l718,-718z" fill="#91d8f7"/>
   <path d="m2702,717l718,-718l718,718l-1436,0z" fill="#0098da"/>
   <path d="m2703,2152l-718,-718l-718,718l1436,0z" fill="#ed3237"/>
   <path d="m4856,1435l-718,-718l-718,718l718,718l718,-718z" fill="#caebfb"/>
   <path d="m4138,2153l718,-718l-718,-718l0,1436z" fill="#d2e28b"/>
   <path d="m4138,2153l718,-718l718,718l-1436,0z" fill="#73bf4f"/>
   <path d="m1561,2817l0,194l258,0c25,0 47,-9 63,-24c15,-14 25,-34 25,-56l0,-34c0,-21 -9,-41 -25,-56s-38,-24 -63,-24l-258,0zm5278,419l0,-9c-2,-83 -48,-139 -112,-179c-54,-34 -121,-54 -176,-67c-43,-10 -91,-24 -125,-44c-23,-14 -39,-31 -39,-54c0,-21 10,-40 33,-54c31,-18 65,-33 138,-33c28,0 72,7 100,15c23,7 40,12 58,25c30,22 66,19 88,-11s18,-72 -12,-94c-32,-23 -58,-37 -96,-48c-41,-12 -85,-15 -125,-15c-98,0 -168,16 -219,46c-69,41 -99,102 -99,170c0,81 44,134 105,170c49,29 109,46 162,59c44,11 97,26 136,51c28,18 49,41 49,71c0,22 -10,43 -32,60c-30,22 -79,37 -155,35c-27,0 -58,-8 -88,-21c-29,-12 -56,-28 -73,-46c-26,-26 -68,-27 -95,-1c-26,26 -27,68 -1,95c30,31 72,57 117,76c44,18 93,25 138,26l15,0c101,0 173,-20 222,-57c59,-44 84,-104 86,-164l0,-2zm-5349,-556l329,0c61,0 118,24 159,63c42,39 67,94 67,154l0,34c0,60 -26,114 -67,154c-41,39 -97,63 -159,63l-258,0l0,235c0,36 -30,66 -68,66l-3,0c-37,0 -68,-30 -68,-66l0,-635c0,-36 30,-66 68,-66l0,-2zm-1106,1l3,1c11,5 17,11 21,18c3,4 5,8 7,12l294,650c14,31 -1,69 -33,83l-3,1c-32,14 -71,1 -84,-31l-60,-143l-279,0l53,-122l175,0l-120,-288l-231,553c-13,32 -52,46 -84,31l-3,-1c-32,-14 -48,-52 -33,-83l294,-650c2,-4 4,-8 7,-12c4,-7 10,-13 21,-18l3,-1c9,-4 18,-6 26,-6c9,0 18,2 27,6l-1,0zm1998,0l3,1c11,5 17,11 21,18c3,4 5,8 7,12l294,650c14,31 -1,69 -33,83l-3,1c-32,14 -71,1 -84,-31l-60,-143l-279,0l53,-122l175,0l-120,-288l-231,553c-13,32 -52,46 -84,31l-3,-1c-32,-14 -48,-52 -33,-83l294,-650c2,-4 4,-8 7,-12c4,-7 10,-13 21,-18l3,-1c9,-4 18,-6 26,-6c9,0 18,2 27,6l-1,0zm556,133l0,202l258,0c25,0 47,-9 63,-24c15,-14 25,-33 25,-54l0,-46c0,-21 -9,-40 -25,-54c-16,-15 -38,-24 -63,-24l-258,0zm673,-32s-1,1 0,0zm95,95zm433,-114c-1,-1 -1,-1 0,0zm-91,92c-1,-1 0,0 0,0zm94,-89c26,26 30,66 3,92c-26,26 -69,26 -95,-1l-2,-2c1,1 6,6 0,0c-50,-50 -96,-52 -160,-53c-65,0 -130,24 -179,73l-2,2c1,-1 7,-7 0,0c-25,25 -43,51 -54,79c-11,29 -17,62 -17,103c0,42 5,77 15,107c10,29 27,55 51,80c8,8 16,15 25,22c54,42 119,58 182,53s122,-31 164,-72l3,-3l0,-91l-92,0c-37,0 -67,-30 -67,-67s30,-67 67,-67l159,0c37,0 67,30 67,67l0,183c0,15 -5,29 -14,42c-9,11 -19,22 -29,33c-64,62 -153,102 -247,110s-193,-16 -276,-81c-13,-10 -25,-21 -38,-34c-39,-40 -65,-81 -82,-129c-16,-46 -23,-96 -23,-153s8,-107 27,-153c18,-46 46,-87 84,-125c5,-5 1,-1 0,0l3,-3c76,-75 175,-112 274,-111s175,19 251,94c4,4 1,1 0,0l3,3l-1,2zm1076,676l3,0c37,0 68,-30 68,-66l0,-560l209,0c35,0 63,-31 63,-69l0,-3c0,-38 -29,-69 -63,-69l-533,0c-35,0 -63,31 -63,69l0,3c0,38 29,69 63,69l186,0l0,560c0,36 30,66 68,66l-1,0zm-562,-760l3,1c11,5 17,11 21,18c3,4 5,8 7,12l294,650c14,31 -1,69 -33,83l-3,1c-32,14 -71,1 -84,-31l-60,-143l-279,0l53,-122l175,0l-120,-288l-231,553c-13,32 -52,46 -84,31l-3,-1c-32,-14 -48,-52 -33,-83l294,-650c2,-4 4,-8 7,-12c4,-7 10,-13 21,-18l3,-1c9,-4 18,-6 26,-6c9,0 18,2 27,6l-1,0zm1200,0l3,1c11,5 17,11 21,18c3,4 5,8 7,12l294,650c14,31 -1,69 -33,83l-3,1c-32,14 -71,1 -84,-31l-60,-143l-279,0l53,-122l175,0l-120,-288l-231,553c-13,32 -52,46 -84,31l-3,-1c-32,-14 -48,-52 -33,-83l294,-650c2,-4 4,-8 7,-12c4,-7 10,-13 21,-18l3,-1c9,-4 18,-6 26,-6c9,0 18,2 27,6l-1,0zm-2547,427l128,242c16,31 5,69 -26,86l-3,2c-31,16 -69,5 -86,-26l-146,-275l-237,0l0,246c0,36 -30,66 -68,66l-3,0c-37,0 -68,-30 -68,-66l0,-635c0,-36 30,-66 68,-66l329,0c61,0 118,23 159,61c42,38 67,91 67,150l0,46c0,58 -26,99 -67,137c-14,13 -30,24 -47,33l0,-1zm-2436,-433l3,0c37,0 68,30 68,66l0,568l334,0c35,0 63,29 63,64l0,3c0,35 -29,64 -63,64l-406,0c-15,0 -29,-5 -39,-14c-17,-12 -27,-31 -27,-53l0,-634c0,-36 30,-66 68,-66l-1,2z" fill="#96989a"/>
  </svg>