<svg  id="fndm-v20gxru9h7" viewBox="0.9200000166893005 0.8299031853675842 1108.0399169921875 282.6300964355469" xmlns="http://www.w3.org/2000/svg">
   <g xmlns="http://www.w3.org/2000/svg" fill="none">
    <path d="m80.92,265.89c-6.91,9.25 -16.28,14.51 -27.47,16.8c-0.69,0.14 -1.49,-0.05 -1.89,0.77l-1.47,0c-1.22,-0.6 -2.45,-0.6 -3.67,0l-45.5,0c0,-33.07 0,-66.13 0.01,-99.2c0,-1.58 0.07,-3.17 0.11,-4.75c2.72,0.03 3.88,2.32 5.34,3.95c5.04,5.62 10.09,11.21 15.33,16.63c2.02,2.09 4.13,4.16 5.05,7.06c0.31,14.96 0.06,29.91 0.14,44.86c0.03,5.34 0.19,5.54 5.57,5.51c4.75,-0.03 9.5,0.18 14.24,-0.15c7.1,-1.04 12.23,-5.1 16.37,-10.68c1.45,-0.35 2.35,0.59 3.1,1.51c4.33,5.27 9.41,9.88 13.75,15.13c0.6,0.75 1.4,1.42 0.99,2.56z" fill="#70DEBF"/>
    <path d="m46.42,283.46c1.22,-1.05 2.45,-1.11 3.67,0l-3.67,0z" fill="#9AE8D2"/>
    <path d="m68.45,30.1c6.05,-16.16 17.94,-25.31 34.67,-28.51c3.6,-0.69 7.28,-0.7 10.96,-0.7c55.14,0.03 110.27,0.05 165.41,-0.06c3.45,-0.01 4.54,0.75 4.53,4.36c-0.14,35.25 -0.04,70.5 -0.1,105.75c-0.03,22.77 -18.16,42.51 -40.01,43.74c-2.41,0.53 -4.84,0.22 -7.26,0.23c-17.39,0.04 -34.78,0.01 -52.16,0.02c-1.16,0.1 -2.1,-0.3 -2.9,-1.18c-6.2,-6.79 -12.71,-13.3 -18.58,-20.39c-0.89,-1.07 -3.16,-2.52 -0.04,-3.81c9.17,-0.41 18.34,-0.14 27.51,-0.17c14.8,-0.05 29.59,-0.01 44.39,-0.01c1.71,0 3.43,0.08 5.08,-0.5c12.2,-2.39 17.43,-8.65 17.43,-20.99c0.01,-24.87 0.01,-49.74 0,-74.61c0,-5.64 -0.06,-5.71 -5.72,-5.71c-46.19,-0.01 -92.37,-0.01 -138.56,0c-11.63,0 -16.64,3.39 -20.88,14.08c-1.61,3.53 -0.17,7.37 -1.05,10.97c-0.82,1.87 -2.04,1.07 -2.84,0.18c-6.28,-6.97 -12.85,-13.67 -19.08,-20.69c-0.48,-0.54 -0.73,-1.25 -0.8,-2z" fill="#6ED14B"/>
    <path d="m1078.3,105.5c7.04,0.57 13.54,2.85 19.19,7.32c11.65,9.21 11.62,34.31 -3.77,42.19c-0.76,0.4 -1.48,0.85 -2.36,1.36c5.77,7.94 11.46,15.77 17.6,24.2c-8.65,0 -16.55,-0.01 -24.45,0.01c-1.39,0 -1.79,-1.12 -2.37,-2c-3.5,-5.28 -7.03,-10.54 -10.4,-15.9c-1.09,-1.74 -2.28,-2.48 -4.4,-2.43c-5.98,0.15 -11.98,0.17 -17.96,-0.01c-2.37,-0.07 -2.85,0.73 -2.79,2.9c0.15,4.87 -0.02,9.75 0.08,14.63c0.04,1.9 -0.28,2.9 -2.54,2.84c-5.5,-0.14 -11,-0.1 -16.5,-0.01c-1.85,0.03 -2.58,-0.46 -2.57,-2.45c0.06,-23.65 0.05,-47.31 0.02,-70.96c0,-1.69 0.49,-2.37 2.3,-2.33c16.97,0.36 33.97,-0.73 50.92,0.64zm-28.76,16.71c-2.07,-0.08 -3.07,0.24 -2.97,2.7c0.21,5.23 0.15,10.47 0.02,15.7c-0.05,2.07 0.58,2.71 2.66,2.66c5.49,-0.13 10.98,-0.02 16.47,-0.05c3.65,-0.02 7.31,0.27 10.89,-0.83c5.52,-1.69 8.24,-5.13 8.04,-10.27c-0.18,-4.71 -3.05,-7.76 -8.46,-9.11c-5.06,-1.26 -10.2,-0.54 -14.51,-0.77c-4.58,0 -8.37,0.1 -12.14,-0.03zm-665.43,-17.3c11,0 22.01,0.08 33.01,-0.06c2.54,-0.03 3.44,0.63 3.29,3.23c-0.21,3.53 -0.26,7.09 0.01,10.61c0.23,2.99 -0.61,3.91 -3.75,3.87c-14.67,-0.18 -29.35,-0.01 -44.02,-0.14c-2.65,-0.02 -3.56,0.51 -3.51,3.36c0.14,8.17 0,8.17 8.16,8.17c12.35,0 24.7,0.07 37.05,-0.06c2.55,-0.03 3.77,0.31 3.5,3.29c-0.32,3.51 -0.22,7.08 -0.02,10.6c0.13,2.32 -0.68,2.84 -2.89,2.82c-13.94,-0.1 -27.88,0.06 -41.82,-0.13c-3.23,-0.05 -4.26,0.74 -3.97,3.99c0.48,5.32 3.5,8.21 9.6,8.26c10.39,0.08 20.79,-0.04 31.18,0.06c3.36,0.03 7.7,-1.51 9.83,0.69c1.96,2.02 0.53,6.28 0.57,9.56c0.07,7.55 0.02,7.58 -7.64,7.54c-12.71,-0.06 -25.42,-0.16 -38.13,-0.26c-3.07,-0.02 -6.07,-0.55 -9.02,-1.37c-10.47,-2.92 -16.77,-10.15 -17.42,-20.93c-1.02,-16.93 -0.19,-33.9 -0.47,-50.85c-0.04,-2.56 1.46,-2.27 3.09,-2.27c11.12,0.03 22.25,0.02 33.37,0.02zm77.59,53.83c7.14,2.84 14.11,4.89 21.4,5.73c7.67,0.88 15.34,1 23.02,0.21c1.45,-0.15 2.89,-0.52 4.28,-0.96c2.77,-0.88 5.6,-2.13 5.45,-5.51c-0.14,-3.12 -3.08,-3.78 -5.54,-4.48c-8.58,-2.46 -17.57,-2.85 -26.22,-5c-4.02,-1 -8.09,-1.88 -11.87,-3.6c-7.15,-3.26 -11.86,-8.5 -12.62,-16.57c-0.8,-8.6 2.66,-15.18 10.04,-19.63c7.45,-4.49 15.78,-5.66 24.25,-5.93c11.28,-0.37 22.42,0.86 33.44,3.29c2.15,0.47 3.02,1.25 2.92,3.59c-0.21,4.6 -0.06,9.22 -0.06,14.03c-12.8,-2.55 -25.26,-4 -37.89,-3.73c-2.95,0.06 -5.84,0.39 -8.61,1.45c-1.82,0.7 -3.31,1.83 -3.34,3.91c-0.03,1.93 1.45,3.03 3.01,3.82c4.1,2.06 8.61,2.57 13.06,3.29c8.55,1.38 17.09,2.84 25.35,5.52c13.26,4.3 19.07,15.71 14.05,27.73c-2.49,5.96 -7.18,9.73 -12.99,12.19c-11.84,5.01 -24.28,4.92 -36.76,4.04c-7.44,-0.53 -14.74,-1.95 -21.91,-4.06c-1.33,-0.39 -2.53,-0.6 -2.5,-2.48c0.1,-5.5 0.04,-10.97 0.04,-16.85zm382.8,-53.29c3.3,0.24 6.51,0.96 9.65,1.99c12.75,4.15 18.99,12.91 18.78,26.32c-0.2,12.92 -6.99,21.53 -19.69,25.31c-8.6,2.56 -17.4,2.01 -26.18,2.14c-3.64,0.06 -8.48,-1.57 -10.56,0.67c-1.79,1.93 -0.54,6.71 -0.55,10.24c-0.03,8.48 -0.01,8.48 -8.57,8.48c-3.18,0 -6.38,-0.22 -9.53,0.06c-3.12,0.28 -3.53,-1.09 -3.5,-3.76c0.13,-11.35 0.06,-22.69 0.06,-34.03c0,-11.71 0.03,-23.42 -0.03,-35.12c-0.01,-1.82 0.12,-2.94 2.48,-2.88c15.88,0.38 31.77,-0.59 47.64,0.58zm-2.27,17.58c-8.23,-1.46 -16.57,-0.34 -24.85,-0.66c-1.31,-0.053 -1.421,0.708 -1.43,1.583l0,0.347c0.01,5.72 0.06,11.45 -0.03,17.18c-0.03,1.77 0.56,2.32 2.3,2.27c3.54,-0.11 7.08,-0.03 11.37,-0.03c3.87,-0.29 8.53,0.53 13.11,-0.65c6.21,-1.6 9.03,-4.77 8.95,-10.25c-0.08,-5.32 -3.13,-8.67 -9.42,-9.79zm100.53,4.83c-6.05,12.51 -11.82,24.43 -17.58,36.35c-2.28,4.71 -4.62,9.39 -6.79,14.15c-0.69,1.51 -1.43,2.29 -3.22,2.26c-6.84,-0.09 -13.68,-0.04 -21.13,-0.04c1.45,-2.86 2.69,-5.41 4.01,-7.91c11.44,-21.76 22.91,-43.5 34.29,-65.29c0.99,-1.89 2.09,-2.66 4.23,-2.53c2.92,0.19 5.91,0.38 8.79,-0.03c5.2,-0.74 7.89,1.28 10.29,6c11.36,22.34 23.13,44.48 34.9,66.62c1.66,3.13 0.6,3.24 -2.12,3.17c-5.62,-0.14 -11.25,-0.21 -16.87,0.03c-2.65,0.11 -3.85,-0.9 -4.92,-3.16c-7.79,-16.35 -15.7,-32.66 -23.88,-49.62zm-231,0.68c-7.97,16.49 -15.91,32.79 -23.68,49.17c-1.05,2.22 -2.21,3.01 -4.66,2.94c-6.46,-0.18 -12.92,-0.06 -20.06,-0.06c2.02,-3.91 3.8,-7.41 5.63,-10.88c10.82,-20.58 21.68,-41.14 32.44,-61.75c1.14,-2.19 2.33,-3.29 4.98,-3.12c4.14,0.27 8.32,0.16 12.47,0.03c1.91,-0.06 3.05,0.39 4.01,2.25c12.56,24.07 25.22,48.08 37.85,72.11c0.15,0.29 0.17,0.64 0.35,1.36c-7.48,0 -14.77,-0.04 -22.06,0.03c-1.87,0.02 -2.11,-1.39 -2.66,-2.53c-7.64,-15.77 -15.24,-31.55 -22.87,-47.33c-0.37,-0.73 -0.47,-1.64 -1.74,-2.22zm-103.54,-23.63c13.07,0 26.15,0.06 39.22,-0.05c2.39,-0.02 3.18,0.6 3.04,3.02c-0.23,4.01 -0.26,8.04 -0.12,12.06c0.08,2.21 -0.81,2.6 -2.77,2.58c-8.31,-0.09 -16.62,0.07 -24.93,-0.1c-2.58,-0.05 -3.26,0.69 -3.24,3.24c0.11,17.19 -0.01,34.38 0.13,51.57c0.02,2.82 -0.81,3.53 -3.49,3.41c-4.76,-0.2 -9.54,-0.24 -14.29,0.01c-2.97,0.15 -3.94,-0.6 -3.91,-3.75c0.17,-16.82 -0.01,-33.65 0.16,-50.47c0.03,-3.22 -0.77,-4.13 -4.03,-4.03c-8.3,0.25 -16.62,0.01 -24.92,0.13c-2.26,0.03 -3.26,-0.37 -3.1,-2.93c0.24,-3.89 0.2,-7.81 0.01,-11.7c-0.12,-2.38 0.58,-3.08 3.01,-3.06c13.08,0.13 26.16,0.07 39.23,0.07z" fill="#24272A"/>
    <path d="m17.08,140.74c3.37,-3.28 7.37,-5.56 11.73,-7.26c4.28,3.46 7.6,7.85 11.28,11.86c7.55,8.25 7.38,8.4 18.49,8.29c0.73,-0.01 1.46,-0.03 2.2,-0.04c1.64,0.03 3.33,-0.24 4.77,0.86c0.2,0.43 0.13,0.81 -0.2,1.15c-1.3,0.88 -2.8,0.76 -4.25,0.77c-3.66,0.04 -7.34,0.2 -10.98,-0.03c-5.39,-0.34 -10.43,0.63 -15.2,3.11c-1.75,0.47 -3.19,-0.22 -4.26,-1.47c-4.05,-4.71 -8.68,-8.89 -12.54,-13.77c-0.76,-0.95 -2.11,-1.9 -1.04,-3.47z" fill="#86DDA4"/>
    <path d="m65.62,96.02l0,-11.74c1.04,-0.81 1.92,-0.18 2.57,0.49c7.94,8.13 15.87,16.27 23.01,25.14c0.37,2.89 0.45,5.78 -0.03,8.66c-2.5,2.04 -5.82,1.98 -8.61,3.29c-0.75,-0.22 -1.1,-0.78 -1.31,-1.48c-0.14,-1.09 -0.59,-2.07 -0.99,-3.09c-0.74,-1.93 -0.68,-1.96 1.79,-2.52c-5.11,-4.55 -9.04,-10.16 -14.08,-14.72c-1.22,-1.11 -1.72,-2.59 -2.35,-4.03z" fill="#86D878"/>
    <path d="m90.76,164.13c0.09,0.72 0.27,1.44 0.27,2.16c0.01,23.58 0.01,47.16 -0.03,70.74c0,1.56 -0.38,3.12 -0.58,4.69c-2.27,0.28 -3.66,-1.25 -4.86,-2.7c-6.27,-7.59 -13.21,-14.56 -19.99,-21.68c-0.34,-0.36 -0.59,-0.77 -0.77,-1.23c-0.51,-3.2 -0.63,-6.39 0.07,-9.57c1.81,-2.13 2.83,0 3.8,0.89c5.31,4.87 9.88,10.46 14.77,15.73c1.98,2.14 4.08,4.2 6.09,6.67c0.03,-3.58 0.01,-6.98 -0.09,-10.4c-0.21,-6.24 -0.11,-12.47 -0.09,-18.7c0.06,-3.9 -0.17,-7.8 0.04,-11.7c-0.12,-5.28 -0.09,-10.56 -0.07,-15.84c0.42,-2.88 -0.66,-5.92 0.86,-8.69c0.19,-0.13 0.38,-0.25 0.58,-0.37z" fill="#83DEAF"/>
    <path d="m60.37,154.52c-1.83,0.02 -3.72,-0.25 -5.48,0.12c-6.87,1.43 -10.77,-2.56 -14.38,-7.39c-2.98,-3.99 -7.15,-6.94 -10.01,-11.07c-0.61,-0.88 -1.68,-1.45 -1.7,-2.7c3.49,-1.64 7.11,-2.84 11.01,-3c7.14,6.75 13.38,14.33 20.1,21.47c0.65,0.68 1.28,1.54 0.46,2.57z" fill="#8ADC9D"/>
    <path d="m1.08,173.66c-0.28,-3.3 0.52,-6.45 1.4,-9.58c1.82,-2.15 2.85,-0.03 3.76,0.89c4.71,4.74 9.27,9.64 13.62,14.7c2.28,2.65 5.41,4.6 6.79,8.01c0.32,3.79 0.43,7.58 -0.05,11.36c-1.55,2.52 -2.79,0.45 -3.66,-0.49c-3.5,-3.73 -7.02,-7.45 -10.46,-11.23c-2.54,-2.8 -5.05,-5.62 -7.74,-8.27c-1.58,-1.55 -2.88,-3.29 -3.66,-5.39z" fill="#78DEB8"/>
    <path d="m60.37,154.52c-1.97,-3.96 -5.55,-6.58 -8.29,-9.91c-3.45,-4.19 -7.38,-7.99 -11.12,-11.94c-0.6,-0.63 -1.14,-1.26 -1.14,-2.19c0.45,-0.03 0.9,-0.07 1.36,-0.1c3.33,-0.69 6.7,-0.14 10.04,-0.32c1.24,-0.06 1.96,0.73 2.74,1.54c5.27,5.39 10.08,11.22 15.48,16.5c1.22,1.2 2.24,2.57 3.14,4.02c0.67,1.08 1.2,2.22 -0.36,3.09c-2.28,0.51 -4.54,0.91 -6.64,-0.58c-1.74,-0.04 -3.47,-0.08 -5.21,-0.11z" fill="#8BDB96"/>
    <path d="m25.81,199.97l0,-13.18c-0.88,-1.44 -1.03,-3.04 -0.97,-4.68c0.35,-7.02 -1.31,-13 -8.42,-16.15c-2.18,-4.39 -5.34,-7.83 -9.64,-10.26c-0.56,-0.32 -0.43,-1.33 -0.06,-2.03c1.02,-3.08 3.06,-5.48 5.23,-7.8c5.59,5.86 11.04,11.84 16.49,17.83c0.68,0.75 1,1.65 0.85,2.69c-1.34,3.87 -1.56,7.85 -1.55,11.91c0.06,24.28 0.02,48.55 0.03,72.83c0,5.51 0.04,5.53 5.46,5.55c3.42,0.01 6.85,-0.05 10.27,0.03c1.55,0.04 3.23,-0.17 4.38,1.31c-6.76,1.22 -13.58,0.36 -20.36,0.47c-2.29,0.04 -1.62,-2.05 -1.63,-3.36c-0.04,-14.61 -0.03,-29.22 -0.03,-43.82c0,-1.83 -0.04,-3.65 -0.06,-5.48c-0.97,-1.96 -1.56,-3.91 0.01,-5.86z" fill="#83DEAF"/>
    <path d="m65.63,47.69c-0.25,-4.26 -0.3,-8.5 1.3,-12.57c6.87,7.92 14.13,15.49 21.18,23.23c1.14,1.25 2.59,2.27 3.1,4.01c0.33,3.14 0.47,6.28 -0.07,9.41c-0.93,1.84 -2.02,0.72 -2.95,0.06c-2.2,-1.56 -4.37,-3.18 -6.07,-5.28c-4.66,-5.77 -9.96,-10.94 -14.97,-16.38c-0.68,-0.73 -1.08,-1.61 -1.52,-2.48z" fill="#76D459"/>
    <path d="m87.53,254.2c-0.86,3.22 -2.35,6.12 -4.44,8.72c-3.81,-2.33 -6.28,-6.05 -9.21,-9.23c-3.35,-3.64 -7.29,-6.84 -9.76,-11.26c0.44,-3.65 0.04,-7.36 0.74,-11c1.82,-2.19 2.86,-0.01 3.75,0.9c3.66,3.75 7.15,7.68 10.69,11.54c2.06,2.25 4.11,4.5 6.21,6.71c0.97,1.02 2.41,1.83 2.02,3.62z" fill="#78DEB8"/>
    <path d="m65.62,74.76l0,-10.96c3.28,0.39 4.75,3.21 6.63,5.27c5.49,6.02 10.87,12.14 16.64,17.91c0.94,0.94 1.95,1.86 2.32,3.22c0.34,3.12 0.46,6.24 -0.06,9.35c-1.07,2.06 -1.96,0.51 -2.72,-0.23c-5.77,-5.58 -11,-11.67 -16.46,-17.54c-2.14,-2.31 -4.46,-4.48 -6.35,-7.02z" fill="#80D66B"/>
    <path d="m65.63,47.69c3.04,2.51 5.45,5.64 8.2,8.38c5.5,5.49 9.89,12.1 16.49,16.47c2.01,2.68 0.99,5.67 0.91,8.56c-0.87,2.09 -2.21,1.44 -3.46,0.48c-1.64,-1.25 -3.07,-2.76 -4.44,-4.28c-5.33,-5.95 -10.85,-11.71 -16.21,-17.63c-0.67,-0.73 -1.06,-1.61 -1.5,-2.47c0,-3.16 0,-6.34 0.01,-9.51z" fill="#7BD560"/>
    <path d="m65.62,74.76c0.64,0.32 1.44,0.48 1.89,0.97c7.63,8.19 15.23,16.42 22.83,24.64c1.74,2.92 1.72,5.85 0.02,8.78c-6.04,-5.11 -10.8,-11.44 -16.24,-17.12c-2.65,-2.77 -4.85,-6.06 -8.5,-7.75l0,-9.52z" fill="#83D871"/>
    <path d="m65.61,216.83c4.1,3.13 7.33,7.14 10.95,10.74c4.69,4.65 8.15,10.5 13.85,14.14c0.17,2.8 -0.36,5.48 -1.44,8.06c-1.31,0.45 -2.11,-0.47 -2.78,-1.26c-6.43,-7.57 -13.69,-14.39 -20.01,-22.06c-0.62,-0.75 -1.24,-1.5 -1.47,-2.48c-0.16,-2.44 -0.99,-4.96 0.9,-7.14z" fill="#80DDB3"/>
    <path d="m90.31,61.56c-8.13,-7.33 -14.64,-16.19 -22.55,-23.74c-0.79,-0.75 -0.78,-1.73 -0.84,-2.7c0.04,-1.81 0.49,-3.5 1.52,-5.02c6.65,7.24 13.29,14.48 19.95,21.71c0.57,0.62 1.27,1.13 1.91,1.7c1.75,2.68 1.74,5.37 0.01,8.05z" fill="#72D352"/>
    <path d="m28.77,164.83c-5.88,-6.08 -12.37,-11.62 -16.83,-18.96c1.38,-2.05 3.09,-3.76 5.14,-5.14c0.08,1.89 1.63,3.01 2.65,4.2c3.78,4.4 7.87,8.54 11.84,12.78c0.68,0.73 1.45,1.3 2.5,1.31c-0.79,2.82 -2.47,4.84 -5.3,5.81z" fill="#85DDAA"/>
    <path d="m65.62,96.02c6.18,6.66 12.36,13.32 18.58,20.02c-1.44,0.98 -2.31,-0.59 -3.65,-0.48c-0.45,1.7 2.75,2.68 1.1,4.61c-1.99,2.24 -4,1.69 -6.01,0.03c-3.93,-3.41 -6.46,-8.01 -10.01,-11.75c-0.01,-4.14 -0.01,-8.29 -0.01,-12.43z" fill="#87D97D"/>
    <path d="m65.62,57.21c7.6,6.98 13.88,15.19 21.25,22.38c1.01,0.99 1.77,2.39 3.45,2.48c1.68,2.44 1.67,4.88 0.01,7.32c-6.49,-5.68 -11.94,-12.35 -17.75,-18.68c-2.21,-2.41 -4.64,-4.61 -6.97,-6.91c0.01,-2.19 0.01,-4.39 0.01,-6.59z" fill="#7DD666"/>
    <path d="m6.72,153.68c0.19,1.63 1.06,2.63 2.67,3.08c3.33,0.94 5.31,3.24 6.17,6.5c0.23,0.85 0.33,1.74 1.24,2.07c7.75,2.84 9.21,9.13 9.01,16.32c-3.29,-1.31 -5.23,-4.23 -7.38,-6.69c-4.72,-5.39 -10.17,-10.13 -14.37,-15.98c0.63,-1.89 1.37,-3.73 2.66,-5.3z" fill="#80DDB3"/>
    <path d="m25.81,199.97l0,5.86c-6.38,-6.9 -12.78,-13.78 -19.11,-20.72c-1.79,-1.97 -3.55,-3.96 -5.66,-5.59c0.02,-1.95 0.03,-3.9 0.05,-5.85c6.67,7.27 13.32,14.56 20.03,21.8c1.46,1.58 3.12,3 4.69,4.5z" fill="#74DEBB"/>
    <path d="m65.61,224.88c6.58,7.11 13.19,14.21 19.73,21.36c1.15,1.26 2.14,2.63 3.63,3.53c-0.03,1.62 -0.47,3.11 -1.44,4.42c-7.38,-7.75 -14.18,-16.04 -21.92,-23.46c-1.6,-1.94 -1.6,-3.9 0,-5.85zm-61.55,-65.9c3.01,0.64 3.74,3.64 5.56,5.49c5.53,5.6 10.82,11.44 16.2,17.18c0,1.71 0,3.43 -0.01,5.14c-5.78,-4.74 -10.1,-10.86 -15.34,-16.11c-2.07,-2.07 -4.04,-4.23 -6.03,-6.37c-0.62,-0.67 -1.25,-0.62 -1.95,-0.23c0.52,-1.7 1.04,-3.4 1.57,-5.1z" fill="#7CDEB7"/>
    <path d="m182.91,154.45c18.75,0.03 37.51,0.06 56.26,0.1c1.58,0 3.16,0.09 4.74,0.14c-1.33,0.95 -2.85,0.52 -4.27,0.52c-47.95,0 -95.89,-0.03 -143.84,-0.05c-1.59,0 -3.17,0.09 -4.76,0.14c-0.49,0.18 -0.74,0.01 -0.76,-0.51c0.2,-0.38 0.49,-0.65 0.89,-0.82c1.84,-0.64 3.75,-0.26 5.63,-0.47c3.75,-0.06 7.51,0.01 11.26,0c2.49,-0.16 4.98,0.11 7.47,-0.02c5.06,-0.03 10.11,-0.1 15.16,0.06c2.96,-0.14 5.92,-0.08 8.89,0c3.16,-0.13 6.33,-0.08 9.49,0.01c2.25,-0.19 4.5,0.07 6.75,-0.04c2.93,-0.12 5.87,0.07 8.8,0c3.63,-0.1 7.27,0.02 10.9,0.01c2.5,-0.07 5.04,-0.36 7.39,0.93z" fill="#8ADA98"/>
    <path d="m64.89,243.19c6.54,6.14 12.58,12.74 18.21,19.73c-0.52,1.14 -1.03,2.29 -2.18,2.98l-17.42,-19.04c-0.83,-1.71 0.1,-2.76 1.39,-3.67z" fill="#75DEBB"/>
    <path d="m65.63,108.45c1.66,0.12 2.65,1.38 3.39,2.52c1.97,3.07 4.46,5.68 6.76,8.47c-1.61,4.03 -6.16,4.68 -10.15,1.47l0,-12.46z" fill="#88D882"/>
    <path d="m65.47,129.65l0.15,-1.42c0.87,-0.95 2.03,-1.49 3.24,-1.49c6.43,-0.03 12.81,-1.29 19.26,-0.94c0.99,0.05 1.94,0.23 2.66,1c0.75,3.75 0.4,4.18 -3.89,4.71c-4.12,0.14 -8.24,0.03 -12.36,-0.01c-2.92,-0.11 -5.9,0.52 -8.73,-0.67c-0.44,-0.31 -0.54,-0.7 -0.33,-1.18z" fill="#79C175"/>
    <path d="m65.63,120.9c3.64,1.31 7.21,2.06 10.15,-1.47c1.76,1.79 3.79,1.52 5.87,0.73c0.24,0.49 0.49,0.98 0.73,1.46c-0.98,1.34 -1.77,2.84 -3.09,3.93c-4.58,1.04 -9.14,1.59 -13.66,-0.26l0,-4.39z" fill="#83D07E"/>
    <path d="m65.63,125.3c4.85,-0.28 9.76,0.66 14.55,-0.74c3.52,-1.11 7.04,-0.74 10.55,0.05c0.37,0.81 0.35,1.55 -0.37,2.17c-8.29,-0.21 -16.5,0.81 -24.74,1.44c0,-0.97 0.01,-1.95 0.01,-2.92z" fill="#7EC97A"/>
    <path d="m65.47,129.65l0.09,0.75c-0.65,0.79 -1.57,0.92 -2.49,1.07c-3.61,-0.16 -7.33,0.89 -10.77,-1.02l-11.13,-0.06c3.29,-1.29 6.72,-0.47 10.08,-0.59c4.74,-0.19 9.48,-0.12 14.22,-0.15z" fill="#8ADC9D"/>
    <path d="m90.48,155.33c0.19,-0.01 0.37,-0.02 0.56,-0.04c-0.04,2.95 0.32,5.9 -0.27,8.83l-0.28,0.01c-0.14,-0.13 -0.27,-0.26 -0.41,-0.4c-0.2,-0.33 -0.33,-0.69 -0.4,-1.07c-0.19,-1.34 -0.16,-2.68 -0.18,-4.03c0.02,-1.18 -0.04,-2.4 0.98,-3.3z" fill="#85DDAA"/>
    <path d="m91.05,41.81c-0.01,27.94 0.04,55.88 -0.11,83.83c-0.02,3.41 1.01,4.21 4.31,4.2c46.84,-0.13 93.68,-0.12 140.53,-0.15c1.47,0 2.93,0.06 4.4,0.1c-1.28,1.09 -2.81,0.6 -4.22,0.6c-24.76,0.04 -49.53,0.05 -74.29,0.06c-2.48,1.88 -5.37,0.73 -8.06,1.06c-3.4,0.08 -6.81,0.02 -10.21,-0.02c-2.7,0.09 -5.4,0.06 -8.1,-0.02c-2.24,0.11 -4.48,0.04 -6.72,0c-3.34,0.16 -6.67,0.03 -10.01,0.01c-2.73,0.07 -5.46,0.03 -8.18,-0.05c-4.84,-0.15 -9.69,-0.07 -14.92,-0.09c5.75,6.71 11.64,12.79 17.36,19.02c1.1,1.2 2.82,2.07 2.56,4.13c-2.45,0 -4.89,0.01 -7.34,0.01c-3.97,-2.66 -6.74,-6.56 -9.98,-9.94c-2.93,-3.05 -5.77,-6.2 -8.68,-9.27c-1.28,-1.35 -2.92,-2.62 -2.61,-4.87c2.85,0.4 4.22,-0.63 3.58,-3.64l0,-2.21c-1.14,-1.72 -1.3,-3.43 0,-5.15c0,-3.42 -0.01,-6.84 -0.01,-10.27c-0.01,-2.93 -0.01,-5.86 -0.02,-8.78c0,-3.66 0,-7.32 -0.01,-10.98c0,-2.44 0,-4.88 -0.01,-7.32c0,-3.18 -0.01,-6.35 -0.01,-9.53c0,-3.66 -0.01,-7.32 -0.01,-10.98c0,-2.68 0,-5.37 -0.01,-8.05c0.58,-3.88 -0.71,-7.88 0.77,-11.7z" fill="#88DA7F"/>
    <path d="m153.59,130.46l8.07,0c5.72,6.79 11.65,13.4 17.93,19.68c1.3,1.3 2.59,2.59 3.32,4.32l-7.34,0c-1.38,-0.55 -2.52,-1.44 -3.5,-2.53c-5.73,-6.4 -11.59,-12.68 -17.46,-18.95c-0.65,-0.69 -1.45,-1.38 -1.02,-2.52z" fill="#72D353"/>
    <path d="m65.62,157.5c-0.04,-0.73 -0.09,-1.46 -0.13,-2.2c0.04,-0.23 0.07,-0.45 0.09,-0.68l7.26,-0.06c3.71,-2.08 7.72,-0.79 11.6,-1.04c2.06,0.04 4.23,-0.51 6.01,1.06l0.03,0.74c-0.04,1.2 -0.07,2.41 -0.11,3.61c-0.73,0.72 -1.65,1.03 -2.64,0.97c-6.86,-0.38 -13.73,-0.63 -20.54,-1.56c-0.62,-0.07 -1.13,-0.41 -1.57,-0.84z" fill="#7AC081"/>
    <path d="m90.37,119.42l0,5.15c-3.4,1.08 -6.79,0.29 -10.19,-0.01c-1.57,-2.7 1.35,-2.04 2.2,-2.93c2.43,-1.59 4.7,-3.74 7.99,-2.21z" fill="#82D177"/>
    <path d="m65.62,195.59l0,-19.77c1.04,-0.83 1.91,-0.18 2.56,0.48c7.69,7.87 15.41,15.71 22.22,24.39l0,19.77c-1.79,0.39 -2.58,-1.07 -3.56,-2.03c-7.45,-7.27 -14.23,-15.15 -21.22,-22.84z" fill="#86DDA4"/>
    <path d="m90.39,200.69c-6.04,-4.96 -10.63,-11.29 -16.07,-16.83c-2.78,-2.83 -4.97,-6.26 -8.71,-8.04l0,-8.03c1.51,-0.93 3,-0.84 4.45,0.14c3.13,2.12 6.21,4.47 8.54,7.35c2.31,2.85 4.57,5.62 7.5,7.85c1.98,1.51 2.74,3.99 4.29,5.86l0,11.7z" fill="#89DC9E"/>
    <path d="m65.62,195.59c2.66,0.76 3.94,3.09 5.65,4.93c6.27,6.75 12.08,13.94 19.13,19.94l0,11.03c-9.14,-8.25 -15.9,-17.99 -24.78,-25.62c-0.01,-3.43 0,-6.85 0,-10.28z" fill="#85DDAA"/>
    <path d="m90.39,188.99c-0.24,-0.04 -0.63,0 -0.7,-0.13c-2.63,-4.89 -7.69,-7.52 -11.03,-11.88c-3.21,-4.19 -6.87,-8.74 -13.05,-9.2c0,-1.23 0.01,-2.46 0.01,-3.69c2.47,-1.72 5.19,-0.97 7.85,-0.78c1.59,0.54 3.05,1.6 4.88,1.22c0.36,-0.07 0.84,-0.09 1.07,0.14c3.22,3.31 8.04,4.48 10.96,8.18c0,5.38 0.01,10.76 0.01,16.14z" fill="#8ADA98"/>
    <path d="m90.38,172.85c-3.32,-2.54 -7.86,-3.28 -10.37,-7.03c-0.6,-0.9 -1.5,-0.42 -2.32,-0.31c-1.37,0.18 -2.7,0.13 -3.38,-1.4c0.57,-0.71 1.38,-1.13 2.21,-1.07c4.63,0.31 9.37,-0.93 13.87,1.03l0.09,0.07c-0.03,2.9 -0.07,5.8 -0.1,8.71z" fill="#89D88F"/>
    <path d="m84.58,154.56l-11.74,0c-0.62,-2.3 -2.3,-3.93 -3.83,-5.58c-4.77,-5.14 -9.64,-10.19 -14.52,-15.24c-0.95,-0.98 -1.63,-2.09 -2.19,-3.3l11.01,0c4.84,2.8 7.57,7.73 11.46,11.49c2.93,2.83 5.57,6.03 8.42,8.99c0.93,0.96 2.47,1.86 1.39,3.64z" fill="#8BDB90"/>
    <path d="m115.39,154.49c-7.21,-7.8 -14.42,-15.61 -22.21,-24.04l16.37,0c2.27,1.06 3.97,2.86 5.53,4.71c4.63,5.5 9.84,10.46 14.52,15.92c0.81,0.95 2.2,1.77 1.24,3.4c-5.15,0 -10.3,0 -15.45,0.01z" fill="#86D979"/>
    <path d="m86.78,130.42c3.5,5.57 8.79,9.57 12.92,14.6c2.67,3.24 6.01,5.93 8.35,9.48l-11.75,0c-1.21,-0.59 -2.32,-1.3 -3.24,-2.31c-6,-6.51 -11.99,-13.04 -18.01,-19.53c-0.56,-0.6 -1.19,-1.27 -0.75,-2.25c4.17,0.01 8.32,0.01 12.48,0.01z" fill="#8ADA85"/>
    <path d="m74.31,130.42c3.23,3.59 6.44,7.2 9.7,10.76c4.08,4.46 8.2,8.88 12.3,13.32c-1.96,0.03 -3.91,0.05 -5.86,0.08c-1.96,-0.01 -3.91,-0.02 -5.87,-0.02c-0.03,-1.69 -1.43,-2.47 -2.42,-3.48c-6.57,-6.62 -12.74,-13.61 -18.84,-20.65c0.75,-0.01 1.5,-0.03 2.25,-0.05c2.91,0.02 5.82,0.03 8.74,0.04z" fill="#8ADA8C"/>
    <path d="m153.59,130.46c3.48,3.83 6.95,7.68 10.45,11.5c3.83,4.18 7.68,8.33 11.52,12.5l-11.01,0c-2.15,-0.81 -3.71,-2.42 -5.03,-4.14c-4.44,-5.77 -9.8,-10.68 -14.66,-16.06c-0.95,-1.06 -2.16,-2.08 -1.55,-3.8l10.28,0z" fill="#76D459"/>
    <path d="m118.37,130.45l10.26,0c6.9,6.79 13.08,14.24 19.82,21.17c0.72,0.74 1.61,1.61 0.73,2.84c-3.18,0 -6.36,0 -9.54,0.01c-6.01,-5.19 -10.95,-11.4 -16.23,-17.26c-1.85,-2.05 -4.85,-3.42 -5.04,-6.76z" fill="#80D66B"/>
    <path d="m143.32,130.46c0.48,0.83 0.76,1.95 1.48,2.45c3.53,2.43 5.17,6.62 8.45,9.14c4.55,3.5 7.14,8.65 11.32,12.41l-8.81,0c-2.01,-0.76 -3.45,-2.27 -4.77,-3.84c-4.68,-5.56 -9.93,-10.6 -14.68,-16.1c-1,-1.15 -2.41,-2.27 -1.07,-4.07c2.69,0.01 5.38,0.01 8.08,0.01z" fill="#7BD560"/>
    <path d="m118.37,130.45c6.27,6.86 12.54,13.71 18.79,20.58c0.95,1.05 2.36,1.79 2.48,3.44c-2.93,0 -5.87,0 -8.8,0.01c-2.04,-3.9 -5.55,-6.59 -8.31,-9.89c-4.1,-4.9 -8.62,-9.45 -12.96,-14.14l8.8,0z" fill="#83D871"/>
    <path d="m135.23,130.46c-0.29,1.86 1.09,2.81 2.15,3.96c6.13,6.67 12.24,13.36 18.36,20.05l-6.57,0c-3.56,-5.18 -8.15,-9.46 -12.38,-14.03c-2.93,-3.16 -6.09,-6.12 -8.17,-9.97c2.21,-0.01 4.41,-0.01 6.61,-0.01z" fill="#7DD666"/>
    <path d="m65.62,157.5l24.75,1.44l0,4.37c-5.48,-0.64 -11.04,-0.41 -16.46,-1.53c-2.78,-0.58 -5.79,-0.38 -8.29,-2.09l0,-2.19z" fill="#82CD89"/>
    <path d="m65.62,159.7c6.1,0.77 12.18,1.62 18.29,2.28c2.22,0.24 4.73,-1.22 6.46,1.33c0.01,0.25 0.01,0.5 0.02,0.75c-5.36,0.01 -10.72,0.02 -16.08,0.04c-2.9,0 -5.79,-0.01 -8.69,-0.01l0,-4.39z" fill="#85D390"/>
    <path d="m98.19,131.81c1.34,0.73 2.58,1.51 3.1,3.16c-2.29,0.01 -2.74,-1.56 -3.1,-3.16z" fill="#88DA7F"/>
   </g>
  </svg>