<svg  id="fndm-qqiywom4x2" viewBox="154.0001983642578 78.99956512451172 290.99981689453125 93.00045013427734" xmlns="http://www.w3.org/2000/svg">
   <g xmlns="http://www.w3.org/2000/svg" fill="none">
    <path d="m445,81.663c-0.09,2.748 -0.181,5.497 -0.181,8.245c0,2.663 -0.453,3.092 -3.169,3.092l-193.749,0c-1.177,-0.086 -1.901,-0.687 -1.901,-1.804l0,-10.135c0,-1.202 0.724,-1.803 1.992,-1.89l192.118,0c0.543,0 1.086,-0.085 1.72,-0.171l3.17,0l0,2.663z" fill="#CC6415"/>
    <path d="m188.09,79.007c2.521,0 5.132,0.09 7.652,0c1.53,-0.089 2.34,0.624 2.79,1.959c1.62,4.896 3.331,9.702 5.041,14.51c2.52,7.388 5.041,14.776 7.652,22.253c3.6,10.415 7.111,20.919 10.622,31.423c0.45,1.424 -0.09,2.492 -1.62,2.581c-4.862,0.089 -9.812,0 -14.673,0c-1.08,0 -1.53,-0.89 -1.89,-1.78c-1.35,-2.938 -2.611,-5.964 -4.321,-8.546c-2.7,-4.095 -6.481,-6.854 -11.792,-6.765c-4.231,0.089 -7.382,2.136 -10.082,5.163c-2.52,2.848 -4.14,6.231 -5.401,9.792c-0.63,1.958 -1.17,2.403 -3.24,2.403c-4.141,0 -8.282,-0.089 -12.423,-0.178c-2.25,0 -2.79,-0.89 -2.16,-2.938c3.24,-9.524 6.57,-19.049 9.812,-28.573c1.89,-5.43 3.69,-10.95 5.58,-16.38c2.61,-7.566 5.221,-15.132 7.742,-22.787c0.45,-1.424 1.44,-2.048 2.97,-2.048c2.43,-0.089 5.041,-0.089 7.742,-0.089l-0.001,0zm1.17,47.624c1.171,0 2.251,0 3.421,-0.09c2.61,0 3.421,-1.068 2.701,-3.56c-1.71,-5.608 -3.51,-11.216 -5.22,-16.824c-0.361,-1.157 -0.901,-2.047 -2.341,-2.047c-1.35,0 -1.89,0.89 -2.25,1.958c-1.801,5.786 -3.511,11.483 -5.312,17.18c-0.54,1.87 0.27,3.027 2.25,3.205c2.251,0.267 4.502,0.178 6.752,0.178l-0.001,0zm110.74,9.482l0,-32.69c0,-2.575 0.442,-3.02 3.005,-3.02l11.58,0c0.971,0 1.413,0.267 1.413,1.333c0.089,1.954 1.68,2.665 3.359,1.776c1.945,-1.066 3.8,-2.487 5.834,-3.197c9.988,-3.465 19.003,-0.09 23.246,10.215c2.121,5.152 2.563,10.482 2.563,15.99c0,5.596 -1.06,10.925 -3.89,15.81c-4.153,7.196 -10.075,11.549 -18.649,11.371c-3.094,-0.089 -6.01,-0.8 -8.927,-1.954c-2.387,-0.977 -3.624,-0.089 -3.624,2.487l0,15.101c0,2.043 -0.53,2.665 -2.563,2.665l-10.872,0c-1.856,0 -2.475,-0.622 -2.475,-2.487l0,-33.4zm15.91,-8.705c-0.089,3.82 -0.089,7.728 -0.089,11.547c0,1.6 0.708,2.665 2.299,2.754c2.12,0.178 4.33,0.444 6.54,0.267c3.713,-0.356 6.718,-2.132 8.132,-5.597c2.74,-6.75 2.74,-13.59 0.177,-20.43c-0.796,-1.955 -2.298,-3.287 -4.331,-4.087c-3.89,-1.42 -7.513,-0.444 -11.137,1.244c-1.15,0.533 -1.68,1.421 -1.68,2.754c0.177,3.908 0.089,7.728 0.089,11.548zm71.675,21.178c-0.816,0.549 -1.27,0.915 -1.632,1.28c-4.353,3.934 -9.432,5.947 -15.236,6.13c-8.343,0.183 -15.508,-5.855 -16.505,-14.18c-0.635,-5.398 0,-10.613 4.08,-14.638c2.45,-2.47 5.442,-3.934 8.707,-4.94c5.441,-1.647 10.973,-2.196 16.596,-2.562c0.544,0 1.088,-0.091 1.542,-0.183c2.358,-0.366 3.174,-1.83 2.176,-4.116c-0.725,-1.647 -1.904,-2.745 -3.537,-3.385c-4.534,-1.739 -9.25,-1.922 -13.875,-0.915c-3.265,0.732 -6.348,1.92 -9.522,3.019c-1.36,0.457 -1.905,0.274 -1.905,-1.19l0,-9.24c0,-1.372 0.544,-2.195 1.905,-2.47c3.99,-0.64 7.89,-1.555 11.97,-1.92c6.349,-0.55 12.788,-0.367 18.955,1.371c6.983,2.013 11.608,6.313 12.424,14.09c0.181,1.463 0.272,2.835 0.272,4.299l0,32.203c0,2.653 -0.544,3.202 -3.174,3.202l-10.157,0c-2.358,0 -2.812,-0.55 -2.812,-2.928a84.368,84.368 0 0 1 -0.272,-2.927zm0.182,-12.991l0,-4.026c-0.091,-1.555 -0.907,-2.47 -2.268,-2.378c-3.536,0.183 -6.983,0.457 -10.338,1.738c-4.353,1.738 -5.17,5.123 -4.444,9.057c0.363,1.83 1.451,3.11 3.265,3.842c4.081,1.464 7.89,0.824 11.517,-1.372c1.724,-1.006 2.63,-2.47 2.268,-4.574c-0.091,-0.732 0,-1.555 0,-2.287zm-91.767,-9.845l0,23.85c0,2.267 -0.546,2.901 -2.821,2.901l-11.557,0c-1.274,0 -2.093,-0.09 -2.002,-1.723c0.09,-1.632 -1.274,-2.539 -2.821,-1.904c-0.91,0.363 -1.73,0.907 -2.548,1.542c-4.732,3.446 -10.01,4.17 -15.652,3.173c-6.461,-1.178 -11.194,-6.438 -12.104,-13.51c-0.364,-2.721 -0.455,-5.532 -0.455,-8.252c-0.09,-9.884 0,-19.768 0,-29.652c0,-2.811 0.273,-3.083 3.094,-3.083l10.739,0c1.91,0 2.457,0.544 2.457,2.448l0,22.398c0,3.264 0.182,6.438 0.455,9.702c0.637,5.804 3.913,7.254 9.19,6.71c2.003,-0.18 3.823,-1.27 5.734,-1.995c1.547,-0.544 1.91,-1.722 1.91,-3.264c-0.09,-10.972 0,-21.853 0,-32.826c0,-2.81 0.365,-3.173 3.186,-3.264l10.556,0c2.093,0 2.548,0.544 2.639,2.63l0,24.12l0,-0.001zm-72,-10.25l0,-34.09c0,-1.785 0.582,-2.41 2.247,-2.41l10.483,0c1.581,0 2.163,0.625 2.247,2.231c0.083,1.428 -0.084,2.767 -0.084,4.194c0,7.05 0.084,14.1 0.084,21.15c0,6.515 -0.084,13.12 -0.084,19.634l0,22.846c0,2.41 -0.499,2.945 -2.662,2.945l-9.652,0c-1.997,0 -2.496,-0.535 -2.496,-2.677c-0.083,-11.245 -0.083,-22.579 -0.083,-33.823zm185.092,10.147l0,-23.834c0,-2.248 0.458,-2.608 2.748,-2.608l11.084,0c1.923,0 2.381,0.54 2.565,2.428c0.091,0.72 0.091,1.44 0.458,1.979c0.732,1.08 1.832,1.17 3.114,0.45c2.107,-1.26 4.122,-2.519 6.32,-3.688c2.474,-1.349 5.13,-1.439 7.879,-1.349c1.19,0 1.74,0.72 1.74,1.799l0,12.412c0,1.259 -0.916,0.989 -1.649,0.899l-6.32,-0.54c-3.573,-0.18 -6.87,1.08 -10.168,2.159c-1.191,0.36 -1.466,1.439 -1.466,2.518l0,30.85c0,2.338 -0.458,2.878 -2.84,2.878c-3.755,0 -7.603,0 -11.359,-0.09c-1.557,0 -2.198,-0.63 -2.198,-1.979c0,-8.094 0,-16.189 0.092,-24.284c-0.092,0 -0.092,0 0,0z" fill="#41589E"/>
   </g>
  </svg>