<svg  id="fndm-lvo6yy6g6t" viewBox="95.49700164794922 72.14299774169922 409.00396728515625 106.70499420166016" xmlns="http://www.w3.org/2000/svg">
   <g xmlns="http://www.w3.org/2000/svg" fill-rule="evenodd" fill="none">
    <g fill="#E5007E">
     <path d="m217.071,152.727l18.606,0l0,-30.344c0,-2.688 0,-6.72 5.347,-6.72c5.132,0 5.132,4.81 5.132,7.427l0,29.566l18.606,0l0,-30.344c0,-2.688 0,-6.72 5.347,-6.72c5.133,0 5.133,4.81 5.133,7.428l0,29.565l18.606,0l0,-40.529c0,-7.993 -5.418,-15.844 -17.18,-15.844c-3.921,0 -9.91,1.486 -14.615,6.366c-5.417,-6.366 -10.336,-6.366 -13.045,-6.366c-7.343,0 -11.976,5.093 -13.046,6.366l-0.213,0l0,-5.093l-18.606,0l0,55.242l-0.072,0zm135.874,0l18.605,0l0,-28.434c0,-6.295 1.783,-11.53 12.19,-11.53l0,-15.136c-6.487,0 -9.623,1.273 -11.976,5.517l-0.214,0l0,-5.517l-18.605,0l0,55.1zm36.213,0l18.606,0l0,-55.1l-18.606,0l0,55.1z" fill-rule="nonzero"/>
     <path d="m488.248,137.802c-1.64,0.99 -3.494,2.052 -6.274,2.052c-3.35,0 -5.845,-1.91 -5.845,-5.376c0,-6.224 4.847,-7.78 12.047,-7.144l0,10.468l0.072,0zm-23.953,-23.765c4.349,-1.627 8.198,-2.759 13.26,-3.466c5.203,-0.778 9.908,1.485 9.908,7.002c-1.71,-0.849 -5.916,-1.697 -9.267,-1.697c-12.404,0 -19.818,9.265 -19.818,18.744c0,12.448 8.697,19.38 17.893,19.38c7.485,0 11.335,-4.173 11.977,-5.305l0.213,0l0,4.032l16.04,0l0,-37.77c0,-14.713 -7.984,-18.957 -22.67,-18.957c-4.99,0 -10.336,0.495 -17.679,2.9l0.143,15.137z"/>
     <path d="m413.752,150.393c5.133,2.192 9.624,3.536 15.898,3.536c14.043,0 25.378,-4.314 25.378,-17.046c0,-18.744 -27.874,-17.683 -22.456,-25.746c1.283,-1.98 5.846,-1.627 8.127,-0.85c2.851,0.92 6.558,2.123 9.624,3.75l0,-15.067c-2.78,-1.132 -7.414,-2.759 -12.475,-2.759c-12.19,0 -24.167,4.88 -24.167,16.764c0,18.744 22.883,17.965 22.883,24.26c0,3.325 -2.994,3.396 -7.057,3.396c-5.418,0 -10.907,-3.89 -15.826,-6.295l0,16.056l0.071,0l0,0.001z" fill-rule="nonzero"/>
     <path d="m328.137,137.802c-1.64,0.99 -3.493,2.052 -6.274,2.052c-3.35,0 -5.845,-1.91 -5.845,-5.376c0,-6.224 4.847,-7.78 12.047,-7.144l0,10.468l0.072,0zm-23.953,-23.765c4.349,-1.627 8.198,-2.759 13.26,-3.466c5.204,-0.778 9.908,1.485 9.908,7.002c-1.71,-0.849 -5.916,-1.697 -9.267,-1.697c-12.404,0 -19.818,9.265 -19.818,18.744c0,12.448 8.697,19.38 17.893,19.38c7.486,0 11.335,-4.173 11.977,-5.305l0.213,0l0,4.032l16.04,0l0,-37.77c0,-14.713 -7.984,-18.957 -22.67,-18.957c-4.99,0 -10.336,0.495 -17.678,2.9l0.142,15.137z"/>
    </g>
    <g fill-rule="nonzero">
     <path d="m95.497,72.143l107.076,0l0,106.705l-107.076,0l0,-106.705z" fill="#E5007E"/>
     <path d="m115.747,75.852c0.782,1.355 -3.623,1.64 -1.42,5.991c0.568,1.141 2.912,1.57 4.902,1.498c4.334,-0.214 13.287,-6.134 16.626,-7.133c4.121,-1.212 9.308,-0.856 11.227,2.14c0.426,0.785 0.923,1.926 0.497,2.497c-0.995,1.355 -3.482,-0.143 -5.613,-0.714c-6.324,-1.64 -11.51,1.64 -13.571,2.996c-2.7,1.712 -6.11,3.638 -9.521,3.495c-3.34,-0.071 -7.177,-1.783 -7.106,-6.277c0,-1.498 0.64,-2.995 1.777,-4.137c0.568,-0.642 1.847,-0.998 2.202,-0.356zm49.666,4.351c1.421,3.923 0.569,8.987 -0.142,11.769c0.213,0.927 0.568,2.995 1.208,5.278c0.142,0.57 0.497,1.141 0.71,1.783c0.214,1.427 -1.136,1.64 -2.131,2.14c-1.066,0.57 -0.853,1.355 -1.137,2.639c0,0 -1.492,0.357 -1.776,0.642c-0.284,0.285 1.35,0.642 1.208,1.141c-0.214,0.642 -3.34,2.64 -3.127,4.922c0.285,2.282 -0.994,2.282 -2.06,2.068c-1.066,-0.143 -3.766,-1.57 -5.542,-1.355c-4.69,0.428 1.634,15.478 1.42,15.55c-1.35,0.285 -12.22,-16.834 -4.689,-18.974c1.563,-0.428 2.984,-0.071 4.619,0.713c1.634,0.785 4.192,0.785 4.476,-0.927c0.213,-1.284 -0.355,-1.783 1.421,-2.71l-1.137,-1.855c0.071,0 2.06,-0.927 2.06,-0.927c0.072,-1.07 -0.212,-2.425 0,-2.782c0.498,-0.784 2.274,-0.142 2.559,-1.212c0.142,-0.642 -0.214,-0.785 -0.498,-1.712c-0.497,-1.712 -0.781,-2.64 -1.137,-4.208c0,0 2.7,-7.632 0.071,-11.77c-0.71,-1.14 0,-2.282 0.356,-2.924c0.64,-1.141 2.913,1.427 3.268,2.71l0,0.001zm-19.539,10.699c-0.071,0.856 -2.7,1.997 -4.69,2.425c-1.208,0.5 -2.202,0.927 -3.126,1.712c-4.334,3.78 -0.497,5.278 -5.826,10.556c-1.066,1.07 -4.76,2.996 -6.68,1.855c-3.552,-2.14 -8.455,-2.283 -10.941,-0.072c-3.34,2.996 -2.7,7.062 -3.553,6.99c-1.35,-0.142 -0.924,-4.422 0.284,-6.633c1.421,-2.568 3.766,-4.565 7.176,-5.278c4.76,-0.57 4.69,1.212 7.958,1.212c9.166,0 3.269,-11.84 14.992,-14.48c3.127,-0.712 4.477,0.785 4.406,1.713zm-19.114,-0.642c1.28,0 1.564,0.998 1.564,1.997c0,2.211 -3.34,3.638 -6.04,3.709c-4.12,0.071 -5.47,-1.855 -8.952,-1.213c-4.832,0.928 -5.045,4.28 -6.75,4.066c-1.066,-0.143 -0.214,-2.282 0.497,-3.495c0.924,-1.64 4.76,-3.566 6.963,-3.424c2.132,0.143 3.34,0.785 5.613,0.714c4.76,-0.072 4.974,-2.354 7.106,-2.354l-0.001,0zm67.856,24.465c-1.208,4.066 -7.46,5.706 -10.303,6.063c-1.918,0.214 -3.766,3.21 -4.405,2.282c-0.853,-1.284 2.274,-3.78 4.405,-4.707c2.771,-1.142 4.903,-0.214 9.663,-4.28c0.213,-0.071 0.782,0.214 0.64,0.642zm-55.563,6.135c1.35,1.283 0.142,2.995 -1.492,2.567c-2.772,-0.713 -4.05,-0.5 -7.319,-0.143c-9.308,0.927 -14.85,9.7 -24.087,14.55c-5.684,2.997 -6.75,1.927 -6.679,0.857c0.071,-0.856 1.635,-0.428 6.324,-3.424c2.487,-1.57 4.192,-2.639 6.11,-4.422c5.33,-4.993 13.43,-11.341 18.119,-11.27c1.208,0 7.105,-0.642 9.024,1.284l0,0.001zm14.352,14.621c-0.213,0.713 -1.279,0.5 -1.776,0.5c-2.203,0.07 -3.197,-2.283 -5.471,-4.138c-0.995,-0.784 -1.705,-0.998 -2.487,-1.925c-0.568,-0.714 -0.142,-1.142 0.71,-1.07c0.924,0.142 3.198,1.284 4.974,2.567c1.777,1.356 4.406,3.068 4.05,4.066zm24.655,15.692c0.569,6.348 -7.602,10.77 -7.815,14.194c-0.569,8.203 -1.208,10.414 -2.345,11.199c-0.64,0.427 -2.132,0.285 -1.918,-1.142c0.64,-5.135 0.426,-7.204 1.918,-12.125c1.492,-4.85 6.892,-5.85 6.608,-10.057c-0.355,-5.421 -4.476,-10.343 -4.974,-14.052c-0.355,-2.996 -0.852,-6.49 0.995,-9.7c0.213,-0.428 1.279,-0.214 1.137,0.713c-0.924,3.994 -0.071,6.633 0.568,8.773c1.35,5.136 5.4,7.917 5.827,12.197l-0.001,0zm-50.234,-9.629c0,0.999 -4.76,1.284 -8.455,4.494c-4.192,3.566 -8.313,6.49 -12.15,6.633c-1.35,0 -2.842,-0.428 -2.842,-1.07c-0.071,-2.14 4.05,-0.143 8.171,-3.281c3.979,-3.067 7.532,-6.063 11.582,-6.776c2.202,-0.57 3.694,-0.5 3.694,0zm16.2,17.974c3.766,0.428 6.04,-0.713 11.013,-3.994c0.356,-0.214 1.28,-0.428 1.28,0.856c-0.072,2.282 -4.477,5.706 -8.598,6.348c-4.334,0.713 -7.887,-1.355 -10.516,-3.852c-1.918,-1.854 -3.837,-5.634 -2.842,-6.276c0.498,-0.286 0.853,0.142 1.35,0.998c1.28,2.354 4.334,5.492 8.313,5.92zm-10.16,19.33c1.066,-5.064 0.71,-10.485 -2.487,-15.835c-3.055,-4.993 -7.176,-12.054 -7.46,-12.482c-1.066,-1.854 -1.28,-0.071 -1.066,0.927c0.852,4.708 7.176,13.481 7.531,19.758c0.142,3.21 -0.426,5.35 -1.066,7.632l4.548,0zm62.881,-81.598c-0.355,1.498 -5.044,3.21 -8.384,5.563c-5.897,4.137 -10.516,9.7 -14.85,10.913c-4.902,1.427 -6.537,2.853 -9.876,5.85c-1.776,1.568 -1.776,4.35 -4.121,4.564c0,0 -2.7,0 -1.99,-2.425c1.706,-5.706 7.248,-8.131 13.216,-10.842c1.208,-0.57 2.771,0.072 7.958,-4.137c5.684,-4.565 12.292,-8.416 15.845,-9.985c1.066,-0.357 2.416,-0.357 2.202,0.499z" fill="#FFF"/>
    </g>
   </g>
  </svg>