<svg  id="fndm-5z6wbiu1h4" viewBox="0.42827415466308594 0.4435281753540039 981.9717407226562 604.9679565429688" xmlns="http://www.w3.org/2000/svg">
   <g xmlns="http://www.w3.org/2000/svg" fill="none">
    <path d="m982.4,461.28c-1.44,1.44 -3.12,2.03 -5.21,2.01c-6.56,-0.06 -12.67,1.86 -18.59,4.56c-1.62,0.74 -2.18,1.66 -2.17,3.45c0.07,20.08 0.04,40.17 0.04,60.25c0,4.81 -0.61,5.43 -5.37,5.43c-3.9,0 -7.8,0.03 -11.7,-0.01c-3.09,-0.03 -4.3,-1.27 -4.3,-4.32c-0.01,-27.46 -0.01,-54.91 0,-82.37c0,-3.2 1.03,-4.2 4.29,-4.23c3.73,-0.02 7.46,-0.01 11.19,-0.01c4.23,0 4.82,0.58 4.93,4.79c0.01,0.33 0.06,0.66 0.09,1.03c1.12,0.17 1.71,-0.7 2.44,-1.17c5.77,-3.68 12.08,-5.59 18.87,-6.17c2.61,-0.22 4.44,0.61 5.49,3.03l0,13.73z" fill="#908882"/>
    <path d="m981.98,571.58c0.14,-0.03 0.28,-0.02 0.42,0.04l0,5.09c-0.15,0.02 -0.3,0.03 -0.45,0.03c-1.2,-1.73 -1.24,-3.45 0.03,-5.16z" fill="#D7D4D2"/>
    <path d="m176.13,122.63c11.78,0 23.57,0.04 35.35,-0.04c1.83,-0.01 2.48,0.32 2.35,2.35c-0.46,7.2 -1.48,14.31 -2.8,21.39c-0.06,0.33 -0.19,0.66 -0.22,0.99c-0.25,2.66 -0.39,5.39 1.99,7.24c2.34,1.82 4.93,1 7.22,-0.14c6.43,-3.22 12.78,-6.61 19.15,-9.96c14.84,-7.79 29.67,-15.6 44.5,-23.4c1.43,-0.75 2.85,-1.51 4.03,-2.63c2.99,-2.82 3.02,-6.23 0.1,-9.11c-1.1,-1.09 -2.42,-1.84 -3.77,-2.56c-20.68,-10.87 -41.35,-21.74 -62.02,-32.63c-1.51,-0.8 -3.08,-1.45 -4.74,-1.76c-3.93,-0.73 -6.49,1.31 -6.59,5.31c-0.1,4.1 1.3,8 1.78,12.03c0.52,4.37 1.15,8.73 1.38,13.13c0.08,1.45 -0.33,1.91 -1.8,1.91c-23.65,-0.04 -47.3,-0.04 -70.96,0c-1.69,0 -1.78,-0.53 -1.27,-1.94c2.03,-5.58 5.06,-10.52 9.27,-14.7c25.87,-25.67 51.69,-51.39 77.67,-76.94c14.46,-14.22 38.2,-14.34 52.64,-0.13c26.16,25.74 52.18,51.62 78.05,77.65c14.93,15.02 14.82,38.78 -0.12,53.75c-25.74,25.8 -51.58,51.5 -77.51,77.11c-14.84,14.66 -38.56,14.61 -53.4,-0.05c-25.86,-25.56 -51.59,-51.25 -77.34,-76.92c-4.97,-4.95 -8.16,-10.96 -10.02,-17.7c-0.46,-1.66 -0.31,-2.32 1.73,-2.3c11.79,0.1 23.57,0.05 35.35,0.05z" fill="#ED4144"/>
    <path d="m367.99,401.26c-2.07,6.73 -5.44,12.21 -10.14,16.88c-21.98,21.89 -43.97,43.77 -65.96,65.65c-3.42,3.41 -6.85,6.82 -10.28,10.22c-15.77,15.61 -39.24,15.66 -55.1,-0.01c-16.4,-16.21 -32.69,-32.52 -49.02,-48.78c-8.95,-8.91 -17.92,-17.8 -26.84,-26.74c-15.98,-16.02 -15.95,-39.95 0.11,-55.88c25.14,-24.96 50.3,-49.9 75.49,-74.82c14.31,-14.16 36.39,-15.71 51.63,-3.59c5.25,4.17 9.7,9.22 14.46,13.93c21.58,21.33 43.13,42.69 64.65,64.09c5.31,5.28 9.05,11.56 11.13,18.81c0.5,1.73 0.34,2.37 -1.69,2.37c-23.65,-0.06 -47.31,-0.06 -70.96,0c-1.86,0 -2.18,-0.53 -2.07,-2.31c0.47,-7.28 1.56,-14.47 2.87,-21.64c0.14,-0.75 0.26,-1.51 0.28,-2.26c0.13,-5.23 -2.8,-7.57 -7.78,-6.16c-1.37,0.39 -2.69,1.02 -3.96,1.69a73151.37,73151.37 0 0 0 -61.87,32.83c-0.37,0.2 -0.76,0.38 -1.12,0.59c-2.43,1.42 -4.55,3.15 -4.5,6.25c0.04,2.98 2.04,4.74 4.45,6.02c21.43,11.4 42.87,22.8 64.34,34.13c2.66,1.4 5.7,2.5 8.42,0.5c2.78,-2.05 2.29,-5.2 1.71,-8.19c-1.39,-7.24 -2.44,-14.52 -2.86,-21.89c-0.06,-1.12 -0.05,-1.68 1.33,-1.68c24.3,0 48.63,-0.01 73.28,-0.01z" fill="#233C5B"/>
    <path d="m123.28,330.02c0,-11.61 0.04,-23.22 -0.04,-34.82c-0.01,-1.88 0.39,-2.47 2.38,-2.34c7.11,0.48 14.14,1.49 21.14,2.8c3,0.56 6.16,0.93 8.2,-1.8c1.98,-2.64 0.79,-5.56 -0.56,-8.15c-7.41,-14.17 -14.88,-28.3 -22.32,-42.44c-3.7,-7.04 -7.39,-14.08 -11.11,-21.11c-0.63,-1.19 -1.32,-2.39 -2.21,-3.39c-2.53,-2.87 -6.03,-2.93 -8.64,-0.16c-0.86,0.91 -1.56,2.01 -2.15,3.12c-11.13,20.91 -22.23,41.83 -33.35,62.74c-0.92,1.73 -1.73,3.48 -1.91,5.47c-0.33,3.85 1.48,5.98 5.35,6.07c4.1,0.1 8.01,-1.29 12.04,-1.77c4.29,-0.52 8.56,-1.12 12.88,-1.37c1.48,-0.09 2.09,0.14 2.09,1.83c-0.05,23.39 -0.06,46.77 0,70.16c0,1.94 -0.68,1.83 -2.06,1.31c-5.56,-2.08 -10.48,-5.14 -14.68,-9.33c-25.37,-25.33 -50.77,-50.63 -76.07,-76.03c-15.65,-15.72 -15.83,-39.36 -0.21,-55.13c25.35,-25.59 50.83,-51.05 76.44,-76.37c15.54,-15.36 38.97,-15.12 54.5,0.29c25.39,25.19 50.73,50.42 76.05,75.69c15.36,15.33 15.75,39.69 0.48,55.09c-25.78,26 -51.82,51.73 -77.79,77.54c-4.54,4.51 -10.07,7.33 -16.24,9.05c-2.03,0.57 -2.25,-0.13 -2.24,-1.87c0.06,-11.69 0.03,-23.38 0.03,-35.08z" fill="#058777"/>
    <path d="m384.17,175.79c0,11.61 -0.07,23.22 0.06,34.83c0.02,2.25 -0.68,2.67 -2.73,2.48c-6.75,-0.63 -13.47,-1.43 -20.12,-2.72c-1.07,-0.21 -2.18,-0.35 -3.27,-0.36c-5.55,-0.09 -7.84,3.01 -5.82,8.21c1.13,2.9 2.75,5.62 4.21,8.39c10.01,19.03 20.03,38.05 30.07,57.06c0.59,1.12 1.24,2.24 2.06,3.18c2.54,2.9 6.22,2.97 8.89,0.18c0.81,-0.84 1.47,-1.86 2.03,-2.9c11.23,-21.06 22.45,-42.13 33.61,-63.23c1.51,-2.86 3.05,-6.04 0.71,-9.06c-2.29,-2.94 -5.69,-2.05 -8.76,-1.49c-6.84,1.26 -13.71,2.18 -20.64,2.74c-1.64,0.13 -2.41,-0.11 -2.4,-2.07c0.07,-23.39 0.07,-46.78 0,-70.17c-0.01,-2.05 0.68,-1.99 2.2,-1.41c5.36,2.07 10.22,4.93 14.28,9.03c25.77,26.02 51.61,51.96 77.24,78.1c14.33,14.62 14.27,38.24 -0.12,52.81c-25.37,25.69 -50.84,51.29 -76.45,76.74c-15.19,15.1 -39.29,15.06 -54.5,0.03c-25.51,-25.19 -50.93,-50.48 -76.26,-75.85c-15.64,-15.66 -15.54,-39.75 0.07,-55.39c25.33,-25.37 50.72,-50.69 76.08,-76.04c4.89,-4.89 10.65,-8.28 17.31,-10.21c1.94,-0.56 2.28,-0.09 2.27,1.76c-0.05,11.8 -0.02,23.58 -0.02,35.36z" fill="#F79421"/>
    <path d="m499.26,452.16c2.85,-1.54 5.37,-3.08 8.03,-4.31c8.17,-3.75 16.61,-4.41 25.25,-1.83c2.8,0.84 5.38,2.17 7.33,4.37c1.16,1.3 2.06,1.17 3.45,0.41c9.24,-5.09 19.12,-7.3 29.62,-5.89c11.56,1.55 18.02,7.64 20.74,19.21c1.15,4.88 1.6,9.85 1.59,14.86c-0.01,17.79 0,35.59 0,53.38c0,3.43 -1.12,4.59 -4.51,4.62c-4.07,0.03 -8.14,0.01 -12.21,0.01c-3.83,-0.01 -4.65,-0.81 -4.65,-4.58c-0.01,-17.96 0,-35.93 -0.01,-53.89c0,-1.94 0.02,-3.88 -0.31,-5.83c-1.31,-7.85 -4.56,-10.5 -12.51,-9.79c-4.32,0.39 -8.47,1.62 -12.41,3.46c-0.85,0.4 -1.6,0.74 -1.49,2.01c0.77,8.71 0.38,17.44 0.42,26.16c0.06,12.54 0.02,25.08 0.01,37.62c0,4.07 -0.78,4.83 -4.94,4.83c-3.73,0.01 -7.46,0 -11.19,0c-4.38,0 -5.05,-0.66 -5.06,-4.94c0,-16.1 0.02,-32.2 -0.02,-48.3c-0.01,-3.55 -0.11,-7.11 -0.33,-10.66c-0.49,-8.1 -3.55,-10.67 -11.85,-10.13c-4.8,0.31 -8.99,2.84 -13.23,4.96c-1.24,0.62 -0.87,1.72 -0.87,2.68c-0.02,13.64 -0.01,27.28 -0.01,40.92c0,7.03 0.01,14.07 0,21.1c-0.01,3.39 -0.98,4.36 -4.39,4.37c-4.24,0.02 -8.48,0.04 -12.71,-0.01c-3.25,-0.03 -4.25,-1.06 -4.25,-4.27c-0.01,-27.45 -0.01,-54.9 0,-82.36c0,-3.26 0.99,-4.26 4.21,-4.28c3.81,-0.03 7.63,-0.01 11.44,-0.01c3.95,0.01 4.65,0.72 4.75,4.75c0.02,0.33 0.06,0.67 0.11,1.36zm293.92,-7.19c19.33,0.61 32.75,12.81 34.53,32.12c1.08,11.7 1.68,23.52 -1.03,35.12c-3.41,14.6 -14.2,24 -29.07,25.92c-6.86,0.89 -13.69,0.6 -20.52,-0.1c-2.32,-0.24 -2.83,0.46 -2.79,2.7c0.14,8.13 0.06,16.26 0.05,24.39c0,3.71 -0.92,4.62 -4.66,4.64c-4.07,0.02 -8.13,0.01 -12.2,0c-3.54,-0.01 -4.5,-0.97 -4.5,-4.53c-0.03,-18.56 -0.02,-37.1 -0.02,-55.65l0,-54.63c0,-3.89 0.8,-4.99 4.51,-5.87c11.73,-2.79 23.59,-4.49 35.7,-4.11zm-2.83,17.31c-4.4,-0.03 -8.79,0.14 -13.19,0.46c-2.11,0.15 -2.91,0.69 -2.87,2.97c0.14,8.54 0.06,17.09 0.06,25.64c0,8.8 0.02,17.6 -0.02,26.41c-0.01,1.37 0.22,2.29 1.79,2.42c5.29,0.43 10.5,1.49 15.9,0.76c7.92,-1.07 12.42,-4.42 13.79,-12.21c1.99,-11.3 2,-22.76 0.01,-34.06c-1.47,-8.37 -6.92,-12.33 -15.47,-12.39zm-157.66,-48.26c3.64,0.01 4.73,1.1 4.74,4.66c0.01,8.39 0.02,16.78 -0.02,25.17c-0.01,1.52 0.05,2.19 2.05,1.84c8.06,-1.42 16.17,-1.79 24.24,-0.02c14.44,3.17 23.01,12.17 26.13,26.5c0.69,3.15 1.17,6.33 1.11,9.57c-0.17,9.64 0.79,19.31 -1.04,28.9c-3.19,16.74 -15.28,27.18 -32.39,27.93c-12.02,0.52 -23.84,-0.86 -35.52,-3.63c-0.66,-0.16 -1.31,-0.34 -1.96,-0.54c-3.41,-1.1 -3.99,-1.88 -3.99,-5.49c0.01,-18.31 0.02,-36.61 0.01,-54.92l0,-54.92c0,-4.38 0.65,-5.05 4.94,-5.05c3.9,0 7.8,-0.01 11.7,0zm24.36,48.53c-5.99,-0.82 -11.99,-0.01 -17.98,0.42c-1.61,0.12 -1.44,1.34 -1.44,2.45l0,25.9c0,8.63 0.04,17.27 -0.03,25.9c-0.02,1.91 0.36,2.9 2.52,3.15c5.12,0.58 10.19,1.24 15.39,0.55c7.64,-1 12.04,-4.28 13.54,-11.87c2.25,-11.37 2.02,-22.9 0.17,-34.31c-1.09,-6.68 -5.13,-11.22 -12.17,-12.19zm-224.09,-17.06c14.63,2.42 23.75,12.37 23.94,27.09c0.26,20.33 0.11,40.66 0.1,60.99c0,2.91 -1.1,3.93 -4.03,3.96c-3.3,0.03 -6.61,0.01 -9.92,0.01c-5.15,0 -5.62,-0.41 -6.3,-5.59c-1.64,0.81 -3.21,1.59 -4.77,2.38c-8.86,4.43 -18.17,5.17 -27.7,3.04c-10.76,-2.4 -17.36,-10.32 -18.06,-21.42c-0.28,-4.48 -0.41,-8.97 0.72,-13.39c2.64,-10.37 10.12,-15.36 19.84,-17.83c5.37,-1.36 10.85,-1.76 16.37,-1.73c3.56,0.02 7.12,0.01 10.68,0c0.85,0 1.81,0.09 1.79,-1.19c-0.05,-3.72 0.4,-7.48 -0.37,-11.15c-1.02,-4.9 -4.05,-7.4 -9.28,-7.87c-7.03,-0.63 -14.05,0.01 -21.07,0.21c-3.12,0.09 -6.24,0.55 -9.36,0.74c-3.07,0.19 -4.05,-0.7 -4.12,-3.72c-0.07,-2.96 -0.03,-5.93 -0.01,-8.89c0.02,-2.14 0.96,-3.53 3.19,-3.9c12.72,-2.14 25.44,-3.88 38.36,-1.74zm1.192,51.82l-0.172,0c-4.5,0.08 -9,-0.11 -13.48,0.13c-6.85,0.37 -11.09,3.31 -12.26,8.34c-0.65,2.81 -0.89,5.67 -0.34,8.57c0.82,4.31 2.88,6.23 7.16,7c6.97,1.25 13.2,-1.07 19.41,-3.66c1.08,-0.45 1.18,-1.27 1.17,-2.26c-0.03,-2.63 -0.01,-5.25 -0.01,-7.88c0,-2.8 -0.03,-5.59 0.01,-8.39c0.03,-1.22 -0.24,-1.88 -1.66,-1.85l0.172,0zm459.378,-50.82c11.99,3.21 19.48,12.34 19.66,24.73c0.32,20.83 0.17,41.67 0.17,62.51c0,2.78 -1.11,3.78 -3.91,3.8c-3.47,0.03 -6.95,0.01 -10.42,0.01c-4.7,0 -5.44,-0.67 -5.85,-5.62c-3.7,1.8 -7.09,3.71 -10.83,4.81c-8.09,2.39 -16.23,2.49 -24.24,-0.12c-9.48,-3.09 -14.92,-10.56 -15.56,-21.02c-0.25,-4.14 -0.33,-8.29 0.61,-12.39c1.96,-8.6 7.37,-14.05 15.49,-17.06c6.61,-2.45 13.48,-3.13 20.47,-3.13c3.64,0 7.29,-0.11 10.93,0.04c1.97,0.09 2.51,-0.6 2.36,-2.46c-0.24,-3.11 0.26,-6.26 -0.38,-9.37c-1.12,-5.37 -3.91,-7.98 -9.3,-8.41c-7.19,-0.58 -14.38,-0.09 -21.57,0.27c-3.04,0.15 -6.07,0.52 -9.11,0.67c-2.91,0.14 -3.87,-0.81 -3.9,-3.66c-0.03,-3.05 -0.01,-6.1 0,-9.15c0.01,-1.8 0.7,-3.18 2.61,-3.52c14.21,-2.54 28.45,-4.77 42.77,-0.93zm-2.3,50.827l-0.17,0.003c-2.28,0.08 -4.57,0.02 -6.85,0.02c-4.05,0 -8.12,-0.22 -12.06,1.09c-3.4,1.13 -5.99,3.1 -7.05,6.67c-0.93,3.13 -1.04,6.34 -0.48,9.53c0.74,4.23 2.84,5.96 7.1,6.72c7.23,1.28 13.65,-1.18 20.04,-3.97c0.924,-0.409 1.003,-1.039 1.01,-1.771l0,-8.139c0,-2.79 -0.04,-5.58 0.02,-8.37c0.03,-1.29 -0.38,-1.83 -1.73,-1.78l0.17,-0.003zm-181.53,-5.857l0,-40.9c0,-3.59 0.91,-4.5 4.49,-4.52c4.32,-0.02 8.64,-0.03 12.96,0.01c2.78,0.02 3.91,1.08 3.91,3.81c0.02,27.78 0.02,55.55 0,83.33c0,2.61 -1.13,3.74 -3.71,3.77c-4.57,0.06 -9.15,0.07 -13.72,0c-2.92,-0.05 -3.91,-1.12 -3.92,-4.08c-0.02,-13.81 -0.01,-27.61 -0.01,-41.42z" fill="#908882"/>
    <path d="m869.93,561.85c5.78,1.53 8.58,4.85 9.09,10.75c0.47,5.53 -2.06,10.07 -7.12,12.26c-1.67,0.72 -1.87,1.26 -0.9,2.8c3.07,4.87 6,9.82 8.96,14.76c1.21,2.02 0.84,2.54 -1.53,2.8c-2.81,0.31 -4.68,-0.45 -6.09,-3.19c-2.23,-4.36 -5.08,-8.4 -7.43,-12.7c-1.05,-1.91 -2.29,-2.51 -4.41,-2.5c-4.92,0.03 -4.92,-0.08 -4.92,4.91c0,3.73 -0.06,7.45 0.02,11.18c0.04,2 -0.96,2.32 -2.7,2.33c-1.84,0.01 -2.32,-0.76 -2.3,-2.45c0.07,-6.45 0.03,-12.88 0.03,-19.32c0,-6.44 0.01,-12.87 -0.01,-19.31c0,-1.26 0.01,-2.49 1.64,-2.62c5.9,-0.47 11.81,-1.26 17.67,0.3zm-2.35,4.17c-3.1,-0.63 -6.23,-0.42 -9.36,-0.43c-1.69,-0.01 -2.17,0.79 -2.08,2.36c0.11,1.85 0.03,3.72 0.03,5.58c0,2.29 0.01,4.57 -0.01,6.86c0,0.82 0.08,1.56 1.18,1.53c3.55,-0.1 7.12,0.36 10.62,-0.5c4.29,-1.06 5.84,-3.32 5.71,-8.23c-0.1,-4.14 -2,-6.33 -6.09,-7.17zm31.41,-5.05c7.89,0.18 13.2,4.53 14.53,12.56c1.1,6.61 1.24,13.34 -0.23,19.92c-1.84,8.23 -7.77,12.24 -16.75,11.7c-7.67,-0.46 -12.91,-5.67 -13.88,-13.64c-0.34,-2.78 -0.41,-5.56 -0.37,-8.35c-0.09,-3.47 -0.06,-6.94 0.77,-10.34c1.95,-8.03 7.35,-12.04 15.93,-11.85zm-0.52,4.59c-5.15,-0.08 -8.66,2.3 -9.79,7.42c-1.49,6.75 -1.51,13.63 0.02,20.38c1.13,5 4.34,7.22 9.36,7.24c5,0.02 8.14,-2.27 9.61,-7.03c0.957,-3.087 0.97,-6.27 0.934,-9.448l-0.014,-1.122c0.04,-3.3 0.14,-6.61 -0.71,-9.84c-1.33,-5.09 -4.36,-7.52 -9.41,-7.6zm44.81,11.92c0,-4.57 0.08,-9.15 -0.03,-13.72c-0.05,-2.21 1.11,-2.43 2.87,-2.45c1.86,-0.03 2.78,0.4 2.76,2.53c-0.1,8.89 0.07,17.79 -0.1,26.68c-0.1,5.39 -1.56,10.47 -6.95,12.9c-6.01,2.71 -12.25,2.85 -18,-0.8c-3.99,-2.53 -5.28,-6.84 -5.39,-11.26c-0.23,-9.31 -0.07,-18.63 -0.13,-27.95c-0.01,-2.03 1.2,-2.09 2.67,-2.07c1.48,0.02 3.01,-0.15 2.9,2.1c-0.07,1.52 -0.01,3.05 -0.01,4.57c0.01,7.54 -0.08,15.08 0.05,22.62c0.14,8.19 6.59,12.3 14.24,9.22c3.8,-1.52 4.89,-4.77 5.03,-8.39c0.17,-4.65 0.04,-9.32 0.04,-13.98l0.05,0z" fill="#918983"/>
    <path d="m845.09,593.18c0,2.88 -0.06,5.76 0.03,8.64c0.05,1.53 -0.33,2.2 -2.03,2.42c-3.04,0.4 -6.07,0.51 -9.12,0.54c-9.09,0.1 -14.76,-4.19 -16.09,-13.16c-0.96,-6.42 -1.07,-13.04 0.24,-19.47c1.52,-7.44 6.87,-11.58 14.47,-11.75c3.49,-0.08 6.94,0.2 10.39,0.61c2.35,0.28 3.15,1.62 2.51,3.91c-0.33,1.19 -1.2,1.04 -2.02,0.92c-3.29,-0.48 -6.6,-0.27 -9.9,-0.28c-5.68,-0.01 -9.04,2.46 -10.07,8.03c-1.18,6.36 -1.27,12.82 0.17,19.17c1.19,5.22 4.35,7.47 9.69,7.45c6.6,-0.02 6.6,-0.02 6.6,-6.67c0,-2.97 0.08,-5.93 -0.03,-8.9c-0.07,-1.87 0.35,-2.8 2.5,-2.77c2.14,0.04 2.81,0.85 2.71,2.91c-0.15,2.8 -0.05,5.6 -0.05,8.4zm127.62,-31.7c5.54,1.34 8.45,4.6 9.27,10.1l-0.03,5.15c-1.23,6.67 -5.47,10.14 -13.13,10.6c-2.28,0.14 -4.59,0.2 -6.85,-0.02c-2.18,-0.21 -3,0.32 -2.89,2.68c0.2,4.22 0,8.46 0.08,12.69c0.04,1.71 -0.65,2.19 -2.26,2.15c-1.53,-0.04 -2.57,-0.14 -2.56,-2.14c0.06,-13.03 0.05,-26.07 0.01,-39.1c0,-1.45 0.48,-2.23 1.96,-2.36c5.48,-0.48 10.97,-1.05 16.4,0.25zm-0.88,4.51c-3.47,-1.07 -7.02,-0.56 -10.55,-0.47c-1.178,0.027 -1.197,0.763 -1.191,1.538l0.001,0.222l0,6.84c0,2.28 0.01,4.56 -0.01,6.84c0,0.91 0.09,1.72 1.28,1.75c3.53,0.1 7.1,0.54 10.56,-0.55c3.57,-1.12 4.95,-3.52 4.92,-8.4c-0.02,-4.49 -1.4,-6.66 -5.01,-7.77zm-251.27,-132.7c-2.54,0 -5.07,0.05 -7.61,-0.02c-2.37,-0.07 -3.6,-1.27 -3.64,-3.63c-0.06,-4.31 -0.08,-8.62 0.01,-12.93c0.06,-2.76 1.17,-3.78 3.94,-3.8c4.82,-0.03 9.64,-0.04 14.46,0c2.64,0.02 3.87,1.25 3.9,3.89c0.05,4.23 0.04,8.45 0,12.68c-0.03,2.54 -1.18,3.72 -3.7,3.79c-2.46,0.08 -4.91,0.02 -7.36,0.02z" fill="#908983"/>
   </g>
  </svg>