<svg  id="fndm-uxf9bp3lhk" viewBox="0.797014594078064 0.6163482666015625 1098.9964599609375 325.95220947265625" xmlns="http://www.w3.org/2000/svg">
   <path d="m0.805,256.626c0.225,-2.318 0.418,-4.627 0.668,-6.945c1.336,-12.419 5.167,-23.815 13.786,-33.215c6.85,-7.47 15.365,-12.298 24.837,-15.598c9.385,-3.276 19.083,-5.223 28.974,-5.674c12.362,-0.555 24.756,-0.612 37.135,-0.773c8.136,-0.104 16.273,-0.016 24.41,-0.016l1.86,0c0.031,-10.229 1.094,-20.305 -0.701,-30.229c-2.004,-11.098 -9.368,-17.465 -19.767,-20.732c-7.83,-2.463 -15.919,-3.34 -24.064,-3.236c-10.084,0.121 -20.185,0.387 -30.237,1.111c-6.648,0.483 -13.223,1.964 -19.855,2.833c-2.608,0.338 -5.272,0.346 -7.903,0.29c-2.093,-0.04 -3.147,-1.481 -3.662,-3.405c-0.87,-3.243 -0.427,-6.446 0.41,-9.585c2.503,-9.368 7.099,-17.473 14.752,-23.63c2.906,-2.334 6.262,-3.573 9.972,-4.281c6.825,-1.296 13.698,-1.521 20.58,-1.546c8.547,-0.024 17.134,-0.217 25.641,0.483c14.994,1.232 29.787,3.735 43.565,10.286c17.86,8.49 28.612,22.495 32.5,41.827c1.23,6.116 1.69,12.297 1.69,18.519c0,28 0.007,55.991 0,83.991c0,10.632 -1.208,21.079 -5.232,31.034c-3.203,7.92 -8.129,14.551 -14.535,20.25c-8.91,7.92 -19.622,11.814 -30.913,14.495c-14.544,3.452 -29.352,3.879 -44.201,3.63c-10.978,-0.186 -21.827,-1.41 -32.459,-4.258c-8.37,-2.238 -16.386,-5.376 -23.396,-10.535c-11.517,-8.475 -18.97,-19.735 -21.843,-33.803c-0.877,-4.298 -1.167,-8.716 -1.739,-13.07c-0.064,-0.507 -0.185,-1.014 -0.281,-1.522c0.008,-2.237 0.008,-4.466 0.008,-6.696zm131.838,-28.515c-0.571,-0.048 -0.933,-0.112 -1.296,-0.112c-16.635,0.04 -33.271,0.04 -49.907,0.16c-6.02,0.041 -11.951,0.902 -17.746,2.632c-9.513,2.842 -16.008,8.717 -18.495,18.536c-1.32,5.215 -1.425,10.519 -0.668,15.806c1.223,8.475 5.352,15.043 13.2,18.873c2.55,1.248 5.303,2.198 8.063,2.898c8,2.036 16.202,2.1 24.387,1.9c7.01,-0.178 14.004,-0.653 20.82,-2.528c9.224,-2.543 16.322,-7.565 19.582,-16.982c1.432,-4.145 2.052,-8.442 2.06,-12.82c0.016,-8.87 0.008,-17.739 0.008,-26.608c-0.008,-0.531 -0.008,-1.054 -0.008,-1.755zm592.423,-94.735c0.419,-0.685 0.821,-1.353 1.24,-2.02c8.434,-13.707 20.86,-21.82 36.153,-26.11c12.547,-3.524 25.295,-3.983 38.172,-2.96c2.439,0.192 4.894,0.305 7.292,0.732c12.95,2.301 25.65,5.327 36.773,12.893c12.893,8.772 20.692,21.07 24.973,35.815c2.857,9.85 4.137,19.96 4.161,30.18c0.097,43.992 0.08,87.976 0.089,131.968c0,1.046 -0.073,2.148 -0.379,3.138c-0.837,2.713 -2.655,4.564 -5.577,4.725c-4.982,0.281 -9.988,0.386 -14.873,-1.014c-6.19,-1.771 -11.316,-5.224 -15.13,-10.342c-4.95,-6.64 -7.582,-14.125 -7.566,-22.52c0.04,-34.373 0.096,-68.748 -0.065,-103.122c-0.024,-5.633 -0.676,-11.356 -1.77,-16.885c-2.382,-12.024 -9.908,-19.477 -21.795,-22.293c-12.611,-2.994 -25.312,-2.962 -37.867,0.257c-12.917,3.308 -19.984,12.097 -22.004,25.006a100.407,100.407 0 0 0 -1.199,15.058c-0.088,42.664 -0.048,85.328 -0.072,127.983c0,1.256 -0.105,2.584 -0.523,3.743c-0.862,2.35 -2.56,4 -5.167,4.137c-5.095,0.273 -10.214,0.418 -15.155,-1.224c-9.047,-3.01 -14.729,-9.497 -18.399,-18.004c-2.068,-4.796 -2.913,-9.834 -2.913,-15.05c0.016,-33.255 0.08,-66.519 -0.056,-99.774c-0.025,-6.18 -0.491,-12.426 -1.481,-18.527c-2.157,-13.271 -10.23,-21.223 -23.332,-23.943c-11.96,-2.487 -23.96,-2.487 -35.871,0.394c-12.684,3.066 -20.008,11.308 -22.213,24.008c-0.813,4.684 -1.288,9.489 -1.296,14.245c-0.097,43.139 -0.056,86.277 -0.073,129.424c0,1.159 -0.032,2.366 -0.346,3.469c-0.78,2.688 -2.454,4.732 -5.392,4.933c-6.278,0.435 -12.547,0.483 -18.479,-2.173c-9.875,-4.426 -15.332,-12.458 -18.044,-22.543c-0.764,-2.833 -1.07,-5.867 -1.086,-8.813c-0.13,-22.84 -0.153,-45.681 -0.185,-68.522c-0.017,-12.427 -0.17,-24.861 0.04,-37.288c0.233,-13.85 2.366,-27.372 8.281,-40.072c8.145,-17.473 21.755,-28.78 39.92,-34.672c5.376,-1.746 11.026,-2.632 16.539,-3.976c7.654,-1.859 15.469,-1.827 23.251,-1.746c4.821,0.048 9.706,0.306 14.43,1.183c11.76,2.173 23.083,5.585 32.636,13.312c5.441,4.402 9.876,9.625 13.369,15.662c0.209,0.37 0.426,0.732 0.66,1.086c0.064,0.064 0.168,0.113 0.33,0.242l-0.001,0zm331.894,60.924c0.032,-0.619 0.072,-1.086 0.072,-1.56c0.008,-7.123 0.121,-14.238 -0.032,-21.36c-0.16,-7.51 -1.947,-14.536 -7.34,-20.162c-4.571,-4.772 -10.422,-7.21 -16.708,-8.74c-6.897,-1.682 -13.94,-2.414 -21.022,-2.286c-9.923,0.177 -19.863,0.395 -29.762,1.12c-6.705,0.49 -13.328,1.955 -20.008,2.848c-2.503,0.338 -5.07,0.41 -7.598,0.346c-2.455,-0.056 -3.847,-1.746 -4,-3.992c-0.185,-2.664 -0.281,-5.456 0.314,-8.032c2.31,-10.068 7.203,-18.664 15.493,-25.078c2.728,-2.109 5.875,-3.228 9.32,-3.84c11.469,-2.027 23.042,-1.778 34.6,-1.69c6.148,0.04 12.353,0.33 18.43,1.192c13.722,1.94 27.332,4.45 39.758,11.147c16.443,8.853 26.253,22.55 29.577,40.78c1.087,5.972 1.594,12.12 1.634,18.197c0.17,28.161 0.089,56.314 0.065,84.475c-0.009,10.044 -1.2,19.903 -4.79,29.368c-3.235,8.515 -8.393,15.605 -15.267,21.617c-8.837,7.727 -19.404,11.574 -30.535,14.213c-11.058,2.624 -22.326,3.582 -33.674,3.67c-8.772,0.065 -17.537,0.049 -26.27,-1.062c-12.305,-1.57 -24.28,-4.306 -35.146,-10.56c-12.998,-7.484 -21.827,-18.414 -25.883,-32.9c-4.169,-14.906 -4.072,-29.964 0.048,-44.83c4.773,-17.214 16.338,-28.401 32.66,-34.977c9.328,-3.758 19.107,-5.658 29.062,-6.752c11.501,-1.272 23.034,-0.998 34.568,-1.022c10.1,-0.025 20.209,0 30.31,-0.009c0.708,-0.024 1.384,-0.088 2.124,-0.12l0,-0.001zm0.08,33.787c-0.756,-0.04 -1.271,-0.096 -1.794,-0.096c-15.525,-0.008 -31.05,-0.073 -46.567,0.032c-6.536,0.04 -13.039,0.668 -19.389,2.406c-9.819,2.68 -16.901,8.25 -19.59,18.43c-1.649,6.262 -1.69,12.612 -0.289,18.922c1.376,6.222 4.644,11.228 10.044,14.745c3.284,2.14 6.898,3.5 10.688,4.41c8.033,1.932 16.21,2.06 24.395,1.86c6.961,-0.17 13.899,-0.645 20.66,-2.488c8.362,-2.285 15.179,-6.551 18.857,-14.792c2.132,-4.781 2.921,-9.86 2.961,-15.035c0.08,-8.869 0.024,-17.738 0.024,-26.607l0,-1.787zm-642.097,20.531l0,65.352c0,5.521 -2.438,7.928 -7.96,7.968c-5.32,0.04 -10.623,0.072 -15.726,-1.843c-5.247,-1.98 -9.794,-4.974 -13.167,-9.433c-4.217,-5.577 -6.768,-11.847 -6.76,-18.986c0.016,-35.702 0.08,-71.404 -0.072,-107.106a76.301,76.301 0 0 0 -1.78,-15.927c-2.55,-11.598 -10.196,-18.624 -21.391,-22.012c-6.246,-1.891 -12.66,-2.656 -19.163,-2.946c-9.755,-0.426 -19.445,-0.104 -28.958,2.31c-7.042,1.787 -13.384,4.837 -18.052,10.656c-4.016,5.006 -5.98,10.857 -6.672,17.119c-0.499,4.53 -0.853,9.094 -0.87,13.65c-0.088,23.001 -0.056,46.011 -0.031,69.013c0.016,19.227 0.088,38.463 0.136,57.69c0.008,5.328 -2.47,7.815 -7.782,7.807c-4.354,-0.008 -8.717,0.193 -12.998,-0.926c-6.543,-1.714 -12.089,-5.062 -16.153,-10.446c-4.217,-5.578 -6.672,-11.855 -6.664,-19.018c0.04,-36.024 -0.04,-72.04 0.048,-108.064c0.033,-13.489 2.165,-26.64 7.807,-39.034c7.662,-16.829 20.563,-28.048 37.634,-34.728c7.549,-2.954 15.436,-4.564 23.38,-6.06c8.611,-1.626 17.28,-1.892 25.972,-1.771c5.674,0.08 11.396,0.322 16.99,1.19c12.337,1.924 24.466,4.669 35.597,10.745c17.384,9.49 28.04,24.097 33.11,43.01c2.045,7.622 3.18,15.396 3.284,23.276c0.185,13.593 0.193,27.195 0.241,40.788c0.033,9.24 0,18.479 0,27.726zm103.71,-21.955l0,87.5c0,4.258 -2.382,7.268 -6.583,7.541c-6.367,0.41 -12.749,0.467 -18.922,-1.65c-5.658,-1.939 -10.623,-4.99 -14.43,-9.569c-5.288,-6.374 -8.5,-13.658 -8.5,-22.108l0,-173.89c0,-4.645 3.035,-7.647 7.727,-7.63c5.408,0.016 10.833,-0.274 16.153,1.23c14.567,4.122 24.563,17.224 24.563,32.347c-0.008,28.74 -0.008,57.48 -0.008,86.229zm-367.531,-216.2c-0.33,3.533 -0.427,7.098 -1.038,10.575c-0.91,5.159 -3.59,9.465 -7.84,12.515c-3.814,2.737 -7.838,5.2 -11.887,7.574c-12,7.034 -24.064,13.963 -36.08,20.965c-0.885,0.515 -1.521,0.547 -2.43,0.016c-14.495,-8.442 -29.07,-16.748 -43.485,-25.328c-6.35,-3.782 -11.396,-8.877 -12.885,-16.547a32.48,32.48 0 0 1 -0.564,-5.368c-0.08,-3.766 -0.048,-7.541 -0.016,-11.308c0.024,-2.567 1.755,-3.637 4.057,-2.47c7.484,3.782 14.945,7.605 22.414,11.412c10.31,5.247 20.628,10.487 30.913,15.774c0.958,0.491 1.658,0.298 2.495,-0.136c16.854,-8.765 33.754,-17.457 50.544,-26.334c3.726,-1.972 5.932,-1.256 5.537,3.38c-0.145,1.738 -0.024,3.501 -0.024,5.256l0.29,0.024l-0.001,0z" fill="#38246C"/>
  </svg>