<svg  id="fndm-6w3zfsvs2g" viewBox="-0.0006919216830283403 0 275.1806945800781 97.79000091552734" xmlns="http://www.w3.org/2000/svg">
   <path d="m224.43,0l0.03,47.26l-14.02,-16.13l13.99,-31.13z" fill="#06805c"/>
   <path d="m224.43,0l24.51,54.54l-15.57,2.97l-8.91,-10.25l-0.03,-47.26z" fill="#6ec389"/>
   <path d="m248.94,54.54l3.04,6.81l23.2,-11.82l-26.24,5.01z" fill="#1380b0"/>
   <path d="m248.94,54.54l3.04,6.81l-10.58,5.4l-8.03,-9.24l15.57,-2.97z" fill="#006a63"/>
   <path d="m241.4,66.75l10.58,-5.4l16.39,36.44l-26.97,-31.04z" fill="#6ec389"/>
   <path d="m233.37,57.51l8.03,9.24l-35.74,18.21l12.21,-24.49l15.5,-2.96z" fill="#1380b0"/>
   <path d="m180.48,97.79l14.84,-33.02l22.55,-4.3l-12.21,24.49l-25.18,12.83z" fill="#005178"/>
   <path d="m210.44,31.13l14.01,16.13l-6.58,13.21l-22.55,4.3l15.12,-33.64z" fill="#05a0ab"/>
   <path d="m86.92,35.53a12.31,12.31 0 0 0 -10.56,5.89c-0.15,0.21 -0.36,0.29 -0.51,0c-0.43,-5.39 -5.81,-6 -10.41,-5.17l0,7c2.37,0.22 2.07,2.8 2.08,6.4l0.15,40.8l9.62,-0.07l-0.07,-18.19c0,-0.21 0.06,-0.35 0.29,-0.28a28.55,28.55 0 0 0 6.25,0.87c12.06,0 19.82,-7 19.82,-18s-5.58,-19.25 -16.66,-19.25m-48.85,29.47c-2.15,-0.24 -2.07,-1.82 -2.07,-4.4l-0.07,-21.77a41.15,41.15 0 0 0 -15.23,-3.3c-12.15,-0.15 -20.48,6.25 -20.7,18.39c-0.07,10.08 5.17,18.67 16.31,18.74a12.24,12.24 0 0 0 10.84,-5.89c0.15,-0.28 0.51,-0.21 0.51,0.08c0.64,5.6 6,5.81 10.41,5.1l0,-6.95zm-12.21,-10.87c0,5.46 -2.44,9.41 -7.4,9.41c-5.31,0.07 -8.12,-4 -8,-9.7c0.14,-6.82 3.8,-10 9.48,-10a16.41,16.41 0 0 1 5.89,1l0.03,9.29zm32.68,10.49c-2.15,-0.22 -2,-1.8 -2,-4.38l0,-42.53l-10.71,0l0,43.29c0,8.55 4.45,12.5 12.71,10.92l0,-7.3zm84.12,5.17a21,21 0 0 1 -6,2.23c-6.11,1.26 -13,1.08 -17.81,-1c-6.17,-2.67 -9.91,-8.26 -9.91,-16.88c-0.07,-12.21 8.69,-18.6 18.1,-18.82c8.12,-0.18 16.95,3 16.66,12.29c-0.22,7.32 -6.82,10.7 -13.36,11.06a22.63,22.63 0 0 1 -11.06,-2c-0.21,-0.15 -0.43,0.07 -0.43,0.28c0.5,5.75 5.39,7.83 11.71,7.62a32.7,32.7 0 0 0 11.71,-2.73l0.39,7.95zm-14.44,-18.17c2.95,-0.13 5.46,-1.3 5.46,-3.95c0,-3.31 -3.66,-4.38 -6.47,-4.31c-3.66,0.09 -6.75,1.94 -7.9,6.39c1.51,1 5.61,2 8.91,1.87m33.69,-9.34c-0.07,0.07 -0.22,0.07 -0.22,-0.14l-0.64,-5.89l-10.05,0a101.86,101.86 0 0 1 1.15,15.94l0.07,20l10.06,0l0,-15.69c0,-9.33 4.31,-11.84 12.38,-11.1l3.77,-8.4a19.26,19.26 0 0 0 -5.89,-0.79c-5.46,0 -8.84,2 -10.63,6m-84.19,11.99c0,-5.46 2.44,-9.41 7.4,-9.41c5.32,0 8.12,4 8,9.7c-0.04,6.83 -3.76,10.51 -9.44,10.51a16.44,16.44 0 0 1 -5.89,-1l-0.07,-9.8z" fill="#005178"/>
  </svg>