<svg  id="fndm-hwi0v5ji4q" viewBox="0.4949374198913574 0.5126876831054688 706.714599609375 563.08984375" xmlns="http://www.w3.org/2000/svg">
   <g xmlns="http://www.w3.org/2000/svg" fill="none">
    <path d="m562.967,143.173c-0.316,64.257 -49.342,125.189 -109.714,135.866c-5.516,0.977 -13.852,5.586 -16.547,-1.742c-3.262,-8.872 6.43,-10.377 12.252,-13.182c13.45,-6.47 27.114,-12.505 40.532,-19.037c7.974,-3.877 17.09,-8.407 11.662,-19.439c-5.43,-11.03 -13.836,-4.499 -20.833,-1.245c-29.895,13.9 -60.01,27.39 -89.33,42.423c-14.025,7.187 -24.962,4.862 -38.302,-1.93c-71.412,-36.348 -83.144,-124.023 -63.051,-174.239c42.029,-105.048 177.579,-118.601 239.314,-38.948c22.07,28.477 34.141,57.591 34.016,91.473l0.001,0zm-205.994,71.467c1.23,-0.568 2.86,-1.45 4.586,-2.088c45.402,-16.752 87.88,-40.067 132.297,-59.057c6.02,-2.577 11.251,-9.022 7.43,-16.972c-4.57,-9.495 -11.63,-6.406 -18.966,-3.097c-22.646,10.243 -44.637,24.15 -68.441,28.957c-24.923,5.035 -39.681,25.734 -62.768,31.99c-4.728,1.277 -5.854,7.817 -4.255,13.08c1.34,4.54 4.405,7.392 10.078,7.187l0.04,0l-0.001,0zm1.419,-50.949c18.178,-3.498 35.04,-9.904 51.839,-18.398c26.246,-13.285 54.147,-23.276 81.292,-34.788c7.391,-3.152 13.6,-7.99 10.37,-16.988c-3.499,-9.724 -10.787,-7.746 -18.407,-4.476c-43.739,18.777 -87.58,37.31 -131.366,55.944c-5.886,2.514 -8.865,8.92 -7.966,13.466c1.237,6.485 8.43,5.658 14.198,5.24l0.04,0zm144.194,22.543c-2.364,-10.771 -7.998,-13.174 -18.69,-8.084c-42.013,19.998 -84.113,39.823 -126.584,58.852c-9.171,4.113 -10.503,9.888 -8.068,17.382c3.057,9.455 10.353,6.98 16.822,3.94a47709.981,47709.981 0 0 0 126.324,-59.42c5.303,-2.474 9.755,-5.539 10.188,-12.67l0.008,0zm-37.561,-103.22a637.905,637.905 0 0 0 -1.435,-4.303l-104.103,0c-7.407,0 -14.333,1.702 -14.42,10.732c-0.086,9.03 5.697,13.395 14.475,13.332c18.005,-0.197 36.45,1.615 53.904,-1.686c17.697,-3.294 34.417,-11.804 51.57,-18.052l0.009,-0.024l0,0.001z" fill="#C13C37"/>
    <path d="m275.366,436.486c0,12.867 -0.386,24.576 0.134,36.246c0.37,8.155 -1.04,12.607 -10.827,12.701c-10.77,0.142 -10.101,-6.004 -10.093,-13.253c0.047,-36.12 -0.276,-72.247 -0.126,-108.374c0.055,-12.97 0.551,-25.916 -2.136,-39.555c8.857,0.961 17.611,-4.893 24.427,4.728c3.278,4.633 7.091,-0.536 9.282,-2.128c23.638,-17.492 59.53,1.82 66.187,25.214c5.09,17.942 6.304,35.608 0.749,53.32c-8.447,26.79 -31.006,39.792 -60.002,35.206c-5.453,-0.827 -10.74,-2.458 -17.595,-4.105zm0.134,-55.77l-0.134,0l0,16.814c0,23.244 11.63,31.455 34.307,24.426c15.87,-4.9 22.7,-16.712 24.032,-32.1c1.529,-17.674 2.002,-35.876 -15.522,-46.757c-10.362,-6.43 -22.15,-7.037 -34,-1.576c-11.622,5.334 -8.337,15.294 -8.667,24.23c-0.221,4.995 -0.056,9.982 -0.056,14.962l0.04,0l0,0.001zm-211.052,-106.256c11.859,15.618 14.9,30.407 20.148,44.126a6655.912,6655.912 0 0 1 39.61,106.514c1.49,4.16 8.337,11.48 0.079,13.734c-6.374,1.734 -19.289,5.744 -20.534,-5.169c-3.624,-31.699 -25.45,-27.263 -47.174,-28.366c-17.808,-0.922 -26.53,4.893 -29.257,21.96c-1.686,10.55 -8.478,13.734 -18.91,12.544c-6.351,-0.717 -9.716,-1.78 -6.926,-8.722c20.533,-51.107 41.083,-102.197 62.964,-156.62l0,-0.001zm0.788,45.37c-8.131,23.26 -14.616,41.226 -20.738,59.317c-1.167,3.443 -5.2,9.456 2.159,10.023c11.63,0.961 23.417,0.504 35.11,0c5.39,-0.22 4.602,-3.987 3.278,-7.99c-6.138,-18.556 -12.024,-37.223 -19.777,-61.35l-0.032,0zm369.674,63.328c-9.314,0 -18.69,0.646 -27.95,-0.118c-13.394,-1.111 -14.348,5.563 -11.354,15.853c6.257,21.456 28.863,30.73 53.344,21.117c6.493,-2.553 11.875,-7.312 16.35,2.537c4.838,10.63 -4.129,11.457 -9.707,13.829c-26.097,11.078 -57.52,4.491 -71.498,-14.538c-17.619,-23.985 -16.736,-61.168 1.883,-82.947c7.88,-9.25 16.854,-14.238 29.87,-11.662c12.143,2.364 23.97,-5.555 37.263,-0.244c15.554,6.217 31.407,34.67 25.514,50.358c-2.01,5.318 -5.603,5.83 -10.157,5.807c-11.189,-0.055 -22.37,-0.024 -33.559,0.008l0.001,0zm-8.842,-15.152l0,0.094c6.21,0 12.458,0.418 18.612,-0.134c4.452,-0.41 10.85,2.79 12.78,-3.94c1.434,-4.964 -1.576,-9.683 -4.467,-13.765c-11.032,-15.428 -34.993,-16.689 -49.216,-2.624c-4.908,4.862 -10.566,10.685 -7.674,17.571c2.427,5.784 9.88,2.16 15.073,2.656c4.917,0.504 9.96,0.142 14.892,0.142zm207.152,55.439c6.146,-2.056 11.819,-3.656 13.127,6.217c1.442,10.803 -5.516,10.244 -12.607,11.032c-33.882,3.632 -47.277,-8.227 -47.655,-42.55c-0.142,-13.064 0.551,-26.175 -0.34,-39.184c-0.535,-7.785 5.895,-19.257 -10.195,-21.133c-4.625,-0.543 -4.09,-10.574 0.37,-12.229c13.151,-4.9 9.889,-15.207 9.826,-24.426c0,-7.155 0.85,-11.599 9.928,-11.607c9.077,-0.007 12.938,3.034 11.457,11.82c-2.805,16.744 3.522,23.859 20.746,21.085c6.233,-1 11.118,1.576 11.134,9.022c0,8.668 -6.445,8.352 -11.82,7.328c-18.839,-3.577 -21.51,6.461 -20.352,21.85c1.017,13.616 0,27.38 0.528,41.044c0.693,16.137 9.29,23.701 25.853,21.731z" fill="#2B2A2A"/>
    <path d="m349.748,541.874c10.243,-22.354 13.734,-41.352 18.91,-59.805c1.718,-6.091 2.53,-12.19 11.489,-11.441c8.667,0.725 7.312,7.509 7.99,12.386c3.152,22.772 5.878,45.614 8.58,68.441c0.481,4.027 2.364,9.621 -4.278,10.133c-5.918,0.457 -6.304,-4.727 -6.84,-9.132c-2.363,-18.91 -4.727,-37.821 -11.598,-57.804c-5.57,18.044 -11.189,36.08 -16.697,54.148c-1.37,4.5 0.197,11.622 -6.13,12.087c-7.69,0.56 -7.162,-7.17 -8.47,-12.268c-3.412,-13.238 -6.461,-26.57 -9.873,-39.807c-0.851,-3.318 -0.607,-8.313 -5.595,-8.258c-5.35,0.063 -4.27,5.153 -4.727,8.462c-2.104,14.767 -4.011,29.564 -5.902,44.362c-0.591,4.594 -1.481,9.337 -7.486,8.076c-5.13,-1.071 -3.53,-5.862 -3.096,-9.258c3.065,-24.048 6.39,-48.065 9.455,-72.105c0.686,-5.35 1.576,-9.566 8.573,-9.566c6.572,0 8.352,3.94 9.668,9.125c4.87,19.1 9.834,38.176 16.027,62.224z" fill="#C13C37"/>
    <path d="m141.517,346.243c0,-19.841 0.221,-39.69 -0.11,-59.522c-0.142,-8.013 1.064,-12.37 10.96,-12.434c10.41,-0.063 10.504,5.185 10.464,12.733c-0.189,35.954 -0.04,71.916 -0.118,107.878c0,11.473 -0.213,22.85 13.781,27.113c7.675,2.364 5.76,8.936 5.311,14.026c-0.701,8.053 -7.265,4.909 -11.583,4.491c-17.177,-1.686 -27.397,-12.166 -28.232,-31.069c-0.922,-21.03 -0.213,-42.139 -0.213,-63.216l-0.26,0zm350.653,50.594c0,-20.266 -0.434,-40.548 0.299,-60.79c0.189,-5.343 0.102,-13.569 9.274,-13.514c5.61,0 12.505,-2.56 13.253,7.92c0.591,8.194 5.153,1.575 6.808,0.07c8.29,-7.556 17.815,-11.386 28.95,-10.078c4.293,0.504 12.22,-1.875 11.275,5.437c-0.702,5.46 -1.19,13.718 -11.355,14.128c-28.303,1.142 -35.835,9.526 -36,38.396c-0.095,16.776 -0.466,33.575 0.133,50.327c0.355,9.762 -4.326,11.433 -12.489,10.984c-7.65,-0.426 -10.763,-2.238 -9.321,-11.26c1.639,-10.299 0.378,-21.062 0.378,-31.62l-1.206,0l0.001,0zm-263.151,-15.074c0,15.475 -0.268,30.959 0.102,46.434c0.174,7.422 -1.41,11.449 -10.07,11.559c-9.156,0.126 -11.622,-3.593 -11.488,-12.166c0.386,-24.757 0.071,-49.522 0.102,-74.287c0,-6.832 1.3,-13.987 -9.55,-13.6c-7.706,0.275 -5.933,-6.154 -6.303,-10.835c-0.473,-6.58 4.129,-6.098 8.573,-6.618c27.263,-3.223 28.563,-2.191 28.61,24.221c0.037,11.767 0.045,23.53 0.024,35.292z" fill="#2B2A2A"/>
    <path d="m492.366,517.51c-1.103,29.304 -20.06,46.403 -50.854,45.859c-16.94,-0.3 -33.716,-24.978 -32.715,-48.128c1.197,-27.76 18.973,-46.67 43.384,-46.158c24.655,0.513 41.225,20.487 40.185,48.428l0,-0.001zm-11.819,-1.087c0.323,-21.164 -12.78,-38.38 -29.406,-38.61c-16.957,-0.283 -30.005,15.705 -30.612,37.539c-0.606,21.834 12.442,40.106 28.91,40.295c16.468,0.19 30.793,-17.87 31.132,-39.224l-0.024,0z" fill="#C13C37"/>
    <path d="m693.852,381.976c0,15.562 -0.236,31.132 0.118,46.686c0.181,7.737 -2.167,11.118 -10.535,11.244c-8.549,0.134 -10.393,-3.522 -10.597,-11.102c-0.662,-25.435 1.654,-50.878 -1.222,-76.368c-0.638,-5.713 0,-10.401 -4.633,-14.498c-3.94,-3.42 -7.761,-9.7 -4.334,-12.907c6.745,-6.304 16.327,-1.78 24.679,-2.364c6.043,-0.402 6.571,4.097 6.548,8.857c-0.11,16.846 -0.032,33.653 -0.024,50.452z" fill="#2B2A2A"/>
    <path d="m573.312,561.998c-5.902,-0.788 -5.319,-4.413 -4.018,-8.242c8.58,-25.214 17.224,-50.428 25.757,-75.643c1.576,-4.586 4.169,-7.241 9.306,-7.47c6.351,-0.275 8.423,3.64 10.125,8.747c7.218,21.763 14.885,43.337 21.78,65.226c1.685,5.334 8.666,13.34 1.764,16.405c-9.164,4.082 -10.306,-6.493 -11.677,-12.52c-2.86,-12.608 -9.968,-15.886 -22.543,-16.17c-13.396,-0.299 -19.116,5.264 -22.063,16.91c-1.269,5.145 -1.592,11.394 -8.431,12.757zm31.628,-36.718c4.184,-1.41 13.253,1.229 10.669,-7.446c-2.584,-8.676 -1.347,-24.143 -11.898,-23.789c-9.455,0.316 -9.408,15.657 -11.22,24.632c-1.765,8.707 7.265,5.247 12.45,6.603l-0.001,0zm64.848,38.31c-1.197,-0.197 -5.783,-0.166 -9.59,-1.86c-2.741,-1.213 -8.667,-1.497 -6.83,-6.768c1.489,-4.287 5.893,-4.255 9.203,-1.9c6.855,4.886 14.577,4.31 21.211,1.679c6.099,-2.419 11.402,-7.682 11.748,-15.436c0.347,-7.753 -3.798,-12.954 -10.188,-16.42c-6.516,-3.539 -13.789,-5.887 -19.848,-10.04c-12.528,-8.588 -14.553,-22.85 -5.65,-33.802c7.517,-9.258 31.66,-13.734 39.571,-7.17c1.26,1.04 2.521,3.151 2.364,4.593c-0.268,2.57 -2.128,4.31 -5.17,3.853c-4.278,-0.638 -8.58,-1.875 -12.843,-1.757c-7.722,0.205 -15.191,2.073 -17.271,10.969c-2.05,8.754 2.986,14.01 10.337,17.555c2.798,1.347 5.61,2.655 8.47,3.869c14.31,6.043 24.955,14.75 21.118,32.306c-2.955,13.568 -15.286,20.683 -36.632,20.329zm-164.082,-46.166c0,-11.772 -0.086,-23.536 0.048,-35.308c0.047,-4.578 -2.01,-11.197 5.862,-10.905c7.62,0.283 5.468,7.044 5.515,11.472c0.205,17.335 0.914,34.757 -0.362,52.005c-1.103,14.75 3.83,19.888 18.572,18.635c6.303,-0.536 19.084,-4.271 18.824,3.561c-0.378,11.22 -12.915,4.602 -19.699,4.807c-28.586,0.882 -28.602,0.386 -28.673,-27.578l0,-16.72l-0.087,0.03l0,0.001z" fill="#C13C37"/>
    <path d="m232.068,289.889c-0.425,7.84 -4.05,13.576 -11.819,14.001c-7.493,0.418 -12.907,-3.75 -13.285,-11.976c-0.354,-7.817 3.089,-12.907 11.496,-13.395c8.148,-0.505 12.355,3.797 13.608,11.37zm451.604,-11.583c8.084,0.173 12.97,4.318 13.395,12.363c0.37,7.24 -4.01,12.008 -10.968,12.725c-7.785,0.788 -13.766,-3.238 -14.428,-11.26c-0.654,-7.753 3.72,-12.86 12,-13.828l0.001,0z" fill="#2B2A2A"/>
   </g>
  </svg>