<svg xmlns="http://www.w3.org/2000/svg" fill-rule="evenodd" clip-rule="evenodd" image-rendering="optimizeQuality" shape-rendering="geometricPrecision" text-rendering="geometricPrecision" viewBox="-2 1 6600 3300"><g><rect width="6600" height="3300" x="-2" y="1" fill="none"/><g><path fill="#2957a4" fill-rule="nonzero" d="M5785.05 1487.36c-291.62,0 -291.67,446.38 0,446.38 82.43,0 153.86,-43.16 198.85,-118.14l141.15 97.82c-67.01,105.37 -200.45,182.54 -314.48,182.54 -60.89,0 -123.78,-15.05 -174.68,-31.25 -50.95,-16.2 -95.18,-40.12 -132.35,-71.65 -37.19,-31.53 -66.23,-71 -86.98,-118.28 -50.89,-116.02 -50.93,-212.4 0,-328.45 20.74,-47.28 49.79,-86.75 86.98,-118.28 37.17,-31.53 81.4,-55.46 132.35,-71.65 50.9,-16.2 113.79,-31.26 174.68,-31.26 114.03,0 247.47,77.17 314.48,182.54l-141.15 97.83c-44.99,-74.98 -116.42,-118.15 -198.85,-118.15z"/><path fill="#2957a4" fill-rule="nonzero" d="M3446.99 1351l0 89.59c41.88,-45.78 99.65,-108.54 215.85,-108.54 102.76,0 197.32,44.31 241.54,119.1 64.03,-63.27 147.17,-119.1 260.47,-119.1 153.08,0 313.54,66.02 313.54,270.36l0 466.37 -187.75 0 0 -400.84c0,-120.63 -48.38,-168.97 -162.52,-168.97 -82.89,0 -166.24,52.9 -166.24,147.36l0 422.45 -187.77 0 0 -400.84c0,-119.75 -45.52,-168.97 -159.86,-168.97 -102.07,0 -120.84,45.1 -165.4,125.71l0 444.1 -187.75 0 0 -717.78 185.89 0z"/><path fill="#2957a4" fill-rule="nonzero" d="M2876.24 1351l0 96.45c43.28,-64.5 112.35,-113.16 186.57,-122.31 43.07,-5.3 96.01,14.59 131.78,42.08l-28.24 153.79c-87.79,-42.96 -237.28,-26.13 -288.23,165.85l0 381.92 -187.77 0 0 -717.78 185.89 0z"/><path fill="#2957a4" fill-rule="nonzero" d="M2378.71 1767.66c-54.66,-2.67 -194.84,-3.91 -225.36,-1.44 -37.17,3.02 -98.26,9.33 -98.26,75.47 0,72.9 57.26,104.97 132.82,104.97 132.86,0 152.72,-89.69 190.8,-179zm-2.26 232.17c-80.85,80.45 -149.98,89.67 -232.23,87.87 -221.61,-4.81 -371.78,-241.22 -195.61,-389.78 125.88,-106.16 323.96,-71.96 430.1,-72.88 0,-67.37 -30.43,-145.24 -174.99,-145.24 -72.21,0 -163.21,32.16 -227.22,68.41l-72.5 -133.85c79.72,-55.99 221.92,-89.22 315.53,-89.22 216.78,0 347.86,105.39 347.86,349.32l0 394.32 -190.94 0 0 -68.95z"/><path fill="#2957a4" fill-rule="nonzero" d="M5070.56 1767.66c-54.66,-2.67 -194.83,-3.91 -225.36,-1.44 -37.17,3.02 -98.26,9.33 -98.26,75.47 0,72.9 57.26,104.97 132.82,104.97 132.86,0 152.73,-89.69 190.8,-179zm-2.26 232.17c-80.84,80.45 -149.98,89.67 -232.22,87.87 -221.62,-4.81 -371.78,-241.22 -195.62,-389.78 125.89,-106.16 323.96,-71.96 430.1,-72.88 0,-67.37 -30.43,-145.24 -174.99,-145.24 -72.21,0 -163.21,32.16 -227.22,68.41l-72.5 -133.85c79.72,-55.99 221.93,-89.22 315.54,-89.22 216.77,0 347.85,105.39 347.85,349.32l0 394.32 -190.94 0 0 -68.95z"/><path fill="#21b354" d="M688.8 1031.19l371.5 0c257.1,0 467.44,210.34 467.44,467.43l0 564.87 -220.97 0 0 -583.13c0,-125.5 -102.69,-228.19 -228.2,-228.19l-389.77 0 0 -220.98z"/><path fill="#2957a4" d="M786.18 1505.45l328.85 0 0 214.72 -323.35 0c-54.86,0 -99.75,44.89 -99.75,99.75l0 143.82c0,54.86 44.89,99.75 99.75,99.75l515.09 0 0 207.32 -520.59 0c-173.38,0 -315.22,-141.85 -315.22,-315.23l0 -134.9c0,-173.38 141.84,-315.23 315.22,-315.23z"/></g></g></svg>