<svg  id="fndm-73rsq8d00q" viewBox="115 92 370 68" xmlns="http://www.w3.org/2000/svg">
   <g xmlns="http://www.w3.org/2000/svg" fill-rule="evenodd" fill="none">
    <path d="m139,95l8,0" stroke-width="0.216" stroke="#000"/>
    <path d="m115,160l23.802,-65l8.823,0l25.375,65l-9.302,0l-7.25,-19.724l-25.922,0l-6.771,19.724l-8.755,0zm17.92,-26.705l21.066,0l-6.498,-18.03l-4.172,-10.708l-3.557,9.624l-6.84,19.114l0.001,0zm50.08,26.637l0,-64.932l29.581,0c7.256,0 15.07,0.61 19.256,7.922c1.675,2.979 3.07,6.229 3.07,9.818c0,10.088 -6.558,17.807 -15.907,19.229c0.767,0.406 6.14,8.463 7.326,10.36l10.674,17.671l-10.186,0c-5.86,-9.344 -11.512,-18.62 -18.28,-27.286c-1.394,-0.068 -6.836,-0.204 -8.022,-0.204l-9.419,0l0,27.49l-8.093,0l0,-0.068zm8.093,-34.937l19.884,0c3.697,0 6.628,-0.406 8.72,-1.219c2.094,-0.812 3.698,-2.099 4.745,-3.927c1.116,-1.76 1.605,-5.078 1.605,-7.177c0,-3.047 -1.047,-5.62 -3.14,-7.583c-2.093,-1.964 -5.442,-2.98 -9.977,-2.98l-21.837,0l0,22.886zm54.907,35.005l0,-65l44.569,0l0,7.659l-36.732,0l0,19.927l32.984,0l0,7.591l-32.984,0l0,22.164l38.163,0l0,7.659l-46,0zm55.069,-0.484l0,-8.15l34.2,-42.41c2.403,-3.04 4.738,-5.664 6.936,-7.875l-37.222,0l0,-7.805l47.798,0l0,7.805l-37.497,45.933l-4.051,4.628l42.647,0l0,7.805l-52.811,0l0,0.07l0,-0.001zm61.051,0l0,-8.15l34.2,-42.41c2.404,-3.04 4.739,-5.664 6.937,-7.875l-37.222,0l0,-7.805l47.798,0l0,7.805l-37.497,45.933l-4.052,4.628l42.647,0l0,7.805l-52.81,0l0,0.07l-0.001,-0.001zm54.88,-32.59c0,-10.91 3.189,-19.487 9.496,-25.663c6.308,-6.175 14.488,-9.263 24.539,-9.263c6.585,0 12.477,1.441 17.745,4.323c5.268,2.882 9.288,6.93 12.061,12.145c2.773,5.215 4.159,11.116 4.159,17.635c0,6.656 -1.456,12.626 -4.367,17.91c-2.911,5.283 -7.001,9.262 -12.338,11.939c-5.338,2.676 -11.091,4.048 -17.26,4.048c-6.655,0 -12.685,-1.51 -17.953,-4.46c-5.269,-3.02 -9.22,-7.068 -11.992,-12.283c-2.704,-5.077 -4.09,-10.567 -4.09,-16.33l0,-0.001zm9.704,0.138c0,7.96 2.288,14.203 6.932,18.732c4.575,4.598 10.398,6.862 17.33,6.862c7.07,0 12.892,-2.333 17.467,-6.93c4.575,-4.598 6.863,-11.116 6.863,-19.625c0,-5.352 -0.97,-10.018 -2.912,-13.998c-1.94,-3.98 -4.783,-7.068 -8.595,-9.263c-3.743,-2.196 -7.971,-3.294 -12.685,-3.294c-6.654,0 -12.408,2.127 -17.19,6.381c-4.784,4.117 -7.21,11.254 -7.21,21.135z" fill-rule="nonzero" fill="#000"/>
   </g>
  </svg>