<svg xmlns="http://www.w3.org/2000/svg" fill-rule="evenodd" clip-rule="evenodd" image-rendering="optimizeQuality" shape-rendering="geometricPrecision" text-rendering="geometricPrecision" viewBox="-2 1 6600 3300"><g><rect width="6600" height="3300" x="-2" y="1" fill="#039"/><g><path fill="red" d="M1483.03 1532.57l3629.94 0c130.01,0 236.37,106.37 236.37,236.38l0 607.96c0,130.01 -106.36,236.37 -236.37,236.37l-3629.94 0c-130.01,0 -236.38,-106.36 -236.38,-236.37l0 -607.96c0,-130.01 106.37,-236.38 236.38,-236.38z"/><path fill="red" d="M1262.42 2312.61l4071.17 0 0 64.3c0,60.65 -24.83,115.8 -64.82,155.79 -40,40 -95.15,64.82 -155.8,64.82l-3629.94 0c-60.65,0 -115.81,-24.82 -155.8,-64.82 -39.99,-39.99 -64.81,-95.14 -64.81,-155.79l0 -64.3z"/><path fill="#ff0800" d="M1262.42 2255.55l4071.17 0 0 121.36c0,60.65 -24.83,115.8 -64.82,155.79 -40,40 -95.15,64.82 -155.8,64.82l-3629.94 0c-60.65,0 -115.81,-24.82 -155.8,-64.82 -39.99,-39.99 -64.81,-95.14 -64.81,-155.79l0 -121.36z"/><path fill="#ff0f00" d="M1262.42 2198.49l4071.17 0 0 178.42c0,60.65 -24.83,115.8 -64.82,155.79 -40,40 -95.15,64.82 -155.8,64.82l-3629.94 0c-60.65,0 -115.81,-24.82 -155.8,-64.82 -39.99,-39.99 -64.81,-95.14 -64.81,-155.79l0 -178.42z"/><path fill="#ff1700" d="M1262.42 2141.43l4071.17 0 0 235.48c0,60.65 -24.83,115.8 -64.82,155.79 -40,40 -95.15,64.82 -155.8,64.82l-3629.94 0c-60.65,0 -115.81,-24.82 -155.8,-64.82 -39.99,-39.99 -64.81,-95.14 -64.81,-155.79l0 -235.48z"/><path fill="#ff2100" d="M1262.42 2084.37l4071.17 0 0 292.54c0,60.65 -24.83,115.8 -64.82,155.79 -12.16,12.16 -25.71,22.91 -40.39,31.99l-3860.76 0c-14.69,-9.08 -28.24,-19.83 -40.39,-31.99 -39.99,-39.99 -64.81,-95.14 -64.81,-155.79l0 -292.54z"/><path fill="#ff2900" d="M1262.42 2027.31l4071.17 0 0 349.6c0,48.81 -16.09,94.06 -43.22,130.72l-3984.75 0c-27.12,-36.66 -43.2,-81.91 -43.2,-130.72l0 -349.6z"/><path fill="#ff3000" d="M1262.42 1970.26l4071.17 0 0 406.65c0,25.79 -4.49,50.59 -12.74,73.66l-4045.71 0c-8.23,-23.07 -12.72,-47.87 -12.72,-73.66l0 -406.65z"/><path fill="#ff3800" d="M1262.42 1913.19l4071.17 0 0 463.72c0,5.58 -0.21,11.12 -0.63,16.6l-4069.93 0c-0.4,-5.48 -0.61,-11.02 -0.61,-16.6l0 -463.72z"/><polygon fill="#ff4000" points="1262.42,1856.14 5333.59,1856.14 5333.59,2336.45 1262.42,2336.45"/><polygon fill="#ff4700" points="1262.42,1799.08 5333.59,1799.08 5333.59,2279.39 1262.42,2279.39"/><path fill="#ff4f00" d="M1264.06 1742.01l4067.87 0c1.09,8.84 1.66,17.83 1.66,26.94l0 453.38 -4071.17 0 0 -453.38c0,-9.11 0.56,-18.1 1.64,-26.94z"/><path fill="#ff5900" d="M1279.13 1684.96l4037.74 0c10.76,25.92 16.72,54.3 16.72,83.99l0 396.32 -4071.17 0 0 -396.32c0,-29.69 5.94,-58.07 16.71,-83.99z"/><path fill="#ff6100" d="M1313.75 1627.89l3968.49 0c32.02,38.32 51.35,87.55 51.35,141.06l0 339.26 -4071.17 0 0 -339.26c0,-53.51 19.32,-102.74 51.33,-141.06z"/><path fill="#ff6900" d="M1386.28 1570.84l3823.44 0c21.97,10.81 41.9,25.16 59.05,42.32 39.99,39.98 64.82,95.14 64.82,155.79l0 282.2 -4071.17 0 0 -282.2c0,-60.65 24.82,-115.81 64.81,-155.79 17.15,-17.16 37.09,-31.51 59.05,-42.32z"/><path fill="#ff7000" d="M5333.59 1994.09l-4071.17 0 0 -225.14c0,-60.65 24.82,-115.81 64.81,-155.79 39.99,-40 95.15,-64.82 155.8,-64.82l3629.94 0c60.65,0 115.8,24.82 155.8,64.82 39.99,39.98 64.82,95.14 64.82,155.79l0 225.14z"/><path fill="#ff7800" d="M5333.59 1937.03l-4071.17 0 0 -168.08c0,-60.65 24.82,-115.81 64.81,-155.79 39.99,-40 95.15,-64.82 155.8,-64.82l3629.94 0c60.65,0 115.8,24.82 155.8,64.82 39.99,39.98 64.82,95.14 64.82,155.79l0 168.08z"/><path fill="#ff8000" d="M5333.59 1879.98l-4071.17 0 0 -111.03c0,-60.65 24.82,-115.81 64.81,-155.79 39.99,-40 95.15,-64.82 155.8,-64.82l3629.94 0c60.65,0 115.8,24.82 155.8,64.82 39.99,39.98 64.82,95.14 64.82,155.79l0 111.03z"/><path fill="#ff8700" d="M5333.59 1822.92l-4071.17 0 0 -53.97c0,-60.65 24.82,-115.81 64.81,-155.79 39.99,-40 95.15,-64.82 155.8,-64.82l3629.94 0c60.65,0 115.8,24.82 155.8,64.82 39.99,39.98 64.82,95.14 64.82,155.79l0 53.97z"/><path fill="#ff8f00" d="M5333.56 1765.86l-4071.13 0c0.84,-59.44 25.48,-113.39 64.8,-152.7 39.99,-40 95.15,-64.82 155.8,-64.82l3629.94 0c60.65,0 115.8,24.82 155.8,64.82 39.31,39.31 63.97,93.26 64.79,152.7z"/><path fill="#f90" d="M5325.19 1708.8l-4054.38 0c10.44,-36.6 30.16,-69.39 56.42,-95.64 39.99,-40 95.15,-64.82 155.8,-64.82l3629.94 0c60.65,0 115.8,24.82 155.8,64.82 26.26,26.25 45.97,59.04 56.42,95.64z"/><path fill="#ffa100" d="M5299.62 1651.74l-4003.25 0c8.84,-13.99 19.21,-26.93 30.86,-38.58 39.99,-40 95.15,-64.82 155.8,-64.82l3629.94 0c60.65,0 115.8,24.82 155.8,64.82 11.65,11.65 22.01,24.59 30.85,38.58z"/><path fill="#ffa800" d="M5247.82 1594.68l-3899.65 0c37.37,-29.02 84.19,-46.34 134.86,-46.34l3629.94 0c50.66,0 97.49,17.32 134.85,46.34z"/><path fill="#630" d="M4687.74 1686.94l-44.62 66.17c-8.35,11.81 -21.75,33.01 5.44,36.8l117.92 0.09c27.46,0.02 23.08,-3.42 56.87,-31.58l45.97 -38.3 65.3 -55.44 -202.7 0.02c-31.13,0 -31.54,10.07 -44.18,22.24zm-2173.85 242.94c-4.93,57.86 8.7,116.12 49.58,158.83 69.11,72.18 258.76,100.54 276.55,161.49 4.95,16.95 1.5,37.87 -8.16,49.77 -21.3,26.24 -67.01,26.58 -100.71,24.97 -99.81,-4.76 -151.59,-36.48 -195.71,-57.68l-55.94 153.85c161.87,79.75 487.84,122.06 554.57,-92.78 57.33,-184.58 -71.03,-241.19 -182.36,-284.63 -34.33,-13.39 -159.2,-53.26 -146.81,-115.52 6.89,-34.62 54.06,-66.31 181.44,-39.89 28.51,5.91 91.62,26.25 120.34,36.9l-16.95 -137.93c-2.49,-20.38 -8.68,-29.45 -26.54,-38.41 -29.25,-14.69 -76.24,-21.21 -104.09,-23.91 -151.45,-14.68 -329.87,24.84 -345.21,204.94zm-551.65 263.92l77.94 -247.75 69.02 249.02 -146.94 0.34 -0.02 -1.61zm-57.87 -326.6l-210.03 549.77c-9.3,24.37 -8.41,51.01 24.94,51.15l148.16 0.58 43.52 -126.55 232.05 -0.42c8.06,0.26 7.17,-0.05 9.02,7.67 6.63,20.76 12.64,45.07 18.53,66.2 6.95,24.91 13.75,51.85 44.89,52.03l180.65 1.05c-1.81,-10.77 -181.39,-514.95 -189.85,-538.22 -10.67,-29.35 -43.62,-128.06 -59.71,-166.42 -8.7,-20.76 -19.57,-26.04 -41.97,-26.1l-199.98 -0.52c14.86,47.98 20.04,80.24 -0.22,129.78zm2733 241.54c-1.63,63.42 -0.02,129.08 -0.02,192.76 0,32.31 0,64.62 0,96.93 0,26.09 -2.83,70.16 34.63,70.15l153.64 -0.04 1.62 -611.29 -213.74 0.01c1.86,7.98 12.3,25.8 17.95,50.17 8.9,38.44 7.25,161.26 5.92,201.31zm-552.41 85.17l77.93 -247.74 69.03 249.02 -146.95 0.33 -0.01 -1.61zm-57.88 -326.59l-210.03 549.77c-9.31,24.36 -8.4,51 24.94,51.13l148.17 0.61 43.51 -126.56 232.05 -0.43c8.07,0.27 7.18,-0.05 9.02,7.68 6.64,20.75 12.64,45.06 18.53,66.2 6.95,24.9 13.75,51.85 44.91,52.03l180.64 1.03c-1.81,-10.75 -181.39,-514.93 -189.86,-538.21 -10.67,-29.34 -43.62,-128.06 -59.7,-166.42 -8.71,-20.76 -19.57,-26.04 -41.97,-26.09l-199.98 -0.53c14.85,47.98 20.04,80.25 -0.23,129.79zm-839.41 61.56c-4.92,57.86 8.7,116.11 49.58,158.82 69.11,72.18 258.77,100.54 276.55,161.49 4.95,16.96 1.51,37.87 -8.15,49.77 -21.3,26.24 -67.01,26.58 -100.72,24.98 -99.81,-4.76 -151.58,-36.48 -195.71,-57.68l-55.95 153.85c161.88,79.74 487.86,122.05 554.59,-92.78 57.33,-184.59 -71.04,-241.19 -182.38,-284.63 -34.32,-13.4 -159.18,-53.26 -146.79,-115.52 6.88,-34.63 54.05,-66.31 181.43,-39.89 28.51,5.91 91.62,26.24 120.33,36.9l-16.93 -137.94c-2.51,-20.37 -8.69,-29.44 -26.55,-38.41 -29.24,-14.67 -76.24,-21.21 -104.09,-23.91 -151.45,-14.67 -329.87,24.84 -345.21,204.95z"/><path fill="#fff" d="M4672.17 1671.38l-44.61 66.17c-8.35,11.8 -21.76,33 5.44,36.8l117.91 0.09c27.47,0.01 23.09,-3.43 56.88,-31.59l45.97 -38.3 65.3 -55.44 -202.71 0.03c-31.13,0 -31.54,10.06 -44.18,22.24zm-2173.84 242.93c-4.94,57.86 8.69,116.13 49.58,158.83 69.11,72.19 258.76,100.55 276.54,161.49 4.95,16.96 1.51,37.87 -8.15,49.77 -21.31,26.24 -67.01,26.58 -100.72,24.97 -99.82,-4.74 -151.58,-36.47 -195.71,-57.68l-55.94 153.85c161.87,79.75 487.84,122.07 554.57,-92.77 57.34,-184.59 -71.03,-241.19 -182.36,-284.64 -34.32,-13.38 -159.19,-53.26 -146.8,-115.52 6.89,-34.61 54.06,-66.31 181.43,-39.89 28.51,5.92 91.62,26.25 120.34,36.9l-16.94 -137.93c-2.5,-20.38 -8.69,-29.45 -26.55,-38.41 -29.24,-14.68 -76.24,-21.21 -104.09,-23.91 -151.45,-14.68 -329.86,24.84 -345.2,204.94zm-551.66 263.92l77.94 -247.74 69.03 249.02 -146.95 0.33 -0.02 -1.61zm-57.87 -326.6l-210.03 549.78c-9.3,24.36 -8.4,51 24.94,51.13l148.16 0.6 43.52 -126.56 232.05 -0.42c8.07,0.27 7.17,-0.05 9.02,7.68 6.64,20.75 12.64,45.06 18.53,66.19 6.95,24.92 13.75,51.86 44.9,52.04l180.65 1.04c-1.82,-10.76 -181.39,-514.95 -189.86,-538.22 -10.67,-29.35 -43.62,-128.06 -59.7,-166.41 -8.71,-20.76 -19.58,-26.05 -41.97,-26.11l-199.98 -0.52c14.85,47.99 20.04,80.25 -0.23,129.78zm2733.01 241.54c-1.64,63.42 -0.03,129.09 -0.03,192.77 0,32.31 0,64.61 0,96.92 0,26.09 -2.82,70.17 34.63,70.15l153.65 -0.04 1.61 -611.28 -213.73 0c1.86,7.98 12.3,25.81 17.95,50.17 8.9,38.44 7.26,161.26 5.92,201.31zm-552.42 85.18l77.94 -247.74 69.02 249.01 -146.94 0.34 -0.02 -1.61zm-57.87 -326.6l-210.03 549.78c-9.31,24.36 -8.4,50.99 24.93,51.13l148.17 0.6 43.52 -126.56 232.04 -0.42c8.08,0.27 7.18,-0.05 9.03,7.68 6.64,20.74 12.63,45.05 18.53,66.19 6.94,24.91 13.75,51.86 44.9,52.03l180.64 1.05c-1.81,-10.77 -181.39,-514.95 -189.85,-538.23 -10.67,-29.34 -43.63,-128.06 -59.71,-166.41 -8.71,-20.76 -19.57,-26.04 -41.97,-26.1l-199.98 -0.53c14.85,47.99 20.05,80.26 -0.22,129.79zm-839.42 61.56c-4.92,57.86 8.7,116.12 49.58,158.82 69.11,72.19 258.77,100.55 276.56,161.49 4.94,16.96 1.5,37.88 -8.16,49.78 -21.3,26.23 -67.01,26.58 -100.72,24.97 -99.81,-4.76 -151.58,-36.48 -195.71,-57.68l-55.94 153.85c161.88,79.75 487.85,122.05 554.58,-92.78 57.33,-184.59 -71.04,-241.18 -182.37,-284.63 -34.33,-13.39 -159.19,-53.26 -146.8,-115.52 6.89,-34.62 54.06,-66.31 181.43,-39.89 28.52,5.92 91.62,26.25 120.34,36.9l-16.94 -137.94c-2.5,-20.37 -8.68,-29.44 -26.54,-38.4 -29.25,-14.68 -76.25,-21.22 -104.09,-23.92 -151.45,-14.67 -329.88,24.84 -345.22,204.95z"/><path fill="#fff" d="M4394.94 2798.79c6.42,8.19 14.83,40.59 19.08,52.93 4.27,12.36 15.75,41.38 16.96,51.86l-75.16 -0.47 39.12 -104.32zm-2198.88 1.58l2.61 -3.08 1.49 3.19 34.41 102.73 -75.48 0.32 36.97 -103.16zm-75.98 206.47l22.44 -61.01 104.11 -0.13c5.43,1.46 21.99,55.45 24.29,60.7l62.58 0.66c-4.15,-14.96 -66.88,-170.44 -77.71,-197.21l-19.45 -49.06c-4.65,-11.91 -2.81,-12.2 -8.88,-15.26 -5.2,-2.29 -62.33,-1.59 -71.74,-0.65 10.94,17.5 -10.51,59.31 -17.52,76.06l-67.19 165.17c-9.54,22.33 -13.37,23.05 49.07,20.73zm199.98 -219.33l1.54 1.57 81.36 0.72c5.19,19.67 -2.43,186.4 1.58,213.93 2.06,2.97 -1.16,1.24 3.56,2.88l53.28 0.25 0.69 -216.59c14.89,-0.61 30.39,-0.19 45.36,-0.21 21.37,-0.02 23.76,1.54 41.14,5.11l-8.02 -45.1c-2.84,0 -1.83,0.53 -1.42,-2.9l-1.76 -1.37 -217.42 -0.38 0.11 42.09zm343.25 10.03c3.49,5.25 35.94,99.76 36.03,106.02l-74.99 -0.32 38.96 -105.7zm-41.71 -52.97c9.38,21.86 -10.6,58.3 -18.5,78.17 -9.89,24.84 -19.7,48.44 -30.04,73.61 -10.16,24.76 -19.83,48.5 -29.93,73.67 -2.99,7.49 -17.2,32.13 -8.7,36.1 4.45,2.08 43.17,0.92 50.7,0.77l22.63 -61.17 107.18 0.15c5.3,19.18 14.63,43.02 21.52,60.12 14.79,2.81 46.11,1.05 62.66,1.05 -3.34,-13.5 -82.55,-209.27 -97.87,-248.04 -2.68,-6.78 -2.58,-10.4 -8.63,-14.41l-71.02 -0.02zm316.22 268.33l33.84 0c12.95,-5.82 44.04,-3.08 74.99,-17.53l-15.93 -42.49c-33.55,9.33 -71.61,21.79 -108.34,6.23 -64.94,-27.5 -64.78,-141.26 -1.57,-166.44 25.14,-10.02 58.31,-7.35 84.65,1.59 7.94,2.69 16.36,7.35 23.74,9.7 -0.61,-12.43 -2.53,-25.81 -3.82,-38.29 -1.65,-15.99 -6.96,-16.56 -22.82,-20.51 -22.07,-5.51 -52.96,-7.67 -76.95,-4.54 -134.54,17.55 -147.72,198.42 -53.49,252 14.42,8.2 30.3,13.61 46.92,16.59l18.78 3.69zm266.46 -212.32c0.68,-1.63 4.36,-9.15 3.75,-1.41l34.36 104.39 -74.29 0c0.28,-7.82 14.06,-40.97 17.93,-51.3 4.49,-11.94 16.55,-40.94 18.25,-51.68zm43.73 -31.64c-11.68,-30.29 1.44,-24.42 -83.33,-24.42 6.42,27.57 -4.74,44.41 -14.87,68.29 -9.12,21.5 -16.93,42.25 -26.02,64.18 -6.52,15.77 -51.75,119.79 -48.57,128.29 9.72,4.14 38.35,1.82 51.83,1.75 4.41,-6.97 21.08,-51.56 23.62,-61.33l104.08 0c4.95,1.15 4.82,5.64 7.75,14.38 1.55,4.66 3.9,10.87 5.67,16.05 3.68,10.78 7.46,20.93 11.19,30.78l62.53 -0.09c-3.36,-13.02 -84.26,-212.93 -93.88,-237.88zm198 191.81l-0.03 -170.53c30.91,-1.49 70.55,-3.22 91.49,11.91 20.08,14.52 34,35.79 34.38,72.04 0.54,49.78 -27.34,85.29 -72.95,87.27 -11.36,0.49 -43.09,1.26 -52.89,-0.69zm-65.18 -216.14c10.84,27.58 5.82,86.36 5.82,121.22 0,42.94 0.07,85.89 -0.14,128.82 -0.09,17.92 7.08,12.39 52.14,12.39 40.8,0 81.43,4.08 119.37,-11.82 68.24,-28.59 93.58,-107.4 66.85,-171.83 -18.78,-45.25 -60.56,-74.57 -114.55,-78.4 -38.47,-2.72 -90.2,-1.23 -129.49,-0.38zm307.22 -0.06c15.4,40.82 -1.9,237.32 7.12,260.81 9,3.9 45.31,2.37 57.76,1.27 0.04,-45.26 0.01,-90.52 0.01,-135.78 0,-32.49 -4.85,-102.15 5.9,-126.3l-70.79 0zm207.24 268.35l39.84 0c12.83,-5.05 79.44,-4.36 91.04,-62.62 10.21,-51.3 -25.83,-75.43 -61.69,-88.72 -26.31,-9.75 -106.03,-23.92 -77.79,-64.17 9.84,-14.03 39.01,-15.91 60.58,-13.84 23.58,2.27 39.47,8.26 59.25,14.88 0.05,-7.82 -3,-34.88 -4.82,-42.56 -2.7,-11.48 -20.67,-12.97 -33.76,-14.84 -143.91,-20.63 -168.68,77.08 -126.76,121.87 33.35,35.64 116.67,31.88 123.01,68.9 5.65,33.06 -31.55,36.41 -59.16,35.62 -42.89,-1.25 -58.41,-16.21 -74.96,-19.53 -4.25,11.61 -15.69,32.49 -17.42,43.47 12.28,3.42 24.4,9.72 38.67,13.46 10.81,2.84 36.3,4.5 43.97,8.08zm242.61 -7.18l54.86 0.31c-1.72,-19.85 -2.14,-206.19 0.7,-216.26 10.87,-1.27 60.58,-2.52 67.24,1.15 6.98,0.25 13.17,2.35 18.75,4.32 -0.12,-13.61 -4.84,-41.86 -10.93,-50.3l-217.35 -0.43c-1.55,8.36 -4.91,42.08 3.68,44.83l79.39 0.95 0 190.86c-0.01,16 -2.54,21.2 3.66,24.57zm214.63 -260.82c12.54,10.77 -9.05,54.96 -13.58,66.66 -8.08,20.84 -17.32,42.94 -26.05,64.18 -6.56,15.97 -51.84,120.73 -49.22,129.65 9.65,3.45 41.41,1.78 52.87,1.36l22.67 -61.05 104.2 -0.01c4.83,2.64 2.62,0.42 5.12,6.94l19.27 54.29 62.6 -0.15 -51.52 -131.25c-17.09,-41.94 -33.48,-90.33 -51.95,-130.86l-74.41 0.24z"/><path fill="red" d="M3297.99 289.1c706.05,0 1282.48,516.78 1316.99,1166.32l-2633.97 0c34.52,-649.54 610.94,-1166.32 1316.98,-1166.32z"/><path fill="#ffe800" d="M4549.56 1447.54l-27.41 -367.42c47.44,115.11 76.71,238.59 84.49,367.42l-57.08 0z"/><path fill="#ffdb00" d="M4481.38 1447.54l-39.23 -526.19c94.65,157.19 153,335.86 164.49,526.19l-125.26 0z"/><path fill="#ffcf00" d="M4413.22 1447.54l-47.62 -638.45c139.53,182 226.72,401.16 241.04,638.45l-193.42 0z"/><path fill="#ffc200" d="M4345.04 1447.54l-54.22 -727.07c182.92,197.37 299.08,449.86 315.82,727.07l-261.6 0z"/><path fill="#ffb500" d="M4276.88 1447.54l-59.68 -800.25c225.1,206.16 370.56,487.48 389.44,800.25l-329.76 0z"/><path fill="#ffab00" d="M4208.7 1447.54l-64.29 -862.11c19.46,15.33 38.45,31.18 56.9,47.54 234.15,207.35 386,494.49 405.33,814.57l-397.94 0z"/><path fill="#ff9e00" d="M4140.54 1447.54l-68.24 -915.04c45.3,30.93 88.4,64.49 129.01,100.47 234.15,207.35 386,494.49 405.33,814.57l-466.1 0z"/><path fill="#ff9100" d="M4072.36 1447.54l-71.63 -960.57c71.93,42.6 139.1,91.55 200.58,146 234.15,207.35 386,494.49 405.33,814.57l-534.28 0z"/><path fill="#ff8700" d="M4004.19 1447.54l-74.55 -999.81c99.07,50.81 190.34,113.21 271.67,185.24 234.15,207.35 386,494.49 405.33,814.57l-602.45 0z"/><path fill="#ff7800" d="M4529.98 1099.61l25.95 347.93 -619.9 0 -77.08 -1033.49c126.59,55.87 242.04,130.07 342.36,218.92 145.21,128.59 258.74,287.87 328.67,466.64z"/><path fill="#ff6e00" d="M4449.43 933.61l38.33 513.93 -619.91 0 -79.21 -1062.2c154.32,58.02 294.06,142.58 412.67,247.63 98.53,87.25 182.48,188.63 248.12,300.64z"/><path fill="#ff6100" d="M4372.66 818.39l46.93 629.15 -619.9 0 -81.02 -1086.36c182.15,57.41 346.35,151.07 482.64,271.79 63.52,56.24 120.96,118.37 171.35,185.42z"/><path fill="#ff5400" d="M4297.75 728.01l53.67 719.53 -619.91 0 -82.5 -1106.31c210.02,54.2 398.84,155.83 552.3,291.74 33.94,30.04 66.12,61.78 96.44,95.04z"/><path fill="#ff4a00" d="M4224.04 653.59l59.21 793.95 -619.9 0 -83.7 -1122.31c237.83,48.47 451.48,157.03 621.66,307.74 7.67,6.78 15.24,13.66 22.73,20.62z"/><path fill="#ff3d00" d="M4151.19 590.83l63.89 856.71 -619.91 0 -84.61 -1134.58c242.31,36.78 462.27,135.38 640.63,277.87z"/><path fill="#ff3000" d="M4079.01 537.14l67.9 910.4 -619.91 0 -85.25 -1143.29c237.19,24.08 455.35,107.05 637.26,232.89z"/><path fill="#ff2400" d="M4007.4 490.94l71.34 956.6 -619.9 0 -85.66 -1148.56c232.88,12.26 449.49,81.08 634.22,191.96z"/><path fill="#ff1700" d="M3936.26 451.16l74.3 996.38 -619.9 0 -85.79 -1150.52c229.15,1.09 444.39,56.91 631.39,154.14z"/><path fill="#ff0d00" d="M3865.54 416.97l76.86 1030.57 -619.9 0 -85.71 -1149.23c20.29,-0.88 40.69,-1.33 61.2,-1.33 203.33,0 395.83,43.1 567.55,119.99z"/><path fill="#fff200" d="M2007.37 1303.12l10.77 144.42 -28.79 0c2.96,-48.97 9.04,-97.16 18.02,-144.42z"/><path fill="#ffe800" d="M2082.09 1060.63l28.85 386.91 -121.59 0c8.22,-136.13 40.43,-266.31 92.74,-386.91z"/><path fill="#ffdb00" d="M2163.35 905.87l40.4 541.67 -214.4 0c11.87,-196.6 73.77,-380.77 174,-541.67z"/><path fill="#ffcf00" d="M2247.33 787.5l49.22 660.04 -307.2 0c14.9,-246.74 108.58,-473.9 257.98,-660.04z"/><path fill="#ffc200" d="M2332.97 691.42l56.38 756.12 -400 0c17.58,-291 144.71,-554.78 343.62,-756.12z"/><path fill="#ffb500" d="M2419.8 611.32l62.36 836.22 -492.81 0c19.33,-320.08 171.19,-607.22 405.33,-814.57 8.27,-7.32 16.65,-14.53 25.12,-21.65z"/><path fill="#ffab00" d="M2507.56 543.71l67.41 903.83 -585.62 0c19.33,-320.08 171.19,-607.22 405.33,-814.57 35.77,-31.67 73.46,-61.47 112.88,-89.26z"/><path fill="#ff9e00" d="M2596.1 486.48l71.67 961.06 -619.9 0 -17.93 -240.36c62.61,-222.57 191.01,-420.36 364.74,-574.21 61.73,-54.67 129.18,-103.78 201.42,-146.49z"/><path fill="#ff9100" d="M2685.3 438.22l75.27 1009.32 -619.9 0 -32.96 -442.02c69.91,-140.74 167.77,-266.99 286.97,-372.55 86.49,-76.6 184.21,-142.28 290.62,-194.75z"/><path fill="#ff8700" d="M2775.1 397.92l78.28 1049.62 -619.9 0 -43.45 -582.62c57.86,-85 126.68,-162.91 204.65,-231.95 110.3,-97.69 238.86,-177.66 380.42,-235.05z"/><path fill="#ff7800" d="M2865.44 364.99l80.75 1082.55 -619.9 0 -51.68 -692.86c37.06,-43.05 77.18,-83.73 120.07,-121.71 133.33,-118.08 293.35,-210.28 470.76,-267.98z"/><path fill="#ff6e00" d="M2956.31 338.87l82.68 1108.67 -619.9 0 -58.42 -783.33c11.13,-10.6 22.47,-21.02 34.01,-31.24 155.73,-137.92 347.87,-240.53 561.63,-294.1z"/><path fill="#ff6100" d="M3047.65 319.23l84.14 1128.31 -619.9 0 -64.07 -859.12c168.48,-133.76 373.78,-228.5 599.83,-269.19z"/><path fill="#ff5400" d="M3139.45 305.83l85.15 1141.71 -619.9 0 -68.86 -923.22c174.21,-116.09 380.26,-193.42 603.61,-218.49z"/><path fill="#ff4a00" d="M3231.71 298.52l85.69 1149.02 -619.89 0 -72.91 -977.46c179.03,-99.98 385.84,-161.3 607.11,-171.56z"/><path fill="#ff3d00" d="M3324.42 297.25l85.79 1150.29 -619.9 0 -76.3 -1023.06c175.84,-81.59 374.15,-127.5 583.98,-127.5 8.84,0 17.64,0.11 26.43,0.27z"/><path fill="#ff3000" d="M3417.58 302.01l85.43 1145.53 -619.9 0 -79.12 -1060.94c152.45,-57.78 319.23,-89.62 494,-89.62 40.32,0 80.21,1.72 119.59,5.03z"/><path fill="#ff2400" d="M3511.21 313.05l84.61 1134.49 -619.91 0 -81.41 -1091.64c127.11,-38.24 262.71,-58.92 403.49,-58.92 72.62,0 143.83,5.51 213.22,16.07z"/><path fill="#ff1700" d="M3605.33 330.72l83.29 1116.82 -619.9 0 -83.21 -1115.66c100.14,-22.79 204.79,-34.9 312.48,-34.9 105.85,0 208.76,11.7 307.34,33.74z"/><path fill="#ff0d00" d="M3699.97 355.44l81.45 1092.1 -619.9 0 -84.52 -1133.27c71.85,-11.36 145.67,-17.29 220.99,-17.29 140.25,0 275.32,20.52 401.98,58.46z"/><path fill="red" d="M3795.19 387.82l79.04 1059.72 -619.91 0 -85.36 -1144.72c42.45,-3.86 85.49,-5.84 129.03,-5.84 176.01,0 343.88,32.29 497.2,90.84z"/><path fill="red" d="M4576.62 1447.14l0 -104.85c13.92,33.39 27.32,68.18 40.02,104.85l-40.02 0z"/><path fill="#ff0d00" d="M4492.57 1447.16l0 -275.67c45.87,79.06 87.6,170.38 124.07,275.65l-124.07 0.02z"/><path fill="#ff1700" d="M4408.52 1447.18l0 -401.11c79.78,102.78 150.45,234.62 208.12,401.07l-208.12 0.04z"/><path fill="#ff2400" d="M4324.48 1447.19l0 -495.85c114.53,111.82 214.95,272.97 292.16,495.8l-292.16 0.05z"/><path fill="#ff3000" d="M4240.42 1447.21l0 -567.34c149.49,110.22 280.64,291.43 376.22,567.27l-376.22 0.07z"/><path fill="#ff3d00" d="M4156.38 1447.22l0 -620.99c184.2,100.44 347.14,294.44 460.26,620.91l-460.26 0.08z"/><path fill="#ff4a00" d="M4072.33 1447.24l0 -659.97c218.37,84.21 414.26,284.52 544.31,659.87l-544.31 0.1z"/><path fill="#ff5400" d="M3988.29 1447.25l0 -686.53c251.7,62.74 481.81,263.5 628.35,686.42l-628.35 0.11z"/><path fill="#ff6100" d="M4580.93 1352.48l0 94.66 -676.7 0.12 0 -702.38c264.05,34.36 512.34,206.05 676.7,607.6z"/><path fill="#ff6e00" d="M4524.76 1230.15l0 217.01 -704.57 0.12 0 -708.79c265.92,6.36 523.33,139.63 704.57,491.66z"/><path fill="#ff7800" d="M4468.6 1131.82l0 315.34 -732.46 0.13 0 -706.71c268.52,-19.42 535.61,79.89 732.46,391.24z"/><path fill="#ff8700" d="M4412.43 1051.11l0 396.07 -760.34 0.13 0 -696.88c271.34,-43.72 548.57,24.27 760.34,300.68z"/><path fill="#ff9100" d="M4356.27 984.19l0 462.99 -788.22 0.15 0 -679.85c274.01,-66.96 561.81,-28.68 788.22,216.71z"/><path fill="#ff9e00" d="M4300.1 928.46l0 518.73 -816.1 0.15 0 -655.97c276.3,-89.48 575.08,-80.04 816.1,137.09z"/><path fill="#ffab00" d="M4243.93 882.44l0 564.77 -843.98 0.15 0 -625.53c277.91,-111.4 588.12,-130.31 843.98,60.61z"/><path fill="#ffb500" d="M4187.77 844.4l0 602.81 -871.86 0.16 0 -588.61c278.51,-132.94 600.69,-180.47 871.86,-14.36z"/><path fill="#ffc200" d="M4131.61 813.35l0 633.88 -899.75 0.16 0 -545.23c277.75,-154.17 612.57,-231.07 899.75,-88.81z"/><path fill="#ffcf00" d="M4075.44 788.5l0 658.74 -927.63 0.16 0 -495.19c275.09,-175.13 623.41,-282.69 927.63,-163.71z"/><path fill="#ffdb00" d="M4019.28 769.2l0 678.04 -955.52 0.17 0 -438.05c269.77,-195.81 632.78,-336.1 955.52,-240.16z"/><path fill="#ffe800" d="M3963.11 754.93l0 692.33 -983.39 0.17 0 -372.82c260.56,-216.1 639.94,-392.49 983.39,-319.68z"/><path fill="#fff200" d="M3906.94 745.25l0 702.01 -1011.27 0.18 0 -305.25c26.06,-20.12 52.7,-41.48 79.9,-64.18 246.6,-205.91 601.46,-376.87 931.37,-332.76z"/><path fill="#ff8200" d="M2391.56 1426.14l0 21.39 -72.71 0.01c21.25,-5.33 45.56,-12.3 72.71,-21.4z"/><path fill="#ff8a00" d="M2472.62 1395.62l0 51.9 -153.77 0.02c40.58,-10.18 92.3,-26.34 153.77,-51.92z"/><path fill="#ff8f00" d="M2553.7 1358.85l0 88.65 -234.85 0.04c57.33,-14.38 136.91,-40.68 234.85,-88.69z"/><path fill="#ff9600" d="M2634.77 1316.25l0 131.24 -315.92 0.05c72.42,-18.17 180.33,-55.34 315.92,-131.29z"/><path fill="#ff9e00" d="M2715.83 1268.1l0 179.37 -396.98 0.07c86.33,-21.66 223.05,-70.3 396.98,-179.44z"/><path fill="#ffa600" d="M2796.9 1214.54l0 232.92 -478.05 0.08c99.32,-24.92 265.37,-85.57 478.05,-233z"/><path fill="#ffab00" d="M2877.97 1155.73l0 291.72 -559.12 0.09c111.62,-28 307.49,-101.12 559.12,-291.81z"/><path fill="#ffb300" d="M2959.03 1091.69l0 355.74 -640.18 0.11c123.34,-30.94 349.55,-116.97 640.18,-355.85z"/><path fill="#ffba00" d="M3040.1 1026.86l0 420.56 -721.25 0.12c125.66,-31.53 358.12,-120.22 656.72,-369.53 20.76,-17.34 42.32,-34.42 64.53,-51.15z"/><path fill="#ffbf00" d="M3121.17 969.53l0 477.87 -788.21 0.14 0 -3.67c128.52,-34.52 354.84,-125.59 642.61,-365.86 45.15,-37.71 94,-74.21 145.6,-108.48z"/><path fill="#ffc700" d="M3202.24 919.03l0 528.36 -816.1 0.14 0 -19.58c133.37,-43.93 337.94,-139.96 589.43,-349.94 68.2,-56.95 144.72,-111.17 226.67,-158.98z"/><path fill="#ffcf00" d="M3283.31 874.84l0 572.53 -843.99 0.15 0 -38.57c131.96,-50.66 316.13,-147.15 536.25,-330.94 90.24,-75.35 195.02,-145.98 307.74,-203.17z"/><path fill="#ffd600" d="M3364.37 836.73l0 610.63 -871.86 0.15 0 -60.34c126.49,-55 291.1,-148.89 483.06,-309.16 111.55,-93.14 245.28,-179.09 388.8,-241.28z"/><path fill="#ffdb00" d="M3445.44 804.59l0 642.75 -899.75 0.16 0 -84.76c118.17,-57.09 263.78,-146.05 429.88,-284.73 132.31,-110.47 295.8,-210.85 469.87,-273.42z"/><path fill="#ffe300" d="M3526.51 778.49l0 668.84 -927.63 0.16 0 -111.69c107.7,-57.04 234.71,-139.25 376.69,-257.79 152.67,-127.48 346.87,-241.54 550.94,-299.52z"/><path fill="#ffeb00" d="M3607.57 758.56l0 688.76 -955.5 0.17 0 -141.07c95.56,-54.92 204.25,-128.84 323.5,-228.41 172.78,-144.27 398.73,-271.41 632,-319.45z"/><path fill="#fff200" d="M3688.65 745.16l0 702.15 -983.4 0.17 0 -172.79c82.08,-50.79 172.66,-115.15 270.32,-196.68 192.75,-160.94 451.65,-300.59 713.08,-332.85z"/><path fill="#fff700" d="M3769.71 738.76l0 708.53 -1011.28 0.18 0 -206.86c67.52,-44.71 140.12,-98.3 217.14,-162.6 212.67,-177.58 505.87,-329.17 794.14,-339.25z"/><path fill="#ff0" d="M3850.78 739.79l0 707.49 -1039.16 0.18 0 -243.21c52.04,-36.68 106.77,-78.5 163.95,-126.24 232.66,-194.26 561.68,-357.42 875.21,-338.22z"/><path fill="#ff0" d="M2201.17 1184.56l0 141.11c-143.39,47.26 -221.82,117.02 -221.82,117.02 0,0 60.59,-150.5 221.82,-258.13z"/><path fill="#fffa00" d="M2236.87 1162.44l0 152.36c-128.32,35.94 -212.09,92.71 -243.54,116.64l0 -17.74c28.48,-53.73 102.78,-170.64 243.54,-251.26z"/><path fill="#fff200" d="M2272.57 1143.57l0 162.07c-112.56,26.23 -195.2,69.97 -243.54,100.97l0 -51.49c44.77,-65.07 122.44,-152.43 243.54,-211.55z"/><path fill="#ffed00" d="M2308.26 1127.53l0 170.61c-105.49,19.83 -187.69,55.94 -243.54,87.12l0 -77.31c52.31,-63.02 131.19,-134.17 243.54,-180.42z"/><path fill="#ffe800" d="M2343.96 1114.12l0 178.1c-101.17,14.62 -183.13,44.83 -243.54,74.37l0 -98.28c56.99,-58.28 136.54,-117.61 243.54,-154.19z"/><path fill="#ffe300" d="M2379.65 1103.07l0 184.74c-98.19,10.06 -180,35.23 -243.53,62.43l0 -115.76c60.27,-52.85 140.2,-102.74 243.53,-131.41z"/><path fill="#ffdb00" d="M2415.35 1094.23l0 190.65c-96.01,5.91 -177.7,26.57 -243.54,51.09l0 -130.53c62.73,-47.36 142.89,-89.27 243.54,-111.21z"/><path fill="#ffd600" d="M2451.05 1087.45l0 195.97c-94.3,2.04 -175.93,18.51 -243.54,40.18l0 -143.19c64.63,-42.01 144.97,-76.95 243.54,-92.96z"/><path fill="#ffd100" d="M2486.74 1082.59l0 200.75c-92.95,-1.62 -174.52,10.97 -243.53,29.71l0 -154.15c66.16,-36.85 146.65,-65.58 243.53,-76.31z"/><path fill="#fc0" d="M2522.44 1079.54l0 205.03c-10.22,-0.53 -20.7,-0.93 -31.5,-1.17 -79.09,-1.74 -150,6.85 -212.03,20.8l0 -163.7c67.41,-31.94 148.02,-55.05 243.53,-60.96z"/><path fill="#ffc400" d="M2558.14 1078.17l0 208.95c-21.1,-1.92 -43.42,-3.19 -67.2,-3.72 -64.31,-1.41 -123.2,4.01 -176.34,13.58l0 -172.01c68.48,-27.3 149.16,-45.3 243.54,-46.8z"/><path fill="#ffbf00" d="M2593.84 1078.21l0 212.88c-31.28,-4.15 -65.26,-6.86 -102.9,-7.69 -50.24,-1.1 -97.17,1.96 -140.64,7.91l0 -179.37c63.63,-20.99 136.8,-33.93 220.55,-33.93 7.78,0 15.43,0.07 22.99,0.2z"/><path fill="#ffba00" d="M2629.53 1079.36l0 217.26c-40.83,-7.25 -86.16,-12.07 -138.59,-13.22 -36.77,-0.81 -71.77,0.64 -104.94,3.79l0 -185.86c54.92,-14.64 116.34,-23.32 184.85,-23.32 20.29,0 39.83,0.47 58.68,1.35z"/><path fill="#ffb500" d="M2665.23 1081.56l0 217.23c-2.07,1.22 -4.16,2.44 -6.22,3.63 -48.34,-10.45 -102.69,-17.58 -168.07,-19.02 -23.83,-0.52 -46.91,-0.08 -69.25,1.12l0 -191.63c45.52,-9.46 95.12,-14.88 149.16,-14.88 33.38,0 64.74,1.27 94.38,3.55z"/><path fill="#ffad00" d="M2700.93 1084.84l0 192.52c-14.23,8.75 -28.21,17.1 -41.92,25.06 -48.34,-10.45 -102.69,-17.58 -168.07,-19.02 -11.36,-0.25 -22.52,-0.26 -33.55,-0.1l0 -196.84c35.47,-5.43 73.23,-8.45 113.46,-8.45 47.11,0 90.16,2.54 130.08,6.83z"/><path fill="#ffa800" d="M2736.62 1089.24l0 165.62c-26.72,17.23 -52.61,33.05 -77.61,47.56 -47.81,-10.34 -101.51,-17.42 -165.93,-18.97l0 -201.55c24.86,-2.52 50.76,-3.89 77.77,-3.89 61.48,0 116.08,4.33 165.77,11.23z"/><path fill="#ffa300" d="M2772.32 1094.76l0 136.58c-39.51,26.61 -77.33,50.19 -113.31,71.08 -38.7,-8.37 -81.25,-14.6 -130.23,-17.5l0 -205.79c13.73,-0.73 27.74,-1.12 42.07,-1.12 76.55,0 142.43,6.71 201.47,16.75z"/><path fill="#ff9e00" d="M2808.01 1101.37l0 105.42c-52.54,36.9 -102.31,68.53 -149,95.63 -28.98,-6.27 -60.14,-11.34 -94.53,-14.71l0 -209.62c2.14,-0.02 4.23,-0.08 6.37,-0.08 92.34,0 169.17,9.76 237.16,23.36z"/><path fill="#ff9600" d="M2843.71 1109.01l0 72.21c-65.82,48.08 -127.56,88.03 -184.7,121.2 -18.62,-4.03 -38.14,-7.56 -58.83,-10.46l0 -213.62c95.41,2.18 173.85,14.83 243.53,30.67z"/><path fill="#ff9100" d="M2879.41 1117.55l0 37.07c-79.28,60.18 -153.04,108.7 -220.4,147.8 -7.55,-1.64 -15.27,-3.18 -23.14,-4.65l0 -218.1c95.49,4.96 173.53,20.37 243.54,37.88z"/><path fill="#ff8c00" d="M2915.11 1126.79l0 0.24c-87.93,69.21 -169.48,124.26 -243.54,168.04l0 -213.01c95.35,7.83 172.94,25.92 243.54,44.73z"/><path fill="#ff8700" d="M2707.27 1273.44l0 -187.9c79.46,8.99 146.43,24.88 208.06,41.31 -74.09,58.35 -143.68,106.63 -208.06,146.59z"/><path fill="#ff0" d="M3056.87 1164.08l-25.33 252.88c-149.48,-30.09 -237.5,-85.33 -372.53,-114.54 77.43,-44.94 163.32,-102.34 256.32,-175.57 49.37,13.15 95.32,26.65 141.54,37.23z"/><path fill="#fff700" d="M3207.92 1183.95l-25.22 251.77c-252.78,-14.01 -348.83,-95.48 -523.69,-133.3 77.43,-44.94 163.32,-102.34 256.32,-175.57 101.31,27 188.23,55.44 292.59,57.1z"/><path fill="#fff000" d="M3362.62 1167.29l-26.82 267.76c-23.83,1.77 -48.94,2.76 -75.62,2.76 -312.54,0 -409.48,-93.92 -601.17,-135.39 77.43,-44.94 163.32,-102.34 256.32,-175.57 146.99,39.17 263.69,81.39 447.29,40.44z"/><path fill="#ffe800" d="M3520.68 1117.12l-29.22 291.79c-64.49,17.45 -138.66,28.9 -231.28,28.9 -270.21,0 -379.27,-70.2 -527.73,-116.01l6.88 -68.68c55.25,-35.73 114.04,-77.48 176,-126.27 185.11,49.33 322.22,103.47 605.35,-9.73z"/><path fill="#ffde00" d="M3680.31 1051.28l-29.93 298.92c-103.34,45.79 -213.06,87.61 -390.2,87.61 -177.01,0 -284.85,-30.13 -379.93,-63.79l23.88 -238.4c3.73,-2.9 7.46,-5.82 11.2,-8.77 195.97,52.22 338.11,109.88 656.73,-31.39 36.98,-16.41 73.05,-31.16 108.25,-44.18z"/><path fill="#ffd600" d="M3838.14 1003.47l-27.96 279.13c-169.37,60.4 -283.26,155.21 -550,155.21 -93.61,0 -167.87,-8.44 -231.14,-21.36l25.34 -252.95c138.05,31.92 277.89,38.28 517.68,-68.04 94.41,-41.87 182.9,-72.98 266.08,-91.99z"/><path fill="#ffcf00" d="M3993.31 982.2l-26.15 261.04c-275.2,40.33 -366.77,194.57 -706.98,194.57 -28.38,0 -54.96,-0.79 -80.02,-2.23l25.21 -251.68c98.1,1.98 211.44,-19.61 366.69,-88.44 155.6,-69 295.14,-108.86 421.25,-113.26z"/><path fill="#ffc700" d="M4144.97 995.81l-23.83 237.99c-5.27,-0.08 -10.57,-0.14 -15.94,-0.14 -365.66,0 -444.08,178.18 -771.97,201.6l26.78 -267.41c61.84,-13.57 131.27,-36.58 212.05,-72.39 220.82,-97.92 409.31,-137.2 572.91,-99.65z"/><path fill="#ffbf00" d="M4292.12 1054.64l-19.4 193.67c-49.33,-9.17 -104.94,-14.65 -167.52,-14.65 -300.01,0 -406.64,119.96 -616.36,175.96l29.18 -291.44c17.45,-6.93 35.43,-14.47 54.04,-22.72 290.24,-128.7 524.63,-156.04 720.06,-40.82z"/><path fill="#ffb500" d="M4433.55 1170.49l-12.28 122.62c-76.83,-33.65 -180.05,-59.45 -316.07,-59.45 -215.76,0 -331.5,62.04 -457.5,117.72l29.96 -299.1c312.42,-116.2 556.28,-96.62 755.89,118.21z"/><path fill="#ffad00" d="M4567.99 1356.27l-2.99 29.77c-67.07,-63.09 -206.68,-152.38 -459.8,-152.38 -126.03,0 -217.91,21.18 -297.66,49.89l27.98 -279.47c306.9,-70.95 541.38,22.68 732.47,352.19z"/><path fill="#ffa600" d="M3964.57 1243.63l26.17 -261.36c257.18,-9.95 458.49,127.07 625.9,464.87 0,0 -120.08,-213.48 -511.44,-213.48 -52.24,0 -98.56,3.67 -140.63,9.97z"/><path fill="#ff9e00" d="M4118.6 1233.78l23.88 -238.51c186.78,41.92 341.17,183.53 474.16,451.87 0,0 -117.36,-208.55 -498.04,-213.36z"/><path fill="#ff9600" d="M4270.22 1247.84l19.5 -194.63c122.99,71.66 230.58,199.52 326.92,393.93 0,0 -85.3,-151.64 -346.42,-199.3z"/><path fill="#ff8f00" d="M4418.83 1292.03l12.42 -124.03c66.39,70.84 127.9,163.12 185.39,279.14 0,0 -51.7,-91.91 -197.81,-155.11z"/><path fill="#ff8700" d="M4562.66 1383.86l3.14 -31.29c17.29,29.6 34.24,61.06 50.84,94.57 0,0 -15.63,-27.78 -53.98,-63.28z"/></g></g></svg>