<svg xmlns="http://www.w3.org/2000/svg" viewBox="5.462375164031982 17.149999618530273 161.0676727294922 40.06999969482422"><path fill="#abbad4" d="m28.04,44.55l-4.31,-6.59c-0.19,-0.3 -0.55,-0.41 -0.69,-0.45c-0.13,-0.02 -0.26,-0.03 -0.39,-0.05c-6.65,1.2 -10.45,7.66 -10.45,7.66c0.16,-0.09 0.33,-0.19 0.52,-0.28c0.06,-0.03 0.12,-0.06 0.17,-0.09c0.04,-0.02 0.08,-0.04 0.11,-0.06c0.08,-0.04 0.17,-0.08 0.25,-0.12c0.05,-0.02 0.09,-0.04 0.14,-0.06c1.88,-0.82 4.05,-1.29 6.35,-1.29c2.94,0 5.65,0.76 7.84,2.05c0,0 0.31,0.16 0.53,-0.05c0.22,-0.2 0.12,-0.38 -0.07,-0.67"/><path fill="#2670ca" d="m20.78,17.15c-0.24,0 -0.47,0.12 -0.61,0.33l-14.59,22.35c-0.15,0.23 -0.16,0.54 -0.01,0.77l3.67,5.98c0.13,0.21 0.36,0.34 0.61,0.35l0.01,0c0.24,0 0.47,-0.12 0.61,-0.33l10.33,-15.81l0,-13.64l-0.02,0z"/><path fill="#013171" d="m20.78,17.15c0.24,0 0.47,0.12 0.61,0.33l14.6,22.36c0.15,0.23 0.16,0.54 0.01,0.77l-3.67,5.98a0.75,0.75 0 0 1 -0.61,0.35l-0.01,0c-0.24,0 -0.47,-0.12 -0.61,-0.33l-10.32,-15.82l0,-13.64zm39.38,23.04l-11.84,0l-2.33,5.48l-4.53,0l10.65,-23.67l4.33,0l10.68,23.67l-4.6,0l-2.36,-5.48zm-1.46,-3.45l-4.46,-10.35l-4.43,10.35l8.89,0zm21.71,7.94c-1.01,0.81 -2.54,1.22 -4.06,1.22c-3.96,0 -6.22,-2.1 -6.22,-6.09l0,-8.69l-2.98,0l0,-3.38l2.98,0l0,-7.17l4.23,0l0,7.17l4.84,0l0,3.38l-4.84,0l0,8.59c0,1.76 0.88,2.7 2.5,2.7c0.88,0 1.72,-0.24 2.37,-0.74l1.18,3.01zm21.27,-9.36l0,10.35l-4.23,0l0,-9.81c0,-3.21 -1.59,-4.77 -4.29,-4.77c-3.01,0 -5.04,1.83 -5.04,5.44l0,9.13l-4.23,0l0,-25.08l4.23,0l0,9.13c1.39,-1.49 3.52,-2.3 6.02,-2.3c4.33,0 7.54,2.46 7.54,7.91m22.45,2.67l-14.17,0c0.51,2.64 2.7,4.33 5.85,4.33c2.03,0 3.62,-0.64 4.9,-1.96l2.27,2.6c-1.62,1.93 -4.16,2.94 -7.27,2.94c-6.05,0 -9.97,-3.89 -9.97,-9.26c0,-5.38 3.96,-9.23 9.33,-9.23c5.27,0 9.13,3.69 9.13,9.33c0,0.34 -0.04,0.84 -0.07,1.25m-14.2,-2.81l10.25,0c-0.34,-2.6 -2.33,-4.4 -5.11,-4.4c-2.74,0.01 -4.74,1.77 -5.14,4.4m36.11,0.14l0,10.35l-4.23,0l0,-9.81c0,-3.21 -1.59,-4.77 -4.29,-4.77c-3.01,0 -5.04,1.83 -5.04,5.44l0,9.13l-4.23,0l0,-18.05l4.02,0l0,2.33c1.39,-1.66 3.58,-2.54 6.22,-2.54c4.34,0.01 7.55,2.47 7.55,7.92m20.49,-0.24l0,10.58l-3.99,0l0,-2.2c-1.01,1.56 -2.98,2.43 -5.68,2.43c-4.13,0 -6.73,-2.27 -6.73,-5.41c0,-3.01 2.03,-5.38 7.51,-5.38l4.67,0l0,-0.27c0,-2.47 -1.49,-3.92 -4.5,-3.92c-2.03,0 -4.13,0.68 -5.48,1.79l-1.66,-3.06c1.93,-1.49 4.73,-2.23 7.64,-2.23c5.21,0 8.22,2.46 8.22,7.67m-4.23,4.94l0,-2.1l-4.36,0c-2.87,0 -3.65,1.08 -3.65,2.4c0,1.52 1.28,2.5 3.45,2.5c2.06,0 3.85,-0.94 4.56,-2.8"/><path fill="#2670ca" d="m128.25,56.66l0.24,-0.5c0.34,0.3 0.91,0.52 1.49,0.52c0.78,0 1.12,-0.3 1.12,-0.7c0,-1.1 -2.74,-0.41 -2.74,-2.09c0,-0.7 0.54,-1.29 1.73,-1.29c0.53,0 1.08,0.14 1.45,0.4l-0.21,0.52c-0.39,-0.25 -0.84,-0.37 -1.24,-0.37c-0.77,0 -1.1,0.32 -1.1,0.72c0,1.1 2.74,0.41 2.74,2.07c0,0.69 -0.56,1.28 -1.75,1.28c-0.69,0 -1.37,-0.23 -1.73,-0.56m11.18,-0.62l-2.4,0l-0.5,1.13l-0.67,0l2.05,-4.52l0.64,0l2.05,4.52l-0.68,0l-0.49,-1.13zm-0.23,-0.51l-0.98,-2.22l-0.97,2.22l1.95,0zm5.82,-0.31l0,-2.57l0.65,0l0,2.54c0,1 0.46,1.45 1.27,1.45s1.28,-0.45 1.28,-1.45l0,-2.54l0.63,0l0,2.57c0,1.31 -0.72,2 -1.91,2c-1.2,0 -1.92,-0.69 -1.92,-2m2.31,-3.78l0.79,0l-1.08,0.84l-0.58,0l0.87,-0.84zm6.71,1.21l1.9,0c1.45,0 2.44,0.92 2.44,2.26s-0.99,2.26 -2.44,2.26l-1.9,0l0,-4.52zm1.86,3.96c1.12,0 1.83,-0.68 1.83,-1.7c0,-1.01 -0.72,-1.7 -1.83,-1.7l-1.22,0l0,3.4l1.22,0zm10.63,0l0,0.56l-3.28,0l0,-4.52l3.19,0l0,0.56l-2.54,0l0,1.39l2.27,0l0,0.55l-2.27,0l0,1.46l2.63,0z"/></svg>