<svg xmlns="http://www.w3.org/2000/svg" viewBox="0.687469482421875 0.222900390625 1004.330078125 172.3772430419922"><g fill="none" fill-rule="evenodd"><g fill-rule="nonzero"><g><path fill="#0A1942" d="M1004.33,172.377239 C988.84,167.837239 972.91,170.067239 957.32,170.637239 C944.9,171.087239 938.17,166.607239 932.3,156.557239 C914.49,126.077239 895.87,96.0472394 876.43,63.9472394 C858.23,93.8472394 840.16,120.797239 825.12,149.277239 C816.14,166.287239 804.94,173.267239 786.1,170.367239 C780.22,169.467239 774.02,169.747239 768.05,170.317239 C749.71,172.077239 747.64,167.207239 757.33,151.777239 C785.65,106.667239 812.45,60.6472394 840.12,15.1572394 C852.27,-4.82276056 900.31,-5.18276056 912.56,14.8672394 C940.7,60.9372394 968.2,107.377239 996.09,153.587239 C998.28,157.217239 1001.56,160.217239 1004.33,163.507239 L1004.33,172.377239 Z" transform="translate(-322.000000, -513.000000) translate(322.687477, 513.222879)"/><path fill="#0A1942" d="M530.84,77.9372394 C530.84,102.007239 530.07,126.097239 531.13,150.117239 C531.77,164.707239 528.65,171.017239 511.7,170.657239 C474.89,169.867239 474.87,170.837239 474.87,134.157239 C474.87,95.7272394 475.44,57.2872394 474.56,18.8772394 C474.25,5.34723944 478.51,2.16723944 492.18,1.00723944 C519.97,-1.35276056 541.25,5.08723944 557.3,29.1272394 C567.93,45.0472394 583.13,57.9772394 595.1,73.1472394 C602.25,82.2072394 606.47,81.8372394 613.58,73.3472394 C631.26,52.2272394 649.63,31.6472394 667.95,11.0372394 C675.05,3.05723944 721.7,-2.87276056 729.74,2.87723944 C735.86,7.25723944 733.03,13.7772394 733.07,19.2672394 C733.32,63.6072394 732.49,107.967239 733.61,152.277239 C734,167.557239 728.63,170.677239 714.34,170.547239 C677.3,170.207239 677.32,170.827239 677.29,134.607239 C677.27,116.137239 677.16,97.6572394 677,79.1872394 C677,78.8172394 675.84,78.4572394 673.06,76.8372394 C653.87,98.5172394 633.76,120.087239 615.12,142.817239 C606.34,153.527239 601.66,152.247239 593.51,142.467239 C574.95,120.217239 555.24,98.8772394 536,77.1772394 C534.29,77.4372394 532.57,77.6872394 530.86,77.9472394 L530.84,77.9372394 Z" transform="translate(-322.000000, -513.000000) translate(322.687477, 513.222879)"/><path fill="#0A1942" d="M0,170.237239 C33.78,114.367239 64.9,62.2972394 96.75,10.6472394 C105.77,-3.97276056 155.42,-2.92276056 164.53,11.9872394 C195.78,63.1472394 226.41,114.667239 258.29,167.727239 C238.29,172.447239 219.72,169.487239 201.4,170.027239 C191.89,170.307239 189.44,161.887239 185.76,155.887239 C167.65,126.307239 149.94,96.4872394 130.26,63.7172394 C112.63,92.7872394 94.98,119.137239 80.35,147.007239 C70.83,165.137239 59.06,173.387239 38.21,170.497239 C27.29,168.987239 15.97,170.227239 0,170.227239 L0,170.237239 Z" transform="translate(-322.000000, -513.000000) translate(322.687477, 513.222879)"/><path fill="#0B1A43" d="M337.43,1.55723944 C371.35,1.55723944 405.31,2.60723944 439.17,1.14723944 C458.09,0.327239439 455.4,11.2472394 455.28,22.2472394 C455.16,32.9772394 458.67,45.0972394 439.37,43.3972394 C421.43,41.8172394 403.14,44.0772394 385.16,42.7572394 C369.79,41.6272394 364.23,45.5772394 364.98,61.6772394 C366.4,91.8572394 364.42,122.187239 365.79,152.367239 C366.49,167.727239 360.73,170.647239 346.62,170.557239 C310.21,170.337239 310.21,170.927239 310.21,136.417239 C310.21,109.867239 309.76,83.2972394 310.42,56.7572394 C310.69,46.0772394 307.05,42.5472394 296.24,42.8772394 C275.16,43.5272394 254.01,42.3772394 232.94,43.2572394 C214.09,44.0472394 220.08,30.9572394 219.82,22.0672394 C219.54,12.7972394 215.05,0.797239439 233.43,1.28723944 C268.08,2.22723944 302.77,1.55723944 337.44,1.55723944 L337.43,1.55723944 Z" transform="translate(-322.000000, -513.000000) translate(322.687477, 513.222879)"/></g></g></g></svg>