<svg  id="fndm-lpw1nzvmar" viewBox="0.4159049987792969 -0.03945159912109375 635.5280151367188 428.50732421875" xmlns="http://www.w3.org/2000/svg">
   <g xmlns="http://www.w3.org/2000/svg" fill="#EFC544">
    <path d="m606.4,322.817c-11.252,16.974 -23.384,33.26 -38.361,47.292c-28.476,26.673 -61.59,44.706 -99.676,53.063c-47.09,10.33 -92.696,5.548 -136.816,-14.346c-28.144,-12.666 -51.358,-31.854 -72.349,-54.05a225.338,225.338 0 0 1 -37.988,-63.392c-2.215,-5.585 -2.555,-7.428 4.85,-8.253c13.683,-1.511 22.712,2.045 26.09,16.166c0.51,2.142 2.28,3.968 3.46,5.94a3.071,3.071 0 0 0 1.616,2.902l0.04,0.09a5.545,5.545 0 0 0 2.781,4.808l0.048,0.09c0.97,4.283 4.244,7.169 6.515,10.668l9.029,11.041c1.236,1.617 2.376,3.363 3.734,4.899c57.017,64.918 150.83,82.84 227.762,43.509c27.579,-14.064 50.832,-33.26 68.162,-59.206c11.105,-15.018 18.824,-31.523 25.056,-49.24c12.124,-34.133 14.274,-68.703 5.383,-103.394c-19.018,-74.28 -66.068,-123.124 -140.348,-141.108c-73.455,-17.782 -136.678,4.365 -187.608,60.386c-13.457,14.84 -23.536,31.991 -31.24,50.452c-1.519,3.621 -3.168,5.375 -7.274,5.076a99.417,99.417 0 0 0 -14.718,-0.056c-5.165,0.372 -6.466,-1.1 -4.421,-6.038c4.93,-11.946 10.062,-23.78 16.755,-34.86c82.145,-136.049 273.05,-140.64 361.176,-11.559c40.81,59.764 47.841,124.821 24.991,193.355c-3.338,10.006 -9.117,18.88 -12.277,28.911c-1.148,-0.153 -1.463,0.607 -1.617,1.512a474.21,474.21 0 0 0 -2.756,5.342l0.001,0z"/>
    <path d="m354.85,271.25c-2.895,-11.688 -0.914,-23.505 -0.81,-35.257c0,-5.658 0.81,-11.316 -0.21,-17.402c-3.669,9.538 -7.492,19.019 -10.935,28.645c-1.69,4.728 -3.363,8.333 -9.619,7.234c-6.03,-1.059 -13.247,2.506 -15.971,-7.274s-7.21,-19.051 -11.68,-28.42c0.922,14.68 1.172,29.252 1.374,43.841c0.097,6.467 -1.107,8.956 -8.349,8.778c-20.296,-0.509 -20.312,-0.137 -20.296,-20.101c0,-28.427 0.178,-56.854 -0.048,-85.273c-0.049,-5.415 1.495,-7.371 6.951,-6.935a122.8,122.8 0 0 0 16.27,0c5.004,-0.259 6.79,2.166 8.536,6.636c6.005,15.438 12.706,30.601 19.786,47.389c5.214,-11.655 9.805,-21.88 14.355,-32.113c2.797,-6.28 5.73,-12.512 8.26,-18.889c1.464,-3.702 4.543,-2.643 7.138,-3.233a79.057,79.057 0 0 0 20.118,-0.073c2.877,0.849 2.166,3.355 2.497,5.383c-0.153,2.821 -0.444,5.658 -0.46,8.463c-0.178,32.794 -0.332,65.591 -0.461,98.39c-0.501,0.098 -1.003,0.219 -1.496,0.365l-20.23,0l-4.72,-0.154zm-178.92,-32.703l-0.242,-21.823a16394.6,16394.6 0 0 0 1.22,-30.803l1.52,-4.72a20.255,20.255 0 0 0 4.631,-7.687c17.055,-19.528 50.921,-19.876 68.946,-7.946c8.438,5.594 14.63,13.086 15.68,22.834c1.932,17.952 2.28,36.178 -0.065,54.09c-1.818,13.966 -12.188,21.83 -24.74,26.503c-19.94,7.46 -52.425,5.035 -64.662,-20.296c-0.938,-1.924 -0.978,-3.79 -1.714,-5.585l-0.574,-4.567zm64.201,-22.72c0,-6.2 -0.13,-12.4 0,-18.59c0.162,-6.022 -2.813,-9.7 -8.083,-11.858a25.056,25.056 0 0 0 -19.624,-0.073c-4.85,2.013 -8.14,5.392 -8.123,11.114c0.048,12.399 0.097,24.806 0.056,37.18c0,5.077 2.724,8.245 6.992,10.193a26.075,26.075 0 0 0 18.13,1.342c7.193,-1.932 11.08,-6.014 10.668,-13.822c-0.242,-5.116 -0.016,-10.29 -0.016,-15.486zm-239.676,52.65c14.306,-33.446 24.563,-68.355 36.825,-102.545c1.915,-5.35 4.356,-6.975 9.885,-6.91c18.258,0.218 18.323,-0.041 24.482,16.973c11.154,30.771 22.187,61.59 33.422,92.329c0.744,2.045 0.493,2.708 -1.382,3.144c-4.812,-0.6 -14.517,-0.88 -29.114,-0.84c-1.616,-4.446 -4.316,-8.819 -4.664,-13.361c-0.493,-6.523 -3.184,-8.544 -9.238,-7.865a73.406,73.406 0 0 1 -9.239,0.057c-14.928,-0.162 -14.928,-0.17 -17.838,15.026c-0.093,0.688 -0.538,3.016 -1.334,6.983l-4.502,-0.04l-3.136,0c-7.224,-0.801 -25.153,-0.574 -24.167,-2.95l0,-0.001zm53.394,-75.662l-1.463,-0.113l-6.96,27.481c-0.694,2.765 1.197,2.95 3.088,2.999c2.838,0.065 5.658,-0.057 8.512,0.089c3.346,0.17 3.855,-1.358 3.128,-4.252c-2.183,-8.729 -4.22,-17.474 -6.305,-26.204zm120.611,-7.032l-11.842,0.275c-5.852,-0.218 -11.776,-1.778 -17.483,0.922c-0.121,1.155 -0.25,2.303 -0.38,3.45l-0.048,1.577c0,22.222 0.021,44.444 0.064,66.666a20.4,20.4 0 0 0 0,9.295c-0.299,1.471 -0.67,2.894 -2.327,3.46l-4.696,-0.065c-0.768,-0.057 -1.544,-0.097 -2.312,-0.186c-6.32,-0.695 -14.735,2.958 -18.42,-1.616c-3.088,-3.807 -1.084,-11.834 -1.108,-18c-0.056,-18.858 -0.388,-37.73 0.202,-56.58c0.243,-7.557 -1.907,-10.394 -9.368,-9.198c-2.53,0.404 -5.156,0.186 -7.735,0.259l-4.655,0c-5.974,0.614 -9.158,-1.326 -8.083,-8.083c0.46,-3.007 -0.057,-6.167 -0.13,-9.254c0.151,-3.11 0.308,-6.224 0.47,-9.344l88.384,-0.558c-0.137,16.837 -0.315,25.83 -0.534,26.98l0.001,0zm247.152,85.434c-8.519,-0.986 -14.185,-6.425 -19.398,-12.487c-1.1,-1.277 -3.347,-2.821 -1.892,-4.47c2.078,-2.36 3.702,0.242 4.971,1.617c8.083,8.688 18.324,12.204 29.785,12.803c14.395,0.735 27.65,-6.467 32.145,-17.12c4.672,-11.138 1.285,-21.637 -9.077,-28.095c-8.083,-5.036 -17.386,-6.28 -26.358,-8.592c-10.297,-2.66 -20.311,-5.658 -27.44,-14.549c-10.047,-12.552 -2.142,-30.245 6.183,-35.944c16.375,-11.202 42.838,-8.495 56.716,5.117c1.778,1.745 3.451,3.136 2.199,5.714c-0.461,0.946 -0.873,2.005 -2.837,1.512c-2.425,-0.599 -4.228,0.04 -5.068,-3.686c-0.93,-4.155 -4.55,-7.04 -9.029,-8.6c-11.17,-3.904 -22.292,-4.147 -33.308,0.137c-9.271,3.605 -14.371,10.508 -15.002,20.611c-0.598,9.538 4.526,15.495 12.221,19.835c8.47,4.769 18.033,6.119 27.28,8.414c6.554,1.617 12.932,3.823 18.444,7.711c16.602,11.64 15.187,35.685 -2.683,45.417c-5.505,2.99 -10.726,7.105 -17.661,6.07l-9.303,0.234l-8.48,-1.35l-2.408,-0.299zm164.782,1.569a12.302,12.302 0 0 1 -6.126,-8.891c-1.876,-10.015 -6.798,-18.89 -9.66,-28.484c-1.13,-3.79 -3.345,-4.567 -6.853,-4.534c-13.426,0.137 -26.86,0.226 -40.285,0c-4.17,-0.073 -5.884,1.705 -7.185,5.318c-3.799,10.58 -7.84,21.072 -11.922,31.523c-0.744,1.9 -1.05,5.464 -4.203,4.041c-2.797,-1.277 -0.113,-3.63 0.493,-5.278a22240.081,22240.081 0 0 1 37.431,-100.864c0.994,-2.651 0.768,-6.53 5.238,-6.588c4.712,-0.056 4.938,3.888 6.045,6.855a37257.48,37257.48 0 0 1 36.672,98.665c0.889,2.417 2.101,4.834 0.355,8.237zm-42.717,-110.418l-22.324,59.925c-1.261,3.37 -0.073,4.72 3.475,4.704c12.617,-0.065 25.25,-0.08 37.868,0c3.726,0 4.405,-1.26 3.152,-4.623c-7.193,-19.189 -14.25,-38.482 -22.17,-60.006l-0.001,0zm-22.753,-6.014c3.428,3.233 0.978,5.504 0.162,7.582a21874.832,21874.832 0 0 1 -41.48,104.978c-0.671,1.673 -0.582,5.512 -3.775,4.041c-2.7,-1.22 -0.808,-3.338 0.154,-5.658c9.076,-21.912 17.685,-44.026 26.535,-66.043c5.99,-14.84 12.157,-29.656 18.404,-44.9zm-147.42,115.026l1.616,0l-1.616,0zm4.696,0.04l1.617,0c-0.574,0.654 -1.1,0.662 -1.617,0zm43.412,-0.203l2.385,0.267l-2.385,-0.267z"/>
    <path d="m144.699,192.007l0.048,-1.576c0.16,0.363 0.286,0.738 0.38,1.123c0.04,0.13 -0.25,0.3 -0.428,0.453zm464.424,125.468c0.186,-0.905 0.501,-1.665 1.616,-1.512l-1.616,1.512z"/>
   </g>
  </svg>