<svg xmlns="http://www.w3.org/2000/svg" fill-rule="evenodd" clip-rule="evenodd" image-rendering="optimizeQuality" shape-rendering="geometricPrecision" text-rendering="geometricPrecision" viewBox="-7.130000114440918 0.5299999713897705 6600 3300"><g><rect width="6600" height="3300" x="-7.13" y="0.53" fill="none"/><g><g><g><g><g><path fill="#2d3d70" d="M1902.45 1911.14c-29.85,-0.04 -85.04,-0.04 -216.26,-0.04 -223.61,0 -334.28,46.55 -334.28,183.68 0,99.26 71.25,183.59 233.55,183.59 264.74,0 316.99,-164.87 316.99,-317.91l0 -49.32zm95.7 239.83c0,66.19 4.99,171.56 8.3,191.57l-93.82 0c-6.69,-36.41 -10.01,-107.79 -10.04,-137.74 -43.55,94.78 -137.17,161.1 -325.32,161.1 -240.49,0 -324.27,-145.22 -324.27,-265.92 0,-210.84 195.54,-269.38 429.84,-269.38l219.61 0 0 -54.51c0,-104.48 -44.81,-207.05 -253.43,-207.05 -185.59,0 -230.26,85.97 -250.11,178.56l-97.48 0c11.62,-115.06 86.79,-264.25 349.13,-264.25 271.22,0 347.59,136.21 347.59,273.34l0 394.28z"/></g><path fill="#2d3d70" d="M2883.8 2098.52c0,81.83 -0.04,162.13 1.64,244.03l-92.39 0c-3.35,-23.39 -6.63,-94.5 -6.69,-165.61 -41.74,110.97 -123.23,188.97 -310.26,188.97 -178.74,0 -315.8,-93.78 -315.8,-336.25l0 -522.94 97.44 0 0 502.35c0,134.87 54.82,263.98 227.24,263.98 208.82,0 301.38,-120.98 301.38,-393.22l0 -373.11 97.44 0 0 591.8z"/><path fill="#2d3d70" d="M3076.22 1734.06c0,-75.21 0,-152.09 -1.68,-227.33l94.03 0c1.74,21.89 5.09,107.31 5.09,199.83 58.23,-138.08 189.59,-223.3 347.11,-223.2l0 100.18c-193.79,-1.67 -347.11,135.63 -347.11,386.12l0 372.86 -97.44 0 0 -608.46z"/><path fill="#2d3d70" d="M4218.53 1911.14c-29.85,-0.04 -85.08,-0.04 -216.27,-0.04 -223.64,0 -334.3,46.55 -334.3,183.68 0,99.26 71.24,183.59 233.55,183.59 264.73,0 317.02,-164.87 317.02,-317.91l0 -49.32zm95.67 239.83c0,66.19 4.98,171.56 8.3,191.57l-93.83 0c-6.69,-36.41 -10,-107.79 -10,-137.74 -43.55,94.78 -137.2,161.1 -325.36,161.1 -240.45,0 -324.26,-145.22 -324.26,-265.92 0,-210.84 195.53,-269.38 429.83,-269.38l219.65 0 0 -54.51c0,-104.48 -44.81,-207.05 -253.46,-207.05 -185.56,0 -230.27,85.97 -250.12,178.56l-97.44 0c11.61,-115.06 86.75,-264.25 349.09,-264.25 271.19,0 347.6,136.21 347.6,273.34l0 394.28z"/><g><path fill="#f4614d" d="M4853.19 840.5c-120.43,0.38 -218.15,98.68 -217.77,219.1 0.34,120.43 98.64,218.15 219.07,217.77 120.43,-0.37 218.14,-98.67 217.77,-219.1 -0.38,-120.43 -98.64,-218.14 -219.07,-217.77l0 0zm1.6 535.41c-174.76,0.51 -317.39,-141.26 -317.94,-316.03 -0.48,-174.77 141.26,-317.37 316.03,-317.91 174.77,-0.52 317.4,141.26 317.91,316.03 0.51,174.73 -141.23,317.36 -316,317.91z"/></g><g><path fill="#f4614d" d="M4819.13 568.64c0.21,62.87 -50.61,114.04 -113.53,114.21 -62.91,0.2 -114.04,-50.65 -114.24,-113.53 -0.17,-62.88 50.61,-114.04 113.56,-114.21 62.88,-0.21 114.04,50.61 114.21,113.53z"/></g><g><path fill="#f4614d" d="M5332.72 1299.09c0.14,41.98 -33.78,76.13 -75.76,76.23 -41.97,0.1 -76.09,-33.81 -76.23,-75.75 -0.1,-41.98 33.81,-76.1 75.79,-76.23 41.94,-0.14 76.06,33.77 76.2,75.75z"/></g><path fill="#f4614d" d="M1280.27 2811.33l13.32 -9.53c13.52,20.29 30.09,28.59 50.65,28.59 27.36,0 44.16,-15.07 44.16,-37.88 0,-27.36 -16.08,-40.88 -59.7,-40.88l-7.04 0 0 -15.31 8.54 0c39.35,0 54.17,-12.02 54.17,-34.83 0,-18.58 -11.27,-32.38 -39.38,-32.38 -18.78,0 -33.37,9.25 -44.13,22.57l-12.29 -10.28c13.28,-16.02 32.34,-28.07 57.45,-28.07 39.1,0 55.67,22.3 55.67,46.38 0,23.84 -14.04,39.65 -36.65,43.92 27.6,5.78 40.92,21.52 40.92,48.88 0,30.33 -23.88,53.45 -61.96,53.45 -27.12,0 -49.93,-12.57 -63.73,-34.63z"/><g><path fill="#f4614d" d="M1608.34 2784.48c0,-24.83 -12.5,-42.9 -42.63,-42.9 -20.56,0 -38.9,11.54 -50.17,27.36 3.79,43.14 24.08,61.72 48.67,61.72 26.57,0 44.13,-16.84 44.13,-46.18l0 0zm-110.83 -31.59c0,-57.18 30.09,-99.56 72.71,-99.56 20.56,0 34.39,6.28 44.4,14.03l-9.29 13.56c-9.49,-7.55 -18.82,-12.05 -35.62,-12.05 -33.85,0 -54.65,36.13 -54.89,82.24 11.75,-12.77 29.31,-24.8 52.91,-24.8 39.1,0 57.92,24.32 57.92,57.93 0,35.11 -24.83,61.72 -62.19,61.72 -36.65,0 -65.95,-29.38 -65.95,-93.07z"/></g><g><path fill="#f4614d" d="M1831.84 2749.62c0,-52.42 -19.81,-80.5 -50.17,-80.5 -31.63,0 -50.41,28.08 -50.41,80.5 0,52.43 19.81,80.75 50.41,80.75 31.36,0 50.17,-28.32 50.17,-80.75l0 0zm-118.37 0c0,-57.92 24.55,-96.28 68.2,-96.28 43.65,0 67.73,38.36 67.73,96.28 0,57.93 -24.08,96.32 -67.73,96.32 -43.65,0 -68.2,-38.39 -68.2,-96.32z"/></g><g><path fill="#f4614d" d="M1999.38 2688.42c0,-14.04 -9.5,-23.53 -22.82,-23.53 -13.04,0 -22.54,9.49 -22.54,23.53 0,14.04 9.5,23.84 22.54,23.84 13.32,0 22.82,-9.8 22.82,-23.84l0 0zm-58.17 0c0,-20.32 15.31,-35.08 35.35,-35.08 20.33,0 35.63,14.76 35.63,35.08 0,20.32 -15.3,35.11 -35.63,35.11 -20.04,0 -35.35,-14.79 -35.35,-35.11z"/></g><path fill="#f4614d" d="M2193.04 2656.83l23.09 0 62.19 162.51 0.51 0 61.65 -162.51 23.64 0 0 185.6 -17.87 0 0 -155.51 -0.47 0c-2.57,8.27 -7.01,20.56 -11.55,32.59l-48.12 122.92 -16.33 0 -48.12 -122.92c-4.55,-12.03 -7.55,-19.78 -11.55,-33.1l-0.54 0 0 156.02 -16.53 0 0 -185.6z"/><polygon fill="#f4614d" points="2476.71,2842.42 2494.5,2842.42 2494.5,2656.82 2476.71,2656.82"/><polygon fill="#f4614d" points="2607.39,2656.83 2626.49,2656.83 2728.81,2809.81 2729.29,2809.81 2729.29,2656.83 2746.09,2656.83 2746.09,2842.43 2730.32,2842.43 2624.71,2684.67 2624.2,2684.67 2624.2,2842.43 2607.39,2842.43"/><polygon fill="#f4614d" points="2859,2842.42 2876.79,2842.42 2876.79,2656.82 2859,2656.82"/><polygon fill="#f4614d" points="2989.66,2656.83 3008.72,2656.83 3111.05,2809.81 3111.53,2809.81 3111.53,2656.83 3128.37,2656.83 3128.37,2842.43 3112.59,2842.43 3006.98,2684.67 3006.47,2684.67 3006.47,2842.43 2989.66,2842.43"/><path fill="#f4614d" d="M3229.71 2748.89c0,-58.44 32.59,-95.56 77.5,-95.56 35.11,0 57.93,19.81 67.45,56.93l-17.07 4c-8.78,-30.61 -23.06,-44.64 -50.65,-44.64 -32.11,0 -59.43,26.33 -59.43,78.52 0,51.88 24.28,81.73 59.9,81.73 31.15,0 51.71,-21.82 51.44,-59.43l-44.88 0 0 -15.3 62.2 0 0 87.26 -16.06 0 0 -28.34 -0.47 0c-8.3,16.32 -24.36,31.9 -53.69,31.9 -48.64,0 -76.24,-41.4 -76.24,-97.07z"/></g></g></g></g></g></svg>