<svg xmlns="http://www.w3.org/2000/svg" xmlns:xlink="http://www.w3.org/1999/xlink" fill-rule="evenodd" clip-rule="evenodd" image-rendering="optimizeQuality" shape-rendering="geometricPrecision" text-rendering="geometricPrecision" viewBox="-1.9900000095367432 1 6599.990234375 3300"><defs><linearGradient id="a" x1="1542.22" x2="1542.22" y1="2305.45" y2="1137.6" gradientUnits="userSpaceOnUse"><stop offset="0" stop-color="#e62498"/><stop offset="0.278431" stop-color="#e8339f"/><stop offset="1" stop-color="#fff"/></linearGradient><linearGradient id="c" x1="392.1" x2="1573.33" y1="2073.66" y2="2073.66" gradientUnits="userSpaceOnUse" xlink:href="#a"/><linearGradient id="b" x1="964.75" x2="964.75" y1="996.56" y2="1955.43" gradientUnits="userSpaceOnUse"><stop offset="0" stop-color="#e62498"/><stop offset="0.258824" stop-color="#e7319e"/><stop offset="1" stop-color="#fff"/></linearGradient></defs><g><rect width="6599.99" height="3300" x="-1.99" y="1" fill="none"/><g><g fill="#4b4b4d"><path d="M4842.87 1558.86c5.05,-49.55 27.22,-97.24 52.23,-126.22 22.62,-26.21 71.68,-54.77 122.87,-54.77l18.51 0c50.07,0 89.59,26.03 111.99,52.11 23.44,27.31 42.77,83.65 39.95,128.88l-345.55 0zm-178.44 94.27c0,51.18 12.87,111.92 29.54,155.55 34.16,89.42 92.91,153.66 177.51,193.1 74.48,34.72 124.16,35.19 200.36,35.19 71.84,0 197.83,-30.55 251.69,-69.86 0,-18.21 2.32,-130.24 -1.27,-136.79 -1.34,-1.11 -41.15,16.5 -48.76,19.39 -81.39,30.92 -136.18,34.9 -221.86,34.9 -54.23,0 -112.69,-22.43 -148.19,-58.04 -14.81,-14.86 -30.28,-37.15 -40.92,-61.76 -12.1,-27.97 -15.97,-49.24 -21.33,-80.53l514.54 0.03 0.61 -105.26c0,-92.97 -34.75,-195.17 -83.39,-244.85 -31.33,-31.99 -51.15,-48.91 -95.01,-70.07 -58.14,-28.06 -107.5,-31.04 -168.4,-31.04 -82.95,0 -195.11,53.69 -246.39,118.08 -13.54,17 -26.31,32.96 -39,53.66 -11.51,18.78 -21.44,38.21 -30.01,60.86 -26.29,69.51 -29.72,114.89 -29.72,187.44z"/><path d="M2547.39 1782.76c0,-76.69 69.68,-104.39 143.95,-104.39 59.65,0 121.26,0.23 180.14,13.47l0 125.02c-7,3.62 -14.6,9.04 -21.79,13.12 -7.48,4.25 -13.86,8.08 -21.44,12.13 -15.07,8.04 -30.14,14.83 -45.99,21.49 -29.61,12.45 -74.6,26.06 -109.47,26.06 -69.29,0 -125.4,-24.44 -125.4,-98.48l0 -8.42zm-112.79 -347.22c4.61,0.04 43.56,-17.51 52.21,-20.56 89.16,-31.49 270.08,-61.59 344.29,12.53 36.79,36.75 40.38,88.45 40.38,154.07 -90.28,-24.55 -127.05,-26.94 -213.82,-26.94 -71.25,0 -149.25,26.44 -192.8,60.54 -49.32,38.61 -83.29,101.51 -83.29,169.26 0,46.69 0.75,78.74 20.63,124.08 6.15,14.01 13.33,26.05 20.94,36.35 24,32.48 58.54,57.41 97.14,71.24 81.02,29.03 173.41,19.7 249.63,-18.41 19.24,-9.62 35.78,-19.92 52.73,-31.4l48.84 -35.82c1.14,27.54 14.49,51.62 28.13,64.87 31.99,31.06 83.92,23.95 133.48,23.95 3.45,0 4.21,-0.76 4.21,-4.21l0 -481.49c0,-41.25 -10.3,-93.11 -23.04,-127.58 -42.44,-114.81 -147.43,-172.93 -279.15,-172.93 -69.13,0 -113.74,2.01 -183.25,21.3 -26.97,7.49 -100.9,33.12 -117.26,47.3l0 133.85z"/><path d="M5700.64 1467.1c5.05,-2.33 44.04,-32.14 78.87,-49.1 77.83,-37.91 189.65,-47.03 227.48,49.07 19.19,48.72 13.51,119.53 13.51,177.64l0 333.34c0,13.68 -3,41.25 4.16,41.25l175.14 0c3.45,0 4.21,-0.76 4.21,-4.21l0 -466.34c0,-88.66 -12.35,-161.57 -56.4,-222.16 -79.63,-109.53 -238.35,-114.79 -347.94,-60.11 -19.42,9.69 -36.64,20.08 -53.08,31.08l-48.49 35.71c-1.62,-24.41 -15.26,-47.31 -27.82,-59.72 -14.79,-14.61 -37.46,-22.78 -64.79,-22.78 -18.01,-0.01 -74.62,-1.5 -88.36,0.84l0 726.44c0,13.79 -3.02,41.25 4.21,41.25l175.09 0c7.03,0 4.21,-14.92 4.21,-29.47l0 -522.73z"/><path d="M3218.29 1752.46c0,106.06 41.46,210.84 132.41,258.15 24.86,12.94 70.45,26.36 103.3,26.36 69.31,0 102.42,-2.59 168.32,-35.36 23.63,-11.74 54.38,-31.82 74.96,-47.91 5.71,-4.47 17.5,-15.6 23.53,-17.75 1.28,15.99 9.68,38.39 17.36,49.16 32.71,45.88 92.43,34.15 161.32,34.22 2.84,-27.69 0.61,-682.14 0.62,-768.56 -26.86,-0.02 -165.98,-1.71 -180.98,0.84l0 502.53c0,11.66 2.94,41.11 -3.07,48.21 -2.54,3 -23.53,17.89 -28.05,20.84 -50.45,32.93 -87.07,55.54 -158.28,55.54 -58.71,0 -97.29,-30.44 -114.81,-75.4 -19.17,-49.22 -13.98,-117.86 -13.98,-175.45 0,-125.43 0,-250.85 0.03,-376.5 -17.35,-1.71 -153.94,-0.61 -182.68,-0.61l0 501.69z"/><path d="M4277.64 1332.01c-3.8,-4.69 -5.41,-15.11 -8.61,-24.22 -18.76,-53.3 -60.61,-57.02 -107.98,-57.02 -15.04,0.01 -54.32,-1.83 -66.5,0.84l0 741.59c-0.01,33.82 -11.01,26.1 63.13,26.1 39.57,0 79.13,0 118.69,0 2.94,-13.44 0.84,-203.92 0.84,-234.86l-0.01 -296.3c-0.09,-13.06 -2.47,-15.95 6.03,-22.6 5.79,-4.53 10.58,-8.07 17.46,-12.76 22.22,-15.15 48.5,-30.45 77.55,-40.35 59.06,-20.14 149.75,-22.36 209.59,-4.25l0.85 -159.1c-6.05,-9.77 -74.29,-14.21 -90.94,-13.25 -60.06,3.47 -110.33,18.49 -159.83,50.34 -11.16,7.18 -21.05,13.89 -31.09,21.12 -8.76,6.31 -23.19,17.3 -29.18,24.72z"/></g><g><path fill="url(#a)" d="M1413.59 1506.81c19.05,30.7 35.62,60.33 52.6,94.56 8.35,16.84 16.51,33.07 23.97,50.17 34.42,78.93 75.63,197.63 79.85,290.1 11.05,95.15 -5.21,199.64 -51.52,280.88 -22,38.59 -36.84,50.65 -45.85,65.32 14.5,7.87 60.89,15.1 80.39,16.56 82.79,6.24 169.98,-15.49 234.05,-61.39 72.03,-51.59 117.69,-142.21 133.63,-261.85 25.1,-188.3 -36.86,-389.83 -133.51,-544.19l-37.89 -60.54c-0.99,-9.57 -16.28,-26.55 -22.13,-34.57 -3.9,-5.35 -7.49,-10.16 -11.43,-15.37l-83.48 -98.95c-3.07,-2.79 -5.31,-5.03 -7.92,-7.55l-27.18 -28.53c-8.69,-8.57 -52.55,-49.61 -59.68,-53.85 -35.79,4.21 -72.88,3.83 -109.86,8.02 -67.21,7.62 -129,20.57 -190.85,45.34 -18.68,7.47 -69.02,30.54 -78.66,41.51 19.14,1 93.54,71.64 109.46,87.62l38.4 42.55c4.92,4.74 3.66,5.11 7.42,9.56l29.45 36.2c1.89,2.26 1.86,2.23 3.73,4.7l10.04 13.57c0.21,0.28 0.51,0.68 0.71,0.97l9.85 13.97c0.28,0.42 1.12,1.61 1.41,2.02l38.89 58.67c4.84,5.85 -1.85,2.4 6.11,4.5z"/><path fill="url(#b)" d="M849.3 1636.81c-0.38,-12.61 46.43,-104.67 55.02,-120.98 38.1,-72.3 95.23,-150.74 153.05,-205.24l23.32 -20.59c16.59,-12.66 28.54,-24.54 49.83,-39.65 7.35,-5.22 20.72,-15.47 27.6,-17.87 9.64,-10.97 59.98,-34.04 78.66,-41.51 61.85,-24.77 123.64,-37.72 190.85,-45.34 36.98,-4.19 74.07,-3.81 109.86,-8.02 -16.43,-20.83 -91.33,-67.79 -113.86,-79.96 -147.92,-79.91 -337.7,-76.58 -485.24,-18.09 -94.99,37.66 -158.94,93.81 -226.78,163.38 -53.13,54.48 -110.13,127.4 -152.09,190.58 -6.2,9.32 -12.47,20.55 -18.86,29.08 -5.22,2.49 -5.25,2.42 -9.04,9.41l-44.72 81.79c-2,4.04 -3.49,7.44 -5.34,11.32l-6.18 12.91c-2.69,6.82 -7.66,18.21 -11.28,25.9 -21.41,45.4 -42.95,118.86 -53.03,162.51 -7.28,31.49 -11.45,60.38 -14.79,93.09 -0.56,5.47 -0.87,10.75 -1.33,17.17 -0.63,8.63 -3.52,9.78 -2.85,16.26 1.92,-1.77 1.56,-1.26 3.56,-3.76 7.06,12.6 19.7,25.51 28.27,34.22 67.75,68.86 198.96,83.05 292.96,64.67 9.55,-1.87 41.69,-7.37 49.16,-14.06l-4.23 -1.05c9.21,-62.06 34.76,-130.59 51.12,-190.37 6.51,-23.81 35.83,-97.54 36.36,-105.8z"/><path fill="url(#c)" d="M1230.07 2203.79l7.72 3.18c52.83,12.19 57.56,12.42 116.07,35.38 27.85,10.94 95.27,41.05 118.78,45.49 9.01,-14.67 23.85,-26.73 45.85,-65.32 46.31,-81.24 62.57,-185.73 51.52,-280.88 -27.01,-9.28 -52.24,-19.43 -80.78,-29.08 -57.7,-19.51 -107.7,-34.42 -167.49,-49.31 -16.56,-4.13 -74.06,-17.93 -92.19,-16.1 -24.44,2.94 -84.05,-21.61 -251.42,19.28 -35.89,8.77 -74.63,20.81 -107.82,32.31 -14.59,5.06 -95.13,35.57 -104.26,35.29 -7.47,6.69 -39.61,12.19 -49.16,14.06 -94,18.38 -225.21,4.19 -292.96,-64.67 -8.57,-8.71 -21.21,-21.62 -28.27,-34.22 -2,2.5 -1.64,1.99 -3.56,3.76 5.71,34.12 -5.22,84.51 10.96,164.63 27.25,134.83 95.79,247 248.37,278.2 222.04,45.42 299.05,-95.14 496.37,-98.36 21.49,-0.35 66.08,0.56 82.27,6.36z"/></g></g></g></svg>