<svg xmlns="http://www.w3.org/2000/svg" data-name="Layer 1" viewBox="0 0 782.0376586914062 347.7808837890625"><path d="m167.73,170.34l0,41.59l-14.61,0l0,-122.84l14.61,0l0,8.7c0.52,-0.53 0.87,-0.53 1.39,-0.87c6.44,-7.31 14.62,-11 24.19,-12.36a47.83,47.83 0 0 1 21.05,1.74c12.7,4.18 20.53,13.23 24.19,25.58c3.13,10.09 3.13,20 2.26,30.62a55.14,55.14 0 0 1 -4.18,17.4c-5.39,13.75 -16,21.06 -30.62,22.8c-7.83,0.87 -16,0.52 -23.31,-2.79a30.35,30.35 0 0 1 -13.23,-8.7c-0.52,-0.52 -0.87,-1.39 -1.39,-1.74c0.17,0.35 0.17,0.35 -0.35,0.87zm0,-37.06l0,0c0.52,3.65 0,7.31 0.52,11a25.72,25.72 0 0 0 8.18,17.4c6.44,5.92 14.09,8.18 22.79,7.83a34.35,34.35 0 0 0 11,-1.74c7.3,-3.13 11.48,-9 13.74,-16.35a57.06,57.06 0 0 0 1.74,-23.67c-0.52,-5.39 -1.39,-11 -3.65,-16c-3.13,-6.79 -8.18,-11.49 -15.49,-13.23a34.83,34.83 0 0 0 -21.4,1.39c-9.57,3.66 -15.48,10.44 -17.4,21.06c-0.03,3.61 0.49,8.31 -0.03,12.31zm-85.26,45.72l-14.09,0l0,-10c-0.87,0.52 -1.39,0.87 -1.39,0.87c-7.31,7.83 -16.88,11.48 -27.32,12.35a46.65,46.65 0 0 1 -19.67,-1.44c-12,-3.65 -18.79,-12.7 -18.79,-25.05c0,-7.31 1.39,-14.1 6.78,-19.67a32.07,32.07 0 0 1 13.75,-7.83a96.31,96.31 0 0 1 21.92,-3.65c7.31,-0.52 14.62,-1.39 21.93,-1.74a22.58,22.58 0 0 1 2.26,-0.52c0,-4.53 0.52,-9 -0.87,-13.75a11.8,11.8 0 0 0 -6.79,-8.17c-2.26,-0.87 -4.17,-1.74 -6.44,-1.74a57.38,57.38 0 0 0 -21,0.87c-6.78,2.26 -11.48,6.78 -11.83,14.61c0,0.87 -0.52,1.74 -0.52,2.78l-14.14,0c0,-9.56 2.79,-17.74 10.1,-23.66c5,-4.52 11.48,-6.78 17.74,-7.83a69,69 0 0 1 27.32,0.87c10.44,2.79 17.75,9 20,19.66a32,32 0 0 1 0.88,9.04l0,61.6a10.12,10.12 0 0 1 0.17,2.43l0,-0.03zm-14.61,-43.81c-9.57,0.87 -19.14,1.74 -28.36,2.79l-1.74,0a107.59,107.59 0 0 0 -12.36,3.13a10.67,10.67 0 0 0 -7.83,6.79c-4.52,9 0,19.66 10.1,21.92c13.22,2.78 25,-0.87 35.14,-10.44a17.4,17.4 0 0 0 5.4,-11c-0.35,-4.49 -0.35,-8.66 -0.35,-13.19zm379,43.33l-14.13,0a58,58 0 0 0 -0.53,-9.57l-0.87,0.87c-7.3,7.83 -16.35,11.48 -27,12.7a51.45,51.45 0 0 1 -20.54,-1.39c-11.83,-3.65 -18.27,-12.7 -18.79,-25.06c0,-7.3 1.39,-13.74 6.44,-19.14c3.65,-4.17 8.7,-6.43 14.09,-8.17c7.31,-2.27 14.62,-3.14 22.45,-4.18c7.31,-0.52 14.61,-1.39 21.4,-1.74a4.18,4.18 0 0 0 2.26,-0.52c0,-5 0.52,-9.57 -0.87,-14.62a13.92,13.92 0 0 0 -6.78,-7.3c-2.27,-0.87 -4.18,-1.74 -6.44,-1.74c-6.79,-0.87 -13.22,-0.87 -19.66,0.87c-7.31,2.26 -12.36,6.78 -12.7,15.13c0,0.87 -0.53,1.74 -0.53,2.79l-14.05,0c0,-6.44 0.87,-12.36 4.52,-17.4a28.66,28.66 0 0 1 14.62,-11.49a58.67,58.67 0 0 1 39.32,-0.56c11,3.66 16.88,11.83 17.75,23.32a34.52,34.52 0 0 1 0.52,7.3l0,58c-0.52,0.17 -0.52,1 -0.52,1.91l0.04,-0.01zm-14.66,-43.33l-0.87,0c-9.57,0.87 -18.79,1.4 -28.36,2.79a66.69,66.69 0 0 0 -13.22,3.13a13.36,13.36 0 0 0 -7.83,6.44c-5.05,9 -0.52,20 9.57,21.92c13.75,3.13 26.1,-0.52 35.67,-11a17.94,17.94 0 0 0 5,-10.44l0.04,-12.84zm344.34,41.94c-4.17,0.87 -7.83,2.26 -11.83,3.13a80.83,80.83 0 0 1 -32.89,1.39c-18.79,-2.78 -29.75,-13.22 -33.4,-31.49a75.68,75.68 0 0 1 1.39,-37.93c4.52,-16 15.14,-25.06 31.49,-27.32c7.83,-1.39 15.14,-0.87 22.8,0.52c12.7,2.79 21,10.44 25,23.32c3.13,9.57 3.13,19.66 2.79,29.75c0,0.52 -0.53,0.87 -0.53,1.74l-68.9,0a37.34,37.34 0 0 0 1.74,11.83c3.13,10.44 11,15.49 21,16.88c12.71,1.74 25.06,0 37.07,-3.65c1.74,-0.53 3.13,-0.87 5,-1.4a67.66,67.66 0 0 0 -0.73,13.23zm-9.54,-50.13a48.7,48.7 0 0 0 -1.74,-13.75c-2.26,-8.7 -7.83,-13.74 -16.88,-15.14a46.7,46.7 0 0 0 -17.74,0.53a21.15,21.15 0 0 0 -16,13.74c-1.39,3.13 -1.74,6.79 -2.78,10.09a14.79,14.79 0 0 0 -0.53,5.05c18.58,-0.52 36.85,-0.52 55.67,-0.52zm-423,52l-14.63,0l0,-57.9a52.86,52.86 0 0 0 -0.52,-9c-1.39,-8.7 -5.39,-12.35 -14.09,-13.74a35.94,35.94 0 0 0 -20.53,3.13c-9.05,4.52 -14.1,12.35 -14.62,22.44c-0.52,6.79 0,13.75 0,20.54l0,34.53l-14.61,0l0,-124.19l14.62,0l0,43.32c0.87,-0.87 1.39,-0.87 1.39,-1.39c6.44,-7.31 15.14,-10.44 24.19,-11.83a51.58,51.58 0 0 1 15.48,0.52c11.84,2.26 19.14,9 21.4,20.53a51.87,51.87 0 0 1 1.4,11.49l0,59.33c0.52,0.35 0.52,1.39 0.52,2.22zm173.12,0l-16.88,0c-11.49,-30.1 -23.32,-59.85 -35.15,-89.95l15.49,0c9,24.18 18.26,48.37 27.31,73.07l0.52,0c9.05,-24.18 18.27,-48.37 27.84,-73.07l15.14,0c0.87,1.39 -31,84 -34.28,89.95l0.01,0zm-392.7,-0.52l-14.63,0l0,-124.19l14.62,0l0.01,124.19zm506.5,0.52l-14.1,0l0,-124.19l14.1,0l0,124.19zm42.45,0l-14.1,0l0,-124.19l14.09,0l0.01,124.19zm-84.56,0l-14.1,0l0,-89.91l14.09,0l0.01,89.91zm34.8,99.53c0.52,-0.53 0.52,-0.87 0.52,-0.87c4.18,-11 12.36,-16.36 23.66,-18.79a32,32 0 0 1 14.62,0.52c6.79,1.39 11,5.39 13.75,11.83c2.26,5.39 2.78,11 3.13,16.88l0,57.07l-3.13,0l0,-56.51a39.79,39.79 0 0 0 -1.4,-10.44c-2.26,-10.44 -7.83,-15.14 -18.27,-15.49c-4.52,-0.52 -8.7,0.53 -12.7,1.74c-11.48,4.18 -16.87,12.36 -18.27,23.67a28.34,28.34 0 0 0 -0.52,6.43l0,51.16l-3.65,0l0,-57.07a47.23,47.23 0 0 0 -1.39,-11q-2.61,-15.15 -18.27,-15.14c-15.14,-0.52 -27.84,10.09 -31,24.71a59.43,59.43 0 0 0 -0.87,9.57l0,48.37l-3.12,0l0,-84.52l3.13,0l0,19.13l0.53,0c0.52,-0.52 0.52,-0.87 0.87,-1.39c4.52,-11 13.22,-16.87 24.7,-18.79a35.08,35.08 0 0 1 10.44,0c7.83,0.87 12.71,5 15.49,11.83c-0.17,2.09 0.7,4.35 1.74,7.14l0.01,-0.04zm-467.19,47.89l0,18.79l-3.13,0l0,-116.93l3.13,0l0,51.16l0.52,0a1.18,1.18 0 0 1 0.53,-0.87c5,-11.49 14.09,-17.4 26.44,-19.14a49.27,49.27 0 0 1 18.27,0.87c10.09,2.78 16.88,9 21.06,18.79c2.26,5 3.13,10.44 3.65,16a80.5,80.5 0 0 1 -1.74,27.31c-2.78,9.57 -7.83,17.75 -17.75,21.93c-14.61,5.39 -28.71,5 -41.58,-5a26.32,26.32 0 0 1 -8.18,-10.44c-0.87,-0.52 -0.87,-1.39 -1.22,-2.43l0,-0.04zm0,-23.67l0,0a73.85,73.85 0 0 1 0.52,10.44c0.53,12.7 8.7,23.32 20.54,27.84a34.75,34.75 0 0 0 18.26,1.74c13.23,-1.39 21.93,-8.18 25.58,-21a57.62,57.62 0 0 0 2.26,-17.4c0,-7.31 -0.52,-14.62 -2.78,-21.4c-3.13,-10.44 -9.57,-17.4 -20.53,-20a47.27,47.27 0 0 0 -16.36,-0.87a31.39,31.39 0 0 0 -27,26.1c-0.52,4.52 -0.17,9.57 -0.52,14.61l0.03,-0.06zm100.05,-17.75l-2.78,0c0,-0.52 -0.53,-1.39 0,-1.74c0.87,-9.57 5,-16.87 13.74,-21.05a49.23,49.23 0 0 1 22.79,-3.65a113.14,113.14 0 0 1 11.84,1.74c9,2.78 14.09,9 15.48,18.79a46,46 0 0 1 0.52,8.7l0,57.42l-3.13,0l0,-18.27c-0.52,0.52 -0.87,0.52 -0.87,0.87c-5.91,10.09 -15.14,15.48 -26.1,17.74a46.68,46.68 0 0 1 -21.92,0c-8.7,-2.26 -14.62,-7.3 -16.36,-16c-1.74,-10.09 0.53,-18.27 8.18,-23.67a27.82,27.82 0 0 1 14.62,-5.39c6.78,-0.87 14.09,-1.74 21,-2.78a194.28,194.28 0 0 1 20,-1.74a1.57,1.57 0 0 0 1.39,-0.53l0,-12.35a28.82,28.82 0 0 0 -0.87,-5.39c-1.39,-6.79 -5.39,-11.49 -12.35,-13.75a55.12,55.12 0 0 0 -19.14,-1.74a86.09,86.09 0 0 0 -10.03,1.79c-9.57,2.78 -14.62,9.05 -15.49,19.14c-0.17,0.52 -0.17,0.87 -0.52,1.91l0,-0.05zm57.94,13.58l-0.87,0c-11,0.87 -21.92,1.74 -32.89,3.13a51.24,51.24 0 0 0 -16.87,4.17c-7.83,3.66 -11.83,9.57 -11.49,18.27c0,8.7 4.53,15.14 12.7,17.75c14.1,4.18 27.32,1.39 39.33,-7.83c5.91,-4.52 9.57,-10.44 10.09,-18.27c0.52,-5.39 0,-11 0,-16l0,-1.21l0,-0.01zm389.92,4.17c0,-7.31 0.53,-14.09 2.79,-21.05c4.52,-13.75 14.09,-21.05 27.84,-22.79a61.42,61.42 0 0 1 18.79,0.52c12.7,2.78 21,11 24.71,23.31c2.78,9.05 2.78,18.79 1.74,28.36c-0.53,4.18 -1.4,8.18 -2.27,12.36c-4.17,12.7 -12.7,20 -26.1,22.44a74.37,74.37 0 0 1 -19.66,0c-14.09,-2.78 -22.79,-11.48 -26.1,-25c-0.87,-5.74 -1.21,-12.18 -1.74,-18.1l0,-0.05zm3.66,0a71.89,71.89 0 0 0 2.26,18.79c3.13,10.44 9.57,17.75 20.53,20.53a57.55,57.55 0 0 0 22.45,0.53c10.44,-2.27 17.74,-8.7 21.4,-18.79a46.9,46.9 0 0 0 2.78,-15.49c0.52,-9.05 0,-17.75 -2.78,-26.45a26.4,26.4 0 0 0 -20,-18.27a54.62,54.62 0 0 0 -19.14,-0.87c-12.36,1.74 -20.53,8.18 -24.71,20a69.7,69.7 0 0 0 -2.78,20l-0.01,0.02zm-170.69,-18.27l-2.79,0c-0.52,-1.74 -0.52,-3.65 -0.87,-5.39c-1.39,-7.83 -5.91,-12.7 -13.22,-15.14a51.1,51.1 0 0 0 -30.62,0c-5.92,1.74 -10.44,5.92 -11.83,12.35a21.21,21.21 0 0 0 0,10.44c0.87,4.53 4.17,7.83 8.7,9.57a47.46,47.46 0 0 0 14.09,3.14c7.83,0.87 15.48,1.39 22.79,4.17a34.89,34.89 0 0 1 9.05,4.18a14.69,14.69 0 0 1 7.31,12.7a48.88,48.88 0 0 1 -0.52,8.7c-1.39,6.8 -5.92,11.48 -12.39,14.09a42.91,42.91 0 0 1 -13.22,3.13c-7.83,0.53 -15.49,0.87 -23.32,-1.39a29.2,29.2 0 0 1 -10.09,-4.52a23.83,23.83 0 0 1 -10.09,-20l3.13,0c0,0.87 0.52,2.26 0.52,3.13c1.4,8.18 5.92,14.1 14.1,16.88c3.13,1.39 6.43,1.74 9.57,2.26c7.83,0.87 16,0.87 23.66,-1.39a17.59,17.59 0 0 0 6.44,-2.79c4.17,-2.26 6.78,-5.39 7.31,-10.09a29.55,29.55 0 0 0 0,-9.57c-0.87,-5.39 -4.18,-8.7 -9,-11c-4.53,-2.26 -9.57,-3.13 -14.62,-3.65c-6.78,-0.87 -13.74,-2.26 -21.05,-3.13a28.11,28.11 0 0 1 -11,-4.53c-2.26,-1.74 -4.18,-3.65 -5.05,-6.44c-5,-11.48 0,-23.66 11.49,-28.7c6.78,-2.79 13.74,-3.14 20.53,-3.14a35,35 0 0 1 14.09,2.79c10.44,3.65 15.14,11.83 15.49,22.44c1.74,0.35 1.74,0.35 1.39,0.87l0.02,0.03zm-123.89,60.73l-3.65,0l0,-56a51.77,51.77 0 0 0 -1.39,-11.48c-1.74,-8.18 -6.79,-13.23 -15.14,-14.62c-11,-2.26 -21.4,-0.52 -30.62,5.92c-7.83,5.39 -11.84,13.22 -12.36,22.79c-0.52,6.79 0,13.75 0,21l0,32.89l-3.13,0l0,-84.54l3.13,0l0,19.14c0.52,-0.53 0.87,-0.53 0.87,-0.53c4.18,-10.09 11.88,-15.48 21.4,-18.78a42.29,42.29 0 0 1 22.8,-0.87c10.09,2.27 15.48,9.05 16.88,18.79a65.3,65.3 0 0 1 0.87,10.44l0,53.94c0.34,0.18 0.34,1 0.34,1.92l0,-0.01zm-412.71,-84.91l3.13,0l0,56a88.14,88.14 0 0 0 0.87,9.57c2.3,10.13 7.83,15.13 17.75,16.9a37.53,37.53 0 0 0 21.4,-2.26c12.35,-5.39 18.79,-15.51 19.15,-28.71c0.52,-16 0,-32 0,-48l0,-3.13l3.13,0l0,84.56l-3.13,0l0,-19.68c-0.53,0.87 -0.87,0.87 -0.87,1.39c-4.18,10.09 -11.84,16 -22.45,18.79c-7.31,1.74 -14.61,2.26 -21.92,0c-10.1,-2.79 -15.15,-10.09 -16.89,-19.66a43.81,43.81 0 0 1 -0.87,-8.18l0,-54.81a4.39,4.39 0 0 0 0.7,-2.78zm573.48,-260.3l14.62,0l0,37.06l-14.62,0l0,-37.06zm-464.39,0l14.62,0l0,37.06c-4.53,0.52 -9.57,0 -14.62,0l0,-37.06zm169.82,37.06l-14.61,0l0,-37.06l14.62,0l-0.01,37.06zm-178.87,308.15l-3.13,0l0,-84.56l3.13,0l0,19.13l0.53,0c6.43,-14.61 18.79,-20 33.75,-21l0,3.13a22.41,22.41 0 0 1 -5.92,0.53c-13.74,1.73 -24.7,11 -27.83,24.7a48.51,48.51 0 0 0 -0.87,8.7l0,46.63a5.73,5.73 0 0 1 0.34,2.74zm473.44,-290.92l14.62,0l0,19.71l-14.62,0l0,-19.71zm-128.18,290.92l-3.13,0l0,-84.56l3.13,0l0,84.56zm0,-101.44l-3.13,0l0,-15.49l3.13,0l0,15.49z"/></svg>