<svg xmlns="http://www.w3.org/2000/svg" fill-rule="evenodd" clip-rule="evenodd" image-rendering="optimizeQuality" shape-rendering="geometricPrecision" text-rendering="geometricPrecision" viewBox="-2 1 6600 3300"><g><g><rect width="6600" height="3300" x="-2" y="1" fill="#f58634"/><g><path fill="#373435" d="M1894.41 1528.19l-66.53 0 248.77 -394.26 75.72 0 247.92 394.26 -67.33 0 -76.66 -123.65 -285.28 0 -76.61 123.65zm4131.44 81.95c65.9,0 119.36,53.46 119.36,119.4 0,65.9 -53.46,119.35 -119.36,119.35 -65.95,0 -119.39,-53.45 -119.39,-119.35 0,-65.94 53.44,-119.4 119.39,-119.4zm-53.8 178.19l0 -122.14 51.95 0c13.03,0 22.54,1.12 28.45,3.32 5.93,2.16 10.64,6.08 14.2,11.69 3.56,5.6 5.34,12.03 5.34,19.21 0,9.21 -2.67,16.75 -8.05,22.75 -5.37,5.95 -13.38,9.71 -24.05,11.25 5.3,3.13 9.67,6.53 13.1,10.25 3.49,3.71 8.13,10.37 14.01,19.84l14.89 23.83 -29.47 0 -17.67 -26.66c-6.35,-9.46 -10.71,-15.46 -13.08,-17.9 -2.32,-2.48 -4.79,-4.18 -7.43,-5.07 -2.63,-0.92 -6.76,-1.39 -12.45,-1.39l-5.02 0 0 51.02 -24.72 0zm24.72 -70.43l18.24 0c11.85,0 19.2,-0.54 22.17,-1.51 2.94,-1.01 5.26,-2.74 6.88,-5.19 1.71,-2.43 2.52,-5.52 2.52,-9.17 0,-4.13 -1.12,-7.41 -3.28,-9.96 -2.22,-2.56 -5.31,-4.15 -9.3,-4.8 -2.01,-0.28 -7.99,-0.43 -17.97,-0.43l-19.26 0 0 31.06zm29.08 -84.31c52.95,0 95.91,42.96 95.91,95.95 0,52.95 -42.96,95.92 -95.91,95.92 -52.99,0 -95.96,-42.97 -95.96,-95.92 0,-52.99 42.97,-95.95 95.96,-95.95zm-462.96 299.12l57.4 0c1.12,23.2 11.83,41.57 32.14,55.34 20.22,13.74 46.95,20.57 79.98,20.57 35.51,0 63.67,-6.83 84.55,-20.45 20.81,-13.62 31.25,-32.18 31.25,-55.46 0,-34 -42.71,-59.64 -128.25,-76.97 -6.7,-1.39 -11.72,-2.36 -15.17,-3.05 -44.51,-9.48 -76.53,-21.44 -96.26,-35.94 -19.57,-14.51 -29.35,-33.37 -29.35,-56.74 0,-29.88 15.07,-54.29 45.41,-73.36 30.19,-19.07 69.26,-28.55 117.22,-28.55 45.72,0 81.99,8.67 108.83,26 26.69,17.29 41.69,41.73 44.72,73.09l-56.59 0c-3.01,-20.38 -12.99,-36.13 -29.66,-47.19 -16.75,-11.06 -39.3,-16.58 -67.42,-16.58 -30.17,0 -54.68,6.03 -73.87,18.1 -19.1,12.1 -28.66,27.49 -28.66,46.17 0,9.79 2.82,18.22 8.55,25.42 5.72,7.11 14.81,13.53 27.43,19.42 12.79,5.79 37.39,12.29 73.67,19.49 20.88,4.13 36.86,7.47 47.73,10.02 39.53,9.47 68.06,21.54 85.51,36.19 17.48,14.66 26.15,33.93 26.15,57.71 0,36.4 -16.17,65.64 -48.43,87.87 -32.14,22.24 -74.96,33.3 -128.25,33.3 -49.66,0 -90,-10.48 -120.98,-31.44 -30.98,-21 -46.84,-48.7 -47.65,-82.96zm-610.27 -82.03c0,45.67 24.14,83.88 72.36,114.82 48.31,30.83 107.83,46.3 178.68,46.3 69.12,0 127.6,-15.67 175.25,-46.84 47.73,-31.28 71.55,-69.65 71.55,-115.37 0,-42.51 -24.53,-79.2 -73.67,-109.96 -49.01,-30.86 -108.11,-46.21 -177.38,-46.21 -28.19,0 -55.27,2.97 -81.29,8.86 -26.11,5.87 -50.13,14.69 -72.26,26.1 -29.01,15.12 -51.82,33.56 -68.42,55.35 -16.54,21.77 -24.82,44.08 -24.82,66.95zm-62.58 -0.63c0,-26.1 8.13,-50.97 24.4,-74.68 16.48,-23.64 39.99,-44.79 70.97,-63.5 29.9,-18.03 62.7,-31.57 98.63,-40.7 35.82,-9.04 74.69,-13.61 116.49,-13.61 42.58,0 82.11,4.57 118.51,13.82 36.46,9.11 69.73,22.81 99.86,40.99 30.98,18.71 54.26,39.63 69.85,62.73 15.58,23.2 23.44,48.15 23.44,74.95 0,26.54 -6.74,50.95 -20.15,73.18 -13.27,22.24 -33.42,42.43 -60.15,60.61 -30.97,20.92 -65.93,36.67 -105.11,47.25 -38.99,10.65 -81.41,16.02 -127.13,16.02 -87.53,0 -161.09,-18.91 -220.5,-56.77 -59.4,-37.75 -89.11,-84.59 -89.11,-140.29zm-399.99 82.66l57.39 0c1.13,23.2 11.84,41.57 32.15,55.34 20.23,13.74 46.94,20.57 79.98,20.57 35.5,0 63.66,-6.83 84.54,-20.45 20.81,-13.62 31.25,-32.18 31.25,-55.46 0,-34 -42.69,-59.64 -128.25,-76.97 -6.68,-1.39 -11.72,-2.36 -15.16,-3.05 -44.52,-9.48 -76.54,-21.44 -96.27,-35.94 -19.57,-14.51 -29.35,-33.37 -29.35,-56.74 0,-29.88 15.09,-54.29 45.37,-73.36 30.25,-19.07 69.31,-28.55 117.27,-28.55 45.71,0 81.99,8.67 108.84,26 26.68,17.29 41.69,41.73 44.7,73.09l-56.59 0c-3.01,-20.38 -12.99,-36.13 -29.66,-47.19 -16.74,-11.06 -39.3,-16.58 -67.42,-16.58 -30.15,0 -54.68,6.03 -73.86,18.1 -19.11,12.1 -28.65,27.49 -28.65,46.17 0,9.79 2.82,18.22 8.53,25.42 5.73,7.11 14.82,13.53 27.43,19.42 12.8,5.79 37.4,12.29 73.67,19.49 20.9,4.13 36.83,7.47 47.73,10.02 39.53,9.47 68.07,21.54 85.52,36.19 17.47,14.66 26.14,33.93 26.14,57.71 0,36.4 -16.16,65.64 -48.43,87.87 -32.13,22.24 -74.95,33.3 -128.24,33.3 -49.7,0 -90,-10.48 -120.99,-31.44 -30.98,-21 -46.83,-48.7 -47.64,-82.96zm-398.33 0l57.39 0c1.17,23.2 11.85,41.57 32.15,55.34 20.23,13.74 46.96,20.57 79.98,20.57 35.5,0 63.7,-6.83 84.54,-20.45 20.81,-13.62 31.25,-32.18 31.25,-55.46 0,-34 -42.65,-59.64 -128.25,-76.97 -6.64,-1.39 -11.68,-2.36 -15.15,-3.05 -44.53,-9.48 -76.51,-21.44 -96.27,-35.94 -19.54,-14.51 -29.36,-33.37 -29.36,-56.74 0,-29.88 15.09,-54.29 45.41,-73.36 30.25,-19.07 69.27,-28.55 117.27,-28.55 45.71,0 81.99,8.67 108.84,26 26.64,17.29 41.69,41.73 44.7,73.09l-56.61 0c-3.03,-20.38 -13.01,-36.13 -29.68,-47.19 -16.7,-11.06 -39.3,-16.58 -67.4,-16.58 -30.17,0 -54.7,6.03 -73.88,18.1 -19.11,12.1 -28.65,27.49 -28.65,46.17 0,9.79 2.82,18.22 8.54,25.42 5.72,7.11 14.85,13.53 27.42,19.42 12.8,5.79 37.4,12.29 73.67,19.49 20.9,4.13 36.87,7.47 47.73,10.02 39.57,9.47 68.11,21.54 85.52,36.19 17.49,14.66 26.14,33.93 26.14,57.71 0,36.4 -16.16,65.64 -48.41,87.87 -32.11,22.24 -74.93,33.3 -128.26,33.3 -49.66,0 -89.96,-10.48 -120.97,-31.44 -30.98,-21 -46.84,-48.7 -47.66,-82.96zm-517.72 107.01l-63.32 0 236.55 -374.77 71.97 0 235.66 374.77 -64 0 -72.8 -117.53 -271.23 0 -72.83 117.53zm323.06 -151.3l-115.56 -188.15 -113.83 188.15 229.39 0zm-835.67 -223.47l59.86 0 192.85 319.43 193.76 -319.43 59.99 0 -229.62 374.77 -47.14 0 -229.7 -374.77zm-429.69 374.77l-63.32 0 236.54 -374.77 71.98 0 235.66 374.77 -64.02 0 -72.78 -117.53 -271.24 0 -72.82 117.53zm323.06 -151.3l-115.57 -188.15 -113.82 188.15 229.39 0zm-734.39 -186.57l0 337.87 -59.18 0 0 -374.77 163.88 0c35.92,0 64.93,1.66 86.82,5 22,3.36 41.82,8.88 59.64,16.62 24.29,10.44 43.48,24.4 57.59,41.88 14.11,17.57 21.15,36.13 21.15,55.62 0,29.01 -14.03,53.95 -42.11,74.84 -28.08,21 -63.16,32.34 -105.27,34.27l147.38 146.54 -71.12 0 -180.97 -180.81 57.87 0c38.4,0 69.65,-6.92 93.82,-20.81 24.14,-13.88 36.13,-31.71 36.13,-53.48 0,-13.19 -3.72,-25.15 -11.18,-35.94 -7.23,-10.83 -18.26,-20.3 -32.69,-28.31 -12.02,-6.69 -26.41,-11.49 -43.27,-14.31 -16.97,-2.82 -46.96,-4.21 -90.12,-4.21l-88.37 0zm-234.11 337.87l-59.98 0 0 -337.87 -121.64 0 0 -36.9 303.3 0 0 36.9 -121.68 0 0 337.87zm3814.57 -750.51c31.56,-7.97 55.18,-17.82 70.89,-29.78 15.55,-11.91 23.41,-25.76 23.41,-41.66 0,-15.36 -7.86,-28.39 -23.68,-39.02 -15.75,-10.6 -34.61,-15.97 -56.73,-15.97 -24.88,0 -45.03,5.26 -60.68,15.7 -15.59,10.44 -23.45,24.33 -23.45,41.42 0,12.1 5.15,23.17 15.25,33.46 10.17,10.13 28.57,22.16 54.99,35.85zm139.7 138.54l-161.78 -97.51c-30.13,9.59 -53.14,21.81 -69,36.67 -15.87,14.9 -23.76,31.71 -23.76,50.28 0,23.68 11.03,42.89 32.88,57.78 22.01,14.77 50.01,22.16 84.43,22.16 26.42,0 50.86,-5.65 72.99,-16.81 22.27,-11.19 43.7,-28.74 64.24,-52.57zm43.58 25.76c-18.71,26.54 -43.97,46.87 -75.68,61.11 -31.83,14.23 -68,21.34 -108.41,21.34 -48.85,0 -90.58,-11.56 -125.32,-34.64 -34.65,-23.14 -52.09,-51.14 -52.09,-84.13 0,-23.67 10.44,-45.63 31.44,-66.05 20.84,-20.36 49.12,-35.78 84.55,-46.3 -27.11,-15.56 -45.72,-29.51 -55.7,-41.96 -9.86,-12.39 -14.88,-27 -14.88,-43.56 0,-25.68 14.3,-47.5 42.85,-65.51 28.7,-18.03 63.96,-27.08 106.13,-27.08 38.02,0 71.01,9.25 98.86,27.73 27.85,18.48 41.84,40.11 41.84,64.86 0,19.96 -9.98,38.29 -30.13,54.81 -20.03,16.47 -48.85,30.05 -86.44,40.69l123.27 73.63 72.13 -122.52 65.16 0 -91.58 150.18 136.14 81.02 -37.87 28.86 -124.27 -72.48zm-1082 -124.2c0,48.04 25.4,88.27 76.12,120.79 50.82,32.46 113.43,48.69 187.95,48.69 72.76,0 134.18,-16.44 184.34,-49.23 50.16,-32.91 75.35,-73.29 75.35,-121.37 0,-44.7 -25.84,-83.34 -77.55,-115.71 -51.57,-32.42 -113.75,-48.58 -186.62,-48.58 -29.62,0 -58.17,3.13 -85.52,9.31 -27.45,6.2 -52.75,15.44 -75.99,27.47 -30.51,15.9 -54.54,35.27 -72.01,58.21 -17.41,22.94 -26.07,46.41 -26.07,70.42zm-65.82 -0.65c0,-27.47 8.53,-53.6 25.71,-78.56 17.29,-24.86 42.04,-47.13 74.6,-66.82 31.44,-18.91 65.99,-33.15 103.7,-42.78 37.71,-9.52 78.59,-14.31 122.6,-14.31 44.79,0 86.41,4.79 124.7,14.5 38.29,9.59 73.29,24.02 105,43.17 32.6,19.69 57.09,41.65 73.49,65.97 16.35,24.41 24.63,50.63 24.63,78.83 0,27.92 -7.08,53.61 -21.15,77.01 -13.96,23.35 -35.15,44.62 -63.27,63.73 -32.65,22 -69.43,38.56 -110.59,49.74 -40.98,11.17 -85.66,16.82 -133.7,16.82 -92.08,0 -169.52,-19.87 -231.98,-59.71 -62.51,-39.72 -93.74,-89 -93.74,-147.59zm-506.68 -157.03l0 319.4 130.74 0c81.41,0 144.22,-14.05 188.24,-42.24 44.08,-28.07 65.93,-68 65.93,-119.59 0,-25.87 -7.45,-49.62 -22.35,-71.51 -15.05,-21.81 -36.36,-40.11 -64.27,-54.88 -20.73,-11.21 -44.22,-19.22 -69.85,-23.95 -25.84,-4.83 -63.44,-7.23 -112.75,-7.23l-115.69 0zm-62.19 -37.7l182.29 0c50.17,0 92.36,3.05 126.51,9.24 34.08,6.11 64.24,15.89 90.28,29.5 36.66,18.93 65.01,42.13 85.31,69.58 20.31,27.46 30.4,56.74 30.4,87.99 0,34.85 -11.14,66.53 -33.41,95.19 -22.37,28.66 -53.96,51.94 -94.61,69.96 -26.91,11.72 -56.05,20.15 -87.49,25.23 -31.36,5.06 -79.79,7.57 -145.11,7.57l-154.17 0 0 -394.26zm-389.39 176.91l269.59 0 0 38.78 -269.59 0 0 140.32 269.59 0 0 38.25 -332.71 0 0 -394.26 332.71 0 0 38.83 -269.59 0 0 138.08zm-642.02 -176.91l62.96 0 202.83 336.05 203.89 -336.05 63.08 0 -241.57 394.26 -49.54 0 -241.65 -394.26zm-311.85 176.91l269.54 0 0 38.78 -269.54 0 0 140.32 269.54 0 0 38.25 -332.65 0 0 -394.26 332.65 0 0 38.83 -269.54 0 0 138.08zm-219.06 -138.08l-281.25 0 0 -38.83 354.31 0 0 37.08 -300.21 318.93 306.51 0 0 38.25 -378.64 0 0 -37.06 299.28 -318.37zm-470.88 196.28l-121.53 -197.95 -119.69 197.95 241.22 0z"/><path fill="#373435" fill-rule="nonzero" d="M809.61 2170.82l0 55.25 14.93 0c9.32,0 16.49,-2.43 21.55,-7.3 5.02,-4.87 7.53,-11.77 7.53,-20.69 0,-4.49 -0.86,-8.58 -2.55,-12.37 -1.73,-3.77 -4.17,-6.95 -7.36,-9.5 -2.38,-1.93 -5.05,-3.33 -8,-4.15 -2.94,-0.82 -7.25,-1.24 -12.87,-1.24l-13.23 0zm-7.12 -6.52l20.84 0c5.74,0 10.57,0.53 14.46,1.59 3.92,1.06 7.36,2.76 10.35,5.11 4.19,3.28 7.43,7.29 9.74,12.03 2.33,4.76 3.48,9.82 3.48,15.22 0,6.04 -1.27,11.52 -3.82,16.46 -2.55,4.97 -6.16,9 -10.82,12.12 -3.08,2.03 -6.41,3.48 -9.99,4.36 -3.61,0.88 -9.13,1.31 -16.62,1.31l-17.62 0 0 -68.2zm121.95 44.51l-49.99 0c0.42,5.61 2.63,10.15 6.55,13.6 3.93,3.46 8.82,5.19 14.7,5.19 4.18,0 7.92,-1 11.23,-3.01 3.35,-2.01 5.9,-4.82 7.72,-8.39l8.04 0c-2.54,5.7 -6.12,10.1 -10.74,13.15 -4.62,3.06 -9.97,4.58 -16.03,4.58 -8.05,0 -14.87,-2.66 -20.45,-8.01 -5.56,-5.33 -8.34,-11.76 -8.34,-19.24 0,-7.85 2.73,-14.32 8.17,-19.44 5.45,-5.13 12.42,-7.69 20.92,-7.69 8.32,0 15.1,2.67 20.35,7.99 5.24,5.32 7.87,12.25 7.87,20.79l0 0.48zm-7.83 -5.75c-1.34,-5.73 -3.81,-10.05 -7.41,-12.94 -3.58,-2.9 -8.28,-4.33 -14.06,-4.33 -5.36,0 -9.92,1.55 -13.66,4.67 -3.7,3.09 -5.99,7.31 -6.83,12.6l41.96 0zm12.47 13.24l7.32 0 0 0.18c0,3.22 1,5.87 2.97,7.99 1.98,2.08 4.43,3.13 7.33,3.13 2.78,0 5.11,-0.81 6.94,-2.43 1.84,-1.62 2.76,-3.68 2.76,-6.13 0,-2.46 -0.73,-4.45 -2.19,-5.95 -1.47,-1.48 -4.12,-2.9 -7.94,-4.21 -6.12,-2.03 -10.13,-4.11 -12.01,-6.23 -1.86,-2.13 -2.81,-4.97 -2.81,-8.53 0,-4.03 1.57,-7.44 4.7,-10.25 3.14,-2.81 6.96,-4.23 11.4,-4.23 4.74,0 8.5,1.24 11.28,3.76 2.77,2.49 4.27,5.98 4.47,10.45l-7.62 0c-0.17,-2.45 -1,-4.32 -2.5,-5.66 -1.48,-1.35 -3.52,-2.03 -6.1,-2.03 -2.32,0 -4.25,0.72 -5.78,2.18 -1.55,1.46 -2.32,3.27 -2.32,5.4 0,1.54 0.33,2.84 0.95,3.88 0.65,1.05 1.69,2 3.18,2.83 1.32,0.77 3.29,1.53 5.86,2.26 2.59,0.7 4.29,1.23 5.19,1.58 3.45,1.36 6.01,3.21 7.64,5.48 1.63,2.28 2.43,5.17 2.43,8.71 0,4.43 -1.66,8.11 -4.97,11.01 -3.35,2.9 -7.55,4.35 -12.65,4.35 -5.2,0 -9.38,-1.58 -12.55,-4.76 -3.15,-3.16 -4.81,-7.42 -4.98,-12.78zm90.43 -9.07c0,-5.86 -2.11,-10.88 -6.27,-15.02 -4.2,-4.15 -9.09,-6.23 -14.75,-6.23 -5.84,0 -10.83,1.98 -14.99,5.92 -4.18,3.96 -6.25,8.78 -6.25,14.5 0,6.02 2.09,11.07 6.25,15.16 4.19,4.11 9.25,6.15 15.2,6.15 5.45,0 10.32,-2.04 14.5,-6.15 4.2,-4.09 6.31,-8.86 6.31,-14.33zm-0.2 -18.12l0 -11.47 0 -13.34 7.11 0 0 68.2 -7.11 0 0 -7.8c-2.48,2.87 -5.58,5.11 -9.27,6.72 -3.7,1.62 -7.59,2.42 -11.75,2.42 -7.98,0 -14.69,-2.62 -20.16,-7.86 -5.47,-5.24 -8.21,-11.68 -8.21,-19.3 0,-7.56 2.7,-13.92 8.1,-19.08 5.4,-5.18 12.18,-7.77 20.27,-7.77 4.38,0 8.35,0.8 11.93,2.38 3.58,1.58 6.61,3.87 9.09,6.9zm72.66 19.7l-50.01 0c0.43,5.61 2.63,10.15 6.55,13.6 3.94,3.46 8.83,5.19 14.7,5.19 4.18,0 7.93,-1 11.24,-3.01 3.34,-2.01 5.89,-4.82 7.71,-8.39l8.05 0c-2.54,5.7 -6.13,10.1 -10.74,13.15 -4.62,3.06 -9.96,4.58 -16.03,4.58 -8.05,0 -14.88,-2.66 -20.44,-8.01 -5.58,-5.33 -8.36,-11.76 -8.36,-19.24 0,-7.85 2.72,-14.32 8.18,-19.44 5.44,-5.13 12.42,-7.69 20.91,-7.69 8.32,0 15.11,2.67 20.36,7.99 5.24,5.32 7.88,12.25 7.88,20.79l0 0.48zm-7.85 -5.75c-1.32,-5.73 -3.81,-10.05 -7.4,-12.94 -3.59,-2.9 -8.28,-4.33 -14.06,-4.33 -5.38,0 -9.91,1.55 -13.66,4.67 -3.7,3.09 -5.99,7.31 -6.83,12.6l41.95 0zm73.43 29.44l-7.63 0 0 -62.35 -12.79 0 0 -5.85 20.42 0 0 68.2zm52.98 -29.64c5.02,0 9.22,-1.64 12.64,-4.88 3.4,-3.24 5.09,-7.25 5.09,-11.99 0,-4.8 -1.73,-8.85 -5.18,-12.14 -3.49,-3.3 -7.7,-4.95 -12.66,-4.95 -4.79,0 -8.8,1.6 -12.04,4.77 -3.25,3.19 -4.85,7.27 -4.85,12.22 0,4.95 1.6,9.01 4.79,12.19 3.22,3.18 7.27,4.78 12.21,4.78zm-1.7 29.64l-9.02 0 17.11 -24.71c-1.58,0.32 -3.03,0.59 -4.34,0.77 -1.31,0.17 -2.51,0.25 -3.56,0.25 -6.65,0 -12.16,-2.16 -16.49,-6.45 -4.35,-4.32 -6.53,-9.75 -6.53,-16.28 0,-6.71 2.35,-12.26 7.05,-16.64 4.7,-4.38 10.67,-6.59 17.91,-6.59 7.15,0 13.06,2.16 17.76,6.5 4.73,4.32 7.07,9.64 7.07,15.94 0,5.47 -3.02,12.52 -9.07,21.19 -0.58,0.82 -1,1.46 -1.32,1.91l-16.57 24.11zm83.35 0l-45.46 0 0 -6.63 25.99 -22.92c5.13,-4.54 8.52,-8.1 10.18,-10.72 1.68,-2.62 2.49,-5.35 2.49,-8.16 0,-4.27 -1.49,-7.85 -4.5,-10.75 -3,-2.89 -6.81,-4.32 -11.44,-4.32 -4.77,0 -8.57,1.47 -11.42,4.43 -2.85,2.93 -4.29,6.87 -4.29,11.78 0,0.25 0.03,0.58 0.07,0.97 0.03,0.42 0.04,0.73 0.04,0.96l-7.12 0 0 -1.06c0,-6.86 2.19,-12.45 6.54,-16.76 4.35,-4.31 9.93,-6.47 16.79,-6.47 6.2,0 11.49,2.08 15.84,6.26 4.35,4.17 6.51,9.3 6.51,15.43 0,3.53 -0.92,6.91 -2.75,10.13 -1.81,3.24 -4.73,6.58 -8.69,10.01l-24.7 21.19 35.92 0 0 6.63zm58.25 0l-45.46 0 0 -6.63 25.99 -22.92c5.13,-4.54 8.51,-8.1 10.18,-10.72 1.68,-2.62 2.5,-5.35 2.5,-8.16 0,-4.27 -1.5,-7.85 -4.5,-10.75 -3.02,-2.89 -6.83,-4.32 -11.45,-4.32 -4.75,0 -8.58,1.47 -11.43,4.43 -2.85,2.93 -4.26,6.87 -4.26,11.78 0,0.25 0.01,0.58 0.04,0.97 0.02,0.42 0.05,0.73 0.05,0.96l-7.12 0 0 -1.06c0,-6.86 2.19,-12.45 6.53,-16.76 4.35,-4.31 9.94,-6.47 16.8,-6.47 6.2,0 11.49,2.08 15.84,6.26 4.33,4.17 6.51,9.3 6.51,15.43 0,3.53 -0.92,6.91 -2.76,10.13 -1.82,3.24 -4.71,6.58 -8.69,10.01l-24.69 21.19 35.92 0 0 6.63z"/><path fill="#fefefe" d="M1090.55 1751.29l28.01 0 0 309.18 28.01 0 0 -309.18 28 0 0 309.18 25.76 0 0 -96.09c160.76,-23.25 299.28,-90.89 390.04,-184.46l-166.45 0 -49.5 -66.85 53.8 0 0 -24 -703.32 0 0 24 53.79 0 -49.49 66.85 -166.43 0c90.75,93.57 229.27,161.2 390.02,184.46l0 96.09 25.77 0 0 -309.18 28.01 0 0 309.18 28 0 0 -309.18 28.01 0 0 309.18 27.97 0 0 -309.18zm-365.65 -206.12l178.07 0 173.59 -234.5 173.58 234.5 178.08 0 0 23.98 -703.32 0 0 -23.98zm0 95.93l703.32 0 0 23.98 -703.32 0 0 -23.98zm0 -47.96l703.32 0 0 23.99 -703.32 0 0 -23.99zm891.85 157.2c55.03,-67.32 86.65,-145.84 86.65,-229.7 0,-249.96 -280.65,-452.59 -626.83,-452.59 -346.19,0 -626.83,202.63 -626.83,452.59 0,83.86 31.6,162.37 86.65,229.69l456.15 -616.19 168.06 0 456.15 616.2z"/></g></g></g></svg>