<svg  id="fndm-yxey4ofdhx" viewBox="135 80 329.9530029296875 90.99700927734375" xmlns="http://www.w3.org/2000/svg">
   <g xmlns="http://www.w3.org/2000/svg" fill-rule="evenodd" fill="none">
    <path d="m432.224,92.114l5.13,0l0,-3.909l-5.13,0l0,3.909z" fill="#5359A3"/>
    <path d="m413.302,147.236l15.771,0l0,-16.418l-15.77,0l-0.001,16.418z" fill="#912582"/>
    <path d="m423.554,157.4l10.25,0l0,-6.255l-10.25,0l0,6.255z" fill="#6281C0"/>
    <path d="m417.64,166l12.222,0l0,-12.118l-12.223,0l0.001,12.118z" fill="#E63F16"/>
    <path d="m433.016,147.627l10.646,0l0,-4.69l-10.646,0l0,4.69z" fill="#D1191C"/>
    <path d="m429.073,137.073l11.04,0l0,-2.737l-11.04,0l0,2.737z" fill="#F4A000"/>
    <path d="m443.662,144.887l7.495,0l0,-1.95l-7.495,0l0,1.95z" fill="#7298CF"/>
    <path d="m429.073,134.727l10.256,0l0,-13.29l-10.256,0l0,13.29z" fill="#3169B0"/>
    <path d="m408.965,130.818l20.108,0l0,-19.545l-20.108,0l0,19.545z" fill="#81CCE2"/>
    <path d="m397.137,122.218l13.401,0l0,-10.945l-13.401,0l0,10.945z" fill="#9AC21C"/>
    <path d="m414.485,111.664l22.872,0l0,-18.764l-22.872,0l0,18.764z" fill="#5359A3"/>
    <path d="m439.325,133.945l16.555,0l0,-20.327l-16.555,0l0,20.327z" fill="#219BD6"/>
    <path d="m436.959,142.545l14.198,0l0,-17.59l-14.198,0l0,17.59z" fill="#F4A000"/>
    <path d="m429.073,147.24l10.646,0l0,-10.167l-10.646,0l0,10.167z" fill="#D1191C"/>
    <path d="m422.765,151.145l13.8,0l0,-7.427l-13.8,0l0,7.427z" fill="#0696A6"/>
    <path d="m451.157,140.982l2.756,0l0,-8.987l-2.756,0l0,8.987z" fill="#B4C7E6"/>
    <path d="m456.279,117.527l7.487,0l0,-4.69l-7.487,0l0,4.69z" fill="#3FB7B0"/>
    <path d="m455.49,120.655l5.52,0l0,-3.128l-5.52,0l0,3.128z" fill="#B1194F"/>
    <path d="m429.073,121.436l10.256,0l0,-17.981l-10.256,0l0,17.981z" fill="#80C397"/>
    <path d="m439.325,113.618l13.8,0l0,-17.59l-13.8,0l0,17.59z" fill="#EBDF00"/>
    <path d="m437.353,109.318l10.252,0l0,-16.418l-10.252,0l0,16.418z" fill="#32B9D2"/>
    <path d="m451.157,113.614l13.796,0l0,-4.69l-13.796,0l0,4.69z" fill="#77AEDD"/>
    <path d="m453.519,108.927l6.702,0l0,-10.554l-6.702,0l0,10.554z" fill="#E04490"/>
    <path d="m457.856,105.8l6.308,0l0,-4.3l-6.308,0l0,4.3z" fill="#623A8D"/>
    <path d="m456.279,110.1l8.674,0l0,-4.304l-8.674,0l0,4.304z" fill="#FDD900"/>
    <path d="m432.228,92.118l5.13,0l0,-4.3l-5.13,0l0,4.3zm-17.743,6.646l9.463,0l0,-10.555l-9.463,0l0,10.555z" fill="#5359A3"/>
    <path d="m385.308,111.664l29.173,0l0,-23.455l-29.173,0l0,23.455z" fill="#1DB5E7"/>
    <path d="m400.291,93.29l10.247,0l0,-13.29l-10.247,0l0,13.29z" fill="#34A636"/>
    <path d="m379.394,116.745l18.926,0l0,-7.427l-18.926,0l0,7.427z" fill="#EAB900"/>
    <path d="m423.948,92.9l7.491,0l0,-11.731l-7.491,0l0,11.731z" fill="#C3D000"/>
    <path d="m433.805,128.082l3.154,0l0,-3.127l-3.154,0l0,3.127z" fill="#9AC21C"/>
    <path d="m327.83,111.948l-18.458,0l0,30.517c0,10.305 -6.284,12.679 -10.211,12.679c-5.891,0 -9.033,-2.77 -9.033,-10.301l0,-33.292l-18.458,0l0,34.877c0,15.06 4.713,24.569 21.207,24.569c6.677,0 13.746,-3.563 17.28,-9.508l0.393,0l0,7.926l18.065,0l0,-57.467l-0.785,0z" fill="#3169B0"/>
    <path d="m174.273,112.342l9.033,27.743l-17.673,0l8.64,-27.743zm-39.273,57.072l20.815,0l5.105,-14.268l27.099,0l4.712,14.268l21.208,0l-29.062,-78.87l-20.815,0l-29.062,78.87zm80.117,0l54.196,0l0,-14.268l-30.24,0l28.276,-28.536l0,-14.268l-49.876,0l0,14.268l25.92,0l-28.276,28.536l0,14.268zm117.032,0l18.459,0l0,-78.87l-18.459,0l0,78.87z" fill="#011E41"/>
   </g>
  </svg>