<svg  id="fndm-3dej5xxv68" viewBox="110 32.62300109863281 377.6619873046875 169.3769989013672" xlink="http://www.w3.org/1999/xlink" xmlns="http://www.w3.org/2000/svg">
   <defs xmlns="http://www.w3.org/2000/svg">
    <path d="m0.275,0.625l28.835,0l0,37.899l-28.835,0l0,-37.899z" id="fndm-prbixp3oy2"/>
    <path d="m0.296,0.812l26.369,0l0,26.676l-26.37,0l0.001,-26.676z" id="fndm-gvshlfi242"/>
   </defs>
   <g xmlns="http://www.w3.org/2000/svg" fill-rule="evenodd" fill="none">
    <path d="m219.629,121.009c3.632,-4.753 5.814,-10.665 5.814,-17.093c0,-15.568 -12.664,-28.235 -28.228,-28.235l-51.597,0l0,95.391l56.138,0c15.567,0 28.229,-12.665 28.229,-28.232c0,-8.789 -4.038,-16.649 -10.356,-21.831zm-50.592,-27.779l23.546,0c5.895,0 10.69,4.792 10.69,10.686c0,5.897 -4.795,10.689 -10.69,10.689l-23.546,0l0,-21.375zm25.66,60.298l-25.66,0l0,-21.38l25.66,0c5.892,0 10.682,4.798 10.682,10.692c0,5.893 -4.79,10.688 -10.683,10.688l0.001,0z" fill="#004384"/>
    <g transform="translate(277.076 32)">
     <mask id="fndm-ggeja1dbyd">
      <use xmlns:xlink="http://www.w3.org/1999/xlink" xlink:href="#fndm-prbixp3oy2"/>
     </mask>
     <path mask="url(#fndm-ggeja1dbyd)" d="m29.11,26.664c0,3.465 -1.32,6.308 -3.974,8.53c-2.654,2.216 -6.058,3.33 -10.206,3.33c-3.897,0 -7.192,-1.03 -9.876,-3.09c-2.675,-2.047 -4.268,-4.846 -4.779,-8.392l10.512,0c0.793,2.048 2.198,3.087 4.254,3.087c1.26,0 2.293,-0.333 3.116,-1c0.804,-0.67 1.212,-1.546 1.212,-2.627c0,-1.048 -0.396,-1.886 -1.188,-2.52c-0.796,-0.633 -1.897,-0.948 -3.308,-0.948l-3.563,0l0,-7.359l3.296,0c1.335,0 2.4,-0.297 3.193,-0.895c0.793,-0.594 1.19,-1.38 1.19,-2.353c0,-1.084 -0.367,-1.952 -1.109,-2.6c-0.738,-0.652 -1.74,-0.976 -3.007,-0.976c-1.261,0 -2.297,0.432 -3.11,1.303c-0.483,0.52 -0.838,1.213 -1.09,2.047l-10.029,0c0.577,-3.639 2.138,-6.482 4.68,-8.52c2.543,-2.041 5.71,-3.058 9.498,-3.058c4.004,0 7.3,1.08 9.875,3.249c2.579,2.164 3.873,4.924 3.873,8.28c0,3.069 -1.261,5.417 -3.783,7.038c2.885,1.627 4.323,4.113 4.323,7.473" fill="#004384"/>
    </g>
    <path d="m110,47l0,155l36,0l0,-11.7l-24.332,0l0,-131.645l24.332,0l0,-11.655l-36,0zm119,0l0,11.658l24.329,0l0,131.645l-24.329,0l0,11.697l36,0l0,-155l-36,0zm122.473,110.81c1.663,0.18 2.998,0.827 4.013,1.94c1.008,1.113 1.514,2.535 1.514,4.271c0,2.066 -0.703,3.745 -2.11,5.04c-1.406,1.298 -3.313,1.939 -5.725,1.939l-12.165,0l0,-26l11.438,0c2.412,0 4.285,0.608 5.644,1.824c1.362,1.216 2.038,2.835 2.038,4.852c0,1.606 -0.452,2.965 -1.347,4.075c-0.897,1.113 -1.993,1.77 -3.3,1.978l0,0.082l0,-0.001zm-12.519,-0.74l9.909,0c1.613,0 2.915,-0.487 3.917,-1.473c1,-0.987 1.494,-2.266 1.494,-3.84c0,-1.527 -0.53,-2.752 -1.595,-3.668c-1.06,-0.92 -2.526,-1.38 -4.394,-1.38l-9.33,0l0,10.36l-0.001,0.001zm10.062,12.227c1.813,0 3.274,-0.5 4.375,-1.497c1.104,-0.996 1.649,-2.293 1.649,-3.9c0,-1.6 -0.557,-2.867 -1.664,-3.805c-1.113,-0.926 -2.586,-1.392 -4.396,-1.392l-10.026,0l0,10.594l10.062,0zm33.925,1.703l-3.133,-7.1l-14.578,0l-3.169,7.1l-2.061,0l11.64,-26l1.72,0l11.64,26l-2.059,0zm-10.417,-23.516l-6.496,14.632l12.985,0l-6.49,-14.632l0.001,0zm35.476,23.516l-18,0l0,-26l2.02,0l0,24.218l15.98,0l0,1.782zm19.097,-2.078c1.809,-1.184 3.096,-2.788 3.87,-4.822l1.887,0.465c-0.873,2.443 -2.388,4.375 -4.548,5.805c-2.151,1.424 -4.663,2.14 -7.54,2.14c-3.72,0 -6.86,-1.296 -9.43,-3.88c-2.566,-2.58 -3.85,-5.735 -3.85,-9.464c0,-3.72 1.284,-6.877 3.85,-9.46c2.57,-2.582 5.71,-3.87 9.43,-3.87c2.877,0 5.389,0.705 7.54,2.118c2.16,1.415 3.675,3.316 4.548,5.702l-1.848,0.58c-0.74,-2.028 -2.028,-3.639 -3.846,-4.816c-1.828,-1.184 -3.955,-1.773 -6.394,-1.773c-3.184,0 -5.872,1.112 -8.062,3.332c-2.197,2.223 -3.295,4.954 -3.295,8.187c0,3.242 1.098,5.976 3.295,8.196c2.19,2.22 4.878,3.335 8.062,3.335c2.41,0 4.521,-0.592 6.33,-1.775m30.889,3.155l-3.159,-7.051l-14.696,0l-3.201,7.051l-2.08,0l11.741,-25.823l1.731,0l11.74,25.823l-2.076,0zm-10.507,-23.35l-6.547,14.526l13.094,0l-6.547,-14.526zm-3.477,-7.962c-0.3,0.345 -0.453,0.814 -0.453,1.403l-1.42,0c0,-1.103 0.285,-1.944 0.846,-2.524c0.568,-0.577 1.273,-0.865 2.119,-0.865c0.768,0 1.611,0.342 2.52,1.018c0.912,0.685 1.65,1.028 2.211,1.028c0.486,0 0.865,-0.186 1.138,-0.544c0.27,-0.36 0.402,-0.847 0.402,-1.463l1.464,0c0,1.13 -0.28,1.983 -0.828,2.563c-0.55,0.577 -1.245,0.868 -2.095,0.868c-0.77,0 -1.61,-0.337 -2.523,-1.004c-0.912,-0.67 -1.638,-1.003 -2.175,-1.003c-0.513,0 -0.915,0.174 -1.206,0.523z" fill="#004384"/>
    <g transform="translate(460.996 145.02)">
     <mask id="fndm-lfuhqwrhxs">
      <use xmlns:xlink="http://www.w3.org/1999/xlink" xlink:href="#fndm-gvshlfi242"/>
     </mask>
     <path mask="url(#fndm-lfuhqwrhxs)" d="m22.856,4.684c2.544,2.584 3.81,5.742 3.81,9.461c0,3.756 -1.266,6.914 -3.81,9.485c-2.538,2.57 -5.662,3.858 -9.358,3.858c-3.715,0 -6.847,-1.289 -9.389,-3.858c-2.541,-2.57 -3.813,-5.73 -3.813,-9.485c0,-3.72 1.278,-6.877 3.84,-9.46c2.545,-2.583 5.671,-3.874 9.362,-3.874c3.696,0 6.82,1.291 9.358,3.872m-1.368,17.679c2.172,-2.218 3.255,-4.952 3.255,-8.218c0,-3.232 -1.083,-5.967 -3.255,-8.187c-2.167,-2.22 -4.828,-3.332 -7.99,-3.332c-3.18,0 -5.851,1.112 -8.023,3.332c-2.173,2.22 -3.253,4.955 -3.253,8.187c0,3.266 1.08,6 3.253,8.218c2.172,2.205 4.842,3.31 8.023,3.31c3.162,0 5.823,-1.105 7.99,-3.31" fill="#004384"/>
    </g>
    <path d="m352.178,124.126c1.485,0.178 2.727,0.814 3.714,1.908c0.987,1.094 1.485,2.497 1.485,4.221c0,2.107 -0.702,3.801 -2.1,5.087c-1.401,1.283 -3.366,1.926 -5.908,1.926l-12.358,0l0,-25.824l11.857,0c2.382,0 4.26,0.62 5.623,1.854c1.36,1.229 2.037,2.875 2.037,4.93c0,1.569 -0.426,2.885 -1.287,3.954c-0.861,1.064 -1.881,1.674 -3.063,1.827l0,0.117zm-12.125,-1.117l8.78,0c1.43,0 2.591,-0.424 3.48,-1.271c0.89,-0.85 1.329,-1.968 1.329,-3.356c0,-1.307 -0.456,-2.356 -1.368,-3.14c-0.91,-0.784 -2.137,-1.175 -3.67,-1.175l-8.551,0l0,8.942zm9.05,11.642c1.586,0 2.856,-0.427 3.786,-1.277c0.936,-0.844 1.407,-1.974 1.407,-3.386c0,-1.364 -0.48,-2.458 -1.443,-3.275c-0.963,-0.826 -2.203,-1.24 -3.718,-1.24l-9.082,0l0,9.178l9.05,0zm34.002,-19.812c2.577,2.592 3.876,5.768 3.876,9.52c0,3.75 -1.3,6.923 -3.876,9.519c-2.575,2.596 -5.728,3.894 -9.446,3.894c-3.747,0 -6.913,-1.298 -9.493,-3.894c-2.577,-2.596 -3.87,-5.769 -3.87,-9.518c0,-3.753 1.293,-6.929 3.87,-9.521c2.58,-2.596 5.746,-3.894 9.493,-3.894c3.718,0 6.871,1.298 9.446,3.894m-2.176,17.017c1.98,-2.016 2.97,-4.519 2.97,-7.496c0,-2.96 -0.99,-5.456 -2.97,-7.496c-1.971,-2.046 -4.395,-3.068 -7.27,-3.068c-2.901,0 -5.337,1.022 -7.315,3.068c-1.977,2.04 -2.964,4.536 -2.964,7.496c0,2.977 0.987,5.48 2.964,7.496c1.978,2.016 4.414,3.022 7.315,3.022c2.875,0 5.299,-1.006 7.27,-3.022m29.071,5.144l-18,0l0,-26l3.07,0l0,23.208l14.93,0l0,2.792zm17.333,-24.062c1.726,1.295 2.808,3.027 3.242,5.198l-3.033,0.699c-0.284,-1.579 -1.023,-2.83 -2.226,-3.762c-1.202,-0.931 -2.689,-1.397 -4.45,-1.397c-1.739,0 -3.147,0.436 -4.221,1.3c-1.074,0.865 -1.613,1.996 -1.613,3.396c0,1.11 0.326,1.972 0.978,2.576c0.656,0.611 1.619,1.044 2.9,1.304l5.605,1.279c4.322,0.931 6.485,3.184 6.485,6.75c0,2.352 -0.873,4.226 -2.611,5.62c-1.741,1.4 -4.057,2.099 -6.946,2.099c-2.791,0 -5.148,-0.695 -7.08,-2.074c-1.933,-1.385 -3.049,-3.281 -3.363,-5.685l3.186,-0.66c0.284,1.815 1.1,3.212 2.459,4.21c1.358,0.995 3.042,1.494 5.064,1.494c1.944,0 3.473,-0.445 4.589,-1.34c1.11,-0.892 1.669,-2.065 1.669,-3.508c0,-1.191 -0.33,-2.086 -0.981,-2.676c-0.652,-0.595 -1.717,-1.061 -3.204,-1.403l-5.794,-1.276c-4.122,-0.934 -6.18,-3.142 -6.18,-6.634c0,-2.223 0.84,-4.019 2.512,-5.392c1.679,-1.37 3.883,-2.056 6.623,-2.056c2.53,0 4.664,0.647 6.39,1.938m29.382,24.062l-2.897,-6.595l-13.636,0l-2.906,6.595l-3.276,0l11.59,-26l2.816,0l11.594,26l-3.285,0zm-9.7,-22.198l-5.643,12.845l11.25,0l-5.607,-12.845z" fill="#004384"/>
    <path d="m353.21,89.371c1.364,0.153 2.531,0.768 3.502,1.845c0.968,1.077 1.456,2.478 1.456,4.194c0,2.157 -0.714,3.876 -2.139,5.157c-1.43,1.284 -3.496,1.93 -6.192,1.93l-12.815,0l0,-25.793l12.537,0c2.383,0 4.286,0.636 5.701,1.905c1.412,1.272 2.117,2.961 2.117,5.064c0,1.515 -0.423,2.77 -1.274,3.771c-0.849,1.002 -1.814,1.59 -2.893,1.77l0,0.156l0,0.001zm-11.982,-1.503l7.862,0c1.25,0 2.27,-0.366 3.045,-1.098c0.77,-0.729 1.155,-1.686 1.155,-2.868c0,-1.077 -0.386,-1.956 -1.155,-2.634c-0.775,-0.68 -1.78,-1.02 -3.008,-1.02l-7.899,0l0,7.62zm8.177,11.085c1.385,0 2.47,-0.36 3.26,-1.077c0.784,-0.717 1.18,-1.67 1.18,-2.847c0,-1.158 -0.399,-2.085 -1.201,-2.793c-0.8,-0.705 -1.839,-1.056 -3.128,-1.056l-8.288,0l0,7.773l8.177,0zm31.319,3.543l-9.39,-10.275l-3.815,0l0,10.275l-4.206,0l0,-25.788l12.38,0c2.696,0 4.878,0.714 6.544,2.136c1.667,1.422 2.504,3.303 2.504,5.637c0,2.208 -0.76,4.011 -2.27,5.41c-1.505,1.397 -3.515,2.162 -6.027,2.288l9.507,10.317l-5.227,0zm-5.03,-14.01c1.442,0 2.607,-0.366 3.501,-1.098c0.892,-0.732 1.336,-1.7 1.336,-2.907c0,-1.203 -0.444,-2.178 -1.336,-2.922c-0.894,-0.747 -2.059,-1.119 -3.502,-1.119l-8.174,0l0,8.046l8.174,0l0.001,0zm32.769,14.514l-2.587,-6.058l-12.752,0l-2.584,6.058l-4.54,0l11.547,-26l3.912,0l11.541,26l-4.537,0zm-8.96,-20.919l-4.738,11.062l9.476,0l-4.738,-11.062zm31.622,-4.109c1.827,1.315 2.97,3.094 3.446,5.341l-4.21,0.848c-0.239,-1.367 -0.907,-2.47 -2.007,-3.309c-1.101,-0.835 -2.438,-1.257 -4.01,-1.257c-1.549,0 -2.79,0.368 -3.74,1.104c-0.942,0.735 -1.414,1.682 -1.414,2.843c0,0.905 0.27,1.614 0.806,2.126c0.534,0.52 1.386,0.89 2.536,1.125l5.708,1.2c4.507,0.98 6.76,3.34 6.76,7.082c0,2.421 -0.926,4.348 -2.774,5.78c-1.85,1.43 -4.29,2.145 -7.33,2.145c-2.913,0 -5.378,-0.673 -7.401,-2.03c-2.017,-1.354 -3.182,-3.242 -3.495,-5.666l4.485,-0.926c0.313,1.622 1.07,2.856 2.278,3.691c1.208,0.839 2.713,1.258 4.525,1.258c1.729,0 3.09,-0.365 4.068,-1.1c0.987,-0.734 1.478,-1.71 1.478,-2.923c0,-0.98 -0.282,-1.728 -0.85,-2.244c-0.564,-0.516 -1.514,-0.917 -2.844,-1.2l-5.746,-1.158c-4.433,-1.007 -6.646,-3.354 -6.646,-7.042c0,-2.298 0.883,-4.147 2.652,-5.555c1.769,-1.405 4.114,-2.105 7.023,-2.105c2.646,0 4.88,0.654 6.702,1.972m8.875,25.028l4,0l0,-26l-4,0l0,26zm30,0l-19,0l0,-26l4.302,0l0,22.234l14.698,0l0,3.766z" fill="#00BCED"/>
   </g>
  </svg>