<svg  id="fndm-rorl3oizp2" viewBox="0.5467004776000977 -0.0234375 1051.541259765625 239.41763305664062" xmlns="http://www.w3.org/2000/svg">
   <g xmlns="http://www.w3.org/2000/svg" fill="none">
    <path d="m0.643,115.03c-2.836,-58.26 57.427,-116.138 120.024,-115.038c67.062,1.18 119.559,53.319 119.192,120.733c-0.36,65.797 -54.518,119.383 -119.986,118.662c-67.5,-0.737 -119.547,-55.026 -119.23,-124.357zm54.788,73.398c14.447,0 26.381,0.619 38.18,-0.402c3.284,-0.284 8.769,-5.378 8.814,-8.327c0.567,-39.706 0.636,-79.411 -0.204,-119.116c-0.068,-3.07 -7.992,-8.616 -12.076,-8.446c-11.532,0.476 -22.973,3.312 -34.419,5.371c-0.26,0.046 -0.284,1.855 -0.284,2.836c-0.04,42.065 -0.011,84.147 -0.011,128.084zm57.29,-0.232c16.313,0 31.134,0.953 45.78,-0.261c15.712,-1.3 25.666,-12.297 26.897,-26.83c1.537,-18.054 -5.468,-33.182 -19.943,-35.1c-17.21,-2.268 -34.952,-0.532 -52.752,-0.532l0.017,62.723l0.001,0zm-0.5,-73.79c16.642,0 31.413,0.465 46.15,-0.125c16.449,-0.663 26.693,-12.195 27.135,-29.195c0.51,-19.597 -8.605,-31.73 -26.189,-33.074a226.82,226.82 0 0 0 -37.141,0.09c-3.562,0.313 -9.314,5.764 -9.507,9.122c-0.964,16.767 -0.43,33.619 -0.43,53.182l-0.018,0zm690.954,-54.714c1.803,-0.845 2.223,-1.191 2.666,-1.225c27.38,-2.269 27.374,-2.235 37.958,22.41c5.406,12.587 10.85,25.163 17.374,40.273c7.374,-17.198 14.589,-31.373 19.495,-46.307c4.402,-13.415 11.645,-19.462 25.724,-16.955c3.806,0.675 7.77,0.454 12.825,0.704l0,84.09l-16.807,0l0,-62.961l-3.403,-1.067c-7.579,17.232 -14.998,34.527 -22.803,51.651c-2.881,6.32 -3.823,13.92 -14.498,13.914c-10.306,0 -11.968,-6.642 -14.94,-13.34c-7.613,-17.125 -15.315,-34.21 -25.316,-51.085l0,63.07l-18.275,0l0,-83.172zm-488.076,-1.73c18.843,0 36.302,-1.134 53.477,0.482c8.333,0.783 19.422,4.566 23.489,10.777c5.95,9.076 4.538,21.095 -6.54,29.41c12.864,8.169 14.43,19.774 9.716,32.588c-4.503,12.246 -15.78,12.297 -26.171,12.524c-17.72,0.385 -35.457,0.108 -53.971,0.108l0,-85.889zm20.369,48.4l0,23.064c11.1,0 21.095,1.106 30.63,-0.51c4.157,-0.704 10.141,-6.915 10.21,-10.778c0.068,-3.862 -5.673,-10.607 -9.643,-11.259c-9.944,-1.61 -20.375,-0.516 -31.197,-0.516l0,-0.001zm-0.607,-12.92c11.202,0 21.112,1.01 30.63,-0.522c3.539,-0.567 8.32,-7.011 8.445,-10.902c0.097,-3.12 -5.672,-8.696 -9.404,-9.217c-9.518,-1.328 -19.342,-0.443 -29.654,-0.443l-0.017,21.084zm227.069,49.422l0,-83.864l16.115,0c0.567,0.771 1.543,1.492 1.645,2.314c1.248,10.114 0.329,28.044 3.885,28.98c13.296,3.477 28.05,1.39 43.812,1.39l0,-33.093l18.662,0l0,83.988l-18.236,0l0,-35.553c-14.107,0 -26.864,-0.568 -39.484,0.453c-2.836,0.233 -6.971,5.905 -7.46,9.496c-1.134,8.168 -0.357,16.596 -0.357,25.87l-18.582,0.018l0,0.001zm-36.381,-0.114c-11.209,1.611 -20.528,3.852 -24.34,-9.285c-0.731,-2.541 -5.853,-5.134 -9.115,-5.36a233.31,233.31 0 0 0 -29.74,0c-2.88,0.17 -7.526,2.41 -8.1,4.571c-3.402,12.763 -12.336,12.02 -24.787,10.13c5.298,-13.84 10.278,-26.891 15.315,-39.931a4342.221,4342.221 0 0 1 10.777,-27.715c6.807,-17.448 12.78,-20.783 31.01,-16.977c2.428,0.51 5.633,2.428 6.495,4.51c10.959,26.398 21.554,52.944 32.485,80.057zm-31.322,-28.36l-16.898,-43.864c-6.426,17.017 -11.344,29.944 -16.596,43.863l33.494,0l0,0.001zm196.888,-55.832l67.998,0c2.78,9.319 1.322,14.294 -9.643,13.84c-12.354,-0.505 -24.742,-0.114 -38.36,-0.114l0,21.464c12.07,0 24.333,-0.408 36.534,0.272c3.335,0.187 6.483,3.659 9.722,5.627c-3.375,2.416 -6.614,6.654 -10.148,6.914c-11.77,0.88 -23.641,0.335 -36.41,0.335l0,22.292l48.345,0c0.972,1.656 1.938,3.312 2.898,4.969c-3.471,3.222 -6.806,9.075 -10.431,9.234c-19.768,0.913 -39.598,0.437 -60.522,0.437l0.017,-85.27zm360.973,83.908c-10.947,1.634 -19.41,4.413 -23.75,-7.94c-1.134,-3.171 -7.254,-5.917 -11.378,-6.405a121.708,121.708 0 0 0 -25.264,-0.056c-3.812,0.346 -9.745,2.456 -10.658,5.15c-4.198,12.32 -12.7,11.872 -24.867,9.166c10.641,-27.062 19.796,-54.243 32.712,-79.507c2.268,-4.458 27.612,-4.668 29.818,-0.397c13.03,25.253 22.377,52.411 33.387,79.99l0,-0.001zm-47.913,-71.776c-6.325,16.524 -11.345,29.66 -16.642,43.478l33.38,0c-5.4,-14.027 -10.312,-26.807 -16.738,-43.478z" fill="#000"/>
    <path d="m55.431,188.428l0,-128.1c0,-0.988 0,-2.797 0.284,-2.837c11.446,-2.059 22.887,-4.895 34.419,-5.371c4.084,-0.17 12.008,5.377 12.076,8.446c0.84,39.705 0.777,79.41 0.204,119.116c-0.045,2.95 -5.53,8.043 -8.815,8.327c-11.787,1.038 -23.72,0.42 -38.168,0.42l0,-0.001zm57.306,-0.232l0,-62.723c17.783,0 35.525,-1.742 52.752,0.533c14.475,1.917 21.48,17.045 19.943,35.1c-1.23,14.532 -11.185,25.524 -26.897,26.829c-14.646,1.214 -29.484,0.26 -45.798,0.26l0,0.001zm-0.499,-73.79c0,-19.563 -0.533,-36.415 0.448,-53.182c0.193,-3.358 5.945,-8.81 9.507,-9.121a226.82,226.82 0 0 1 37.141,-0.091c17.584,1.344 26.7,13.477 26.189,33.074c-0.442,17.017 -10.71,28.532 -27.136,29.195c-14.736,0.59 -29.507,0.125 -46.149,0.125z" fill="#F5CA47"/>
    <path d="m335.468,106.363c10.822,0 21.253,-1.095 31.236,0.539c3.971,0.652 9.734,7.408 9.643,11.26c-0.09,3.85 -6.08,10.05 -10.21,10.776c-9.54,1.617 -19.535,0.51 -30.63,0.51l-0.04,-23.085l0.001,0zm-0.608,-12.921l0,-21.084c10.313,0 20.137,-0.885 29.655,0.443c3.72,0.521 9.5,6.097 9.404,9.217c-0.124,3.891 -4.906,10.335 -8.445,10.902c-9.501,1.531 -19.41,0.522 -30.613,0.522l-0.001,0zm159.367,20.975l-33.467,0c5.264,-13.92 10.17,-26.869 16.597,-43.863l16.869,43.863l0.001,0zm509.948,-43.727c6.415,16.671 11.344,29.45 16.738,43.478l-33.38,0c5.292,-13.818 10.317,-26.954 16.642,-43.478z" fill="#FFF"/>
   </g>
  </svg>