<svg xmlns="http://www.w3.org/2000/svg" fill-rule="evenodd" clip-rule="evenodd" image-rendering="optimizeQuality" shape-rendering="geometricPrecision" text-rendering="geometricPrecision" viewBox="-7.130000114440918 0.5299999713897705 6600 3300"><g><rect width="6600" height="3300" x="-7.13" y="0.53" fill="none"/><g><path fill="#079652" d="M6085.02 679.09c-3.11,1.4 -317.62,137.52 -959.7,137.52 -314.93,0 -657.56,-32.42 -1018.41,-96.37 -159.99,-28.39 -318.06,-42.78 -469.73,-42.78 -408.53,0 -783.85,102.51 -1115.59,304.72l3.5 7.49c224.27,-76.63 473.68,-115.46 741.24,-115.46 171.35,0 353.03,16.04 539.93,47.61 375.73,63.5 723.38,95.68 1033.47,95.68 482.49,0 787.72,-78.18 958.84,-143.77 203.45,-77.97 284.7,-161.5 292.19,-189.73l2.24 -8.41 -7.98 3.5z"/><g fill="#d03438" fill-rule="nonzero"><path d="M2334.6 2000.01l0 0c-58.64,0 -105.05,-19.97 -141.89,-61.04 -35.8,-39.94 -50.11,-93.92 -42.54,-160.47 13.76,-121.27 140.26,-223.74 276.17,-223.74 133.36,0 183.23,0 195.64,-108.08l1.91 -17.94 -190.86 -0.16c-112.9,0 -220.23,35.57 -302.11,100.07 -97.32,76.99 -153.54,176.5 -167.09,295.75 -10.81,94.21 12.23,172.7 68.45,233.3 54.66,58.81 128.98,88.59 220.99,88.59 62.59,0 113.74,-13.59 171.59,-34.16 32.3,-14.32 90.06,-48.61 114.51,-117.77l17.54 -53.03 -8.3 3.27c-70.52,28.03 -145.15,55.41 -214.01,55.41z"/><path d="M1699.97 1760.25l267.04 -286.53c8.82,-8.73 21.53,-22.84 37.6,-40.74 80.85,-90.14 249.14,-277.76 521.29,-443.7l-3.55 -7.49c-402.16,137.23 -618.68,356.22 -711.14,449.67 -8.34,8.49 -15.59,15.79 -21.89,21.97l-177.29 190.06 -128.22 -170.2c-21.6,-28.83 -53.98,-44.7 -91.14,-44.7l-141.57 0c-12.64,0 -23.04,5.78 -27.87,15.4 -4.51,9.12 -3.07,20.04 3.91,29.25l242.91 322.58 -267.2 286.69c-9.24,9.85 -12.31,21.41 -8.2,30.99 3.78,8.69 13.07,13.91 24.87,13.91l127.74 0 17.54 -7.74 193.13 -207 128.13 170.09c21.58,28.82 53.99,44.65 91.23,44.65l141.73 0c12.55,0 22.92,-5.74 27.71,-15.31 4.49,-9.09 3.06,-20.05 -3.91,-29.26l-242.85 -322.59z"/><path d="M906.19 1696.74c-47.99,26.07 -122.2,47.24 -220.71,62.83 26.43,-106.77 138.83,-223.58 254.48,-223.58 18.9,0 35.68,6.62 45.98,18.18 8.28,9.29 11.83,21.25 10.31,34.48 -6.49,56.86 -65.14,94.57 -90.06,108.09zm80.77 -286.74c-16.81,0 -32.28,0.84 -47.11,2.6 -91.78,7.09 -192.92,49.39 -277.45,116.05 -97.32,77.03 -153.54,176.54 -167.09,295.75 -10.77,94.25 12.28,172.75 68.5,233.31 54.65,58.8 128.97,88.58 220.86,88.58 58.34,0 122.28,-11.8 185.32,-34.16 32.21,-14.32 89.9,-48.64 114.46,-117.77l17.54 -53.03 -8.33 3.27c-68.89,27.43 -149.15,55.42 -222.02,55.42 -62.32,0 -110.57,-19.98 -147.41,-61.04 -17.25,-19.22 -29.65,-42.02 -36.95,-67.82 142.37,-10.08 253.08,-37.35 338.44,-83.2 132.84,-71.36 172.79,-180.96 153.41,-257.95 -18.89,-75.15 -90.69,-120.01 -192.17,-120.01z"/><path d="M2994.58 1696.74c-47.92,26.04 -122.19,47.16 -220.82,62.83 26.35,-106.77 138.7,-223.58 254.4,-223.58 18.93,0 35.68,6.62 46.01,18.18 8.28,9.29 11.87,21.25 10.44,34.48 -6.58,56.81 -65.14,94.57 -90.03,108.09zm80.69 -286.74c-16.81,0 -32.28,0.84 -47.16,2.6 -91.73,7.09 -192.84,49.39 -277.4,116.05 -97.4,76.96 -153.65,176.42 -167.17,295.75 -10.77,94.28 12.32,172.78 68.53,233.31 54.7,58.8 129.05,88.58 220.96,88.58 58.37,0 122.28,-11.8 185.14,-34.16 32.29,-14.32 90.06,-48.68 114.51,-117.77l17.49 -53.03 -8.33 3.27c-68.84,27.43 -149.06,55.42 -221.99,55.42 -62.35,0 -110.51,-19.98 -147.26,-61.08 -17.35,-19.26 -29.78,-42.07 -37,-67.78 142.29,-10.08 253.04,-37.31 338.44,-83.2 132.84,-71.36 172.71,-180.96 153.38,-257.95 -18.94,-75.15 -90.74,-120.01 -192.14,-120.01z"/><path d="M3443.34 1092.56l-17.94 0 -84.72 744.22c-17.06,149.27 -25.64,224.22 6.38,260.15 22.77,25.52 64.55,30.5 129.01,30.5l17.83 0 84.8 -743.99c17.02,-149.42 25.55,-224.42 -6.54,-260.38 -22.81,-25.52 -64.47,-30.5 -128.82,-30.5z"/><path d="M3670.99 1630.43c-6.69,58.09 9.25,113.11 41.71,143.69 44.05,41.34 105.8,59 165.53,76.11 51.91,14.91 100.99,28.95 132.84,57.24 12.2,10.9 17.63,22.21 16.14,33.61 -3.5,26.4 -42.3,47.73 -54.14,53.67 -34.32,17.78 -76.75,26.83 -126.1,26.83 -87.31,0 -175.14,-28.15 -219.75,-44.89l-5.62 -2.11 0 44.45c2.07,64.63 58.96,98.76 88.78,107.8 40.19,12 75.71,19.46 128.62,19.46 164.62,0 364.31,-65.66 385.49,-250.77 15.54,-137.19 -126.95,-176.94 -241.49,-208.91 -70.32,-19.62 -131.05,-36.56 -127.21,-70.84 6.45,-56.5 80.48,-61.25 155.76,-61.25 8.57,0 17.18,0.08 25.84,0.13 8.56,0.08 17.06,0.11 25.51,0.11 133.36,0 183.23,0 195.47,-108.04l2.11 -17.98 -205.6 0c-187.38,0 -363.68,24.43 -383.89,201.69z"/><path d="M4952.64 2014.71c-46.21,0 -83.89,-20.45 -111.99,-60.84 -28.46,-40.54 -39.39,-92.13 -32.53,-153.33 10.89,-97.85 68.97,-190.65 159.47,-254.89 123.47,0.57 197.11,73.88 197.11,196.47 -0.03,128.94 -87.11,272.59 -212.06,272.59zm87.27 -604.73c-2.3,0 -229.75,3.04 -238.65,70.5 -2.99,22.84 5.38,37.03 26.36,44.13 -104.3,78.29 -164.58,158.67 -189.54,252.56 -27.83,104.62 -12.99,204.77 40.71,274.73 46.8,60.85 119.76,94.37 205.59,94.37 103.47,0 199.23,-37.19 284.59,-110.52 85,-73.15 144.05,-164.33 166.21,-256.78 24.64,-102.54 9.45,-192.57 -44.02,-260.38 -54.41,-69.01 -145.99,-108.61 -251.25,-108.61z"/><path d="M5931.02 1409.99c-92.74,0 -227.81,70.13 -283.55,166.73 3.23,-55.77 -0.2,-95.33 -21.45,-118.37 -23,-24.87 -64.38,-29.75 -128.1,-29.75l-17.86 0 -46.32 408.78c-16.91,148.99 -25.44,223.78 6.5,259.58 22.76,25.48 64.43,30.46 128.65,30.46l18.02 0 33.05 -290.71c8.73,-72.17 26.91,-222.36 233.55,-222.36 24.44,0 61.12,-19.53 66.03,-63.07l16.18 -141.29 -4.7 0z"/><path d="M4402.89 1428.6l-17.98 0 -46.36 408.22c-17.03,149.27 -25.51,224.22 6.54,260.1 22.76,25.52 64.47,30.49 128.85,30.49l17.9 0 46.37 -407.97c17.07,-149.39 25.6,-224.38 -6.54,-260.3 -22.76,-25.55 -64.46,-30.54 -128.78,-30.54z"/><path d="M4517.44 1079.04c-61.71,0 -118.1,54.71 -125.86,121.89 -3.96,34.48 5.7,67.66 26.55,91.02 18.53,20.77 44.21,32.21 72.44,32.21 61.79,0 118.29,-54.81 125.94,-122.16 3.91,-34.44 -5.82,-67.53 -26.55,-90.78 -18.54,-20.73 -44.3,-32.18 -72.52,-32.18z"/><path d="M3210.63 2433.5c-6.22,14.23 -12.08,28.43 -17.54,42.34 -5.5,13.96 -10.85,28.27 -16.15,42.78l65.5 0c-5.22,-14.51 -10.4,-28.82 -15.54,-42.78 -5.15,-13.91 -10.56,-28.11 -16.27,-42.34zm126.7 178.58c-5.78,-0.48 -11.16,-0.73 -16.3,-0.73l-15.19 0 -15.23 0c-5.11,0 -10.21,0.25 -15.19,0.73 -3.87,-11.69 -7.78,-23.69 -11.84,-35.81 -4.03,-12.16 -8.38,-24.32 -12.92,-36.48 -7.62,-0.28 -15.27,-0.47 -22.84,-0.6 -7.66,-0.11 -15.32,-0.15 -22.93,-0.15 -6.18,0 -12.4,0.04 -18.62,0.15 -6.18,0.13 -12.39,0.32 -18.62,0.6 -4.75,12.16 -9.17,24.32 -13.23,36.48 -4.07,12.12 -7.73,24.12 -11.09,35.81l-8.41 -0.73 -8.41 0 -8.57 0 -9.33 0.73c2.87,-6.27 6.69,-14.83 11.44,-25.84 4.78,-10.88 10.01,-23.33 15.75,-37.2 5.74,-13.84 11.88,-28.66 18.46,-44.53 6.53,-15.87 13.12,-31.89 19.7,-48.17 6.53,-16.18 12.95,-32.13 19.29,-47.96 6.34,-15.7 12.12,-30.38 17.38,-44.01l6.73 1.28 6.86 0.52 6.74 -0.52 6.86 -1.28c7.65,20.26 15.79,41.94 24.52,65.14 8.73,23.17 17.46,45.9 26.28,68.18 8.8,22.33 17.46,43.54 25.79,63.51 8.37,20.06 15.99,36.96 22.92,50.88z"/><path d="M3480.82 2412.52c-0.47,-15.38 -1.2,-30.86 -2.16,-46.36 4.07,0.51 8.45,0.87 13.25,1.31 4.73,0.36 10.16,0.47 16.1,0.47 5.95,0 11.32,-0.11 16.11,-0.47 4.74,-0.44 9.21,-0.8 13.23,-1.31 -0.92,15.5 -1.67,30.98 -2.11,46.36 -0.52,15.39 -0.72,32.97 -0.72,52.79l0 48.68c0,13.59 0,26.71 0.2,39.34 0.09,12.68 0.28,23.64 0.52,32.9 13.59,0 27.19,-0.32 40.78,-1.04 13.6,-0.68 27.32,-1.91 41.15,-3.55l-1.04 7.14c-0.19,2.15 -0.4,5.15 -0.4,8.97 0,3.79 0.21,6.78 0.4,8.93l1.04 5.42c-6.46,-0.27 -14.4,-0.48 -23.8,-0.51 -9.45,-0.2 -22.33,-0.2 -38.8,-0.2l-35.47 0 -21.29 0c-5.35,0 -9.45,0 -12.13,0.2l-7.02 0.51c0.96,-14.86 1.69,-29.94 2.16,-45.33 0.47,-15.43 0.71,-32.93 0.71,-52.78l0 -48.68c0,-19.82 -0.24,-37.4 -0.71,-52.79z"/><path d="M3768.55 2412.52c-0.47,-15.38 -1.2,-30.86 -2.16,-46.36 4.04,0.51 8.42,0.87 13.2,1.31 4.83,0.36 10.13,0.47 16.15,0.47 5.98,0 11.33,-0.11 16.07,-0.47 4.78,-0.44 9.2,-0.8 13.24,-1.31 -0.96,15.5 -1.64,30.98 -2.12,46.36 -0.44,15.39 -0.72,32.97 -0.72,52.79l0 48.68c0,19.85 0.28,37.35 0.72,52.78 0.48,15.39 1.16,30.47 2.12,45.33 -4.04,-0.51 -8.46,-0.71 -13.24,-0.71l-16.07 0 -16.15 0c-4.78,0 -9.16,0.2 -13.2,0.71 0.96,-14.86 1.69,-29.94 2.16,-45.33 0.52,-15.43 0.71,-32.93 0.71,-52.78l0 -48.68c0,-19.82 -0.19,-37.4 -0.71,-52.79z"/><path d="M4014.38 2531.89c-1.88,26.71 -3.79,53.42 -5.7,80.22l-8.58 -0.72 -8.2 0 -8.46 0 -8.37 0.72c7.62,-41.15 14.43,-81.89 20.38,-122.44 5.93,-40.55 11.43,-81.73 16.45,-123.51l7.3 1.28 7.34 0.52 6.86 -0.52 7.53 -1.28c6.38,14.35 13.16,28.91 20.18,43.66 7.02,14.79 14.07,29.57 21.12,44.13 7.02,14.75 14.08,29.14 21.13,43.13 7.02,14.15 13.76,27.51 20.18,40.16 14.35,-26.72 28.62,-54.67 42.86,-83.93 14.11,-29.19 27.67,-58.24 40.58,-87.15 5.95,1.23 11.12,1.8 15.35,1.8 4.07,0 9.05,-0.57 15.08,-1.8 2.3,20.53 4.9,42.62 7.68,66.22 2.68,23.64 5.39,46.69 8.03,69.25 2.62,22.65 5.3,43.62 7.88,63.12 2.59,19.57 5.03,35.36 7.18,47.36 -4.78,-0.52 -9.68,-0.72 -14.56,-0.72l-14.46 0 -14.67 0c-4.98,0 -10.01,0.2 -15,0.72 -1.19,-24.64 -3.18,-51.2 -5.98,-79.9 -2.74,-28.63 -5.5,-57.02 -8.37,-85.12l-0.71 0c-13.6,28.1 -27,55.74 -40.08,83.01 -13.15,27.23 -26.15,54.5 -38.99,82.01l-3.42 -0.52 -3.39 -0.2 -3.39 0.2 -3.42 0.52c-12.89,-26.8 -25.65,-53.51 -38.49,-80.22 -12.75,-26.67 -25.94,-53.83 -39.5,-81.25l-0.76 0c-3.79,27.42 -6.69,54.58 -8.61,81.25z"/><path d="M4415.7 2412.52c-0.4,-15.38 -1.08,-30.86 -1.92,-46.36 10.72,0.24 21.37,0.59 31.85,1.11 10.53,0.44 21.14,0.67 31.9,0.67 17.66,0 33.33,-0.11 47.01,-0.47 13.75,-0.44 23,-0.8 27.78,-1.31 -0.95,3.82 -1.44,8.85 -1.44,14.94 0,3.91 0.13,6.9 0.36,9.05l1.08 7.18c-6.98,-0.48 -14.51,-1 -22.8,-1.47 -8.18,-0.49 -16.15,-0.96 -23.92,-1.44 -7.78,-0.48 -14.72,-0.8 -20.98,-0.99 -6.17,-0.33 -10.6,-0.41 -13.23,-0.41 -0.88,13.08 -1.44,26.12 -1.59,39.04 -0.13,12.84 -0.13,25.87 -0.13,38.95 15.47,-0.17 29.46,-0.56 42.03,-1.04 12.56,-0.44 25.55,-1.07 39.18,-1.79 -0.75,4.02 -1.23,7.09 -1.43,9.25l-0.35 6.82 0.55 5.9c0.32,2.06 0.76,4.98 1.23,8.81 -27.22,-2.11 -54.29,-3.28 -81.21,-3.28 0,7.7 -0.11,15.32 -0.19,22.97 -0.16,7.66 -0.2,15.23 -0.2,22.88 0,15.55 0.39,30.46 1.11,44.7 13.52,0 27.15,-0.32 40.82,-1.04 13.52,-0.68 27.27,-1.91 41.11,-3.55l-1.08 7.14c-0.23,2.15 -0.36,5.15 -0.36,8.97 0,3.79 0.13,6.78 0.36,8.93l1.08 5.42c-6.5,-0.27 -14.39,-0.48 -23.8,-0.51 -9.41,-0.2 -22.4,-0.2 -38.87,-0.2l-35.4 0 -21.22 0c-5.46,0 -9.48,0 -12.24,0.2l-7.01 0.51c0.84,-14.86 1.52,-29.94 1.92,-45.33 0.36,-15.43 0.63,-32.93 0.63,-52.78l0 -48.68c0,-19.82 -0.27,-37.4 -0.63,-52.79z"/><path d="M4708.68 2395.86c-0.47,-11.21 -0.75,-21.13 -1.07,-29.7 6.7,1.23 12.08,1.78 16.1,1.78 4.12,0 9.5,-0.55 16.12,-1.78 26.07,28.9 51.78,57.24 77.14,85.23 25.4,27.87 51.51,56.3 78.18,85.08l0 -31.06 0 -34.8c0,-11.64 0,-23.16 -0.15,-34.48 -0.16,-11.37 -0.24,-21.77 -0.32,-31.31 -0.17,-9.56 -0.41,-17.73 -0.77,-24.71 -0.35,-6.9 -0.79,-11.52 -1.27,-13.95 6.66,1.23 12.12,1.78 16.14,1.78 4.04,0 9.42,-0.55 16.12,-1.78 -1.2,21.72 -2.16,41.34 -2.92,58.85 -0.63,17.61 -1.31,34.08 -1.67,49.59 -0.56,15.55 -0.8,30.81 -0.96,46 -0.11,15.19 -0.16,31.34 -0.16,48.52l0 42.98c-4.78,-0.51 -9.65,-0.71 -14.71,-0.71 -5.18,0 -9.93,0.2 -13.91,0.71 -49.2,-57.25 -101.34,-114.98 -156.4,-172.91 -0.24,6.9 -0.44,13.88 -0.57,20.74 -0.11,6.89 -0.16,13.95 -0.16,21.08l0 41.55c0,14.27 0.05,26.47 0.16,36.51 0.13,10.05 0.33,18.47 0.57,25.44 0.19,6.9 0.47,12.6 0.67,16.99 0.28,4.43 0.48,7.93 0.76,10.6l-8.58 -0.71 -8.32 0c-5.46,0 -10.97,0.2 -16.44,0.71 0.44,-1.95 1.09,-8.73 1.85,-20.45 0.67,-11.68 1.46,-25.96 2.3,-42.82 0.84,-16.78 1.52,-35.04 2.11,-54.74 0.6,-19.7 0.84,-38.55 0.84,-56.69 0,-16.46 -0.19,-30.3 -0.68,-41.54z"/><path d="M5134.09 2405.53c-0.13,-5.74 -0.49,-9.89 -0.92,-12.52 -3.59,0 -8.01,0.08 -13.2,0.4 -5.3,0.25 -10.88,0.52 -16.83,0.84 -6.01,0.35 -12.08,0.84 -18.25,1.44 -6.26,0.55 -12.05,1.27 -17.22,2.02l1.26 -7.89 0.52 -7.9 -0.52 -7.85 -1.26 -7.89c8.09,0.24 15.46,0.48 22,0.76 6.58,0.2 13.28,0.39 20.05,0.52 6.83,0.08 14.16,0.2 22.17,0.36 8.02,0.08 17.62,0.16 28.82,0.16 11.25,0 20.82,-0.08 28.83,-0.16 7.98,-0.16 15.39,-0.28 22,-0.36 6.66,-0.13 13.2,-0.32 19.5,-0.52 6.31,-0.28 13.2,-0.52 20.58,-0.76l-1.24 7.89 -0.6 7.85 0.6 7.9 1.24 7.89c-4.71,-0.75 -10.13,-1.47 -16.07,-2.02 -5.98,-0.6 -11.88,-1.09 -17.74,-1.44 -5.82,-0.32 -11.36,-0.59 -16.63,-0.84 -5.3,-0.32 -9.68,-0.4 -13.28,-0.4l-0.55 5.03 -0.16 7.49 0 18.94 0 89.5c0,19.86 0.24,37.41 0.71,52.79 0.49,15.42 1.2,30.5 2.16,45.33 -4.02,-0.52 -8.42,-0.72 -13.23,-0.72l-16.12 0 -16.06 0c-4.79,0 -9.17,0.2 -13.24,0.72 0.92,-14.83 1.68,-29.91 2.16,-45.33 0.39,-15.38 0.71,-32.93 0.71,-52.79l0 -89.5c0,-6.9 -0.04,-13.2 -0.19,-18.94z"/><path d="M5574.47 2448.76c-3.78,-12.32 -9.13,-22.72 -15.86,-31.29 -6.83,-8.57 -15.16,-15.19 -24.81,-19.86 -9.64,-4.62 -20.17,-6.97 -31.65,-6.97 -12.16,0 -23.05,2.9 -32.73,8.77 -9.65,5.86 -17.82,13.8 -24.53,23.72 -6.65,10.13 -11.72,21.84 -15.14,35.36 -3.52,13.44 -5.22,27.79 -5.22,43.14 0,19.06 2.03,35.17 6.06,48.28 4.02,13.16 9.57,23.64 16.5,31.65 6.9,8.03 14.87,13.72 23.92,17.35 9.09,3.55 18.66,5.38 28.71,5.38 10.72,0 20.93,-2.27 30.74,-6.85 9.8,-4.48 18.34,-11.4 25.59,-20.74 7.26,-9.24 13.16,-21.09 17.51,-35.44 4.38,-14.27 6.65,-31.18 6.65,-50.75 0,-15.51 -1.92,-29.39 -5.74,-41.75zm-198.79 -0.19c6.55,-15.47 15.79,-37.76 27.72,-49.44 11.92,-11.76 26.35,-12.2 43.29,-18.86 16.94,-6.73 35.77,-10.04 56.5,-10.04 19.13,0 36.95,2.66 53.38,7.89 16.47,5.22 30.78,13.07 42.98,23.64 12.16,10.44 21.8,23.76 28.79,39.87 7.01,16.1 10.56,34.84 10.56,56.37 0,17.9 -3.43,34.65 -10.21,50.12 -6.77,15.46 -16.19,29.06 -28.27,40.58 -12,11.57 -26.43,20.57 -43.09,26.99 -16.75,6.5 -35.09,9.78 -55.18,9.78 -18.85,0 -36.52,-2.36 -53.11,-7.07 -16.58,-4.62 -31.01,-12.16 -43.29,-22.56 -12.32,-10.32 -22.01,-23.57 -29.15,-39.67 -7.18,-16.11 -10.8,-35.36 -10.8,-57.81 0,-17.66 3.31,-34.24 9.88,-49.79z"/><path d="M5852.92 2383.73c-10.97,0 -19.94,3.22 -26.85,9.69 -6.97,6.37 -10.36,13.86 -10.36,22.57 0,8.72 2.63,15.98 8.06,21.6 5.34,5.67 12.08,10.73 20.17,15.19 8.14,4.55 16.83,8.97 26.15,13.03 9.29,4.28 17.98,9.34 26.15,15.4 8.14,6.1 14.8,13.51 20.18,22.16 5.39,8.73 8.05,19.9 8.05,33.45 0,12 -2.23,22.93 -6.78,32.85 -4.57,9.89 -10.96,18.34 -19.33,25.36 -8.37,7.1 -18.33,12.43 -29.86,16.11 -11.52,3.7 -24.56,5.53 -38.83,5.53 -12.92,0 -24.4,-1.31 -34.53,-4.05 -10.12,-2.76 -17.86,-6.23 -23.09,-10.25 2.4,-8.3 4.39,-15.99 6.07,-22.89 1.68,-6.89 3.14,-14.47 4.31,-22.52l6.77 0c0.96,5.22 2.76,10.2 5.39,14.83 2.59,4.62 5.93,8.77 10.05,12.31 3.97,3.6 8.96,6.42 14.62,8.46 5.74,2.03 12.21,3.03 19.38,3.03 14.28,0 24.84,-3.55 31.61,-10.73 6.78,-7.13 10.21,-15.74 10.21,-25.79 0,-9.1 -2.63,-16.46 -7.86,-22.25 -5.22,-5.62 -11.83,-10.72 -19.68,-15.11 -7.86,-4.46 -16.44,-8.72 -25.81,-12.92 -9.29,-4.18 -17.85,-9.24 -25.71,-15.27 -7.9,-5.89 -14.47,-13.2 -19.69,-21.92 -5.27,-8.74 -7.86,-19.9 -7.86,-33.53 0,-12.44 2.16,-23.36 6.58,-32.93 4.43,-9.5 10.33,-17.51 17.66,-24.01 7.5,-6.42 15.99,-11.16 25.68,-14.59 9.65,-3.39 19.86,-4.98 30.61,-4.98 12.84,0 24.17,1.48 33.82,4.62 9.56,3.12 17.98,7.38 24.84,12.89 -2.16,5.45 -4.04,10.83 -5.51,15.9 -1.56,5.14 -3.54,11.65 -5.94,19.49l-5.35 0c-7.68,-20.52 -22.08,-30.73 -43.32,-30.73z"/></g></g></g></svg>