<svg  id="fndm-zacqzd3bb3" viewBox="0 0 400.0000305175781 56.36000061035156" xmlns="http://www.w3.org/2000/svg">
   <path d="m65.388,34.462c-5.161,-0.432 -9.764,-2.21 -13.211,-3.935c-2.608,-1.324 -4.553,-2.59 -5.543,-3.218l-8.548,13.002c0.31,0.302 0.469,0.502 0.469,0.502c2.876,1.854 5.593,3.285 8.166,4.33c7.379,3.031 13.58,2.979 18.668,1.383c12.688,-3.991 18.491,-17.663 18.491,-17.663c-6.286,4.865 -12.733,6.07 -18.492,5.599zm-65.388,5.676c7.986,-6.837 15.27,-8.57 21.318,-8.05l7.697,-11.608c-22.489,-3.375 -29.015,19.658 -29.015,19.658z" fill="#FC0"/>
   <path d="m46.72,45.144l-4.104,10.993l22.772,0l0,-9.61c-5.089,1.596 -11.289,1.648 -18.668,-1.383zm-4.104,-45.144l-13.6,20.48l-7.697,11.608l-16.122,24.272l22.316,0l10.572,-16.048l8.548,-13.002l15.596,-23.689l-10.052,26.907c3.447,1.725 8.05,3.503 13.211,3.935l0,-34.463l-22.772,0z" fill="#278428"/>
   <path d="m94.865,52.452c-0.881,0 -1.401,0.027 -1.995,-0.013l0,-6.201l0.029,-2.921l-0.029,-5.739c0.485,0 1.114,-0.049 2.262,-0.049c2.349,0 3.614,0.752 3.614,2.428c0,1.631 -1.243,2.965 -3.592,2.942l0,3.072c2.183,0.026 4.134,1.155 4.134,3.364c0,2.322 -2.075,3.117 -4.423,3.117zm5.315,-8.339l0,-0.066c2.542,-0.947 3.729,-2.748 3.729,-4.682c0,-2.026 -1.114,-3.529 -2.717,-4.343c-1.663,-0.946 -3.303,-0.92 -6.685,-0.92c-2.624,0 -5.376,0.089 -6.758,0.16l0,21.621l5.609,0c4.56,0 7.328,-0.396 8.99,-1.671c1.431,-1.08 2.377,-2.649 2.377,-4.672c-0.01,-2.849 -1.94,-4.788 -4.55,-5.427l0.005,0zm28.17,11.864l0,-22.04l5.571,0l4.365,8.077c1.265,2.316 2.479,5.077 3.447,7.562l0.071,0c-0.057,-2.92 -0.173,-5.832 -0.173,-9.192l-0.209,-6.446l4.372,0l0,22.04l-5.001,0l-4.502,-8.499c-1.249,-2.392 -2.653,-5.21 -3.65,-7.788l-0.13,0c0.152,2.947 0.225,6.045 0.225,9.646l0,6.642l-4.393,0l0.003,-0.002l0.004,0zm222.32,0l0,-22.04l5.563,0l4.372,8.077c1.249,2.316 2.465,5.077 3.432,7.562l0.067,0c-0.059,-2.92 -0.174,-5.832 -0.174,-9.192l-0.204,-6.446l4.365,0l0,22.04l-4.985,0l-4.51,-8.499c-1.243,-2.392 -2.646,-5.21 -3.656,-7.788l-0.122,0c0.164,2.947 0.23,6.045 0.23,9.646l0,6.642l-4.391,0l0.001,-0.002l0.012,0zm-185.31,-0.578c-0.846,0.414 -2.847,0.934 -5.383,0.934c-7.278,0 -11.029,-4.77 -11.029,-11.077c0,-7.526 5.131,-11.683 11.504,-11.683c2.472,0 4.343,0.529 5.189,0.987l-0.036,3.77c-0.933,-0.427 -3.238,-0.658 -4.972,-0.658c-3.744,0 -6.685,2.378 -6.685,7.321c0,4.414 2.507,7.192 6.72,7.192c1.467,0 3.678,-0.298 4.654,-0.725l0.05,3.939l-0.012,0zm35.66,-3.187c0.412,0.102 1.1,0.102 1.655,0.102c4.352,0.036 7.19,-2.449 7.19,-7.717c0,-4.743 -2.559,-6.997 -6.684,-6.997c-1.034,0 -1.75,0.103 -2.162,0.205l0,14.407l-0.01,0l0.011,0zm-4.74,-17.95c1.799,-0.16 4.156,-0.254 6.534,-0.254c4.031,0 6.519,0.454 8.513,2.054c2.196,1.707 3.569,4.441 3.569,8.384c0,4.205 -1.467,7.117 -3.461,8.918c-2.218,1.92 -5.658,2.556 -9.813,2.636c-2.234,0.049 -4.142,-0.116 -5.342,-0.116l0,-21.622zm28.25,3.73l-2.98,12.326l-1.47,5.659l-4.94,0l6.44,-22.04l6.22,0l6.57,22.04l-5.13,0l-1.63,-5.659l-3.08,-12.326zm-107.88,0l-3,12.326l-1.46,5.659l-4.92,0l6.41,-22.04l6.23,0l6.57,22.04l-5.12,0l-1.63,-5.659l-3.08,-12.326zm136.47,0l-3,12.326l-1.47,5.659l-4.93,0l6.44,-22.04l6.22,0l6.55,22.04l-5.12,0l-1.63,-5.659l-3.06,-12.326zm47.34,0l-2.99,12.326l-1.46,5.659l-4.95,0l6.45,-22.04l6.21,0l6.56,22.04l-5.13,0l-1.61,-5.659l-3.08,-12.326zm89.71,0l-2.99,12.326l-1.48,5.659l-4.93,0l6.44,-22.04l6.23,0l6.56,22.04l-5.13,0l-1.62,-5.659l-3.08,-12.326zm-79.19,15.296l10.02,-15.136l0,-0.089l-9.11,0l0,-4.126l15.28,0l0,2.877l-9.82,14.909l0,0.129l9.97,0l0,4.125l-16.34,0l0,-2.689zm28.73,-24.642l2.991,4.118l-3.085,0l-1.453,-2.161l-0.07,0l-1.46,2.161l-3.057,0l2.972,-4.118l3.161,0l-0.001,0l0.002,0zm-1.58,23.73c3.008,0 4.719,-3.17 4.719,-7.486c0,-3.951 -1.653,-7.348 -4.719,-7.348c-3.063,0 -4.783,3.325 -4.783,7.45c0,4.156 1.778,7.384 4.755,7.384l0.03,0l-0.002,0zm-0.2,3.957c-5.81,0 -9.25,-4.938 -9.25,-11.211c0,-6.602 3.794,-11.549 9.568,-11.549c6.034,0 9.346,5.081 9.346,11.162c0,7.255 -3.89,11.598 -9.635,11.598l-0.034,0l0.004,0l0.001,0zm-161.11,-3.957l-0.037,0c-2.985,0 -4.755,-3.228 -4.755,-7.384c0,-4.125 1.721,-7.45 4.792,-7.45c3.056,0 4.711,3.396 4.711,7.348c0.01,4.317 -1.71,7.486 -4.7,7.486l-0.011,0zm0.11,-18.803c-5.782,0 -9.575,4.947 -9.575,11.549c0,6.272 3.447,11.211 9.25,11.211l0.036,0c5.731,0 9.627,-4.343 9.627,-11.598c-0.01,-6.081 -3.32,-11.162 -9.35,-11.162l0.012,0zm200.79,22.404l-4.74,0l0,-22.04l4.74,0l0,22.04zm-112.05,0.071l0,-21.982l7.19,0l3.89,13.407l4.01,-13.465l7.19,0l0,21.992l-4.53,0l0,-16.817l-5.44,16.576l-2.97,0l-4.85,-16.372l0.02,16.613l-4.51,0.048z" fill="#45403E"/>
  </svg>