<svg  id="fndm-agbx9110d2" viewBox="16.257003784179688 16.924999237060547 160.24099731445312 158.90699768066406" xmlns="http://www.w3.org/2000/svg">
   <g xmlns="http://www.w3.org/2000/svg" clip-rule="evenodd" fill-rule="evenodd" fill="#33348e">
    <path d="m96.396,16.925l-78.85,52.85l32.819,21.311l39.212,-26.426l-15.554,-10.217l21.305,-14.274l46.231,30.679l-75.845,50.918l16.405,10.865l94.379,-62.848l-0.213,-0.213l-79.889,-52.645zm78.631,0.022l-32.808,21.731l16.404,11.078l16.404,-11.078l0,-21.731zm-158.022,158.885l32.809,-21.73l-16.404,-11.079l-16.405,11.079l0,21.73z"/>
    <path d="m96.36,175.787l78.849,-52.851l-32.818,-21.311l-39.211,26.426l15.552,10.217l-21.304,14.275l-46.231,-30.68l75.844,-50.917l-16.404,-10.866l-94.38,62.848l0.213,0.215l79.89,52.644z"/>
   </g>
  </svg>