<svg xmlns="http://www.w3.org/2000/svg" viewBox="105.01494598388672 116.99851989746094 189.98641967773438 66.73081970214844"><g xmlns="http://www.w3.org/2000/svg" fill-rule="evenodd" clip-rule="evenodd"><path fill="#0D679D" d="m289.985,145.878c3.673,0 5.722,2.513 4.794,6.379l-4.175,16.624c-2.59,0 -5.219,0 -7.809,0c-1.392,0 -2.049,-1.121 -1.74,-2.32c1.121,-4.33 1.314,-5.296 2.474,-9.935c0.348,-1.276 0.657,-2.552 -0.966,-2.552c-2.049,0 -3.48,0 -5.567,0l-3.712,14.807c-2.551,0 -5.219,0 -7.77,0c-1.392,0 -2.049,-1.121 -1.74,-2.32c0.812,-3.363 1.469,-5.992 2.745,-10.824c0.155,-0.696 0.116,-1.663 -1.237,-1.663c-2.165,0 -3.518,0 -5.644,0l-3.712,14.807c-2.59,0 -5.18,0 -7.809,0c-1.392,0 -2.01,-1.121 -1.701,-2.32c1.701,-6.843 3.48,-13.84 5.181,-20.644c17.938,-0.039 21.378,-0.039 38.388,-0.039z"/><path fill="#0D679D" d="m172.306,160.685c2.822,0 17.165,0 18.208,0c0.426,0 0.851,-0.154 1.044,-0.696c0.812,-3.247 0.232,-0.966 1.121,-4.33c0.194,-0.85 -0.232,-1.585 -1.198,-1.585c-4.755,0 -7.036,0 -11.83,0c-1.469,0 -2.01,-1.159 -1.739,-2.358l1.469,-5.837l19.445,0c2.977,-0.039 5.877,1.971 4.755,6.378c-1.198,4.871 -2.744,10.902 -3.479,13.918c-0.387,1.469 -1.778,2.667 -3.363,2.667c-2.165,0 -3.866,0 -6.186,0c-3.943,0 -20.451,0 -27.448,0c-1.894,0 -2.745,-1.469 -2.397,-2.86l8.853,-35.026l2.9,0c1.662,0 3.324,0 4.948,0c1.314,0 2.126,0.928 1.778,2.281c-2.281,9.124 -4.639,18.286 -6.881,27.448z"/><path fill="#0D679D" d="m215.141,160.685c2.822,0 17.164,0 18.208,0c0.425,0 0.851,-0.154 1.083,-0.696c0.773,-3.247 0.193,-0.966 1.082,-4.33c0.193,-0.85 -0.232,-1.585 -1.198,-1.585c-4.755,0 -7.036,0 -11.83,0c-1.469,0 -2.01,-1.159 -1.74,-2.358l1.469,-5.837l19.446,0c2.977,-0.039 5.876,1.971 4.794,6.378c-1.237,4.871 -2.784,10.902 -3.518,13.918c-0.387,1.469 -1.779,2.667 -3.364,2.667c-2.165,0 -3.866,0 -6.185,0c-3.943,0 -20.451,0 -27.448,0c-1.895,0 -2.745,-1.469 -2.397,-2.86l8.93,-35.026l2.9,0c1.662,0 3.324,0 4.909,0c1.315,0 2.127,0.928 1.779,2.281c-2.281,9.124 -4.601,18.286 -6.92,27.448z"/><path fill="#A8ADB0" d="m126.61,153.495l9.278,-36.495c2.359,0 4.756,0 7.152,0c1.006,0 1.663,0.696 1.354,1.778c-3.093,12.449 -6.92,27.333 -11.134,43.84c-3.828,0.271 -6.766,-2.319 -7.114,-5.605c-0.154,-1.315 0.194,-2.281 0.464,-3.518z"/><path fill="#0D679D" d="m121.16,117c1.044,-0.039 1.663,0.696 1.392,1.778c-3.015,11.907 -5.644,22.268 -8.544,33.711c-0.734,4.137 -0.193,9.085 2.397,13.299c2.552,4.33 6.611,7.345 11.482,8.544c4.833,1.237 9.82,0.541 14.15,-2.049c4.329,-2.552 7.306,-6.611 8.543,-11.443c1.237,-4.871 0.387,-10.052 -2.049,-14.188c-1.817,-3.016 -4.33,-5.413 -7.422,-7.036c0.734,-2.9 1.469,-5.76 2.203,-8.66c0.812,0.387 1.624,0.735 2.397,1.198c4.291,2.359 7.887,5.799 10.4,10.013c3.711,6.263 4.793,13.724 3.015,20.838c-1.778,7.074 -6.263,13.105 -12.564,16.855c-6.263,3.712 -13.724,4.833 -20.838,3.016c-7.074,-1.779 -13.105,-6.225 -16.855,-12.526c-3.712,-6.224 -4.794,-13.801 -3.016,-20.837c2.706,-10.825 5.451,-21.688 8.157,-32.513c2.359,0 4.833,0 7.152,0z"/><path fill="#A8ADB0" d="m274.985,178.43l2.784,0l-0.619,-3.247l-2.165,3.247z"/><path fill="#A8ADB0" d="m289.444,171.123l-0.735,0l-0.811,0l-1.006,0c-20.876,0 -115.823,0 -125.488,0c-1.121,0 -2.01,0.773 -2.358,1.817c-0.039,0.116 -0.078,0.271 -0.116,0.503c-0.619,2.512 -1.237,4.948 -1.856,7.422c-0.387,1.353 0.464,2.861 2.358,2.861l21.688,0l1.16,0l0.85,0l1.083,0c31.005,0 77.667,0 94.832,0l0.038,0l1.083,0l0.812,0l0.193,0l0.928,0l0.811,0c0.039,0 0.078,0 0.078,0l0.116,0c0.038,0 0.038,0 0.077,0c0.039,0 0.077,0 0.116,0l0.077,-0.039c0.039,0 0.078,0 0.078,0c0.038,0 0.077,0 0.116,0c0.038,-0.038 0.038,-0.038 0.077,-0.038l0.077,0c0.039,0 0.078,0 0.116,-0.039c0.039,0 0.039,0 0.078,0c0.038,0 0.077,-0.039 0.116,-0.039c0,0 0.038,0 0.077,0c0.039,-0.038 0.077,-0.038 0.077,-0.038c0.039,0 0.078,-0.039 0.116,-0.039c0,0 0.039,0 0.078,0c0.038,-0.039 0.038,-0.039 0.077,-0.039l0.077,-0.038l0.116,-0.039c0.039,0 0.039,-0.039 0.077,-0.039c0.039,0 0.039,-0.038 0.078,-0.038c0.038,0 0.077,-0.039 0.116,-0.039c0,-0.039 0.038,-0.039 0.077,-0.039c0,-0.038 0.039,-0.038 0.077,-0.038c0.039,-0.039 0.039,-0.039 0.078,-0.078c0.038,0 0.038,0 0.077,-0.038l0.077,-0.039l0.078,-0.039c0.038,-0.038 0.077,-0.077 0.116,-0.077c0,0 0.038,-0.038 0.077,-0.038l0.077,-0.078l0.039,-0.038c0.039,-0.039 0.077,-0.039 0.077,-0.078c0.039,-0.038 0.078,-0.038 0.078,-0.038l0.077,-0.078c0.039,-0.038 0.077,-0.038 0.077,-0.077c0.039,0 0.078,-0.039 0.078,-0.077c0.038,0 0.077,-0.039 0.077,-0.078c0.039,0 0.039,-0.038 0.077,-0.077c0,0 0.039,-0.039 0.078,-0.077c0,0 0.038,-0.039 0.077,-0.039c0,-0.039 0.038,-0.077 0.038,-0.077l0.078,-0.078c0,-0.038 0.038,-0.077 0.077,-0.077c0,-0.039 0.039,-0.077 0.039,-0.116c0.038,0 0.038,-0.039 0.077,-0.077c0,-0.039 0.039,-0.039 0.039,-0.078c0.038,-0.038 0.038,-0.077 0.077,-0.116c0,0 0.039,-0.038 0.039,-0.077c0.038,-0.039 0.038,-0.039 0.077,-0.077c0,-0.039 0.039,-0.078 0.039,-0.116c0.038,0 0.038,-0.039 0.077,-0.078c0,-0.038 0,-0.077 0.039,-0.077c0,-0.038 0.038,-0.077 0.038,-0.116c0.039,-0.038 0.039,-0.077 0.039,-0.116c0.039,-0.038 0.039,-0.077 0.077,-0.116c0,-0.038 0,-0.038 0.039,-0.077c0,-0.039 0.039,-0.077 0.039,-0.116c0,-0.039 0.038,-0.077 0.038,-0.116c0,-0.039 0.039,-0.077 0.039,-0.116c0,-0.039 0.039,-0.077 0.039,-0.116c0,-0.039 0.038,-0.077 0.038,-0.116c0,-0.039 0.039,-0.077 0.039,-0.116c0,-0.039 0.039,-0.039 0.039,-0.116l0.038,-0.116l0.039,-0.155l0.039,-0.154l0.038,-0.116l0,-0.116l0.078,-0.155l0,-0.154l0.038,-0.116l0.039,-0.116l0.039,-0.116l0.038,-0.155l0.039,-0.116l0,-0.116l0.039,-0.155l0.038,-0.116l0.039,-0.116l0.039,-0.116l0,-0.115l0.038,-0.116l0.039,-0.116l0.038,-0.116l0.039,-0.116l0,-0.155l0.039,-0.077l0.038,-0.155l0.039,-0.077l0.039,-0.116l0,-0.116l0.038,-0.116l0,-0.116l0.039,-0.116l0.039,-0.116l0.038,-0.116l0.039,-0.116l0,-0.116l0.039,-0.116l0.038,-0.116l0,-0.116l0.039,-0.116l0.039,-0.116l0.038,-0.116l0,-0.116l0.039,-0.116l0.039,-0.116l0.038,-0.116l0,-0.116l0.039,-0.155l0.039,-0.115l0.038,-0.116l0.039,-0.116l0,-0.116l0.039,-0.116l0.038,-0.155l0.039,-0.116l0,-0.116l0.039,-0.155l0.038,-0.116l0.039,-0.116l0.039,-0.154l0.038,-0.116l0.039,-0.155l0.039,-0.116l0.038,-0.154l0,-0.967l-0.077,0zm-118.723,10.167l-5.142,0l1.817,-7.422l1.546,0l-1.585,6.224l3.673,0l-0.309,1.198zm16.198,-3.711c-0.657,2.59 -2.397,3.943 -4.832,3.943c-2.475,0 -3.596,-1.314 -2.938,-3.943c0.657,-2.59 2.396,-3.866 4.871,-3.866c2.435,0 3.556,1.276 2.899,3.866zm15.619,-1.314l-1.586,0c0.194,-1.044 -0.618,-1.353 -1.353,-1.353c-1.391,0 -2.899,0.696 -3.402,2.629c-0.348,1.391 -0.038,2.744 2.011,2.744c0.58,0 1.121,-0.077 1.894,-0.348l0.387,-1.391l-2.165,0l0.27,-1.16l3.596,0l-0.851,3.479c-1.044,0.464 -2.551,0.657 -3.518,0.657c-2.474,0 -3.866,-1.237 -3.209,-3.943c0.542,-2.242 2.397,-3.866 5.026,-3.866c2.049,0 3.325,0.812 2.9,2.552zm8.582,5.025l-1.469,0l1.856,-7.422l1.469,0l-1.856,7.422zm1.701,-7.886l-1.199,0l0.928,-0.928l1.276,0l-1.005,0.928zm14.072,2.706l-1.469,0c0.193,-0.966 -0.348,-1.237 -1.353,-1.237c-0.619,0 -1.353,0.232 -1.547,0.966c-0.154,0.58 0.155,0.774 0.735,0.928l1.817,0.271c1.546,0.232 1.624,1.276 1.392,2.049c-0.387,1.546 -1.779,2.435 -4.06,2.435c-1.933,0 -2.938,-0.966 -2.512,-2.512l1.469,0c-0.116,0.85 0.348,1.391 1.546,1.391c1.237,0 1.817,-0.58 1.933,-1.121c0.116,-0.541 -0.116,-0.773 -0.812,-0.928l-1.353,-0.193c-1.701,-0.232 -2.049,-1.082 -1.817,-2.049c0.425,-1.74 2.049,-2.397 3.595,-2.397c1.933,0 2.745,0.889 2.436,2.397zm14.188,-1.005l-2.552,0l-1.546,6.185l-1.469,0l1.546,-6.185l-2.551,0l0.27,-1.237l6.573,0l-0.271,1.237zm7.886,6.185l-1.469,0l1.817,-7.422l1.469,0l-1.817,7.422zm16.431,-5.064l-1.547,0c0.155,-0.928 -0.618,-1.237 -1.43,-1.237c-0.967,0 -2.358,0.541 -2.899,2.59c-0.503,2.049 0.618,2.668 1.585,2.668c1.198,0 1.933,-0.696 2.164,-1.315l1.586,0c-0.619,1.933 -2.436,2.552 -4.137,2.552c-2.242,0 -3.363,-1.315 -2.668,-3.943c0.619,-2.475 2.397,-3.866 4.717,-3.866c1.353,0.038 3.054,0.579 2.629,2.551zm12.951,5.064l-0.387,-1.662l-3.827,0l-1.121,1.662l-1.585,0l5.219,-7.422l1.894,0l1.585,7.422l-1.778,0z"/><path fill="#A8ADB0" d="m183.711,174.912c-1.431,0 -2.552,0.967 -2.977,2.668c-0.464,1.739 0.193,2.667 1.662,2.667c1.431,0 2.552,-0.928 3.016,-2.667c0.386,-1.74 -0.271,-2.668 -1.701,-2.668z"/><path fill="#0D679D" d="m148.762,160.376c-1.082,4.33 -3.827,8.002 -7.693,10.322c-3.827,2.281 -8.428,2.938 -12.719,1.856c-4.33,-1.122 -8.041,-3.866 -10.322,-7.732c-2.32,-3.789 -3.054,-8.389 -1.972,-12.719l8.892,-35.103c2.397,0 4.716,0 7.113,0c1.006,0 1.624,0.696 1.353,1.778l0,0.155l-2.474,9.742c-2.281,9.008 -5.451,21.611 -6.263,24.935c-0.348,1.276 -0.541,2.204 -0.386,3.557c0.116,1.237 0.541,2.436 1.237,3.518c0.348,0.541 0.734,1.044 1.16,1.431c4.6,4.561 12.255,2.242 13.801,-3.828c0.541,-2.165 0.193,-4.368 -0.928,-6.224c-0.386,-0.58 -0.734,-1.121 -1.198,-1.585c0.734,-2.977 1.469,-5.953 2.281,-8.93c2.551,1.391 4.755,3.518 6.263,6.069c2.319,3.866 2.976,8.389 1.855,12.758z"/></g></svg>