<svg  id="fndm-ex1hiiip3p" viewBox="25 48 551 155" xmlns="http://www.w3.org/2000/svg">
   <g xmlns="http://www.w3.org/2000/svg" fill-rule="evenodd" fill="none">
    <path d="m25,203l551,0l0,-155l-551,0l0,155z" fill="#FFF101"/>
    <g fill="#005795">
     <path d="m50.008,122.45l7.351,-4.88l7.348,4.88l-14.699,9.76l0,-9.76zm70.543,-50.747l-7.348,4.878l-7.348,-4.878l14.696,-9.759l0,9.759zm0,37.084l-35.271,23.423l-35.273,-23.423l41.885,-27.813l7.348,4.878l-33.801,22.447l20.574,13.664l9.553,-6.344l-7.348,-4.878l17.636,-11.713l14.696,9.759l0.001,0zm-70.543,-23.42l35.273,-23.423l35.27,23.423l-41.885,27.813l-7.348,-4.881l33.801,-22.447l-20.574,-13.662l-9.553,6.344l7.348,4.878l-17.633,11.713l-14.699,-9.76l0,0.002z"/>
     <path d="m153.022,116.48c4.55,0 15.901,-0.416 15.901,-10.942c0,-5.629 -1.987,-9.588 -9.623,-10.473l0,-0.105c5.858,-0.887 8.787,-4.324 8.787,-9.116c0,-8.806 -6.8,-10.683 -14.96,-10.683l-19.09,0l0,41.318l18.985,0l0,0.001zm-8.264,-24.383l0,-10.577l6.642,0c3.608,0 6.172,2.24 6.172,5.262c0,4.011 -3.243,5.263 -5.595,5.263l-3.766,0l-3.453,0.052zm3.453,6.303l2.824,0c5.441,0 7.113,2.242 7.113,5.888c0,5.784 -5.126,5.836 -7.375,5.836l-6.014,0l0,-11.672l3.452,-0.052zm64.017,18.133l0,-24.75l0.104,0l11.35,24.75l11.401,0l0,-33.868l-7.32,0l0,23.448l-0.158,0l-11.037,-23.448l-11.662,0l0,33.868l7.322,0zm40.953,0.938c8.315,0 12.918,-2.97 12.918,-12.191l-8.84,0c-0.157,2.76 0.053,7.033 -4.078,7.033c-5.02,0 -5.7,-3.803 -5.7,-12.66c0,-8.86 0.68,-12.663 5.7,-12.663c2.614,0 3.662,1.72 3.662,6.304l8.787,0c0.365,-7.399 -3.348,-11.462 -12.447,-11.462c-14.802,0 -14.802,8.702 -14.802,17.82c-0.001,9.065 -0.001,17.819 14.8,17.819zm-75.943,-0.938l2.406,-7.504l12.03,0l2.3,7.504l9.26,0l-11.402,-33.868l-11.613,0l-11.663,33.868l8.682,0zm12.553,-12.712l-8.42,0l4.026,-14.642l0.158,0l4.236,14.642zm93.358,8.49c-5.074,0 -5.7,-3.803 -5.7,-12.66c0,-8.86 0.626,-12.662 5.7,-12.662c5.02,0 5.701,3.802 5.701,12.662c0,8.857 -0.68,12.66 -5.7,12.66l-0.001,0zm0,5.16c14.802,0 14.802,-8.752 14.802,-17.819c0,-9.118 0,-17.82 -14.802,-17.82c-14.801,0 -14.801,8.702 -14.801,17.82c0,9.065 0,17.819 14.801,17.819zm231.176,-0.938l0,-33.868l-8.787,0l0,33.868l8.787,0zm27.091,0l0,-5.16l-12.185,0l0,-28.708l-8.788,0l0,33.868l20.973,0zm-141.684,-0.054c4.55,0 15.9,-0.415 15.9,-10.889c0,-5.679 -1.987,-9.639 -9.625,-10.525l0,-0.105c5.859,-0.887 8.736,-4.324 8.736,-9.116c0,-8.806 -6.747,-10.683 -14.907,-10.683l-19.09,0l0,41.318l18.986,0zm-8.267,-24.33l0,-10.58l6.645,0c3.607,0 6.17,2.243 6.17,5.264c0,4.012 -3.243,5.264 -5.596,5.264l-3.765,0l-3.454,0.052zm3.454,6.303l2.824,0c5.44,0 7.111,2.24 7.111,5.888c0,5.784 -5.124,5.888 -7.374,5.888l-6.016,0l0,-11.672l3.455,-0.104zm-77.042,-10.629l4.551,0c6.172,0 6.172,5.47 6.172,11.724c0,8.546 -1.046,11.776 -6.433,11.776l-4.29,0l0,-23.5zm-8.89,28.656l14.488,0c15.115,0 14.123,-11.93 14.123,-17.14c0,-10.577 -2.145,-16.78 -13.81,-16.78l-14.8,0l0,33.92l-0.001,0zm46.444,-4.115c-5.074,0 -5.753,-3.802 -5.753,-12.608c0,-8.806 0.68,-12.61 5.753,-12.61c5.02,0 5.7,3.802 5.7,12.61c0,8.806 -0.68,12.608 -5.7,12.608zm0,5.107c14.802,0 14.802,-8.752 14.802,-17.713c0,-9.118 0,-17.769 -14.802,-17.769c-14.801,0 -14.801,8.65 -14.801,17.769c0,8.959 0,17.713 14.801,17.713zm110.461,-13.34l-8.42,0l4.026,-14.588l0.106,0l4.288,14.588zm23.643,12.402c6.38,0 12.812,-0.782 12.812,-9.534c0,-10.629 -16.789,-9.118 -16.789,-15.528c0,-2.344 1.569,-3.594 4.29,-3.594l11.403,0l0,-5.21l-12.397,0c-10.198,0 -12.708,4.063 -12.708,9.378c0,10.056 16.84,9.43 16.84,15.527c0,2.292 -1.41,3.802 -4.234,3.802l-11.142,0l-9.675,-28.707l-11.611,0l-10.304,29.908l-6.33,-12.348c4.92,-0.782 6.905,-3.596 6.905,-8.7c0.052,-5.734 -3.818,-8.86 -9.833,-8.86l-17.627,0l0,33.867l8.84,0l0,-28.654l5.23,0c2.772,0 4.602,1.824 4.602,5.158c0,2.813 -1.674,5.105 -4.342,5l-3.609,0l9.468,18.497l14.017,0l2.406,-7.503l11.978,0l2.353,7.503l19.457,0l0,-0.001l0,-0.001z" fill-rule="nonzero"/>
    </g>
    <path d="m135.22,179.998l4.693,-0.545c0.276,1.634 0.828,2.723 1.656,3.268c0.829,0.545 1.933,1.09 3.589,1.09s2.76,-0.273 3.589,-1.09c0.828,-0.817 1.104,-1.362 1.104,-2.179c0,-0.544 -0.276,-1.089 -0.552,-1.361c-0.276,-0.273 -0.828,-0.817 -1.657,-1.09c-0.552,-0.272 -1.932,-0.544 -3.864,-1.089c-2.485,-0.545 -4.417,-1.362 -5.521,-2.179c-1.38,-1.361 -2.208,-2.723 -2.208,-4.63c0,-1.089 0.276,-2.178 1.104,-3.267c0.828,-1.09 1.656,-1.907 3.036,-2.451c1.38,-0.545 2.76,-0.817 4.693,-0.817c3.036,0 5.245,0.544 6.625,1.906c1.38,1.362 2.208,2.996 2.484,5.174l-4.692,0.273c-0.276,-1.09 -0.552,-2.18 -1.38,-2.724c-0.829,-0.544 -1.657,-0.817 -3.037,-0.817s-2.484,0.273 -3.313,0.817c-0.552,0.273 -0.828,0.817 -0.828,1.362c0,0.545 0.276,1.09 0.828,1.362c0.553,0.544 2.209,1.089 4.417,1.634c2.208,0.544 4.14,1.089 5.245,1.634a5.38,5.38 0 0 1 2.484,2.45c0.552,1.09 0.829,2.18 0.829,3.813c0,1.362 -0.277,2.724 -1.105,3.813c-0.828,1.09 -1.932,1.906 -3.312,2.723s-3.037,0.817 -5.245,0.817c-3.037,0 -5.245,-0.817 -6.901,-2.178c-1.656,-1.362 -2.485,-2.996 -2.76,-5.72l-0.001,0.001zm33.126,2.178l4.416,0.817c-0.552,1.634 -1.38,2.996 -2.76,3.813c-1.38,0.817 -2.76,1.362 -4.693,1.362c-3.036,0 -5.245,-1.09 -6.625,-2.996c-1.104,-1.634 -1.656,-3.54 -1.656,-5.719c0,-2.723 0.828,-4.902 2.208,-6.536c1.38,-1.634 3.313,-2.451 5.521,-2.451c2.485,0 4.693,0.817 6.073,2.451c1.38,1.634 2.209,4.085 2.209,7.625l-11.319,0c0,1.362 0.276,2.451 1.104,2.996c0.828,0.545 1.656,1.09 2.484,1.09c0.828,0 1.38,-0.273 1.933,-0.545c0.552,-0.273 0.828,-1.09 1.104,-1.907l0.001,0zm0.276,-4.63c0,-1.361 -0.276,-2.178 -1.104,-2.995c-0.829,-0.817 -1.38,-1.09 -2.485,-1.09c-1.104,0 -1.932,0.273 -2.484,1.09c-0.552,0.817 -0.828,1.634 -0.828,2.996l6.9,0l0.001,-0.001zm7.729,11.166l5.245,0.545c0,0.545 0.276,1.09 0.552,1.362c0.552,0.272 1.104,0.544 1.932,0.544c1.104,0 2.209,-0.272 2.76,-0.544c0.277,-0.273 0.829,-0.545 0.829,-1.09c0.276,-0.272 0.276,-1.089 0.276,-2.178l0,-2.451c-1.38,1.906 -3.037,2.723 -5.245,2.723s-4.14,-1.09 -5.52,-2.996c-1.105,-1.634 -1.657,-3.54 -1.657,-5.719c0,-2.723 0.828,-4.902 2.208,-6.536c1.38,-1.634 3.037,-2.178 5.245,-2.178s3.865,0.817 5.245,2.723l0,-2.451l4.417,0l0,15.25c0,1.907 -0.276,3.541 -0.552,4.358c-0.276,0.817 -0.829,1.634 -1.38,2.451c-0.553,0.817 -1.38,1.09 -2.485,1.362c-1.104,0.272 -2.208,0.544 -3.865,0.544c-3.036,0 -4.968,-0.544 -6.073,-1.361a4.744,4.744 0 0 1 -1.932,-3.813l0,-0.545zm4.14,-9.804c0,1.907 0.277,2.996 1.105,4.085c0.828,1.09 1.656,1.362 2.484,1.362c1.104,0 1.933,-0.545 2.76,-1.362c0.829,-0.817 1.105,-2.178 1.105,-3.812s-0.276,-2.996 -1.104,-3.813c-0.828,-0.817 -1.657,-1.362 -2.76,-1.362c-1.105,0 -1.933,0.545 -2.761,1.362c-0.828,0.817 -0.828,1.634 -0.828,3.54l-0.001,0zm27.881,8.715l0,-2.451a6.488,6.488 0 0 1 -2.484,2.179c-1.104,0.544 -2.209,0.817 -3.313,0.817s-2.208,-0.273 -3.036,-0.817c-0.828,-0.545 -1.656,-1.09 -1.933,-2.179c-0.276,-1.09 -0.552,-2.179 -0.552,-3.813l0,-10.62l4.417,0l0,7.897c0,2.451 0,3.813 0.276,4.357c0.276,0.545 0.552,1.09 0.828,1.362c0.276,0.272 1.104,0.545 1.657,0.545c0.828,0 1.38,-0.273 2.208,-0.545c0.828,-0.272 1.104,-0.817 1.38,-1.634c0.276,-0.817 0.276,-2.179 0.276,-4.63l0,-7.08l4.417,0l0,16.884l-4.14,0l0,-0.272l-0.001,0zm13.25,0l-4.416,0l0,-16.885l4.14,0l0,2.451c0.828,-1.09 1.38,-1.906 1.933,-2.178c0.552,-0.273 1.104,-0.545 1.932,-0.545c1.104,0 1.932,0.272 3.036,0.817l-1.38,3.813c-0.828,-0.545 -1.38,-0.817 -2.208,-0.817c-0.552,0 -1.104,0.272 -1.656,0.544c-0.552,0.273 -0.829,1.09 -1.105,1.907s-0.276,2.723 -0.276,5.719l0,5.174zm8.558,-19.336l0,-4.085l4.416,0l0,4.085l-4.416,0zm0,19.336l0,-16.885l4.416,0l0,16.885l-4.416,0zm25.12,0l-4.14,0l0,-2.451c-0.829,1.09 -1.657,1.634 -2.485,2.179c-0.828,0.544 -1.933,0.817 -2.76,0.817c-1.933,0 -3.59,-0.817 -4.97,-2.451c-1.38,-1.634 -2.208,-3.813 -2.208,-6.536c0,-2.996 0.552,-5.175 1.932,-6.536c1.38,-1.362 3.037,-2.18 5.245,-2.18c1.933,0 3.589,0.818 4.97,2.452l0,-8.442l4.416,0l0,23.148zm-12.146,-8.987c0,1.906 0.276,2.996 0.828,3.813c0.828,1.089 1.656,1.634 3.036,1.634c1.105,0 1.933,-0.545 2.76,-1.362c0.83,-0.817 0.83,-1.906 0.83,-3.54c0,-1.907 -0.277,-3.268 -1.105,-4.085c-0.828,-0.817 -1.656,-1.362 -2.76,-1.362c-1.105,0 -1.933,0.545 -2.761,1.362c-0.828,0.817 -0.828,1.906 -0.828,3.54zm19.876,-2.723l-4.142,-0.817c0.552,-1.634 1.38,-2.724 2.485,-3.54c1.104,-0.818 2.76,-1.09 4.969,-1.09c1.932,0 3.588,0.272 4.416,0.817c0.828,0.545 1.657,1.09 2.209,1.906c0.552,0.817 0.552,2.179 0.552,4.085l0,5.175c0,1.361 0,2.723 0.276,3.268c0.276,0.544 0.552,1.361 0.828,2.178l-4.417,0c0,-0.272 -0.276,-0.817 -0.552,-1.361c0,-0.273 0,-0.545 -0.276,-0.545c-0.828,0.817 -1.656,1.362 -2.484,1.634c-0.828,0.272 -1.933,0.545 -2.76,0.545a6.84,6.84 0 0 1 -4.141,-1.362c-1.105,-0.817 -1.657,-2.179 -1.657,-3.54c0,-1.09 0.276,-1.907 0.828,-2.451c0.553,-0.545 1.105,-1.362 1.933,-1.634c0.828,-0.273 1.932,-0.817 3.588,-1.09c2.209,-0.272 3.589,-0.817 4.417,-1.089l0,-0.545c0,-0.817 -0.276,-1.361 -0.552,-1.906c-0.276,-0.545 -1.38,-0.545 -2.484,-0.545c-0.829,0 -1.38,0.273 -1.933,0.545c-0.552,0.272 -0.828,0.545 -1.104,1.362l0.001,0zm6.072,3.54c-0.552,0.272 -1.38,0.545 -2.76,0.817c-1.38,0.272 -1.933,0.272 -2.485,0.545c-0.552,0.544 -0.828,0.817 -0.828,1.634c0,0.544 0.276,1.089 0.828,1.634c0.552,0.544 1.104,0.817 1.933,0.817c0.828,0 1.656,-0.273 2.208,-0.817c0.552,-0.273 0.828,-0.817 1.104,-1.362c0,-0.272 0.276,-1.09 0.276,-2.179l0,-1.089l-0.276,0zm24.844,8.17l-4.14,0l0,-2.451c-0.829,1.09 -1.657,1.634 -2.485,2.179c-0.828,0.544 -1.932,0.817 -2.76,0.817c-1.933,0 -3.589,-0.817 -4.97,-2.451c-1.38,-1.634 -2.208,-3.813 -2.208,-6.536c0,-2.996 0.552,-5.175 1.933,-6.536c1.38,-1.362 3.036,-2.18 5.245,-2.18c1.932,0 3.588,0.818 4.968,2.452l0,-8.442l4.417,0l0,23.148zm-12.146,-8.987c0,1.906 0.276,2.996 0.828,3.813c0.828,1.089 1.657,1.634 3.037,1.634c1.104,0 1.932,-0.545 2.76,-1.362c0.828,-0.817 0.828,-1.906 0.828,-3.54c0,-1.907 -0.276,-3.268 -1.104,-4.085c-0.828,-0.817 -1.656,-1.362 -2.76,-1.362c-1.104,0 -1.933,0.545 -2.76,1.362c-0.829,0.817 -0.829,1.906 -0.829,3.54zm26.5,3.54l4.417,0.817c-0.552,1.634 -1.38,2.996 -2.76,3.813c-1.38,0.817 -2.76,1.362 -4.693,1.362c-3.037,0 -5.245,-1.09 -6.625,-2.996c-1.104,-1.634 -1.656,-3.54 -1.656,-5.719c0,-2.723 0.828,-4.902 2.208,-6.536c1.38,-1.634 3.312,-2.451 5.52,-2.451c2.485,0 4.694,0.817 6.074,2.451c1.38,1.634 2.208,4.085 2.208,7.625l-11.318,0c0,1.362 0.276,2.451 1.105,2.996c0.828,0.545 1.656,1.09 2.484,1.09c0.828,0 1.38,-0.273 1.932,-0.545c0.552,-0.273 0.828,-1.09 1.104,-1.907zm0.276,-4.63c0,-1.361 -0.276,-2.178 -1.104,-2.995c-0.828,-0.817 -1.38,-1.09 -2.484,-1.09s-1.932,0.273 -2.485,1.09c-0.552,0.817 -0.828,1.634 -0.828,2.996l6.901,0l0,-0.001zm-282.576,-33.466l549.659,0l0,8.812l-549.659,0l0,-8.812z" fill-rule="nonzero" fill="#005A9F"/>
   </g>
  </svg>