<svg  id="fndm-6m3rug1qiu" viewBox="0 0.27654409408569336 1390.000244140625 374.5384216308594" xmlns="http://www.w3.org/2000/svg">
   <g xmlns="http://www.w3.org/2000/svg" fill="none">
    <path d="m168.5,0.6c-15.6,1.7 -35.7,6.8 -51,13.1c-71.4,29.1 -117.5,97.2 -117.5,173.8c0,50.6 19.3,96.7 55.6,132.9c26.8,26.8 59,43.7 98.2,51.7c14.4,2.9 43.1,3.6 58.7,1.5c64.1,-8.9 117.7,-47.8 145.4,-105.6c12.8,-26.8 18.1,-50.2 18.1,-80.4c0,-31 -6.1,-56.9 -19.8,-84.2c-26.8,-53.2 -76,-89.7 -136.4,-101c-8.1,-1.6 -42.4,-2.7 -51.3,-1.8zm59.8,70.9c8.6,2.2 14.9,5.8 22.1,12.6c11.5,10.7 16.1,21.6 16.002,37.4c-0.102,11.2 -2.102,18.3 -7.502,26.6c-4.2,6.5 -13.7,15.1 -20.1,18.3c-11.6,5.6 -11.8,5.6 -81,5.6l-63.8,0l0,-102l64.3,0c53.8,0 65.2,0.2 70,1.5zm26.7,117.9c16.9,5.6 30.1,16.6 36.9,30.9c4.6,9.7 6.1,16.1 6.1,26.4c0,27.2 -20,51.6 -46.8,57.2c-3.6,0.7 -29.5,1.1 -81.2,1.1l-76,0l0,-118.1l77.8,0.3c72,0.3 78.1,0.5 83.2,2.2z" fill="#CB3C2E"/>
    <path d="m431,120.7c0,1.6 -1.6,31 -3.5,65.3s-3.5,64.4 -3.5,66.8l0,4.5l29.3,-0.6c16.2,-0.3 31.4,-1.1 34.2,-1.7c9.2,-2.2 18.9,-7.5 24.3,-13.5c18.1,-19.8 14.9,-48.4 -6.5,-57.2c-2.4,-1 -4.3,-2 -4.3,-2.3c0.1,-0.3 2.1,-1.7 4.5,-3.2c8.4,-5.1 13.3,-16.8 12.2,-28.8c-1.2,-13.8 -12,-24.8 -29.2,-29.7c-3.5,-1 -12.9,-1.6 -31.2,-2l-26.3,-0.6l0,3zm46.5,23.4c2.1,0.6 5.4,2.6 7.2,4.4c2.8,2.8 3.3,4 3.3,8.3c0,10.1 -7.6,16 -22,16.9l-8.1,0.6l0.6,-10.4c0.3,-5.7 0.8,-12.8 1.1,-15.7l0.5,-5.2l6.7,0c3.7,0 8.5,0.5 10.7,1.1zm3.7,54.4c10.9,3.8 14.9,15.3 8.8,25.3c-3.4,5.5 -9.4,7.6 -23.4,8l-11.8,0.4l0.6,-12.3c0.4,-6.8 0.9,-15.1 1.2,-18.3l0.6,-5.9l9.7,0.6c5.3,0.3 11.7,1.3 14.3,2.2zm70.8,-12.1c-18.9,37.6 -34.6,68.9 -34.8,69.5c-0.3,0.8 4.5,1.1 15.6,1.1l16.1,0l7,-14.5l7,-14.5l59.6,0l5.4,14.5l5.3,14.5l16.4,0c9,0 16.4,-0.4 16.4,-0.9c0,-0.7 -40,-105.1 -50.4,-131.6l-2.4,-6l-13.3,-0.2l-13.4,-0.3l-34.5,68.4zm53.4,-6.2c4.2,11.4 7.6,21 7.6,21.3c0,0.3 -8.5,0.5 -18.9,0.5l-18.9,0l10.6,-22c5.9,-12 11,-21.6 11.3,-21.2c0.4,0.4 4.1,10 8.3,21.4zm75.6,-60.6c0,1 -1.6,30 -3.5,64.4c-1.9,34.4 -3.5,64.9 -3.5,67.7l0,5.3l15,0c11.2,0 15.2,-0.3 15.5,-1.3c0.2,-0.6 1.1,-14.9 2,-31.7c0.9,-16.7 1.7,-30.6 1.9,-30.7c0.2,-0.2 8.3,13.5 18.1,30.3c9.9,16.8 18.4,31.2 19,32c0.8,1.2 4.3,1.4 19.2,1.2l18.2,-0.3l-18,-26.3c-9.9,-14.4 -17.8,-26.6 -17.5,-27.1c0.3,-0.4 2.3,-1.1 4.4,-1.4c5.6,-0.9 15.4,-6.2 21.1,-11.3c3.4,-3.1 6.3,-7 8.8,-12.2c3.7,-7.4 3.8,-7.9 3.8,-18.6c0,-9.9 -0.3,-11.7 -2.7,-16.8c-5,-10.8 -16.8,-19.2 -31.3,-22.3c-5,-1.1 -16,-1.7 -38.7,-2.2c-30.8,-0.6 -31.8,-0.5 -31.8,1.3zm57.1,22.8c12.1,2.8 16.9,8 16.9,18.3c0,10.7 -4.8,17.1 -15.9,21.4c-4.9,1.8 -18.7,3.9 -26.5,3.9l-3.9,0l0.7,-15.3c0.3,-8.3 0.9,-18.5 1.3,-22.5l0.6,-7.2l10.6,0c5.8,0 13.1,0.6 16.2,1.4zm70.5,-18.2c-0.3,3.5 -1.9,31.7 -3.6,62.8c-1.6,31.1 -3.2,59.5 -3.5,63.2l-0.6,6.8l29.8,0c44.1,0 58,-1.8 71.3,-9.2c18.2,-10.1 29.9,-25.1 35.2,-44.7c2.7,-10 2.9,-28.7 0.4,-38.1c-3,-11.3 -7.3,-18.8 -15.6,-27c-16.9,-17 -29.7,-20 -85.2,-20l-27.6,0l-0.6,6.2zm64.9,18.9c13.3,2.4 25.5,10.9 30.2,20.9c3.3,7.1 4.6,15.5 3.9,24.7c-1.1,14.3 -5.8,25.6 -13.5,32.6c-9.3,8.4 -17.9,10.7 -41.8,11.4l-18.3,0.5l0,-2.8c0.1,-2.2 4.8,-86.9 5,-88.2c0.1,-0.7 29.6,0 34.5,0.9zm89.1,-22.9c-0.3,1.3 -1.9,28.8 -3.6,61.3c-1.7,32.4 -3.3,62.7 -3.7,67.2l-0.6,8.3l86,0l0.7,-7.7c0.3,-4.2 0.6,-9.8 0.6,-12.5l0,-4.8l-55.1,0l0.6,-8.8c0.3,-4.8 0.8,-12.4 1.1,-17l0.6,-8.2l54.5,0l0.7,-3.8c0.3,-2 0.6,-7.4 0.6,-12l0,-8.2l-55,0l0.5,-5.8c0.3,-3.1 0.7,-10.1 1.1,-15.5l0.6,-9.7l54.6,0l0.5,-3.3c0.4,-1.7 0.7,-7.3 0.9,-12.2l0.2,-9l-42.7,-0.3l-42.7,-0.2l-0.4,2.2zm112,4c-0.4,3.5 -2,31.7 -3.6,62.8c-1.6,31.1 -3.2,59.5 -3.5,63.2l-0.6,6.8l80.8,0l0.7,-6.1c0.3,-3.4 0.6,-9.1 0.6,-12.5l0,-6.4l-49.8,0l0.5,-7.8c1.7,-26 5.9,-104.8 5.6,-105.5c-0.3,-0.4 -7.1,-0.7 -15.3,-0.7l-14.8,0l-0.6,6.2zm99,-4c-0.3,1.3 -1.9,28.8 -3.6,61.3c-1.7,32.4 -3.3,62.7 -3.7,67.2l-0.6,8.3l106.9,0l7,-14.5l6.9,-14.4l30,0.2l29.9,0.2l5.5,14.2l5.4,14.3l16.3,0c9,0 16.4,-0.3 16.4,-0.8c0,-0.4 -11.9,-31.5 -26.4,-69.2l-26.5,-68.5l-13.3,-0.3l-13.3,-0.3l-28.7,56.8l-28.7,56.8l-27.6,0.3l-27.6,0.2l0.6,-8.2c0.9,-12.8 5.5,-97.8 5.5,-102.1l0,-3.7l-15,0c-14.7,0 -15,0 -15.4,2.2zm155.4,59.3c4,11 7.5,20.6 7.7,21.2c0.4,1 -3.7,1.3 -18.5,1.3l-19.1,0l10.7,-22c5.8,-12.1 10.9,-21.7 11.2,-21.3c0.4,0.5 4,9.8 8,20.8z" fill="#000"/>
   </g>
  </svg>