<svg  id="fndm-ywi3zliu4y" viewBox="45.0003547668457 89 508.9996337890625 73" xmlns="http://www.w3.org/2000/svg">
   <path d="m487.561,135.392c-2.904,1.468 -5.72,2.764 -9.152,2.678a35.43,35.43 0 0 1 -1.056,3.801c-3.344,8.898 -11.44,15.896 -22.351,15.896c-10.912,0 -13.816,-6.998 -10.56,-15.896c0.792,-2.073 1.848,-4.147 3.08,-5.96c-2.552,1.209 -4.752,2.159 -7.832,2.072a35.43,35.43 0 0 1 -1.056,3.802c-3.344,8.898 -11.44,15.895 -22.352,15.895c-10.911,0 -13.815,-6.997 -10.56,-15.895c3.344,-8.899 11.44,-15.896 22.352,-15.896c7.216,0 11.176,3.11 11.792,7.775c0.176,1.296 0.704,1.9 1.936,1.814c0.792,-0.086 1.672,-0.26 2.464,-0.518c2.728,-0.864 5.544,-2.592 8.976,-4.838c3.608,-2.592 8.536,-4.233 13.64,-4.233c7.215,0 11.175,3.11 11.791,7.775c0.176,1.296 0.704,1.9 1.936,1.814c0.792,-0.086 1.672,-0.26 2.464,-0.518c3.168,-1.037 6.512,-3.11 10.56,-5.875c3.08,-2.073 6.952,-3.11 11.616,-3.11c4.048,0 6.424,2.678 6.336,6.48l15.223,-33.088c1.408,-2.937 4.4,-4.924 7.656,-4.924l4.664,0l-21.647,47.082c-1.408,3.024 -3.872,8.467 -3.96,10.8c-0.088,1.64 0.352,2.677 1.76,2.677c1.32,0 3.168,-0.864 4.576,-1.987c5.983,-4.665 12.055,-15.377 20.591,-27.299c0.704,-1.037 1.936,-2.246 3.168,-2.246c1.76,0 3.168,0.95 2.024,2.764c-0.88,1.469 -0.264,2.333 0.352,3.11c0.968,1.123 2.376,2.247 3.432,3.456c2.2,2.505 4.576,5.615 4.576,10.367c0,2.073 -0.44,8.207 -5.456,11.749c-2.464,1.814 -5.808,2.85 -9.328,2.85c-3.256,0 -5.544,-0.517 -7.04,-1.209c-1.584,-0.777 -4.136,-2.505 -3.52,-6.133c0.352,-2.333 3.08,-4.147 4.928,-4.233c2.376,-0.173 4.136,1.382 4.4,3.369c-1.76,0 -3.168,1.21 -3.256,2.764c-0.088,1.555 1.056,2.765 2.816,2.765c4.312,0 5.984,-4.752 6.424,-9.849c0.44,-6.393 -3.344,-11.317 -3.432,-15.464a58.41,58.41 0 0 1 -1.144,1.642c-6.424,9.33 -12.32,18.487 -18.303,23.066c-2.376,1.814 -5.016,3.283 -9.064,3.283c-4.224,0 -7.128,-1.555 -7.744,-4.752c-0.088,-0.518 -0.088,-1.123 -0.088,-1.814c-3.872,5.356 -7.392,6.566 -10.912,6.566c-8.272,0 -10.912,-7.257 -9.328,-13.39c0.352,-2.16 1.144,-5.27 3.608,-8.985zm9.68,18.746c3.432,0 7.568,-5.27 10.824,-15.031c1.408,-4.234 2.464,-11.231 -2.288,-11.231c-3.52,0 -6.776,3.715 -9.768,10.021c-2.024,4.233 -2.64,7.775 -2.552,10.194c0.088,4.665 2.024,6.047 3.784,6.047zm-69.607,-12.267c2.904,-7.862 4.84,-14.254 -0.176,-14.254c-5.104,0 -7.92,6.392 -10.824,14.254c-2.904,7.862 -4.84,14.254 0.264,14.254c5.016,0 7.832,-6.392 10.736,-14.254zm38.72,0c2.903,-7.862 4.84,-14.254 -0.265,-14.254c-5.103,0 -7.92,6.392 -10.823,14.254c-2.904,7.862 -4.84,14.254 0.176,14.254c5.28,0 8.008,-6.392 10.911,-14.254l0.001,0zm-324.011,-40.085c-6.16,5.615 -12.848,15.032 -19.712,25.571c-5.632,8.553 -11.791,16.76 -19.007,22.462c-5.016,3.974 -13.112,8.12 -20.768,10.885c-2.376,0.864 -4.576,1.296 -6.512,1.296c5.896,-3.974 10.736,-9.244 22.44,-34.643l11.792,-25.571c-5.896,5.442 -12.32,14.34 -18.92,24.362c-6.16,9.416 -12.232,17.796 -15.4,21.511c-6.688,8.034 -12.232,14.255 -22.087,14.255c-4.488,0 -7.304,-1.901 -8.536,-4.925c-1.496,-3.8 -0.264,-8.725 2.904,-10.798c0,5.097 4.048,6.91 7.743,6.91c5.104,0 9.24,-2.85 13.112,-6.047c4.4,-3.714 12.232,-10.798 18.832,-20.906c8.272,-12.7 17.16,-24.449 24.904,-29.46c1.32,-0.777 3.431,-2.245 6.423,-2.245l4.928,0l-18.567,40.517l0,0.086c-3.432,7.43 -7.216,12.959 -11,17.02c3.872,-1.729 8.272,-4.839 12.672,-9.504a153.12,153.12 0 0 0 4.752,-5.442c2.727,-3.37 5.28,-7.084 7.831,-10.886c9.064,-13.822 18.744,-26.608 27.016,-30.668c1.232,-0.605 2.728,-0.95 4.048,-0.95l5.104,0l-18.656,40.344c-9.592,20.82 -22.088,27.04 -29.567,27.04c5.896,-3.974 10.735,-9.244 22.44,-34.643l11.791,-25.571zm138.686,29.632c1.496,-3.197 4.4,-4.925 7.656,-4.925l4.663,0l-6.951,15.032c-1.408,3.024 -3.872,8.467 -4.048,10.8c-0.088,1.64 1.056,2.677 2.816,2.677c1.584,0 3.256,-0.864 4.4,-1.468c3.255,-1.642 6.071,-4.406 8.887,-7.603c3.432,-4.06 5.104,-10.54 3.872,-11.922c-0.44,-0.518 -1.936,-0.863 -3.96,-0.431c-0.176,-0.692 -0.264,-1.383 -0.176,-2.16c0.44,-3.024 3.344,-5.53 6.512,-5.53c3.168,0 5.368,2.506 4.928,5.53c-0.352,2.419 -2.904,7.775 -5.984,12.008c-1.144,1.641 -2.552,3.196 -4.048,4.752c-2.64,2.678 -5.104,5.097 -8.096,6.738c-1.76,0.95 -3.08,1.728 -5.015,2.16c-1.848,0.432 -3.784,0.69 -5.72,0.69c-4.224,0 -7.128,-1.554 -7.744,-4.75c-0.352,-2.16 0.44,-5.443 1.76,-8.294l6.248,-13.304zm33.351,0.69c3.168,-3.541 8.184,-6.133 15.048,-6.133c4.048,0 6.424,2.678 6.336,6.48l0.528,-1.037c1.496,-3.197 4.4,-4.925 7.656,-4.925l4.664,0l-6.864,15.032c-1.408,3.024 -3.872,8.467 -4.048,10.8c-0.088,1.64 0.352,2.677 1.76,2.677c1.32,0 3.168,-0.864 4.576,-1.987a23.204,23.204 0 0 0 3.432,-3.196c0.088,0.95 0,3.024 -2.2,4.751c-2.376,1.815 -5.104,3.283 -9.152,3.283c-4.224,0 -7.128,-1.555 -7.744,-4.751c-0.088,-0.519 -0.088,-1.123 -0.088,-1.814c-3.872,5.356 -7.392,6.565 -10.912,6.565c-8.272,0 -10.912,-7.257 -9.328,-13.39c0.704,-2.851 1.76,-7.257 6.336,-12.354l0,-0.001zm7.128,21.599c3.432,0 7.568,-4.838 10.824,-14.687c1.408,-4.233 2.464,-11.23 -2.288,-11.23c-3.52,0 -6.776,3.714 -9.768,10.02c-2.024,4.234 -2.64,7.43 -2.552,9.85c0.088,4.664 2.024,6.047 3.784,6.047zm-69.607,-22.29c1.496,-3.196 4.4,-4.924 7.656,-4.924l4.664,0l-4.224,9.158c3.432,-3.801 7.832,-9.762 12.584,-9.762c6.072,0 6.512,5.356 2.992,8.552c-1.584,-1.814 -2.728,-2.419 -5.544,-2.419c-2.816,0 -10.12,3.715 -13.992,12.268l-3.696,8.034c-1.32,2.938 -4.4,4.925 -7.656,4.925l-4.664,0l6.688,-14.428c-1.936,2.42 -3.784,4.233 -5.632,5.875c-5.456,4.838 -7.04,6.047 -11,7.602c-2.903,1.21 -5.367,1.555 -9.415,1.555c-9.152,0 -13.464,-6.997 -12.408,-13.39c0.704,-4.406 2.552,-8.294 6.336,-12.268c3.256,-3.455 8.096,-6.133 14.96,-6.133c5.015,0 9.767,2.85 10.295,6.824c0.352,2.592 -0.44,5.53 -3.608,8.64c-4.84,4.665 -15.223,4.75 -18.303,4.924c-0.264,3.023 0.264,4.924 0.792,5.874c0.44,0.95 1.936,2.851 5.456,2.851c2.816,0 5.192,-0.864 7.48,-1.987c2.2,-1.123 4.751,-2.937 8.095,-5.874c3.696,-3.37 9.24,-10.022 12.144,-15.896l0,-0.001zm-31.503,6.48c-1.056,2.333 -1.76,4.492 -2.2,6.307c3.872,-0.346 9.328,-2.851 12.408,-7.17c2.991,-4.32 2.815,-9.245 -0.528,-9.245c-3.52,0.087 -6.688,3.802 -9.68,10.108zm-62.655,-24.19c1.408,-3.023 5.016,-5.442 8.096,-5.442s4.488,2.419 3.08,5.443c-1.408,3.023 -5.016,5.442 -8.096,5.442c-3.08,0.087 -4.488,-2.419 -3.08,-5.442l0,-0.001zm-7.48,17.71c1.496,-3.196 4.4,-4.924 7.656,-4.924l4.664,0l-6.864,15.032c-1.408,3.024 -3.872,8.467 -4.048,10.8c-0.088,1.554 0.264,2.677 1.76,2.677c1.672,0 3.872,-1.382 5.632,-2.937c1.76,-1.555 3.696,-3.715 6.072,-6.652c3.168,-3.974 7.655,-10.453 9.327,-14.082c1.496,-3.196 4.4,-4.924 7.656,-4.924l4.664,0l-6.16,13.304c4.312,-6.047 7.656,-9.416 10.648,-11.317c2.112,-1.382 4.488,-2.505 7.92,-2.505c4.224,0 7.128,1.555 7.744,4.751c0.352,2.16 -0.44,5.443 -1.76,8.294l-6.16,13.39c-1.32,2.938 -4.4,4.925 -7.656,4.925l-4.664,0l6.864,-15.032c1.408,-3.024 3.872,-8.467 4.048,-10.8c0.088,-1.64 -0.352,-2.677 -1.76,-2.677c-0.968,0 -2.024,0.518 -2.728,0.95c-3.08,1.641 -6.688,5.183 -11.792,12.613c-1.936,2.764 -3.96,6.134 -6.424,10.108c-1.76,2.937 -4.4,4.924 -7.655,4.924l-4.664,0l6.072,-13.131c-0.704,0.95 -1.32,1.814 -1.936,2.591c-3.608,4.493 -6.424,7.603 -9.416,9.244c-1.936,1.123 -4.576,1.9 -7.216,1.9c-4.224,0 -7.128,-1.554 -7.744,-4.75c-0.352,-2.16 0.44,-5.443 1.76,-8.294l6.16,-13.477l0,-0.001zm238.828,3.543c-9.592,20.82 -22,27.04 -29.568,27.04c5.72,-3.801 10.472,-8.985 21.56,-32.742c-9.944,1.814 -16.896,0.691 -21.824,-1.382c-5.28,-2.506 -9.24,-7.862 -4.752,-17.538c5.456,-11.835 25.873,-21.338 49.984,-21.338c18.48,0 57.815,8.985 71.718,0c-0.616,6.998 -8.096,12.44 -22.615,12.44c-16.544,0 -31.592,-10.194 -50.16,-10.194c-18.831,0 -35.99,8.553 -40.83,19.092c-3.697,7.948 -1.145,17.279 8.887,17.279c3.608,0 7.304,-0.432 11,-1.21l12.32,-26.695c1.408,-3.11 4.664,-5.183 8.096,-5.183l4.927,0l-12.934,28.077c8.536,-3.283 16.543,-7.689 23.231,-11.404l-5.72,12.527c-5.895,11.835 -13.64,15.896 -17.863,14.773c5.104,-4.147 9.064,-10.022 12.144,-17.538a158.707,158.707 0 0 1 -13.376,5.27l-4.224,8.726l-0.001,0z" fill-rule="evenodd" fill="#C63336"/>
  </svg>