<svg  id="fndm-9bp4sbiukq" viewBox="71 72.04000091552734 1275.3231201171875 422.8500061035156" xmlns="http://www.w3.org/2000/svg">
   <path d="m289.031,244.44l-218.03,127.132l73.736,123.318l197.054,-67.38c30.713,-10.502 70.457,-53.646 55.212,-111.98c-13.314,-50.946 -62.055,-72.917 -107.972,-71.09z" fill-rule="evenodd" fill="#0168ab"/>
   <path d="m289.031,244.44l-218.03,127.132l0,-299.532l148.1,0c49.904,0 91.064,24.842 103.737,67.713c13.556,45.855 -11.684,91.788 -33.807,104.688l0,-0.001z" fill-rule="evenodd" fill="#6babdb"/>
   <path d="m471.13,383.9c14.11,0.807 32.83,0.59 46.855,0.047c49.515,-1.914 56.852,-42.66 42.145,-62.008c-4.31,-5.67 -7.5,-6.157 -13.245,-10.868l5.868,-5.229c13.772,-13.324 14.426,-40.176 -3.43,-53.23c-17.085,-12.49 -53.196,-11 -77.747,-10.083l-0.446,141.371zm239.839,-0.026l25.718,0.148l0.297,-88.824c4.25,3.578 12.762,16.4 16.801,22.029l49.45,67.59l18.204,0.013l0.21,-142.223l-25.325,-0.17c-2.272,7.887 0.527,68.55 -0.872,85.263c-4.812,-4.897 -11.265,-14.674 -15.534,-20.63l-47.482,-64.556l-20.956,-0.045l-0.511,141.405zm-140.36,-0.04l27.091,0.128a925.413,925.413 0 0 0 6.998,-21.058c1.492,-4.67 4.694,-18.69 8.265,-20.865l43.996,0.145l13.796,41.857l28.315,-0.005c-0.695,-6.159 -31.865,-91.992 -36.637,-105.505c-3.898,-11.035 -9.665,-24.981 -12.375,-35.772l-31.19,-0.167l-48.259,141.242zm585.177,-3.556c16.875,4.389 68.23,16.117 85.475,12.442l0.053,-23.897c-15.608,-3.32 -34.698,-1.427 -58.834,-9.26l-0.282,-35.147l42.248,-0.475l0.107,-23.547l-42.25,-0.413l-0.094,-32.69l54.694,-0.425l0.241,-24.247l-81.314,-0.089l-0.044,137.748zm-306.04,3.763l81.01,-0.005l0.34,-24.211l-54.361,-0.193l-0.187,-34.93c6.225,-2.005 33.205,-0.332 42.24,-0.84l0.132,-23.643l-42.147,-0.188l-0.183,-33.139l54.267,-0.009l0.231,-24.246l-81.326,-0.121l-0.016,141.525zm406.238,-15.74l0.024,24.722c22.647,1.741 53.043,-3.565 69.06,-13.575c16.394,-10.246 29.923,-32.804 14.443,-56.056c-11.646,-17.493 -34.248,-20.06 -50.55,-32.5c-9.385,-7.16 -9.972,-20.466 2.417,-25.357c13.92,-5.495 23.113,3.409 31.425,7.332c3.916,-4.931 13.878,-12.802 16.19,-18.314c-9.05,-6.11 -13.796,-11.412 -29.114,-13.775c-12.852,-1.983 -26.53,0.692 -35.946,6.28c-19.23,11.415 -26.647,39.406 -8.6,59.502c5.41,6.023 16.6,12.004 26.547,16.505c9.19,4.158 23.084,9.184 25.01,19.176c4.85,25.153 -41.26,23.998 -60.906,26.06zm-293.093,-16.393c-4.05,2.255 -15.675,14.056 -17.101,18.43c8.277,6.275 14.068,10.976 27.849,14.253c49.498,11.772 73.886,-30.304 59.061,-58.29c-10.366,-19.57 -37.336,-24.907 -50.95,-35.116c-9.033,-6.775 -10.787,-20.37 1.741,-25.582c12.35,-5.138 24.675,2.09 34.172,5.145l0.194,-25.866c-59.673,-20.088 -90.087,32.912 -56.947,64.17c11.943,11.267 41.574,18.833 47.718,30.293c9.677,18.045 -20.386,33.566 -45.737,12.563zm75.967,-85.174l35.09,0.177l0.093,117.83l26.494,0.147l0.362,-117.89l34.975,-0.125l0.226,-24.214l-97.246,-0.128l0.006,24.203zm-541.313,93.764c44.739,9.003 53.843,-27.772 28.925,-35.844c-6.094,-1.974 -22.908,-3.206 -28.9,-1.166l-0.025,37.01zm0.005,-58.798c17.042,0.064 37.717,0.516 38.51,-17.699c0.868,-19.965 -21.898,-18.42 -38.419,-18.358l-0.091,36.057zm121.3,17.503l30.487,0.122c-1,-6.25 -8.131,-26.48 -10.826,-34.866c-1.362,-4.238 -2.338,-9.241 -4.906,-11.905l-14.755,46.649z" fill-rule="evenodd" fill="#003e76"/>
   <path d="m144.737,494.89l0,-250.45l144.293,0" fill="none"/>
   <path d="m144.737,494.89l0,-166.313l-73.737,42.995l73.737,123.318z" fill-rule="evenodd" fill="#27aa38"/>
   <path d="m144.737,328.577l144.293,-84.137l-144.293,0l0,84.137z" fill-rule="evenodd" fill="#003e77"/>
  </svg>