<svg  id="fndm-j8g09vq2kx" viewBox="0.2959713041782379 0.5900000333786011 175.72720336914062 133.4980010986328" xmlns="http://www.w3.org/2000/svg">
   <path d="m52.262,0.59l71.794,0l0,71.795l-71.794,0l0,-15.348c9.1,1.643 18.367,3.99 30.965,2.135c25.941,-3.82 30.995,-23.58 30.995,-23.58c-22.506,19.128 -40.251,11.65 -61.96,7.205l0,-4.58c14.866,-2.871 24.47,4.779 42.205,2.167c21.053,-3.1 25.155,-19.137 25.155,-19.137c-19.393,16.483 -34.43,8.622 -53.587,5.212c-5.991,-1.066 -10.46,-0.037 -13.773,1.881l0,-27.75zm16.736,25.142s2.496,-12.5 15.785,-10.135c13.289,2.366 23.72,7.818 37.173,-3.616c0,0 -2.846,11.125 -17.45,13.276c-14.604,2.15 -21.258,-5.731 -35.508,0.475zm-68.235,107.599c0.972,0.141 1.975,0.226 3.488,0.335c1.629,0.117 3.552,0.176 5.76,0.186c2.62,0 4.926,-0.147 6.909,-0.422c1.982,-0.275 3.69,-0.687 5.122,-1.217c1.423,-0.539 2.621,-1.187 3.573,-1.953a11.594,11.594 0 0 0 2.168,-2.276a10.334,10.334 0 0 0 1.433,-2.826c0.344,-1.031 0.52,-2.16 0.52,-3.376c-0.01,-1.698 -0.363,-3.2 -1.04,-4.505a9.516,9.516 0 0 0 -2.787,-3.297c-1.187,-0.883 -2.542,-1.521 -4.063,-1.914l0,-0.117c1.492,-0.58 2.718,-1.306 3.68,-2.169c0.972,-0.874 1.688,-1.835 2.159,-2.905a8.355,8.355 0 0 0 0.697,-3.347c-0.01,-1.216 -0.206,-2.325 -0.609,-3.326a8.168,8.168 0 0 0 -1.648,-2.63a9.207,9.207 0 0 0 -2.454,-1.875a14.228,14.228 0 0 0 -3.14,-1.344c-1.128,-0.324 -2.394,-0.56 -3.798,-0.697c-1.413,-0.137 -3.022,-0.196 -4.838,-0.196a88.41,88.41 0 0 0 -8.557,0.422a38.95,38.95 0 0 0 -2.604,0.331a0.526,0.526 0 0 0 -0.438,0.524l0,38.101c0,0.215 0.182,0.452 0.467,0.493zm8.424,-33.1c0.343,-0.059 0.814,-0.118 1.423,-0.167a38.41,38.41 0 0 1 2.404,-0.068c2.041,0 3.611,0.392 4.701,1.167c1.099,0.776 1.648,1.924 1.658,3.425c0,0.992 -0.275,1.845 -0.814,2.572c-0.55,0.735 -1.355,1.295 -2.434,1.707c-1.07,0.402 -2.404,0.599 -3.994,0.608l-2.944,0l0,-9.244zm0,15.663l3.061,0c1.129,0 2.179,0.098 3.151,0.304c0.971,0.216 1.825,0.539 2.561,0.981a4.914,4.914 0 0 1 1.727,1.717c0.412,0.707 0.618,1.551 0.628,2.532c-0.01,1.041 -0.216,1.934 -0.628,2.67a4.964,4.964 0 0 1 -1.678,1.786c-0.706,0.451 -1.521,0.785 -2.434,1.001a12.75,12.75 0 0 1 -2.914,0.314c-0.756,0 -1.423,0 -1.983,-0.01a15.445,15.445 0 0 1 -1.491,-0.108l0,-11.187zm48.729,0.53c0.01,-1.718 -0.196,-3.327 -0.618,-4.829a10.503,10.503 0 0 0 -2.08,-3.974c-0.972,-1.148 -2.257,-2.041 -3.886,-2.689c-1.62,-0.648 -3.622,-0.982 -6.016,-0.991c-1.747,0.009 -3.347,0.147 -4.789,0.422c-1.433,0.274 -2.689,0.608 -3.769,1.001c-0.888,0.323 -1.651,0.633 -2.257,0.96a0.539,0.539 0 0 0 -0.256,0.615l1.341,4.695c0.096,0.334 0.473,0.49 0.761,0.334a13.7,13.7 0 0 1 1.677,-0.756a17.926,17.926 0 0 1 2.748,-0.785a15.035,15.035 0 0 1 2.954,-0.304c1.099,0.01 1.992,0.128 2.679,0.363c0.697,0.236 1.227,0.55 1.6,0.923c0.373,0.382 0.628,0.785 0.765,1.226c0.138,0.432 0.206,0.854 0.196,1.257l0,0.353c-2.551,0 -4.867,0.226 -6.938,0.667c-2.07,0.452 -3.847,1.129 -5.328,2.032c-1.482,0.912 -2.63,2.051 -3.425,3.434c-0.795,1.384 -1.198,3.013 -1.207,4.878c0,1.158 0.216,2.267 0.638,3.317a8.531,8.531 0 0 0 1.825,2.816c0.805,0.834 1.776,1.482 2.924,1.963c1.148,0.481 2.454,0.726 3.916,0.736c1.717,0 3.287,-0.304 4.7,-0.903a9.27,9.27 0 0 0 3.543,-2.63l0.177,0l0,2.353c0,0.246 0.197,0.532 0.531,0.532l8.065,0a16.07,16.07 0 0 1 -0.274,-1.904a50.096,50.096 0 0 1 -0.157,-2.394a75.79,75.79 0 0 1 -0.04,-2.65l0,-10.068zm-8.655,6.535c0,0.265 -0.01,0.53 -0.039,0.785a5.65,5.65 0 0 1 -0.138,0.746a4.656,4.656 0 0 1 -0.981,1.668a5.175,5.175 0 0 1 -1.629,1.178a4.869,4.869 0 0 1 -2.041,0.451c-0.678,0 -1.276,-0.127 -1.806,-0.372a2.882,2.882 0 0 1 -1.256,-1.139c-0.304,-0.5 -0.461,-1.138 -0.471,-1.904c0.019,-1.128 0.392,-2.031 1.119,-2.698c0.735,-0.658 1.727,-1.139 2.983,-1.423c1.256,-0.285 2.669,-0.422 4.259,-0.412l0,3.12zm13.944,10.482l7.867,0a0.541,0.541 0 0 0 0.542,-0.531l-0.002,-16.074c0,-0.422 0.02,-0.825 0.059,-1.207c0.039,-0.393 0.118,-0.736 0.235,-1.031a5.75,5.75 0 0 1 0.933,-1.599a4.725,4.725 0 0 1 1.511,-1.257c0.608,-0.323 1.325,-0.49 2.149,-0.5c1.08,0.01 1.953,0.275 2.62,0.795c0.668,0.52 1.148,1.246 1.463,2.178c0.304,0.933 0.46,2.017 0.451,3.264l0,15.433c0,0.302 0.247,0.528 0.529,0.528l7.88,0a0.534,0.534 0 0 0 0.541,-0.529l0,-16.487c-0.01,-2.12 -0.265,-3.955 -0.785,-5.516c-0.511,-1.56 -1.227,-2.855 -2.159,-3.876a8.711,8.711 0 0 0 -3.268,-2.287c-1.246,-0.5 -2.611,-0.745 -4.092,-0.745c-1.207,0.009 -2.297,0.166 -3.258,0.461a9.994,9.994 0 0 0 -2.552,1.158c-0.736,0.471 -1.364,0.971 -1.874,1.511a8.994,8.994 0 0 0 -1.207,1.521l-0.177,0l0.001,-3.456c0,-0.422 -0.357,-0.548 -0.537,-0.548l-7.648,0l0.166,2.541c0.1,1.518 0.069,2.562 0.069,4.357l0,21.358c0,0.334 0.261,0.538 0.543,0.538zm57.098,-11.997a20.771,20.771 0 0 0 0.215,-3.077c0,-1.433 -0.147,-2.846 -0.441,-4.23a15.574,15.574 0 0 0 -1.394,-3.906a11.815,11.815 0 0 0 -2.463,-3.229c-1.011,-0.932 -2.218,-1.658 -3.631,-2.188c-1.413,-0.54 -3.052,-0.805 -4.907,-0.814c-2.002,0.009 -3.788,0.314 -5.358,0.893c-1.57,0.588 -2.934,1.393 -4.082,2.414a13.936,13.936 0 0 0 -2.866,3.493a16.5,16.5 0 0 0 -1.688,4.161a18.262,18.262 0 0 0 -0.549,4.407c0.01,3.012 0.618,5.623 1.815,7.801c1.197,2.189 2.934,3.877 5.221,5.064c2.286,1.178 5.064,1.776 8.332,1.796c1.952,0 3.805,-0.159 5.564,-0.452a22.114,22.114 0 0 0 4.435,-1.202c0.276,-0.108 0.392,-0.405 0.34,-0.599c-0.321,-1.679 -0.652,-3.356 -0.978,-5.034c-0.082,-0.421 -0.455,-0.479 -0.684,-0.417a22.257,22.257 0 0 1 -3.162,0.746c-1.295,0.207 -2.699,0.304 -4.22,0.304a13.02,13.02 0 0 1 -3.003,-0.333c-0.942,-0.226 -1.796,-0.56 -2.542,-1.011a5.56,5.56 0 0 1 -1.796,-1.708c-0.461,-0.687 -0.716,-1.501 -0.785,-2.424l18.103,0a0.533,0.533 0 0 0 0.524,-0.455zm-18.686,-5.668a8.13,8.13 0 0 1 0.432,-1.904a7.073,7.073 0 0 1 1.011,-1.894a5.17,5.17 0 0 1 1.668,-1.452c0.678,-0.373 1.482,-0.57 2.424,-0.579c1.021,0.009 1.865,0.215 2.532,0.598c0.658,0.393 1.178,0.893 1.551,1.502c0.363,0.598 0.628,1.236 0.775,1.894c0.147,0.667 0.216,1.275 0.206,1.835l-10.599,0zm22.357,16.436c1.037,0.516 2.263,0.945 3.694,1.287c1.6,0.383 3.347,0.579 5.251,0.589c2.747,-0.02 5.044,-0.422 6.889,-1.227c1.835,-0.795 3.218,-1.894 4.141,-3.297c0.932,-1.404 1.393,-3.013 1.393,-4.838c-0.009,-1.394 -0.284,-2.64 -0.824,-3.749c-0.54,-1.099 -1.374,-2.081 -2.512,-2.934c-1.139,-0.844 -2.62,-1.58 -4.436,-2.208c-1.168,-0.403 -2.09,-0.776 -2.777,-1.109c-0.677,-0.334 -1.168,-0.677 -1.452,-1.021a1.794,1.794 0 0 1 -0.422,-1.227c0.009,-0.716 0.304,-1.275 0.893,-1.678c0.588,-0.402 1.423,-0.608 2.522,-0.618c0.814,0.01 1.619,0.098 2.404,0.265c0.785,0.177 1.511,0.393 2.179,0.638c0.397,0.152 0.753,0.301 1.069,0.448a0.53,0.53 0 0 0 0.753,-0.365l1.317,-5.317c0.04,-0.164 -0.079,-0.268 -0.151,-0.302c-0.869,-0.418 -1.942,-0.779 -3.234,-1.088c-1.393,-0.334 -2.934,-0.501 -4.632,-0.52c-1.786,0.009 -3.395,0.245 -4.838,0.716c-1.433,0.471 -2.669,1.138 -3.69,1.992c-1.03,0.854 -1.815,1.855 -2.355,3.003c-0.549,1.148 -0.824,2.404 -0.834,3.769c-0.03,1.148 0.235,2.247 0.775,3.316c0.55,1.07 1.433,2.052 2.65,2.964c1.217,0.913 2.826,1.698 4.818,2.375c1.09,0.363 1.943,0.707 2.552,1.03c0.608,0.314 1.03,0.658 1.276,1.021c0.245,0.373 0.363,0.805 0.353,1.305c0.01,0.746 -0.285,1.315 -0.893,1.727c-0.609,0.413 -1.59,0.619 -2.934,0.628a14.187,14.187 0 0 1 -2.807,-0.323a20.753,20.753 0 0 1 -2.768,-0.805c-0.591,-0.215 -1.121,-0.417 -1.559,-0.67c-0.243,-0.14 -0.651,-0.011 -0.745,0.338l-1.321,5.284a0.536,0.536 0 0 0 0.255,0.601zm51.833,-10.768a20.771,20.771 0 0 0 0.216,-3.077c0,-1.433 -0.147,-2.846 -0.442,-4.23a15.533,15.533 0 0 0 -1.393,-3.906a11.815,11.815 0 0 0 -2.463,-3.229c-1.011,-0.932 -2.218,-1.658 -3.631,-2.188c-1.413,-0.54 -3.052,-0.805 -4.907,-0.814c-2.002,0.009 -3.788,0.314 -5.358,0.893c-1.57,0.588 -2.934,1.393 -4.083,2.414a13.931,13.931 0 0 0 -2.865,3.493a16.463,16.463 0 0 0 -1.688,4.161a18.263,18.263 0 0 0 -0.55,4.407c0.01,3.012 0.619,5.623 1.816,7.801c1.197,2.189 2.934,3.877 5.221,5.064c2.286,1.178 5.064,1.776 8.331,1.796c1.953,0 3.806,-0.159 5.565,-0.452a22.114,22.114 0 0 0 4.435,-1.202c0.275,-0.108 0.392,-0.405 0.34,-0.599c-0.321,-1.679 -0.652,-3.356 -0.978,-5.034c-0.082,-0.421 -0.455,-0.479 -0.684,-0.417a22.257,22.257 0 0 1 -3.162,0.746c-1.295,0.207 -2.699,0.304 -4.22,0.304a13.02,13.02 0 0 1 -3.003,-0.333c-0.942,-0.226 -1.796,-0.56 -2.542,-1.011a5.56,5.56 0 0 1 -1.796,-1.708c-0.461,-0.687 -0.716,-1.501 -0.785,-2.424l18.103,0a0.532,0.532 0 0 0 0.523,-0.455zm-18.685,-5.668a8.13,8.13 0 0 1 0.432,-1.904a7.073,7.073 0 0 1 1.011,-1.894a5.17,5.17 0 0 1 1.668,-1.452c0.677,-0.373 1.482,-0.57 2.424,-0.579c1.021,0.009 1.865,0.215 2.532,0.598c0.657,0.393 1.178,0.893 1.551,1.502c0.363,0.598 0.628,1.236 0.775,1.894c0.147,0.667 0.216,1.275 0.206,1.835l-10.599,0z" fill-rule="evenodd" fill="#006737"/>
  </svg>