<svg xmlns="http://www.w3.org/2000/svg" fill-rule="evenodd" clip-rule="evenodd" image-rendering="optimizeQuality" shape-rendering="geometricPrecision" text-rendering="geometricPrecision" viewBox="-2 1 6600 3300"><g><rect width="6600" height="3300" x="-2" y="1" fill="none"/><g><g><g><rect width="6600" height="3300" x="-2" y="1" fill="none"/><g><path fill="#4dc8f4" d="M835.3 909.75l1781.25 0c164.28,0 298.68,134.4 298.68,298.68 0,79.46 -31.26,155.27 -87.74,210.99l-902.08 890.22c-51.35,50.67 -121.57,82.61 -199.47,82.61 -77.9,0 -148.13,-31.91 -199.48,-82.61l-902.1 -890.22c-54.47,-53.79 -87.74,-128.8 -87.74,-210.94l0 -0.05c0,-164.28 134.4,-298.68 298.68,-298.68z"/><path fill="#3e4095" d="M742.47 1434.14l242.48 239.28 103.9 0c8.91,-28.66 24.86,-57.5 53.02,-85.96l151.68 -153.32 -551.08 0z"/><path fill="#3e4095" d="M1188.14 1873.93l389.24 384.11c39.82,39.31 92.46,61.72 148.56,61.72 56.08,0 108.73,-22.42 148.56,-61.72l435.93 -430.2c38.85,-38.34 26.89,-151.46 0,-189l-130.07 -181.61c-12.25,-17.1 -26.02,-23.09 -47.33,-23.09l-313.15 0 -217.15 239.28 322.73 0c67.45,0 84.97,80.65 49.34,114.79l-221.31 212.08c-24.2,23.19 -69.03,26.97 -92.21,2.76l-186.24 -194.55c-24.73,-25.82 -29.74,-70.43 3.68,-106.04l322.72 -343.93 764.46 0 236.49 -247.12 -1023.08 0c-62.04,0 -128.3,29.24 -170.55,74.67l-417.7 449.08c-49.26,52.96 -65.73,148.55 -2.92,238.77z"/><path fill="#3e4095" fill-rule="nonzero" d="M3164.91 2238.19l-64.63 0 0 41.4 54.03 0c4.98,0 8.75,1.13 11.2,3.36 2.46,2.26 3.7,5.28 3.7,9.01 0,3.77 -1.24,6.75 -3.73,8.98 -2.53,2.22 -6.26,3.31 -11.17,3.31l-54.03 0 0 53.32c0,6.79 -1.54,11.8 -4.6,15.08 -3.05,3.28 -6.97,4.91 -11.72,4.91 -4.87,0 -8.83,-1.67 -11.88,-4.99 -3.06,-3.31 -4.61,-8.33 -4.61,-15l0 -124.62c0,-4.71 0.72,-8.56 2.12,-11.54 1.4,-2.98 3.58,-5.17 6.56,-6.52 2.98,-1.36 6.78,-2.04 11.43,-2.04l77.33 0c5.24,0 9.13,1.17 11.65,3.47 2.53,2.34 3.81,5.4 3.81,9.12 0,3.85 -1.28,6.95 -3.81,9.28 -2.52,2.3 -6.41,3.47 -11.65,3.47zm217.57 118.28l-7.73 -20.31 -65.84 0 -7.72 20.73c-3.02,8.11 -5.59,13.57 -7.73,16.4 -2.12,2.83 -5.62,4.27 -10.49,4.27 -4.11,0 -7.77,-1.51 -10.93,-4.53 -3.17,-3.01 -4.76,-6.45 -4.76,-10.26 0,-2.22 0.38,-4.52 1.1,-6.86 0.75,-2.38 1.96,-5.62 3.66,-9.84l41.4 -105.12c1.2,-3.02 2.6,-6.64 4.26,-10.86 1.66,-4.27 3.43,-7.77 5.32,-10.56 1.88,-2.79 4.33,-5.06 7.38,-6.79 3.06,-1.74 6.83,-2.6 11.32,-2.6 4.6,0 8.41,0.86 11.46,2.6 3.05,1.73 5.51,3.96 7.39,6.68 1.89,2.71 3.47,5.65 4.75,8.78 1.29,3.13 2.94,7.32 4.9,12.52l42.31 104.48c3.32,7.96 4.98,13.73 4.98,17.34 0,3.74 -1.55,7.21 -4.68,10.34 -3.13,3.13 -6.93,4.68 -11.35,4.68 -2.56,0 -4.79,-0.46 -6.63,-1.4 -1.81,-0.9 -3.36,-2.15 -4.64,-3.73 -1.24,-1.58 -2.56,-4.04 -4,-7.28 -1.47,-3.28 -2.67,-6.19 -3.73,-8.68zm-64.93 -44.98l48.38 0 -24.4 -66.74 -23.98 66.74zm282.14 -5.88l-34.56 0 0 51.96c0,6.86 -1.5,11.87 -4.52,15.12 -3.02,3.24 -6.98,4.87 -11.81,4.87 -5.24,0 -9.31,-1.7 -12.18,-5.1 -2.86,-3.39 -4.3,-8.33 -4.3,-14.89l0 -124.62c0,-7.05 1.59,-12.18 4.76,-15.35 3.16,-3.16 8.29,-4.75 15.35,-4.75l53.35 0c7.35,0 13.65,0.31 18.89,0.95 5.24,0.64 9.95,1.88 14.14,3.8 5.09,2.15 9.58,5.21 13.49,9.17 3.89,3.99 6.87,8.63 8.87,13.87 2.04,5.28 3.05,10.86 3.05,16.78 0,15.02 -7.21,34.77 -22.77,38.16 26.08,7.57 25.64,52.33 25.64,68.85 0,2.11 -0.68,4.23 -2.04,6.34 -1.36,2.11 -3.2,3.77 -5.58,4.98 -2.33,1.2 -5.09,1.81 -8.18,1.81 -3.65,0 -7.32,-0.25 -9.27,-2.61 -7.03,-8.48 -4.46,-39.2 -16.54,-58.41 -6.08,-9.66 -14.54,-10.93 -25.79,-10.93zm-4.28 -68.1l-30.28 0 0 44.57 29.37 0c7.89,0 14.52,-0.68 19.92,-2.03 5.35,-1.36 9.45,-3.7 12.28,-6.98 2.83,-3.28 4.26,-7.81 4.26,-13.54 0,-4.52 -1.13,-8.48 -3.43,-11.91 -2.25,-3.43 -5.43,-6 -9.5,-7.69 -3.8,-1.63 -11.34,-2.42 -22.62,-2.42zm245.58 112.89l-25.98 -103.16 0 111.76c0,6.19 -1.39,10.82 -4.15,13.92 -2.75,3.09 -6.41,4.64 -10.93,4.64 -4.41,0 -8.03,-1.55 -10.82,-4.6 -2.79,-3.06 -4.19,-7.7 -4.19,-13.96l0 -128.13c0,-7.08 1.85,-11.83 5.51,-14.32 3.69,-2.45 8.67,-3.7 14.89,-3.7l10.18 0c6.11,0 10.52,0.57 13.28,1.66 2.75,1.09 4.82,3.09 6.14,5.96 1.32,2.86 2.83,7.54 4.53,14.03l23.52 88.75 23.53 -88.75c1.7,-6.49 3.21,-11.17 4.53,-14.03 1.32,-2.87 3.36,-4.87 6.11,-5.96 2.75,-1.09 7.2,-1.66 13.31,-1.66l10.14 0c6.26,0 11.24,1.25 14.93,3.7 3.66,2.49 5.51,7.24 5.51,14.32l0 128.13c0,6.19 -1.39,10.82 -4.15,13.92 -2.75,3.09 -6.45,4.64 -11.05,4.64 -4.34,0 -7.91,-1.55 -10.71,-4.64 -2.79,-3.1 -4.18,-7.73 -4.18,-13.92l0 -111.76 -25.98 103.16c-1.7,6.68 -3.06,11.62 -4.15,14.75 -1.05,3.09 -3.02,5.95 -5.88,8.52 -2.9,2.61 -6.86,3.89 -11.96,3.89 -3.84,0 -7.09,-0.84 -9.72,-2.5 -2.64,-1.66 -4.72,-3.77 -6.19,-6.33 -1.47,-2.6 -2.63,-5.43 -3.46,-8.56 -0.88,-3.13 -1.74,-6.41 -2.61,-9.77zm328.42 6.07l-7.73 -20.31 -65.83 0 -7.73 20.73c-3.01,8.11 -5.58,13.57 -7.73,16.4 -2.11,2.83 -5.61,4.27 -10.48,4.27 -4.11,0 -7.77,-1.51 -10.93,-4.53 -3.17,-3.01 -4.76,-6.45 -4.76,-10.26 0,-2.22 0.38,-4.52 1.1,-6.86 0.75,-2.38 1.96,-5.62 3.66,-9.84l41.4 -105.12c1.2,-3.02 2.6,-6.64 4.26,-10.86 1.65,-4.27 3.43,-7.77 5.31,-10.56 1.89,-2.79 4.34,-5.06 7.39,-6.79 3.06,-1.74 6.83,-2.6 11.31,-2.6 4.6,0 8.42,0.86 11.47,2.6 3.05,1.73 5.51,3.96 7.39,6.68 1.89,2.71 3.47,5.65 4.75,8.78 1.28,3.13 2.94,7.32 4.9,12.52l42.31 104.48c3.32,7.96 4.98,13.73 4.98,17.34 0,3.74 -1.55,7.21 -4.68,10.34 -3.13,3.13 -6.94,4.68 -11.35,4.68 -2.56,0 -4.79,-0.46 -6.63,-1.4 -1.82,-0.9 -3.36,-2.15 -4.65,-3.73 -1.24,-1.58 -2.55,-4.04 -3.99,-7.28 -1.47,-3.28 -2.68,-6.19 -3.74,-8.68zm-64.92 -44.98l48.38 0 -24.4 -66.74 -23.98 66.74zm347.42 12.18c0,5.17 -1.24,10.75 -3.8,16.74 -2.53,6 -6.52,11.88 -12,17.65 -5.43,5.81 -12.4,10.49 -20.84,14.1 -8.49,3.59 -18.37,5.4 -29.64,5.4 -8.52,0 -16.29,-0.8 -23.31,-2.42 -6.97,-1.62 -13.34,-4.15 -19.04,-7.58 -5.69,-3.39 -10.97,-7.92 -15.76,-13.5 -4.26,-5.09 -7.92,-10.75 -10.93,-17.04 -3.02,-6.3 -5.28,-13.05 -6.79,-20.17 -1.51,-7.17 -2.26,-14.75 -2.26,-22.78 0,-13 1.88,-24.69 5.69,-34.99 3.77,-10.33 9.24,-19.15 16.29,-26.47 7.09,-7.31 15.35,-12.89 24.85,-16.74 9.5,-3.81 19.64,-5.73 30.39,-5.73 13.12,0 24.78,2.6 35.03,7.84 10.22,5.21 18.06,11.69 23.53,19.38 5.43,7.69 8.18,14.93 8.18,21.8 0,3.77 -1.36,7.05 -4,9.95 -2.63,2.87 -5.84,4.3 -9.61,4.3 -4.19,0 -7.35,-1.02 -9.43,-2.98 -2.11,-2 -4.45,-5.43 -7.01,-10.3 -4.3,-8.03 -9.31,-14.02 -15.08,-18.02 -5.81,-3.96 -12.9,-5.95 -21.38,-5.95 -13.5,0 -24.21,5.12 -32.2,15.34 -8,10.26 -12,24.81 -12,43.67 0,12.59 1.78,23.07 5.32,31.44 3.51,8.37 8.52,14.59 15.01,18.75 6.49,4.1 14.06,6.18 22.77,6.18 9.43,0 17.39,-2.34 23.91,-7.02 6.53,-4.67 11.43,-11.54 14.74,-20.62 1.4,-4.26 3.13,-7.73 5.2,-10.45 2.05,-2.67 5.36,-4.03 9.92,-4.03 3.93,0 7.28,1.36 10.07,4.11 2.79,2.71 4.18,6.11 4.18,10.14zm227.16 -85.48l-73.91 0 0 39.82 68.06 0c5.02,0 8.75,1.13 11.2,3.35 2.49,2.23 3.69,5.21 3.69,8.86 0,3.66 -1.2,6.68 -3.61,8.98 -2.46,2.3 -6.19,3.47 -11.28,3.47l-68.06 0 0 46.15 76.43 0c5.16,0 9.05,1.21 11.65,3.58 2.64,2.38 3.96,5.59 3.96,9.54 0,3.81 -1.32,6.94 -3.96,9.32 -2.6,2.37 -6.49,3.58 -11.65,3.58l-89.14 0c-7.12,0 -12.25,-1.58 -15.38,-4.75 -3.13,-3.17 -4.71,-8.3 -4.71,-15.35l0 -121.79c0,-4.71 0.71,-8.56 2.11,-11.54 1.39,-2.98 3.58,-5.17 6.56,-6.52 2.97,-1.36 6.79,-2.04 11.42,-2.04l86.62 0c5.24,0 9.12,1.17 11.64,3.47 2.53,2.34 3.82,5.4 3.82,9.12 0,3.85 -1.29,6.95 -3.82,9.28 -2.52,2.3 -6.4,3.47 -11.64,3.47zm-37.75 -44.84l-11.05 -12.89 -11.05 12.89c-3.09,3.71 -5.16,5.93 -6.29,6.76 -1.1,0.79 -3.17,1.2 -6.18,1.2l-8.83 0c-3.02,0 -4.53,-0.53 -4.53,-1.54 0,-0.79 1.14,-2.64 3.44,-5.51l12.25 -14.71c1.02,-1.24 2.19,-2.67 3.51,-4.33 1.36,-1.66 2.48,-2.82 3.5,-3.54 0.99,-0.72 2.46,-1.25 4.34,-1.66 1.92,-0.42 4.15,-0.61 6.63,-0.61l6.19 0c4.87,0 8.19,0.61 9.99,1.77 1.81,1.17 4.49,3.97 8,8.37l12.7 14.9c2.16,2.83 3.21,4.49 3.21,4.98 0,1.24 -1.66,1.88 -4.98,1.88l-8.37 0c-2.22,0 -3.96,-0.3 -5.24,-0.94 -1.32,-0.6 -2.52,-1.59 -3.7,-2.9 -1.2,-1.36 -2.37,-2.71 -3.54,-4.12zm173.19 114.52l0 -77.86c0,-6.64 1.51,-11.58 4.49,-14.89 2.97,-3.32 6.9,-4.98 11.76,-4.98 5.05,0 9.09,1.66 12.07,4.98 2.97,3.31 4.48,8.29 4.48,14.89l0 79.67c0,9.05 1.02,16.63 3.06,22.71 2,6.07 5.62,10.78 10.75,14.13 5.16,3.36 12.36,5.02 21.64,5.02 12.81,0 21.87,-3.4 27.19,-10.22 5.31,-6.83 7.95,-17.16 7.95,-30.99l0 -80.32c0,-6.68 1.47,-11.69 4.41,-14.97 2.94,-3.28 6.9,-4.9 11.84,-4.9 4.9,0 8.9,1.62 11.96,4.9 3.05,3.28 4.6,8.29 4.6,14.97l0 77.86c0,12.67 -1.25,23.27 -3.7,31.72 -2.49,8.48 -7.13,15.91 -13.99,22.31 -5.89,5.43 -12.74,9.39 -20.55,11.92 -7.81,2.49 -16.93,3.74 -27.38,3.74 -12.44,0 -23.15,-1.36 -32.16,-4.04 -8.97,-2.67 -16.29,-6.86 -21.95,-12.48 -5.69,-5.62 -9.84,-12.86 -12.51,-21.64 -2.64,-8.79 -3.96,-19.31 -3.96,-31.53zm367.94 -67.87l-35.78 0 0 117.57c0,6.79 -1.51,11.8 -4.57,15.08 -3.02,3.28 -6.93,4.91 -11.72,4.91 -4.87,0 -8.87,-1.67 -11.92,-4.99 -3.05,-3.31 -4.6,-8.29 -4.6,-15l0 -117.57 -35.78 0c-5.62,0 -9.77,-1.24 -12.48,-3.7 -2.72,-2.48 -4.11,-5.76 -4.11,-9.84 0,-4.18 1.43,-7.5 4.26,-9.95 2.83,-2.45 6.94,-3.66 12.33,-3.66l104.37 0c5.7,0 9.88,1.25 12.67,3.77 2.75,2.53 4.14,5.81 4.14,9.84 0,4.08 -1.43,7.36 -4.21,9.84 -2.8,2.46 -6.98,3.7 -12.6,3.7zm128.55 117.57l0 -127.56c0,-6.64 1.5,-11.58 4.52,-14.89 3.02,-3.32 6.94,-4.98 11.73,-4.98 4.9,0 8.9,1.62 11.95,4.9 3.05,3.28 4.6,8.26 4.6,14.97l0 127.56c0,6.71 -1.55,11.69 -4.6,15 -3.05,3.32 -7.05,4.99 -11.95,4.99 -4.72,0 -8.6,-1.67 -11.65,-5.02 -3.06,-3.35 -4.6,-8.34 -4.6,-14.97zm298.52 -33.9c0,5.17 -1.24,10.75 -3.8,16.74 -2.53,6 -6.53,11.88 -12,17.65 -5.43,5.81 -12.4,10.49 -20.84,14.1 -8.49,3.59 -18.37,5.4 -29.64,5.4 -8.53,0 -16.29,-0.8 -23.31,-2.42 -6.97,-1.62 -13.35,-4.15 -19.04,-7.58 -5.69,-3.39 -10.97,-7.92 -15.76,-13.5 -4.26,-5.09 -7.92,-10.75 -10.94,-17.04 -3.01,-6.3 -5.27,-13.05 -6.78,-20.17 -1.51,-7.17 -2.26,-14.75 -2.26,-22.78 0,-13 1.88,-24.69 5.69,-34.99 3.77,-10.33 9.24,-19.15 16.29,-26.47 7.09,-7.31 15.35,-12.89 24.85,-16.74 9.5,-3.81 19.64,-5.73 30.39,-5.73 13.12,0 24.78,2.6 35.03,7.84 10.22,5.21 18.06,11.69 23.53,19.38 5.43,7.69 8.18,14.93 8.18,21.8 0,3.77 -1.36,7.05 -4,9.95 -2.63,2.87 -5.84,4.3 -9.61,4.3 -4.19,0 -7.35,-1.02 -9.43,-2.98 -2.11,-2 -4.45,-5.43 -7.01,-10.3 -4.3,-8.03 -9.31,-14.02 -15.09,-18.02 -5.8,-3.96 -12.89,-5.95 -21.37,-5.95 -13.5,0 -24.21,5.12 -32.2,15.34 -8,10.26 -12,24.81 -12,43.67 0,12.59 1.78,23.07 5.32,31.44 3.51,8.37 8.52,14.59 15.01,18.75 6.48,4.1 14.06,6.18 22.77,6.18 9.43,0 17.39,-2.34 23.91,-7.02 6.52,-4.67 11.42,-11.54 14.74,-20.62 1.4,-4.26 3.13,-7.73 5.2,-10.45 2.04,-2.67 5.36,-4.03 9.92,-4.03 3.92,0 7.28,1.36 10.07,4.11 2.79,2.71 4.18,6.11 4.18,10.14zm224.1 32.8l-7.73 -20.31 -65.84 0 -7.73 20.73c-3.01,8.11 -5.58,13.57 -7.73,16.4 -2.11,2.83 -5.61,4.27 -10.48,4.27 -4.11,0 -7.77,-1.51 -10.93,-4.53 -3.17,-3.01 -4.76,-6.45 -4.76,-10.26 0,-2.22 0.38,-4.52 1.1,-6.86 0.75,-2.38 1.96,-5.62 3.66,-9.84l41.4 -105.12c1.2,-3.02 2.6,-6.64 4.26,-10.86 1.66,-4.27 3.43,-7.77 5.31,-10.56 1.89,-2.79 4.34,-5.06 7.39,-6.79 3.06,-1.74 6.83,-2.6 11.31,-2.6 4.61,0 8.42,0.86 11.47,2.6 3.05,1.73 5.51,3.96 7.39,6.68 1.89,2.71 3.47,5.65 4.75,8.78 1.28,3.13 2.94,7.32 4.9,12.52l42.31 104.48c3.32,7.96 4.98,13.73 4.98,17.34 0,3.74 -1.55,7.21 -4.68,10.34 -3.13,3.13 -6.94,4.68 -11.35,4.68 -2.56,0 -4.79,-0.46 -6.63,-1.4 -1.82,-0.9 -3.36,-2.15 -4.64,-3.73 -1.25,-1.58 -2.56,-4.04 -4,-7.28 -1.47,-3.28 -2.68,-6.19 -3.73,-8.68zm-64.93 -44.98l48.38 0 -24.4 -66.74 -23.98 66.74z"/><path fill="#3e4095" d="M3078.52 1875.75l0 -805.87c0,-52.76 59.17,-111.93 111.92,-111.93l467.09 0c143.54,0 239.48,109.6 283.56,213.41 31.58,74.4 -10.66,202.14 -68.65,271.61 171.4,48.99 195.71,234.52 155.21,358.16 -34.76,106.1 -148.84,197 -256.69,197l-346.22 0c-85.35,0 -85.37,-173.12 0,-173.12l295.48 0c159.5,0 171.43,-247.72 11.94,-247.72l-307.42 0c-93.82,0 -95.8,-187.39 4.25,-189.23l151.56 -2.8c189.23,-3.49 204.97,-273.55 -12.3,-273.55l-261.25 0 0 762.25c0,189.87 -228.48,185.52 -228.48,1.79z"/><path fill="#3e4095" d="M4187.58 921.15l0 0c51.77,0 93.75,41.98 93.75,93.75l0 900.55c0,51.77 -41.98,93.75 -93.75,93.75l0 0c-51.77,0 -93.75,-41.98 -93.75,-93.75l0 -900.55c0,-51.77 41.98,-93.75 93.75,-93.75z"/><path fill="#3e4095" d="M5816.58 1094.36l0 0c0.01,50.67 -41.09,91.76 -91.75,91.76l-408.15 0c-50.66,0 -91.76,-41.09 -91.76,-91.76l0 0c0,-50.67 41.1,-91.76 91.76,-91.76l408.15 0c50.66,0 91.76,41.09 91.76,91.76z"/><path fill="#3e4095" d="M5117.34 1920.07l0 -313.51c0,-170.59 -209.07,-332.95 -379.59,-328.87 -228.21,5.45 -400.28,194.05 -398.03,378.05 3.13,255.37 245.47,379.56 436.45,371.9 139.19,-5.57 134.49,-183.54 18.44,-182.87 -170.17,0.97 -261.61,-78.04 -261.25,-182.88 0.33,-96.58 98.24,-207.88 212.07,-201.32 79.88,4.6 187.49,75.21 187.49,164.43l0 288.92c0,142.94 184.42,127.58 184.42,6.15z"/><path fill="#3e4095" d="M5178.81 1360.67l0 374.98c0,147.55 192.86,278.88 338.09,278.88 145.23,0 338.09,-131.33 338.09,-278.88l0 -374.98c0,-101.4 -184.42,-96.82 -184.42,0l0 343.43c0,63.72 -77.84,120.69 -153.67,120.69 -75.83,0 -153.67,-56.97 -153.67,-120.69l0 -343.43c0,-99.89 -184.42,-102.94 -184.42,0z"/><path fill="#3e4095" d="M5983.3 1422.44c42.02,0 76.07,-34.05 76.07,-76.07 0,-42.01 -34.05,-76.07 -76.07,-76.07 -42.01,0 -76.07,34.06 -76.07,76.07 0,42.02 34.06,76.07 76.07,76.07zm0 -13.83c34.38,0 62.24,-27.86 62.24,-62.24 0,-34.38 -27.86,-62.23 -62.24,-62.23 -34.37,0 -62.23,27.85 -62.23,62.23 0,34.38 27.86,62.24 62.23,62.24zm-35.08 -23.88l0 -79.75 33.9 0c8.53,0 14.73,0.72 18.59,2.15 3.88,1.43 6.96,3.97 9.28,7.63 2.32,3.67 3.49,7.85 3.49,12.57 0,5.99 -1.75,10.93 -5.25,14.83 -3.51,3.9 -8.74,6.35 -15.73,7.37 3.47,2.03 6.33,4.25 8.58,6.68 2.27,2.43 5.31,6.76 9.13,12.96l9.73 15.56 -19.25 0 -11.55 -17.42c-4.14,-6.18 -6.97,-10.07 -8.51,-11.69 -1.53,-1.6 -3.14,-2.71 -4.85,-3.3 -1.73,-0.6 -4.44,-0.9 -8.15,-0.9l-3.26 0 0 33.31 -16.15 0zm16.15 -46.01l11.91 0c7.72,0 12.53,-0.33 14.46,-0.98 1.92,-0.65 3.44,-1.78 4.51,-3.38 1.1,-1.6 1.64,-3.6 1.64,-5.99 0,-2.69 -0.73,-4.85 -2.16,-6.52 -1.43,-1.65 -3.45,-2.69 -6.05,-3.12 -1.31,-0.18 -5.23,-0.27 -11.75,-0.27l-12.56 0 0 20.26z"/></g></g></g></g></g></svg>