<svg  id="fndm-49zwnj3glj" viewBox="8.506000518798828 52.599002838134766 175.70985412597656 87.55488586425781" xmlns="http://www.w3.org/2000/svg">
   <path d="m13.726,67.274l0,-14.405l5.402,0c1.08,0 1.98,0.135 2.611,0.405c0.675,0.315 1.215,0.765 1.576,1.351c0.405,0.63 0.585,1.26 0.585,1.891c0,0.63 -0.18,1.215 -0.495,1.755c-0.36,0.54 -0.854,0.99 -1.531,1.305c0.855,0.271 1.531,0.721 2.026,1.306c0.45,0.63 0.675,1.351 0.675,2.206a4.46,4.46 0 0 1 -0.405,1.891c-0.315,0.54 -0.63,0.99 -1.081,1.306a3.922,3.922 0 0 1 -1.575,0.72c-0.63,0.18 -1.396,0.27 -2.296,0.27l-5.492,-0.001zm1.891,-8.373l3.106,0c0.855,0 1.44,-0.045 1.845,-0.181c0.451,-0.135 0.811,-0.36 1.081,-0.72c0.225,-0.315 0.36,-0.721 0.36,-1.261c0,-0.45 -0.135,-0.9 -0.36,-1.26s-0.54,-0.585 -0.945,-0.72c-0.45,-0.135 -1.17,-0.225 -2.206,-0.225l-2.881,0l0,4.367zm0,6.663l3.603,0c0.585,0 1.035,-0.045 1.26,-0.09c0.45,-0.09 0.81,-0.18 1.125,-0.405c0.27,-0.18 0.54,-0.45 0.72,-0.765c0.18,-0.36 0.271,-0.765 0.271,-1.215c0,-0.541 -0.135,-1.036 -0.405,-1.396c-0.27,-0.405 -0.63,-0.675 -1.125,-0.855c-0.496,-0.135 -1.216,-0.225 -2.116,-0.225l-3.331,0l0,4.951l-0.002,0zm34.033,1.71l5.537,-14.405l2.071,0l5.852,14.405l-2.161,0l-1.666,-4.367l-6.032,0l-1.576,4.367l-2.025,0zm4.142,-5.942l4.907,0l-1.531,-4.006a37.827,37.827 0 0 1 -0.99,-2.971c-0.18,0.945 -0.45,1.846 -0.81,2.746l-1.576,4.231zm34.888,5.942l0,-14.405l1.936,0l7.563,11.299l0,-11.299l1.848,0l0,14.405l-1.982,0l-7.564,-11.344l0,11.344l-1.801,0zm48.842,-5.086l1.892,0.495c-0.403,1.576 -1.125,2.746 -2.16,3.602c-1.034,0.81 -2.297,1.215 -3.78,1.215c-1.576,0 -2.836,-0.315 -3.826,-0.945c-0.945,-0.63 -1.711,-1.531 -2.207,-2.746a10.087,10.087 0 0 1 -0.767,-3.872c0,-1.485 0.315,-2.791 0.854,-3.917c0.586,-1.125 1.396,-1.981 2.478,-2.566c1.035,-0.585 2.205,-0.855 3.468,-0.855c1.438,0 2.655,0.36 3.646,1.125c0.989,0.72 1.666,1.756 2.069,3.061l-1.891,0.45c-0.359,-1.035 -0.811,-1.801 -1.441,-2.296c-0.629,-0.45 -1.438,-0.72 -2.43,-0.72c-1.08,0 -2.025,0.271 -2.746,0.812c-0.766,0.541 -1.26,1.26 -1.576,2.116a8.484,8.484 0 0 0 -0.449,2.791c0,1.215 0.181,2.296 0.539,3.196c0.361,0.9 0.9,1.621 1.666,2.071c0.767,0.45 1.576,0.675 2.433,0.675c1.08,0 1.979,-0.315 2.701,-0.945c0.764,-0.586 1.259,-1.532 1.527,-2.747zm27.687,-1.936c0,-2.386 0.631,-4.277 1.937,-5.627c1.262,-1.351 2.928,-2.026 4.953,-2.026c1.35,0 2.521,0.315 3.602,0.945a6.028,6.028 0 0 1 2.43,2.656c0.586,1.125 0.855,2.431 0.855,3.872c0,1.439 -0.271,2.746 -0.9,3.917c-0.584,1.17 -1.395,2.026 -2.475,2.611s-2.252,0.9 -3.512,0.9c-1.353,0 -2.566,-0.315 -3.646,-0.99c-1.035,-0.63 -1.846,-1.531 -2.432,-2.656c-0.542,-1.171 -0.812,-2.342 -0.812,-3.602zm1.979,0c0,1.756 0.451,3.106 1.396,4.097c0.945,1.035 2.115,1.53 3.512,1.53c1.439,0 2.611,-0.495 3.512,-1.53c0.945,-0.991 1.396,-2.431 1.396,-4.277c0,-1.17 -0.181,-2.206 -0.584,-3.062a4.887,4.887 0 0 0 -1.711,-2.071a5.047,5.047 0 0 0 -2.61,-0.72c-1.353,0 -2.478,0.496 -3.468,1.396c-0.989,0.945 -1.443,2.476 -1.443,4.637zm-128.657,54.065l0.271,0.045l0.225,0.136l0.225,0.09l0.18,0.136l0.226,0.181l0.18,0.18l0.18,0.181l0.135,0.226l0.135,0.225l0.09,0.226l0.09,0.226l0.045,0.271l0.045,0.271l0.045,0.271l-0.045,0.271l-0.045,0.271l-0.045,0.227l-0.09,0.27l-0.09,0.227l-0.135,0.225l-0.135,0.182l-0.18,0.225l-0.18,0.181l-0.226,0.136l-0.18,0.18l-0.225,0.09l-0.225,0.136l-0.271,0.046l-0.271,0.09l-0.315,0.045l-4.592,0l0,-5.582l4.592,0l0.315,0.045l0.271,0.07zm0,-21.518l0.271,0.09l0.225,0.09l0.225,0.135l0.18,0.135l0.226,0.18l0.18,0.18l0.18,0.18l0.135,0.225l0.135,0.225l0.09,0.225l0.09,0.226l0.045,0.27l0.045,0.27l0.045,0.27l-0.045,0.271l-0.045,0.271l-0.045,0.225l-0.09,0.27l-0.09,0.226l-0.135,0.226l-0.135,0.181l-0.18,0.225l-0.18,0.182l-0.226,0.135l-0.18,0.135l-0.225,0.137l-0.225,0.09l-0.271,0.09l-0.271,0.045l-0.315,0.045l-4.592,0l0,-5.537l4.592,0l0.315,0.045l0.271,0.037zm-0.586,23.723l0.045,0.045l0.044,0l0.045,0.046l0.045,0l0,0.046l0.045,0.044l0.045,0.045l0.045,0.046l0,0.36l-0.045,0l0,0.046l-0.045,0.045l-0.045,0.046l0,0.045l-0.045,0l-0.045,0.045l-0.044,0l-0.045,0.045l-2.296,0l0,-0.9l2.296,0l0,-0.004zm0,-21.472l0.045,0l0.044,0.045l0.045,0l0.045,0.045l0,0.045l0.045,0.044l0.045,0l0,0.045l0.045,0.045l0,0.316l-0.045,0.044l0,0.045l-0.045,0.045l0,0.045l-0.045,0l-0.045,0.045l-0.045,0.045l-0.089,0l0,0.045l-2.296,0l0,-0.945l2.161,0l0.09,0.045l0.045,0.001zm-6.932,16.837l7.157,0c2.656,0.227 4.727,2.431 4.727,5.087s-2.07,4.861 -4.727,5.043l0,0.045l-7.158,0l0.001,-10.175zm0,-21.473l7.157,0c2.656,0.225 4.727,2.386 4.727,5.086c0,2.656 -2.07,4.862 -4.727,5.042l0,0.045l-7.158,0l0.001,-10.173zm132.216,8.958l-0.135,0l-0.271,-0.091l-0.27,-0.044l-0.271,-0.092l-0.27,-0.045l-0.27,-0.09l-0.271,-0.09l-0.045,0l-0.135,-0.045l-0.359,-0.136l-0.182,-0.045l-0.18,-0.046l-0.18,-0.045l-0.226,-0.045l-0.181,-0.045l-0.182,-0.045l-0.18,-0.045l-0.18,0l-0.225,-0.045l-0.181,0l-0.183,-0.046l-0.405,0l-0.225,-0.045l-0.135,0l-0.541,0.045l-0.449,0l-0.496,0.091l-0.449,0.045l-0.406,0.09l-0.449,0.136l-0.406,0.09l-0.404,0.181l-0.36,0.135l-0.358,0.181l-0.359,0.181l-0.361,0.225l-0.314,0.227l-0.315,0.227l-0.313,0.27l-0.314,0.27l-0.271,0.271l-0.27,0.271l-0.225,0.313l-0.27,0.36l-0.229,0.314l-0.225,0.36l-0.18,0.405l-0.18,0.358l-0.182,0.405l-0.136,0.449l-0.135,0.405l-0.136,0.45l-0.09,0.495l-0.09,0.495l-0.09,0.495l0,0.495l-0.045,0.541l0,0.449l0.045,0.495l0.045,0.45l0.09,0.45l0.09,0.403l0.135,0.405l0.136,0.405l0.138,0.405l0.18,0.36l0.18,0.359l0.225,0.359l0.225,0.359l0.271,0.315l0.225,0.315l0.271,0.27l0.315,0.271l0.271,0.27l0.312,0.226l0.361,0.226l0.314,0.226l0.359,0.181l0.361,0.135l0.403,0.181l0.405,0.135l0.404,0.091l0.406,0.09l0.359,0.045l-0.541,-0.449l-0.494,-0.541l-0.406,-0.585l-0.404,-0.63l-0.313,-0.676l-0.271,-0.676l-0.181,-0.72l-0.09,-0.767l-0.045,-0.631l0,-2.964l0.045,-0.676l0.09,-0.72l0.181,-0.722l0.271,-0.72l0.313,-0.676l0.404,-0.585l0.406,-0.585l0.494,-0.54l0.541,-0.495l0.586,-0.406l0.584,-0.403l0.676,-0.315l0.721,-0.271l0.719,-0.181l0.722,-0.09l0.676,-0.045l2.98,0.002zm-5.175,-21.339c3.602,0 7.065,0.631 10.264,1.756l-0.045,0.045a7.802,7.802 0 0 1 4.996,7.293c0,4.322 -3.558,7.833 -7.877,7.833a7.16,7.16 0 0 1 -2.791,-0.54l0,0.045a13.99,13.99 0 0 0 -4.547,-0.765c-7.476,0 -13.146,5.312 -13.597,13.1c-0.451,7.742 5.491,14 13.552,13.28c1.891,-0.046 3.555,-0.45 5.04,-1.126l0,-6.393l-2.7,0c-1.576,0 -2.927,-1.306 -2.927,-2.927l0,-2.745c0,-1.576 1.351,-2.927 2.927,-2.927l13.371,0a5.935,5.935 0 0 1 5.939,5.942l0,15.619c0,5.269 -4.502,8.015 -9.229,9.14c-4.771,1.126 -10.219,0.854 -12.379,0.854c-16.432,0 -29.848,-12.92 -29.848,-28.721c0.002,-15.842 13.418,-28.763 29.851,-28.763zm-26.517,48.935c0,4.457 -3.69,8.147 -8.192,8.147c-4.007,0 -7.384,-2.972 -8.015,-6.798l-4.683,-18.143l-4.815,16.928c-0.36,1.306 -0.677,2.25 -1.353,3.42c-1.574,2.701 -4.86,4.593 -8.598,4.593c-3.827,0 -7.158,-1.98 -8.733,-4.816c-0.585,-1.08 -0.855,-2.161 -1.17,-3.376l-4.682,-16.342l-4.547,18.277l-0.045,0a8.152,8.152 0 0 1 -7.923,6.257c-4.457,0 -8.147,-3.69 -8.147,-8.147c0,-0.766 0.09,-1.351 0.27,-2.07l8.283,-38.399l0.045,0c0.405,-4.367 5.087,-7.788 10.759,-7.788c4.816,0 8.958,2.476 10.31,5.852c0.36,0.855 0.541,1.846 0.811,2.701l4.772,16.836l4.682,-16.386c0.313,-1.036 0.586,-2.116 0.99,-3.151c1.352,-3.376 5.446,-5.852 10.264,-5.852c4.367,0 8.148,2.025 9.859,4.907c0.225,0.405 0.403,0.811 0.541,1.215c0.403,1.125 0.629,2.341 0.899,3.512l7.832,34.845c0.271,1.391 0.586,2.427 0.586,3.778zm-85.713,-48.799l-28.587,0a4.11,4.11 0 0 0 -4.096,4.096l0,48.574a4.112,4.112 0 0 0 4.096,4.098l30.027,0c7.743,0 14.045,-6.889 14.045,-15.307c0,-6.393 -3.602,-11.885 -8.688,-14.181c3.016,-2.746 4.952,-7.203 4.952,-12.245c0,-8.283 -5.267,-15.035 -11.749,-15.035zm72.523,60.503l-0.494,-0.226l-0.496,-0.226l-0.494,-0.27l-0.451,-0.315l-0.449,-0.314l-0.451,-0.314l-0.449,-0.359l-0.406,-0.36l-0.358,-0.36l-0.403,-0.404l-0.361,-0.405l-0.314,-0.45l-0.314,-0.449l-0.315,-0.451l-0.313,-0.494l-0.226,-0.45l-0.271,-0.54l-0.225,-0.495l-0.181,-0.54l-0.181,-0.495l-0.182,-0.585l-0.135,-0.541l0,-0.09l-0.449,-1.71l-0.18,0.585l-0.045,0.225l-0.09,0.271l-0.047,0.225l-0.09,0.271l-0.09,0.271l-0.091,0.271l-0.09,0.271l-0.091,0.271l-0.135,0.314l-0.09,0.271l-0.135,0.271l-0.137,0.315l-0.135,0.313l-0.18,0.271l-0.181,0.314l-0.181,0.315l-0.227,0.403l-0.27,0.36l-0.225,0.405l-0.314,0.359l-0.271,0.314l-0.314,0.36l-0.312,0.315l-0.316,0.359l-0.359,0.314l-0.361,0.271l-0.359,0.271l-0.358,0.314l-0.36,0.227l-0.404,0.27l-0.361,0.227l-0.404,0.226l-0.451,0.225l-0.403,0.226l-0.404,0.181l-0.45,0.18l-0.404,0.136l-0.451,0.181l-0.449,0.135l-0.496,0.135l-0.449,0.091l-0.451,0.09l-0.494,0.091l-0.45,0.045l-0.494,0.09l-0.496,0l-0.496,0.045l-0.991,0l-0.495,-0.045l-0.495,0l-0.495,-0.09l-0.495,-0.045l-0.495,-0.091l-0.45,-0.09l-0.495,-0.136l-0.45,-0.135l-0.495,-0.135l-0.45,-0.181l-0.45,-0.136l-0.45,-0.226l-0.405,-0.18l-0.45,-0.226l-0.405,-0.226l-0.405,-0.226l-0.405,-0.271l-0.405,-0.271l-0.36,-0.271l-0.36,-0.271l-0.36,-0.313l-0.36,-0.315l-0.36,-0.314l-0.315,-0.359l-0.315,-0.314l-0.315,-0.36l-0.27,-0.405l-0.315,-0.359l-0.225,-0.404l-0.271,-0.406l-0.225,-0.404l-0.18,-0.314l-0.18,-0.315l-0.135,-0.313l-0.135,-0.315l-0.09,-0.315l-0.135,-0.27l-0.09,-0.271l-0.09,-0.314l-0.09,-0.27l-0.09,-0.227l-0.09,-0.27l-0.045,-0.227l-0.09,-0.27l-0.045,-0.182l-0.045,-0.225l-0.45,1.71l-0.27,0.854l-0.18,0.541l-0.18,0.449l-0.225,0.496l-0.225,0.495l-0.271,0.45l-0.27,0.449l-0.315,0.405l-0.315,0.449l-0.315,0.405l-0.315,0.404l-0.36,0.36l-0.405,0.36l-0.36,0.359l-0.405,0.314l-0.405,0.314l-0.45,0.315l-0.45,0.271l-0.45,0.271l-0.45,0.271l-0.495,0.226l-0.45,0.18l-0.54,0.227l-0.495,0.135l-0.495,0.181l-0.541,0.135l-0.541,0.091l-0.54,0.09l-0.54,0.045l-0.54,0.045l-1.215,0l-0.675,-0.045l-0.63,-0.09l-0.63,-0.136l-0.63,-0.135l-0.603,-0.186l-0.585,-0.18l-0.585,-0.227l-0.585,-0.271l-0.541,-0.271l-0.54,-0.314l-0.495,-0.314l-0.495,-0.359l-0.495,-0.405l-0.45,-0.405l-0.45,-0.405l-0.405,-0.45l-0.405,-0.404l-0.405,0.359l-0.72,0.541l-0.765,0.539l-0.765,0.496l-0.811,0.449l-0.855,0.405l-0.855,0.36l-0.855,0.359l-0.9,0.271l-0.945,0.225l-0.945,0.181l-0.945,0.136l-0.945,0.09l-31.921,0l-0.855,-0.135l-0.855,-0.227l-0.766,-0.314l-0.765,-0.359l-0.72,-0.45l-0.675,-0.495l-0.63,-0.54l-0.54,-0.631l-0.495,-0.675l-0.45,-0.721l-0.36,-0.766l-0.315,-0.811l-0.225,-0.812l-0.135,-0.899l-0.045,-0.767l0,-48.796l0.045,-0.765l0.135,-0.855l0.225,-0.854l0.315,-0.812l0.36,-0.765l0.45,-0.72l0.495,-0.63l0.54,-0.63l0.63,-0.585l0.675,-0.495l0.72,-0.405l0.765,-0.405l0.766,-0.27l0.855,-0.225l0.855,-0.135l0.765,-0.045l28.812,0l0.81,0.045l0.9,0.09l0.855,0.135l0.855,0.18l0.855,0.27l0.811,0.268l0.811,0.36l0.765,0.405l0.766,0.405l0.72,0.495l0.675,0.496l0.675,0.54l0.63,0.585l0.585,0.63l0.585,0.63l0.54,0.63l0.54,0.72l0.496,0.72l0.45,0.72l0.405,0.765l0.405,0.811l0.36,0.766l0.315,0.855l0.315,0.855l0.27,0.855l0.225,0.855l0.18,0.9l0.18,0.9l0.135,0.945l0.09,0.9l0.045,0.945l0.045,0.945l0,0.63l-0.045,0.541l-0.045,0.585l-0.043,0.589l-0.045,0.586l-0.09,0.54l-0.09,0.585l-0.09,0.54l-0.135,0.54l-0.09,0.54l-0.18,0.541l-0.135,0.54l-0.18,0.495l-0.18,0.54l-0.18,0.495l-0.18,0.494l-0.225,0.496l-0.225,0.494l-0.226,0.495l-0.27,0.496l-0.27,0.45l0.405,0.404l0.495,0.494l0.18,0.182l4.322,-19.988l0.09,-0.315l0.09,-0.45l0.18,-0.63l0.18,-0.675l0.226,-0.63l0.27,-0.585l0.315,-0.585l0.36,-0.585l0.36,-0.541l0.36,-0.54l0.405,-0.495l0.45,-0.495l0.45,-0.45l0.495,-0.451l0.495,-0.405l0.495,-0.405l0.54,-0.36l0.54,-0.36l0.585,-0.315l0.585,-0.315l0.585,-0.27l0.585,-0.27l0.63,-0.225l0.63,-0.225l0.675,-0.18l0.63,-0.135l0.675,-0.18l0.675,-0.09l0.675,-0.09l0.676,-0.09l0.72,-0.045l1.306,0l0.585,0.045l0.585,0.045l0.585,0.09l0.585,0.045l0.541,0.135l0.585,0.09l0.541,0.135l0.54,0.18l0.541,0.18l0.54,0.18l0.54,0.181l0.496,0.225l0.495,0.225l0.495,0.27l0.495,0.27l0.45,0.27l0.495,0.315l0.45,0.315l0.405,0.36l0.45,0.315l0.405,0.36l0.405,0.405l0.36,0.405l0.36,0.405l0.36,0.405l0.315,0.45l0.315,0.495l0.315,0.45l0.27,0.496l0.225,0.495l0.226,0.495l0.09,0.315l0.09,0.225l0.09,0.271l0.09,0.225l0.09,0.225l0.045,0.225l0.045,0.225l0.09,0.18l0.045,0.225l0.045,0.18l0.045,0.18l0.045,0.18l0.045,0.135l0,0.135l0.045,0.135l0.046,0.135l0.36,1.306l0.27,-0.855l0.045,-0.18l0.045,-0.18l0.044,-0.18l0.045,-0.18l0.09,-0.225l0.045,-0.225l0.044,-0.18l0.09,-0.226l0.045,-0.27l0.09,-0.226l0.045,-0.225l0.091,-0.271l0.09,-0.225l0.089,-0.27l0.09,-0.27l0.135,-0.315l0.228,-0.495l0.226,-0.495l0.27,-0.496l0.316,-0.45l0.313,-0.495l0.313,-0.45l0.361,-0.405l0.359,-0.405l0.361,-0.405l0.403,-0.405l0.403,-0.36l0.451,-0.315l0.404,-0.36l0.451,-0.315l0.449,-0.315l0.496,-0.27l0.494,-0.27l0.496,-0.27l0.494,-0.225l0.496,-0.225l0.541,-0.181l0.539,-0.18l0.495,-0.18l0.585,-0.18l0.54,-0.135l0.587,-0.09l0.538,-0.135l0.587,-0.045l0.584,-0.09l0.586,-0.045l0.586,-0.045l1.125,0l0.541,0.045l0.539,0.045l0.541,0.045l0.493,0.045l0.541,0.09l0.494,0.09l0.541,0.135l0.496,0.135l0.493,0.135l0.494,0.135l0.451,0.18l0.496,0.18l0.449,0.18l0.451,0.226l0.449,0.225l0.451,0.225l0.449,0.271l0.403,0.27l0.405,0.27l0.404,0.271l0.406,0.314l0.404,0.315l0.361,0.315l0.358,0.315l0.358,0.36l0.316,0.36l0.314,0.405l0.314,0.36l0.315,0.405l0.271,0.45l0.27,0.405l0.137,0.27l0.135,0.225l0.135,0.225l0.091,0.27l0.135,0.225l0.091,0.271l0.09,0.225l0.135,0.271l0.09,0.315l0.092,0.27l0.09,0.315l0.09,0.27l0.09,0.271l0.045,0.27l0.09,0.27l0.046,0.27l0.045,0.27l0.09,0.225l0.045,0.225l0.046,0.225l0.045,0.225l0.09,0.45l0.045,0.18l0.631,2.836l0.406,-0.676l0.899,-1.396l0.989,-1.305l0.99,-1.261l1.08,-1.17l1.17,-1.17l1.17,-1.081l1.263,-1.08l1.306,-0.945l1.352,-0.945l1.395,-0.855l1.441,-0.811l1.484,-0.72l1.53,-0.675l1.531,-0.585l1.618,-0.541l1.621,-0.45l1.666,-0.36l1.666,-0.271l1.711,-0.225l1.756,-0.135l1.712,-0.045l0.807,0l0.406,0.045l0.765,0l0.358,0.045l0.403,0l0.361,0.045l0.404,0.045l0.361,0.045l0.359,0.045l0.405,0.045l0.358,0.045l0.359,0.045l0.361,0.045l0.404,0.09l0.361,0.045l0.358,0.09l0.358,0.045l0.361,0.09l0.359,0.09l0.359,0.09l0.36,0.09l0.358,0.09l0.361,0.09l0.359,0.09l0.361,0.09l0.358,0.135l0.358,0.09l0.316,0.135l0.359,0.09l0.586,0.225l0.811,0.36l0.359,0.225l0.404,0.225l0.406,0.225l0.358,0.225l0.406,0.27l0.358,0.315l0.359,0.27l0.316,0.315l0.314,0.315l0.312,0.315l0.316,0.36l0.314,0.315l0.27,0.36l0.271,0.405l0.27,0.36l0.225,0.405l0.226,0.405l0.228,0.405l0.18,0.405l0.18,0.405l0.18,0.45l0.135,0.45l0.138,0.45l0.136,0.45l0.09,0.45l0.09,0.495l0.045,0.45l0.045,0.495l0.045,0.495l0,1.125l-0.045,0.63l-0.09,0.63l-0.135,0.585l-0.136,0.63l-0.137,0.585l-0.226,0.585l-0.225,0.541l-0.225,0.585l-0.316,0.54l-0.27,0.495l-0.314,0.495l-0.361,0.495l-0.359,0.496l-0.403,0.45l-0.405,0.405l-0.449,0.405l-0.451,0.405l-0.449,0.36l-0.496,0.359l-0.494,0.314l-0.541,0.314l-0.541,0.271l-0.539,0.226l-0.586,0.225l-0.539,0.227l-0.631,0.181l-0.586,0.136l-0.359,0.045l6.707,0l0.541,0.045l0.539,0.09l0.496,0.09l0.539,0.09l0.496,0.182l0.496,0.135l0.449,0.226l0.496,0.181l0.449,0.225l0.451,0.271l0.403,0.271l0.403,0.313l0.406,0.315l0.359,0.315l0.406,0.358l0.314,0.36l0.358,0.359l0.315,0.405l0.271,0.405l0.271,0.404l0.271,0.451l0.226,0.449l0.225,0.495l0.18,0.45l0.182,0.495l0.135,0.495l0.091,0.539l0.09,0.496l0.091,0.539l0.045,0.541l0,16.881l-0.091,0.722l-0.09,0.72l-0.136,0.721l-0.182,0.676l-0.225,0.676l-0.225,0.63l-0.271,0.63l-0.315,0.631l-0.359,0.54l-0.359,0.585l-0.406,0.495l-0.403,0.495l-0.451,0.496l-0.448,0.449l-0.451,0.404l-0.449,0.405l-0.496,0.36l-0.494,0.359l-0.496,0.314l-0.539,0.314l-0.496,0.315l-0.541,0.271l-0.539,0.226l-0.496,0.271l-0.539,0.181l-0.541,0.225l-0.541,0.181l-0.539,0.181l-0.541,0.181l-0.539,0.135l-0.541,0.136l-0.539,0.09l-0.541,0.136l-0.541,0.09l-0.494,0.09l-0.541,0.09l-0.538,0.092l-0.496,0.045l-0.539,0.045l-0.496,0.09l-0.495,0.045l-0.494,0l-0.496,0.045l-0.494,0.045l-0.496,0l-0.449,0.045l-0.451,0l-0.449,0.045l-3.999,0l-0.271,-0.045l-0.677,0l-1.711,-0.045l-1.756,-0.09l-1.711,-0.225l-1.666,-0.315l-1.666,-0.36l-1.621,-0.449l-1.619,-0.495l-1.531,-0.631l-1.53,-0.63l-1.483,-0.766l-1.441,-0.766l-1.395,-0.9l-1.353,-0.9l-1.306,-0.989l-0.99,-0.854l-0.09,0.225l-0.271,0.586l-0.271,0.54l-0.313,0.54l-0.36,0.494l-0.359,0.496l-0.359,0.494l-0.406,0.45l-0.404,0.45l-0.45,0.405l-0.449,0.405l-0.495,0.404l-0.494,0.36l-0.541,0.315l-0.496,0.313l-0.584,0.271l-0.541,0.271l-0.584,0.226l-0.586,0.18l-0.631,0.182l-0.584,0.135l-0.632,0.135l-0.676,0.09l-0.63,0.045l-1.262,0l-0.539,-0.045l-0.586,-0.045l-0.586,-0.09l-0.539,-0.135l-0.586,-0.136l-0.539,-0.181l-0.496,-0.18l-0.516,-0.222zm10.129,-43.982l-0.584,1.396l-0.406,1.17l-2.115,-9.409l-0.045,-0.225l-0.09,-0.45l-0.045,-0.225l-0.045,-0.227l-0.045,-0.225l-0.09,-0.226l-0.045,-0.225l-0.048,-0.271l-0.043,-0.225l-0.092,-0.226l-0.046,-0.271l-0.09,-0.27l-0.09,-0.225l-0.09,-0.27l-0.09,-0.225l-0.045,-0.225l-0.09,-0.225l-0.09,-0.18l-0.09,-0.18l-0.092,-0.226l-0.09,-0.18l-0.136,-0.226l-0.091,-0.18l-0.225,-0.36l-0.225,-0.315l-0.225,-0.36l-0.271,-0.315l-0.27,-0.315l-0.271,-0.27l-0.315,-0.315l-0.271,-0.27l-0.313,-0.27l-0.361,-0.27l-0.314,-0.27l-0.361,-0.227l-0.313,-0.225l-0.358,-0.225l-0.406,-0.225l-0.359,-0.181l-0.406,-0.225l-0.359,-0.18l-0.403,-0.135l-0.405,-0.18l-0.449,-0.135l-0.406,-0.135l-0.449,-0.135l-0.406,-0.09l-0.449,-0.09l-0.451,-0.09l-0.448,-0.09l-0.451,-0.045l-0.448,-0.045l-0.496,-0.045l-0.449,0l-0.496,-0.045l-0.494,0.045l-0.541,0l-0.494,0.045l-0.541,0.045l-0.494,0.09l-0.496,0.09l-0.496,0.09l-0.449,0.135l-0.496,0.135l-0.448,0.135l-0.451,0.18l-0.448,0.18l-0.449,0.181l-0.451,0.18l-0.406,0.225l-0.404,0.225l-0.404,0.27l-0.405,0.225l-0.358,0.271l-0.406,0.314l-0.359,0.271l-0.314,0.314l-0.316,0.315l-0.312,0.315l-0.314,0.36l-0.316,0.36l-0.27,0.36l-0.225,0.36l-0.226,0.405l-0.228,0.405l-0.225,0.405l-0.18,0.405l-0.09,0.225l-0.09,0.227l-0.09,0.225l-0.046,0.226l-0.092,0.225l-0.045,0.225l-0.091,0.226l-0.045,0.225l-0.09,0.18l-0.045,0.225l-0.045,0.225l-0.045,0.18l-0.09,0.225l-0.045,0.18l-0.045,0.18l-0.045,0.18l-2.477,8.598l-2.566,-9.048l-0.045,-0.135l-0.045,-0.18l-0.045,-0.135l-0.045,-0.18l-0.045,-0.135l-0.045,-0.18l-0.045,-0.18l-0.045,-0.18l-0.045,-0.225l-0.045,-0.18l-0.045,-0.18l-0.09,-0.225l-0.045,-0.18l-0.09,-0.225l-0.09,-0.18l-0.045,-0.225l-0.18,-0.405l-0.225,-0.405l-0.225,-0.405l-0.225,-0.405l-0.27,-0.36l-0.27,-0.36l-0.271,-0.36l-0.314,-0.36l-0.315,-0.315l-0.315,-0.315l-0.36,-0.315l-0.36,-0.271l-0.36,-0.314l-0.36,-0.271l-0.405,-0.225l-0.405,-0.27l-0.405,-0.225l-0.405,-0.225l-0.45,-0.18l-0.45,-0.181l-0.45,-0.18l-0.45,-0.18l-0.45,-0.135l-0.495,-0.135l-0.495,-0.135l-0.496,-0.09l-0.495,-0.09l-0.495,-0.09l-0.496,-0.045l-0.495,-0.045l-0.54,0l-0.54,-0.045l-0.585,0.045l-0.63,0l-0.585,0.09l-0.63,0.045l-0.585,0.135l-0.54,0.09l-0.585,0.18l-0.541,0.135l-0.585,0.181l-0.495,0.225l-0.541,0.226l-0.495,0.225l-0.495,0.271l-0.495,0.27l-0.45,0.315l-0.45,0.315l-0.45,0.315l-0.405,0.36l-0.405,0.36l-0.405,0.36l-0.36,0.405l-0.315,0.45l-0.315,0.405l-0.315,0.45l-0.27,0.45l-0.225,0.495l-0.225,0.495l-0.225,0.496l-0.135,0.54l-0.135,0.495l-0.09,0.405l-0.095,0.407l-5.402,24.985l-0.09,-0.135l-0.27,-0.541l-0.36,-0.541l-0.315,-0.494l-0.36,-0.541l-0.36,-0.494l-0.405,-0.45l-0.405,-0.495l-0.405,-0.45l-0.45,-0.405l-0.45,-0.404l-0.496,-0.405l-0.45,-0.405l-0.495,-0.358l0.045,-0.091l0.27,-0.359l0.27,-0.405l0.27,-0.405l0.226,-0.404l0.225,-0.405l0.225,-0.405l0.225,-0.449l0.18,-0.405l0.18,-0.449l0.18,-0.451l0.18,-0.448l0.18,-0.496l0.135,-0.449l0.135,-0.496l0.135,-0.45l0.09,-0.495l0.135,-0.494l0.09,-0.496l0.09,-0.495l0.045,-0.54l0.045,-0.495l0.045,-0.496l0.045,-0.54l0,-0.549l0.045,-0.541l-0.045,-0.855l-0.045,-0.854l-0.09,-0.81l-0.09,-0.855l-0.18,-0.811l-0.18,-0.81l-0.18,-0.766l-0.27,-0.765l-0.271,-0.765l-0.27,-0.72l-0.315,-0.72l-0.36,-0.72l-0.405,-0.676l-0.36,-0.63l-0.451,-0.675l-0.45,-0.585l-0.495,-0.585l-0.495,-0.541l-0.495,-0.54l-0.585,-0.496l-0.54,-0.45l-0.585,-0.45l-0.631,-0.405l-0.63,-0.36l-0.675,-0.315l-0.675,-0.315l-0.675,-0.27l-0.72,-0.18l-0.721,-0.18l-0.72,-0.135l-0.72,-0.045l-0.72,-0.045l-28.689,0l-0.585,0.045l-0.675,0.09l-0.586,0.18l-0.585,0.225l-0.585,0.27l-0.54,0.315l-0.495,0.36l-0.451,0.405l-0.405,0.45l-0.36,0.495l-0.315,0.54l-0.27,0.54l-0.225,0.585l-0.18,0.63l-0.09,0.63l0,49.879l0.09,0.632l0.18,0.629l0.225,0.586l0.27,0.586l0.315,0.494l0.36,0.496l0.405,0.449l0.451,0.45l0.495,0.36l0.54,0.313l0.585,0.271l0.585,0.226l0.586,0.136l0.675,0.135l31.512,0l0.855,-0.09l0.81,-0.09l0.811,-0.181l0.81,-0.181l0.766,-0.271l0.765,-0.271l0.766,-0.314l0.72,-0.359l0.72,-0.406l0.675,-0.449l0.675,-0.45l0.63,-0.495l0.63,-0.54l0.585,-0.54l0.54,-0.586l0.495,-0.54l0.225,0.45l0.27,0.451l0.271,0.449l0.27,0.404l0.315,0.36l0.315,0.405l0.36,0.359l0.36,0.359l0.405,0.314l0.36,0.315l0.405,0.271l0.45,0.271l0.45,0.271l0.45,0.226l0.451,0.226l0.45,0.181l0.495,0.18l0.495,0.136l0.54,0.09l0.495,0.09l0.54,0.091l0.496,0.045l0.99,0l0.45,-0.045l0.45,-0.045l0.45,-0.046l0.45,-0.09l0.45,-0.135l0.405,-0.091l0.405,-0.135l0.405,-0.181l0.405,-0.181l0.405,-0.18l0.36,-0.181l0.405,-0.226l0.36,-0.226l0.315,-0.271l0.36,-0.271l0.315,-0.271l0.315,-0.271l0.315,-0.314l0.315,-0.314l0.27,-0.315l0.271,-0.313l0.225,-0.36l0.271,-0.36l0.225,-0.359l0.18,-0.36l0.225,-0.405l0.18,-0.404l0.135,-0.404l0.18,-0.405l0.225,-0.766l2.476,-9.993l2.296,8.058l0.09,0.227l0.044,0.225l0.09,0.226l0.045,0.226l0.09,0.226l0.045,0.226l0.09,0.225l0.045,0.226l0.09,0.271l0.09,0.226l0.09,0.271l0.09,0.226l0.135,0.271l0.135,0.27l0.09,0.271l0.18,0.271l0.18,0.313l0.18,0.315l0.225,0.358l0.225,0.315l0.27,0.271l0.225,0.315l0.27,0.27l0.27,0.315l0.315,0.27l0.27,0.227l0.315,0.27l0.315,0.226l0.315,0.271l0.315,0.18l0.36,0.226l0.315,0.226l0.36,0.18l0.36,0.182l0.36,0.18l0.36,0.135l0.405,0.137l0.36,0.135l0.406,0.135l0.405,0.09l0.405,0.137l0.405,0.09l0.405,0.045l0.405,0.09l0.45,0.045l0.405,0l0.45,0.045l0.855,0l0.405,-0.045l0.405,0l0.406,-0.045l0.404,-0.09l0.406,-0.045l0.403,-0.09l0.405,-0.09l0.359,-0.092l0.404,-0.135l0.361,-0.135l0.404,-0.137l0.36,-0.135l0.358,-0.18l0.314,-0.182l0.361,-0.18l0.359,-0.181l0.313,-0.181l0.315,-0.225l0.314,-0.226l0.314,-0.226l0.316,-0.226l0.27,-0.271l0.27,-0.271l0.271,-0.226l0.27,-0.314l0.27,-0.271l0.229,-0.27l0.225,-0.314l0.225,-0.315l0.225,-0.315l0.182,-0.313l0.181,-0.271l0.136,-0.271l0.135,-0.226l0.135,-0.271l0.09,-0.226l0.09,-0.271l0.135,-0.226l0.092,-0.271l0.09,-0.226l0.091,-0.226l0.045,-0.271l0.09,-0.225l0.091,-0.227l0.045,-0.271l0.09,-0.225l0.045,-0.225l2.521,-8.779l2.565,10.039l0,0.09l0.136,0.45l0.135,0.45l0.136,0.451l0.18,0.448l0.182,0.405l0.18,0.405l0.225,0.405l0.227,0.359l0.27,0.404l0.226,0.359l0.313,0.36l0.271,0.315l0.314,0.359l0.314,0.314l0.358,0.271l0.315,0.315l0.359,0.27l0.406,0.227l0.359,0.27l0.405,0.227l0.404,0.18l0.403,0.18l0.451,0.182l0.404,0.18l0.451,0.091l0.449,0.136l0.451,0.09l0.494,0.09l0.45,0.045l0.494,0.045l0.989,0l0.541,-0.045l0.541,-0.09l0.494,-0.09l0.496,-0.091l0.494,-0.136l0.496,-0.18l0.494,-0.18l0.451,-0.227l0.449,-0.225l0.451,-0.271l0.404,-0.271l0.405,-0.27l0.403,-0.314l0.404,-0.315l0.361,-0.358l0.314,-0.36l0.361,-0.405l0.27,-0.359l0.314,-0.406l0.27,-0.448l0.271,-0.451l0.225,-0.45l0.18,-0.449l0.227,-0.449l0.135,-0.496l0.136,-0.495l0.135,-0.54l0.091,-0.495l0.09,-0.54l0,-0.495l0.045,-0.405l0.496,0.586l1.035,1.08l1.125,0.99l1.17,0.99l1.217,0.9l1.26,0.899l1.305,0.767l1.352,0.765l1.396,0.676l1.395,0.63l1.486,0.54l1.484,0.495l1.486,0.405l1.576,0.36l1.573,0.27l1.576,0.227l1.666,0.09l1.575,0.045l1.263,0l0.27,0.046l2.921,0l0.451,-0.046l0.854,0l0.448,-0.045l0.451,0l0.449,-0.045l0.496,-0.045l0.449,0l0.496,-0.046l0.494,-0.045l0.496,-0.091l0.449,-0.045l0.496,-0.09l0.494,-0.045l0.496,-0.09l0.495,-0.09l0.494,-0.136l0.496,-0.091l0.493,-0.135l0.496,-0.135l0.494,-0.137l0.496,-0.135l0.449,-0.18l0.496,-0.182l0.494,-0.225l0.451,-0.182l0.449,-0.225l0.451,-0.225l0.448,-0.271l0.451,-0.271l0.448,-0.271l0.406,-0.314l0.449,-0.315l0.406,-0.313l0.359,-0.36l0.359,-0.405l0.36,-0.359l0.358,-0.405l0.314,-0.449l0.316,-0.45l0.27,-0.451l0.271,-0.494l0.225,-0.54l0.18,-0.495l0.18,-0.54l0.136,-0.585l0.135,-0.541l0.046,-0.585l0.092,-0.63l0,-16.654l-0.045,-0.405l-0.047,-0.405l-0.091,-0.404l-0.09,-0.405l-0.091,-0.405l-0.135,-0.359l-0.18,-0.359l-0.135,-0.359l-0.18,-0.36l-0.227,-0.36l-0.181,-0.314l-0.226,-0.314l-0.27,-0.314l-0.271,-0.314l-0.27,-0.271l-0.27,-0.271l-0.316,-0.271l-0.27,-0.226l-0.359,-0.226l-0.316,-0.226l-0.359,-0.225l-0.315,-0.181l-0.403,-0.136l-0.359,-0.18l-0.361,-0.135l-0.404,-0.091l-0.406,-0.09l-0.403,-0.091l-0.403,-0.045l-0.406,-0.045l-13.865,0l-0.451,0.045l-0.539,0.09l-0.496,0.091l-0.494,0.181l-0.451,0.225l-0.449,0.271l-0.405,0.314l-0.358,0.315l-0.314,0.36l-0.316,0.404l-0.27,0.45l-0.225,0.45l-0.181,0.494l-0.093,0.496l-0.09,0.539l-0.045,0.45l0,2.836l0.045,0.495l0.09,0.495l0.093,0.54l0.181,0.45l0.225,0.495l0.27,0.404l0.316,0.405l0.314,0.36l0.358,0.359l0.405,0.271l0.449,0.27l0.451,0.226l0.494,0.181l0.496,0.135l0.539,0.09l0.9,0l0,2.478l-0.09,0.045l-0.271,0.09l-0.226,0.046l-0.27,0.045l-0.271,0.045l-0.27,0.045l-0.27,0.045l-0.271,0.046l-0.314,0.045l-0.631,0l-0.719,0.045l-1.217,0l-0.584,-0.09l-0.541,-0.046l-0.539,-0.135l-0.541,-0.136l-0.541,-0.181l-0.494,-0.18l-0.496,-0.226l-0.449,-0.271l-0.451,-0.271l-0.448,-0.27l-0.406,-0.315l-0.403,-0.36l-0.361,-0.358l-0.359,-0.36l-0.314,-0.404l-0.315,-0.451l-0.313,-0.404l-0.271,-0.45l-0.271,-0.495l-0.227,-0.494l-0.18,-0.496l-0.18,-0.494l-0.135,-0.541l-0.136,-0.541l-0.093,-0.584l-0.09,-0.586l-0.045,-0.584l0,-1.172l0.045,-0.63l0.09,-0.63l0.093,-0.586l0.136,-0.54l0.135,-0.585l0.18,-0.541l0.18,-0.495l0.227,-0.54l0.226,-0.494l0.271,-0.451l0.27,-0.449l0.271,-0.45l0.313,-0.404l0.313,-0.405l0.361,-0.359l0.359,-0.36l0.359,-0.36l0.405,-0.314l0.403,-0.314l0.451,-0.271l0.404,-0.271l0.496,-0.271l0.449,-0.226l0.496,-0.18l0.494,-0.18l0.496,-0.181l0.541,-0.135l0.539,-0.09l0.541,-0.09l0.584,-0.09l0.586,0l0.586,-0.045l0.495,0l0.271,0.045l0.228,0l0.225,0.045l0.27,0l0.226,0.045l0.228,0.045l0.27,0.045l0.225,0.045l0.227,0.045l0.226,0.045l0.226,0.09l0.225,0.045l0.225,0.091l0.361,0.09l0.135,0.045l0.09,0l0.225,0.09l0.228,0.045l0.226,0.09l0.225,0.045l0.225,0.046l0.228,0.045l0.226,0.045l0.225,0.045l0.225,0.045l0.227,0l0.271,0.045l1.215,0l0.496,-0.045l0.539,-0.045l0.496,-0.09l0.493,-0.136l0.451,-0.136l0.494,-0.18l0.451,-0.181l0.449,-0.18l0.451,-0.225l0.404,-0.271l0.406,-0.271l0.403,-0.27l0.405,-0.27l0.359,-0.36l0.359,-0.314l0.316,-0.36l0.313,-0.36l0.313,-0.36l0.271,-0.405l0.27,-0.405l0.226,-0.45l0.228,-0.45l0.225,-0.45l0.18,-0.45l0.18,-0.45l0.135,-0.495l0.091,-0.496l0.09,-0.495l0.093,-0.495l0.045,-0.541l0,-0.9l-0.045,-0.405l-0.045,-0.405l-0.048,-0.36l-0.045,-0.405l-0.09,-0.36l-0.091,-0.36l-0.135,-0.36l-0.09,-0.405l-0.135,-0.315l-0.18,-0.36l-0.135,-0.36l-0.183,-0.315l-0.18,-0.315l-0.226,-0.315l-0.18,-0.314l-0.227,-0.315l-0.225,-0.315l-0.226,-0.27l-0.271,-0.27l-0.271,-0.27l-0.271,-0.27l-0.27,-0.226l-0.271,-0.225l-0.313,-0.27l-0.313,-0.18l-0.271,-0.225l-0.359,-0.18l-0.314,-0.18l-0.315,-0.18l-0.674,-0.315l-0.451,-0.135l-0.313,-0.135l-0.314,-0.09l-0.316,-0.09l-0.358,-0.135l-0.315,-0.09l-0.314,-0.09l-0.359,-0.09l-0.316,-0.09l-0.358,-0.09l-0.313,-0.045l-0.361,-0.09l-0.314,-0.09l-0.361,-0.045l-0.313,-0.09l-0.358,-0.045l-0.361,-0.045l-0.359,-0.045l-0.314,-0.09l-0.36,-0.045l-0.358,-0.045l-0.361,0l-0.314,-0.045l-0.359,-0.045l-0.36,-0.045l-0.358,0l-0.361,-0.045l-0.718,0l-0.361,-0.045l-0.716,0l-1.621,0.045l-1.666,0.135l-1.576,0.18l-1.574,0.27l-1.576,0.36l-1.486,0.405l-1.483,0.495l-1.485,0.541l-1.396,0.63l-1.396,0.675l-1.353,0.765l-1.306,0.811l-1.26,0.855l-1.217,0.9l-1.17,0.991l-1.125,1.035l-1.035,1.081l-1.035,1.125l-0.945,1.17l-0.899,1.215l-0.854,1.261l-0.767,1.306l-0.721,1.305l-0.63,1.39z" fill="#e5a430"/>
  </svg>