<svg  id="fndm-kpf0655qnl" viewBox="17.49388313293457 179.5648193359375 464.9622497558594 140.77325439453125" xmlns="http://www.w3.org/2000/svg">
   <path d="m194.5,241.3c4.7,0.3 8.3,2.5 9.9,7.1c2,5.9 1.4,11.6 -2.7,16.6c-2.5,3.1 -5.9,4.8 -9.4,6.3c-0.1,0.9 0.7,1 1.1,1.2c9.7,6 13.3,14.6 11,26.6c-2,10.4 -9.8,18.4 -20,20.2c-8.7,1.6 -17.6,0.9 -26.4,0.8c-4,0 -6,-2.9 -5.5,-7.1c1.5,-12.9 3.1,-25.8 4.8,-38.7c0.4,-3.1 0.3,-4.4 -3.5,-4.6c-23.1,-1.3 -46.2,-1 -69.2,1.7c-15.8,1.9 -31,5.9 -44.9,14.1c-1.4,0.8 -2.8,1.8 -4,2.9c-8.9,7.5 -10.5,16.7 -4.9,27c0.7,1.2 2.2,2.2 1.7,4.4c-6.5,-5.5 -11.9,-11.5 -14.2,-19.6c-2.6,-9 1.2,-18.2 9.8,-24.2c8.4,-5.8 18.1,-8 27.9,-9.9c5.9,-1.1 11.8,-2 17.8,-2.4c2.8,-0.2 3.7,-1.3 3.9,-3.8c1.8,-15.6 3.7,-31.2 5.6,-46.7c1.2,-9.9 2.5,-19.7 3.6,-29.6c0.2,-2.1 0.9,-2.7 3,-2.7c6.9,0 10.4,2.4 12.6,9.4c4.4,13.7 8.6,27.4 12.9,41.1l1.2,3.6c1.4,-0.1 1.5,-1.3 2,-2.1c8.9,-15.4 17.9,-30.9 26.8,-46.4c2.5,-4.4 5.9,-6.7 11.1,-6.5c2.6,0.1 2.9,1 2.6,3.2c-3,24.8 -5.9,49.6 -8.9,74.4c0,0.3 -0.1,0.5 -0.1,0.8c-0.7,5.5 1.8,7.6 7.3,6.2c1.7,-0.4 1.3,-1.8 1.4,-2.7c0.7,-5.6 1.3,-11.1 1.9,-16.7c0.1,-1.3 0,-2.6 0.7,-3.7c11,-0.7 22,-0.8 33.1,-0.2z" fill="#1e0293"/>
   <path d="m239.9,241.3c6.1,0.9 10.1,4.3 11,9.5c1.2,6.4 -1.7,13.5 -7.3,16.4c-2.4,1.2 -2.7,2.1 -1.4,4.4c3.4,6 6.5,12.1 9.7,18.2c0.1,0.2 0.3,0.3 0.8,0.7c3.8,-7.6 7.6,-15 11.4,-22.5c3.7,-7.4 7.4,-14.8 11.2,-22.2c0.7,-1.5 1.5,-3 2.8,-4c3.8,-3 8.4,-1.6 9.7,3c4.2,15.3 8.3,30.7 12.6,46c0.7,2.3 0.3,2.7 -2,2.8c-9.2,0.1 -9.2,0.2 -11.3,-8.8c-1.6,-7.2 -1.6,-7.2 -8.8,-7.1c-4.1,0.1 -8.9,-1.5 -11.9,0.7c-2.8,2.1 -4.1,6.6 -5.4,10.3c-1.5,4.2 -4.2,4.7 -8.2,5.2c-8,0.9 -12.9,-1.7 -15.2,-9.5c-0.9,-3 -2.8,-5.7 -4.2,-8.5c-2.2,-4.4 -4.2,-5.3 -9,-4.5c-1.8,0.3 -1.5,1.5 -1.6,2.5c-0.7,5.7 -1.5,11.4 -2.1,17.1c-0.2,2.2 -1,2.7 -3,2.8c-8,0.1 -8,0.2 -7.1,-7.8c1.6,-13.9 3.2,-27.8 4.9,-41.8c0.1,-0.9 0.4,-1.7 0.6,-2.6c7.7,-0.9 15.8,-0.7 23.8,-0.3z" fill="#1e0393"/>
   <path d="m246.7,233.4c-3.7,0 -6.8,-0.1 -9.8,0c-1.9,0.1 -2.4,-1.1 -3,-2.3c-2.9,-5.7 -6.1,-11.2 -8.6,-17c-1.9,-4.3 -5.2,-2.8 -8.1,-2.8c-3,0 -1.9,2.8 -2.1,4.4c-0.7,4.9 -1.3,9.9 -1.7,14.8c-0.2,2.2 -1.1,2.9 -3.4,3c-8.1,0 -8,0.2 -6.9,-8.1c1.8,-13.8 3.4,-27.5 4.9,-41.3c0.3,-2.8 0.9,-4.1 4,-3.9c6.5,0.4 13,-0.4 19.5,0.5c7.1,1 11.2,4.4 12.3,10.1c1.2,6.1 -1.9,13.4 -7.6,16.2c-2.7,1.4 -2.3,2.4 -1.1,4.5c3.9,7 7.6,14.1 11.6,21.9z" fill="#1e0293"/>
   <path d="m347.5,196c-1.3,10.4 -2.5,19.8 -3.7,29.1c-0.2,1.5 -0.7,3.1 -0.5,4.5c0.3,3.9 -2,3.8 -4.8,3.8c-2.2,0 -2.5,-0.8 -2.3,-2.8c1.9,-15.3 3.7,-30.6 5.5,-46c0.6,-4.8 4.3,-6.2 8.3,-3c1.2,0.9 2,2.3 2.9,3.5c7.2,10.2 14.4,20.4 22.2,31.5c0.8,-6.5 1.5,-12.1 2.2,-17.6c0.7,-5.4 1.4,-10.9 2,-16.3c0.5,-4.5 3.8,-2.2 5.9,-2.4c2.9,-0.3 1.5,2.1 1.4,3.2c-1.8,15.7 -3.6,31.4 -5.5,47.1c-0.1,1.1 0,2.7 -1.6,2.6c-2.4,-0.2 -5.1,1.2 -7,-1.6c-3.6,-5.4 -7.5,-10.6 -11.2,-16c-4.3,-6.2 -8.7,-12.4 -13.8,-19.6z" fill="#1e0393"/>
   <path d="m180.1,233.5c-4.8,0 -9.7,-0.1 -14.5,0c-2.2,0.1 -2.9,-0.6 -2.6,-2.8c2,-15.9 3.9,-31.9 5.8,-47.8c0.2,-2.1 1,-2.7 3.1,-2.7c9.4,0.1 18.9,0 28.3,0.1c1.4,0 3.5,-0.5 2.8,2.1c-0.4,1.8 1,4.7 -2.8,4.6c-6.1,-0.1 -12.3,0.1 -18.4,-0.1c-2.2,0 -3.2,0.5 -3.4,2.9c-0.2,3.4 -0.6,6.9 -1.1,10.3c-0.3,1.8 0.3,2.2 1.9,2.2c4,-0.1 7.9,0 11.9,0c1.9,0 3.6,0.4 4.6,2.2c0.6,1.1 1.3,2.4 0.8,3.6c-0.6,1.3 -2,0.7 -3.1,0.7c-4.8,0.1 -9.7,0.1 -14.5,0c-1.5,0 -2.7,0.1 -2.8,2.1c-0.3,4.2 -0.9,8.4 -1.5,12.5c-0.3,2.2 0.3,2.9 2.6,2.8c6,-0.2 12,-0.1 18,0c1.1,0 3.5,-1 2.8,1.4c-0.6,2 1.6,5.7 -2.9,5.8c-5.1,0 -10.1,0 -15,0.1c0,-0.1 0,-0.1 0,0zm103.9,-0.3c7.2,-14.4 14.3,-28.3 21.3,-42.3c1.1,-2.2 2.1,-4.4 3.2,-6.5c1.9,-3.5 5.4,-5 9.3,-4.4c1.7,0.2 1.7,1.4 1.9,2.4c4.4,16 8.8,32.1 13.3,48.1c0.7,2.5 0.1,2.9 -2.4,2.9c-8.9,0 -8.9,0.1 -10.9,-8.4c-1.8,-7.5 -1.8,-7.5 -9.7,-7.5c-3.8,0 -8.4,-1.1 -11.2,0.6c-2.8,1.7 -3.7,6.4 -5.4,9.8c-2.5,5.7 -2.5,5.7 -9.4,5.3z" fill="#1e0392"/>
   <path d="m316.7,294.3c-3.5,0.1 -7.4,-0.8 -11.2,-1.5c-2.1,-0.4 -2.7,-1.3 -2.3,-3.4c1.4,-6.8 1.5,-6.9 7.5,-4c3.7,1.8 7.5,2.5 11.5,1.9c3.5,-0.5 6.2,-2.2 7.1,-6c0.8,-3.9 -1.5,-5.9 -4.6,-7.4c-3.9,-1.9 -7.9,-3.6 -11.6,-5.8c-9.8,-6 -9.7,-18.4 0.1,-24.3c7.8,-4.7 16.3,-4.4 24.8,-2.4c1.5,0.4 2.2,1.1 1.6,2.8l-0.6,1.8c-1.5,4.5 -1.5,4.5 -5.5,2.5c-3.3,-1.6 -6.8,-2.2 -10.4,-1.7c-3.3,0.4 -5.8,2 -6.7,5.4c-0.9,3.4 0.9,5.6 3.8,7.1c4.1,2.1 8.2,4.1 12.2,6.4c8.6,5 10,14 3.4,21.6c-4.2,4.6 -10.7,7.1 -19.1,7z" fill="#1f0393"/>
   <path d="m284.7,225.2c-1.3,6 -4.5,8.7 -10.5,8.2c-3.9,-0.3 -7.9,0.1 -11.8,-0.8c-12.3,-2.7 -18.9,-13.5 -16.4,-26.9c3.4,-18.4 19.3,-28.9 38.8,-25.5c0.9,0.2 1.8,0.3 2.6,0.5c6.1,1.1 5.9,1 3.6,6.5c-1,2.4 -2,2.3 -4,1.4c-3.8,-1.6 -7.7,-2.5 -11.9,-2.6c-7.6,-0.1 -12.9,3.3 -15.9,10.3c-2.4,5.6 -3.3,11.5 -2.2,17.6c1.5,8.5 6.8,13 15.4,12.5c4.1,-0.1 8.1,-0.7 12.3,-1.2z" fill="#1e0393"/>
   <path d="m410.4,180.2c5.4,0 10.7,-0.1 16.1,0c1,0 3.2,-0.8 2.6,1.3c-0.6,1.9 1.3,5.4 -2.7,5.7c-2.8,0.2 -5.7,0.4 -8.4,0c-3.8,-0.6 -4.1,1.7 -4.4,4.3c-1.5,12.8 -3.1,25.5 -4.5,38.3c-0.3,3 -1.4,3.7 -4.2,3.6c-6.8,-0.2 -6.8,0 -6,-6.9c1.4,-11.8 2.8,-23.5 4.4,-35.3c0.4,-3 0,-4.6 -3.5,-4.1c-1.7,0.2 -3.6,-0.2 -5.3,0.1c-3.9,0.6 -4.8,-0.9 -4.1,-4.5c0.4,-2.2 1.3,-2.6 3.2,-2.6c5.6,0.2 11.2,0.1 16.8,0.1z" fill="#1e0392"/>
   <path d="m382.2,293.9c-4.6,0 -9.2,-0.1 -13.8,0c-2.1,0.1 -2.6,-0.7 -2.4,-2.7c2,-15.9 4,-31.9 5.8,-47.8c0.3,-2.4 1.1,-2.9 3.3,-2.9c7.8,0 7.7,-0.1 6.7,7.6c-1.5,11.6 -2.8,23.3 -4.4,34.9c-0.4,2.9 0.3,4 3.5,3.8c4.8,-0.3 9.7,-0.1 14.5,0c1.4,0 3.8,-1 3.3,2c-0.4,2.2 0.7,5.4 -3.6,5.1c-4.2,-0.2 -8.6,0 -12.9,0z" fill="#1f0492"/>
   <path d="m465.6,233.3c-4.5,0 -8.9,-0.1 -13.4,0c-2.1,0 -3,-0.4 -2.7,-2.7c2,-15.9 4,-31.8 5.8,-47.8c0.2,-2.1 0.9,-2.7 3,-2.7c8.1,-0.1 8,-0.2 6.9,8c-1.5,11.6 -2.8,23.3 -4.3,34.9c-0.4,2.8 0.5,3.5 3.2,3.4c5.2,-0.2 10.4,0 15.7,-0.1c1.4,0 3.2,-0.1 2.5,2.1c-0.5,1.8 1,4.8 -2.6,4.9c-4.7,0 -9.4,-0.1 -14.1,0c0,-0.1 0,0 0,0zm-32.9,0.2c-6,0 -6.1,0 -5.5,-5.3c1.8,-15.2 3.6,-30.3 5.4,-45.5c0.2,-1.9 0.8,-2.5 2.8,-2.6c8.1,-0.3 8.2,-0.3 7.3,7.7c-1.5,13.8 -3.3,27.5 -4.7,41.3c-0.5,4.2 -2.3,5.2 -5.3,4.4z" fill="#1f0393"/>
   <path d="m349.4,293.5c-1,0 -1.6,-0.1 -2.1,0c-3,0.5 -3.9,-0.5 -3.5,-3.7c1.9,-15.1 3.8,-30.3 5.4,-45.5c0.4,-3.2 1.5,-4.1 4.7,-4c6.5,0.3 6.6,0.1 5.9,6.5c-1.7,14.8 -3.6,29.6 -5.3,44.4c-0.5,4.6 -4,0.9 -5.1,2.3z" fill="#1e0293"/>
   <path d="m108,276.3c12.4,-0.3 16.7,5.4 13.2,16.8c-2.3,7.6 -6.8,10.9 -15,11c-8,0.2 -8,0.2 -7,-7.8c0.7,-5.2 1.3,-10.4 1.8,-15.6c0.3,-3.1 1.3,-4.9 4.8,-4.4c0.8,0.2 1.8,0 2.2,0z" fill="#1f0691"/>
   <path d="m148.5,287.7c-0.1,8.8 -4.6,15 -12.2,16.7c-6.4,1.4 -11.5,-2 -12.5,-8.4c-1.1,-7.1 0.8,-13.2 6.7,-17.5c4,-2.9 8.4,-3.6 12.9,-1.2c4.2,2.2 5.1,6.2 5.1,10.4z" fill="#200595"/>
   <path d="m194.5,241.3l-33.1,0c0.2,-0.8 0.9,-0.8 1.5,-0.8c9.6,0 19.1,0.1 28.7,0.2c0.9,0 1.9,0.4 2.9,0.6z" fill="#1a1665"/>
   <path d="m239.9,241.3c-8,0 -16.1,0.1 -24.1,0.1c0,-0.1 0.1,-0.3 0.1,-0.3c8,-0.8 16,-1.2 24,0.2z" fill="#1b1c62"/>
   <path d="m143.2,206.1c-1.4,12 -2.9,24 -4.3,36c-0.7,5.8 -1.5,11.6 -2,17.5c-0.2,2.5 -1,3.5 -3.7,3.3c-15.3,-1 -30.6,-1 -45.9,-0.2c-1.1,0.1 -3,1 -2.6,-1.7c2.4,-18.8 4.6,-37.7 6.9,-56.5c0,-0.2 0.2,-0.5 0.5,-1.2c3.2,10.2 6.4,20 9.5,29.8c1.7,5.3 3.4,10.7 5,16c0.5,1.8 1.5,2.1 3.2,2.4c5.2,0.8 8.1,-1.2 10.6,-6c7,-13.4 14.7,-26.4 22.1,-39.6c0.2,0 0.4,0.1 0.7,0.2z" fill="#fdfdfd"/>
   <path d="m172.4,314.7c-6.8,0.1 -6.9,0.1 -6.3,-5.7c1.2,-11.7 2.6,-23.3 3.7,-35c0.2,-1.9 0.7,-2.4 2.5,-2.1c4.8,0.9 9.4,2.1 13.6,4.9c7.2,4.8 9.8,12.5 7.5,21.9c-2.5,10 -7.5,14.7 -16.7,15.6c-1.9,0.2 -3.7,0.3 -4.3,0.4z" fill="#fefefe"/>
   <path d="m180,246.1l2.3,0c5.8,0.1 9.1,2.5 9.7,7.1c0.8,6.1 -2.1,11 -7.5,12.5c-0.9,0.2 -1.7,0.4 -2.6,0.5c-9.5,1.6 -10.8,0.3 -9.6,-8.8c0.2,-1.8 0.5,-3.5 0.7,-5.3c0.7,-5.9 0.7,-5.9 7,-6z" fill="#fcfdfb"/>
   <path d="m228.2,264.9c-4,0.8 -4.6,-1.2 -4,-4.5c0.6,-3.2 1.2,-6.5 1.3,-9.8c0.1,-2.9 1.4,-3.4 3.8,-3.1c0.6,0.1 1.3,0 1.9,0c5.4,0.1 8.1,2 8.5,6.1c0.5,5.4 -2.2,9.6 -7,10.7c-1.4,0.4 -3,0.4 -4.5,0.6z" fill="#fbfcfa"/>
   <path d="m269.1,271.3c3.3,-6.7 6.3,-12.9 9.8,-20c1.6,6.6 2.9,12.2 4.3,17.8c0.3,1.2 0.5,2.3 -1.4,2.2c-4.1,-0.1 -8.1,0 -12.7,0z" fill="#f9fafa"/>
   <path d="m220.8,204.5c-3.3,0.8 -4.5,-0.4 -3.6,-4.3c0.8,-3.4 1,-7.1 1.3,-10.6c0.2,-1.8 1,-2.5 2.7,-2.3c0.9,0.1 1.8,0 2.7,0c6.2,0.1 8.7,2.2 8.8,7.1c0.1,5.5 -3.4,9.6 -8.8,10.1c-0.8,0.1 -1.7,0 -3.1,0z" fill="#fbfcf9"/>
   <path d="m311.6,191.1c1.6,6.8 3,12.4 4.4,18c0.3,1.4 0,2.2 -1.6,2.1c-3.4,-0.1 -6.9,0 -10.3,0c-1.7,0 -2,-0.6 -1.3,-2.1c2.8,-5.6 5.6,-11.3 8.8,-18z" fill="#f7f8f9"/>
   <path d="m117.1,287.6c0,2.8 -0.5,5.6 -1.6,8.2c-1.7,3.9 -7.1,6.1 -10.9,4.8c-1.3,-0.4 -1,-1.2 -0.9,-2.1c0.7,-5.5 1.4,-11.1 2,-16.6c0.2,-1.8 1,-2.2 2.7,-2.3c6.4,-0.2 8.8,1.9 8.7,8z" fill="#fbfcfb"/>
   <path d="m128.5,291c0.2,-2.6 0.9,-5.8 3,-8.5c1.7,-2.2 3.8,-3.3 6.6,-2.8c2.9,0.5 4.2,2.6 4.9,5.2c0.9,3.2 0.5,6.3 -0.4,9.4c-1.5,4.8 -5.1,7.6 -8.7,6.9c-3.4,-0.7 -5.5,-4.4 -5.4,-10.2z" fill="#fbfcfa"/>
  </svg>