<svg  id="fndm-ahwo6ywx2e" viewBox="13.13699722290039 26.501789093017578 166.48199462890625 134.25021362304688" xmlns="http://www.w3.org/2000/svg">
   <g xmlns="http://www.w3.org/2000/svg" clip-rule="evenodd" fill-rule="evenodd">
    <path d="m43.646,150.205c0,0.242 -0.026,0.498 -0.067,0.781a6.59,6.59 0 0 1 -0.206,0.867l-2.545,8.49l-5.481,0l1.954,-6.516c0.133,-0.449 0.252,-0.877 0.354,-1.289c0.108,-0.408 0.16,-0.74 0.16,-0.998c0,-0.449 -0.16,-0.777 -0.483,-0.988c-0.319,-0.205 -0.895,-0.312 -1.718,-0.312c-0.391,0 -0.833,0.072 -1.332,0.215c-0.499,0.143 -1.095,0.359 -1.799,0.645l-2.772,9.244l-5.487,0l1.959,-6.516c0.113,-0.377 0.221,-0.789 0.334,-1.229c0.108,-0.441 0.165,-0.777 0.165,-1.012c0,-0.471 -0.154,-0.816 -0.458,-1.027c-0.309,-0.213 -0.879,-0.32 -1.712,-0.32c-0.432,0 -0.905,0.08 -1.415,0.234c-0.514,0.154 -1.09,0.363 -1.733,0.625l-2.771,9.244l-5.456,0l3.918,-13.041l5.451,0l-0.432,1.439c1.1,-0.562 2.098,-1.006 2.988,-1.324a8.56,8.56 0 0 1 2.885,-0.475c1.116,0 2.052,0.189 2.818,0.574c0.761,0.385 1.296,0.947 1.594,1.688c1.347,-0.748 2.556,-1.314 3.62,-1.691c1.064,-0.381 2.093,-0.57 3.085,-0.57c1.486,0 2.623,0.281 3.404,0.848c0.786,0.566 1.178,1.371 1.178,2.414zm31.27,1.871a7.63,7.63 0 0 1 -0.797,3.436a8.135,8.135 0 0 1 -2.247,2.756c-1.003,0.795 -2.17,1.41 -3.492,1.838c-1.327,0.428 -2.875,0.646 -4.644,0.646c-2.52,0 -4.453,-0.469 -5.8,-1.395c-1.342,-0.928 -2.016,-2.217 -2.016,-3.857c0,-1.162 0.252,-2.264 0.75,-3.309c0.504,-1.043 1.245,-1.967 2.232,-2.764c0.951,-0.781 2.124,-1.398 3.517,-1.852c1.388,-0.451 2.952,-0.682 4.68,-0.682c2.53,0 4.463,0.461 5.806,1.381c1.343,0.915 2.011,2.185 2.011,3.802zm-7.05,4.272a5.83,5.83 0 0 0 1.049,-1.775c0.237,-0.643 0.355,-1.422 0.355,-2.346c0,-0.797 -0.226,-1.412 -0.679,-1.84c-0.453,-0.432 -1.172,-0.646 -2.155,-0.646c-0.766,0 -1.435,0.143 -2.011,0.434a4.662,4.662 0 0 0 -1.532,1.217c-0.411,0.486 -0.735,1.094 -0.972,1.811a7.053,7.053 0 0 0 -0.355,2.219c0,0.889 0.257,1.527 0.771,1.912c0.509,0.379 1.214,0.574 2.108,0.574c0.653,0 1.281,-0.139 1.882,-0.412a4.508,4.508 0 0 0 1.539,-1.148zm34.814,-6.096c0,0.234 -0.021,0.484 -0.062,0.758c-0.041,0.27 -0.102,0.551 -0.195,0.844l-2.529,8.49l-5.487,0l1.928,-6.469c0.145,-0.48 0.252,-0.889 0.334,-1.229c0.077,-0.342 0.119,-0.658 0.119,-0.955c0,-0.504 -0.165,-0.869 -0.494,-1.102c-0.334,-0.234 -0.941,-0.35 -1.825,-0.35c-0.432,0 -0.931,0.072 -1.491,0.215s-1.193,0.359 -1.898,0.645l-2.756,9.244l-5.456,0l3.903,-13.041l5.456,0l-0.437,1.439c1.111,-0.562 2.129,-1.006 3.049,-1.324c0.92,-0.316 1.929,-0.475 3.034,-0.475c1.518,0 2.699,0.281 3.543,0.848s1.264,1.388 1.264,2.462zm20.98,3.936c-0.967,0.064 -1.871,0.135 -2.715,0.223c-0.844,0.084 -1.559,0.211 -2.154,0.373c-0.613,0.17 -1.08,0.408 -1.398,0.717c-0.324,0.309 -0.484,0.721 -0.484,1.232c0,0.449 0.217,0.766 0.643,0.947c0.428,0.184 1.045,0.27 1.861,0.27a5.74,5.74 0 0 0 1.707,-0.281a9.335,9.335 0 0 0 1.713,-0.725l0.827,-2.756zm-1.433,4.773l-1.234,0.617c-0.484,0.238 -0.926,0.428 -1.344,0.566a13.31,13.31 0 0 1 -1.578,0.408c-0.494,0.092 -1.178,0.139 -2.051,0.139c-1.404,0 -2.551,-0.305 -3.441,-0.91c-0.889,-0.607 -1.332,-1.4 -1.332,-2.375c0,-1.031 0.314,-1.902 0.947,-2.619c0.633,-0.719 1.572,-1.289 2.818,-1.713c1.166,-0.404 2.555,-0.693 4.164,-0.871a78.14,78.14 0 0 1 5.236,-0.393a2.55,2.55 0 0 1 0.061,-0.227c0.031,-0.107 0.047,-0.227 0.047,-0.357c0,-0.547 -0.334,-0.936 -0.998,-1.152c-0.664,-0.223 -1.65,-0.334 -2.967,-0.334c-0.895,0 -1.883,0.115 -2.957,0.35c-1.08,0.234 -1.893,0.424 -2.438,0.582l-0.494,0l0.797,-3.092c0.633,-0.123 1.609,-0.262 2.938,-0.416a34.35,34.35 0 0 1 3.965,-0.232c2.648,0 4.596,0.27 5.836,0.799c1.238,0.535 1.861,1.365 1.861,2.486c0,0.154 -0.02,0.357 -0.051,0.605a4.496,4.496 0 0 1 -0.145,0.65l-2.654,8.871l-5.395,0l0.409,-1.382zm30.873,-7.674l-0.482,0c-0.236,-0.064 -0.582,-0.111 -1.023,-0.139a18.728,18.728 0 0 0 -1.311,-0.049a16.137,16.137 0 0 0 -4.109,0.512l-2.623,8.732l-5.455,0l3.918,-13.041l5.451,0l-0.57,1.916a19.655,19.655 0 0 1 3.064,-1.416a9.099,9.099 0 0 1 3.08,-0.547a19.063,19.063 0 0 1 1.27,0.047l-1.21,3.985zm23.203,9.057l-5.707,0l-3.328,-5.76l-2.397,1.648l-1.25,4.112l-5.455,0l5.41,-18.071l5.449,0l-3.222,10.789l7.564,-5.759l6.252,0l-7.832,5.679l4.516,7.362zm-99.871,-98.119c-10.089,-3.363 -36.435,-1.121 -36.435,28.026c0,20.181 17.938,30.829 30.829,30.829s20.738,-12.33 20.738,-12.33s6.425,-9.336 14.015,-22.422c0,21.299 13.73,34.333 31.668,34.333c16.746,0 25.504,-14.715 25.504,-28.728c0,-17.516 -11.84,-30.828 -29.707,-30.828c-5.605,0 -14.574,3.363 -14.574,3.363s7.848,-11.771 14.574,-23.542c6.727,-11.771 -6.867,-18.968 -12.893,-9.529c-3.924,6.166 -20.736,35.305 -23.542,39.798c-3.267,5.182 -9.235,1.853 -5.604,-3.363c2.223,-3.28 15.969,-26.173 17.938,-29.708c5.984,-10.654 -5.84,-15.591 -11.211,-7.847c-2.206,2.932 -16.255,24.661 -21.3,31.948z" fill="#cc2229"/>
    <path d="m51.522,89.658c0,-13.092 10.025,-17.16 13.607,-17.457c8.772,-0.728 19.767,6.838 19.767,19.511c0,16.172 -10.269,17.971 -15.146,17.971c-10.2,0.001 -18.228,-7.011 -18.228,-20.025zm66.705,0c0,-13.092 10.023,-17.16 13.605,-17.457c8.773,-0.728 19.768,6.838 19.768,19.511c0,16.172 -10.27,17.971 -15.146,17.971c-10.202,0.001 -18.227,-7.011 -18.227,-20.025z" fill="#fff"/>
    <path d="m76.227,48.641c-4.81,6.372 -17.179,-0.937 -11.245,-7.933c1.875,-2.5 4.686,-6.561 8.621,-11.995c3.936,-5.435 16.43,0.687 11.057,8.183c-5.372,7.497 -5.06,7.247 -8.433,11.745z" fill="#cc2229"/>
   </g>
  </svg>