<svg xmlns="http://www.w3.org/2000/svg" fill-rule="evenodd" clip-rule="evenodd" image-rendering="optimizeQuality" shape-rendering="geometricPrecision" text-rendering="geometricPrecision" viewBox="-2 1 6600 3300"><g><rect width="6600" height="3300" x="-2" y="1" fill="#373435"/><g><polygon fill="#a69df6" points="940.91,1009.14 718.56,1137.51 496.21,1265.89 496.21,1009.14 496.21,752.4 718.56,880.77"/><polygon fill="#9185f5" points="496.21,1265.89 718.56,1394.26 940.91,1522.63 940.91,1265.89 940.91,1009.14 718.56,1137.51"/><polygon fill="#7c61fe" points="940.91,1522.63 718.56,1394.26 496.21,1265.89 496.21,1522.63 496.21,1779.38 718.56,1651.01"/><polygon fill="#0600ff" points="940.91,1522.63 1163.26,1394.26 1385.61,1265.89 1385.61,1522.63 1385.61,1779.38 1163.26,1651.01"/><polygon fill="#052ffd" points="1830.3,1522.63 1607.96,1394.26 1385.61,1265.89 1385.61,1522.63 1385.61,1779.38 1607.96,1651.01"/><polygon fill="#6c21f7" points="496.21,1779.38 718.56,1651.01 940.91,1522.63 940.91,1779.38 940.91,2036.12 718.56,1907.75"/><polygon fill="#0054ff" points="1385.61,1779.38 1607.96,1651.01 1830.3,1522.63 1830.3,1779.38 1830.3,2036.12 1607.96,1907.75"/><polygon fill="#027bfe" points="940.91,2036.12 1163.26,2164.5 1385.61,2292.87 1385.61,2036.12 1385.61,1779.38 1163.26,1907.75"/><polygon fill="#0060f2" points="1830.3,2036.12 1607.96,2164.5 1385.61,2292.87 1385.61,2036.12 1385.61,1779.38 1607.96,1907.75"/><polygon fill="#63bbfb" points="496.21,2292.87 718.56,2421.24 940.91,2549.61 940.91,2292.87 940.91,2036.12 718.56,2164.5"/><polygon fill="#459df6" points="1385.61,2292.87 1163.26,2421.24 940.91,2549.61 940.91,2292.87 940.91,2036.12 1163.26,2164.5"/><path fill="#fefefe" d="M2576.49 1377.89l-279.05 0 0 678.27 307.55 0c113.01,0 183.51,-64.12 196.16,-152.95 15.63,-109.69 -38.91,-165.62 -94.76,-197.83 49.42,-46.08 81.59,-105.25 66.55,-169.87 -18.65,-80.15 -94.26,-157.62 -196.45,-157.62zm3.68 559.16l-151.4 0 0 -166 151.4 0c45.65,0 83,37.35 83,83l0 0c0,45.65 -37.35,83 -83,83zm-13.42 -286.53l-137.98 0 0 -151.28 137.98 0c41.6,0 75.64,34.04 75.64,75.64l0 0c0,41.61 -34.04,75.64 -75.64,75.64zm3012.08 -272.63l-279.05 0 0 678.27 307.55 0c113.01,0 183.51,-64.12 196.16,-152.95 15.63,-109.69 -38.9,-165.62 -94.76,-197.83 49.42,-46.08 81.6,-105.25 66.55,-169.87 -18.65,-80.15 -94.26,-157.62 -196.45,-157.62zm3.68 559.16l-151.4 0 0 -166 151.4 0c45.65,0 83,37.35 83,83l0 0c0,45.65 -37.35,83 -83,83zm-13.42 -286.53l-137.98 0 0 -151.28 137.98 0c41.6,0 75.64,34.04 75.64,75.64l0 0c0,41.61 -34.04,75.64 -75.64,75.64zm-2601.7 -278.45l422.26 0 -1.66 129.67 -285.93 0 0 142.97 265.98 0 0 131.33 -265.98 -1.5 0 152.79 292.58 0 0 134.64 -427.25 0 0 -689.9zm934.29 576.03l-206.15 -342.46 0 450.52 -129.67 0 0 -678.28 137.99 0 197.83 322.52 197.82 -322.52 137.99 0 0 678.28 -129.67 0 0 -450.52 -206.14 342.46zm2198.11 -570.21l-130.08 0 0 678.27 130.08 0 0 -678.27zm-1330.35 -14.14c195.1,0 353.27,158.17 353.27,353.27 0,195.1 -158.17,353.27 -353.27,353.27 -195.1,0 -353.27,-158.17 -353.27,-353.27 0,-195.1 158.17,-353.27 353.27,-353.27zm0 127.16c124.88,0 226.11,101.23 226.11,226.11 0,124.88 -101.23,226.12 -226.11,226.12 -124.88,0 -226.12,-101.24 -226.12,-226.12 0,-124.88 101.24,-226.11 226.12,-226.11z"/></g></g></svg>