<svg  id="fndm-o11xd9t2jy" viewBox="27.747833251953125 643.9030151367188 1951.775146484375 714.8579711914062" xmlns="http://www.w3.org/2000/svg">
   <g xmlns="http://www.w3.org/2000/svg" fill="#A80A35">
    <path d="m165.772,733.125l0,139.384c161.605,-7.071 212.703,73.016 212.703,73.016c-16.572,-198.681 -212.703,-212.4 -212.703,-212.4zm212.704,212.4s51.098,-80.087 212.703,-73.016l0,-139.384s-196.13,13.719 -212.703,212.4z"/>
    <path d="m378.628,945.371s80.086,51.098 73.015,212.703l139.384,0s-13.72,-196.13 -212.399,-212.703zm-350.37,413.39l144.585,0c-29.291,-351.919 205.48,-413.388 205.48,-413.388c-379.054,16.018 -350.065,413.388 -350.065,413.388z"/>
   </g>
   <path d="m580.268,643.903l-403.585,0c-55.133,0 -99.828,44.695 -99.828,99.828l0,290.336c15.172,-19.142 32.255,-37.454 51.512,-54.505l0,-230.585c0,-29.582 23.982,-53.562 53.564,-53.562l393.093,0c29.582,0 53.563,23.98 53.563,53.562l0,393.094c0,29.579 -23.982,53.564 -53.563,53.564l-351.68,0l0,51.509l356.925,0c55.133,0 99.828,-44.695 99.828,-99.828l0,-403.585c0,-55.133 -44.696,-99.828 -99.829,-99.828z" fill="#F68C1F"/>
   <path d="m901.159,900.756c12.3,-10.725 20.714,-26.001 20.714,-45.503c0,-29.902 -21.038,-48.102 -44.015,-53.952l0,-0.975c23.625,-8.774 36.249,-26.976 36.249,-47.127c0,-18.852 -9.062,-33.153 -22.655,-41.277c-14.563,-10.075 -33.012,-13.976 -62.14,-13.976c-22.655,0 -45.634,2.276 -58.256,4.875l0,215.16c10.357,1.3 26.863,2.926 48.872,2.926c40.129,0 65.697,-6.825 81.231,-20.151zm-90.621,-171.609c4.208,-0.975 11.003,-1.625 22.655,-1.625c25.244,0 40.78,9.426 40.78,30.227c0,18.525 -15.211,31.527 -43.045,31.527l-20.39,0l0,-60.129zm0,89.056l19.743,0c27.509,0 49.842,10.4 49.842,36.077c0,26.976 -22.979,36.402 -48.548,36.402c-9.062,0 -15.859,0 -21.036,-0.975l0,-71.504l-0.001,0zm223.308,82.879l0.971,0l2.911,17.552l35.925,0c-1.941,-9.75 -2.588,-23.727 -2.588,-38.027l0,-56.878c0,-34.777 -14.565,-66.953 -65.053,-66.953c-24.923,0 -45.312,6.825 -56.963,13.976l7.768,26.001c10.681,-6.825 26.862,-11.7 42.396,-11.7c27.834,0 32.042,17.226 32.042,27.626l0,2.599c-58.258,-0.325 -93.535,20.151 -93.535,59.804c0,24.052 17.8,47.127 49.518,47.127c20.717,-0.001 37.224,-8.777 46.608,-21.127zm-56.638,-30.227c0,-24.052 26.862,-29.902 55.02,-29.577l0,21.776c0,2.926 0,5.85 -0.97,8.774c-3.884,11.376 -15.211,21.776 -31.395,21.776c-12.622,0.002 -22.655,-7.148 -22.655,-22.749zm200.659,-81.579c21.684,0 30.098,17.225 30.098,39.978l0,89.378l39.809,0l0,-93.93c0,-50.053 -28.481,-67.928 -55.993,-67.928c-26.215,0 -43.369,14.951 -50.488,27.301l-0.971,0l-1.941,-23.725l-34.631,0c0.648,13.651 1.295,28.927 1.295,47.127l0,111.155l39.808,0l0,-93.28c0,-4.55 0.648,-9.426 1.943,-12.675c4.208,-12.026 15.213,-23.401 31.071,-23.401zm175.411,132.607c19.744,0 36.249,-4.226 44.664,-8.126l-5.502,-29.577c-7.768,3.251 -17.8,6.175 -31.395,6.175c-27.185,0 -48.223,-18.527 -48.223,-51.028c-0.324,-28.927 17.8,-51.353 48.223,-51.353c14.241,0 23.627,2.926 30.099,6.175l7.12,-30.227c-9.063,-3.901 -23.95,-7.15 -38.514,-7.15c-55.344,0 -87.708,36.727 -87.708,84.179c0.001,49.079 32.042,80.932 81.236,80.932zm212.961,-83.855c0,-48.102 -31.395,-81.254 -78.323,-81.254c-47.577,0 -81.559,31.851 -81.559,83.854c0,51.028 34.63,81.579 78.969,81.579c40.134,0.001 80.913,-26.002 80.913,-84.179zm-118.779,1.626c0,-26.327 11.327,-53.954 39.484,-53.954c27.187,0 38.191,28.602 38.191,53.303c0,32.177 -15.859,54.277 -38.514,54.277c-23.95,0.001 -39.161,-23.076 -39.161,-53.626zm259.879,82.554c22.656,0 41.75,-11.05 51.137,-28.602l0.646,0l1.943,25.027l35.277,0c-0.648,-10.725 -1.294,-28.276 -1.294,-44.528l0,-186.235l-39.809,0l0,89.379l-0.648,0c-7.12,-11.702 -22.655,-20.476 -44.34,-20.476c-37.866,0 -70.878,31.527 -70.555,84.504c0.001,48.753 29.777,80.931 67.643,80.931zm12.623,-134.557c18.124,0 30.747,12.675 34.306,27.951c0.648,3.251 0.971,7.476 0.971,10.726l0,23.727c0,4.226 -0.324,8.124 -1.295,11.7c-3.883,17.226 -18.124,28.276 -34.306,28.276c-25.244,0 -39.485,-21.126 -39.485,-50.378c-0.001,-29.251 14.241,-52.002 39.809,-52.002zm178.648,134.557c40.133,0 80.913,-26.002 80.913,-84.179c0,-48.102 -31.395,-81.254 -78.323,-81.254c-47.577,0 -81.559,31.851 -81.559,83.854c0,51.027 34.63,81.579 78.969,81.579zm1.618,-136.508c27.187,0 38.191,28.602 38.191,53.303c0,32.177 -15.859,54.277 -38.514,54.277c-23.95,0 -39.161,-23.077 -39.161,-53.627c0,-26.327 11.327,-53.953 39.484,-53.953zm-995.509,246.724c0,33.153 0.971,62.729 3.884,91.656l-0.648,0c-10.033,-24.703 -22.655,-52.004 -35.601,-75.08l-45.31,-80.28l-57.61,0l0,219.061l45.312,0l0,-65.978c0,-35.753 -0.648,-66.628 -2.266,-95.879l1.295,0c10.357,25.676 24.92,53.952 37.867,77.353l46.606,84.504l51.785,0l0,-219.06l-45.312,0l0,63.703l-0.002,0zm148.875,-7.474c-51.137,0 -84.796,32.825 -84.796,84.504c0,51.352 35.601,81.904 81.883,81.904c42.398,0 83.502,-26.651 83.502,-84.829c-0.001,-48.104 -32.366,-81.579 -80.589,-81.579zm-1.617,130.981c-21.038,0 -32.366,-20.475 -32.366,-47.776c0,-23.4 9.063,-47.779 32.366,-47.779c22.331,0 31.395,24.053 31.395,47.453c-0.002,28.926 -11.978,48.102 -31.395,48.102zm144.343,-97.831l-1.294,0l-1.941,-29.25l-42.074,0c0.971,13.652 1.294,28.925 1.294,52.328l0,106.604l49.194,0l0,-80.603c0,-3.901 0.324,-7.802 0.971,-11.05c3.236,-15.276 15.535,-25.026 33.66,-25.026c5.502,0 9.386,0.648 13.27,1.298l0,-46.476c-3.56,-0.65 -5.825,-0.975 -10.357,-0.975c-15.536,0 -34.633,9.75 -42.723,33.15zm217.486,-101.079l-49.194,0l0,85.806l-0.648,0c-7.12,-10.728 -22.008,-17.877 -41.75,-17.877c-37.866,0 -71.202,31.202 -70.878,84.829c0,49.401 30.098,81.579 67.643,81.579c20.39,0 39.808,-9.1 49.518,-26.651l0.97,0l1.943,23.075l43.693,0c-0.648,-10.725 -1.295,-29.577 -1.295,-47.451l0,-183.31l-0.002,0zm-49.194,159.908c0,3.901 -0.324,7.802 -0.971,11.375c-2.911,13.976 -14.563,23.728 -28.803,23.728c-20.39,0 -33.66,-16.901 -33.66,-43.878c0,-25.026 11.327,-45.178 33.984,-45.178c15.211,0 25.892,11.05 28.803,24.05c0.648,2.926 0.648,6.502 0.648,9.102l-0.001,20.801zm147.256,-91.654c-55.02,0 -79.942,44.528 -79.942,84.829c0,49.726 30.747,80.929 84.472,80.929c21.361,0 41.103,-3.251 57.286,-10.075l-6.473,-33.478c-13.27,4.551 -26.863,6.827 -43.693,6.827c-22.98,0 -43.37,-9.752 -44.664,-30.227l101.948,0c0.648,-3.576 1.619,-11.05 1.619,-19.502c0.003,-39.326 -19.416,-79.303 -70.553,-79.303zm-33.335,65.002c1.294,-13 9.709,-32.177 30.422,-32.177c22.655,0 27.833,20.152 27.833,32.177l-58.255,0zm188.684,0.326c-19.419,-6.824 -25.568,-10.725 -25.568,-18.527c0,-7.799 6.798,-12.676 18.773,-12.676c13.27,0 27.185,5.201 34.307,9.102l8.414,-34.128c-9.709,-4.874 -25.892,-9.425 -44.339,-9.425c-39.161,0 -64.407,22.425 -64.407,52.327c-0.324,18.852 12.3,36.726 45.312,47.779c18.124,6.174 22.979,10.075 22.979,18.524c0,8.127 -6.149,13.001 -21.038,13.001c-14.563,0 -33.336,-6.174 -42.398,-11.7l-8.738,35.103c11.974,6.499 30.422,11.375 51.136,11.375c45.312,0 68.291,-21.778 68.291,-51.677c-0.325,-23.077 -12.624,-38.679 -42.724,-49.078zm115.538,-104.656l-48.223,13.326l0,29.577l-21.038,0l0,36.402l21.038,0l0,65.002c0,22.428 4.53,37.704 13.593,47.128c8.091,8.124 21.36,13.651 37.219,13.651c13.593,0 25.568,-1.951 31.718,-4.226l-0.324,-37.376c-4.53,0.975 -7.768,1.3 -14.563,1.3c-14.565,0 -19.42,-8.777 -19.42,-27.951l0,-57.528l35.277,0l0,-36.402l-35.277,0l0,-42.903zm120.72,39.328c-55.02,0 -79.942,44.528 -79.942,84.829c0,49.726 30.747,80.929 84.472,80.929c21.361,0 41.103,-3.251 57.286,-10.075l-6.473,-33.478c-13.27,4.551 -26.863,6.827 -43.693,6.827c-22.98,0 -43.37,-9.752 -44.664,-30.227l101.948,0c0.648,-3.576 1.619,-11.05 1.619,-19.502c0.001,-39.326 -19.418,-79.303 -70.553,-79.303zm-33.336,65.002c1.294,-13 9.709,-32.177 30.422,-32.177c22.655,0 27.833,20.152 27.833,32.177l-58.255,0z" fill="#A80A35"/>
  </svg>