<svg  id="fndm-ph10whqnl4" viewBox="0.3860742449760437 0.9900016784667969 1156.75390625 438.4000549316406" xmlns="http://www.w3.org/2000/svg">
   <g xmlns="http://www.w3.org/2000/svg" fill="none">
    <path d="m99.51,1c1.03,0.6 2.16,0.14 3.23,0.28l3.39,0c0.55,0.06 1.15,-0.15 1.66,0.24c6.18,0.85 12.39,1.59 18.42,3.33c5.5,1.58 10.79,3.63 15.69,6.6c10.69,6.48 17.14,15.92 19.29,28.19c1.4,7.96 1.38,15.92 -1.31,23.69c-3.58,10.35 -10.38,18.04 -19.61,23.72c-1.01,0.62 -2.03,1.21 -3.13,1.87c0.59,0.67 1.3,0.75 1.95,1c18.5,7.05 28.49,20.62 30.58,40.13c0.94,8.78 0,17.45 -2.5,25.9c-4.55,15.37 -14.64,25.81 -29.19,32.13c-8.5,3.69 -17.46,5.61 -26.63,6.64c-2.46,0.28 -4.94,0.44 -7.41,0.65c-0.89,0.34 -1.82,0.18 -2.73,0.18c-32.56,0.01 -65.12,0.01 -97.68,0.01l-0.578,0c-2.512,-0.015 -2.522,-0.209 -2.522,-3.12c0,-62.91 0,-125.83 0.01,-188.74c0,-0.9 -0.23,-1.84 0.26,-2.7l98.81,0zm-6.03,109.42c-13.25,-0.1 -26.49,-0.07 -39.73,-0.07l-0.355,0c-1.838,0.01 -1.865,0.16 -1.865,2.32c-0.01,13.33 -0.01,26.67 0,40c0,2.25 0.03,2.28 2.26,2.28c6.9,0.02 13.79,0.01 20.69,0.01c6.34,0 12.69,0.05 19.05,-0.01c4.9,-0.05 9.71,-0.72 14.26,-2.68c6.45,-2.79 10.08,-7.7 11.14,-14.63c0.48,-3.13 0.44,-6.22 -0.06,-9.33c-1.15,-7.19 -4.95,-12.33 -11.67,-15.25c-4.38,-1.9 -9.01,-2.61 -13.72,-2.64zm-3.08,-70.05c-12.23,-0.06 -24.47,-0.03 -36.7,-0.02c-2.14,0.01 -2.18,0.05 -2.18,2.1c-0.01,11.03 -0.01,22.07 0,33.11c0.01,2.07 0.04,2.1 2.16,2.11c6.26,0.02 12.51,0.01 18.77,0.01c6.07,0 12.14,0.04 18.21,-0.01c4.29,-0.04 8.38,-0.99 12.14,-3.15c4.3,-2.48 7.07,-6.13 8.09,-10.98c0.67,-3.18 0.6,-6.41 -0.1,-9.59c-1.33,-6.08 -5.05,-10.05 -10.89,-12.11c-3.08,-1.09 -6.28,-1.46 -9.5,-1.47z" fill="#005A9A"/>
    <path d="m1156.67,264.32c-1.86,14.57 -9.37,24.86 -23.13,30.33c-6.67,2.65 -13.67,3.54 -20.8,3.54c-50.87,0 -101.73,0.01 -152.6,0c-37.53,-0.01 -75.06,-0.05 -112.59,-0.08c-14.17,-0.01 -28.33,-0.04 -42.5,-0.06c-0.55,0 -1.11,-0.04 -1.66,0c-1.11,0.08 -1.43,-0.51 -1.43,-1.5c0.01,-7.54 -0.23,-15.08 1.52,-22.51c3.27,-13.85 11.97,-22.41 25.49,-26.26c5.42,-1.55 10.97,-2.25 16.61,-2.25l311.54,0l0,15.46c-0.5,0.55 -0.2,1.22 -0.28,1.83c-0.02,0.5 0.12,1.03 -0.17,1.5z" fill="#FFD500"/>
    <path d="m681.31,1c-1.15,5.02 -2.98,9.83 -4.56,14.71c-19.08,59.07 -38.21,118.13 -57.32,177.19c-0.08,0.26 -0.22,0.51 -0.27,0.78c-0.24,1.52 -1.02,2.06 -2.64,2.05c-18.03,-0.06 -36.06,-0.03 -54.08,-0.04c-2.23,0 -2.25,-0.02 -2.97,-2.31c-4.85,-15.42 -9.69,-30.84 -14.54,-46.25c-14.98,-47.56 -29.98,-95.11 -44.95,-142.68c-0.35,-1.12 -0.99,-2.2 -0.84,-3.45l52.99,0c1.99,3.5 2.4,7.5 3.41,11.29c7.58,28.51 15.05,57.06 22.57,85.59c3.96,15.02 7.92,30.04 12.04,45.66a2108.6,2108.6 0 0 0 5.17,-19.27c10.57,-40.18 21.11,-80.36 31.79,-120.51c0.26,-0.98 0.45,-1.98 1.2,-2.74c17.68,-0.02 35.34,-0.02 53,-0.02zm58.52,0c0.01,11.12 0.04,22.25 0.04,33.37c0,2.17 -0.04,2.2 -2.34,2.2c-13.88,0.01 -27.77,0.01 -41.65,0c-2.34,0 -2.36,-0.04 -2.37,-2.48c-0.02,-11.03 -0.04,-22.07 -0.05,-33.1c15.45,0.01 30.91,0.01 46.37,0.01z" fill="#005A9A"/>
    <path d="m1156.67,264.32c0,-0.54 0.01,-1.09 0.01,-1.63c0.13,-0.28 0.28,-0.31 0.46,-0.04l0,1.66c-0.15,0 -0.31,0.01 -0.47,0.01z" fill="#FFF5C5"/>
    <path d="m1157.14,262.64c-0.15,0.02 -0.31,0.04 -0.46,0.04c-0.1,-0.64 -0.16,-1.26 0.46,-1.7l0,1.66z" fill="#FFEA7F"/>
    <path d="m802.82,246.21c-1.28,1.18 -2.65,2.27 -3.82,3.55c-7.42,8.17 -11.28,17.94 -12.83,28.75c-0.76,5.31 -0.58,10.64 -0.62,15.97c0,0.64 -0.03,1.29 0,1.93c0.04,1.11 -0.34,1.76 -1.58,1.65c-0.55,-0.05 -1.1,-0.01 -1.66,-0.01l-777.94,0c-0.64,0 -1.29,-0.04 -1.93,0c-0.99,0.06 -1.26,-0.44 -1.241,-1.34c0.151,-6.88 -0.369,-13.78 0.981,-20.63c2.81,-14.23 11.23,-23.39 24.9,-27.87c5.46,-1.79 11.08,-2.61 16.81,-2.72c1.1,-0.02 2.21,-0.01 3.31,-0.01l568.48,0c61.36,0 122.71,0.03 184.07,0.04l2.69,0c0.13,0.24 0.25,0.46 0.38,0.69z" fill="#009640"/>
    <path d="m1105.92,51.31c7.69,0.93 15.19,2.68 22.26,6c13.88,6.51 21.21,17.62 22.94,32.67c0.41,3.57 0.47,7.15 0.47,10.74c0,22.44 -0.03,44.88 0.06,67.33c0.04,9.06 1.11,17.98 4.79,26.4c0.1,0.22 0.06,0.52 0.11,0.97c-0.96,0.42 -1.8,0.26 -2.61,0.26c-13.61,0.01 -27.23,0.01 -40.84,0.01l-0.416,0c-2.365,-0.008 -2.396,-0.147 -3.144,-2.61c-0.77,-2.56 -1.18,-5.19 -1.55,-7.83c-0.11,-0.79 0.08,-1.68 -0.63,-2.36c-0.23,0.13 -0.5,0.22 -0.68,0.4c-8.71,8.57 -19.43,13.09 -31.25,15.19c-10.7,1.9 -21.41,1.84 -32,-0.99c-4.1,-1.1 -8.01,-2.68 -11.67,-4.84c-10.05,-5.93 -15.96,-14.77 -18.04,-26.14c-1.37,-7.49 -1.24,-15.02 0.7,-22.43c2.42,-9.26 7.9,-16.25 16.05,-21.21c6.76,-4.12 14.19,-6.42 21.84,-8.16c9.16,-2.07 18.47,-3.14 27.75,-4.42c5.46,-0.75 10.93,-1.47 16.31,-2.71c0.89,-0.21 1.79,-0.43 2.66,-0.72c4.21,-1.39 7.18,-3.88 8.03,-8.53c0.89,-4.92 -0.11,-9.14 -3.95,-12.48c-3.44,-3 -7.62,-4.38 -12.01,-5.15c-4.95,-0.87 -9.9,-0.79 -14.76,0.58c-7.26,2.04 -11.8,6.8 -13.79,14.04c-0.661,2.399 -0.716,2.541 -2.834,2.55l-38.476,0c-0.37,0 -0.74,-0.03 -1.1,0c-1.24,0.11 -1.61,-0.5 -1.49,-1.66c0.3,-2.93 0.66,-5.84 1.35,-8.71c3.12,-12.95 10.78,-22.35 22.48,-28.51c8.23,-4.33 17.13,-6.54 26.3,-7.76c12.38,-1.65 24.77,-1.41 37.14,0.08zm0.89,78.35c-7.05,3.48 -14.47,4.33 -21.71,5.85c-3.33,0.7 -6.64,1.45 -9.9,2.38c-3.19,0.91 -6.26,2.11 -9.04,3.96c-5.92,3.94 -7.68,9.65 -6.65,16.33c0.95,6.18 4.94,9.82 10.73,11.69c4.01,1.3 8.14,1.35 12.28,1.05c12.56,-0.91 19.91,-7.2 22.75,-19.43c1.64,-7.04 1.81,-14.18 1.54,-21.83zm-668.17,-78.44c8.25,0.99 16.28,2.83 23.8,6.54c12.74,6.28 19.69,16.68 21.75,30.55c0.47,3.19 0.62,6.4 0.62,9.63c-0.01,22.9 -0.03,45.81 0.05,68.71c0.03,8.02 0.72,15.98 3.29,23.66c0.55,1.67 1.2,3.27 1.86,5.04c-1.12,0.5 -1.96,0.33 -2.77,0.33c-13.61,0.01 -27.23,0.01 -40.84,0.01l-0.405,0c-2.44,-0.007 -2.502,-0.143 -3.215,-2.86c-0.42,-1.6 -0.76,-3.22 -1.06,-4.84c-0.3,-1.62 -0.49,-3.27 -0.73,-4.91c-0.68,-0.35 -0.99,0.23 -1.37,0.58c-8.77,8.33 -19.4,12.82 -31.15,14.84c-10.53,1.82 -21.05,1.78 -31.46,-0.97c-4.29,-1.13 -8.38,-2.75 -12.18,-5.04c-10.19,-6.12 -16.02,-15.2 -17.96,-26.81c-1.08,-6.49 -0.98,-12.99 0.35,-19.47c2.1,-10.22 7.67,-17.95 16.54,-23.37c6.76,-4.13 14.19,-6.44 21.84,-8.16c9.16,-2.06 18.47,-3.15 27.76,-4.42c5.46,-0.75 10.93,-1.47 16.31,-2.71c0.63,-0.14 1.24,-0.33 1.86,-0.5c4.86,-1.29 8.17,-4.06 8.95,-9.29c0.8,-5.4 -0.82,-9.8 -5.37,-12.98c-2.99,-2.09 -6.36,-3.24 -9.91,-3.95c-4.94,-0.99 -9.87,-0.97 -14.77,0.2c-7.32,1.75 -12.1,6.27 -14.37,13.44c-0.22,0.7 -0.46,1.41 -0.57,2.13c-0.14,0.91 -0.64,1.25 -1.51,1.22c-0.55,-0.02 -1.1,0 -1.66,0l-37.53,0c-0.46,0 -0.92,-0.03 -1.38,0c-1.19,0.07 -1.6,-0.42 -1.5,-1.64c0.95,-11.59 4.87,-21.82 13.49,-29.94c5.11,-4.81 11.11,-8.13 17.65,-10.51c7.91,-2.88 16.1,-4.41 24.48,-5.13c10.4,-0.89 20.77,-0.62 31.11,0.62zm1.41,78.53c-4.02,1.82 -8.04,3.02 -12.16,3.87c-5.84,1.2 -11.74,2.18 -17.51,3.74c-3.74,1.01 -7.4,2.2 -10.68,4.33c-5.94,3.85 -7.92,9.49 -6.94,16.22c0.94,6.42 5.02,10.19 11.08,12.04c3.85,1.18 7.79,1.23 11.75,0.98c12.21,-0.78 19.57,-6.66 22.67,-18.2c1.99,-7.45 2.1,-15.06 1.79,-22.98zm-152.86,-74.8c24.49,9.14 39.44,27.01 45.12,52.32c4.17,18.6 2.35,36.82 -6.54,53.9c-10.42,20.02 -27.07,32.11 -49.01,36.77c-16.12,3.42 -32.08,2.39 -47.36,-4.02c-22.66,-9.5 -36.37,-26.69 -42.11,-50.42c-1.48,-6.11 -1.94,-12.34 -2.07,-17.9c0.18,-15.92 3.75,-30.2 12.09,-43.06c8.88,-13.68 21.13,-23.19 36.6,-28.28c17.79,-5.86 35.71,-5.86 53.28,0.69zm-25.26,30.78c-9.05,-0.68 -16.63,2.24 -22.22,9.64c-1.61,2.13 -2.89,4.47 -3.94,6.93c-3.09,7.23 -4,14.86 -4.18,22.62c-0.13,2.59 0.18,5.15 0.44,7.73c0.62,6.07 2.02,11.95 4.84,17.42c4.27,8.29 10.86,13.34 20.31,14.09c8.92,0.71 16.49,-2.03 22.2,-9.18c2.2,-2.75 3.82,-5.84 5.05,-9.13c3.45,-9.25 4,-18.83 3.02,-28.54c-0.65,-6.36 -2.22,-12.49 -5.33,-18.13c-4.4,-7.97 -10.98,-12.76 -20.19,-13.45zm520.88,63.25l20.14,0c1.04,0 1.85,-0.08 2.03,1.47c1.14,9.73 6.13,15.54 15.54,18.06c6.83,1.83 13.64,1.62 20.34,-0.78c2.45,-0.88 4.69,-2.12 6.58,-3.92c5.94,-5.67 5.13,-14.18 -1.8,-18.54c-3.96,-2.49 -8.45,-3.5 -12.92,-4.6c-11.33,-2.78 -22.84,-4.75 -34.11,-7.74c-5.16,-1.37 -10.18,-3.09 -15,-5.44c-15.54,-7.57 -21.34,-20.39 -20.34,-37.04c0.82,-13.62 7.86,-23.41 19.44,-30.15c7.72,-4.5 16.16,-7 24.91,-8.48c13.25,-2.24 26.53,-2.34 39.79,-0.04c10.54,1.83 20.48,5.2 29.02,11.91c8.97,7.04 14.01,16.36 15.75,27.55c0.27,1.72 0.38,3.47 0.58,5.2c0.11,0.94 -0.27,1.38 -1.24,1.32c-0.55,-0.03 -1.1,0 -1.65,0c-12.32,0 -24.65,0.01 -36.97,-0.01c-3.18,0 -2.6,0.32 -3.08,-2.78c-0.1,-0.64 -0.11,-1.29 -0.24,-1.92c-1.19,-5.92 -4.44,-9.95 -10.45,-11.56c-7.38,-1.97 -14.74,-1.83 -22.05,0.17c-3.21,0.88 -5.9,2.67 -7.06,6.03c-1.16,3.35 -0.39,6.34 2,8.93c1.52,1.64 3.39,2.81 5.37,3.8c5.48,2.73 11.35,4.23 17.3,5.45c9.45,1.93 18.95,3.6 28.39,5.57c8.51,1.77 16.29,5.19 22.68,11.25c9.3,8.83 13.13,19.71 11.72,32.43c-1.91,17.18 -11.41,28.83 -26.6,36.27c-7.75,3.79 -15.99,5.98 -24.49,7.17c-13.49,1.9 -26.95,1.55 -40.34,-1.04c-7.9,-1.53 -15.46,-4.02 -22.43,-8.13c-13.01,-7.65 -20.33,-19.04 -22.32,-33.94c-0.16,-1.18 -0.36,-2.37 -0.42,-3.56c-0.16,-3.21 -0.31,-2.9 2.63,-2.9l16,0c1.1,-0.01 2.2,-0.01 3.3,-0.01zm144.31,-19.48l0,-28.7c0,-3.29 0.21,-3.04 -2.92,-3.04l-17.66,0c-3.16,0 -2.75,0.06 -2.76,-2.89c-0.01,-9.94 -0.01,-19.87 0,-29.81c0,-3.25 -0.41,-3.04 3.17,-3.05c5.8,-0.01 11.59,0 17.39,0c2.77,0 2.78,-0.01 2.78,-2.9l0,-36.98c0,-0.55 -0.01,-1.1 0,-1.66c0.06,-1.99 0.06,-2.04 1.98,-2.06c2.94,-0.04 5.89,-0.01 8.83,-0.01l32.29,0c0.64,0 1.29,0.03 1.93,0c0.92,-0.04 1.35,0.36 1.32,1.29c-0.03,0.73 0,1.47 0,2.21l0,36.7c0,0.55 0.05,1.11 -0.01,1.65c-0.14,1.34 0.47,1.78 1.76,1.76c3.31,-0.05 6.62,-0.02 9.94,-0.02c4.97,0 9.94,-0.02 14.9,0.01c1.94,0.01 1.99,0.05 1.99,1.99c0.02,10.58 0.02,21.16 0,31.74c0,1.94 -0.05,1.99 -1.97,1.99c-8,0.02 -16.01,0 -24.01,0.01c-2.57,0 -2.6,0.02 -2.6,2.55c-0.01,15.91 -0.01,31.83 0.01,47.74c0,1.1 0.11,2.2 0.26,3.29c0.76,5.93 3.91,9.22 9.84,10.23c3.46,0.59 6.95,0.67 10.45,0.37c2.11,-0.18 4.23,-0.19 6.33,-0.39c1.36,-0.12 1.74,0.39 1.72,1.7c-0.06,4.78 -0.02,9.57 -0.02,14.35c0,5.43 -0.03,10.86 0.02,16.28c0.01,1.23 -0.29,1.82 -1.67,1.87c-10.01,0.38 -19.99,1.64 -30.04,1.15c-6.9,-0.34 -13.74,-0.97 -20.41,-2.97c-11.81,-3.53 -18.21,-11.77 -20.78,-23.47c-1.69,-7.69 -1.92,-15.5 -2.06,-23.31c-0.08,-5.85 0,-11.74 0,-17.62zm-233.61,-4.71c0,-22.44 -0.01,-44.88 0.01,-67.32c0,-3.71 -0.44,-3.32 3.44,-3.32c13.15,-0.01 26.3,0 39.45,0c0.55,0 1.11,0.06 1.65,-0.01c1.53,-0.19 1.96,0.57 1.82,1.94c-0.05,0.45 -0.01,0.92 -0.01,1.38c0,44.97 0,89.94 -0.01,134.91c0,3.75 0.43,3.31 -3.44,3.32c-13.15,0.01 -26.3,0.01 -39.45,0.01c-0.46,0 -0.92,0.01 -1.38,0c-2.04,-0.05 -2.08,-0.05 -2.08,-2.2c-0.02,-7.82 -0.01,-15.63 -0.01,-23.45c0.01,-15.09 0.01,-30.17 0.01,-45.26zm147.36,314.57c-0.55,0 -1.1,0 -1.65,0.01c-0.55,-0.01 -1.09,-0.02 -1.64,-0.02l-8.37,0l-1.64,0.03c-0.54,-0.01 -1.09,-0.02 -1.63,-0.02c-4.17,-0.74 -8.3,-1.6 -12.16,-3.42c-9.77,-4.61 -15.3,-12.3 -16.6,-23.02c-0.17,-1.37 -0.25,-2.74 -0.39,-4.12c-0.11,-1.08 0.41,-1.52 1.45,-1.44c0.18,0.01 0.37,0 0.55,0c6.53,0 13.06,0.03 19.58,-0.03c1.46,-0.01 2.01,0.35 2.17,1.94c0.64,6.18 3.21,9.05 9.26,10.33c4.53,0.96 9.12,1.08 13.65,-0.16c1.43,-0.39 2.76,-1.02 3.93,-1.94c3.73,-2.94 4,-8.31 0.58,-11.63c-1.76,-1.7 -3.92,-2.74 -6.2,-3.49c-3.23,-1.05 -6.51,-1.94 -9.77,-2.87c-5.42,-1.53 -10.66,-3.47 -15.37,-6.61c-4.97,-3.31 -8.46,-7.76 -9.27,-13.75c-1.52,-11.24 1.96,-20.5 11.6,-27c4.89,-3.29 10.38,-5.1 16.15,-5.99c8.37,-1.29 16.68,-0.88 24.84,1.49c3.29,0.96 6.36,2.39 9.12,4.45c7.11,5.31 9.56,12.73 9.59,21.25c0,1.4 -0.89,1.34 -1.85,1.34c-4.69,-0.01 -9.38,0 -14.07,0l-7.41,0c-0.16,-0.74 -0.31,-1.27 -0.39,-1.81c-0.55,-4.08 -3.05,-6.36 -6.87,-7.32c-4.01,-1.01 -8.03,-1.02 -11.94,0.45c-2.69,1.01 -4.82,2.65 -5.42,5.72c-0.56,2.9 0.37,5.07 2.94,6.49c2.27,1.25 4.78,1.87 7.25,2.57c4.77,1.34 9.61,2.45 14.21,4.36c2.55,1.06 5,2.3 7.35,3.77c14.03,8.8 14.04,26.28 6.65,36.25c-4.09,5.51 -9.57,9.03 -15.91,11.37c-3.99,1.46 -8.14,2.22 -12.32,2.82zm194.1,-91.96c3.13,0 6.25,0.18 9.28,1.07c8.79,2.56 14.32,8.38 16.66,17.13c2.01,7.49 1.54,14.98 -1.24,22.2c-3.91,10.16 -11.76,15.9 -21.91,18.87c-4.71,1.38 -9.54,1.88 -14.44,1.87c-6.25,-0.01 -12.5,-0.01 -18.76,0c-2.18,0 -2.22,0.02 -2.67,2.13c-1.8,8.35 -3.59,16.69 -5.35,25.05c-0.24,1.13 -0.33,2.11 -1.92,2.1c-7.08,-0.07 -14.16,-0.05 -21.24,-0.07c-0.14,-0.02 -0.31,-0.16 -0.6,-0.29c0,-2.35 0.76,-4.62 1.24,-6.92c5.62,-26.87 11.29,-53.72 16.94,-80.58c0.54,-2.55 0.53,-2.57 3.19,-2.57c13.61,0 27.21,-0.01 40.82,0.01zm-6.31,19.66c-5.41,-0.33 -10.85,-0.12 -16.27,-0.18c-0.99,-0.01 -1.42,0.33 -1.63,1.36c-1.39,6.83 -2.85,13.64 -4.35,20.74c6.88,0 13.4,0.07 19.92,-0.03c2.01,-0.04 3.98,-0.68 5.81,-1.6c3.04,-1.53 5.09,-3.88 5.86,-7.24c1.45,-6.29 -0.06,-12.48 -9.34,-13.05zm71.57,72.29c-0.54,0 -1.09,0 -1.63,0.01c-0.54,-0.01 -1.09,-0.03 -1.63,-0.04c-2.4,-0.61 -4.86,-1.05 -7.19,-1.87c-11.28,-3.97 -18.51,-11.91 -21.35,-23.39c-3.84,-15.46 -2.4,-30.54 5.3,-44.64c7.58,-13.87 19.42,-21.7 35.17,-23.55c7.4,-0.87 14.7,-0.4 21.83,1.76c12.52,3.78 19.72,12.2 21.56,25.18c0.27,1.92 0.43,3.83 0.46,5.77c0.02,1.04 -0.36,1.49 -1.44,1.49c-6.9,-0.02 -13.79,-0.02 -20.69,0c-1.03,0 -1.52,-0.3 -1.41,-1.44c0.09,-0.9 0,-1.83 -0.1,-2.74c-0.54,-4.99 -3.24,-8.41 -7.96,-9.91c-7.16,-2.27 -13.82,-1.1 -19.64,3.81c-3.74,3.16 -6.18,7.24 -7.94,11.76c-3.27,8.41 -4.35,17.08 -2.74,25.97c1.88,10.41 8.77,12.98 16.49,12.74c8.96,-0.28 15.35,-5.41 18.06,-14.01c0.35,-1.11 0.56,-1.95 2.09,-1.93c6.9,0.09 13.79,0.04 20.69,0.05c0.35,0 0.7,0.13 1.05,0.2c-2.21,16.71 -14.37,29.95 -30.81,33.58c-2.15,0.47 -4.33,0.8 -6.5,1.2c-0.73,0.01 -1.45,0.03 -2.18,0.04l-2.19,0c-2.44,-0.02 -4.87,-0.03 -7.3,-0.04zm-171.59,0.03l-1.1,-0.03c-0.92,0.01 -1.83,0.01 -2.75,0.02c-1.5,0 -3.01,0.01 -4.51,0.01l-2.22,0c-0.72,-0.02 -1.44,-0.03 -2.17,-0.05c-2.06,-0.48 -4.15,-0.83 -6.16,-1.46c-11.41,-3.53 -19.13,-11.03 -22.28,-22.48c-4.84,-17.6 -2.78,-34.52 7.34,-49.94c7.6,-11.58 18.67,-17.91 32.43,-19.54c8.06,-0.96 15.98,-0.41 23.67,2.24c12.37,4.26 18.75,13.25 20.19,26.03c0.14,1.28 0.18,2.57 0.21,3.86c0.05,1.94 0.01,2.01 -1.96,2.02c-6.53,0.03 -13.06,0.01 -19.59,0.01c-0.09,0 -0.18,-0.01 -0.28,0c-1.15,0.12 -1.69,-0.29 -1.62,-1.54c0.08,-1.28 -0.01,-2.55 -0.29,-3.83c-0.96,-4.46 -3.62,-7.45 -7.9,-8.75c-7.52,-2.29 -14.36,-0.9 -20.24,4.47c-3.25,2.97 -5.48,6.67 -7.08,10.73c-3.28,8.29 -4.43,16.84 -3.08,25.69c0.22,1.46 0.62,2.87 1.13,4.25c1.77,4.8 5.2,7.76 10.17,8.75c11.9,2.36 20.92,-4.31 23.46,-13.68c0.34,-1.26 0.81,-1.83 2.21,-1.81c6.8,0.07 13.61,0.03 20.42,0.04c0.36,0 0.74,-0.01 1.08,0.34c0.32,0.97 -0.21,1.9 -0.46,2.85c-1.57,6.01 -3.99,11.64 -7.77,16.62c-6.35,8.37 -15.04,12.68 -25.16,14.53c-1.17,0.21 -2.35,0.41 -3.53,0.62c-0.7,-0.01 -1.43,0.01 -2.16,0.03z" fill="#005A9A"/>
   </g>
  </svg>