<svg  id="fndm-6579hw9scq" viewBox="0 0 64.33000183105469 37.130001068115234" xmlns="http://www.w3.org/2000/svg">
   <g xmlns="http://www.w3.org/2000/svg" fill-rule="evenodd">
    <path d="m32,0c-10,0 -18.82,2.21 -24.78,6.21c-4.44,2.98 -7.22,7.7 -7.22,12.29a13,13 0 0 0 2,6.84a18.24,18.24 0 0 0 5.84,5.79c5.9,3.79 14.74,6 24.26,6c11,0 20.2,-2.4 25.93,-6.79c4.06,-3.11 6.29,-7.28 6.3,-11.74a14,14 0 0 0 -4.82,-10.4c-5.78,-5.14 -16.05,-8.2 -27.51,-8.2z" fill="#e42313"/>
    <g fill="#fff">
     <path d="m8.68,9.74a41.22,41.22 0 0 1 7.47,-2.91a2.8,2.8 0 0 1 3.13,1.07c0.73,1.28 0.58,2.6 -1.85,4.16c1.35,-0.23 2.38,-0.28 3.19,0.32a3.24,3.24 0 0 1 -1,5.57a49.45,49.45 0 0 0 -7.08,3a0.74,0.74 0 0 1 -1,-0.23c-0.48,-0.8 0.2,-1.22 0.86,-1.49c0.06,0 0.08,-0.08 0.05,-0.16l-3.2,-7.67c0,-0.07 -0.08,-0.09 -0.19,0c-0.73,0.33 -1.1,0.23 -1.29,-0.15c-0.34,-0.72 0,-1.05 0.9,-1.48l0.01,-0.03zm5.45,2.43l-1,-2.42c1,-0.53 2,-0.65 2.38,0.23c0.56,1.2 -0.06,1.86 -1.35,2.19l-0.03,0zm2.15,5.09l-1.28,-3.07c0.88,-0.49 1.59,-0.57 2,-0.16a3.19,3.19 0 0 1 0.78,1.54c0.15,0.89 -0.33,1.27 -1.48,1.68l-0.02,0.01zm10.48,-12.92c3,-0.09 5.56,2.55 5.66,5.89a6.4,6.4 0 0 1 -1.89,4.89a5.22,5.22 0 0 1 -3.41,1.33c-3,0.09 -5.56,-2.55 -5.66,-5.89a6.54,6.54 0 0 1 1.8,-4.81a5.13,5.13 0 0 1 3.5,-1.41zm-0.23,1.8c0.67,-0.07 1.27,1 1.59,4.23a13.29,13.29 0 0 1 0,3.47c-0.13,0.67 -0.4,0.93 -0.68,1c-0.67,0.07 -1.4,-1.18 -1.67,-4.21c-0.34,-3.83 0.17,-4.38 0.8,-4.44l-0.04,-0.05z"/>
     <path d="m33.18,4.32a51.06,51.06 0 0 1 5.16,0.34c0.12,0 0.12,0 0.16,0.13l1,3.4c0.06,0.12 0.13,0.12 0.21,0l1.7,-3c0.06,-0.1 0.06,-0.1 0.2,-0.07a48.7,48.7 0 0 1 5.39,1.35a0.74,0.74 0 0 1 0.49,1.1c-0.21,0.43 -0.68,0.48 -1.26,0.3c-0.12,0 -0.19,0 -0.22,0.1c-0.47,2 -0.93,4.67 -1.54,8.33c0,0.09 0,0.08 0.05,0.1c0.9,0.25 1.17,0.57 0.95,1.12a0.88,0.88 0 0 1 -1,0.45a46.77,46.77 0 0 0 -5.2,-1.32a0.61,0.61 0 0 1 -0.52,-0.79c0.09,-0.46 0.19,-0.77 1.47,-0.52c0.12,0 0.1,0 0.12,-0.08l1.05,-6.16c0,-0.2 0,-0.22 -0.15,0c-1.09,1.7 -2.32,3.77 -3.58,5.91c-0.07,0.11 -0.14,0.08 -0.2,-0.1l-1.77,-6.34c-0.07,-0.22 -0.15,-0.24 -0.2,0c-0.24,2 -0.41,4 -0.51,6c0,0.08 0,0.08 0.06,0.09c0.87,0.07 1.16,0.21 1.13,0.85a0.64,0.64 0 0 1 -0.7,0.67c-1,-0.08 -2,-0.12 -3,-0.13a0.74,0.74 0 0 1 -0.72,-0.79c0,-0.6 0.33,-0.73 1.28,-0.75c0.13,0 0.1,0 0.12,-0.1c0.26,-2.75 0.54,-5.54 0.79,-8.3c0,-0.12 0,-0.12 -0.08,-0.13c-0.79,-0.12 -1.26,-0.4 -1.26,-0.85s0.24,-0.75 0.64,-0.78l-0.06,-0.03zm-12.64,15.13c3.11,1.15 6.52,1.17 8.56,2.14a2.74,2.74 0 0 1 1.59,2.79c-0.14,1.72 -1.68,2.35 -3.48,2.37c1.76,0.79 2.79,1.68 2.75,3a2.76,2.76 0 0 1 -2.56,2.94c-2.04,0.31 -6.4,-0.69 -10.22,-1.8a0.81,0.81 0 0 1 -0.38,-1.12c0.2,-0.47 0.84,-0.52 1.59,-0.19c0.1,0 0.1,0.08 0.13,0c0.77,-2.72 1.37,-5.5 2.05,-8.28c0,-0.13 0,-0.11 -0.08,-0.13c-0.69,-0.13 -1.07,-0.43 -1.08,-1a0.8,0.8 0 0 1 1.14,-0.69l-0.01,-0.03zm3.35,5.49l0.66,-2.67c1.37,0.22 2,0.66 1.73,1.8s-1.08,1.29 -2.38,0.87l-0.01,0zm-1.28,5.39l0.77,-3.22c2,0.26 2.44,1 2.1,2.21s-1.39,1.47 -2.88,1l0.01,0.01z"/>
     <path d="m32,21.29c3.26,0.1 4.95,-0.43 7,-0.3a2.67,2.67 0 0 1 2.53,2.73c0.15,1.64 -0.74,2.49 -2.54,3c1.24,0.06 2.39,0.31 2.84,1.86c0.23,0.73 0.23,2 0.52,2.06s0.9,-0.17 1.14,0.57a0.75,0.75 0 0 1 -0.45,0.94c-1.3,0.25 -2.6,0.44 -3.9,0.59c-0.44,0 -0.68,-0.37 -0.79,-0.78c-0.34,-1.1 -0.19,-2.65 -0.69,-3.61a1.46,1.46 0 0 0 -1.71,-0.54l0.05,3.55c0,0.13 0,0.12 0.14,0.11c1,0 1.32,0.21 1.3,0.71s-0.11,0.66 -0.44,0.76c-1.8,0.15 -3.59,0.21 -5.39,0.21c-0.69,0 -1,-0.3 -1,-0.79s0.34,-0.81 1,-0.79c0.15,0 0.15,0 0.15,-0.14l-0.06,-8.43c0,-0.08 0,-0.09 -0.12,-0.08c-0.79,0.06 -1,-0.31 -1,-0.88s0.51,-0.83 1.36,-0.76l0.06,0.01zm3.9,4.38l-0.11,-2.6c1.19,-0.22 2,0 2,1.09s-0.5,1.6 -1.91,1.51l0.02,0z"/>
     <path d="m41.48,20.38a38.58,38.58 0 0 0 4.35,-1.24a0.72,0.72 0 0 1 0.88,0.41c0.31,0.5 0,0.85 -0.51,1.16c-0.12,0.07 -0.09,0 -0.05,0.17l2.34,8.12c0,0.13 0,0.13 0.18,0.08c0.55,-0.21 1,-0.21 1.25,0.26a0.82,0.82 0 0 1 -0.51,1.16c-1.51,0.51 -3,0.92 -4.53,1.3c-0.62,0.17 -1,0 -1.13,-0.44c-0.2,-0.62 0.12,-0.94 0.65,-1.13c0.16,-0.06 0.14,0 0.1,-0.18l-2.28,-8.1c0,-0.09 0,-0.06 -0.11,0c-0.52,0.14 -0.84,0.12 -1.09,-0.4a0.74,0.74 0 0 1 0.46,-1.09l0,-0.08zm10.07,7.44l-3.64,-7.69c0,-0.11 0,-0.11 -0.14,-0.06c-0.47,0.2 -0.77,0 -0.93,-0.46a0.77,0.77 0 0 1 0.48,-1c1.34,-0.51 2.73,-1.14 4.19,-1.83c0.34,-0.13 0.64,0 0.89,0.4s0,0.86 -0.67,1.27c-0.08,0 -0.08,0 0,0.16c1.04,2.39 2.36,4.78 3.27,7.16c0.06,0.12 0.11,0.09 0.22,0c0.46,-0.36 0.68,-1.15 0.56,-2.55c-0.31,-1.63 -0.19,-2.45 0.27,-2.81s0.73,-0.21 0.9,0.08l1.24,3.25c0.19,0.5 0.18,0.75 0,1a13.1,13.1 0 0 1 -6.5,4.84a0.8,0.8 0 0 1 -1.13,-0.47c-0.18,-0.5 0.13,-0.9 0.92,-1.2c0.1,0 0.1,0 0.06,-0.12l0.01,0.03z"/>
    </g>
    <path d="m63.74,18.58a13.28,13.28 0 0 0 -4.89,-10.15c-5.63,-4.93 -15.69,-7.88 -26.93,-7.88c-9.7,0 -18.29,2.14 -24.18,6c-4.58,3.05 -7.2,7.39 -7.18,11.94c0,4.87 2.73,9.2 7.65,12.21c6.06,3.71 14.83,5.85 24.07,5.86c10.6,0 19.54,-2.32 25.18,-6.58c4.13,-3.11 6.36,-7.16 6.28,-11.4zm-7.25,10.12c-5.37,4 -14,6.27 -24.21,6.26c-9,0 -17.42,-2.06 -23.23,-5.62c-4.42,-2.71 -6.86,-6.56 -6.88,-10.84c0,-4 2.34,-7.85 6.45,-10.56c5.63,-3.72 13.9,-5.76 23.3,-5.76c10.86,0 20.53,2.8 25.87,7.48a11.76,11.76 0 0 1 4.34,9c0.07,3.66 -1.93,7.24 -5.64,10.04z" fill="#fff"/>
   </g>
  </svg>