<svg  id="fndm-vnynukedoq" viewBox="0.0001239776611328125 0.00024884939193725586 1822.9998779296875 611.1162719726562" xmlns="http://www.w3.org/2000/svg">
   <g xmlns="http://www.w3.org/2000/svg" fill="none">
    <path d="m519.167,96.847c-2.277,0 -4.555,-2.28 -6.833,-2.28c-61.495,-13.675 -150.322,4.559 -234.593,79.773l22.776,29.63c70.606,-68.377 161.71,-111.682 223.205,-104.844c2.278,0 4.556,-2.28 -2.277,-2.28m-43.275,-36.466c4.555,2.28 4.555,0 -2.277,-4.559c-2.278,0 -4.556,-2.279 -6.833,-2.279c-87.848,-41.743 -190.91,-35.727 -273.313,15.955l22.776,29.63c75.161,-52.423 182.209,-68.377 259.647,-36.468m-268.757,79.773l22.776,29.63c93.381,-93.449 211.817,-113.962 280.145,-86.611c2.278,0 4.556,-2.28 -4.555,-4.56c-2.277,-2.278 -6.833,-2.278 -9.11,-4.558c-100.937,-38.048 -214.827,-12.023 -289.256,66.098m179.93,271.229l-22.775,-29.63c-70.606,68.377 -161.71,111.682 -223.206,104.844c-2.277,0 -2.277,2.28 4.555,2.28c2.278,0 4.556,0 6.833,2.279c61.496,13.675 150.322,-4.559 234.594,-79.773m-200.43,113.96c-4.555,-2.28 -4.555,0 2.278,4.559c2.278,0 4.555,2.279 6.833,2.279c87.848,41.743 190.91,35.727 273.312,-15.955l-22.776,-29.63c-75.16,52.423 -182.208,68.377 -259.647,36.468m266.48,-82.052l-22.776,-29.63c-93.382,93.448 -211.817,116.24 -280.145,86.61c-2.278,0 -4.556,2.28 4.555,4.559c2.277,2.28 6.833,2.28 9.11,4.558c100.937,38.05 214.827,12.024 289.256,-66.097" fill="#3D8AC9"/>
    <path d="m583.393,420.261a287.213,287.213 0 0 1 -129.885,129.974c-142.252,71.192 -315.257,14.163 -387.377,-127.693c-66.496,-144.231 -4.48,-315.144 139,-383.081a284.679,284.679 0 0 1 120.77,-29.643a300.588,300.588 0 0 1 50.132,4.56c4.557,0 4.557,-2.28 0,-4.56a316.543,316.543 0 0 0 -50.131,-9.121c-128.069,-8.644 -247.866,63.786 -299.792,181.253c-51.925,117.468 -24.892,254.891 67.651,343.9c92.543,89.01 230.835,110.6 346.075,54.029c67.891,-33.093 121.371,-89.853 150.394,-159.618a109.509,109.509 0 0 0 9.114,-31.923c0,-11.401 -9.114,18.242 -15.95,31.923l-0.001,0zm1194.033,-29.643l45.574,0l-2.279,-2.28a68.448,68.448 0 0 1 -6.836,-36.484l0,-182.42l-41.016,6.841l4.557,2.28c9.115,6.841 9.115,18.243 9.115,31.924l0,141.375a68.448,68.448 0 0 1 -6.836,36.484l-2.279,2.28zm-56.967,-52.445c0,18.242 -9.115,36.484 -29.623,36.484c-15.95,0 -25.065,-9.121 -25.065,-22.803c0,-18.242 13.672,-25.083 38.737,-36.484l15.951,-6.84l0,29.643zm29.623,2.28l0,-79.809c0,-20.522 -15.95,-29.643 -47.852,-29.643c-31.902,0 -63.804,11.401 -63.804,34.204a13.686,13.686 0 0 0 4.773,10.58a13.666,13.666 0 0 0 11.178,3.101c11.394,0 15.95,-6.84 18.23,-15.961c2.3,-11.706 13.228,-19.66 25.065,-18.242c18.23,0 25.066,9.12 25.066,27.363c0,20.522 -4.558,20.522 -20.508,29.643l-4.558,2.28c-2.279,2.28 -6.836,2.28 -11.393,4.56c-25.066,11.402 -54.69,22.803 -54.69,50.166a41.06,41.06 0 0 0 13.578,30.762a40.998,40.998 0 0 0 31.997,10.282c18.138,1.022 35.149,-8.834 43.295,-25.082a29.657,29.657 0 0 1 2.279,6.84c0,4.56 2.278,6.841 2.278,13.682l0,2.28l36.46,-2.28l-2.28,-2.28a79.855,79.855 0 0 1 -9.114,-47.886l0,-4.56zm-139,20.522l0,-129.974l-41.016,6.841l4.557,2.28c6.836,4.56 6.836,11.401 6.836,22.803l0,59.286c0,27.363 -2.279,54.726 -31.902,54.726c-25.065,0 -29.623,-20.522 -29.623,-43.325l0,-91.21c0,-2.28 0,-9.12 -6.836,-9.12a159.405,159.405 0 0 0 -18.23,2.28c-4.557,0 -6.835,2.28 -11.393,2.28l-4.557,0l4.557,2.28c6.836,4.56 6.836,11.401 6.836,22.803l0,86.649a43.343,43.343 0 0 0 11.696,34.513a43.28,43.28 0 0 0 33.878,13.372a61.504,61.504 0 0 0 43.295,-18.242s2.279,0 2.279,-2.28a13.69,13.69 0 0 1 0,2.28l0,13.683l38.738,-2.28l-2.279,-2.28c-6.836,-6.842 -6.836,-18.243 -6.836,-31.924l0,4.56l0,-0.001zm-164.066,13.682c-11.393,0 -13.672,-6.841 -13.672,-18.242l0,-104.892l4.558,0c13.672,0 27.344,-2.28 27.344,-11.4c0,-4.561 -4.557,-4.561 -4.557,-4.561l-27.345,0l0,-50.166l-29.623,6.841l0,168.738c0,25.083 11.394,36.484 34.18,36.484c13.673,0 38.738,-11.401 38.738,-15.962l2.279,-20.522l-4.557,4.56a68.329,68.329 0 0 1 -27.345,9.122zm-102.54,0c-41.017,0 -50.132,-34.204 -50.132,-61.567c0,-34.204 13.672,-66.127 47.853,-66.127c14.787,-2 28.985,6.524 34.18,20.522l4.557,0l0,-29.643c0,-4.56 -27.344,-6.84 -34.18,-6.84a84.282,84.282 0 0 0 -62.79,25.456a84.402,84.402 0 0 0 -23.8,63.473a73,73 0 0 0 18.781,56.078a72.898,72.898 0 0 0 54.137,23.731c25.066,0 52.41,-11.402 52.41,-31.924l0,-11.401l-2.279,4.56a52.39,52.39 0 0 1 -36.459,13.682l-2.279,0l0.001,0zm-132.165,-36.484c0,18.242 -9.114,36.484 -29.622,36.484c-15.951,0 -25.066,-9.121 -25.066,-22.803c0,-18.242 13.672,-25.083 38.738,-36.484l15.95,-6.84l0,29.643zm29.623,2.28l0,-79.809c0,-20.522 -15.95,-29.643 -47.852,-29.643c-31.902,0 -63.803,11.401 -63.803,34.204a13.685,13.685 0 0 0 4.773,10.58a13.666,13.666 0 0 0 11.178,3.101c11.393,0 15.95,-6.84 18.229,-15.961c2.3,-11.706 13.228,-19.66 25.066,-18.242c18.23,0 25.065,9.12 25.065,27.363c0,20.522 -4.557,20.522 -20.508,29.643l-4.557,2.28c-2.28,2.28 -6.836,2.28 -11.394,4.56c-25.065,11.402 -54.69,22.803 -54.69,50.166a41.06,41.06 0 0 0 13.579,30.762a40.998,40.998 0 0 0 31.996,10.282c18.138,1.022 35.15,-8.834 43.295,-25.082a36.523,36.523 0 0 1 2.28,6.84c0,4.56 2.278,6.841 2.278,13.682l0,2.28l36.459,-2.28l-2.279,-2.28a79.855,79.855 0 0 1 -9.115,-47.886l0,-4.56zm-186.852,-168.738c-13.672,0 -34.18,0 -47.852,2.28c-13.673,0 -27.345,2.28 -41.017,2.28l-4.557,0l2.278,2.28a82.139,82.139 0 0 1 6.837,43.325l0,129.974a79.857,79.857 0 0 1 -6.837,41.045l-2.278,2.28l56.967,0l-2.279,-2.28a84.417,84.417 0 0 1 -9.114,-43.325l0,-161.897l29.622,0a41,41 0 0 1 33.848,11.734a41.061,41.061 0 0 1 11.726,33.87c0,47.886 -36.459,52.446 -61.524,54.726l-4.558,0l4.558,2.28s2.278,0 2.278,2.28a63.767,63.767 0 0 0 31.902,6.842a66.059,66.059 0 0 0 49.926,-20.096a66.153,66.153 0 0 0 18.435,-50.592c0,-38.764 -25.066,-59.286 -68.361,-59.286l0,2.28zm-177.738,114.012a88.984,88.984 0 0 1 6.836,43.325l0,15.961a130.06,130.06 0 0 1 -2.278,34.204a136.631,136.631 0 0 1 -22.787,2.28c-59.246,0 -91.148,-36.484 -91.148,-102.61c0,-45.605 27.345,-93.49 77.476,-93.49a91.112,91.112 0 0 1 66.082,25.082l2.278,2.28l0,-43.324l-2.278,0c-4.558,0 -11.394,0 -15.951,-2.28c-11.394,0 -22.787,-2.28 -34.18,-2.28c-82.033,0 -132.164,45.604 -132.164,123.132c0,72.968 41.016,111.732 116.213,111.732c23.63,0.353 47.25,-1.172 70.639,-4.56l2.279,0l0,-2.28a216.768,216.768 0 0 1 -2.279,-29.644l0,-36.484a88.984,88.984 0 0 1 6.836,-43.324l2.279,-2.28l-52.41,0l4.557,4.56zm-191.41,59.286l0,-155.056l43.296,0c25.065,0 38.737,-6.84 43.295,-18.242l0,-2.28l-193.689,0l11.394,29.643l2.278,-2.28a36.44,36.44 0 0 1 25.066,-6.841l34.18,0l0,155.056a82.139,82.139 0 0 1 -6.836,43.325l-2.279,2.28l54.689,0l-2.279,-2.28a82.139,82.139 0 0 1 -6.836,-43.325l-2.279,0zm-223.311,-68.407l4.557,0c47.853,0 82.033,2.28 82.033,50.165c0,31.924 -20.508,47.886 -59.246,47.886c-20.508,0 -27.344,-6.841 -27.344,-45.605l0,-52.446zm0,-91.21c6.836,0 20.508,-2.28 25.066,-2.28c29.623,0 52.41,4.56 52.41,34.204c0,41.044 -41.017,43.324 -70.64,43.324l-6.836,0l0,-75.248zm-9.115,207.504l45.574,0c61.525,0 93.426,-25.083 93.426,-70.688c0,-36.484 -27.344,-50.165 -56.967,-57.006c22.787,-9.121 45.574,-25.083 45.574,-54.726c0,-27.363 -20.508,-43.325 -54.689,-43.325c-15.95,0 -41.016,0 -56.967,2.28c-15.95,2.28 -31.902,2.28 -47.852,2.28l-4.558,0l2.279,2.281a84.42,84.42 0 0 1 6.836,43.325l0,86.65a214.478,214.478 0 0 1 -11.393,84.368l-2.28,2.28l38.739,0l2.278,2.28l0,0.001z" fill="#194274"/>
   </g>
  </svg>