<svg  id="fndm-4a3ohjk3tz" viewBox="467.4322204589844 28.444562911987305 123.39962768554688 94.29879760742188" xmlns="http://www.w3.org/2000/svg">
   <defs xmlns="http://www.w3.org/2000/svg">
    <clipPath clipPathUnits="userSpaceOnUse" id="fndm-80vyt9mlcp">
     <path d="m0,113.39l793.7,0l0,-113.39l-793.7,0l0,113.39z"/>
    </clipPath>
   </defs>
   <g xmlns="http://www.w3.org/2000/svg" transform="matrix(1.33333 0 0 -1.33333 0 151.187)" clip-path="url(#fndm-80vyt9mlcp)">
    <path d="m417.587,48.769c0.499,-0.418 0.144,-0.062 0.598,-0.61l9.45,-16.337c3.79,-6.52 5.18,-12.384 15.49,-9.911l-0.104,35.78l-6.422,-0.122l-0.002,-27.196l-2.798,4.422c-2.691,4.548 -9.986,18.37 -12.401,20.95c-2.666,2.848 -9.664,3.007 -10.3,1.058c-0.728,-2.237 0.195,1.323 -0.17,-0.601c-0.037,-0.193 -0.052,-1.041 -0.051,-1.274c0.024,-7.69 -0.292,-29.241 0.103,-33.342l6.603,0.143l0.004,27.04zm-34.447,-15.417c0.124,0.727 5.647,15.535 6.946,16.189c1.752,-0.741 2.008,-4.531 3.494,-6.91l5.497,2.052c0.446,0.214 0.39,0.199 0.636,0.394c-0.683,2.287 -1.918,4.717 -2.837,7.098c-1.05,2.719 -1.692,4.673 -4.17,5.68c-6.517,2.653 -8.27,-4.258 -10.1,-8.487c-0.898,-2.072 -11.045,-25.87 -11.485,-27.764l7.246,0.025c0.859,2.619 1.209,3.456 2.84,5.013c3.898,3.716 9.606,7.76 15.328,8.735c0.414,-1.581 4.912,-12.81 5.62,-13.762l7.186,-0.022c-0.44,2.774 -5.184,11.805 -5.981,15.199l5.28,0.662l0.029,6.88c-5.091,-0.036 -10.885,-1.808 -14.862,-3.615c-7.284,-3.31 -8.486,-6.013 -10.667,-7.367m-25.697,3.402c6.867,0.22 10.329,-0.67 15.467,3.261c3.449,2.637 6.076,7.16 4.842,13.693c-2.586,13.695 -24.724,10.295 -27.177,8.837l0.07,-40.938l6.813,-0.017l-0.015,15.164zm0.039,20.926c2.653,0.833 7.314,0.594 9.857,-0.424c7.583,-3.033 5.059,-17.898 -9.876,-14.63l0.019,15.054zm2.453,23.286c0.267,0.295 0.215,0.232 0.549,0.54c6.55,6.04 -0.68,12.779 -9.727,9.84l-0.182,-21.36c4.26,-0.58 9.06,-1.061 11.722,1.809c1.23,1.329 1.744,3.48 1.202,5.674c-0.487,1.974 -1.777,3.019 -3.564,3.497m-6.616,8.052c2.852,0.384 6.512,0.54 6.47,-3.216c-0.04,-3.65 -3.292,-3.484 -6.448,-3.451l-0.022,6.667zm0.014,-16.676l-0.085,7.308c3.245,-0.105 7.362,0.218 7.338,-3.698c-0.022,-3.603 -3.914,-3.758 -7.253,-3.61m54.136,3.931c1.228,-10.101 16.253,-8.642 14.638,2.998c-1.417,10.21 -16.075,8.819 -14.638,-2.998m3.089,0c-1.287,8.3 7.288,9.885 8.43,3.086c1.433,-8.532 -7.396,-9.756 -8.43,-3.086m-34.43,-5.929c0.095,0.04 0.415,0.203 0.484,0.237c0.06,0.03 0.197,0.027 0.24,0.142c0.045,0.12 0.165,0.097 0.243,0.15c-0.041,2.903 0.372,11.184 -0.79,13.075c-1.657,2.692 -6.68,2.645 -9.883,0.9l0.926,-2.164c1.619,0.471 2.77,1.09 4.723,0.833c1.577,-0.208 2.939,-1.596 1.65,-3.098c-1.031,-1.203 -6.194,-1.063 -7.974,-3.182c-2.666,-3.176 -0.701,-9.609 9.389,-7.183c0.329,0.08 0.765,0.198 0.992,0.29m-1.866,7.53l-0.028,-5.32c-2.203,-0.567 -6.733,-1.186 -6.4,2.024c0.235,2.271 4.185,2.902 6.428,3.295m5.719,-7.998l2.731,0l0.031,12.927c8.765,3.058 7.07,-3.568 6.953,-12.881l2.824,-0.042c-0.351,9.072 3.201,20.6 -12.637,14.623l0.098,-14.627zm25.479,13.005l0.87,2.245c-6.265,2.352 -12.311,-0.072 -12.282,-7.265c0.034,-8.25 8.35,-9.676 12.319,-7.29l-0.6,2.17c-2.34,-0.49 -3.947,-1.39 -6.28,0.099c-2.988,1.906 -3.314,7.84 -0.016,10.042c1.998,1.333 3.836,0.454 5.99,0" fill-rule="evenodd" fill="#0e66b0"/>
   </g>
  </svg>