<svg  id="fndm-ubtkv14ag4" viewBox="93.36048889160156 96.81000518798828 313.2532958984375 306.6400146484375" xmlns="http://www.w3.org/2000/svg">
   <path d="m98.1,289c0.6,-0.2 1.2,-0.2 1.8,0c1.1,0.8 2.3,0.5 3.5,0.5l300.6,0c1.6,0 2.4,0.6 2.2,2.2l0,109.3c0,1.1 -0.6,1.6 -1.6,1.7c-0.8,0.1 -1.6,0.1 -2.4,0.1l-306.2,0c-1.6,0 -2.3,-0.7 -2.2,-2.3l0,-107.1c0,-3.4 0,-3.4 3.5,-3.9c0.2,-0.2 0.5,-0.3 0.8,-0.5z" fill="#2a166f"/>
   <path d="m94.1,400.3c-0.2,1.3 0.4,1.9 1.8,1.8c1.8,-0.1 3.6,0 5.3,0l301.3,0c3.2,0 3.2,0 3.2,-3.2l0,-105.9c0,-3 0,-3 -3,-3l-299.7,0c-1.1,0 -2.4,0.5 -3.2,-0.9c0.9,0 1.8,-0.1 2.7,-0.1l301.3,0c0.8,0 1.6,-0.2 2.4,0.2c0.3,0.7 0.2,1.5 0.2,2.2l0,109.6c0,0.7 0.2,1.5 -0.2,2.2c-0.8,0.3 -1.6,0.2 -2.4,0.2l-307.6,0c-0.8,0 -1.6,0.2 -2.4,-0.2l-0.1,-0.1c-0.4,-0.8 -0.2,-1.7 -0.2,-2.5c0.2,-0.4 0.4,-0.5 0.6,-0.3z" fill="#251f48"/>
   <path d="m94.1,400.3l-0.3,0c-0.6,-0.6 -0.3,-1.4 -0.3,-2.1l0,-106.9c0,-0.7 -0.2,-1.5 0.2,-2.2c1.5,-0.6 3,-0.3 4.5,-0.2c-0.1,0.9 -0.8,1 -1.5,0.9c-2.4,-0.4 -2.6,0.8 -2.6,2.8c0.1,16.8 0,33.5 0,50.3l0,57.4z" fill="#271e44"/>
   <path d="m93.7,289.1l0,108c0,1 0.1,2.1 0.1,3.1c0,0.9 -0.1,1.7 -0.1,2.6c-0.5,-0.6 -0.3,-1.3 -0.3,-1.9l0,-109.9c0,-0.6 -0.2,-1.3 0.3,-1.9zm312.5,113.9l0,-113.9c0.7,0.6 0.3,1.4 0.3,2.1l0,109.8c0,0.6 0.4,1.4 -0.3,2z" fill="#2a166f"/>
   <path d="m138.1,340.3c7.6,2 13.5,5.3 15.8,13.1c4.6,-7.8 12.1,-8.8 19.8,-9.2l0.2,0c1.5,-0.5 3.8,1.2 4.5,-0.9c1.2,-3.3 -0.6,-7.7 -3.2,-8.9c-2.4,-1.1 -4.9,-1 -7.4,-0.7c-3.3,0.4 -6.5,1.4 -9.5,3c-1.4,0.8 -1.9,0.5 -1.7,-1.1l0,-0.9c-0.1,-6 -0.1,-6 5.8,-7.4c6.1,-1.4 12.3,-2 18.4,-0.1c6.3,1.9 9.1,5.7 9.1,12.2c0.1,7.3 -0.3,14.5 0.2,21.8c0.1,2.2 1.2,3.3 3.3,3.3c1.2,0 1.5,0.4 1.6,1.5c0.5,5.3 0.1,5.9 -5.3,6.3c-4.3,0.3 -8.4,-0.1 -10.5,-4.8c-0.6,-1.4 -1.3,-0.3 -1.8,0.2c-4.1,3.6 -8.8,5.4 -14.3,4.5c-5.3,-0.9 -8.6,-4 -10.1,-9c-0.2,0.1 -0.4,0.1 -0.4,0.2c-3.4,6.2 -9,8 -15.5,8c-7.4,0.1 -14.8,0 -22.3,0.1c-1.3,0 -1.6,-0.5 -1.6,-1.7l0,-56.5c0,-1.2 0.3,-1.6 1.6,-1.6c7.6,0.1 15.1,0 22.7,0.2c5.3,0.2 9.9,2 12.6,7c3.5,6.6 1,14.4 -5.7,18.4c-1.9,1 -3.8,1.8 -6.3,3z" fill="#fdfdfd"/>
   <path d="m283.8,360.3c-3.5,11.7 -18.5,16.6 -28.5,7.4c-0.6,0.6 -0.3,1.4 -0.3,2.1l0,15.8c0,1.3 -0.4,1.8 -1.8,1.8c-1.8,-0.1 -3.7,0.1 -5.5,0.1c-0.7,0.4 -1.5,0.6 -2.3,0.6c-2.4,0 -3,-0.6 -3,-3l0,-55.4c0,-0.8 -0.2,-1.7 0.5,-2.3c3.7,-0.4 7.4,-0.1 11.1,-0.2c1.1,0 1.1,0.7 1.1,1.5l0,5.3c1,0 1,-0.7 1.3,-1.1c6.1,-9.2 20.1,-9.1 26,0.3c3.3,5.3 4.4,11.2 3.5,17.4c0.1,3.3 -0.7,6.6 -2.1,9.7z" fill="#fdfdfc"/>
   <path d="m209.1,334.2c2.4,-2.3 4.3,-4.6 7.1,-6.1c4.8,-2.5 9.6,-3 14.5,-0.5c4.3,2.2 6.1,6 6.2,10.6c0.2,10.5 0,20.9 0.1,31.4c0,1.5 -0.6,1.9 -2,1.8c-2.7,-0.1 -5.5,-0.1 -8.2,0c-1.5,0.1 -1.9,-0.4 -1.9,-1.9c0.1,-8.5 0,-16.9 0,-25.4c0,-1.5 -0.1,-3 -0.3,-4.4c-0.3,-2.7 -2.7,-4.4 -5.4,-4.1c-5.4,0.6 -10.1,6 -10.1,11.4c0,7.4 -0.1,14.8 0,22.3c0,1.8 -0.6,2.3 -2.3,2.2c-2.5,-0.1 -5,-0.1 -7.6,0c-1.7,0.1 -2.3,-0.4 -2.3,-2.2c0.1,-10.2 0,-20.5 0,-30.7l0,-9.8c0,-1.1 0.3,-1.6 1.5,-1.6c3,0.1 6.1,0.1 9.1,0c1.2,0 1.5,0.4 1.5,1.6c0,1.7 0.1,3.5 0.1,5.4z" fill="#fdfdfd"/>
   <path d="m283.8,360.3c-0.3,-1.4 0.7,-2.5 0.9,-3.8c0.3,-2 0.8,-4 1.2,-6l0,3.8c0.9,-1.4 1.5,-2.4 2.3,-3.3c3.6,-4.5 8.7,-5.8 14.2,-6.4c2.4,-0.2 4.7,-0.2 7.1,-0.3c0.8,0 1.5,-0.1 1.5,-1.1c-0.1,-1.5 0,-3.1 -0.2,-4.6c-0.5,-3.2 -2.8,-4.8 -6.7,-4.9c-4.6,-0.2 -9,1 -13,3c-1.6,0.8 -2.1,0.6 -2,-1.2c0.1,-0.7 0,-1.3 0,-2c0,-4.1 0,-4.1 3.7,-5.6c0.5,-1.1 1.7,-0.9 2.5,-1.1c7.4,-1.8 14.6,-2.2 21.6,1.4c1.3,0.6 2.4,1.4 3,2.8c0.6,0.8 1.1,1.6 1.7,2.4c1.4,1.6 1.6,3.6 1.6,5.6l0,19.8c0,1.2 0.1,2.4 0.5,3.5c0.3,1 1,1.7 1.9,2c2.5,1 2.7,1.1 2.5,3.7c0,0.3 -0.1,0.6 -0.2,0.8c0.2,2.1 -0.8,3 -2.8,3.3c-2.6,0.4 -5.1,0.6 -7.7,0c-2.3,-0.5 -4.2,-1.6 -5.1,-3.9c-0.7,-1.7 -1.3,-1.4 -2.4,-0.3c-4.7,4.5 -12.3,5.9 -17.5,3.3c-4.6,-2.3 -6.9,-6.1 -7.1,-11.2c0,-0.5 0.2,-1 -0.2,-1.4c-1,0.2 -0.7,1.2 -1.3,1.7zm74.6,-23.1l0,-7.1c0,-0.8 0.4,-1.2 1.1,-1.4c7.2,-2.4 14.5,-3.6 22.1,-1.9c7.1,1.6 10.3,5.7 10.4,12.9l0,19.8c0,3.7 0.4,4.2 4,5c0.1,0 0.4,0 0.4,0.1c0.9,1.7 0.5,3.6 0.7,5.3c0.1,0.8 -0.1,1.4 -1.1,1.6c-3.3,0.8 -6.6,1.2 -9.9,0.3c-2,-0.6 -3.7,-1.6 -4.5,-3.6c-0.7,-1.5 -1.2,-1.6 -2.5,-0.4c-4.4,4 -9.6,5.5 -15.4,4.1c-4.8,-1.2 -7.9,-4.5 -8.9,-9.3c-1.2,-5.4 0.5,-10.1 4.8,-13.7c3.2,-2.7 7.2,-3.7 11.3,-4.2c2.7,-0.3 5.3,-0.4 8,-0.4c0.8,0 1.5,0 1.5,-1.1c-0.1,-1.6 0.1,-3.1 -0.2,-4.7c-0.5,-3.1 -3,-4.8 -6.9,-5c-4.7,-0.1 -9.1,1 -13.2,3.2c-0.3,0.2 -0.7,0.3 -1,0.5l-0.7,0z" fill="#fdfdfb"/>
   <path d="m341.6,327.3l0,6.6c1,-0.4 1.4,-1.3 1.9,-1.9c3.3,-3.9 7.3,-6.1 12.5,-6c1.3,0 1.9,0.4 1.9,1.8c-0.1,2.4 0,4.9 0.1,7.3c0,1.3 -0.1,1.9 -1.8,1.5c-5.9,-1.4 -10.6,0.6 -14,5.6c-0.6,0.9 -0.6,1.8 -0.6,2.7l0,22.9c0,4.1 0.4,3.4 -3.4,3.5c-2.3,0 -4.6,-0.1 -6.9,0c-1.4,0.1 -2,-0.3 -2,-1.9c0.1,-13.6 0.1,-27.1 0,-40.7c0,-1.4 0.4,-1.8 1.8,-1.8c3.6,0.3 7,0.3 10.5,0.4z" fill="#fdfdfd"/>
   <path d="m368.1,319.7l8.4,-11.2c0.4,-0.5 0.8,-0.8 1.5,-0.8l9.3,0c0.3,1 -0.5,1.3 -0.9,1.8c-2.9,3.1 -5.8,6.1 -8.7,9.2c-0.8,0.8 -1.6,1.2 -2.7,1.1c-2.1,-0.2 -4.3,-0.1 -6.9,-0.1z" fill="#fbf9f7"/>
   <path d="m327.8,368.7c-0.1,-0.5 -0.3,-1 -0.3,-1.5c0,-1.6 0.2,-3.1 -2.3,-2.7c-1.2,0.2 -2.2,-0.9 -2.4,-2.2c-0.1,-0.9 -0.2,-1.8 -0.2,-2.6c-0.1,-7.1 -0.1,-14.2 -0.2,-21.3c0,-1.7 -0.6,-3.3 -0.9,-5l0,-1.8c1.5,2.1 2.3,4 2.3,6.1c0,6.7 0.1,13.5 -0.1,20.2c-0.1,2.2 1.3,3.7 2,5.5c0.3,0.7 1,0.4 1.6,0.4c0.8,0 0.9,-0.6 0.9,-1.3l0,-5.3c0,-9 0,-18.1 0.1,-27.1c0,-1 -1.2,-2.3 0,-3.1c1.3,-0.8 2.8,-1.7 4.5,-1.4c2.1,0.2 4.2,-0.4 6.3,0.8c0.7,0.4 1.7,0.2 2.6,-0.2c0.7,-0.3 1.3,0 1.6,0.8c0.2,0.5 0.1,1.1 -0.4,1.4c-1.1,0.6 -0.7,-0.9 -1.3,-1c-2.4,-0.9 -4.8,-0.3 -7.2,-0.4c-1.7,-0.1 -3.8,-0.7 -4.9,0.3c-1.1,1 -0.3,3.2 -0.3,4.8l0,37.1c0,0.8 0.3,1.6 -0.4,2.5c-1,-0.9 0,-2.3 -1,-3z" fill="#271b62"/>
   <path d="m242.8,327.3l0,56.7c0,3.2 0,3.2 3.1,3.3c0.6,0 1.2,0.1 1.8,0.1c-0.9,1.6 -2.3,1.6 -3.7,1.1c-1.4,-0.5 -2.2,-1.3 -2.2,-3.2c0.1,-18.7 0.1,-37.4 0.1,-56.2c0.1,-0.5 -0.8,-1.9 0.9,-1.8z" fill="#271e55"/>
   <path d="m319.8,330.8c-5.5,-4.7 -12.1,-5.3 -18.9,-4.6c-2.8,0.3 -5.5,1 -8.2,1.5c-0.5,-0.1 -1.1,-0.2 -1.1,-0.8c0,-0.6 0.6,-0.5 1,-0.5c4.4,-0.6 8.6,-1.9 13.1,-2c1.7,0 3,0 4.6,0.7c1.7,0.7 3.6,1 5.5,1.3c2.2,0.3 4.4,2.6 4,4.4zm3.6,-4.5c1.3,1.4 1.3,1.4 1.6,3c-1.1,-0.6 -1.5,-1.5 -1.6,-3z" fill="#271b62"/>
   <path d="m125.2,353.6l0,-7.3c0,-1.1 0.2,-1.7 1.4,-1.7c4.6,0 8.8,1.1 12,4.7c2.3,2.6 2.8,5.5 1.7,8.7c-1.1,3 -3.6,4.2 -6.6,4.5c-2.3,0.2 -4.6,0.2 -6.9,0.4c-1.3,0.1 -1.7,-0.4 -1.7,-1.7c0.2,-2.6 0.1,-5.1 0.1,-7.6z" fill="#28176f"/>
   <path d="m125.2,328.3c0,-2.2 0.1,-4.3 0,-6.5c0,-1.3 0.3,-1.9 1.7,-1.8c2.3,0.2 4.6,-0.1 6.9,0.5c3.6,0.9 5.6,3.7 5.1,7.4c-0.6,4.5 -3.6,7.5 -8,8.3c-5.6,1 -5.6,1 -5.6,-4.5c-0.1,-1.2 -0.1,-2.3 -0.1,-3.4z" fill="#2a176c"/>
   <path d="m178.5,356.2c-0.4,1.3 0.8,3 -0.7,4.3c-2.3,2 -4.9,3.7 -8.1,3.6c-2.3,-0.1 -4.1,-1.4 -5,-3.5c-0.9,-2 -0.6,-4 0.8,-5.8c2,-2.6 4.9,-3.2 7.8,-3.5c5.2,-0.5 5.2,-0.4 5.2,4.9z" fill="#29186e"/>
   <path d="m255,350.8l0,-5.8c0,-5.2 6.3,-10.3 11.4,-9.3c2.3,0.5 3.9,1.8 4.8,3.9c3.1,7.2 2.8,14.4 -1.1,21.3c-2.3,3.9 -7.3,4.7 -11.5,2c-2.4,-1.5 -4.3,-3.3 -3.7,-6.6c0.3,-1.8 0.1,-3.7 0.1,-5.5z" fill="#2a166f"/>
   <path d="m310.9,356.1c-0.4,1.3 0.7,3.1 -0.6,4.4c-2,2 -4.5,3.4 -7.4,3.6c-2.4,0.2 -4.9,-1.4 -5.8,-3.7c-0.9,-2.4 -0.2,-5 1.9,-6.7c3.3,-2.6 7.1,-2.5 11,-2.4c0.9,0 0.9,0.6 0.9,1.2l0,3.6z" fill="#2a176c"/>
   <path d="m380.4,356.1c-0.3,1.2 0.8,3.1 -0.5,4.4c-2.2,2.1 -4.7,3.6 -7.8,3.7c-2.5,0.1 -4.8,-1.7 -5.6,-4.1c-0.7,-2.6 0.4,-5.3 2.8,-6.9c3.2,-2 6.7,-1.9 10.3,-1.9c0.9,0 0.8,0.6 0.8,1.2l0,3.6z" fill="#29176e"/>
   <path d="m328,97c1.3,-0.3 1.9,0.2 1.8,1.5l0,153.6c0,4.1 0,4.1 -4,4.1c-50.6,0 -101.2,0 -151.8,0.1c-2.8,0 -3.7,-0.7 -3.7,-3.6c0.1,-50.2 0.1,-100.4 0.1,-150.6c0,-0.8 0.1,-1.6 0,-2.4c-0.3,-2.5 0.8,-3.3 3.1,-2.7c0.9,0.4 2,0.7 0.7,1.8c-1.6,1.2 -2.2,2.8 -2.1,4.7l0,145.6c0,4.5 0.5,5.1 5,5.1l146.2,0c1.5,0 3,0.1 4.3,-0.9c1.1,-0.8 0.9,-1.9 0.9,-3l0,-149.6c0,-0.4 0,-0.8 -0.1,-1.2c-0.1,-0.3 -0.3,-0.7 -0.4,-1c-0.4,-0.5 -0.4,-1 0,-1.5z" fill="#9e1426"/>
   <path d="m174.5,98.1c-0.4,-0.4 -0.8,-0.7 -1.2,-1.1c1.3,0 2.6,-0.1 3.9,-0.1l147.7,0c1,0 2,0.1 3,0.1l0,1.1c-0.5,0.6 -1.2,0.8 -1.9,0.8c-5.8,-0.3 -11.4,1.5 -17.2,1.4c-8.9,-0.2 -17.8,-0.7 -26.6,0.4c-0.5,0.1 -1,0.1 -1.5,-0.2c-3.5,-2 -7,-1.4 -10.7,-0.6c-3.2,0.7 -6.6,0.6 -9.8,-0.3c-1.8,-0.5 -3.5,-0.7 -5.3,-0.5c-25.4,2.4 -50.8,0.6 -76.2,1.1c-1,0 -2,0 -3,-0.3c-0.9,-0.2 -1.8,-0.6 -1.2,-1.8z" fill="#cd0a1f"/>
   <path d="m174.5,98.1c0.2,1.5 1.3,1.3 2.3,1.3l63.5,0c5.6,0 11.1,-0.8 16.7,-1.1c3.5,-0.2 6.9,1.4 10.5,1.2c2.9,-0.2 5.4,-2 8.4,-1.3c0.7,0.1 1.7,-0.2 2,0.1c2.5,2.7 5.5,1.1 8.3,1.1c9,0 18,0.3 27,-0.1c4.9,-0.2 9.7,-1.5 14.7,-1.1c0.9,1 0.6,2.3 0.6,3.5l0,148.9c0,1.2 0.2,2.4 -0.6,3.5c-0.5,2 -2.1,1.1 -3.2,1.1c-14.2,0.1 -28.4,0 -42.5,0l-104.8,0c-6.4,0 -6.4,0 -6.4,-6.5c0,-48.6 0,-97.3 -0.1,-145.9c0,-2.8 0.7,-4.5 3.6,-4.7z" fill="#e20018"/>
   <path d="m328,253.9l0,-155.8c2,0.4 1.2,2.1 1.2,3.2c0.1,19 0,37.9 0,56.9l0,92.5c-0.1,1.1 0.7,2.7 -1.2,3.2z" fill="#cd0a1f"/>
   <path d="m299.2,115c8.1,8.4 10.6,18.7 9.4,30c-0.9,8.7 -4.2,16.6 -11,22.5c-1.6,1.4 -2.6,1.6 -3.9,-0.5c-4.2,-6.4 -10.6,-10.1 -17.4,-13.2c-4.2,-1.9 -4.3,-1.9 -3.2,-6.3c3.1,-12.9 -2.9,-26.3 -14.8,-32.6c-0.2,-0.1 -0.6,-0.1 -0.9,-0.1c-4.3,-1.8 -8.4,-4.1 -13,-5.3c-0.8,-0.2 -1.6,-0.6 -1.5,-1.6c0.1,-0.9 0.9,-1.2 1.7,-1.5c1,-0.3 2,-0.3 3,-0.3c8.7,0 17.4,-0.3 26,0.1c8,0.3 15.9,1.4 22.8,6c1.1,0.9 2.1,1.7 2.8,2.8z" fill="#fdfdfd"/>
   <path d="m246.5,244.3c3.4,-2 6.9,-3.9 10.2,-5.9c14.3,-8.7 26.9,-19.2 35.7,-33.7c3.8,-6.3 6.2,-13.1 6.7,-20.5c0,-0.7 -0.3,-1.6 0.5,-1.9c0.9,-0.4 1.4,0.5 1.9,1c4,4.3 6.8,9.3 7.8,15.2c2.3,13.5 -0.1,25.8 -10.1,35.9c-4.5,4.6 -10.3,7.1 -16.5,8.6c-11.2,2.6 -22.6,1.9 -33.9,2.4c-0.7,-0.1 -1.6,-0.1 -2.3,-1.1z" fill="#fcfcfc"/>
   <path d="m260.7,171.1c1.9,-3.2 2.9,-3.6 6,-2.1c4.2,2 8.1,4.3 10.7,8.3c4.8,7.4 2.6,14.3 -1.4,21.1c-5,8.4 -12.3,14.5 -20.2,20c-12.7,8.9 -26.8,14.8 -41.5,19.4c-6.3,1.9 -12.7,3.2 -19.3,4.1c-1.9,0.3 -2.5,-0.5 -2.5,-2.3c0,-7.9 0.1,-15.8 0,-23.6c0,-2.1 1,-3.1 2.8,-3.7c11.1,-3.7 21.6,-8.6 31.9,-14.2c1.7,-1 3.2,-2.4 5.2,-2.9c0.3,-0.2 0.6,-0.1 0.9,0c0,1.9 -1.6,2.4 -2.8,3.1c-10,5.7 -20.2,10.8 -31.1,14.6c-4.9,1.7 -4.9,1.8 -4.9,7.1l0,17.4c0,2.2 0.8,2.7 3,2.4c16.3,-2.9 31.9,-8.2 46.4,-16.2c10.4,-5.7 20.2,-12.2 27.5,-21.8c3.7,-4.9 7.2,-10.1 6.7,-16.8c-0.4,-5.7 -7.3,-13.4 -12.9,-14.3c-1.5,-0.2 -2.4,0.8 -3.7,1c-0.3,-0.2 -0.6,-0.3 -0.8,-0.6z" fill="#ef9da5"/>
   <path d="m251.3,134c3.2,2.5 4.9,10 3.1,13.4c-0.8,1.4 -2,1.1 -3.1,1c-5.9,-0.4 -11.7,-0.6 -17.6,-0.3c-12.8,0.7 -25.3,3.2 -37.6,6.6c-2.7,0.7 -3.4,0 -3.4,-2.6c0.1,-7.8 0.1,-15.6 0,-23.4c0,-2.4 0.9,-3.3 3.2,-3.8c13.2,-2.5 26.5,-3.8 39.7,-0.4c5.2,1.3 10.4,3 14.3,7c0.5,0.8 1.6,1.3 1.4,2.5c-1.3,0.8 -2.1,-0.2 -2.9,-0.9c-6.2,-5.4 -13.6,-7.1 -21.5,-7.9c-9.5,-1 -18.9,-0.3 -28.3,1.3c-3.6,0.6 -4,1 -4,4.6l0,17.7c0,3.3 0.8,3.9 4,3.1c4.7,-1.2 9.5,-2.3 14.3,-3.4c10.7,-2.4 21.6,-2.5 32.5,-2.3l1.8,0c5.7,0 6.9,-1.9 5,-7.6c-0.4,-1.3 -2,-2.7 -0.9,-4.6z" fill="#f2a9af"/>
   <path d="m299.2,115c-0.2,0 -0.4,0 -0.6,-0.1c-7.3,-6.1 -16.2,-7.5 -25.2,-7.7c-8.9,-0.2 -17.7,0 -26.6,0c-1.2,0 -2.4,0 -3.8,0.9c5.2,2 10.4,3.1 14.5,6.8c-3.4,0.9 -5.8,-1.9 -8.8,-2.7c-2.7,-0.7 -6.1,-0.5 -8.2,-3.3c-0.3,-0.4 -1.1,-0.4 -1,-1.2c0.1,-0.5 0.4,-1 0.9,-1c2.3,-0.1 4.2,-1.5 6.6,-1.5c7.4,0.2 14.8,0.2 22.1,0c8.6,-0.2 16.8,1.1 24.8,4.5c2.7,1.3 5.2,1.9 5.3,5.3z" fill="#cd0a1f"/>
   <path d="m203.3,172.5c8,-3.1 16.5,-4.7 24.9,-5.9c3.7,-0.5 7.5,-0.8 11.3,-1.1c0.6,-0.1 1.5,-0.3 1.9,0.5c0.4,0.7 0,1.3 -0.6,1.8c-5.5,4.2 -10.5,9.2 -17,12c-0.3,0.2 -0.5,0.2 -0.8,0c-0.1,-1.5 1.1,-2 2.1,-2.6c4.2,-2.7 8.2,-5.6 12.4,-9.1c-3.3,-0.5 -6.1,0.3 -8.9,0.6c-6.9,0.9 -13.8,1.7 -20.4,4.2c-1.4,0.6 -3,1.1 -4.7,0.5c-0.3,-0.3 -0.3,-0.6 -0.2,-0.9z" fill="#f1abb4"/>
   <path d="m203.3,172.5l0,0.6c-1.4,2 -3.8,2.5 -5.9,3.3c-2.1,0.8 -3,2 -3,4.2c0.1,2.6 0,5.2 0,7.8c0,2.1 1,2.7 2.9,2c7.6,-2.9 15.1,-6.1 22.3,-10.1c1,-0.6 1.9,-1.6 3.3,-0.8c0.3,0.1 0.6,0.1 0.9,0.2c-4.8,3.6 -10.3,5.9 -15.7,8.4c-4,1.8 -8.2,3.1 -12.2,4.8c-2.3,0.9 -3.4,0.5 -3.3,-2.2c0.1,-4 0.1,-8 0,-12c0,-1.3 0.1,-2.4 1.5,-3c3,-1.2 5.9,-2.8 9.2,-3.2z" fill="#eea2a8"/>
   <path d="m233.3,195.2c-0.3,0 -0.6,-0.1 -0.9,-0.1c3.5,-3.3 7.9,-5.4 11.6,-8.4c6,-4.8 11.3,-10.3 16.7,-15.6c0.1,0.1 0.2,0.2 0.4,0.3c0.1,2.4 -1.8,3.7 -3.1,5.1c-4.3,4.6 -9,8.6 -14,12.4c-2.6,2 -5.1,4 -8,5.7c-0.8,0.4 -1.5,1.4 -2.7,0.6z" fill="#e89299"/>
   <path d="m233.3,195.2c10.5,-6.5 20.2,-13.9 27.8,-23.8c2.4,-3.1 5,-1.8 7.6,-0.2c7.5,4.6 11.1,8.9 10.1,17.6c-0.6,5.1 -3.5,9.3 -6.5,13.2c-6.4,8.3 -14.7,14.4 -23.7,19.7c-7.5,4.5 -15.3,8 -23.3,11.2c-9.3,3.7 -19,5.8 -28.7,7.8c-2.1,0.4 -2.8,-0.3 -2.8,-2.5c0.1,-7.2 0.1,-14.4 0,-21.6c0,-1.9 0.7,-2.8 2.5,-3.5c12,-4.1 23.3,-9.5 34.3,-15.7c0.9,-0.6 1.8,-1.4 2.7,-2.2zm18,-61.2c1.2,3.5 3,6.9 2.4,10.9c-0.3,1.8 -0.7,2.4 -2.5,2.4c-4.7,-0.1 -9.4,-0.1 -14.1,-0.1c-12.8,-0.1 -25.3,2.2 -37.6,5.6l-0.9,0.3c-4.3,1 -4.9,0.5 -4.9,-3.8c0,-6.5 0.1,-13 0,-19.5c0,-2.3 0.5,-3.4 2.9,-3.8c9.7,-1.6 19.5,-2.6 29.4,-1.7c7.2,0.7 14.1,2.2 20.3,6c1.8,1.2 2.9,3.2 5,3.7z" fill="#fdfdfd"/>
   <path d="m222.9,179.5c-2.7,1.3 -5.5,2.5 -8.2,4.1c-5.5,3.3 -11.7,5.1 -17.6,7.7c-2.6,1.1 -3.4,0.4 -3.5,-2.3c0,-3.1 0.1,-6.2 0,-9.2c-0.1,-2.1 0.5,-3.2 2.8,-3.8c2.4,-0.6 4.6,-1.9 6.8,-2.8c4.8,-0.5 9,-2.9 13.8,-3.5c6,-0.8 12,-1.7 18,-2.5c1.2,-0.2 2.5,0 4.5,0c-5.3,5.1 -11.1,8.5 -16.6,12.3z" fill="#fbfdfc"/>
  </svg>