<svg  id="fndm-e5q9227ak5" viewBox="38.9999885559082 61.000938415527344 520 142.99905395507812" xlink="http://www.w3.org/1999/xlink" xmlns="http://www.w3.org/2000/svg">
   <defs xmlns="http://www.w3.org/2000/svg">
    <path d="m0.676,0.338l8.324,0l0,1.662l-8.324,0l0,-1.662z" id="fndm-3i2bzv7e8"/>
   </defs>
   <g xmlns="http://www.w3.org/2000/svg" fill-rule="evenodd" fill="none">
    <path d="m559,144.725c-6.462,-1.391 -12.648,-1.163 -18.366,2.64c-1.893,1.259 -2.827,2.574 -2.772,4.995c0.191,8.614 0.027,17.235 0.123,25.852c0.023,2.049 -0.499,2.862 -2.757,2.783c-5.915,-0.207 -5.158,0.615 -5.163,-4.949c-0.012,-12.2 0.03,-24.4 -0.064,-36.6c-0.018,-2.287 0.196,-3.81 3.124,-3.37c2.204,0.33 5.514,-1.157 4.868,3.247c-0.12,0.809 -0.017,1.65 -0.017,3.026c6.301,-4.545 12.558,-7.938 20.303,-5.344c0.958,1.148 -0.175,2.673 0.721,3.832l0,3.888z" fill="#040405"/>
    <g transform="translate(440 202)">
     <mask id="fndm-oldq5gez9x">
      <use xmlns:xlink="http://www.w3.org/1999/xlink" xlink:href="#fndm-3i2bzv7e8"/>
     </mask>
     <path mask="url(#fndm-oldq5gez9x)" d="m8.947,0.628l0.053,1.372l-8.308,0l-0.016,-1.303c2.752,-0.523 5.511,-0.41 8.271,-0.07" fill="#9CA59C"/>
    </g>
    <path d="m559,141c-1.8,-1.111 -0.528,-2.645 -0.971,-3.943c0.324,-0.018 0.647,-0.038 0.971,-0.057l0,4z" fill="#97968F"/>
    <path d="m415.82,181.966c-4.131,0.25 -8.235,-0.91 -12.35,-2.215c-2.51,-0.797 -3.593,-2.017 -3.459,-4.857c0.25,-5.297 0.066,-5.317 4.713,-2.835c5.598,2.99 11.436,4.26 17.675,2.482c2.71,-0.772 4.5,-2.351 4.569,-5.479c0.068,-3.2 -1.77,-4.759 -4.495,-5.46c-3.941,-1.011 -7.972,-1.684 -11.883,-2.793c-9.695,-2.748 -13.355,-11.887 -7.87,-19.463c2.123,-2.93 5.202,-4.457 8.575,-5.395c6.924,-1.925 13.607,-0.707 20.185,1.69c1.244,0.454 1.912,1.224 1.808,2.663c-0.101,1.398 -0.079,2.813 -0.008,4.215c0.12,2.348 -0.784,2.228 -2.422,1.231c-4.9,-2.984 -10.161,-4.514 -15.95,-3.705c-1.403,0.196 -2.728,0.606 -3.935,1.333c-3.651,2.197 -3.6,7.075 0.107,9.186c2.568,1.462 5.49,1.76 8.297,2.415c1.873,0.438 3.793,0.694 5.643,1.208c6.526,1.814 9.707,5.403 9.967,11.1c0.263,5.755 -3.347,10.95 -9.151,13.122c-3.152,1.18 -6.418,1.7 -10.016,1.557" fill="#030304"/>
    <path d="m243.362,142.092c4.546,-3.557 9.337,-6.336 15.286,-5.92c1.432,0.1 3.6,-0.356 4.006,1.196c0.55,2.103 0.352,4.49 0.046,6.695c-0.166,1.194 -1.417,0.352 -2.174,0.22c-5.41,-0.95 -10.416,-0.063 -15.04,3.038c-1.833,1.23 -2.778,2.516 -2.726,4.95c0.185,8.592 -0.077,17.192 0.108,25.785c0.095,4.408 -2.985,2.452 -4.885,2.82c-2.106,0.409 -2.981,-0.367 -2.961,-2.745c0.11,-13.011 0.117,-26.025 -0.021,-39.036c-0.027,-2.552 0.84,-3.3 3.146,-2.94c0.315,0.05 0.655,0.068 0.963,0.004c3.219,-0.67 4.222,0.803 3.747,3.807c-0.093,0.593 -0.337,1.268 0.505,2.126" fill="#040405"/>
    <path d="m85.042,118.34c0.235,-2.107 0.349,-4.215 0.04,-6.325c-0.426,-0.842 -0.934,-1.675 -0.296,-2.634c0.177,-9.97 1.688,-19.973 -0.786,-29.874c0.41,-1.558 1.816,-1.462 2.899,-1.439c7.953,0.171 15.912,0.087 23.865,0.166c4.773,0.048 9.581,-0.27 14.375,-0.23c1.683,0.164 3.28,0.71 4.898,1.157c0.679,0.225 1.381,0.418 1.776,1.095c8.62,3.77 10.846,10.782 10.03,19.336c-0.824,1.196 0.42,2.89 -0.979,3.947c-0.824,2.126 -1.762,4.19 -3.315,5.917c-1.591,2.71 -3.76,3.3 -6.78,2.28c-2.541,-0.858 -5.422,0.38 -8.002,-0.846a2.103,2.103 0 0 1 -0.5,-0.875c-0.281,-1.573 0.374,-3.017 0.629,-4.518c0.34,-0.992 0.39,-2.015 0.333,-3.051c-0.068,-2.376 0.023,-4.747 -0.455,-7.109c-1.085,-5.355 -3.776,-8.148 -9.137,-9.302a17.044,17.044 0 0 0 -1.943,-0.307c-7.486,-0.725 -8.29,-0.01 -8.285,7.413c0.004,6.702 -0.027,13.404 -0.02,20.108c0.021,1.331 -0.016,2.658 -0.29,3.967c-0.74,2.764 -0.24,5.586 -0.385,8.377c-0.077,1.495 0.17,3.048 -0.836,4.36c-2.88,2.052 -6.089,0.102 -9.102,0.696c-0.696,0.138 -1.34,-0.78 -1.705,0.931c-0.423,1.98 -3.009,0.867 -4.565,1.42c-0.957,-0.238 -1.363,-0.98 -1.694,-1.794c-0.48,-3.02 -0.483,-6.06 -0.36,-9.104c0.04,-1.278 -0.03,-2.574 0.59,-3.762" fill="#030303"/>
    <path d="m123.124,111.233c3.546,0.27 7.144,-0.565 10.646,0.927c1.804,0.769 2.177,-2.092 3.85,-2.16c-0.689,1.303 -1.389,2.162 1.01,2.817c4.473,1.222 9.255,2.152 12.334,6.273c3.068,3.977 2.048,8.287 0.938,12.567c-0.206,0.795 -0.52,1.616 -0.936,2.362c-0.99,2.171 -2.594,3.82 -4.438,5.268c-1.3,0.218 -2.15,-1.459 -3.558,-0.84c1.17,0.28 2.995,-0.119 2.218,2.155l0.017,-0.02c-1.093,0.319 -1.65,1.625 -3.113,1.39c-3.67,-0.592 -3.868,-1.216 -1.442,-5.498c-2.355,-0.298 -3.896,-1.7 -4.995,-3.71a3.372,3.372 0 0 1 -0.158,-0.906c1.572,-3.156 0.793,-6.074 -0.907,-8.894c-0.482,-1.937 -2.527,-2.213 -3.659,-3.457c-0.552,-0.512 -1.065,-1.135 -1.823,-1.288c-1.73,-0.35 -3.113,-0.711 -2.583,-3.138c0.583,-2.676 -1.85,-2.449 -3.384,-3.01c-0.187,-0.276 -0.184,-0.555 -0.017,-0.838" fill="#0B0706"/>
    <path d="m134.909,148.038l-1.818,0.716c-3.024,1.938 -6.398,2.643 -9.86,3.091c-0.963,0.124 -1.896,0.32 -2.81,-0.104c-1.756,-0.815 -1.89,-2.175 -0.371,-3.467c1.33,-1.132 3.033,-1.566 4.481,-2.572c-0.945,0.393 -1.882,1.413 -2.65,-0.178c0.455,-2.572 2.68,-2.886 4.453,-3.779c0.82,-0.027 1.657,0.037 2.33,-0.628c1.984,-1.96 3.232,-1.199 4.093,1.175c0.302,0.831 0.843,1.484 1.792,1.577c1.04,0.348 1.947,0.193 2.9,-0.447c0.936,-0.628 1.96,-0.701 2.551,0.633l-1.965,1.928c-0.778,1.12 -1.935,1.615 -3.126,2.055" fill="#2A2014"/>
    <path d="m139.61,143.112c-2.03,-1.429 -3.535,1.807 -5.537,0.621c-1.023,-1.938 -2.377,-3.7 -3.073,-5.812c0.147,-0.23 0.338,-0.417 0.566,-0.565c0.85,-0.139 1.62,-0.839 2.537,-0.4c0.13,0.083 0.21,0.136 0.216,0.145c-0.128,-0.043 -0.208,-0.151 -0.328,-0.238c-0.55,-0.432 -0.863,-0.974 -0.927,-1.657c0.025,-1.043 0.52,-1.878 1.164,-2.648c0.304,-0.312 0.657,-0.527 1.103,-0.558c1.59,1.246 2.67,3.38 5.49,2.903l-2.363,4.248c1.827,0.487 3.617,1.615 5.542,0.304c-1.345,1.362 -2.307,3.185 -4.39,3.657" fill="#1B100B"/>
    <path d="m68.157,126.184c5.105,-2.924 10.675,-4.837 16.146,-6.965c0.841,-0.415 1.484,-0.27 1.631,0.7c0.18,1.18 0.058,2.356 -1.24,2.909c-1.658,0.705 -3.309,1.417 -4.891,2.261a5.06,5.06 0 0 1 -0.872,0.356c-1.78,0.186 -3.17,1.547 -4.998,1.59c-1.426,-0.646 -1.11,1.333 -2.11,1.334c-0.586,0.393 -1.19,0.735 -1.949,0.602a1.524,1.524 0 0 1 -0.678,-0.448c-0.336,-0.781 -1.642,-1.163 -1.04,-2.339" fill="#FAF0EA"/>
    <path d="m123.205,145.145c1.013,1.54 2.181,-0.738 3.392,0.213c-1.78,1.864 -4.419,2.49 -6.337,4.096c0.502,1.355 1.776,1.974 2.924,1.507c3.366,-1.368 7.402,-0.009 10.488,-2.395c0.273,-0.212 0.877,-0.046 1.328,-0.055l-5.063,3.067l0.014,0.01l-2.743,0.724c-1.533,1.036 -3.494,-0.76 -4.965,0.68a1.409,1.409 0 0 1 -0.286,0.737a2.034,2.034 0 0 1 -0.837,0.253c-3.234,0.226 -3.339,-1.666 -2.977,-3.88c0.005,-0.683 -0.063,-1.364 -0.138,-2.048a2.04,2.04 0 0 1 0.232,-0.84c1.472,-1.081 2.688,-2.71 4.968,-2.069" fill="#332618"/>
    <path d="m88.158,164.076c-1.398,0.492 -2.809,0.911 -4.337,0.68c-5.536,0.485 -11.086,0.074 -16.624,0.21c-1.428,-0.063 -1.269,-0.932 -1.066,-1.825c0.12,-0.297 0.302,-0.565 0.533,-0.8c0.748,-0.523 1.518,-0.218 2.286,-0.049c0.686,0.197 1.33,0.498 2,0.74c0.882,0.34 1.8,0.399 2.74,0.288c0.528,-0.073 1.056,-0.158 1.592,-0.149c0.964,0.196 1.773,-0.211 2.591,-0.586c0.904,-0.162 1.837,0.05 2.737,-0.192c1.202,0.02 2.43,0.31 3.57,-0.313c0.273,-0.074 0.551,-0.096 0.834,-0.068c1.165,0.868 3.25,-0.883 3.986,1.214c-0.053,0.48 -0.54,0.585 -0.842,0.85" fill="#FCECEF"/>
    <path d="m110,158.832c-1.685,1.23 -3.594,1.722 -5.519,2.168c-1.078,-0.433 -2.165,-0.1 -3.25,-0.047c-0.584,0.01 -1.089,-0.222 -1.531,-0.646c-0.591,-0.64 -1.34,-1.116 -1.695,-2.016c-0.068,-0.92 0.53,-1.412 0.993,-1.993a2.984,2.984 0 0 1 1.079,-0.762c0.826,-0.266 1.646,-0.578 2.525,-0.531c0.29,0.069 0.543,0.219 0.762,0.443c0.667,1.893 1.937,2.413 3.642,2.243c1.088,-0.108 2.455,-0.766 2.994,1.14" fill="#E3C16B"/>
    <path d="m51.295,138.191c1.539,-1.954 3.251,-3.709 5.2,-5.191c1.488,0.145 2.094,1.237 2.442,2.61a2.71,2.71 0 0 1 -0.082,1.463c-0.21,0.443 -0.522,0.788 -0.906,1.06c-1.74,0.707 -2.815,2.723 -4.852,2.867c-0.602,-0.058 -1.124,-0.33 -1.611,-0.696a1.706,1.706 0 0 1 -0.486,-0.762c-0.008,-0.476 0.164,-0.908 0.295,-1.35" fill="#D8AC4F"/>
    <path d="m151.314,133c0.648,-1.876 0.275,-3.94 1.048,-5.825c0.308,-0.752 0.42,-1.854 -0.365,-2.533c-1.13,-0.978 -1.666,-1.687 0.412,-1.823c0.135,-0.009 0.26,-0.173 0.39,-0.264c-0.198,-0.177 -0.503,-0.315 -0.578,-0.538c-0.34,-0.992 -0.613,-2.009 -0.91,-3.017c2.93,1.701 3.267,6.641 1.964,10.368c-0.454,1.296 -0.933,2.645 -1.961,3.632" fill="#21100A"/>
    <path d="m45.085,152.09c-0.27,-1.783 0.133,-3.45 0.8,-5.07c0.628,-0.117 0.873,0.293 1.032,0.821c0.033,0.602 -0.195,1.202 -0.016,1.807c1.327,-2.647 4.001,-2.339 5.962,0.683c0.188,0.875 0.329,1.74 -0.613,2.278c-0.864,0.412 -1.856,0.398 -2.698,0.893c-1.999,1.306 -3.18,-0.235 -4.467,-1.412" fill="#DBB14F"/>
    <path d="m46.817,156.971l-0.485,-0.727c-0.489,-0.547 -0.313,-1.183 -0.244,-1.803c1.17,-0.999 1.991,-0.068 2.878,0.51c0.46,0.347 0.922,0.694 1.373,1.051c0.499,0.475 1.075,0.784 1.787,0.794c0.28,-0.006 0.555,0.004 0.832,0.009c0.875,0.04 1.728,-0.19 2.602,-0.189c0.32,0.063 0.588,0.213 0.814,0.446c0.553,0.862 1.006,1.73 0.15,2.669c-1.814,0.705 -3.57,-0.201 -5.36,-0.184c-0.81,-0.101 -1.451,-0.67 -2.254,-0.798c-0.962,-0.283 -1.355,-1.232 -2.093,-1.778" fill="#E2D0AE"/>
    <path d="m67,162.726l-0.626,1.822c-1.282,0.67 -2.59,0.494 -3.903,0.122l-0.026,-0.003c-0.983,-0.86 -2.29,0.02 -3.313,-0.628c-1.14,0.087 -2.259,0.095 -3.132,-0.837c0.015,-1.641 1.63,-1.305 2.413,-1.995c0.758,0.632 1.46,-0.592 2.218,-0.077c1.392,2.258 3.447,0.827 5.225,0.948a1.76,1.76 0 0 1 1.144,0.648" fill="#FBEBE3"/>
    <path d="m48.968,156.812c-0.912,-0.514 -1.475,-1.694 -2.665,-1.678c-0.525,-0.37 -0.902,-0.903 -1.299,-1.416l-0.004,-1.428c1.502,-0.89 2.257,2.696 3.93,0.788c0.941,-0.013 1.899,0.04 2.668,-0.73c0.769,-0.478 0.068,-0.973 0.013,-1.461c1.212,-1.647 1.824,-0.744 2.322,0.652c0.082,2.398 0.58,5.222 -3.165,3.78c-0.182,-0.07 -0.387,-0.354 -0.544,0.04c0.205,0.063 0.355,0.237 0.328,0.51c-0.114,1.124 -0.697,1.35 -1.584,0.944" fill="#DCC36A"/>
    <path d="m109.035,157.976c-1.684,-1.104 -3.532,0.15 -5.388,-0.29c-1.785,-0.424 -1.868,-1.016 -1.415,-2.163c0.535,-0.831 1.54,-1.09 2.478,-1.434c0.56,-0.127 1.113,-0.137 1.642,0.095c0.731,0.504 0,0.966 -0.05,1.447c1.134,1.352 3.135,0.38 4.463,1.178c0.165,0.114 0.243,0.245 0.234,0.392c-0.008,0.153 -0.033,0.229 -0.076,0.229c-0.565,0.34 -1.136,0.661 -1.888,0.546" fill="#C1A151"/>
    <path d="m120.243,153.343l0.653,-0.001c0.723,-0.434 1.429,-0.501 2.104,0.07c-2.004,1.057 -4.201,1.687 -6.504,2.087c-0.99,0.398 -2.054,0.476 -3.129,0.501a2.314,2.314 0 0 1 -0.971,-0.344c-0.455,-0.509 -0.503,-1.057 -0.22,-1.634c1.473,-1.2 3.378,-0.977 5.051,-0.742c1.052,0.147 2.022,-0.068 3.016,0.063" fill="#644D27"/>
    <path d="m49.799,159.06c2.092,-0.266 4.06,0.43 6.098,0.58c1.09,-0.098 1.083,0.553 1.103,1.187c-0.2,0.673 -0.778,0.974 -1.505,1.128c-0.994,0.198 -1.991,-0.337 -2.988,0.007c-1.662,0.19 -2.31,-1.17 -3.507,-1.692c0.634,-0.224 1.22,-0.472 0.799,-1.21" fill="#F7DAAF"/>
    <path d="m59.716,131.679l0.695,-0.366c1.24,-0.253 2.496,-0.676 3.638,0.293c0.358,0.39 0.624,0.83 0.81,1.32c0.162,0.53 0.183,1.063 0.071,1.604c-0.466,1.323 -1.331,2.22 -2.8,2.47a3.563,3.563 0 0 1 -2.583,-1.08c-0.33,-0.483 -0.428,-1.035 -0.499,-1.595c-0.172,-0.976 0.134,-1.838 0.668,-2.646" fill="#E1CAA9"/>
    <path d="m62,164.13l3.83,-0.13l17.17,0.175c-7.002,1.044 -14.002,1.17 -21,-0.044" fill="#F8DFD1"/>
    <path d="m47.19,144.274l0.526,-0.916c0.367,-0.287 0.774,-0.334 1.188,-0.358c0.689,0.151 1.342,0.417 1.877,1.046c0.233,0.483 0.272,1.001 0.155,1.546c-0.299,0.796 -0.747,1.46 -1.112,2.203c-2.512,1.871 -2.813,1.709 -2.824,-1.522c0.182,-0.645 -0.021,-1.357 0.19,-1.999" fill="#BBA154"/>
    <path d="m79,125.641c1.273,-1.537 3.113,-1.953 4.837,-2.671c1.905,-0.794 2.672,-1.964 0.228,-3.223a501.91,501.91 0 0 0 1.675,-0.747a7.684,7.684 0 0 1 -0.158,4.486c-1.887,1.693 -3.822,3.235 -6.582,2.155" fill="#F7E1D9"/>
    <path d="m145.397,140c-0.289,-1.183 -0.811,-2.117 -2.347,-1.08c-0.45,0.305 -0.594,1.114 -1.324,0.479c-0.405,-0.353 -0.695,-0.948 -0.725,-1.449c-0.04,-0.655 0.752,-0.939 1.325,-0.948c1.794,-0.029 3.475,0.324 4.674,1.639l-1.603,1.359z" fill="#1B100B"/>
    <path d="m63.006,129.028c0.776,-0.546 1.458,-1.338 2.647,-0.8c1.415,-0.524 2.5,-0.12 3.347,0.948l-0.018,-0.005c0.107,1.577 -1.29,1.566 -2.427,1.829a3.081,3.081 0 0 1 -0.958,-0.191c-0.505,-1 -2.727,-0.032 -2.591,-1.781" fill="#F9E6E1"/>
    <path d="m62.278,131.866c-0.58,-1.003 -1.657,0.155 -2.278,-0.67c0.793,-0.974 1.707,-1.75 2.822,-2.196c0.515,0.733 1.858,1.149 0.754,2.506c-0.377,0.37 -0.77,0.681 -1.298,0.36" fill="#F1D4AC"/>
    <path d="m58.937,132l0.063,2.204c-0.487,0.461 0.035,1.352 -0.491,1.796a2331.87,2331.87 0 0 0 -1.509,-2.287c0.53,-0.774 1.132,-1.421 1.937,-1.713" fill="#D6C68B"/>
    <path d="m120.74,152.865c0.074,-0.273 -1.75,-0.616 0.07,-0.821c1.794,-0.202 3.44,0.36 5.19,0.392c-0.395,0.46 -1.144,0.39 -1.809,0.444c-1.154,0.285 -2.3,-0.028 -3.452,-0.015" fill="#4F2635"/>
    <path d="m101.104,160.41c1.055,-0.419 2.114,-0.871 2.896,0.599l-3.275,0.89c-0.362,0.172 -0.707,0.176 -0.724,-0.401c-0.026,-0.878 0.817,-0.6 1.103,-1.089" fill="#FBF0A9"/>
    <path d="m89,164l0.711,-0.629c1.57,-1.679 3.727,-1.385 5.83,-1.29c0.384,0.059 0.74,0.179 1.074,0.352c0.13,0.122 0.257,0.246 0.385,0.37a31.388,31.388 0 0 1 -8,1.197" fill="#FBE3D7"/>
    <path d="m98.81,161.434l-2.49,0.566l-0.114,-0.056c-0.478,-0.776 -0.053,-1.277 0.55,-1.726c0.688,-0.3 1.363,-0.312 2.015,0.098c0.291,0.363 0.305,0.736 0.04,1.118" fill="#FCE4C0"/>
    <path d="m55.66,162.1c0.549,-0.02 1.056,-0.127 1.35,-0.673c0.911,-0.475 1.802,-0.89 1.99,0.71c-0.591,1.083 -2.202,0.654 -2.71,1.863l-1.28,-0.432c-0.072,-0.62 0.233,-1.069 0.65,-1.468" fill="#F8E4B2"/>
    <path d="m68.895,128l-2.895,-0.755c0.009,-0.824 0.816,-0.994 1.523,-1.245c0.074,0.842 1.931,0.865 1.372,2" fill="#FBF5C2"/>
    <path d="m63.677,131.699c0.954,-1.082 -0.814,-1.48 -0.668,-2.357c0.081,-0.216 0.243,-0.33 0.486,-0.342c0.432,0.576 0.906,0.685 1.673,0.44c1.303,-0.414 0.706,0.476 0.627,0.975c0.03,1.508 -0.666,1.95 -2.118,1.284" fill="#FAE0BD"/>
    <path d="m49.301,143l-1.301,-0.076l0.447,-0.615c1.246,-0.582 1.534,-2.447 3.324,-2.3l0.006,0.007c0.734,2.194 -0.41,2.944 -2.476,2.984" fill="#D6AC4C"/>
    <path d="m51,140.516c-1.194,0.518 -1.635,2.24 -3,2.484c0.582,-1.722 1.734,-2.888 2.943,-4l0.057,1.516" fill="#C0A052"/>
    <path d="m46.475,144l0.525,0.955c-0.883,0.423 -0.253,1.916 -1.554,2.045l-0.446,-0.496c0.33,-0.924 0.736,-1.805 1.475,-2.504" fill="#D6A249"/>
    <path d="m46,157l2.095,0.917c0.502,0.277 1.325,0.458 0.65,1.083c-1.307,-0.403 -2.245,-1.053 -2.745,-2" fill="#F5C3A9"/>
    <path d="m99.318,161.975l-0.038,-0.908c-0.333,-0.28 -0.346,-0.597 -0.159,-0.94c0.237,-0.177 0.47,-0.165 0.7,0.01l1.17,0.456c0.134,0.413 -1.39,0.408 -0.383,1.04c-0.344,0.335 -0.787,0.416 -1.29,0.342" fill="#FCE1A8"/>
    <path d="m112.155,157a11.999,11.999 0 0 0 -0.013,-0.32c-0.196,-0.193 -0.184,-0.383 0.007,-0.573c0.398,-0.154 0.826,-0.094 1.245,-0.101c0.543,0.038 1.132,-0.118 1.606,0.222a5.194,5.194 0 0 1 -2.845,0.771" fill="#B89D58"/>
    <path d="m54,162.013c0.01,0.399 -0.121,0.74 -0.487,0.987l-1.513,-0.537c0.521,-0.68 1.308,-0.392 2,-0.45" fill="#FCEAD7"/>
    <path d="m48.553,160.491l-0.553,-1.491l1.794,0.64c0.415,0.865 0.21,1.333 -0.68,1.36l-0.56,-0.509" fill="#F2E7B7"/>
    <path d="m121,153.382c1.006,-0.807 2,-0.103 3,0.02l-1.083,0.598l-1.916,-0.073l-0.001,-0.545" fill="#5A391D"/>
    <path d="m45,153c0.58,0.093 0.974,0.404 0.99,1.16l0.01,1.84a4.863,4.863 0 0 1 -1,-3" fill="#E9C092"/>
    <path d="m114.813,157l-1.63,-0.093c-0.168,-0.203 -0.22,-0.394 -0.157,-0.574c0.062,-0.175 0.122,-0.262 0.183,-0.262l2.791,-0.071c-0.279,0.77 -0.702,1.002 -1.187,1" fill="#93703F"/>
    <path d="m56,129.555c-0.171,0.13 -0.388,0.35 -0.639,0.444c-0.067,0.025 -0.238,-0.337 -0.361,-0.521c0.19,-0.143 0.368,-0.312 0.57,-0.424c0.268,-0.148 0.407,0.003 0.43,0.501" fill="#E40D35"/>
    <path d="m59,164.15c1.03,0.048 2.162,-0.731 3,0.85c-1.033,-0.014 -2.076,0.04 -3,-0.85" fill="#F8DFD1"/>
    <path d="m213.48,173.533c-4.573,1.547 -9.343,1.255 -14.07,1.257c-7.219,0.004 -7.219,0.002 -7.219,-7.213l0,-3.573c0,-0.216 -0.012,-0.433 0.002,-0.65c0.214,-3.303 -1.419,-7.67 0.66,-9.634c2.065,-1.95 6.36,-0.509 9.675,-0.557c2.902,-0.042 5.82,-0.007 8.709,0.242c5.191,0.447 8.526,3.502 9.095,8.07c0.753,6.05 -1.59,10.277 -6.853,12.058m-20.977,-43.659c5.266,-0.64 10.536,-0.05 15.805,-0.067c3.225,-0.051 5.71,1.154 6.731,4.398c1.135,3.607 -0.148,7.763 -2.826,9.671c-1.622,1.157 -3.459,1.838 -5.428,1.89c-4.203,0.113 -8.41,0.057 -12.613,0.152c-1.333,0.03 -2.045,-0.332 -1.984,-1.79c0.199,-4.75 -0.38,-9.515 0.315,-14.254m24.016,17.849c0.626,-0.519 0.933,-0.791 1.258,-1.04c5.621,-4.292 7.371,-9.315 5.43,-15.596c-1.535,-4.964 -6.385,-8.09 -12.864,-8.632c-7.856,-0.655 -15.718,-0.3 -23.577,-0.452c-1.74,-0.034 -2.775,0.153 -2.765,2.388c0.081,18.422 0.062,36.844 0.033,55.265c-0.002,1.545 0.257,2.385 2.094,2.342c8.719,-0.2 17.457,0.273 26.154,-0.614c8.916,-0.91 15.5,-7.33 16.557,-15.947c1.045,-8.525 -2.951,-14.416 -12.32,-17.714" fill="#030304"/>
    <path d="m214,173l-14,0.984c4.704,-0.002 9.45,0.226 14,-0.984" fill="#030304"/>
    <path d="m208,129.654c-5.33,0.742 -10.667,0.06 -16,0.061c1.922,-1.186 4.093,-0.546 6.116,-0.517c3.292,0.046 6.648,-0.623 9.884,0.456" fill="#FCF3F8"/>
    <path d="m472.412,163.06c-1.729,10.824 -12.323,15.634 -22.237,10.183c-0.94,-0.516 -1.178,-1.116 -1.179,-2.045c0,-7.366 0.012,-14.734 -0.054,-22.1c-0.012,-1.294 0.618,-2.036 1.592,-2.598c1.412,-0.815 2.827,-1.651 4.321,-2.294c9.68,-4.162 16.8,0.049 17.672,10.433c0.099,1.18 0.013,2.375 0.013,3.563l0.25,0.004c-0.12,1.619 -0.122,3.256 -0.378,4.854m7.642,-13.034c-3.03,-13.467 -13.98,-18.684 -26.322,-12.346c-1.506,0.772 -2.934,1.692 -4.791,2.771c0.992,-4.268 -1.401,-4.407 -4.181,-4.102c-0.322,0.036 -0.66,0.025 -0.98,-0.028c-2.148,-0.353 -2.791,0.516 -2.78,2.663c0.106,21.108 0.114,42.216 0.148,63.324c2.622,0.872 5.237,0.995 7.842,-0.067l0,-22.9c1.1,0.498 1.672,0.79 2.268,1.024c12.406,4.902 24.096,-0.156 28.174,-12.401c1.95,-5.854 1.99,-11.853 0.622,-17.938m-139.978,7.88l0.026,0c0,2.705 -0.293,5.449 0.07,8.103c0.498,3.63 -1.086,5.609 -4.194,7.014c-1.987,0.898 -3.927,1.791 -6.115,2.109c-6.707,0.973 -11.051,-1.666 -12.717,-8.155c-1.167,-4.549 -1.24,-9.235 -0.167,-13.827c1.748,-7.483 6.747,-10.976 14.586,-10.342c1.402,0.113 2.792,0.435 4.176,0.713c3.08,0.616 5.064,1.831 4.429,5.639c-0.474,2.842 -0.094,5.825 -0.094,8.746m7.891,-36.572c0.005,-1.68 -0.409,-2.442 -2.186,-2.26c-0.969,0.1 -1.966,0.06 -2.937,-0.036c-2.034,-0.204 -2.895,0.382 -2.785,2.672c0.208,4.324 -0.1,8.671 0.085,12.996c0.116,2.721 -0.062,3.631 -3.212,2.364c-11.787,-4.744 -23.528,0.815 -27.393,12.852c-2.14,6.67 -1.984,13.498 0.071,20.14c3.761,12.16 15.654,16.468 26.608,9.82c1.18,-0.718 2.325,-1.492 4.176,-2.683c-1.716,5.423 1.705,4.34 4.354,4.559c2.361,0.195 3.264,-0.429 3.252,-2.948c-0.093,-19.158 -0.08,-38.318 -0.033,-57.476m166.17,49.792c-3.733,3.029 -8.017,4.664 -12.833,4.478c-4.589,-0.178 -7.497,-2.295 -8.02,-5.672c-0.756,-4.883 1.26,-8.234 6.054,-9.803c4.538,-1.485 9.296,-1.524 13.982,-2.015c1.385,-0.144 1.945,0.434 1.862,1.878c-0.09,1.535 -0.02,3.079 -0.02,4.876c-0.524,1.896 1.151,4.493 -1.025,6.258m8.812,-6.708l0.012,0c0,-4.739 0.1,-9.48 -0.02,-14.216c-0.217,-8.43 -4.43,-13.232 -12.504,-14.62c-5.599,-0.964 -11.138,-0.685 -16.664,0.504c-6.019,1.295 -4.602,0.604 -4.874,5.949c-0.149,2.926 0.64,3.308 3.242,2.378c5.423,-1.94 11.01,-2.99 16.788,-1.722c2.948,0.646 5.136,2.133 5.95,5.308c0.59,2.292 0.495,3.846 -2.517,3.692c-2.022,-0.103 -4.078,0.212 -6.101,0.472c-5.106,0.658 -10.268,1.063 -14.83,3.956c-5.256,3.332 -7.444,8.95 -5.992,15.745c1.234,5.775 5.947,10.276 11.53,10.946c5.765,0.691 11.096,-0.478 15.907,-3.929c0.6,-0.43 2.146,-1.893 2.074,-0.395c-0.227,4.713 2.864,3.21 5.14,3.473c2.268,0.262 2.975,-0.707 2.905,-3.003c-0.148,-4.842 -0.046,-9.691 -0.046,-14.538m-234.347,9.935c-2.86,1.13 -5.851,1.408 -8.892,1.01c-3.124,-0.408 -5.547,-1.776 -6.357,-5.143c-0.9,-3.742 0.287,-6.822 3.374,-8.822c3.306,-2.144 7.112,-2.328 10.839,-2.807c0.425,-0.055 0.86,-0.027 1.29,-0.053c6.338,-0.384 6.338,-0.384 6.337,6.026c-0.002,6.528 -0.566,7.41 -6.59,9.79m14.32,3.914c0.034,-9.36 0.032,-18.719 0.013,-28.078c-0.017,-7.991 -4.106,-13.036 -11.816,-14.499c-5.688,-1.079 -11.355,-0.835 -17.034,0.319c-6.303,1.28 -4.75,0.795 -5.048,6.1c-0.178,3.157 0.924,3.03 3.312,2.206c5.457,-1.884 11.055,-2.897 16.849,-1.607c3.023,0.673 5.104,2.42 5.852,5.454c0.46,1.867 0.48,3.321 -2.461,3.518c-6.739,0.452 -13.62,0.546 -19.914,3.659c-5.991,2.963 -8.579,8.592 -7.396,16.014c0.958,6.018 6.044,10.813 12.154,11.495c6.426,0.716 12.123,-1.108 17.4,-5.482c0.2,0.637 0.343,0.852 0.319,1.046c-0.618,4.986 3.06,3.12 5.327,3.474c3.21,0.502 2.436,-1.916 2.443,-3.62m81.802,-24.273c-3.344,-0.191 -6.707,-0.047 -10.062,-0.047l0,-0.016c-3.571,0 -7.144,-0.045 -10.715,0.021c-1.52,0.028 -1.772,-0.543 -1.543,-1.98c0.915,-5.74 6.26,-10.15 12.603,-10.262c7.08,-0.126 10.621,2.71 11.976,9.352c0.432,2.116 0.187,3.073 -2.26,2.932m-13.86,-18.44c-10.922,2.003 -17.407,11.933 -16.828,24.44c0.583,12.611 6.296,20.205 17.197,22.377c6.052,1.206 12.066,0.649 17.95,-1.417c5.15,-1.808 5.181,-1.715 4.915,-7.4c-0.015,-0.328 -0.079,-0.66 -0.051,-0.984c0.165,-1.942 -0.483,-2.118 -2.007,-1.111c-3.784,2.5 -7.985,3.905 -12.448,4.479c-9.12,1.17 -16.352,-4.448 -17.397,-13.259c-0.263,-2.22 0.429,-2.62 2.393,-2.568c4.559,0.122 9.122,0.039 13.683,0.037c4.777,-0.002 9.555,0.006 14.333,-0.01c1.068,-0.003 2.203,0.159 2.311,-1.531c1.016,-15.854 -7.1,-26.163 -24.05,-23.054" fill="#030304"/>
    <path d="m86,134.79l0.016,-2.79l1.275,1.387c1.267,-0.922 2.711,-0.016 4.045,-0.46c0.881,-0.293 1.812,-0.09 2.023,1.04c0.261,1.394 -1.25,0.794 -1.73,1.515c2.041,-0.514 2.707,-4.002 5.452,-2.746c0.987,0.51 2.108,0.798 2.73,1.904c0.086,0.327 0.058,0.649 -0.076,0.957c-0.4,0.42 -0.93,0.497 -1.446,0.607c0.879,0.006 1.785,0.122 2.451,-0.713c0.28,-0.387 0.59,-0.733 1.027,-0.921a0.976,0.976 0 0 1 0.806,0.402c0.496,0.944 0.485,1.953 0.34,2.978a3.162,3.162 0 0 1 -0.358,0.906c-1.703,1.123 -3.761,0.276 -5.514,1.144c-0.922,0.015 -1.643,-0.635 -2.494,-0.857c-2.253,0.005 -4.554,-1.345 -6.745,0.506c-0.533,0.45 -1.165,-0.207 -1.438,-0.912c-0.235,-1.304 0.333,-2.692 -0.364,-3.946" fill="#231411"/>
    <path d="m97.211,133.732c-1.437,-0.727 -2.762,0.39 -3.332,1.231c-1.053,1.554 -2.159,0.872 -3.33,0.972c0.37,-1.295 1.89,-0.083 2.252,-1.8c-1.872,-0.818 -3.882,-0.214 -5.801,-0.406c0.775,-2.543 3.37,0.65 4.275,-1.883l-1.924,-0.91l0.058,-0.936l12.533,0.672c0.969,0.397 1.263,1.146 0.921,2.224c-1.753,1.386 -3.75,0.7 -5.652,0.836" fill="#0D0A09"/>
    <path d="m122.894,110.887l0.768,-0.887l0.146,0.93l-0.015,0.71c2.555,0.884 2.834,1.745 1.135,3.592c-0.625,0.679 -1.401,1.162 -2.212,1.581c-0.458,0.196 -0.928,0.253 -1.41,0.097c-0.703,-0.654 -0.614,-1.764 -1.332,-2.41c-2.36,-2.963 0.09,-2.731 1.866,-2.947c0.392,-0.152 0.849,-0.199 1.054,-0.666" fill="#372517"/>
    <path d="m101.558,132.734l-0.558,-1.922c1.13,-2.623 0.335,-5.439 0.59,-8.148c0.145,-1.554 -0.4,-3.187 0.387,-4.664c0.131,0.118 0.262,0.235 0.394,0.351c0.292,0.497 0.408,1.064 0.477,1.65c-0.07,5.851 0.584,11.726 -0.383,17.552c-0.195,0.388 -0.477,0.523 -0.847,0.406l-0.076,-3.288c-0.404,-0.65 -0.442,-1.296 0.016,-1.937" fill="#51151C"/>
    <path d="m102.274,113.084l2.718,-0.084a6.99,6.99 0 0 1 0.992,2.114c0.055,0.508 -0.025,0.976 -0.312,1.382c-0.483,0.411 -1.027,0.485 -1.602,0.379c-0.616,-0.648 -1.211,-0.565 -1.788,0.08l-0.282,0.045l0.274,-3.916" fill="#AB8E48"/>
    <path d="m129.461,118.997l-0.295,-0.052c-0.938,-1.343 -2.5,-1.19 -3.818,-1.62c-0.407,-0.126 -0.8,-0.292 -1.191,-0.455c-0.764,-0.393 -1.607,-0.487 -2.435,-0.641a1.801,1.801 0 0 1 -0.722,-0.459c0.362,-0.881 1.204,-1.212 1.89,-1.744c1.594,-1.238 1.13,-2.242 -0.466,-3.026l5.37,0c-1.156,1.332 -2.901,2.022 -0.522,3.745c0.81,0.587 -1.238,0.095 -0.866,1.41c1.382,0.51 3.565,0.267 4.594,2.21c-0.394,0.506 -0.93,0.66 -1.539,0.632" fill="#241B1B"/>
    <path d="m130,119.53l1.666,-0.53c1.38,1.057 3.699,1.287 4.334,3c-2,-0.822 -4,-1.647 -6,-2.47" fill="#98804C"/>
    <path d="m127,141.422c1.552,-1.698 3.213,-3.264 5.209,-4.422c-0.023,0.53 -0.095,1.524 -0.06,1.528c3.628,0.405 1.94,3.647 2.851,5.472c-2.592,-0.2 -1.897,-3.253 -3.34,-4.116c-1.71,-1.022 -2.296,3.35 -4.66,1.538" fill="#24170F"/>
    <path d="m132,137.526l1.5,-2.526l0.5,2.055c-0.634,0.425 -1.18,1.593 -2,0.471m2,-0.526c1.11,0.153 1.965,0.113 2,1.978c-1.11,0.194 -1.493,-0.942 -2,-1.978" fill="#24170F"/>
    <path d="m73,128.23c-1.718,1.185 -3.93,1.736 -5.887,2.615c-0.303,0.202 -0.612,0.206 -0.925,0.015c-0.286,-0.385 -0.26,-0.742 0.177,-1.058c1.015,-0.143 2.038,-0.273 2.63,-1.032l2.026,-0.531c0.657,-0.276 1.316,-0.355 1.979,-0.01" fill="#E1CE99"/>
    <path d="m78,125.02c-1.252,1.22 -3.253,1.534 -5.191,1.923c-0.803,0.177 -0.92,-0.076 -0.729,-0.52c2.048,-0.327 3.594,-1.6 5.92,-1.402" fill="#F1DECA"/>
    <path d="m72.505,126.04l0.495,0.527c-0.182,0.14 -0.364,0.282 -0.546,0.424l-1.454,0.009c0.535,-0.269 0.642,-1.203 1.505,-0.96" fill="#F7F4BF"/>
    <path d="m120,153.4c-2.468,1.15 -5.137,0.236 -7.688,0.537a0.834,0.834 0 0 1 -0.312,-0.592c0.176,-0.85 1.281,-1.056 1.681,-1.753a3.16,3.16 0 0 1 0.813,-0.722a9.13,9.13 0 0 1 1.402,-0.654c0.506,-0.16 1.012,-0.361 1.544,-0.062c0.256,0.272 0.787,0.727 0.728,0.79c-2.154,2.322 0.956,1.793 1.832,2.456" fill="#4E381D"/>
    <path d="m113,148.536l0.126,-0.856c0.11,-0.201 0.272,-0.252 0.494,-0.125l3.309,-0.555l0.071,0.556c-0.117,0.511 -0.6,0.716 -1.062,0.94c-0.85,0.348 -1.691,0.762 -2.664,0.296l-0.274,-0.256" fill="#4A1B1B"/>
    <path d="m117.278,149.733l1.254,-0.733c0.639,0.456 0.613,0.909 -0.01,1.355l-1.251,0.645c-0.386,-0.424 -0.338,-0.848 0.007,-1.267" fill="#56443E"/>
    <path d="m100,158.692c-0.21,0 -0.42,0.004 -0.628,0.013c-0.608,1.011 -2.166,0.164 -2.679,1.363l-0.735,1.932l-0.807,-0.05c-3.27,-0.986 -6.576,-1.263 -9.938,-0.531c-0.21,-0.012 -0.418,-0.03 -0.627,-0.05c-0.616,-0.576 -0.678,-1.284 -0.497,-2.05c0.493,-1.203 1.528,-1.363 2.64,-1.374c2.288,0.237 4.229,-1.025 6.354,-1.497c1.105,-0.356 2.215,-0.633 3.38,-0.294c0.676,0.189 1.15,0.649 1.572,1.176l1.965,1.362" fill="#F7E1B2"/>
    <path d="m86,162.048c3.472,-1.768 6.765,-1.07 10,0.397c-2.001,0.028 -3.998,0.066 -5.919,0.555c-0.328,-0.44 -0.706,-0.988 -1.488,-0.557c-1.146,0.63 -1.84,0.127 -2.593,-0.395" fill="#FCF6D4"/>
    <path d="m83.967,160.44l0.033,1.563c-0.876,1.983 -2.453,0.374 -3.691,0.5c-0.348,-0.248 -0.365,-0.557 -0.233,-0.892c0.811,-0.343 1.124,-1.123 1.895,-1.508c0.742,-0.192 1.42,-0.135 1.996,0.337" fill="#FDECC7"/>
    <path d="m79.878,161.386l-0.003,1.312c-0.692,0.645 -1.406,0.056 -2.11,0.057a1.739,1.739 0 0 1 -0.564,-0.68c-0.21,-0.64 -0.399,-1.28 0.22,-1.767c0.82,-0.43 1.621,-0.441 2.394,0.165c0.224,0.283 0.244,0.588 0.063,0.913" fill="#FDE8CB"/>
    <path d="m68.642,163l-1.517,-0.567c-0.312,-0.734 0.018,-1.227 0.371,-1.715c0.53,-0.491 1.099,-0.82 1.772,-0.689c0.565,0.257 0.75,0.822 0.73,1.553c-0.097,1.052 -0.772,1.16 -1.356,1.418" fill="#E9E5C5"/>
    <path d="m74.877,163.518l-1.03,0.482c-0.437,-0.246 -0.853,-0.506 -0.847,-1.082c0.043,-0.252 0.16,-0.464 0.348,-0.64a2.142,2.142 0 0 1 1.125,-0.278c0.412,0.023 0.79,0.138 1.123,0.383c0.29,0.306 0.542,0.698 0.318,1.063c-0.231,0.378 -0.664,0.394 -1.037,0.072" fill="#FEF1AE"/>
    <path d="m68,161.062l-0.496,1.326a12.54,12.54 0 0 1 -0.018,0.612l-1.033,-0.06c-0.443,-0.59 -0.562,-1.26 -0.352,-2.013c0.68,-0.924 1.348,-1.569 1.899,0.135" fill="#F0E2B6"/>
    <path d="m76,163.458c0.83,0.033 0.768,-0.453 0.478,-1.072c0.471,-0.566 0.961,-0.444 1.46,-0.055c0.02,0.202 0.04,0.405 0.062,0.606c-0.538,0.819 -1.078,1.633 -2,0.521" fill="#FDF2B1"/>
    <path d="m73.357,162.193l0.643,0.763c-1.017,-0.06 -2.149,0.302 -3,-0.374a63.8,63.8 0 0 0 0.168,-0.243c0.678,-0.41 1.411,-0.435 2.19,-0.146" fill="#FEF8D7"/>
    <path d="m69,162.362l1.082,-1.136c0.174,-0.237 0.38,-0.294 0.626,-0.14c0.155,0.222 0.255,0.472 0.292,0.752c-0.025,0.424 -0.11,0.822 -0.393,1.135l0,0.027l-1.607,-0.638" fill="#F9E8BC"/>
    <path d="m98.906,155.909l-0.671,0.621c-0.769,0.542 -1.655,0.526 -2.567,0.39c-0.883,-0.122 -1.798,0.082 -2.668,-0.182c0.229,-2.154 2.517,-0.853 3.618,-1.545c0.676,-0.246 1.353,-0.266 2.031,-0.007c0.356,0.171 0.44,0.413 0.257,0.723" fill="#F4EBD1"/>
    <path d="m105,154.636l-2.182,1.364l-0.555,-0.073a1.372,1.372 0 0 1 -0.262,-0.873c0.074,-0.329 0.233,-0.567 0.464,-0.728c0.37,-0.141 0.735,-0.299 1.125,-0.325c0.53,-0.009 1.05,0.016 1.41,0.635" fill="#F4E38F"/>
    <path d="m100.975,154.114l0.025,0.507c-0.629,0.248 -1.254,0.508 -1.992,0.307a23.123,23.123 0 0 0 -0.008,-0.322c0.33,-1.002 1.27,-0.449 1.975,-0.492" fill="#F4E9C6"/>
    <path d="m96.314,156.075l2.686,-0.075l-1.337,1c-0.604,0.008 -1.146,-0.07 -1.448,-0.483c-0.211,-0.122 -0.267,-0.229 -0.167,-0.319c0.09,-0.082 0.179,-0.123 0.266,-0.123" fill="#E6D282"/>
    <path d="m59,137.744l-3.593,3.985c0.392,1.092 -0.253,1.674 -1.035,2.19a2.15,2.15 0 0 1 -1.024,0.036c-1.711,-1.024 -1.543,-2.472 -0.866,-4.033c2.372,0 3.19,-3.15 5.682,-2.909c0.443,0.048 0.713,0.303 0.836,0.731" fill="#C1A856"/>
    <path d="m52.433,140.566c0.553,0.897 -0.219,2.061 0.567,2.912a1.389,1.389 0 0 1 -0.716,0.476c-0.614,0.136 -1.145,-0.034 -1.603,-0.463c-0.617,-0.021 -1.281,0.098 -1.681,-0.578c1.281,-0.551 2.195,-1.4 2.29,-2.913c0.467,0.01 0.895,0.101 1.143,0.566" fill="#B89543"/>
    <path d="m58.703,138l-0.703,-0.595l0.604,-0.606c0.653,-0.443 0.321,-1.247 0.677,-1.799l1.719,0.64l-2.297,2.36" fill="#D3B672"/>
    <path d="m59.745,135.165c0.427,0.84 0.404,1.529 -0.745,1.835l0.02,-1.203c0.06,-0.65 -0.12,-1.376 0.67,-1.797l0.055,1.165" fill="#DCC563"/>
    <path d="m53.21,144.01c0.212,0.003 0.422,0 0.633,-0.01l0.695,0.022c0.342,0.364 0.487,0.807 0.459,1.316a6.766,6.766 0 0 1 -0.293,0.89c-0.994,1.61 -0.464,3.198 0.073,4.788c-0.002,0.335 -0.113,0.62 -0.318,0.87c-0.467,0.198 -0.884,0.161 -1.215,-0.288c-0.446,-1.053 -1.143,-1.14 -2.004,-0.597c-0.137,-2.773 -2.2,-1.635 -3.438,-1.764c-1.74,-0.18 -0.489,0.812 -0.316,1.387c0.043,0.142 -0.164,0.53 -0.25,0.527c-0.282,-0.005 -0.663,-0.046 -0.82,-0.242c-0.627,-0.786 -0.348,-1.766 -0.387,-2.677c0.904,-0.743 0.582,-2.449 1.942,-2.835l-0.3,2.259c0.864,0.043 1.68,-0.06 2.27,-0.85c0.532,-0.728 1.629,-0.671 1.987,-1.64c0.3,-0.548 0.86,-0.763 1.282,-1.156" fill="#C7AD53"/>
    <path d="m50,152.017c-0.506,0.82 -1.054,1.463 -2,0.502c0.522,-0.748 1.304,-0.452 2,-0.502" fill="#CBAF52"/>
    <path d="m58.714,161.32c-0.458,-0.83 -1.28,-0.658 -2.024,-0.695c-0.017,-0.545 -0.13,-1.043 -0.682,-1.329l-0.684,-2.65c-0.392,-0.407 -0.404,-0.859 -0.164,-1.34c1.959,-1.09 2.894,1.065 4.432,1.313c1.17,0.579 2.505,0.848 3.586,1.538c1.014,0.648 2.438,1.316 1.534,2.993c-1.286,1.159 -2.635,0.886 -4.002,0.172c-0.665,-0.674 -1.334,1.821 -1.996,-0.003" fill="#EAD7B2"/>
    <path d="m55.705,155.945l0.006,1.361c-0.222,0.004 -0.444,0.007 -0.666,0.008c-0.941,0.048 -1.962,-0.235 -2.693,0.685l-0.687,0.001c-0.495,-0.71 -1.486,-0.667 -1.984,-1.372l-1.364,-0.583c2.087,-0.627 0.812,-1.314 -0.317,-2.155c2.997,0.89 4.958,0.502 5.071,-2.89c0.407,0.04 0.813,0.083 1.219,0.125c0.257,0.113 0.46,0.292 0.622,0.524c0.254,0.499 0.48,1.007 0.495,1.584c-0.003,0.717 0.37,1.32 0.583,1.973a0.77,0.77 0 0 1 -0.285,0.74" fill="#DFCFA3"/>
    <path d="m52,156.995c0.355,-1.354 1.12,-1.134 2,-0.472c-0.527,0.693 -1.31,0.406 -2,0.472" fill="#DECD8A"/>
    <path d="m49,156.003c0.984,-0.015 1.952,-0.014 2,0.997c-0.96,-0.011 -2,0.067 -2,-0.997" fill="#DCCC8B"/>
    <path d="m60,162.063c1.536,-0.077 3.127,0.138 4.51,-0.75c0.455,-0.418 0.919,-0.407 1.39,-0.03l0.1,2.125c-2.233,0.482 -4.61,1.54 -6,-1.345" fill="#F4F0D3"/>
    <path d="m113,156.177a13.79,13.79 0 0 1 -0.03,0.49l-1.27,0.152c-2.137,0.384 -4.118,0.24 -5.7,-1.263l1.172,-1.089c0.153,-0.568 0.632,-0.881 1.175,-1.147c0.7,-0.298 1.413,-0.478 2.166,-0.128c1.163,0.717 0.84,2.136 1.83,2.937l0.657,0.048" fill="#806445"/>
    <path d="m106.579,155c2.083,0.683 4.093,1.624 6.421,1.456c-0.004,0.182 -0.006,0.363 -0.007,0.544c-2.114,-0.032 -4.254,0.164 -6.265,-0.68c-0.931,-0.391 -0.956,-0.803 -0.15,-1.32" fill="#B58E41"/>
    <path d="m108.936,154.226l-1.456,0.756l-1.966,0.018l-2.514,-0.077c0.003,-1.86 1.834,-0.512 2.414,-1.36l1.404,-0.172c0.29,-0.203 0.608,-0.333 0.959,-0.391c0.694,0.12 1.45,0.184 1.159,1.226" fill="#CB7"/>
    <path d="m112.994,156c-1.908,-0.309 -1.475,-1.996 -1.994,-3.122c0.158,-0.65 0.585,-0.935 1.273,-0.869c0.6,0.314 0.322,1.031 0.718,1.44c0.004,0.21 0.007,0.42 0.009,0.631l-0.006,1.92" fill="#644F21"/>
    <path d="m66.15,132l0.85,0.056c-1.127,0.855 -2.441,1.51 -3.96,1.944l-0.04,-0.953c0.819,-0.717 1.923,-0.98 3.15,-1.047" fill="#DBC79E"/>
    <path d="m65.873,130.952l-3.197,1.048l-0.676,-0.555l1.305,-0.506c0.999,0.045 1.638,-0.31 2.033,-0.939c0.221,0.01 0.442,0.022 0.662,0.033l-0.127,0.919" fill="#F0EED1"/>
    <path d="m51,145.172c-0.36,0.753 -1.138,0.853 -2,0.824c0.008,-0.535 0.355,-0.799 1.013,-0.815c0.326,-0.232 0.655,-0.248 0.987,-0.009" fill="#C5A54D"/>
    <path d="m52.32,144.989l-1.27,0.011a250.42,250.42 0 0 0 -0.05,-0.996l2,-0.004c-0.226,0.33 -0.452,0.66 -0.68,0.989" fill="#B89034"/>
    <path d="m96.799,161c-0.15,-0.276 -1.61,-0.416 -0.167,-0.842c0.73,-0.214 1.575,-0.115 2.368,-0.158l-0.007,0.962l-2.193,0.038" fill="#F1D58B"/>
    <path d="m95.676,143.59l-9.676,2.41l0.014,-1.842c0.42,-0.937 1.315,-1.2 2.258,-1.394c1.017,-0.263 2.041,-0.497 3.11,-0.45c1.123,0.2 2.219,0.12 3.281,-0.307c0.471,-0.037 0.89,0.063 1.219,0.402c0.194,0.435 0.165,0.834 -0.206,1.181" fill="#A41A17"/>
    <path d="m58.373,154.387c3.314,1.988 6.617,4.022 10.464,3.878c0.245,0.375 0.213,0.713 -0.092,1.017c-0.578,0.46 -1.231,0.575 -1.9,0.623c-2.275,0.5 -4.11,-1.106 -6.117,-1.89c-1.232,-1.304 -3.674,-0.884 -3.728,-3.868c0.5,-0.272 0.952,-0.152 1.373,0.24" fill="#9F7659"/>
    <path d="m86,142.135l0.026,-1.776a1.04,1.04 0 0 1 0.58,-0.355c0.235,-0.014 0.467,0.008 0.697,0.055c0.724,0.139 1.45,0.28 1.692,1.206c0.073,1.087 -0.692,1.351 -1.408,1.663c-0.732,0.207 -1.274,-0.028 -1.587,-0.793" fill="#5D1810"/>
    <path d="m53.664,151.66a4.176,4.176 0 0 1 -0.183,-0.6l0.08,-0.739c-0.628,-1.55 -0.851,-3.103 -0.02,-4.661c0.007,-0.213 0.036,-0.423 0.088,-0.629c0.552,-0.109 0.846,0.05 0.608,0.76c-0.27,2.046 0.067,3.99 0.763,5.873c-0.446,0.467 -0.892,0.43 -1.336,-0.004" fill="#512619"/>
    <path d="m55,152l1.486,0.003l2.514,2.846l-1.576,0.006a0.855,0.855 0 0 1 -0.853,0.057c-0.54,-0.363 -0.922,-0.832 -0.934,-1.548l-0.637,-1.364" fill="#5F4A30"/>
    <path d="m86.577,140.986c-0.171,0.008 -0.342,0.012 -0.513,0.014l-0.064,-7c1.024,1.233 0.374,2.805 0.568,4.207c0.512,0.924 0.633,1.85 0.01,2.779" fill="#411B10"/>
    <path d="m55.787,145l-0.733,-0.594l-0.054,-1.063c0.88,-0.213 1.353,-0.665 1.439,-1.343c1.383,1.19 -0.165,2.032 -0.652,3" fill="#6F301B"/>
    <path d="m86.015,144.356a0.975,0.975 0 0 0 -0.015,-0.662l0.233,-0.694l2.02,0.681c0.707,-0.273 0.829,0.063 0.704,0.655l-2.719,0.664l-0.223,-0.644" fill="#881917"/>
    <path d="m112.426,116.978l-2.987,0.022l-0.432,-0.006c-0.714,-0.072 -1.476,-0.045 -1.904,-0.699l-0.103,-1.135c0.307,-0.57 1.95,-0.247 1.298,-1.456a0.473,0.473 0 0 1 0.238,-0.429c0.814,-0.387 1.578,-0.408 2.256,0.224c0.3,0.964 0.872,1.648 2.184,1.562c0.478,0.03 0.94,0.108 1.383,0.262c0.289,0.129 0.5,0.322 0.638,0.575c0.023,0.284 -0.1,0.51 -0.368,0.676c-0.737,0.12 -1.54,-0.027 -2.203,0.405" fill="#806249"/>
    <path d="m112.643,112l1.357,0.115c-0.144,1.619 -1.669,1.953 -2.591,2.852c-0.742,0.154 -1.17,-0.24 -1.465,-0.862c-0.453,-0.778 -1.226,-0.674 -1.944,-0.721c1.389,-1.009 3.11,-0.875 4.643,-1.384" fill="#6F4E26"/>
    <path d="m107.702,113.418c0.765,1.494 -0.066,1.618 -1.093,1.576c-0.672,-0.488 -0.522,-1.286 -0.609,-1.994l1.702,0.418" fill="#7E7030"/>
    <path d="m98.073,145.21l0.452,-1.457l-1.168,0.092c-0.688,-0.834 -0.259,-1.54 0.26,-2.24c0.812,-1.528 2.98,-0.376 3.81,-1.866c0.068,-0.76 0.176,-1.496 0.78,-2.047c0.032,-0.192 0.063,-0.385 0.092,-0.578c0.198,-0.035 0.396,-0.074 0.592,-0.114c0.14,2.736 0.32,5.477 -0.7,8.118a2.464,2.464 0 0 1 -1.453,0.841c-0.991,0.104 -1.942,0.062 -2.665,-0.75" fill="#A61A19"/>
    <path d="m87.011,138.981l-0.011,-2.08c2.868,-1.494 5.96,-0.728 8.997,-0.516c0.073,1.263 -1.347,1.253 -2.35,1.6c-1.99,0.32 -4.017,0.522 -5.96,1.015a10.75,10.75 0 0 1 -0.676,-0.019" fill="#2E1D15"/>
    <path d="m102,137.229l-0.015,2.194c-1.947,0.094 -3.883,0.255 -5.796,0.577a3.64,3.64 0 0 1 -1.485,-0.337c-1.902,-1.832 0.537,-1.508 1.58,-1.88c1.75,-1.126 3.745,-0.77 5.716,-0.554" fill="#5D1E14"/>
    <path d="m96,138.287c-0.105,0.867 -1.816,0.374 -1.053,1.974c-0.822,0.98 -1.704,0.907 -2.62,0.237c-0.455,-0.73 -0.424,-1.454 0.024,-2.17c0.818,-0.142 1.55,-0.496 2.092,-1.328l1.557,1.287" fill="#502322"/>
    <path d="m103,132.143l-0.021,1.646l-0.704,-0.002c-0.755,0.085 -1.509,0.433 -2.264,0.002l-3.011,-1.093c1.888,-0.823 3.928,-0.783 6,-0.553" fill="#22100C"/>
    <path d="m101,135.039c-0.44,0.791 -1.147,0.829 -1.755,0.656c-0.784,-0.223 -2.244,1.172 -2.245,-0.635c0,-1.474 1.518,-0.386 2.307,-0.715c0.847,-0.807 1.266,-0.04 1.693,0.694" fill="#22100C"/>
    <path d="m101.993,135l-1.991,-0.723l-0.002,-0.72c0.666,-0.198 1.332,-1.146 2,-0.002l-0.007,1.445" fill="#271B1C"/>
    <path d="m115.819,111.753c1.66,-0.903 3.419,-0.804 5.181,-0.658c-0.068,0.09 -0.126,0.243 -0.206,0.26c-1.294,0.286 -2.57,0.57 -1.73,2.667c-0.568,1.165 -1.283,2.17 -2.34,2.804c-1.188,0.183 -2.381,0.42 -3.464,-0.449l0.035,-0.239c-0.955,-2.816 0.546,-3.781 2.524,-4.385" fill="#503419"/>
    <path d="m113.089,115.712l3.737,-0.137c0.859,-0.685 1.714,-0.851 2.563,0.02l1.158,0.11l0.006,-0.028c0.435,0.327 0.542,0.772 0.366,1.315l-0.998,0.008c-2.245,-0.987 -4.686,0.349 -6.921,-0.751c0.033,-0.178 0.062,-0.358 0.089,-0.537" fill="#B98D54"/>
    <path d="m120.708,116l-2.708,-0.019c0.1,-1.241 0.754,-1.922 2.021,-1.981c1.074,0.378 1.202,1.08 0.687,2" fill="#342E1B"/>
    <path d="m109,117.054l-5.95,0.946l-0.05,-0.993c0.59,-0.182 0.565,-1.837 1.802,-0.472c1.218,0.568 2.646,-0.076 3.875,0.42c0.113,0.022 0.221,0.055 0.323,0.1" fill="#CBA35D"/>
    <path d="m107,116.85c-1.01,-0.12 -2.097,0.753 -3,-0.714l1.569,-0.136c0.497,0.184 1.127,-0.31 1.431,0.85" fill="#C1A872"/>
    <path d="m113.06,116c2.287,0.687 4.722,-0.777 6.94,0.936l-9,0.064c0.485,-1.146 1.298,-0.966 2.06,-1" fill="#DCA661"/>
    <path d="m124.64,118.125c1.338,0.12 2.76,0.039 3.36,1.875l-3.969,-1.242c-0.083,-0.568 -0.036,-0.975 0.61,-0.633" fill="#BB8B44"/>
    <path d="m114.984,151.101c-0.223,0.167 -0.448,0.332 -0.671,0.498c-0.76,0.675 -1.61,0.33 -2.446,0.162c-0.435,-0.128 -0.75,-0.357 -0.867,-0.755l2.016,-1.006l0.134,0.063c0.393,0.629 2.028,-0.351 1.834,1.038" fill="#746344"/>
    <path d="m112.04,151l0.96,0.735c-0.128,0.102 -0.255,0.203 -0.382,0.307c-1.62,0.566 -3.369,0.627 -5.054,0.94l-0.283,0.018l-0.281,-0.034c0.889,-2.129 3.15,-1.702 5.04,-1.966" fill="#71271B"/>
    <path d="m98,156l0.685,-1.616c0.885,-0.084 1.77,-0.17 2.655,-0.253c0.242,-0.206 0.463,-0.169 0.66,0.112a2.119,2.119 0 0 0 -0.066,0.54c-0.793,0.152 -1.632,0.11 -2.264,0.956l-1.67,0.261" fill="#904931"/>
    <path d="m125,116.602l-0.579,0.398l-2.421,-0.402c0.593,-0.855 1.489,-0.611 2.383,-0.374l0.617,0.378" fill="#AA9555"/>
    <path d="m101.739,154l-0.739,-0.072c1.182,-0.71 2.487,-1.078 4,-0.87l-2.07,0.91l-1.191,0.032" fill="#6A4821"/>
    <path d="m124,115.52c-0.894,0.118 -1.929,-0.346 -2.653,0.47l-0.008,0.01c-0.112,-0.306 -0.225,-0.613 -0.339,-0.918c1.023,0.03 2.139,-0.395 3,0.439" fill="#372517"/>
    <path d="m113.88,149.416c-0.28,0.132 -0.574,0.22 -0.88,0.261c0.1,-0.739 0.359,-0.943 0.88,-0.26" fill="#CD1726"/>
    <path d="m111.255,152.214c0.905,-0.5 1.818,0.04 2.727,-0.018c0.217,1.327 -1.554,1.03 -2.013,1.804c-0.563,-0.27 -0.676,-0.733 -0.714,-1.227c-0.227,-0.123 -0.302,-0.247 -0.227,-0.37c0.074,-0.125 0.15,-0.186 0.225,-0.186l0.002,-0.003z" fill="#574A22"/>
    <path d="m114.777,151l-1.777,-1.306c1.048,0.022 2.057,-0.157 3,-0.694l-0.007,1.33l-1.216,0.67" fill="#624E31"/>
    <path d="m85.92,157.204a0.426,0.426 0 0 1 0.454,-0.083a1.56,1.56 0 0 1 0.87,-0.099c0.58,0.267 0.945,0.611 0.653,1.194c-0.913,0.12 -1.952,-0.173 -2.683,0.545l-2.608,0.088c-0.313,0.425 -0.649,0.805 -1.359,0.472l-3.27,0.022a1.155,1.155 0 0 1 -0.772,0.251c-1.097,-0.129 -2.2,-0.236 -3.312,-0.161c-0.257,0.036 -0.517,0.067 -0.773,0.109c-0.61,0.087 -1.07,0.67 -1.8,0.375l-0.315,-0.019l-0.316,0.012c-0.034,-0.45 -0.128,-0.876 -0.689,-1.11c0.272,-1.54 1.794,-0.941 2.847,-1.074c2.706,-0.341 5.424,0.518 8.135,-0.015c1.568,-0.665 3.365,0.135 4.939,-0.507" fill="#FEF7EA"/>
    <path d="m87.74,158.936l-0.74,-0.836c0.944,-0.868 2.47,0.032 3.488,-0.612l2.77,-0.488c0.375,0.252 1.015,0.41 0.616,0.934c-2.127,0.065 -3.875,1.366 -6.133,1.002" fill="#EEE8DB"/>
    <path d="m92.599,157l-0.599,-0.86l1.198,-0.14l2.802,0.12c0,0.148 -0.031,0.292 -0.095,0.432c-1.153,-0.03 -2.273,0.055 -3.306,0.448" fill="#F6F2E0"/>
    <path d="m80,160.671l1.57,-0.671c0.143,0.564 0.588,1.336 0.372,1.65c-0.58,0.834 -1.263,-0.066 -1.914,-0.192l-0.028,-0.787" fill="#FCF0BE"/>
    <path d="m75.91,161l0.557,0.02l0.533,0.934l-1.683,0.046l-1.124,-0.03c-0.144,-0.11 -0.208,-0.23 -0.19,-0.36c0.019,-0.136 0.047,-0.204 0.087,-0.204c0.514,-0.425 1.181,-0.373 1.82,-0.406" fill="#FAF0D9"/>
    <path d="m80,158.294c-2.39,0.99 -4.899,0.222 -7.336,0.48c-1.188,0.124 -2.511,-0.448 -3.522,0.628l-1.895,0.597c-0.646,-0.799 -1.302,-0.76 -1.969,-0.025l-1.198,0.026c-1.083,-1.993 -3.372,-2.107 -5.079,-3.129c-0.01,-1.12 0.64,-0.942 1.343,-0.654c2.058,0.64 4.068,1.472 6.282,1.467c3.621,0.482 7.284,-0.214 10.9,0.374l1.798,0.036c0.334,-0.286 0.56,-0.219 0.677,0.2" fill="#F7F1E7"/>
    <path d="m75,161.141l-0.021,0.646l-1.267,0.043c-0.286,0.19 -0.594,0.216 -0.923,0.104c-0.723,-0.526 -1.068,-1.133 -0.519,-1.934l0.76,0.004c0.328,0.838 1.998,-0.196 1.97,1.137" fill="#FAE8E7"/>
    <path d="m72.464,162.217l0.536,0.041c-0.016,0.126 -0.038,0.25 -0.066,0.373l-1.934,0.369l0.018,-0.77c0.478,-0.313 0.96,-0.296 1.446,-0.013" fill="#FBE3D3"/>
    <path d="m73,161.978l-1.968,0.022a25.052,25.052 0 0 1 -0.032,-0.626c0.436,-0.458 0.872,-0.917 1.309,-1.374l0.691,1.978" fill="#F4E8C7"/>
    <path d="m52.982,145l0.018,4c-0.94,-1.328 -1.668,-2.657 -0.018,-4" fill="#5B3D25"/>
    <path d="m62,156.35c-0.6,0.072 -1.211,0.127 -1.55,0.637c-1.95,0.2 -2.54,-1.92 -4.45,-1.79l0.008,-0.623c0.146,-0.264 0.38,-0.45 0.713,-0.546a2.9,2.9 0 0 1 0.677,-0.015l4.602,2.336" fill="#F1ECD8"/>
    <path d="m57,154.417l-0.683,0.583c-0.83,-0.509 -2.158,-0.894 -0.584,-2l1.267,1.417z" fill="#F9EBDE"/>
    <path d="m110.992,152.035c0.01,0.206 0.01,0.412 0,0.618l-1.08,0.785l-1.719,0.562c-0.239,-0.594 -0.72,-0.65 -1.193,-0.722c1.248,-0.77 2.52,-1.44 3.992,-1.243" fill="#BBA15B"/>
    <path d="m158.005,175.002l-0.001,-0.002l-0.004,0.002l0,0.002l0.005,-0.002" fill="#CF1517"/>
    <path d="m157.918,175.704l0.024,-0.01c0.002,-0.019 0.001,-0.034 0.002,-0.053c0.014,0.015 0.03,0.025 0.045,0.038c-0.016,0.005 -0.028,0.011 -0.043,0.015c0.028,0.03 0.051,0.061 0.079,0.091a0.56,0.56 0 0 1 -0.107,-0.08m-6.87,-42.416c-1.108,2.094 -2.79,3.701 -4.463,5.316c-0.409,0.413 -0.827,0.817 -1.242,1.224a9.8,9.8 0 0 0 -0.618,0.622c-1.236,1.246 -2.386,2.592 -3.975,3.43c-0.898,0.53 -1.79,1.065 -2.18,2.122a2.706,2.706 0 0 1 -0.14,0.408c-0.783,0.32 -1.477,0.778 -2.12,1.317a14.12,14.12 0 0 1 -0.677,0.058c-0.739,0.092 -1.417,0.37 -2.078,0.698c-1.527,0.955 -3.194,1.697 -4.457,3.048c-0.077,0.193 0.024,0.364 0.038,0.543a2.113,2.113 0 0 0 -0.41,-0.318c-0.828,-0.26 -1.555,0.057 -2.263,0.455c-0.607,0.362 -1.271,0.59 -1.927,0.84a24.64,24.64 0 0 0 -1.573,0.71c-1.987,0.908 -4.018,1.708 -6.07,2.459c-0.54,0.218 -1.071,0.458 -1.6,0.701c-1.07,0.464 -2.187,0.79 -3.294,1.145a64.13,64.13 0 0 1 -2.13,0.685c-1.9,0.613 -3.776,1.304 -5.694,1.863c-1.154,0.47 -2.4,0.524 -3.593,0.812c-0.6,0.174 -1.206,0.328 -1.813,0.465c-1.096,0.261 -2.17,0.6 -3.256,0.896c-2.34,0.332 -4.641,0.956 -7.021,1.006c-1.573,0.37 -3.18,0.55 -4.76,0.87c-6.697,0.65 -13.409,0.258 -20.122,0.232a9.32,9.32 0 0 0 -1.02,-0.242c-1.09,-0.188 -2.204,-0.205 -3.264,-0.55c-0.99,-0.255 -2.003,-0.403 -2.971,-0.735a16.06,16.06 0 0 1 -1.59,-0.567c-0.643,-0.282 -1.283,-0.57 -1.937,-0.828c-1.06,-0.403 -1.996,-1.022 -2.92,-1.663c-0.338,-0.247 -0.675,-0.494 -1.03,-0.718c-0.956,-0.546 -1.73,-1.274 -2.253,-2.253a80.157,80.157 0 0 0 -0.654,-1.027c-0.523,-0.966 -0.846,-1.992 -0.916,-3.093c-0.018,-0.417 -0.018,-0.836 -0.032,-1.255c-0.044,-1.285 0.122,-2.54 0.565,-3.754c0.353,-1.193 0.843,-2.322 1.543,-3.355c0.245,-0.333 0.517,-0.645 0.781,-0.963c0.283,-0.314 0.553,-0.64 0.79,-0.993c0.84,-1.363 2.081,-2.38 3.101,-3.588c1.595,-1.693 3.379,-3.19 5.014,-4.846c0.85,-0.725 1.797,-1.307 2.752,-1.88c0.24,-0.14 0.477,-0.283 0.701,-0.448c1.006,-0.718 2.006,-1.446 3.077,-2.068c0.24,-0.134 0.48,-0.268 0.71,-0.42c0.724,-0.417 1.447,-0.835 2.14,-1.301c0.725,-0.49 1.527,-0.836 2.314,-1.205c5.04,-3.073 10.773,-4.587 16.048,-7.126c0.739,-0.453 1.627,-0.719 2.016,-1.61c0.546,-2.011 0.672,-4.01 -0.172,-5.984a1.6,1.6 0 0 0 -0.556,-0.5c0.127,-0.76 -0.06,-1.484 -0.358,-2.196c0.18,-0.162 0.39,-0.29 0.648,-0.36c0.935,-1.468 0.732,-3.167 0.714,-4.746c-0.09,-7.984 1.141,-16.031 -1.024,-23.935c-0.254,-0.65 -0.615,-1.309 -0.133,-1.884c0.605,-0.15 1.293,0.019 1.915,0.02c12.987,0.019 25.974,0.07 38.961,0.112c1.338,0.335 2.675,0.672 4.013,1.008l1.657,0.404l0.395,-0.001c-0.612,1.458 1.101,1.808 1.908,2.298c4.368,2.65 6.305,6.655 6.784,11.531c0.19,1.934 0.014,3.884 0.06,5.828c0.03,0.754 0.154,1.331 0.347,1.779l-0.381,1.554c-0.07,0.02 -0.14,0.03 -0.21,0.053c-1.728,1.81 -2.469,4.253 -3.965,6.209c-1.046,1.901 -0.416,2.89 1.567,3.68c4.188,1.666 8.95,2.261 12.05,6.096c1.568,0.974 2.273,2.455 2.608,4.214c0.686,3.606 -0.584,6.707 -2.355,9.701m6.162,-19.901l0.079,0.07c-0.077,0.019 -0.153,0.036 -0.229,0.06a0.716,0.716 0 0 1 0.15,-0.13m-10.991,-10.912c-0.004,-0.039 0.011,-0.031 0.02,0l-0.02,0m4.135,-36.251c2.26,0.096 4.521,0.024 6.785,-0.02c-2.499,0.144 -5.022,0.184 -7.516,0.052l0.731,-0.032m9.5,112.374c0.035,-38.01 -0.009,-76.019 0.095,-114.028c0.008,-2.99 -0.932,-3.577 -3.714,-3.57c-38.002,0.085 -76.003,0.052 -114.004,0.062c-1.077,0.001 -2.154,0.152 -3.231,0.233l0,120.282c7.42,0.381 14.843,0.231 22.266,0.053c2.362,0.582 4.722,0.112 7.084,-0.007c5.232,0.574 10.463,0.1 15.695,0.012c2.63,0.458 5.259,0.513 7.889,-0.003c2.397,0.01 4.796,0.51 7.19,-0.03c3.895,0.262 7.789,0.607 11.686,0.027c9.718,0.068 19.437,0.214 29.155,0.177c6.422,-0.024 12.854,0.426 19.269,-0.241c1.217,-0.77 0.62,-1.985 0.62,-2.967" fill="#CF1517"/>
    <path d="m104.676,113.794c0.723,0.077 1.434,0.322 2.173,0.14c0.271,-0.098 0.526,-0.227 0.761,-0.4c1.15,-0.834 2.642,-0.805 3.797,-1.62c0.075,-0.072 0.133,-0.155 0.192,-0.237c0.32,0.389 0.754,0.574 1.236,0.67c0.88,0.12 1.755,0.097 2.625,-0.096c1.489,-1.011 3.252,-0.88 4.89,-1.27c0.037,-0.056 0.073,-0.114 0.109,-0.172c0.103,-0.035 0.205,-0.067 0.307,-0.11c0.463,-0.292 0.638,-0.763 0.752,-1.274c0.105,-1.45 1.11,-2.704 0.854,-4.231c0.654,-0.847 0.478,-1.832 0.437,-2.795c0.378,-2.611 0.147,-5.182 -0.28,-7.778c-0.72,-4.391 -2.727,-7.737 -6.812,-9.434c-3.727,-1.547 -7.6,-1.32 -11.492,-0.783c-1.693,0.234 -2.245,1.064 -2.224,2.81c0.101,8.595 0.098,17.192 0.133,25.788c0.717,0.706 1.657,0.658 2.542,0.792m-3.688,31.6a3.194,3.194 0 0 0 -0.005,-0.081c0.034,0.019 0.068,0.035 0.102,0.052c-0.032,0.01 -0.065,0.018 -0.097,0.029m34.732,-20.435c-0.367,-1.182 -1.782,-1.829 -1.713,-3.254c-1.256,-1.665 -3.298,-2.16 -4.911,-3.293a9.019,9.019 0 0 0 -0.844,-0.388c-1.455,-0.563 -2.985,-0.846 -4.493,-1.21c-0.962,-0.081 -1.878,-0.393 -2.819,-0.569a8.3,8.3 0 0 0 -1,0a9.816,9.816 0 0 1 -1.027,-0.047c-2.678,-0.368 -5.374,-0.094 -8.06,-0.182c-1.076,0.021 -2.15,0.024 -3.207,0.274c-1.796,1.064 -4.307,-0.147 -5.811,1.84l-0.242,18.817c-1.25,2.238 -0.667,4.784 -1.191,7.146c0.006,0.208 0.042,0.41 0.091,0.608l-0.794,0.09l-2.167,-0.046c0.984,-1.494 0.587,-2.227 -1.298,-2.138a11.63,11.63 0 0 0 -1.86,0.33c-2.954,0.787 -6.153,0.813 -8.794,2.563c-0.032,-0.455 -0.076,-0.909 -0.195,-1.355a2.33,2.33 0 0 0 -0.43,-0.77a0.97,0.97 0 0 0 -0.14,-0.047c0.023,-0.03 0.044,-0.055 0.066,-0.098c0.046,-0.094 0.023,-0.186 -0.06,-0.276a1.33,1.33 0 0 0 0.363,-0.31c0.156,-0.271 0.275,-0.562 0.344,-0.866c0.14,-0.67 0.152,-1.357 0.16,-2.043c-0.002,-1.985 0.036,-3.972 -0.033,-5.956c-0.215,-0.893 -0.45,-1.778 -0.815,-2.624c-0.173,-2.888 -0.345,-5.776 -0.516,-8.666c-2.325,0.345 -4.197,2.11 -6.628,2.132a0.758,0.758 0 0 1 -0.51,0.112c-1.588,0.623 -2.975,1.67 -4.608,2.197c-0.372,0.213 -0.753,0.41 -1.096,0.67c-1.823,1.141 -3.721,2.15 -5.61,3.172c-1.278,0.957 -2.78,1.645 -3.644,3.09c-0.408,0.92 -1.308,1.292 -2.048,1.843c-1.314,0.372 -1.95,1.592 -2.937,2.37c-1.228,1.2 -2.73,2.18 -3.19,3.993c0.02,1.362 -0.567,2.578 -0.91,3.85c-0.386,1.841 0.054,3.563 0.783,5.238c0.798,1.332 1.92,2.356 3.127,3.298c3.417,2.332 7.162,3.586 11.323,3.486l0.017,0c0.852,0.707 1.933,0.585 2.963,0.64c1.778,0.092 3.578,-0.185 5.335,0.296a5.34,5.34 0 0 0 2.137,0.03c0.893,-0.292 1.892,-0.35 2.57,-1.096l0.03,0c0.037,-0.012 0.075,-0.019 0.113,-0.03a0.866,0.866 0 0 0 0.132,0.168c0.728,0.516 1.546,0.47 2.373,0.38c0.32,-0.021 0.636,-0.066 0.95,-0.14c1.2,-0.38 2.457,-0.31 3.68,-0.486c0.982,0.095 1.84,-0.327 2.724,-0.645c0.476,-0.113 0.887,-0.317 1.093,-0.801c1.164,-0.972 2.796,-0.006 3.965,-0.96c0.132,-0.23 0.371,-0.398 0.555,-0.598c0.145,-0.013 0.29,-0.028 0.435,-0.032c0.944,-0.055 1.892,-0.06 2.808,-0.343c1.269,-0.55 2.563,-1.01 3.95,-1.147c0.454,-0.041 0.905,-0.09 1.321,-0.3c1.27,-1.063 2.817,-1.443 4.37,-1.812c0.807,-0.316 1.55,-0.724 2.12,-1.406c0.224,-0.321 0.375,-0.666 0.418,-1.065c0.202,-0.88 0.687,-0.008 1,-0.178c1.102,-0.158 2.29,-0.111 3.011,-1.222l4.565,-2.522l4.598,-3.016c2.519,-0.39 3.419,-2.722 5.027,-4.203l-0.025,-0.015c1.471,-0.16 1.6,-1.44 2.04,-2.46l1.31,-2.537l0.69,-0.642l-0.166,-0.627c1.23,-1.909 1.942,-3.931 1.235,-6.212" fill="#CF1517"/>
    <path d="m98,142.413l-0.51,1.576l-1.481,0.011l-0.009,-1.04c0.214,-0.756 0.722,-1 1.4,-0.955c0.238,0.068 0.44,0.201 0.6,0.408" fill="#981A15"/>
    <path d="m97.871,142.264l-1.97,0.639l-1.309,-0.032c-0.81,0.476 -1.86,0.067 -2.667,0.554c-1.137,-0.038 -2.25,0.027 -3.252,0.575l-0.673,-0.56c0.396,-0.599 1.42,-0.825 1.325,-1.717c0.936,-0.868 2.1,-0.787 3.287,-0.606l3.284,-0.007l1.36,0.05c0.357,0.302 1.025,0.471 0.615,1.104" fill="#6D170F"/>
    <path d="m91,142.741c0.584,-0.584 1.202,-1.005 2,-0.546c-0.418,1.391 -1.293,0.56 -2,0.546" fill="#981A15"/>
    <path d="m80.793,160l-0.793,-0.23c0.807,-0.952 2.068,-0.242 2.99,-0.77l3.01,0.15c-1.554,1.328 -3.504,0.381 -5.207,0.85" fill="#F3E7CC"/>
    <path d="m90,157.09c-0.906,1.138 -2.171,0.513 -3.228,0.91c-0.257,-0.089 -0.513,-0.178 -0.772,-0.266c1.28,-0.674 2.615,-0.87 4,-0.644" fill="#DED2BA"/>
    <path d="m78,159.706c-3.674,0.105 -7.365,0.829 -11,-0.48c0.68,-0.074 1.359,-0.15 2.04,-0.226c2.957,0.817 6.015,-0.337 8.96,0.706" fill="#EDDCCE"/>
    <path d="m92.989,140.476c-1.036,0.837 -2.48,0.374 -3.731,0.524l-2.258,-0.518c1.502,-1.395 3.954,-1.072 6,-1.482l-0.011,1.476" fill="#462615"/>
    <path d="m117,112c-2.163,0.462 -2.237,1.851 -2.907,2.975l-1.56,0.025c-0.574,-0.273 -1.38,-0.379 -1.533,-0.959c0.449,-1.037 1.77,-1.47 2.999,-1.967l3.001,-0.074" fill="#5A4C1C"/>
    <path d="m111.613,114.637c0.462,0.406 0.924,0.813 1.387,1.217c-0.988,-0.511 -3.905,1.516 -2.722,-1.854l1.335,0.637" fill="#675824"/>
    <path d="m97.71,141.937l-0.71,-1.37c1.993,-0.478 3.986,-0.953 6,-0.082c-0.864,2.192 -3.438,-0.164 -4.495,1.515l-0.795,-0.063" fill="#7B1718"/>
    <path d="m74.488,160.988c-0.417,-0.43 -1.403,-0.002 -1.488,-0.932c1.007,0.114 2.117,-0.415 3,0.459c-0.365,0.574 -0.951,0.485 -1.512,0.473" fill="#FCE2C1"/>
   </g>
  </svg>