<svg xmlns="http://www.w3.org/2000/svg" fill-rule="evenodd" clip-rule="evenodd" data-name="Layer 1" image-rendering="optimizeQuality" shape-rendering="geometricPrecision" text-rendering="geometricPrecision" viewBox="-2 1 6600 3300"><g><rect width="6600" height="3300" x="-2" y="1" fill="none"/><g><path fill="#a5aeb6" fill-rule="nonzero" d="M501.74 1840.82c-1.82,-0.92 -2.97,-2.79 -2.97,-4.82 0,-0.9 0.22,-1.79 0.65,-2.57 137.4,-255.73 409.03,-424.5 712.26,-424.5 0.45,0 1.23,0 1.72,0 28.41,0 56.82,1.56 85.04,4.49 108.4,11.46 213.64,44.63 308.96,97.45 1.76,0.98 2.83,2.82 2.83,4.81 0,0.96 -0.25,1.9 -0.72,2.74 -1.06,1.69 -2.92,2.71 -4.91,2.71 -0.94,0 -1.85,-0.22 -2.68,-0.65 -93.87,-52.01 -197.77,-84.78 -304.51,-96.06 -27.94,-2.9 -56.21,-4.4 -84.39,-4.4 -0.4,0 -0.9,0 -1.3,0 -298.97,-0.13 -566.82,166.38 -702.45,418.52 -1.02,1.78 -2.9,2.89 -4.95,2.93 -0.05,0 -0.1,0 -0.15,0 -0.84,0 -1.67,-0.23 -2.39,-0.65l-0.04 0zm0 0l0 0 0 0z"/></g><g><path fill="#a5aeb6" fill-rule="nonzero" d="M1176.46 1983.04c-326.08,-34.56 -571.12,-299.59 -588.34,-614.61 0.01,-3.05 2.5,-5.53 5.55,-5.53 2.87,0 5.26,2.19 5.53,5.04 17.05,309.56 257.85,570.13 578.47,604.17 23.12,2.4 46.52,3.71 69.83,3.71 135.48,0 267.83,-42.47 378.02,-121.31 0.91,-0.7 2.05,-1.07 3.21,-1.07 3.07,0 5.55,2.48 5.55,5.55 0,1.78 -0.86,3.46 -2.3,4.5 -112.07,80.13 -246.59,123.25 -384.42,123.25 -23.69,0 -47.56,-1.29 -71.08,-3.7l-0.02 0zm0 0l0 0 0 0z"/></g><g><path fill="#a5aeb6" fill-rule="nonzero" d="M723.7 2102c-2.85,-0.31 -5.01,-2.71 -5.01,-5.57 0,-0.18 0.01,-0.37 0.03,-0.55 2.32,-21.23 5.22,-42.6 8.75,-63.18 61.87,-370.8 308.67,-670.53 635.22,-815.18 0.71,-0.33 1.49,-0.49 2.28,-0.49 2.17,0 4.14,1.26 5.04,3.24 0.32,0.7 0.49,1.47 0.49,2.24 0,2.16 -1.29,4.12 -3.28,4.97 -323.19,143.39 -567.62,440.1 -628.79,806.84 -3.48,20.71 -6.35,41.47 -8.62,62.66l0.16 0c-0.32,2.83 -2.72,4.97 -5.56,4.98l-0.69 0 -0.02 0.04zm0 0l0 0 0 0z"/></g><g><path fill="#a5aeb6" fill-rule="nonzero" d="M1097.93 2263.67c-0.79,-0.98 -1.23,-2.21 -1.23,-3.48 0,-1.73 0.81,-3.36 2.2,-4.39 153.45,-116.87 260.12,-293.65 282.41,-499.53 2.76,-25.87 4.12,-52.12 4.12,-78.18 0,0 0,-0.27 0,-0.27 0,-321.3 -214.05,-603.42 -519.65,-695.1 -2.35,-0.62 -3.98,-2.76 -3.98,-5.2 0,-0.57 0.09,-1.13 0.27,-1.67 0.73,-2.34 2.9,-3.94 5.35,-3.94 0.52,0 1.05,0.08 1.55,0.22 310.28,93.24 527.55,379.46 527.55,705.75 0.01,0.56 0.01,1.09 0.01,1.62 0,25.96 -1.5,52.19 -4.23,77.98 -22.53,209.07 -130.92,388.46 -286.62,507.22 -0.94,0.71 -2.11,1.12 -3.31,1.12 -0.03,0 -0.06,0 -0.09,0 -0.08,0.01 -0.15,0.01 -0.22,0.01 -1.64,0 -3.18,-0.78 -4.15,-2.1l0.02 -0.06zm0 0l0 0 0 0z"/></g><g><path fill="#a5aeb6" fill-rule="nonzero" d="M1393.51 1972.6c-3.37,31.49 -31.79,54.16 -63.39,50.97 -31.77,-3.57 -54.65,-31.65 -51.26,-63.17 3.39,-31.52 31.73,-54.01 63.41,-50.8 29.25,3.01 51.5,27.66 51.5,57.07 0,1.98 -0.11,3.96 -0.31,5.92l0.05 0.01zm278.45 -480.57c-94.15,-209.59 -295.05,-364.99 -541.53,-391.17 -23.51,-2.46 -47.47,-3.71 -71.17,-3.71 -0.25,0 -0.67,0 -0.92,0 -0.07,0 -0.32,0 -0.4,0 -152.65,0 -300.96,52.24 -419.95,147.73 -0.98,0.75 -2.18,1.17 -3.42,1.17 -1.71,0 -3.33,-0.79 -4.38,-2.14 -0.85,-0.97 -1.31,-2.21 -1.31,-3.49 0,-1.67 0.79,-3.25 2.13,-4.24 117.87,-94.33 267.37,-150.3 427.37,-150.13 1.24,-0.01 2.47,-0.01 3.7,-0.01 23.21,0 46.57,1.31 69.63,3.84 250.47,26.69 454.72,184.51 550.56,397.64 0.31,0.71 0.46,1.45 0.46,2.2 0,2.19 -1.29,4.17 -3.29,5.06 -0.74,0.31 -1.53,0.48 -2.32,0.48 -0.06,0.01 -0.12,0.01 -0.18,0.01 -2.12,0 -4.03,-1.28 -4.84,-3.24l-0.14 0zm0 0l0 0 0 0z"/></g><g><path fill="#a5aeb6" fill-rule="nonzero" d="M3400.05 1674.13c-8.63,22.71 -21.17,43.87 -36.86,62.39 -15.56,18.2 -34.51,33.35 -55.71,44.49 -21.48,11.19 -45.38,17.04 -69.6,17.04 -0.41,0 -0.83,0 -1.24,0 -16.38,-0.1 -32.73,-2.34 -48.54,-6.56 -1.76,-0.66 -2.44,-1.96 -2.13,-4.19 0.32,-2.23 1.23,-3.07 2.88,-2.58 2.87,0.53 5.81,0.79 8.73,0.79 0.18,0 0.38,0 0.56,0l10.02 0c21.82,0 41.36,-3.37 58.62,-10.28 16.64,-6.48 31.69,-16.61 43.99,-29.57 12.24,-13.15 21.68,-28.72 27.66,-45.66 6.37,-18.19 9.65,-37.38 9.65,-56.67 0,-0.55 0,-1.11 0,-1.65 -0.05,-19.18 -3.04,-38.31 -8.76,-56.6 -5.74,-18.32 -14.56,-35.63 -26.01,-51.04 -11.29,-15.04 -25.57,-27.65 -41.91,-36.96 -16.52,-9.48 -35.03,-14.12 -55.7,-14.12 -19.03,0 -39.08,4.5 -60.34,13.33l0 496.41c0,26.03 5.53,44.69 16.77,56.09 11.23,11.41 30.17,17.53 56.98,18.65 1.62,0 2.44,1.11 2.44,3.37 0,2.26 -0.82,3.36 -2.44,3.36l-166.67 0c-12.84,0 -25.69,-0.47 -38.5,-0.95 -1.68,0 -2.68,-0.96 -2.93,-2.89 -0.08,-0.27 -0.12,-0.55 -0.12,-0.83 0,-1.37 0.93,-2.56 2.25,-2.89 13.93,-2.23 24.8,-5.29 32.67,-9.13 7.87,-3.84 13.4,-9.01 16.77,-15.46 3.51,-7.27 5.52,-15.23 5.87,-23.3 0.51,-8.99 0.79,-20.4 0.79,-33.65l0 -461.37c0,-0.11 0,-0.23 0,-0.35 0,-7.97 -2.18,-15.81 -6.29,-22.63 -4.19,-6.8 -9.42,-12.95 -15.46,-18.17 -6.33,-5.4 -13.41,-9.91 -20.99,-13.33 -7.21,-3.46 -14.83,-6.11 -22.63,-7.86 -1.29,-0.33 -2.19,-1.49 -2.19,-2.82 0,-0.19 0.02,-0.39 0.06,-0.58 0.16,-1.39 1.33,-2.43 2.73,-2.43 0.09,0 0.17,0 0.26,0.01 21.77,1.16 43.52,1.79 65.3,2.42 21.78,0.62 43.32,0.82 64.55,0.82l103.88 0c25.15,0 47.85,2.23 68.26,6.59 20.41,4.37 37.68,12.2 51.97,23.29 14.3,11.1 25.22,25.88 33.09,44.21 7.8,18.14 11.7,41.44 11.71,69.92 -0.03,24.38 -4.59,48.64 -13.39,71.35l-0.05 -0.01zm-1996.59 -240.12c-3.36,30.32 -29.01,53.27 -59.52,53.27 -2.21,0 -4.43,-0.13 -6.62,-0.37 -32.89,-3.54 -56.79,-32.8 -53.18,-65.57 3.39,-30.36 29.06,-53.32 59.6,-53.32 33.11,0 59.97,26.86 59.97,59.97 0,2.01 -0.1,4.02 -0.3,6.02l0.05 0zm-278.93 -336.53c-1.38,14.45 -13.52,25.48 -28.03,25.48 -15.55,0 -28.17,-12.61 -28.17,-28.16 0,-15.55 12.62,-28.17 28.17,-28.17 1.02,0 2.05,0.06 3.06,0.17 14.28,1.58 25.1,13.66 25.1,28.03 0,0.88 -0.04,1.77 -0.13,2.65l0 0zm-33.95 339.59c-2.4,22.84 -23.08,39.23 -46,36.96 -23.08,-2.58 -39.75,-22.98 -37.24,-45.79 2.54,-21.02 20.38,-36.84 41.56,-36.84 23.11,0 41.85,18.74 41.85,41.85 0,1.28 -0.06,2.56 -0.17,3.82l0 0zm0 0l0 0 0 0zm2893.71 431.36c-9.51,0 -18.76,-0.16 -27.65,-0.82 -9.28,-0.54 -18.56,-1.66 -27.7,-3.37l0 -207.01c6.13,-2.78 12.64,-4.63 19.31,-5.46 6.42,-0.74 12.93,-1.16 19.4,-1.16 0.22,0 0.48,0 0.7,0 16.15,0 30.44,3.72 42.7,11.24 12.2,7.27 22.79,17.03 31.02,28.61 8.51,11.8 14.91,25.05 18.86,39.06 4.15,14.03 6.29,28.62 6.29,43.25 0,29.88 -6.01,53.38 -17.97,70.22 -11.95,16.84 -33.73,25.44 -64.96,25.44l0 0zm292.85 197.88c-16.73,2.06 -33.18,-0.83 -49.4,-8.83 -17.16,-8.74 -33,-20 -46.92,-33.29 -15.49,-14.58 -29.99,-30.49 -43.13,-47.24 -13.67,-17.52 -26.69,-34.55 -38.89,-51.25 -8.37,-11.1 -16.24,-21.71 -23.49,-32.02 -6.18,-8.82 -12.97,-17.37 -20.15,-25.39 19.24,-18.14 36.05,-38.84 49.84,-61.36 14.77,-23.98 22.26,-49.02 22.26,-75.72 0,-19.93 -3.98,-37.14 -11.75,-51.6 -7.4,-13.95 -18.07,-25.92 -31.05,-34.88 -13.48,-9.14 -28.55,-15.81 -44.38,-19.62 -16.58,-4.13 -33.7,-6.25 -50.8,-6.25 -0.08,0 -0.18,0 -0.26,0l-165.09 0c-1.65,0 -2.6,0.97 -2.95,2.89 -0.35,1.93 0.48,3.23 2.16,3.84 12.62,3.2 24.11,9.96 33.03,19.45 9.21,9.82 13.81,21.07 13.81,33.77l0 331.67c-0.03,12.83 -4.12,25.33 -11.68,35.69 -7.48,10.74 -17.6,19.39 -29.37,25.08 -1.75,0.97 -2.13,2.58 -1.27,4.5 0.86,1.93 2.06,2.58 3.75,2.09 12.88,-1.61 25.32,-3.05 37.3,-4.19 11.99,-1.13 24.37,-1.61 37.31,-1.61 12.94,0 25.53,0.35 38.06,1.3 12.53,0.95 25.29,1.75 38.17,2.89l0 -6.73c-16.25,-1.65 -29.28,-8.22 -38.99,-19.48 -9.72,-11.27 -14.64,-25.22 -14.64,-41.12l0 -118.11c4.07,-1.09 8.28,-1.7 12.5,-1.78l13.47 0c0.35,0 0.73,-0.01 1.09,-0.01 13.61,0 27.09,2.87 39.53,8.38 12.16,5.68 23.47,13.14 33.49,22.06 10.4,9.3 19.99,19.69 28.43,30.83 8.62,11.24 16.94,22.81 24.74,34.57 8.41,12.67 17.17,25.04 26.38,37.43 8.87,11.71 18.89,22.59 29.9,32.3 10.71,9.57 22.88,17.47 35.97,23.33 13.41,6.12 28.5,9.16 45.26,9.15 10.28,-0.05 20.59,-1.3 30.59,-3.69 10.19,-2.45 20.18,-5.98 29.67,-10.43l-2.5 -6.62 0 0zm-792.29 -198.64c10.66,-30.05 20.3,-59.03 28.93,-86.94 8.64,-27.9 18.28,-56.88 27.2,-86.02l51.97 172.96 -108.1 0zm237.69 161.19c-31.44,-59.31 -60.25,-121.39 -85.04,-183.93 -24.79,-62.5 -48.65,-124.83 -71.57,-187.01 -2.84,-7.73 -5.73,-15.29 -8.83,-22.85 -3.1,-7.55 -5.97,-15.08 -8.75,-22.8 -0.36,-1.51 -1.72,-2.58 -3.27,-2.58 -0.02,0 -0.05,0 -0.07,0.01 -0.06,-0.01 -0.13,-0.01 -0.19,-0.01 -1.54,0 -2.88,1.07 -3.21,2.58 -10.57,27.62 -20.64,55.31 -30.17,82.79 -9.53,27.48 -19.28,54.97 -29.27,82.58 -14.56,41.15 -29.37,81.79 -44.45,122.32 -15.09,40.54 -30.71,81.01 -46.89,121.34l0 -0.82c-12.22,28.31 -33.81,44.38 -64.48,48.23 -1.65,0.65 -2.32,1.93 -2.13,4.19 0.18,2.27 1.27,2.89 2.96,2.41 11.16,-0.97 22.36,-1.93 33.52,-2.76 11.16,-0.82 22.27,-1.4 33.5,-1.4 11.23,0 22.36,0.48 33.53,1.4 11.16,0.93 22.04,1.79 32.66,2.76l0 -6.6c-7.13,-1.19 -14.18,-3.05 -21,-5.47 -7.24,-2.4 -10.88,-7.87 -10.88,-16.24 0,-5.98 1.99,-15.95 5.8,-29.45 3.81,-13.49 8.45,-27.96 13.4,-43.21 4.96,-15.25 10.24,-29.93 15.53,-44.1 5.29,-14.17 9.28,-24.9 12.16,-31.98l129.89 0c9.41,26.53 19.4,52.4 29.72,77.65 10.31,25.25 20.19,50.94 29.77,76.98l-32.66 15.74c-1.69,1.16 -2.32,2.43 -1.69,4.18 0.38,1.43 1.66,2.42 3.12,2.42 0.08,0 0.15,0 0.22,-0.01 12.85,-0.96 25.66,-2.09 38.54,-3.22 12.88,-1.14 25.7,-1.76 38.48,-1.76 5.05,0 9.97,0.18 14.7,0.48 4.74,0.3 9.28,0.66 13.81,1.28 7.8,0.47 15.26,1.16 22.22,1.61 2.57,0.2 5.19,0.32 7.77,0.32 4.83,0 9.66,-0.37 14.43,-1.11l0 -6.63c-12.45,-0.71 -24.61,-4.12 -35.63,-9.97 -10.29,-5.5 -18.81,-14.68 -25.55,-27.35l0 -0.01zm1405.58 -407.93c-3.4,-0.14 -6.45,-0.32 -9.28,-0.32 -5.09,-0.4 -10.23,-0.63 -15.35,-0.63 -2.55,0 -5.18,0.07 -7.71,0.16 -7.49,0.3 -14.9,0.47 -22.22,0.47l-35.18 0c-11.98,-0.09 -24.09,-1.02 -35.98,-2.59 -1.16,-0.49 -2.09,0 -2.91,1.61 -0.83,1.62 -0.73,3.23 0.37,4.19 2.62,2.78 6,4.68 9.7,5.49 3.61,0.79 7.59,1.43 12.16,2.08 3.93,0.64 7.85,1.52 11.67,2.56 4.07,1.15 7.83,3.24 10.94,6.1 3.3,3.06 5.94,7.57 7.94,13.33 1.99,5.77 2.84,13.51 2.84,22.85 0,23.77 0.3,49.17 0.89,76.2 0.59,26.83 1.16,52.04 1.69,76.02 0.58,26.04 1,51.54 1.24,76.5 0.35,24.91 0.42,50.12 0.42,75.51l0 2.58c-58.61,-64.76 -116.4,-127.56 -173.37,-188.4 -56.93,-60.59 -115.87,-122.26 -176.82,-184.98 -0.27,-0.63 -0.9,-1.04 -1.59,-1.04 -0.31,0 -0.61,0.08 -0.88,0.24 -1.07,0.59 -1.95,1.48 -2.52,2.55l-6.69 13.39 0 389.16c0,12.68 -2.68,22.05 -7.98,27.8 -5.07,5.66 -11.2,10.32 -18.03,13.66 -3.26,1.79 -6.8,3.68 -10.44,5.81 -4.3,2.71 -8.39,5.8 -12.2,9.16 -0.61,0.62 -0.95,1.46 -0.95,2.32 0,0.67 0.2,1.32 0.58,1.87 0.4,1.17 1.5,1.95 2.73,1.95 0.36,0 0.71,-0.07 1.04,-0.19 10.62,-1.76 21.2,-3.23 31.82,-4.64 10.11,-1.38 20.36,-2.09 30.57,-2.09 0.13,0 0.27,0 0.41,0 7.87,0 15.73,0.3 23.9,0.79 8.17,0.48 16.02,1.43 23.85,2.57 5.59,0.62 11.02,1.16 16.32,1.61 5.29,0.46 10.72,1.16 16.31,1.76 0.13,0.01 0.26,0.02 0.38,0.02 1.26,0 2.34,-0.89 2.59,-2.12 0.05,-0.28 0.08,-0.56 0.08,-0.84 0,-1.14 -0.48,-2.24 -1.33,-3 -6.11,-4.33 -11.47,-7.26 -15.93,-8.7 -4.45,-1.44 -8.97,-2.57 -13.44,-3.68 -3.84,-0.57 -7.65,-1.55 -11.3,-2.92 -3.63,-1.47 -6.8,-3.91 -9.17,-7.03 -2.91,-4.19 -5.04,-8.9 -6.28,-13.85 -1.72,-5.8 -2.51,-13.33 -2.51,-22.81 0,-21.54 -0.24,-42.94 -0.82,-63.96 -0.58,-21.03 -1.42,-42.13 -2.55,-63.18 -1.12,-21.05 -1.96,-42.12 -2.54,-63.31 -0.58,-21.19 -0.79,-42.12 -0.79,-63 0,-14.45 0.85,-29.02 2.46,-43.4 7.8,8.35 14.81,16.25 21.02,23.77 6.21,7.52 13.09,15.26 20.96,23.64 22.82,26.66 46.82,53.99 72.01,81.97 25.19,27.98 49.2,55.3 76.67,82.99 26,27.5 52.39,54.38 79.18,80.66 26.78,26.28 53.17,53.17 80.41,73.62 0.53,0.58 1.28,0.91 2.07,0.91 0.62,0 1.23,-0.21 1.72,-0.6 1.18,-0.5 1.98,-1.61 2.1,-2.89 2.74,-31.63 4.64,-62.99 5.87,-94.33 1.23,-31.33 1.65,-63 1.65,-95.33l0 -33.87 -0.86 -200.4c0,-8.36 4.36,-14.16 13.02,-17.53 8.65,-3.36 16.89,-6.11 24.67,-8.35 1.16,-0.48 1.84,-0.65 2.12,-0.34 0.28,0.31 0.93,0.17 2.14,-0.49l-1.72 -6.55c-2.78,0 -5.83,-0.17 -9.17,-0.51zm-527.79 -4.47c-1.79,0.44 -3.67,1.09 -5.81,1.58 -9.55,2.89 -17.35,4.19 -23.56,4.19l-268.03 0c-0.42,0 -0.88,0 -1.3,0 -8.93,0 -17.93,-0.71 -26.73,-2.09 -8.76,-1.28 -17.21,-4.82 -25.53,-10.45 -2.32,-1.62 -3.96,-1.16 -5.06,1.75 -1.16,3.88 -2.16,7.56 -3.37,11.27 -1.16,3.48 -2.16,7.24 -3.29,11.09 -2.32,7.87 -4.47,15.74 -6.73,23.77 -2.24,8.07 -3.37,16.44 -3.37,24.82 0,0.18 0,0.39 0,0.57l1.71 10.79c0.01,0.01 0.01,0.02 0.01,0.03 0,1.55 1.02,2.91 2.5,3.34 0.32,0.14 0.66,0.21 1,0.21 1.18,0 2.19,-0.84 2.4,-2 4.58,-11.83 12.03,-22.37 21.64,-30.66 9.5,-8.56 21.86,-13.32 34.66,-13.32 0.18,0 0.37,0 0.54,0l100.55 0 0 360.78c0,9.51 -0.27,17.4 -0.85,23.81 -0.58,6.41 -2.27,11.39 -5.05,15.25 -3.09,4.26 -7.29,7.6 -12.13,9.66 -5.36,2.57 -12.76,4.8 -22.19,7.04 -1.71,0.48 -2.32,1.95 -2.1,4.19 0.22,2.24 1.25,3.05 2.93,2.44 11.16,-1.16 22.05,-1.96 32.66,-2.44 10.62,-0.48 21.51,-0.79 32.7,-0.79 14.53,0 28.69,0.34 42.74,1.27 14.06,0.92 28.13,1.78 42.67,2.75 1.72,0 2.67,-0.79 2.95,-2.75 0.28,-1.97 -0.41,-3.37 -2.09,-3.85 -15.66,-2.71 -28.52,-9.65 -38.55,-20.71 -10.02,-11.06 -15.08,-24.77 -15.08,-40.85l0 -356.65 73.74 0c17.91,0 33.33,3.23 46.52,9.51 13.2,6.28 21.95,19.28 26.38,38.73 0.52,1.61 1.38,2.57 2.54,2.57 1.57,-0.01 2.93,-1.06 3.34,-2.58 3.41,-13 5.41,-26.41 5.88,-39.84 0.51,-14.47 0.86,-27.97 0.86,-40.85l-4.26 -3.19c-2.23,0.47 -4.26,1.09 -5.84,1.61l0 0zm1048.64 244.41c-9.52,0 -18.76,-0.16 -27.62,-0.81 -9.28,-0.52 -18.54,-1.69 -27.65,-3.38l0 -207.01c6.08,-2.8 12.59,-4.64 19.23,-5.45 6.43,-0.77 12.94,-1.17 19.42,-1.17 0.22,0 0.46,0 0.68,0 16.18,0 30.51,3.72 42.74,11.24 12.18,7.27 22.76,17.05 30.97,28.62 8.52,11.8 14.92,25.04 18.87,39.05 4.14,14.03 6.3,28.61 6.32,43.25 0,29.88 -6.05,53.38 -18.07,70.22 -12.02,16.84 -33.66,25.43 -64.89,25.43l0 0.01zm244.01 196.61c-16.24,-8.04 -31.88,-19.13 -46.92,-33.29 -15.45,-14.61 -29.98,-30.44 -43.1,-47.22 -13.74,-17.52 -26.69,-34.56 -38.99,-51.26 -8.38,-11.09 -16.24,-21.71 -23.5,-32.01 -6.14,-8.83 -12.91,-17.39 -20.07,-25.4 19.2,-18.17 36.07,-38.89 49.9,-61.38 14.74,-23.97 22.12,-49.01 22.12,-75.71 0,-19.94 -3.91,-37.14 -11.74,-51.61 -7.35,-13.95 -18.01,-25.94 -30.99,-34.87 -13.46,-9.14 -28.52,-15.8 -44.34,-19.61 -16.64,-4.13 -33.76,-6.26 -50.9,-6.26 -0.05,0 -0.11,0 -0.16,0l-165.15 0c-1.68,0 -2.67,0.97 -2.88,2.89 -0.21,1.93 0.41,3.19 2.06,3.84 12.64,3.18 24.13,9.95 33.06,19.45 9.21,9.82 13.82,21.07 13.81,33.77l0 331.67c-0.04,12.83 -4.14,25.33 -11.68,35.7 -7.45,10.78 -17.61,19.43 -29.44,25.07 -1.61,0.96 -2.03,2.58 -1.16,4.5 0.87,1.93 2.14,2.58 3.82,2.09 12.77,-1.61 25.25,-3.05 37.28,-4.19 12.02,-1.14 24.36,-1.61 37.3,-1.61 12.94,0 25.53,0.35 38.07,1.3 12.53,0.95 25.25,1.75 38.16,2.89l0 -6.73c-16.24,-1.65 -29.28,-8.22 -38.95,-19.49 -9.68,-11.26 -14.71,-25.21 -14.71,-41.11l0 -118.11c4.1,-1.1 8.33,-1.71 12.57,-1.78l13.37 0c0.38,0 0.8,-0.01 1.19,-0.01 13.59,0 27.06,2.87 39.48,8.39 12.16,5.67 23.47,13.13 33.5,22.05 10.46,9.28 20.05,19.68 28.51,30.85 8.58,11.24 16.87,22.81 24.67,34.56 8.41,12.68 17.24,25.05 26.44,37.44 8.75,11.69 18.74,22.56 29.64,32.28 10.8,9.52 22.97,17.4 36.07,23.33 13.48,6.11 28.57,9.16 45.26,9.15 10.27,-0.05 20.55,-1.31 30.52,-3.69 10.23,-2.46 20.23,-6 29.8,-10.44l-2.55 -6.59c-16.69,2.03 -33.18,-0.86 -49.37,-8.85l0 0zm297.71 -144.18c-5.65,-12.95 -12.98,-25.14 -21.79,-36.18 -9.2,-11.69 -19.44,-22.58 -30.51,-32.48 -11.51,-10.27 -23.11,-20.08 -34.87,-29.56 -10.54,-8.83 -20.89,-17.53 -31.02,-26.18 -9.4,-8.02 -18.21,-16.74 -26.33,-26.05 -7.14,-8.42 -13.36,-17.68 -18.42,-27.5 -4.68,-9.35 -7.12,-19.7 -7.12,-30.17 0,-0.23 0,-0.47 0,-0.7 0,-21.07 7.11,-38.42 21.33,-51.91 14.21,-13.5 31.95,-20.39 53.23,-20.39 20.64,0 37.34,6.96 49.89,20.75 12.56,13.78 21.07,30.5 25.53,49.9 0.39,1.44 1.69,2.44 3.18,2.44 0.06,0 0.13,0 0.19,0 0.07,0 0.14,0 0.2,0 1.48,0 2.77,-1 3.13,-2.44 4.43,-28.76 7.83,-56.86 10.07,-84.03 0,-1.16 -0.82,-2.1 -2.51,-3.22 -18.48,-5.61 -38.82,-8.36 -61.15,-8.36 -17.21,0.19 -34.42,2.31 -51.18,6.26 -17.82,3.93 -35.04,10.41 -51.06,19.14 -15.28,8.2 -28.72,19.57 -39.34,33.29 -10.68,13.49 -15.9,29.7 -15.9,48.54 0,-0.01 0,0 0,0 0,12.93 2.86,25.73 8.35,37.43 5.89,12.77 13.21,24.96 21.72,36.16 9.35,12.38 19.77,24.06 30.99,34.8 11.78,11.44 23.51,22.7 35.2,33.78 11.2,10.45 22.12,21.05 32.7,31.67 10.07,9.91 19.64,20.47 28.5,31.49 7.8,9.62 14.57,20.13 20.11,31.2 4.89,9.65 7.49,20.34 7.56,31.16 0,0.18 0,0.37 0,0.54 0,10.52 -2.93,20.86 -8.42,29.82 -5.51,9.08 -12.78,17.03 -21.33,23.34 -8.72,6.41 -18.51,11.31 -28.86,14.45 -10.02,3.24 -20.52,4.94 -31.05,4.99 -0.09,0 -0.18,0 -0.26,0 -10.54,0 -21.08,-1.54 -31.18,-4.51 -9.91,-2.89 -19.18,-7.71 -27.25,-14.15 -7.73,-6.3 -14.27,-14.01 -19.23,-22.66 -5.06,-8.82 -7.58,-19.11 -7.57,-30.87l0 -12.42c0,-1.75 -1.09,-2.58 -3.36,-2.58 -2.28,0 -3.33,0.83 -3.33,2.58l-4.19 19.92c-1.11,6.12 -2.32,12.41 -3.75,19 -1.41,6.58 -2.15,13.33 -2.16,20.07 0,10.62 2.44,19.3 7.17,26.21 4.84,6.93 11.14,12.75 18.42,17.03 7.78,4.52 16.28,7.74 25.11,9.48 8.66,1.86 17.49,2.85 26.35,2.89 17.4,0 35.68,-3.06 54.92,-9.48 18.8,-6.18 36.64,-15.17 52.83,-26.53 15.59,-11.14 28.97,-25.21 39.35,-41.32 10.11,-15.56 15.49,-33.75 15.49,-52.31 0,-0.27 0,-0.58 0,-0.85 0,-0.31 0,-0.63 0,-0.94 0,-13.94 -2.86,-27.75 -8.38,-40.54l0 0zm-775.62 124.22c-13.77,10.31 -30.4,15.46 -49.89,15.46 -14.58,0 -29.48,-3.23 -44.88,-9.66 -15.4,-6.42 -27.2,-15.77 -35.55,-27.85l0 -171.29 44.38 0c8.42,0 16.88,0.48 25.6,1.27 8.73,0.79 16.72,1.96 24.28,3.4 7.55,1.44 12.68,3.37 15.47,6.11 2.58,2.59 4.59,5.72 5.87,9.14 1.07,3.37 2.26,6.77 3.33,9.96 1.16,3.41 2.1,6.43 2.92,9.35 1.12,3.11 2.98,5.9 5.42,8.13 0.6,0.72 1.49,1.13 2.42,1.13 0.47,0 0.94,-0.1 1.36,-0.31 1.3,-0.44 2.16,-1.65 2.16,-3.02 0,-0.12 0,-0.25 -0.02,-0.38 1.09,-6.55 1.91,-13.49 2.51,-20.71 0.45,-6.95 1.33,-13.9 2.53,-20.75 1.17,-6.73 2.09,-13.81 2.92,-21.68 0.82,-7.87 1.55,-14.94 2.06,-21.54 0,-3.36 -1.37,-4.5 -4.15,-3.36 -6.4,1.78 -12.6,4.33 -18.41,7.56 -4.54,1.58 -8.97,3.37 -13.42,4.98 -4.46,1.61 -8.13,2.54 -10.9,2.54l-97.19 0 0 -170.58 66.15 0c17.89,-0.01 32.97,3.05 45.25,9.17 12.3,6.12 18.96,18.82 20.06,38.3 0,1.57 0.99,2.56 2.95,2.87 1.96,0.32 3.26,-0.51 3.75,-2.09 2.78,-12.76 5.43,-25.38 8.01,-37.93 2.5,-12.36 4.64,-25.87 6.27,-40.19 0,-3.36 -1.44,-4.5 -4.15,-3.36 -2.3,1.13 -4.71,2.1 -7.15,2.88 -2.44,0.78 -4.84,1.74 -7.13,2.88l-238.69 0c-1.65,0 -2.72,0.65 -2.95,2.1 -0.05,0.27 -0.08,0.53 -0.08,0.8 0,1.18 0.5,2.3 1.38,3.08 4.08,2.51 8.45,4.56 12.98,6.08 4.16,1.44 7.91,2.75 11.27,3.72 5.97,2.21 11.74,5.02 17.18,8.35 5.29,3.36 7.97,10.61 7.97,21.53l0 346.04c0,0.04 0,0.13 0,0.17 0,7.02 -0.43,14.1 -1.27,21.06 -0.7,6.48 -2.57,12.8 -5.46,18.65 -2.83,5.54 -7,10.3 -12.13,13.81 -5.36,3.48 -12.13,5.29 -20.52,5.29l0 6.84c15.02,-0.65 30.31,-0.97 45.67,-1.45 15.35,-0.17 30.57,-0.34 45.58,-0.34 11.27,0 22.13,0.17 32.77,0.34 10.55,0.48 21.48,0.62 32.64,0.62 12.77,0 25.83,0 38.96,0.35 13.12,0.35 26.07,0.48 38.92,0.48 3.76,-0.2 7.46,-1.08 10.92,-2.58l0.86 -0.82c2.24,0 3.36,-0.79 3.36,-2.55 1.62,-12.76 3.31,-25.07 4.96,-37 1.65,-11.93 3.91,-24.25 6.73,-36.96l-6.73 -1.61c-4.39,18.85 -13.54,33.3 -27.14,43.57l-0.01 0z"/></g><g><path fill="#003768" fill-rule="nonzero" d="M613.25 2143.29c-144.37,-135.49 -216.32,-320.47 -216.32,-510.62 0,-196.74 76.67,-399.19 229.58,-559.46 1.46,-1.55 3.49,-2.42 5.62,-2.42 4.27,0 7.73,3.46 7.73,7.72 0,1.98 -0.76,3.88 -2.11,5.31 -150.06,157.3 -225.22,356.16 -225.22,548.85 0,186.44 70.39,366.96 211.44,499.39 130.36,122.43 299.11,182.55 472.18,182.55 207.29,0 420.68,-86.47 581.49,-255.22 1.47,-1.53 3.5,-2.41 5.63,-2.41 4.3,0 7.79,3.49 7.79,7.79 0,2.01 -0.77,3.93 -2.15,5.38 -163.73,171.84 -381.15,259.94 -592.76,259.94 -176.64,0 -349.44,-61.6 -482.9,-186.83l0 0.03zm0 0l0 0 0 0z"/></g><g><path fill="#003768" fill-rule="nonzero" d="M2666.03 1587.67c-5.58,-19.3 -14.41,-37.59 -26,-54 -11.17,-15.87 -25.64,-29.26 -42.3,-39.22 -16.77,-9.79 -36.35,-14.77 -58.65,-14.77 -0.04,-0.01 -0.07,-0.01 -0.09,-0.01 -9.35,0 -18.73,0.65 -27.98,1.9 -9.27,1.5 -18.45,3.89 -27.28,7.1l0 282.77c12.87,2.26 25.97,3.82 39.03,4.65 13.09,0.82 25.81,1.16 38.06,1.16 42.42,-0.01 72.05,-11.62 88.87,-34.83 16.67,-23.32 25.08,-54.78 25.08,-94.84 -0.02,-20.22 -3.02,-40.38 -8.76,-59.77l0.02 -0.14zm254.63 494.03c-13.54,3.29 -27.5,4.98 -41.45,4.98 -0.26,0 -0.58,0 -0.84,0 -0.4,0 -0.82,0 -1.22,0 -20.43,0 -40.67,-4.56 -59.12,-13.32 -18.49,-8.93 -35.75,-20.45 -51.06,-34.1 -15.95,-14.2 -30.57,-29.96 -43.53,-46.91 -13.45,-17.52 -26.01,-34.83 -37.7,-51.91 -11.78,-17.21 -25.01,-35.35 -39.85,-54.18 -14.84,-18.84 -29.44,-34.38 -43.94,-46.62 -10.95,-9.24 -24.36,-15.2 -38.57,-17.15 -14.37,-1.89 -28.98,-2.92 -43.52,-2.92 0,0 -0.04,0 -0.04,0l-18.48 0c-6.09,0 -12.24,0.35 -18.39,0.82l0 160.58c0,22.64 6.84,41.95 20.52,57.68 13.74,15.9 31.67,24.91 54.03,27.17l0 6.61c-17.41,-1.63 -34.63,-3.07 -51.94,-4.21 -17.31,-1.13 -34.59,-1.61 -51.91,-1.61 -17.31,0 -34.38,0.65 -51.11,2.1 -16.74,1.45 -33.77,3.23 -51.06,5.33 -1.72,0.61 -2.82,0 -3.37,-2.1 -0.13,-0.41 -0.21,-0.84 -0.21,-1.28 0,-1.34 0.71,-2.58 1.87,-3.26 16.3,-7.32 30.35,-18.92 40.62,-33.55 10.89,-15.29 16.38,-31.85 16.38,-49.51l0 -450.67c0,-17.69 -6.59,-33.28 -19.72,-46.62 -12.45,-12.91 -28.27,-22.11 -45.66,-26.52 -1.27,-0.29 -2.17,-1.43 -2.17,-2.73 0,-0.21 0.02,-0.43 0.07,-0.63 0.08,-1.45 1.27,-2.59 2.73,-2.59 0.07,0 0.15,0.01 0.23,0.01l15.86 0c8.39,0 16.74,0.16 25.15,0.48 8.41,0.31 16.46,0.65 24.29,1.27 16.76,1.61 33.53,2.43 50.29,2.44 17.83,0 36.01,-0.81 54.54,-2.44 9.41,-0.62 18.57,-0.96 27.18,-1.27 8.61,-0.32 17.75,-0.48 27.27,-0.48 23.11,0 46.24,2.85 68.67,8.35 21.34,5.09 41.61,14.02 59.83,26.22 17.54,11.8 32.06,27.65 42.33,46.12 10.62,18.98 15.94,41.95 15.94,69.13 -0.05,17.86 -2.9,35.68 -8.34,52.7 -5.59,17.5 -13.07,34.36 -22.23,50.3 -9.17,16.01 -19.93,31.23 -31.87,45.28 -11.34,13.48 -23.59,26.43 -36.36,38.55 7.8,9.01 17,20.58 27.62,35.04 10.61,14.46 21.46,29.1 32.66,44.09 16.75,22.66 34.35,45.96 52.79,69.93 17.56,22.88 37.09,44.39 58.24,63.99 20.35,18.77 41.56,33.61 63.64,44.5 17.03,8.46 35.83,12.88 54.86,12.88 4.75,0 9.55,-0.28 14.26,-0.82l1.65 6.55c-12.72,6.03 -26.09,10.83 -39.78,14.16l-0.08 0.14zm-755.63 -529.86c-4.44,-13.74 -11.41,-26.57 -20.49,-37.79 -9,-10.86 -20.32,-19.66 -33.08,-25.69 -13.16,-6.43 -27.82,-9.65 -43.98,-9.65 -7.88,0.05 -15.76,0.93 -23.46,2.57 -7.87,1.62 -15.67,3.54 -23.47,5.81l0 227.07 5.02 0c0.7,0 1.49,0 2.2,0 19.33,0 38.65,-1.58 57.72,-4.67 18.17,-3.01 33.65,-8.81 46.42,-17.51 12.76,-8.69 22.81,-20.41 29.75,-35.66 6.94,-15.24 10.44,-35.04 10.44,-59.47 0,-0.11 0,-0.3 0,-0.44 0,-15.12 -2.43,-30.2 -7.12,-44.54l0.05 -0.03zm56.54 320.65c-4.92,-15.78 -12.14,-30.78 -21.33,-44.52 -9.21,-13.94 -20.24,-26.67 -32.69,-37.8 -12.32,-11.28 -26.33,-20.73 -41.43,-27.96 -15.32,-7.81 -32.16,-12.34 -49.34,-13.19 -17.93,-1.16 -34.95,-1.75 -51.19,-1.75l-5.8 0 0 236.24c-0.01,0.23 -0.02,0.48 -0.02,0.72 0,9.82 3.28,19.38 9.29,27.13 6.33,8.24 14.16,15.29 23.03,20.71 9.2,5.84 19.26,10.36 29.74,13.34 9.91,3 20.22,4.53 30.59,4.53 16.1,0 32,-3.69 46.46,-10.78 14.36,-7.09 27.22,-16.99 37.73,-29.09 10.59,-12.22 18.87,-26.37 24.28,-41.61 5.53,-15.32 8.38,-31.52 8.38,-47.81 0,-0.14 0,-0.29 0,-0.43 -0.04,-16.2 -2.59,-32.33 -7.51,-47.75l-0.19 0.02zm64.25 97.24c-10.43,21.9 -25.28,41.46 -43.56,57.4 -18.45,16.04 -39.81,28.51 -62.86,36.62 -23.75,8.5 -48.89,12.88 -74.14,12.88 -0.3,0 -0.59,0 -0.89,0l-53.69 0c-17.89,0 -35.97,-0.32 -54.45,-0.79 -17.85,-0.66 -35.89,-0.96 -54,-1.28 -18.12,-0.31 -36.21,-0.47 -54.1,-0.47 -1.58,0 -2.58,-1 -2.93,-2.89 -0.34,-1.89 0.49,-3.26 2.1,-3.75 10.54,-2.99 20.84,-7.06 30.62,-12.02 7.5,-4.19 13.08,-9.17 16.74,-14.95 3.89,-6.63 6.31,-14.05 7.05,-21.71 1.17,-9.74 1.77,-19.59 1.77,-29.42 0,-1.11 -0.03,-2.27 -0.03,-3.35l0 -469.85c0,-9.29 -0.96,-16.87 -2.96,-22.49 -1.47,-4.78 -4.22,-9.06 -7.95,-12.38 -3.24,-2.76 -7.13,-4.64 -11.3,-5.46 -4.21,-0.83 -8.53,-1.44 -12.95,-2.11 -5.78,-0.37 -11.56,-1.26 -17.19,-2.57 -5.32,-0.95 -10.21,-4.49 -14.67,-10.61 -1.16,-1.27 -1.23,-2.24 -0.41,-3.36 0.83,-1.13 2.06,-1.45 3.74,-0.83 15.99,3.17 32.28,4.9 48.6,5.03 12.3,0 24.37,-0.67 35.97,-1.79 11.61,-1.13 23.21,-2.24 34.35,-3.23 11.76,-1.16 23.43,-1.89 35.21,-2.54 11.78,-0.65 23.21,-0.84 34.36,-0.84 20.09,0.08 40.07,2.78 59.47,7.89 19.84,4.95 38.85,13.12 56.1,24.09 16.57,10.62 30.76,24.68 41.51,41.17 10.89,16.73 16.35,35.97 16.35,58.19 0,0.06 0,0.13 0,0.19 0,13.56 -2.31,27.04 -6.78,39.83 -4.56,12.92 -10.6,25.38 -17.94,36.96 -7.56,11.89 -16,23.32 -25.17,34.04 -8.8,10.34 -18.2,20.25 -28.06,29.6 19.11,5.96 37.52,14.38 54.54,24.93 16.4,10.22 31.26,22.86 43.96,37.43 12.62,14.45 22.58,31.08 29.32,49.03 6.89,18.35 10.44,37.84 10.44,57.44 0,0.22 0,0.5 0,0.72 -0.01,27.65 -5.46,52.73 -16.36,75.23l0.19 0.02zm-1386.9 -135.79c-6.53,60.56 -61.36,104.43 -122.37,98.04 -61,-6.39 -105.26,-60.91 -98.72,-121.54 6.53,-60.63 61.28,-104.44 122.36,-98.01 61.09,6.43 105.29,60.91 98.73,121.51z"/></g></g></svg>