<svg  id="fndm-293gthk110" viewBox="0.034578800201416016 -0.009680747985839844 770.2830200195312 366.5691223144531" xmlns="http://www.w3.org/2000/svg">
   <g xmlns="http://www.w3.org/2000/svg" fill="none">
    <path d="m181,259.7c34.9,-13.1 69,-31 98.8,-54.7c-26.8,-10.3 -52,-24.4 -74.9,-41.3c-6.3,33.2 -14.5,65.8 -23.9,96" fill="#E63329"/>
    <path d="m293.7,134.1c-15.1,-15.9 -26.8,-35.6 -35,-57c-14.6,-1.6 -28.1,-4.1 -40.9,-7.8c-2.3,30.8 -6.7,62.8 -12.8,94.4c29.7,-4.1 59.7,-13.8 88.7,-29.6" fill="#F39121"/>
    <path d="m205,163.7c22.9,17 48.1,31.1 74.9,41.3c16.9,-13.4 32.5,-28.7 46.1,-46c-12.1,-6.5 -22.8,-15 -32.3,-25c-29,15.9 -59,25.6 -88.7,29.7" fill="#EC6624"/>
    <path d="m205,163.7c-17.6,-13.1 -33.9,-27.9 -48.3,-44c-11.4,14.5 -24.2,28.2 -38,40.3c27.7,6.3 56.9,7.7 86.3,3.7" fill="#E95028"/>
    <path d="m139.4,361.2c41.2,10.2 83.3,5.5 120,-11.2c-19.9,-2 -40,-6.1 -59.7,-11.9c-19,9.3 -39.1,17.1 -60.3,23.1m-53.9,-77c13.8,30.8 31.8,57.6 53.9,77c6.3,-11.2 12.5,-24 18.5,-38c-25.3,-10.6 -49.7,-23.8 -72.4,-39" fill="#234295"/>
    <path d="m139.4,361.2c21.2,-6 41.3,-13.8 60.2,-23.1c-14.1,-4.1 -28,-9.1 -41.7,-14.9c-5.9,14 -12.2,26.8 -18.5,38" fill="#0A66B0"/>
    <path d="m181,259.7c17.5,21.9 36.3,41.5 55.7,57.4c25,-16.2 47.5,-34.9 66.9,-55.3c-37.4,9.7 -80.3,8.5 -122.6,-2.1m-121.4,-61.2c5.4,29.9 14.1,59.3 25.9,85.8c30.9,-4.6 63.6,-12.5 95.5,-24.5c-43.4,-11 -86.1,-31.9 -121.4,-61.3" fill="#7C2F88"/>
    <path d="m181,259.7c-23.9,-30 -45.3,-64.5 -62.4,-99.8c-18.5,16.2 -38.6,29.6 -59,38.5c35.3,29.5 78,50.4 121.4,61.3" fill="#B92A2E"/>
    <path d="m53,134c0.5,21.2 2.7,43 6.6,64.5c20.4,-8.9 40.5,-22.3 59,-38.5c-23.1,-5.4 -45.2,-14.1 -65.6,-26" fill="#E32127"/>
    <path d="m205,163.7c-29.4,4 -58.6,2.6 -86.3,-3.8c17.1,35.3 38.5,69.7 62.4,99.8c9.3,-30.1 17.5,-62.8 23.9,-96z" fill="#D12429"/>
    <path d="m279.8,205c18.6,7.2 38,12.4 57.8,15.6c11.2,-15.9 20.8,-32.2 28.6,-48.7c-14.7,-1.9 -28.1,-6.3 -40.3,-12.9c-13.5,17.4 -29.1,32.6 -46.1,46" fill="#EF7824"/>
    <path d="m59.6,198.5c-21,-17.4 -39.4,-37.9 -53.7,-61c-6.3,24.3 -7.4,49 -3.9,72.7c18.7,1.1 38.3,-3.3 57.6,-11.7" fill="#8A2E88"/>
    <path d="m59.6,198.5c-3.9,-21.5 -6.1,-43.3 -6.6,-64.5c-12.9,-7.5 -25.2,-16.3 -36.6,-26.3c-1.9,4.2 -3.7,8.5 -5.3,12.9c-2,5.6 -3.8,11.2 -5.2,16.9c14.3,23.1 32.7,43.5 53.7,61" fill="#C8262B"/>
    <path d="m2,210.2c4.2,28.4 15.1,55.4 31.6,78.8c16.4,-0.5 33.8,-2.1 51.9,-4.7c-32.3,-21.6 -61,-47 -83.5,-74.1" fill="#0B55A3"/>
    <path d="m59.6,198.5c-19.3,8.4 -38.9,12.8 -57.6,11.7c22.5,27.1 51.2,52.5 83.5,74.1c-11.8,-26.5 -20.5,-55.9 -25.9,-85.8" fill="#2B3B8F"/>
    <path d="m139.4,361.2c-22.1,-19.3 -40.1,-46.2 -53.9,-77c-18.1,2.7 -35.6,4.2 -51.9,4.7c20.8,29.5 50.5,53.2 87,66.5c6.3,2.4 12.5,4.3 18.8,5.8" fill="#0A66B0"/>
    <path d="m199.7,338.1c19.8,5.8 39.8,9.8 59.7,11.9c5,-2.3 10,-4.8 14.8,-7.6c-12.6,-6.7 -25.1,-15.3 -37.4,-25.3c-11.9,7.6 -24.2,14.7 -37.1,21" fill="#0B55A3"/>
    <path d="m303.7,261.8c20.2,-5.2 38.9,-13.6 55,-25.4c1.3,-4.4 2.5,-8.7 3.5,-13.1c-8.2,-0.5 -16.4,-1.4 -24.5,-2.7c-10.1,14.2 -21.4,28.1 -34,41.2" fill="#E44025"/>
    <path d="m366.2,171.9c-7.8,16.5 -17.4,32.8 -28.6,48.7c8.1,1.3 16.3,2.2 24.5,2.7c3.9,-17.1 5.2,-34.4 4.1,-51.4" fill="#F39121"/>
    <path d="m236.7,317.1c12.3,10 24.8,18.6 37.4,25.3c36.4,-20.8 65.9,-54 81.3,-96.5c1.2,-3.2 2.2,-6.4 3.2,-9.6c-16.1,11.8 -34.8,20.2 -55,25.4a359.28,359.28 0 0 1 -66.9,55.4" fill="#9D2B4F"/>
    <path d="m217.7,69.3c12.8,3.7 26.3,6.2 40.9,7.8c-8.2,-21.2 -13,-44.1 -14.1,-66.6c-8.4,-3 -16.9,-5.3 -25.4,-7c0.9,20.9 0.3,43 -1.4,65.8" fill="#F8AD1C"/>
    <path d="m217.7,69.3c1.7,-22.8 2.2,-44.9 1.4,-65.8c-4.4,-0.9 -8.8,-1.6 -13.3,-2.2c0,18.5 -4.9,38.5 -13.4,58.6c8.2,3.8 16.6,6.9 25.3,9.4" fill="#F59C20"/>
    <path d="m53,134c20.4,11.9 42.5,20.6 65.6,26c-20.9,-43.2 -35.4,-87.7 -40.1,-127c-5.6,3.9 -11.1,8.2 -16.2,12.7c-7,26.3 -10.1,56.7 -9.3,88.3" fill="#E95028"/>
    <path d="m156.6,119.7c-26.3,-29.5 -46.6,-63.2 -58.6,-98.6c-6.7,3.5 -13.2,7.5 -19.5,11.8c4.7,39.4 19.2,83.8 40.1,127c13.8,-12.1 26.6,-25.7 38,-40.2" fill="#ED7025"/>
    <path d="m192.4,60c-24.1,-10.8 -46.3,-26.9 -69.8,-49.6c-8.4,3 -16.7,6.6 -24.6,10.7c12,35.4 32.3,69.1 58.7,98.5c14.8,-18.9 27.1,-39.3 35.7,-59.6" fill="#F39121"/>
    <path d="m258.6,77.1c8.2,21.4 20,41.1 35,57c17.8,-9.7 35.1,-21.7 51.9,-36c-3.6,-6.9 -7.7,-13.5 -12.1,-19.9c-28.4,1.4 -52.8,1.3 -74.8,-1.1" fill="#F08225"/>
    <path d="m326,159.1c10.5,-13.3 19.8,-27.7 27.6,-43.4c-2.4,-6 -5.1,-11.9 -8.1,-17.6c-16.7,14.4 -34.1,26.4 -51.9,36c9.5,10 20.3,18.5 32.4,25" fill="#F39121"/>
    <path d="m366.2,171.9c-1.2,-19.4 -5.5,-38.4 -12.6,-56.3c-7.9,15.7 -17.2,30.2 -27.6,43.4c12.1,6.6 25.5,11.1 40.2,12.9" fill="#EC6624"/>
    <path d="m205,163.7c6.1,-31.5 10.5,-63.5 12.8,-94.4c-8.7,-2.5 -17.1,-5.6 -25.3,-9.3c-8.6,20.3 -20.9,40.7 -35.8,59.6c14.4,16.2 30.6,31 48.3,44.1" fill="#F08225"/>
    <path d="m181,259.7c-7.1,22.9 -14.9,44.4 -23.1,63.5c13.7,5.7 27.6,10.7 41.7,14.9c12.9,-6.3 25.3,-13.4 37.1,-21c-19.4,-15.8 -38.2,-35.4 -55.7,-57.4" fill="#234295"/>
    <path d="m181,259.7c-31.9,12 -64.6,19.9 -95.5,24.5c22.6,15.1 47.1,28.4 72.4,39c8.3,-19.1 16,-40.6 23.1,-63.5" fill="#942F88"/>
    <path d="m181,259.7c42.2,10.6 85.1,11.8 122.6,2.1c12.6,-13.2 23.9,-27 34,-41.2c-19.8,-3.1 -39.2,-8.4 -57.8,-15.6c-29.8,23.7 -63.8,41.6 -98.8,54.7" fill="#D12429"/>
    <path d="m62.3,45.7c-19.1,16.7 -34.9,37.7 -45.9,62c11.4,10 23.7,18.8 36.6,26.3c-0.8,-31.6 2.3,-62 9.3,-88.3" fill="#ED7025"/>
    <path d="m333.4,78.2c-20.8,-29.8 -50.7,-53.7 -87.4,-67.1c-0.5,-0.2 -1,-0.4 -1.5,-0.5c1.2,22.5 6,45.3 14.1,66.6c22,2.3 46.4,2.4 74.8,1m-127.6,-76.8c-28.6,-3.6 -57,-0.2 -83.3,9c23.6,22.7 45.8,38.8 69.8,49.6c8.6,-20.1 13.5,-40.1 13.5,-58.6" fill="#FCC112"/>
    <path d="m710.8,146.1c0,-10.5 0.4,-17 3.4,-23.3c9,1.1 26.2,3.3 36.5,0.4c18.6,-5.3 19.8,-27.3 19.6,-39.9c-10.5,-0.8 -23.4,-0.6 -36.4,1.3c-35.2,5 -61.2,30.6 -61.2,72.3l0,129.2l38,0l0,-98.3l26,0c17.9,0 20.5,-12.4 20.5,-30.8l-46.5,0l0,-10.9l0.1,0zm-101.3,75.2c0,-11.5 0,-22.9 2.7,-30c8.2,1 20.5,1.9 27.9,-0.4c18.8,-5.7 18.5,-26.8 18.5,-39c-10.7,-0.7 -20.8,-0.2 -32.3,1.6c-32.2,4.9 -54.9,29.4 -54.9,71.1l0,61.5l38,0l0,-64.8l0.1,0zm-99.1,31.7c-31,8 -52.8,-8.4 -52.8,-38.6l0,-26.6c6.7,-4 13.8,-6.7 24.3,-6.7c36.8,0 44,39 28.5,71.9zm-17.7,-103.4c-13.8,0 -26.6,5.2 -35,10.5l0,-76.5c-15.1,-0.2 -31.3,7.1 -38.2,13.2l0,117c0,47.8 30,72.6 67.9,72.6c37.7,0 68.6,-30.8 68.6,-72.3c-0.1,-33.7 -23.8,-64.5 -63.3,-64.5z" fill="#241F21"/>
   </g>
  </svg>