<svg  id="fndm-dy879y2v6y" viewBox="0 0 556.0609741210938 109.08000183105469" xmlns="http://www.w3.org/2000/svg">
   <path d="m0,109.08l556.061,0" stroke-width="0.5" stroke-miterlimit="2.613" stroke="#0f2659" fill="none"/>
   <path clip-rule="evenodd" d="m319.426,22.138l-18.568,0l9.239,-17.109l9.329,17.109z" stroke-width="0.482" stroke-miterlimit="2.613" stroke="#c79f2a" fill-rule="evenodd" fill="#c79f2a"/>
   <path clip-rule="evenodd" d="m356.594,91.54l-46.497,-86.511l-46.496,86.511l46.496,-91.54l46.497,91.54z" fill-rule="evenodd" fill="#0f2659"/>
   <path d="m300.773,91.54l-18.566,0l9.284,-17.272l9.282,17.272zm18.609,0l-18.568,0l9.283,-17.272l9.285,17.272zm18.605,0l-18.566,0l9.283,-17.272l9.283,17.272zm-27.909,-17.309l-18.568,0l9.284,-17.273l9.284,17.273zm18.607,0l-18.567,0l9.283,-17.273l9.284,17.273zm-9.303,-17.31l-18.568,0l9.283,-17.273l9.285,17.273zm9.62,-17.31l-18.885,0l9.602,-17.272m-28.463,17.272l18.883,0l-9.601,-17.272m-18.629,34.605l18.885,0l-9.601,-17.272m47.108,17.272l-18.883,0l9.601,-17.272m-56.417,34.565l18.885,0l-9.602,-17.271m65.713,17.271l-18.885,0l9.601,-17.271m-74.924,34.58l18.796,0l-9.539,-17.272l-9.257,17.272zm93.486,0l-18.857,0l9.601,-17.272l9.256,17.272z" stroke-width="0.5" stroke-miterlimit="2.613" stroke="#0f2659" fill="none"/>
   <path clip-rule="evenodd" d="m378.334,70.644c-0.276,0 -0.346,-0.208 -0.276,-0.484l6.365,-17.021c0.069,-0.276 0.208,-0.623 0.415,-0.623c0.208,0 0.277,0.347 0.347,0.623l6.228,17.091c0.068,0.207 0,0.415 -0.347,0.415l-12.732,0l0,-0.001zm14.046,3.459c0.347,0 0.554,0.139 0.692,0.485l5.535,14.668c0.347,0.831 -0.139,1.454 -0.623,1.593c-0.691,0.068 -0.968,0.207 -0.968,0.622c0,0.484 0.83,0.484 2.075,0.554c5.536,0.139 10.587,0.139 13.078,0.139c2.561,0 3.183,-0.139 3.183,-0.692c0,-0.484 -0.347,-0.554 -0.899,-0.554c-0.831,0 -1.869,-0.068 -2.906,-0.277c-1.453,-0.346 -3.459,-1.314 -6.09,-7.541c-4.428,-10.518 -15.499,-38.748 -17.159,-42.554c-0.691,-1.592 -1.107,-2.215 -1.729,-2.215c-0.692,0 -1.107,0.762 -1.938,2.768l-17.367,43.454c-1.385,3.459 -2.699,5.812 -5.882,6.227c-0.554,0.07 -1.522,0.139 -2.146,0.139c-0.553,0 -0.83,0.139 -0.83,0.554c0,0.554 0.415,0.692 1.314,0.692c3.599,0 7.404,-0.208 8.165,-0.208c2.145,0 5.12,0.208 7.335,0.208c0.761,0 1.176,-0.139 1.176,-0.692c0,-0.415 -0.207,-0.554 -1.038,-0.554l-1.037,0c-2.146,0 -2.769,-0.899 -2.769,-2.145c0,-0.83 0.346,-2.491 1.038,-4.221l3.737,-9.895c0.138,-0.416 0.276,-0.555 0.622,-0.555l15.431,0zm41.655,-2.006c0,8.857 0,13.631 1.452,14.876c1.177,1.038 2.976,1.522 8.372,1.522c3.668,0 6.366,-0.068 8.096,-1.937c0.831,-0.899 1.661,-2.837 1.799,-4.152c0.07,-0.623 0.208,-1.038 0.762,-1.038c0.484,0 0.554,0.347 0.554,1.177c0,0.761 -0.484,5.95 -1.038,7.957c-0.415,1.522 -0.761,1.868 -4.359,1.868c-9.964,0 -14.53,-0.415 -20.135,-0.415c-1.592,0 -5.95,0.208 -8.718,0.208c-0.9,0 -1.385,-0.208 -1.385,-0.692c0,-0.346 0.276,-0.554 1.107,-0.554c1.038,0 1.868,-0.139 2.49,-0.277c1.384,-0.275 1.73,-1.798 2.007,-3.805c0.346,-2.906 0.346,-8.373 0.346,-14.738l0,-12.179c0,-10.517 0,-12.454 -0.138,-14.668c-0.139,-2.353 -0.692,-3.46 -2.976,-3.944c-0.554,-0.138 -1.384,-0.208 -2.283,-0.208c-0.762,0 -1.177,-0.138 -1.177,-0.623s0.485,-0.623 1.522,-0.623c3.253,0 7.611,0.208 9.479,0.208c1.661,0 6.712,-0.208 9.411,-0.208c0.968,0 1.452,0.138 1.452,0.623s-0.415,0.623 -1.245,0.623c-0.762,0 -1.868,0.069 -2.698,0.208c-1.868,0.346 -2.423,1.522 -2.56,3.944c-0.139,2.214 -0.139,4.151 -0.139,14.668l0,12.179l0.002,0zm41.931,0c0,6.643 0,11.832 0.346,14.738c0.208,2.007 0.623,3.529 2.698,3.805c0.969,0.139 2.491,0.277 3.46,0.277c0.899,0 1.176,0.208 1.176,0.554c0,0.484 -0.484,0.692 -1.522,0.692c-4.358,0 -8.718,-0.208 -10.517,-0.208c-1.8,0 -6.158,0.208 -8.788,0.208c-0.969,0 -1.453,-0.139 -1.453,-0.692c0,-0.346 0.277,-0.554 1.038,-0.554c1.038,0 1.868,-0.139 2.491,-0.277c1.384,-0.275 1.729,-1.798 2.007,-3.805c0.346,-2.906 0.346,-8.096 0.346,-14.738l0,-12.179c0,-10.517 0,-12.454 -0.139,-14.668c-0.138,-2.353 -0.691,-3.46 -2.975,-3.944c-0.554,-0.138 -1.73,-0.208 -2.699,-0.208c-0.692,0 -1.176,-0.138 -1.176,-0.553c0,-0.554 0.554,-0.692 1.591,-0.692c3.599,0 7.957,0.208 9.964,0.208c2.63,0 16.676,0 18.268,-0.069c1.314,-0.069 2.145,-0.069 2.837,-0.277c0.415,-0.139 0.761,-0.415 1.107,-0.415c0.276,0 0.484,0.276 0.484,0.622c0,0.484 -0.346,1.315 -0.555,3.113c-0.068,0.692 -0.207,4.775 -0.346,5.605c-0.068,0.553 -0.207,0.969 -0.691,0.969s-0.623,-0.346 -0.692,-1.107c0,-0.554 0,-1.661 -0.415,-2.629c-0.484,-0.969 -1.938,-2.007 -4.566,-2.076l-10.656,-0.208c-0.415,0 -0.622,0.208 -0.622,0.968l0,17.299c0,0.414 0.068,0.622 0.484,0.622l8.856,-0.069c1.176,0 2.145,0 3.113,-0.069c1.314,-0.069 2.284,-0.346 2.976,-1.245c0.347,-0.415 0.484,-0.691 0.899,-0.691c0.276,0 0.415,0.207 0.415,0.622s-0.346,2.146 -0.554,4.29c-0.138,1.385 -0.276,4.567 -0.276,5.051c0,0.623 0,1.314 -0.692,1.314c-0.415,0 -0.553,-0.484 -0.553,-0.968s-0.139,-1.315 -0.415,-2.146c-0.347,-0.968 -1.384,-2.214 -3.53,-2.49c-1.729,-0.208 -9.063,-0.208 -10.239,-0.208c-0.347,0 -0.484,0.139 -0.484,0.622l0,5.606l-0.001,0zm36.395,-1.453c-0.277,0 -0.347,-0.208 -0.277,-0.484l6.366,-17.021c0.068,-0.276 0.207,-0.623 0.415,-0.623c0.207,0 0.276,0.347 0.346,0.623l6.228,17.091c0.069,0.207 0,0.415 -0.347,0.415l-12.731,0l0,-0.001zm14.046,3.459c0.347,0 0.554,0.139 0.691,0.485l5.535,14.668c0.347,0.831 -0.138,1.454 -0.622,1.593c-0.691,0.068 -0.969,0.207 -0.969,0.622c0,0.484 0.83,0.484 2.076,0.554c5.535,0.139 10.586,0.139 13.077,0.139c2.561,0 3.183,-0.139 3.183,-0.692c0,-0.484 -0.346,-0.554 -0.899,-0.554c-0.83,0 -1.868,-0.068 -2.905,-0.277c-1.453,-0.346 -3.461,-1.314 -6.09,-7.541c-4.429,-10.518 -15.499,-38.748 -17.16,-42.554c-0.691,-1.592 -1.106,-2.215 -1.729,-2.215c-0.692,0 -1.106,0.762 -1.938,2.768l-17.367,43.453c-1.384,3.459 -2.698,5.812 -5.882,6.227c-0.554,0.07 -1.522,0.139 -2.145,0.139c-0.554,0 -0.831,0.139 -0.831,0.554c0,0.554 0.415,0.692 1.315,0.692c3.598,0 7.403,-0.208 8.165,-0.208c2.145,0 5.12,0.208 7.334,0.208c0.761,0 1.177,-0.139 1.177,-0.692c0,-0.415 -0.208,-0.554 -1.038,-0.554l-1.038,0c-2.146,0 -2.768,-0.899 -2.768,-2.145c0,-0.83 0.346,-2.491 1.038,-4.221l3.736,-9.895c0.138,-0.416 0.276,-0.555 0.623,-0.555l15.431,0l0,0.001zm-506.39,-30.099c0,-0.761 0.139,-1.038 0.623,-1.176c0.691,-0.138 1.314,-0.138 2.283,-0.138c5.951,0 8.649,6.088 8.649,10.725c0,3.39 -1.038,5.881 -2.837,7.334c-1.177,1.037 -2.698,1.314 -4.982,1.314c-1.591,0 -2.629,-0.069 -3.252,-0.207c-0.276,-0.07 -0.484,-0.208 -0.484,-0.762l0,-17.09zm-8.303,28.093c0,6.365 0,11.832 -0.346,14.738c-0.277,2.007 -0.623,3.529 -2.006,3.805c-0.623,0.139 -1.453,0.277 -2.491,0.277c-0.83,0 -1.107,0.208 -1.107,0.554c0,0.484 0.484,0.692 1.384,0.692c2.768,0 7.127,-0.208 8.718,-0.208c2.076,0 8.373,0.415 10.033,0.415c12.731,0 18.474,-7.681 18.474,-15.084c0,-8.096 -6.918,-13.008 -12.593,-14.946c3.806,-3.044 7.058,-6.435 7.058,-12.108c0,-3.667 -2.215,-10.378 -14.739,-10.378c-2.353,0 -5.051,0.208 -8.441,0.208c-1.384,0 -5.743,-0.208 -9.41,-0.208c-1.039,0 -1.522,0.138 -1.522,0.623s0.416,0.623 1.176,0.623c0.969,0 2.145,0.069 2.699,0.208c2.283,0.484 2.837,1.591 2.975,3.944c0.139,2.214 0.139,4.151 0.139,14.668l0,12.177l-0.001,0zm24.148,8.302c0,7.196 -5.258,8.856 -8.373,8.856c-1.591,0 -3.183,-0.069 -5.051,-0.829c-2.214,-0.9 -2.422,-2.076 -2.422,-6.644l0,-16.397c0,-0.346 0.139,-0.484 0.415,-0.484c1.038,0 1.73,0 2.976,0.069c2.699,0.139 4.29,0.623 5.743,1.66c5.259,3.667 6.712,9.48 6.712,13.769zm24.978,-9.755c-0.276,0 -0.346,-0.208 -0.276,-0.484l6.365,-17.021c0.069,-0.276 0.208,-0.623 0.416,-0.623s0.276,0.347 0.346,0.623l6.227,17.091c0.069,0.207 0,0.415 -0.346,0.415l-12.732,0l0,-0.001zm14.046,3.459c0.346,0 0.554,0.139 0.692,0.485l5.535,14.668c0.346,0.831 -0.138,1.454 -0.622,1.593c-0.692,0.068 -0.969,0.207 -0.969,0.622c0,0.484 0.83,0.484 2.076,0.554c5.535,0.139 10.586,0.139 13.077,0.139c2.561,0 3.183,-0.139 3.183,-0.692c0,-0.484 -0.346,-0.554 -0.899,-0.554c-0.83,0 -1.868,-0.068 -2.906,-0.277c-1.453,-0.346 -3.46,-1.314 -6.089,-7.541c-4.429,-10.518 -15.5,-38.748 -17.16,-42.554c-0.691,-1.592 -1.107,-2.215 -1.73,-2.215c-0.692,0 -1.107,0.762 -1.937,2.768l-17.367,43.453c-1.384,3.459 -2.699,5.812 -5.882,6.227c-0.554,0.07 -1.522,0.139 -2.146,0.139c-0.553,0 -0.83,0.139 -0.83,0.554c0,0.554 0.415,0.692 1.314,0.692c3.599,0 7.404,-0.208 8.165,-0.208c2.145,0 5.121,0.208 7.334,0.208c0.762,0 1.177,-0.139 1.177,-0.692c0,-0.415 -0.208,-0.554 -1.038,-0.554l-1.038,0c-2.145,0 -2.768,-0.899 -2.768,-2.145c0,-0.83 0.345,-2.491 1.038,-4.221l3.737,-9.895c0.138,-0.416 0.276,-0.555 0.623,-0.555l15.43,0l0,0.001zm36.188,8.65c0.139,5.396 1.038,7.195 2.422,7.68c1.177,0.416 2.492,0.484 3.599,0.484c0.761,0 1.176,0.139 1.176,0.554c0,0.554 -0.623,0.692 -1.592,0.692c-4.497,0 -7.266,-0.208 -8.58,-0.208c-0.623,0 -3.875,0.208 -7.473,0.208c-0.899,0 -1.522,-0.069 -1.522,-0.692c0,-0.415 0.416,-0.554 1.107,-0.554c0.899,0 2.145,-0.068 3.113,-0.346c1.799,-0.554 2.076,-2.561 2.145,-8.58l0.623,-40.962c0,-1.384 0.208,-2.352 0.899,-2.352c0.761,0 1.384,0.899 2.56,2.145c0.83,0.9 11.348,12.178 21.45,22.211c4.705,4.705 14.046,14.669 15.223,15.776l0.346,0l-0.692,-31.068c-0.069,-4.22 -0.691,-5.535 -2.353,-6.227c-1.038,-0.416 -2.698,-0.416 -3.667,-0.416c-0.83,0 -1.107,-0.208 -1.107,-0.623c0,-0.554 0.761,-0.623 1.799,-0.623c3.598,0 6.919,0.208 8.372,0.208c0.762,0 3.391,-0.208 6.781,-0.208c0.9,0 1.592,0.069 1.592,0.623c0,0.415 -0.416,0.623 -1.246,0.623c-0.692,0 -1.245,0 -2.075,0.208c-1.938,0.554 -2.491,2.007 -2.56,5.882l-0.762,43.661c0,1.521 -0.276,2.145 -0.899,2.145c-0.761,0 -1.591,-0.761 -2.352,-1.522c-4.359,-4.151 -13.216,-13.216 -20.413,-20.343c-7.542,-7.473 -15.223,-16.122 -16.468,-17.437l-0.208,0l0.762,29.061zm56.115,2.836c-6.781,-5.95 -8.58,-13.7 -8.58,-20.412c0,-4.704 1.453,-12.869 8.096,-18.958c4.982,-4.567 11.555,-7.335 21.865,-7.335c4.29,0 6.85,0.277 10.033,0.692c2.629,0.346 4.843,0.969 6.919,1.176c0.761,0.069 1.038,0.416 1.038,0.831c0,0.553 -0.208,1.384 -0.346,3.805c-0.138,2.284 -0.069,6.089 -0.208,7.473c-0.069,1.038 -0.208,1.591 -0.831,1.591c-0.553,0 -0.692,-0.554 -0.692,-1.522c-0.069,-2.145 -0.969,-4.566 -2.698,-6.366c-2.283,-2.421 -7.681,-4.29 -14.046,-4.29c-6.02,0 -9.963,1.522 -13.008,4.29c-5.051,4.636 -6.366,11.209 -6.366,17.921c0,16.469 12.524,24.633 21.796,24.633c6.158,0 9.895,-0.691 12.663,-3.875c1.176,-1.314 2.076,-3.321 2.352,-4.566c0.208,-1.107 0.346,-1.384 0.9,-1.384c0.484,0 0.623,0.483 0.623,1.037c0,0.831 -0.831,6.852 -1.522,9.203c-0.346,1.177 -0.623,1.522 -1.799,2.007c-2.768,1.107 -8.026,1.592 -12.455,1.592c-9.48,0 -17.437,-2.076 -23.734,-7.543zm73.414,4.083c-13.285,0 -21.242,-11.417 -21.242,-25.81c0,-17.229 9.064,-21.657 17.021,-21.657c11.348,0 20.273,9.618 20.273,25.117c0,19.997 -11.209,22.35 -16.052,22.35zm-2.907,3.46c17.575,0 28.646,-12.524 28.646,-28.37c0,-15.845 -10.725,-25.878 -27.954,-25.878c-20.758,0 -28.577,15.292 -28.577,27.124c0.001,12.247 8.027,27.124 27.885,27.124z" fill-rule="evenodd" fill="#c79f2a"/>
  </svg>