<svg xmlns="http://www.w3.org/2000/svg" fill-rule="evenodd" clip-rule="evenodd" image-rendering="optimizeQuality" shape-rendering="geometricPrecision" text-rendering="geometricPrecision" viewBox="-2 1.0099999904632568 6599.990234375 3299.989990234375"><g><rect width="6599.99" height="3299.99" x="-2" y="1.01" fill="none"/><g><path fill="#f37021" d="M1877.34 1023.26c3.93,-2.39 6.85,-6.1 8.26,-10.47 1.41,-4.37 1.19,-9.1 -0.6,-13.32 -57.07,-137.54 -133.41,-266.28 -226.75,-382.37 -6.51,-7.85 -15.3,-13.5 -25.14,-16.19 -9.85,-2.69 -20.29,-2.29 -29.9,1.14 -9.61,3.43 -17.94,9.73 -23.84,18.05 -5.91,8.31 -9.11,18.24 -9.18,28.44 0,483.48 -178.24,799.58 -481.13,1023.05 -1.3,1.22 -2.06,2.91 -2.13,4.68 15.63,208.02 55.61,413.48 119.11,612.21 0.28,1.36 1.09,2.55 2.25,3.3 1.16,0.75 2.57,1.02 3.92,0.74 1.36,-0.27 2.54,-1.09 3.3,-2.24 0.76,-1.16 1.02,-2.56 0.74,-3.92 -15.62,-250.73 37.72,-500.95 154.24,-723.58 116.53,-222.64 291.8,-409.2 506.85,-539.52l0 0zm95.72 339.89c-191.59,90.12 -355.66,229.63 -475.3,404.16 -119.64,174.52 -190.53,377.74 -205.36,588.73l-13.19 0c-29.98,-249.13 11.72,-501.63 120.21,-727.96 108.48,-226.32 279.27,-417.1 492.38,-550.01 2.49,-1.49 5.27,-2.41 8.16,-2.69 2.87,-0.29 5.79,0.07 8.51,1.05 2.73,0.97 5.21,2.54 7.25,4.59 2.05,2.04 3.62,4.52 4.59,7.24 28.52,83.03 50,168.3 64.23,254.92 0.58,4.13 -0.18,8.34 -2.17,12.01 -1.99,3.67 -5.11,6.61 -8.89,8.38l-0.42 -0.42 0 0zm-947.81 352.2c0.8,-0.51 1.73,-0.81 2.69,-0.86 0.96,-0.06 1.91,0.14 2.77,0.57 0.86,0.42 1.59,1.07 2.12,1.87 0.54,0.79 0.85,1.72 0.92,2.67 17.29,193.09 55.08,383.78 112.74,568.88 0.52,1.07 0.65,2.3 0.36,3.45 -0.28,1.16 -0.97,2.18 -1.93,2.89 -0.96,0.7 -2.14,1.05 -3.33,0.98 -1.19,-0.07 -2.32,-0.56 -3.19,-1.37 -166.89,-112.7 -352.16,-195.51 -547.5,-244.72 -14.16,0 -27.8,-5.3 -38.24,-14.84 -10.43,-9.56 -16.91,-22.67 -18.13,-36.75 -1.23,-14.1 2.87,-28.13 11.5,-39.33 8.62,-11.22 21.14,-18.8 35.09,-21.24 153.22,-63.24 301.65,-137.51 444.12,-222.2l0.01 0zm943.13 59.48c3.08,-1 6.36,-1.21 9.55,-0.64 3.19,0.59 6.18,1.95 8.72,3.97 2.52,2.02 4.51,4.64 5.78,7.62 1.27,2.98 1.77,6.23 1.47,9.44 -8.01,66.56 -20.22,132.55 -36.58,197.57 -0.99,3.45 -2.89,6.58 -5.52,9.05 -2.62,2.47 -5.85,4.18 -9.37,4.97 -32.79,7.12 -65.06,16.49 -96.58,28.04 -98.8,36.78 -188.2,95 -261.76,170.45 -73.56,75.45 -129.45,166.25 -163.64,265.88l-20.42 -3.4c24.52,-155.42 90.06,-301.5 189.88,-423.22 99.81,-121.72 230.31,-214.68 378.04,-269.3l0.43 -0.43 0 0zm-64.24 297.4c3.35,-0.81 6.87,-0.74 10.18,0.24 3.32,0.97 6.32,2.79 8.69,5.3 2.38,2.5 4.05,5.58 4.84,8.94 0.8,3.35 0.69,6.87 -0.32,10.17 -71.9,219.89 -191.28,421.34 -349.68,590.12 -5.31,5.75 -11.91,10.15 -19.27,12.84 -7.35,2.7 -15.24,3.6 -23.01,2.65 -7.77,-0.95 -15.21,-3.74 -21.69,-8.14 -6.48,-4.39 -11.82,-10.26 -15.58,-17.11 -17.02,-30.14 -35.62,-59.35 -55.73,-87.53 20.13,-113.48 69.62,-219.73 143.58,-308.2 73.96,-88.46 169.79,-156.08 278.01,-196.11 13.18,-4.67 26.37,-9.35 39.98,-13.17l0 0zm92.74 -627.94c5.61,53.78 8.46,107.81 8.51,161.88 0,29.74 0,59.47 -2.55,88.79 -0.25,3.94 -1.68,7.71 -4.11,10.81 -2.42,3.12 -5.74,5.42 -9.51,6.61 -13.18,4.25 -26.8,8.5 -39.98,13.6 -149.11,54.76 -281.92,146.32 -386.05,266.14 -104.14,119.82 -176.22,264.01 -209.53,419.15l-11.06 0c5.49,-205.19 66.69,-405.03 177.06,-578.18 110.37,-173.16 265.75,-313.12 449.57,-404.94 2.76,-1.39 5.8,-2.09 8.88,-2.05 3.08,0.04 6.11,0.82 8.83,2.28 2.72,1.46 5.04,3.55 6.77,6.1 1.73,2.55 2.81,5.48 3.17,8.54l0 1.27z"/><path fill="#1d306a" d="M5248.72 1772.47c-0.34,-16.62 2.65,-33.13 8.78,-48.58 6.12,-15.46 15.29,-29.53 26.94,-41.39 11.65,-11.88 25.54,-21.3 40.89,-27.75 15.34,-6.43 31.82,-9.74 48.46,-9.74 26.81,0.12 52.83,9.08 74.02,25.5l-194.83 138.5c-3.23,-11.32 -4.66,-23.08 -4.26,-34.85l0 -1.69 0 0zm-1090.75 127.45c-34.3,0 -67.2,-13.6 -91.45,-37.82 -24.25,-24.23 -37.88,-57.08 -37.88,-91.33 0,-34.25 13.63,-67.11 37.88,-91.33 24.25,-24.22 57.15,-37.83 91.45,-37.83 16.52,-0.07 32.9,3.21 48.11,9.66 15.21,6.45 28.95,15.93 40.37,27.85 11.43,11.93 20.3,26.06 26.08,41.52 5.78,15.46 8.34,31.95 7.53,48.43 0.88,16.49 -1.65,33 -7.4,48.49 -5.76,15.5 -14.63,29.65 -26.06,41.59 -11.45,11.94 -25.21,21.41 -40.45,27.85 -15.24,6.42 -31.63,9.67 -48.18,9.52l0 3.4 0 0zm132.73 149.13l116.56 0c4.51,0 8.84,-1.79 12.03,-4.97 3.19,-3.19 4.98,-7.52 4.98,-12.02l0 -521.73c0,-4.51 -1.79,-8.83 -4.98,-12.02 -3.19,-3.18 -7.52,-4.97 -12.03,-4.97l-116.56 0c-4.52,0 -8.85,1.79 -12.03,4.97 -3.2,3.19 -4.99,7.52 -4.99,12.02l0 31.44c-36.37,-30.87 -82.44,-48.01 -130.18,-48.43 -71.84,2.44 -139.8,33.16 -189.05,85.45 -49.26,52.3 -75.8,121.91 -73.85,193.68 -2.06,71.71 24.48,141.31 73.78,193.49 49.29,52.18 117.32,82.68 189.13,84.79 23.92,0.85 47.77,-3.12 70.14,-11.65 22.36,-8.54 42.77,-21.49 60.03,-38.05l0 32.71c0,4.5 1.79,8.83 4.99,12.02 3.18,3.18 7.51,4.97 12.03,4.97l0 -1.69 0 -0.01zm-676.41 -226.44c34.04,5.51 47.65,20.39 47.65,42.48 0.16,5.12 -0.79,10.22 -2.79,14.94 -2.01,4.72 -5.02,8.94 -8.82,12.38 -3.8,3.43 -8.32,6 -13.22,7.52 -4.9,1.52 -10.08,1.95 -15.16,1.27 -17.66,0.76 -35.05,-4.49 -49.35,-14.87 -2.94,-2.21 -6.53,-3.39 -10.21,-3.39 -3.68,0 -7.26,1.18 -10.2,3.39l-99.98 72.22c-2.1,1.44 -3.84,3.33 -5.1,5.54 -1.26,2.2 -1.98,4.68 -2.13,7.21 -0.27,2.45 0.04,4.92 0.94,7.21 0.89,2.3 2.31,4.34 4.17,5.96 22.37,21.99 49,39.17 78.26,50.49 29.26,11.33 60.54,16.56 91.9,15.36 115.71,0 205.47,-73.92 205.47,-183.11 0,-109.19 -75.3,-160.59 -173.57,-173.34 -44.67,-5.52 -57.43,-16.15 -57.43,-33.99 0.1,-3.97 1.01,-7.88 2.7,-11.47 1.7,-3.59 4.13,-6.79 7.13,-9.4 3.01,-2.6 6.52,-4.54 10.33,-5.7 3.8,-1.16 7.8,-1.52 11.75,-1.04 14.32,0.16 28.15,5.26 39.13,14.44 2.92,2.27 6.52,3.51 10.22,3.51 3.7,0 7.29,-1.24 10.21,-3.51l85.08 -60.33c1.88,-1.32 3.47,-3.02 4.65,-5 1.17,-1.98 1.9,-4.18 2.16,-6.47 0.36,-2.28 0.21,-4.6 -0.45,-6.81 -0.67,-2.21 -1.83,-4.24 -3.38,-5.94 -17.6,-22.43 -40.27,-40.4 -66.15,-52.44 -25.86,-12.03 -54.22,-17.79 -82.75,-16.81 -79.54,0 -176.12,68.4 -176.12,161.87 0,93.47 68.92,155.5 166.34,169.95l-1.28 -2.12 0 0zm-249.72 -330.97l-116.55 0c-4.52,0 -8.85,1.79 -12.04,4.98 -3.19,3.18 -4.98,7.5 -4.98,12.01l0 525.13c0,4.5 1.79,8.83 4.98,12.02 3.19,3.18 7.52,4.97 12.04,4.97l116.55 0c4.52,0 8.85,-1.79 12.04,-4.97 3.19,-3.19 4.98,-7.52 4.98,-12.02l0 -523.43c0,-4.51 -1.79,-8.83 -4.98,-12.02 -3.19,-3.18 -7.52,-4.97 -12.04,-4.97l0 -1.7zm-58.27 -243.02c17.35,0.33 34.21,5.76 48.5,15.6 14.29,9.84 25.37,23.65 31.86,39.73 6.48,16.08 8.09,33.7 4.61,50.68 -3.46,16.99 -11.85,32.57 -24.12,44.83 -12.28,12.25 -27.88,20.64 -44.88,24.1 -17.01,3.46 -34.66,1.86 -50.76,-4.62 -16.1,-6.48 -29.93,-17.54 -39.78,-31.81 -9.85,-14.27 -15.29,-31.11 -15.62,-48.44 0,-23.44 9.32,-45.92 25.92,-62.49 16.59,-16.57 39.09,-25.88 62.57,-25.88l1.7 -1.7 0 0zm-776.8 242.59c-36.89,1.17 -72.93,11.23 -105.08,29.32 -2.57,1.53 -5.5,2.34 -8.49,2.35 -2.99,0.01 -5.92,-0.79 -8.49,-2.32 -2.58,-1.52 -4.69,-3.71 -6.11,-6.33 -1.44,-2.63 -2.13,-5.59 -2.01,-8.57l0 -237.92c0,-3.16 -0.88,-6.25 -2.54,-8.94 -1.66,-2.68 -4.04,-4.85 -6.87,-6.26 -2.82,-1.42 -5.99,-2.01 -9.13,-1.73 -3.15,0.28 -6.15,1.44 -8.69,3.33l-116.13 84.97c-2.12,1.67 -3.84,3.8 -5.02,6.23 -1.18,2.43 -1.79,5.1 -1.79,7.79l0 679.78c0,4.5 1.8,8.82 4.98,12.01 3.2,3.19 7.53,4.98 12.03,4.98l116.15 0c4.51,0 8.83,-1.79 12.03,-4.98 3.19,-3.18 4.98,-7.5 4.98,-12.01l0 -31.87c17.25,16.57 37.68,29.52 60.04,38.06 22.36,8.53 46.21,12.5 70.14,11.64 71.54,-2.65 139.13,-33.43 188.06,-85.63 48.92,-52.21 75.21,-121.6 73.14,-193.07 2.3,-71.74 -23.84,-141.48 -72.76,-194.07 -48.91,-52.59 -116.64,-83.77 -188.44,-86.76l0 0zm-14.9 408.71c-16.5,0.09 -32.85,-3.2 -48.05,-9.66 -15.18,-6.45 -28.89,-15.93 -40.28,-27.87 -11.4,-11.93 -20.23,-26.06 -25.96,-41.53 -5.74,-15.46 -8.24,-31.92 -7.36,-48.39 -0.82,-16.45 1.74,-32.89 7.48,-48.33 5.75,-15.44 14.59,-29.54 25.97,-41.46 11.38,-11.93 25.07,-21.41 40.24,-27.88 15.15,-6.48 31.48,-9.81 47.96,-9.79 34.31,0 67.2,13.61 91.46,37.83 24.25,24.22 37.87,57.08 37.87,91.32 0,34.26 -13.62,67.12 -37.87,91.33 -24.26,24.23 -57.15,37.84 -91.46,37.84l0 -3.41zm2515.03 -127.45c0,-154.65 -101.67,-279.13 -248.02,-279.13 -51.43,-2.57 -101.86,14.78 -140.81,48.43l0 -31.44c0,-4.51 -1.79,-8.83 -4.98,-12.02 -3.19,-3.18 -7.51,-4.97 -12.03,-4.97l-116.56 0c-4.44,0.11 -8.66,1.95 -11.76,5.12 -3.1,3.18 -4.84,7.44 -4.83,11.87l0 523.43c-0.06,2.21 0.33,4.41 1.14,6.47 0.8,2.06 2.02,3.94 3.56,5.52 1.55,1.58 3.39,2.84 5.44,3.7 2.04,0.86 4.23,1.31 6.45,1.29l116.56 0c4.52,0 8.84,-1.78 12.03,-4.96 3.19,-3.19 4.98,-7.52 4.98,-12.02l0 -261.29c-0.72,-16.94 2.1,-33.83 8.25,-49.61 6.15,-15.8 15.54,-30.14 27.54,-42.12 11.98,-11.99 26.35,-21.35 42.16,-27.5 15.81,-6.15 32.73,-8.95 49.68,-8.23 61.26,0 111.03,42.49 111.03,127.46l0 261.29c0,4.5 1.79,8.83 4.99,12.02 3.18,3.18 7.51,4.96 12.03,4.96l115.28 0c4.52,0 8.85,-1.78 12.03,-4.96 3.2,-3.19 4.99,-7.52 4.99,-12.02l0 -261.29 0.85 0 0 0zm1032.05 -157.62l0 -104.52c0.05,-2.21 -0.33,-4.41 -1.15,-6.47 -0.8,-2.06 -2.02,-3.94 -3.56,-5.52 -1.55,-1.58 -3.39,-2.84 -5.44,-3.7 -2.04,-0.86 -4.23,-1.3 -6.45,-1.3l-110.17 0 0 -133.83c0.04,-3.12 -0.83,-6.18 -2.49,-8.82 -1.66,-2.64 -4.05,-4.74 -6.87,-6.05 -2.69,-1.66 -5.78,-2.53 -8.94,-2.53 -3.15,0 -6.25,0.87 -8.93,2.53l-116.56 84.97c-2.12,1.67 -3.84,3.8 -5.02,6.23 -1.18,2.43 -1.79,5.09 -1.78,7.79l0 49.28 -63.4 0c-4.51,0 -8.84,1.79 -12.03,4.98 -3.19,3.19 -4.99,7.51 -4.99,12.02l0 104.51c0,4.51 1.8,8.83 4.99,12.02 3.19,3.19 7.52,4.98 12.03,4.98l63.4 0 0 186.93c0,133.41 105.92,225.6 255.24,232.4 2.34,0.19 4.69,-0.13 6.89,-0.93 2.21,-0.81 4.21,-2.08 5.87,-3.74 1.68,-1.57 3,-3.49 3.89,-5.61 0.87,-2.13 1.3,-4.41 1.21,-6.71l0 -115.13c0.12,-4.33 -1.46,-8.53 -4.4,-11.7 -2.94,-3.18 -7.01,-5.09 -11.34,-5.3 -61.26,-4.25 -108.05,-31.87 -108.05,-87.53l0 -182.26 110.18 0c2.22,0 4.41,-0.43 6.45,-1.3 2.04,-0.86 3.89,-2.12 5.44,-3.7 1.55,-1.58 2.75,-3.46 3.57,-5.52 0.8,-2.06 1.19,-4.26 1.13,-6.47l1.28 0 0 0zm-2912.78 -121.09l-21.28 0c-21.99,-0.48 -43.83,3.58 -64.18,11.91 -20.35,8.33 -38.76,20.77 -54.09,36.53l0 -22.1c-0.14,-3.09 -1.1,-6.09 -2.79,-8.69 -1.7,-2.59 -4.05,-4.69 -6.82,-6.07 -2.78,-1.39 -5.87,-2.01 -8.96,-1.8 -3.09,0.2 -6.08,1.23 -8.65,2.97l-116.56 84.97c-2.14,1.56 -3.87,3.61 -5.06,5.97 -1.18,2.37 -1.78,4.98 -1.75,7.63l0 428.68c0,4.5 1.79,8.83 4.99,12.02 3.19,3.18 7.52,4.97 12.03,4.97l116.14 0c2.27,0.06 4.53,-0.34 6.64,-1.17 2.12,-0.82 4.04,-2.07 5.67,-3.66 1.62,-1.57 2.91,-3.47 3.8,-5.55 0.88,-2.1 1.34,-4.34 1.33,-6.61l0 -261.28c0,-84.98 49.78,-127.46 108.05,-127.46 9.12,0.05 18.22,0.76 27.23,2.12 2.48,0.59 5.05,0.6 7.53,0.03 2.48,-0.57 4.79,-1.69 6.77,-3.29 1.97,-1.61 3.55,-3.64 4.61,-5.95 1.06,-2.31 1.57,-4.82 1.51,-7.36l0 -119.81c0,-4.36 -1.67,-8.56 -4.68,-11.73 -3.01,-3.16 -7.12,-5.05 -11.48,-5.26l0 -0.01zm2343.57 366.65c-13.69,14.1 -30.19,25.16 -48.44,32.48 -18.24,7.32 -37.83,10.74 -57.48,10.01 -14.45,0.51 -28.88,-1.65 -42.54,-6.38l288.43 -206.05c3.17,-2.22 5.48,-5.45 6.56,-9.15 1.08,-3.71 0.87,-7.67 -0.61,-11.25 -21.32,-51.99 -57.68,-96.46 -104.43,-127.72 -46.75,-31.25 -101.78,-47.87 -158.04,-47.74 -36.62,0.06 -72.85,7.33 -106.64,21.4 -33.79,14.06 -64.47,34.65 -90.27,60.58 -25.81,25.93 -46.24,56.7 -60.12,90.52 -13.88,33.84 -20.93,70.07 -20.77,106.63 2,74.61 33.27,145.44 87.05,197.25 53.79,51.82 125.8,80.46 200.53,79.75 42.18,0.67 84,-7.62 122.73,-24.33 38.72,-16.7 73.45,-41.42 101.89,-72.53 1.45,-1.74 2.53,-3.76 3.19,-5.94 0.66,-2.16 0.89,-4.45 0.64,-6.71 -0.24,-2.26 -0.92,-4.44 -2.02,-6.42 -1.09,-1.99 -2.58,-3.74 -4.37,-5.15l-93.16 -71.37c-3.3,-2.44 -7.38,-3.57 -11.47,-3.18 -4.09,0.39 -7.88,2.28 -10.66,5.3l0 0z"/></g></g></svg>