<svg  id="fndm-rtwimt5gkw" viewBox="225.32000732421875 70.62799835205078 391.25 454.02001953125" xmlns="http://www.w3.org/2000/svg">
   <path d="m225.32,524.648l391.25,0l0,-454.02l-391.25,0l0,454.02z" fill-rule="evenodd" fill="#002246"/>
   <path d="m444.433,201.472l-47.345,0l0.451,-0.835l23.074,-42.661l0.495,-0.916l0.5,0.913l23.321,42.661l0.458,0.838l-0.954,0z" fill-rule="evenodd" fill="#d69b00"/>
   <path d="m537.307,374.286l-116.197,-216.042l-116.112,216.042l116.113,-228.658l116.196,228.658zm-139.435,0.539l-47.296,0l0.426,-0.794l23.157,-43.158l0.473,-0.882l0.475,0.882l23.239,43.158l0.427,0.794l-0.901,0zm-45.496,-1.079l44.594,0l-22.336,-41.482l-22.258,41.482zm91.974,1.079l-47.295,0l0.426,-0.794l23.156,-43.158l0.474,-0.882l0.474,0.882l23.239,43.158l0.428,0.794l-0.902,0zm-45.495,-1.079l44.593,0l-22.336,-41.482l-22.257,41.482zm91.974,1.079l-47.296,0l0.426,-0.794l23.156,-43.158l0.473,-0.882l0.475,0.882l23.24,43.158l0.428,0.794l-0.902,0zm-45.496,-1.079l44.594,0l-22.337,-41.482l-22.257,41.482zm-24.222,-42.162l-47.295,0l0.426,-0.795l23.156,-43.158l0.473,-0.881l0.475,0.881l23.24,43.159l0.427,0.794l-0.902,0zm-45.495,-1.08l44.594,0l-22.337,-41.481l-22.257,41.481zm91.973,1.08l-47.295,0l0.426,-0.795l23.156,-43.158l0.473,-0.881l0.475,0.881l23.24,43.159l0.427,0.794l-0.902,0zm-45.495,-1.08l44.594,0l-22.337,-41.481l-22.257,41.481zm22.256,-42.162l-47.295,0l0.426,-0.794l23.156,-43.159l0.474,-0.881l0.474,0.881l23.239,43.16l0.428,0.793l-0.902,0zm-45.495,-1.078l44.593,0l-22.336,-41.483l-22.257,41.483zm69.481,-42.166l-48.056,0l0.444,-0.798l23.987,-43.076l0.939,0.523l-23.542,42.277l46.228,0l0,1.074zm-94.285,-1.076l46.31,0l-23.54,-42.275l0.94,-0.523l23.986,43.076l0.446,0.8l-48.142,0l0,-1.078zm-23.322,43.327l46.23,0l-23.46,-42.36l0.94,-0.523l23.902,43.159l0.443,0.798l-48.055,0l0,-1.074zm140.847,1.076l-48.057,0l0.445,-0.8l23.986,-43.16l0.94,0.523l-23.542,42.359l46.228,0l0,1.078zm-164.086,42.08l46.227,0l-23.54,-42.275l0.94,-0.523l23.986,43.076l0.446,0.8l-48.059,0l0,-1.078zm187.325,1.077l-48.057,0l0.445,-0.799l23.986,-43.076l0.94,0.523l-23.542,42.277l46.228,0l0,1.075zm-209.581,42.164l45.246,0l-22.982,-41.495l-22.264,41.495zm46.16,1.079l-47.96,0l0.426,-0.794l23.156,-43.158l0.466,-0.87l0.478,0.863l23.903,43.158l0.444,0.8l-0.913,0.001zm186.577,0l-47.974,0l0.445,-0.8l23.986,-43.159l0.479,-0.861l0.465,0.87l23.073,43.158l0.424,0.792l-0.898,0zm-46.145,-1.079l45.248,0l-22.185,-41.496l-23.063,41.496z" fill-rule="evenodd" fill="#fff"/>
   <path d="m241.007,449.648l359.876,0" stroke-width="1.079" stroke="#fff" fill="none"/>
   <path d="m444.406,418.61l5.73,-11.458l5.729,11.459l-11.459,-0.001zm26.171,-19.923c0.582,-1.328 0.914,-1.826 1.411,-1.826c0.416,0 0.747,0.415 1.245,1.66c1.245,2.822 9.462,23.82 12.781,31.705c1.992,4.648 3.487,5.312 4.566,5.644c0.747,0.082 1.577,0.166 2.157,0.166c0.416,0 0.665,0.082 0.665,0.415c0,0.415 -0.498,0.498 -2.407,0.498c-1.826,0 -5.561,0 -9.711,-0.083c-0.913,-0.083 -1.577,-0.083 -1.577,-0.415c0,-0.333 0.249,-0.415 0.747,-0.499c0.332,-0.082 0.747,-0.497 0.498,-1.161l-4.15,-10.956c-0.083,-0.249 -0.249,-0.332 -0.498,-0.332l-5.726,0l0,-2.573l4.73,0c0.25,0 0.332,-0.166 0.25,-0.332l-4.65,-12.698c-0.082,-0.25 -0.082,-0.498 -0.248,-0.498l-0.082,0l-0.001,-8.715zm-5.81,24.816c-0.248,0 -0.331,0.083 -0.415,0.415l-2.821,7.387c-0.498,1.245 -0.747,2.49 -0.747,3.154c0,0.912 0.415,1.577 2.075,1.577l0.746,0c0.581,0 0.747,0.083 0.747,0.415c0,0.415 -0.331,0.498 -0.83,0.498c-1.66,0 -3.9,-0.166 -5.477,-0.166c-0.58,0 -3.403,0.166 -6.142,0.166c-0.664,0 -0.913,-0.083 -0.913,-0.498c0,-0.333 0.166,-0.415 0.581,-0.415c0.498,0 1.162,-0.084 1.577,-0.084c2.407,-0.332 3.403,-2.074 4.399,-4.647l12.947,-32.37c0,-0.082 0.083,-0.165 0.083,-0.248l0,8.715c-0.083,0.083 -0.166,0.331 -0.249,0.498l-4.73,12.698c-0.083,0.166 0,0.332 0.249,0.332l4.73,0l0,2.573l-5.81,0zm42.578,-1.493c0,6.639 0,10.125 1.079,11.12c0.913,0.748 2.24,1.08 6.225,1.08c2.739,0 4.73,0 6.059,-1.411c0.58,-0.664 1.245,-2.158 1.327,-3.071c0.084,-0.498 0.166,-0.83 0.582,-0.83c0.332,0 0.415,0.249 0.415,0.913c0,0.58 -0.415,4.399 -0.747,5.893c-0.332,1.162 -0.582,1.41 -3.32,1.41c-7.387,0 -10.79,-0.331 -15.023,-0.331c-1.162,0 -4.399,0.166 -6.474,0.166c-0.664,0 -0.996,-0.166 -0.996,-0.498c0,-0.249 0.167,-0.415 0.83,-0.415c0.747,0 1.329,-0.084 1.827,-0.166c1.078,-0.25 1.328,-1.411 1.494,-2.905c0.248,-2.158 0.248,-6.225 0.248,-10.956l0,-9.047c0,-7.884 0,-9.295 -0.082,-10.955c-0.083,-1.743 -0.498,-2.573 -2.242,-2.988c-0.414,-0.083 -0.996,-0.083 -1.66,-0.083c-0.58,0 -0.912,-0.166 -0.912,-0.498c0,-0.332 0.414,-0.498 1.161,-0.498c2.407,0 5.644,0.166 7.055,0.166c1.245,0 4.98,-0.166 7.055,-0.166c0.664,0 1.08,0.166 1.08,0.498c0,0.332 -0.333,0.498 -0.997,0.498c-0.498,0 -1.328,0 -1.992,0.083c-1.411,0.332 -1.826,1.162 -1.91,2.988c-0.082,1.66 -0.082,3.071 -0.082,10.955l0,9.048zm31.29,0c0,4.979 0,8.797 0.25,10.955c0.165,1.494 0.414,2.655 1.991,2.905c0.747,0.082 1.826,0.166 2.573,0.166c0.664,0 0.913,0.166 0.913,0.415c0,0.332 -0.415,0.498 -1.162,0.498c-3.237,0 -6.474,-0.166 -7.885,-0.166c-1.328,0 -4.565,0.166 -6.557,0.166c-0.664,0 -1.08,-0.083 -1.08,-0.498c0,-0.249 0.25,-0.415 0.832,-0.415c0.746,0 1.327,-0.084 1.825,-0.166c1.08,-0.25 1.328,-1.411 1.494,-2.905c0.25,-2.158 0.25,-5.976 0.25,-10.956l0,-9.047c0,-7.884 0,-9.295 -0.083,-10.955c-0.083,-1.743 -0.5,-2.573 -2.241,-2.988c-0.416,-0.083 -1.245,-0.083 -1.992,-0.083c-0.499,0 -0.914,-0.166 -0.914,-0.415c0,-0.415 0.415,-0.58 1.245,-0.58c2.656,0 5.893,0.165 7.387,0.165l13.612,0c0.996,-0.083 1.66,-0.083 2.158,-0.249c0.332,-0.083 0.58,-0.332 0.83,-0.332c0.165,0 0.331,0.249 0.331,0.498c0,0.332 -0.248,0.996 -0.414,2.324c0,0.498 -0.167,3.568 -0.25,4.15c-0.083,0.415 -0.165,0.747 -0.497,0.747c-0.416,0 -0.499,-0.25 -0.499,-0.83c0,-0.415 0,-1.245 -0.332,-1.992c-0.33,-0.665 -1.493,-1.494 -3.402,-1.494l-7.968,-0.166c-0.332,0 -0.415,0.166 -0.415,0.747l0,12.865c0,0.331 0,0.497 0.332,0.497l6.557,-0.083c0.913,0 1.66,0 2.323,-0.083c0.997,0 1.744,-0.249 2.242,-0.912c0.249,-0.332 0.331,-0.498 0.663,-0.498c0.25,0 0.333,0.166 0.333,0.498c0,0.249 -0.25,1.576 -0.415,3.153c-0.083,1.08 -0.25,3.403 -0.25,3.735c0,0.498 0,0.996 -0.498,0.996c-0.248,0 -0.414,-0.332 -0.414,-0.664c0,-0.415 -0.083,-0.996 -0.25,-1.66c-0.331,-0.663 -1.078,-1.66 -2.655,-1.826c-1.328,-0.166 -6.806,-0.166 -7.636,-0.166c-0.25,0 -0.332,0.084 -0.332,0.498l0,4.151zm31.871,-23.323c0.581,-1.328 0.83,-1.826 1.328,-1.826c0.498,0 0.83,0.415 1.328,1.66c1.245,2.822 9.461,23.82 12.781,31.705c1.992,4.648 3.486,5.312 4.565,5.644c0.748,0.082 1.494,0.166 2.158,0.166c0.415,0 0.664,0.082 0.664,0.415c0,0.415 -0.498,0.498 -2.407,0.498c-1.826,0 -5.56,0 -9.71,-0.083c-0.913,-0.083 -1.577,-0.083 -1.577,-0.415c0,-0.333 0.249,-0.415 0.747,-0.499c0.332,-0.082 0.746,-0.497 0.498,-1.161l-4.15,-10.956c-0.083,-0.249 -0.25,-0.332 -0.498,-0.332l-5.727,0l0,-2.573l4.73,0c0.25,0 0.332,-0.166 0.25,-0.332l-4.648,-12.698c-0.083,-0.25 -0.083,-0.498 -0.249,-0.498l-0.083,0l0,-8.715zm-5.81,24.816c-0.25,0 -0.332,0.083 -0.498,0.415l-2.739,7.387c-0.498,1.245 -0.746,2.49 -0.746,3.154c0,0.912 0.414,1.577 1.991,1.577l0.83,0c0.582,0 0.747,0.083 0.747,0.415c0,0.415 -0.332,0.498 -0.913,0.498c-1.577,0 -3.817,-0.166 -5.395,-0.166c-0.58,0 -3.402,0.166 -6.141,0.166c-0.665,0 -0.997,-0.083 -0.997,-0.498c0,-0.333 0.25,-0.415 0.665,-0.415c0.498,0 1.162,-0.084 1.577,-0.084c2.406,-0.332 3.403,-2.074 4.398,-4.647l12.948,-32.37c0,-0.082 0.083,-0.165 0.083,-0.248l0,8.715c-0.083,0.083 -0.166,0.331 -0.249,0.498l-4.731,12.698c-0.082,0.166 0,0.332 0.166,0.332l4.814,0l0,2.573l-5.81,0zm-304.516,-25.48c8.216,0.415 9.71,5.063 9.71,7.718c0,4.233 -2.407,6.723 -5.229,8.964c4.233,1.494 9.38,5.146 9.38,11.205c0,5.478 -4.317,11.205 -13.779,11.205l-0.082,0l0,-2.324l1.245,0c2.323,0 6.307,-1.246 6.307,-6.557c0,-3.237 -1.079,-7.553 -5.063,-10.292c-0.664,-0.497 -1.494,-0.83 -2.49,-1.078l0,-2.408c0.914,-0.166 1.66,-0.414 2.241,-0.913c1.328,-1.079 2.075,-2.905 2.075,-5.477c0,-2.822 -1.328,-6.391 -4.315,-7.553l0,-2.49zm-10.458,14.94c0,-7.885 0,-9.296 -0.166,-10.956c-0.083,-1.743 -0.498,-2.573 -2.159,-2.988c-0.414,-0.083 -1.327,-0.083 -2.074,-0.083c-0.498,0 -0.83,-0.166 -0.83,-0.498c0,-0.332 0.332,-0.498 1.162,-0.498c2.739,0 5.976,0.166 6.972,0.166c2.572,0 4.564,-0.166 6.307,-0.166c0.415,0 0.83,0.083 1.246,0.083l0,2.49c-0.665,-0.25 -1.329,-0.415 -2.158,-0.415c-0.665,0 -1.163,0 -1.66,0.083c-0.332,0.083 -0.498,0.332 -0.498,0.913l0,12.699c0,0.414 0.166,0.497 0.415,0.58c0.414,0.083 1.244,0.166 2.406,0.166c0.582,0 1.08,0 1.495,-0.083l0,2.408a10.335,10.335 0 0 0 -1.743,-0.167c-0.914,-0.083 -1.495,-0.083 -2.241,-0.083c-0.166,0 -0.332,0.166 -0.332,0.415l0,12.2c0,3.404 0.166,4.316 1.825,4.98c0.914,0.333 1.744,0.499 2.49,0.582l0,2.324c-1.328,0 -5.892,-0.332 -7.386,-0.332c-1.162,0 -4.399,0.166 -6.474,0.166c-0.664,0 -1.079,-0.166 -1.079,-0.498c0,-0.249 0.25,-0.415 0.83,-0.415c0.83,0 1.411,-0.084 1.91,-0.166c0.995,-0.25 1.244,-1.411 1.493,-2.905c0.249,-2.158 0.249,-6.225 0.249,-10.956l0,-9.046zm41.332,-14.276c0.582,-1.328 0.913,-1.826 1.411,-1.826s0.747,0.415 1.245,1.66c1.245,2.822 9.545,23.82 12.865,31.705c1.909,4.648 3.403,5.312 4.482,5.644c0.83,0.082 1.577,0.166 2.158,0.166c0.414,0 0.664,0.082 0.664,0.415c0,0.415 -0.416,0.498 -2.324,0.498c-1.826,0 -5.644,0 -9.794,-0.083c-0.913,-0.083 -1.494,-0.083 -1.494,-0.415c0,-0.333 0.166,-0.415 0.664,-0.499c0.415,-0.082 0.747,-0.497 0.498,-1.161l-4.15,-10.956c-0.083,-0.249 -0.249,-0.332 -0.498,-0.332l-5.727,0l0,-2.573l4.731,0c0.25,0 0.332,-0.166 0.25,-0.332l-4.565,-12.698c-0.084,-0.25 -0.167,-0.498 -0.333,-0.498l-0.083,0l0,-8.715zm-5.726,24.816c-0.332,0 -0.415,0.083 -0.498,0.415l-2.822,7.387c-0.498,1.245 -0.747,2.49 -0.747,3.154c0,0.912 0.497,1.577 2.075,1.577l0.746,0c0.665,0 0.83,0.083 0.83,0.415c0,0.415 -0.331,0.498 -0.912,0.498c-1.66,0 -3.901,-0.166 -5.478,-0.166c-0.582,0 -3.403,0.166 -6.059,0.166c-0.664,0 -0.996,-0.083 -0.996,-0.498c0,-0.333 0.166,-0.415 0.581,-0.415c0.498,0 1.245,-0.084 1.66,-0.084c2.324,-0.332 3.32,-2.074 4.399,-4.647l12.947,-32.37l0,-0.248l0,8.715c-0.083,0.083 -0.166,0.331 -0.166,0.498l-4.813,12.698c0,0.166 0,0.332 0.248,0.332l4.731,0l0,2.573l-5.726,0zm38.427,6.474c0.083,3.984 0.83,5.312 1.826,5.727c0.913,0.248 1.826,0.332 2.656,0.332c0.581,0 0.913,0.082 0.913,0.415c0,0.415 -0.498,0.498 -1.162,0.498c-3.403,0 -5.478,-0.166 -6.473,-0.166c-0.416,0 -2.823,0.166 -5.561,0.166c-0.665,0 -1.08,0 -1.08,-0.498c0,-0.333 0.25,-0.415 0.83,-0.415c0.664,0 1.577,-0.084 2.324,-0.249c1.329,-0.416 1.495,-1.91 1.577,-6.391l0.415,-30.543c0,-0.996 0.166,-1.743 0.747,-1.743c0.498,0 0.997,0.664 1.91,1.577c0.58,0.664 8.382,9.046 15.935,16.6c3.486,3.485 10.457,10.872 11.37,11.702l0.25,0l-0.498,-23.156c-0.084,-3.154 -0.499,-4.067 -1.743,-4.648c-0.83,-0.25 -2.075,-0.25 -2.74,-0.25c-0.664,0 -0.83,-0.165 -0.83,-0.497c0,-0.415 0.582,-0.498 1.329,-0.498c2.655,0 5.145,0.166 6.224,0.166c0.581,0 2.573,-0.166 5.063,-0.166c0.664,0 1.162,0.083 1.162,0.498c0,0.332 -0.249,0.498 -0.913,0.498c-0.498,0 -0.913,0 -1.494,0.083c-1.494,0.415 -1.909,1.494 -1.909,4.399l-0.58,32.534c0,1.163 -0.25,1.661 -0.665,1.661c-0.581,0 -1.245,-0.581 -1.743,-1.162c-3.32,-3.071 -9.876,-9.877 -15.271,-15.189c-5.644,-5.56 -11.37,-12.034 -12.284,-12.947l-0.165,0l0.58,21.662zm41.831,2.075c-5.063,-4.399 -6.39,-10.209 -6.39,-15.188c0,-3.487 1.078,-9.629 6.058,-14.11c3.735,-3.403 8.631,-5.478 16.267,-5.478c3.237,0 5.146,0.166 7.47,0.498c1.992,0.25 3.652,0.747 5.23,0.83c0.497,0.083 0.746,0.332 0.746,0.664c0,0.415 -0.166,0.996 -0.25,2.822c-0.082,1.743 -0.082,4.564 -0.166,5.56c-0.082,0.83 -0.165,1.246 -0.663,1.246c-0.332,0 -0.498,-0.416 -0.498,-1.163c0,-1.576 -0.664,-3.402 -1.992,-4.73c-1.66,-1.826 -5.727,-3.237 -10.458,-3.237c-4.481,0 -7.47,1.162 -9.71,3.237c-3.736,3.403 -4.731,8.3 -4.731,13.362c0,12.284 9.296,18.343 16.267,18.343c4.565,0 7.304,-0.498 9.38,-2.905c0.912,-0.996 1.576,-2.49 1.742,-3.403c0.166,-0.83 0.332,-0.996 0.747,-0.996c0.332,0 0.415,0.332 0.415,0.747c0,0.581 -0.581,5.146 -1.162,6.889c-0.249,0.83 -0.415,1.078 -1.328,1.493c-2.074,0.83 -5.976,1.163 -9.295,1.163c-7.056,0 -12.948,-1.578 -17.679,-5.644zm52.786,-34.776l0.332,0c12.865,0 20.833,7.47 20.833,19.255c0,11.786 -8.134,21.082 -21.165,21.165l0,-2.656c0.664,0 1.328,0.083 1.992,0.083c3.569,0 11.951,-1.743 11.951,-16.682c0,-10.956 -6.059,-18.011 -13.943,-18.675l0,-2.49zm-20.999,20.169c0,-8.715 5.81,-20.086 21,-20.169l0,2.49l-1.163,0c-5.975,0 -12.698,3.237 -12.698,16.101c0,10.043 5.145,18.094 13.86,19.173l0,2.656l-0.166,0c-14.857,0 -20.833,-11.122 -20.833,-20.251z" fill-rule="evenodd" fill="#d69b00"/>
  </svg>