<svg  id="fndm-kw41j6ha2o" viewBox="0 0 579.2000122070312 203.60000610351562" xlink="http://www.w3.org/1999/xlink" xmlns="http://www.w3.org/2000/svg">
   <defs xmlns="http://www.w3.org/2000/svg">
    <path d="m427.4,0c-3.7,0 -5.4,4.5 -2.7,7l76.9,71l4.1,-3.8c28.6,-26.4 9.9,-74.2 -29,-74.2l-49.3,0z" id="fndm-i7em6srmlc"/>
   </defs>
   <clipPath xmlns="http://www.w3.org/2000/svg" id="fndm-3z8a65n3dq">
    <use xmlns:xlink="http://www.w3.org/1999/xlink" xlink:href="#fndm-i7em6srmlc"/>
   </clipPath>
   <linearGradient xmlns="http://www.w3.org/2000/svg" gradientUnits="userSpaceOnUse" gradientTransform="matrix(96.1443 0 0 -96.1443 10597.338 42145.926)" y2="437.956" y1="437.956" x2="-104.82" x1="-105.82" id="fndm-fq72m5c0qp">
    <stop stop-color="#f37021" offset="0"/>
    <stop stop-color="#f4791e" offset="0.064"/>
    <stop stop-color="#f99d13" offset="0.333"/>
    <stop stop-color="#fcb60b" offset="0.587"/>
    <stop stop-color="#fec607" offset="0.817"/>
    <stop stop-color="#ffcb05" offset="1"/>
   </linearGradient>
   <path clip-path="url(#fndm-3z8a65n3dq)" d="m422,0l112.3,0l0,78l-112.3,0l0,-78z" fill="url(#fndm-fq72m5c0qp)"/>
   <defs xmlns="http://www.w3.org/2000/svg">
    <path d="m468.5,108.5l-43.8,40.4c-2.7,2.5 -0.9,7 2.7,7l50.2,0c38.6,0 57.1,-47.4 28.7,-73.6l-4.8,-4.4l-29.4,-27.1c13.4,17.2 14,41.4 -3.6,57.7" id="fndm-mraxyplczs"/>
   </defs>
   <clipPath xmlns="http://www.w3.org/2000/svg" id="fndm-ca45klvvdk">
    <use xmlns:xlink="http://www.w3.org/1999/xlink" xlink:href="#fndm-mraxyplczs"/>
   </clipPath>
   <linearGradient xmlns="http://www.w3.org/2000/svg" gradientUnits="userSpaceOnUse" gradientTransform="scale(-110.7721 110.7721) rotate(61.066 315.541 305.122)" y2="437.886" y1="437.886" x2="-104.816" x1="-105.816" id="fndm-86xfnyr5or">
    <stop stop-color="#0066b3" offset="0"/>
    <stop stop-color="#0077c0" offset="0.11"/>
    <stop stop-color="#0094d6" offset="0.337"/>
    <stop stop-color="#00a8e5" offset="0.563"/>
    <stop stop-color="#00b5ef" offset="0.785"/>
    <stop stop-color="#00b9f2" offset="1"/>
   </linearGradient>
   <path clip-path="url(#fndm-ca45klvvdk)" d="m579.2,75.4l-70.9,128.2l-130.8,-72.3l70.9,-128.2l130.8,72.3z" fill="url(#fndm-86xfnyr5or)"/>
   <g xmlns="http://www.w3.org/2000/svg" fill="#395f6f">
    <path d="m32.5,116.9l-30.4,0c-1.4,0 -2.1,-0.7 -2.1,-2.1l0,-74.1c0,-1.4 0.7,-2.1 2.1,-2.1l28.7,0c6.9,0 12.3,1.6 16.4,4.6c4.6,3.4 7.1,8.8 7.1,15c0,4.8 -1.7,8.8 -4.6,11.7c-1.1,1.1 -2.4,2 -3.8,2.8c3.2,0.9 6.1,2.5 8.2,4.6c4.1,3.8 6.2,9 6.2,15.1c0,7.7 -2.8,14.1 -8.1,18.5c-4.9,4 -11.6,6 -19.7,6m-18.7,-66.3l0,18.6l15.9,0c3.2,0 5.8,-0.6 7.8,-2.2c2.2,-1.6 3.3,-4.1 3.3,-7.1c0,-3.2 -1.1,-5.6 -3.3,-7.2c-2,-1.4 -4.5,-2.1 -8,-2.1l-15.7,0zm0,29.9l0,24.4l18.2,0c4.4,0 7.8,-0.9 10.3,-3c2.8,-2.1 4.3,-5.4 4.3,-9.5c0,-4 -1.4,-7.1 -4,-9.1c-2.4,-2 -5.7,-2.8 -9.9,-2.8l-18.9,0zm65.2,36.4l-9.3,0c-1.4,0 -2.1,-0.7 -2.1,-2.1l0,-35.6c0,-5.3 1.6,-9.2 4.5,-12c2.8,-2.5 7,-3.9 12.3,-3.9l12.2,0c1.4,0 2.1,0.7 2.1,2.1l0,8c0,1.4 -0.7,2.1 -2.1,2.1l-9.4,0c-4.2,0 -6.2,2 -6.2,6.1l0,33.2c0,1.4 -0.7,2.1 -2,2.1m66.2,-7.8c-4.6,5.8 -11.3,9.4 -19.1,9.4c-7.4,0 -13.9,-3 -18.7,-8.7c-4.5,-5.2 -6.8,-12 -6.8,-19.7c0,-7.5 2.4,-14.4 6.8,-19.6c4.8,-5.6 11.3,-8.6 18.7,-8.6c7.8,0 14.5,3.4 19.1,9.2l0.7,-5.7c0.3,-1.4 0.9,-2 2.2,-2l7,0c1.4,0 2.1,0.7 2.1,2.1l0,49.4c0,1.4 -0.7,2.1 -2.1,2.1l-7,0c-1.3,0 -2.1,-0.6 -2.2,-2l-0.7,-5.9zm-27,-7.5c2.8,3 6.7,4.8 11.1,4.8c4.4,0 8.2,-1.8 11.1,-4.8c2.6,-3 4.2,-7 4.2,-11.5c0,-4.4 -1.6,-8.4 -4.2,-11.3c-2.9,-3 -6.7,-4.8 -11.1,-4.8c-4.4,0 -8.2,1.7 -11.1,4.7c-2.6,3 -4.2,7 -4.2,11.4c0,4.5 1.6,8.4 4.2,11.5m46.2,13.2l0,-8c0,-1.4 0.7,-2.1 2.1,-2.1l22.2,0c1.6,0 2.8,-0.4 3.7,-1.3c0.5,-0.5 0.9,-1.5 0.9,-2.4c0,-0.9 -0.3,-1.8 -1,-2.5c-0.4,-0.4 -1,-0.8 -1.8,-1.1l-15.5,-6.7c-2.9,-1.3 -5.2,-2.7 -6.9,-4.4c-2.5,-2.5 -3.7,-5.5 -3.7,-9.2c0,-3.8 1.3,-6.9 3.7,-9.3c2.8,-2.8 7.3,-4.5 13.1,-4.5l19.2,0c1.4,0 2.1,0.7 2.1,2.1l0,8c0,1.4 -0.7,2.1 -2.1,2.1l-18.3,0c-1.3,0 -2.2,0.4 -2.7,0.9c-0.4,0.4 -0.6,0.9 -0.6,1.7c0,0.5 0.2,1.1 0.6,1.6c0.4,0.4 1.1,0.8 2.1,1.3l13.8,6c2.9,1.3 5.1,2.7 6.8,4.4c2.6,2.6 3.9,5.8 3.9,9.8c0,4.4 -1.7,8 -4.3,10.9c-3,3 -7.7,4.9 -13.2,4.9l-22,0c-1.4,-0.1 -2.1,-0.8 -2.1,-2.2m60.1,2.1l-9.3,0c-1.4,0 -2.1,-0.7 -2.1,-2.1l0,-74.1c0,-1.4 0.7,-2.1 2.1,-2.1l9.3,0c1.4,0 2.1,0.7 2.1,2.1l0,42.8l1.1,0l17.1,-18.6c0.9,-1.1 1.6,-1.6 3.1,-1.6l11.8,0c0.8,0 1.4,1.1 0.8,1.9l-21.6,23l22.9,26.9c0.5,0.7 0.2,1.8 -0.9,1.8l-11.3,0c-2,0 -3.1,-0.5 -4.3,-1.9l-17.3,-20.7l-1.5,0l0,20.5c0.1,1.4 -0.6,2.1 -2,2.1"/>
    <path d="m289.4,118.5c-7.9,0 -15,-2.9 -20.3,-8.2c-5.2,-5.3 -7.9,-12.5 -7.9,-20.5c0,-7.5 2.8,-14.5 8.1,-19.7c5.2,-5.3 12.3,-8.1 19.8,-8.1c7.9,0 14.9,2.9 19.9,8.4c4.8,5.3 7.5,12.4 7.5,20.3l0,0.9c0,1.1 -0.8,2 -1.8,2l-41.4,0c0.5,3.4 1.9,6.3 4,8.7c2.8,3 6.9,4.7 11.9,4.7c5.6,0 10.9,-2.5 13.5,-6.9c0.5,-0.9 1.3,-1.5 2.4,-1.5l8.3,0c1.4,0 2.2,1 1.8,2.6c-2,5.3 -5.3,9.8 -10.1,12.8c-4.4,2.9 -10,4.5 -15.7,4.5m-15,-35.3l29.1,0c-1.7,-6.3 -6.7,-9.8 -14.2,-9.8c-4.8,0 -8.8,1.6 -11.7,4.6c-1.4,1.5 -2.5,3.2 -3.2,5.2m60.9,33.7l-9.3,0c-1.4,0 -2.1,-0.7 -2.1,-2.1l0,-49.4c0,-1.4 0.7,-2.1 2.1,-2.1l5.6,0c1.6,0 2.4,0.7 2.7,2.3l1,5.4c3.7,-5.6 9.5,-8.5 17.7,-8.5l2.5,0c5.7,0 10.4,2 13.7,5.7c0.8,0.9 1.6,2.1 2.3,3.3c3.5,-6.1 9.6,-9.1 18,-9.1l2.5,0c5.7,0 10.4,2 13.7,5.7c3,3.4 4.6,8.4 4.6,14.2l0,32.3c0,1.4 -0.7,2.1 -2.1,2.1l-9.4,0c-1.4,0 -2.1,-0.7 -2.1,-2.1l0,-29.3c0,-6.7 -3.3,-10.4 -9.2,-10.4l-3,0c-6.6,0 -10.7,4.3 -10.7,11.7l0,28.3c0,1.4 -0.7,2.1 -2.1,2.1l-9.4,0c-1.4,0 -2.1,-0.7 -2.1,-2.1l0,-29.6c0,-6.7 -3.3,-10.4 -9.2,-10.4l-3,0c-6.6,0 -10.7,4.3 -10.7,11.7l0,28.3c0,1.3 -0.7,2 -2,2"/>
   </g>
  </svg>