<svg  id="fndm-hyiw2jt75b" viewBox="0.132971853017807 0.9000000357627869 1313.745361328125 388.1000061035156" xmlns="http://www.w3.org/2000/svg">
   <g xmlns="http://www.w3.org/2000/svg" fill="none">
    <path d="m49.5,2.2c-1.2,3.8 -5.4,34.3 -4.8,34.8c0.5,0.4 4.4,1.5 8.8,2.4c27.2,6.1 60,17.9 86.5,31c37.1,18.4 65,38 98.3,68.9c7,6.5 11.1,9.6 11.9,9.1c0.7,-0.4 19.3,-12.5 41.3,-26.9c22,-14.4 41,-26.7 42.2,-27.3c2.8,-1.6 8.6,-1.5 10.1,0c1.9,1.9 1.4,7.3 -1,10.4c-1.3,1.6 -17.5,18.6 -36,37.7l-33.6,34.9l6.3,8.4c36.2,47.3 61.2,103.2 73,162.7c2.1,10.9 5.5,34.4 5.5,38.4c0,1 4.3,1.3 19.3,1.3l19.3,0l10.8,-69.3c6,-38 13.5,-85.9 16.7,-106.2c3.2,-20.4 9.2,-58.8 13.3,-85.5c12.6,-79.9 14.6,-92.8 17.1,-108.7c1.4,-8.3 2.5,-15.7 2.5,-16.2c0,-1.7 -406.9,-1.5 -407.5,0.1z" fill="#4EABE9"/>
    <path d="m520.5,3.2c-0.3,1.3 -12,75.1 -26,164.1c-27.2,172.7 -27.4,174.1 -24,187.2c3.4,12.7 11.7,23.5 22,28.5c10.8,5.2 11.6,5.3 65.5,5.8c56.4,0.4 68.6,-0.2 86.9,-4.8c35.7,-9.1 66.2,-35.2 79.7,-68.4c10.6,-26.1 13.2,-58.9 6.3,-81.4c-2.6,-8.2 -7.9,-19.1 -12.5,-25.3c-5,-6.8 -15.3,-16.1 -22.8,-20.6l-6.5,-3.9l3.7,-2c17.3,-9.2 36.8,-30.4 45.8,-49.9c10.6,-22.9 13,-52.2 6.3,-74.2c-7.4,-24.2 -25.3,-43.1 -48.1,-50.9c-16.3,-5.5 -19,-5.7 -100.5,-6.1l-75.2,-0.4l-0.6,2.3zm142.5,58.2c11.6,3.8 16.5,13.1 16.4,30.6c-0.2,26.3 -13.2,48.4 -34.5,58.8c-14.6,7.2 -16.5,7.5 -52.2,8l-31.9,0.4l0.6,-2.9c0.3,-1.5 3.7,-22.8 7.6,-47.3c3.9,-24.5 7.3,-45.8 7.6,-47.3l0.6,-2.9l40.2,0.4c34.8,0.4 40.8,0.7 45.6,2.2zm-42.3,159.7c19.2,2.1 31.6,7.9 38.5,18c4.9,7 6.8,14.9 6.8,27.4c0,12.4 -2,21.8 -6.3,31c-4.7,9.8 -10.4,16.5 -18.7,22c-15,10 -24.8,11.5 -73.5,11.5l-33.5,0l0.5,-2.3c0.7,-3.1 16.5,-106.1 16.5,-107.5c0,-1.6 56,-1.7 69.7,-0.1zm184.9,-218.9c-0.3,0.7 -11.1,69.7 -24.1,153.3c-13,83.6 -25.2,161.6 -27.1,173.3c-4.3,27 -4.4,35 -0.6,42.3c3.4,6.6 9.1,11 17.4,13.8c7,2.3 20.6,4.1 31.4,4.1l7.2,0l1,-5.8c0.5,-3.1 6.1,-38.7 12.3,-79l11.4,-73.2l17.5,0l17.5,0.1l38.5,78.9l38.5,79l36.7,0c21.5,0 36.8,-0.4 36.8,-0.9s-18.7,-38 -41.5,-83.3l-41.4,-82.4l7.2,-1.8c17.6,-4.5 35.9,-15 50.5,-29c18.3,-17.6 30.5,-38.7 37,-64.3c2.5,-10 2.7,-12.2 2.6,-30.8c0,-18.3 -0.3,-20.8 -2.6,-29.6c-8.2,-30.4 -28.2,-50.2 -60.3,-59.8c-17.7,-5.3 -19.1,-5.4 -94.8,-5.8c-58,-0.4 -70.8,-0.2 -71.1,0.9zm136.4,59.2c12.6,3.1 20,7.9 24.1,15.8c2.5,5 4.1,16.7 3.3,25.3c-3.1,35 -21.4,58.1 -53.4,67.6c-6.9,2.1 -10,2.3 -39.7,2.7c-21.9,0.2 -32.3,0 -32.3,-0.7c0,-1.3 16.9,-107.9 17.6,-110.9l0.5,-2.4l36.2,0.4c30.5,0.4 37.4,0.7 43.7,2.2zm143.6,-57.7c-0.3,1.6 -11.9,74.3 -25.8,161.8c-23.9,151.1 -25.2,159.7 -25.2,172.5c0,11.4 0.4,14.5 2.3,19.9c5.4,15.6 14.9,24.3 31.4,28.9c5.5,1.5 12.3,1.7 63.2,1.7c51.5,0 58,-0.2 67,-1.9c52.2,-9.8 87.8,-44 98.7,-94.9c3.1,-14.9 3.2,-40.6 0.1,-52.9c-5.4,-21.1 -17.6,-38.5 -35.1,-49.6c-3.5,-2.2 -6.4,-4.3 -6.5,-4.5c-0.1,-0.3 3.3,-2.8 7.6,-5.6c15.7,-10.3 30.7,-27.1 39.1,-43.8c14.1,-28.1 15.3,-63.3 3.1,-88.8c-10,-20.9 -28.9,-36.1 -51.5,-41.4c-14.3,-3.4 -31.6,-4.1 -101.1,-4.1l-66.7,0l-0.6,2.7zm133.5,56.3c13.8,1.6 18.5,4.5 23.1,14.5c2,4.4 2.3,6.5 2.2,17c-0.1,20.6 -5.5,34.5 -18.4,47.6c-8.1,8.2 -15.7,12.8 -28.5,17c-6.6,2.1 -8.9,2.3 -39.1,2.7l-32.1,0.4l0.8,-5.4c2.6,-15.7 14.9,-93.5 14.9,-94.1c0,-1.1 67.4,-0.8 77.1,0.3zm-23.1,162.4c14.4,3.3 24.5,9.5 29.6,18.2c4,6.8 5.4,13.8 5.5,25.9c0,26.6 -11,46.7 -31.1,56.8c-12.9,6.4 -16.7,6.9 -61.1,7.4l-39.5,0.5l8.3,-54.4c4.6,-29.8 8.6,-54.9 8.9,-55.7c0.7,-2.1 69.1,-1 79.4,1.3zm-1159.5,-139.2c-0.3,1.3 -8.4,52.7 -18.1,114.3c-15.7,99.7 -17.7,113.7 -18.1,127.5c-0.4,12.1 -0.1,17 1.1,22.4c5.7,24.3 24.5,37.4 58.1,40.6c5.7,0.5 63,1 132.4,1l122.4,0l-0.7,-6.2c-5,-47 -22.9,-99.2 -48.2,-140.6c-6.7,-11 -21.1,-31.9 -22.5,-32.8c-0.5,-0.3 -26.4,14.7 -57.5,33.2c-56.7,33.6 -58.8,34.7 -60.1,30.7c-0.2,-0.6 19.2,-23.1 43.2,-50l43.6,-48.8l-7.8,-7.3c-41.9,-39.3 -96.4,-69.1 -151.8,-83.1c-14.4,-3.7 -15.3,-3.7 -16,-0.9z" fill="#1B3879"/>
   </g>
  </svg>