<svg  id="fndm-ijtcbvdffv" viewBox="0.9103422164916992 0.2697410583496094 472.90008544921875 502.1802978515625" xmlns="http://www.w3.org/2000/svg">
   <g xmlns="http://www.w3.org/2000/svg" fill="#E0021B">
    <path d="m235.86,437.6c-3,-2.82 -2.85,-6.33 -2.81,-9.58c0.52,-45.81 -3.26,-91.42 -6.23,-137.06c-2.72,-42 -11.63,-83 -23.19,-123.48c-9.14,-32 -16.89,-64.36 -17.34,-98c-0.19,-13.34 0.73,-26.52 5.63,-39.13c7.63,-19.64 23.43,-30.14 45.25,-30.08c21.82,0.06 38.29,11 45.77,30.46c6.72,17.51 6.6,35.69 5.18,53.94c-2.46,31.76 -9.68,62.7 -19.88,92.66c-18.13,53.21 -23.64,108 -24.8,163.69c-0.58,27.51 -1.41,55 -3.6,82.48c-0.4,4.84 -0.33,9.94 -3.98,14.1zm-21,-66.25c0,5.14 0.08,10.28 0,15.41c0,1.51 -0.32,3.44 -2.36,3.522c-1.54,0.058 -2.39,-1.342 -2.76,-2.712c-1.13,-4.2 -2.25,-8.4 -3.19,-12.64c-11.46,-51.76 -33.44,-98 -72.13,-135.13c-16.42,-15.76 -34.86,-29.27 -51.2,-45.14c-11.67,-11.33 -22.88,-23.06 -31.38,-37c-18.84,-31 -3.66,-67.21 31.24,-74.3c13.81,-2.81 26.28,0.74 37.34,9.38c22.69,17.71 38.42,40.73 50.55,66.46c17.64,37.4 26.81,77.22 33.33,117.78c5.02,31.25 7.73,62.79 10.56,94.37zm46.16,-4.43c4.13,-55.76 9.92,-108.64 25.1,-160c10.3,-34.81 24.37,-67.76 48.63,-95.48a146.74,146.74 0 0 1 19.35,-18.36c17.91,-14.16 41.19,-14.2 59.21,-0.08c17.426,13.474 23.133,37.255 13.72,57.17c-7.22,15.74 -18.88,28.18 -31,40.22c-14.74,14.68 -30.9,27.76 -46.62,41.35c-39.79,34.43 -64,78.34 -77.38,128.7c-2.18,8.22 -3.87,16.57 -6,24.81c-0.54,2.15 -1.06,5.42 -4,4.85c-2.32,-0.46 -2.15,-3.53 -2.05,-5.66c0.33,-6.71 0.79,-13.45 1.04,-17.52z"/>
    <path d="m409.72,314.18a93.34,93.34 0 0 0 -40.66,3.19c-24.26,7.74 -42.62,23.71 -59.21,42.18c-18.18,20.25 -31.63,43.39 -41.75,68.57c-1.24,3.1 -2.14,8.46 -6.09,7.22c-2.77,-0.87 -0.8,-6 0.12,-9.1c14.14,-47.52 33,-92.82 63.43,-132.52a292.44,292.44 0 0 1 72.42,-67c10.94,-7.16 22.8,-11.67 36.27,-11.19c9.41,0.34 17.66,3.49 23.91,10.26c12.53,13.55 18.54,29.67 14.3,48c-3.42,14.83 -14.72,24 -27,31.67c-10.39,6.44 -22.02,8.58 -35.74,8.72zm-332.96,-0.9c-11.66,1.37 -24.82,1.52 -37.63,-3.27c-14.08,-5.26 -24.91,-14.61 -32.95,-27c-5.65,-8.69 -6.36,-18.77 -4,-28.68c4.22,-17.46 11.77,-32.77 31,-37.75c12.86,-3.34 25.3,-0.42 36.62,6c27.14,15.42 50,36 70.28,59.59c28.8,33.48 48.21,72.23 62.87,113.55c3.51,9.87 6.56,19.91 9.75,29.89a42.92,42.92 0 0 1 1.46,6.38c0.21,1.33 0.34,3 -1.16,3.65c-1.95,0.81 -2.89,-1 -3.59,-2.27a76.28,76.28 0 0 1 -3.13,-7c-16.27,-38.69 -39.31,-72.22 -74.33,-96.38c-16.04,-11.08 -33.93,-16.84 -55.19,-16.71z"/>
    <path d="m406.86,335.67c9.58,-0.26 19,0.73 28.06,3.95c22.22,7.85 32.59,33 23.23,56.31c-8.5,21.15 -30,29.1 -52.26,19.18c-7.77,-3.46 -15.5,-7 -23.12,-10.78c-28.46,-14.11 -54.59,-10.82 -78.74,9.89c-7.84,6.73 -15.39,13.64 -21.69,21.85c-1.21,1.56 -2.68,3.41 -4.9,2.13c-2.38,-1.37 -1.92,-3.64 -0.89,-5.75c15.48,-31.85 36.08,-59.63 65.84,-79.45c19.32,-12.87 41.55,-16.86 64.47,-17.33zm-334.8,0.05c31.54,0.35 62,12.09 86.42,38.8c15,16.48 28.34,34 38.27,54a38.84,38.84 0 0 1 2.37,6.06a3,3 0 0 1 -1.38,3.6c-1.43,0.85 -2.74,0.23 -3.77,-0.74a27,27 0 0 1 -2.67,-3.17c-10.07,-12.76 -22.49,-22.79 -36.42,-31c-14.87,-8.72 -30.61,-9.79 -47,-4.89c-13.33,4 -25.5,10.72 -38.15,16.3c-23.35,10.32 -44.91,2.38 -53.28,-19.8c-8.94,-23.71 2.21,-48.34 25.2,-55.87c8.64,-2.75 17.48,-3.28 30.41,-3.29z"/>
    <path d="m350.06,502.33c-13.77,-0.41 -30.74,-7.12 -46.94,-16.25c-1.65,-0.93 -3,-2.16 -2.46,-4.26c0.54,-2.1 2.15,-2.67 4,-2.88l2.37,-0.25c9.95,-1 14.83,-5.79 15.12,-14.72c0.31,-9.7 -5.61,-17 -14.93,-18.31c-1.36,-0.19 -2.77,-0.13 -4.14,-0.33c-4.81,-0.71 -6.47,-4.35 -4,-8.63c10.73,-18.36 43.48,-28.91 64.66,-20.84c22.93,8.74 36.75,32.86 32.07,56c-3.95,19.62 -18.39,30.48 -45.75,30.47zm-230.73,0.12c-15.82,-0.28 -29.23,-5.13 -36.47,-20.06c-8.16,-16.82 -6,-33.21 4.84,-48.18c18.47,-25.49 51.39,-28.66 77.47,-7.69c3.23,2.6 6.15,5.58 9.15,8.46c2.11,2 3.43,4.44 2.3,7.45c-1.13,3.01 -4,2.79 -6.5,3c-12,1.15 -18.81,9.49 -17.08,20.89c1,6.85 5.66,11.32 12.58,12.13c1.37,0.17 2.76,0.23 4.13,0.42c2,0.28 4.1,0.46 4.6,3s-1.14,3.62 -3,4.6c-16.26,8.87 -33.2,15.72 -52.02,15.98z"/>
   </g>
  </svg>