<svg  id="fndm-itedf2e4ul" viewBox="0.06531906127929688 0.20760250091552734 1088.7742919921875 114.64195251464844" xmlns="http://www.w3.org/2000/svg">
   <g xmlns="http://www.w3.org/2000/svg" fill="none">
    <path d="m307.37,67c4.87,-19.06 9.92,-38.08 14.49,-57.22c1.27,-5.32 3.19,-7.64 9.11,-7.34c10.75,0.55 21.55,0.34 32.32,0.06c4.25,-0.1 5.46,1.31 5.44,5.46c-0.12,33.2 -0.103,66.407 0.05,99.62c0,4.38 -1.61,5.18 -5.57,5.37c-22.24,1.07 -22.23,1.17 -22.23,-20.78l0,-60.12c-4,6.9 -4.57,13.29 -6.17,19.24c-5,18.51 -9.8,37.07 -14.15,55.73c-1.12,4.8 -3.13,5.86 -7.64,5.94c-19.28,0.32 -19.23,0.44 -24,-18.53c-4.77,-18.97 -9.7,-38 -14.79,-58c-3.08,2.35 -2.23,4.73 -2.23,6.69c0,21 -0.13,41.94 0.14,62.91c0.07,5.13 -1,6.93 -6.67,7c-21.26,0.09 -21.26,0.34 -21.26,-21.13c0,-27.38 0.15,-54.76 -0.09,-82.14c-0.05,-5.56 1.21,-7.62 7.19,-7.31c10.46,0.55 21,0.5 31.45,0c5.23,-0.24 6.9,1.72 8.06,6.47c4.73,19.36 9.89,38.62 14.9,57.92l1.65,0.16zm162.43,-12.58c12.92,4.38 21.29,11 22.2,24.31c0.82,12.09 -3.37,21.58 -13.42,28.36c-6.28,4.22 -13.7,5.15 -20.83,5.34c-20.94,0.56 -41.9,0.26 -62.85,0.55c-4.08,0.06 -4.73,-1.51 -4.72,-5.09c0.107,-33.46 0.107,-66.923 0,-100.39c0,-3.69 0.9,-5 4.84,-5c20.37,0.25 40.76,-0.39 61.1,0.43c21,0.85 31.72,12 30.64,29.89c-0.58,10.52 -6.78,16.88 -16.96,21.6zm-32.54,12.5l0,0.21c-2.33,0 -4.68,0.18 -7,-0.05c-4.25,-0.42 -6.6,0.59 -6.06,5.6c0.44,4 0.07,8.15 0.1,12.23c0,2.35 -0.11,4.93 3.41,4.73c7.52,-0.44 15.14,1.14 22.56,-1.27c5.44,-1.76 8.2,-5.5 7.87,-11.09c-0.32,-5.31 -3.72,-8.57 -8.71,-9.54c-3.96,-0.81 -8.1,-0.62 -12.17,-0.86l0,0.04zm-1.36,-20.62c3.25,-0.25 6.83,-0.06 10.15,-0.89c6.53,-1.64 8.55,-6.39 7.39,-12.71c-0.8,-4.37 -4.15,-6.63 -7.94,-7c-6.8,-0.7 -13.73,-1.89 -20.51,0.37a0.9,0.9 0 0 0 -0.45,0.72c0.06,6.06 -1,12.46 0.69,18c0.95,3.1 6.84,0.63 10.67,1.47l0,0.04zm104.72,-6.32c0,10.2 -0.19,20.39 0,30.58c0.27,11.75 7.16,18.71 18.22,18.91c11.64,0.21 19,-6.62 19.22,-18.88c0.35,-20.38 0.3,-40.77 0.07,-61.15c-0.06,-5.09 0.87,-7.39 6.62,-7c7.56,0.415 15.137,0.435 22.7,0.06c3.82,-0.12 5,1.15 5,5c-0.2,21.25 0.59,42.55 -0.41,63.76c-1.27,26.89 -17.26,42 -44,43.3a115.17,115.17 0 0 1 -26.09,-1.25c-19.55,-3.5 -31.91,-15.17 -34.38,-35.06c-3,-23.74 -0.64,-47.7 -1.24,-71.56c-0.09,-3.77 1.94,-4.16 5,-4.12c8.15,0.11 16.31,0.21 24.46,0c4,-0.12 4.89,1.51 4.83,5.14c-0.18,10.77 -0.06,21.55 -0.06,32.32l0.06,-0.05z" fill="#040404"/>
    <path d="m914.33,114.77c-7.27,-0.21 -14.53,-0.31 -21.67,-2.14a37.51,37.51 0 0 1 -28,-30.3c-0.75,-4.51 0.42,-6.4 5.22,-6.42a161.75,161.75 0 0 0 20,-1.17c4.74,-0.62 6.44,0.8 7.88,5.39a18.78,18.78 0 0 0 25.94,11.6c3.86,-1.82 6.79,-4.52 7.13,-9.15c0.34,-4.63 -2.37,-7.71 -6.07,-9.81c-5.38,-3.06 -11.52,-4 -17.42,-5.49c-9.33,-2.39 -18.58,-5.06 -26.57,-10.66c-17.65,-12.37 -17.39,-37.64 1.36,-48.15c19.75,-11.07 40.77,-10.32 61.47,-1.88c4.56,1.87 8.12,5.48 11,9.75c3,4.49 6.18,9.88 5.15,14.48c-1.49,6.66 -8.63,1.92 -13.07,3.4c-3,1 -6.34,0.69 -9.52,1.08c-5.22,0.65 -8.92,0.2 -11.25,-6.09c-2.8,-7.57 -13.71,-10.11 -21.08,-6.3c-3.16,1.64 -5.15,4.19 -4.82,7.62c0.33,3.43 3.33,5.5 6.48,6.38c7.28,2 14.69,3.59 22,5.58a122.91,122.91 0 0 1 13.24,4.39c13.57,5.42 22.34,14.57 22.44,30.05c0.1,14.79 -8.49,27.56 -22.41,33.5c-8.78,3.74 -18.04,4.45 -27.43,4.34z" fill="gray"/>
    <path d="m113.54,112.85c13.53,-36 26.59,-70.38 39.32,-104.92c1.65,-4.49 4,-5.57 8.29,-5.41c10.16,0.38 22.8,-3.26 29.81,1.52c7.01,4.78 8.32,17.72 11.9,27.18c10.13,26.8 20.14,53.63 30.64,81.63c-11.26,0 -21.59,-0.1 -31.92,0c-5.21,0.06 -5.2,-4 -5.64,-7.17c-1.24,-8.7 -5.45,-12.61 -14.56,-10.93c-3.65,0.67 -7.54,0.11 -11.33,0.11c-15.51,0 -15.73,-0.07 -20.61,14c-1.1,3.2 -2.34,4 -5.34,4c-9.87,-0.09 -19.74,-0.01 -30.56,-0.01zm47.64,-42.3l24,0l-12,-39.43l-12,39.43z" fill="#040404"/>
    <path d="m1030.18,2.42c18.52,-0.05 18.49,0 25.15,17.69c10.74,28.61 21.42,57.24 32.41,85.76c2.22,5.76 1.33,7.54 -5,7.05a100.23,100.23 0 0 0 -19.21,0.06c-7.27,0.83 -11,-1.77 -11.78,-8.9c-0.82,-7.42 -4.71,-10.1 -12.24,-9.31a114.75,114.75 0 0 1 -21,0c-6.37,-0.52 -10,1.5 -10.6,8c-0.76,8.36 -5.25,11.43 -13.45,10.11c-3.41,-0.55 -7,-0.1 -10.48,-0.1c-14.15,0 -14.1,0 -9.23,-12.85c10.94,-28.84 22.26,-57.54 32.45,-86.65c3,-8.68 6.85,-12.66 16,-11c2.21,0.5 4.61,0.14 6.98,0.14zm-0.41,29.06c-2.77,8.85 -5,15.71 -7,22.59c-5.49,18 -5.48,17.91 13.44,16.79c4.47,-0.27 5.44,-1.37 4,-5.69c-3.55,-10.4 -6.59,-20.96 -10.48,-33.68l0.04,-0.01z" fill="gray"/>
    <path d="m106.18,35c-5.47,1.34 -10.83,2.59 -16.14,4c-7.38,1.95 -13,3.11 -18.62,-5.64c-7.77,-12 -27.06,-9 -33.14,4.47c-6.08,13.47 -5.56,27.86 0.07,41.54c3.26,7.92 10.7,10.42 18.71,10.14c9,-0.31 15.94,-4.92 18.2,-13.65c2,-7.62 5.53,-7.77 11.57,-5.28a60.32,60.32 0 0 0 13.35,3.92c7.74,1.21 7.41,5.23 5,11c-7.42,17.8 -20.39,27.75 -39.82,29c-7.58,0.48 -15.19,0.64 -22.65,-0.68c-28.35,-5 -44.88,-28.82 -42.4,-61.52c1.59,-21 9,-39 30.45,-46.67c21.45,-7.67 42.85,-8.2 61.88,7.13c6.95,5.6 11.2,13.21 13.54,22.24zm579.52,79.71c-20.4,0.59 -39,-6 -48.6,-27.38c-10,-22.24 -10.24,-45.19 3.56,-65.84c13,-19.43 33.68,-21.95 55.24,-20c18.82,1.74 31.87,11.18 39.21,28.75c1.72,4.11 1.26,5.44 -3.19,6a75.7,75.7 0 0 0 -12.74,2.94c-7,2.15 -11.8,2.3 -17,-5.5c-8.6,-13 -29.82,-8.65 -35,6.7c-4.08,12.11 -3.64,24.81 0.27,37c2.72,8.43 9.92,12.07 18.42,12.19c8.87,0.12 16.42,-3.55 19,-12.45c2.41,-8.42 6.46,-9.52 13.56,-6c2.56,1.28 5.5,1.8 8.28,2.62c12.5,3.7 12.51,3.71 7.05,15.33c-9.26,19.7 -25.9,26.24 -48.06,25.64zm70.2,-56.38c0,-16.62 0.14,-33.24 -0.08,-49.86c-0.06,-4.42 1,-6.23 5.77,-6c7.56,0.39 15.16,0.34 22.73,0c4.45,-0.19 6.07,1 6,5.76c-0.18,32.94 -0.18,65.883 0,98.83c0,4.66 -1.36,6 -5.9,5.84a207.64,207.64 0 0 0 -22.73,0c-5.44,0.36 -6,-2 -6,-6.55c0.36,-15.93 0.21,-31.99 0.21,-48.02z" fill="#040404"/>
   </g>
  </svg>