<svg  id="fndm-ak8a7znkbv" viewBox="-0.0000069141387939453125 0.000274658203125 955.4400634765625 314.6723327636719" xmlns="http://www.w3.org/2000/svg">
   <defs xmlns="http://www.w3.org/2000/svg">
    <radialGradient gradientTransform="matrix(.91654 .37017 -.39995 .8483 .185 .07)" fy="46.281%" fx="0%" r="96.978%" cy="46.281%" cx="0%" id="fndm-lwu2bujsa4">
     <stop stop-color="#248BCE" offset="0%"/>
     <stop stop-color="#0F3C77" offset="100%"/>
    </radialGradient>
   </defs>
   <g xmlns="http://www.w3.org/2000/svg" fill="none">
    <path transform="matrix(1 0 0 -1 -.5 314.9)" d="m143.4,314.644c-38.1,-3.9 -70.7,-19.3 -97.5,-46.3c-22.8,-22.9 -36.3,-47.7 -43.2,-79.5c-1.9,-8.7 -2.2,-13.1 -2.2,-31.6c0,-18.3 0.3,-22.9 2.2,-31.3c7,-31.6 21.1,-57.6 43.2,-79.7c23.7,-23.7 52.4,-38.5 85.4,-44.2c17.5,-2.9 43.1,-2.3 60,1.6c28.5,6.6 53.1,19.6 73.4,39c19.5,18.6 28.3,39 26.9,62.6c-1,15.7 -5.2,27.9 -14.3,40.6c-6,8.5 -69.6,69.7 -78.6,75.7c-12.9,8.5 -25.3,12.1 -41.8,12.1c-8.9,0 -13.3,-0.5 -19.4,-2.3c-33.9,-9.5 -56.6,-39.1 -56.6,-73.5c0,-5.6 0.7,-13.1 1.4,-16.7c5.9,-27.9 29,-51.2 57.2,-58c7.4,-1.8 11,-2 20.9,-1.6c24,0.9 40,9.4 61.1,32.4l8.8,9.6l-11.2,10.8c-6.1,6 -11.7,10.9 -12.3,10.9c-0.6,0 -5.5,-4.7 -11,-10.4s-12.2,-11.9 -14.9,-13.6c-24,-15.4 -55.6,-4.5 -65.1,22.5c-1.7,4.9 -2,7.7 -1.7,15.6c0.3,8.7 0.7,10.4 4.1,17.2c8.5,17.1 27.1,26.9 45.3,23.9c13.3,-2.2 15.7,-4 53.1,-40.2c30.2,-29.2 34.5,-33.7 37.3,-39.4c8.8,-17.8 5.3,-37.1 -9.3,-51.7c-17.5,-17.6 -41.6,-30.1 -66.1,-34.4c-11.4,-1.9 -31.8,-1.9 -43.2,0c-51.6,9 -92.3,50.2 -101.5,102.5c-3.2,18.2 -0.8,44 5.7,62.2c10.7,29.7 33.7,55.5 62.2,69.7c45.3,22.7 101.7,14.6 139.5,-19.9c13.3,-12.1 18,-29.7 12.3,-46.3l-2.3,-6.8l12.1,-11.5c13.7,-13.1 12.2,-13 18.1,-0.9c4.8,9.9 6.6,17.4 7.2,30c1,22.3 -6,40.6 -21.7,56.5c-21.1,21.4 -51.4,36.9 -82.7,42.5c-8.8,1.5 -33.2,2.7 -40.8,1.9z" fill="url(#fndm-lwu2bujsa4)"/>
    <path d="m876.44,69.902c-12.6,5.1 -13.9,23.9 -1.9,29.9c8.3,4.3 17.4,1.8 22.7,-6c2,-2.9 2.3,-4.4 2,-9.3c-0.5,-6.7 -2.7,-10.1 -8.4,-13.4c-4.2,-2.4 -10.1,-2.9 -14.4,-1.2zm48,83.9l0,85.1l2.5,2.4c2.3,2.4 2.9,2.5 15.5,2.5l13,0l0,-170.1l-2.5,-2.4c-2.3,-2.4 -2.9,-2.5 -15.5,-2.5l-13,0l0,85zm-505.6,-82c-28.7,4.1 -53.6,22.7 -65.9,49.4c-10.1,21.7 -10.6,51.1 -1.3,73.4c14.1,34 46.8,54 84.7,51.9c23.4,-1.3 42.2,-10 59.4,-27.4l6.7,-6.9l-9.3,-9.2c-11.4,-11.1 -12.2,-11.3 -20.4,-4.1c-11.7,10.3 -20.6,14.8 -33.9,16.9c-15.2,2.5 -33,-3.1 -43.8,-13.8c-11.3,-11 -16.6,-23.4 -17.4,-40.2c-0.8,-18.9 4.2,-32.6 16.2,-44.6c11.9,-11.8 23.2,-16.1 40.6,-15.1c14.4,0.7 24,4.9 37.6,16.4c5.1,4.3 8,5.1 11.3,3.4c0.9,-0.5 5.4,-5.1 10,-10.1l8.4,-9.1l-2.9,-3c-8.5,-8.9 -21.7,-18 -32.6,-22.4c-12.2,-4.9 -33.7,-7.5 -47.4,-5.5zm233.6,103.5l0,63.6l2.5,2.4c2.3,2.4 2.9,2.5 15.4,2.5l13,0l0.3,-41.8c0.3,-41 0.3,-41.8 2.6,-46.7c1.2,-2.7 3,-5.8 4,-6.8c4.7,-5.2 16.8,-8 25.2,-5.7c5.5,1.5 12.3,7.9 14.1,13.5c0.9,2.9 1.4,15.2 1.8,43.8l0.6,39.9l2.4,1.9c2,1.6 4,1.9 15.2,1.9l12.8,0l0.3,-42.3c0.3,-45.4 0.3,-45 5.8,-52c4.8,-6.1 16.8,-9.2 26,-6.7c5.4,1.4 11.9,7.7 13.9,13.5c1.1,3.1 1.6,13.3 2,43.8l0.6,39.9l2.4,1.9c2,1.6 4,1.9 15.2,1.9l12.9,0l0,-42.8c0,-33.6 -0.3,-44.2 -1.5,-49.6c-5.3,-24.8 -22.4,-38.7 -48,-38.9c-15,-0.1 -24.5,3.2 -35.8,12.6l-4.7,3.9l-5.1,-4.7c-14.1,-13.2 -36.6,-15.9 -55.1,-6.6l-7.8,3.9l0,-4.3c0,-3 -0.5,-4.5 -1.6,-4.9c-0.9,-0.3 -7.8,-0.6 -15.5,-0.6l-13.9,0l0,63.5zm-97.5,-61.5c-7.8,1.3 -18.4,4.5 -26.2,8c-5.7,2.6 -6.3,3.1 -6.3,5.9c0,4.3 10.7,20.4 12.9,19.6c10.8,-4.3 35.4,-6.9 43.9,-4.6c5.5,1.5 11.6,7.1 13.7,12.4c0.8,2.3 1.9,7.2 2.3,10.9l0.8,6.7l-3.1,-1.9c-8.5,-5.2 -30.9,-7 -46.2,-3.7c-25,5.5 -38.7,22.2 -35.3,43.2c2.9,18.1 16.6,30.7 37.9,35.1c15.6,3.1 27.4,0.6 39.1,-8.3c3.9,-3 7.3,-5.3 7.5,-5.1c0.1,0.2 1.4,2.6 2.8,5.4c1.4,2.8 3.3,5.4 4.2,5.8c0.9,0.3 6.6,0.6 12.6,0.6l10.9,0l0,-42.8c0,-46.5 -0.4,-50.9 -5.6,-61.9c-5.1,-10.7 -16.2,-19.4 -30.4,-23.8c-6.6,-2 -26.7,-2.8 -35.5,-1.5zm34.4,74.2l6.3,1.2l-0.4,6.3c-0.3,4.9 -1,7.2 -3.4,10.5c-4,5.8 -11.9,10.3 -20.3,11.9c-19.7,3.5 -34.5,-8.5 -27.2,-22.1c2.1,-4.1 8.5,-7.7 15.7,-9c5.7,-1 20.1,-0.4 29.3,1.2zm278.1,-11.2l0,62.1l2.5,2.4c2.3,2.4 2.9,2.5 15.5,2.5l13,0l0,-123.7l-2.5,-2.7c-2.4,-2.6 -2.6,-2.6 -15.5,-2.6l-13,0l0,62z" fill="#132B5F"/>
   </g>
  </svg>