<svg xmlns="http://www.w3.org/2000/svg" viewBox="-7.152557373046875e-7 9.5367431640625e-7 177.49598693847656 73.99968719482422"><g xmlns="http://www.w3.org/2000/svg" fill="none"><path fill="#FE3859" d="m13.57129,20.2468c-1.8975,4.32 -2.7703,8.924 -3.4344,13.547c-1.3248,8.858 -1.9592,17.805 -1.8974,26.76c-0.0127,3.675 -1.3851,5.231 -4.3894,5.231c-2.6438,-0.038 -4.0226,-1.676 -3.8328,-5.389c0.6325,-11.909 2.7449,-23.61 5.376,-35.222c1.2098,-5.772 3.0795,-11.385 5.5722,-16.729c0.974,-2.012 2.1567,-3.89 4.2376,-4.953c3.3394,-1.701 5.9706,-0.126 5.863,3.624c-0.0885,3.163 -1.2649,6.148 -0.9803,9.38c0.7007,7.405 1.8668,14.758 3.4912,22.017c1.531,-1.095 1.676,-2.764 2.315,-4.111c2.751,-5.8 5.218,-11.777 10.056,-16.274c2.258,-2.1 4.674,-3.991 7.925,-4.193c2.827,-0.171 3.548,0.771 2.53,3.333c-3.896,10.119 -4.269,20.606 -2.909,31.105c1.334,10.271 6.666,17.602 17.538,19.695c0.551,0.108 1.303,0.032 1.626,1.069c-1.961,1.619 -4.32,1.695 -6.673,1.354c-10.518,-1.544 -17.254,-8.317 -19.297,-19.253c-1.619,-8.557 -0.107,-16.976 1.145,-25.704c-2.055,1.569 -2.941,3.669 -3.934,5.623c-3.346,6.597 -5.97,13.453 -6.837,20.872c-0.101,0.624 -0.245,1.241 -0.43,1.847c-0.443,1.707 -1.537,2.827 -3.283,2.947c-1.7453,0.12 -2.5991,-1.265 -3.162,-2.657c-1.9376,-5.342 -3.4021,-10.845 -4.3768,-16.444c-1.0994,-5.774 -1.8471,-11.61 -2.2389,-17.475l0,0zm148.6567,14.091c-6.128,-0.601 -11.264,-0.436 -16.33,0.702c-2.075,0.468 -3.662,0.146 -4.168,-2.049c-0.538,-2.353 0.911,-3.124 3.029,-3.333c3.239,-0.316 6.458,-0.936 9.703,-1.126c1.676,-0.101 2.169,-0.765 2.314,-2.239c0.094,-0.934 0.336,-1.848 0.715,-2.707c0.228,-0.544 0.657,-0.98 1.198,-1.215c0.541,-0.236 1.152,-0.254 1.705,-0.05c1.322,0.354 1.082,1.575 0.772,2.359c-1.449,3.707 0.727,4.2 3.561,4.295c1.051,0.054 2.096,0.196 3.124,0.424c3.428,0.689 4.39,3.662 2.068,6.369c-1.05,1.227 -2.53,1.897 -3.864,2.681c-5.61,3.302 -10.809,7.097 -15.123,12.587c9.924,-0.633 19.569,-1.797 26.564,7.981c-2.997,0 -4.908,-1.442 -7.071,-1.935c-0.923,-0.209 -1.815,-0.569 -2.745,-0.708c-1.657,-0.247 -3.529,-0.93 -4.946,-0.418c-1.695,0.633 -0.55,2.79 -0.948,4.238c-0.513,1.84 -1.455,3.162 -3.479,2.941c-2.422,-0.247 -1.379,-2.226 -1.372,-3.485c0,-3.795 0.088,-3.846 -3.662,-3.314c-2.6,0.367 -5.168,0.948 -7.736,1.499c-1.132,0.24 -2.245,0.765 -3.162,-0.437c-0.391,-0.501 -0.636,-1.101 -0.707,-1.732c-0.072,-0.632 0.033,-1.272 0.302,-1.848c1.241,-2.91 3.02,-5.56 5.243,-7.811c4.194,-4.471 9.222,-7.887 15.015,-11.669zm-30.035,22.592c-1.224,1.025 -2.504,1.981 -3.833,2.866c-5.439,3.162 -12.017,1.34 -14.546,-4.554c-3.264,-7.463 -2.745,-15.18 0.094,-22.7c0.39,-0.863 0.941,-1.642 1.626,-2.296c1.05,-1.113 2.485,-2.017 3.928,-1.417c1.676,0.696 0.809,2.461 0.632,3.65c-0.915,4.752 -1.307,9.589 -1.17,14.427c0.234,4.775 1.973,7.526 4.927,7.716c3.086,0.202 5.692,-2.441 6.325,-7.052c0.676,-4.997 1.043,-10.038 1.397,-15.066c0.152,-2.169 0.633,-3.649 3.226,-3.605c2.53,0.038 2.732,1.423 2.834,3.479c0.411,8.399 -0.279,16.83 0.879,25.21c0.291,2.106 -2.796,4.377 -4.738,3.795c-1.157,-0.335 -0.815,-1.309 -0.999,-2.062c-0.183,-0.752 -0.411,-1.435 -0.582,-2.391zm-33.263,-9.487c0.215,-4.326 0.253,-8.633 0.974,-12.909c0.392,-2.309 0.91,-4.566 3.965,-4.181c3.055,0.386 3.024,2.448 2.587,4.94c-1.296,7.349 -0.55,14.692 0.696,21.972c0.379,2.233 0.259,3.707 -2.321,4.137c-3.163,0.537 -4.82,-0.203 -5.142,-2.948c-0.437,-3.643 -0.525,-7.33 -0.759,-11.011z"/><path fill="#FE3A5A" d="m70.79799,19.6138c0.026,0.478 -0.088,0.953 -0.327,1.367c-0.239,0.415 -0.594,0.75 -1.021,0.967c-3.238,1.897 -6.508,3.795 -9.816,5.553c-0.917,0.493 -2.024,0.632 -2.789,-0.481c-0.67,-0.993 -0.196,-1.834 0.437,-2.53c2.586,-2.934 5.534,-5.426 9.189,-6.919c2.018,-0.822 4.219,0.297 4.327,2.043z"/><path fill="#FE395A" d="m106.74299,20.1768c1.897,-0.038 3.345,0.487 3.364,2.726c0,2.018 -2.264,3.947 -4.882,3.947c-2.081,0 -3.707,-0.949 -4.004,-3.163c-0.234,-1.821 2.511,-3.485 5.522,-3.51z"/><path fill="#FE3859" d="m129.42699,65.3168c-0.405,-0.544 -1.202,-0.323 -1.79,-0.133c-2.1,0.677 -4.149,1.525 -6.268,2.106c-16.248,4.491 -28.493,-1.423 -34.11,-16.4c-0.531,-1.41 -0.898,-2.65 0.14,-4.124c5.015,-7.115 7.406,-15.312 9.088,-23.686c1.265,-6.236 1.398,-12.592 -0.948,-18.689c-1.898,-4.902 -5.566,-5.756 -9.311,-2.277c-2.529,2.346 -4.111,5.331 -5.306,8.5c-4.023,10.683 -4.155,21.688 -1.739,32.642c0.898,4.086 -0.468,6.376 -3.27,8.596c-1.953,1.613 -4.199,2.833 -6.616,3.592c-4.725,1.398 -8.482,0 -10.626,-3.795c-1.195,-2.093 -1.416,-3.346 1.683,-3.434c3.725,-0.108 7.337,-0.898 10.297,-3.409c2.586,-2.195 4.022,-4.959 3.194,-8.381c-0.323,-1.611 -1.099,-3.097 -2.237,-4.283c-1.139,-1.185 -2.592,-2.021 -4.189,-2.408c-4.384,-1.208 -8.374,-0.285 -11.967,2.296c-6.957,5.003 -8.165,15.812 -2.764,23.888c4.718,7.059 13.788,8.659 21.504,3.795c2.98,-1.894 5.533,-4.388 7.495,-7.324c1.36,2.372 2.429,4.428 3.662,6.325c6.395,10.031 15.091,16.033 27.462,15.211c5.945,-0.323 11.582,-2.746 15.907,-6.837c0.494,-0.424 1.316,-0.961 0.709,-1.771zm-72.463,-21.89c-1.55,-3.409 2.618,-9.86 6.432,-9.898c3.561,-0.045 5.338,2.884 3.643,6.002c-1.366,2.53 -6.002,4.914 -8.855,4.617c-0.531,-0.076 -0.948,-0.12 -1.22,-0.721zm28.082,-2.037c-1.537,-9.929 -0.095,-19.455 3.795,-28.625c0.385,-0.911 0.822,-2.239 2.093,-1.999c1.271,0.24 1.303,1.594 1.297,2.593c-0.095,9.911 -2.853,19.151 -7.185,28.031z"/></g></svg>