<svg  id="fndm-h4rsfpgzw3" viewBox="0.8716068267822266 0.7177696228027344 354.62841796875 350.21136474609375" xmlns="http://www.w3.org/2000/svg">
   <g xmlns="http://www.w3.org/2000/svg" fill="none">
    <path d="m167.3,1.1c-14,1.7 -26.4,10.8 -34.9,25.5c-2.8,4.9 -9.2,15.9 -14.1,24.4c-39.6,68.2 -80.9,140.2 -82.4,143.5c-9.2,20.7 0.6,47.6 20.9,57.9c11.4,5.8 7.9,5.6 116.5,5.6c110.9,0 108,0.2 119.4,-6.6c3.2,-2 7.3,-5 9.1,-6.7c4.5,-4.3 9.7,-13 11.6,-19.6c1.9,-6.3 2.1,-18.3 0.5,-24.7l-1.1,-4.4l-68.7,0l-1.1,5.5c-4.9,23.6 -27.1,41.5 -51.5,41.5c-32.7,0 -57.6,-29.9 -51.5,-62c1,-5 9.2,-25.2 36.7,-89.5c10.2,-23.8 13.3,-30.1 14.8,-30.3c1.7,-0.2 5.1,7.1 25.9,56c13.2,31 24.6,59.1 25.4,62.6l1.4,6.2l30.9,0c22.1,-0.1 30.9,-0.4 30.9,-1.2c0,-0.6 -6.4,-12.2 -14.2,-25.7c-7.8,-13.5 -20.5,-35.6 -28.3,-49.1c-7.7,-13.5 -22.6,-39.3 -33.1,-57.4c-14.8,-25.8 -20.1,-34.2 -24.4,-38.6c-10.1,-10.1 -23.8,-14.7 -38.7,-12.9z" fill="#192C8B"/>
    <path d="m180,146.8c-19.9,5.2 -34,23.6 -34,44.2c0,17 10.7,33.5 26.5,41c12.1,5.8 28.1,5.3 40.9,-1.2c5.6,-2.9 14.1,-11.2 17.5,-17.2c2.5,-4.4 6.1,-14.3 6.1,-16.8c0,-0.4 -7.4,-0.8 -16.5,-0.8l-16.5,0l-1.6,2.6c-5.3,8 -18.3,6.8 -22.6,-2.1c-6.7,-13.8 11.7,-26.1 21.6,-14.4l2.5,2.9l16.6,0c15.4,0 16.6,-0.1 16.1,-1.8c-0.3,-0.9 -0.8,-3.1 -1.2,-4.7c-2.5,-10.8 -12.7,-23.1 -23.6,-28.4c-10.7,-5.3 -20.4,-6.3 -31.8,-3.3z" fill="#01A08A"/>
    <path d="m32.5,287c-23.7,4.3 -36.5,21.9 -29.9,41.3c5.2,15.3 25.1,24.7 47,22.1l7.9,-0.9l0.3,-10.1l0.3,-10.1l-9.9,0.1c-9.1,0.1 -10.1,-0.1 -14,-2.6c-6.9,-4.6 -6.9,-12 0.1,-17.2c2.5,-1.8 4.2,-2.1 13.3,-2l10.4,0.1l0,-9.8c0,-5.7 -0.4,-10.1 -1,-10.4c-1.8,-1.1 -19.2,-1.4 -24.5,-0.5zm136.7,0.1c-11.8,2 -19.1,7 -21.1,14.5c-1.8,6.7 0.3,10.8 8.7,17.7c4.3,3.5 7.2,6.6 7.2,7.7c0,3 -3.6,4.3 -9.6,3.5l-5.4,-0.6l0,9.4c0,11.2 -0.8,10.7 15.1,10.7c13.2,0 19.7,-1.8 25.2,-6.9c3.6,-3.4 4.1,-4.4 4.5,-9.3c0.6,-7.7 -1.6,-11.7 -10,-18.5c-4.1,-3.3 -6.8,-6.3 -6.8,-7.4c0,-2.9 4.5,-4.2 10.3,-3.1l4.7,0.9l0,-18.4l-4.6,-0.7c-5.9,-0.8 -11.4,-0.6 -18.2,0.5zm153.3,-0.2c-1.6,0.4 -4.9,1.8 -7.2,3l-4.3,2.1l0,-5l-27,0l0,63.1l13.8,-0.3l13.7,-0.3l0.3,-19.2l0.2,-19.2l2.7,-2c3,-2.4 8.1,-2.7 10.9,-0.7c1.7,1.3 1.9,3 2.2,21.5l0.3,20.2l13.7,-0.3l13.7,-0.3l0,-23.5c0,-25.9 -0.5,-28.8 -5.8,-34c-5.2,-5.1 -17.6,-7.4 -27.2,-5.1zm-240.2,0.8c-1.5,0.3 -2.5,1.4 -2.9,3.1c-0.3,1.5 -1,4.3 -1.5,6.2c-0.5,1.9 -0.9,3.9 -0.9,4.5c0,0.6 5.7,1 15.1,1c14.6,0 15.1,0.1 17,2.4c2.5,3 2.6,5.6 0.2,4.5c-3.8,-1.6 -18,-1.6 -23.7,0c-6.5,1.9 -13.2,7.3 -15.3,12.3c-1.9,4.7 -1.6,12 0.7,16.7c5.6,11.2 23.5,15.9 37.3,9.8c4.6,-2 4.7,-2.1 4.7,-0.1c0,1.8 0.8,1.9 11.6,1.9l11.5,0l-0.3,-25.3c-0.3,-25.2 -0.3,-25.4 -2.8,-29c-1.6,-2.3 -4.3,-4.5 -7.5,-5.9c-4.5,-2 -6.9,-2.2 -23,-2.4c-9.9,-0.1 -19,0 -20.2,0.3zm27.7,36.3c4.4,4.4 0.9,10 -6.2,10c-2.9,0 -4.9,-0.7 -6.5,-2.2c-2.9,-2.7 -2.9,-4.5 -0.1,-7.5c2.9,-3.1 9.9,-3.2 12.8,-0.3zm105.4,-36.3c-1.7,0.3 -2.4,1.6 -3.4,6.6c-0.7,3.4 -1.3,6.5 -1.4,7c0,0.4 6.5,0.8 14.5,1c12.8,0.2 15,0.4 16.8,2.1c1.2,1.1 2.1,2.8 2.1,3.8c0,1.6 -0.4,1.8 -2.2,1.1c-1.3,-0.4 -6.8,-0.8 -12.3,-0.8c-8.9,0 -10.6,0.3 -15.1,2.7c-13.8,7.3 -16.5,22.2 -5.8,32.5c7.8,7.6 23.1,9.5 33.3,4.3c4.1,-2 4.1,-2 4.1,0c0,1.9 0.6,2 12.1,2l12.1,0l-0.4,-24.3c-0.3,-22.5 -0.5,-24.5 -2.5,-28.3c-4.4,-8.2 -11.9,-10.5 -34.3,-10.3c-8.5,0.1 -16.5,0.4 -17.6,0.6zm27.4,35.9c2.7,1.9 2.9,6.4 0.3,8.8c-1.1,1 -3.6,1.7 -6.2,1.8c-7.5,0.1 -11.1,-6.9 -5.6,-10.7c2.8,-2 8.7,-1.9 11.5,0.1z" fill="#192C8B"/>
   </g>
  </svg>