<svg xmlns="http://www.w3.org/2000/svg" xmlns:xlink="http://www.w3.org/1999/xlink" fill-rule="evenodd" clip-rule="evenodd" image-rendering="optimizeQuality" shape-rendering="geometricPrecision" text-rendering="geometricPrecision" viewBox="-2 1 6599.990234375 3299.989990234375"><defs><linearGradient id="a" x1="1154.01" x2="1154.01" y1="2569.31" y2="886.65" gradientUnits="userSpaceOnUse"><stop offset="0" stop-color="#3e4095"/><stop offset="1" stop-color="#4dc8f4"/></linearGradient><linearGradient id="b" x1="1551.06" x2="1551.05" y1="732.69" y2="2415.35" gradientUnits="userSpaceOnUse" xlink:href="#a"/></defs><g><rect width="6599.99" height="3299.99" x="-2" y="1" fill="none"/><g><g><path fill="#3e4095" d="M443.79 739.52l0 0 0 786.69c35.57,-265.94 184.7,-495.92 397.06,-639.54 -68.75,-89.34 -176.99,-147.16 -298.87,-147.16l-98.2 0 0.01 0.01z"/><path fill="#3e4095" d="M2261.27 2562.48l0 0 0 -786.69c-35.57,265.94 -184.7,495.92 -397.06,639.54 68.75,89.34 176.99,147.16 298.87,147.16l98.2 0 -0.01 -0.01z"/><path fill="url(#a)" fill-rule="nonzero" d="M443.79 1526.21l0 108.29c0,489.63 376.63,906.17 861.36,933.38 16.83,0.94 33.57,1.38 50.42,1.43 91.71,0 180.29,-13.44 263.88,-38.42l4.04 -1.21 1.81 -0.55 2.22 -0.69c5.9,-1.85 11.82,-3.74 17.62,-5.67l0.23 -0.08 0.23 -0.08 0.23 -0.07 0.24 -0.08 0.23 -0.08c77.81,-25.89 151.06,-62.15 217.92,-107.03 -45.65,-62.45 -73.22,-139.54 -73.22,-223.1l0 -538.37c0,240.76 -195.53,435.01 -435.86,435.01 -241.19,0 -435.87,-195.11 -435.87,-435.01l0 -538.37c0,-83.12 -27.13,-160.21 -73.22,-222.24l0.44 -1.72c-0.44,0.43 -0.87,0.43 -1.3,0.86l-4.35 -5.76 0.01 0.02c-212.36,143.62 -361.49,373.6 -397.06,639.54l0 0z"/><path fill="url(#b)" fill-rule="nonzero" d="M2261.27 1775.79l0 -108.29c0,-489.63 -376.63,-906.17 -861.36,-933.38 -16.83,-0.94 -33.57,-1.38 -50.42,-1.43 -91.71,0 -180.29,13.44 -263.88,38.42l-4.04 1.21 -1.81 0.55 -2.22 0.69c-5.9,1.85 -11.82,3.74 -17.62,5.67l-0.23 0.08 -0.23 0.08 -0.23 0.07 -0.24 0.08 -0.23 0.08c-77.81,25.89 -151.06,62.15 -217.92,107.03 45.65,62.45 73.22,139.54 73.22,223.1l0 538.37c0,-240.76 195.53,-435.01 435.86,-435.01 241.19,0 435.87,195.11 435.87,435.01l0 538.37c0,83.12 27.13,160.21 73.22,222.24l-0.44 1.72c0.44,-0.43 0.87,-0.43 1.3,-0.86l4.35 5.76 -0.01 -0.02c212.36,-143.62 361.49,-373.6 397.06,-639.54l0 0z"/></g><g><path fill="#211f5e" fill-rule="nonzero" d="M4336.39 1917.44c-49.96,0 -82.26,-2.16 -130.5,-10.77l0 -443.62c54.27,-39.19 123.61,-61.16 191.23,-61.16 126.2,0 195.54,80.54 195.54,243.35 0.43,167.97 -106.38,272.2 -256.27,272.2l0 0zm190.37 -845.89c-137.82,0 -242.05,54.27 -320.87,115.43l0 -184.77c0,-122.32 -99.06,-221.38 -221.38,-221.38l-135.23 0 0 1333.87c152.89,65.03 316.56,97.77 497.02,97.77 341.97,0 598.67,-197.69 598.67,-593.5 0,-386.34 -216.21,-547.42 -418.21,-547.42l0 0zm1030.22 880.34c45.66,0 139.12,-4.3 234.73,-58.57l0 -121.89c-67.18,-12.92 -117.15,-17.23 -195.53,-17.23 -117.15,0 -158.5,41.35 -158.5,97.77 -0.43,74.08 43.07,99.92 119.3,99.92l0 0zm591.35 -378.58l0 633.99 -176.58 0c-101.65,0 -152.9,-58.58 -171.85,-124.04 -80.54,77.95 -197.69,141.26 -331.21,141.26 -203.72,0 -356.61,-106.81 -356.61,-343.26 0,-221.38 152.89,-343.27 416.48,-343.27 110.26,0 186.49,19.39 263.16,45.66l0 -19.38c0,-126.2 -67.62,-186.93 -231.72,-186.93 -121.02,0 -233.44,23.69 -363.07,77.96l0 -283.83c136.53,-56.42 293.3,-95.61 460.41,-95.61 325.18,0.43 494.87,174.43 494.87,491.42l-3.88 6.03zm-3404.65 80.97c0,-363.07 269.61,-577.99 540.95,-577.99 261,0 365.23,97.77 366.52,265.31l0 123.61c-110.25,-54.27 -184.33,-67.19 -277.36,-67.19 -178.31,0 -256.27,99.92 -256.27,254.11 0,149.88 67.19,251.96 236.89,251.96 99.92,0 169.69,-10.77 336.8,-71.93l0 304.5c-175.72,71.93 -279.95,89.16 -419.07,89.16 -315.7,0 -528.46,-206.74 -528.46,-571.54l0 0zm0 0l0 0 0 0z"/></g></g></g></svg>