<svg  id="fndm-is1ndywpwh" viewBox="159.33592224121094 248.73265075683594 2706.159423828125 1045.159912109375" xlink="http://www.w3.org/1999/xlink" xmlns="http://www.w3.org/2000/svg">
   <g xmlns="http://www.w3.org/2000/svg" transform="translate(-2619.113 -1676.04) scale(5.51827)">
    <defs>
     <path d="m1440,900l0,-900l-1440,0l0,900" id="fndm-2ybkm5up6v"/>
    </defs>
    <clipPath id="fndm-qcvo1e2hvb">
     <use xmlns:xlink="http://www.w3.org/1999/xlink" xlink:href="#fndm-2ybkm5up6v" height="100%" width="100%"/>
    </clipPath>
    <g clip-path="url(#fndm-qcvo1e2hvb)">
     <defs>
      <path d="m613.5,418.9c5.7,5.6 9.9,12.7 11.9,20.6l19.2,0c-2.3,-13.2 -8.8,-25 -18,-34l-13.1,13.4z" id="fndm-cv1kmvr0v0"/>
     </defs>
     <clipPath id="fndm-8r4xf1v2x4">
      <use xmlns:xlink="http://www.w3.org/1999/xlink" xlink:href="#fndm-cv1kmvr0v0" height="100%" width="100%"/>
     </clipPath>
     <linearGradient gradientUnits="userSpaceOnUse" gradientTransform="scale(29.9604 -29.9604) rotate(-62.354 -735.57 421.854)" y2="889.757" y1="889.757" x2="2.239" x1="1.239" id="fndm-24enyx1sjd">
      <stop stop-color="#e41f13" offset="0"/>
      <stop stop-color="#e30613" offset="1"/>
     </linearGradient>
     <path clip-path="url(#fndm-8r4xf1v2x4)" d="m637.9,392.7l20.6,39.5l-38.3,20.1l-20.7,-39.5l38.4,-20.1z" fill="url(#fndm-24enyx1sjd)"/>
    </g>
    <g clip-path="url(#fndm-qcvo1e2hvb)">
     <defs>
      <path d="m582,387.5l0.2,18.8l0.4,0c12.2,0 23.2,4.9 31.2,12.9l13.3,-13.3c-11.4,-11.4 -27.1,-18.4 -44.5,-18.4l-0.6,0" id="fndm-432pf2ap0p"/>
     </defs>
     <clipPath id="fndm-au1ttm3akk">
      <use xmlns:xlink="http://www.w3.org/1999/xlink" xlink:href="#fndm-432pf2ap0p" height="100%" width="100%"/>
     </clipPath>
     <linearGradient gradientUnits="userSpaceOnUse" gradientTransform="scale(40.6804 -40.6804) rotate(-23.265 -2188.62 397.203)" y2="893.545" y1="893.545" x2="-3.073" x1="-4.074" id="fndm-4122p0e2c2">
      <stop stop-color="#e42313" offset="0"/>
      <stop stop-color="#e41f13" offset="1"/>
     </linearGradient>
     <path clip-path="url(#fndm-au1ttm3akk)" d="m589,371.2l49.5,21.3l-18.5,43l-49.5,-21.3l18.5,-43z" fill="url(#fndm-4122p0e2c2)"/>
    </g>
    <g clip-path="url(#fndm-qcvo1e2hvb)">
     <defs>
      <path d="m537.7,406.3l13.4,13.1c8,-8.1 19.1,-13.2 31.4,-13.2l0,-18.8c-17.5,0.1 -33.4,7.3 -44.8,18.9" id="fndm-3c6pj8tnky"/>
     </defs>
     <clipPath id="fndm-ctl7s424gj">
      <use xmlns:xlink="http://www.w3.org/1999/xlink" xlink:href="#fndm-3c6pj8tnky" height="100%" width="100%"/>
     </clipPath>
     <linearGradient gradientUnits="userSpaceOnUse" gradientTransform="scale(-40.9563 40.9563) rotate(24.757 2027.988 406.062)" y2="901.273" y1="901.273" x2="8.477" x1="7.478" id="fndm-6h8h7c9j1r">
      <stop stop-color="#e42313" offset="0"/>
      <stop stop-color="#e52d12" offset="1"/>
     </linearGradient>
     <path clip-path="url(#fndm-ctl7s424gj)" d="m594.7,413.9l-49.2,22.6l-20,-43.4l49.1,-22.6l20.1,43.4z" fill="url(#fndm-6h8h7c9j1r)"/>
    </g>
    <g clip-path="url(#fndm-qcvo1e2hvb)">
     <defs>
      <path d="m519.7,450.4l0,0.5l18.8,-0.2l0,-0.4c0,-12.2 4.9,-23.2 12.9,-31.2l-13.3,-13.3c-11.4,11.5 -18.4,27.2 -18.4,44.6" id="fndm-9350131z6v"/>
     </defs>
     <clipPath id="fndm-5ah3hbohwt">
      <use xmlns:xlink="http://www.w3.org/1999/xlink" xlink:href="#fndm-9350131z6v" height="100%" width="100%"/>
     </clipPath>
     <linearGradient gradientUnits="userSpaceOnUse" gradientTransform="scale(-39.8036 39.8036) rotate(67.04 664.846 437.82)" y2="895.797" y1="895.797" x2="7.582" x1="6.582" id="fndm-loyqcvqh6x">
      <stop stop-color="#e52d12" offset="0"/>
      <stop stop-color="#e74018" offset="1"/>
     </linearGradient>
     <path clip-path="url(#fndm-5ah3hbohwt)" d="m567.5,412.8l-21,49.5l-43,-18.2l21,-49.5l43,18.2z" fill="url(#fndm-loyqcvqh6x)"/>
    </g>
    <g clip-path="url(#fndm-qcvo1e2hvb)">
     <defs>
      <path d="m519.7,450.4c0,17.6 7.2,33.4 18.8,44.8l13.1,-13.4c-8.1,-8 -13.2,-19.1 -13.2,-31.4l-18.7,0z" id="fndm-e6xymqorys"/>
     </defs>
     <clipPath id="fndm-q7ovvgreki">
      <use xmlns:xlink="http://www.w3.org/1999/xlink" xlink:href="#fndm-e6xymqorys" height="100%" width="100%"/>
     </clipPath>
     <linearGradient gradientUnits="userSpaceOnUse" gradientTransform="scale(41.914 -41.914) rotate(-67.19 -673.035 432.656)" y2="892.737" y1="892.737" x2="2.503" x1="1.503" id="fndm-1cm6mqskh1">
      <stop stop-color="#e74018" offset="0"/>
      <stop stop-color="#e84617" offset="1"/>
     </linearGradient>
     <path clip-path="url(#fndm-q7ovvgreki)" d="m546.8,439l20.8,49.5l-43.1,18.1l-20.9,-49.5l43.2,-18.1z" fill="url(#fndm-1cm6mqskh1)"/>
    </g>
    <g clip-path="url(#fndm-qcvo1e2hvb)">
     <defs>
      <path d="m538.1,494.8c11.4,11.4 27.1,18.4 44.4,18.4l0.5,0l-0.2,-18.8l-0.4,0c-12.2,0 -23.2,-4.9 -31.2,-12.9l-13.1,13.3z" id="fndm-r1vetshft"/>
     </defs>
     <clipPath id="fndm-jtt5g7b3n5">
      <use xmlns:xlink="http://www.w3.org/1999/xlink" xlink:href="#fndm-r1vetshft" height="100%" width="100%"/>
     </clipPath>
     <linearGradient gradientUnits="userSpaceOnUse" gradientTransform="scale(40.3659 -40.3659) rotate(-21.516 -2379.023 393.943)" y2="893.613" y1="893.613" x2="-3.302" x1="-4.302" id="fndm-s7mf9nhvim">
      <stop stop-color="#e84617" offset="0"/>
      <stop stop-color="#ea561f" offset="1"/>
     </linearGradient>
     <path clip-path="url(#fndm-jtt5g7b3n5)" d="m544.1,466.2l49.8,19.6l-16.9,42.8l-49.7,-19.6l16.8,-42.8z" fill="url(#fndm-s7mf9nhvim)"/>
    </g>
    <g clip-path="url(#fndm-qcvo1e2hvb)">
     <defs>
      <path d="m582.5,494.5l0,18.8c20.3,0 38.4,-9.6 49.9,-24.6l-14.9,-11.4c-8.1,10.4 -20.7,17.2 -35,17.2" id="fndm-2t4ehccyxe"/>
     </defs>
     <clipPath id="fndm-bsnu8wr7m4">
      <use xmlns:xlink="http://www.w3.org/1999/xlink" xlink:href="#fndm-2t4ehccyxe" height="100%" width="100%"/>
     </clipPath>
     <defs>
      <filter filterUnits="userSpaceOnUse" y="452.3" x="564.5" height="85.9" width="85.9" id="fndm-2qmk8avp6i"/>
     </defs>
     <mask maskUnits="userSpaceOnUse" y="452.3" x="564.5" height="85.9" width="85.9" id="fndm-rkjk4ri1dv">
      <g filter="url(#fndm-2qmk8avp6i)">
       <defs>
        <path transform="rotate(134.789 607.45 495.209)" d="m577.1,464.8l60.7,0l0,60.8l-60.7,0l0,-60.8z" id="fndm-xed0z0ekfk"/>
       </defs>
       <clipPath id="fndm-1kfrbnkt0m">
        <use xmlns:xlink="http://www.w3.org/1999/xlink" xlink:href="#fndm-xed0z0ekfk" height="100%" width="100%"/>
       </clipPath>
       <linearGradient gradientUnits="userSpaceOnUse" gradientTransform="scale(48.5004 -48.5004) rotate(45.213 1097.764 467.326)" y2="901.142" y1="901.142" x2="-5.295" x1="-6.295" id="fndm-i2yi05caa7">
        <stop stop-color="#fff" offset="0"/>
        <stop stop-color="#fff" offset="0.27"/>
        <stop stop-color="#f4f4f4" offset="0.333"/>
        <stop stop-color="#d5d5d5" offset="0.446"/>
        <stop stop-color="#a4a4a4" offset="0.595"/>
        <stop stop-color="#606060" offset="0.774"/>
        <stop stop-color="#0a0a0a" offset="0.978"/>
        <stop offset="1"/>
       </linearGradient>
       <path clip-path="url(#fndm-1kfrbnkt0m)" d="m521.6,495.5l85.5,-86.1l86.2,85.5l-85.5,86.2l-86.2,-85.6z" fill="url(#fndm-i2yi05caa7)"/>
      </g>
     </mask>
     <linearGradient gradientUnits="userSpaceOnUse" gradientTransform="scale(48.5004 -48.5004) rotate(45.213 1097.764 467.326)" y2="901.142" y1="901.142" x2="-5.295" x1="-6.295" id="fndm-o68yhqjegd">
      <stop stop-color="#ea561f" offset="0"/>
      <stop stop-color="#ea561f" offset="0.27"/>
      <stop stop-color="#e9531e" offset="1"/>
     </linearGradient>
     <path mask="url(#fndm-rkjk4ri1dv)" clip-path="url(#fndm-bsnu8wr7m4)" d="m564.5,495.4l42.8,-43.1l43.1,42.8l-42.8,43.1l-43.1,-42.8z" fill="url(#fndm-o68yhqjegd)"/>
    </g>
    <g clip-path="url(#fndm-qcvo1e2hvb)">
     <defs>
      <path d="m887.4,418.9c5.7,5.6 9.9,12.7 11.9,20.6l19.2,0c-2.3,-13.2 -8.7,-25 -18,-34l-13.1,13.4z" id="fndm-lrvkjxztif"/>
     </defs>
     <clipPath id="fndm-v9cyk2upuk">
      <use xmlns:xlink="http://www.w3.org/1999/xlink" xlink:href="#fndm-lrvkjxztif" height="100%" width="100%"/>
     </clipPath>
     <linearGradient gradientUnits="userSpaceOnUse" gradientTransform="scale(-23.4055 23.4055) rotate(-59.808 -797.721 498.756)" y2="913.176" y1="913.176" x2="0.001" x1="-0.999" id="fndm-rb5zfdmyin">
      <stop stop-color="#006fb9" offset="0"/>
      <stop stop-color="#0078c0" offset="1"/>
     </linearGradient>
     <path clip-path="url(#fndm-v9cyk2upuk)" d="m895.3,453.1l-22.7,-39l38,-22.1l22.7,38.9l-38,22.2z" fill="url(#fndm-rb5zfdmyin)"/>
    </g>
    <g clip-path="url(#fndm-qcvo1e2hvb)">
     <defs>
      <path d="m855.9,387.5l0.2,18.8l0.4,0c12.2,0 23.2,4.9 31.2,12.9l13.3,-13.3c-11.4,-11.4 -27.1,-18.4 -44.5,-18.4l-0.6,0" id="fndm-cj1zdh0181"/>
     </defs>
     <clipPath id="fndm-56gj3p1t2k">
      <use xmlns:xlink="http://www.w3.org/1999/xlink" xlink:href="#fndm-cj1zdh0181" height="100%" width="100%"/>
     </clipPath>
     <linearGradient gradientUnits="userSpaceOnUse" gradientTransform="scale(-33.6988 33.6988) rotate(-22.46 -2266.106 539.214)" y2="907.727" y1="907.727" x2="6.027" x1="5.027" id="fndm-oyrvbn0c35">
      <stop stop-color="#0078c0" offset="0"/>
      <stop stop-color="#0085ca" offset="1"/>
     </linearGradient>
     <path clip-path="url(#fndm-56gj3p1t2k)" d="m894.4,435.1l-49.7,-20.6l17.8,-42.9l49.6,20.5l-17.7,43z" fill="url(#fndm-oyrvbn0c35)"/>
    </g>
    <g clip-path="url(#fndm-qcvo1e2hvb)">
     <defs>
      <path d="m811.6,406.3l13.4,13.1c8,-8.1 19.1,-13.2 31.4,-13.2l0,-18.8c-17.5,0.1 -33.4,7.3 -44.8,18.9" id="fndm-3gdxj3vf7q"/>
     </defs>
     <clipPath id="fndm-opqwrvtc8f">
      <use xmlns:xlink="http://www.w3.org/1999/xlink" xlink:href="#fndm-3gdxj3vf7q" height="100%" width="100%"/>
     </clipPath>
     <linearGradient gradientUnits="userSpaceOnUse" gradientTransform="scale(34.1146 -34.1146) rotate(23.063 2238.12 523.923)" y2="898.198" y1="898.198" x2="-7.928" x1="-8.928" id="fndm-angybt0ya2">
      <stop stop-color="#0091d0" offset="0"/>
      <stop stop-color="#0085ca" offset="1"/>
     </linearGradient>
     <path clip-path="url(#fndm-opqwrvtc8f)" d="m800.1,392.4l49.5,-21l18.4,43.2l-49.5,21l-18.4,-43.2z" fill="url(#fndm-angybt0ya2)"/>
    </g>
    <g clip-path="url(#fndm-qcvo1e2hvb)">
     <defs>
      <path d="m793.6,450.4l0,0.5l18.8,-0.2l0,-0.4c0,-12.2 4.9,-23.2 12.9,-31.2l-13.3,-13.2c-11.4,11.4 -18.4,27.1 -18.4,44.5" id="fndm-jmpqb8x05g"/>
     </defs>
     <clipPath id="fndm-t6kz2tyek5">
      <use xmlns:xlink="http://www.w3.org/1999/xlink" xlink:href="#fndm-jmpqb8x05g" height="100%" width="100%"/>
     </clipPath>
     <linearGradient gradientUnits="userSpaceOnUse" gradientTransform="scale(33.4723 -33.4723) rotate(67.38 696.858 469.682)" y2="905.043" y1="905.043" x2="-6.797" x1="-7.797" id="fndm-qrcx5xf0yu">
      <stop stop-color="#009dd7" offset="0"/>
      <stop stop-color="#0091d0" offset="1"/>
     </linearGradient>
     <path clip-path="url(#fndm-t6kz2tyek5)" d="m777.6,444.3l20.7,-49.6l43,17.9l-20.7,49.6l-43,-17.9z" fill="url(#fndm-qrcx5xf0yu)"/>
    </g>
    <g clip-path="url(#fndm-qcvo1e2hvb)">
     <defs>
      <path d="m793.6,450.4c0,17.6 7.2,33.4 18.8,44.8l13.1,-13.4c-8.1,-8 -13.2,-19.1 -13.2,-31.4l-18.7,0z" id="fndm-4hi7d33r9o"/>
     </defs>
     <clipPath id="fndm-22br6jrx9o">
      <use xmlns:xlink="http://www.w3.org/1999/xlink" xlink:href="#fndm-4hi7d33r9o" height="100%" width="100%"/>
     </clipPath>
     <linearGradient gradientUnits="userSpaceOnUse" gradientTransform="scale(33.8892 -33.8892) rotate(-66.774 -673.427 422.195)" y2="891.001" y1="891.001" x2="2.794" x1="1.794" id="fndm-464nnpd2wn">
      <stop stop-color="#009dd7" offset="0"/>
      <stop stop-color="#00a9dd" offset="1"/>
     </linearGradient>
     <path clip-path="url(#fndm-22br6jrx9o)" d="m820.6,438.8l21.2,49.4l-43.2,18.6l-21.2,-49.5l43.2,-18.5z" fill="url(#fndm-464nnpd2wn)"/>
    </g>
    <g clip-path="url(#fndm-qcvo1e2hvb)">
     <defs>
      <path d="m812,494.8c11.4,11.4 27.1,18.4 44.4,18.4l0.5,0l-0.2,-18.8l-0.4,0c-12.2,0 -23.2,-4.9 -31.2,-12.9l-13.1,13.3z" id="fndm-lhlyptc5wm"/>
     </defs>
     <clipPath id="fndm-rgapvln1lr">
      <use xmlns:xlink="http://www.w3.org/1999/xlink" xlink:href="#fndm-lhlyptc5wm" height="100%" width="100%"/>
     </clipPath>
     <linearGradient gradientUnits="userSpaceOnUse" gradientTransform="scale(39.3914 -39.3914) rotate(-22.249 -2295.16 376.641)" y2="893.401" y1="893.401" x2="-3.325" x1="-4.325" id="fndm-ct95fg2ey2">
      <stop stop-color="#00a9dd" offset="0"/>
      <stop stop-color="#70c5e9" offset="1"/>
     </linearGradient>
     <path clip-path="url(#fndm-rgapvln1lr)" d="m818.5,465.8l49.6,20.3l-17.5,42.9l-49.7,-20.3l17.6,-42.9z" fill="url(#fndm-ct95fg2ey2)"/>
    </g>
    <g clip-path="url(#fndm-qcvo1e2hvb)">
     <defs>
      <path d="m856.5,494.5l0,18.8c20.3,0 38.4,-9.6 49.9,-24.6l-14.9,-11.4c-8.1,10.4 -20.8,17.2 -35,17.2" id="fndm-rwcpyr9338"/>
     </defs>
     <clipPath id="fndm-1myni6nx7c">
      <use xmlns:xlink="http://www.w3.org/1999/xlink" xlink:href="#fndm-rwcpyr9338" height="100%" width="100%"/>
     </clipPath>
     <defs>
      <filter filterUnits="userSpaceOnUse" y="452.4" x="838.5" height="85.6" width="85.7" id="fndm-cd90yf4ex2"/>
     </defs>
     <mask maskUnits="userSpaceOnUse" y="452.4" x="838.5" height="85.6" width="85.7" id="fndm-cge00ydly9">
      <g filter="url(#fndm-cd90yf4ex2)">
       <defs>
        <path transform="rotate(132.22 881.353 495.214)" d="m851.3,464.7l60.2,0l0,61.1l-60.2,0l0,-61.1z" id="fndm-gzj2dt9osd"/>
       </defs>
       <clipPath id="fndm-nnlbwj070b">
        <use xmlns:xlink="http://www.w3.org/1999/xlink" xlink:href="#fndm-gzj2dt9osd" height="100%" width="100%"/>
       </clipPath>
       <linearGradient gradientUnits="userSpaceOnUse" gradientTransform="scale(54.9624 -54.9624) rotate(47.779 1033.15 469.727)" y2="901.255" y1="901.255" x2="-4.503" x1="-5.503" id="fndm-c3by8od2eq">
        <stop stop-color="#fff" offset="0"/>
        <stop stop-color="#fff" offset="0.27"/>
        <stop stop-color="#f4f4f4" offset="0.333"/>
        <stop stop-color="#d5d5d5" offset="0.446"/>
        <stop stop-color="#a4a4a4" offset="0.595"/>
        <stop stop-color="#606060" offset="0.774"/>
        <stop stop-color="#0a0a0a" offset="0.978"/>
        <stop offset="1"/>
       </linearGradient>
       <path clip-path="url(#fndm-nnlbwj070b)" d="m795.9,499.4l81.3,-89.6l89.7,81.3l-81.4,89.6l-89.6,-81.3z" fill="url(#fndm-c3by8od2eq)"/>
      </g>
     </mask>
     <linearGradient gradientUnits="userSpaceOnUse" gradientTransform="scale(54.9624 -54.9624) rotate(47.779 1033.15 469.727)" y2="901.255" y1="901.255" x2="-4.503" x1="-5.503" id="fndm-cc7uuy1yrd">
      <stop stop-color="#70c5e9" offset="0"/>
      <stop stop-color="#70c5e9" offset="0.27"/>
      <stop stop-color="#70c5e9" offset="1"/>
     </linearGradient>
     <path mask="url(#fndm-cge00ydly9)" clip-path="url(#fndm-1myni6nx7c)" d="m838.5,497l40.5,-44.6l45.2,41.1l-40.4,44.5l-45.3,-41z" fill="url(#fndm-cc7uuy1yrd)"/>
    </g>
    <g clip-path="url(#fndm-qcvo1e2hvb)">
     <defs>
      <path d="m937.3,414.5l18.8,0l0,56.7l-18.8,0l0,-56.7z" id="fndm-ie1zn8g66z"/>
     </defs>
     <clipPath id="fndm-mcby69c6lc">
      <use xmlns:xlink="http://www.w3.org/1999/xlink" xlink:href="#fndm-ie1zn8g66z" height="100%" width="100%"/>
     </clipPath>
     <linearGradient gradientUnits="userSpaceOnUse" gradientTransform="matrix(0 56.26 56.26 0 -49431.336 238.882)" y2="895.448" y1="895.448" x2="4.129" x1="3.129" id="fndm-ugxfcsdtd1">
      <stop stop-color="#009879" offset="0"/>
      <stop stop-color="#73ba64" offset="1"/>
     </linearGradient>
     <path clip-path="url(#fndm-mcby69c6lc)" d="m937.3,414.5l18.8,0l0,56.7l-18.8,0l0,-56.7z" fill="url(#fndm-ugxfcsdtd1)"/>
    </g>
    <g clip-path="url(#fndm-qcvo1e2hvb)">
     <defs>
      <path d="m937.3,470.9c0,19.8 9.2,31.7 25.2,42.2l10.7,-15.4c-10.9,-7.5 -17.2,-13.3 -17.2,-26.8l-18.7,0z" id="fndm-mpsdgyqy71"/>
     </defs>
     <clipPath id="fndm-m43h1zn6bh">
      <use xmlns:xlink="http://www.w3.org/1999/xlink" xlink:href="#fndm-mpsdgyqy71" height="100%" width="100%"/>
     </clipPath>
     <defs>
      <filter filterUnits="userSpaceOnUse" y="453.3" x="916.5" height="77.5" width="77.4" id="fndm-9szxa5e9g7"/>
     </defs>
     <mask maskUnits="userSpaceOnUse" y="453.3" x="916.5" height="77.5" width="77.4" id="fndm-slsb2zu0nf">
      <g filter="url(#fndm-9szxa5e9g7)">
       <defs>
        <path transform="rotate(-140.489 955.253 492.018)" d="m927.9,464.3l54.6,0l0,55.4l-54.6,0l0,-55.4z" id="fndm-vi7ddw5sia"/>
       </defs>
       <clipPath id="fndm-h610upxvm1">
        <use xmlns:xlink="http://www.w3.org/1999/xlink" xlink:href="#fndm-vi7ddw5sia" height="100%" width="100%"/>
       </clipPath>
       <linearGradient gradientUnits="userSpaceOnUse" gradientTransform="scale(22.2616 -22.2616) rotate(-39.508 -1245.416 367.336)" y2="886.479" y1="886.479" x2="-2.844" x1="-3.844" id="fndm-unz6d4qrr2">
        <stop stop-color="#fff" offset="0"/>
        <stop stop-color="#fafafa" offset="0.1"/>
        <stop stop-color="#eaeaea" offset="0.223"/>
        <stop stop-color="#d1d1d1" offset="0.36"/>
        <stop stop-color="#aeaeae" offset="0.506"/>
        <stop stop-color="gray" offset="0.659"/>
        <stop stop-color="#494949" offset="0.818"/>
        <stop stop-color="#090909" offset="0.98"/>
        <stop offset="1"/>
       </linearGradient>
       <path clip-path="url(#fndm-h610upxvm1)" d="m947.9,415.3l84.1,69.3l-69.4,84.2l-84.1,-69.4l69.4,-84.1z" fill="url(#fndm-unz6d4qrr2)"/>
      </g>
     </mask>
     <linearGradient gradientUnits="userSpaceOnUse" gradientTransform="scale(22.2616 -22.2616) rotate(-39.508 -1245.416 367.336)" y2="886.479" y1="886.479" x2="-2.844" x1="-3.844" id="fndm-jyrd2g2qfe">
      <stop stop-color="#73ba64" offset="0"/>
      <stop stop-color="#73ba64" offset="1"/>
     </linearGradient>
     <path mask="url(#fndm-slsb2zu0nf)" clip-path="url(#fndm-m43h1zn6bh)" d="m951.8,453.3l42.1,34.7l-35.2,42.8l-42.2,-34.8l35.3,-42.7z" fill="url(#fndm-jyrd2g2qfe)"/>
    </g>
    <g clip-path="url(#fndm-qcvo1e2hvb)">
     <defs>
      <path d="m682.1,404.7l0,38.1c2.8,-15.1 16.2,-36.5 41.8,-36.5l1.4,0l0,-18.8l-1.4,0c-16.4,0 -31.1,6.6 -41.8,17.2" id="fndm-o5a2nc0lln"/>
     </defs>
     <clipPath id="fndm-qcvo1e2hvb8">
      <use xmlns:xlink="http://www.w3.org/1999/xlink" xlink:href="#fndm-o5a2nc0lln" height="100%" width="100%"/>
     </clipPath>
     <linearGradient gradientUnits="userSpaceOnUse" gradientTransform="matrix(43.1541 0 0 -43.1541 938.139 39077.852)" y2="895.921" y1="895.921" x2="-4.934" x1="-5.934" id="fndm-qcvo1e2hvb9">
      <stop stop-color="#e60064" offset="0"/>
      <stop stop-color="#e54c88" offset="1"/>
     </linearGradient>
     <path clip-path="url(#fndm-qcvo1e2hvb8)" d="m682.1,387.5l43.2,0l0,55.2l-43.2,0l0,-55.2z" fill="url(#fndm-qcvo1e2hvb9)"/>
    </g>
    <g clip-path="url(#fndm-qcvo1e2hvb)">
     <defs>
      <path d="m724.4,387.5l0,18.8c18.1,0.3 32.8,14.7 32.8,33.2l0,6.2l18.8,0l0,-6.2c0,-28.8 -23.2,-51.7 -51.6,-52z" id="fndm-qcvo1e2hvb7"/>
     </defs>
     <clipPath id="fndm-qcvo1e2hvb0">
      <use xmlns:xlink="http://www.w3.org/1999/xlink" xlink:href="#fndm-qcvo1e2hvb7" height="100%" width="100%"/>
     </clipPath>
     <defs>
      <filter filterUnits="userSpaceOnUse" y="376" x="711.4" height="81.1" width="77.5" id="fndm-qcvo1e2hvb3"/>
     </defs>
     <mask maskUnits="userSpaceOnUse" y="376" x="711.4" height="81.1" width="77.5" id="fndm-qcvo1e2hvb2">
      <g filter="url(#fndm-qcvo1e2hvb3)">
       <defs>
        <path transform="rotate(-103.239 750.199 416.61)" d="m716,384.8l68.4,0l0,63.5l-68.4,0l0,-63.5z" id="fndm-qcvo1e2hvb6"/>
       </defs>
       <clipPath id="fndm-qcvo1e2hvb4">
        <use xmlns:xlink="http://www.w3.org/1999/xlink" xlink:href="#fndm-qcvo1e2hvb6" height="100%" width="100%"/>
       </clipPath>
       <linearGradient gradientUnits="userSpaceOnUse" gradientTransform="scale(38.8392 -38.8392) rotate(-76.759 -559.023 430.703)" y2="892.563" y1="892.563" x2="3.902" x1="2.902" id="fndm-qcvo1e2hvb5">
        <stop stop-color="#fff" offset="0"/>
        <stop offset="1"/>
       </linearGradient>
       <path clip-path="url(#fndm-qcvo1e2hvb4)" d="m784.9,358.8l22.1,94.1l-91.5,21.5l-22.2,-94.1l91.6,-21.5z" fill="url(#fndm-qcvo1e2hvb5)"/>
      </g>
     </mask>
     <linearGradient gradientUnits="userSpaceOnUse" gradientTransform="scale(38.8392 -38.8392) rotate(-76.759 -559.023 430.703)" y2="892.563" y1="892.563" x2="3.902" x1="2.902" id="fndm-qcvo1e2hvb1">
      <stop stop-color="#e54c88" offset="0"/>
      <stop stop-color="#ea4a87" offset="1"/>
     </linearGradient>
     <path mask="url(#fndm-qcvo1e2hvb2)" clip-path="url(#fndm-qcvo1e2hvb0)" d="m773.3,376l15.6,66.6l-61.8,14.6l-15.7,-66.6l61.9,-14.6z" fill="url(#fndm-qcvo1e2hvb1)"/>
    </g>
    <g clip-path="url(#fndm-qcvo1e2hvb)">
     <defs>
      <path d="m757.2,445.7l18.8,0l-18.8,0z" id="fndm-2xm9kvxpqs"/>
     </defs>
     <clipPath id="fndm-erleuog4zu">
      <use xmlns:xlink="http://www.w3.org/1999/xlink" xlink:href="#fndm-2xm9kvxpqs" height="100%" width="100%"/>
     </clipPath>
     <defs>
      <filter filterUnits="userSpaceOnUse" y="443.8" x="757.2" height="3.6" width="18.8" id="fndm-h0mhalhxco"/>
     </defs>
     <mask maskUnits="userSpaceOnUse" y="443.8" x="757.2" height="3.6" width="18.8" id="fndm-qtb45lsbmv">
      <g filter="url(#fndm-h0mhalhxco)">
       <defs>
        <path transform="rotate(-95.607 766.581 445.68)" d="m765.7,436.3l1.8,0l0,18.7l-1.8,0l0,-18.7z" id="fndm-05cm6c6w9i"/>
       </defs>
       <clipPath id="fndm-s5ogm8bd33">
        <use xmlns:xlink="http://www.w3.org/1999/xlink" xlink:href="#fndm-05cm6c6w9i" height="100%" width="100%"/>
       </clipPath>
       <linearGradient gradientUnits="userSpaceOnUse" gradientTransform="scale(9.777 -9.777) rotate(-84.394 -458.755 379.063)" y2="872.175" y1="872.175" x2="16.36" x1="15.36" id="fndm-da61o453dg">
        <stop stop-color="#fff" offset="0"/>
        <stop offset="1"/>
       </linearGradient>
       <path clip-path="url(#fndm-s5ogm8bd33)" d="m775.8,442l0.5,5.5l-18.9,1.8l-0.6,-5.4l19,-1.9z" fill="url(#fndm-da61o453dg)"/>
      </g>
     </mask>
     <linearGradient gradientUnits="userSpaceOnUse" gradientTransform="scale(9.777 -9.777) rotate(-84.394 -458.755 379.063)" y2="872.175" y1="872.175" x2="16.36" x1="15.36" id="fndm-4416hqik95">
      <stop stop-color="#ea4a87" offset="0"/>
      <stop stop-color="#ea4a87" offset="1"/>
     </linearGradient>
     <path mask="url(#fndm-qtb45lsbmv)" clip-path="url(#fndm-erleuog4zu)" d="m775.8,443.8l0.2,1.9l-18.6,1.8l-0.2,-1.8l18.6,-1.9z" fill="url(#fndm-4416hqik95)"/>
    </g>
    <path clip-path="url(#fndm-qcvo1e2hvb)" d="m663.3,392.6l18.8,0l0,65.7l-18.8,0l0,-65.7zm274,-43.8l18.8,0l0,65.7l-18.8,0l0,-65.7zm-180.1,96.9l18.8,0l0,65.7l-18.8,0l0,-65.7zm-178.3,-6.2l65.7,0l0,18.8l-65.7,0l0,-18.8zm274,0l65.7,0l0,18.8l-65.7,0l0,-18.8z" fill="#bcbcb6"/>
   </g>
  </svg>