<svg  id="fndm-zpn320kjln" viewBox="214.99996948242188 16 170.00003051757812 215.00003051757812" xmlns="http://www.w3.org/2000/svg">
   <g xmlns="http://www.w3.org/2000/svg" fill="none">
    <path d="m359.493,168.477l3.632,0c7.268,0 12.732,1.258 16.403,3.798c3.599,2.544 5.472,6.341 5.472,11.317c0,4.536 -1.469,8.112 -4.406,10.766c-2.863,2.766 -7.045,4.35 -12.33,4.757a11.918,11.918 0 0 1 3.818,3.578c0.916,1.36 1.649,3.35 2.199,6.116l4.514,20.72l-15.995,0l-3.306,-15.113l0,-20.648c2.388,-0.291 4.293,-0.96 5.725,-1.952c2.127,-1.367 3.045,-3.358 3.045,-5.787c0,-2.14 -0.623,-3.726 -2.09,-4.755c-1.36,-1.071 -3.451,-1.587 -6.204,-1.587l-0.476,0l0,-11.21l-0.001,0zm-19.3,0l19.3,0l0,11.207l-5.944,0l-2.823,14.268l5.758,0c1.105,0 2.093,-0.077 3.008,-0.187l0,20.649l-0.993,-4.576c-0.436,-1.657 -1.058,-2.947 -2.2,-3.572c-1.063,-0.74 -2.752,-1.068 -5.06,-1.068l-2.939,0l-5.063,24.328l-13.757,0l0,-10.029l10.713,-51.02zm-10.712,8.553l2.091,-6.342c-0.699,-0.22 -1.393,-0.439 -2.09,-0.663l0,7.005l-0.001,0zm0,52.496l-2.093,0l2.093,-10.029l0,10.029zm0,-59.501c-3.008,-0.923 -5.799,-1.548 -8.627,-2.063c-3.484,-0.665 -6.749,-0.962 -9.944,-0.962c-6.31,0 -11.7,0.853 -16.215,2.616c-4.626,1.703 -8.621,4.351 -12.183,8.037c-2.975,3.062 -5.286,6.786 -6.935,11.098a37.294,37.294 0 0 0 -2.276,9.066l0,9.145c0.77,6.787 3.341,12.237 7.742,16.298c5.358,5.084 12.804,7.74 22.382,7.74a51.85,51.85 0 0 0 8.115,-0.662c2.674,-0.408 5.535,-0.923 8.581,-1.662l1.47,-14.083c-2.534,1.18 -4.952,2.14 -7.377,2.765c-2.387,0.626 -4.805,0.96 -7.12,0.96c-5.356,0 -9.538,-1.4 -12.694,-4.24c-3.048,-2.725 -4.625,-6.638 -4.625,-11.388c0,-7.373 2.097,-13.199 6.203,-17.4c4.073,-4.131 9.762,-6.233 17.1,-6.233c2.712,0 5.247,0.296 7.666,1.032a22.25,22.25 0 0 1 6.715,2.952l2.02,-6.013l0,-7.003l0.002,0zm-56.179,1.476l0,-0.883c0.072,0.036 0.186,0.036 0.258,0.07l-0.258,0.813zm0,-0.883l0,0.883l-3.745,11.54c-2.2,-1.367 -4.401,-2.326 -6.82,-2.952c-2.313,-0.736 -4.957,-1.032 -7.67,-1.032c-7.267,0 -13.061,2.102 -17.134,6.234c-4.111,4.2 -6.13,10.026 -6.13,17.399c0,4.75 1.468,8.661 4.624,11.388c3.083,2.84 7.376,4.24 12.622,4.24c2.42,0 4.845,-0.334 7.154,-0.96c2.423,-0.626 4.957,-1.585 7.485,-2.765l-1.578,14.083c-2.97,0.74 -5.907,1.254 -8.62,1.662a51.675,51.675 0 0 1 -8.11,0.662c-9.575,0 -16.914,-2.656 -22.307,-7.74c-5.36,-4.943 -8.073,-12.016 -8.073,-21.015c0,-4.607 0.842,-9.144 2.53,-13.493c1.654,-4.313 3.962,-8.037 6.932,-11.098c3.56,-3.684 7.672,-6.334 12.182,-8.037c4.516,-1.764 9.98,-2.616 16.22,-2.616c3.227,0 6.603,0.298 9.98,0.962a69.193,69.193 0 0 1 10.458,2.655zm0,27.2c-0.185,1.439 -0.255,2.915 -0.255,4.427c0,1.626 0.068,3.21 0.255,4.719l0,-9.146z" fill="#000"/>
    <path d="m301.487,29.01c10.228,4.753 17.134,13.67 17.134,24.068c0,10.299 -6.867,19.399 -17.134,23.784l0,-47.853l0,0.001zm0,103.712c11.142,4.095 24.63,3.77 34.936,-1.12a63.796,63.796 0 0 1 -16.154,7.572c-5.776,1.704 -11.808,2.719 -17.729,2.794l-1.017,0.03l-0.036,0l0,-9.276zm0,-3.295c4.932,2.174 10.67,3.402 16.81,3.402c28.104,0 46.415,-29.072 46.703,-54.445c-0.22,-20.445 -10.23,-38.568 -25.614,-49.842c9.462,8.81 15.933,24.106 15.933,42.484c0,18.053 -11.294,47.375 -35.6,47.375c-7.232,0 -13.23,-4.892 -13.556,-12.211c-0.332,-10.077 7.09,-10.95 13.961,-14.753c11.952,-6.491 16.993,-12.548 21.088,-25.088c6.25,-19.646 -8.591,-50.026 -39.33,-50.349l-0.395,0l0,9.207c11.915,4.31 21.23,13.74 21.23,28.091c0,12.726 -8.517,22.187 -20.285,27.186c-0.326,0.108 -0.62,0.255 -0.945,0.4l0,48.543zm-37.9,0.031c-2.196,-1.591 -4.241,-3.332 -6.217,-5.183c-11.838,-11.343 -19.225,-27.186 -19.37,-44.803c0.222,-25.373 18.348,-54.118 46.345,-54.118c6.248,0 12.095,1.3 17.142,3.655l0,47.853c-0.078,0.037 -0.148,0.07 -0.257,0.107c-11.915,5.115 -20.982,14.752 -20.982,27.622c0,14.355 9.32,23.784 21.238,28.131l0,9.278c-31.031,-0.323 -45.983,-30.81 -39.618,-50.456c3.98,-12.655 9.026,-18.6 20.975,-25.197c6.982,-3.732 14.329,-4.677 13.997,-14.645c-0.218,-7.466 -6.248,-12.325 -13.557,-12.325c-24.305,0 -35.6,29.397 -35.6,47.489c0.001,18.27 6.435,33.752 15.904,42.592zm37.9,-113.458l-0.225,0c-12.822,0.031 -24.737,3.841 -34.717,10.399c10.306,-4.892 23.792,-5.253 34.942,-1.192l0,-9.207zm0,64.884c-9.942,4.677 -17.034,14.575 -17.034,24.76c0,10.513 6.836,19.213 17.034,23.783l0,-48.543z" fill="#B30000"/>
   </g>
  </svg>