<svg  id="fndm-ekq37k3y0e" viewBox="20.306961059570312 23.46010971069336 1368.0538330078125 1048.6920166015625" xmlns="http://www.w3.org/2000/svg">
   <path d="m704.344,942.594c-335.587,0 -559.752,-173.24 -559.752,-394.776c0,-221.537 224.219,-394.777 559.752,-394.777c336.221,0 559.733,173.258 559.733,394.777c0,221.536 -224.362,394.776 -559.733,394.776z" fill="#FFF"/>
   <path d="m704,23.462c-62.811,2.33 -73.649,40.845 -145.186,54.275c-60.462,9.104 -104.016,-21.479 -160.035,-3.333c-51.304,18.833 -64.437,67.562 -115.035,101.822c-48.125,30.096 -114.115,27.784 -147.317,66.144c-36.274,43.4 -23.864,95.598 -45.523,157.443c-24.82,62.964 -70.597,84.886 -70.597,147.669c0,64.004 46.011,85.049 70.904,148.274c21.84,62.938 8.093,112.218 45.469,158.14c38.641,40.065 91.01,31.864 146.776,65.104c51.483,34.54 63.858,82.809 115.324,102.21c60.265,18.281 93.575,-12.735 160.035,-3.342c67.743,11.417 82.483,52.008 145.187,54.284l0.523,0c63.208,-2.276 72.873,-41.188 144.752,-54.05c64.147,-9.357 102.68,21.263 160.486,3.106c51.937,-19.221 63.967,-67.924 115.325,-102.21c53.923,-32.119 104.865,-23.032 146.541,-64.726c37.249,-45.613 24.677,-98.904 46.245,-159.133c23.194,-60.771 70.487,-83.767 70.487,-147.66c0,-63.173 -45.27,-84.651 -71.065,-147.598c-21.353,-64.97 -9.502,-116.265 -46.064,-158.735c-39.038,-39.923 -95.617,-33.682 -146.144,-64.536c-51.558,-34.928 -63.858,-83.043 -115.325,-102.21c-57.428,-17.739 -94.441,12.158 -160.035,3.333c-70.56,-12.463 -82.392,-51.943 -145.202,-54.273l-0.526,0l0,0.002zm0.344,919.132c-335.587,0 -559.752,-173.24 -559.752,-394.776c0,-221.537 224.219,-394.777 559.752,-394.777c336.221,0 559.733,173.258 559.733,394.777c0,221.536 -224.362,394.776 -559.733,394.776z" fill="#9E0621"/>
   <path d="m1138.547,711.854l-7.406,-0.019c-17.505,-0.181 -21.912,-4.913 -27.079,-19.329c-0.434,-1.12 -50.328,-143.47 -86.765,-247.359a461740.412,461740.412 0 0 0 -38.931,-111.062c-1.391,-4.028 -4.552,-6.196 -8.959,-6.16l-48.017,0c-4.391,-0.036 -7.587,2.114 -9.087,6.106l-150.532,360.065c-3.088,7.37 -5.617,11.236 -12.393,14.74c-5.222,2.602 -14.035,2.945 -17.54,2.945c-0.487,0 -0.85,-0.02 -1.139,-0.02l-0.523,0l-3.956,0.092c-4.336,0 -7.299,2.997 -7.316,7.405l0,23.269c0.019,4.426 2.945,7.352 7.354,7.352l117.186,0c4.354,0 7.335,-2.998 7.335,-7.37l0,-23.339c0.035,-4.3 -2.98,-7.316 -7.315,-7.316l-13.043,-0.108c-11.778,-0.126 -20.757,-1.029 -20.793,-11.183l0,-0.178c0.019,-3.541 1.139,-8.11 3.359,-13.531c7.532,-18.553 15.084,-37.087 22.6,-55.62l135.432,0c6.268,17.631 16.059,49.063 16.149,49.389c0.035,0.107 3.576,11.002 4.695,15.463c0.524,2.061 0.777,3.902 0.777,5.51c0,0.127 -0.019,0.271 0,0.452c-0.217,6.179 -4.264,9.286 -12.988,9.538l-14.289,0.271c-2.078,0 -3.938,0.686 -5.293,2.041c-1.337,1.337 -2.041,3.215 -2.041,5.348l0.019,0.09l0,23.213l-0.019,0.019c0,2.078 0.687,3.921 2.041,5.274c1.336,1.355 3.197,2.041 5.328,2.041l173.133,0c4.371,0 7.334,-2.998 7.353,-7.37l0,-23.253c-0.021,-4.408 -2.966,-7.406 -7.337,-7.406zm-176.04,-114.006l-114.964,0l65.539,-163.043l49.425,163.043zm-363.913,30.925l-23.954,0c-3.793,-0.035 -6.449,2.312 -7.262,6.321c-6.648,41.91 -20.955,80.137 -82.791,80.208c-40.085,-0.036 -62.359,-26.917 -74.807,-64.273c-12.392,-37.34 -14.741,-84.994 -14.741,-125.93c0,-28.026 4.553,-68.573 17.687,-102.039c13.169,-33.5 34.773,-59.749 68.88,-59.749c56.326,0.072 72.891,30.096 81.905,79.34c0.849,4.453 3.27,6.639 7.389,6.565l23.827,0c4.39,0 7.353,-2.979 7.389,-7.343l0,-106.587c-0.036,-4.327 -3.035,-7.361 -7.371,-7.361l-24.369,0c-3.702,-0.054 -5.364,1.87 -7.045,5.555c-3.106,6.621 -5.185,10.189 -12.627,10.243c-4.498,0 -7.947,-1.644 -13.818,-4.498c-1.536,-0.713 -3.198,-1.553 -5.094,-2.42c-13.242,-5.492 -32.644,-11.76 -65.594,-11.76c-56.65,0 -104.052,21.587 -137.255,59.261c-33.221,37.701 -52.242,91.425 -52.242,155.626c0,51.305 14.849,104.612 46.082,145.097c31.198,40.52 78.798,68.192 144.12,68.176c36.166,0 59.108,-6.358 74.229,-10.55c7.677,-2.132 13.223,-3.649 17.541,-3.649c3.938,0.037 6.647,1.951 8.599,6.251c1.716,3.938 4.498,4.661 6.846,4.624l0.072,0l0,-0.072l24.442,0.072c4.372,0 7.352,-2.962 7.352,-7.334l0,-106.4c-0.002,-4.338 -3.037,-7.374 -7.39,-7.374z" fill="#042F5F"/>
   <path d="m809.21,487.174c-1.049,-1.473 -2.854,-1.536 -4.335,-1.536c-0.163,0 -0.345,-0.018 -0.524,0l-49.371,0c-4.517,-0.054 -6.323,2.349 -6.774,4.335c-3.721,14.903 -10.875,30.078 -21.298,45.062a72536.17,72536.17 0 0 1 -28.776,-42.868c30.817,-13.684 46.047,-29.96 46.064,-49.777c-0.055,-27.964 -22.744,-46.706 -56.182,-46.742c-31.667,0.054 -63.84,16.755 -63.896,54.239c0,15.536 6.702,27.169 13.477,36.418c-26.013,8.508 -53.183,30.945 -53.237,61.583c0,0.316 0,0.65 0.019,0.994c0.687,35.74 31.125,59.73 75.348,59.73l0.108,0c15.354,0 37.447,-2.964 55.964,-17.054c12.319,11.67 30.639,12.754 37.194,12.789c1.373,0 2.259,-0.071 2.422,-0.071l19.763,0c4.516,0.071 6.124,-2.385 6.955,-4.589l6.033,-14.396c0.434,-1.065 0.688,-2.042 0.688,-2.908c0,-0.759 -0.199,-1.48 -0.597,-2.06c-1.12,-1.555 -3.071,-1.626 -4.335,-1.662c-0.235,0 -0.435,0 -0.615,0.036l-9.174,0c-16.692,0 -26.031,-11.761 -28.271,-14.958c10.226,-10.261 13.188,-14.46 18.859,-22.526c0.957,-1.337 1.951,-2.764 3.053,-4.336c4.986,-7.009 12.013,-18.498 12.085,-18.625c3.071,-4.715 4.823,-7.47 9.558,-7.488l6.72,0c3.144,0.019 5.42,-1.554 6.899,-4.643l5.854,-13.305c0.578,-1.445 0.885,-2.629 0.885,-3.658c-0.003,-0.756 -0.183,-1.425 -0.563,-1.984zm-157.128,19.835l45.234,62.206c-8.292,8.273 -16.746,15.519 -31.053,15.553c-22.364,-0.071 -36.057,-14.45 -36.111,-38.007c-0.017,-15.202 9.05,-31.632 21.93,-39.752zm28.887,-34.314c-9.123,-13.396 -13.368,-21.921 -13.387,-35.037c0.036,-10.622 6.143,-21.849 19.637,-21.849c11.706,0.018 16.979,10.604 17.018,21.443c-0.019,15.626 -7.552,27.115 -23.268,35.443z" fill="#042F5F"/>
  </svg>