<svg  id="fndm-kd5wx7ofix" viewBox="0.5400000214576721 0.479644775390625 1555.4925537109375 398.90185546875" xmlns="http://www.w3.org/2000/svg">
   <g xmlns="http://www.w3.org/2000/svg" fill="none">
    <path d="m0.54,286.74c41.45,-82.75 117.67,-95.27 198.51,-97.63c34,-1 68.08,-0.379 101.56,6.33c7.23,1.45 25.13,-3.34 17.95,12.89c-5.24,11.83 -4.36,35.59 -29.68,29.05a261,261 0 0 0 -111.72,-4.49c-24.23,4.27 -46.85,12.33 -64.09,30.89c-30,32.27 -20.27,73 21.51,86.78c35.76,11.79 72.42,7.64 109,2.81c8,-1 22,-11.16 23.5,3c1.24,11.85 2.84,33 -15.49,35.56c-69.56,9.91 -138.94,13.89 -204.6,-20.14c-22.79,-11.8 -31.68,-34.57 -46.45,-52.82l0,-32.23zm650.77,108.15c-27.75,0 -55.52,-0.49 -83.25,0.21c-13.82,0.34 -19.67,-1.25 -13.74,-17.54c20.52,-56.35 39.82,-113.14 59.18,-169.9c3.59,-10.55 8.44,-16.4 20.81,-16.06c52.76,1.47 105.7,-2.88 158.25,4.12c17.65,2.35 35.47,5.88 52.27,11.63c64.75,22.16 79.19,86.49 30.8,135.76c-27.69,28.19 -63.82,38.35 -101.16,45.51c-40.81,7.82 -82.05,6.1 -123.16,6.27zm38.28,-40.22l0,-0.65c7.12,0 14.31,0.6 21.36,-0.1c32.51,-3.24 63.88,-10 86,-36.9c28,-34 16.8,-68.6 -25,-79.29c-19.23,-4.93 -38.89,-4 -58.43,-5.24c-13.81,-0.87 -20.94,3.81 -25,17.23c-8.87,28.93 -18.09,57.86 -29.23,86c-6.74,17 -1.29,20.57 14.24,19.06c5.28,-0.56 10.67,-0.11 16.02,-0.11l0.04,0zm717.3,-165.8c30.63,-0.58 60.71,2.54 89.86,12.4c67.68,22.91 69.67,80.26 44.3,127.42c-14.65,27.25 -40,43.24 -68.56,52.94c-59.77,20.33 -120.88,23.19 -182.29,8.62c-34.45,-8.17 -66.2,-23.65 -73.33,-62c-7.63,-41.11 8.64,-75.84 42.19,-100.8c43.85,-32.66 95.42,-37.75 147.83,-38.58zm-39,168.851c50.85,0.209 89.19,-28.371 96.19,-72.131c3.68,-23 -4.23,-40.61 -26.12,-50.33c-37.14,-16.48 -92.67,-1.35 -115.86,32.09c-13.79,19.91 -22,41.95 -9.81,65.45c11.57,22.24 33.55,24.48 55.64,24.921l-0.04,0zm-242.92,-62.381c29.94,24.41 33.12,58 46.2,86.62c4.1,9 0.1,13.06 -9.6,12.95c-20.54,-0.24 -41.09,-0.39 -61.62,0.07c-9.76,0.22 -14.45,-4.05 -17.06,-13.05c-3.72,-12.84 -9.48,-25.17 -12.43,-38.15c-5.18,-22.82 -20.39,-27.63 -41.35,-29.46c-23.16,-2 -23.45,14.6 -28,28.17c-17.69,52.34 -17.54,52.39 -74.48,52.38c-32.74,0 -32.78,0 -22.09,-31c17.47,-50.64 35.58,-101.07 52.14,-152c5,-15.4 12.39,-20.95 28.66,-20.38c50,1.76 100,-1.78 149.94,3.25c16.06,1.61 31.92,4 46.7,11c15.56,7.3 26.49,18.28 27.22,36.51c0.75,18.52 -10.12,29.8 -25.12,37.85c-16.77,8.96 -35.33,11.81 -59.11,15.24zm-68.14,-18.12c13,-1.67 25.54,-2.51 37.71,-5.05c12.17,-2.54 26.43,-6.36 24.85,-22.57c-1.39,-14.27 -14.64,-16.52 -26.54,-17.48c-10.66,-0.85 -21.4,-1 -32.11,-1c-20.36,0 -37.82,16.71 -34,36.57c3.38,17.91 20.77,3.53 30.09,9.53z" fill="#0A507D"/>
    <path d="m283.98,391.52c22,-62.81 44.13,-125.79 66,-188.89c4.45,-12.84 14.58,-10.88 24.24,-10.89c62.6,0 125.21,-0.29 187.8,0.34c7.77,0.08 23.55,-6.94 21.8,8.69c-1.45,12.83 -2,31.52 -25.32,30.74c-36.62,-1.23 -73.32,-0.45 -110,-0.26c-8.54,0.05 -18.92,-2.67 -22.66,8.94c-3,9.17 -11.51,18.77 -7,27.57s16.14,3.76 24.56,3.92c27.71,0.52 55.47,-0.42 83.15,0.59c7.63,0.28 23.66,-7.24 21.25,9c-1.74,11.68 -1.57,30.49 -23.11,30.22c-34,-0.42 -68,-0.2 -101.95,-0.08c-19.31,0.07 -36.14,18.06 -35.06,36.77c0.72,12.29 10.12,7.69 15.94,7.76c35.77,0.44 71.55,-0.25 107.31,0.59c7.54,0.17 23.34,-7.39 20.9,9.32c-1.74,12 -1.49,30 -23.49,29.39c-35.75,-0.93 -71.54,-0.21 -107.31,-0.25c-36.667,-0.053 -73.333,-0.167 -110,-0.34c-1.65,-0.04 -3.23,-1.43 -7.05,-3.13z" fill="#0F537F"/>
    <path d="m986.24,39.93c-56.36,52.29 -123.93,63.53 -196.42,57.22c-49.14,-4.28 -97.13,-15.17 -145.13,-25.91c-75,-16.78 -149.84,-36 -235,-17.28c62.78,-51.43 128.15,-60.43 197,-49.19c42.28,6.89 83.81,18.45 125.46,28.66c84.16,20.7 168.38,34.01 254.09,6.5z" fill="#0A507D"/>
    <path d="m877.96,104.76c-39.86,34 -83.93,49.86 -133.31,53.47c-69.69,5.11 -137.1,-8.58 -204.41,-23.48c-74.93,-16.53 -149.54,-36.53 -227.5,-21.81c-1,0.2 -2.58,-2.25 -3.91,-3.49c44.74,-36.82 98.41,-51.76 160.54,-45.9c67.17,6.35 131,28.23 196.54,41.9c66.56,13.87 132.79,17.76 199.15,-0.58c3.15,-0.87 6.75,-0.11 12.9,-0.11z" fill="#0F537F"/>
   </g>
  </svg>