<svg  id="fndm-oxq4fpd6if" viewBox="0 0.0033303163945674896 499.7495422363281 205.39805603027344" xmlns="http://www.w3.org/2000/svg">
   <g xmlns="http://www.w3.org/2000/svg" transform="scale(1.6629)" fill-rule="evenodd">
    <ellipse ry="61.732" rx="61.075" fill="#fff" cy="61.734" cx="61.075"/>
    <path d="m57.895,0.053l0.219,123.39c-24.575,-0.384 -60.627,-22.817 -57.895,-65.545c4.498,-46.246 41.236,-57.019 57.676,-57.845zm5.589,0.007c2.82,0.09 5.64,0.414 8.46,0.955l-0.117,31.194l15.378,-26.239c2.666,1.054 4.93,2.61 7.251,4.095l-15.196,27.085l27.603,-16.189c2.081,2.233 3.672,4.564 5.321,6.883l-48.7,28.69l0,-56.474zm-0.049,123.46c2.82,-0.092 5.64,-0.415 8.46,-0.956l-0.117,-31.194l15.378,26.239c2.666,-1.054 4.93,-2.61 7.252,-4.096l-15.198,-27.083l27.603,16.189c2.081,-2.233 3.672,-4.564 5.321,-6.884l-48.7,-28.69l0.001,56.475zm2.472,-61.913l49.003,-29.057c1.287,2.458 2.486,4.968 3.384,7.659l-27.187,16.145l30.81,0.416c0.25,2.943 0.228,5.941 0.088,8.963l-32.145,0.238l28.37,17.583c-0.986,2.837 -2.124,5.331 -3.501,7.698l-48.822,-29.645z" stroke-width="0.1" stroke="red" fill="red"/>
    <path d="m170.242,43.465l3.077,-6.001c-52.078,-21.118 -55.443,60.721 -0.307,43.085l-3.078,-6.001c-8.898,4.363 -26.924,3.734 -26.928,-16.926c1.851,-22.607 22.228,-17.663 27.236,-14.157zm15.135,-9.121l26.135,-0.117l0.059,6.732l-16.201,-0.022l-0.01,12.952l15.395,0.015l-0.022,7.324l-15.46,0.008l0.002,14.848l18.861,-0.001l-0.004,6.69l-28.795,-0.155l0.04,-48.274zm43.14,-0.042l26.194,0l0,6.615l-16.201,-0.022l-0.01,12.952l15.395,0.015l-0.022,7.324l-15.46,0.008l0.002,14.848l18.86,-0.001l-0.003,6.69l-28.795,-0.155l0.04,-48.274zm43.254,0.01l26.193,0l0,6.616l-16.2,-0.022l-0.01,12.951l15.395,0.015l-0.022,7.324l-15.461,0.008l0.003,14.848l18.86,0l-0.003,6.69l-28.796,-0.156l0.041,-48.274z" stroke-width="0.3" stroke="#00f" fill="#00f"/>
   </g>
  </svg>