<svg xmlns="http://www.w3.org/2000/svg" fill-rule="evenodd" clip-rule="evenodd" image-rendering="optimizeQuality" shape-rendering="geometricPrecision" text-rendering="geometricPrecision" viewBox="-2 1 6600 3300"><g><rect width="6600" height="3300" x="-2" y="1" fill="none"/><path fill="#e97403" fill-rule="nonzero" d="M5127.09 983.74l26.24 0c46.26,12.9 83.6,44.53 121.76,72.05 110.21,86.52 206.09,191.1 283.17,308.07 26.09,37.48 40.25,84.49 29.91,129.92 -19.27,95.22 -91.61,165.46 -152.87,236.1 85.99,-62.76 167.86,-130.91 252.36,-195.68 136.44,-106.25 272.67,-212.79 408.67,-319.55 13.95,-10.94 29.46,-19.56 45.21,-27.66 2.62,5.47 7.88,16.5 10.5,22.05 -18.9,52.18 -53.99,95.81 -86.07,140.27 -58.78,76.02 -119.58,150.55 -183.68,222.07 -85.77,93.79 -168.46,191.33 -265.33,274.18 -41.77,36.13 -83.22,74.15 -132.77,99.33 -16.05,8.63 -34.49,5.41 -51.59,3.31 1.57,-21.83 3.53,-44.01 11.84,-64.56 21.45,-55.63 49.49,-108.4 79.03,-160.22 -42.06,37.57 -86.44,72.28 -128.65,109.61 -31.64,27.22 -64.1,56.53 -105.42,67.55 -44.53,12.07 -97.68,11.32 -134.04,-20.54 -47.76,-38.46 -59.16,-104.06 -58.78,-162.01 0.14,-229.72 -0.83,-459.51 0.44,-689.23 -2.76,-20.99 12.75,-36.51 30.07,-45.06zm0 0z"/><g><path fill="#004a87" fill-rule="nonzero" d="M443.95 1391.67c4.64,-43.93 50.38,-62.45 89.37,-61.55 41.68,0.29 94.16,-4.35 123.02,32.31 122.06,158.57 244.41,316.99 366.7,475.4 0.81,-167.19 -1.95,-334.46 1.42,-501.57 57.42,-9.14 115.91,-2.4 173.79,-4.27 0.52,226.42 0.07,452.76 0.3,679.18 0.6,28.04 -6,62.07 -34.79,74.22 -43.64,17.32 -93.04,14.77 -138.17,5.4 -30.59,-5.99 -46.41,-35.09 -64.49,-57.28 -114.1,-147.09 -227.61,-294.71 -341.94,-441.74 -0.3,166.14 0.6,332.28 -0.53,498.35 -57.57,10.56 -116.51,2.77 -174.68,5.01l0 -703.46zm0 0z"/><path fill="#004a87" fill-rule="nonzero" d="M2005.17 1395.87c-0.29,-15.52 -0.37,-38.32 20.77,-38.69 48.73,-3.37 97.76,-0.3 146.57,-1.49 -0.08,56.37 0,112.83 0,169.21 67.48,0.89 135.03,-2.18 202.43,1.79 5.85,39.29 12.44,81.5 -1.96,119.59 -7.49,19.34 -29.76,21.89 -47.68,21.96 -50.97,0.6 -101.96,-0.3 -152.87,0.22 0.53,74.09 -0.67,148.23 0.53,222.3 0.52,24.89 8.32,55.64 35.23,63.81 56.76,16.87 115.31,-3.83 171.09,-15.15 20.62,-7.34 23.32,20.02 30,32.83 9.22,27.6 27.88,68.68 -2.63,89.67 -46.12,29.02 -101.67,39.52 -155.26,44.47 -68.99,4.86 -145.83,-6.46 -197.04,-56.9 -38.09,-36.74 -48.72,-91.93 -49.03,-142.91 -0.22,-170.18 0.08,-340.44 -0.15,-510.71zm0 0z"/><g><path fill="#004a87" fill-rule="nonzero" d="M1377.8 1548.51c16.2,-21.37 45.36,-23.61 69.8,-27.67 78.73,-9.14 158.57,-11.39 237.37,-2.84 56.9,7.34 118.15,23.99 156.23,70.03 37.19,44.45 43.64,104.88 44.99,160.66 0.75,87.42 0.98,174.91 0,262.4 0.67,24.22 -12,48.44 -35.54,56.84 -65.44,26.09 -136.75,33.74 -206.54,38.23 -88.02,3.45 -182.93,1.95 -260.31,-45.81 -94.92,-57.73 -98.51,-216.52 -5.92,-277.99 56.16,-36.37 125.8,-41.47 190.95,-41.77 50.46,-0.38 100.84,3.45 151,9.53 -1.87,-24.15 1.5,-51.59 -14.93,-71.68 -17.91,-18.15 -45.13,-20.84 -69.19,-23.24 -52.34,-3.23 -104.96,-2.18 -157.22,2.32 -34.79,2.7 -69.35,10.05 -104.36,7.65 -2.18,-38.46 -13.64,-80.07 3.67,-116.66l0 0zm125.88 322.83c-27.21,17.1 -28.26,61.1 -3.97,81.28 18.97,15.74 44.9,18.52 68.59,20.68 42.59,2.71 85.63,0.24 127.54,-7.79 8.09,-2.4 20.99,-2.85 21.43,-14.17 3.68,-31.04 0.91,-62.45 1.73,-93.56 -47.75,-0.16 -95.51,-0.23 -143.27,-0.16 -24.36,0.83 -50.53,0.68 -72.05,13.72z"/></g><path fill="#004a87" fill-rule="nonzero" d="M3238.17 1558.94c62.15,-47.62 145.59,-51.14 220.42,-42.37 27.88,4.27 60.42,7.95 78.57,32.4 12.89,24.66 8.24,53.89 6.14,80.51 -2.32,10.35 -1.8,23.54 -10.86,30.67 -52.79,1.87 -109.54,-13.2 -159.1,11.39 -29.32,16.72 -33.07,53.76 -33.36,84.2 -0.6,113.2 0,226.49 -0.3,339.7 -54.13,-0.37 -108.27,-0.31 -162.47,-0.15 -6.15,-22.49 -4.35,-46.04 -4.35,-69.13 0.3,-102.56 -0.15,-205.12 0.23,-307.6 0.45,-58.41 16.19,-122.74 65.08,-159.62zm0 0z"/><g><path fill="#004a87" fill-rule="nonzero" d="M3744.97 1540.19c64.79,-27.29 137.35,-32.76 206.48,-22.72 68.3,10.88 136.75,41.24 180.16,96.87 39.96,50.23 52.7,116.28 52.56,179.11 -0.3,90.04 0.37,180.01 -0.38,269.98 -1.05,64.99 -16.57,134.8 -65,181.5 -52.71,53.53 -130.83,67.41 -202.65,73.32l-79.77 0c-46.49,-4.56 -95.29,-3.37 -138.92,-21.89 -31.27,-14.61 -25.72,-54.8 -24.67,-83.07 2.84,-16.79 -0.15,-49.25 25.19,-47.22 76.54,6.06 154.14,19.19 230.76,5.39 26.39,-5.55 55.18,-15.07 70.63,-38.84 19.64,-28.55 16.57,-64.99 18.37,-97.9 -76.25,74.74 -198.69,82.08 -292.77,39.58 -70.25,-31.49 -117.4,-101 -133,-175.07 -15.74,-76.17 -13.72,-158.71 19.27,-230.16 26.16,-57.88 75.27,-104.44 133.74,-128.88l0 0zm106.01 123.11c-45.88,8.77 -81.03,48.2 -90.26,93.11 -10.27,50.23 -9.6,106.62 16.65,152.04 33.5,55.79 110.96,65.53 167.41,43.2 45.51,-17.48 67.1,-67.86 70.47,-113.6 3,-44.15 5.4,-93.26 -21.67,-131.05 -31.71,-43.63 -92.51,-54.28 -142.6,-43.7z"/></g><path fill="#004a87" fill-rule="nonzero" d="M2502.62 1529.32c53.82,-9 108.7,-2.55 162.98,-4.42 0.82,109.54 -0.07,219.07 0.45,328.6 0.37,27.22 3.74,57.43 24.3,77.53 30.21,29.01 75.94,33.35 115.52,27.36 27.6,-3.37 55.56,-17.09 69.57,-41.99 13.72,-23.61 13.28,-51.88 13.66,-78.27 -0.38,-84.79 0.14,-169.59 -0.3,-254.31 -0.31,-18.14 0.97,-36.2 3.81,-54.12 53.91,-9.6 109.24,-3.01 163.74,-4.5 -0.14,116.88 0.23,233.84 -0.14,350.79 0.6,61.56 -20.1,126.63 -68.46,167.27 -57.79,50.01 -137.64,64.02 -211.94,64.1 -75.72,-0.45 -157.59,-15.74 -214.49,-69.5 -44.98,-40.33 -62.53,-102.71 -62.53,-161.49 -0.53,-97.76 0.15,-195.6 -0.3,-293.37 -0.31,-17.99 1.04,-35.99 4.13,-53.68zm0 0z"/><path fill="#004a87" fill-rule="nonzero" d="M4314.92 1527c49.62,-5.11 99.78,-0.75 149.64,-2.1 0.75,107.14 -0.22,214.34 0.45,321.48 0.98,29.76 2.92,62.9 23.92,86.14 19.34,22.27 50.3,28.65 78.57,28.94 34.11,0.23 71.37,-8.92 94.31,-35.98 22.12,-25.95 25.19,-61.86 25.65,-94.47 0.14,-90.19 -0.53,-180.31 0.06,-270.42 1.13,-12.45 0.46,-31.72 16.73,-33.82 50.08,-4.5 100.68,-0.75 150.99,-1.65 -0.3,171.91 0.38,343.82 -0.37,515.81 -1.05,70.93 -10.87,149.13 -62.16,202.73 -53.98,57.2 -136.75,72.57 -212.17,74.59l-54.36 0c-46.63,-4.72 -95.66,-2.46 -139.44,-21.28 -30.74,-14.92 -25.27,-54.66 -23.99,-82.85 3,-16.71 -0.23,-47.68 24.44,-46.71 82.77,5.4 170.11,24.89 250.33,-5.17 46.86,-18.59 50.61,-75.42 50.83,-118.54 -34.56,28.12 -75.65,49.05 -120.4,53.69 -74.76,8.55 -158.8,-6.22 -212.92,-62.23 -44.61,-45.66 -57.14,-112.23 -57.36,-173.86 -0.08,-100.39 -0.3,-200.77 0,-301.17 1.05,-12.07 0.15,-33.21 17.25,-33.13zm0 0z"/></g></g></svg>