<svg  id="fndm-vpybvy8m95" viewBox="95 76 410 98" xmlns="http://www.w3.org/2000/svg">
   <g xmlns="http://www.w3.org/2000/svg" fill="none">
    <path d="m368.16,77.082l0,3.75c-4.852,-3.031 -10.56,-4.832 -16.696,-4.832c-17.409,0 -31.464,14.134 -31.464,31.585s14.127,31.585 31.464,31.585c6.136,0 11.844,-1.73 16.696,-4.832l0,8.15c0,9.23 -7.492,16.73 -16.696,16.73c-7.491,0 -13.77,-4.905 -15.91,-11.683l-13.699,5.697c4.352,12.115 15.982,20.768 29.61,20.768c17.408,0 31.464,-14.134 31.464,-31.585l0.071,0l0,-65.405l-14.84,0.072zm-16.624,47.233c-9.204,0 -16.696,-7.5 -16.696,-16.73s7.492,-16.73 16.696,-16.73s16.695,7.5 16.695,16.73c-0.071,9.23 -7.491,16.73 -16.695,16.73zm-168.036,-48.315c-17.429,0 -31.5,14.32 -31.5,32s14.143,32 31.5,32c17.429,0 31.5,-14.32 31.5,-32s-14.143,-32 -31.5,-32m0,48.877c-9.214,0 -16.714,-7.598 -16.714,-16.95s7.5,-16.95 16.714,-16.95c9.214,0 16.714,7.598 16.714,16.95s-7.5,16.95 -16.714,16.95m-57.032,-33.9c5.864,0 11.014,3.069 14.018,7.744l10.656,-10.74c-5.793,-7.304 -14.662,-11.981 -24.602,-11.981c-17.45,0 -31.54,14.32 -31.54,32s14.16,32 31.54,32a31.23,31.23 0 0 0 24.602,-11.982l0.858,-19.945c-3.004,4.53 -19.668,16.804 -25.532,16.804c-9.226,0 -16.735,-7.598 -16.735,-16.95s7.51,-16.95 16.735,-16.95" fill="#006EA1"/>
    <path d="m419.5,76c-17.429,0 -31.5,14.32 -31.5,32s14.143,32 31.5,32c17.429,0 31.5,-14.32 31.5,-32l0,-32l-31.5,0zm16.714,31.927c0,9.352 -7.5,16.95 -16.714,16.95c-9.214,0 -16.714,-7.598 -16.714,-16.95s7.5,-16.95 16.714,-16.95l16.714,0l0,16.95z" fill="#6EA62E"/>
    <path d="m307.963,82.439c-4.31,-4.269 -9.695,-6.439 -16.733,-6.439c-6.966,0 -15.511,3.69 -20.107,11.792c-3.16,-6.655 -9.91,-11.792 -17.81,-11.792c-6.103,0 -11.92,2.677 -16.66,8.03l0,-6.945l-15.653,0l0,60.915l15.727,0l0,-33.568c0.143,-4.775 1.58,-7.597 3.95,-10.056c2.369,-2.46 5.457,-3.328 8.76,-3.328c6.607,0 10.413,5.353 10.413,13.89l0,33.062l15.654,0l0,-33.568c0.144,-4.775 1.58,-7.597 3.95,-10.056c2.37,-2.46 5.457,-3.328 8.76,-3.328c6.607,0 10.413,5.353 10.413,13.89l0,33.062l16.373,0l0,-36.824c-0.072,-8.247 -2.729,-14.397 -7.037,-18.737m189.434,24.354c-2.654,-1.536 -9.037,-3.95 -14.416,-6.07c-8.535,-3.292 -10.472,-5.486 -10.185,-7.754c0.287,-2.121 3.801,-3.803 9.252,-3.51c5.451,0.292 10.042,1.17 16.712,4.022l5.164,-12.288c-7.961,-3.657 -15.277,-5.193 -20.872,-5.193c-9.109,0 -14.344,1.463 -19.222,5.047c-4.877,3.657 -6.957,8.119 -6.957,13.897c0,5.705 3.873,10.752 8.966,13.897c2.51,1.536 6.24,3.657 12.193,5.705c3.73,1.317 6.025,1.975 7.961,3c2.08,1.096 2.654,2.34 2.654,3.803c0,1.828 -2.152,4.096 -7.531,4.096c-6.527,0 -14.417,-2.414 -21.374,-6.583l-6.742,12.873c4.662,2.999 7.388,4.169 12.48,5.778c5.092,1.682 10.041,2.487 14.847,2.487c7.172,0 13.054,-1.902 17.86,-5.559c4.16,-3.145 6.813,-8.046 6.813,-14.19c0,-4.754 -1.721,-9.947 -7.603,-13.458" fill="#006EA1"/>
   </g>
  </svg>