<svg  id="fndm-5g7cisreii" viewBox="34.34529495239258 177.9983367919922 431.3046875 144.0019989013672" xmlns="http://www.w3.org/2000/svg">
   <path d="m58.5,311.6c1.7,2.6 3.4,5.4 7.2,4.6c3.8,-0.8 6,-3.4 6.7,-7.1c0.5,-2.2 0.8,-4.4 1.2,-6.7c1,0.2 0.5,-0.6 0.5,-0.9l0,-64c0,-0.8 0.2,-1.6 -0.5,-2.3c-1.7,-1.8 -3.8,-0.7 -5.7,-0.8c-1.7,-0.1 -2.4,-0.6 -2.3,-2.3c0,-1.6 0.3,-2.5 2.2,-2.5c7.9,0.1 15.8,0.1 23.7,0c2.6,0 2.3,1.4 2.3,3.1c0,13.4 0.1,26.8 0,40.2c0,13.5 -0.2,27 -0.1,40.4c0,1.3 -1,2.6 0,3.9c-1.8,0.7 -3.5,0.7 -4.9,-0.7c-1.1,-2.1 -2.1,-4.2 -3.3,-6.6c-3.3,2.9 -5.9,6.2 -9.4,8.5c-8.4,5.5 -15.7,4.8 -22.4,-2.8c-8.2,-9.4 -12.9,-20.6 -15.8,-32.5c-4,-16.3 -4.3,-32.8 -2.5,-49.4c0,-0.4 0.3,-0.7 0.4,-1.1c0.6,0.3 0.4,0.8 0.6,1.3c-0.1,-0.9 0.3,-1.8 -0.4,-2.6c-0.1,-1.5 -0.2,-2.9 0.7,-4.3c0.7,0.6 0.6,1.4 0.5,1.6c-0.1,-0.6 0.4,-1.8 -0.3,-3c1.4,-10.4 4.7,-20.1 10.2,-29c2.1,-2.1 4.1,-4.2 6.4,-6c0.6,-0.5 1,-1.4 1.9,-1c1,0.4 1.3,1.4 1.1,2.3c-0.8,2.8 -0.3,5.6 -0.4,8.3c-0.7,10.4 0.3,20.8 -0.1,31.3c-0.3,8.8 0.2,17.7 0.2,26.5c0,13.4 -0.5,26.7 -0.4,40.1c0,4.7 0.1,9.4 2.7,13.5zm233.2,-26c-0.1,-0.4 -0.1,-0.9 -0.2,-1.3c-0.8,-2.2 0.2,-4.6 -0.6,-6.8l0,-8.2c0.8,-2.7 0.4,-5.5 0.5,-8.3c0.2,-5.1 1.8,-9.5 4.4,-13.7c2.8,-5 5.2,-10.2 9.7,-13.9c2.5,-2 5.1,-3.6 8.4,-3.9c2,-0.5 4,-0.5 6,0c12.4,3.9 17.4,14.1 20.2,25.3c4.8,18.6 3.9,37 -7.1,53.5c-9.3,14 -22.6,13.8 -32.5,0.2c-0.6,-0.9 -1.3,-1.7 -1.9,-2.6c-0.8,-0.7 -1.8,-1.3 -2.1,-2.5c0,-1.1 0,-2.3 -0.9,-3.2c-1,-0.6 -0.3,-1.7 -0.8,-2.4c-1.8,-1.1 -1,-3.1 -1.6,-4.6c-1.4,-0.9 0,-2.4 -0.8,-3.5c-0.9,-1.1 0,-2.8 -0.7,-4.1zm-122.2,-53.6c3.9,2.7 4.8,7.1 6.1,11.2c1.1,3.6 1.9,7.4 1.8,11.3c-0.7,0.8 -0.4,1.8 -0.4,2.7l0,45.3c0,0.8 0.3,1.6 -0.4,2.3c0.3,0 0.6,0 0.6,-0.2c-0.4,-15.7 -0.1,-31.5 -0.2,-47.2c0,-0.6 0.1,-1.1 0.5,-1.5c1,5.3 0.6,10.6 0.6,16c0.1,11.6 0,23.3 0,34.9c0,4.6 1.1,5.3 4.7,4c2.2,0.2 2.5,1.4 1.7,3.2c-0.8,1.7 -2,2.9 -3.8,3.4c-0.7,0.4 -1.5,0.3 -2.3,0.3c-0.4,0 -0.9,0.1 -1.3,-0.3c0.1,0.8 1.2,0.1 1.3,0.8c-1.8,0.8 -3.6,0.9 -5.4,0c-0.9,-1.4 -2.3,-1.5 -3.8,-1.6c-3.4,-2.4 -5.1,-6 -6.9,-9.9c-3,4.5 -4.7,10 -10.7,11.3c-2.7,-0.3 -5.3,0.2 -8,-0.1c-1.1,-0.5 -2.2,-0.9 -3.3,-1.4c-0.9,-0.5 -2,-0.5 -2.8,-1.1c-0.5,-0.3 -0.8,-0.7 -1,-1.2c-0.4,-1.1 -1.5,-1.7 -2.2,-2.7c-5.9,-10.8 -5.8,-22 -1.9,-33.3c2.9,-8.2 11.6,-14.1 20.4,-14.3c2.3,-0.1 4.5,0.3 6.7,-0.4c0.6,-0.4 0.7,-1.1 0.7,-1.8c-0.2,-7.9 0.1,-15.7 -0.2,-23.6c-0.2,-0.8 -0.5,-1.5 -0.8,-2.2c-0.2,-0.3 -0.3,-0.7 -0.5,-1c-0.9,-3.2 -3.7,-4.1 -6.3,-5.3c-1,-0.5 -2.5,-0.5 -1.6,-2.3c2.7,-0.4 5.4,-0.3 8,0c3.8,1.5 7.6,2.3 10.7,4.7zm205,82.9c-5,4.5 -10.9,5.1 -16.7,2.3c-5.7,-2.8 -8.4,-8.2 -9.1,-14.4c0.6,-1.4 0.3,-2.9 0.3,-4.4l0,-57.8c0,-1.3 -0.3,-2.7 0,-3.3c0,15.9 0.1,32.4 0,49c0,5 0.7,10.1 -0.4,15.1c-1.1,-2.8 -0.7,-5.8 -0.7,-8.7c-0.1,-18.4 -0.1,-36.9 0.1,-55.3c0,-3.6 -0.8,-5.1 -4.5,-4.5c-1.1,0.2 -3,0.9 -3.5,-0.8c-0.5,-1.3 -0.9,-3 1.7,-3.6c12.1,-3 18,-10.1 19.3,-22.6c0.1,-1 0.4,-2.1 0.6,-3.1c2.9,1.2 2.9,1.2 2.9,4.9l0,15.9c0.4,-6.4 -0.5,-13.8 0.4,-21.1c1.1,6.2 0.2,12.5 0.5,18.7c0.1,2.3 0.2,4.5 0.3,6.8c4.1,0.2 8.3,-0.6 12.3,0.8c0.9,1.5 0.9,2.9 -0.2,4.3c-1.9,1.3 -4.1,0.9 -6.2,1c-4.2,0.2 -4.6,0.5 -4.6,5.1l0,50.6c0,4.8 0.3,9.6 -0.2,14.4c-0.2,1.1 -0.9,2.1 -1.1,3.3c-0.1,0.4 -0.2,0.7 -0.3,1.1c0.3,-0.2 0.5,-0.7 1,-0.5c3.5,2.5 4.8,2 6.2,-2.1c1.4,-4 0.5,-8.3 1.3,-12.3c0.4,-1.2 0.2,-2.4 0.5,-3.6c0.3,-1.6 1,-2.8 2.9,-2.6c1.6,0.1 2.2,1.3 2.3,2.8c0.3,3.6 0.1,7.2 0.1,10.7c0,0.7 -0.1,1.4 -0.2,2.1c-0.8,2.6 -1,5.4 -2,8c-0.8,1.6 -1.6,2.9 -3,3.8z" fill="#004a3e"/>
   <path d="m208,235.2c-1.2,-0.2 -2.1,0.5 -3.2,0.8c-0.8,1.2 -2.1,1.7 -3.3,2.3c-0.6,1.2 -1.2,2.5 -2.5,3.2c-1.4,2 -1.1,4.6 -2.2,6.7c-0.5,-0.2 -0.3,-0.9 -0.6,-1.3c0.3,0.9 -0.2,1.9 0.5,2.7c-0.3,3.7 0.2,7.4 -0.8,11c-1.1,-1.2 0,-2.6 -0.4,-3.6c-0.3,0.7 0.5,2.3 -1.2,2.5c-0.8,0.1 -1.1,-0.6 -1.1,-1.4c0.3,-8.4 -0.9,-16.8 0.7,-25.1c0.7,-1.2 1.8,-1.5 3.1,-1.5l32.1,0c0.3,0 0.4,0.2 0.3,-0.1c-11.6,0.2 -23.4,-0.3 -35.2,0.3c-0.5,-0.1 -1,-0.3 -1.3,-0.6c1,-1.3 2.5,-0.6 3.7,-0.6c11.8,-0.1 23.5,-0.1 35.3,-0.1c1.4,1.3 0.7,2.7 0.3,4.1c-7.3,26.3 -14,52.8 -21.1,79.1c-0.4,1.4 -0.5,3 -2.1,3.7c-4.2,1.2 -8.5,0.9 -12.8,0.9c-1.8,0 -3.5,-0.2 -4.6,-1.8c-0.5,-0.8 -0.6,-1.6 -0.6,-2.6c0,-0.4 0.1,-0.8 0.2,-1.3c1.5,-4.6 2.1,-9.6 4.6,-13.9c5.3,-18.5 10.2,-37 14.7,-55.7c0.4,-1.8 0.9,-3.7 1.3,-5.5c1.3,-5 -2.6,-1.2 -3.8,-2.2zm49,-3.2c-3.8,15.2 -7.7,30.5 -11.5,45.7c-2.9,11.4 -5.7,22.8 -8.8,34.1c-0.7,2.7 0.3,3 2.3,2.9c1.4,-0.4 2.8,-0.5 4.2,0c0.6,1 -0.2,1.1 -0.9,1.3c0.9,0 1.3,-0.8 2,-1.1c2.4,-0.9 4.9,-1.5 7.4,-1c1.6,0.3 2.8,1 2.6,2.9c-0.2,1.7 -1.4,2.2 -2.9,2c-5.3,-0.5 -10.6,-0.3 -15.8,-0.4c-4.9,-0.1 -10,0.2 -15,0.4c-1.9,0.1 -3.9,-0.1 -4.1,-2.7c0.8,-7.9 3.5,-15.4 5.6,-23c4.8,-18.1 9.5,-36.2 14.5,-54.3c0.4,-1.5 0.5,-3.2 2,-4.3c0.5,-1.1 1,-2.1 1.5,-3.2c4.4,-0.1 8.7,-0.1 13.1,-0.1c1.4,0 2.7,-0.2 3.8,0.8z" fill="#fd332d"/>
   <path d="m133,317.1c-9.6,0.1 -19.3,0.1 -28.9,0.2c-1.4,0 -2.3,-0.1 -2.3,-1.9c0,-1.7 0.2,-2.1 2.1,-1.8c1.6,0.2 3,-0.9 3,-3.2c-0.1,-24.7 -0.1,-49.5 0,-74.2c0,-2 -0.7,-2.6 -2.6,-2.4c-1.4,0.2 -2.5,0.1 -2.5,-2c0,-2.4 1.4,-2.1 2.9,-2.1l13.2,0c3.7,0 3.7,0 4.2,4.2c4.2,-5.9 9.5,-7.4 15.9,-5c0.2,0.1 0.3,0.3 0.3,0.5s0,0.3 -0.1,0.3c-0.6,1.1 1.5,2.9 -0.9,3.4c-1.1,-0.1 -2,-0.8 -3,-1.2c-1.8,-0.8 -3.2,-0.4 -4.4,1.2c-2.5,3 -3.5,6.4 -3.5,10.4c0.1,21.1 0.1,42.2 0,63.2c0,3.2 0.4,5.3 4.4,5.6c3.3,0.2 3.6,1.3 2.2,4.8zm298.6,-81.6c-0.6,1.5 -1.2,3 -1.8,4.6c0.1,2.7 -1.9,5.2 -0.7,8c0,20.7 0.1,41.4 0,62.1c0,3.6 0.9,5 4.5,3.9c0.5,0 0.7,0.3 0.5,0.8c-1.4,1.2 -3.6,0.7 -4.9,2.2c-0.4,0.2 -0.7,0.4 -1.1,0.6c-4.9,1.4 -9.9,0.3 -14.8,0.8c-2.1,-0.5 -2.2,-2.3 -2.6,-3.9c0,-0.5 0,-1 0.1,-1.5c0.5,-1.3 0.3,-2.6 0.3,-4l0,-71.7c0,-2.9 -0.2,-5.1 -3.9,-4.9c-2,0.1 -1.3,-1.6 -1.4,-2.6c-0.2,-1.7 1.1,-1.4 2.2,-1.4c6,0.1 12,0 18,0c2.6,1.8 0,4.7 1.5,6.8c1.3,0.9 3,-3 4.1,0.2zm-143.2,78.6c1.3,0.2 2.6,0.5 4,0.7c1,4.2 0.9,4.4 -3.2,4.4c-7.9,0.1 -15.8,-0.2 -23.7,0.2c-2.7,-1.6 -1,-3 0.3,-4.1c0.6,-0.5 1.9,0 2.6,-0.7c0.2,-0.3 0.4,-0.6 0.5,-0.9l0.6,-0.9c0.3,-0.7 0.7,-1.4 0.7,-2.2c0.1,-24.6 0.1,-49.3 0,-73.9c-0.3,-1.2 -0.5,-2.3 -0.4,-3.6l-0.1,-0.1c-0.1,0.1 -0.2,0.2 -0.3,0.2c-0.4,0.1 -0.8,0.2 -1.3,0.1c-0.4,-0.1 -0.9,-0.3 -1.3,-0.4c-1,-0.4 -2.2,-0.6 -2,-2c0.2,-1.2 1.2,-1.3 2.1,-1.3c6.1,0.1 12.1,-0.5 18.2,0.3c1.6,1 1.4,2.7 1.5,4.3c0.2,9.2 0,18.4 0.1,27.6c0,1.6 -0.1,3.2 0.3,4.8c0.1,0.9 0,1.8 0.1,2.7c-0.5,1.7 -0.5,3.3 -0.1,5c-0.1,0.4 -0.2,0.9 -0.3,1.3c-0.1,12.1 -0.1,24.3 0,36.4c0.3,1 1,1.6 1.7,2.1zm176.9,3.9c-2.8,1.8 -5.9,0.5 -8.8,0.7c-3.5,0.2 -7,-0.1 -10.4,0.1c-2.9,0.2 -3.5,-0.8 -3.5,-3.6c0.1,-23.7 0,-47.4 0.1,-71.1c0,-3.9 -0.7,-7.4 -3.2,-10.5c-0.3,-0.7 -0.8,-1 -1.6,-0.9l-3.1,0c-2,0 -2.2,-1.3 -1.9,-2.8c0.9,-0.4 1.7,-0.8 2.6,-1.2c2.9,0 5.9,0.3 8.8,-0.1c5.4,0.2 9.3,3 11.8,7.6c2,3.6 3.4,7.5 3.4,11.7c-0.5,2.5 0.3,5 0.4,7.5l0,52.9c0,1.3 -0.3,2.7 0.3,3.9c0.2,3.5 3.4,1.1 4.7,2.4c-1.3,0.9 -3,-0.1 -4.8,0.8c-0.1,0 0.8,0.4 0.5,0c-0.1,-0.2 -0.1,-0.4 0.2,-0.4c1.6,0.3 4,-1.1 4,2.2c0.1,0.5 0.3,0.7 0.5,0.8z" fill="#004a3e"/>
   <path d="m133,317.1c0.6,-3.2 -0.5,-4.8 -3.9,-4.2c-3.4,0.6 -4.2,-0.9 -4.1,-4.1c0.1,-21.2 0.2,-42.5 0,-63.7c0,-5.5 1.3,-10.2 5.2,-14.1c1.6,-0.4 3.2,-0.3 4.8,0c0.8,0.6 1.7,1.2 2.5,1.8c2.6,1.1 2.2,2.9 1.2,4.9c-2.3,4.4 -2.4,8.9 -0.8,13.5c2.4,6.5 7,7.2 11.6,1.9c3.3,-6.5 2.9,-12.6 -2.1,-18.1c-2.1,-2.3 -1.6,-4.2 1.5,-5.2c4.1,-1.3 8.6,1 10.9,5.6l-0.1,-0.1c1.5,1.8 0.7,4.2 1.4,6.2l0,19.6c0,1.2 0.6,2.7 -0.6,3.8c-4,0.2 -8,-0.4 -11.9,0.6c-9.6,2.6 -15.6,9.9 -16.9,20.4c-1.1,9 -0.5,17.7 4.1,25.8c0.1,1.1 1.3,1.4 1.6,2.3c0.3,0.3 0.6,0.6 0.8,0.9c0.4,0.5 0.5,1 0,1.5l-3.2,-1.6c-0.7,0.5 -0.7,2.1 -2,2.3z" fill="#fcfdfd"/>
   <path d="m264.4,318c0.9,1.5 2.4,0.7 3.5,0.7c6.8,0.1 13.5,-0.2 20.3,0.1c3.3,0.1 4.6,-0.8 4.2,-4.1c1,0.4 1.6,2.7 3.1,0.7c0.4,-0.5 -0.3,-1.9 1.1,-1.6c0.5,0.1 0.9,0.9 1.3,1.4c-1.1,0.4 -0.8,1.9 -1.7,2.4c-2.9,1.8 -6.1,1.9 -9.5,1.9c-7.2,0 -14.5,0.6 -21.6,0.3c-15.9,-0.7 -31.9,0.7 -47.7,-0.8c-3.9,-0.4 -7.2,1.4 -11,0.6c-3.8,-0.8 -8,-0.5 -12,-0.1c-4.2,0.3 -6.6,-1.6 -8.1,-5.2c-0.1,-0.3 -0.7,-0.4 -1,-0.6c-0.4,-4.1 1,-8 1.1,-12c0,-0.8 0.5,-1.5 1.5,-1.5c1.1,-0.5 1.6,-0.2 1.9,1c0.4,1.5 1.7,0.9 2.6,0.6c0.7,-0.3 2.9,-0.5 0.5,-1.7c0.7,-1.1 2.3,-0.6 3.1,-1.5c-0.9,5 -2.2,9.9 -3.9,14.6c-0.6,-1.5 -1.1,-2.9 -2.9,-3.4c0.4,1.6 2.8,1.5 2.9,3.4c0,0.8 -0.1,1.5 -0.1,2.3c0.1,1.2 0.3,2.5 2,2.4c5,-0.2 10,0.7 15,-0.6c3.7,-13.8 7.4,-27.5 11.1,-41.3c3.7,-13.8 7.5,-27.6 11.2,-41.3c0.4,-1.4 1.1,-2.7 0.8,-4.3c1,-1.7 2.6,-2 4.4,-1.6c2.1,0.5 1.2,2.3 1.4,3.6c0.1,0.8 0.2,1.6 1,2c-3.6,14 -7.3,27.9 -10.9,41.9c-3.4,13 -6.8,26.1 -10.2,39.1c-0.6,1.6 -0.8,2.8 1.6,2.9c11.1,0.2 22.2,0.1 33.3,0c4.2,0 5,-1.2 5,-5.4l0,-18.4c0,-1.6 0.1,-3.2 -0.9,-5c-1.8,2.2 0.5,5.7 -2.7,7c-1.9,-2.7 -0.3,-5.7 -0.6,-8.6c-0.2,-2 2.2,-1 3.5,-1.2c1.9,-0.3 2.6,0.7 2.6,2.5c-0.1,5.7 0,11.5 0,17.2c0,7.1 0.1,7.2 7.2,5.9c0.4,-0.1 0.7,-0.1 0.9,0.3c0.1,0.8 -0.3,1.4 -1,1.8c-2.3,0.3 -1.8,2.3 -2.3,3.6z" fill="#fdfdfd"/>
   <path d="m58.5,311.6c-3.5,-3.4 -3.6,-7.9 -3.5,-12.2c0.2,-11.3 1,-22.7 -0.4,-34c-0.4,-3 0.8,-5.7 0.8,-8.7c-0.2,-13 0,-26.1 -0.1,-39.1c-0.1,-7.1 -0.4,-14.3 -0.8,-21.4c-0.2,-2.2 1.4,-4 0.5,-6.3c-0.5,1.1 -1.1,2.3 -1.6,3.4c-0.3,0.6 -0.5,1.7 -1.5,0.4c-0.8,-1.1 -1.7,-1.1 -1.6,0.5c0.1,2.6 -1.5,2.4 -3.1,2.3c1.6,-3.6 3.8,-6.7 6.7,-9.4c9.8,-9.1 18.8,-8.8 29.7,1.3c1.1,-2.2 2.3,-4.3 3.2,-6.4c0.8,-1.8 2.3,-1.6 3.7,-1.5c1.6,0.2 1.1,1.6 1.1,2.5l0,31.7c0,3.4 -1.6,3.3 -3.9,1.9c0.1,-2.4 0.5,-4.9 -1,-7.1c-1.8,-5.4 -2.7,-11.1 -5.8,-16.1c-1.3,-2.1 -2.5,-4.1 -4.3,-5.8c-4.9,-4.6 -10.8,-4.1 -15.1,1c-3.9,4.6 -4.7,10 -4.7,15.8c0,24.2 -0.1,48.5 -0.1,72.7c0,8.6 -0.4,17.1 0.2,25.7c0.1,3.2 1,5.9 1.6,8.8z" fill="#024a3d"/>
   <path d="m267.6,190.3c0,-0.3 -0.1,-0.5 0,-0.8c1.4,-7 5.3,-11.4 10,-11.5c4.9,-0.1 8.9,4.3 10.4,11.5c1.1,5.1 0.6,10.1 -1.9,14.8c-1.8,3.3 -4.2,6 -8.3,6.1c-4.2,0 -6.5,-2.7 -8.3,-6c-1.1,-2.1 -2.2,-4.3 -2,-6.8c0.6,-2.5 0.6,-4.9 0.1,-7.3zm114.1,1.6c0.6,-5.5 2.3,-10.4 8,-12.7c1.3,0.5 2.7,0.6 4,-0.1c6.2,1.9 7.6,7.3 8.6,12.7c1,5.3 -0.2,10.4 -3.1,14.9c-3.9,6.2 -10.6,6.2 -14.5,0.1c-1.5,-2.4 -2.8,-4.8 -2.9,-7.7c0.7,-2.5 1.3,-4.9 -0.1,-7.2z" fill="#004a3e"/>
   <path d="m253.9,296.5c0.9,-2 0.9,-4.2 0.6,-6.3c-0.3,-2.6 1.6,-2.3 2.8,-2.5c2.3,-0.4 1.3,1.6 1.3,2.5c0.1,8.5 0,17.1 0.1,25.6c0,2.1 -0.4,3.1 -2.8,3c-12.1,-0.1 -24.3,-0.1 -36.4,0c-3.1,0 -3,-1.2 -1.8,-3.3c-0.1,1.6 0.4,2.1 2.3,2.3c4.3,0.4 8.6,0.2 12.8,0.2c5.3,0.1 10.6,0.1 15.9,0c1.7,0 3.5,0.7 4.9,-0.8c0.3,-0.3 0.3,-1.2 0,-1.5c-1.5,-1.7 -3.5,-0.8 -5.3,-0.8c-1.6,-0.1 -3.1,1.7 -4.9,0.7c-1.2,-1.4 -2.9,-0.5 -4.4,-0.9c2.4,-1.1 5.4,-0.6 7.6,-2.5c2.1,-2.6 3.7,-5.6 6.1,-8c0.5,0.3 1.1,0.7 1.5,-0.2c-0.5,0.6 -1,0.6 -1.5,0c-0.3,-0.8 -0.2,-1.5 0.4,-2.1c0,-1.8 0.1,-3.6 0.8,-5.4z" fill="#fb3430"/>
   <path d="m377.6,228.8c-4,-0.7 -8.1,0.8 -12,-0.8c1.7,-1.4 3.8,-0.8 5.7,-0.8c8.9,0.1 17.8,0 26.8,0c2.7,0 5.7,-0.3 3.8,4.1c-0.3,0.8 -0.1,1.9 -0.1,2.8c0,24.6 0.1,49.3 -0.1,73.9c0,2.1 1.3,4 0.9,6.1c-0.7,0.4 -1.4,0.4 -2,-0.2c-0.3,-0.4 -0.5,-0.9 -0.6,-1.4c-0.4,-23 -0.1,-46 -0.2,-69l0,-8.8c0,-1.3 0.1,-2.7 -1,-3.7c-3.3,-1.6 -6.8,-0.6 -10.2,-0.8c-2.2,-0.2 -4.5,0 -6.8,-0.1c-0.7,0 -1.3,-0.1 -2,-0.1c-0.4,0 -0.9,-0.1 -1.3,-0.3c-0.2,-0.3 -0.6,-0.6 -0.9,-0.9zm49,0.2c-6.2,-1.2 -12.5,-0.2 -18.7,-0.5c-1.5,-0.1 -1.8,0.7 -1.8,2c0,1.4 0.5,2.1 1.9,1.8c3.6,-0.7 3.4,1.6 3.4,4l0,77.8c-1.1,0.8 -2.1,0.9 -3.2,0c1.6,-1.3 2.5,-2.8 2.5,-5c-0.1,-23.9 -0.1,-47.8 -0.1,-71.7c0,-2.5 0,-4.8 -3.6,-4c-1.2,0.3 -1.8,-0.5 -1.9,-1.6c-0.3,-1.8 -0.4,-3.9 0.9,-5.3c1.1,-1.2 1.3,0.6 1.9,1.1c0.9,0.8 2.1,0.5 3.1,0.4c5.3,-0.2 10.7,0.4 16,-0.3c0.2,0 0.6,0.4 0.8,0.7c0,0 -0.3,0.4 -0.5,0.6c-0.2,0.2 -0.4,0.2 -0.7,0z" fill="#f9fbfb"/>
   <path d="m433.7,314.8c0,-0.2 -0.1,-0.5 -0.1,-0.7c2.7,0.1 2,2 1.6,3.5c-0.3,1.2 -0.7,2.3 -2.6,2.3c-17.1,-0.2 -34.2,-0.2 -51.3,-0.2c-2,0 -3.8,0 -3.6,-2.8c0.1,-2.3 -1.7,-2 -3.1,-2c2.3,-3.4 2.7,-7.6 3.9,-11.4c1.7,3.3 1.8,7.2 4.3,10.1c0.1,0.4 0.1,0.7 0,1.1c-0.5,1.2 -2.6,0.1 -2.7,1.9c1.1,1.3 2.7,1.1 4.1,1c13.3,-0.2 26.6,0.5 39.9,0.4c2.7,0 5.3,-0.2 7.9,-0.9c0.8,-0.5 1.1,-1.5 1.7,-2.3z" fill="#f8fbfa"/>
   <path d="m159.6,235.5c-4.2,-5.7 -8.1,-6.5 -13.8,-2.7c3.8,2.3 6.2,5.7 6.5,9.9c0.3,3.8 0.5,7.8 -2.1,11.2c-1.6,-1.7 -0.5,-3.6 -0.4,-5.4c0.4,-5.3 -0.5,-9.8 -5.1,-13.5c-1.3,-1.1 -3.5,-2.4 -4.3,-4.5c0.3,-0.3 0.6,-0.3 0.9,0c3.5,-0.1 6,-3.6 9.7,-3.1c0.7,2.2 3.2,2.1 4.7,2.6c2.9,1.1 3.5,3 3.9,5.5z" fill="#054a3c"/>
   <path d="m286.7,274.6l0,-0.8c-0.5,-1.3 -0.5,-2.7 0,-4l0,-2.4c-0.7,-6.3 -0.3,-12.7 -0.3,-19c0,-6.5 -0.3,-12.9 0.1,-19.4c0.9,0.1 1.4,0.5 1.4,1.6c-0.4,12 0.1,24 0,36c-0.2,14.2 0,28.3 -0.3,42.5c0,1.7 -0.1,3.5 0.8,5.1c-0.9,0.4 -1.4,-0.2 -1.7,-0.9c-0.7,-11 -0.1,-22 -0.3,-33c0,-2 -0.3,-3.8 0.3,-5.7z" fill="#fafbfb"/>
   <path d="m187.8,300.3c-0.9,4.5 -0.4,9.3 -2.6,13.6l-0.5,0c-0.2,-1.3 -0.6,-2.5 -1.7,-3.2c1.9,-4.4 0.9,-9.1 1.3,-13.7c0.1,-1.3 -1.1,-3.6 1.6,-3.7c3,-0.1 1.5,2.4 1.8,3.8c0.1,1.1 0,2.2 0.1,3.2z" fill="#054c3d"/>
   <path d="m267.5,312.4l-0.8,0l0,-72.6c0,-1.5 -0.6,-3.2 0.8,-4.6c0.2,0.2 0.4,0.4 0.5,0.6c0.8,1.5 0.6,3.1 0.6,4.7l0,66.5c0,1.6 0.2,3.2 -0.6,4.7c-0.1,0.3 -0.3,0.5 -0.5,0.7z" fill="#fafef8"/>
   <path d="m73.7,235.3c1.1,0.7 0.9,1.9 0.9,2.9l0,66c0,0.3 -0.2,0.6 -0.4,1.8c-0.2,-1.7 -0.4,-2.5 -0.5,-3.4l0,-67.3z" fill="#044335"/>
   <path d="m348.6,301.4l0,-66.1l0.7,0c0.1,0.8 0.2,1.5 0.2,2.3l0,61.8c0,1.2 0.3,2.4 -0.7,3.4c-0.1,-0.5 -0.2,-1 -0.2,-1.4z" fill="#004839"/>
   <path d="m460.3,312.4c-1.2,-1.2 -0.7,-2.8 -0.7,-4.2l0,-53.7c-0.5,-1.7 -0.7,-3.4 0.1,-5c0.2,0.9 0.6,1.8 0.6,2.7l0,60.2z" fill="#004f39"/>
   <path d="m295.8,247.4c-2.7,7.1 -4,14.5 -4.9,22l0,-34l0.7,0l0,15.2c3,0.4 2.1,-3.2 4.2,-3.2z" fill="#fafbfb"/>
   <path d="m286.5,229c0.9,7.6 0.2,15.2 0.4,22.8c0.1,5.2 -0.1,10.4 -0.2,15.6c-1.2,-1.2 -0.7,-2.8 -0.7,-4.2c-0.1,-10.2 -0.1,-20.4 -0.1,-30.6c0,-0.7 -0.4,-1.5 -0.7,-2.2c-5.5,-1 -11,-0.2 -16.5,-0.4c-1.4,-0.1 -2.9,0.2 -4.3,-0.1c-0.5,-0.5 -0.4,-0.8 0.2,-1c7.3,0.4 14.6,0.3 21.9,0.1z" fill="#024938"/>
   <path d="m177.6,255.9l0,51.6c-1.3,-2 -0.9,-3.3 -0.9,-4.6c-0.3,-15.7 0.6,-31.5 -0.5,-47.2c-0.1,-0.9 0.6,-1 1.3,-1.2c0,0.5 0,1 0.1,1.4z" fill="#04463b"/>
   <path d="m194.4,233.6c-1.7,8.4 -0.5,16.8 -0.3,25.2c1.8,-1.4 0.6,-3.5 1.9,-6.1l0,8c-1.5,0.3 -3.3,1.2 -3.3,-1.6l0.3,-27.9c0.2,0 0.5,0.1 0.7,0.1c0.6,0.7 0.7,1.5 0.7,2.3z" fill="#f7322c"/>
   <path d="m257,232l-15.9,0.3c-0.7,0 -0.8,-0.5 -1,-1c5.4,-1.5 10.9,-0.4 16.4,-0.6c0.7,0.1 0.7,0.8 0.5,1.3z" fill="#fc2822"/>
   <path d="m253.1,302c0,0.8 -0.1,1.6 -0.1,2.4l0,-0.1c-1.8,2.9 -2.9,6.4 -6.4,7.9c-0.2,-1.7 0.7,-3.3 0.1,-5c-0.3,-0.8 0,-1.9 1,-1.6c3.4,1.1 3.5,-2.5 5.4,-3.6z" fill="#faf9f8"/>
   <path d="m364.8,202.5l0,25.5l-0.9,0l0,-24.5c-2.3,0.3 -0.8,2.3 -2.2,2.8c-0.1,-1.2 -0.2,-2.4 -0.2,-3.6c1,-1 2.1,-0.7 3.3,-0.2z" fill="#064436"/>
   <path d="m426.6,229c0.2,0 0.4,0 0.6,-0.1l0,6.4c2.2,-2.1 3.4,-4.2 5.7,-5.2c0.5,1 0.8,2.2 1.9,2.8c-1.1,0.9 -2.1,1.8 -3.2,2.6c-5,-0.3 -5,-0.3 -5,-6.5z" fill="#054b3d"/>
   <path d="m293.2,293.4c1,1.3 1.4,2.9 1.6,4.6c-1.3,0.1 -2.1,-0.9 -3.2,-2.4c-0.1,5.9 0.7,11 -0.8,16.1c0,-5.2 0.2,-10.3 -0.1,-15.4c-0.1,-2.5 2.3,-1.5 2.5,-2.9z" fill="#fafbfb"/>
   <path d="m169.5,232c-1.1,0.1 -2,-0.2 -3,-0.8c-1.6,-1 -2.9,-3.5 -5.5,-0.9c-0.8,0.8 -1.6,-1.7 -2,-3c4.1,0.3 7.8,1.5 10.5,4.7z" fill="#054a3c"/>
   <path d="m264.6,228.9c-0.1,0.2 -0.1,0.5 -0.1,0.7c-0.5,3.1 2,2.7 3.8,3.2c0.2,0.2 0.4,0.2 0.6,0.2c0.9,0.5 0.9,1.2 0.6,2c-0.2,0.3 -0.5,0.6 -0.9,0.7c-0.4,0 -0.8,-0.1 -1.1,-0.4c-0.3,-0.4 -0.6,-1 -1,-1.1c-1.4,-0.5 -3.7,1.3 -4.2,-0.5c-0.4,-1.4 0.9,-3.5 2.3,-4.8z" fill="#fafef8"/>
   <path d="m444.3,228.8c-2.9,2.4 -5.9,0.7 -8.8,0.1c2.9,-1.1 5.9,-1.1 8.8,-0.1z" fill="#024135"/>
   <path d="m143.8,317.8c2.7,-0.6 5.3,-1.7 8,0.1c-2.7,1.2 -5.4,1.1 -8,-0.1z" fill="#024134"/>
   <path d="m381.7,191.9c3.1,2.4 1.6,4.8 0.1,7.2c-0.6,-2.4 -0.7,-4.8 -0.1,-7.2z" fill="#014637"/>
   <path d="m208,235.2c1.5,-0.7 3.1,-1.2 4.5,-0.4c0.9,0.5 0.5,1.9 -0.4,2.6c-0.3,-0.7 -0.1,-3 -1.3,-1.4c-2.5,3.3 -1.7,-1.2 -2.8,-0.8z" fill="#fbf9f8"/>
   <path d="m86.6,209.6c0.2,-0.6 0.2,-1.6 0.5,-1.7c0.8,-0.3 1.1,0.6 1.1,1.2c-0.1,2.6 0.7,5.2 -0.6,7.7c-0.1,-0.6 -0.1,-1.3 -0.2,-1.9c-0.8,-1.8 0.3,-3.7 -0.8,-5.3z" fill="#03443e"/>
   <path d="m408.2,314.1c1.1,0.4 2.1,0.3 3.2,0l0,0.9c-0.3,0.3 -0.7,0.6 -1.2,0.7c-2.1,0.4 -4.2,0.2 -6.3,0.2c-1.2,-0.4 -3.1,0.3 -2.8,-2.1c0.5,0.1 0.9,0.2 1.4,0.3l5.7,0z" fill="#1b5b4d"/>
   <path d="m296.6,303.5c1.6,0.1 1.6,1.4 2.1,2.5c-1.3,-0.1 -3,0.2 -3.7,-1.2c-0.4,-0.9 0.8,-1.2 1.6,-1.3z" fill="#fafbfb"/>
   <path d="m199,241.6c0.2,-1.5 1.2,-2.5 2.5,-3.2c-0.3,1.7 -0.6,3.3 -0.9,5.1c-0.6,-0.7 -1.1,-1.3 -1.6,-1.9z" fill="#fbf9f8"/>
   <path d="m429,248.1c-1.7,-2.9 0.1,-5.4 0.7,-8c-0.2,2.7 -0.4,5.3 -0.7,8z" fill="#054b3d"/>
   <path d="m169.4,316.6c2.1,-0.8 3.3,-0.3 3.8,1.6c-1.5,-0.1 -2.8,-0.5 -3.8,-1.6z" fill="#074538"/>
   <path d="m267.6,190.3c1.2,2.4 1.2,4.8 0,7.2c-0.7,-2.4 -0.6,-4.8 0,-7.2z" fill="#014231"/>
   <path d="m465.3,318c-0.9,-2.3 -2.8,-2.6 -4.9,-3.2l4.7,0c0.8,1 0.6,2.1 0.2,3.2z" fill="#003f30"/>
   <path d="m201.5,238.4c0.8,-1.2 1.8,-2.1 3.3,-2.3c0.8,3.5 -1.9,2 -3.3,2.3z" fill="#fbf9f8"/>
   <path d="m459.7,249.5c0,1.7 -0.1,3.3 -0.1,5c-1.2,-2.1 -1.2,-4.3 0,-6.4c0,0.5 0.1,0.9 0.1,1.4z" fill="#004336"/>
   <path d="m290.9,277.5c0.8,2.2 0.6,4.5 0.6,6.8c-1.4,-2.2 -0.5,-4.5 -0.6,-6.8z" fill="#fafbfb"/>
   <path d="m88.9,316.5c1.6,0.7 3.2,0.8 4.9,0.7c-1.9,1.4 -3.6,1.7 -4.9,-0.7z" fill="#084f3e"/>
   <path d="m319.9,229.6l-6,0c2,-1 4,-1 6,0z" fill="#094d3f"/>
   <path d="m86.5,209.6c1.7,1.5 0.6,3.5 0.8,5.2c-0.9,-1.6 -0.7,-3.5 -0.8,-5.2z" fill="#024a3d"/>
   <path d="m393.7,179.1c-1.3,1.4 -2.6,1.4 -4,0.1c1.3,-0.6 2.6,-0.6 4,-0.1z" fill="#034233"/>
   <path d="m36.9,225.6c1.2,1.2 0.8,2.5 0.5,3.9c-1,-0.7 -0.4,-1.8 -0.7,-2.6c0.1,-0.4 0.1,-0.8 0.2,-1.3z" fill="#004333"/>
   <path d="m178.6,318.2c-0.6,-0.1 -1.2,-0.2 -1.8,-0.2l0,-0.6l4.1,0c-0.6,0.7 -1.4,0.8 -2.3,0.8z" fill="#074538"/>
   <path d="m294.8,297.9c0.7,0.7 1,1.5 0.8,2.4c-0.5,0 -1.2,0.3 -1.4,0.1c-0.5,-0.9 0.4,-1.6 0.6,-2.5z" fill="#fafbfb"/>
   <path d="m196.8,249.7c-1.1,-0.9 -0.9,-2 -0.5,-3.8c0.3,1.2 0.4,1.8 0.6,2.4c-0.1,0.5 -0.1,1 -0.1,1.4z" fill="#fd2627"/>
   <path d="m437.9,232.9c0.3,-0.6 0.9,-1 1.5,-0.7c0.8,0.4 0.1,1.1 0,1.6l-1.5,-0.9z" fill="#054b3d"/>
   <path d="m36,231.2c1.1,0.9 0.9,2 0.5,3.2c-0.9,-0.5 -0.4,-1.3 -0.7,-1.9c0.1,-0.4 0.2,-0.8 0.2,-1.3z" fill="#023f32"/>
   <path d="m138.1,316.4l0,-1.5c1.1,0 1.7,0.8 2.3,1.5c-0.8,0.6 -1.5,0.5 -2.3,0z" fill="#f0f7f6"/>
   <path d="m291.7,285.6c0.8,1.3 0.8,2.9 0.7,4.3c-1.4,-1.2 -0.6,-2.8 -0.7,-4.3z" fill="#fafbfb"/>
   <path d="m141.3,230.4c-0.2,0 -0.5,0.1 -0.7,0.1c-1.2,0.7 -1.9,0.1 -2.4,-0.9l0,-0.7c1.1,0.1 2.2,0.7 3.1,1.5z" fill="#0c4f40"/>
   <ellipse xmlns="http://www.w3.org/2000/svg" ry="0.3" rx="3.9" fill="#034034" cy="233.2" cx="70.2"/>
   <path d="m310,273.7l0,-29.3c0,-1.7 0,-3.5 0.4,-5.2c0.8,-3.2 2.2,-6.2 6.1,-6c3.9,0.2 5.6,3.1 6.4,6.6c0.3,1.5 0.3,3.2 0.3,4.8l0,58.2c0,3.1 0,6.2 -2,8.8c-2.6,3.4 -6.4,3.5 -9.1,0.2c-2,-2.5 -2.2,-5.4 -2.2,-8.4c0.1,-9.9 0.1,-19.8 0.1,-29.7z" fill="#fcfdfd"/>
   <path d="m324.5,241.2l0,65.4l-0.4,0l0,-65.5c0.1,-0.1 0.2,0 0.4,0.1z" fill="#004232"/>
   <path d="m308.7,305l0,-62.5l0.4,0l0,62.4c-0.2,0.1 -0.3,0.1 -0.4,0.1z" fill="#043f34"/>
   <path d="m160.5,300.9c-1.1,2.9 -0.7,6.3 -3.2,8.8c-1.4,1.4 -2.8,2.6 -4.8,1.9c-2.1,-0.7 -2.8,-2.5 -3,-4.4c-0.3,-2.6 -0.2,-5.3 -0.2,-8c0,-6.8 -0.1,-13.6 0.1,-20.4c0.2,-6.7 1.5,-8.1 7.6,-9.8l0.3,0c1.1,0.5 2.7,0.1 3.4,1.5c1,7.2 0.3,14.5 0.4,21.7c-0.1,3 0.4,5.9 -0.6,8.7z" fill="#fafbfb"/>
   <path d="m160.5,300.9l0,-30.3c0.3,0.6 0.8,1.1 0.8,1.7l0,31.4c-1.1,-0.9 -0.5,-1.9 -0.8,-2.8z" fill="#004131"/>
   <path d="m160.4,264.9c0.1,-7.9 0.1,-15.8 0.2,-23.7c-0.4,-1.5 -0.6,-2.9 0.1,-4.3c1.2,1 0.8,2.5 0.8,3.8c0.1,7.6 0.1,15.2 0.2,22.9c-0.1,1 -0.4,1.3 -1.3,1.3z" fill="#054635"/>
   <path d="m157.1,269.1l-0.3,0c-0.7,-0.1 -1.3,-0.2 -2.1,-0.3c1,-1.7 2.4,-1 3.3,-0.3c0.5,0.3 -0.5,0.4 -0.9,0.6z" fill="#004233"/>
   <path d="m160.6,236.9c0,1.4 -0.1,2.9 -0.1,4.3c-0.3,-1.9 -0.6,-3.9 -1,-5.8c0.9,0.1 1.1,0.8 1.1,1.5z" fill="#054a3c"/>
   <path d="m137.2,314c0.1,-1.2 -3.8,0.5 -1.6,-2.3c1.1,0.4 1.7,1.2 1.6,2.3z" fill="#f0f7f6"/>
   <path d="m382.3,314c-3.3,-2.8 -4.1,-6.5 -4,-10.6c0,-0.5 0.1,-1 0.1,-1.5c0.9,-4.3 -0.1,-8.6 0.7,-12.9c0.2,-1.3 -1.5,-1 -2.5,-1.1c-1.2,-0.1 -2.1,0 -2,1.6c0.1,1.9 0.3,3.7 -0.2,5.6c0.1,3.7 0.1,7.4 -0.8,11.1c-0.3,1 -0.6,2.1 -1.1,3c-0.8,1.4 -2,2.6 -3.8,2.6c-2.4,0 -2.1,-2.3 -3.1,-3.6c-0.9,-0.6 -0.6,-1.4 -0.2,-2.1c-0.1,-23.1 -0.1,-46.2 -0.3,-69.3c0,-3.2 0.8,-4.2 4,-3.9c2.8,0.3 5.6,0 8.4,0c0.4,-0.3 0.8,-0.5 1.3,-0.7c1.3,-0.3 2.5,-0.3 3.8,0.2c1.9,1 1.8,2.9 1.8,4.6c0,24.1 0.1,48.2 0,72.3c-0.1,1.7 -0.1,3.6 -2.1,4.7z" fill="#fdfdfd"/>
   <path d="m364,303.4l0,-70l0.4,0l0,70l-0.4,0z" fill="#024133"/>
   <path d="m374.5,295.1c0,-1.3 0,-2.6 -0.1,-4c-0.2,-4.1 0.2,-4.5 4.1,-3.5c1.1,0.3 2.2,0.1 1.3,2.5c-0.9,2.5 -1.2,5.9 -0.3,8.9c0.4,1.4 0.3,2.3 -1,3c0,-3.8 0.1,-7.6 0.1,-11.5c0,-1.3 -0.1,-2.3 -1.9,-2.3c-1.7,0 -1.9,0.9 -1.9,2.2c0,1.6 0.4,3.2 -0.3,4.7z" fill="#f8fbfa"/>
   <path d="m365.5,306c0.1,0.7 0.2,1.4 0.2,2.1c-0.2,0.4 0.1,1.1 -0.7,1.1c0.2,-1.1 -1.6,-2.4 0.5,-3.2z" fill="#024133"/>
   <path d="m378.5,232.8l-1,0l0,-4l0.9,0c1.1,1.4 1.1,2.7 0.1,4z" fill="#c2e4df"/>
   <path d="m194.4,233.6c-0.9,-0.6 -0.8,-1.4 -0.7,-2.3l36.8,0l0,0.7l-25,0c-2.4,0 -4.8,0.1 -7.2,0c-1.7,-0.1 -2.9,0.5 -3.9,1.6z" fill="#fd2922"/>
   <path d="m208.9,317.4c-0.1,2 -1.7,1.3 -2.7,1.3c-4.1,0.1 -8.2,-0.1 -12.3,0.1c-2.9,0.1 -3.2,-0.9 -1.9,-3.2c1,1.4 2.5,1.8 4.2,1.6c4.1,-0.4 8.3,0.9 12.3,-0.8c0,0.1 0.3,0.7 0.4,1z" fill="#fa2c2d"/>
   <path d="m243.4,315.6c-0.7,0.9 -1.7,0.9 -2.8,1c0.5,-1.7 1.9,-0.7 2.8,-1z" fill="#fb3430"/>
   <path d="m138.1,229.6l2.4,0.9c0.8,0.8 1.6,1.2 2.8,0.9c2,-0.4 2.3,-0.1 1.1,1.7c-0.6,1 -0.3,1.1 0.2,1.3c7.3,3.5 6.3,9.9 5.8,16.2c-0.1,1.1 -0.2,2.1 -0.3,3.2c-1.4,3 -3.7,4.5 -7,4.1c-3.1,-0.3 -4.9,-2.6 -6.1,-5.2c-2.4,-5.2 -2.1,-10.4 0.4,-15.4c0.9,-1.8 1.2,-3 -0.2,-4.5c0.8,-0.7 1,-1.4 0.2,-2.2c-0.8,-0.9 0.1,-0.8 0.7,-1z" fill="#014a3e"/>
   <path d="m107.7,312.1l0,-77.4l0.4,0l0,77.6c-0.2,0 -0.3,-0.1 -0.4,-0.2z" fill="#004235"/>
   <path d="m124.3,240.3l0,71l-0.4,0l0,-71.2c0.1,0.1 0.3,0.2 0.4,0.2z" fill="#014335"/>
   <path d="m117.8,231l-14.2,0l0,-0.4l14.2,0l0,0.4z" fill="#01423c"/>
   <path d="m134.9,231l-4.8,0c1.6,-1 3.2,-0.9 4.8,0z" fill="#0c4f40"/>
   <path d="m120.7,234.5c-0.3,-1.7 -0.4,-2.7 -0.6,-4.1c1.5,1.2 1.1,2.3 0.6,4.1z" fill="#024131"/>
   <path d="m382.3,314c1,-1.5 1.2,-3.1 1.2,-4.9c0,-24.3 0,-48.6 -0.1,-72.9c0,-1.4 0.9,-3.4 -1.8,-3.6c-0.5,-0.3 -1,-0.4 -1.4,-0.8c-1,-1.2 -0.9,-2.3 0.6,-3.1l19.3,0c0.7,1.4 0.4,2.9 0.4,4.3c0,25.5 0,51 0.1,76.6c0,1.4 -0.7,2.9 0.6,4.2l0,-0.1c0.5,1.6 2,0.8 3,1.2c0.5,0.3 0.4,1.8 1.5,0.6c0.6,-0.6 1.9,-0.8 2.2,-0.1c1.7,3.4 1.8,-0.7 2.7,-0.5c0.3,0 0.6,-0.1 0.9,-0.1c0.8,0.9 0.5,2.4 1.6,3.1c3.8,-0.8 7.6,-0.1 11.4,-0.4c1.4,-0.1 3,0.5 3.9,-1.2l0.8,0c3.1,-2 3.7,-1.8 4.9,1.6c-0.6,1.3 -1.9,0.7 -2.8,0.7c-16.5,0 -33,0 -49.5,0.1c-3.6,0 -4.1,-1.3 -2.4,-4.1c5.3,1.1 5.3,1.1 5.3,-4.3l0,-70.7c0,-1.4 -0.1,-2.7 0,-4.1c0,25.5 0,51.1 -0.1,76.6c0,1.2 1,3.9 -2.2,2.5c-0.1,-0.1 0,-0.3 -0.1,-0.6z" fill="#004a3e"/>
   <path d="m413,233.1l0,80.5l-0.4,0l0,-80.6c0.1,0 0.2,0.1 0.4,0.1z" fill="#004238"/>
   <path d="m428.3,316.4c-0.3,1.9 -1.8,1.6 -3,1.6l-12.2,0c2.5,-1.6 5.2,-0.5 7.8,-0.8c2.4,-0.2 5,0.6 7.4,-0.8z" fill="#00423c"/>
   <path d="m434,318.1c-1.1,-2.3 -2.6,-3.2 -4.9,-1.6c0.8,-2.8 3.1,-1.1 4.6,-1.6c0.9,0.9 0.6,2 0.3,3.2z" fill="#013f2f"/>
   <path d="m268.3,235.3l0.7,0c1.5,1.2 1.2,2.9 1.2,4.4l0,69.3c0,1.7 -0.1,3.5 -1.1,5c-0.2,0.1 -0.4,0.3 -0.4,0.6c-1,1.2 -1.5,0.3 -2.1,-0.5c0.3,-0.6 0.5,-1.2 0.8,-1.7c0.8,-1.4 0.4,-2.9 0.4,-4.3l0,-68.5c0.1,-1.5 -0.2,-3 0.5,-4.3z" fill="#f1fef6"/>
   <path d="m270.7,312.4c0,0.7 -0.2,1.3 -0.8,1.6c-0.7,-1 -0.4,-2.1 -0.4,-3.1l0,-74.9c0,-1 -0.2,-2.1 0.4,-3.1c1.6,0.3 0.4,1.6 0.8,2.4c0.6,0.8 0.4,1.8 0.4,2.7l0,71.7c0,0.9 0.2,1.9 -0.4,2.7z" fill="#014238"/>
   <path d="m269.9,232.9l0,81.2l-0.8,0c0,-24.7 0,-49.3 -0.1,-74c0,-1.6 -0.1,-3.2 -0.1,-4.8c0,-0.8 0,-1.5 -0.1,-2.3c0.4,-0.1 0.8,-0.1 1.1,-0.1z" fill="#056a5a"/>
   <path d="m270.7,312.4l0,-77.2c1.2,1 0.8,2.5 0.8,3.8l0,69.7c0,1.2 0.4,2.7 -0.8,3.7z" fill="#004b45"/>
   <path d="m286.7,274.6l0,38.6c-0.8,-0.7 -0.7,-1.6 -0.7,-2.6l0,-33.4c0,-0.9 -0.1,-1.9 0.7,-2.6z" fill="#024938"/>
   <path d="m268.3,232.8c-2.3,0.2 -5.3,1.1 -3.8,-3.2c6.9,0 13.7,0.1 20.6,0.2c0.1,0 0.2,0.2 0.2,0.3c0,0.1 -0.1,0.3 -0.1,0.4l-19.8,0c0.5,2.1 2.4,1.1 2.9,2.3z" fill="#013f2f"/>
   <path d="m288.3,317.9l-15.8,0l0,-0.6l15.8,0c-0.1,0.2 0,0.4 0,0.6z" fill="#00423b"/>
   <path d="m266.7,314.1c0.7,0.2 1.4,0.3 2.1,0.5c1.1,0.7 0.6,1.5 -0.3,1.3c-2.1,-0.5 -3.1,0.7 -4.1,2.1c-0.6,-2.1 -0.5,-3.8 2.3,-3.9z" fill="#054636"/>
   <path d="m286.7,269.8l0,4c-1.1,-1.3 -1.1,-2.6 0,-4z" fill="#024938"/>
   <path d="m444.3,248.1l0,-5.5l0.8,0l0,5.5c0.6,0.8 0.4,1.8 0.4,2.7l0,58.9c0,0.9 0.2,1.9 -0.4,2.7l-0.8,0.8c-0.6,-0.8 -0.4,-1.8 -0.4,-2.7l0,-59.7c0,-0.9 -0.1,-1.8 0.4,-2.7z" fill="#054b40"/>
   <path d="m444.3,248.1l0,65.1c-1.2,-1 -0.8,-2.5 -0.8,-3.7l0,-57.6c0,-1.3 -0.4,-2.7 0.8,-3.8z" fill="#01453e"/>
   <path d="m445.1,312.4l0,-64.3c1.2,1 0.8,2.5 0.8,3.7l0,56.8c0,1.3 0.5,2.8 -0.8,3.8z" fill="#004b39"/>
   <path d="m443.7,317.5c4.8,0.5 9.5,-0.8 14.5,0l-14.5,0z" fill="#00433b"/>
   <path d="m192.1,313.4c-0.3,-0.3 -0.5,-0.7 -0.9,-0.8c-2.7,-0.8 -2.7,-0.8 -2.2,-4.1c1.9,1 3.5,2.3 3.1,4.9zm69.4,0.4c0.4,2.1 0.9,3.3 -0.6,4c-0.2,0.1 -0.7,0 -0.7,-0.2c-0.4,-1.1 0.2,-2.1 1.3,-3.8z" fill="#fefefe"/>
   <path d="m89.8,215.9l0,-34l0.4,0l0,33.9c-0.1,-0.1 -0.2,0 -0.4,0.1z" fill="#03443e"/>
   <path d="m257.2,317l0,-22.8l0.4,0l0,23c-0.2,-0.1 -0.3,-0.2 -0.4,-0.2z" fill="#fe2b26"/>
   <path d="m253,304.3c0.5,-0.6 0.9,-1.1 1.4,-1.7c-0.2,2.5 -0.2,2.5 -1.4,1.7z" fill="#fe2a1e"/>
   <path d="m401.1,314c-1.8,-1.1 -1,-2.9 -1,-4.4l0,-80.7c1.5,0.1 1.1,1.2 1.1,2.1c0,27.6 0,55.3 -0.1,83z" fill="#004234"/>
   <path d="m380.8,232c0.3,0.2 0.5,0.5 0.8,0.7c-1,0 -2.1,0.1 -3.1,0.1l0,-4c0.3,-0.1 0.5,-0.1 0.8,0c0.7,1 0,2.7 1.5,3.2z" fill="#036a4e"/>
   <path d="m380.8,232c-2.2,-0.2 -1.4,-1.9 -1.6,-3.1l1.6,0c-0.8,1 -0.7,2.1 0,3.1z" fill="#034136"/>
   <path d="m382.2,314.7c3,-0.2 1.8,-2.5 1.8,-4c0.1,-24.3 0,-48.7 0.1,-73c0,-1.4 -0.4,-2.9 0.8,-5l0,78.8c0,4.9 -0.9,5.4 -5.7,3.2c1,-0.5 2,-0.4 3,0z" fill="#014034"/>
   <path d="m268.3,235.3l0,72.6c0,1.5 0.6,3.2 -0.8,4.6l0,-77.2l0.8,0z" fill="#fefefe"/>
   <path d="m410.5,315c-2.4,0.7 2.1,2.5 -0.4,2.9c-0.9,0.1 -3.5,1.5 -2.8,-1.8c0.1,-0.5 -1.1,-0.3 -1.4,0.3c-0.5,1.4 -1.5,2.2 -2.7,1.3c-1.2,-1 1.1,-1.5 0.8,-2.6c2.3,-0.1 4.4,-0.1 6.5,-0.1z" fill="#004a3e"/>
  </svg>