<svg  id="fndm-7j3t87rqyx" viewBox="2.0010623931884766 -0.0004339220467954874 92.00243377685547 32.001651763916016" xmlns="http://www.w3.org/2000/svg">
   <path d="m63.696,0.612a2.18,2.18 0 0 0 -1.542,0.64c-0.4,0.4 -0.64,0.965 -0.64,1.545l0,26.373c0,0.58 0.23,1.135 0.64,1.545a2.18,2.18 0 0 0 3.085,0c0.4,-0.4 0.64,-0.965 0.64,-1.545l0,-26.374c0,-0.58 -0.23,-1.135 -0.64,-1.545a2.18,2.18 0 0 0 -1.543,-0.64l0,0.001zm-33.242,9.296c0,-1.206 -0.977,-2.184 -2.18,-2.184s-2.18,0.978 -2.18,2.184l0,19.26c0,1.206 0.977,2.184 2.18,2.184s2.18,-0.978 2.18,-2.184l0,-19.26z" fill="#5a646e"/>
   <path d="m31.07,2.8a2.8,2.8 0 0 1 -0.838,1.944a2.796,2.796 0 0 1 -3.916,0a2.8,2.8 0 0 1 -0.838,-1.944a2.8,2.8 0 0 1 0.819,-1.98a2.791,2.791 0 0 1 3.953,0a2.8,2.8 0 0 1 0.819,1.98l0.001,0z" fill="#00aeef"/>
   <path d="m57.572,14.694c-2.096,-4.746 -7.055,-8.1 -12.713,-7.52a12.42,12.42 0 0 0 -5.361,1.872a12.44,12.44 0 0 0 -3.97,4.064a12.46,12.46 0 0 0 -1.751,5.408c-0.16,1.914 0.126,3.84 0.833,5.624a12.45,12.45 0 0 0 3.243,4.666a12.44,12.44 0 0 0 4.977,2.736a12.413,12.413 0 0 0 10.858,-2.08a2.17,2.17 0 0 0 0.613,-0.737c0.147,-0.288 0.228,-0.606 0.236,-0.93a2.17,2.17 0 0 0 -2.103,-2.231a2.16,2.16 0 0 0 -1.372,0.436a8,8 0 0 1 -5.294,1.658a8.083,8.083 0 0 1 -4.3,-1.505a8.17,8.17 0 0 1 -2.829,-3.587a0.85,0.85 0 0 1 0.383,-1.07a0.84,0.84 0 0 1 0.398,-0.1l15.145,0a3.677,3.677 0 0 0 3.412,-2.269a3.69,3.69 0 0 0 0.283,-1.412a8.184,8.184 0 0 0 -0.674,-3.02l-0.014,-0.003zm-11.425,-3.252a8.1,8.1 0 0 1 4.547,1.398a8.11,8.11 0 0 1 2.98,3.713a0.86,0.86 0 0 1 0.055,0.405a0.85,0.85 0 0 1 -0.444,0.657a0.843,0.843 0 0 1 -0.396,0.1l-13.485,0a0.83,0.83 0 0 1 -0.396,-0.1c-0.122,-0.066 -0.226,-0.16 -0.304,-0.273s-0.126,-0.246 -0.14,-0.384a0.86,0.86 0 0 1 0.055,-0.405a8.11,8.11 0 0 1 2.98,-3.713a8.182,8.182 0 0 1 4.547,-1.398l0.001,0zm35.423,16.226a8.09,8.09 0 0 1 -4.383,-1.289a8.205,8.205 0 0 1 -3,-3.46a8.12,8.12 0 0 1 1.26,-8.687l-3.3,-2.817a12.41,12.41 0 0 0 -2.39,4.237a12.46,12.46 0 0 0 -0.585,4.831c0.124,1.633 0.57,3.226 1.3,4.687a12.44,12.44 0 0 0 3.005,3.825a12.438,12.438 0 0 0 4.24,2.38a12.4,12.4 0 0 0 4.827,0.57a12.39,12.39 0 0 0 4.676,-1.33a12.43,12.43 0 0 0 3.809,-3.023l-3.3,-2.816a8.08,8.08 0 0 1 -2.78,2.134a8.07,8.07 0 0 1 -3.42,0.757l0.041,0.001z" fill="#5a646e"/>
   <path d="m81.57,7.1a12.372,12.372 0 0 0 -5.17,1.125a12.4,12.4 0 0 0 -4.232,3.182l3.29,2.817a8.098,8.098 0 0 1 11.382,-0.845a8.125,8.125 0 0 1 2.81,5.503a8.12,8.12 0 0 1 -1.878,5.887l3.29,2.816a12.466,12.466 0 0 0 2.83,-6.376a12.46,12.46 0 0 0 -1.042,-6.899a12.44,12.44 0 0 0 -4.587,-5.253a12.518,12.518 0 0 0 -6.693,-1.957z" fill="#00aeef"/>
   <path d="m22.074,26.1a2.18,2.18 0 0 0 -2.733,-0.099a8.093,8.093 0 0 1 -8.505,0.828a8.13,8.13 0 0 1 -3.293,-2.987a8.12,8.12 0 0 1 -0.014,-8.557a8.11,8.11 0 0 1 3.283,-2.997a8.086,8.086 0 0 1 8.508,0.801a2.17,2.17 0 0 0 2.731,-0.066c0.245,-0.21 0.44,-0.47 0.57,-0.763s0.196,-0.613 0.19,-0.935s-0.086,-0.638 -0.23,-0.925s-0.352,-0.54 -0.605,-0.736a12.42,12.42 0 0 0 -6.352,-2.5a12.41,12.41 0 0 0 -11.762,5.836a12.468,12.468 0 0 0 0.023,13.143a12.426,12.426 0 0 0 11.781,5.793a12.42,12.42 0 0 0 6.343,-2.521a2.14,2.14 0 0 0 0.819,-1.642a2.14,2.14 0 0 0 -0.753,-1.673l-0.001,0z" fill="#5a646e"/>
  </svg>