<svg xmlns="http://www.w3.org/2000/svg" fill-rule="evenodd" clip-rule="evenodd" image-rendering="optimizeQuality" shape-rendering="geometricPrecision" text-rendering="geometricPrecision" viewBox="-2 1 6600 3300"><g><rect width="6600" height="3300" x="-2" y="1" fill="none"/><g fill="#ef4d36"><path d="M1689.93 1590.72c2.86,30.35 3.33,60.86 1.27,91.38 -1.91,30.36 -6.36,60.55 -13.51,90.1 -7.16,29.57 -16.84,58.34 -28.93,86.15 -1.9,4.28 -3.96,8.58 -5.88,12.87 4.45,-41 -3.5,-82.33 -17.16,-120.15 -16.37,-46.25 -42.12,-88.05 -70.56,-126.98 -14.46,-19.39 -29.88,-37.98 -46.09,-55.94 -16.37,-17.8 -33.22,-35.13 -50.85,-51.34 -71.05,-65.48 -151.3,-119.82 -236.96,-163.37 -42.92,-21.77 -87.4,-40.52 -132.86,-55.94 -45.45,-15.73 -92.18,-27.49 -139.7,-35.28 -6.03,-0.8 -12.07,-1.74 -18.11,-2.54 17.16,-14.62 34.65,-28.61 53.08,-41.48 22.73,-15.74 46.24,-30.04 70.72,-42.91 24.47,-12.56 49.9,-23.37 75.97,-32.43 52.12,-17.47 107.59,-26.69 162.58,-21.93 54.82,4.46 108.7,23.53 153.04,56.58 22.4,16.53 42.27,35.93 59.12,57.86 16.84,22.24 30.83,46.24 42.11,71.67 -20.18,-51.81 -54.03,-98.86 -98.68,-133.02 -44.35,-34.33 -99.02,-54.83 -154.96,-60.23 -56.1,-5.73 -112.83,2.7 -166.23,19.7 -26.71,8.59 -52.76,19.23 -78.03,31.63 -25.11,12.71 -49.59,26.86 -72.96,42.59 -22.56,15.26 -44.34,31.94 -65.15,49.74 -35.29,-3.81 -71.04,-4.29 -106.48,-1.27 -47.67,4.46 -96.15,16.53 -136.84,43.23 -4.44,2.86 -8.73,6.03 -12.87,9.37 61.03,-82.16 143.67,-148.11 238.55,-187.05 55.62,-23.04 114.74,-36.23 174.5,-44.18 30.03,-3.5 60.38,-4.93 90.74,-4.28 30.36,0.78 60.87,3.96 90.27,12.07l0 0c-29.4,-8.43 -59.43,-14.15 -89.94,-17.01 -30.52,-3.34 -61.36,-4.44 -92.19,-3.34 -61.82,1.91 -122.69,17.81 -179.9,41.01 -114.9,46.88 -212.8,132.23 -277.16,238.07 -16.05,26.37 -30.2,54.02 -42.12,82.63 -11.6,28.77 -20.97,58.34 -28.13,88.37 -7.14,30.19 -11.75,60.86 -13.98,91.85 -2.23,30.84 -2.07,61.99 0.79,92.82 5.41,61.82 20.35,122.53 44.34,179.74 24.32,56.9 57.22,110.46 98.38,156.86 81.69,93.13 193.09,160.03 314.19,186.9 121.9,27.17 249.19,15.09 363.77,-34.49 113.48,-49.27 211.06,-135.41 272.41,-242.68 30.51,-53.87 50.21,-113.15 62.29,-172.91 5.88,-30.03 9.38,-60.54 10.8,-91.06 1.28,-30.52 0.32,-61.03 -2.69,-91.38zm-743.29 -315.94c46.57,8.58 92.33,20.97 136.67,37.18 44.66,16.06 87.89,35.13 129.84,57.22 83.91,43.7 162.42,97.73 231.4,162.1 17.47,16.05 33.85,32.9 49.9,50.22 15.73,17.48 30.83,35.44 44.98,54.19 27.97,37.83 52.28,78.35 68.65,121.9 16.21,43.22 24.48,90.58 14.14,135.09 -5.24,22.08 -15.25,42.74 -29.24,60.7 -13.98,17.96 -32.25,32.42 -52.28,43.7 -9.86,5.56 -20.02,10.33 -30.52,14.31 10.02,-42.12 11.6,-85.66 8.58,-128.25 -2.54,-32.9 -7.78,-65.8 -15.41,-97.9 6.04,-12.87 11.91,-25.9 17.33,-39.09 -5.57,12.39 -11.61,24.79 -17.97,37.02 -2.22,-9.21 -4.44,-18.27 -6.99,-27.17 -11.6,-41.48 -27.02,-81.85 -46.25,-120.31 -19.22,-38.61 -43.86,-73.9 -69.12,-108.23 25.42,34.33 45.29,72.48 62.29,111.25 16.69,39.1 30.52,79.31 41.48,120.31 3.49,13.66 6.51,27.49 9.21,41.31 -43.54,79.79 -99.32,152.89 -166.06,213.92 -5.57,5.24 -11.14,10.17 -16.86,15.1 -15.09,-1.6 -30.18,-3.82 -45.13,-6.52 -46.73,-8.26 -92.49,-21.14 -137.62,-36.39 -44.98,-15.41 -89.01,-34.01 -131.28,-55.94 20.98,11.28 42.11,22.4 63.89,32.25 21.45,10.34 43.38,19.87 65.63,28.61 22.41,8.58 44.98,16.53 68.02,23.37 22.89,6.67 46.26,12.55 69.77,17 12.24,2.38 24.31,4.46 36.55,6.36 -33.21,27.65 -68.97,52.28 -106.79,73.27 -5.09,2.86 -10.33,5.56 -15.57,8.1 -1.12,-0.32 -2.4,-0.8 -3.5,-1.28 -9.86,-3.81 -19.55,-8.26 -29.08,-12.71 -19.55,-8.74 -38.15,-19.54 -55.47,-31.94 16.84,13.04 33.53,26.53 50.7,39.73 6.83,4.92 13.82,9.53 20.82,14.3 -39.11,18.28 -79.95,32.58 -122.06,40.36 -53.71,10.02 -109.66,9.7 -161.78,-5.24 -17.64,-5.08 -34.81,-11.91 -51.18,-20.34 -18.91,-11.12 -37.35,-23.36 -54.98,-36.56 -10.5,-8.89 -20.19,-18.43 -29.25,-28.59 -35.91,-40.69 -59.91,-91.07 -72.62,-143.83 -12.71,-52.92 -15.57,-108.39 -10.81,-162.9 9.06,-109.34 47.52,-215.5 103.78,-309.91 41.95,-70.56 94.24,-135.55 155.58,-190.23 9.54,1.28 19.08,2.71 28.61,4.46zm376.97 881.86c-40.85,0.64 -81.37,-11.11 -119.68,-27.17 -3.81,-1.59 -7.78,-3.02 -11.59,-4.45 2.22,-1.27 4.44,-2.55 6.83,-3.82 40.37,-23.2 78.51,-50.69 113.47,-81.52 31.31,3.97 62.93,5.56 94.56,4.45 26.38,-0.96 52.6,-4.61 78.19,-10.97 -11.13,31 -27.81,59.6 -51.34,81.38 -29.55,27.65 -69.76,41.62 -110.28,42.1l-0.16 0zm82.95 -124.27c-27.97,1.58 -56.1,0.96 -84.07,-1.75 3.66,-3.34 7.32,-6.67 10.81,-10.01 40.21,-38.78 76.44,-81.69 107.75,-127.93 19.71,-28.45 37.35,-58.18 52.92,-89.01 5.24,26.55 8.58,53.24 10.02,80.27 2.22,41.95 -0.32,84.38 -10.98,124.59 -0.78,3.18 -1.9,6.36 -2.69,9.54 -27.34,7.94 -55.47,12.7 -83.92,14.14l0.16 0.16zm-818.77 -160.2c-23.37,-55.46 -37.83,-114.1 -43.07,-174.02 -8.59,-95.99 7.31,-192.46 46.41,-280.34 -3.34,23.68 -2.7,47.68 1.9,71.19 4.61,23.37 11.76,46.25 21.13,68.18 -17.15,-44.17 -27.49,-92.33 -19.54,-139.37 0.79,-4.77 1.75,-9.54 3.02,-14.3 8.27,-17.33 17.32,-34.01 27.34,-50.38 4.76,-7.95 10.01,-15.74 15.25,-23.53 9.38,-9.54 19.87,-17.8 31.15,-24.63 39.89,-25.11 87.25,-35.75 134.14,-39.25 31.31,-2.07 62.61,-1.28 93.6,2.22 -59.28,53.08 -110.14,115.7 -151.61,183.56 -58.17,96.14 -97.74,204.69 -107.6,317.37 -4.76,56.26 -1.58,113.47 12.24,168.61 7.95,32.27 20.19,63.42 36.24,92.51 -1.75,-2.08 -3.65,-3.98 -5.41,-5.89 -39.41,-45.29 -71.68,-96.62 -95.19,-151.93zm399.38 333.9c-21.78,-4.92 -43.23,-11.12 -64.37,-18.6 39.73,4.3 80.1,2.38 119.19,-5.87 45.77,-9.06 89.31,-25.59 130.8,-46.41 7.31,4.76 14.93,9.22 22.89,13.19 39.88,17.64 83.43,29.4 128.41,28.77 2.54,0 5.24,-0.32 7.94,-0.48 -108.38,44.82 -230.6,55.46 -344.86,29.4zm504.9 -129.04c-3.98,3.49 -7.95,6.82 -11.92,10.16 11.12,-18.75 19.86,-38.93 25.9,-59.91 14.47,-4.61 28.45,-10.49 41.8,-17.64 5.56,-3.02 11.12,-6.36 16.53,-9.86 -3.34,4.14 -6.51,8.27 -9.7,12.4 -19.22,23.21 -40.05,44.82 -62.61,64.69l0 0.16z"/><path d="M2238.69 1648.56c0,-175.29 136.2,-317.05 310.7,-317.05 129.2,0 235.53,79.78 282.4,194.84l-48.78 13.35c-38.94,-93.92 -124.76,-160.35 -233.62,-160.35 -149.55,-0.79 -260.16,118.71 -260.16,269.21 0,146.05 108.86,267.47 260.16,267.47 109.65,0 194.68,-64.68 233.62,-159.4l48.78 13.35c-45.13,113.32 -150.5,194.69 -282.4,194.69 -176.25,0 -310.7,-142.57 -310.7,-316.11z"/><polygon points="2916.19,1963.07 2965.77,1963.07 2965.77,1343.27 2916.19,1343.27"/><path d="M3051.12 1727.71c0,-133.65 106.31,-241.73 239.97,-241.73 124.75,0 221.38,96.63 234.56,215.19 2.55,14.46 2.86,29.08 0.96,43.38l-426.71 0c6.2,105.52 90.27,180.7 191.03,180.7 70.88,0 134.6,-37.19 169.09,-93.92l47.04 8.11c-38.93,77.87 -123.96,130.95 -216.13,130.95 -135.41,0 -239.81,-108.87 -239.81,-242.68zm426.71 -23.05c-8.91,-96.46 -85.99,-174.34 -187.69,-174.34 -102.67,0 -181.5,77.88 -190.4,174.34l378.09 0z"/><path d="M3585.09 1836.73c-2.7,-76.12 48.48,-150.5 211.85,-151.46l158.92 -0.78 0 -40.85c0,-77.87 -74.22,-115.06 -157.97,-115.06 -65.31,0 -136.83,22.09 -149.22,92.01l-47.53 0.96c8.74,-91.23 96.15,-135.57 195.8,-135.57 113.95,0 205.8,57.54 205.8,151.47l0 325.78 -46.88 0 0 -122.05c-13.98,30.04 -69.6,129.21 -201.19,129.21 -90.91,0 -165.92,-46.88 -169.42,-133.66l-0.16 0zm370.77 -112.52l-152.73 0c-137.62,0.96 -173.86,63.89 -169.4,113.47 5.24,57.53 60.87,89.32 123.64,89.32 106.8,0 198.49,-91.22 198.49,-202.79z"/><path d="M4098.11 1494.88l48.47 0 0 106c29.24,-80.41 102.5,-123.63 203.26,-107.74l0 51.17c-114.9,-24.64 -203.26,46.88 -203.26,184.51l0 233.93 -48.47 0 0 -467.87z"/><path d="M4406.9 1872.17l0 -56.73c78.03,70.08 170.36,107.27 254.59,107.27 84.23,0 165.76,-39.09 165.76,-119.67 0,-68.18 -57.54,-103.62 -174.66,-129.21 -141.92,-32.89 -243.79,-61.18 -243.79,-171 0,-113.47 114.42,-167.5 226.14,-167.5 96.47,0 175.62,37.19 226.16,79.78l0 56.73c-56.9,-52.28 -138.43,-90.43 -226.16,-90.43 -86.93,0 -177.51,39.89 -177.51,123.01 0,73.59 83.44,95.67 193.41,120.63 148.12,32.73 224.4,77.87 225.2,176.24 0,115.06 -100.13,169.1 -215.51,169.1 -102.82,0 -183.55,-42.44 -253.63,-98.22z"/><path d="M4944.85 1836.73c-2.7,-76.12 48.47,-150.5 211.84,-151.46l158.93 -0.78 0 -40.85c0,-77.87 -74.22,-115.06 -157.97,-115.06 -65.31,0 -136.83,22.09 -149.23,92.01l-47.52 0.96c8.74,-91.23 95.99,-135.57 195.79,-135.57 113.95,0 205.81,57.54 205.81,151.47l0 325.78 -46.88 0 0 -122.05c-13.98,30.04 -69.61,129.21 -201.2,129.21 -90.9,0 -165.91,-46.88 -169.41,-133.66l-0.16 0zm370.77 -112.52l-152.73 0c-137.63,0.96 -173.86,63.89 -169.41,113.47 5.25,57.53 60.87,89.32 123.65,89.32 106.79,0 198.49,-91.22 198.49,-202.79z"/><polygon points="5458.33,1963.07 5507.91,1963.07 5507.91,1343.27 5458.33,1343.27"/><path d="M5593.26 1727.71c0,-133.65 106.8,-241.73 240.93,-241.73 125.38,0 222.17,96.63 235.52,215.19 2.54,14.46 2.86,29.08 0.96,43.38l-428.46 0c6.2,105.52 90.58,180.7 191.82,180.7 71.2,0 135.24,-37.19 169.89,-93.92l47.04 8.11c-39.09,77.87 -124.44,130.95 -216.93,130.95 -135.89,0 -240.93,-108.87 -240.93,-242.68l0.16 0zm428.46 -22.89c-8.74,-96.46 -86.14,-174.5 -188.48,-174.5 -102.99,0 -182.14,77.88 -191.03,174.5l379.51 0z"/></g></g></svg>