<svg  id="fndm-onsci9h6fu" viewBox="0 0 120.47516632080078 30.25113868713379" xmlns="http://www.w3.org/2000/svg">
   <path d="m40.934,11.53c1.904,0 3.491,1.587 3.491,3.595a3.567,3.567 0 0 1 -3.597,3.598l-4.76,0a3.567,3.567 0 0 1 -3.596,-3.598a3.568,3.568 0 0 1 3.596,-3.596l4.866,0l0,0.001z" fill-rule="evenodd" fill="#fe9007"/>
   <path d="m88.743,26.655a3.565,3.565 0 0 1 -3.596,3.596c-1.904,0 -3.596,-1.585 -3.596,-3.596l0,-23.058c-0.001,-2.009 1.692,-3.597 3.596,-3.597c2.01,0 3.596,1.587 3.596,3.491l0,23.164zm24.117,-24.644c1.057,0.527 1.797,1.691 1.797,3.067c0,2.009 -1.586,3.596 -3.49,3.596c-0.74,0 -1.375,-0.212 -1.904,-0.528c-1.163,-0.637 -2.538,-1.059 -3.913,-1.059a8.036,8.036 0 0 0 -8.039,8.039a8.037,8.037 0 0 0 8.039,8.04c3.174,0 5.817,-1.904 7.192,-4.443l-7.192,0c-2.01,0 -3.596,-1.694 -3.596,-3.597a3.567,3.567 0 0 1 3.596,-3.598l11.53,0a3.566,3.566 0 0 1 3.595,3.598c0,8.356 -6.77,15.125 -15.125,15.125c-8.356,0 -15.125,-6.769 -15.125,-15.125s6.769,-15.126 15.125,-15.126c2.75,0 5.288,0.74 7.51,2.01m-89.802,0.212c1.057,0.633 1.692,1.796 1.692,3.067c0,2.008 -1.586,3.596 -3.49,3.596c-0.74,0 -1.375,-0.212 -1.904,-0.634a8.46,8.46 0 0 0 -4.231,-1.164a8.035,8.035 0 0 0 -8.039,8.038a8.036,8.036 0 0 0 8.039,8.04c3.596,0 6.664,-2.434 7.615,-5.713l4.549,-14.702c0.423,-1.48 1.798,-2.433 3.385,-2.433l13.645,0c2.01,0 3.596,1.586 3.596,3.49a3.567,3.567 0 0 1 -3.596,3.598l-9.944,0c-0.634,0 -1.164,0.422 -1.374,0.952l-3.385,11.105c-1.904,6.241 -7.722,10.789 -14.491,10.789c-8.356,0.001 -15.125,-6.768 -15.125,-15.125c0,-8.356 6.769,-15.126 15.125,-15.126c2.856,0 5.605,0.847 7.933,2.222m20.732,19.568l5.922,-19.25a3.524,3.524 0 0 1 3.385,-2.54l0.742,0c1.586,0 2.96,1.059 3.385,2.434l4.125,13.326l3.911,-13.22c0.425,-1.481 1.8,-2.54 3.492,-2.54l0.742,0c1.585,0 2.96,1.059 3.383,2.434l7.088,23.164c0.105,0.316 0.105,0.74 0.105,1.057c0,2.011 -1.588,3.596 -3.491,3.596a3.52,3.52 0 0 1 -3.384,-2.537l-4.125,-13.221l-4.02,13.326c-0.423,1.376 -1.798,2.432 -3.384,2.432l-0.741,0a3.522,3.522 0 0 1 -3.385,-2.537l-4.02,-13.221l-3.914,12.902c-0.528,1.483 -1.798,2.54 -3.49,2.54l-13.644,0c-1.905,0 -3.49,-1.587 -3.49,-3.597c0,-1.904 1.585,-3.49 3.49,-3.49l9.942,0c0.636,0 1.165,-0.424 1.376,-1.058" fill-rule="evenodd" fill="#015f3d"/>
  </svg>