<svg xmlns="http://www.w3.org/2000/svg" fill-rule="evenodd" clip-rule="evenodd" image-rendering="optimizeQuality" shape-rendering="geometricPrecision" text-rendering="geometricPrecision" viewBox="-2 1 6600 3300"><g><rect width="6600" height="3300" x="-2" y="1" fill="#3a7cb5"/><g><path fill-rule="nonzero" d="M3872.34 1510.44c-16.26,-99.04 -97.57,-153.36 -211.41,-153.36 -175.67,0 -243.97,146.97 -243.97,293.92 0,146.95 68.32,293.92 243.97,293.92 126.85,0 201.66,-70.3 211.41,-182.12l273.23 0c-16.26,255.61 -214.67,405.74 -481.39,405.74 -318.78,0 -523.69,-230.01 -523.69,-517.54 0,-287.53 204.91,-517.54 523.69,-517.54 227.68,0 471.64,137.36 481.39,373.78l-273.23 0 0 3.2zm614.09 301.4c6.4,117.84 80.08,152.87 195.39,152.87 80.08,0 166.57,-28.66 166.57,-101.92 0,-85.99 -147.35,-105.1 -297.89,-143.31 -147.34,-41.4 -301.09,-105.11 -301.09,-286.64 0,-216.58 227.42,-299.38 422.81,-299.38 204.99,0 413.19,95.56 413.19,318.47l-269.06 0c3.21,-89.16 -83.27,-117.83 -166.56,-117.83 -57.65,0 -131.32,19.11 -131.32,86 0,76.43 150.54,89.17 301.08,130.57 150.55,41.41 301.1,105.1 301.1,286.65 0,251.6 -224.22,331.22 -451.64,331.22 -237.02,0 -448.43,-98.73 -448.43,-353.52l265.85 0 0 -3.18 0 0zm709.23 -663.38l273.8 0 356.58 610.02 3.18 0 0 -610.02 251.51 0 0 990.08 -273.8 0 -356.58 -616.4 -3.18 0 0 616.4 -251.51 0 0 -990.08z"/><path fill="#fefefe" d="M3140.49 833.43l2925.24 0 0 45.01 -2925.24 0 0 -45.01zm0 1590.13l2925.24 0 0 45.01 -2925.24 0 0 -45.01zm-2508.51 -615.05c-64.84,0 -116.71,-48.93 -116.71,-110.11l0 -94.8c0,-61.18 51.87,-110.11 116.71,-110.11l771.66 0c64.84,0 116.71,48.93 116.71,110.11l0 91.74c0,61.18 -51.87,110.11 -116.71,110.11l-771.66 0 0 3.06zm1320.11 0c-64.84,0 -116.71,-48.93 -116.71,-110.11l0 -94.8c0,-61.18 51.87,-110.11 116.71,-110.11l771.66 0c64.84,0 116.71,48.93 116.71,110.11l0 94.8c0,61.18 -51.87,110.11 -116.71,110.11l-771.66 0zm-689.76 645.06c-40.65,0 -78.2,-18.52 -100.1,-55.51l-250.27 -428.7c-3.13,-6.18 -6.27,-9.26 -6.27,-15.43 -3.12,-24.67 12.53,-49.35 37.55,-52.44l200.22 -30.84c43.81,-6.15 87.59,15.42 106.36,49.35l115.75 197.39c6.27,9.25 15.65,15.42 28.16,15.42l522.44 0c12.52,0 21.91,-6.17 28.16,-15.42l115.75 -197.39c21.9,-37.01 62.57,-58.59 106.36,-49.35l200.24 30.84c25.02,3.09 43.8,27.75 37.53,52.44 0,6.15 -3.12,12.34 -6.26,15.43l-250.26 428.69c-21.9,37 -59.45,55.52 -100.12,55.52l-785.24 0 0 0zm0 -1620.14c-40.65,0 -78.2,18.69 -100.1,56.06l-250.27 442.18c-3.13,6.24 -6.27,9.34 -6.27,15.57 -3.12,24.92 12.53,49.83 37.55,52.95l200.22 31.13c43.81,6.23 87.59,-15.57 106.36,-49.82l115.75 -205.52c6.27,-9.34 15.65,-15.58 28.16,-15.58l522.44 0c12.52,0 21.91,6.24 28.16,15.57l115.75 205.52c21.9,37.38 62.57,59.18 106.36,49.83l200.24 -31.14c25.02,-3.11 43.8,-28.02 37.53,-52.94 0,-6.23 -3.12,-12.45 -6.26,-15.57l-250.25 -442.18c-21.9,-37.37 -59.45,-56.06 -100.11,-56.06l-785.26 0 0 0z"/></g></g></svg>