<svg  id="fndm-4pom9idipl" viewBox="8.600000381469727 7.400001525878906 600.0999145507812 212.39999389648438" xmlns="http://www.w3.org/2000/svg">
   <path d="m365.7,24.2c0,9.4 -7.6,16.8 -16.8,16.8s-16.9,-7.6 -16.9,-16.8c0,-9.4 7.6,-16.8 16.8,-16.8s16.9,7.4 16.9,16.8" fill="#7b39f4"/>
   <path d="m607.6,37.7l-21.8,0c-0.7,0 -0.9,0.4 -0.9,1.1l-1.1,9.2c0,0.4 -0.2,0.7 -0.7,0.9c-0.4,0.2 -0.7,0.2 -1.1,-0.2c-4,-3.1 -8.3,-6.7 -12.8,-8.5c-6.5,-2.9 -13.9,-4.5 -21.3,-4.7l-0.9,0c-7,0 -14.2,1.3 -20.7,3.8c-7,2.7 -13.3,7.9 -18.6,12.8c-5.4,5.2 -9.7,11.5 -12.6,18.2c-2.9,6.7 -4.5,14.4 -4.5,21.8s1.6,15.1 4.5,21.8c2.9,6.7 7.2,13 12.6,18.2c5.2,5.2 11.7,10.1 18.6,12.8c6.7,2.7 14.4,4 21.6,3.8c7.4,-0.2 14.6,-1.8 21.3,-4.7c4.5,-2 8.8,-5.4 12.6,-8.5c0.2,-0.2 0.7,-0.2 1.1,-0.2c0.4,0.2 0.7,0.4 0.7,0.9l0.9,8.3c0,0.4 0.4,0.9 1.1,0.9l22,0c0.7,0 1.1,-0.4 1.1,-1.1l0,-105.5c0,-0.7 -0.4,-1.1 -1.1,-1.1m-58.8,87.2c-18.2,0 -33,-14.8 -33,-33s14.8,-33 33,-33s33,14.8 33,33s-14.8,33 -33,33m-86.3,-73.7c-4.9,-4.9 -11,-9.4 -17.5,-12.1c-6.5,-2.5 -13.5,-3.8 -20.4,-3.8c-7,0 -13.9,1.6 -20.2,4.3c-2.9,1.3 -5.8,3.6 -8.5,5.4c-0.2,0.2 -0.7,0.2 -1.1,0c-0.2,-0.2 -0.4,-0.4 -0.4,-0.9l-0.7,-5.6c0,-0.4 -0.4,-0.9 -1.1,-0.9l-21.3,0c-0.7,0 -1.1,0.4 -1.1,1.1l0,106c0,0.7 0.4,1.1 1.1,1.1l22.7,0c0.7,0 1.1,-0.4 1.1,-1.1l0,-64.9c1.8,-4.7 3.8,-8.1 7.2,-11.5c6.1,-5.8 14.4,-9 22.7,-8.8c8.3,0.2 15.1,3.6 20.9,9.4c5.6,5.8 8.8,13.7 8.5,21.8l0,53.7c0,0.7 0.4,0.9 1.1,0.9l22.5,0c0.7,0 1.1,-0.7 1.1,-1.3l0,-54.9c0,-7 -1.6,-14.2 -4.3,-20.7c-3.1,-6.2 -7.4,-12.3 -12.3,-17.2m-396.9,7.8c10.1,0 19.5,4.5 26.1,12.4c0.2,0.4 0.9,0.4 1.3,0.2l17.7,-12.6c0.2,-0.2 0.4,-0.4 0.4,-0.7s0,-0.7 -0.2,-0.9c-10.8,-13.9 -27.6,-22.2 -45.2,-22.2c-31.4,0 -57.1,25.6 -57.1,56.8c0,31.4 25.6,56.8 57.1,56.8c17.5,0 34.6,-8.3 45.2,-22.2c0.2,-0.2 0.2,-0.4 0.2,-0.9c0,-0.2 -0.2,-0.4 -0.4,-0.7l-17.7,-12.5c-0.4,0.2 -1.1,0.2 -1.3,0.7c-6.3,7.9 -15.9,11.7 -26.1,11.7c-18.4,0 -32.3,-14.2 -32.3,-32.6c-0.1,-18.4 13.8,-33.3 32.3,-33.3m265.7,75.7c17.7,-8.5 26.3,-22.2 26.3,-42.2c0,-27.6 -18,-57.1 -57.7,-57.1c-28.1,0 -58.4,18 -58.4,57.1c0,17.1 5.6,31.4 15.9,41.6c10.3,9.9 24.9,15.1 42.5,15.1c20,0 32.8,8.8 32.8,23.6c0,14.4 -16.2,22.9 -33.2,22.9c-17.1,0 -32.3,-8.8 -33,-25.4c0,-0.7 -0.4,-1.1 -1.1,-1.1l-22.5,0c-0.7,0 -1.1,0.4 -1.1,0.9c0,13.9 4.5,26.1 12.8,34.4c10.1,10.1 25.4,15.3 44.7,15.3c28.1,0 58.2,-14.8 58.2,-47.4c0,-11.9 -4.5,-28.1 -26.3,-36.4c-0.4,-0.2 -0.7,-0.4 -0.7,-0.9c0.1,0.1 0.4,-0.4 0.8,-0.4m-31.4,-10.1c-19.8,0 -33.7,-13.5 -33.7,-32.6c0,-20 13.3,-33 33.7,-33c19.1,0 33,13.9 33,33c-0.2,19.2 -13.7,32.6 -33,32.6m-127.9,-89.2c-31.4,0 -57.1,25.6 -57.1,56.8c0,31.4 25.6,56.8 57.1,56.8s57.1,-25.6 57.1,-56.8c0,-31.4 -25.6,-56.8 -57.1,-56.8m0,89c-17.7,0 -32.3,-14.4 -32.3,-32.1s14.6,-33.3 32.3,-33.3c17.7,0 32.1,15.5 32.1,33.2s-14.3,32.2 -32.1,32.2m199.5,45.8l17.5,0l0,2.5l-14.8,0l0,8.3l13.3,0l0,2.5l-13.3,0l0,8.5l15.1,0l0,2.5l-17.8,0l0,-24.3zm28.1,0l8.3,0c7.6,0 12.8,5.2 12.8,11.9s-5.2,12.1 -12.8,12.1l-8.3,0l0,-24zm8.3,21.8c6.1,0 10.1,-4 10.1,-9.4s-3.8,-9.7 -10.1,-9.7l-5.6,0l0,19.1l5.6,0zm23.1,-7.6l0,-14.2l2.7,0l0,13.9c0,5.2 2.7,8.1 7.4,8.1c4.5,0 7.2,-2.7 7.2,-7.9l0,-14.2l2.7,0l0,13.9c0,7 -4,10.8 -10.1,10.8c-5.8,0.1 -9.9,-3.7 -9.9,-10.4m30.4,-2c0,-7 5.2,-12.6 12.1,-12.6c4.5,0 7,1.6 9.4,3.8l-1.8,2c-2,-2 -4.3,-3.4 -7.6,-3.4c-5.4,0 -9.4,4.3 -9.4,9.9c0,5.6 4,9.9 9.4,9.9c3.4,0 5.4,-1.3 7.9,-3.6l1.8,1.8c-2.5,2.5 -5.4,4.3 -9.7,4.3c-7,0.4 -12.1,-5.2 -12.1,-12.1m40.2,-12.2l2.5,0l11,24.3l-2.9,0l-2.9,-6.3l-13,0l-2.9,6.3l-2.7,0l10.9,-24.3zm6.7,15.5l-5.4,-12.4l-5.6,12.4l11,0zm21.8,12.8l2.7,-3.8c-6.1,-0.9 -10.6,-5.8 -10.6,-12.4c0,-6.7 5.2,-12.6 12.1,-12.6c4.5,0 7,1.6 9.4,3.8l-1.8,2c-2,-2 -4.3,-3.4 -7.6,-3.4c-5.4,0 -9.4,4.3 -9.4,9.9c0,5.6 4,9.9 9.4,9.9c3.4,0 5.4,-1.3 7.9,-3.6l1.8,1.8c-2.5,2.5 -4.9,4 -9.2,4.3l-2.2,4.9l-2.5,-0.8zm32.6,-28.3l2.5,0l11,24.3l-2.9,0l-2.9,-6.3l-13.3,0l-2.9,6.3l-2.7,0l11.2,-24.3zm-4.5,-2.4c0.7,-2.5 1.6,-3.6 3.1,-3.6c1.6,0 3.6,1.3 4.7,1.3c0.9,0 1.3,-0.4 1.8,-1.6l1.8,0.4c-0.7,2.5 -1.6,3.6 -3.1,3.6c-1.6,0 -3.6,-1.3 -4.7,-1.3c-0.9,0 -1.3,0.4 -1.8,1.6l-1.8,-0.4zm11,17.9l-5.4,-12.4l-5.6,12.4l11,0zm14.2,-3.3c0,-6.7 4.9,-12.6 12.4,-12.6c7.4,0 12.4,5.8 12.4,12.4c0,6.7 -4.9,12.6 -12.4,12.6c-7.7,0.1 -12.4,-5.7 -12.4,-12.4m21.7,0c0,-5.6 -4,-10.1 -9.4,-10.1c-5.6,0 -9.4,4.5 -9.4,9.9s4,9.9 9.4,9.9c5.4,0.4 9.4,-4.1 9.4,-9.7" fill="#2d3137"/>
  </svg>