<svg xmlns="http://www.w3.org/2000/svg" fill-rule="evenodd" clip-rule="evenodd" image-rendering="optimizeQuality" shape-rendering="geometricPrecision" text-rendering="geometricPrecision" viewBox="-2 1 6600 3300"><g><rect width="6600" height="3300" x="-2" y="1" fill="#373435"/><path fill="#fefefe" fill-rule="nonzero" d="M614.48 1717.43l98.95 30.39c-15.2,55.72 -40.52,97.06 -75.86,124.15 -35.34,26.98 -80.1,40.52 -134.4,40.52 -67.25,0 -122.5,-22.97 -165.84,-68.91 -43.23,-45.93 -64.9,-108.71 -64.9,-188.46 0,-84.22 21.79,-149.71 65.25,-196.35 43.46,-46.64 100.71,-69.97 171.62,-69.97 61.96,0 112.25,18.38 150.89,55.01 23.08,21.67 40.28,52.77 51.82,93.41l-101.06 24.03c-6.01,-26.15 -18.49,-46.88 -37.46,-62.08 -19.08,-15.19 -42.16,-22.73 -69.26,-22.73 -37.57,0 -68.08,13.43 -91.4,40.4 -23.44,26.86 -35.1,70.44 -35.1,130.74 0,63.85 11.54,109.43 34.51,136.52 23.09,27.21 53.01,40.76 89.87,40.76 27.21,0 50.65,-8.6 70.21,-25.92 19.55,-17.31 33.68,-44.4 42.16,-81.51zm163.38 -1.29c0,-32.28 7.89,-63.49 23.79,-93.64 15.9,-30.28 38.4,-53.24 67.5,-69.15 29.09,-15.9 61.48,-23.91 97.41,-23.91 55.47,0 100.82,18.02 136.28,54.07 35.45,36.16 53.12,81.63 53.12,136.75 0,55.6 -17.9,101.65 -53.59,138.17 -35.81,36.51 -80.81,54.77 -135.11,54.77 -33.57,0 -65.61,-7.66 -96.11,-22.85 -30.39,-15.2 -53.6,-37.46 -69.5,-66.91 -15.9,-29.33 -23.79,-65.13 -23.79,-107.3zm99.65 5.18c0,36.4 8.6,64.31 25.79,83.63 17.32,19.44 38.52,29.09 63.85,29.09 25.2,0 46.4,-9.65 63.48,-29.09 17.08,-19.32 25.68,-47.47 25.68,-84.34 0,-35.92 -8.6,-63.6 -25.68,-82.92 -17.08,-19.43 -38.28,-29.09 -63.48,-29.09 -25.33,0 -46.53,9.66 -63.85,29.09 -17.19,19.32 -25.79,47.23 -25.79,83.63zm447.24 182.69l-96.83 0 0 -366.79 89.76 0 0 52.06c15.43,-24.62 29.33,-40.76 41.7,-48.41 12.36,-7.66 26.38,-11.43 42.05,-11.43 22.14,0 43.46,6.13 63.96,18.26l-30.04 84.57c-16.37,-10.6 -31.57,-15.9 -45.58,-15.9 -13.67,0 -25.21,3.77 -34.63,11.19 -9.43,7.54 -16.85,20.97 -22.27,40.52 -5.41,19.55 -8.12,60.54 -8.12,122.85l0 113.08zm275.04 0l-96.83 0 0 -366.79 89.76 0 0 52.06c15.43,-24.62 29.33,-40.76 41.7,-48.41 12.36,-7.66 26.38,-11.43 42.05,-11.43 22.14,0 43.46,6.13 63.96,18.26l-30.04 84.57c-16.37,-10.6 -31.57,-15.9 -45.58,-15.9 -13.67,0 -25.21,3.77 -34.63,11.19 -9.43,7.54 -16.85,20.97 -22.27,40.52 -5.41,19.55 -8.12,60.54 -8.12,122.85l0 113.08zm394.47 -115.9l96.83 16.25c-12.37,35.46 -32.04,62.43 -58.78,81.04 -26.86,18.49 -60.43,27.8 -100.59,27.8 -63.73,0 -110.96,-20.85 -141.47,-62.55 -24.14,-33.45 -36.27,-75.62 -36.27,-126.62 0,-60.78 15.9,-108.48 47.58,-142.88 31.69,-34.51 71.85,-51.71 120.38,-51.71 54.42,0 97.41,18.02 128.98,54.07 31.45,36.04 46.53,91.28 45.11,165.73l-242.41 0c0.71,28.74 8.49,51.12 23.44,67.14 14.85,16.01 33.46,24.02 55.6,24.02 15.19,0 27.92,-4.12 38.16,-12.36 10.37,-8.25 18.14,-21.56 23.44,-39.93zm5.66 -98.24c-0.71,-28.15 -7.89,-49.59 -21.68,-64.19 -13.78,-14.73 -30.5,-22.03 -50.29,-22.03 -21.09,0 -38.52,7.77 -52.3,23.2 -13.78,15.43 -20.49,36.52 -20.26,63.02l144.53 0zm247.47 -39.58l-87.63 -15.54c9.89,-35.81 26.97,-62.31 51.12,-79.51 24.14,-17.2 60.07,-25.8 107.66,-25.8 43.22,0 75.5,5.07 96.7,15.32 21.08,10.24 36.04,23.2 44.64,38.98 8.6,15.79 12.96,44.65 12.96,86.81l-1.42 113.08c0,32.16 1.54,55.95 4.6,71.26 3.06,15.31 8.83,31.69 17.31,49.12l-96.11 0c-2.48,-6.36 -5.66,-15.78 -9.31,-28.27 -1.53,-5.77 -2.71,-9.54 -3.41,-11.31 -16.49,16.26 -34.16,28.39 -53.01,36.52 -18.84,8.12 -38.87,12.25 -60.19,12.25 -37.57,0 -67.26,-10.25 -88.93,-30.75 -21.67,-20.37 -32.51,-46.29 -32.51,-77.62 0,-20.61 4.95,-39.1 14.84,-55.36 9.9,-16.14 23.68,-28.62 41.58,-37.22 17.79,-8.6 43.47,-16.14 77.04,-22.61 45.23,-8.49 76.68,-16.5 94.11,-23.8l0 -9.77c0,-18.85 -4.59,-32.28 -13.78,-40.41 -9.31,-8.01 -26.74,-12.01 -52.3,-12.01 -17.31,0 -30.74,3.42 -40.4,10.37 -9.78,6.83 -17.55,18.96 -23.56,36.27zm130.04 78.45c-12.37,4.12 -32.04,9.07 -59.01,14.84 -26.86,5.77 -44.53,11.43 -52.77,16.85 -12.61,9.07 -18.97,20.37 -18.97,34.15 0,13.67 5.07,25.33 15.2,35.22 10.13,9.9 22.97,14.84 38.63,14.84 17.44,0 34.16,-5.77 50.06,-17.19 11.66,-8.84 19.44,-19.44 23.09,-32.16 2.47,-8.24 3.77,-24.03 3.77,-47.23l0 -19.32zm387.99 175.27l0 -506.02 215.2 0c54.07,0 93.41,4.6 117.91,13.66 24.61,9.07 44.17,25.21 58.89,48.42 14.72,23.32 22.15,49.82 22.15,79.74 0,38.04 -11.08,69.38 -33.34,94.11 -22.26,24.74 -55.48,40.28 -99.77,46.76 22.03,12.84 40.17,26.98 54.42,42.41 14.37,15.43 33.69,42.87 57.95,82.21l61.73 98.71 -122.15 0 -73.27 -110.49c-26.26,-39.22 -44.28,-63.95 -54.06,-74.2 -9.66,-10.13 -19.91,-17.2 -30.74,-20.97 -10.96,-3.77 -28.15,-5.65 -51.71,-5.65l-20.73 0 0 211.31 -102.48 0zm102.48 -291.88l75.62 0c49,0 79.5,-2.12 91.75,-6.24 12.14,-4.12 21.8,-11.31 28.63,-21.44 6.95,-10.13 10.36,-22.85 10.36,-38.05 0,-17.07 -4.59,-30.74 -13.66,-41.34 -9.07,-10.48 -21.91,-17.08 -38.4,-19.79 -8.36,-1.18 -33.22,-1.76 -74.56,-1.76l-79.74 0 0 128.62zm407.19 -124.38l0 -89.76 96.83 0 0 89.76 -96.83 0zm0 416.26l0 -366.79 96.83 0 0 366.79 -96.83 0zm192.11 0l0 -506.02 96.83 0 0 182.57c29.91,-34.04 65.25,-51.12 106.24,-51.12 44.64,0 81.51,16.14 110.72,48.53 29.21,32.39 43.82,78.92 43.82,139.58 0,62.66 -14.84,110.96 -44.64,144.88 -29.8,33.81 -66.08,50.77 -108.6,50.77 -20.97,0 -41.58,-5.42 -61.96,-16.14 -20.38,-10.84 -37.93,-26.38 -52.65,-46.88l0 53.83 -89.76 0zm95.41 -190.46c0,38.04 6.01,66.31 18.02,84.45 16.85,25.91 39.11,38.87 67.03,38.87 21.43,0 39.69,-9.19 54.89,-27.56 15.07,-18.38 22.61,-47.35 22.61,-86.81 0,-42.05 -7.66,-72.32 -22.85,-90.93 -15.2,-18.61 -34.63,-27.92 -58.42,-27.92 -23.33,0 -42.64,9.07 -58.07,27.21 -15.43,18.14 -23.21,45.7 -23.21,82.69zm552.54 74.56l96.83 16.25c-12.37,35.46 -32.04,62.43 -58.78,81.04 -26.86,18.49 -60.43,27.8 -100.59,27.8 -63.73,0 -110.96,-20.85 -141.47,-62.55 -24.14,-33.45 -36.27,-75.62 -36.27,-126.62 0,-60.78 15.9,-108.48 47.58,-142.88 31.69,-34.51 71.85,-51.71 120.38,-51.71 54.42,0 97.41,18.02 128.98,54.07 31.45,36.04 46.53,91.28 45.11,165.73l-242.41 0c0.71,28.74 8.49,51.12 23.44,67.14 14.85,16.01 33.46,24.02 55.6,24.02 15.19,0 27.92,-4.12 38.16,-12.36 10.37,-8.25 18.14,-21.56 23.44,-39.93zm5.66 -98.24c-0.71,-28.15 -7.89,-49.59 -21.68,-64.19 -13.78,-14.73 -30.5,-22.03 -50.29,-22.03 -21.09,0 -38.52,7.77 -52.3,23.2 -13.78,15.43 -20.49,36.52 -20.26,63.02l144.53 0zm175.38 -202.12l0 -89.76 96.83 0 0 89.76 -96.83 0zm0 416.26l0 -366.79 96.83 0 0 366.79 -96.83 0zm288.94 0l-96.83 0 0 -366.79 89.76 0 0 52.06c15.43,-24.62 29.33,-40.76 41.7,-48.41 12.36,-7.66 26.38,-11.43 42.05,-11.43 22.14,0 43.46,6.13 63.96,18.26l-30.04 84.57c-16.37,-10.6 -31.57,-15.9 -45.58,-15.9 -13.67,0 -25.21,3.77 -34.63,11.19 -9.43,7.54 -16.85,20.97 -22.27,40.52 -5.41,19.55 -8.12,60.54 -8.12,122.85l0 113.08zm159.84 -187.87c0,-32.28 7.89,-63.49 23.79,-93.64 15.9,-30.28 38.4,-53.24 67.5,-69.15 29.09,-15.9 61.48,-23.91 97.41,-23.91 55.47,0 100.82,18.02 136.28,54.07 35.45,36.16 53.12,81.63 53.12,136.75 0,55.6 -17.9,101.65 -53.59,138.17 -35.81,36.51 -80.81,54.77 -135.11,54.77 -33.57,0 -65.61,-7.66 -96.11,-22.85 -30.39,-15.2 -53.6,-37.46 -69.5,-66.91 -15.9,-29.33 -23.79,-65.13 -23.79,-107.3zm99.65 5.18c0,36.4 8.6,64.31 25.79,83.63 17.32,19.44 38.52,29.09 63.85,29.09 25.2,0 46.4,-9.65 63.48,-29.09 17.08,-19.32 25.68,-47.47 25.68,-84.34 0,-35.92 -8.6,-63.6 -25.68,-82.92 -17.08,-19.43 -38.28,-29.09 -63.48,-29.09 -25.33,0 -46.53,9.66 -63.85,29.09 -17.19,19.32 -25.79,47.23 -25.79,83.63zm524.86 18.73l99.64 -9.9c6.01,33.34 18.03,57.72 36.28,73.39 18.26,15.66 42.88,23.44 73.86,23.44 32.74,0 57.48,-6.95 74.09,-20.85 16.6,-13.9 24.97,-30.16 24.97,-48.77 0,-12.01 -3.54,-22.14 -10.49,-30.62 -6.95,-8.36 -19.2,-15.67 -36.63,-21.79 -11.9,-4.24 -38.99,-11.55 -81.39,-22.15 -54.54,-13.66 -92.82,-30.39 -114.84,-50.29 -30.98,-27.92 -46.41,-61.96 -46.41,-102.12 0,-25.8 7.3,-50.06 21.79,-72.56 14.6,-22.5 35.57,-39.58 63.01,-51.36 27.45,-11.78 60.43,-17.67 99.3,-17.67 63.25,0 110.96,14.02 142.88,42.17 32.04,28.15 48.76,65.61 50.41,112.61l-102.47 3.53c-4.36,-26.15 -13.67,-44.88 -27.92,-56.3 -14.25,-11.43 -35.69,-17.2 -64.2,-17.2 -29.44,0 -52.53,6.13 -69.14,18.38 -10.72,7.89 -16.13,18.37 -16.13,31.56 0,12.02 5.06,22.27 15.19,30.75 12.84,10.95 44.05,22.26 93.64,34.04 49.59,11.66 86.22,23.91 109.9,36.39 23.79,12.61 42.4,29.69 55.83,51.48 13.43,21.79 20.14,48.64 20.14,80.56 0,28.98 -8.01,56.19 -24.14,81.51 -16.14,25.33 -38.87,44.17 -68.32,56.42 -29.45,12.37 -66.2,18.5 -110.13,18.5 -63.96,0 -113.08,-14.73 -147.36,-44.29 -34.27,-29.45 -54.65,-72.44 -61.36,-128.86zm954.08 163.96l-110.37 0 -43.7 -115.2 -202.94 0 -42.05 115.2 -108.37 0 196.47 -506.02 108.25 0 202.71 506.02zm-187.28 -200.71l-70.32 -187.28 -68.32 187.28 138.64 0z"/></g></svg>