<svg  id="fndm-phmifn9uk0" viewBox="13.200000762939453 14.699996948242188 283.5 207.8000030517578" xmlns="http://www.w3.org/2000/svg">
   <path d="m280.9,48.6c-43.9,34.4 -85.3,41.2 -85.3,41.2l-4.7,13.6c53.6,-13 78.7,-35.9 86.3,-43.6c2.1,-6.4 3.7,-11.2 3.7,-11.2s-2.2,6.6 0,0z" fill="#F39800"/>
   <path d="m161.4,51.1c75.7,-7.2 107.2,-22.6 135.3,-36.4c0,0 -0.7,1.8 -3.4,9.1c-6.2,5.3 -50.8,34.7 -140.7,42.6l8.8,-15.3z" fill="#83B81A"/>
   <path d="m22.7,78.2l-9.5,16.2c153.1,4.2 207.3,-16.9 233.8,-32.1c1.3,-2.1 4.4,-8.3 5.5,-10.6c-53.8,23.2 -134.1,33.2 -229.8,26.5z" fill="#E32119"/>
   <path d="m77.4,169.6l-2.3,10.7c-8.8,1.1 -22.6,1.2 -22.6,1.2c-24.6,0 -33.7,-12.4 -29.5,-32c4.2,-19.7 19.4,-33 43.8,-33c0,0 14.8,0.6 24.9,1.5l-5.5,10.4l-22,0c-13.1,0 -18.8,10.5 -21.1,21.5c-2.3,10.6 -1.3,19.7 12,19.7l22.3,0zm60.2,-14.6c-4.2,1.3 -9.5,1.7 -15.6,1.9c-4,0.1 -10.3,0 -13.4,0l-5.1,23.7l-19.2,0l13.3,-62.6l30.7,0c8.2,0 15.2,0.4 20.2,3.6c5.6,3.6 7.5,9.3 6.1,16c-1.7,8 -7.7,14.4 -17,17.4zm-14.6,-26.5l-8.4,0l-3.8,17.9l7.6,0c8.1,0 15.6,-1.7 17.2,-9.2c1.4,-7.1 -4.8,-8.7 -12.6,-8.7zm111.8,35.3c-0.7,3.3 1.3,6 4.5,6l27.4,0l-6.1,10.7l-39.3,0c-5.2,0 -8.5,-4.4 -7.4,-9.8l11.3,-52.7l19.4,0l-9.8,45.8zm-55.1,-20.2l30,0l-2.3,10.6l-30,0l-5.6,26.5l-18.9,0l11.2,-52.7c1.2,-5.4 6.3,-9.9 11.6,-9.9l43.7,0l-6.1,10.7l-24.6,0c-3.2,0 -6.4,2.7 -7.1,6l-1.9,8.8zm-92.1,62.4l13.5,0l-1,4.6l-13.5,0l-1.5,6.9l13.6,0l-1,4.6l-22.2,0l5.1,-22.8c0.5,-2.4 2.8,-4.3 5.2,-4.3l19.7,0l-2.7,4.7l-11.2,0c-1.4,0 -2.9,1.2 -3.2,2.6l-0.8,3.7zm63.1,0l13.5,0l-1,4.6l-13.5,0l-1.5,6.9l13.5,0l-1,4.6l-22.1,0l5.1,-22.8c0.5,-2.4 2.8,-4.3 5.2,-4.3l19.7,0l-2.7,4.7l-11.1,0c-1.4,0 -2.9,1.2 -3.2,2.6l-0.9,3.7zm77.2,16.1l6,-27.1l8.8,0l-6,27.1l-8.8,0zm-106.2,0l-6.7,-22.4l-5,22.4l-7.5,0l6,-27.1l12.1,0l6.6,22.5l5,-22.5l7.5,0l-6,27.1l-12,0zm71.6,0l-9.5,0l-3.5,-10.3l-3.6,0l-2.3,10.3l-8.6,0l6,-27.1l13.8,0c3.7,0 6.8,0.2 9.1,1.6c2.5,1.6 3.4,4 2.7,6.9c-0.6,2.9 -3.4,6.3 -9.1,7.3l5,11.3zm-10.1,-22.6l-3.8,0l-1.7,7.7l3.4,0c3.6,0 7,-0.7 7.7,-4c0.7,-3 -2.1,-3.7 -5.6,-3.7zm43.1,7.7l-3.3,14.8c-6.2,0.5 -11.7,0.5 -11.7,0.5c-11.1,0 -15.1,-5.4 -13.3,-13.8c1.9,-8.5 8.7,-14.3 19.7,-14.3c0,0 6.7,0.3 11.2,0.6l-2.6,4.5l-9.7,0c-6,0 -8.4,4.1 -9.5,9.3c-1,4.6 0.8,9 6.3,9c1.7,0 1.9,-0.5 1.9,-0.5l2.3,-10.2l8.7,0l0,0.1zm38.3,14.9l-1.3,-6.1l-11.8,0l-4,6.1l-8.4,0l18.9,-27.1l8.6,0l7.2,27.1l-9.2,0zm-3.5,-22.5l-7,12.1l8.6,0l-1.6,-12.1z" fill="#0098D1"/>
  </svg>