<svg  id="fndm-9hnd5c8576" viewBox="74.20999908447266 61.124000549316406 450.7900085449219 124.75200653076172" xmlns="http://www.w3.org/2000/svg">
   <path d="m80.26,61.124l42.507,0l18.188,29.719l-24.278,0l18.23,29.677l-42.509,0l-18.188,-29.677l24.405,-0.083l-18.355,-29.636zm127.522,0l-42.55,0l-18.187,29.719l24.278,0l-18.23,29.677l42.55,0l18.146,-29.677l-24.363,-0.083l18.356,-29.636zm-127.522,124.752l42.507,0l18.188,-29.719l-24.278,0l18.23,-29.677l-42.509,0l-18.188,29.677l24.405,0.083l-18.355,29.636zm127.522,0l-42.55,0l-18.187,-29.719l24.278,0l-18.23,-29.677l42.55,0l18.146,29.677l-24.363,0.083l18.356,29.636zm82.274,-76.612c-1.18,-5.968 -5.265,-9.052 -12.215,-9.212c-10.193,0 -15.29,6.769 -15.12,19.986c0,6.449 0.673,11.455 2.358,15.18c2.19,5.007 6.613,7.57 13.057,7.57c3.075,0 5.939,-0.801 8.13,-2.563c2.358,-1.603 3.748,-4.046 4.253,-7.09l0,-1.602l12.763,0l-0.169,1.762c-0.337,4.366 -2.19,8.051 -5.265,11.295c-2.864,2.924 -6.613,5.007 -11.204,6.128c-2.864,0.801 -5.939,1.282 -8.971,1.282c-9.182,-0.16 -16.3,-3.084 -21.229,-8.731c-4.254,-5.007 -6.444,-12.096 -6.444,-21.629c0,-4.686 0.674,-9.212 2.022,-13.538c1.685,-5.647 4.928,-9.852 9.856,-12.896c4.76,-2.724 10.192,-4.206 16.469,-4.206c3.58,0 6.95,0.48 10.361,1.602c3.412,1.122 6.276,2.724 8.635,4.846c1.516,1.603 2.864,3.405 3.917,5.488c1.01,2.082 1.516,4.045 1.685,5.967l0,1.763l-12.72,0l-0.17,-1.402l0.001,0zm22.913,12.576c0,-5.967 1.01,-11.294 2.864,-16.14c1.18,-2.925 3.075,-5.488 5.602,-7.73c2.19,-2.084 4.928,-3.726 7.624,-4.847c3.917,-1.442 8.129,-2.083 12.72,-2.083c8.466,0 15.121,2.243 20.007,6.93c2.696,2.402 4.59,5.166 5.77,8.05a42.76,42.76 0 0 1 2.696,15.02c-0.169,20.506 -9.688,30.8 -28.515,30.96c-19.123,-0.16 -28.768,-10.133 -28.768,-30.16zm12.72,-0.64c-0.168,14.539 5.265,21.788 16.132,21.628c10.362,0.16 15.795,-6.93 15.795,-21.468c0,-5.167 -0.842,-9.693 -2.527,-13.538c-2.022,-5.167 -6.613,-7.73 -13.226,-7.73c-2.358,0 -4.59,0.32 -6.781,1.121c-6.36,2.404 -9.561,9.012 -9.393,19.987zm56.483,-29.038l21.397,0c2.358,0 4.76,0.16 6.781,0.32c2.19,0.32 4.254,0.801 6.276,1.442c3.243,1.121 5.939,3.404 7.792,6.609c1.685,2.723 2.527,5.967 2.527,9.692c0,6.609 -2.19,11.295 -6.613,14.179c-3.748,2.403 -9.182,3.725 -16.132,3.885l-4.422,0.16l-5.097,0l0,22.43l-12.551,0l0,-58.717l0.042,0zm12.552,9.051l0,18.064l5.265,0c1.684,0.16 3.411,0 5.096,-0.16c6.107,-0.641 9.182,-3.565 9.182,-9.052c0.169,-5.647 -3.243,-8.531 -10.024,-8.731l-4.254,-0.16l-5.265,0l0,0.04l0,-0.001zm80.785,-9.051l0,9.051l-28.009,0l0,14.66l26.283,0l0,9.212l-26.283,0l0,16.622l28.852,0l0,9.212l-41.573,0l0,-58.757l40.73,0zm23.714,0l0,49.545l25.777,0l0,9.212l-38.497,0l0,-58.757l12.72,0z" fill-rule="evenodd" fill="#D66617"/>
  </svg>