<svg xmlns="http://www.w3.org/2000/svg" fill-rule="evenodd" clip-rule="evenodd" image-rendering="optimizeQuality" shape-rendering="geometricPrecision" text-rendering="geometricPrecision" viewBox="-2 1 6600 3300"><defs><linearGradient id="a" x1="2063.32" x2="4517.88" y1="710.9" y2="710.9" gradientUnits="userSpaceOnUse"><stop offset="0" stop-color="#727376"/><stop offset="0.478431" stop-color="#ffcc29"/><stop offset="1" stop-color="#fefefe"/></linearGradient><linearGradient id="b" x1="2057.99" x2="4523.22" y1="2585.07" y2="2585.07" gradientUnits="userSpaceOnUse"><stop offset="0" stop-color="#fefefe"/><stop offset="0.478431" stop-color="#727376"/><stop offset="1" stop-color="#ffcc29"/></linearGradient></defs><g><rect width="6600" height="3300" x="-2" y="1" fill="#727376"/><g><path fill="#fefefe" d="M2696.32 1217l-616.98 0c-156.82,0 -285.44,147.41 -285.44,300.13l0 291.12c0,152.72 128.62,300.13 285.44,300.13l616.98 0c15.91,0 28.96,-13.06 28.96,-28.97l0 -122.71c0,-15.93 -13.04,-28.97 -28.96,-28.97 -205.66,0 -411.31,0 -616.98,0 -56.14,0 -104.8,-66.84 -104.8,-119.48l0 -291.12c0,-52.64 48.66,-119.49 104.8,-119.49 205.67,0 411.32,0 616.98,0 15.92,0 28.96,-13.03 28.96,-28.96l0 -122.71c0,-15.91 -13.05,-28.97 -28.96,-28.97zm2074.56 891.38c17.16,0 31.21,-14.07 31.21,-31.21l0 -113.31c0,-17.17 -14.05,-31.21 -31.21,-31.21l-689.34 0c-13.69,0 -31.38,-18.56 -31.38,-32.2l0 -131.65c0,-20.81 26.22,-42.19 65.42,-42.19l505.4 0c90.2,0 178.16,-85.24 178.16,-183.94l0 -159.05c0,-116.95 -122.26,-166.62 -214.7,-166.62l-650.26 0c-17.05,0 -31.21,14.16 -31.21,31.21l0 113.31c0,17.16 14.05,31.21 31.21,31.21l631.23 0c32.69,0 58,19.11 58,58.56l0 72.35c3.16,41.18 -14.29,58.01 -59.53,58.86l-524.46 0c-110.65,0 -165,107.26 -165,167.27l0 273.77c0,42.14 39.82,84.84 127.87,84.84l768.59 0zm-1837.94 -19.74c0,10.87 16.24,19.74 36.05,19.74l130.83 0c19.81,0 36.03,-8.87 36.03,-19.74l0 -263.9 0.02 0 0 -259.72 14.88 -9.12 0.44 -0.24 207.85 -127.38 61.31 -37.56 269.17 164.94c9.25,5.64 33.96,-7.5 33.96,-27.29l0 -149.86c0,-19.82 -23.68,-38.47 -33.96,-44.77l-206.63 -126.65c-48.44,-29.71 -75.26,-30.55 -123.85,-0.75l-207.85 127.4 -0.5 0.3 -0.51 0.32 -14.31 8.78 0 -106.42c0,-10.85 -16.26,-19.72 -36.05,-19.72l-130.82 0c-19.82,0 -36.03,8.87 -36.03,19.72l0 535.82 -0.03 0 0 316.1z"/><path fill="#ffcc29" d="M3298.85 1707.22l73.62 0c7.63,0 13.86,-6.23 13.86,-13.86l0 -73.63c0,-7.63 -6.23,-13.86 -13.86,-13.86l-73.62 0c-7.64,0 -13.86,6.23 -13.86,13.86l0 73.63c0,7.63 6.22,13.86 13.86,13.86zm139.72 0l73.62 0c7.64,0 13.86,-6.23 13.86,-13.86l0 -73.63c0,-7.63 -6.22,-13.86 -13.86,-13.86l-73.62 0c-7.63,0 -13.86,6.23 -13.86,13.86l0 73.63c0,7.63 6.23,13.86 13.86,13.86zm-139.72 142.25l73.62 0c7.63,0 13.86,-6.23 13.86,-13.86l0 -73.62c0,-7.64 -6.23,-13.86 -13.86,-13.86l-73.62 0c-7.64,0 -13.86,6.22 -13.86,13.86l0 73.62c0,7.63 6.22,13.86 13.86,13.86zm139.72 0l73.62 0c7.64,0 13.86,-6.23 13.86,-13.86l0 -73.62c0,-7.64 -6.22,-13.86 -13.86,-13.86l-73.62 0c-7.63,0 -13.86,6.22 -13.86,13.86l0 73.62c0,7.63 6.23,13.86 13.86,13.86z"/><path fill="url(#a)" d="M4517.89 1111.15c-207.7,-471.48 -679.02,-800.67 -1227.28,-800.67 -548.28,0 -1019.59,329.19 -1227.29,800.67l157.05 0c197.47,-390.71 602.54,-658.65 1070.24,-658.65 467.69,0 872.75,267.94 1070.24,658.65l157.04 0z"/><path fill="url(#b)" d="M3290.61 2991.51c552.99,0 1027.73,-334.88 1232.6,-812.88l-156.3 0c-195.15,397.33 -603.75,670.86 -1076.3,670.86 -472.55,0 -881.16,-273.53 -1076.32,-670.86l-156.3 0c204.89,478 679.62,812.88 1232.62,812.88z"/></g></g></svg>