<svg  id="fndm-1evhiecerl" viewBox="0.00002538872286095284 0 805.2783203125 146.11700439453125" xmlns="http://www.w3.org/2000/svg">
   <g xmlns="http://www.w3.org/2000/svg" stroke-width="1.721">
    <path d="m650.142,4.94a1.566,1.566 0 0 1 1.067,-0.534a1.016,1.016 0 0 1 0.947,1.12a1.721,1.721 0 0 1 -0.534,1.135c-14.131,17.574 -24.407,38.126 -24.407,66.63c0,28.504 10.327,48.625 24.407,66.199a1.721,1.721 0 0 1 0.534,1.136a1.016,1.016 0 0 1 -0.947,1.119a1.55,1.55 0 0 1 -1.067,-0.534l-60.244,-58.264a12.324,12.324 0 0 1 0,-19.708l60.244,-58.282" fill="#ed1c24"/>
    <path d="m696.426,0c-23.58,0 -32.79,33.427 -32.79,73.274c0,39.846 9.21,72.843 32.79,72.843c14.149,0 26.215,-8.297 26.266,-15.113a5.766,5.766 0 0 0 -1.824,-4.165c-6.713,-6.472 -9.33,-12.961 -9.364,-18.676c0,-10.912 9.433,-19.037 18.16,-19.037c12.048,0 19.07,9.433 19.07,21.636c0,11.567 -4.939,21.223 -10.327,28.935a1.721,1.721 0 0 0 -0.31,0.98a0.981,0.981 0 0 0 0.896,1.102a1.721,1.721 0 0 0 1.118,-0.585l60.244,-58.264a12.324,12.324 0 0 0 0,-19.709l-60.244,-58.281a1.721,1.721 0 0 0 -1.118,-0.585c-0.551,0 -0.895,0.499 -0.895,1.119a1.721,1.721 0 0 0 0.31,0.98c5.353,7.712 10.327,17.35 10.327,28.918c0,12.203 -7.074,21.653 -19.071,21.653c-8.727,0 -18.194,-8.142 -18.16,-19.054c0,-5.698 2.651,-12.187 9.364,-18.676a5.783,5.783 0 0 0 1.824,-4.165c0,-6.885 -12.048,-15.113 -26.266,-15.113m-616,97.922a17.212,17.212 0 0 1 7.177,-14.32a30.397,30.397 0 0 1 18.108,-5.164a33.754,33.754 0 0 1 12.513,2.237l0,-6.885c-0.103,-6.885 -2.702,-10.775 -10.43,-10.86a26.817,26.817 0 0 0 -7.316,1.273a12.341,12.341 0 0 1 0.413,2.978a8.899,8.899 0 0 1 -2.117,5.972a7.728,7.728 0 0 1 -5.92,2.513a7.9,7.9 0 0 1 -7.815,-8.004c0.103,-8.348 10.224,-13.959 23.753,-13.976c10.74,0 17.47,2.547 21.085,7.178c3.27,4.165 3.443,10.224 3.443,18.796l0,22.376c0,4.32 2.513,5.49 7.883,6.334l0.62,0l0,0.62c-0.31,5.886 -4.648,8.33 -9.295,8.692l-1.205,0a11.842,11.842 0 0 1 -11.085,-6.885a28.521,28.521 0 0 1 -17.763,6.885c-12.48,0 -21.963,-8.434 -21.98,-19.967m383.15,17.058a16.163,16.163 0 0 1 -2.238,-5.8c-0.62,0.705 -1.343,1.445 -2.461,2.512a22.376,22.376 0 0 1 -15.492,6.128a20.173,20.173 0 0 1 -15.698,-6.713c-5.456,-6.523 -5.421,-14.785 -5.421,-26.524l0,-11.309c-0.12,-4.578 -1.55,-6.145 -5.801,-6.248a16.386,16.386 0 0 0 -1.721,0.103l-0.5,0l-0.189,-0.482a6.592,6.592 0 0 1 -0.499,-2.444c0.138,-5.473 7.057,-8.4 11.12,-9.243a27.764,27.764 0 0 1 4.061,-0.447a8.847,8.847 0 0 1 7.299,2.977a11.911,11.911 0 0 1 2.151,7.608l-0.103,19.313c0,7.126 0.499,12.462 2.083,15.904c1.583,3.443 4.01,5.009 8.45,5.043a10.327,10.327 0 0 0 9.623,-5.163a22.531,22.531 0 0 0 2.547,-11.326l0,-15.63c-0.12,-4.578 -1.566,-6.144 -5.8,-6.247a16.06,16.06 0 0 0 -1.722,0.103l-0.516,0l-0.19,-0.482a6.592,6.592 0 0 1 -0.62,-2.186c0.139,-5.474 7.058,-8.4 11.137,-9.243a27.643,27.643 0 0 1 4.063,-0.448a8.899,8.899 0 0 1 7.315,2.978a11.808,11.808 0 0 1 2.169,7.608c0,2.22 -0.207,6.145 -0.207,22.6c0,6.885 -0.12,10.655 -0.12,11.773c0.103,4.734 1.72,6.885 6.093,6.885l1.997,0l0.189,0.482a6.437,6.437 0 0 1 0.499,2.376c-0.172,5.336 -7.109,7.487 -11.137,8.279a26.645,26.645 0 0 1 -3.804,0.43a7.47,7.47 0 0 1 -6.523,-2.926m-219.545,-28.211a34.132,34.132 0 0 1 8.606,-23.77a30.466,30.466 0 0 1 22.755,-9.347a24.786,24.786 0 0 1 18.934,7.677a23.598,23.598 0 0 1 6.11,15.766a17.729,17.729 0 0 1 -2.066,8.607l-0.189,0.344l-37.936,0c0.637,11.067 7.677,18.813 19.95,18.934a20.655,20.655 0 0 0 15.301,-6.627l0.413,-0.517l0.534,0.396a5.611,5.611 0 0 1 2.255,4.975c0,6.386 -7.522,14.561 -24.098,14.561a30.57,30.57 0 0 1 -30.57,-30.982m134.826,30.896a30.982,30.982 0 0 1 -22.066,-8.847a32.187,32.187 0 0 1 -9.175,-23.254a31.464,31.464 0 0 1 31.775,-31.895a31.086,31.086 0 0 1 22.496,8.779a32.187,32.187 0 0 1 -23.013,55.08l-0.017,0.137zm116.58,-1.859c-2.65,-0.722 -4.354,-2.168 -4.337,-4.354a6.765,6.765 0 0 1 0.723,-2.772l0.137,-0.31l0.327,0a9.949,9.949 0 0 0 4.149,-1.875c1.583,-1.291 2.186,-3.099 2.186,-8.176l0,-25.664c-0.12,-4.303 -1.102,-5.8 -4.682,-5.904a15.491,15.491 0 0 0 -2.84,0.31l-0.551,0.103l-0.207,-0.516a7.556,7.556 0 0 1 -0.55,-2.737c0.086,-5.164 5.68,-7.746 9.432,-8.916a14.562,14.562 0 0 1 4.234,-0.689c5.164,0 7.884,3.667 9.054,8.383c3.34,-5.491 8.606,-9.123 13.925,-9.14c4.94,0 9.897,3.236 9.914,9.363a8.606,8.606 0 0 1 -8.193,8.934a7.883,7.883 0 0 1 -7.883,-6.197c-2.892,0.947 -6.988,4.596 -7.023,17.213l0,15.49c0,5.06 0.723,6.885 2.152,8.159a15.732,15.732 0 0 0 5.56,1.876l0.326,0l0.138,0.31a7.315,7.315 0 0 1 0.792,2.995c0,2.065 -1.532,3.442 -4.01,4.165a42.36,42.36 0 0 1 -11.154,1.016a45.269,45.269 0 0 1 -11.619,-1.068m-184.173,0c-2.651,-0.722 -4.372,-2.186 -4.372,-4.372a6.61,6.61 0 0 1 0.705,-2.754l0.138,-0.31l0.344,0a10.327,10.327 0 0 0 4.2,-1.858c1.532,-1.308 2.152,-3.116 2.186,-8.176l0,-33.701l-9.02,-0.31l-0.154,-0.396a8.21,8.21 0 0 1 -0.689,-3.167a5.422,5.422 0 0 1 5.698,-5.456l3.907,0l0,-3.718c0,-8.985 1.721,-14.097 3.959,-17.523c3.442,-5.456 9.622,-9.208 18.934,-9.208c11.687,0 21.498,5.439 21.55,14.183a8.21,8.21 0 0 1 -8.142,8.486a8.038,8.038 0 0 1 -7.918,-7.815a8.382,8.382 0 0 1 1.343,-4.44a9.346,9.346 0 0 0 -5.818,-1.722c-3.632,0 -5.611,1.274 -6.885,3.356a17.212,17.212 0 0 0 -1.721,8.607l0,9.656l15.491,0l0.172,0.413a8.296,8.296 0 0 1 0.672,3.236a5.99,5.99 0 0 1 -5.405,6.162a34.287,34.287 0 0 1 -3.443,0.12c-2.582,0 -5.163,-0.189 -7.022,-0.223l0,33.323c0,5.043 0.843,6.885 2.375,8.159c1.532,1.274 5.164,1.721 6.317,1.876l0.327,0l0.138,0.327a6.128,6.128 0 0 1 0.637,2.547c0,2.307 -1.877,3.753 -4.717,4.527a47.782,47.782 0 0 1 -12.152,1.12a45.475,45.475 0 0 1 -11.67,-1.068m-108.094,0c-2.634,-0.723 -4.338,-2.169 -4.32,-4.355a6.885,6.885 0 0 1 0.722,-2.754l0.138,-0.31l0.344,0a10.327,10.327 0 0 0 4.2,-1.859c1.532,-1.308 2.169,-3.115 2.186,-8.175l0,-25.578c-0.12,-4.303 -1.136,-5.8 -4.699,-5.904a15.491,15.491 0 0 0 -2.84,0.31l-0.55,0.103l-0.207,-0.516a7.384,7.384 0 0 1 -0.568,-2.789c0.086,-5.164 5.68,-7.694 9.467,-8.864a14.252,14.252 0 0 1 4.165,-0.689c5.164,0 7.918,3.615 9.123,8.262c3.442,-5.422 8.71,-9.002 13.959,-9.036c4.871,0 9.88,3.218 9.897,9.346a8.606,8.606 0 0 1 -8.262,8.933a7.797,7.797 0 0 1 -7.814,-6.196c-2.926,0.964 -7.075,4.596 -7.126,17.212l0,15.492c0,5.06 0.757,6.885 2.272,8.158a14.975,14.975 0 0 0 5.542,1.876l0.327,0l0.155,0.31a7.264,7.264 0 0 1 0.758,2.96c0,2.066 -1.532,3.443 -4.028,4.183a42.6,42.6 0 0 1 -11.188,1.033a45.2,45.2 0 0 1 -11.619,-1.067m-51.086,0c-2.634,-0.723 -4.32,-2.169 -4.32,-4.355a6.782,6.782 0 0 1 0.705,-2.754l0.138,-0.31l0.344,0a10.327,10.327 0 0 0 4.2,-1.858c1.532,-1.309 2.169,-3.116 2.186,-8.176l0,-25.664c-0.138,-4.303 -1.136,-5.8 -4.716,-5.904a15.491,15.491 0 0 0 -2.84,0.31l-0.551,0.103l-0.207,-0.516a7.384,7.384 0 0 1 -0.568,-2.789c0.086,-5.164 5.68,-7.694 9.467,-8.864a14.2,14.2 0 0 1 4.148,-0.689c5.164,0 7.918,3.615 9.123,8.245c3.442,-5.405 8.71,-8.985 13.96,-9.02c4.87,0 9.896,3.22 9.914,9.364a8.606,8.606 0 0 1 -8.262,8.934a7.814,7.814 0 0 1 -7.815,-6.197c-2.926,0.964 -7.074,4.596 -7.109,17.213l0,15.49c0,5.061 0.74,6.886 2.272,8.16a14.906,14.906 0 0 0 5.543,1.876l0.344,0l0.138,0.31a7.23,7.23 0 0 1 0.774,2.96c0,2.066 -1.549,3.443 -4.045,4.183a42.566,42.566 0 0 1 -11.188,1.032a45.252,45.252 0 0 1 -11.618,-1.067m213.022,-31.963c0,16.782 7.332,24.011 14.492,24.097c8.176,0 14.097,-7.23 14.15,-21.36c0,-7.385 -1.636,-13.289 -4.304,-17.213a12.445,12.445 0 0 0 -10.517,-6.128c-8.503,0 -13.77,7.694 -13.77,20.759m-256.758,3.545c-6.748,0 -11.275,3.236 -11.31,9.502c0,5.92 4.029,9.897 10.328,9.931a14.545,14.545 0 0 0 10.861,-5.49l0,-8.607a4.39,4.39 0 0 0 -2.444,-3.442a14.235,14.235 0 0 0 -7.435,-1.722m174.569,-10.155c1.204,0 1.531,-0.293 1.72,-0.688a5.164,5.164 0 0 0 0.293,-2.238a11.377,11.377 0 0 0 -11.635,-11.223c-8.796,0 -12.359,7.04 -12.91,14.15l22.463,0l0.069,-0.001zm-270.856,29.09c-7.42,-7.61 -12.204,-18.729 -12.204,-32.568a46.8,46.8 0 0 1 12.049,-32.273a37.867,37.867 0 0 1 27.695,-12.392c18.779,0 32.032,13.167 32.101,24.528c0,6.076 -3.855,10.775 -9.054,10.792a9.76,9.76 0 0 1 -6.73,-2.548a9.432,9.432 0 0 1 -2.857,-7.057a10.327,10.327 0 0 1 3.184,-7.246c-2.547,-4.355 -7.435,-7.797 -15.095,-7.797c-6.506,0 -12.049,3.442 -15.939,9.329c-3.89,5.886 -6.282,14.475 -6.282,24.58s2.427,18.571 6.489,24.492c4.062,5.922 9.656,9.278 16.162,9.295c7.66,0 12.548,-3.442 15.01,-7.814a10.327,10.327 0 0 1 -3.168,-7.212a9.501,9.501 0 0 1 2.858,-7.075a9.794,9.794 0 0 1 6.73,-2.564c5.164,0 9.036,4.682 9.054,10.74c0,11.412 -13.323,24.494 -32.102,24.545a38.866,38.866 0 0 1 -27.918,-11.756m0,0c-7.419,-7.608 -12.204,-18.727 -12.204,-32.566a46.8,46.8 0 0 1 12.049,-32.273a37.867,37.867 0 0 1 27.695,-12.393c18.778,0 32.032,13.167 32.1,24.528c0,6.076 -3.855,10.775 -9.053,10.792a9.76,9.76 0 0 1 -6.73,-2.548a9.432,9.432 0 0 1 -2.857,-7.057a10.327,10.327 0 0 1 3.184,-7.246c-2.53,-4.355 -7.418,-7.797 -15.078,-7.797c-6.506,0 -12.049,3.442 -15.939,9.329c-3.89,5.886 -6.282,14.475 -6.282,24.58s2.427,18.571 6.489,24.492c4.062,5.922 9.656,9.278 16.162,9.295c7.66,0 12.548,-3.442 15.01,-7.814a10.327,10.327 0 0 1 -3.168,-7.212a9.501,9.501 0 0 1 2.858,-7.075a9.794,9.794 0 0 1 6.73,-2.564c5.164,0 9.036,4.682 9.054,10.74c0,11.412 -13.323,24.494 -32.102,24.545a38.866,38.866 0 0 1 -27.918,-11.756m0,0c-7.419,-7.608 -12.204,-18.727 -12.204,-32.566a46.8,46.8 0 0 1 12.049,-32.273a37.867,37.867 0 0 1 27.695,-12.393c18.778,0 32.032,13.167 32.1,24.528c0,6.076 -3.855,10.775 -9.053,10.792a9.76,9.76 0 0 1 -6.73,-2.548a9.432,9.432 0 0 1 -2.857,-7.057a10.327,10.327 0 0 1 3.184,-7.246c-2.53,-4.355 -7.418,-7.797 -15.078,-7.797c-6.506,0 -12.049,3.442 -15.939,9.329c-3.89,5.886 -6.282,14.475 -6.282,24.58s2.427,18.571 6.489,24.492c4.062,5.922 9.656,9.278 16.162,9.295c7.66,0 12.548,-3.442 15.01,-7.814a10.327,10.327 0 0 1 -3.168,-7.212a9.501,9.501 0 0 1 2.858,-7.075a9.794,9.794 0 0 1 6.73,-2.564c5.164,0 9.036,4.682 9.054,10.74c0,11.412 -13.323,24.494 -32.102,24.545a38.866,38.866 0 0 1 -27.918,-11.756" fill="#005bab"/>
   </g>
  </svg>