<svg  id="fndm-gsvcxaupsd" viewBox="0 0.23900000751018524 537.9509887695312 66.81900024414062" xmlns="http://www.w3.org/2000/svg">
   <g xmlns="http://www.w3.org/2000/svg" fill="#CBA637">
    <path d="m14.233,50.623c-0.198,0 -0.249,-0.148 -0.198,-0.348l4.546,-12.164c0.05,-0.197 0.148,-0.445 0.296,-0.445c0.149,0 0.198,0.248 0.247,0.445l4.448,12.215c0.049,0.148 0,0.297 -0.247,0.297l-9.092,0zm10.031,2.459c0.248,0 0.395,0.1 0.494,0.348l3.954,10.48c0.246,0.592 -0.099,1.037 -0.445,1.137c-0.494,0.049 -0.691,0.145 -0.691,0.434c0,0.34 0.592,0.34 1.483,0.387c3.953,0.096 7.559,0.096 9.338,0.096c1.829,0 2.275,-0.096 2.275,-0.482c0,-0.336 -0.248,-0.385 -0.644,-0.385c-0.593,0 -1.333,-0.049 -2.075,-0.197c-1.037,-0.248 -2.47,-0.939 -4.349,-5.389c-3.163,-7.511 -11.069,-27.679 -12.256,-30.4c-0.494,-1.137 -0.791,-1.582 -1.235,-1.582c-0.494,0 -0.791,0.543 -1.384,1.978l-12.404,31.04c-0.988,2.473 -1.927,4.152 -4.2,4.449c-0.396,0.051 -1.087,0.1 -1.532,0.1c-0.395,0 -0.593,0.095 -0.593,0.384c0,0.387 0.297,0.482 0.939,0.482c2.569,0 5.288,-0.143 5.831,-0.143c1.532,0 3.657,0.143 5.238,0.143c0.543,0 0.84,-0.096 0.84,-0.482c0,-0.289 -0.148,-0.385 -0.74,-0.385l-0.742,0c-1.532,0 -1.978,-0.643 -1.978,-1.533c0,-0.592 0.248,-1.779 0.743,-3.016l2.668,-7.068c0.098,-0.297 0.198,-0.396 0.444,-0.396l11.021,0zm29.769,-1.443c0,6.33 0,9.742 1.04,10.633c0.842,0.742 2.13,1.088 5.992,1.088c2.625,0 4.556,-0.051 5.794,-1.385c0.593,-0.643 1.188,-2.027 1.288,-2.969c0.049,-0.443 0.148,-0.74 0.543,-0.734c0.347,0 0.395,0.248 0.395,0.84c0,0.545 -0.346,4.254 -0.741,5.688c-0.297,1.068 -0.545,1.312 -3.12,1.312c-7.13,0 -10.399,-0.291 -14.389,-0.291c-1.132,0 -4.238,0.143 -6.217,0.143c-0.643,0 -0.988,-0.143 -0.988,-0.482c0,-0.24 0.197,-0.385 0.791,-0.385c0.742,0 1.335,-0.1 1.78,-0.197c0.989,-0.199 1.236,-1.287 1.435,-2.719c0.247,-2.078 0.247,-5.984 0.247,-10.535l0,-8.703c0,-7.516 0,-8.9 -0.099,-10.483c-0.099,-1.682 -0.495,-2.473 -2.127,-2.819c-0.395,-0.099 -0.988,-0.148 -1.632,-0.148c-0.543,0 -0.841,-0.096 -0.841,-0.435c0,-0.337 0.347,-0.434 1.088,-0.434c2.325,0 5.431,0.145 6.76,0.145c1.181,0 4.784,-0.145 6.715,-0.145c0.694,0 1.04,0.097 1.04,0.434c0,0.338 -0.297,0.435 -0.892,0.435c-0.544,0 -1.337,0.05 -1.931,0.148c-1.337,0.248 -1.733,1.088 -1.833,2.819c-0.099,1.583 -0.099,2.967 -0.099,10.483l0,8.696l0.001,0zm29.989,-0.034c0,4.754 0,8.469 0.248,10.549c0.148,1.438 0.445,2.525 1.928,2.725c0.693,0.098 1.78,0.197 2.473,0.217c0.643,0 0.841,0.145 0.841,0.385c0,0.34 -0.347,0.482 -1.089,0.482c-3.115,0 -6.228,-0.143 -7.512,-0.143c-1.285,0 -4.397,0.143 -6.277,0.143c-0.692,0 -1.039,-0.096 -1.039,-0.482c0,-0.24 0.198,-0.385 0.742,-0.385c0.742,0 1.335,-0.1 1.781,-0.217c0.987,-0.199 1.235,-1.285 1.434,-2.719c0.247,-2.074 0.247,-5.781 0.247,-10.527l0,-8.697c0,-7.514 0,-8.897 -0.099,-10.479c-0.099,-1.68 -0.494,-2.471 -2.127,-2.817c-0.396,-0.098 -1.236,-0.148 -1.929,-0.148c-0.494,0 -0.84,-0.096 -0.84,-0.373c0,-0.396 0.396,-0.494 1.138,-0.494c2.572,0 5.685,0.148 7.117,0.148c1.877,0 11.914,0 13.088,-0.054c0.939,-0.048 1.533,-0.048 2.033,-0.196c0.3,-0.099 0.548,-0.297 0.796,-0.297c0.197,0 0.346,0.198 0.346,0.445c0,0.337 -0.247,0.918 -0.396,2.205c-0.049,0.494 -0.148,3.412 -0.248,4.029c-0.05,0.395 -0.15,0.691 -0.5,0.691s-0.45,-0.246 -0.5,-0.791c0,-0.395 0,-1.186 -0.297,-1.878c-0.346,-0.693 -1.384,-1.435 -3.263,-1.484l-7.652,-0.148c-0.297,0 -0.445,0.148 -0.445,0.689l0,12.311c0,0.295 0.049,0.441 0.347,0.441l6.336,-0.049c0.841,0 1.534,0 2.226,-0.049c0.941,-0.049 1.633,-0.246 2.115,-0.887c0.242,-0.297 0.338,-0.492 0.635,-0.492c0.198,0 0.297,0.148 0.297,0.443c0,0.295 -0.247,1.525 -0.396,3.051c-0.099,0.988 -0.198,3.262 -0.198,3.609c0,0.443 0,0.939 -0.482,0.939c-0.29,0 -0.386,-0.348 -0.386,-0.693s-0.099,-0.939 -0.296,-1.531c-0.249,-0.693 -0.991,-1.584 -2.525,-1.781c-1.237,-0.148 -6.483,-0.148 -7.324,-0.148c-0.249,0 -0.348,0.1 -0.348,0.445l0,4.012zm25.994,-0.982c-0.198,0 -0.247,-0.148 -0.198,-0.348l4.547,-12.164c0.049,-0.197 0.147,-0.445 0.296,-0.445c0.147,0 0.198,0.248 0.247,0.445l4.448,12.215c0.049,0.148 0,0.297 -0.247,0.297l-9.093,0zm10.031,2.459c0.247,0 0.396,0.1 0.494,0.348l3.954,10.48c0.246,0.592 -0.1,1.037 -0.445,1.137c-0.494,0.049 -0.692,0.145 -0.692,0.434c0,0.34 0.593,0.34 1.483,0.387a382.8,382.8 0 0 0 9.339,0.096c1.828,0 2.274,-0.096 2.274,-0.482c0,-0.336 -0.248,-0.385 -0.644,-0.385c-0.593,0 -1.334,-0.049 -2.075,-0.197c-1.038,-0.248 -2.472,-0.939 -4.349,-5.389c-3.163,-7.51 -11.07,-27.678 -12.255,-30.398c-0.494,-1.137 -0.791,-1.582 -1.236,-1.582c-0.493,0 -0.791,0.543 -1.384,1.978l-12.402,31.04c-0.99,2.473 -1.928,4.152 -4.201,4.449c-0.395,0.051 -1.087,0.1 -1.532,0.1c-0.395,0 -0.593,0.096 -0.593,0.385c0,0.387 0.297,0.482 0.939,0.482c2.569,0 5.287,-0.143 5.831,-0.143c1.533,0 3.657,0.143 5.239,0.143c0.543,0 0.839,-0.096 0.839,-0.482c0,-0.289 -0.148,-0.385 -0.741,-0.385l-0.741,0c-1.532,0 -1.977,-0.643 -1.977,-1.533c0,-0.592 0.248,-1.779 0.741,-3.016l2.668,-7.068c0.099,-0.297 0.198,-0.396 0.445,-0.396l11.021,0l0,-0.003zm100.583,-0.777c0,4.676 0,8.328 0.244,10.375c0.146,1.412 0.438,2.482 1.896,2.678c0.806,0.11 1.618,0.182 2.431,0.213c0.633,0 0.828,0.143 0.828,0.381c0,0.332 -0.341,0.475 -1.071,0.475c-3.063,0 -6.125,-0.143 -7.388,-0.143s-4.325,0.143 -6.172,0.143c-0.681,0 -1.021,-0.096 -1.021,-0.475c0,-0.238 0.195,-0.381 0.729,-0.381c0.729,0 1.313,-0.096 1.75,-0.213c0.974,-0.193 1.216,-1.264 1.411,-2.674c0.243,-2.041 0.243,-5.686 0.243,-10.352l0,-8.555c0,-7.387 0,-8.748 -0.097,-10.304c-0.098,-1.652 -0.486,-2.43 -2.091,-2.771c-0.389,-0.097 -1.216,-0.146 -1.896,-0.146c-0.487,0 -0.827,-0.095 -0.827,-0.366c0,-0.389 0.389,-0.486 1.119,-0.486c2.528,0 5.59,0.146 6.998,0.146c1.847,0 11.717,0 12.872,-0.052c0.925,-0.048 1.508,-0.048 1.999,-0.192c0.296,-0.098 0.541,-0.292 0.783,-0.292c0.195,0 0.341,0.194 0.341,0.437c0,0.333 -0.243,0.904 -0.389,2.168c-0.048,0.486 -0.146,3.355 -0.244,3.961c-0.049,0.391 -0.146,0.682 -0.491,0.682c-0.344,0 -0.442,-0.242 -0.491,-0.777c0,-0.389 0,-1.168 -0.292,-1.849c-0.34,-0.681 -1.362,-1.411 -3.209,-1.458l-7.526,-0.146c-0.292,0 -0.438,0.146 -0.438,0.679l0,12.105c0,0.291 0.049,0.438 0.341,0.438l6.23,-0.049c0.828,0 1.51,0 2.191,-0.049c0.925,-0.049 1.605,-0.242 2.08,-0.871c0.237,-0.291 0.331,-0.484 0.623,-0.484c0.195,0 0.292,0.145 0.292,0.436c0,0.291 -0.243,1.5 -0.389,3.002c-0.097,0.971 -0.195,3.207 -0.195,3.547c0,0.438 0,0.924 -0.474,0.924c-0.285,0 -0.379,-0.34 -0.379,-0.68s-0.098,-0.926 -0.292,-1.508c-0.243,-0.682 -0.974,-1.557 -2.482,-1.75c-1.217,-0.146 -6.376,-0.146 -7.203,-0.146c-0.244,0 -0.342,0.098 -0.342,0.438l0,3.941l-0.002,0zm21.703,-8.502c0,-7.393 0,-8.754 -0.097,-10.309c-0.097,-1.654 -0.583,-2.48 -1.653,-2.724c-0.535,-0.146 -1.167,-0.194 -1.751,-0.214c-0.486,0 -0.777,-0.095 -0.777,-0.474c0,-0.285 0.388,-0.38 1.165,-0.379c1.849,0 4.914,0.142 6.326,0.142c1.217,0 4.087,-0.142 5.936,-0.143c0.632,0 1.021,0.096 1.021,0.38c0,0.379 -0.292,0.474 -0.778,0.474c-0.485,0 -0.875,0.05 -1.458,0.146c-1.313,0.243 -1.702,1.07 -1.799,2.771c-0.097,1.556 -0.097,2.917 -0.097,10.304l0,8.555c0,4.715 0,8.555 0.194,10.645c0.146,1.312 0.486,2.188 1.945,2.381c0.681,0.098 1.75,0.195 2.48,0.213c0.534,0 0.777,0.143 0.777,0.381c0,0.332 -0.389,0.475 -0.924,0.475c-3.209,0 -6.275,-0.143 -7.589,-0.143c-1.12,0 -4.185,0.143 -6.131,0.143c-0.632,0 -0.973,-0.143 -0.973,-0.475c0,-0.238 0.195,-0.381 0.779,-0.381c0.729,0 1.312,-0.096 1.75,-0.213c0.973,-0.193 1.264,-1.021 1.41,-2.432c0.243,-2.041 0.243,-5.883 0.243,-10.582l0,-8.541l0.001,0zm23.705,16.029c0.098,3.795 0.73,5.059 1.703,5.398c0.826,0.293 1.75,0.34 2.529,0.34c0.534,0 0.827,0.096 0.812,0.381c0,0.379 -0.438,0.475 -1.119,0.475c-3.162,0 -5.1,-0.143 -6.016,-0.143c-0.433,0 -2.709,0.143 -5.238,0.143c-0.632,0 -1.07,-0.049 -1.07,-0.475c0,-0.285 0.292,-0.381 0.779,-0.381c0.632,0 1.507,-0.047 2.188,-0.242c1.264,-0.389 1.458,-1.799 1.507,-6.029l0.438,-28.791c0,-0.952 0.145,-1.633 0.626,-1.633c0.529,0 0.963,0.632 1.782,1.492c0.577,0.627 7.971,8.555 15.076,15.605c3.309,3.307 9.878,10.311 10.706,11.088l0.243,0l-0.487,-21.836c-0.049,-2.965 -0.486,-3.89 -1.654,-4.376c-0.73,-0.292 -1.897,-0.292 -2.579,-0.292c-0.584,0 -0.778,-0.143 -0.778,-0.427c0,-0.38 0.535,-0.428 1.265,-0.427c2.531,0 4.868,0.142 5.891,0.142c0.536,0 2.385,-0.142 4.769,-0.143c0.632,0 1.118,0.048 1.118,0.428c0,0.284 -0.292,0.427 -0.876,0.427c-0.486,0 -0.875,0 -1.459,0.146c-1.361,0.389 -1.751,1.411 -1.799,4.133l-0.535,30.688c0,1.049 -0.195,1.486 -0.634,1.486c-0.535,0 -1.12,-0.537 -1.656,-1.059c-3.066,-2.908 -9.295,-9.279 -14.355,-14.289c-5.304,-5.252 -10.705,-11.33 -11.579,-12.254l-0.145,0l0.547,20.425zm44.783,-8.494c-0.194,0 -0.244,-0.146 -0.194,-0.342l4.471,-11.963c0.049,-0.193 0.146,-0.438 0.292,-0.438s0.194,0.244 0.242,0.438l4.375,12.012c0.048,0.146 0,0.293 -0.244,0.293l-8.942,0zm9.865,2.42c0.244,0 0.39,0.098 0.487,0.34l3.887,10.307c0.243,0.584 -0.097,1.021 -0.437,1.119c-0.486,0.047 -0.681,0.143 -0.681,0.428c0,0.332 0.582,0.332 1.458,0.379c3.888,0.096 7.436,0.096 9.185,0.096c1.799,0 2.237,-0.096 2.237,-0.475c0,-0.332 -0.245,-0.381 -0.634,-0.381c-0.583,0 -1.312,-0.047 -2.041,-0.193c-1.021,-0.244 -2.429,-0.924 -4.276,-5.299c-3.11,-7.387 -10.886,-27.22 -12.052,-29.895c-0.486,-1.119 -0.778,-1.557 -1.215,-1.557c-0.486,0 -0.778,0.536 -1.361,1.946l-12.198,30.525c-0.971,2.432 -1.895,4.084 -4.13,4.377c-0.389,0.049 -1.069,0.096 -1.507,0.096c-0.389,0 -0.584,0.096 -0.584,0.381c0,0.379 0.293,0.475 0.925,0.475c2.525,0 5.199,-0.143 5.734,-0.143c1.506,0 3.596,0.143 5.15,0.143c0.534,0 0.826,-0.096 0.826,-0.475c0,-0.285 -0.146,-0.381 -0.729,-0.381l-0.729,0c-1.508,0 -1.944,-0.631 -1.944,-1.506c0,-0.584 0.243,-1.75 0.729,-2.967l2.624,-6.951c0.097,-0.291 0.194,-0.389 0.437,-0.389l10.839,0zm26.418,6.074c0.097,3.795 0.729,5.059 1.701,5.398c0.827,0.293 1.751,0.34 2.529,0.34c0.535,0 0.827,0.096 0.812,0.381c0,0.379 -0.438,0.475 -1.119,0.475c-3.162,0 -5.1,-0.143 -6.016,-0.143c-0.433,0 -2.709,0.143 -5.238,0.143c-0.632,0 -1.07,-0.049 -1.07,-0.475c0,-0.285 0.293,-0.381 0.779,-0.381c0.632,0 1.508,-0.047 2.188,-0.242c1.266,-0.389 1.46,-1.799 1.508,-6.029l0.438,-28.791c0,-0.952 0.145,-1.633 0.627,-1.633c0.529,0 0.963,0.632 1.781,1.492c0.579,0.627 7.972,8.555 15.077,15.605c3.308,3.307 9.877,10.311 10.705,11.088l0.243,0l-0.487,-21.836c-0.049,-2.965 -0.486,-3.89 -1.653,-4.376c-0.731,-0.292 -1.898,-0.292 -2.58,-0.292c-0.583,0 -0.778,-0.143 -0.778,-0.427c0,-0.38 0.535,-0.428 1.265,-0.427c2.53,0 4.867,0.142 5.891,0.142c0.536,0 2.385,-0.142 4.769,-0.143c0.632,0 1.118,0.048 1.118,0.428c0,0.284 -0.292,0.427 -0.875,0.427c-0.486,0 -0.875,0 -1.459,0.146c-1.361,0.389 -1.75,1.411 -1.799,4.133l-0.535,30.688c0,1.049 -0.195,1.486 -0.634,1.486c-0.536,0 -1.121,-0.537 -1.656,-1.059c-3.067,-2.908 -9.296,-9.279 -14.356,-14.289c-5.304,-5.252 -10.705,-11.33 -11.579,-12.254l-0.145,0l0.548,20.425zm40.685,2.02c-4.749,-4.182 -6.008,-9.629 -6.008,-14.344c0,-3.309 1.018,-9.047 5.67,-13.326c3.498,-3.203 8.122,-5.121 15.374,-5.121c3.018,0 4.818,0.192 7.058,0.48c1.849,0.239 3.406,0.67 4.865,0.814c0.534,0.048 0.729,0.287 0.729,0.575c0,0.384 -0.146,0.966 -0.243,2.668c-0.097,1.604 -0.048,4.278 -0.146,5.253c-0.048,0.729 -0.145,1.117 -0.582,1.117c-0.387,0 -0.484,-0.389 -0.484,-1.07a6.95,6.95 0 0 0 -1.899,-4.473c-1.606,-1.703 -5.402,-3.016 -9.911,-3.016c-4.225,0 -6.992,1.068 -9.13,3.006c-3.544,3.248 -4.467,7.852 -4.467,12.555c0,11.535 8.789,17.254 15.296,17.254c4.322,0 6.944,-0.484 8.887,-2.713c0.825,-0.922 1.456,-2.326 1.651,-3.199c0.146,-0.775 0.243,-0.969 0.631,-0.969c0.339,0 0.437,0.338 0.437,0.727c0,0.582 -0.582,4.799 -1.067,6.449c-0.243,0.83 -0.438,1.074 -1.264,1.416c-1.942,0.781 -5.633,1.123 -8.704,1.123c-6.67,0.001 -12.267,-1.464 -16.693,-5.206zm35.731,-18.069c0,-7.391 0,-8.752 -0.098,-10.31c-0.098,-1.652 -0.486,-2.431 -2.091,-2.771c-0.39,-0.098 -1.216,-0.146 -1.896,-0.146c-0.536,0 -0.827,-0.095 -0.827,-0.421c0,-0.338 0.341,-0.436 1.069,-0.436c2.578,0 5.64,0.146 7,0.146c1.554,0 11.246,0 12.173,-0.048c0.925,-0.098 1.706,-0.195 2.095,-0.292c0.243,-0.049 0.534,-0.194 0.777,-0.194s0.293,0.194 0.293,0.438c0,0.339 -0.244,0.92 -0.39,3.149c-0.048,0.486 -0.146,2.625 -0.243,3.21c-0.049,0.242 -0.146,0.533 -0.486,0.533c-0.34,0 -0.438,-0.244 -0.438,-0.68c0,-0.342 -0.049,-1.168 -0.293,-1.752c-0.341,-0.875 -0.828,-1.458 -3.265,-1.75c-0.828,-0.097 -5.944,-0.194 -6.921,-0.194c-0.242,0 -0.341,0.146 -0.341,0.486l0,12.289c0,0.34 0.05,0.533 0.341,0.533c1.068,0 6.656,0 7.773,-0.098c1.166,-0.096 1.896,-0.242 2.324,-0.727c0.333,-0.389 0.522,-0.633 0.771,-0.633c0.199,0 0.347,0.098 0.347,0.389c0,0.291 -0.248,1.068 -0.396,3.537a57.526,57.526 0 0 0 -0.198,3.258c0,0.389 0,0.924 -0.427,0.924c-0.332,0 -0.428,-0.193 -0.428,-0.438c-0.049,-0.486 -0.049,-1.119 -0.193,-1.75c-0.244,-0.973 -0.924,-1.701 -2.722,-1.896c-0.923,-0.098 -5.733,-0.146 -6.899,-0.146c-0.242,0 -0.292,0.195 -0.292,0.486l0,3.842c0,1.652 -0.048,6.125 0,7.535c0.099,3.354 0.875,4.082 5.831,4.082c1.263,0 3.304,0 4.561,-0.584c1.264,-0.582 1.859,-1.604 2.207,-3.596c0.098,-0.535 0.194,-0.73 0.535,-0.711c0.389,0 0.389,0.389 0.389,0.875c0,1.121 -0.389,4.432 -0.633,5.406c-0.342,1.244 -0.787,1.244 -2.641,1.244c-7.333,0 -10.588,-0.289 -13.455,-0.289c-1.116,0 -4.178,0.143 -6.123,0.143c-0.633,0 -0.973,-0.143 -0.973,-0.475c0,-0.238 0.194,-0.381 0.778,-0.381c0.729,0 1.313,-0.096 1.75,-0.193c0.974,-0.195 1.217,-1.266 1.411,-2.678c0.243,-2.047 0.243,-5.893 0.243,-10.373l0,-8.543l0.001,0zm30.74,0.02c0,-7.393 0,-8.754 -0.098,-10.309c-0.097,-1.654 -0.583,-2.48 -1.653,-2.724c-0.535,-0.146 -1.167,-0.194 -1.751,-0.214c-0.486,0 -0.778,-0.095 -0.778,-0.474c0,-0.285 0.39,-0.38 1.168,-0.379c1.848,0 4.912,0.142 6.324,0.142c1.218,0 4.088,-0.142 5.936,-0.143c0.633,0 1.021,0.096 1.021,0.38c0,0.379 -0.292,0.474 -0.777,0.474c-0.486,0 -0.876,0.05 -1.459,0.146c-1.313,0.243 -1.703,1.07 -1.8,2.771c-0.098,1.556 -0.098,2.917 -0.098,10.304l0,8.555c0,4.715 0,8.555 0.194,10.645c0.146,1.312 0.486,2.188 1.945,2.381c0.681,0.098 1.752,0.195 2.481,0.213c0.534,0 0.777,0.143 0.777,0.381c0,0.332 -0.39,0.475 -0.925,0.475c-3.209,0 -6.274,-0.143 -7.589,-0.143c-1.12,0 -4.185,0.143 -6.13,0.143c-0.633,0 -0.973,-0.143 -0.973,-0.475c0,-0.238 0.194,-0.381 0.778,-0.381c0.729,0 1.312,-0.096 1.751,-0.213c0.973,-0.193 1.264,-1.021 1.41,-2.432c0.243,-2.041 0.243,-5.883 0.243,-10.582l0,-8.541l0.003,0zm25.3,-10.947c0,-0.39 0.097,-0.584 0.436,-0.682c0.484,-0.146 1.354,-0.195 2.564,-0.195c2.855,0 7.404,1.994 7.404,8.898c0,3.986 -1.403,6.223 -2.855,7.293c-0.871,0.631 -1.5,0.826 -3.436,0.826c-1.21,0 -2.662,-0.146 -3.678,-0.486c-0.339,-0.146 -0.436,-0.34 -0.436,-0.875l0,-14.779l0.001,0zm-5.752,19.496c0,4.447 0,8.289 -0.243,10.332c-0.194,1.41 -0.438,2.48 -1.409,2.674a6.788,6.788 0 0 1 -1.752,0.213c-0.583,0 -0.777,0.143 -0.777,0.381c0,0.332 0.341,0.475 0.972,0.475c1.946,0 5.014,-0.143 5.939,-0.143c0.731,0 4.335,0.143 7.156,0.143c0.632,0 0.973,-0.143 0.973,-0.475c0,-0.238 -0.195,-0.381 -0.583,-0.381a28.581,28.581 0 0 1 -2.384,-0.213c-1.458,-0.193 -1.75,-1.262 -1.897,-2.67c-0.242,-2.039 -0.242,-5.873 -0.242,-10.387l0,-0.68c0,-0.291 0.146,-0.389 0.39,-0.389l4.229,0.098c0.342,0 0.633,0.049 0.876,0.34c0.633,0.729 2.869,4.029 4.814,6.699c2.678,3.75 4.53,6.035 6.624,7.154c1.264,0.664 2.479,0.902 5.203,0.902l4.62,0c0.583,0 0.924,-0.096 0.924,-0.475c0,-0.238 -0.195,-0.381 -0.585,-0.381c-0.388,0 -0.825,-0.047 -1.36,-0.145c-0.729,-0.146 -2.723,-0.486 -5.446,-3.307c-2.869,-3.016 -6.229,-7.344 -10.562,-12.791c4.918,-3.986 6.429,-7.295 6.429,-10.893c0,-3.26 -1.949,-5.738 -3.314,-6.663c-2.631,-1.786 -5.872,-2.071 -8.921,-2.071c-1.501,0.001 -5.188,0.143 -6.844,0.143c-1.024,0 -4.092,-0.142 -6.669,-0.142c-0.729,-0.001 -1.07,0.095 -1.07,0.427c0,0.332 0.292,0.427 0.827,0.427c0.68,0 1.508,0.05 1.896,0.146c1.605,0.341 1.995,1.119 2.092,2.771c0.097,1.557 0.097,2.918 0.097,10.309l0,8.572l-0.003,0zm38.144,-1.014c-0.195,0 -0.244,-0.146 -0.195,-0.342l4.472,-11.963c0.048,-0.193 0.146,-0.438 0.291,-0.438s0.194,0.244 0.243,0.438l4.374,12.012c0.049,0.146 0,0.293 -0.242,0.293l-8.943,0zm9.865,2.42c0.242,0 0.388,0.098 0.485,0.34l3.888,10.307c0.243,0.584 -0.097,1.021 -0.438,1.119c-0.485,0.047 -0.68,0.143 -0.68,0.428c0,0.332 0.583,0.332 1.458,0.379c3.888,0.096 7.435,0.096 9.185,0.096c1.798,0 2.236,-0.096 2.236,-0.475c0,-0.332 -0.244,-0.381 -0.633,-0.381c-0.584,0 -1.312,-0.047 -2.041,-0.193c-1.021,-0.244 -2.43,-0.924 -4.276,-5.299c-3.111,-7.387 -10.886,-27.22 -12.052,-29.895c-0.486,-1.119 -0.778,-1.557 -1.216,-1.557c-0.485,0 -0.778,0.536 -1.36,1.946l-12.198,30.525c-0.972,2.432 -1.896,4.084 -4.131,4.377c-0.388,0.049 -1.069,0.096 -1.507,0.096c-0.389,0 -0.583,0.096 -0.583,0.381c0,0.379 0.292,0.475 0.924,0.475c2.527,0 5.2,-0.143 5.734,-0.143c1.507,0 3.597,0.143 5.151,0.143c0.534,0 0.826,-0.096 0.826,-0.475c0,-0.285 -0.146,-0.381 -0.729,-0.381l-0.729,0c-1.506,0 -1.944,-0.631 -1.944,-1.506c0,-0.584 0.243,-1.75 0.729,-2.967l2.624,-6.951c0.098,-0.291 0.194,-0.389 0.438,-0.389l10.839,0z"/>
    <path d="m206.791,65.684l-13.481,0l6.864,-12.35l6.617,12.35zm-12.929,-0.327l6.306,-11.344l6.08,11.344l-12.386,0l0,0zm-0.575,0.323l-13.273,0l6.637,-12.35l6.636,12.35zm-12.73,-0.326l6.093,-11.336l6.093,11.336l-12.186,0l0,0zm-0.571,0.326l-13.273,0l6.636,-12.35l6.637,12.35zm-12.73,-0.326l6.093,-11.336l6.094,11.336l-12.187,0l0,0zm-0.572,0.326l-13.274,0l6.637,-12.35l6.637,12.35l0,0zm-12.73,-0.326l6.094,-11.336l6.093,11.336l-12.187,0l0,0zm-13.996,0.33l13.438,0l-6.82,-12.35l-6.618,12.35zm12.887,-0.327l-6.265,-11.342l-6.08,11.342l12.345,0zm40.676,-24.396l6.637,12.35l-13.5,0l6.863,-12.35zm0.004,-0.676l7.176,13.35l-14.596,0l7.42,-13.35l0,0zm-6.888,13.02l-13.274,0l6.637,-12.348l6.637,12.348l0,0zm-12.731,-0.325l6.094,-11.337l6.094,11.338l-12.188,0l0,-0.001l0,0zm-0.572,0.325l-13.273,0l6.637,-12.348l6.636,12.348zm-12.73,-0.325l6.094,-11.338l6.093,11.338l-12.187,0l0,0zm-7.424,-12.019l-6.637,12.35l13.501,0l-6.864,-12.35zm0.005,0.678l-6.098,11.346l12.405,0l-6.307,-11.346l0,0zm6.649,-13.039l-6.637,12.347l13.5,0l-6.863,-12.347l0,0zm0.005,0.677l-6.099,11.346l12.405,0l-6.306,-11.346l0,0zm27.036,-0.677l6.637,12.347l-13.501,0l6.864,-12.347zm-0.005,0.677l6.098,11.346l-12.404,0l6.306,-11.346l0,0zm-6.884,11.653l-13.273,0l6.636,-12.347l6.637,12.347zm-12.73,-0.325l6.093,-11.336l6.094,11.336l-12.187,0l0,0zm12.971,-24.397l6.636,12.347l-13.5,0l6.864,-12.347zm-0.004,0.677l6.097,11.346l-12.403,0l6.306,-11.346l0,0zm-13.707,-0.677l-6.637,12.347l13.5,0l-6.863,-12.347zm0.004,0.677l-6.098,11.346l12.405,0l-6.307,-11.346zm40.069,48.795l-26.667,-49.615l-13.147,0l-26.666,49.615l33.24,-65.441l33.24,65.441l0,0z" stroke-width="0.216" stroke="#000"/>
   </g>
  </svg>