<svg  id="fndm-yo5pkwbino" viewBox="0 0.045412179082632065 166.9565887451172 34.499324798583984" xmlns="http://www.w3.org/2000/svg">
   <g xmlns="http://www.w3.org/2000/svg" data-name="Layer 2">
    <g data-name="Layer 1">
     <path d="m142.89,17.32l-7.4,7.31m0.06,-14.68l7.34,7.37m13.5,0l7.4,7.31m-0.06,-14.68l-7.34,7.37m-6.78,-6.78l-7.31,-7.4m14.68,0.06l-7.37,7.34m0,13.5l-7.31,7.4m14.68,-0.06l-7.37,-7.34" stroke-width="1.5" stroke="#80bc00" fill="none"/>
     <path d="m10.25,27.87l-4.25,0l0,-17.26l-6,0l0,-3.84l16.46,0l0,3.84l-6.21,0l0,17.26zm26.51,0l-4.24,0l0,-3.95c0,-2.06 -1,-3.06 -3,-3.06l-5.52,0l0,7l-4.28,0l0,-21.09l10.4,0c2.58,0 4.39,0.46 5.37,1.37s1.51,2.56 1.51,4.91a8.83,8.83 0 0 1 -0.75,4.39a4.05,4.05 0 0 1 -2.59,1.56c2.06,0.3 3.1,1.69 3.1,4.13l0,4.74zm-12.76,-10.63l5.52,0a3.56,3.56 0 0 0 2.58,-0.68a4.41,4.41 0 0 0 0.62,-2.8a4.74,4.74 0 0 0 -0.57,-2.76a3.31,3.31 0 0 0 -2.39,-0.6l-5.76,0l0,6.84zm25.54,10.81c-3.86,0 -6.3,-0.62 -7.44,-1.88s-1.7,-3.94 -1.7,-8.17c0,-5 0.54,-8.12 1.66,-9.43s3.78,-2 8.12,-2c3.8,0 6.3,0.65 7.41,1.93s1.66,4.1 1.66,8.5c0,4.84 -0.54,7.82 -1.67,9.1s-3.76,1.95 -8.04,1.95zm0.33,-17.78c-3.22,0 -4.23,0.52 -4.52,1c-0.43,0.65 -0.65,3 -0.65,7c0,2.94 0.26,4.72 0.75,5.3s2,0.86 4.51,0.86s3.83,-0.33 4.28,-1s0.71,-2.72 0.71,-6.15s-0.23,-5.48 -0.67,-6.09c-0.28,-0.43 -1.28,-0.92 -4.41,-0.92zm32.91,17.6l-6.93,0l0,-0.08l-5.98,-11.41c-0.31,-0.6 -0.77,-1.6 -1.39,-3l-1.17,-2.63l0.08,2.31l0,14.81l-4.21,0l0,-21.1l6.93,0l0,0.08l5.45,10.55c0.49,1 1,2.1 1.66,3.4l1.42,3.05l-0.07,-2.27l0,-14.81l4.24,0l-0.03,21.1zm13.07,0.18c-3.86,0 -6.3,-0.62 -7.44,-1.88s-1.7,-3.94 -1.7,-8.19c0,-5 0.54,-8.12 1.66,-9.43s3.78,-2 8.12,-2c3.8,0 6.3,0.65 7.41,1.93s1.66,4.08 1.66,8.52c0,4.84 -0.55,7.82 -1.67,9.1s-3.76,1.95 -8.04,1.95zm0.33,-17.78c-3.22,0 -4.23,0.52 -4.52,1c-0.43,0.65 -0.65,3 -0.65,7c0,2.94 0.26,4.72 0.75,5.3s2,0.86 4.51,0.86s3.83,-0.33 4.28,-1s0.71,-2.72 0.71,-6.15s-0.23,-5.48 -0.67,-6.09c-0.3,-0.43 -1.3,-0.92 -4.41,-0.92zm31.66,17.6l-5,0l-3,-5.07c-0.46,-0.78 -0.9,-1.57 -1.31,-2.36l-0.78,-1.44l-0.35,0.64c-0.53,1 -1.13,2.06 -1.8,3.16l-3,5.07l-5.11,0l6.88,-10.87l-6.43,-10.23l5.06,0l0,0.08l2.78,4.63c0.43,0.72 0.85,1.45 1.23,2.17l0.66,1.26c0.12,-0.22 0.22,-0.4 0.28,-0.53l0.38,-0.72c0.32,-0.62 0.72,-1.33 1.23,-2.17l2.62,-4.72l5,0l-6.09,10.23l6.75,10.87zm16.83,-14.09a4,4 0 1 0 1.77,5.32a4,4 0 0 0 -1.77,-5.32zm9.94,0a4,4 0 1 1 -1.76,5.32a4,4 0 0 1 1.76,-5.32zm-1.45,-1.46a4,4 0 1 0 -5.33,1.77a4,4 0 0 0 5.33,-1.77zm0,9.94a4,4 0 1 1 -5.33,-1.76a4,4 0 0 1 5.33,1.76z" fill="#0f206c"/>
     <path d="m136.9,21.82a3.14,3.14 0 1 0 1.4,4.18a3.14,3.14 0 0 0 -1.4,-4.18zm0.04,-9.05a3.14,3.14 0 1 1 1.43,-4.21a3.16,3.16 0 0 1 -1.43,4.21zm25.44,9.05a3.14,3.14 0 1 1 -1.38,4.18a3.15,3.15 0 0 1 1.38,-4.18zm-0.04,-9.05a3.14,3.14 0 1 0 -1.43,-4.21a3.16,3.16 0 0 0 1.43,4.21zm-17.23,-8.22a3.14,3.14 0 1 0 -4.22,1.45a3.13,3.13 0 0 0 4.22,-1.45zm9.05,0.04a3.14,3.14 0 1 1 4.21,1.41a3.16,3.16 0 0 1 -4.21,-1.41zm-9.05,25.41a3.14,3.14 0 1 1 -4.22,-1.4a3.15,3.15 0 0 1 4.22,1.4zm9.05,0a3.14,3.14 0 1 0 4.21,-1.43a3.16,3.16 0 0 0 -4.21,1.43z" fill="#80bc00"/>
    </g>
   </g>
  </svg>