<svg xmlns="http://www.w3.org/2000/svg" fill-rule="evenodd" clip-rule="evenodd" image-rendering="optimizeQuality" shape-rendering="geometricPrecision" text-rendering="geometricPrecision" viewBox="-2 1 6600 3300"><g><rect width="6600" height="3300" x="-2" y="1" fill="#383780"/><g fill="#fefefe"><path fill-rule="nonzero" d="M1594.93 2657.16l0 34.16c-22.83,12.57 -49.23,18.86 -79.21,18.86 -24.25,0 -44.9,-4.9 -61.83,-14.7 -16.93,-9.79 -30.33,-23.27 -40.24,-40.47 -9.85,-17.17 -14.81,-35.76 -14.81,-55.76 0,-31.77 11.3,-58.5 33.93,-80.15 22.59,-21.68 50.5,-32.48 83.66,-32.48 22.89,0 48.32,5.96 76.26,17.88l0 33.54c-25.49,-14.49 -50.39,-21.71 -74.73,-21.71 -24.95,0 -45.66,7.87 -62.15,23.69 -16.47,15.75 -24.7,35.48 -24.7,59.23 0,23.96 8.09,43.63 24.31,59.06 16.2,15.4 36.94,23.1 62.19,23.1 26.37,0 52.19,-8.08 77.32,-24.25zm145.23 -170.54c33.66,0 61.66,10.65 83.99,31.98 22.42,21.3 33.6,48.08 33.6,80.15 0,32.16 -11.29,58.77 -33.86,79.8 -22.6,21.06 -51.1,31.63 -85.41,31.63 -32.83,0 -60.15,-10.57 -82.04,-31.63 -21.86,-21.03 -32.77,-47.44 -32.77,-79.15 0,-32.57 11.03,-59.5 33.01,-80.8 22.03,-21.33 49.85,-31.98 83.48,-31.98zm1.18 29.71c-24.89,0 -45.34,7.75 -61.36,23.36 -16.02,15.58 -24.07,35.49 -24.07,59.71 0,23.54 8.05,43.07 24.13,58.65 16.08,15.6 36.2,23.36 60.36,23.36 24.25,0 44.55,-7.9 60.77,-23.83 16.23,-15.91 24.34,-35.73 24.34,-59.39 0,-23.1 -8.11,-42.48 -24.34,-58.23 -16.22,-15.76 -36.2,-23.63 -59.83,-23.63zm327.76 -26.53l29.5 0 0 217.81 -31.3 0 0 -169.45 -66.97 84.19 -5.78 0 -67.76 -84.19 0 169.45 -31.3 0 0 -217.81 30.03 0 72.01 89.48 71.57 -89.48zm74.81 217.81l0 -217.81 69.03 0c20.8,0 37.35,5.61 49.77,16.82 12.33,11.24 18.5,26.31 18.5,45.2 0,12.71 -3.19,23.89 -9.5,33.69 -6.34,9.73 -15.02,16.87 -26.05,21.29 -11,4.43 -26.82,6.61 -47.35,6.61l-23.1 0 0 94.2 -31.3 0zm63.6 -190.02l-32.3 0 0 68.03 34.16 0c12.66,0 22.45,-2.98 29.33,-8.94 6.87,-5.95 10.26,-14.54 10.26,-25.6 0,-22.3 -13.83,-33.49 -41.45,-33.49zm144.77 -29.05l21.91 0 97.62 219.07 -31.92 0 -28.97 -64.52 -92.87 0 -27.2 64.52 -32.03 0 93.46 -219.07zm46.19 126.79l-35.4 -78.94 -32.92 78.94 68.32 0zm270.38 -125.53l29.7 0 0 217.81 -26.87 0 -145.59 -167.71 0 167.71 -29.38 0 0 -217.81 25.34 0 146.8 169.16 0 -169.16zm229.9 0l31.3 0 0 217.81 -31.3 0 0 -94.85 -122.31 0 0 94.85 -31.3 0 0 -217.81 31.3 0 0 94.23 122.31 0 0 -94.23zm79.5 0l31.3 0 0 217.81 -31.3 0 0 -217.81zm149.01 -1.26l21.92 0 97.62 219.07 -31.92 0 -28.97 -64.52 -92.87 0 -27.2 64.52 -32.04 0 93.46 -219.07zm46.2 126.79l-35.4 -78.94 -32.93 78.94 68.33 0zm186.03 92.28l0 -217.81 73.54 0c29.71,0 53.19,4.49 70.48,13.37 17.23,8.88 31.04,21.98 41.19,39.23 10.23,17.29 15.34,36.14 15.34,56.53 0,14.57 -2.84,28.53 -8.41,41.83 -5.64,13.36 -13.69,25.08 -24.07,35.14 -10.62,10.41 -22.99,18.29 -37.03,23.57 -8.2,3.24 -15.75,5.42 -22.63,6.49 -6.87,1.12 -20,1.65 -39.38,1.65l-69.03 0zm70.36 -190.02l-39.06 0 0 162.23 39.97 0c15.64,0 27.76,-1.06 36.41,-3.19 8.67,-2.12 15.84,-4.84 21.65,-8.14 5.75,-3.24 11.06,-7.29 15.87,-12.09 15.37,-15.58 23.1,-35.35 23.1,-59.18 0,-23.43 -7.93,-42.51 -23.75,-57.26 -5.84,-5.55 -12.51,-10.06 -20.06,-13.63 -7.55,-3.51 -14.75,-5.84 -21.5,-7.02 -6.76,-1.13 -17.62,-1.72 -32.63,-1.72zm169.16 -27.79l123.57 0 0 27.79 -92.27 0 0 66.44 89.09 0 0 27.79 -89.09 0 0 68 95.17 0 0 27.79 -126.47 0 0 -217.81zm302.41 126.36l-23.69 -14.37c-14.9,-9.09 -25.49,-18.03 -31.77,-26.82 -6.29,-8.79 -9.41,-18.94 -9.41,-30.38 0,-17.2 5.96,-31.16 17.87,-41.89 11.86,-10.71 27.35,-16.08 46.35,-16.08 18.2,0 34.93,5.1 50.09,15.4l0 35.43c-15.69,-15.16 -32.57,-22.72 -50.65,-22.72 -10.18,0 -18.53,2.33 -25.08,7.08 -6.55,4.72 -9.85,10.74 -9.85,18.09 0,6.55 2.39,12.65 7.23,18.38 4.87,5.69 12.62,11.68 23.33,17.96l23.78 14.1c26.55,15.93 39.86,36.2 39.86,60.75 0,17.52 -5.85,31.71 -17.56,42.68 -11.71,10.92 -26.87,16.41 -45.61,16.41 -21.5,0 -41.15,-6.67 -58.82,-19.92l0 -39.59c16.82,21.33 36.37,32.04 58.44,32.04 9.8,0 17.94,-2.71 24.43,-8.2 6.49,-5.49 9.76,-12.3 9.76,-20.56 0,-13.31 -9.59,-25.9 -28.7,-37.79zm92.25 -126.36l123.58 0 0 27.79 -92.28 0 0 66.44 89.09 0 0 27.79 -89.09 0 0 68 95.17 0 0 27.79 -126.47 0 0 -217.81zm277.48 110.51l73.13 0 0 92.4c-26.81,11.65 -53.42,17.47 -79.83,17.47 -36.02,0 -64.87,-10.57 -86.43,-31.63 -21.57,-21.12 -32.37,-47.11 -32.37,-78.03 0,-32.63 11.19,-59.77 33.49,-81.42 22.36,-21.68 50.36,-32.48 84.05,-32.48 12.24,0 23.83,1.33 34.84,3.98 11.03,2.63 24.98,7.46 41.8,14.55l0 31.91c-25.99,-15.1 -51.75,-22.65 -77.29,-22.65 -23.78,0 -43.87,8.14 -60.16,24.37 -16.34,16.22 -24.48,36.19 -24.48,59.82 0,24.81 8.14,45.08 24.48,60.83 16.29,15.7 37.26,23.58 62.93,23.58 12.45,0 27.35,-2.87 44.69,-8.56l2.98 -0.94 0 -45.41 -41.83 0 0 -27.79zm270.23 -110.51l31.3 0 0 123.64c0,16.79 -1.24,29.39 -3.69,37.91 -2.45,8.56 -5.43,15.64 -9.06,21.3 -3.54,5.69 -7.96,10.74 -13.12,15.22 -17.32,14.84 -39.89,22.31 -67.71,22.31 -28.38,0 -51.15,-7.41 -68.29,-22.16 -5.22,-4.57 -9.62,-9.68 -13.19,-15.37 -3.57,-5.66 -6.55,-12.63 -8.91,-20.83 -2.33,-8.2 -3.51,-21.06 -3.51,-38.64l0 -123.38 31.3 0 0 123.64c0,20.51 2.36,34.78 7.02,42.75 4.69,7.99 11.83,14.42 21.42,19.26 9.56,4.84 20.86,7.26 33.84,7.26 18.52,0 33.63,-4.87 45.28,-14.48 6.14,-5.23 10.56,-11.33 13.28,-18.41 2.71,-7.08 4.04,-19.24 4.04,-36.38l0 -123.64zm75.34 217.81l0 -217.81 54.58 0c22.07,0 39.53,5.43 52.48,16.35 12.92,10.91 19.41,25.66 19.41,44.28 0,12.68 -3.18,23.63 -9.53,32.83 -6.34,9.27 -15.37,16.2 -27.25,20.77 6.99,4.57 13.8,10.8 20.44,18.73 6.67,7.88 16.02,21.66 28.11,41.31 7.56,12.42 13.63,21.71 18.21,27.93l11.53 15.61 -37.08 0 -9.53 -14.37c-0.33,-0.53 -0.92,-1.38 -1.86,-2.65l-6.08 -8.59 -9.64 -15.9 -10.42 -17.05c-6.43,-8.94 -12.36,-16.05 -17.73,-21.33 -5.31,-5.31 -10.17,-9.12 -14.48,-11.45 -4.31,-2.33 -11.54,-3.51 -21.77,-3.51l-8.09 0 0 94.85 -31.3 0zm40.68 -191.28l-9.38 0 0 68.64 11.83 0c15.82,0 26.61,-1.32 32.45,-4.04 5.93,-2.71 10.45,-6.75 13.75,-12.24 3.25,-5.43 4.9,-11.65 4.9,-18.59 0,-6.84 -1.83,-13.06 -5.43,-18.61 -3.69,-5.55 -8.79,-9.47 -15.4,-11.77 -6.55,-2.27 -17.49,-3.39 -32.72,-3.39zm239.02 -29.71c33.66,0 61.66,10.65 83.99,31.98 22.42,21.3 33.6,48.08 33.6,80.15 0,32.16 -11.3,58.77 -33.87,79.8 -22.59,21.06 -51.09,31.63 -85.4,31.63 -32.84,0 -60.15,-10.57 -82.04,-31.63 -21.86,-21.03 -32.78,-47.44 -32.78,-79.15 0,-32.57 11.03,-59.5 33.01,-80.8 22.04,-21.33 49.86,-31.98 83.49,-31.98zm1.18 29.71c-24.9,0 -45.34,7.75 -61.36,23.36 -16.02,15.58 -24.07,35.49 -24.07,59.71 0,23.54 8.05,43.07 24.13,58.65 16.07,15.6 36.19,23.36 60.36,23.36 24.25,0 44.54,-7.9 60.77,-23.83 16.22,-15.91 24.34,-35.73 24.34,-59.39 0,-23.1 -8.12,-42.48 -24.34,-58.23 -16.23,-15.76 -36.2,-23.63 -59.83,-23.63zm208.81 99.83l-23.69 -14.37c-14.9,-9.09 -25.49,-18.03 -31.78,-26.82 -6.28,-8.79 -9.41,-18.94 -9.41,-30.38 0,-17.2 5.96,-31.16 17.88,-41.89 11.86,-10.71 27.35,-16.08 46.35,-16.08 18.2,0 34.93,5.1 50.09,15.4l0 35.43c-15.7,-15.16 -32.57,-22.72 -50.65,-22.72 -10.18,0 -18.53,2.33 -25.08,7.08 -6.55,4.72 -9.85,10.74 -9.85,18.09 0,6.55 2.39,12.65 7.23,18.38 4.86,5.69 12.62,11.68 23.33,17.96l23.78 14.1c26.55,15.93 39.85,36.2 39.85,60.75 0,17.52 -5.84,31.71 -17.55,42.68 -11.71,10.92 -26.87,16.41 -45.61,16.41 -21.5,0 -41.15,-6.67 -58.82,-19.92l0 -39.59c16.81,21.33 36.37,32.04 58.44,32.04 9.79,0 17.94,-2.71 24.43,-8.2 6.49,-5.49 9.76,-12.3 9.76,-20.56 0,-13.31 -9.59,-25.9 -28.7,-37.79zm-3177.97 242.7l21.92 0 97.61 219.07 -31.91 0 -28.97 -64.52 -92.87 0 -27.2 64.52 -32.04 0 93.46 -219.07zm46.2 126.79l-35.4 -78.94 -32.93 78.94 68.33 0zm97.29 -125.52l31.3 0 0 189.39 98.03 0 0 28.41 -129.33 0 0 -217.8zm156.85 0l31.31 0 0 217.8 -31.31 0 0 -217.8zm149.01 -1.27l21.92 0 97.62 219.07 -31.92 0 -28.97 -64.52 -92.87 0 -27.2 64.52 -32.04 0 93.46 -219.07zm46.2 126.79l-35.4 -78.94 -32.92 78.94 68.32 0zm270.38 -125.52l29.7 0 0 217.8 -26.87 0 -145.59 -167.71 0 167.71 -29.38 0 0 -217.8 25.34 0 146.8 169.15 0 -169.15zm184.02 220.37l-0.82 2.54c5.66,1.32 10.03,3.95 13.21,7.81 3.13,3.84 4.72,8.2 4.72,13.1 0,7.94 -3.18,14.63 -9.5,20.24 -6.34,5.57 -16.52,8.35 -30.44,8.35 -3.9,0 -7.26,-0.27 -10.18,-0.8l0 -17.73c5.31,0.44 8.61,0.65 10,0.65 5.9,0 10.53,-1.12 13.84,-3.42 1.97,-1.33 2.98,-3.13 2.98,-5.25 0,-2.51 -1.07,-4.58 -3.19,-6.23 -2.12,-1.65 -6.08,-2.51 -11.77,-2.51 -1.12,0 -2.33,0.15 -3.57,0.48l6.73 -18.35c-16.52,-1.86 -30.89,-6.4 -43.13,-13.57 -17.03,-9.92 -30.45,-23.43 -40.24,-40.57 -9.8,-17.08 -14.69,-35.66 -14.69,-55.66 0,-31.78 11.29,-58.5 33.92,-80.16 22.6,-21.68 50.51,-32.48 83.67,-32.48 22.89,0 48.32,5.96 76.25,17.88l0 33.54c-25.48,-14.48 -50.38,-21.71 -74.72,-21.71 -24.96,0 -45.67,7.88 -62.16,23.69 -16.46,15.75 -24.69,35.49 -24.69,59.24 0,23.95 8.08,43.63 24.31,59.06 16.19,15.4 36.93,23.09 62.19,23.09 26.37,0 52.18,-8.08 77.32,-24.24l0 34.16c-22.95,12.56 -49.45,18.85 -79.42,18.85l-0.62 0zm187.86 -221.64l21.92 0 97.62 219.07 -31.92 0 -28.97 -64.52 -92.87 0 -27.2 64.52 -32.04 0 93.46 -219.07zm46.2 126.79l-35.4 -78.94 -32.92 78.94 68.32 0zm186.03 92.28l0 -217.8 73.55 0c29.7,0 53.19,4.48 70.47,13.36 17.23,8.88 31.04,21.98 41.19,39.24 10.23,17.28 15.34,36.14 15.34,56.52 0,14.57 -2.83,28.53 -8.41,41.83 -5.63,13.37 -13.69,25.08 -24.07,35.14 -10.62,10.41 -22.98,18.29 -37.03,23.57 -8.2,3.24 -15.75,5.43 -22.62,6.49 -6.88,1.12 -20,1.65 -39.39,1.65l-69.03 0zm70.36 -190.01l-39.06 0 0 162.22 39.98 0c15.63,0 27.76,-1.06 36.4,-3.18 8.67,-2.13 15.84,-4.84 21.65,-8.15 5.76,-3.24 11.07,-7.28 15.87,-12.09 15.37,-15.58 23.1,-35.34 23.1,-59.18 0,-23.42 -7.93,-42.51 -23.74,-57.26 -5.85,-5.55 -12.51,-10.06 -20.06,-13.63 -7.56,-3.51 -14.76,-5.84 -21.51,-7.02 -6.76,-1.12 -17.61,-1.71 -32.63,-1.71zm221.05 -29.06l21.92 0 97.62 219.07 -31.92 0 -28.97 -64.52 -92.87 0 -27.2 64.52 -32.04 0 93.46 -219.07zm46.2 126.79l-35.4 -78.94 -32.93 78.94 68.33 0zm259.78 92.28l-73.75 0 0 -217.8 57.11 0c18,0 32.04,2.42 42.16,7.25 10.06,4.84 17.76,11.48 23.04,19.95 5.31,8.46 7.97,18.32 7.97,29.44 0,21.39 -11.07,36.73 -33.25,45.99 15.9,3.04 28.58,9.59 38,19.65 9.41,10.06 14.1,22.12 14.1,36.14 0,11.12 -2.87,21.06 -8.56,29.79 -5.75,8.73 -14.1,15.81 -25.22,21.33 -11.09,5.49 -24.93,8.26 -41.6,8.26zm-15.63 -190.01l-26.82 0 0 65.46 20.74 0c16.61,0 28.44,-3.19 35.46,-9.53 7.02,-6.31 10.53,-14.51 10.53,-24.57 0,-20.92 -13.3,-31.36 -39.91,-31.36zm2.33 93.25l-29.15 0 0 68.97 30.71 0c17.02,0 28.59,-1.33 34.69,-3.98 6.08,-2.6 10.98,-6.76 14.64,-12.36 3.68,-5.64 5.54,-11.65 5.54,-18.09 0,-6.6 -1.97,-12.65 -5.87,-18.2 -3.86,-5.48 -9.41,-9.59 -16.61,-12.3 -7.17,-2.71 -18.46,-4.04 -33.95,-4.04zm195.2 -122.31l21.92 0 97.62 219.07 -31.92 0 -28.97 -64.52 -92.87 0 -27.2 64.52 -32.03 0 93.45 -219.07zm46.2 126.79l-35.4 -78.94 -32.92 78.94 68.32 0zm250.91 -125.52l31.3 0 0 217.8 -31.3 0 0 -94.84 -122.31 0 0 94.84 -31.3 0 0 -217.8 31.3 0 0 94.22 122.31 0 0 -94.22zm79.5 0l31.3 0 0 217.8 -31.3 0 0 -217.8zm149.01 -1.27l21.92 0 97.62 219.07 -31.92 0 -28.97 -64.52 -92.87 0 -27.2 64.52 -32.04 0 93.46 -219.07zm46.2 126.79l-35.4 -78.94 -32.93 78.94 68.33 0z"/><path d="M3980.8 2075.29l-650.46 0 0 -403.28 -797.52 0 -288.72 403.28 -800.09 0 683 -954 681.46 -951.84 800.09 0 1588.59 0 0 1502.56 -1216.35 0 0 403.28zm0 -930.13l559.4 0 0 -429.32 -559.4 0 0 429.32zm-650.46 0l-420.32 0 420.32 -587.09 0 587.09z"/></g></g></svg>