<svg  id="fndm-zbxsc3p6wd" viewBox="95 64.16144561767578 410.947021484375 127.67423248291016" xmlns="http://www.w3.org/2000/svg">
   <g xmlns="http://www.w3.org/2000/svg" fill-rule="evenodd" fill="none">
    <path d="m192.234,67.603l-11.077,32.915c-59.293,-0.27 -55.654,77.714 -7.492,81.21c3.478,0.269 5.19,-0.215 0.535,0.161c-17.499,-0.107 -30.503,-6.023 -39.814,-14.736c-14.395,-13.553 -21.191,-35.227 -18.409,-54.75c2.462,-17.156 12.255,-32.484 28.898,-41.68c13.164,-7.207 29.218,-8.82 47.36,-3.12l-0.001,0z" fill="#A2BF5B"/>
    <path d="m103.67,84.921l17.391,10.81a56.18,56.18 0 0 0 -5.03,16.672c-2.783,19.47 4.013,41.197 18.408,54.75c9.258,8.659 22.209,14.575 39.547,14.736c3.157,0 5.565,-0.484 8.723,-1.13c1.498,-0.322 3.21,-0.645 5.083,-1.021c-8.348,3.496 -16.428,4.84 -24.027,4.733c-19.96,-0.216 -39.172,-10.38 -51.48,-25.977c-8.134,-10.272 -13.379,-22.75 -14.663,-35.98c-1.284,-12.638 1.017,-25.223 6.047,-37.593l0.001,0z" fill="#0092CE"/>
    <path d="m106.077,149.19l-11.077,6.56c15.037,27.483 57.26,49.372 98.893,26.568l-2.087,-4.195l-6.743,2.152c0.856,-0.162 1.82,-0.377 2.783,-0.592c-8.348,3.496 -16.429,4.84 -24.028,4.733c-19.96,-0.215 -39.172,-10.38 -51.48,-25.977c-2.354,-2.85 -4.441,-5.97 -6.26,-9.25l-0.001,0.001z" fill="#0076AF"/>
    <g fill="#0076AF">
     <path d="m257.56,163.465l6.213,11.801c-5.895,7.081 -15.933,10.139 -24.324,10.353c-11.471,0.268 -21.402,-5.042 -27.67,-15.18c-2.867,-4.72 -4.407,-10.031 -4.46,-16.04c0,-5.9 1.434,-11.318 4.301,-16.253c2.868,-4.935 6.798,-8.743 11.737,-11.586c4.94,-2.843 10.303,-4.238 16.092,-4.238c6.16,0 13.384,1.126 22.996,9.387l-7.382,11.855c-6.48,-5.954 -13.065,-7.832 -19.278,-6.115c-5.842,1.555 -11.843,6.544 -11.95,15.931c-0.106,7.081 2.709,13.09 9.029,16.522c7.754,4.13 18.163,0.215 24.695,-6.437l0.001,0zm78.865,13.089l7.435,-12.123c6.851,6.168 11.843,6.866 14.87,6.866c2.71,0 8.232,-0.59 7.436,-4.774c-0.319,-1.77 -2.337,-2.897 -3.877,-3.755c-7.276,-3.97 -13.33,-4.667 -19.438,-10.782c-2.655,-2.629 -4.46,-6.652 -4.46,-10.514c0,-5.74 1.858,-10.192 6.372,-13.732c4.514,-3.54 9.56,-5.472 16.942,-5.472c6.957,0 14.71,2.629 19.862,7.51l-6.16,12.82c-4.62,-4.935 -12.215,-6.33 -15.827,-5.632c-2.496,0.483 -4.62,1.395 -4.673,4.13c-0.053,3.273 7.647,5.847 9.984,6.813c4.674,1.931 9.082,3.594 13.383,8.046c2.709,2.79 3.877,6.384 3.877,10.729c0,5.847 -1.38,10.03 -5.842,13.464c-4.514,3.433 -8.656,5.31 -16.304,5.31c-6.054,0 -11.259,-1.126 -15.507,-3.38c-4.355,-2.145 -5.63,-3.003 -8.073,-5.524zm101.437,7.724l-14.392,0l0,-6.437c-1.54,2.307 -3.506,3.97 -5.63,5.15c-6.32,3.54 -15.189,3.808 -21.456,0.214c-3.93,-2.253 -6.532,-5.686 -7.913,-9.44c-4.567,-12.124 2.071,-21.618 13.437,-25.534c6.532,-2.253 14.286,-3.058 20.393,-2.307c-0.053,-9.602 -7.435,-9.548 -11.684,-9.119c-6.373,0.59 -11.418,3.809 -13.914,5.525l-6.16,-11.747c6.638,-5.472 14.657,-7.993 23.314,-7.993c8.763,0 14.605,1.931 20.128,8.744a15.832,15.832 0 0 1 3.187,6.33c0.584,2.36 0.743,4.344 0.743,8.743l0,37.871l-0.053,0zm-15.455,-26.767c-2.92,0.429 -6,0.16 -8.975,0.644c-4.036,0.643 -9.56,2.574 -10.303,6.544c-0.16,1.02 -0.16,2.306 0.425,3.54c1.434,3.004 4.196,4.399 7.063,4.345c7.17,0 11.897,-8.85 11.79,-15.073zm83.54,26.874l-15.987,0l0,-31.058c0,-1.556 0.053,-3.058 0.053,-4.452c0,-4.56 -0.106,-8.583 -3.77,-10.246c-1.328,-0.59 -3.612,-0.858 -5.417,-0.697c-9.879,0.912 -13.968,9.655 -13.968,18.882l0,27.571l-15.985,0l0,-60.883l14.817,0l0,8.958c5.257,-6.866 11.95,-10.353 19.915,-10.353c3.506,0 6.745,0.644 9.666,1.931c2.921,1.288 5.152,2.897 6.639,4.935a17.902,17.902 0 0 1 3.133,6.76c0.584,2.52 0.903,6.114 0.903,10.835l0,37.817l0.001,0z" fill-rule="nonzero"/>
     <path d="m300.152,122.536c17.632,0 31.971,14.162 31.971,31.65c0,17.486 -14.286,31.648 -31.971,31.648c-17.632,0 -31.971,-14.162 -31.971,-31.649c0,-17.487 14.34,-31.649 31.971,-31.649zm0,14.43c8.87,0 16.092,7.724 16.092,17.22c0,9.494 -7.223,17.218 -16.092,17.218c-8.87,0 -16.092,-7.724 -16.092,-17.219c0,-9.548 7.17,-17.219 16.092,-17.219z"/>
    </g>
   </g>
  </svg>