<svg xmlns="http://www.w3.org/2000/svg" fill-rule="evenodd" clip-rule="evenodd" image-rendering="optimizeQuality" shape-rendering="geometricPrecision" text-rendering="geometricPrecision" viewBox="-2 1 6600 3300"><g><rect width="6600" height="3300" x="-2" y="1" fill="#a9abae"/><g><g><path fill="#fefefe" d="M905.66 1119.7c1.71,-1.71 14.53,-17.95 23.08,-17.95 9.4,0 12.82,11.11 13.67,17.1 2.57,13.67 5.13,34.19 10.26,67.53 7.7,48.72 17.1,104.29 17.1,104.29 -51.29,10.25 -173.53,38.46 -214.56,50.43 44.45,-70.09 124.8,-188.06 150.45,-221.4l0 0 0 0 0 0zm348.77 217.13c76.93,-3.42 157.28,-4.28 164.12,-4.28 19.66,0 35.05,1.71 38.47,10.26 4.27,11.11 -5.13,23.93 -18.81,34.19 -2.56,1.71 -48.72,32.49 -98.3,65.82 -76.08,51.29 -170.97,112.84 -170.97,112.84 0.86,1.71 -35.9,-164.98 -43.59,-209.43 0.85,0 64.11,-5.98 129.08,-9.4l0 0 0 0 0 0zm-498.37 494.94c0,0 -178.65,-148.74 -188.91,-157.29 0,0 113.69,-212.85 148.74,-266.7 21.37,-5.99 188.06,-36.76 266.7,-46.16 0,0 23.08,129.08 58.13,277.81 0.85,0 -229.95,153.02 -284.66,192.34l0 0 0 0 0 0zm371.85 136.77l0 0c-28.21,-95.74 -55.56,-200.88 -55.56,-200.88l-213.71 151.3c0,0 247.05,217.13 294.92,259.01 0.85,0.86 11.11,9.41 15.38,11.12 8.55,4.27 15.39,1.7 18.81,-3.42 3.42,-5.99 2.56,-15.39 -0.86,-25.65 -12.82,-38.47 -37.61,-116.25 -58.98,-191.48l0 0 0 0zm-677.02 82.92l0 0c60.69,-41.89 249.61,-177.8 249.61,-177.8 -32.48,-28.21 -163.27,-140.2 -163.27,-140.2 0,0 -106,223.11 -131.64,280.39 -0.86,2.56 -12.83,26.5 -9.41,40.17 1.71,6.84 7.7,23.08 35.05,10.26 3.42,-2.56 16.24,-11.11 19.66,-12.82l0 0zm-58.98 -516.31l0 0c26.5,21.37 134.21,106.85 134.21,106.85 15.38,-26.5 14.53,-29.07 52.14,-93.18 16.24,-28.21 39.32,-64.96 72.66,-124.8 -132.5,31.63 -229.09,66.67 -251.32,75.22 -1.71,0.86 -9.4,4.28 -11.11,5.13 -5.98,3.42 -7.69,8.55 -8.55,12.82 -0.85,8.55 8.55,15.39 11.97,17.96l0 0zm956.55 628.29c-22.23,-58.98 -48.73,-130.79 -71.81,-206.01 -42.74,-141.05 -77.79,-276.96 -76.93,-276.96 27.35,-17.96 271.83,-184.65 448.78,-285.52 2.56,-1.71 54.71,-30.77 59.84,-66.67 0.85,-10.26 0,-19.66 -3.42,-29.06 -8.55,-26.5 -31.63,-50.44 -94.03,-53.86 -49.58,-3.42 -135.92,-9.4 -230.81,-3.42 -93.17,3.42 -192.33,12.83 -266.7,25.65 0,0 -29.92,-182.08 -40.18,-257.31 -0.85,-4.27 -5.98,-33.33 -12.82,-45.3 -7.69,-11.97 -20.52,-23.94 -41.03,-27.35 -5.13,-0.86 -9.4,-0.86 -13.68,-0.86l-1.71 0c-14.53,0 -26.5,5.13 -35.05,11.11 -11.96,8.55 -27.35,30.78 -30.77,36.76 -47.01,66.68 -181.22,263.29 -247.04,376.12 0,0 -207.72,64.11 -334.24,116.26 -37.61,15.38 -41.03,34.19 -41.88,44.45 -0.86,7.69 0,26.5 29.06,51.29 36.76,30.77 153.01,126.51 153.01,126.51 -41.03,64.97 -198.32,385.53 -213.7,475.28 -4.28,25.65 -4.28,52.15 14.53,76.94 11.97,15.38 32.48,25.64 54.71,26.5 26.5,0 63.26,-28.21 78.64,-39.33 124.81,-89.75 370.14,-276.96 370.14,-276.96 92.32,82.92 286.37,260.72 389.8,356.46 11.97,11.12 49.58,46.16 87.19,47.02 70.1,1.71 93.18,-58.13 96.59,-79.5 4.28,-49.58 -19.66,-103.43 -26.49,-122.24l0 0z"/></g><g fill="#003869"><polygon points="1828.01,2130.1 1828.01,1890.75 1939.99,1890.75 1939.99,1918.96 1860.49,1918.96 1860.49,1993.33 1939.99,1993.33 1939.99,2021.54 1860.49,2021.54 1860.49,2101.89 1951.96,2101.89 1951.96,2130.1"/><path d="M2087.88 1984.78c-6.84,-2.56 -11.97,-3.42 -24.79,-3.42 -32.49,0 -59.84,23.94 -59.84,63.26 0,36.76 21.37,62.4 62.4,62.4 7.7,0 17.1,-1.71 22.23,-4.27l0 -117.97 0 0zm-26.5 149.6c-48.73,0 -90.61,-29.07 -90.61,-88.05 0,-53.85 39.32,-92.32 90.61,-92.32 11.11,0 19.66,0.85 25.64,2.56l0 -83.77 32.49 0 0 248.75c-11.12,6.84 -32.49,12.83 -58.13,12.83l0 0z"/><path d="M2275.08 2130.1l-6.84 -17.09c-12.82,11.11 -31.62,21.37 -54.7,21.37 -23.09,0 -53.86,-11.97 -53.86,-62.41l0 -112.83 32.49 0 0 110.27c0,26.5 11.11,38.47 32.48,38.47 19.66,0 34.19,-11.97 41.89,-19.67l0 -129.07 31.62 0 0 107.7c0,45.31 0.86,56.42 3.42,64.12l-26.5 -0.86 0 0 0 0z"/><path d="M2412.71 2134.38c-53.85,0 -81.21,-41.04 -81.21,-88.05 0,-48.73 30.77,-92.32 86.34,-92.32 17.95,0 34.19,5.13 45.3,11.11l0 29.06c-11.11,-7.69 -25.64,-12.82 -44.45,-12.82 -34.19,0 -54.71,26.5 -54.71,63.26 0,35.05 19.66,63.26 54.71,63.26 17.95,0 30.78,-5.99 41.89,-12.83l9.4 22.23c-13.68,7.69 -35.05,17.09 -57.27,17.09l0 0.01z"/><path d="M2588.8 2048.89l-31.63 0.86c-28.2,0.85 -40.17,10.26 -40.17,28.21 0,16.24 10.26,29.06 31.63,29.06 19.66,0 32.48,-9.4 39.32,-17.09l0 -41.04 0.85 0 0 0zm9.41 81.21l-6.84 -16.24c-11.12,10.26 -27.36,19.66 -52.15,19.66 -29.06,0 -53.85,-20.51 -53.85,-53.85 0,-34.2 24.79,-54.71 70.09,-56.42l33.34 -0.86c0,-1.71 0,-5.12 0,-6.83 0,-26.5 -15.38,-35.91 -35.9,-35.91 -21.37,0 -35.05,7.7 -45.31,15.39l-11.96 -22.23c21.37,-15.38 41.03,-19.66 63.25,-19.66 35.91,0 62.41,15.39 62.41,59.84l0 58.13c0,41.03 0.85,53 3.42,58.98l-26.5 0 0 0 0 0z"/><path d="M2733.27 2134.38c-53.86,0 -81.21,-41.04 -81.21,-88.05 0,-48.73 30.77,-92.32 86.34,-92.32 17.95,0 34.19,5.13 45.3,11.11l0 29.06c-11.11,-7.69 -25.64,-12.82 -44.45,-12.82 -34.19,0 -54.71,26.5 -54.71,63.26 0,35.05 19.66,63.26 54.71,63.26 17.95,0 30.77,-5.99 41.89,-12.83l9.4 22.23c-13.68,7.69 -34.19,17.09 -57.27,17.09l0 0.01z"/><path d="M2816.18 2130.1l0 -171.82 32.49 0 0 171.82 -32.49 0 0 0zm37.62 -225.67c0,11.97 -9.41,21.37 -21.37,21.37 -11.97,0 -21.37,-9.4 -21.37,-21.37 0,-11.11 9.4,-21.37 21.37,-21.37 11.11,0 21.37,9.4 21.37,21.37z"/><path d="M2912.78 2043.76c0,38.47 17.95,64.12 48.73,64.12 29.91,0 47.87,-25.65 47.87,-64.12 0,-38.46 -17.1,-63.25 -48.73,-63.25 -30.77,0 -47.87,25.64 -47.87,63.25l0 0zm105.14 -66.67c15.39,16.24 23.94,39.32 23.94,66.67 0,27.36 -8.55,51.29 -24.79,67.54 -14.53,14.53 -34.2,22.22 -57.27,22.22 -22.23,0 -41.04,-7.69 -55.57,-21.37 -16.24,-16.24 -24.79,-40.18 -24.79,-68.39 0,-28.2 8.55,-51.28 24.79,-67.53 14.53,-14.53 33.34,-23.08 56.42,-23.08 23.94,0.86 43.6,9.41 57.27,23.94l0 0z"/><path d="M3185.47 2130.1l0 -104.29c0,-19.66 -3.42,-42.74 -28.21,-42.74 -18.81,0 -36.76,11.97 -50.44,23.94l0 123.09 -31.62 0 0 -171.82 27.35 0 4.27 19.66c19.67,-14.53 36.76,-23.93 60.7,-23.93 24.79,0 51.29,17.09 51.29,60.69l0 115.4 -33.34 0 0 0z"/><path d="M3351.3 2048.89l-31.62 0.86c-28.21,0.85 -40.18,10.26 -40.18,28.21 0,16.24 10.26,29.06 31.63,29.06 19.66,0 32.48,-9.4 39.32,-17.09l0 -41.04 0.85 0 0 0zm9.41 81.21l-6.84 -16.24c-11.11,10.26 -27.36,19.66 -52.15,19.66 -29.06,0 -53.85,-20.51 -53.85,-53.85 0,-34.2 24.79,-54.71 70.1,-56.42l33.33 -0.86c0,-1.71 0,-5.12 0,-6.83 0,-26.5 -15.38,-35.91 -35.9,-35.91 -21.37,0 -35.05,7.7 -45.3,15.39l-11.97 -22.23c21.37,-15.38 41.03,-19.66 63.26,-19.66 35.9,0 62.4,15.39 62.4,59.84l0 58.13c0,41.03 0.85,53 3.42,58.98l-26.5 0 0 0 0 0z"/><path d="M3456.45 2134.38c-23.94,0 -33.34,-14.54 -33.34,-34.2l0 -227.38 31.63 0 0 212.85c0,14.53 3.42,18.81 13.67,18.81 2.57,0 5.13,0 10.26,-1.71l4.28 23.93c-9.41,5.13 -17.96,7.69 -26.5,7.69l0 0.01z"/><path d="M2029.75 1777.06c-155.58,0 -243.62,-106 -243.62,-240.2 0,-136.78 102.57,-247.9 264.99,-247.9 48.72,0 93.18,9.4 123.95,25.64l-1.71 88.05c-41.89,-24.79 -81.21,-33.34 -118.82,-33.34 -111.98,0 -160.71,77.79 -160.71,160.71 0,90.61 58.13,162.41 152.16,162.41 44.45,0 81.21,-11.96 118.82,-32.48l26.5 69.24c-54.71,33.34 -107.71,47.87 -161.56,47.87l0 0z"/><path d="M2439.21 1516.34c-17.1,-10.26 -34.19,-11.97 -43.6,-11.97 -20.51,0 -39.32,6.84 -62.4,26.5l0 238.5 -97.45 0 0 -341.93 82.06 0 11.12 35.04c30.77,-27.35 58.12,-43.59 94.03,-43.59 16.24,0 36.75,5.13 52.14,16.24l-35.9 81.21 0 0z"/><path d="M2728.99 1769.37l-15.38 -33.34c-23.08,21.37 -58.13,40.18 -102.58,40.18 -44.45,0 -119.68,-22.23 -119.68,-137.63l0 -211.14 97.45 0 0 206.86c0,38.47 18.81,65.83 60.69,65.83 22.23,0 41.89,-11.12 57.28,-22.23l0 -250.46 98.3 0 0 263.28c0,35.05 0,60.69 5.99,78.65 0,0 -82.07,0 -82.07,0l0 0z"/><polygon points="2844.39,1769.37 2997.41,1500.95 2876.88,1502.66 2856.36,1427.44 3139.31,1427.44 2988.86,1695.85 3137.6,1693.29 3137.6,1769.37"/><path d="M3309.42 1491.55c-39.32,0 -61.55,35.9 -61.55,67.53l123.09 0c-0.85,-33.34 -19.66,-67.53 -61.54,-67.53l0 0zm-58.99 134.21c2.57,46.16 45.31,73.51 91.47,73.51 33.34,0 58.13,-6.84 91.47,-23.93l22.22 62.4c-42.74,29.06 -89.76,39.32 -129.93,39.32 -123.1,0 -173.53,-86.34 -173.53,-176.09 0,-96.6 58.13,-180.37 160.71,-180.37 94.03,0 158.99,70.1 158.99,176.09 0,6.84 0,16.25 0,29.92l-221.39 -0.85 0 0 -0.01 0z"/><path d="M3532.53 1769.37l0 -341.93 98.3 0 0 341.93 -98.3 0 0 0zm48.72 -388.09c-33.34,0 -58.98,-25.65 -58.98,-57.27 0,-31.63 25.64,-57.28 58.98,-57.28 34.19,0 58.98,24.79 58.98,57.28 0,30.77 -24.79,57.27 -58.98,57.27z"/><path d="M3910.36 1516.34c-17.1,-10.26 -34.2,-11.97 -43.6,-11.97 -20.51,0 -39.32,6.84 -63.26,26.5l0 238.5 -97.45 0 0 -341.93 82.07 0 11.11 35.04c30.77,-27.35 58.13,-43.59 94.03,-43.59 16.24,0 36.76,5.13 52.15,16.24l-35.05 81.21z"/><path d="M4110.39 1496.68c-51.29,0 -75.23,44.45 -75.23,102.58 0,61.54 29.06,103.43 76.94,103.43 52.14,0 76.07,-44.45 76.07,-103.43 0.86,-61.55 -28.2,-102.58 -77.78,-102.58l0 0zm129.93 229.09c-30.77,31.63 -75.23,51.29 -128.22,51.29 -49.58,0 -91.47,-15.39 -121.39,-42.74 -35.05,-31.63 -54.71,-78.64 -54.71,-132.5 0,-52.14 18.81,-98.3 50.44,-130.79 30.77,-31.63 74.37,-50.43 125.66,-50.43 55.56,0 100.86,18.8 131.64,51.29 29.92,31.63 45.3,76.08 45.3,125.66 0,49.58 -16.24,95.74 -48.72,128.22z"/><path d="M4724.15 1500.1c-11.12,-1.71 -20.52,-3.42 -36.76,-3.42 -59.84,0 -99.16,36.76 -99.16,99.16 0,57.27 39.32,100.01 99.16,100.01 12.82,0 26.5,-1.71 36.76,-3.42l0 -192.33 0 0zm-43.6 276.96c-105.14,0 -188.91,-61.55 -188.91,-176.09 0,-106 78.64,-180.37 193.19,-180.37 15.38,0 27.35,0.86 39.32,2.56l0 -164.12 97.45 0 0 489.81c-35.9,17.1 -79.5,28.21 -141.05,28.21z"/><path d="M5044.71 1496.68c-51.29,0 -75.23,44.45 -75.23,102.58 0,61.54 29.07,103.43 76.94,103.43 52.14,0 76.08,-44.45 76.08,-103.43 0.85,-61.55 -28.21,-102.58 -77.79,-102.58l0 0zm129.93 229.09c-30.77,31.63 -75.22,51.29 -128.22,51.29 -49.58,0 -91.47,-15.39 -121.39,-42.74 -35.05,-31.63 -54.71,-78.64 -54.71,-132.5 0,-52.14 18.81,-98.3 50.44,-130.79 30.77,-31.63 74.37,-50.43 125.66,-50.43 55.56,0 100.87,18.8 131.64,51.29 30.77,31.63 45.3,76.08 45.3,125.66 0,49.58 -16.24,95.74 -48.72,128.22z"/><path d="M5554.18 1777.06c-68.39,0 -117.97,-22.22 -151.3,-44.45l38.46 -71.81c29.92,19.67 65.83,36.76 109.42,36.76 35.05,0 73.52,-12.82 73.52,-49.58 0,-62.4 -115.41,-73.51 -173.53,-139.33 -17.95,-20.52 -30.78,-47.87 -30.78,-84.63 0,-71.81 57.28,-135.92 161.57,-135.92 50.43,0 92.32,12.82 119.67,29.06l-1.71 85.49c-40.18,-21.37 -74.37,-35.05 -113.69,-35.05 -35.05,0 -63.26,16.24 -63.26,43.59 0,82.07 204.31,75.23 204.31,224.82 0.85,86.34 -75.23,141.05 -172.68,141.05l0 0z"/><path d="M6012.37 1769.37l-15.39 -33.34c-23.08,21.37 -58.13,40.18 -102.58,40.18 -44.45,0 -119.68,-22.23 -119.68,-137.63l0 -211.14 97.46 0 0 206.86c0,38.47 18.8,65.83 60.69,65.83 22.22,0 41.88,-11.12 57.27,-22.23l0 -249.61 98.3 0 0 263.29c0,35.05 0,60.69 5.99,78.64l-82.06 -0.85 0 0 0 0z"/><path d="M6241.46 1777.06c-61.55,0 -84.63,-35.05 -84.63,-79.5l0 -439.38 98.3 0 0 396.64c0,23.08 3.42,34.19 20.52,34.19 6.84,0 14.53,-0.85 27.35,-3.42l11.97 72.66c-27.35,14.54 -53,18.81 -73.51,18.81l0 0z"/></g></g></g></svg>