<svg  id="fndm-22gmusr1gk" viewBox="175 54 249 143" xmlns="http://www.w3.org/2000/svg">
   <g xmlns="http://www.w3.org/2000/svg" fill-rule="evenodd" fill="none">
    <path d="m175,101l249,0l0,72c0,13.23 -10.641,24 -23.714,24l-201.572,0c-13.073,0 -23.714,-10.77 -23.714,-24l0,-72zm0,-31l249,0l0,21l-249,0l0,-21zm0,-16l249,0l0,10l-249,0l0,-10z" fill="#001D7E"/>
    <path d="m224.335,154.486l0,0.305c0,3.815 -1.369,6.715 -3.955,8.852c-2.738,2.136 -6.388,3.204 -11.104,3.204c-5.172,0 -9.127,-1.526 -12.017,-4.73c-2.89,-3.205 -4.259,-7.631 -4.259,-13.43c0,-6.41 1.369,-11.293 4.26,-14.65c2.89,-3.358 6.996,-5.037 12.472,-5.037c4.564,0 8.062,1.068 10.496,3.052c2.434,1.984 3.803,5.036 3.955,9.004l-9.43,0c-0.153,-1.526 -0.61,-2.747 -1.674,-3.662c-1.065,-0.916 -2.282,-1.374 -3.955,-1.374c-2.282,0 -3.955,1.068 -5.02,3.052c-1.065,2.29 -1.52,5.342 -1.52,9.462c0,3.663 0.608,6.562 1.672,8.394c1.217,1.831 2.89,2.9 5.172,2.9c1.673,0 2.89,-0.459 3.955,-1.374c0.913,-0.916 1.521,-2.137 1.673,-3.815l9.28,0l0,-0.153l-0.001,0zm5.324,-6.41c0,-5.952 1.521,-10.682 4.411,-13.887c2.89,-3.358 7.15,-5.036 12.474,-5.036s9.43,1.678 12.473,5.036c2.89,3.357 4.411,7.935 4.411,13.887c0,5.952 -1.521,10.53 -4.411,13.888c-2.89,3.357 -7.15,5.036 -12.473,5.036c-5.324,0 -9.431,-1.679 -12.474,-5.036c-2.89,-3.358 -4.41,-7.936 -4.41,-13.888l-0.001,0zm9.431,-0.152c0,3.815 0.609,6.562 1.825,8.546c1.217,1.984 3.043,2.9 5.629,2.9c2.433,0 4.259,-0.916 5.476,-2.9c1.217,-1.831 1.825,-4.731 1.825,-8.546c0,-3.816 -0.608,-6.715 -1.825,-8.546c-1.217,-1.984 -3.043,-2.9 -5.476,-2.9c-2.434,0 -4.26,0.916 -5.629,2.9c-1.216,1.983 -1.825,4.883 -1.825,8.546zm39.854,-1.832l4.107,0c1.977,0 3.346,-0.457 4.259,-1.22c0.913,-0.764 1.369,-1.984 1.369,-3.663c0,-1.679 -0.456,-2.9 -1.37,-3.663c-0.912,-0.763 -2.433,-1.068 -4.41,-1.068l-4.107,0l0,9.614l0.152,0zm-9.127,20.298l0,-36.627l15.06,0c4.258,0 7.605,1.068 9.734,2.9c2.282,1.984 3.347,4.883 3.347,8.698c0,3.816 -1.065,6.715 -3.347,8.852c-2.13,2.136 -5.172,3.205 -9.126,3.205l-6.541,0l0,12.972l-9.127,0zm50.806,-14.193l-4.108,-15.261l-4.563,15.26l8.67,0l0.001,0.001zm-22.057,14.193l12.778,-36.627l11.104,0l13.082,36.627l-10.192,0l-2.282,-7.173l-12.93,0l-2.28,7.173l-9.28,0zm49.589,-11.904l0,0.305c0,1.679 0.456,2.9 1.369,3.968c0.913,0.916 2.13,1.374 3.499,1.374c1.825,0 3.042,-0.306 3.954,-1.069c0.913,-0.61 1.37,-1.678 1.37,-2.9c0,-1.83 -1.978,-3.357 -5.78,-4.425a25.604,25.604 0 0 0 -2.13,-0.61c-4.412,-1.374 -7.302,-2.747 -8.823,-4.426c-1.521,-1.679 -2.282,-3.968 -2.282,-6.868c0,-3.204 1.217,-5.799 3.803,-7.783s5.933,-3.052 10.04,-3.052c4.41,0 7.757,0.916 10.04,2.747c2.28,1.831 3.346,4.426 3.346,8.088l0,0.61l-9.127,0l0,-0.152c0,-1.526 -0.304,-2.594 -1.065,-3.51c-0.76,-0.763 -1.673,-1.22 -3.042,-1.22c-1.37,0 -2.434,0.304 -3.195,1.068c-0.76,0.763 -1.217,1.678 -1.217,2.747c0,1.83 2.434,3.357 7.302,4.73c1.217,0.306 2.282,0.61 3.042,0.763c3.042,0.916 5.172,2.137 6.693,3.816c1.37,1.678 2.13,3.815 2.13,6.562c0,3.815 -1.37,6.562 -3.955,8.546c-2.586,1.984 -6.389,3.052 -11.257,3.052c-4.41,0 -7.91,-1.068 -10.191,-3.204c-2.282,-2.137 -3.499,-5.19 -3.499,-9.31l8.975,0l0,0.153zm45.938,-2.29l-4.107,-15.26l-4.563,15.26l8.67,0zm-22.056,14.194l12.777,-36.627l11.104,0l13.082,36.627l-10.192,0l-2.281,-7.173l-12.93,0l-2.282,7.173l-9.278,0z" fill-rule="nonzero" fill="#FFF"/>
   </g>
  </svg>