<svg  id="fndm-9s2u4w0hhg" viewBox="114 71 371 109" xmlns="http://www.w3.org/2000/svg">
   <g xmlns="http://www.w3.org/2000/svg" fill-rule="evenodd" fill="none">
    <path d="m337.786,116.13c-1.084,-6.602 -6.504,-10.223 -14.093,-10.223c-11.71,0 -16.263,9.797 -16.263,19.593s4.554,19.593 16.263,19.593c8.456,0 13.443,-4.686 14.093,-12.14l18.214,0c-1.084,17.039 -14.31,27.047 -32.09,27.047c-21.25,0 -34.91,-15.333 -34.91,-34.5s13.66,-34.5 34.91,-34.5c15.177,0 31.44,9.157 32.09,24.917l-18.214,0l0,0.213zm40.936,20.092c0.427,7.855 5.338,10.19 13.025,10.19c5.338,0 11.104,-1.91 11.104,-6.794c0,-5.732 -9.823,-7.006 -19.858,-9.553c-9.822,-2.76 -20.071,-7.007 -20.071,-19.108c0,-14.437 15.16,-19.957 28.185,-19.957c13.665,0 27.544,6.37 27.544,21.23l-17.936,0c0.214,-5.944 -5.551,-7.855 -11.103,-7.855c-3.843,0 -8.754,1.274 -8.754,5.733c0,5.095 10.035,5.944 20.07,8.704c10.036,2.76 20.072,7.006 20.072,19.108c0,16.772 -14.947,22.08 -30.107,22.08c-15.8,0 -29.893,-6.582 -29.893,-23.566l17.722,0l0,-0.212zm47.278,-44.222l18.252,0l23.77,40.665l0.212,0l0,-40.665l16.766,0l0,66l-18.252,0l-23.77,-41.09l-0.212,0l0,41.09l-16.766,0l0,-66z" fill-rule="nonzero" fill="#000"/>
    <path d="m289,71l195,0l0,3l-195,0l0,-3zm0,106l195,0l0,3l-195,0l0,-3zm-167.22,-41c-4.322,0 -7.78,-3.262 -7.78,-7.34l0,-6.32c0,-4.078 3.458,-7.34 7.78,-7.34l51.44,0c4.322,0 7.78,3.262 7.78,7.34l0,6.116c0,4.078 -3.458,7.34 -7.78,7.34l-51.44,0l0,0.204zm88,0c-4.322,0 -7.78,-3.262 -7.78,-7.34l0,-6.32c0,-4.078 3.458,-7.34 7.78,-7.34l51.44,0c4.322,0 7.78,3.262 7.78,7.34l0,6.32c0,4.078 -3.458,7.34 -7.78,7.34l-51.44,0zm-45.98,43c-2.71,0 -5.213,-1.234 -6.673,-3.7l-16.683,-28.578c-0.209,-0.412 -0.418,-0.617 -0.418,-1.028c-0.208,-1.645 0.835,-3.29 2.503,-3.496l13.347,-2.056c2.92,-0.41 5.839,1.028 7.09,3.29l7.716,13.158c0.418,0.617 1.043,1.028 1.877,1.028l34.827,0c0.834,0 1.46,-0.411 1.877,-1.028l7.716,-13.158c1.46,-2.467 4.171,-3.906 7.09,-3.29l13.348,2.056c1.668,0.206 2.92,1.85 2.502,3.496c0,0.41 -0.208,0.822 -0.417,1.028l-16.683,28.577c-1.46,2.467 -3.963,3.701 -6.674,3.701l-52.345,0zm0,-108c-2.71,0 -5.213,1.246 -6.673,3.737l-16.683,29.476c-0.209,0.416 -0.418,0.623 -0.418,1.038c-0.208,1.661 0.835,3.322 2.503,3.53l13.347,2.075c2.92,0.415 5.839,-1.038 7.09,-3.321l7.716,-13.7c0.418,-0.623 1.043,-1.039 1.877,-1.039l34.827,0c0.834,0 1.46,0.416 1.877,1.038l7.716,13.7c1.46,2.492 4.171,3.945 7.09,3.322l13.348,-2.076c1.668,-0.207 2.92,-1.868 2.502,-3.529c0,-0.415 -0.208,-0.83 -0.417,-1.038l-16.682,-29.476c-1.46,-2.491 -3.963,-3.737 -6.674,-3.737l-52.346,0z" fill="#004E94"/>
   </g>
  </svg>