<svg xmlns="http://www.w3.org/2000/svg" viewBox="0.7447509765625 0.7252197265625 692.3654174804688 149.45314025878906"><g fill="none" fill-rule="evenodd"><g fill-rule="nonzero"><g><path fill="#4D61FE" d="M0.732616974,71.3747775 C0.882616974,63.1547775 3.12261697,55.3447775 6.83261697,48.1747775 C12.402617,37.3947775 20.502617,28.7347775 31.542617,23.2247775 C33.802617,22.0947775 35.312617,20.5147775 36.452617,18.3747775 C39.852617,11.9347775 44.882617,6.71477745 49.532617,1.21477745 C50.972617,-0.485222545 52.042617,-0.335222545 53.452617,1.25477745 C55.872617,3.98477745 58.442617,6.57477745 61.002617,9.28477745 C55.632617,14.6547775 50.772617,20.3647775 47.252617,27.0447775 C38.592617,43.4547775 40.972617,58.9047775 51.472617,73.6047775 C53.942617,77.0547775 56.672617,80.2947775 59.792617,83.1747775 C60.982617,84.2747775 61.042617,84.9947775 59.822617,86.1347775 C57.502617,88.2947775 55.282617,90.5847775 53.122617,92.9147775 C52.072617,94.0547775 51.392617,93.9347775 50.342617,92.8747775 C39.242617,81.6947775 30.932617,69.0447775 28.902617,53.0147775 C28.452617,49.4847775 28.672617,45.9347775 28.652617,42.3347775 C19.182617,49.2547775 11.142617,67.3447775 15.312617,84.8547775 C19.192617,101.114777 35.022617,120.414777 62.952617,119.304777 C60.832617,124.034777 58.072617,128.114777 54.872617,131.934777 C54.372617,132.534777 53.642617,132.364777 52.992617,132.494777 C52.102617,131.854777 51.012617,132.494777 50.092617,132.034777 C39.242617,130.444777 29.752617,126.114777 21.252617,119.054777 C10.812617,110.384777 4.82261697,99.2647775 1.60261697,86.4347775 C0.942616974,83.7947775 1.04261697,80.9747775 0.792616974,78.2347775 C0.492616974,75.9547775 0.562616974,73.6647775 0.742616974,71.3747775 L0.732616974,71.3747775 Z" transform="translate(-470.000000, -415.000000) translate(470.527383, 415.725223)"/><path fill="#333" d="M293.162617,95.5547775 C291.782617,107.974777 283.252617,114.414777 271.552617,117.504777 C267.762617,118.504777 263.902617,118.854777 260.042617,119.374777 C255.432617,119.624777 250.812617,119.584777 246.202617,119.394777 C237.292617,118.954777 228.702617,117.164777 220.552617,113.434777 C220.292617,109.154777 220.482617,104.864777 220.462617,100.574777 C220.462617,99.8147775 220.032617,98.3047775 221.852617,99.1147775 C227.512617,102.284777 233.742617,103.634777 240.032617,104.804777 C242.192617,105.204777 244.352617,105.624777 246.562617,105.434777 C247.732617,105.984777 249.022617,105.404777 250.202617,105.854777 C253.492617,106.124777 256.782617,106.094777 260.062617,105.854777 C261.212617,105.394777 262.502617,106.024777 263.632617,105.424777 C269.672617,104.994777 275.152617,103.564777 278.032617,97.4547775 C278.422617,96.2047775 278.422617,94.9447775 278.032617,93.6947775 C276.972617,89.7847775 273.602617,88.3247775 270.392617,86.9547775 C264.132617,84.2947775 257.342617,83.4347775 250.822617,81.6447775 C243.712617,79.6947775 236.362617,78.3647775 230.262617,73.6947775 C225.752617,70.2447775 222.292617,66.2647775 221.762617,60.3547775 C221.492617,58.2447775 221.492617,56.1447775 221.762617,54.0347775 C223.232617,43.1547775 230.342617,37.5847775 240.162617,34.5747775 C243.452617,33.5647775 246.842617,33.0747775 250.232617,32.5447775 C251.552617,32.0647775 253.002617,32.7847775 254.302617,32.1047775 C257.552617,32.1047775 260.812617,32.1047775 264.062617,32.1047775 C265.562617,32.7947775 267.192617,32.0547775 268.712617,32.5647775 C274.022617,33.4447775 279.402617,33.8747775 284.592617,35.4947775 C285.802617,35.8747775 286.092617,36.3247775 286.092617,37.4247775 C286.062617,41.7247775 286.082617,46.0247775 286.082617,50.5547775 C279.362617,48.5947775 272.782617,47.0347775 266.022617,46.4747775 C265.052617,45.9847775 263.962617,46.4247775 262.972617,46.1047775 C256.932617,45.7047775 250.922617,45.5747775 244.952617,47.0047775 C242.672617,47.5547775 240.702617,48.5747775 238.942617,49.9947775 C234.982617,53.2147775 235.432617,58.6047775 239.852617,61.6047775 C244.922617,65.0447775 250.892617,65.8747775 256.642617,67.2747775 C264.742617,69.2347775 273.012617,70.6547775 280.542617,74.4247775 C287.822617,78.0647775 292.512617,83.7247775 293.182617,92.1447775 C293.362617,93.2847775 293.412617,94.4247775 293.152617,95.5647775 L293.162617,95.5547775 Z" transform="translate(-470.000000, -415.000000) translate(470.527383, 415.725223)"/><path fill="#4D61FE" d="M116.752617,81.6847775 C114.622617,95.8347775 108.582617,107.974777 98.032617,117.764777 C93.882617,121.614777 89.082617,124.554777 84.142617,127.274777 C83.192617,127.794777 82.442617,128.374777 81.942617,129.334777 C78.232617,136.574777 73.062617,142.694777 67.382617,148.454777 C66.022617,149.834777 65.182617,149.764777 63.972617,148.364777 C61.592617,145.624777 59.092617,142.984777 56.592617,140.254777 C62.502617,134.634777 67.682617,128.354777 71.302617,120.954777 C78.772617,105.674777 76.682617,91.1747775 67.372617,77.3747775 C64.732617,73.4547775 61.782617,69.7747775 58.292617,66.5747775 C56.922617,65.3147775 56.772617,64.4247775 58.162617,63.1047775 C60.462617,60.9147775 62.642617,58.6047775 64.862617,56.3247775 C65.502617,55.6747775 65.992617,55.1247775 66.942617,56.0647775 C79.822617,68.8747775 88.882617,83.5147775 89.302617,102.304777 C89.342617,103.924777 89.152617,105.544777 89.072617,107.184777 C97.992617,100.954777 107.012617,82.7747775 102.492617,64.7347775 C99.792617,53.9647775 94.042617,45.2247775 85.032617,38.7147775 C76.132617,32.2747775 66.082617,29.6047775 54.772617,30.4047775 C56.742617,25.7447775 59.362617,21.8547775 62.142617,18.1247775 C64.002617,15.6347775 66.812617,17.4047775 68.892617,17.8347775 C92.582617,22.6547775 107.962617,36.7647775 115.062617,59.7947775 C115.872617,62.4147775 116.182617,65.1947775 116.732617,67.8947775 C117.092617,68.8647775 116.602617,69.9347775 117.122617,70.8847775 L117.142617,78.7647775 C116.552617,79.6747775 117.092617,80.7347775 116.742617,81.6747775 L116.752617,81.6847775 Z" transform="translate(-470.000000, -415.000000) translate(470.527383, 415.725223)"/><path fill="#333" d="M376.452617,89.7847775 C375.102617,96.4747775 372.552617,102.584777 367.902617,107.724777 C361.622617,114.674777 353.602617,118.094777 344.502617,119.364777 C341.232617,119.584777 337.972617,119.614777 334.702617,119.354777 C328.462617,118.924777 322.662617,116.914777 317.632617,113.354777 C308.942617,107.204777 303.632617,98.8647775 302.732617,88.0447775 C302.412617,81.2447775 302.632617,74.4447775 302.602617,67.6447775 C302.562617,57.2047775 302.582617,46.7547775 302.602617,36.3147775 C302.602617,35.2947775 302.242617,34.2047775 302.952617,33.2547775 C306.522617,33.2747775 310.092617,33.4547775 313.642617,33.2747775 C315.992617,33.1547775 316.722617,33.7847775 316.702617,36.2447775 C316.582617,51.8247775 316.942617,67.4047775 316.542617,82.9747775 C316.232617,94.9947775 323.542617,103.754777 334.952617,105.744777 C342.052617,106.984777 348.872617,105.624777 354.742617,100.734777 C359.322617,96.9247775 362.112617,92.3747775 362.452617,86.3947775 C362.972617,85.3947775 362.712617,84.3147775 362.712617,83.2847775 C362.732617,67.6247775 362.712617,51.9747775 362.742617,36.3147775 C362.742617,35.2947775 362.372617,34.2047775 363.092617,33.2547775 C366.662617,33.2747775 370.232617,33.4547775 373.782617,33.2747775 C376.132617,33.1547775 376.862617,33.7847775 376.843015,36.2447775 C376.742617,53.0747775 376.812617,69.8947775 376.822617,86.7247775 C376.312617,87.6947775 376.822617,88.7947775 376.402617,89.7847775 L376.452617,89.7847775 Z" transform="translate(-470.000000, -415.000000) translate(470.527383, 415.725223)"/><path fill="#333" d="M181.372617,105.854777 C183.892617,106.104777 186.412617,106.134777 188.932617,105.804777 C189.872617,105.444777 190.932617,106.014777 191.832617,105.394777 C197.402617,105.274777 202.492617,103.184777 207.562617,101.244777 C209.772617,100.394777 209.772617,101.114777 209.742617,102.784777 C209.692617,106.244777 209.632617,109.704777 209.772617,113.154777 C209.832617,114.674777 209.212617,115.284777 207.902617,115.774777 C202.692617,117.704777 197.272617,118.704777 191.782617,119.334777 C187.552617,119.614777 183.312617,119.614777 179.082617,119.334777 C167.932617,118.554777 157.792617,115.044777 149.352617,107.644777 C140.362617,99.7647775 135.702617,89.6947775 135.572617,77.6647775 C135.292617,76.5247775 135.332617,75.3847775 135.542617,74.2347775 C135.662617,68.3147775 136.672617,62.6047775 139.362617,57.2547775 C144.672617,46.6647775 153.042617,39.5747775 164.152617,35.6047775 C168.432617,34.0747775 172.872617,33.2147775 177.352617,32.5447775 C178.492617,32.0947775 179.762617,32.7447775 180.872617,32.1147775 L189.292617,32.1447775 C190.262617,32.6347775 191.352617,32.1947775 192.342617,32.5147775 C197.562617,33.4047775 202.732617,34.4647775 207.762617,36.1447775 C209.182617,36.6147775 209.862617,37.2547775 209.772617,38.9447775 C209.592617,42.3847775 209.692617,45.8347775 209.722617,49.2847775 C209.732617,50.8447775 209.692617,51.6047775 207.682617,50.6347775 C203.072617,48.4147775 198.202617,46.8847775 193.042617,46.4847775 C192.102617,45.9247775 191.012617,46.4747775 190.052617,46.0647775 C182.112617,45.2547775 174.312617,46.0147775 167.142617,49.5847775 C157.392617,54.4447775 151.452617,62.1647775 150.662617,73.3847775 C149.992617,82.7847775 152.692617,90.9247775 159.732617,97.2947775 C164.992617,102.064777 171.242617,104.884777 178.432617,105.394777 C179.332617,106.024777 180.422617,105.394777 181.342617,105.854777 L181.372617,105.854777 Z" transform="translate(-470.000000, -415.000000) translate(470.527383, 415.725223)"/><path fill="#333" d="M526.162617,56.1947775 C534.342617,57.8247775 540.882617,61.7447775 544.592617,69.6547775 L545.322617,69.4447775 L545.322617,65.1647775 C545.892617,63.8047775 545.282617,62.3347775 545.722617,60.9547775 L545.882617,57.0347775 C547.782617,56.3447775 549.692617,56.3647775 551.592617,57.0347775 L551.612617,118.044777 C550.992617,118.944777 551.562617,120.004777 551.202617,120.944777 C550.272617,124.504777 549.642617,128.154777 547.752617,131.424777 C543.832617,138.194777 537.522617,141.004777 530.212617,142.334777 C525.722617,143.144777 521.202617,142.984777 516.692617,142.854777 C506.752617,142.584777 497.302617,134.794777 495.102617,125.304777 C494.692617,123.524777 494.972617,122.684777 497.232617,122.594777 C500.232617,122.484777 501.612617,123.224777 502.662617,126.344777 C504.292617,131.194777 508.322617,134.464777 513.172617,135.774777 C522.042617,138.174777 530.812617,138.434777 538.602617,132.164777 C542.852617,128.744777 544.172617,123.914777 544.812617,119.014777 C545.412617,114.444777 545.612617,109.754777 545.082617,104.254777 C540.412617,113.314777 533.382617,118.014777 523.842617,118.814777 C522.312617,118.984777 520.782617,119.064777 519.252617,118.764777 C504.492617,117.684777 494.862617,107.724777 493.062617,92.6647775 C492.812617,89.2147775 492.852617,85.7647775 493.042617,82.3247775 C493.502617,77.1747775 495.152617,72.3747775 497.992617,68.1147775 C502.602617,61.1747775 509.222617,57.2547775 517.522617,56.1847775 C520.402617,55.9647775 523.282617,55.9347775 526.162617,56.1947775 Z M528.332617,62.3747775 C519.222617,60.0747775 511.052617,62.2247775 504.952617,69.7147775 C499.642617,76.2347775 498.502617,83.9947775 499.632617,92.0447775 C502.492617,112.464777 521.092617,116.824777 533.102617,110.444777 C542.152617,105.634777 545.082617,97.1947775 545.352617,87.5247775 C545.352617,85.2047775 545.172617,82.9047775 544.672617,80.6447775 C542.642617,71.5247775 537.702617,64.7447775 528.332617,62.3747775 Z" transform="translate(-470.000000, -415.000000) translate(470.527383, 415.725223)"/><path fill="#333" d="M399.022617,33.2647775 C406.242617,33.4847775 413.472617,33.3147775 420.702617,33.3047775 C422.262617,33.9047775 423.932617,33.2347775 425.502617,33.7247775 L425.502617,33.7147775 C433.352617,34.9847775 440.742617,37.2347775 447.122617,42.3147775 C454.302617,48.0347775 458.092617,55.6247775 460.212617,64.2647775 C460.462617,65.2747775 460.672617,66.2947775 460.902617,67.3047775 C461.362617,68.2247775 460.722617,69.3147775 461.362617,70.2147775 C461.522617,76.7147775 461.232617,83.1547775 459.662617,89.5347775 C456.202617,103.594777 444.262617,114.454777 429.932617,116.994777 C419.132617,118.904777 408.302617,117.614777 397.502617,118.104777 C395.931004,118.174455 395.90578,117.357056 395.974523,116.515683 L396.00187,116.20073 C396.01346,116.061749 396.022617,115.9251 396.022617,115.794777 C396.002617,101.474777 396.012617,87.1447775 396.012617,72.8247775 C396.012617,60.7147775 396.072617,48.5947775 395.952617,36.4847775 C395.932617,34.0847775 396.312617,33.1847775 399.022617,33.2647775 Z M405.332617,39.5547775 C403.212617,39.4747775 402.582617,39.9947775 402.612617,42.2047775 C402.742617,53.2547775 402.672617,64.3147775 402.672617,75.3647775 L402.652617,75.3647775 C402.652617,86.7047775 402.692617,98.0547775 402.622617,109.394777 C402.612617,111.164777 402.932617,111.934777 404.952617,111.874777 C410.922617,111.704777 416.912617,111.944777 422.872617,111.694777 C436.982617,111.104777 448.082617,102.944777 452.432617,90.2047775 C454.582617,83.9047775 454.812617,77.4047775 454.402617,70.8547775 C453.392617,54.7547775 443.262617,43.2047775 427.542617,40.3447775 C422.948867,39.5135275 418.312148,39.5221212 413.673965,39.5771017 L411.818711,39.599687 C409.654388,39.6245344 407.49095,39.6364441 405.332617,39.5547775 Z" transform="translate(-470.000000, -415.000000) translate(470.527383, 415.725223)"/><path fill="#333" d="M651.132617,56.2147775 C655.162617,56.9847775 659.082617,58.0547775 662.472617,60.4747775 C667.792617,64.2647775 669.712617,69.8047775 670.362617,75.9747775 C670.722617,85.7247775 670.412617,95.4847775 670.532617,105.244777 C670.542617,106.274777 670.272617,107.354777 670.792617,108.344777 L670.782617,108.334777 C671.412617,111.554777 672.772617,112.324777 677.812617,112.294777 C678.162617,114.224777 678.162617,116.154777 677.812617,118.084777 C675.822617,118.044777 673.822617,118.064777 671.832617,117.954777 C667.362617,117.714777 665.382617,115.734777 664.292617,110.554777 C664.032617,109.624777 664.292617,108.664777 664.092617,107.734777 C663.922617,106.964777 663.612617,107.634777 663.372617,107.704777 C658.632617,114.674777 651.872617,118.044777 643.612617,118.764777 C641.892617,119.054777 640.162617,119.004777 638.442617,118.794777 C634.612617,118.634777 630.912617,117.944777 627.482617,116.104777 C622.692617,113.524777 619.912617,109.584777 619.172617,104.204777 C618.982617,102.104777 618.952617,100.004777 619.192617,97.9047775 C620.502617,89.3847775 626.152617,84.9247775 635.832617,83.4947775 C644.332617,82.2347775 652.922617,83.0247775 661.472617,82.9347775 C663.452617,82.9147775 663.982617,82.4747775 664.042617,80.4347775 C664.242617,73.6247775 662.632617,67.7347775 656.322617,64.1547775 C654.342617,63.0347775 652.222617,61.8247775 649.722617,62.0647775 C648.702617,61.6147775 647.582617,61.9947775 646.552617,61.6747775 L645.352617,61.6747775 C644.322617,61.9947775 643.192617,61.6047775 642.182617,62.0647775 C635.382617,62.4147775 630.832617,65.9247775 628.152617,72.0247775 C627.422617,73.6947775 622.892617,75.0647775 621.452617,73.9947775 C620.992617,73.6547775 621.092617,73.2147775 621.212617,72.7347775 C623.392617,64.2447775 628.822617,58.5747775 637.742617,56.9247775 C638.942617,56.7047775 640.142617,56.4547775 641.332617,56.2147775 C644.602617,55.9547775 647.862617,55.9547775 651.132617,56.2147775 Z M662.227637,88.3338537 L662.072617,88.3347775 C658.602617,88.3947775 655.142617,88.3547775 650.832617,88.3547775 L650.832617,88.3647775 C645.742617,88.5847775 639.732617,87.7047775 633.932617,89.6747775 C628.432617,91.5447775 625.682617,95.0647775 625.522617,100.404777 C625.362617,105.784777 628.092617,109.824777 633.332617,111.944777 C649.302617,118.404777 665.192617,107.034777 663.992617,90.0547775 C663.892617,88.5847775 663.342617,88.3147775 662.072617,88.3347775 Z" transform="translate(-470.000000, -415.000000) translate(470.527383, 415.725223)"/><path fill="#333" d="M597.312617,105.454777 C597.502617,109.864777 599.792617,112.194777 604.182617,112.294777 C607.512617,112.374777 610.842617,112.304777 614.182617,112.294777 C614.532617,114.224777 614.532617,116.154777 614.182617,118.084777 C609.872617,118.044777 605.542617,118.244777 601.252617,117.904777 C595.532617,117.444777 591.902617,115.294777 590.812617,107.084777 C590.532617,93.3747775 590.772617,79.6747775 590.672617,65.9647775 C590.672617,64.9347775 590.972617,63.8547775 590.382617,62.8747775 C586.762617,62.2747775 583.122617,62.6647775 579.482617,62.6547775 C578.722617,61.1047775 579.222617,59.4647775 579.132617,57.8647775 C579.052617,56.3247775 580.292617,56.6747775 581.192617,56.6247775 C584.242617,56.4447775 587.322617,56.9647775 590.362617,56.3247775 C591.002617,51.5547775 590.722617,46.7447775 590.562617,41.9747775 C590.462617,38.9947775 592.212617,39.5947775 593.842617,39.5947775 C595.472617,39.5947775 597.222617,38.9847775 597.122617,41.9747775 C596.962617,46.7447775 596.682617,51.5547775 597.322617,56.3247775 C601.682617,56.9947775 606.082617,56.4147775 610.452617,56.6447775 C611.462617,56.6947775 612.552617,56.2247775 613.472617,57.0347775 C613.302617,62.5847775 613.302617,62.5247775 607.612617,62.6047775 C604.182617,62.6547775 600.732617,62.2347775 597.312617,62.8747775 C596.902617,63.3747775 597.012617,63.9647775 597.012617,64.5347775 C597.012617,77.6147775 597.012617,90.6947775 597.012617,103.774777 C597.012617,104.344777 596.922617,104.934777 597.282617,105.444777 L597.312617,105.454777 Z" transform="translate(-470.000000, -415.000000) translate(470.527383, 415.725223)"/><path fill="#333" d="M686.112617,75.6647775 C686.112617,62.4847775 686.192617,49.3147775 686.042617,36.1347775 C686.012617,33.4747775 687.072617,33.1947775 689.242617,33.2847775 C691.182617,33.3647775 692.592617,33.1247775 692.582617,35.9947775 C692.462617,62.5447775 692.452617,89.0847775 692.582617,115.634777 C692.602617,118.804777 690.772617,117.984777 689.092617,118.104777 C687.162617,118.244777 686.002617,118.104777 686.042617,115.484777 C686.202617,102.214777 686.112617,88.9347775 686.112617,75.6647775 L686.112617,75.6647775 Z" transform="translate(-470.000000, -415.000000) translate(470.527383, 415.725223)"/><path fill="#333" d="M572.422617,57.2547775 C572.342617,58.2947775 572.192617,59.3347775 572.192617,60.3847775 C572.182617,78.3447775 572.182617,96.3047775 572.182617,114.254777 C572.182617,116.808111 570.929284,118.084777 568.422617,118.084777 C567.652617,118.084777 566.882617,118.084777 566.112617,118.084777 C565.562617,117.194777 565.822617,116.204777 565.822617,115.274777 C565.802617,96.8347775 565.802617,78.4047775 565.822617,59.9647775 C565.822617,56.2247775 565.472617,56.6147775 569.292617,56.6747775 C570.332617,56.6947775 571.582617,56.0647775 572.422617,57.2647775 L572.422617,57.2547775 Z" transform="translate(-470.000000, -415.000000) translate(470.527383, 415.725223)"/><path fill="#333" d="M480.472617,56.9347775 C480.472617,76.3547775 480.432617,95.7747775 480.542617,115.194777 C480.552617,117.604777 479.972617,118.364777 477.562617,118.144777 C475.612617,117.964777 474.092617,118.404777 474.112617,115.294777 C474.282617,95.8747775 474.172617,76.4547775 474.152617,57.0447775 C476.252617,56.3547775 478.362617,56.5047775 480.472617,56.9447775 L480.472617,56.9347775 Z" transform="translate(-470.000000, -415.000000) translate(470.527383, 415.725223)"/><path fill="#333" d="M564.632617,38.7547775 C564.632617,35.5047775 565.772617,34.3547775 568.952617,34.3947775 C571.642617,34.4347775 573.572617,36.3147775 573.502617,38.8247775 C573.432617,41.3347775 571.492617,43.0547775 568.732617,43.0547775 C565.792617,43.0547775 564.632617,41.8347775 564.632617,38.7547775 L564.632617,38.7547775 Z" transform="translate(-470.000000, -415.000000) translate(470.527383, 415.725223)"/><path fill="#333" d="M476.752617,43.0547775 C473.892617,42.9547775 472.812617,41.5947775 472.952617,38.3047775 C473.082617,35.3547775 474.412617,34.2347775 477.582617,34.3947775 C480.242617,34.5347775 481.672617,36.0947775 481.622617,38.8347775 C481.572617,41.6747775 479.862617,43.1547775 476.742617,43.0447775 L476.752617,43.0547775 Z" transform="translate(-470.000000, -415.000000) translate(470.527383, 415.725223)"/><path fill="#333" d="M572.422617,57.2547775 C566.632617,55.7447775 566.002617,56.2047775 566.002617,61.9147775 C566.002617,79.5847775 566.002617,97.2547775 566.002617,114.924777 C566.002617,115.974777 566.072617,117.034777 566.112617,118.084777 C565.072617,117.154777 565.532617,115.924777 565.532617,114.834777 C565.502617,96.6247775 565.492617,78.4247775 565.542617,60.2147775 C565.542617,58.9747775 564.772617,56.9547775 566.272617,56.6247775 C568.222617,56.1947775 570.562617,55.4147775 572.422617,57.2547775 L572.422617,57.2547775 Z" transform="translate(-470.000000, -415.000000) translate(470.527383, 415.725223)"/><path fill="#333" d="M302.962617,33.2647775 C302.372617,34.3447775 302.602617,35.5147775 302.602617,36.6447775 C302.632617,53.7747775 302.682617,70.9147775 302.732617,88.0447775 C302.022617,87.2147775 302.302617,86.2147775 302.302617,85.2847775 C302.282617,68.9147775 302.282617,52.5447775 302.302617,36.1747775 C302.302617,35.1847775 301.862617,34.0347775 302.962617,33.2647775 Z" transform="translate(-470.000000, -415.000000) translate(470.527383, 415.725223)"/><path fill="#333" d="M363.132617,33.2647775 C362.542617,34.3447775 362.772617,35.5247775 362.772617,36.6547775 C362.762617,52.2047775 362.772617,67.7547775 362.752617,83.3047775 C362.752617,84.3347775 363.022617,85.4147775 362.482617,86.4147775 C362.482617,69.5747775 362.462617,52.7347775 362.472617,35.8947775 C362.472617,34.9947775 362.112617,33.9447775 363.132617,33.2747775 L363.132617,33.2647775 Z" transform="translate(-470.000000, -415.000000) translate(470.527383, 415.725223)"/><path fill="#333" d="M590.382617,62.8747775 C591.002617,63.8447775 590.662617,64.9247775 590.672617,65.9547775 C590.742617,79.6647775 590.772617,93.3747775 590.812617,107.094777 C590.082617,106.154777 590.402617,105.054777 590.402617,104.034777 C590.382617,90.3147775 590.392617,76.5947775 590.392617,62.8847775 L590.382617,62.8747775 Z" transform="translate(-470.000000, -415.000000) translate(470.527383, 415.725223)"/><path fill="#333" d="M597.312617,105.454777 C596.802617,104.564777 597.052617,103.584777 597.042617,102.644777 C597.022617,90.3147775 597.022617,77.9847775 597.042617,65.6547775 C597.042617,64.7347775 596.732617,63.7447775 597.332617,62.8747775 C597.332617,77.0647775 597.312617,91.2547775 597.302617,105.444777 L597.312617,105.454777 Z" transform="translate(-470.000000, -415.000000) translate(470.527383, 415.725223)"/><path fill="#333" d="M670.782617,108.334777 C670.172617,107.594777 670.322617,106.704777 670.322617,105.854777 C670.322617,95.8947775 670.342617,85.9247775 670.342617,75.9647775 C671.022617,76.6947775 670.792617,77.5947775 670.792617,78.4347775 C670.792617,88.4047775 670.792617,98.3647775 670.772617,108.334777 L670.782617,108.334777 Z" transform="translate(-470.000000, -415.000000) translate(470.527383, 415.725223)"/><path fill="#333" d="M590.372617,56.3347775 C587.912617,57.4047775 585.332617,56.6847775 582.812617,56.7847775 C578.992617,56.9247775 578.982617,56.8247775 579.132617,60.7147775 C579.162617,61.3647775 579.362617,62.0147775 579.482617,62.6647775 C578.162617,61.0547775 578.932617,59.1847775 578.892617,57.4447775 C578.872617,56.2247775 580.002617,56.3447775 580.852617,56.3447775 C584.022617,56.3247775 587.202617,56.3447775 590.372617,56.3447775 L590.372617,56.3347775 Z" transform="translate(-470.000000, -415.000000) translate(470.527383, 415.725223)"/><path fill="#333" d="M613.492617,57.0347775 C609.002617,56.5347775 604.492617,56.9747775 599.992617,56.7847775 C599.112617,56.7447775 598.072617,57.2947775 597.342617,56.3247775 C601.852617,56.3247775 606.372617,56.3047775 610.882617,56.3347775 C611.782617,56.3347775 612.842617,55.9647775 613.492617,57.0247775 L613.492617,57.0347775 Z" transform="translate(-470.000000, -415.000000) translate(470.527383, 415.725223)"/><path fill="#333" d="M221.852617,99.1147775 C220.132617,98.5847775 220.452617,99.8747775 220.452617,100.744777 C220.452617,104.974777 220.512617,109.204777 220.542617,113.434777 C219.622617,108.844777 220.282617,104.214777 220.192617,99.6047775 C220.172617,98.4347775 220.942617,98.1147775 221.842617,99.1147775 L221.852617,99.1147775 Z" transform="translate(-470.000000, -415.000000) translate(470.527383, 415.725223)"/><path fill="#333" d="M246.202617,119.394777 C250.812617,119.394777 255.432617,119.384777 260.042617,119.374777 C255.432617,120.114777 250.812617,120.084777 246.202617,119.394777 Z" transform="translate(-470.000000, -415.000000) translate(470.527383, 415.725223)"/><path fill="#333" d="M179.082617,119.344777 L191.782617,119.344777 C187.552617,120.114777 183.312617,120.114777 179.082617,119.344777 Z" transform="translate(-470.000000, -415.000000) translate(470.527383, 415.725223)"/><path fill="#333" d="M493.042617,82.3247775 C493.042617,85.7747775 493.052617,89.2247775 493.062617,92.6647775 C492.342617,89.2147775 492.362617,85.7747775 493.042617,82.3247775 L493.042617,82.3247775 Z" transform="translate(-470.000000, -415.000000) translate(470.527383, 415.725223)"/><path fill="#333" d="M334.702617,119.354777 C337.972617,119.354777 341.232617,119.354777 344.502617,119.364777 C341.232617,120.084777 337.972617,120.114777 334.702617,119.354777 Z" transform="translate(-470.000000, -415.000000) translate(470.527383, 415.725223)"/><path fill="#333" d="M651.112617,56.2047775 C647.842617,56.2047775 644.582617,56.2047775 641.312617,56.2047775 C644.582617,55.4447775 647.842617,55.4447775 651.112617,56.2047775 Z" transform="translate(-470.000000, -415.000000) translate(470.527383, 415.725223)"/><path fill="#333" d="M526.162617,56.2047775 C523.282617,56.2047775 520.402617,56.2047775 517.522617,56.1947775 C520.402617,55.4747775 523.282617,55.4547775 526.162617,56.2047775 Z" transform="translate(-470.000000, -415.000000) translate(470.527383, 415.725223)"/><path fill="#4D61FE" d="M0.732616974,71.3747775 C0.752616974,73.6647775 0.762616974,75.9447775 0.782616974,78.2347775 C-0.0173830264,75.9547775 0.0926169736,73.6647775 0.732616974,71.3747775 Z" transform="translate(-470.000000, -415.000000) translate(470.527383, 415.725223)"/><path fill="#333" d="M221.772617,54.0347775 C221.772617,56.1447775 221.772617,58.2447775 221.772617,60.3547775 C221.022617,58.2447775 221.022617,56.1447775 221.772617,54.0347775 L221.772617,54.0347775 Z" transform="translate(-470.000000, -415.000000) translate(470.527383, 415.725223)"/><path fill="#333" d="M619.182617,97.9047775 C619.182617,100.004777 619.172617,102.104777 619.162617,104.204777 C618.482617,102.104777 618.462617,100.004777 619.182617,97.9047775 Z" transform="translate(-470.000000, -415.000000) translate(470.527383, 415.725223)"/><path fill="#333" d="M480.472617,56.9347775 C478.362617,56.7847775 476.252617,56.6447775 474.152617,57.0347775 C476.242617,55.8247775 478.352617,56.0147775 480.472617,56.9347775 Z" transform="translate(-470.000000, -415.000000) translate(470.527383, 415.725223)"/><path fill="#333" d="M551.592617,57.0347775 C549.692617,56.6847775 547.782617,56.6847775 545.882617,57.0347775 C547.782617,55.8947775 549.682617,55.9147775 551.592617,57.0347775 Z" transform="translate(-470.000000, -415.000000) translate(470.527383, 415.725223)"/><path fill="#333" d="M614.172617,118.084777 C614.512617,116.154777 614.512617,114.224777 614.172617,112.294777 C614.982617,114.224777 614.982617,116.154777 614.172617,118.084777 Z" transform="translate(-470.000000, -415.000000) translate(470.527383, 415.725223)"/><path fill="#333" d="M677.812617,118.084777 C678.152617,116.154777 678.152617,114.224777 677.812617,112.294777 C678.622617,114.224777 678.622617,116.154777 677.812617,118.084777 Z" transform="translate(-470.000000, -415.000000) translate(470.527383, 415.725223)"/><path fill="#333" d="M663.362617,107.704777 C663.542617,107.394777 663.662617,106.904777 663.922617,106.794777 C664.592617,106.534777 664.322617,107.174777 664.322617,107.414777 C664.342617,108.454777 664.302617,109.494777 664.282617,110.544777 C663.422617,109.774777 664.322617,108.434777 663.362617,107.694777 L663.362617,107.704777 Z" transform="translate(-470.000000, -415.000000) translate(470.527383, 415.725223)"/><path fill="#333" d="M638.422617,118.794777 C640.142617,118.794777 641.872617,118.774777 643.592617,118.764777 C641.872617,119.514777 640.152617,119.474777 638.422617,118.794777 Z" transform="translate(-470.000000, -415.000000) translate(470.527383, 415.725223)"/><path fill="#333" d="M268.722617,32.5647775 C267.152617,32.5947775 265.592617,32.5447775 264.072617,32.1047775 C265.622617,32.2847775 267.252617,31.6147775 268.722617,32.5647775 Z" transform="translate(-470.000000, -415.000000) translate(470.527383, 415.725223)"/><path fill="#333" d="M425.502617,33.7147775 C423.902617,33.5747775 422.302617,33.4347775 420.702617,33.2947775 C422.302617,33.4047775 423.972617,32.7647775 425.502617,33.7147775 Z" transform="translate(-470.000000, -415.000000) translate(470.527383, 415.725223)"/><path fill="#333" d="M519.252617,118.764777 C520.782617,118.784777 522.312617,118.794777 523.842617,118.814777 C522.302617,119.464777 520.772617,119.524777 519.252617,118.764777 Z" transform="translate(-470.000000, -415.000000) translate(470.527383, 415.725223)"/><path fill="#333" d="M254.312617,32.1047775 C252.992617,32.5847775 251.622617,32.5647775 250.242617,32.5447775 C251.522617,31.6647775 252.952617,32.2547775 254.312617,32.1047775 Z" transform="translate(-470.000000, -415.000000) translate(470.527383, 415.725223)"/><path fill="#333" d="M545.722617,60.9647775 C545.802617,62.3847775 545.732617,63.7947775 545.322617,65.1747775 C545.412617,63.7647775 544.842617,62.2947775 545.722617,60.9647775 Z" transform="translate(-470.000000, -415.000000) translate(470.527383, 415.725223)"/><path fill="#333" d="M278.052617,93.6947775 C278.762617,94.9447775 278.772617,96.2047775 278.052617,97.4547775 C278.052617,96.2047775 278.052617,94.9447775 278.052617,93.6947775 Z" transform="translate(-470.000000, -415.000000) translate(470.527383, 415.725223)"/><path fill="#333" d="M293.162617,95.5547775 C293.172617,94.4147775 293.182617,93.2747775 293.192617,92.1347775 C293.832617,93.2847775 293.872617,94.4247775 293.162617,95.5547775 Z" transform="translate(-470.000000, -415.000000) translate(470.527383, 415.725223)"/><path fill="#333" d="M250.212617,105.854777 C248.972617,105.924777 247.742617,105.914777 246.572617,105.434777 C247.792617,105.504777 249.082617,104.984777 250.212617,105.854777 Z" transform="translate(-470.000000, -415.000000) translate(470.527383, 415.725223)"/><path fill="#333" d="M263.652617,105.424777 C262.512617,106.004777 261.292617,105.884777 260.082617,105.854777 C261.182617,104.994777 262.462617,105.514777 263.652617,105.424777 Z" transform="translate(-470.000000, -415.000000) translate(470.527383, 415.725223)"/><path fill="#333" d="M135.542617,74.2447775 C135.542617,75.3847775 135.562617,76.5347775 135.572617,77.6747775 C134.842617,76.5347775 134.872617,75.3947775 135.542617,74.2447775 Z" transform="translate(-470.000000, -415.000000) translate(470.527383, 415.725223)"/><path fill="#333" d="M180.872617,32.1147775 C179.732617,32.5547775 178.542617,32.5747775 177.352617,32.5447775 C178.442617,31.7047775 179.692617,32.2247775 180.872617,32.1147775 Z" transform="translate(-470.000000, -415.000000) translate(470.527383, 415.725223)"/><path fill="#333" d="M551.202617,120.944777 C551.162617,119.954777 551.152617,118.964777 551.612617,118.044777 C551.522617,119.014777 551.932617,120.054777 551.202617,120.944777 Z" transform="translate(-470.000000, -415.000000) translate(470.527383, 415.725223)"/><path fill="#333" d="M646.522617,61.6647775 C647.602617,61.6347775 648.702617,61.4247775 649.692617,62.0547775 C648.632617,61.9847775 647.502617,62.4447775 646.522617,61.6647775 Z" transform="translate(-470.000000, -415.000000) translate(470.527383, 415.725223)"/><path fill="#333" d="M642.152617,62.0547775 C643.152617,61.4347775 644.252617,61.6347775 645.322617,61.6647775 C644.342617,62.4447775 643.212617,61.9747775 642.152617,62.0547775 Z" transform="translate(-470.000000, -415.000000) translate(470.527383, 415.725223)"/><path fill="#333" d="M262.982617,46.0947775 C264.032617,45.9747775 265.052617,46.0147775 266.032617,46.4647775 C265.002617,46.4247775 263.922617,46.8347775 262.982617,46.0947775 Z" transform="translate(-470.000000, -415.000000) translate(470.527383, 415.725223)"/><path fill="#333" d="M190.082617,46.0647775 C191.112617,45.9947775 192.122617,45.9847775 193.072617,46.4847775 C192.062617,46.4247775 190.992617,46.8547775 190.082617,46.0647775 Z" transform="translate(-470.000000, -415.000000) translate(470.527383, 415.725223)"/><path fill="#333" d="M192.352617,32.5147775 C191.312617,32.6047775 190.282617,32.5147775 189.302617,32.1447775 C190.332617,32.1847775 191.412617,31.7747775 192.352617,32.5147775 Z" transform="translate(-470.000000, -415.000000) translate(470.527383, 415.725223)"/><path fill="#333" d="M461.372617,70.2147775 C460.902617,69.2947775 460.882617,68.3047775 460.912617,67.3047775 C461.712617,68.1747775 461.272617,69.2347775 461.372617,70.2147775 Z" transform="translate(-470.000000, -415.000000) translate(470.527383, 415.725223)"/><path fill="#4D61FE" d="M117.122617,70.8947775 C116.652617,69.9447775 116.672617,68.9247775 116.732617,67.9047775 C117.492617,68.8147775 117.072617,69.8847775 117.122617,70.8947775 Z" transform="translate(-470.000000, -415.000000) translate(470.527383, 415.725223)"/><path fill="#4D61FE" d="M116.752617,81.6847775 C116.702617,80.6947775 116.622617,79.6947775 117.152617,78.7847775 C117.072617,79.7647775 117.482617,80.8047775 116.752617,81.6847775 Z" transform="translate(-470.000000, -415.000000) translate(470.527383, 415.725223)"/><path fill="#333" d="M376.452617,89.7847775 C376.592617,88.7647775 376.732617,87.7447775 376.872617,86.7347775 C376.832617,87.7647775 377.262617,88.8647775 376.452617,89.7847775 Z" transform="translate(-470.000000, -415.000000) translate(470.527383, 415.725223)"/><path fill="#333" d="M191.832617,105.394777 C190.912617,105.894777 189.932617,105.894777 188.932617,105.804777 C189.812617,105.074777 190.862617,105.484777 191.832617,105.394777 Z" transform="translate(-470.000000, -415.000000) translate(470.527383, 415.725223)"/><path fill="#333" d="M181.372617,105.854777 C180.372617,105.894777 179.362617,105.964777 178.462617,105.394777 C179.442617,105.494777 180.502617,105.054777 181.372617,105.854777 Z" transform="translate(-470.000000, -415.000000) translate(470.527383, 415.725223)"/><path fill="#4D61FE" d="M50.092617,132.034777 C51.082617,132.014777 52.092617,131.934777 52.992617,132.494777 C52.012617,132.394777 50.952617,132.844777 50.092617,132.034777 Z" transform="translate(-470.000000, -415.000000) translate(470.527383, 415.725223)"/></g></g></g></svg>