<svg  id="fndm-4v9t2gaqt2" viewBox="0.9088888764381409 0.7923600673675537 500.1343688964844 260.63763427734375" xmlns="http://www.w3.org/2000/svg">
   <g xmlns="http://www.w3.org/2000/svg" fill="none">
    <path d="m247.6,113.14c5.12,0 10.33,0.58 15.35,-0.12c9.32,-1.31 9.76,3 7.32,10c-1.88,5.4 -3.8,10.8 -5.15,16.34c-1.13,4.65 -4.41,4.06 -7.7,4.19c-13.78,0.55 -27.72,-1.75 -41.3,2.28c-18.31,5.42 -32.12,16.49 -39.66,34.1c-9.72,22.73 4.2,42.34 30.38,43.36c9.33,0.36 18.69,0.24 28,0.08c4.76,-0.08 5.76,1.41 4,5.87a80.55,80.55 0 0 0 -5,17.84c-0.79,5.22 -3.89,7.85 -9.94,7.25c-14.29,-1.43 -28.66,1.18 -43.06,-2.64c-36.47,-9.67 -50.95,-48.78 -37.52,-80.74c16,-38.05 48.62,-52.81 87.14,-57.58c5.64,-0.7 11.44,-0.1 17.17,-0.1l-0.03,-0.13zm188.23,141.03c-7.52,-0.61 -16.36,-0.29 -25.41,-2.15c-38.24,-7.89 -54.14,-57.16 -33.44,-90.72c18.72,-30.4 47.6,-44.05 81.8,-47.73c12.22,-1.32 24.69,-0.22 37,-0.49c4.53,-0.1 6.2,1.39 4.76,5.81c-0.09,0.28 -0.23,0.56 -0.3,0.85c-6,23.86 -6,24.41 -31,23.65c-24.38,-0.75 -44.39,6.95 -58.58,27.18c-7.58,10.8 -11.51,22.84 -5.07,35.61c6.57,13 18.4,17.26 32.24,17.23c8.74,0 17.49,0.19 26.22,-0.07c4.85,-0.14 6,1.59 4.15,5.87a24.38,24.38 0 0 0 -0.76,2.6c-6.68,22.33 -6.68,22.33 -31.61,22.36zm-99.47,-141.04c14.47,0 28.95,0.29 43.41,-0.12c7,-0.2 8,2.6 5.38,8c-3.41,7 -1.47,17.76 -8.11,21.25c-6.21,3.25 -15.34,1.6 -23.1,1c-7.2,-0.54 -10.34,1.64 -12.34,8.91c-8.43,30.71 -17.93,61.13 -26.33,91.86c-2.25,8.26 -6,11.6 -14.35,10.5c-4.15,-0.54 -8.43,-0.14 -12.65,-0.16c-15.25,-0.06 -14,1.84 -9.51,-13.57c8.46,-29.2 17.42,-58.2 26.13,-87.3c2.84,-9.49 2.45,-9.95 -7.79,-10c-3.61,0 -7.23,0.06 -10.85,0.05c-10.11,0 -10.11,0 -6.87,-10.11c6.52,-20.29 6.52,-20.29 28,-20.29l28.98,-0.02z" fill="#515152"/>
    <path d="m44.01,261.43c-15.32,-17.26 -19.23,-37.8 -21.42,-58.45c-1.87,-17.64 -1.81,-35.74 2,-53.1c3.33,-15.12 7.25,-30.26 13,-44.85c7.43,-19 14.71,-38 26,-55.07c10.47,-15.8 21.76,-30.93 36.42,-43.2a37.12,37.12 0 0 1 6.1,-3.84c4.55,-2.49 9.33,-3.37 13.4,0.57c4.42,4.29 2.08,8.94 -0.41,13.2c-5.28,9.06 -14.09,14.83 -21.43,21.84c-15.52,14.85 -25.32,33.32 -34.87,51.89c-11.76,22.87 -15.76,48.33 -22.58,72.84c-6.67,24 -5.75,48.24 -2.72,72.47c0.87,6.94 4.35,13.53 6.46,20.33c0.4,1.31 0.05,2.86 0.05,5.37z" fill="#B3CB69"/>
    <path d="m40.7,199.1c-0.37,-22.33 7.17,-42.72 15.85,-62.73c3.54,-8.16 5.7,-16.9 9.28,-24.77c3.07,-6.74 9.48,-12.32 13.93,-18.91a160,160 0 0 1 34.23,-36.78c5.14,-4 12.29,-8.57 17.67,-2.28c4.83,5.65 0,12.06 -4.4,16.65c-11.27,11.63 -23,22.71 -33.13,35.54c-10,12.64 -16.38,27.11 -24.47,40.72c-9.21,15.5 -13.59,32.92 -20.3,49.41c-1.9,4.7 -1.23,9.49 -1.71,14.24c-0.24,2.31 -0.75,4.22 -3.6,4.11c-2.85,-0.11 -3.33,-2.06 -3.34,-4.36c0,-3.613 -0.003,-7.227 -0.01,-10.84z" fill="#B3CB69"/>
    <path d="m81.76,160.9c-4.08,-10.85 1.45,-17.93 5.59,-23.55c10.93,-14.75 22.93,-28.96 39.93,-37.46a20.18,20.18 0 0 1 14.93,-1.23c5.69,1.76 3.38,5.77 1.27,9.35c-4.67,7.93 -13.8,10.1 -20.22,15.83c-10.66,9.51 -23.28,17 -31.18,29.33c-2.58,4.06 -7.48,3.17 -10.32,7.73zm-80.85,-55.85c8.72,14.4 14.83,27.28 14.21,42.7c-0.59,14.39 0.46,28.85 -2.14,43.15c-0.35,1.94 0.57,4.64 -2.44,5c-2.4,0.29 -4.05,-1.7 -4.86,-3.49c-2.46,-5.47 -4.74,-11.08 -4.74,-17.25l0,-46c-0.04,-7.31 -0.03,-14.56 -0.03,-24.11z" fill="#B3CB69"/>
   </g>
  </svg>