<svg  id="fndm-tmwrajih95" viewBox="0.8307857513427734 0.20639915764331818 1694.6728515625 338.5008239746094" xmlns="http://www.w3.org/2000/svg">
   <g xmlns="http://www.w3.org/2000/svg" fill="#888">
    <path d="m87.95,144.15c25.42,-57.93 66.65,-100.64 113.79,-138.45c3.38,-2.71 6.6,-5.44 11.38,-5.43c28.88,0.08 57.76,0 87.08,0.9c-16.26,10.06 -31.85,20.8 -46.29,33.11c-31.24,26.64 -59.78,55.68 -81.53,90.83a104.011,104.011 0 0 0 -3,5.16c-10.63,19.21 -10.37,21.5 3.1,38.59c39.06,49.593 78.06,99.21 117,148.85c1.79,2.28 5.41,4.5 4.24,7.38c-1.5,3.75 -5.84,1.94 -8.9,2c-26.58,0.13 -53.17,-0.2 -79.75,0.23c-7.71,0.13 -12.16,-2.41 -15.59,-9.29a605,605 0 0 0 -95,-138.41c-1.92,-2.12 -3.22,-5.11 -8.47,-5.5c0,14.9 -0.14,29.64 0,44.38c0.38,33.22 1,66.44 3.77,99.56c0.61,7.28 -2.2,9.27 -9,9.19c-22.92,-0.24 -45.87,-0.57 -68.77,0.15c-10,0.32 -11.37,-4 -11.16,-12.44c2.21,-90 2,-180.06 1.59,-270.1c-0.05,-11.95 -0.41,-23.91 -0.84,-35.86c-0.23,-6.24 2,-8.88 8.67,-8.79c22.93,0.3 45.86,0.37 68.78,0c7.83,-0.13 9.49,3.26 9.35,10.17c-0.84,39.86 -1.507,79.717 -2,119.57c-0.01,4.11 -0.85,8.44 1.55,14.2zm1413,-2.41c4.35,-0.29 5.69,-3.67 7.75,-6c14.4,-16.67 29.78,-32.18 49.18,-43.15c27.09,-15.32 56.32,-16.55 85.06,-8.72c31.46,8.56 45.33,33.71 50.6,64.24c2.62,15.16 2,30.5 1.44,45.75c-1.55,40.53 -0.85,81 0.5,121.53c0.29,8.6 -2,11.92 -11,11.65a926.888,926.888 0 0 0 -55.8,0c-9,0.27 -11.15,-3.07 -11,-11.62c0.51,-33.21 0.68,-66.44 0.21,-99.65a126.4,126.4 0 0 0 -10.32,-49.43c-3.8,-8.64 -8.81,-16.35 -16.35,-22.24c-13.29,-10.38 -30.63,-11.41 -44.59,-2c-27.63,18.71 -42.82,44.45 -44.4,78.24c-1.48,31.85 -4.68,63.62 -4.22,95.53c0.12,8 -2.15,11.33 -10.65,11.12c-19.59,-0.48 -39.21,-0.42 -58.8,0c-8.16,0.16 -10,-3 -9.57,-10.74c4.23,-69 6.66,-138 4.07,-207.12c-0.12,-3.32 0.1,-6.65 -0.07,-10c-0.26,-5.11 2.11,-7.12 7.13,-7.09c21.6,0.1 43.19,0.14 64.79,0c6.06,-0.05 7.24,3.27 7,8.27c-0.61,10.61 -1.21,21.22 -1.67,31.83c-0.18,3.16 -0.89,6.48 0.71,9.6z"/>
    <path d="m539.45,178.8c-1.31,46.82 -2.75,93.63 -3.82,140.45c-0.15,6.83 -2.58,9.76 -9.29,9.63c-7,-0.13 -14,0.06 -20.93,0c-22.91,-0.14 -45.43,1.07 -68.21,5.72a170,170 0 0 1 -100.75,-9.58a99.53,99.53 0 0 1 -24.85,-14.54c-32.24,-26.21 -29,-72.65 6.88,-93.84c24.9,-14.7 52.89,-21.21 80.38,-29c14.37,-4.06 29.27,-6.27 43.09,-12.19c11,-4.71 21.89,-10.51 22.43,-24.07c0.55,-14 -9.94,-21.07 -21,-26.48a67.93,67.93 0 0 0 -40.79,-6c-23.35,3.54 -46.21,9.36 -68.9,15.8c-9.49,2.69 -10.56,2.13 -9,-7.78c5.27,-33.6 -2.35,-26.92 32.39,-32.84c31.82,-5.42 63.88,-8.44 96.18,-8c17.67,0.24 35.12,2.19 51.84,8.57c23.53,9 34.23,24.2 34.31,49.23c0.06,11.66 0.03,23.34 0.04,34.92zm-71.75,68.29l-0.41,0c0.32,-7.29 0.38,-14.6 1,-21.87c1.86,-21.27 1.88,-21.42 -17.6,-13.4c-20.22,8.33 -41.37,14.48 -60.56,25.25c-14.17,8 -21.93,20.79 -19.93,32.67c2.47,14.66 12.21,24.23 28.76,27.87c20.79,4.57 40.86,1.34 60.62,-5.67c4.54,-1.61 5.92,-4.66 6.13,-9.06c0.57,-11.95 1.32,-23.86 1.99,-35.79zm846.33,-31.42c-26.24,0 -52.49,0.35 -78.72,-0.18c-9.69,-0.2 -11.12,3.75 -9.68,12c8,45.37 54.56,74.71 100.27,63c24.31,-6.26 47,-16.3 68.69,-28.84c8.92,-5.16 8.35,-4.6 9.94,5.68c3.09,19.93 -5.51,30.58 -23.16,38.92c-33.13,15.65 -66.64,28.95 -104,26.72c-34.21,-2 -67.28,-8.83 -94.75,-31.55c-31.16,-25.78 -39.29,-60.85 -37,-98.68c3.19,-52.3 28.13,-91.24 78,-110.33c42.14,-16.14 85.1,-14.19 126,5c33,15.51 47.36,45.1 52.76,79.63c1.38,8.82 1.17,17.88 2,26.79c0.83,8.91 -2.13,12.29 -11.64,12.07c-26.21,-0.63 -52.46,-0.23 -78.71,-0.23zm-39.39,-27.45l43.74,0c4.64,0 8.07,-0.75 9.58,-6.28c7.36,-26.94 -13.15,-58.61 -40.37,-61.85c-35.93,-4.28 -65.31,22.45 -64.91,58.73c0.07,6.73 2.28,9.61 9.21,9.47c14.24,-0.3 28.5,-0.07 42.75,-0.07zm-430.17,149.15c-20.63,0.34 -44.63,-2.67 -68.57,-6.8c-7.64,-1.32 -11.66,-4.14 -12,-12.59c-0.52,-11.58 -2.24,-23.11 -3.72,-34.63c-0.81,-6.3 0.58,-7.7 6.8,-4.91c17.08,7.67 35.19,11.76 53.76,13.95a65.57,65.57 0 0 0 34,-5.3c12,-5.17 16.17,-15.69 11.1,-27.85c-4.75,-11.38 -13.43,-19.58 -22.71,-27.27c-19.14,-15.87 -40.82,-28.65 -57.49,-47.52c-28.41,-32.23 -18.41,-74.83 21.59,-89.65c32.54,-12 66.28,-12.43 100.25,-7.82c12.16,1.65 24.26,3.77 36.41,5.57c6,0.89 8.52,4 7.91,10.18c-0.88,8.91 -1.58,17.87 -1.77,26.83c-0.14,6.62 -2.84,7.8 -8.76,6.17c-15.7,-4.34 -31.57,-7.82 -48,-7.91a73.1,73.1 0 0 0 -22.53,3.6c-14.39,4.57 -19.73,15.49 -14.41,29.55c5.9,15.58 17.7,26.25 30.8,35.65c13.76,9.86 28.05,19 40.3,30.83a104,104 0 0 1 15.34,18.27c16.19,25 10.12,53.58 -15.07,71.65c-20.69,14.85 -41.59,20.1 -83.23,20zm262.17,-245.33c9.64,0 19.28,0.17 28.91,-0.06c6.1,-0.14 8.57,2 7.08,8.31c-2.65,11.31 -5.15,22.66 -7.34,34.07c-1,5.46 -4.72,5.65 -8.88,5.65c-16,0 -31.9,0.31 -47.84,-0.1c-7.3,-0.19 -10.26,2.61 -10.4,9.7c-0.75,37.19 -2,74.37 -2.32,111.57c-0.13,17.76 9.79,26.58 27.63,26.86c7.68,0.12 15.33,-0.47 22.64,-2.9c6.6,-2.2 7.68,0.61 6.58,6.24c-1.85,9.46 -3.73,18.9 -5.35,28.4c-0.76,4.44 -3,7 -7.26,8.47c-22.25,7.59 -45.22,11.93 -68.57,10c-35.84,-2.89 -52.09,-22 -51.55,-58.94c0.52,-34.54 1.6,-69.07 2.61,-103.6c1,-33.21 2.12,-66.4 3.27,-99.6c0.23,-6.63 1.38,-13.29 1,-19.88c-0.64,-11.17 4.35,-15.49 15.18,-17.16c17.37,-2.69 34.51,-6.91 51.66,-10.86c7.14,-1.65 9.55,0.08 9,7.7c-1.25,15.89 -1.51,31.85 -2.58,47.76c-0.41,6 1.51,8.54 7.68,8.36c9.63,-0.27 19.27,-0.07 28.9,-0.07l-0.05,0.08zm-448.04,34.93c11.73,-9.27 20.83,-19.93 32.78,-27.15c16,-9.66 33.55,-14 51.75,-16.52c4.79,-0.67 8,0.53 7.54,6.13a16752.57,16752.57 0 0 1 -4.32,52.56c-0.5,5.82 -4.79,4.25 -8.26,4c-14,-0.87 -27.82,-1 -41.32,3.84c-16.58,5.91 -27.26,16.86 -31.69,34.11c-9,35.17 -9.5,70.89 -7.39,106.8c0.59,9.93 1.4,19.86 2.52,29.74c0.77,6.7 -2,8.82 -8.37,8.762c-21.25,-0.212 -42.49,-0.252 -63.73,0c-7,0.088 -8.16,-2.892 -7.78,-9.142c3.61,-59 3.38,-118.09 2.39,-177.16c-0.24,-13.93 -0.94,-27.85 -1.76,-41.76c-0.39,-6.7 1.8,-9.68 8.93,-9.52c20.24,0.43 40.49,0.53 60.74,0.48c6.06,0 8.26,2.46 8.05,8.37c-0.3,8.28 -0.08,16.52 -0.08,26.46z"/>
   </g>
  </svg>