<svg  id="fndm-thgf14xgv9" viewBox="0.17891311645507812 0.1800832748413086 1529.260986328125 922.1676025390625" xmlns="http://www.w3.org/2000/svg">
   <g xmlns="http://www.w3.org/2000/svg" fill="none">
    <path d="m1141.77,0.21c1.05,3.09 3.36,4 6.47,4.46c146.2,21.81 266.34,156.17 257.61,317.27c-6.28,115.76 -62.61,201.85 -163.64,258.36c-46.08,25.77 -96.1,36.58 -148.79,36.43c-90.433,-0.247 -180.863,-0.203 -271.29,0.13c-8.75,0 -12.28,-2.06 -11.49,-11.28c0.79,-9.22 0.2,-18.64 0.2,-28c0,-14.7 0,-14.72 14.23,-14.72l203.46,0c19.72,0 39.42,0.22 59.11,-2.25c36,-4.52 70,-15 101.5,-33.19c53.44,-30.82 94.48,-73.23 116.06,-131.64c33.32,-90.17 17.94,-173 -43.15,-246.66c-42.71,-51.49 -98.83,-80.74 -164.53,-91.66c-22.66,-3.77 -45.62,-3.68 -68.56,-3.62c-68.9,0.18 -137.8,-0.17 -206.69,0.26c-9.66,0.06 -12.31,-2.59 -11.84,-12c0.69,-13.93 -0.15,-27.94 -0.34,-41.91l331.68,0.02zm-437.21,0c-2.31,13.53 -1.27,27.19 -0.73,40.72c0.4,10.17 -2.2,13.35 -12.86,13.29c-76.44,-0.46 -152.873,-0.49 -229.3,-0.09c-67.49,0.33 -126.87,23 -178.45,66.48c-121.8,102.77 -115.3,291.36 12.82,385.83c50.61,37.32 106.72,56.23 169.41,56.27c75.73,0.05 151.46,0.25 227.18,-0.1c9.2,0 11.74,2.53 10.93,11.44a165.68,165.68 0 0 0 0,29c0.9,10.42 -1.73,14 -13.27,13.921c-87.57,-0.581 -175.15,-0.281 -262.72,-0.341c-15.42,0 -30.86,0.13 -46.18,-2.31c-121.87,-19.36 -207.87,-85.49 -251.48,-200.84c-62.64,-165.7 32.23,-351.06 202.16,-400.77c12.07,-3.53 24.16,-6.76 36.63,-8.53c2.55,-0.36 6.18,0.43 6.34,-4l329.52,0.03z" fill="#D7291F"/>
    <path d="m1529.44,883.24c-0.64,0.28 -1.64,0.37 -1.87,0.85c-17.94,36.46 -50.35,39.87 -85.11,36.64c-23.9,-2.23 -44.5,-11.11 -56.15,-34.08a32.89,32.89 0 0 1 -3,-6.9c-1.32,-5.42 -5.57,-12.19 -1.31,-16.17c4.52,-4.21 12.34,-1.76 18.7,-2.32c2.63,-0.24 3.47,1.87 3.91,4.18c4.18,21.62 19.68,30.62 39.3,34.09c14.26,2.52 28.69,2.13 42.35,-3.46c10.93,-4.48 18.87,-11.76 19.09,-24.7c0.18,-10.41 -6,-18.4 -18.91,-23.34c-17.12,-6.59 -35.37,-9 -53,-13.87c-11.82,-3.26 -23.47,-7 -32.75,-15.38c-23.27,-21.06 -15.08,-58.65 15.82,-70.81c25,-9.85 50.6,-9.76 75.56,0.26c16.23,6.52 26.68,18.73 30.63,36.21c1.4,6.18 0.57,9 -6.68,9.67c-9.47,0.83 -17.75,2.18 -19.43,-11c-0.6,-4.71 -4.35,-8.77 -8.47,-12.06c-15,-12 -52.18,-12.73 -67.3,-1.11c-14.29,11 -12,29.68 4.74,36.91c15.24,6.6 31.81,8.38 47.71,12.57c20.27,5.35 40.41,10.65 52.11,30.6c0.47,0.81 2.62,0.63 4,0.91l0.06,32.31z" fill="#0E5B98"/>
    <path d="m758.38,258.73c114.1,0 228.2,0.15 342.3,-0.25c10.77,0 13.94,2.51 13.48,13.52c-1,23.29 -0.66,46.64 -0.12,69.95c0.18,8.06 -2.1,10.33 -10.15,10.28c-52,-0.35 -104.06,-0.19 -156.09,-0.19c-177.613,0 -355.223,0.08 -532.83,0.24c-9.72,0 -12,-2.69 -11.79,-11.94c0.63,-23.67 0.6,-47.37 0,-71c-0.2,-8.46 2,-10.75 10.7,-10.72c114.82,0.32 229.64,0.39 344.46,0.21l0.04,-0.1z" fill="#D7291F"/>
    <path d="m924.36,515.71c-38.75,0 -77.5,-0.09 -116.25,0.09c-6.37,0 -9.36,-1.09 -9.43,-8.67c-0.28,-27.91 -0.61,-27.73 27.74,-27.94c60.27,-0.46 120.63,2.45 180.8,-1.36c54.36,-3.43 102.6,-23.54 141,-63.33c64.29,-66.71 60.65,-159.16 -8.43,-220.82c-39.83,-35.56 -87.25,-54 -140.14,-55.36c-63.11,-1.64 -126.3,-0.71 -189.45,-0.44c-8.58,0 -13,-1.31 -11.19,-11c1.51,-8.28 -4.14,-19.52 2.14,-24.38c5.24,-4 15.84,-1.33 24.07,-1.32c68.54,0 137.1,-1.08 205.6,0.56c63.31,1.52 120.17,22.78 166,67.48c59,57.58 78.74,126.36 50,205.21c-20.06,55 -61,91.48 -113,116.24c-35.86,17.09 -73.88,24.91 -113.58,24.8c-31.93,-0.09 -63.87,0 -95.81,0l-0.07,0.24zm-333.99,-0.39c-31.59,0 -63.18,0.24 -94.76,-0.05c-65.65,-0.59 -123.7,-21.17 -172.9,-65.58c-85.31,-77 -85.25,-199.7 -6.06,-276.87c47.44,-46.23 104.94,-69.76 170.55,-71.15c73.19,-1.55 146.44,-0.35 219.67,-0.65c7.11,0 9,2 9,9c0.17,27.57 0.42,27.56 -26.88,27.59c-55.28,0.06 -110.56,-0.27 -165.84,0.28c-52.37,0.53 -100.44,16.75 -139.94,50.47c-85.34,72.87 -73.3,172.86 -7.61,232.86c39.22,35.81 85.92,55.11 138.42,56.85c63.47,2.1 127.05,1.1 190.58,1c8.67,0 11.64,1.7 11.42,11c-0.61,25.57 -0.16,25.56 -25.54,25.541l-100.15,0l0.04,-0.291z" fill="#D7291F"/>
    <path d="m757.96,775.91l0,66.29c0,22.24 -0.56,44.5 0.22,66.71c0.42,12.13 -7.16,9.28 -14,9.91c-7.68,0.7 -10.62,-1.24 -10.551,-9.79c0.421,-51.653 0.421,-103.303 0,-154.95c0,-8.08 2.331,-10.26 10.301,-10.33c26.77,-0.23 26.9,-0.6 35.79,24.41c13.87,39 27.53,78.12 41.31,117.18a53.41,53.41 0 0 0 3,5.47c14.22,-37.7 27.84,-73.78 41.45,-109.87c1.887,-5.027 3.77,-10.06 5.65,-15.1c9.08,-24.39 9.07,-24.25 35,-22.2c5.17,0.41 6.66,2.28 6.64,7.24c-0.153,53.453 -0.153,106.9 0,160.34c0,6.14 -2,8.11 -8.1,7.85c-19.44,-0.84 -16.18,2 -16.24,-15.77c-0.14,-37.66 0.08,-75.32 0,-113c0,-3 1,-6.3 -1.28,-9.64c-4.76,4.1 -5.17,9.89 -7.07,15c-14.42,39 -29.24,77.84 -43.35,116.94c-3.43,9.52 -10.4,5.15 -16,5.92c-5,0.69 -9.08,0.46 -11.46,-6.26c-15.19,-42.86 -31,-85.49 -46.64,-128.2c-1,-2.83 -2.09,-5.65 -3.13,-8.48l-1.54,0.33zm390.71,103.44c0,-42.51 0.25,-82.65 -0.2,-122.79c-0.1,-8.36 1,-12.1 10.63,-11.58c8.7,0.46 13.88,0.13 13.69,12c-0.8,50.59 -0.53,101.21 -0.16,151.81c0,7.89 -1.72,10.28 -9.92,10.25c-11,0 -18.4,-3.47 -24.9,-12.76c-26.91,-38.5 -54.56,-76.48 -82,-114.61c-1.57,-2.18 -2.48,-5.12 -6.82,-6.29l0,36.47c0,29.44 -0.45,58.88 0.25,88.29c0.25,10.52 -6,8.57 -11.78,8.39c-5.78,-0.18 -12.73,2.39 -12.631,-8.64c0.514,-52.4 0.544,-104.803 0.091,-157.21c-0.06,-7.77 3.09,-8.66 9.36,-9.07c10.82,-0.71 18.05,2.26 24.82,12.08c27.6,40 56.47,79.17 84.89,118.62c0.79,1.13 1.85,2.05 4.68,5.04zm-868.73,-138.22c56.15,1.17 90.37,37.86 88,96.7c-2.07,50.4 -37,84.94 -93.09,83.86c-52,-1 -86.75,-39.38 -85.54,-94.11c1.1,-52.45 37.88,-87.53 90.63,-86.45zm-65.09,91.42c0,2.51 -0.14,5 0,7.53c1.95,28.68 15.39,48.16 39.14,57.42c25.88,10.08 54.46,3.72 72,-16.07c16.83,-19 18.64,-41.94 15.06,-65.77c-6.31,-41.85 -44.69,-64.84 -84.71,-50.93c-28.44,9.9 -41.51,31.24 -41.49,67.83l0,-0.01zm345.41,-1.42c0,-25.84 0.18,-51.67 -0.12,-77.5c-0.08,-7 1.39,-10.1 9.42,-10c39.1,0.427 78.207,0.427 117.32,0c8.25,-0.09 9.45,3.28 9.26,10.12c-0.18,6.57 0.21,11.43 -9.31,11.23c-30.49,-0.63 -61,0 -91.49,-0.44c-8.13,-0.13 -10.67,2.27 -10.22,10.32c0.6,11.469 0.6,22.961 0,34.43c-0.36,7.4 2.65,9.1 9.42,9c28,-0.28 56,0.17 84,-0.31c8.36,-0.14 10.81,2.14 11,10.76c0.24,9.52 -3.89,10.25 -11.43,10.16c-27.27,-0.35 -54.54,0 -81.81,-0.37c-8,-0.11 -11.73,1.6 -11.16,10.68c0.72,12.9 0.72,25.83 0,38.73c-0.38,8 2,10.44 10.22,10.32c31.93,-0.48 63.88,0.24 95.8,-0.48c9.55,-0.22 9.13,4.37 9.31,10.94c0.18,6.57 -0.38,10.39 -8.88,10.302c-40.9,-0.475 -81.803,-0.509 -122.71,-0.102c-7.45,0.06 -8.88,-2.51 -8.79,-9.27c0.37,-26.14 0.17,-52.34 0.17,-78.52zm-471.27,-90.08c31.53,0.43 56.27,12.09 70.58,41.86c3.5,7.28 1.86,9.61 -5.74,11.51c-10,2.49 -16.06,2.81 -21.46,-8.95c-9.17,-19.94 -28,-25.61 -48.74,-24.38c-22.76,1.35 -41.27,10.71 -50.31,32.66c-10.58,25.69 -10.54,52.14 1,77.47c10.26,22.53 30.2,30.6 53.78,30.35c22.95,-0.24 39.56,-10.72 49.2,-32c1.76,-3.88 0.54,-11 6.28,-11c6.62,0 13.5,2 19.76,4.47c4.15,1.62 1,5.94 0.11,8.53c-7.11,19.82 -20.6,34.23 -39.42,43.21c-32.14,15.28 -79.36,6.58 -101.52,-18.53c-31.12,-35.25 -35.24,-119.12 23.66,-146.12a100.43,100.43 0 0 1 42.82,-9.08zm1263.26,177.66c-9.25,3.12 -13.59,-3.11 -16.87,-12.23c-4.11,-11.44 -9.36,-22.47 -13.67,-33.85c-1.75,-4.61 -3.89,-6.84 -9.2,-6.77c-21.86,0.28 -43.723,0.28 -65.59,0c-5.45,-0.08 -7.42,2.42 -9,7c-4.11,11.6 -9.67,22.62 -13.35,34.45c-3.23,10.39 -17.54,16 -27.21,11.18c-5.38,-2.66 -1,-6.21 0.09,-8.9c11.91,-29.4 24,-58.72 36.12,-88.05c9.61,-23.31 19.7,-46.44 28.63,-70c3.7,-9.77 10.85,-7.37 17.59,-7.64c6.74,-0.27 12.48,-1.17 16.27,7.71c21.9,51.34 44.63,102.32 67.14,153.4c6.05,13.77 6.14,13.73 -10.95,13.7zm-74.3,-154.42c-5.88,29.66 -21.36,54.21 -29.13,82.58c18.2,0 35.7,-0.32 53.19,0.14c7.58,0.2 8.41,-2 5.72,-8.5c-9.8,-23.81 -19.21,-47.78 -29.78,-74.22zm-830.14,77.08c0,-21.89 -0.55,-43.8 0.26,-65.66c0.35,-9.58 -3.06,-11.46 -11.62,-11.1c-14.33,0.61 -28.71,-0.25 -43,0.26c-9,0.32 -7.38,-5.39 -7.42,-10.65c-0.04,-5.26 -1.24,-10.61 7.58,-10.55c44.5,0.313 89,0.313 133.5,0c9.88,-0.08 7.08,6.38 7.54,11.63c0.54,6.19 -0.26,10.1 -8.35,9.72c-14.32,-0.67 -28.72,0.28 -43.05,-0.36c-8.52,-0.38 -10.91,2.56 -10.84,10.89c0.33,44.49 -0.33,89 0.44,133.49c0.2,11.27 -5.64,10 -12.59,10s-13.21,1.58 -12.7,-9.83c0.96,-22.59 0.25,-45.23 0.25,-67.84zm533.79,-9.9c0,25.8 -0.3,51.6 0.16,77.39c0.15,7.91 -1.86,10.66 -10.13,10.26c-15.08,-0.72 -15.11,-0.23 -15.11,-15.79c0,-49.8 0.45,-99.61 -0.26,-149.41c-0.21,-14.27 9,-9.08 15.7,-10.19c8.47,-1.41 10,2.61 9.84,10.35c-0.49,25.78 -0.19,51.59 -0.2,77.39z" fill="#0E5B98"/>
   </g>
  </svg>