<svg  id="fndm-f06o80ub7v" viewBox="0.43967247009277344 0.9199999570846558 1473.4337158203125 521.03515625" xmlns="http://www.w3.org/2000/svg">
   <g xmlns="http://www.w3.org/2000/svg" fill="none">
    <path d="m676.5,3.03c14.78,-2.49 29.7,-2 44.59,-2c23.87,0 47.73,0.06 71.59,-0.11c4.21,0 6.27,0.61 6.16,5.59c-0.76,36.27 1.38,72.59 -1.31,108.82c-1.44,19.32 -6.07,37.83 -18.28,53.49c-14.78,18.95 -35.67,26.31 -58.44,29c-30.7,3.64 -61.58,1 -92.38,1.67c-8,0.17 -15.91,0 -23.86,0.08c-3.12,0.05 -5.23,-0.35 -5.12,-4.32c1.14,-40.7 -3,-81.58 2.9,-122.11c5,-34.32 23.34,-57.9 58,-67.06c1.79,-0.48 4.11,-0.08 5.26,-2.23l-0.11,0.12l6.86,0c1.43,-0.09 3,0.26 4.14,-0.94zm-277.67,198.85c-15.78,2.61 -30.07,5.32 -43.84,10.15c-47.21,16.58 -71.55,51.77 -81.11,99.17c-4.14,20.55 -5.38,41.37 -5.52,62.21a9314.73,9314.73 0 0 0 0.06,136.42c0,6.34 -1.81,7.81 -7.9,7.71c-22.86,-0.36 -45.72,-0.28 -68.58,0c-4.91,0 -6.24,-1.4 -6.22,-6.25c0.19,-51.19 -0.07,-102.38 0.29,-153.57c0.16,-22.39 2.92,-44.59 9.38,-66.14c13,-43.24 41.43,-70.72 84.84,-82.9c38.16,-10.71 77.22,-8.94 116.19,-8.6c0.37,-0.07 0.73,0.46 2.41,1.8z" fill="#FE7F30"/>
    <path d="m299.22,202.15c-17.93,2.93 -35.63,6.75 -52.25,14.36c-36.52,16.74 -56.48,46.37 -65.68,84.37c-5,20.64 -7,41.65 -7.11,62.78c-0.28,48.493 -0.263,96.98 0.05,145.46c0,6.17 -1,8.56 -8,8.4c-22.61,-0.53 -45.25,-0.33 -67.87,-0.1c-4.94,0.06 -6.85,-0.9 -6.83,-6.41c0.26,-52.71 -0.14,-105.42 0.43,-158.13c0.29,-27 4.55,-53.46 15.45,-78.42c17.6,-40.29 50.36,-60.76 91.92,-69.09c33,-6.61 66.41,-6.39 99.84,-5.49c0.04,0.78 0.05,1.53 0.05,2.27z" fill="#FE7F30"/>
    <path d="m207.25,201.36c-10.05,2.13 -18.2,3.71 -26.29,5.6c-53,12.43 -84,46.13 -95.11,98.9c-4.41,21 -6,42.25 -6,63.67c0,46.74 -0.12,93.48 0.15,140.22c0,6.21 -1.59,7.87 -7.78,7.76c-21.62,-0.39 -43.26,-0.28 -64.89,0c-4.86,0 -6.92,-0.78 -6.89,-6.36c0.31,-53.7 -0.1,-107.41 0.62,-161.1c0.34,-25.94 4.83,-51.43 15.31,-75.46c17.45,-40 49.94,-60.31 91.1,-69.06c31.39,-6.68 63.25,-5.75 95.05,-5.63c0.91,-0.02 1.84,0.5 4.73,1.46zm411.29,-199.89l40.28,0l0,2.22c-22.51,4.72 -42.65,13.39 -55.4,34c-3.11,5 -5.56,10.44 -8.31,15.68c-0.72,0 -1.41,0.12 -1.06,1.15c0.19,4.15 0.15,8.27 -3.79,10.94a2.7,2.7 0 0 0 -1.39,2.37c-0.247,39.333 -0.49,78.667 -0.73,118c0,3.23 -0.22,6.46 -0.17,9.69c0.05,3.23 -1.55,4.24 -4.6,4.22c-25.08,-0.15 -50.17,-0.2 -75.25,-0.29c-0.32,-2.22 1.07,-5.2 -2.61,-5.95l0,-3c3.57,-1.5 3.56,-3 0,-4.48l0,-20.92l1.7,-0.75l-1.7,-0.75c0.27,-32.92 -3.09,-66 4.24,-98.61c4.56,-20.3 14.17,-37.69 32.71,-48.51c11.48,-6.7 23.77,-11.7 37.34,-12.52c1.45,-0.06 3,0.27 4.19,-0.93a47.19,47.19 0 0 1 15,-0.82c1.77,2.3 3.34,2.53 4.59,-0.46c4,-1 7.94,-0.7 11.93,-0.28c0.17,0.91 0.36,1.92 1.5,1.92c1.14,0 1.35,-1.01 1.53,-1.92z" fill="#FE7F30"/>
    <path d="m564.82,3.77c-12.79,3.11 -25.46,6.5 -36.56,14.11c-19.84,13.69 -28.59,33.76 -32,56.59c-4.81,31.87 -1.94,64 -2.62,96c-0.16,7.7 -0.3,15.42 0.08,23.11c0.24,5 -1.61,6.27 -6.41,6.19c-15.4,-0.26 -30.81,-0.15 -46.22,0c-8.19,0.09 -16.38,0.45 -24.56,0.92c-3.71,0.21 -5.62,0 -5.58,-4.87c0.32,-33.05 -0.07,-66.12 0.44,-99.17c0.31,-20 3.72,-39.56 14.1,-57.19c12.87,-21.88 33.61,-31.49 57.51,-35.45c27.12,-4.5 54.5,-2.81 81.81,-2.54c0,0.76 0.01,1.53 0.01,2.3z" fill="#FE7F30"/>
    <path d="m425.03,521.94c-29.58,0.62 -49.24,-17.83 -54.14,-48.67c-0.48,-3 -0.06,-5.23 3.41,-6.24c7.38,-2.14 14.75,-4.37 22,-6.89c3.13,-1.09 4,-0.08 4.24,2.78a56.83,56.83 0 0 0 4.39,17.25c4.69,11.26 12.32,16.17 23,14.91c9.76,-1.16 17.35,-9.06 19.06,-20.07c2,-12.69 -1.48,-24 -8.62,-34.53c-8.48,-12.48 -20.05,-22 -30.44,-32.68c-6.94,-7.11 -14.19,-13.92 -20.11,-22c-17.44,-23.73 -19.35,-56 -4.48,-76.8c12.39,-17.35 34.11,-24.55 56.46,-18.73c19.92,5.19 32.21,20 35,41.65c0.57,4.37 -0.83,6.28 -4.87,7.47a103.89,103.89 0 0 0 -16.09,5.81c-6.05,2.93 -7.41,0.24 -8.13,-5.07a42.35,42.35 0 0 0 -2.91,-10.72c-4,-9.58 -11.91,-14.13 -21.15,-12.62c-9,1.46 -15.41,8.72 -16.57,18.5c-1.73,14.48 4.05,26.45 13.45,36.57c10.81,11.65 22.33,22.64 33.76,33.69c18.3,17.7 27.94,38.57 26.52,64.59c-1.73,31.21 -22.45,51.74 -53.78,51.8zm519.72,-147.71c1.46,-2.4 2.27,-3.63 3,-4.91c8.48,-15.07 21.15,-21.47 35.6,-18c14.1,3.41 24.21,16.37 24.62,32.61c0.4,15.91 0.14,31.83 0.15,47.74c0,26.36 -0.13,52.72 0.11,79.08c0.05,5.05 -1.06,7.3 -6.5,6.7c-7.56,-0.83 -17.43,3.17 -22.15,-1.69c-4.36,-4.49 -1.17,-14.21 -1.2,-21.62c-0.12,-30.33 0,-60.67 -0.06,-91l0,-6.71c-0.47,-10 -5.31,-16.68 -12.82,-17.67c-7.51,-0.99 -15.29,4.65 -18.16,13.65a38.3,38.3 0 0 0 -1.33,11.8c0,35.31 -0.12,70.62 0.15,105.93c0,5.88 -1.59,8 -7.45,7.33c-7.3,-0.85 -16.82,3.07 -21.41,-1.71c-4.24,-4.42 -1.16,-13.76 -1.18,-20.93c-0.1,-44.76 0,-89.52 -0.17,-134.28c0,-5.69 1.2,-8.17 7.32,-7.46c6.6,0.76 14.89,-2.56 19.5,1.3c4.33,3.69 0.35,12.12 1.98,19.84zm-386.24,119.96c-3.59,6.32 -6.3,11.21 -10,15.42c-14.72,16.77 -42.59,13.81 -51.88,-6.46c-10.07,-22 -8.85,-44.74 1.45,-66.26c8,-16.73 24.69,-19.28 41.1,-20.86a69,69 0 0 1 13.4,-0.07c5.46,0.54 6.83,-1.72 6.46,-6.76c-0.42,-5.69 0.09,-11.44 -0.25,-17.13c-0.6,-9.84 -6.25,-15.46 -16,-16.38c-10.26,-1 -17.81,3.39 -19.64,12.9c-1.36,7 -4.28,8.11 -10.16,5.55a51.59,51.59 0 0 0 -6.41,-1.95c-13.29,-3.73 -13.29,-3.72 -7.84,-16.82c7.64,-18.38 26.52,-27.62 50.18,-24.56c26.58,3.44 38.11,16.22 38.22,43c0.15,39 0,78 0.15,117c0,5.09 -1.14,7.28 -6.53,6.66c-7.06,-0.82 -16.39,3 -20.62,-1.66c-3.49,-3.93 -1.24,-12.99 -1.63,-21.62zm0.43,-38.3l0,-5.94c0,-12.89 -0.3,-12.91 -13.33,-11.26c-11.12,1.41 -20.36,5.25 -23.7,16.92a53.25,53.25 0 0 0 -0.33,27.93c2.59,10.23 11.81,14.44 21.37,9.85c6.14,-2.94 10,-8.08 12.5,-14.15c3.33,-7.94 3.91,-16.36 3.49,-23.36l0,0.01zm302.78,38.99c-3.23,5 -5.46,9.12 -8.26,12.78c-15.1,19.78 -45.56,16.22 -54.7,-6.92c-8,-20.23 -7,-41 1.08,-61c5.78,-14.34 18.34,-20.14 32.85,-22.48a116.34,116.34 0 0 1 23.79,-1.38c4,0.18 6,-0.78 5.69,-5.28c-0.35,-5.94 0.06,-11.93 -0.16,-17.89c-0.37,-10.06 -5.81,-16 -15.2,-17.07c-10.56,-1.17 -18.65,3.25 -20.41,12.93c-1.38,7.57 -4.41,8 -10.29,5.34c-2.23,-1 -4.77,-1.34 -7.18,-2c-11.68,-3.06 -11.72,-3.14 -7.69,-14.29c7,-19.51 24.33,-29.14 48.64,-27.12c28.27,2.35 40.38,15.38 40.43,43.8c0.07,38.55 -0.09,77.09 0.14,115.64c0,5.64 -1.12,8.28 -7.29,7.45c-6.78,-0.92 -15.87,3.07 -19.85,-1.71c-3.4,-4 -1.23,-12.7 -1.59,-20.8zm0.36,-40l0,-12.63c0,-1.77 -0.18,-3.16 -2.46,-3.86c-12.81,-3.9 -31.12,5.16 -34.49,17.6a54.81,54.81 0 0 0 -0.19,27.92c2.6,10.37 12.92,14.44 22.27,9c6.53,-3.79 10.33,-9.78 12.76,-16.76c2.43,-6.98 2.18,-14.07 2.11,-21.27zm322.41,-80.24c2.11,-3.68 3.68,-6.68 5.51,-9.52c6.82,-10.59 16.84,-15.47 29.13,-14.44c12.89,1.08 21.16,9 25.91,20.67a43.94,43.94 0 0 1 3,16.75c0,40.76 -0.11,81.52 0.1,122.27c0,5.37 -1.06,7.74 -6.92,7.14a82.44,82.44 0 0 0 -15.63,0c-5.76,0.51 -7.53,-1.31 -7.48,-7.31c0.3,-36 0.14,-72.07 0.16,-108.1a44.28,44.28 0 0 0 -1.24,-11.8c-1.56,-5.71 -4.74,-10.05 -10.59,-11.34c-6.09,-1.35 -11.25,1.15 -15.21,5.81c-4.59,5.39 -5.76,11.88 -5.75,18.79c0,35.54 -0.13,71.08 0.16,106.61c0,5.92 -1.57,7.83 -7.41,7.34c-7.13,-0.6 -16.72,2.26 -20.86,-1.38c-4.78,-4.2 -1.51,-14 -1.53,-21.35c-0.15,-44.73 0,-89.47 -0.19,-134.2c0,-5.62 1.07,-8.14 7.26,-7.51c6.62,0.67 15.18,-2 19.51,1.28c4.73,3.53 0.7,12.53 2.07,20.29zm-543.13,0.59c1.86,-3.4 3,-5.52 4.16,-7.59c7.1,-12.36 18.89,-18.72 31.42,-17c13.15,1.82 23.58,11.75 26.65,25.71a55.79,55.79 0 0 1 1.34,11.79c0.1,40.75 0,81.49 0.18,122.23c0,5.45 -1.22,7.66 -7,7.14a96.22,96.22 0 0 0 -16.37,0c-5.25,0.43 -6.72,-1.37 -6.68,-6.58c0.22,-31.54 0.12,-63.09 0.12,-94.63c0,-6.71 0.21,-13.43 -0.09,-20.12c-0.44,-9.83 -5.74,-16.67 -13.09,-17.5c-7.63,-0.86 -15.17,4.89 -18,13.81a38.18,38.18 0 0 0 -1.49,11.76c0.06,35.28 -0.1,70.56 0.17,105.84c0,5.83 -1.44,8.09 -7.38,7.4c-7.29,-0.85 -17.1,3.15 -21.28,-1.76c-3.62,-4.25 -1.24,-13.72 -1.25,-20.87c0,-44.46 0.1,-88.92 -0.15,-133.38c0,-6.2 1,-9.37 8,-8.37c6.54,0.94 15.33,-2.85 19.18,1.63c3.23,3.83 1.14,12.29 1.56,20.49zm455.47,63.15c-9.69,0 -19.39,0.1 -29.08,0c-3.93,-0.06 -5.8,0.63 -5.36,5.41c0.89,9.63 0.42,19.36 2.17,28.94a43,43 0 0 0 5.17,14.66c5.91,9.81 18.46,10.54 25.61,1.55a23.11,23.11 0 0 0 5.33,-13.68c0.24,-7.84 4.09,-10.14 11.22,-8.85a22,22 0 0 0 3.72,0c14.34,0 14.34,0 11.65,13.92c-5.78,30 -28.9,45.33 -57.91,38.49c-16.34,-3.86 -25.52,-15.35 -29.71,-30.41c-9.28,-33.35 -10.34,-67.25 -1.45,-100.79c7.48,-28.18 28.57,-41.27 55.45,-35.92c15.08,3 24.94,12.67 31,26.43c8,18.1 6.89,37.35 7,56.45c0,4.25 -3,3.82 -5.7,3.82l-29.11,-0.02zm-14.31,-22.5c5.45,0 10.91,-0.1 16.36,0c3,0.07 4.66,-0.68 4.41,-4.13c-0.68,-9.43 -1.59,-18.79 -6.49,-27.19c-3.36,-5.75 -8.17,-9.34 -15.14,-8.89c-6.97,0.45 -11.26,4.33 -14.21,10.39c-4,8.26 -4.19,17.22 -5.24,26c-0.38,3.16 1.32,3.79 4,3.76c5.4,-0.01 10.86,0.06 16.31,0.06zm356.68,22.5l-29.09,0c-2.52,0 -5.23,-0.31 -5.07,3.56c0.59,14.12 0.08,28.42 5.67,41.81c3.53,8.45 8.6,11.69 16.5,11.27c7.2,-0.38 12.12,-5.5 15.33,-15.11c1.42,-4.26 -0.19,-10.74 3.31,-12.49c4.22,-2.11 10.15,-0.86 15.34,-1c2.23,-0.07 4.47,0.06 6.71,0c2.47,-0.08 3.67,0.87 3.5,3.5c-2.11,31.88 -21.37,55.39 -56.27,49.48c-17.85,-3 -27.61,-14.66 -32.76,-30.89c-7.24,-22.85 -7.82,-46.43 -6.61,-70.1a125.41,125.41 0 0 1 5.45,-32.23c7.53,-23.39 23.81,-36.18 45.58,-35.68c22.13,0.51 37.21,13.48 44,37.49c4.39,15.38 2.67,31.08 3.08,46.68c0.1,3.72 -2.23,3.77 -4.88,3.76c-9.913,-0.053 -19.843,-0.07 -29.79,-0.05zm-13.47,-22.5l15.64,0c2.37,0 4.41,-0.08 4.36,-3.42c-0.16,-10.29 -1.16,-20.43 -7.11,-29.21c-7.44,-11 -21.56,-10 -27.83,1.73a42.66,42.66 0 0 0 -4.45,14.11c-2.39,16.8 -2.39,16.8 14.18,16.8l5.21,-0.01zm-93.04,-18.35c-1.33,-5.14 -2.1,-9.77 -4.88,-13.72c-5.8,-8.23 -17.42,-10.77 -25,-5.31c-7,5 -7.67,15.92 -1.08,23.9c8.31,10.07 19.48,16.87 29.68,24.74c14.18,10.92 25.65,23.37 27.8,42.22c2.64,23.14 -10.38,43.42 -31.87,49.15c-25.71,6.85 -49,-3.5 -58.45,-25.76c-1.29,-3 -1.41,-4.79 1.76,-6.6c5.81,-3.33 11.51,-6.88 17,-10.7c4.06,-2.81 5,-1.15 6.15,2.77c3.2,11.3 9.51,16.68 18.93,16.81c10.83,0.14 18.21,-8.11 16.73,-18.91c-1.1,-8.09 -5.92,-14 -11.7,-19.32c-11.52,-10.58 -25,-18.8 -35.83,-30.24c-11.34,-12 -15,-26.13 -12.2,-41.92c3.35,-18.63 15.63,-29.89 35.22,-33.45c19,-3.45 37.3,4.31 47,20c0.26,0.42 0.5,0.85 0.75,1.28c5.66,9.75 5.68,9.78 -3.84,15.52c-5.16,3.15 -10.5,6.21 -16.17,9.54zm-564.72,-64.43l0,7.45c0,11.78 0,11.95 11.61,12.55c3.62,0.18 4.74,1.41 4.61,4.86a144.52,144.52 0 0 0 0,16.39c0.39,4.92 -1.75,5.69 -6,5.66c-10.22,-0.07 -10.23,0.13 -10.23,10.31l0,83.51c0,10.75 2,13.27 12.69,15.32c3,0.58 3.5,2 3.48,4.53c-0.06,5.22 -0.41,10.47 0.09,15.64c0.53,5.49 -1.57,7.82 -6.88,7.8c-2.23,0 -4.47,0.26 -6.7,0.28c-21.82,0.18 -32.21,-9.8 -32.38,-31.56c-0.19,-22.61 0,-45.23 0,-67.85c0,-10.43 -0.22,-20.88 0.1,-31.31c0.15,-4.9 -0.88,-7.76 -6.4,-6.76c-7.49,1.37 -10.57,-1.54 -9.21,-9.13a30.18,30.18 0 0 0 0,-5.21c0,-11.46 0,-11.67 11.11,-12.28c3.86,-0.21 4.44,-1.85 4.4,-5.06c-0.11,-9.94 0.17,-19.89 -0.13,-29.82c-0.13,-4.6 1.39,-6.15 6,-5.9c5.954,0.38 11.926,0.38 17.88,0c5.16,-0.37 6.39,1.79 6.06,6.43c-0.33,4.64 -0.1,9.42 -0.1,14.15zm-203.15,-329.33l0,-2.3c6.45,-0.14 13,-1.6 19.18,1.56c-1.2,1.2 -2.74,0.87 -4.19,0.93c-4.95,-4.22 -10.01,1.14 -14.99,-0.19zm94,-0.08l0,-2.22c6,-0.24 12,-1.33 17.68,1.56c-1.18,1.2 -2.71,0.87 -4.15,0.95c-2.3,-3.1 -4.6,-2.06 -6.89,0l0.11,-0.12l-6.75,-0.17zm-359.6,198.46l0,-2.23c5.57,-0.47 11.14,-0.64 16.73,0.71l-16.73,1.52zm206.29,-8.7c3.68,0.75 2.29,3.73 2.61,5.95c-4.84,-0.24 -2.35,-3.7 -2.61,-5.95zm0,-7.46c3.56,1.49 3.57,3 0,4.48l0,-4.48zm98.11,-184.24c-1.25,3 -2.82,2.76 -4.59,0.46c1.41,-1.33 2.99,-0.94 4.59,-0.46zm14.92,-0.28c-0.16,0.91 -0.36,1.92 -1.49,1.92s-1.33,-1 -1.5,-1.92l2.99,0zm-113.03,162.13l1.7,0.75l-1.7,0.75l0,-1.5zm88.54,-109.13c-0.35,-1 0.34,-1.11 1.06,-1.15c-0.35,0.38 -0.75,0.76 -1.06,1.15z" fill="#FE8032"/>
    <path d="m665.46,3.99c2.29,-2.07 4.59,-3.11 6.89,0l-6.89,0z" fill="#FEFEFD"/>
   </g>
  </svg>