<svg xmlns="http://www.w3.org/2000/svg" viewBox="0.000010000000656873453 0.00014000000373926014 222 111"><g xmlns="http://www.w3.org/2000/svg" fill="none" fill-rule="evenodd"><g transform="translate(0.000010, 0.000140)"><rect width="222" height="111"/><g><path fill="#373435" d="m42.44001,43.47702l1.27011,0l0.29667,-1.0212l2.40299,0l0.2886,1.0212l1.26775,0l-1.88162,-5.44674l-1.76423,0l-1.88027,5.44674zm126.36408,-4.41007l-0.3848,0l-0.03262,0.12816c-0.03095,0.12109 -0.06324,0.24218 -0.09721,0.3626l-0.62328,2.04711l1.89507,0l-0.63237,-2.05014c-0.02724,-0.08779 -0.0491,-0.17962 -0.0713,-0.26909l-0.05349,-0.21864zm-24.27166,0l-0.38446,0l-0.03263,0.12816c-0.03095,0.12109 -0.06324,0.24218 -0.09755,0.3626l-0.62294,2.04711l1.89507,0l-0.6327,-2.05014c-0.02691,-0.08779 -0.04911,-0.17962 -0.07097,-0.26909l-0.05382,-0.21864zm13.57194,0l-0.38447,0l-0.03262,0.12816c-0.03129,0.12109 -0.06324,0.24218 -0.09755,0.3626l-0.62328,2.04711l1.89541,0l-0.6327,-2.05014c-0.02725,-0.08779 -0.04911,-0.17962 -0.07098,-0.26909l-0.05381,-0.21864zm-33.00232,0l-0.38447,0l-0.03262,0.12816c-0.03095,0.12109 -0.06324,0.24218 -0.09755,0.3626l-0.62294,2.04711l1.89507,0l-0.6327,-2.05014c-0.02691,-0.08779 -0.04911,-0.17962 -0.07097,-0.26909l-0.05382,-0.21864zm-79.69968,0l-0.3848,0l-0.03263,0.12816c-0.03095,0.12109 -0.06324,0.24218 -0.09721,0.3626l-0.62328,2.04711l1.89507,0l-0.63236,-2.05014c-0.02725,-0.08779 -0.04911,-0.17962 -0.07131,-0.26909l-0.05348,-0.21864zm9.94089,-0.86075c-0.20451,-0.09452 -0.41777,-0.17222 -0.63708,-0.22604c-0.2331,-0.05718 -0.4699,-0.08543 -0.71006,-0.08543c-0.37034,0 -0.73731,0.05684 -1.08174,0.19677c-0.33132,0.13455 -0.62026,0.33805 -0.8695,0.59402c-0.26304,0.2701 -0.47293,0.57854 -0.61219,0.92937c-0.1443,0.36462 -0.2035,0.75177 -0.2035,1.14263c0,0.49176 0.09486,0.96772 0.32089,1.40667c0.21864,0.42483 0.53583,0.76388 0.93072,1.03028c0.21191,0.14329 0.44198,0.2516 0.68854,0.32056c0.26875,0.07534 0.54827,0.10562 0.82678,0.10562c0.24016,0 0.47696,-0.02826 0.71006,-0.08544c0.21931,-0.05348 0.43257,-0.13152 0.63708,-0.22604l0,-1.30307c-0.13657,0.12479 -0.28625,0.23646 -0.44871,0.32089c-0.23075,0.11941 -0.47865,0.17928 -0.73866,0.17928c-0.45913,0 -0.85638,-0.15674 -1.17121,-0.49311c-0.31921,-0.34107 -0.4578,-0.76018 -0.4578,-1.2247c0,-0.47561 0.12446,-0.92298 0.44838,-1.27952c0.31315,-0.34478 0.71746,-0.49984 1.18063,-0.49984c0.26001,0 0.50859,0.06055 0.73899,0.18096c0.16213,0.08477 0.31181,0.1961 0.44838,0.32056l0,-1.30442zm6.88502,2.55939c0,-0.3811 -0.06895,-0.75144 -0.21695,-1.1026c-0.14733,-0.34914 -0.35823,-0.65524 -0.62866,-0.92096c-0.27481,-0.26977 -0.59167,-0.47629 -0.94889,-0.62127c-0.35822,-0.14564 -0.73461,-0.21796 -1.12143,-0.21796c-0.38783,0 -0.76388,0.07097 -1.12278,0.21763c-0.35487,0.14531 -0.66735,0.35419 -0.94149,0.62193c-0.27211,0.26573 -0.49176,0.57115 -0.6401,0.92198c-0.14867,0.35116 -0.21729,0.72015 -0.21729,1.10125c0,0.38009 0.06963,0.74875 0.21729,1.0989c0.14834,0.35184 0.36698,0.65793 0.6401,0.92466c0.27414,0.26775 0.58662,0.4763 0.94149,0.6216c0.3589,0.147 0.73495,0.21797 1.12278,0.21797c0.38513,0 0.75816,-0.07266 1.11471,-0.21797c0.35789,-0.14564 0.67878,-0.35217 0.95594,-0.62193c0.27145,-0.26405 0.48302,-0.57115 0.62934,-0.92029c0.14733,-0.3515 0.21594,-0.72218 0.21594,-1.10294zm-2.91862,1.80459c-0.46553,0 -0.86345,-0.16583 -1.17257,-0.51564c-0.32055,-0.36294 -0.44837,-0.80963 -0.44837,-1.28895c0,-0.47999 0.13455,-0.92197 0.45544,-1.28356c0.30811,-0.3478 0.70098,-0.52069 1.1655,-0.52069c0.4625,0 0.85167,0.17692 1.15978,0.5217c0.32358,0.36192 0.46115,0.80155 0.46115,1.28255c0,0.481 -0.13353,0.92399 -0.45577,1.28626c-0.30844,0.34746 -0.70132,0.51833 -1.16516,0.51833zm4.30108,0.90684l1.24219,0l0,-2.68856c0,-0.16044 -0.00807,-0.32089 -0.02085,-0.48066c-0.01649,-0.21023 -0.04037,-0.42045 -0.06728,-0.62934l-0.1073,-0.84326l0.35251,0.7733c0.09721,0.21258 0.19745,0.42483 0.30643,0.63169c0.05584,0.10562 0.12614,0.2479 0.19913,0.34444l2.11673,2.89239l1.29769,0l0,-5.44674l-1.23411,0l0,2.68889c0,0.16011 0.00807,0.32089 0.02085,0.48033c0.01648,0.20888 0.04036,0.41776 0.06694,0.6253l0.10898,0.84427l-0.35386,-0.77397c-0.09855,-0.21494 -0.20047,-0.42954 -0.3108,-0.63842c-0.05852,-0.111 -0.12479,-0.24588 -0.19341,-0.34544l-2.11808,-2.88096l-1.30576,0l0,5.44674zm7.09525,-1.50018l-0.55735,0.92029c0.2442,0.22233 0.51867,0.41272 0.82476,0.53919c0.32964,0.13656 0.68148,0.1924 1.03701,0.1924c0.555,0 1.0878,-0.13387 1.50287,-0.51767c0.39422,-0.36428 0.55433,-0.83216 0.55433,-1.36395c0,-0.2072 -0.02724,-0.41373 -0.09754,-0.60949c-0.06156,-0.17121 -0.15271,-0.32661 -0.27952,-0.45779c-0.24925,-0.25732 -0.85605,-0.43929 -1.19409,-0.53078l-0.06795,-0.01918c-0.19744,-0.05213 -0.48436,-0.13791 -0.64313,-0.27077c-0.13521,-0.11335 -0.19912,-0.26606 -0.19912,-0.44198c0,-0.18366 0.08072,-0.33569 0.22637,-0.44669c0.15439,-0.11773 0.34175,-0.16078 0.5328,-0.16078c0.20754,0 0.40868,0.04541 0.59974,0.12411c0.15876,0.0656 0.30642,0.15238 0.44366,0.2543l0.3774,-0.86345c-0.21124,-0.13253 -0.43761,-0.23714 -0.6771,-0.30912c-0.27885,-0.08342 -0.56711,-0.12075 -0.85806,-0.12075c-0.50051,0 -0.96301,0.1332 -1.33133,0.48066c-0.35587,0.33569 -0.50757,0.75547 -0.50757,1.24118c0,0.33233 0.07568,0.6586 0.31113,0.90448c0.27212,0.28356 0.75648,0.45275 1.12648,0.55231c0.2368,0.06358 0.64919,0.18097 0.83553,0.34579c0.15607,0.13824 0.21595,0.32896 0.21595,0.5338c0,0.21158 -0.08477,0.38783 -0.24689,0.52305c-0.16919,0.14161 -0.37673,0.19778 -0.59469,0.19778c-0.26304,0 -0.5096,-0.08073 -0.73597,-0.21157c-0.22065,-0.12715 -0.42012,-0.2997 -0.59772,-0.48537zm5.46221,1.50018l1.29803,0l0,-4.35625l1.2765,0l0,-1.09049l-3.85103,0l0,1.09049l1.2765,0l0,4.35625zm3.74306,0l1.20216,0l0,-2.58025l1.51128,2.58025l1.43829,0l-1.52641,-2.257l0.186,-0.04037c0.34276,-0.07467 0.65692,-0.22435 0.8769,-0.5042c0.22436,-0.28524 0.29836,-0.64145 0.29836,-0.99766c0,-0.25799 -0.04541,-0.50959 -0.15305,-0.74538c-0.09956,-0.21763 -0.24319,-0.40229 -0.43424,-0.54659c-0.17794,-0.13455 -0.38413,-0.22032 -0.60041,-0.27111c-0.37437,-0.08746 -0.91592,-0.08444 -1.30038,-0.08444l-1.4985,0l0,5.44675zm1.20216,-2.75011l0,-1.75784l0.43996,0c0.26607,0 0.59705,0.0333 0.80896,0.21124c0.2072,0.1739 0.26135,0.4514 0.26135,0.70905c0,0.25194 -0.07568,0.48672 -0.28321,0.64078c-0.22066,0.16347 -0.54491,0.19677 -0.81098,0.19677l-0.41608,0zm4.03233,-2.69663l0,2.88701c0,0.41474 0.00673,0.95056 0.11033,1.35353c0.06727,0.26068 0.17928,0.50421 0.35385,0.71073c0.19711,0.23243 0.46216,0.3838 0.74807,0.48134c0.37774,0.12883 0.80156,0.16583 1.1988,0.16583c0.39691,0 0.81871,-0.03767 1.19645,-0.16617c0.28591,-0.09687 0.54793,-0.24857 0.74504,-0.481c0.17491,-0.2072 0.28827,-0.4487 0.35487,-0.7104c0.10292,-0.4033 0.10932,-0.93912 0.10932,-1.35386l0,-2.88701l-1.28996,0l0,2.64617c0,0.28894 0.00168,0.6058 -0.03162,0.89271c-0.01883,0.16213 -0.0518,0.33099 -0.11571,0.48201c-0.074,0.17626 -0.20215,0.30979 -0.37168,0.39792c-0.18433,0.09586 -0.39354,0.12883 -0.5994,0.12883c-0.20585,0 -0.41608,-0.0333 -0.60041,-0.12883c-0.1702,-0.08813 -0.29802,-0.22166 -0.37101,-0.39893c-0.06256,-0.1517 -0.09653,-0.31853 -0.11537,-0.481c-0.0333,-0.28691 -0.03162,-0.60377 -0.03162,-0.89271l0,-2.64617l-1.28995,0zm7.22711,5.44674l1.29769,0l0,-4.35625l1.2765,0l0,-1.09049l-3.85069,0l0,1.09049l1.2765,0l0,4.35625zm9.20156,-2.71143c0,-0.3811 -0.06929,-0.75144 -0.21729,-1.1026c-0.14733,-0.34914 -0.35823,-0.65524 -0.62833,-0.92096c-0.27514,-0.26977 -0.592,-0.47629 -0.94888,-0.62127c-0.35856,-0.14564 -0.73495,-0.21796 -1.12177,-0.21796c-0.38783,0 -0.76388,0.07097 -1.12245,0.21763c-0.3552,0.14531 -0.66768,0.35419 -0.94148,0.62193c-0.27245,0.26573 -0.4921,0.57115 -0.64044,0.92198c-0.14833,0.35116 -0.21695,0.72015 -0.21695,1.10125c0,0.38009 0.06929,0.74875 0.21695,1.0989c0.14868,0.35184 0.36731,0.65793 0.64044,0.92466c0.2738,0.26775 0.58628,0.4763 0.94148,0.6216c0.35857,0.147 0.73462,0.21797 1.12245,0.21797c0.38513,0 0.75816,-0.07266 1.11504,-0.21797c0.35789,-0.14564 0.67845,-0.35217 0.95595,-0.62193c0.27144,-0.26405 0.48268,-0.57115 0.629,-0.92029c0.14733,-0.3515 0.21628,-0.72218 0.21628,-1.10294zm-2.91896,1.80459c-0.46553,0 -0.86311,-0.16583 -1.17223,-0.51564c-0.32089,-0.36294 -0.44871,-0.80963 -0.44871,-1.28895c0,-0.47999 0.13455,-0.92197 0.45544,-1.28356c0.30844,-0.3478 0.70098,-0.52069 1.1655,-0.52069c0.4625,0 0.85201,0.17692 1.16012,0.5217c0.32358,0.36192 0.46081,0.80155 0.46081,1.28255c0,0.481 -0.13353,0.92399 -0.45543,1.28626c-0.30845,0.34746 -0.70166,0.51833 -1.1655,0.51833zm4.30142,0.90684l1.20216,0l0,-2.58025l1.51128,2.58025l1.43829,0l-1.52642,-2.257l0.18601,-0.04037c0.34276,-0.07467 0.65692,-0.22435 0.8769,-0.5042c0.22436,-0.28524 0.29836,-0.64145 0.29836,-0.99766c0,-0.25799 -0.04541,-0.50959 -0.15305,-0.74538c-0.09956,-0.21763 -0.24319,-0.40229 -0.43424,-0.54659c-0.17794,-0.13455 -0.38413,-0.22032 -0.60041,-0.27111c-0.37438,-0.08746 -0.91592,-0.08444 -1.30038,-0.08444l-1.4985,0l0,5.44675zm1.20216,-2.75011l0,-1.75784l0.43996,0c0.26607,0 0.59705,0.0333 0.80896,0.21124c0.2072,0.1739 0.26135,0.4514 0.26135,0.70905c0,0.25194 -0.07568,0.48672 -0.28322,0.64078c-0.22065,0.16347 -0.54491,0.19677 -0.81097,0.19677l-0.41608,0zm3.44604,2.75011l1.27011,0l0.29668,-1.0212l2.40331,0l0.28827,1.0212l1.26809,0l-1.88162,-5.44674l-1.76423,0l-1.88061,5.44674zm1.82478,-1.8722l0.62294,-2.04711c0.03431,-0.12042 0.0666,-0.24151 0.09755,-0.3626c0.03431,-0.13286 0.06761,-0.26573 0.09923,-0.39926l0.12344,-0.51767l0.12715,0.51666c0.04036,0.16347 0.08106,0.32728 0.12109,0.49075c0.02186,0.08947 0.04406,0.1813 0.07097,0.26909l0.6327,2.05014l-1.89507,0zm7.2039,1.8722l1.32157,0c0.4995,0 1.12547,-0.00606 1.6132,-0.11907c0.32291,-0.07468 0.62597,-0.20115 0.89809,-0.39086c0.34107,-0.23781 0.60108,-0.54356 0.77936,-0.91894c0.19206,-0.40499 0.26774,-0.84461 0.26774,-1.29063c0,-0.44568 -0.07568,-0.88666 -0.26774,-1.29164c-0.17828,-0.37471 -0.43896,-0.67979 -0.77936,-0.9176c-0.27884,-0.19442 -0.592,-0.32123 -0.92264,-0.39623c-0.54559,-0.12311 -1.29164,-0.12177 -1.85034,-0.12177l-1.05988,0l0,5.44674zm1.28188,-1.01851l0,-3.40938l0.38951,0c0.48369,0 1.05147,0.07669 1.4245,0.41507c0.3626,0.3293 0.4625,0.82443 0.4625,1.295c0,0.46822 -0.09889,0.96435 -0.46317,1.28995c-0.37404,0.33435 -0.94149,0.40936 -1.42383,0.40936l-0.38951,0zm4.22405,1.01851l1.27011,0l0.29668,-1.0212l2.40331,0l0.28827,1.0212l1.26809,0l-1.88162,-5.44674l-1.76423,0l-1.88061,5.44674zm9.17499,-1.50018l-0.55769,0.92029c0.2442,0.22233 0.51868,0.41272 0.82477,0.53919c0.32997,0.13656 0.68147,0.1924 1.03734,0.1924c0.555,0 1.08747,-0.13387 1.50288,-0.51767c0.39388,-0.36428 0.55432,-0.83216 0.55432,-1.36395c0,-0.2072 -0.02724,-0.41373 -0.09754,-0.60949c-0.06156,-0.17121 -0.15305,-0.32661 -0.27986,-0.45779c-0.24924,-0.25732 -0.85604,-0.43929 -1.19375,-0.53078l-0.06828,-0.01918c-0.19711,-0.05213 -0.48437,-0.13791 -0.64279,-0.27077c-0.13556,-0.11335 -0.19913,-0.26606 -0.19913,-0.44198c0,-0.18366 0.08073,-0.33569 0.22637,-0.44669c0.15439,-0.11773 0.34175,-0.16078 0.5328,-0.16078c0.2072,0 0.40835,0.04541 0.59974,0.12411c0.15842,0.0656 0.30609,0.15238 0.44366,0.2543l0.37706,-0.86345c-0.21123,-0.13253 -0.43727,-0.23714 -0.67676,-0.30912c-0.27918,-0.08342 -0.56711,-0.12075 -0.85806,-0.12075c-0.50051,0 -0.96301,0.1332 -1.33167,0.48066c-0.35553,0.33569 -0.50757,0.75547 -0.50757,1.24118c0,0.33233 0.07568,0.6586 0.31147,0.90448c0.27179,0.28356 0.75649,0.45275 1.12649,0.55231c0.23646,0.06358 0.64884,0.18097 0.83519,0.34579c0.15641,0.13824 0.21628,0.32896 0.21628,0.5338c0,0.21158 -0.0851,0.38783 -0.24689,0.52305c-0.16919,0.14161 -0.37673,0.19778 -0.59469,0.19778c-0.26304,0 -0.50959,-0.08073 -0.73597,-0.21157c-0.22065,-0.12715 -0.42012,-0.2997 -0.59772,-0.48537zm4.60819,-3.94656l0,2.88701c0,0.41474 0.00672,0.95056 0.11032,1.35353c0.06728,0.26068 0.17929,0.50421 0.35386,0.71073c0.19711,0.23243 0.46216,0.3838 0.74807,0.48134c0.37774,0.12883 0.80156,0.16583 1.1988,0.16583c0.39691,0 0.81871,-0.03767 1.19645,-0.16617c0.28591,-0.09687 0.54827,-0.24857 0.74504,-0.481c0.17491,-0.2072 0.28827,-0.4487 0.35487,-0.7104c0.10292,-0.4033 0.10931,-0.93912 0.10931,-1.35386l0,-2.88701l-1.28995,0l0,2.64617c0,0.28894 0.00168,0.6058 -0.03162,0.89271c-0.01884,0.16213 -0.0518,0.33099 -0.11571,0.48201c-0.074,0.17626 -0.20215,0.30979 -0.37168,0.39792c-0.18433,0.09586 -0.39355,0.12883 -0.5994,0.12883c-0.20585,0 -0.41608,-0.0333 -0.60041,-0.12883c-0.1702,-0.08813 -0.29802,-0.22166 -0.37101,-0.39893c-0.06256,-0.1517 -0.09653,-0.31853 -0.11537,-0.481c-0.0333,-0.28691 -0.03162,-0.60377 -0.03162,-0.89271l0,-2.64617l-1.28995,0zm5.64721,5.44674l1.2701,0l0.29668,-1.0212l2.40332,0l0.28826,1.0212l1.26809,0l-1.88162,-5.44674l-1.76423,0l-1.8806,5.44674zm12.90358,-5.27082c-0.20485,-0.09452 -0.4181,-0.17222 -0.63708,-0.22604c-0.2331,-0.05718 -0.47023,-0.08543 -0.71006,-0.08543c-0.37034,0 -0.73731,0.05684 -1.08174,0.19677c-0.33166,0.13455 -0.62026,0.33805 -0.86984,0.59402c-0.26304,0.2701 -0.47293,0.57854 -0.61185,0.92937c-0.1443,0.36462 -0.20383,0.75177 -0.20383,1.14263c0,0.49176 0.09519,0.96772 0.32089,1.40667c0.21863,0.42483 0.53583,0.76388 0.93072,1.03028c0.21224,0.14329 0.44231,0.2516 0.68887,0.32056c0.26842,0.07534 0.54827,0.10562 0.82678,0.10562c0.23983,0 0.47696,-0.02826 0.71006,-0.08544c0.21898,-0.05348 0.43223,-0.13152 0.63708,-0.22604l0,-1.30307c-0.1369,0.12479 -0.28658,0.23646 -0.44871,0.32089c-0.23075,0.11941 -0.47865,0.17928 -0.73899,0.17928c-0.45914,0 -0.85638,-0.15674 -1.17122,-0.49311c-0.31921,-0.34107 -0.45746,-0.76018 -0.45746,-1.2247c0,-0.47561 0.12446,-0.92298 0.44838,-1.27952c0.31315,-0.34478 0.71712,-0.49984 1.1803,-0.49984c0.26034,0 0.50858,0.06055 0.73932,0.18096c0.16213,0.08477 0.31148,0.1961 0.44838,0.32056l0,-1.30442zm0.66835,5.27082l1.27011,0l0.29667,-1.0212l2.40299,0l0.2886,1.0212l1.26809,0l-1.88162,-5.44674l-1.76457,0l-1.88027,5.44674zm6.67749,-1.50018l-0.55735,0.92029c0.2442,0.22233 0.51867,0.41272 0.82476,0.53919c0.32964,0.13656 0.68147,0.1924 1.03701,0.1924c0.555,0 1.0878,-0.13387 1.50287,-0.51767c0.39422,-0.36428 0.55433,-0.83216 0.55433,-1.36395c0,-0.2072 -0.02724,-0.41373 -0.09754,-0.60949c-0.06156,-0.17121 -0.15271,-0.32661 -0.27952,-0.45779c-0.24925,-0.25732 -0.85605,-0.43929 -1.19409,-0.53078l-0.06795,-0.01918c-0.19744,-0.05213 -0.48436,-0.13791 -0.64313,-0.27077c-0.13521,-0.11335 -0.19912,-0.26606 -0.19912,-0.44198c0,-0.18366 0.08072,-0.33569 0.22637,-0.44669c0.15439,-0.11773 0.34174,-0.16078 0.5328,-0.16078c0.20754,0 0.40868,0.04541 0.59974,0.12411c0.15876,0.0656 0.30642,0.15238 0.44366,0.2543l0.3774,-0.86345c-0.21124,-0.13253 -0.43761,-0.23714 -0.6771,-0.30912c-0.27885,-0.08342 -0.56711,-0.12075 -0.85806,-0.12075c-0.50051,0 -0.96301,0.1332 -1.33133,0.48066c-0.35587,0.33569 -0.50757,0.75547 -0.50757,1.24118c0,0.33233 0.07568,0.6586 0.31113,0.90448c0.27212,0.28356 0.75648,0.45275 1.12648,0.55231c0.2368,0.06358 0.64919,0.18097 0.83553,0.34579c0.15607,0.13824 0.21595,0.32896 0.21595,0.5338c0,0.21158 -0.08477,0.38783 -0.24689,0.52305c-0.1692,0.14161 -0.37673,0.19778 -0.5947,0.19778c-0.26303,0 -0.50959,-0.08073 -0.73596,-0.21157c-0.22065,-0.12715 -0.42012,-0.2997 -0.59772,-0.48537zm4.02224,1.50018l1.27011,0l0.29667,-1.0212l2.40298,0l0.2886,1.0212l1.26776,0l-1.88162,-5.44674l-1.76423,0l-1.88027,5.44674z" transform="translate(25.316070, 29.651800)"/><path fill="#295097" fill-rule="nonzero" d="m75.74674,27.16237c-3.14534,5.93514 -10.29508,7.59678 -16.57936,7.59678c-6.28933,0 -16.3947,-2.82479 -16.73679,-10.04752c-0.13353,-2.8231 1.46049,-5.22205 4.37374,-7.19247c2.91325,-1.97512 6.70743,-2.75246 11.35261,-2.96033c3.84598,-0.17188 6.84365,0.28961 9.74614,2.08074l0,-1.67879l7.21197,0l0,7.36939l-7.89984,0c-1.67273,-2.82276 -5.63173,-3.1228 -8.42893,-3.1228c-3.48944,0 -7.61965,1.81704 -7.61965,5.45649c0,3.64888 4.19311,5.47567 7.80128,5.47567c2.64046,0 6.42421,-0.9916 8.07946,-2.97716l8.69937,0zm-45.53052,24.53403c1.58158,-3.08445 3.31251,-5.9977 5.89814,-8.54801l-1.83756,-3.26945c-2.86346,2.77096 -5.72188,5.86248 -7.72526,9.12487l-16.42329,-3.20555l2.99195,2.82109l17.09602,3.07705zm-14.59583,-34.49174c5.32128,-3.29804 19.67627,-10.69939 24.16437,-12.86456l3.60077,-4.3401c-5.12887,2.32225 -20.70755,9.90355 -26.51454,13.37987l-13.70951,-3.93242l-1.66567,3.93242l14.12458,3.82479zm-0.68349,7.69331c4.50896,-3.08445 16.00048,-9.71653 19.46268,-11.79627l2.14768,-4.12651c-4.06025,2.36531 -17.07449,9.26245 -21.55688,12.35396l-14.6493,-3.76121l-0.34108,3.7185l14.9369,3.61153zm1.11101,7.33004c3.86785,-2.99902 12.45319,-8.88303 15.91538,-10.96276l0.73731,-3.78443c-4.06024,2.36497 -12.80065,8.19382 -17.28303,11.28533l-15.20499,-3.59034l0.68484,3.441l15.15049,3.6112zm2.60716,7.00948c2.92771,-2.99902 9.88875,-8.15648 12.79527,-10.32165l0.09115,-3.5261c-3.29098,2.1941 -10.78684,7.50797 -14.28603,10.51405l-15.20498,-3.59034l1.32493,3.3125l15.27966,3.61154zm4.55167,6.51806c2.15844,-2.91359 6.91866,-7.32298 9.61125,-9.5312l-0.93475,-3.39761c-2.90618,2.23681 -8.436,6.82414 -11.12321,9.87294l-15.54673,-3.56882l2.05148,3.16283l15.94196,3.46186zm57.13002,-27.02245l-3.20084,0l0,-3.77232l14.82119,0l0,3.77232l-3.25533,0l0,7.99234c0,2.72858 2.51836,3.38348 5.02326,3.3263c3.20554,-0.07333 4.98054,-0.85639 4.98054,-3.77165l0,-7.54699l-3.22371,0l0,-3.77232l14.56387,0l0,3.77232l-3.145,0l0,7.96307c0,3.54595 -1.89911,5.7868 -5.27015,6.83861c-2.06493,0.6438 -4.61995,1.22437 -7.6479,1.22437c-4.21968,0 -10.48277,-0.55534 -12.82991,-4.53351c-0.55063,-0.93375 -0.81602,-2.39121 -0.81602,-4.34212l0,-7.15042zm45.42254,15.71054l-13.91872,0l0,-4.01181l3.3125,0l0,-11.69873l-3.3125,0l0,-3.77232l13.51273,0c1.21427,0 5.86349,0.01447 6.90117,0.04777c2.82041,0.09081 7.47703,1.42719 7.42153,4.82513c-0.04743,2.9267 -2.6936,3.84666 -5.21229,4.46119c1.55837,0.25799 3.86112,0.97714 3.86616,2.56276l0.01077,3.56444l2.69259,0l0,4.02157l-10.89785,0l0.01043,-6.12619c0.00236,-1.40298 -1.56039,-2.20958 -2.96235,-2.20958l-3.95026,0l0,4.32396l2.52609,0l0,4.01181zm-2.52609,-15.71222l0,4.20656c1.67644,0 3.58799,0.06559 5.22003,-0.0925c3.2227,-0.31315 3.19007,-3.70975 -0.06896,-4.01214c-1.64179,-0.15271 -3.47766,-0.10192 -5.15107,-0.10192zm39.75785,15.71222l-14.56926,0l0,-4.01686l3.07638,0l0,-3.35724l-9.16725,-8.3509l-2.19612,0l0,-3.75786l13.59178,0l0,3.75786l-2.70503,0l4.8211,4.57959l4.6102,-4.57959l-2.62028,0l0,-3.75786l13.41923,0l0,3.75786l-2.40634,0l-9.14472,8.3509l0,3.35724l3.29031,0l0,4.01686z" transform="translate(25.316070, 29.651800)"/></g></g></g></svg>