<svg xmlns="http://www.w3.org/2000/svg" fill-rule="evenodd" clip-rule="evenodd" image-rendering="optimizeQuality" shape-rendering="geometricPrecision" text-rendering="geometricPrecision" viewBox="-2 1.0099999904632568 6599.990234375 3299.989990234375"><g><rect width="6599.99" height="3299.99" x="-2" y="1.01" fill="#006cb5"/><g><path fill="#fefefe" fill-rule="nonzero" d="M5926.58 1680.41c12.72,-60.61 74.84,-114.85 136.09,-114.85 61.26,0 97.74,44.02 93.63,114.85l-229.72 0 0 0zm-2926.41 58.41c8.98,63.93 70.51,112.91 132.45,112.91 105.38,0 175.62,-73.16 188.18,-153.09 23.52,-149.66 -225.13,-134.31 -208.01,-243.32 8.57,-54.48 38.85,-96.85 109.96,-96.85 40.63,0 72.49,13.18 91.42,55.92l32.6 -19.45c-28.75,-54.12 -69.73,-72.8 -118.31,-72.8 -98.11,0 -140.59,60.51 -152.01,133.18 -21.95,139.61 227.5,119.21 208.01,243.32 -9.69,61.76 -58.2,116.75 -146.13,116.75 -52.27,0 -92.17,-37.8 -102.42,-93.81l-35.74 17.24 0 0zm397.46 -58.41c12.72,-60.61 74.84,-114.85 136.1,-114.85 61.25,0 97.73,44.02 93.62,114.85l-229.72 0 0 0zm205.6 92.53c-8.09,10.85 -17.79,19.78 -28.56,27.43 -19.33,13.4 -45.69,26.8 -78.87,26.8 -63.81,0 -106.19,-51.05 -102.68,-118.04l258.43 0 2.01 -12.76c14.96,-95.08 -38.74,-159.53 -115.31,-159.53 -79.12,0 -157.29,67 -171.83,159.53 -14.06,89.33 45.1,159.52 124.86,159.52 40.2,0 72.7,-15.96 95.64,-31.91 13.61,-9.57 25.43,-19.77 35.64,-31.91l-19.33 -19.13 0 0zm247.41 41.47c-60.64,0 -103.66,-51.05 -92.12,-124.43 11.53,-73.38 70.61,-124.42 131.23,-124.42 63.81,0 106.84,51.04 95.29,124.42 -11.53,73.38 -70.6,124.43 -134.4,124.43l0 0zm-162.25 75.51c-4.5,60.64 29.67,83.92 40.28,93.42 17.84,15.95 44.75,31.91 85.59,31.91 79.12,0 156.88,-67.07 170.84,-153.15l51.74 -318.87 -28.72 0 -9.53 60.61c-5.11,-12.12 -12.88,-23.61 -22.23,-33.18 -15.78,-17.23 -41.9,-33.83 -82.09,-33.83 -76.57,0 -150.41,63.81 -164.46,153.14 -14.04,89.34 39.74,153.14 116.31,153.14 40.2,0 71.42,-15.94 92.64,-33.17 12.34,-9.57 23.73,-21.06 32.75,-33.82l-15.12 85.98c-12.29,69.91 -73.8,124.43 -137.61,124.43 -33.82,0 -55.44,-13.34 -70.45,-26.81 -8.41,-7.53 -33.45,-24.62 -28.44,-69.55l-31.51 -0.25 0.01 0zm428.33 -164.84c-28.83,183.55 216.76,164.4 224.4,-1.98l28.29 -179.87 -28.72 0 -27.08 172.27c-22.09,140.61 -190.59,152.22 -168.17,9.58l28.59 -181.85 -28.71 0 -28.6 181.85 0 0zm301.57 124.43l28.72 0 27.08 -172.3c10.04,-63.8 64.77,-111.65 126.02,-111.65l12.76 0 4.52 -28.72 -12.76 0c-38.28,0 -68.13,15.32 -87.76,30.63 -12.26,8.94 -22.16,19.15 -30.24,29.98l8.53 -54.22 -28.72 0 -48.15 306.28 0 0zm264.33 -414.77c-2,12.77 6.06,22.34 18.82,22.34 12.76,0 23.85,-9.57 25.85,-22.34 2,-12.76 -6.06,-22.32 -18.82,-22.32 -12.77,0 -23.84,9.56 -25.85,22.32zm-58.82 414.77l28.71 0 48.15 -306.28 -28.71 0 -48.15 306.28 0 0zm265.14 -22.34c-60.63,0 -106.34,-54.23 -94.3,-130.8 12.03,-76.57 74.79,-130.81 135.42,-130.81 63.8,0 109.5,54.24 97.48,130.81 -12.04,76.57 -74.79,130.8 -138.6,130.8zm114.52 22.34l28.71 0 88.48 -562.76 -28.72 0 -49.85 317.09c-5.74,-12.12 -13.51,-23.61 -22.86,-33.18 -17.06,-17.23 -43.17,-33.83 -84.64,-33.83 -76.58,0 -154.12,67.01 -168.65,159.54 -14.55,92.51 41.9,159.52 118.48,159.52 41.47,0 72.69,-15.96 95.19,-33.19 12.35,-9.57 23.73,-21.05 33.4,-33.82l-9.54 60.63 0 0zm274.71 -22.34c-66.99,0 -115.4,-57.43 -103.87,-130.8 11.55,-73.4 77.99,-130.81 145,-130.81 67,0 115.4,57.41 103.87,130.81 -11.55,73.37 -78,130.8 -145,130.8zm122.62 13.89l28.71 0 47.77 -303.85 -28.71 0 -10.46 66.56c-21.53,-40.73 -63.23,-66.93 -114.29,-66.93 -83.6,0 -164.17,70.2 -178.21,159.53 -14.05,89.33 44.45,159.52 128.05,159.52 51.06,0 100.99,-26.18 135.33,-66.92l-8.19 52.09zm237.91 -13.89c-60.62,0 -106.33,-54.23 -94.3,-130.8 12.03,-76.57 74.8,-130.81 135.43,-130.81 63.81,0 109.51,54.24 97.48,130.81 -12.05,76.57 -74.8,130.8 -138.61,130.8zm114.53 22.34l28.72 0 88.47 -562.76 -28.72 0 -49.86 317.09c-5.74,-12.12 -13.5,-23.61 -22.86,-33.18 -17.06,-17.23 -43.16,-33.83 -84.63,-33.83 -76.58,0 -154.11,67.01 -168.65,159.54 -14.54,92.51 41.91,159.52 118.49,159.52 41.46,0 72.68,-15.96 95.18,-33.19 12.35,-9.57 23.72,-21.05 33.39,-33.82l-9.53 60.63 0 0zm390.94 -84.78c-23.91,32.11 -79.68,62.44 -119.42,62.44 -63.81,0 -106.2,-51.05 -102.7,-118.04l258.44 0 2.02 -12.76c14.94,-95.08 -38.74,-159.53 -115.31,-159.53 -79.12,0 -157.29,67 -171.83,159.53 -14.06,89.33 45.09,159.52 124.85,159.52 48.99,0 112.49,-30.27 143.28,-72.02l-19.33 -19.14z"/><polygon fill="#fefefe" points="1860.86,1602.17 2074.61,1602.17 2190.12,1844.78 1976.33,1844.78"/><path fill="#fefefe" d="M2249.64 1847.72l255.09 -525.13 192.78 0 107.57 525.13 -169.33 0 -12.43 -69.97 -164.28 0 -37.79 69.97 -171.61 0 0 0zm332.5 -367.65l-71.52 178.24 98.55 0 -27.03 -178.24 0 0z"/><path fill="#fefefe" d="M818.77 1847.72l255.1 -525.13 192.79 0 107.56 525.13 -169.32 0 -12.45 -69.97 -164.27 0 -37.8 69.97 -171.61 0zm332.5 -367.65l-71.52 178.24 98.56 0 -27.04 -178.24z"/><polygon fill="#fefefe" points="1421.79,1847.72 1495.69,1322.59 1666.3,1322.59 1592.41,1847.72"/><path fill="#f58734" d="M1887.83 1564.91l220.95 0 222.74 -241.56 -220.95 0 -222.74 241.56zm-256.87 281.35l220.95 0 223.11 -244.53 -220.95 0 -223.11 244.53z"/><path fill="#fefefe" d="M845.99 1341.4l-22.03 154.44c-62.47,-86.73 -215.64,-26.88 -231.01,81.17 -19.51,137.16 125.02,169.17 206.86,88.39l-22.07 154.81c-24.01,11.21 -47.4,19.87 -70.41,25.76 -22.34,5.74 -45.36,9 -68.31,9.46 -28.4,0.57 -53.99,-2.3 -76.96,-8.59 -22.39,-5.88 -43.36,-15.84 -61.74,-29.24 -34.95,-25.19 -59.78,-57.22 -74.46,-96.21 -14.65,-39.11 -18.5,-83.22 -11.47,-132.55 5.66,-39.62 17.2,-75.76 34.76,-108.54 17.43,-32.77 41.06,-62.51 70.81,-89.51 28.12,-25.75 58.49,-45.16 91.08,-58.36 32.46,-13.06 67.67,-20.05 105.49,-20.81 2.04,-0.03 4.19,-0.07 6.24,-0.07 20.2,0 40.3,2.29 59.78,6.78 21.45,4.99 42.51,12.75 63.44,23.07l0 0 0 0z"/><polygon fill="#fefefe" points="1753.42,1320.4 1959.65,1320.4 2100.92,1564.91 1894.7,1564.91"/></g></g></svg>