<svg  id="fndm-2z105r2ici" viewBox="75.48699188232422 60.982994079589844 448.780029296875 127.01700592041016" xmlns="http://www.w3.org/2000/svg">
   <g xmlns="http://www.w3.org/2000/svg" fill-rule="evenodd" fill="none">
    <path d="m231.178,109.924c-3.422,-3.232 -9.045,-5.221 -14.667,-5.221c-13.689,0 -22.733,8.205 -22.733,18.648c0,9.698 8.555,17.654 22.733,17.654c7.089,0 12.222,-2.237 15.889,-6.216l7.089,3.979c-1.711,1.989 -9.045,7.956 -23.222,7.956c-19.311,0 -31.534,-12.183 -31.534,-23.621c0,-14.173 12.956,-24.368 31.778,-24.368c8.067,0 16.378,2.238 21.511,6.962l-6.844,4.227zm32.266,14.422l-24.444,-26.854l11.244,0l17.6,20.638l18.09,-20.638l10.755,0l-24.445,26.854l0,23.373l-8.8,0l0,-23.373zm38.867,-25.86l29.578,0c16.622,0 20.778,7.709 20.778,14.173c0,6.465 -7.09,12.93 -16.867,13.676l19.311,22.627l-11,0l-19.8,-22.378l-13.2,0l0,22.378l-8.8,0l0,-50.476zm8.8,22.379l18.333,0c6.845,0 13.934,-1.243 13.934,-8.206c0,-6.962 -6.845,-8.205 -13.934,-8.205l-18.333,0l0,16.41l0,0.001zm48.156,-23.622l44,0l0,6.465l-35.445,0l0,15.168l35.445,0l0,6.465l-35.445,0l0,16.162l37.156,0l0,6.465l-45.711,0l0,-50.725zm52.555,0l8.8,0l0,42.022l36.422,0l0,8.454l-45.222,0l0,-50.476zm78.222,-0.248l7.578,0l26.645,50.475l-9.778,0l-6.356,-10.194l-29.577,0l-5.867,10.194l-9.778,0l27.133,-50.475zm15.156,32.075l-11.489,-23.124l-0.244,0l-11.734,23.124l23.467,0zm-311.911,27.103c3.422,0 5.867,0 8.067,1.492c1.955,1.243 3.177,3.48 3.177,5.719c0,2.486 -1.222,6.216 -7.089,7.708c1.467,0.249 2.934,0.249 4.89,1.492c2.2,1.492 3.422,3.73 3.422,6.216c0,3.232 -1.712,5.719 -3.667,6.962c-2.2,1.492 -4.4,1.99 -10.022,1.99l-6.845,0l0,-31.579l8.067,0zm-1.711,14.173c1.466,0 4.155,0 5.866,-0.746c2.2,-1.243 2.934,-3.73 2.934,-5.719c0,-0.995 -0.245,-3.232 -1.956,-4.476c-1.466,-0.994 -3.178,-1.243 -6.11,-1.243l-3.423,0l0,11.935l2.689,0l0,0.249zm0.978,15.416c1.71,0 4.4,0 6.11,-0.994c2.2,-1.492 2.69,-4.227 2.69,-5.72c0,-1.243 -0.245,-3.73 -2.445,-5.221c-1.711,-1.243 -3.667,-1.243 -7.333,-1.243l-2.69,0l0,13.178l3.668,0zm31.044,-29.838c3.422,0 6.111,0 8.8,1.492c3.667,1.74 3.911,4.973 3.911,6.216c0,3.482 -2.2,7.709 -9.533,8.952l12.466,15.167l-5.133,0l-11.489,-14.919l-2.444,0l0,14.92l-4.4,0l0,-31.828l7.822,0zm-3.422,2.238l0,12.93l2.444,0c3.178,0 9.045,0 9.045,-6.962c0,-5.968 -4.89,-5.968 -8.556,-5.968l-2.933,0zm38.133,-1.989l12.222,31.827l-4.644,0l-4.4,-11.686l-11,0l-4.156,11.686l-3.177,0l12.222,-31.578l2.933,0l0,-0.249zm-7.089,18.151l9.534,0l-4.645,-12.93l-4.889,12.93zm48.156,-17.654l0,1.74l-18.822,27.104l20.044,0l0,2.486l-25.422,0l0,-1.74l19.066,-27.352l-18.088,0l0,-2.238l23.222,0zm13.444,0l0,31.33l-4.644,0l0,-31.33l4.644,0zm15.645,0l0,28.844l13.689,0l0,2.486l-18.09,0l0,-31.33l4.401,0zm44,0.249c3.422,0 5.866,0 8.555,1.243c3.422,1.74 3.667,4.724 3.667,6.216c0,3.481 -1.956,7.46 -9.045,8.703l12.223,14.67l-5.134,0l-11,-14.421l-2.444,0l0,14.67l-4.4,0l0,-31.081l7.578,0zm-3.423,1.99l0,12.432l2.445,0c3.178,0 8.8,0 8.8,-6.714c0,-5.719 -4.645,-5.719 -8.311,-5.719l-2.934,0l0,0.001zm42.045,-1.99l0,2.238l-12.222,0l0,11.686l11.244,0l0,2.238l-11,0l0,12.433l12.222,0l0,2.486l-16.133,0l0,-31.081l15.889,0zm21.022,0l11.979,31.081l-4.645,0l-4.4,-11.438l-10.755,0l-4.157,11.438l-2.933,0l11.978,-31.081l2.933,0zm-7.089,17.654l9.29,0l-4.645,-12.681l-4.645,12.681zm31.778,-17.654l0,28.595l12.711,0l0,2.486l-16.621,0l0,-31.081l3.91,0zm38.133,0l0,2.238l-10.022,0l0,28.843l-4.4,0l0,-29.092l-10.021,0l0,-2.238l24.444,0l-0.001,0.249zm9.045,0l8.555,14.919l8.556,-14.92l2.933,0l-10.51,17.158l0,13.924l-4.156,0l0,-13.924l-10.267,-17.157l4.889,0z" fill-rule="nonzero" fill="#000"/>
    <g fill-rule="nonzero">
     <path d="m93.73,80.169l13.135,-7.133l12.892,-7.133l0,-4.92l-21.649,12.054l-21.892,11.805l18.243,-4.673l-0.729,0zm26.27,-14.266l12.892,7.133l13.135,7.133l17.514,4.673l-21.65,-11.806l-21.891,-12.052l-0.243,0l0,4.919l0.243,0z" fill="#5F1700"/>
     <path d="m146.027,80.169l-51.567,0l-18.244,4.673l-0.243,0.246l87.811,0l-0.243,-0.246l-17.514,-4.673z" fill="#BD5426"/>
     <path d="m120,65.903l-26.27,14.266l52.297,0l-26.027,-14.266z" fill="#9A171F"/>
    </g>
    <path d="m80.838,181.75l0,-78.707l77.838,0l0,0.246l5.351,-5.657l-88.54,0l0,89.529l0.243,0l5.351,-5.411l-0.243,0z" fill-rule="nonzero" fill="#5F1700"/>
    <path d="m158.676,103.289l0,78.46l-77.596,0l-5.351,5.412l88.54,0l0,-89.531l-0.243,0l-5.35,5.659z" fill-rule="nonzero" fill="#BD5426"/>
    <path d="m158.676,103.289l0,-0.246l-77.838,0l0,78.707l0.243,0" stroke-width="0.14" stroke="#000"/>
    <path d="m80.838,103.043l0,78.46l78.08,0l0,-78.46l-78.08,0zm65.432,66.163l-53.027,0l0,-53.62l53.027,0l0,53.62z" fill-rule="nonzero" fill="#9A171F"/>
    <g fill-rule="nonzero">
     <path d="m99.324,163.057l0,-41.567l40.865,0.246l2.92,-2.952l3.161,-3.443l-53.27,0l0,53.865l0.243,0l3.162,-3.444l2.919,-2.705z" fill="#BD5426"/>
     <path d="m140.19,121.736l0.486,40.829l-41.352,-0.246l-6.08,6.887l53.026,0l0,-53.866l-6.08,6.396z" fill="#5F1700"/>
    </g>
   </g>
  </svg>