<svg  id="fndm-hl7w4cw0pe" viewBox="0.17622756958007812 0.8176994323730469 813.8712768554688 274.0046081542969" xmlns="http://www.w3.org/2000/svg">
   <path d="m203.79,92.6c0,25.54 0.61,51.1 -0.14,76.62c-1,34.66 -12.16,65.06 -41.45,86.15c-35.69,25.71 -83.85,25.74 -118.68,0.63c-35.83,-25.85 -52.13,-71 -38.63,-113c20.39,-63.45 88.75,-88 140.67,-59.93c5.42,2.93 10.13,7.16 15.29,10.61c2,1.35 4,4.23 6.76,2.47c2.16,-1.35 1.15,-4.21 1.15,-6.39c0,-25.54 -0.023,-51.083 -0.07,-76.63c0,-10.72 3,-13.31 14,-12c2.26,0.27 4.49,0.91 6.75,1c14.45,0.72 14.44,0.69 14.44,15.82l0,74.67l-0.09,-0.02zm-37,80.81c0,-38.55 -28,-66.84 -66,-66.621c-35.77,0.211 -63,28.911 -63.16,66.491c-0.13,35.92 28.28,66 62.55,66.23c38.12,0.26 66.63,-28.03 66.63,-66.1l-0.02,0zm261.43,42.98c0,16.37 -0.17,32.75 0.1,49.12c0.09,5.47 -1.59,8 -7.26,7.35c-2.26,-0.26 -4.58,0 -6.87,0c-6.2,-0.16 -13.54,1.64 -18.33,-1.06c-5.82,-3.28 -1.4,-11.4 -2.51,-17.29c-0.35,-1.88 0.14,-4.46 -2.26,-4.85c-2.4,-0.39 -3.92,2 -5.71,3.38c-26.41,20.24 -55.66,27.3 -87.77,17.25c-40.74,-12.76 -64.42,-41 -71.09,-82.94c-6.85,-43 15.35,-84.73 54.69,-104.9c37.81,-19.39 86.4,-12.42 116.66,17.31c19.58,19.25 29,43.33 30.14,70.49c0.67,15.36 0.12,30.78 0.12,46.17l0.09,-0.03zm-52.75,-86.69l0.17,0c-20.23,-30.85 -74,-30.7 -98,0.28a1.34,1.34 0 0 0 -0.81,1.4c-28.14,29.27 -15.13,86.49 23.63,102.48c17.45,7.2 35.23,9 52.46,-1.33l2.72,-0.73c17.47,-6.3 27.17,-19.9 32.24,-36.64c4,-13.34 6.31,-27.3 -0.47,-40.82c0.94,-2.42 0.24,-4.6 -1,-6.67a25.69,25.69 0 0 0 -8.71,-14.95l-0.19,-0.76l-2.04,-2.26zm392.67,125.97l-3.68,2.66c-9.12,3.38 -17.21,8.87 -26.64,11.82c-18,5.65 -35.92,3.79 -53.94,0.77l-4.09,-1c-11.81,-6.73 -24.45,-11.93 -34.78,-21.33c-12.09,-11 -19.92,-24.78 -27.7,-38.72a0.89,0.89 0 0 0 -0.34,-1.24c-6.06,-24.15 -7.63,-48.07 1.47,-72.05c6.53,-17.22 18.36,-30.39 30.5,-43.51l0,0.06c3.68,-1.32 7.28,-2.77 9.56,-6.25c3.6,-0.9 6.77,-2.47 8.93,-5.65l2.76,-0.66l21.67,-7.47l4.06,-0.65c5.37,0.36 10.75,0.7 15.93,-1.29l3.21,0l27.87,3.88a0.75,0.75 0 0 0 1.17,0.2l20.4,9.62c0.57,1.66 2,2 3.46,2.1c34,24.91 47.31,59 46,100.33c-0.88,28.06 -0.15,56.17 -0.14,84.25l-0.14,0.18c-8.16,0.14 -16.34,0 -24.48,0.52c-7,0.46 -10.39,-1.82 -9.73,-9.32c0.45,-5.06 0.09,-10.19 0.09,-16.56c-5.69,2.73 -9.4,4.95 -11.42,9.31zm8.65,-82.55c1.82,-37.56 -30.16,-66.67 -64.41,-66.41c-37.06,0.28 -64,27.75 -64,66c0,37.87 27.09,66.34 63.53,66.74c36.91,0.4 64.91,-28.23 64.88,-66.36l0,0.03zm-254.4,-45.1a1.35,1.35 0 0 0 0.52,-1.49a4.58,4.58 0 0 0 2.15,-4.28l-0.11,0.22c4.36,-3.85 6.73,-9 9.15,-14.11a1.06,1.06 0 0 0 0.66,-1.25c2.07,-0.89 3.46,-2.29 3.63,-4.65c20.94,-19.89 45.71,-30.11 74.73,-29.61l0.19,0.1c1.64,11.2 0.28,22.45 0.63,33.68l-0.51,0l-0.13,0.46c-16.88,-0.28 -33.24,0.78 -43.81,16.87c-1.92,1.3 -3.55,2.81 -3.78,5.31c-10.9,14.14 -13.72,30.91 -15.63,48l-0.42,3.62c-4.75,20.2 -11.18,39.73 -22.67,57.25a0.9,0.9 0 0 0 -0.61,1.15c-2.08,0.86 -3.66,2.15 -3.91,4.57l0.08,-0.09l-26,19.67l-0.76,0l-0.58,0.49l-31.2,8.16l-4.29,0.09a1.36,1.36 0 0 0 -1.72,0.05l-6,0c-4.25,-1.38 -3.92,-5.39 -5,-8.62a36.14,36.14 0 0 0 0.13,-15.73a13.34,13.34 0 0 0 0.18,-8l0.51,-0.2l0,-0.54c9.31,-2.43 19.88,1 28.19,-6c0.58,0.1 1.16,-0.181 1.44,-0.7c11.52,-3.09 17.1,-12.26 22.13,-21.86c13.56,-25.9 12.87,-55.7 22.81,-82.56z" fill="#3EB0B0"/>
  </svg>