<svg xmlns="http://www.w3.org/2000/svg" fill-rule="evenodd" clip-rule="evenodd" image-rendering="optimizeQuality" shape-rendering="geometricPrecision" text-rendering="geometricPrecision" viewBox="-2 1.0099999904632568 6599.990234375 3299.989990234375"><g><rect width="6599.99" height="3299.99" x="-2" y="1.01" fill="none"/><g><path fill="#a02b2d" d="M3585.89 1998.68l142.55 0c9.56,0 18.96,-7.83 20.87,-17.39l61.51 -307.94c3.42,-9.08 20.2,-9.68 26.71,-2.65l143.98 307.61c5.24,11.21 18.71,20.37 29.9,20.37l167 0c11.19,0 16.08,-9.16 10.84,-20.37l-151.08 -322.78c-5.8,-12.4 -6.12,-10.57 -0.08,-21.44l270.34 -309.63c9.78,-11.21 8.61,-20.37 -2.59,-20.37l-167 0c-11.19,0 -28.37,9.16 -38.15,20.37l-265.26 303.82c-5.65,5.59 -14.66,2.36 -14.55,-5.31l60.23 -301.49c1.9,-9.56 -4.36,-17.39 -13.92,-17.39l-142.55 0c-9.56,0 -18.96,7.83 -20.86,17.39l-131.8 659.81c-1.9,9.56 4.36,17.39 13.91,17.39zm-1083.99 0l321.08 0c9.55,0 18.95,-7.83 20.86,-17.39l24.83 -124.33c1.91,-9.55 -4.38,-17.38 -13.91,-17.38l-303.69 0 23.89 -119.6 283.96 0c9.56,0 18.95,-7.83 20.86,-17.38l24.83 -124.33c1.91,-9.56 -4.38,-17.39 -13.91,-17.39l-283.96 0 19.51 -97.69 300.2 0c9.56,0 18.96,-7.83 20.87,-17.39l24.83 -124.32c1.91,-9.56 -4.38,-17.39 -13.91,-17.39l-317.59 0 -111.51 0 -31.05 0c-9.56,0 -18.95,7.83 -20.86,17.39l-131.8 659.81c-1.91,9.56 4.36,17.39 13.91,17.39l34.54 0 108.02 0zm486.9 -172.68c50.11,18.66 132.86,32.77 200.77,36.51 65.19,3.58 135.82,-9.3 133.24,-76.66 -2.49,-65.07 -85.92,-71.33 -144.19,-76.66 -161.99,-14.82 -163.16,-125.09 -156.97,-209.91 11,-150.6 145.32,-207.55 332.19,-206.25 85.43,0.6 148.42,13.85 231.8,31.03l-49.27 144.2c-53.8,-11.6 -117.36,-26.39 -175.22,-27.38 -53.44,-0.92 -145.35,8.67 -147.85,62.05 -3.65,77.99 88.9,76.18 147.85,80.32 104.75,7.35 199.64,61.68 153.32,229.97 -52.27,189.91 -199.74,188.01 -323.07,188.01 -90.05,0 -209.3,-7.31 -270.14,-54.76l67.54 -120.47zm-977.52 172.68l-192.02 0 -71.52 0 -71.03 0c-9.55,0 -15.82,-7.83 -13.91,-17.39l131.8 -659.81c1.91,-9.56 11.3,-17.39 20.86,-17.39l48.83 0 93.72 0 169.82 0c143.89,0 225.73,101.85 199.79,210.4 -21.63,90.51 -36.46,182.53 -54.69,273.79 -20.69,114.92 -172.48,210.4 -261.65,210.4zm77.42 -210.4l54.69 -273.79c4.18,-20.9 -11.48,-51.3 -54.24,-51.3l-145.53 0 -75.18 376.39c47.86,0 88.82,0 136.68,0 31.07,0 66.61,-19.22 83.58,-51.3z"/><path fill="#e8ba2a" d="M6104.48 1539.44c5.71,-35.92 -16.23,-76.25 -64.19,-76.25l-187.04 0 -34.58 173.09 203.09 0c36.23,0 72.41,-32.09 82.72,-96.84zm175.22 -40.15c-7,178.46 -110.8,296.1 -275.92,296.1l-216.89 0 -37.13 185.9c-1.92,9.56 -11.31,17.39 -20.87,17.39l-142.55 0c-9.56,0 -15.82,-7.83 -13.92,-17.39l131.81 -659.81c1.9,-9.56 11.3,-17.39 20.86,-17.39l78.5 0 64.05 0 204.43 0c150.02,0 211.62,93.34 207.63,195.2zm-1087.83 355.02c-82.75,0.83 -132.86,-15.15 -122.52,-66.95l53.5 -267.85c10.6,-53.02 92.52,-73.25 146.58,-73.16 45.33,0.08 119.29,29.17 110.41,73.61l-53.41 267.4c-9.46,47.35 -49.36,66.08 -134.56,66.95zm-25.55 156.97c181.45,3.69 312.08,-96.98 337.44,-223.92l54.32 -271.96c39.06,-195.56 -144.23,-211.97 -256.71,-220.54 -173.09,-13.19 -327.74,83.93 -355.02,220.54l-54.33 271.96c-18.32,91.73 12.94,218.59 274.3,223.92zm-729.88 -12.6l142.56 0c9.56,0 18.95,-7.83 20.86,-17.39l103.49 -518.1 201.64 0c9.56,0 18.96,-7.83 20.87,-17.39l24.83 -124.32c1.91,-9.56 -4.38,-17.39 -13.92,-17.39l-219.02 0 -142.56 0 -210.8 0c-9.53,0 -18.96,7.85 -20.86,17.39l-24.83 124.32c-1.9,9.53 4.36,17.39 13.91,17.39l193.41 0 -103.49 518.1c-1.91,9.56 4.36,17.39 13.91,17.39z"/><path fill="#a02b2d" d="M971.47 1241.79l0 0c77.62,16.34 127.33,92.53 111,170.16l-2.67 12.68c-16.33,77.63 -92.53,127.34 -170.15,111.01l0 0c-77.63,-16.33 -127.34,-92.53 -111,-170.15l2.66 -12.69c16.34,-77.63 92.53,-127.34 170.16,-111.01z"/><path fill="#e8ba2a" d="M518.39 1548.58c94.09,12.51 151.57,95.79 130.04,195.83l-2.72 12.66c-1.98,5.74 -3.63,11.59 -4.91,17.53l-39.89 185.38c-16.17,75.12 32.07,136.59 107.2,136.59l175.61 0c75.13,0 149.82,-61.47 165.99,-136.59l39.89 -185.38c1.48,-6.89 2.42,-13.67 2.85,-20.3l2.13 -9.89c20.22,-93.97 103.8,-173.15 196.3,-192.78 3.93,0.67 8.02,1.02 12.27,1.02l100.13 0c42.83,0 85.41,-35.04 94.63,-77.87l22.74 -105.69c9.22,-42.83 -18.28,-77.87 -61.11,-77.87l-100.13 0c-42.83,0 -85.4,35.04 -94.62,77.87l-21.51 99.95c-28.58,91.42 -121.72,163.5 -215.37,163.5l-236.23 0c-93.49,0 -155.54,-71.84 -145.03,-163.04 3.34,-7.44 5.93,-15.18 7.64,-23.13l29.85 -138.73c12.1,-56.21 -24,-102.21 -80.21,-102.21l-131.42 0c-56.22,0 -112.11,46 -124.21,102.21l-29.86 138.73c-12.09,56.22 24,102.21 80.22,102.21l119.73 0z"/></g></g></svg>