<svg xmlns="http://www.w3.org/2000/svg" fill-rule="evenodd" clip-rule="evenodd" image-rendering="optimizeQuality" shape-rendering="geometricPrecision" text-rendering="geometricPrecision" viewBox="-2 1 6600 3300"><g><g><rect width="6600" height="3300" x="-2" y="1" fill="#373435"/><g fill="#7fc34d" fill-rule="nonzero"><path d="M549.85 2014.46l383.85 0c150.66,0 273.92,-136.51 273.92,-303.36l0 -104.02c0,-166.85 -123.26,-303.36 -273.92,-303.36l-383.85 0 0 710.74zm373.7 -147.61l-209.91 0 0 -425.43 209.91 0c77.45,0 121.56,72.46 121.56,132.36l0 160.71c0,59.9 -44.58,132.36 -121.56,132.36zm4023.08 -427.37c-52.11,-107.58 -155.83,-153.28 -285.43,-153.32 -152.48,-0.05 -286.36,70.11 -292.8,169.95 -2.42,37.55 -4.61,63.1 0,97.91 9.6,72.38 79.64,125.71 145.94,141.32 71.09,16.74 172.5,16.1 233.13,36.97 33.5,11.54 50.07,38.1 46.49,80.36 -4.46,52.84 -77.07,76.5 -132.57,78.51 -75.56,2.74 -141.51,-49.43 -163.55,-87.74l-143.22 60.96c54.59,107.58 163.25,153.28 299.02,153.32 159.77,0.06 300.03,-70.11 306.78,-169.95 2.53,-37.55 4.84,-63.1 0,-97.91 -10.06,-72.38 -73.28,-134.94 -142.74,-150.55 -71.32,-16.03 -163.25,-9.81 -225.75,-32.36 -31.99,-11.54 -68.07,-33.48 -64.66,-75.74 4.26,-52.84 73.57,-76.5 126.54,-78.51 72.12,-2.74 135.07,49.43 156.11,87.75l136.71 -60.97zm-1211.79 175.5l0 72.05 0 41.48c0,81.41 52.68,148.03 174.54,148.03 121.86,0 174.54,-66.62 174.54,-148.03l0 -41.48 0 -72.05 0 -41.48c0,-81.42 -52.68,-148.03 -174.54,-148.03 -121.86,0 -174.54,66.61 -174.54,148.03l0 41.48zm520.87 0l0 72.05 0 37.87c0,161.55 -104.54,293.73 -346.33,293.73 -241.8,0 -346.34,-132.18 -346.34,-293.73l0 -37.87 0 -72.05 0 -37.87c0,-161.56 104.54,-293.74 346.34,-293.74 241.79,0 346.33,132.18 346.33,293.74l0 37.87zm-1434.54 -307.34l169.02 0 169.05 300 174.19 -300 169.02 0 -109.16 178.94c-38.07,62.4 -80.97,121.53 -155.53,149.84 -16.39,6.41 -30.81,10.14 -46.24,22.86l121.16 0 182.35 333.98 -169.02 0 -163.04 -295.36 -180.19 295.36 -169.02 0 109.16 -178.93c38.08,-62.41 99.46,-119.35 174.02,-147.65 20.17,-7.85 26,-10.64 28.3,-15.95l-121.24 0 -182.83 -343.09zm-783.27 0l169.03 0 169.04 300 174.19 -300 169.02 0 -109.16 178.94c-38.07,62.4 -80.97,121.53 -155.53,149.84 -16.38,6.41 -30.81,10.14 -46.24,22.86l121.17 0 182.35 333.98 -169.02 0 -163.04 -295.36 -180.2 295.36 -169.02 0 109.16 -178.93c38.08,-62.41 99.46,-119.35 174.02,-147.65 20.17,-7.85 26,-10.64 28.31,-15.95l-121.25 0 -182.83 -343.09zm-554.71 271.98c17.49,-126.08 82.23,-158.17 159.41,-158.17 76.8,0 141.28,35.93 159.16,158.17l-318.57 0zm159.41 434.84c116.54,0 219.02,-31 278.03,-125.68l-131.42 -79.77c-29.9,59.89 -87.31,64.71 -146.61,64.71 -79.73,0 -146.18,-23.85 -160.99,-158.09l324.85 0 102.26 0 52.31 0c6.49,-79.28 4.61,-205.2 -32.86,-273.4 -57.55,-104.72 -163.91,-138.51 -285.57,-138.51 -182.88,0 -331.15,67.45 -331.15,355.37 0,287.92 148.27,355.37 331.15,355.37z"/><path d="M6045.86 1416.16c-1.16,13.64 -4.15,31.56 -11.43,43.21 -2.1,3.35 -12.23,0.6 -22.81,3.79 -28.02,8.47 -62.24,24.92 -80.46,50.11 -7.47,10.33 -24.03,86.15 -25.35,101.1l-6.02 67.88c-0.2,2.28 -1.19,4.08 -2.45,5.58 -1.19,1.43 -3.03,2.88 -5.39,3.91 -4.04,1.76 -43.8,1.82 -47.31,0 -2,-1.03 -3.38,-2.48 -3.92,-3.91 -0.56,-1.5 -0.45,-3.32 -0.12,-5.58l39.72 -269.88c0.29,-1.95 1.03,-3.61 2.21,-5.31 1.14,-1.64 2.98,-2.98 5.39,-4.04 2.37,-1.04 5.27,-1.94 8.83,-2.37 12.27,-1.49 19.99,-1.95 31.57,-0.47 3.18,0.41 5.61,1.31 7.48,2.37 1.8,1.03 2.94,2.38 3.43,4.05 0.48,1.67 0.65,3.36 0.37,5.3l-7.86 53.03c18.37,-19.24 26.01,-30.86 55.43,-50.1 19.22,-12.57 35.73,-16.72 53.47,-12.52 6.17,1.46 5.77,7.29 5.22,13.85zm-291.27 265.7c-0.7,3.89 -3.28,6.64 -7.16,8.19 -4.01,1.6 -10.57,2.45 -19.83,2.45 -4.36,0 -7.93,-0.23 -10.73,-0.7 -2.79,-0.47 -5.15,-1.05 -6.83,-1.87 -1.8,-0.82 -2.95,-1.86 -3.61,-3.04 -0.71,-1.27 -0.28,-2.84 -0.06,-5.03l2.27 -23.11c-4.89,-1.65 -12.98,5.66 -27.77,16.41 -12.25,8.89 -48.31,22.01 -77.13,21.55 -17.41,-0.28 -31.85,-3.16 -43.31,-9.59 -11.58,-6.43 -20.72,-14.84 -27.55,-25.36 -6.93,-10.52 -11.65,-22.33 -14.27,-35.65 -2.73,-13.21 -4.12,-26.77 -4.29,-40.68 -0.15,-12.86 0.85,-27.34 2.94,-43.48 2.09,-16.24 5.54,-23.6 10.44,-40.44 14.4,-49.43 45.17,-75.47 90.45,-98.37 15.17,-7.66 50.71,-11.68 70.02,-11.68 37.29,0 88.79,12.62 109.52,23.29 1.75,0.9 2.93,1.99 3.39,3.39 0.46,1.4 0.68,2.82 0.39,4.44l-46.88 259.28zm-17.2 -233.69c-16.89,-6.35 -47.7,-6.31 -72.52,-4.4 -39.88,3.08 -81.39,50.53 -88.61,110.37 -4.26,35.34 1.47,90.95 52.63,90.95 30.21,0 78.02,-19.72 81.29,-38.74l27.21 -158.18zm-380.01 -87.42c-7.11,-0.5 -14.85,-0.77 -23.1,-0.77l-60.43 0 -28.19 158.39 74.8 0c65.5,0 103.37,-18.38 116.23,-83.03 10.14,-50.99 -23.56,-70.67 -79.31,-74.59zm135.04 92.87c-20.98,96.66 -91.35,117.31 -176.91,117.31l-80.26 0 -18.7 111.67c-0.71,4.27 -3.76,5.54 -7.61,6.76 -11.84,3.77 -38.31,4.76 -49.89,0.38 -4.39,-1.65 -7.33,-2.44 -6.49,-7.14l62.5 -347.62c1.79,-9.95 3.33,-19.56 9.55,-23.75 6.22,-4.18 16.23,-3.8 24.48,-3.8l94.96 0c100.85,0 172.51,35.01 148.37,146.19z"/></g></g></g></svg>