<svg xmlns="http://www.w3.org/2000/svg" fill-rule="evenodd" clip-rule="evenodd" image-rendering="optimizeQuality" shape-rendering="geometricPrecision" text-rendering="geometricPrecision" viewBox="-7.130000114440918 0.5299999713897705 6600 3300"><defs><linearGradient id="a" x1="1159.3" x2="491.04" y1="1648.72" y2="1648.72" gradientUnits="userSpaceOnUse"><stop offset="0" stop-color="#003ea5"/><stop offset="0.619608" stop-color="#114bab"/><stop offset="0.815686" stop-color="#092669"/><stop offset="1" stop-color="#000126"/></linearGradient></defs><g><rect width="6600" height="3300" x="-7.13" y="0.53" fill="none"/><g><path fill="url(#a)" d="M491.05 1288.96l11.49 -0.06c-9.1,24.85 -19.89,13.98 22.58,56.27l136.93 140.28 1.61 -30.91c34.32,-3.32 92.49,-1.57 128.34,-0.33 95.22,3.3 194.17,83.86 194.15,193.67 -0.03,112.26 -95.15,188.86 -191.96,195.1 -34.43,2.21 -96.37,2.97 -130.24,0.13l-0.84 -25.93 -163.02 163.23c-9.58,9.86 -13.47,22.83 1.35,30.42 85.48,1.02 171.57,0.05 257.12,0.06 83.25,0.01 146.36,-12.12 208.6,-47 265.75,-148.94 249.32,-499.92 -9.05,-630.13 -65.38,-32.96 -118.28,-46.61 -206.69,-46.6 -32.54,0 -247.18,-3.23 -260.37,1.8z"/><path fill="#b9112b" d="M501.44 2010.83c-14.82,-7.59 -10.93,-20.56 -1.35,-30.42l163.02 -163.23c6.5,-12.78 147.14,-155.44 152.21,-166.92 -6.7,-11.33 -98.36,-108.01 -113.94,-123.88 -14.52,-14.79 -23.15,-27.96 -39.33,-40.93l-136.93 -140.28c-42.47,-42.29 -31.68,-31.42 -22.58,-56.27l-11.49 0.06c-26.67,6.9 -17.59,22.57 -11.44,42.12 4.68,14.86 9.87,31.91 15.03,46.89l60.43 187.64c6.53,19.26 30.3,77.85 25.49,94.56 -9.01,31.32 -19.89,61.72 -30.46,93.69l-60.46 187.06c-4.62,15.65 -11.06,30.74 -15.33,46.79 -7.7,28.98 24.78,31.27 27.13,23.12z"/><path fill="#0542a7" d="M1357.96 1300.16l0 697.12 -162.34 0 0 -587.57c0,-60.26 49.29,-109.55 109.54,-109.55l52.8 0zm3759.01 600.64l278.52 0 31.69 96.48 168.69 0 -224.14 -697.12c-43.77,0 -87.55,0 -131.32,0 -60.25,0 -124.01,49.29 -141.69,109.55l-172.4 587.57 162.34 0 28.31 -96.48zm143.37 -411.38c-3.62,-11.11 -19.54,-10.7 -22.66,0l-74.72 254.67 181.04 0 -83.66 -254.67zm-1443.29 511.93c196.24,0 355.33,-157.88 355.33,-352.64 0,-194.75 -159.09,-352.62 -355.33,-352.62 -196.25,0 -355.34,157.87 -355.34,352.62 0,194.76 159.09,352.64 355.34,352.64zm0 -151.4c111.98,0 202.77,-90.09 202.77,-201.24 0,-111.13 -90.79,-201.22 -202.77,-201.22 -111.99,0 -202.77,90.09 -202.77,201.22 0,111.15 90.78,201.24 202.77,201.24zm-901.66 151.4c126.49,0 238.45,-58.09 306.98,-147.26l-129.8 -90.83c-38.91,52.38 -103.75,86.69 -177.18,86.69 -119.03,0 -215.51,-90.09 -215.51,-201.24 0,-111.13 96.48,-201.22 215.51,-201.22 73.44,0 138.29,34.31 177.19,86.69l129.8 -90.83c-68.53,-89.16 -180.49,-147.26 -306.99,-147.26 -208.58,0 -377.65,157.87 -377.65,352.62 0,194.76 169.07,352.64 377.65,352.64zm2865.43 -701.19l0 537.52 331.92 0 0 159.6 -331.92 0 -30.41 0 -131.94 0 0 -587.57c0,-60.26 49.3,-109.55 109.55,-109.55l52.8 0zm-892.42 -0.95l0 698.07 -142.6 0c-18.45,0 -42.27,-14.96 -53.31,-29.73l-313.41 -418.96 0 448.69 -162.34 0 0 -587.57c0,-60.26 49.29,-109.55 109.54,-109.55l52.8 0c7.24,0 15.26,3.56 19.61,9.33l327.37 435.71 0 -445.24c54.59,-0.15 108.72,-0.4 162.34,-0.75zm-1475.73 0.95l0 697.12 -162.34 0 0 -587.57c0,-60.26 49.29,-109.55 109.54,-109.55l52.8 0zm-1229.78 539.07l0 -115.38 285.87 0 0 -150.26 -285.87 0 0 -115.37 344.65 0 0 -158.06 -344.65 0 -31.41 0 -21.39 0c-60.25,0 -109.54,49.29 -109.54,109.55l0 212.59 0 52.84 0 212.6c0,60.25 49.29,109.54 109.54,109.54l21.39 0 31.41 0 344.65 0 0 -158.05 -344.65 0zm-624.68 -399.94l0 265.63 129.5 0c75.5,0 136.7,-59.09 136.7,-132.57 0,-73.49 -61.2,-133.06 -136.7,-133.06l-129.5 0zm251.11 389.85l190.5 168.14 -207.76 0 -178.24 -153.24 -55.61 0 0 153.24 -162.35 0 0 -587.57c0,-60.26 49.29,-109.55 109.54,-109.55l19.22 0 33.59 0 129.5 0c157.57,0 285.31,124.34 285.31,277.71 0,111.04 -66.95,206.83 -163.7,251.27z"/></g></g></svg>