<svg xmlns="http://www.w3.org/2000/svg" fill-rule="evenodd" clip-rule="evenodd" image-rendering="optimizeQuality" shape-rendering="geometricPrecision" text-rendering="geometricPrecision" viewBox="-7.139999866485596 0.5299999713897705 6600 3300"><g><rect width="6600" height="3300" x="-7.14" y="0.53" fill="none"/><g><path fill="#373435" d="M1080.16 2777.66l0 106.24 0.27 5.13 0 6.96c0.74,4.85 5.77,7.23 15.11,7.23l22.9 0.55 8.7 -0.27 31.41 -0.55c16.31,0 28.12,-2.47 35.54,-7.42 7.51,-4.94 12.18,-13.37 14.1,-25.37 0.73,-4.3 2.66,-6.5 5.68,-6.5 3.48,0 5.13,2.75 4.77,8.34l-1.38 26.46c-0.18,3.39 -0.28,8.8 -0.28,16.31 0,20.87 0.37,34.25 1.1,39.93 0.37,3.39 0.56,5.86 0.56,7.51 0,4.3 -1.66,6.41 -5.04,6.41 -3.58,0 -6.41,-4.4 -8.34,-13.19 -2.11,-9.53 -4.4,-16.03 -6.96,-19.42 -2.47,-3.48 -6.59,-5.86 -12.45,-7.32 -11.91,-3.03 -29.4,-4.58 -52.48,-4.58 -21.25,0 -35.08,0.45 -41.4,1.37 -6.23,0.92 -9.8,2.93 -10.44,6.23 -0.91,3.38 -1.37,8.79 -1.37,16.21l0 100.28c0,14.29 3.75,25.64 11.26,34.07 7.6,8.52 17.68,12.73 30.41,12.73 6.13,0 9.25,1.74 9.43,5.13 0.37,3.94 -2.29,5.86 -8.06,5.86 -3.93,0 -9.43,-0.36 -16.39,-1.19 -5.86,-0.82 -14.66,-1.28 -26.29,-1.28l-18.5 -0.27 -20.7 0.36c-4.48,0 -10.53,0.46 -18.22,1.37 -6.32,0.46 -10.9,0.74 -13.74,1.01 -5.22,0.19 -7.78,-1.46 -7.78,-4.85 0,-2.84 2.75,-4.85 8.24,-6.14 11.26,-2.47 18.96,-7.32 22.99,-14.56 4.12,-7.14 6.13,-19.51 6.13,-37.09l0 -242.7c0,-17.04 -2.74,-30.13 -8.24,-39.29 -3.57,-6.04 -7.51,-10.26 -11.81,-12.36 -4.22,-2.2 -11.63,-3.67 -22.17,-4.58 -4.3,-0.37 -6.5,-1.92 -6.68,-4.76 -0.37,-4.49 3.21,-6.78 10.72,-6.78 2.28,0 7.87,0.45 16.57,1.37 15.94,1.65 42.77,2.47 80.69,2.47 33.7,0 55.4,-0.27 65.02,-0.82l37.27 -1.83c16.03,-0.64 26.38,-1.47 31.06,-2.38 3.38,-0.64 6.31,-1.01 8.88,-1.01 3.93,0 5.86,2.02 5.86,6.14 0,2.19 -0.46,5.12 -1.38,8.88 -3.11,11.72 -4.67,27.29 -4.67,46.8 0,8.24 -2.47,12.36 -7.32,12.36 -2.84,0 -4.4,-2.19 -4.76,-6.68 -0.55,-5.5 -1.47,-11.18 -2.94,-16.86 -2.28,-9.06 -5.22,-14.92 -8.61,-17.49 -3.47,-2.65 -11.17,-4.48 -22.98,-5.49l-31.42 -3.21c-9.89,-0.91 -22.52,-1.37 -37.73,-1.37 -19.87,0 -32.15,1.28 -37,3.85 -4.76,2.65 -7.14,9.34 -7.14,20.05zm249.75 -10.16c4.3,0 8.79,3.57 13.28,10.81l6.5 10.16c1.84,2.57 2.75,4.85 2.75,6.78 0.18,4.12 -2.93,9.89 -9.25,17.21 -6.32,7.42 -11.36,11.09 -15.2,11.09 -3.58,0 -8.43,-3.58 -14.38,-10.81 -5.95,-7.14 -8.98,-12.82 -8.98,-16.95 0,-4.12 3.3,-9.88 9.89,-17.21 6.6,-7.42 11.73,-11.08 15.39,-11.08zm17.03 292.33c0,12.64 1.38,21.16 4.13,25.46 2.83,4.31 8.7,7.15 17.58,8.34l12.37 1.37c6.4,0.83 9.52,3.02 9.34,6.69 -0.19,2.84 -2.57,4.3 -7.33,4.3 -3.02,0 -8.89,-0.46 -17.49,-1.28 -4.86,-0.36 -11.17,-0.64 -18.87,-0.64l-17.31 -0.27 -19.69 0.91c-3.57,0.09 -6.41,0.37 -8.33,0.64 -4.68,0.46 -7.97,0.64 -9.71,0.64 -4.86,0 -7.33,-1.64 -7.33,-5.03 0,-2.84 1.65,-4.86 4.85,-5.96l5.13 -1.65c5.68,-1.92 9.71,-5.31 11.91,-10.07 2.29,-4.85 3.39,-12.55 3.39,-23.26l0 -116.32c0,-14.83 -1.47,-24.45 -4.31,-28.85 -2.83,-4.48 -8.97,-6.68 -18.5,-6.68 -6.77,0 -10.07,-1.37 -9.89,-4.21 0.19,-2.47 4.76,-5.04 13.83,-7.88 10.17,-3.39 22.99,-9.06 38.56,-17.03l14.38 -6.6c2.2,0.19 3.29,2.29 3.29,6.41l0 180.97zm144.34 -138.47c24,-28.58 48.82,-42.86 74.55,-42.86 28.67,0 51.29,11.72 67.96,35.17 11.35,16.02 17.12,40.57 17.12,73.45l0 64.11 -0.27 8.05 0.82 12.83c1.93,11.81 9.53,18.68 22.63,20.69l11.35 1.56c4.85,0.73 7.33,2.48 7.51,5.32 0.18,3.84 -2.75,5.76 -8.88,5.76 -1.92,0 -5.41,-0.27 -10.44,-0.91 -5.87,-0.83 -16.77,-1.28 -32.7,-1.28l-26.56 0.64 -10.25 0 -7.7 0.46 -3.75 -0.83c-1.28,-0.73 -1.93,-2.2 -1.93,-4.3 0,-2.75 1.65,-4.58 4.86,-5.32l8.06 -2.1c7.14,-1.84 10.71,-8.24 10.71,-19.24l0 -92.04c0,-24.63 -5.68,-43.77 -17.13,-57.15 -11.44,-13.46 -27.75,-20.15 -48.81,-20.15 -14.83,0 -28.02,4.4 -39.56,13.19 -11.54,8.79 -17.31,18.87 -17.31,30.23l0 101.84 0.27 8.06 0.28 13.28c0.91,15.02 13.27,23.17 37.09,24.63 5.86,0.55 8.79,2.57 8.79,5.96 0,3.39 -2.02,5.03 -6.14,5.03 -3.02,0 -7.6,-0.55 -13.74,-1.55 -3.38,-0.46 -11.72,-0.64 -25.18,-0.64 -28.39,0 -45.43,0.45 -50.92,1.28 -5.59,0.64 -9.16,0.91 -10.72,0.91 -3.39,0 -5.03,-1.46 -4.85,-4.48 0.18,-2.29 1.83,-4.12 5.04,-5.41 9.06,-3.2 15.2,-7.14 18.32,-11.72 3.11,-4.67 4.67,-12.09 4.67,-22.35l0 -120.52c0,-12.64 -1.56,-21.16 -4.59,-25.74 -3.02,-4.49 -8.79,-6.77 -17.21,-6.77l-11.54 0.27c-1.65,0 -3.12,-0.37 -4.4,-1.1 -1.56,-0.82 -2.38,-2.11 -2.38,-4.03 0,-2.56 2.29,-4.39 6.96,-5.31 12.09,-2.2 23.63,-5.86 34.71,-10.99l14.29 -7.05c5.59,-2.66 9.07,-4.4 10.44,-5.04 2.56,-1.46 4.67,-2.2 6.5,-2.2 3.21,0 4.67,2.57 4.31,7.79 -0.19,2.84 -0.28,6.23 -0.28,10.16l0 30.41zm354.61 63.74l0 -32.79c0,-20.24 -3.84,-34.25 -11.53,-42.03 -10.35,-10.53 -24.36,-15.85 -41.95,-15.85 -23.63,0 -35.44,9.8 -35.44,29.49 0,5.77 1.19,12.46 3.48,19.97 1.1,3.2 1.74,5.95 1.92,8.42 0.19,3.21 -1.56,4.77 -5.31,4.77 -8.43,0 -16.03,-1.75 -22.9,-5.32 -6.86,-3.57 -10.25,-7.5 -10.25,-11.72 0,-10.99 6.04,-22.89 18.04,-35.72 16.12,-17.22 37.55,-25.82 64.29,-25.82 24.45,0 43.41,5.4 56.87,16.21 13.47,10.8 20.15,26.01 20.15,45.61l0 104.86c0,16.58 2.02,28.39 6.05,35.44 4.03,7.06 10.71,10.54 20.24,10.54 2.66,0 4.76,-0.19 6.41,-0.46 3.2,-0.83 5.31,-1.19 6.41,-1.19 3.02,-0.18 4.49,1.1 4.3,3.84 -0.18,3.21 -4.39,6.51 -12.73,9.9 -8.24,3.29 -16.3,4.94 -24.27,4.94 -14.74,0 -28.11,-9.16 -39.93,-27.47 -25.92,19.78 -49.91,29.67 -72.07,29.67 -16.76,0 -30.13,-4.49 -40.02,-13.55 -9.9,-9.07 -14.84,-21.25 -14.84,-36.46 0,-20.6 9.34,-36.63 28.11,-47.99 18.69,-11.35 50.37,-20.51 94.97,-27.29zm0 10.99c-27.65,2.48 -49.08,8.7 -64.19,18.78 -15.12,10.07 -22.63,22.89 -22.63,38.55 0,12.18 3.57,21.98 10.81,29.13 7.15,7.23 16.85,10.8 29.12,10.8 14.93,0 27.48,-4.94 37.55,-14.74 6.23,-6.23 9.34,-16.21 9.34,-29.76l0 -52.76zm180.43 -74.73c23.99,-28.58 48.82,-42.86 74.55,-42.86 28.66,0 51.29,11.72 67.96,35.17 11.35,16.02 17.12,40.57 17.12,73.45l0 64.11 -0.27 8.05 0.82 12.83c1.92,11.81 9.53,18.68 22.62,20.69l11.36 1.56c4.85,0.73 7.32,2.48 7.51,5.32 0.18,3.84 -2.75,5.76 -8.88,5.76 -1.93,0 -5.41,-0.27 -10.45,-0.91 -5.86,-0.83 -16.76,-1.28 -32.69,-1.28l-26.56 0.64 -10.26 0 -7.69 0.46 -3.76 -0.83c-1.28,-0.73 -1.92,-2.2 -1.92,-4.3 0,-2.75 1.65,-4.58 4.86,-5.32l8.06 -2.1c7.14,-1.84 10.71,-8.24 10.71,-19.24l0 -92.04c0,-24.63 -5.68,-43.77 -17.13,-57.15 -11.44,-13.46 -27.75,-20.15 -48.81,-20.15 -14.84,0 -28.02,4.4 -39.57,13.19 -11.53,8.79 -17.31,18.87 -17.31,30.23l0 101.84 0.28 8.06 0.27 13.28c0.92,15.02 13.28,23.17 37.1,24.63 5.86,0.55 8.79,2.57 8.79,5.96 0,3.39 -2.02,5.03 -6.14,5.03 -3.02,0 -7.6,-0.55 -13.74,-1.55 -3.38,-0.46 -11.72,-0.64 -25.18,-0.64 -28.39,0 -45.43,0.45 -50.92,1.28 -5.59,0.64 -9.16,0.91 -10.72,0.91 -3.39,0 -5.03,-1.46 -4.85,-4.48 0.18,-2.29 1.83,-4.12 5.04,-5.41 9.06,-3.2 15.2,-7.14 18.31,-11.72 3.12,-4.67 4.67,-12.09 4.67,-22.35l0 -120.52c0,-12.64 -1.55,-21.16 -4.58,-25.74 -3.02,-4.49 -8.79,-6.77 -17.21,-6.77l-11.54 0.27c-1.65,0 -3.12,-0.37 -4.4,-1.1 -1.56,-0.82 -2.38,-2.11 -2.38,-4.03 0,-2.56 2.29,-4.39 6.96,-5.31 12.09,-2.2 23.63,-5.86 34.71,-10.99l14.29 -7.05c5.58,-2.66 9.06,-4.4 10.44,-5.04 2.56,-1.46 4.67,-2.2 6.5,-2.2 3.2,0 4.67,2.57 4.3,7.79 -0.18,2.84 -0.27,6.23 -0.27,10.16l0 30.41zm303.32 -42.86c14.2,0 26.38,1.83 36.64,5.49l11.82 3.94c4.85,1.74 7.23,4.49 7.23,8.15l0 4.31c0,2.56 0.18,5.03 0.46,7.6l1 10.44c0.46,3.85 0.74,7.23 0.74,10.26 0,7.05 -2.02,10.62 -6.05,10.8 -2.19,0.19 -4.21,-2.1 -6.04,-6.96 -9.89,-27.2 -28.39,-40.84 -55.41,-40.84 -10.81,0 -19.6,3.02 -26.56,9.15 -6.87,6.14 -10.35,13.83 -10.35,23.17 0,9.8 3.75,17.86 11.26,23.91 7.51,6.13 22.54,13.55 45.07,22.35 22.43,8.69 37.91,17.95 46.61,27.65 8.7,9.71 13.01,22.81 13.01,39.2 0,20.15 -7.42,37.37 -22.35,51.75 -14.93,14.38 -32.79,21.52 -53.58,21.52 -14.83,0 -30.86,-4.21 -48.26,-12.73 -4.12,-1.92 -6.69,-2.93 -7.79,-2.93l-6.96 -0.83c-4.12,-0.36 -6.31,-2.56 -6.68,-6.68l-0.28 -11.45 -0.82 -33.98 0.55 -8.06c0.73,-4.76 2.75,-7.23 6.04,-7.41 3.3,-0.19 5.5,2.47 6.6,8.05 3.75,19.7 11.08,35.08 21.88,46.16 10.81,11.09 23.82,16.67 39.02,16.67 13.1,0 23.81,-3.85 32.15,-11.63 8.33,-7.69 12.45,-17.58 12.45,-29.58 0,-18.32 -10.16,-31.97 -30.5,-40.94l-23.62 -10.53c-21.53,-9.25 -36.73,-18.87 -45.62,-28.76 -8.97,-9.89 -13.46,-21.98 -13.46,-36.27 0,-17.13 6.87,-31.6 20.7,-43.32 13.83,-11.81 30.87,-17.67 51.1,-17.67zm168.24 -111c4.31,0 8.8,3.57 13.28,10.81l6.51 10.16c1.83,2.57 2.75,4.85 2.75,6.78 0.18,4.12 -2.94,9.89 -9.26,17.21 -6.31,7.42 -11.35,11.09 -15.2,11.09 -3.57,0 -8.43,-3.58 -14.38,-10.81 -5.95,-7.14 -8.97,-12.82 -8.97,-16.95 0,-4.12 3.29,-9.88 9.89,-17.21 6.59,-7.42 11.72,-11.08 15.38,-11.08zm17.04 292.33c0,12.64 1.37,21.16 4.12,25.46 2.84,4.31 8.7,7.15 17.58,8.34l12.37 1.37c6.41,0.83 9.53,3.02 9.34,6.69 -0.18,2.84 -2.57,4.3 -7.32,4.3 -3.03,0 -8.89,-0.46 -17.5,-1.28 -4.85,-0.36 -11.17,-0.64 -18.86,-0.64l-17.31 -0.27 -19.69 0.91c-3.58,0.09 -6.42,0.37 -8.34,0.64 -4.67,0.46 -7.97,0.64 -9.71,0.64 -4.85,0 -7.33,-1.64 -7.33,-5.03 0,-2.84 1.65,-4.86 4.86,-5.96l5.13 -1.65c5.68,-1.92 9.71,-5.31 11.91,-10.07 2.28,-4.85 3.38,-12.55 3.38,-23.26l0 -116.32c0,-14.83 -1.46,-24.45 -4.3,-28.85 -2.84,-4.48 -8.98,-6.68 -18.5,-6.68 -6.78,0 -10.07,-1.37 -9.89,-4.21 0.18,-2.47 4.76,-5.04 13.83,-7.88 10.16,-3.39 22.98,-9.06 38.55,-17.03l14.38 -6.6c2.2,0.19 3.3,2.29 3.3,6.41l0 180.97zm144.33 -138.47c24,-28.58 48.82,-42.86 74.56,-42.86 28.66,0 51.28,11.72 67.95,35.17 11.36,16.02 17.13,40.57 17.13,73.45l0 64.11 -0.28 8.05 0.83 12.83c1.92,11.81 9.52,18.68 22.62,20.69l11.36 1.56c4.85,0.73 7.32,2.48 7.51,5.32 0.18,3.84 -2.75,5.76 -8.89,5.76 -1.92,0 -5.4,-0.27 -10.44,-0.91 -5.86,-0.83 -16.76,-1.28 -32.7,-1.28l-26.55 0.64 -10.26 0 -7.69 0.46 -3.76 -0.83c-1.28,-0.73 -1.92,-2.2 -1.92,-4.3 0,-2.75 1.65,-4.58 4.85,-5.32l8.06 -2.1c7.14,-1.84 10.72,-8.24 10.72,-19.24l0 -92.04c0,-24.63 -5.68,-43.77 -17.13,-57.15 -11.45,-13.46 -27.75,-20.15 -48.81,-20.15 -14.84,0 -28.03,4.4 -39.57,13.19 -11.54,8.79 -17.31,18.87 -17.31,30.23l0 101.84 0.28 8.06 0.27 13.28c0.92,15.02 13.28,23.17 37.09,24.63 5.86,0.55 8.79,2.57 8.79,5.96 0,3.39 -2.01,5.03 -6.13,5.03 -3.02,0 -7.6,-0.55 -13.74,-1.55 -3.39,-0.46 -11.72,-0.64 -25.18,-0.64 -28.4,0 -45.43,0.45 -50.93,1.28 -5.58,0.64 -9.15,0.91 -10.71,0.91 -3.39,0 -5.04,-1.46 -4.86,-4.48 0.19,-2.29 1.84,-4.12 5.04,-5.41 9.07,-3.2 15.2,-7.14 18.32,-11.72 3.11,-4.67 4.67,-12.09 4.67,-22.35l0 -120.52c0,-12.64 -1.56,-21.16 -4.58,-25.74 -3.02,-4.49 -8.79,-6.77 -17.22,-6.77l-11.54 0.27c-1.65,0 -3.11,-0.37 -4.39,-1.1 -1.56,-0.82 -2.38,-2.11 -2.38,-4.03 0,-2.56 2.29,-4.39 6.96,-5.31 12.08,-2.2 23.63,-5.86 34.71,-10.99l14.28 -7.05c5.59,-2.66 9.07,-4.4 10.45,-5.04 2.56,-1.46 4.67,-2.2 6.5,-2.2 3.2,0 4.67,2.57 4.3,7.79 -0.18,2.84 -0.28,6.23 -0.28,10.16l0 30.41zm348.67 -42.86c32.24,0 59.8,11.26 82.88,33.88 23.08,22.53 34.62,49.46 34.62,80.69 0,33.98 -11.35,62 -34.07,84.07 -22.71,22.17 -51.38,33.25 -86.09,33.25 -33.98,0 -61.91,-10.71 -83.8,-32.24 -21.89,-21.52 -32.88,-49.09 -32.88,-82.61 0,-32.51 11.63,-60.17 34.9,-82.88 23.26,-22.8 51.37,-34.16 84.44,-34.16zm-6.78 10.99c-22.44,0 -40.39,8.24 -54.12,24.82 -13.65,16.48 -20.52,38.19 -20.52,65.02 0,34.07 8.52,62.64 25.64,85.63 17.04,22.99 38.28,34.44 63.74,34.44 22.17,0 39.66,-8.15 52.49,-24.36 12.73,-16.3 19.13,-38.37 19.13,-66.22 0,-35.26 -8.05,-63.92 -24.17,-86.09 -16.12,-22.16 -36.82,-33.24 -62.19,-33.24zm238.58 -10.99c14.19,0 26.37,1.83 36.63,5.49l11.82 3.94c4.85,1.74 7.23,4.49 7.23,8.15l0 4.31c0,2.56 0.19,5.03 0.46,7.6l1.01 10.44c0.45,3.85 0.73,7.23 0.73,10.26 0,7.05 -2.01,10.62 -6.05,10.8 -2.19,0.19 -4.21,-2.1 -6.04,-6.96 -9.89,-27.2 -28.39,-40.84 -55.41,-40.84 -10.8,0 -19.6,3.02 -26.56,9.15 -6.87,6.14 -10.35,13.83 -10.35,23.17 0,9.8 3.76,17.86 11.27,23.91 7.51,6.13 22.53,13.55 45.06,22.35 22.44,8.69 37.91,17.95 46.62,27.65 8.69,9.71 13,22.81 13,39.2 0,20.15 -7.42,37.37 -22.35,51.75 -14.93,14.38 -32.78,21.52 -53.58,21.52 -14.83,0 -30.86,-4.21 -48.26,-12.73 -4.12,-1.92 -6.69,-2.93 -7.79,-2.93l-6.96 -0.83c-4.12,-0.36 -6.31,-2.56 -6.68,-6.68l-0.27 -11.45 -0.83 -33.98 0.55 -8.06c0.73,-4.76 2.75,-7.23 6.05,-7.41 3.29,-0.19 5.49,2.47 6.59,8.05 3.76,19.7 11.08,35.08 21.89,46.16 10.8,11.09 23.81,16.67 39.01,16.67 13.1,0 23.82,-3.85 32.15,-11.63 8.33,-7.69 12.46,-17.58 12.46,-29.58 0,-18.32 -10.17,-31.97 -30.5,-40.94l-23.63 -10.53c-21.53,-9.25 -36.73,-18.87 -45.61,-28.76 -8.97,-9.89 -13.46,-21.98 -13.46,-36.27 0,-17.13 6.87,-31.6 20.69,-43.32 13.83,-11.81 30.87,-17.67 51.11,-17.67zm353.99 -148.92c19.14,0 35.36,2.84 48.64,8.52l18.59 7.78c1.65,0.74 3.2,1.1 4.85,1.1 2.11,0 4.21,-0.91 6.41,-2.65l3.67 -3.21c0.54,-0.73 1.55,-1.1 2.92,-1.1 4.49,-0.18 6.69,4.21 6.69,13.19 0,3.02 1.19,12.09 3.58,27.11l4.39 27.75c0.91,5.86 1.37,9.52 1.37,10.99 0,5.58 -1.92,8.33 -5.86,8.33 -3.02,0 -5.95,-4.3 -8.97,-13 -6.42,-19.51 -19.51,-35.63 -39.29,-48.27 -19.69,-12.64 -41.77,-18.95 -66.03,-18.95 -19.24,0 -35.36,5.67 -48.36,17.12 -12.92,11.36 -19.42,25.55 -19.42,42.59 0,15.11 4.22,28.11 12.64,39.01 7.33,9.34 15.29,16.22 24,20.52 8.69,4.3 30.04,12.09 64.01,23.35 66.22,21.71 99.37,57.15 99.37,106.61 0,33.42 -12.18,60.81 -36.63,82.06 -24.36,21.33 -55.68,31.96 -93.97,31.96 -13.74,0 -28.94,-2.02 -45.61,-5.96 -16.57,-4.02 -28.75,-8.6 -36.45,-13.82 -3.2,-2.11 -5.31,-4.4 -6.41,-6.78 -1.01,-2.47 -2.65,-8.61 -4.76,-18.68 -0.37,-1.38 -2.56,-9.53 -6.68,-24.27 -4.59,-16.12 -6.88,-27.48 -6.88,-34.26 0,-5.4 1.84,-7.97 5.5,-7.78 3.3,0.18 6.23,4.58 8.79,13.19 6.41,22.25 19.97,40.94 40.66,55.96 20.7,15.11 43.23,22.62 67.5,22.62 24.55,0 45.43,-7.24 62.46,-21.8 17.04,-14.47 25.56,-32.14 25.56,-52.93 0,-19.97 -7.88,-36.73 -23.54,-50.38 -8.06,-6.96 -31.32,-16.94 -69.7,-29.86 -39.65,-13.36 -67.68,-28.2 -84.16,-44.5 -16.58,-16.31 -24.82,-37.37 -24.82,-63.38 0,-28.94 10.81,-52.57 32.42,-70.8 21.61,-18.22 49.46,-27.38 83.52,-27.38zm314.94 -20.86l-149.79 471.64c-2.26,6.87 -5.01,10.64 -8.23,11.34 -10.21,2.2 -15.53,1.85 -15.95,-0.97 -0.19,-1.73 0.08,-3.95 0.76,-6.44l7.57 -23.55 147.89 -465.24c1.6,-4.75 3.68,-7.26 6.23,-7.63 10.93,-1.42 16.63,-1.06 17.14,1.27 0.25,1.16 -0.46,4.41 -2.09,9.45l-3.53 10.13zm240.38 254.4l-97.08 0c-13.19,0 -21.43,1.1 -24.64,3.21 -3.2,2.1 -7.51,9.25 -12.91,21.43l-17.77 39.29c-7.97,18.04 -12,31.41 -12,40.11 0,8.43 2.11,14.47 6.32,18.23 4.22,3.75 12.55,6.96 24.91,9.61 5.41,1.1 8.15,3.21 8.34,6.41 0.18,3.02 -2.29,4.58 -7.51,4.58 -1.93,0 -4.95,-0.09 -9.07,-0.27l-25.64 -1.37c-8.52,-0.37 -18.41,-0.55 -29.68,-0.55 -5.12,0 -9.16,0.18 -12,0.45 -9.06,1.19 -14.01,1.74 -14.92,1.74 -4.86,0 -7.24,-1.64 -7.24,-5.03 0,-3.03 1.56,-5.04 4.58,-5.96l9.89 -2.93c3.57,-1.1 8.43,-5.4 14.47,-13 6.05,-7.6 11.08,-15.57 15.02,-23.72l7.79 -17.77 137.83 -305.98c2.29,-5.41 4.86,-8.06 7.7,-8.06 2.83,0 5.22,2.56 7.14,7.78l115.58 295.18 5.86 14.56c8.43,21.61 15.39,35.08 20.88,40.39 5.5,5.22 16.76,9.43 33.71,12.45 5.58,1.01 8.24,3.21 8.06,6.51 -0.19,3.02 -2.66,4.48 -7.51,4.48 -1.56,0 -5.04,-0.18 -10.17,-0.46 -9.25,-0.82 -25.83,-1.18 -49.55,-1.18 -24.82,0 -40.39,0.55 -46.61,1.64 -3.76,0.74 -6.51,1.1 -8.34,1.1 -4.67,0 -6.96,-1.92 -6.96,-5.77 0,-2.93 2.29,-4.85 6.78,-5.77l8.33 -1.92c8.98,-1.74 13.46,-7.79 13.46,-18.14 0,-9.52 -5.49,-28.38 -16.48,-56.59l-13.46 -35.35c-3.76,-9.89 -6.69,-15.57 -8.89,-17.04 -2.11,-1.56 -8.15,-2.29 -18.22,-2.29zm3.2 -43.5l-42.04 -105.78 -2.19 -5.68c-2.11,-5.68 -4.49,-8.61 -6.96,-8.79 -1.29,-0.19 -2.66,1.46 -4.31,5.03l-52.29 115.77c-2.29,5.03 -3.48,8.33 -3.48,9.89 0,4.67 4.12,6.96 12.36,6.96l7.24 0.28 80.96 0c8.97,0 13.46,-2.21 13.46,-6.69 0,-1.28 -0.46,-3.3 -1.37,-6.14l-1.38 -4.85zm443.78 39.57c2.63,0 4.01,3.42 4.01,10.2 0,7.77 -0.87,12.32 -2.63,13.77 -1.64,1.38 -8.54,3.15 -20.59,5.2 -16.96,2.96 -31.15,5.59 -42.7,7.77 -27.25,5.2 -44.83,8.3 -53,9.35 -6.9,1.05 -11.68,2.04 -14.31,2.9 -3.01,1.05 -5.28,1.64 -7.03,1.77 -3.4,0.27 -5.15,-1.91 -5.15,-6.45 0,-9.15 1.37,-14.75 4.27,-16.86 2.76,-2.1 12.18,-4.47 28.13,-7.11 5.9,-0.92 18.96,-3.36 39.43,-7.31 8.03,-1.58 21.35,-4.01 39.68,-7.31 12.8,-2.37 21.23,-4.08 25.49,-5.13l4.4 -0.79zm495.04 -191.33l8.03 64.48 0.77 6.69 -0.77 2.74c-0.78,1.56 -2.07,2.48 -3.72,2.66 -1.98,0.18 -5,-3.57 -8.97,-11.27 -31.59,-58.43 -74.49,-87.65 -128.52,-87.65 -43.16,0 -77.09,14.02 -101.94,42.04 -24.87,28.12 -37.29,66.4 -37.29,115.04 0,55.86 13.81,101.56 41.51,137 27.63,35.45 63.19,53.21 106.6,53.21 25.38,0 50.33,-7.14 74.84,-21.52 24.51,-14.29 41.52,-31.69 51.01,-52.11 4.32,-9.52 7.69,-14.38 10.02,-14.56 2.67,-0.18 3.97,1.55 3.97,5.13l-0.26 3.02 -1.04 5.95 -5.96 32.98 -1.03 4.85c-0.69,4.67 -4.66,9.43 -11.91,14.47 -38.93,26.28 -81.83,39.38 -128.7,39.38 -54.21,0 -97.97,-17.13 -131.2,-51.29 -33.23,-34.16 -49.8,-79.13 -49.8,-134.99 0,-55.78 17.17,-102.12 51.62,-139.12 34.35,-36.91 77.51,-55.41 129.38,-55.41 35.57,0 68.28,8.52 98.15,25.46l10.09 5.68 4.06 1.83 4.32 1.65c0.77,0 2.07,-0.73 3.79,-2.11 3.71,-3.02 6.22,-4.48 7.6,-4.48 2.76,0 4.49,3.38 5.35,10.25zm144.74 9.8l0 106.24 0.27 5.13 0 6.96c0.7,4.85 5.55,7.23 14.54,7.23l22.04 0.55 8.37 -0.27 30.24 -0.55c15.69,0 27.06,-2.47 34.2,-7.42 7.23,-4.94 11.73,-13.37 13.58,-25.37 0.7,-4.3 2.55,-6.5 5.46,-6.5 3.35,0 4.94,2.75 4.59,8.34l-1.33 26.46c-0.17,3.39 -0.26,8.8 -0.26,16.31 0,20.87 0.35,34.25 1.06,39.93 0.35,3.39 0.53,5.86 0.53,7.51 0,4.3 -1.59,6.41 -4.86,6.41 -3.43,0 -6.16,-4.4 -8.01,-13.19 -2.03,-9.53 -4.24,-16.03 -6.7,-19.42 -2.38,-3.48 -6.35,-5.86 -11.99,-7.32 -11.46,-3.03 -28.3,-4.58 -50.51,-4.58 -20.45,0 -33.76,0.45 -39.84,1.37 -6,0.92 -9.44,2.93 -10.05,6.23 -0.88,3.38 -1.33,8.79 -1.33,16.21l0 100.28c0,14.29 3.62,25.64 10.84,34.07 7.33,8.52 17.02,12.73 29.27,12.73 5.91,0 8.91,1.74 9.08,5.13 0.35,3.94 -2.2,5.86 -7.76,5.86 -3.78,0 -9.08,-0.36 -15.78,-1.19 -5.64,-0.82 -14.1,-1.28 -25.29,-1.28l-17.81 -0.27 -19.92 0.36c-4.32,0 -10.14,0.46 -17.54,1.37 -6.08,0.46 -10.49,0.74 -13.23,1.01 -5.02,0.19 -7.49,-1.46 -7.49,-4.85 0,-2.84 2.65,-4.85 7.93,-6.14 10.85,-2.47 18.25,-7.32 22.13,-14.56 3.97,-7.14 5.9,-19.51 5.9,-37.09l0 -242.7c0,-17.04 -2.64,-30.13 -7.93,-39.29 -3.43,-6.04 -7.22,-10.26 -11.37,-12.36 -4.05,-2.2 -11.19,-3.67 -21.33,-4.58 -4.14,-0.37 -6.26,-1.92 -6.44,-4.76 -0.35,-4.49 3.09,-6.78 10.32,-6.78 2.2,0 7.58,0.45 15.95,1.37 15.34,1.65 41.17,2.47 77.67,2.47 32.43,0 53.32,-0.27 62.58,-0.82l35.87 -1.83c15.43,-0.64 25.39,-1.47 29.89,-2.38 3.26,-0.64 6.08,-1.01 8.55,-1.01 3.79,0 5.64,2.02 5.64,6.14 0,2.19 -0.44,5.12 -1.32,8.88 -3,11.72 -4.5,27.29 -4.5,46.8 0,8.24 -2.38,12.36 -7.05,12.36 -2.73,0 -4.23,-2.19 -4.58,-6.68 -0.53,-5.5 -1.41,-11.18 -2.82,-16.86 -2.2,-9.06 -5.03,-14.92 -8.29,-17.49 -3.35,-2.65 -10.75,-4.48 -22.13,-5.49l-30.23 -3.21c-9.52,-0.91 -21.68,-1.37 -36.32,-1.37 -19.13,0 -30.94,1.28 -35.61,3.85 -4.58,2.65 -6.88,9.34 -6.88,20.05zm303.89 37.46l0 201.12c0,25.1 1.56,41.67 4.58,49.73 3.57,9.07 7.97,15.57 13.28,19.32 5.22,3.76 13.55,6.42 24.82,8.06 8.88,1.19 13.37,3.39 13.37,6.41 0,4.13 -2.75,6.23 -8.33,6.23 -2.66,0 -6.14,-0.27 -10.26,-0.91 -5.5,-0.83 -15.02,-1.19 -28.48,-1.19l-38.93 -0.64 -31.78 1.92c-5.22,0.55 -9.52,0.82 -12.91,0.82 -4.86,0 -7.24,-1.83 -7.24,-5.49 0,-3.12 2.75,-5.13 8.34,-6.05 13.64,-2.28 22.44,-7.05 26.37,-14.1 3.94,-7.05 5.96,-21.98 5.96,-44.69l0 -229.79c0,-22.16 -2.57,-37.09 -7.7,-44.79 -5.03,-7.69 -15.93,-12.91 -32.6,-15.57 -5.59,-1.09 -8.43,-3.11 -8.61,-6.31 -0.18,-3.85 2.38,-5.77 7.79,-5.77 1.46,0 3.02,0.09 4.85,0.27 13.1,1.65 30.41,2.47 52.11,2.47 13.19,0 24.55,-0.27 34.07,-0.91l18.04 -1.56c3.39,-0.18 5.59,-0.27 6.69,-0.27 4.85,0 7.24,1.65 7.24,5.03 0,3.12 -2.3,5.5 -6.97,7.05l-13.92 5.41c-13.19,4.94 -19.78,26.38 -19.78,64.2z"/><rect width="2772.06" height="2173.98" x="1767.63" y="107.91" fill="#373435"/><g><path fill="#fefefe" d="M3237.77 384.25l-168.22 0 -295.66 0c-26.58,0 -48.32,21.74 -48.32,48.32l0 0c0,26.59 21.74,48.33 48.32,48.33l214.29 0c44.11,0 43.93,64.92 14.05,88.78 -74.47,59.49 -176.16,144.36 -235.55,239.19 -41.88,66.89 -52.77,142.44 -55.23,221.29l-15.93 513.21c-1.34,43.11 -6.18,81.01 -14.96,114.31l946.2 0c-8.78,-33.3 -13.62,-71.2 -14.96,-114.31l-15.93 -513.21c-2.46,-78.85 -13.35,-154.4 -55.23,-221.29 -59.39,-94.83 -161.08,-179.7 -235.55,-239.19 -29.88,-23.86 -30.06,-88.78 14.05,-88.78l214.29 0c26.59,0 48.33,-21.74 48.33,-48.33l0 0c0,-26.58 -21.74,-48.32 -48.33,-48.32l-295.66 0zm-575.83 1325.29c-51.14,108.5 -163.75,154.27 -362.69,170.68 -68,5.61 -81.15,125.36 -36.31,125.33l890.72 -0.55 890.72 0.55c44.84,0.03 31.69,-119.72 -36.31,-125.33 -198.94,-16.41 -311.55,-62.18 -362.69,-170.68l-983.44 0z"/><path fill="#373435" fill-rule="nonzero" d="M3440.58 1248.4l-10.74 0c-20.18,-199.13 -44.13,-347.89 -88.05,-367.82 -56.35,-25.58 -167.55,-27.93 -167.55,18.2l0 453.26 22.71 0c99.34,0 108.53,-30.47 108.53,-106.53l17.39 0 0 250.53 -15.69 0c0,-76.8 -22.1,-120.71 -107.12,-120.71l-25.82 0 0 381.59c0,60.55 90.4,105.65 150.82,109.72l117.01 7.88 0 29.99 -699.15 0 0 -29.99 96.5 -4.13c59.18,-2.53 143.3,-54.24 143.3,-113.47l0 -841.34c0,-48.78 -85.14,-66.13 -127.72,-71.41l0 -17.1 585.58 0 0 421.33z"/></g></g></g></svg>