<svg  id="fndm-0ltavi9kdt" viewBox="0 0.8299980163574219 384.0701904296875 217.1699981689453" xmlns="http://www.w3.org/2000/svg">
   <g xmlns="http://www.w3.org/2000/svg" fill="none">
    <path d="m91.54,37.29l0,5.4c0,45.02 -0.08,90.05 0.13,135.07c0.02,4.78 -1.29,6.11 -5.82,5.6c-3.49,-0.4 -7.1,-0.4 -10.59,0c-4.2,0.48 -5.89,-0.92 -4.86,-5.61c-12.28,6.16 -24.64,7.31 -37.22,3.06c-9.86,-3.33 -18.04,-9.2 -23.93,-17.93c-11.41,-16.91 -12.31,-39.59 2.9,-57.74c10.78,-12.86 32.03,-23.38 58.11,-11.54c0,-14.36 0.21,-28.31 -0.13,-42.26c-0.1,-4.27 1.29,-6.32 5.13,-7.65c5.32,-1.84 10.5,-4.11 16.28,-6.4zm-22.06,83.57c-3.41,-7.27 -16.88,-12.83 -24.92,-11.12c-12.93,2.75 -21.7,12.55 -22.41,23.75c-0.89,14.12 8.06,25.36 21.19,28.03c7.52,1.53 14.17,-0.41 20.36,-4.62c5.6,-3.81 7.55,-9.08 6.6,-15.67c-0.24,-1.63 -0.04,-3.34 -0.04,-5.88c-0.48,-4.25 1.43,-9.75 -0.78,-14.49zm314.59,16.69c0.07,25.72 -21.46,46.78 -47.24,46.98c-25.03,0.19 -47.6,-21.54 -46.91,-47.76c0.68,-25.93 21.06,-46.36 47.18,-46.32c24.71,-0.43 46.89,20.34 46.97,47.1zm-46.77,-25.88c-15.01,-0.13 -25.99,10.5 -26.16,25.32c-0.15,14.43 10.62,25.52 24.19,26.28c15.6,0.87 27.37,-12.06 27.52,-24.92c0.17,-15 -10.88,-26.56 -25.55,-26.68z" fill="#020100"/>
    <path d="m248.08,90.11c18.01,0.19 31.26,8.8 40.93,24.14c2.314,3.664 1.7,7.017 0.836,10.234l-0.15,0.55l-0.076,0.274l-0.152,0.547a35.985,35.985 0 0 0 -0.608,2.435c-1.43,7.08 -1.66,14.18 0.65,20.59c2.18,6.06 0.25,10.32 -2.82,14.57c-9.68,13.41 -22.97,21.07 -39.49,20.7c-24.75,-0.57 -43.09,-17.62 -46.12,-40.73c-3.51,-26.74 13.71,-47.15 37.21,-52.68c3.02,-0.72 6.28,-0.44 9.79,-0.63zm-0.078,20.886l-0.452,0.004c-15.53,0.26 -25.71,11.52 -25.72,25.99c0.07,14.46 11.58,26.31 25.72,26.1c15.38,-0.22 26.48,-12.52 26,-26.9c-0.46,-13.71 -10.88,-25.44 -26,-25.19l0.452,-0.004z" fill="#020100"/>
    <path d="m166.37,89.42c10.38,0.49 24.35,8.61 33.57,25.02c2.21,3.94 0.38,7.19 -0.26,10.59c-1.64,8.7 -1.65,17.26 0.84,25.76c0.79,2.68 0.53,5.02 -0.79,7.45c-9.82,18.06 -28.73,27.18 -47.48,24.82c-20.37,-2.56 -37.46,-18.95 -40.53,-38.26c-4.94,-31.09 18.44,-56.01 54.65,-55.38zm-7.75,20.99c-15.16,-0.29 -26.45,10.28 -26.49,25.86c-0.03,15.41 11.5,25.02 24.36,25.75c15.44,0.88 27.26,-10.88 27.64,-25.28c0.38,-14.46 -10.92,-26 -25.51,-26.33z" fill="#020100"/>
    <path d="m94.83,32.51l-24.6,10.05c0,-6.98 0.01,-13.48 -0.01,-19.98c0,-1.73 0.17,-2.84 2.29,-3.69c14.36,-5.77 28.6,-11.81 43.58,-18.06l0,6.02c0,32.56 -0.02,65.11 0.03,97.67c0.01,3.02 -0.51,5.73 -1.8,8.51c-6.99,15.05 -6.67,30.24 0.02,45.25c3.29,7.39 1,14.99 1.69,22.45c0.11,1.15 -0.71,1.58 -1.79,1.55c-0.56,-0.01 -1.12,0.02 -1.67,0.01c-5.73,-0.11 -13.08,1.86 -16.72,-0.96c-3.45,-2.67 -0.97,-10.44 -0.98,-15.96c-0.08,-44.09 -0.04,-88.18 -0.04,-132.86z" fill="#020100"/>
    <path d="m206.77,56.41c1.52,2.92 1.78,4.95 -2.53,4.79c-3.14,-0.11 -6.29,-0.02 -9.93,-0.02c2.972,6.52 6.984,4.72 11.86,2.309l0.433,-0.214c0.217,-0.108 0.436,-0.217 0.657,-0.325c-3.03,4.41 -5.66,6.33 -9.5,4.85c-3.48,-1.34 -6.04,-3.8 -5.74,-7.86c0.27,-3.57 2.19,-6.47 5.78,-7.23c3.57,-0.76 6.99,-0.08 8.97,3.7zm-1.17,2.79c-1.4,-3.44 -3.32,-4.64 -6.3,-4.36c-2.7,0.25 -4.25,1.54 -4.6,4.36l10.9,0z" fill="#0C0C0C"/>
    <path d="m383.27,60.115l0,0.855c-0.257,0.667 -0.264,1.696 -0.236,2.744l0.012,0.394c0.064,1.965 0.163,3.848 -1.106,3.392c-3.99,-1.43 -8.06,3.51 -11.55,-1.01c-1.56,-2.03 -2.53,-4.15 -2.75,-6.43c-0.35,-3.63 3.61,-7.37 7.33,-7.46c0.954,-0.022 1.798,-0.041 2.546,-0.045l0.437,0c5.104,0.017 5.308,0.956 5.317,7.56zm-2.61,-1.615c-0.26,-1.93 -1.95,-3.88 -5.59,-3.65c-3.47,0.22 -4.77,2.64 -4.78,5.54c-0.01,3.31 1.87,5.7 5.41,5.51c3.42,-0.18 5.16,-2.38 4.96,-7.4zm-215.009,2.06l0,0.856c-0.256,0.666 -0.264,1.695 -0.235,2.744l0.012,0.393c0.064,1.965 0.162,3.85 -1.106,3.393c-3.99,-1.43 -8.06,3.51 -11.55,-1.01c-1.56,-2.03 -2.53,-4.15 -2.75,-6.43c-0.35,-3.63 3.61,-7.37 7.33,-7.46c0.954,-0.022 1.798,-0.041 2.545,-0.045l0.437,-0.001c5.105,0.018 5.31,0.957 5.317,7.56zm-2.61,-1.614c-0.26,-1.93 -1.95,-3.88 -5.59,-3.65c-3.47,0.22 -4.77,2.64 -4.78,5.54c-0.01,3.31 1.87,5.7 5.41,5.51c3.42,-0.18 5.16,-2.38 4.96,-7.4z" fill="#070606"/>
    <path d="m308.13,61.37c-0.32,0.637 -0.35,1.663 -0.32,2.7l0.014,0.389c0.073,1.81 0.24,3.51 -0.734,3.071c-1.61,-0.73 -3.244,-0.282 -4.843,0.208l-0.417,0.128c-2.215,0.68 -4.352,1.249 -6.25,-1.356c-1.43,-1.96 -2.99,-3.76 -3.04,-6.26c-0.08,-3.71 3.64,-7.55 7.23,-7.66a85.12,85.12 0 0 1 2.058,-0.043l0.456,0c5.481,0.03 5.846,1.29 5.846,8.823zm-2.16,-1.38c-0.61,-3.21 -2.12,-5.46 -5.87,-5.15c-3.32,0.28 -5.14,2.54 -5.13,5.46c0.02,3.25 2.14,5.71 5.63,5.61c3.41,-0.1 5.13,-2.44 5.37,-5.92z" fill="#060505"/>
    <path d="m246.71,60.24c0.03,3.99 -3.67,7.92 -7.51,7.99c-4.21,0.08 -8.15,-3.82 -8.14,-8.05c0.01,-4.32 3.25,-7.53 7.66,-7.59c4.96,-0.06 7.95,2.81 7.99,7.65zm-8.84,-5.44c-2.48,0.3 -4.65,2.01 -4.51,5.56c0.15,3.42 2.49,5.58 5.67,5.46c3.1,-0.12 5.45,-2.1 5.42,-5.74c-0.03,-3.72 -2.11,-5.26 -6.58,-5.28z" fill="#070706"/>
    <path d="m349.43,55.93c-2.55,3.69 0.16,8.25 -2.18,12.81c-1.93,-3.6 -0.91,-6.86 -1.13,-9.93c-0.13,-1.93 -0.04,-3.77 -2.67,-3.97c-2.09,-0.16 -3.16,0.68 -4.24,2.61c-1.9,3.38 0.09,7.24 -1.5,10.54l-1.54,0.03l0,-14.75c3.41,1.71 7,-2.65 10.39,0.32c0.53,0.47 1.16,0.83 1.74,1.24c1.08,-0.37 1.37,0.09 1.13,1.1z" fill="#040303"/>
    <path d="m212.82,74.72c5.8,-0.35 5.34,-3.56 5.3,-6.63c-0.06,-4.46 -0.01,-8.92 0,-13.38c0,-0.94 0.08,-2.01 1.32,-1.99c1.23,0.02 1.32,1.1 1.28,2.03c-0.3,5.91 0.83,11.89 -0.62,17.74c-0.92,3.76 -1.39,3.88 -7.28,2.23z" fill="#050505"/>
    <path d="m278.93,68.57c-2.83,-4.96 2.07,-11.21 -4.48,-14.81c2.65,-1.11 4.11,-3.01 3.53,-6.15c-0.74,-4.01 1.41,-5.54 6.26,-5.46c-2.69,1.84 -4.69,3.1 -4.24,6.24c0.37,2.6 -0.15,5.15 4.7,4.61c-7.98,3.76 -2.35,10.76 -5.77,15.57z" fill="#0A0A0A"/>
    <path d="m319.94,68.4c-1.17,-3.48 -0.01,-6.71 -0.73,-9.66c-1.53,-6.24 3.33,-5.23 6.5,-6.07c1.05,-0.27 1.86,1.38 1.14,1.56c-7.81,1.96 -4.31,8.53 -5.61,13.12c-0.07,0.25 -0.49,0.41 -1.3,1.05z" fill="#060605"/>
    <path d="m349.43,55.93l-1.13,-1.1c4.87,-3.88 8.38,-3.03 9.67,2.58c0.8,3.48 0.92,7.1 -0.54,11.88c-1.94,-3.64 -1.16,-6.38 -1.3,-8.94c-0.3,-5.69 -1.2,-6.32 -6.7,-4.42z" fill="#0D0D0D"/>
    <path d="m179.77,55.98c-2.72,3.63 0.12,8.25 -2.58,13.29c-1.44,-5.92 -0.63,-10.76 -0.78,-15.51c-0.03,-0.94 0.76,-1.36 1.45,-0.92c0.46,0.29 0.54,1.19 0.78,1.81c0.4,0.43 1.04,0.64 1.13,1.33z" fill="#040404"/>
    <path d="m136.21,63.92c-0.44,1.36 -0.87,2.72 -1.56,4.89c-2.6,-5.67 -5.17,-10.44 -6.03,-15.95c3.29,2.65 3.68,6.84 5.44,10.29c0.05,0.1 0.34,0.21 0.43,0.15c0.27,-0.17 0.49,-0.41 0.73,-0.63c0.92,-0.05 1.69,0.01 0.99,1.25z" fill="#0A0A0A"/>
    <path d="m136.21,63.92l-1,-1.24c1.63,-3.34 1.7,-7.49 5.99,-11.27c-1.3,5.43 -2.8,9.1 -4.99,12.51z" fill="#131312"/>
    <path d="m179.77,55.98c-0.38,-0.44 -0.75,-0.88 -1.13,-1.33c0.56,-0.4 1.19,-0.73 1.66,-1.21c1.04,-1.05 2.21,-1.07 3.45,-0.55c0.22,0.09 0.39,0.63 0.35,0.94c-0.26,2.14 -2.12,0.49 -3,1.23c-0.41,0.34 -0.88,0.61 -1.33,0.92z" fill="#060606"/>
    <path d="m220.97,48.66c-0.44,0.38 -0.99,1.1 -1.71,1.35c-0.25,0.09 -1.29,-0.98 -1.26,-1.47c0.03,-0.51 0.86,-1.2 1.47,-1.39c0.69,-0.22 1.4,0.2 1.5,1.51z" fill="#131313"/>
    <path d="m0,195l383,0l0,13l-383,0l0,-13z" fill="#000"/>
    <path d="m0,208l47.85,0l0,10l-47.85,0l0,-10z" fill="#FAB800"/>
    <path d="m47.85,208l47.85,0l0,10l-47.85,0l0,-10z" fill="#F08700"/>
    <path d="m143.55,208l47.85,0l0,10l-47.85,0l0,-10z" fill="#CC1719"/>
    <path d="m191.4,208l47.85,0l0,10l-47.85,0l0,-10z" fill="#9E0737"/>
    <path d="m95.7,208l47.85,0l0,10l-47.85,0l0,-10z" fill="#8B2465"/>
    <path d="m239.25,208l47.85,0l0,10l-47.85,0l0,-10z" fill="#006EAA"/>
    <path d="m334.95,208l47.85,0l0,10l-47.85,0l0,-10z" fill="#4FAE47"/>
    <path d="m287.1,208l47.85,0l0,10l-47.85,0l0,-10z" fill="#0084C7"/>
   </g>
  </svg>