<svg xmlns="http://www.w3.org/2000/svg" viewBox="0.5032157897949219 0.4535675048828125 175.74929809570312 31.848501205444336"><g xmlns="http://www.w3.org/2000/svg" fill="none" fill-rule="evenodd"><g fill-rule="nonzero"><g><path fill="#186944" d="m175.35601,7.71943c-1.312,-3.019 -13.65,-2.822 -16.473,1.116l-5.709,15.356c-0.656,1.706 5.119,1.837 5.775,0l5.314,-14.897c0.592,-1.575 7.352,-2.625 5.383,0.919c0.064,0.656 1.508,1.182 4.855,0.459c1.314,-1.05 1.576,-2.034 0.855,-2.953l0,0zm-26.709,1.379l-1.248,4.331c-0.328,0.722 -0.918,1.05 -1.969,1.115l-4.135,0c-0.59,-0.131 -1.312,-0.262 -1.049,-1.115l1.838,-4.331c0.131,-0.788 0.523,-1.116 1.246,-1.116l4.594,0c0.723,0 0.919,0.328 0.723,1.116l0,0zm5.84,0.131c0.328,-1.772 -2.166,-3.413 -4.463,-3.413l-6.955,0.131c-3.283,-0.197 -6.432,1.378 -7.088,3.938l-3.609,9.844c-1.51,3.675 0.525,5.315 3.348,5.315l5.576,0.197c3.348,-0.132 7.088,-0.132 9.123,-4.659c-1.641,-0.722 -3.412,-0.722 -5.316,0c-0.262,1.115 -1.246,2.493 -3.15,2.625c-1.18,0.064 -3.148,0.196 -4.396,-0.984c0.131,-1.838 0.787,-4.004 1.707,-4.857c1.707,-1.114 5.053,-0.918 7.939,-1.049c2.953,-0.395 5.25,-1.379 6.17,-4.069l1.114,-3.019l0,0zm-20.082,-8.138c0.197,-1.181 -4.658,-1.706 -5.578,0l-8.268,23.625c-0.262,1.182 5.316,1.182 5.447,-0.065l8.399,-23.56zm-13.517,9.844c1.246,-3.347 -0.525,-5.053 -4.855,-5.184l-3.545,0c-1.115,-0.197 -2.035,-0.328 -1.902,-1.116l0.984,-3.609c0.262,-0.722 -4.922,-1.05 -5.381,0.131l-8.662,23.296c-0.33,1.706 5.117,1.641 5.707,0l5.645,-15.225c0.262,-0.788 0.459,-1.443 1.248,-1.181l4.199,0c1.182,0 1.51,0.788 1.312,2.166l-2.691,7.088l-2.623,7.152c-0.525,1.444 5.184,1.772 5.84,-0.065l4.724,-13.453l0,0zm-27.694,-1.181l-4.529,11.878c-0.261,0.722 -0.59,0.984 -1.18,1.115c-1.641,0.394 -3.281,0.263 -4.922,-0.131c-0.788,-0.132 -1.116,-0.263 -0.788,-1.051l4.528,-12.206c0.263,-0.722 0.919,-1.575 1.641,-1.575l4.135,0.065c0.787,0.198 1.377,1.117 1.115,1.905l0,0zm5.84,-0.329c0.592,-2.625 -2.1,-3.478 -5.381,-3.675l-6.431,-0.131c-3.741,0.854 -5.25,0.065 -7.81,6.891l-2.953,7.744c-1.312,3.609 1.772,5.053 7.35,5.053c6.235,0 8.663,-1.575 10.172,-2.888l5.053,-12.994l0,0zm-10.172,-8.203c0.131,-0.525 -0.393,-0.656 -0.984,-0.722l-1.312,0c-0.787,0.131 -1.05,0 -1.575,1.312l-0.591,1.444c-0.262,0.722 0.328,0.984 1.444,0.984c1.313,0 1.772,-0.328 2.035,-0.591l0.983,-2.427l0,0zm11.485,0c0.131,-0.525 -0.393,-0.656 -1.049,-0.722l-1.312,0c-0.789,0.131 -1.051,0 -1.576,1.312l-0.59,1.444c-0.264,0.722 0.395,0.984 1.508,0.984c1.248,0 1.707,-0.328 2.035,-0.591l0.984,-2.427l0,0zm-29.597,8.729l-4.594,11.877c-0.263,0.722 -0.59,0.919 -1.181,1.116c-1.641,0.394 -3.347,0.263 -4.988,-0.065c-0.722,-0.197 -1.115,-0.329 -0.788,-1.182l4.528,-12.141c0.263,-0.722 0.919,-1.575 1.707,-1.575l4.134,0.066c0.788,0.197 1.379,1.051 1.182,1.904zm8.728,-8.335c0.131,-0.722 -0.328,-1.05 -0.985,-1.181l-3.543,0.065c-0.459,0.131 -0.788,0.525 -0.985,1.05l-1.575,4.266l-7.743,0c-3.741,0.853 -5.184,0 -7.81,6.891l-2.887,7.744c-1.379,3.609 1.706,5.054 7.284,5.054c6.3,0 8.794,-1.575 10.303,-2.888l7.941,-21.001l0,0zm-79.471,0.459c0.394,-2.559 4.987,-1.509 7.219,-1.247c2.1,0.919 6.693,5.513 7.284,8.007c0.787,2.231 -7.153,2.953 -8.334,1.378c-2.363,-5.053 -6.366,-7.284 -6.169,-8.138zm39.375,11.157c-0.854,-1.181 -7.547,0.591 -6.759,2.166c1.377,2.034 7.744,6.3 10.5,6.562c2.166,0.524 7.678,-2.953 7.021,-4.726c-0.525,-0.983 -7.743,-2.427 -10.762,-4.002z" transform="translate(-49.000000, -169.000000) translate(49.503214, 169.453567)"/><path fill="#43AC8E" d="m10.24501,2.46943c-0.853,-0.919 -0.394,-1.575 1.116,-1.772c1.969,-0.197 3.544,-0.065 4.593,0.329c1.707,0.656 3.479,2.231 5.381,4.855c0.722,1.247 0.394,1.969 -0.524,2.56c-3.216,1.312 -3.938,3.15 -2.56,5.381c0.525,0.722 1.05,1.444 1.575,2.1c0.656,0.788 0.525,1.575 -0.394,2.363c-1.378,0.918 -3.347,1.706 -5.71,2.493c-1.246,0.132 -2.362,-0.328 -3.215,-1.641c-0.788,-1.641 -1.641,-3.281 -2.362,-4.856c-0.525,-1.444 0.065,-2.297 1.837,-2.625c5.25,-0.197 6.3,-2.1 4.135,-5.25c-1.247,-1.312 -2.625,-2.559 -3.872,-3.937l0,0zm30.187,19.687c0.918,0.984 2.297,1.641 -4.988,4.397c-2.034,0.196 -3.872,-0.132 -5.053,-1.312c-1.575,-0.984 -4.135,-3.347 -5.184,-5.513c-0.525,-1.247 0.066,-2.494 0.984,-3.084c2.428,-1.51 3.806,-2.166 2.494,-4.397c-0.524,-0.722 -1.444,-1.248 -2.166,-1.838c-0.525,-0.788 -0.328,-1.247 0.329,-1.771c1.115,-0.329 1.312,-0.394 3.674,-1.116c0.919,0 1.313,0.197 2.232,0.853c1.115,1.05 1.377,1.116 2.559,2.428c0.59,0.525 1.575,1.05 0,1.969c-3.019,1.378 -4.725,1.706 -2.559,3.872c1.246,1.312 6.103,4.331 7.678,5.512l0,0z" transform="translate(-49.000000, -169.000000) translate(49.503214, 169.453567)"/><path fill="#186944" d="m19.89101,3.45443c-1.116,-1.313 -0.59,-2.296 1.247,-2.428c2.691,0.131 4.988,0.59 6.038,1.903c0.919,0.656 1.641,1.509 2.297,2.362c0.788,1.182 0.197,1.969 -1.444,2.363c-2.231,0.524 -3.15,1.444 -1.575,3.346c3.216,2.494 2.56,3.872 -0.788,4.988c-2.166,1.443 -2.034,3.412 0.197,6.168l3.019,3.02c1.771,1.574 1.902,2.362 -1.312,3.74l-4.725,2.166c-1.772,1.246 -3.216,0.918 -4.397,-0.592c-1.641,-1.246 -3.084,-2.756 -4.331,-4.462c-1.575,-1.903 -1.444,-3.412 0.59,-4.528c1.509,-0.656 2.953,-1.575 4.528,-2.231c1.968,-1.312 2.559,-2.756 0.722,-4.79c-2.69,-2.035 -2.166,-3.675 0.656,-5.053c2.691,-1.313 1.838,-3.216 -0.722,-5.972z" transform="translate(-49.000000, -169.000000) translate(49.503214, 169.453567)"/></g></g></g></svg>