<svg xmlns="http://www.w3.org/2000/svg" fill-rule="evenodd" clip-rule="evenodd" image-rendering="optimizeQuality" shape-rendering="geometricPrecision" text-rendering="geometricPrecision" viewBox="-7.130000114440918 0.5299999713897705 6600 3299.989990234375"><g><polygon fill="#131f49" points="6592.87,0.53 -7.13,0.53 -7.13,3300.52 6592.87,3300.52"/><path fill="#fff" fill-rule="nonzero" d="M1849.13 2107.67c18.31,-30.91 36.74,-61.88 55.05,-92.84 9.87,-16.23 31.99,-20.96 49.86,-11.66 206.31,107.69 452.72,107.69 659.08,0 17.87,-9.3 39.99,-4.57 49.87,11.66 18.31,30.96 36.74,61.93 55.05,92.84 9.87,16.26 -0.06,40.15 -22.73,51.96 -257.77,134.58 -565.63,134.58 -823.4,0 -22.73,-11.81 -32.66,-35.7 -22.78,-51.96zm793.12 -1060.45l-717.5 0c-14.67,0 -26.69,12.04 -26.69,26.67l0 180.08c0,14.69 12.02,26.68 26.69,26.68l204.6 0c20.52,0 37.12,16.55 37.12,37.02l0 469.44c0,14.69 12.09,26.68 26.76,26.68l180.65 0c14.68,0 26.76,-11.99 26.76,-26.68l0 -469.5c0,-20.46 16.6,-37.02 37.12,-37.02l204.6 0c14.67,0 26.69,-11.99 26.69,-26.67l0 -180.03c-0.05,-14.63 -12.07,-26.67 -26.8,-26.67zm1520.76 6.76c-230.63,0 -386.19,167.1 -386.19,373.2 0,206.09 154.62,373.24 386.19,373.24 230.58,0 386.13,-167.15 386.13,-373.24 0,-206.16 -154.62,-373.2 -386.13,-373.2zm0 520.55c-86.16,0 -143.59,-65.95 -143.59,-147.35 0,-81.35 57.87,-147.36 143.59,-147.36 86.11,0 143.53,66.01 143.53,147.36 0,81.4 -57.86,147.35 -143.53,147.35zm-2892.2 -520.82l-340.61 0.27c-14.69,0 -26.74,11.99 -26.74,26.62l0 879.66c0,14.63 12.05,26.68 26.74,26.68l340.55 -0.11c0,0 515.49,13.2 515.49,-466.54 0.06,-479.78 -515.43,-466.58 -515.43,-466.58zm-3.84 717.01l-114.77 0c-13.83,0 -25.02,-11.16 -25.02,-24.97l0 -451.02c0,-13.81 11.19,-24.97 25.02,-24.97l114.77 0c0,0 276.67,-7.04 276.67,250.42 0,257.47 -276.67,250.54 -276.67,250.54zm2321.2 -38.55c-14.73,-21.18 -45.02,-23.71 -63.39,-5.61 -49.64,48.67 -120.08,78.81 -204.04,78.81 -170.01,0 -283.42,-122.05 -283.42,-272.59 0,-150.54 114.13,-272.59 283.42,-272.59 83.02,0 152.63,29.2 202,76.62 18.37,17.65 48.1,15.12 62.89,-5.67l74.63 -105.27c12.14,-17.06 9.66,-40.6 -5.96,-54.57 -87.54,-78.49 -207.62,-126.34 -349.89,-126.34 -302.84,0 -507.27,218.42 -507.27,487.88 0,269.4 203.11,487.87 507.27,487.87 142.87,0 263.73,-48.62 351.71,-128.32 15.39,-13.92 17.93,-37.13 6.02,-54.18l-73.97 -106.04zm2094.11 -654.7c0,-33.55 -41.26,-49.67 -64.1,-25.03l-414.37 447.67 -414.33 -447.67c-22.83,-24.69 -64.15,-8.58 -64.15,25.03l0 203.84 0 0.82 0 676.48c0,14.63 12.03,26.68 26.75,26.68l180.61 0c14.72,0 26.75,-12.05 26.75,-26.68l0 -406.58 204.87 236.29c20.85,24.09 58.25,24.09 79.1,0l203.44 -234.75 0 404.99c0,14.63 12.08,26.62 26.75,26.62l180.66 0c14.67,0 26.7,-11.99 26.7,-26.62l0 -674.94 1.32 -1.6 0 -204.55z"/></g></svg>