<svg xmlns="http://www.w3.org/2000/svg" viewBox="0 -0.04052734375 203.31997680664062 38.384033203125"><g data-name="Camada 2"><g data-name="Camada 1"><path d="M551,2898a11.6,11.6,0,1,1,11.6,11.52A11.28,11.28,0,0,1,551,2898m-7.95,0c0,11,8.69,19.18,19.55,19.18s19.55-8.18,19.55-19.18-8.7-19.19-19.55-19.19S543.07,2887,543.07,2898m-42.61,0c0,11,8.55,19.18,19.41,19.18a18.59,18.59,0,0,0,18.59-14.87h-8.33a10.51,10.51,0,0,1-10.26,7.21,11.53,11.53,0,0,1,0-23.05,10.54,10.54,0,0,1,10.26,7.14h8.33a18.6,18.6,0,0,0-18.59-14.8c-10.86,0-19.41,8.18-19.41,19.19m-41.56-18.59L472,2894.83l5-5.8-8-9.59Zm-.45,37.17h10.27l10.7-12.78,10.49,12.78h10.26l-15.54-19,15.16-18.14H489.68Zm-29.66-22.9a11,11,0,0,1,10.71-7.28,10.39,10.39,0,0,1,10.18,7.28Zm-8.7,4.32c0,11,8.55,19.18,19.41,19.18,8.7,0,14.64-5.06,17.69-11.67H447.9c-1.56,2.23-4.24,4-8.4,4a10.94,10.94,0,0,1-11.23-9h30c.07-.81.14-1.63.14-2.52,0-10.86-8.1-19.19-18.95-19.19S420.09,2887,420.09,2898m-33.53,11.15v-22.31h9.37c6.32,0,11.22,4.46,11.22,11.16s-4.9,11.15-11.22,11.15Zm-7.73,7.43H396.3a18.59,18.59,0,1,0,0-37.17H378.83Z" transform="translate(-378.83 -2878.84)"/></g></g></svg>