<svg  id="fndm-sxxt7zyhf6" viewBox="55 59.000186920166016 489.0001220703125 131.99981689453125" xmlns="http://www.w3.org/2000/svg">
   <g xmlns="http://www.w3.org/2000/svg" fill="none">
    <path d="m517.15,82.136c8.517,1.776 20.145,0.888 26.697,-5.681c1.31,-1.243 -5.896,10.12 -17.525,16.689c-15.887,9.054 -36.033,10.12 -53.394,7.811c0.818,-14.558 -11.63,-24.5 -24.077,-24.5c-11.137,0 -19.49,7.457 -22.275,17.399c-11.137,-1.065 -21.456,-0.888 -33.576,2.84c4.258,-21.837 25.714,-36.573 56.015,-37.638c30.464,-1.243 46.187,18.642 68.135,23.08" fill="#5FAC28"/>
    <path d="m381.62,107.467c-8.54,1.576 -18.72,10.51 -22.497,13.838c-3.613,3.153 -8.703,-3.679 -4.598,-6.832c4.926,-3.503 22.333,-13.663 38.425,-16.991c18.392,-3.679 36.619,-0.175 57.145,6.831c20.69,6.832 31.528,7.533 50.905,6.832c-10.181,21.02 -35.14,28.027 -52.219,27.852c-17.899,0 -36.126,-5.606 -47.456,-17.867c-6.076,-6.657 -10.017,-15.415 -19.705,-13.663" fill="#006B52"/>
    <path d="m83.212,165.342c-0.168,-4.601 -3.19,-8.317 -7.557,-8.317c-4.534,0 -7.389,3.362 -8.228,8.317l15.785,0zm-15.617,7.432c0.167,5.485 3.19,9.201 8.564,9.201c3.023,0 6.045,-1.415 7.22,-4.424l11.756,0c-2.351,9.379 -10.58,13.449 -19.145,13.449c-12.594,0 -20.99,-7.963 -20.99,-21.588c0,-12.387 9.404,-21.412 20.823,-21.412c13.77,0 20.655,10.971 20.151,24.774l-28.38,0l0.001,0zm60.958,-8.96c0,-3.376 -2.987,-5.864 -6.14,-5.864c-6.97,0 -8.132,6.397 -8.132,12.083c0,5.33 2.157,10.661 7.468,10.661c4.315,0 6.472,-2.665 7.136,-6.93l12.115,0c-1.162,10.84 -8.962,17.236 -19.085,17.236c-11.451,0 -19.915,-8.351 -19.915,-20.79c0,-12.97 7.634,-22.21 19.915,-22.21c9.46,0 17.923,5.33 18.753,16.17l-12.115,0l0,-0.356zm32.947,17.1c5.93,0 7.793,-6.017 7.793,-11.326c0,-5.131 -1.863,-11.325 -7.793,-11.325s-7.624,6.194 -7.624,11.325c0,5.132 1.694,11.326 7.624,11.326m0,-32.914c12.029,0 20.5,9.379 20.5,21.588c0,12.21 -8.471,21.412 -20.5,21.412s-20.5,-9.202 -20.5,-21.412c0.17,-12.21 8.471,-21.588 20.5,-21.588" fill="#1E120D"/>
    <path d="m194.939,165.198l11.449,0c4.51,0 6.939,-2.129 6.939,-6.06c0,-4.914 -3.296,-5.733 -6.94,-5.733l-11.447,0l0,11.793l-0.001,0zm-6.939,-17.198l19.255,0c8.847,0 13.184,3.767 13.184,10.319c0,7.207 -5.378,9.172 -6.592,9.5l0,0.164c2.429,0.327 5.898,1.965 5.898,8.026c0,4.422 0.694,8.517 2.255,9.991l-7.46,0c-1.04,-1.638 -1.04,-3.767 -1.04,-5.569c0,-6.88 -1.561,-9.991 -7.98,-9.991l-10.408,0l0,15.56l-7.112,0l0,-38zm44.833,21.501c0,7.818 3.5,15.636 11.667,15.636c8.333,0 11.667,-7.818 11.667,-15.636s-3.5,-15.635 -11.667,-15.635c-8.333,0 -11.667,7.64 -11.667,15.635m30.167,0c0,11.727 -6.833,21.499 -18.5,21.499c-11.5,0 -18.5,-9.772 -18.5,-21.499c0,-11.726 6.833,-21.499 18.5,-21.499c11.5,-0.177 18.5,9.773 18.5,21.5m11.04,10.929l6.87,0c10.989,0 13.221,-5.897 13.221,-13.595c0,-7.534 -2.404,-13.595 -13.222,-13.595l-6.869,0l0,27.19zm-7.04,-32.431l16.485,0c12.192,0 17.515,8.517 17.515,19s-5.323,19 -17.515,19l-16.485,0l0,-38zm41.833,21.501c0,7.818 3.5,15.636 11.667,15.636c8.333,0 11.667,-7.818 11.667,-15.636s-3.5,-15.635 -11.667,-15.635c-8.333,0 -11.667,7.64 -11.667,15.635m30.167,0c0,11.727 -6.833,21.499 -18.5,21.499c-11.5,0 -18.5,-9.772 -18.5,-21.499c0,-11.726 6.833,-21.499 18.5,-21.499c11.5,-0.177 18.5,9.773 18.5,21.5m5,-21.502l7.104,0l9.811,30.104l0.17,0l9.98,-30.104l6.935,0l-13.363,38l-7.612,0l-13.025,-38zm39,0l7,0l0,38l-7,0l0,-38zm22.557,22.866l11.886,0l-5.86,-16.45l-0.167,0l-5.86,16.45l0.001,0zm2.343,-22.866l7.2,0l14.9,38l-7.2,0l-3.682,-10.035l-15.403,0l-3.683,10.035l-7.032,0l14.9,-38zm30.084,28.313c0,6.37 4.54,8.847 10.302,8.847c6.285,0 8.555,-3.185 8.555,-6.193c0,-3.185 -1.746,-4.424 -3.317,-5.132c-2.794,-1.061 -6.46,-1.77 -12.048,-3.362c-6.984,-1.946 -8.905,-6.193 -8.905,-10.44c0,-8.14 7.508,-12.033 14.842,-12.033c8.38,0 15.54,4.6 15.54,13.095l-7.334,0c-0.35,-5.309 -3.841,-7.255 -8.73,-7.255c-3.318,0 -7.333,1.238 -7.333,5.308c0,2.831 1.92,4.424 4.888,5.309c0.699,0.177 9.604,2.477 11.699,3.185c5.238,1.593 7.857,6.193 7.857,10.44c0,9.202 -8.032,12.918 -16.063,12.918c-9.254,0 -16.762,-4.424 -16.937,-14.687l6.984,0z" fill="#88868B"/>
   </g>
  </svg>