<svg  id="fndm-qjviwwinr4" viewBox="0 0 319.1300048828125 113.39490509033203" xmlns="http://www.w3.org/2000/svg">
   <path clip-rule="evenodd" d="m319.13,45.82c-42.76,-28.55 -98.54,-45.82 -159.56,-45.82c-61.03,0 -116.81,17.27 -159.57,45.82c42.53,-14.14 92.25,-22.91 159.57,-22.91c67.31,0 117.04,8.77 159.56,22.91z" fill-rule="evenodd" fill="#0af"/>
   <path d="m135.1,60.66c-3.13,0 -4.74,2.54 -5.16,5.65c-0.46,3.43 -2.26,15.34 -2.66,18.37c-0.24,1.81 -0.37,3.71 -2.13,4.48c-1.76,0.78 -3.9,-0.42 -5.72,-1.97c-1.83,-1.55 -28.84,-24.55 -28.84,-24.55a8.187,8.187 0 0 0 -5.36,-1.99c-4.08,0 -8,2.53 -8,8.72l0,38.35c0,2.99 2.11,4.9 4.63,4.9c2.78,0 4.58,-1.84 4.98,-4.54c0,0 2.97,-18.28 3.33,-20.32c0.42,-2.37 0.79,-4.23 3.08,-4.94c2.07,-0.64 4.03,0.56 6.94,3.11c2.87,2.51 27.2,24.48 27.2,24.48c1.86,1.57 3.22,2.21 5.85,2.21c2.39,0 6.73,-0.98 6.73,-8.28l0,-38.2c0,-3.54 -2.2,-5.48 -4.87,-5.48zm174.01,40.87c-21.2,4.56 -45.45,-0.31 -45.45,-15.3c0,-11.33 10.51,-15.95 18.79,-16.61c8.69,-0.69 15.48,1.13 18.97,4.76c2.18,2.26 1.57,5.36 -2.71,5.61c-3.95,0.24 -11.35,0.47 -17.52,0.7c-3.5,0.13 -5.37,2 -5.37,4.52c0,1.99 1.5,4.28 5.53,4.3c5.77,0.03 20.42,0.12 27.7,0.14c4.8,0.01 7.17,-2.68 7.17,-8.2c0,-8.75 -7.93,-22.03 -31.14,-22.03c-21.03,0 -36.24,10.47 -36.24,27.6c0,24.28 35.73,31.69 61.92,22.67c2.48,-0.85 4.73,-2.63 4.01,-5.41c-0.64,-2.47 -2.65,-3.4 -5.66,-2.75zm-245.91,0c-21.2,4.56 -45.45,-0.31 -45.45,-15.3c0,-11.33 10.51,-15.95 18.79,-16.61c8.68,-0.69 15.47,1.13 18.97,4.76c2.18,2.26 1.58,5.36 -2.71,5.61c-3.95,0.24 -11.36,0.47 -17.52,0.7c-3.5,0.13 -5.37,2 -5.37,4.52c0,1.99 1.5,4.28 5.53,4.3c5.77,0.03 20.43,0.12 27.7,0.14c4.8,0.01 7.17,-2.68 7.17,-8.2c0,-8.75 -7.93,-22.03 -31.14,-22.03c-21.03,0 -36.24,10.47 -36.24,27.6c0,24.28 35.74,31.69 61.92,22.67c2.48,-0.85 4.73,-2.63 4.01,-5.41c-0.64,-2.47 -2.65,-3.4 -5.66,-2.75zm164.18,-23.35c0.46,13.24 1.71,24.22 2.06,28.07c0.45,4.97 3.02,6.38 5.6,6.38c2.47,0 5.09,-1.29 5.55,-6.33c0.38,-4.25 1.64,-17.34 2.25,-30.3c0.03,-0.67 -0.44,-0.96 -0.97,-0.87l-13.8,2.23c-0.42,0.09 -0.71,0.42 -0.69,0.82zm7.69,-18.77c-6.33,0 -8.18,4.96 -8.1,8c0.01,0.56 0.07,2.13 0.16,4.07c0.02,0.44 0.42,0.86 0.95,0.79l14.4,-2.34c0.46,-0.09 0.68,-0.43 0.7,-0.79c0.04,-0.68 0.05,-1.37 0.06,-1.7c0.08,-2.92 -1.8,-8.03 -8.17,-8.03zm-21.16,21.11c-4.8,0 -19.61,0.11 -29.09,0.14c-4.6,0.01 -5.75,2.48 -5.75,4.53c0,1.78 1.23,4.08 5.52,4.3c6.54,0.34 14.85,0.73 18.69,0.93c5.17,0.27 5.24,2.92 3.49,5.2c-3.51,4.57 -12.05,7.56 -20.9,7.56c-11.58,0 -24.32,-6.59 -24.32,-17.03c0,-9.79 10.9,-20.58 43.3,-16.03c2.85,0.4 5.65,-0.11 6.35,-2.75c0.74,-2.8 -1.08,-4.6 -4.76,-5.57c-7.34,-1.93 -14.03,-2.39 -20.43,-2.39c-21.8,0 -39.29,10.41 -39.29,27.23c0,17.96 17.42,26.74 39.13,26.74c24.25,0 36.06,-13.2 36.06,-24.74c0.02,-5.87 -2.97,-8.12 -8,-8.12z" fill="#0af"/>
  </svg>