<svg xmlns="http://www.w3.org/2000/svg" fill-rule="evenodd" clip-rule="evenodd" image-rendering="optimizeQuality" shape-rendering="geometricPrecision" text-rendering="geometricPrecision" viewBox="-2 1 6600 3300"><g><rect width="6600" height="3300" x="-2" y="1" fill="#ff3b00" fill-rule="nonzero"/><g><g fill="#fefefe" fill-rule="nonzero"><path d="M1045.05 1587.78l-486.94 0c-3.05,0 -6.09,-2.54 -6.09,-6.1l0 -112.21c0,-3.05 2.53,-5.59 5.07,-6.1l537.72 -58.9c6.1,-0.5 10.67,-5.58 10.67,-11.67l0 -102.57c0,-7.11 -6.1,-12.7 -13.21,-11.68l-533.15 58.39c-3.55,0.51 -6.6,-2.54 -6.6,-6.09l0 -167.56c0,-10.16 8.13,-18.79 18.79,-18.79l537.72 0c6.6,0 11.68,-5.08 11.68,-11.68l0 -102.06c0,-6.6 -5.08,-11.68 -11.68,-11.68l-556.51 0 -50.27 0c-42.14,0 -76.16,34.02 -76.16,76.17l0 50.27 0 442.26 0 126.43 0 557.02c0,6.6 5.08,11.68 11.68,11.68l102.57 0c6.6,0 11.67,-5.08 11.67,-11.68l0 -551.43c0,-3.05 2.54,-6.1 6.1,-6.1l177.21 0c3.55,0 6.09,3.05 6.09,6.6l-58.39 533.16c-0.51,7.1 4.57,13.2 11.67,13.2l102.57 0c6.1,0 11.17,-4.57 11.68,-10.67l58.9 -537.21c0.51,-3.05 3.05,-5.08 6.09,-5.08l102.57 0c10.16,0 18.79,8.64 18.79,18.79l0 538.23c0,6.6 5.08,11.68 11.68,11.68l102.57 0c6.6,0 11.67,-5.08 11.67,-11.68l0 -606.78c0,-42.14 -34.02,-76.16 -76.16,-76.16l0 0z"/><g><path d="M1702.61 1474.54c136.08,0 229.51,103.08 229.51,229.51l0 17.78c0,4.06 -3.56,7.61 -7.62,7.61l-332.08 0c9.14,55.35 55.35,102.06 110.7,102.06 38.08,0 60.93,-12.69 77.18,-25.38 0,0 0.5,-0.51 0.5,-0.51 7.11,-6.6 13.2,-13.71 17.77,-21.33 1.53,-2.54 4.07,-3.55 6.61,-3.55l112.21 0c5.08,0 9.14,5.58 7.11,10.15 -9.14,23.87 -21.84,46.21 -38.59,66.01 -34.02,38.08 -89.37,76.67 -182.8,76.67 -132.52,0 -233.57,-102.06 -233.57,-229.51 -0.5,-127.95 100.54,-229.5 233.07,-229.5l0 -0.01zm101.55 182.29c-8.63,-42.65 -46.71,-80.73 -102.06,-80.73 -55.35,0 -93.43,37.57 -106.12,80.73l208.18 0z"/><path d="M2020.97 1325.77l104.1 0c4.06,0 7.61,3.55 7.61,7.62l0 579.36c0,4.06 -3.55,7.61 -7.61,7.61l-104.1 0c-4.06,0 -7.61,-3.55 -7.61,-7.61l0 -579.36c0,-4.57 3.55,-7.62 7.61,-7.62z"/><path d="M2443.94 1474.54c136.08,0 229.51,103.08 229.51,229.51l0 17.78c0,4.06 -3.55,7.61 -7.62,7.61l-332.07 0c9.14,55.35 55.34,102.06 110.69,102.06 38.08,0 60.93,-12.69 77.18,-25.38 7.62,-6.61 13.71,-13.71 18.28,-21.84 1.52,-2.54 3.55,-3.55 6.6,-3.55l112.21 0c5.08,0 9.14,5.58 7.11,10.15 -9.14,23.87 -21.83,46.21 -38.59,66.01 -34.02,38.08 -89.36,76.67 -182.79,76.67 -132.53,0 -233.57,-102.06 -233.57,-229.51 -0.51,-127.95 100.53,-229.51 233.06,-229.51l0 0zm102.06 182.29c-8.63,-42.65 -46.71,-80.73 -102.06,-80.73 -55.34,0 -93.43,37.57 -106.12,80.73l208.18 0z"/><path d="M2717.63 1487.24l47.73 0 0 -85.31c0,-4.06 3.55,-7.61 7.61,-7.61l104.1 0c4.06,0 7.61,3.55 7.61,7.61l0 85.31 114.25 0c4.06,0 7.62,3.55 7.62,7.62l0 86.82c0,4.06 -3.56,7.62 -7.62,7.62l-114.76 0 0 178.22c0,27.93 22.85,50.78 50.78,50.78l69.06 0c4.06,0 7.61,3.56 7.61,7.62l0 86.83c0,4.06 -3.55,7.61 -7.61,7.61l-90.39 0c-94.44,0 -148.77,-54.33 -148.77,-152.83l0 -178.23 -47.73 0c-4.06,0 -7.62,-3.55 -7.62,-7.62l0 -86.82c0.51,-4.57 4.07,-7.62 8.13,-7.62l0 0z"/><path d="M3101.5 1487.24l104.09 0c4.06,0 7.61,3.55 7.61,7.62l0 56.36 4.07 0c5.07,-13.71 12.69,-25.39 22.85,-35.55 16.75,-17.77 44.17,-36.56 87.33,-36.56l43.16 0c4.06,0 7.62,3.56 7.62,7.62l0 99.52c0,4.07 -3.56,7.62 -7.62,7.62l-56.36 0c-64.49,0 -102.06,37.57 -102.06,97.49l0 221.39c0,4.06 -3.56,7.61 -7.62,7.61l-104.09 0c-4.06,0 -7.62,-3.55 -7.62,-7.61l0 -417.89c1.02,-4.57 4.07,-7.62 8.64,-7.62l0 0z"/><path d="M3647.85 1474.54c135.06,0 237.63,102.06 237.63,229.51 0,127.45 -102.57,229.01 -237.63,229.01 -136.59,0 -237.63,-102.06 -237.63,-229.51 0,-127.45 101.04,-229.01 237.63,-229.01zm0 356.45c63.98,0 114.75,-50.77 114.75,-127.44 0,-76.68 -50.77,-127.45 -114.75,-127.45 -63.47,0 -114.76,50.77 -114.76,127.45 0,76.67 51.29,127.44 114.76,127.44z"/><path d="M3966.72 1487.24l103.59 0c4.06,0 7.61,3.55 7.61,7.62l0 51.79 4.07 0c7.61,-13.71 16.75,-25.39 28.94,-35.55 20.31,-17.77 50.78,-36.56 98.51,-36.56 55.34,0 90.89,20.32 113.74,40.63 12.69,11.67 22.84,25.38 30.46,40.11l4.06 0c7.62,-14.22 17.77,-27.93 30.47,-40.11 22.85,-20.31 55.34,-40.63 109.68,-40.63 103.07,0 165.53,62.97 165.53,182.8l0 255.4c0,4.07 -3.56,7.62 -7.62,7.62l-103.58 0c-4.07,0 -7.62,-3.55 -7.62,-7.62l0 -243.21c0,-64.49 -29.96,-93.43 -80.74,-93.43 -50.77,0 -93.42,42.65 -93.42,110.18l0 226.46c0,4.07 -3.56,7.62 -7.62,7.62l-103.59 0c-4.06,0 -7.61,-3.55 -7.61,-7.62l0 -243.22c0,-64.48 -29.96,-93.42 -80.74,-93.42 -50.77,0 -93.43,42.65 -93.43,110.18l0 226.46c0,4.06 -3.55,7.62 -7.61,7.62l-103.59 0c-4.06,0 -7.61,-3.56 -7.61,-7.62l0 -417.89c0.5,-4.57 4.06,-7.61 8.12,-7.61l0 0z"/><path d="M4820.78 1304.44c38.08,0 68.04,29.96 68.04,63.47 0,33.52 -29.96,63.47 -68.04,63.47 -38.08,0 -68.04,-29.95 -68.04,-63.47 0,-33.51 29.96,-63.47 68.04,-63.47zm-51.79 182.8l103.58 0c4.07,0 7.62,3.55 7.62,7.62l0 417.88c0,4.07 -3.55,7.62 -7.62,7.62l-103.58 0c-4.06,0 -7.62,-3.55 -7.62,-7.62l0 -417.88c0,-4.57 3.56,-7.62 7.62,-7.62z"/><path d="M5156.41 1474.54c47.73,0 79.72,17.27 103.08,34.02 12.69,10.16 23.87,21.33 33.01,34.02l4.06 0 0 -209.19c0,-4.07 3.55,-7.62 7.61,-7.62l103.59 0c4.06,0 7.62,3.55 7.62,7.62l0 579.35c0,4.07 -3.56,7.62 -7.62,7.62l-103.59 0c-4.06,0 -7.61,-3.55 -7.61,-7.62l0 -47.73 -4.06 0c-9.14,12.7 -20.32,23.87 -33.01,34.02 -22.85,16.76 -55.35,34.02 -103.08,34.02 -110.69,0 -199.55,-89.36 -199.55,-229.5 0,-140.15 89.37,-229.01 199.55,-229.01l0 0zm29.96 356.45c64.49,0 110.69,-45.69 110.69,-127.44 0,-81.75 -45.7,-127.45 -110.69,-127.45 -60.42,0 -106.12,45.7 -106.12,127.45 0,81.75 45.7,127.44 106.12,127.44z"/><path d="M5574.81 1304.44c38.08,0 68.04,29.96 68.04,63.47 0,33.52 -29.96,63.47 -68.04,63.47 -38.08,0 -68.04,-29.95 -68.04,-63.47 0.51,-33.51 29.96,-63.47 68.04,-63.47zm-51.79 182.8l104.09 0c4.06,0 7.62,3.55 7.62,7.62l0 417.88c0,4.07 -3.56,7.62 -7.62,7.62l-104.09 0c-4.06,0 -7.62,-3.55 -7.62,-7.62l0 -417.88c0,-4.57 3.56,-7.62 7.62,-7.62z"/><path d="M5910.95 1474.54c47.73,0 79.72,17.27 103.08,34.02 12.69,10.16 23.86,21.33 33,34.02l4.06 0 0 -47.72c0,-4.07 3.56,-7.62 7.62,-7.62l103.59 0c4.06,0 7.61,3.55 7.61,7.62l0 417.88c0,4.07 -3.55,7.62 -7.61,7.62l-103.59 0c-4.06,0 -7.62,-3.55 -7.62,-7.62l0 -47.73 -4.06 0c-9.14,12.7 -20.31,23.87 -33,34.02 -22.85,16.76 -55.35,34.02 -103.08,34.02 -110.69,0 -199.55,-89.36 -199.55,-229.5 0,-140.15 88.86,-229.01 199.55,-229.01l0 0zm29.45 356.45c64.49,0 110.69,-45.69 110.69,-127.44 0,-81.75 -45.7,-127.45 -110.69,-127.45 -60.42,0 -106.12,45.7 -106.12,127.45 0,81.75 46.21,127.44 106.12,127.44z"/></g></g></g></g></svg>