<svg  id="fndm-ep9w17t7qg" viewBox="0 0 590 147.125" xmlns="http://www.w3.org/2000/svg">
   <path d="m116.719,0l-87.625,67.844l-17.281,0l-11.813,12.219l29.094,0l87.5,67.062l28.594,0l-58.438,-67.063l58.438,0l0,-12.28l-58.438,0l58.594,-67.782l-28.625,0zm86.406,51.844l0,41.125l43.781,0l0,-10.063l-31.781,0l0,-6.656l31.781,0l0,-8.469l-31.781,0l0,-5.937l31.781,0l0,-10l-43.781,0zm49.719,0l0,41.125l12.125,0l0,-31.125l1.562,0l15.157,31.125l11.125,0l15.062,-31.125l1.625,0l0,31.125l11.938,0l0,-41.125l-21.938,0l-10.594,21.936l-1.812,4.281l-1.719,-4.28l-10.375,-21.938l-22.156,0.001zm74.469,0l0,41.125l38.343,-0.063c2.858,0 5.28,-0.168 6.875,-0.937c4.014,-1.87 4.875,-5.38 4.875,-10.438c-0.11,-2.088 -0.554,-8.797 -5.062,-8.906c-1.979,-0.11 -1.154,-1.369 0,-1.313c2.035,-0.825 4.187,-1.033 4.187,-9.5c-0.22,-10.774 -11.118,-9.968 -12.437,-9.968l-36.781,0zm54.093,0l0,41.125l12.125,0l0,-10.063l22.907,0c2.637,0 1.968,4.4 1.968,10.063l24.814,0l3.625,-7.156l27.531,0l3.813,7.156l56,0l0,-10.063l-31.75,0l0,-6.656l31.75,0l0,-8.469l-31.75,0l0,-5.937l31.75,0l0,-10l-43.689,0l0,39.686l-20.625,-39.687l-18.469,0l-20.843,40.281l0,-7.124c-0.057,-2.089 -0.008,-7.21 -4.407,-7.375c-1.978,0 -1.153,-1.36 0,-1.25c3.133,0 5.125,-4.034 5.125,-12.5c-0.218,-10.776 -5.115,-12.031 -9.843,-12.031l-40.032,0zm158.719,0l0,41.125l12.156,0l0,-10.063l22.875,0c2.642,0 1.969,4.4 1.969,10.063l12.156,0l0,-7.969c-0.056,-2.089 -0.008,-7.21 -4.406,-7.375c-1.979,0 -1.156,-1.36 0,-1.25c3.134,0 5.125,-4.034 5.125,-12.5c-0.223,-10.776 -5.113,-12.031 -9.844,-12.031l-40.031,0zm-200.594,10l22.532,0s2.03,0.016 2.03,2.875c0,3.079 -2.03,3.062 -2.03,3.062l-22.533,0l0.001,-5.937zm54,0l21.032,0c1.758,0 4.524,0.02 4.468,5.187c0.056,5.224 -3.207,5.054 -4.25,5.219l-21.25,0l0,-10.406zm65.625,0l2.907,0l7.53,14.406l-17.812,0l7.375,-14.406zm93.125,0l21,0c1.757,0 4.525,0.02 4.469,5.187c0.056,5.224 -3.148,5.054 -4.25,5.219l-21.219,0l0,-10.406zm-212.75,14.406l23.188,0c1.702,0 2.82,-0.001 3.094,3.406c-0.275,3.244 -1.718,3.25 -3.75,3.25l-22.533,0l0.001,-6.656z" fill="#014698"/>
  </svg>