<svg  id="fndm-lc0eq5q8wx" viewBox="-0.00078582763671875 0.94638991355896 562.8705444335938 111.90985870361328" xmlns="http://www.w3.org/2000/svg">
   <g xmlns="http://www.w3.org/2000/svg" fill="none">
    <path d="m0.4,2.3c-0.2,0.7 -0.3,5.8 -0.2,11.3l0.3,9.9l39.3,0.5c21.7,0.3 39.8,0.2 40.3,-0.1c0.6,-0.3 0.8,-5.4 0.7,-11.5l-0.3,-10.9l-39.8,-0.3c-32.4,-0.2 -39.8,0 -40.3,1.1zm412.3,-0.6c-0.4,0.3 -0.7,20.6 -0.7,44.9c0,41.8 0.1,44.6 2,49.7c2.5,6.6 7.8,11.9 15,14.7c4.5,1.8 6.8,2.1 13,1.7c4.1,-0.3 9.1,-1.2 11,-2c5.8,-2.5 12.2,-7.6 11.8,-9.5c-0.2,-0.9 -2.9,-4.1 -6.1,-7.1l-5.8,-5.4l-3.5,1.6c-6.1,3 -10.3,1.7 -12.4,-3.7c-0.6,-1.5 -1,-11.1 -1,-22.1c0,-22.7 -1.6,-20.4 14.5,-20.8l10,-0.2l0.3,-7.9c0.2,-4.8 -0.1,-8.3 -0.8,-9c-0.6,-0.6 -6.1,-1.3 -12.3,-1.6l-11.2,-0.5l-0.3,-10.4c-0.1,-5.8 -0.8,-11.1 -1.4,-11.8c-1.1,-1.4 -20.8,-1.9 -22.1,-0.6zm-269.2,23.7c-4.9,1.4 -7.5,2.8 -14.1,7.7c-5.7,4.2 -6.2,4.1 -12.7,-2.3c-2.1,-2.1 -4.7,-4.3 -5.7,-4.8c-2.6,-1.4 -9.4,-1.2 -10.8,0.2c-1.4,1.4 -1.7,82.4 -0.4,84.6c0.6,0.9 3.7,1.2 11.8,1l10.9,-0.3l0.5,-25c0.6,-27.4 1,-29.3 7,-35.3c4,-4 9,-5.6 16.1,-4.9c7,0.6 10.1,2.7 13.1,8.7c2.2,4.2 2.3,6 2.8,30.5l0.5,26l11.2,0.3l11.2,0.3l0.7,-2.5c0.3,-1.4 0.4,-15.1 0.1,-30.3c-0.5,-28.5 -0.9,-32.1 -5.2,-40.8c-2,-4 -3.3,-5.6 -7.6,-8.8c-6.7,-5.1 -20,-7 -29.4,-4.3zm85.5,0.1c-17,4.6 -27.3,18.4 -28.6,38.2c-1.5,22.3 6.3,37.5 23.6,45.7c5.9,2.7 7.4,3 16.5,3c9.4,0 10.3,-0.1 16,-3.3c3.3,-1.8 7.1,-4.4 8.6,-5.7c1.4,-1.3 3,-2.4 3.6,-2.4c0.7,0 3.9,2.5 7.2,5.6c5.9,5.4 6.1,5.5 11.3,5.2l5.3,-0.3l0.3,-42c0.2,-38.6 0.1,-42.1 -1.5,-43.3c-2.2,-1.6 -19.4,-1.7 -21.1,0c-0.7,0.7 -1.2,2.9 -1.2,5c0,3.1 -0.4,3.8 -1.9,3.8c-1,0 -2.5,-0.7 -3.2,-1.6c-6.4,-7.7 -22.5,-11.3 -34.9,-7.9zm29,21.7c9,5.5 12.7,16.2 10,29.2c-1,4.7 -2,6.7 -5.8,10.6c-3.9,4 -5.6,5 -10.3,5.9c-10.3,2.1 -19,-1.4 -24.7,-10.2c-2.5,-3.8 -2.7,-5.1 -2.7,-13.7s0.3,-9.9 2.6,-13.5c5.4,-8.1 10.7,-11.2 19.4,-11.4c5.2,-0.1 6.9,0.4 11.5,3.1zm240.2,-21.6c-8.2,2.2 -14.3,6.6 -20.4,14.6c-6.3,8.3 -9.5,24.4 -7.2,37.3c3.6,20.8 17.2,33.6 37.2,35.1c9.4,0.8 16.7,-1.5 24.8,-7.6c2.9,-2.2 5.7,-4 6.2,-4c0.6,0 3.6,2.5 6.8,5.5c5.8,5.5 6,5.6 11.4,5.3l5.5,-0.3l0.3,-42.4c0.2,-33.3 0,-42.6 -1,-43.3c-2.1,-1.3 -20.2,-1 -21.6,0.4c-0.7,0.7 -1.2,2.9 -1.2,5c0,3.1 -0.4,3.8 -1.9,3.8c-1,0 -2.5,-0.7 -3.2,-1.6c-6.4,-7.7 -22.8,-11.3 -35.7,-7.8zm27.6,20.4c9.5,5 12.7,10.8 12.7,23c0,7.5 -0.3,9.1 -2.8,13.2c-3.6,6.2 -8.2,9.6 -14.5,10.8c-9.9,1.8 -18,-1.4 -23.3,-9.3c-3.3,-5 -3.4,-5.6 -3.4,-14.7c0,-8.8 0.2,-9.8 3,-14.3c6,-9.7 19,-13.7 28.3,-8.7zm-215.1,-20.3c-0.4,0.3 -0.7,13.4 -0.7,28.9c0,30.2 0.6,35.2 5.2,44.3c2.4,4.7 8.4,10 13.8,12.2c2.2,0.9 6.9,1.4 12.5,1.4c10.2,-0.1 15.7,-2 22.2,-7.8c6.1,-5.4 6.6,-5.4 13.6,1.3c6.1,5.8 6.3,5.9 12,6l5.7,0l0,-42.9c0,-38.2 -0.2,-43 -1.6,-43.5c-2.2,-0.9 -19.7,-0.7 -21.1,0.2c-0.8,0.5 -1.2,7.9 -1.5,25.2c-0.3,23.4 -0.4,24.7 -2.6,29c-3.4,6.5 -5.6,8.5 -11.5,10.5c-4.4,1.5 -5.9,1.5 -9.6,0.5c-5.5,-1.5 -10.5,-6.3 -12,-11.5c-0.6,-2.4 -1.1,-13.7 -1.1,-28.1c0,-17.3 -0.3,-24.3 -1.2,-25.2c-1.3,-1.3 -20.9,-1.8 -22.1,-0.5zm-310.7,19.5c0.3,0.8 1,16.2 1.1,32.6c0.1,16.3 0.4,30.3 0.6,31c0.4,1 7,1.2 30.2,1.1c20.1,-0.1 30.5,1.3 32.4,2.1c1.6,0.6 5.9,0 9.7,0l6.9,0l0.3,-10.5c0.2,-5.8 0.1,-11 -0.1,-11.6c-0.2,-0.6 -7.1,-0.9 -20,-0.8l-19.6,0.2l-9.3,-9.1c-5.2,-5 -22.425,-9.7 -22.225,-10.4c0.4,-1 20.225,-1.4 42.325,-1.6c21.9,-0.2 28.7,0.937 28.8,-0.063c0.2,-3.7 -0.3,-22.637 -0.6,-22.937c-0.4,-0.4 -80.8,-0.9 -80.5,0z" fill="#006A6A"/>
    <path d="m67.466,112.466l-67.466,-67.466l0,67.152l67.466,0.314z" fill="#FA6909"/>
   </g>
  </svg>