<svg xmlns="http://www.w3.org/2000/svg" fill-rule="evenodd" clip-rule="evenodd" image-rendering="optimizeQuality" shape-rendering="geometricPrecision" text-rendering="geometricPrecision" viewBox="-7.130000114440918 0.5299999713897705 6600 3300"><g><rect width="6600" height="3300" x="-7.13" y="0.53" fill="none"/><g fill-rule="nonzero"><path fill="#666052" d="M2272.11 2895.51l5.88 0c53.22,-0.48 123.45,-10.72 170.3,-24.5l0 -89.41c-47.03,12.24 -114.81,18.83 -149.65,18.83 -53.6,0 -87.48,-7.54 -111.04,-31.06 -24.48,-24.52 -30.11,-59.3 -30.11,-100.7l306.81 0c2.84,-22.6 4.72,-60.22 4.72,-77.15 0,-137.45 -64.97,-206.1 -208.92,-206.1 -125.18,0 -234.36,60.22 -234.36,255 0,170.6 69.12,254.43 246.37,255.09z"/><path fill="#666052" d="M2856.72 2389.12c119.52,0 164.71,44.29 164.71,149.66l0 341.64 -124.24 0 0 -319.06c0,-55.51 -18.85,-73.42 -74.36,-73.42 -46.15,0 -97.89,27.34 -126.15,62.16l0 330.32 -124.18 0 0 -479.96 86.59 0 16.93 63.08 1.89 0c53.6,-54.63 116.68,-74.42 178.81,-74.42z"/><path fill="#666052" d="M3359.01 2895.51l5.88 0c53.25,-0.48 123.47,-10.72 170.31,-24.5l0 -89.41c-47.06,12.24 -114.83,18.83 -149.66,18.83 -53.58,0 -87.48,-7.54 -111.05,-31.06 -24.47,-24.52 -30.06,-59.3 -30.06,-100.7l306.78 0c2.82,-22.6 4.69,-60.22 4.69,-77.15 0,-137.45 -64.9,-206.1 -208.94,-206.1 -125.11,0 -234.35,60.22 -234.35,255 0,170.6 69.17,254.43 246.4,255.09z"/><path fill="#666052" d="M3908.81 2598.99l69.59 -198.53 126.11 0 -179.68 479.96 -153.45 0 -178.81 -479.96 133.63 0 69.65 198.53c27.29,78.15 38.55,115.78 55.55,172.25l1.82 0c16.98,-56.47 28.27,-94.1 55.59,-172.25z"/><path fill="#666052" d="M4272.98 2685.57c-8.45,8.54 -15.09,22.68 -15.09,47.99 0,52.74 34.81,61.21 79.99,61.21 51.78,0 80.93,-19.72 99.8,-47.01l0 -81.91c-28.23,-1.87 -55.57,-2.85 -71.54,-2.85 -44.28,0 -74.35,4.76 -93.16,22.57zm164.7 -144.91c0,-43.28 -0.98,-63.98 -115.82,-63.98 -32.86,0 -91.19,4.68 -151.47,17.85l0 -90.29c57.35,-15.06 142.1,-18.82 176.87,-18.82 156.31,0 212.74,35.72 212.74,160.91l0 334.09 -85.67 0 -16.02 -48.95 -0.84 0c-31.11,36.72 -86.65,59.29 -144.98,59.29 -55.51,0 -107.32,-11.3 -141.13,-44.24 -24.49,-24.43 -39.58,-62.13 -39.58,-107.28 0,-45.13 12.24,-82.8 36.72,-107.3 41.4,-40.42 123.29,-49.85 191,-49.85 27.34,0 50.89,0.96 78.18,2.86l0 -44.29z"/><path fill="#e6e7e8" d="M2189.46 2500.17c-17.84,17.91 -26.34,45.25 -29.1,82.88l190.02 0c0.98,-12.28 0.98,-18.87 0.98,-19.78 0,-28.26 -6.61,-50.78 -20.7,-64.97 -15.99,-15.97 -39.52,-21.62 -66.8,-21.62 -27.3,0 -56.47,5.65 -74.4,23.49z"/><path fill="#e6e7e8" d="M3276.35 2500.17c-17.85,17.91 -26.33,45.25 -29.15,82.88l190.1 0c0.98,-12.28 0.98,-18.87 0.98,-19.78 0,-28.26 -6.59,-50.78 -20.7,-64.97 -15.97,-15.97 -39.53,-21.62 -66.8,-21.62 -27.34,0 -56.5,5.65 -74.43,23.49z"/></g><g><path fill="#278a89" d="M3569.18 2079.09l-98.72 -159.67 -5.75 187.58 104.47 -27.91zm374.39 -248.39l-165.32 -88.94 88.82 165.34 76.5 -76.4zm-1225.13 76.27l88.93 -165.33 -165.34 88.82 76.41 76.51zm402.3 200.03l-5.63 -187.63 -98.79 159.58 104.42 28.05z"/><path fill="#e96844" d="M3105.29 931.13l-297.8 -160.35 -88.82 -165.34 291.03 160.11 6.86 -332.09 98.76 159.59 -10.03 338.08zm-137.44 137.34l-338.08 10.05 -159.59 -98.78 332.09 -6.86 -160.11 -291.03 165.33 88.82 160.36 297.8zm-50.36 187.67l-287.76 177.74 -187.6 -5.76 284.17 -171.98 -284.17 -171.98 187.59 -5.74 287.77 177.72zm50.22 187.7l-160.34 297.8 -165.34 88.82 160.11 -291.03 -332.09 -6.86 159.58 -98.76 338.08 10.03z"/><path fill="#e47551" d="M3105.3 931.13l-233.99 -125.98c26.86,-25.11 55.94,-47.85 86.95,-67.89l51.44 28.29 1.21 -58.76c32.51,-16.72 66.72,-30.6 102.26,-41.4l-7.87 265.74zm-263.57 746.69c-25.11,-26.85 -47.85,-55.94 -67.89,-86.95l28.3 -51.44 -58.76 -1.21c-16.71,-32.51 -30.6,-66.71 -41.39,-102.26l265.72 7.88 -125.98 233.98zm-150.49 -281.94c-8.17,-35.39 -13.3,-71.95 -15.1,-109.38l50.16 -30.36 -50.15 -30.36c1.82,-37.41 6.95,-73.96 15.15,-109.33l226.19 139.69 -226.25 139.74zm10.81 -319.51c10.81,-35.55 24.72,-69.76 41.46,-102.28l58.76 -1.21 -28.29 -51.42c20.05,-30.99 42.79,-60.06 67.9,-86.9l125.97 233.91 -265.8 7.9z"/><path fill="#cd9539" fill-rule="nonzero" d="M4143.6 1428.39l-187.63 5.64 159.59 98.78 28.04 -104.42zm-27.91 -448.42l-159.69 98.7 187.6 5.75 -27.91 -104.45zm-248.39 -374.39l-88.93 165.32 165.34 -88.82 -76.41 -76.5zm-402.31 -200.03l5.64 187.63 98.78 -159.59 -104.42 -28.04z"/><path fill="#c35940" d="M2470.05 1532.57l159.68 -98.69 -187.6 -5.76 27.92 104.45zm-27.92 -448.41l187.64 -5.64 -159.59 -98.78 -28.05 104.42zm200.03 -402.31l165.33 88.93 -88.82 -165.34 -76.51 76.41zm374.4 -248.39l98.71 159.67 5.76 -187.58 -104.47 27.91z"/><path fill="#fbb33c" d="M3668.24 1256.41l287.76 -177.74 187.6 5.75 -284.17 171.99 284.17 171.98 -187.58 5.74 -287.78 -177.72zm-50.22 -187.7l160.35 -297.81 165.34 -88.82 -160.11 291.03 332.09 6.86 -159.59 98.77 -338.08 -10.03zm-137.34 -137.45l-10.05 -338.08 98.78 -159.59 6.86 332.09 291.03 -160.1 -88.82 165.32 -297.8 160.36zm-187.67 -50.35l-177.74 -287.78 5.76 -187.58 171.98 284.17 171.98 -284.17 5.76 187.58 -177.74 287.78z"/><path fill="#f5b64e" d="M3668.24 1256.4l226.26 -139.74c8.17,35.39 13.3,71.96 15.1,109.38l-50.16 30.36 50.15 30.36c-1.82,37.42 -6.96,73.96 -15.15,109.33l-226.2 -139.69zm-344.87 -616.85c37.42,1.83 73.97,6.96 109.35,15.16l-139.71 226.2 -139.74 -226.26c35.38,-8.19 71.95,-13.3 109.38,-15.11l30.36 50.17 30.36 -50.16zm149.41 25.91c35.55,10.82 69.76,24.72 102.28,41.46l1.21 58.77 51.42 -28.29c30.99,20.04 60.06,42.79 86.9,67.9l-233.91 125.96 -7.9 -265.8zm271.23 169.26c25.11,26.85 47.84,55.95 67.88,86.96l-28.29 51.43 58.76 1.22c16.72,32.51 30.6,66.72 41.39,102.26l-265.73 -7.88 125.99 -233.99z"/><path fill="#f1ba63" d="M3668.24 1256.4l196.1 -121.12c7.54,35.78 11.79,72.76 12.46,110.62l-17.36 10.5 17.35 10.51c-0.67,37.84 -4.94,74.81 -12.49,110.57l-196.06 -121.08zm-364.72 -584.05c37.85,0.68 74.82,4.95 110.58,12.5l-121.09 196.06 -121.12 -196.12c35.78,-7.54 72.76,-11.78 110.61,-12.44l10.51 17.36 10.51 -17.36zm170.31 28.49c35.64,11.6 69.76,26.54 102.02,44.43l0.42 20.42 17.89 -9.84c31.88,19.23 61.77,41.43 89.3,66.21l-202.78 109.2 -6.85 -230.42zm253.41 165.02c24.77,27.55 46.97,57.46 66.2,89.37l-9.84 17.88 20.41 0.43c17.87,32.25 32.78,66.38 44.37,102l-230.36 -6.83 109.22 -202.85z"/><path fill="#edbe74" d="M3668.24 1256.4l165.75 -102.37c6.22,33.13 9.52,67.3 9.52,102.24 0,35.02 -3.31,69.26 -9.56,102.47l-165.71 -102.34zm-375.37 -550.76c35.03,0 69.28,3.3 102.49,9.56l-102.35 165.71 -102.38 -165.76c33.14,-6.22 67.3,-9.51 102.24,-9.51zm182.02 30.84c65.63,22.98 125.59,58.02 177.2,102.48l-171.41 92.3 -5.79 -194.78zm235.46 160.76c44.44,51.63 79.46,111.61 102.4,177.25l-194.73 -5.78 92.33 -171.47z"/><path fill="#e9c184" d="M3668.24 1256.4l135.13 -83.46c4.4,27.13 6.72,54.96 6.72,83.33 0,28.45 -2.34,56.36 -6.76,83.56l-135.09 -83.43zm-375.37 -517.34c28.46,0 56.37,2.32 83.58,6.76l-83.44 135.09 -83.46 -135.14c27.12,-4.39 54.95,-6.71 83.32,-6.71zm183.09 33.38c52.82,20 101.53,48.4 144.47,83.57l-139.75 75.25 -4.72 -158.82zm217.33 156.47c35.15,42.95 63.53,91.67 83.51,144.51l-158.78 -4.71 75.27 -139.8z"/><path fill="#e5c694" d="M3668.24 1256.4l104.18 -64.34c2.79,21.02 4.25,42.44 4.25,64.21 0,21.86 -1.48,43.36 -4.29,64.45l-104.14 -64.32zm-375.37 -483.92c21.86,0 43.37,1.47 64.46,4.28l-64.32 104.15 -64.34 -104.18c21,-2.79 42.43,-4.25 64.2,-4.25zm184.17 36.32c40.11,16.53 77.52,38.3 111.37,64.45l-107.73 58.01 -3.64 -122.46zm199.01 152.13c26.13,33.86 47.88,71.28 64.39,111.41l-122.42 -3.63 58.03 -107.78z"/><path fill="#e0c8a4" d="M3668.24 1256.4l72.79 -44.95c1.46,14.74 2.22,29.7 2.22,44.82 0,15.22 -0.77,30.25 -2.24,45.07l-72.77 -44.94zm-375.37 -450.5c15.22,0 30.26,0.76 45.09,2.24l-44.95 72.77 -44.95 -72.8c14.74,-1.46 29.68,-2.21 44.81,-2.21zm185.26 39.74c27.54,12.45 53.59,27.6 77.84,45.08l-75.29 40.54 -2.55 -85.62zm180.45 147.75c17.46,24.26 32.59,50.31 45.02,77.86l-85.58 -2.54 40.56 -75.32z"/><path fill="#dcccb4" d="M3668.24 1256.4l40.81 -25.2c0.5,8.3 0.78,16.65 0.78,25.07 0,8.51 -0.29,16.95 -0.79,25.33l-40.8 -25.2zm-375.37 -417.08c8.51,0 16.96,0.28 25.34,0.78l-25.2 40.81 -25.21 -40.82c8.3,-0.49 16.65,-0.77 25.07,-0.77zm186.38 43.9c15.1,7.56 29.69,16.02 43.68,25.29l-42.25 22.75 -1.43 -48.04zm161.53 143.22c9.27,14 17.71,28.58 25.26,43.69l-48.02 -1.42 22.76 -42.27z"/><path fill="#2fa6aa" d="M3105.06 1581.29l10.05 338.08 -98.79 159.58 -6.86 -332.09 -291.02 160.11 88.81 -165.33 297.81 -160.35zm187.67 50.35l177.73 287.78 -5.75 187.58 -171.98 -284.17 -171.99 284.17 -5.75 -187.58 177.74 -287.78zm187.71 -50.22l297.81 160.34 88.82 165.34 -291.03 -160.1 -6.86 332.09 -98.77 -159.59 10.03 -338.08zm137.45 -137.35l338.08 -10.04 159.59 98.78 -332.09 6.86 160.1 291.03 -165.32 -88.82 -160.36 -297.81z"/><path fill="#50a9ae" d="M3105.06 1581.28l7.9 265.81c-35.56,-10.81 -69.77,-24.72 -102.29,-41.46l-1.21 -58.77 -51.42 28.29c-30.99,-20.04 -60.06,-42.8 -86.9,-67.9l233.92 -125.97zm778.63 -145.11c-10.81,35.56 -24.72,69.77 -41.46,102.29l-58.77 1.21 28.29 51.42c-20.04,30.99 -42.79,60.07 -67.9,86.9l-125.96 -233.91 265.8 -7.91zm-169.26 271.23c-26.86,25.11 -55.94,47.85 -86.95,67.89l-51.44 -28.29 -1.22 58.76c-32.51,16.72 -66.71,30.6 -102.26,41.4l7.88 -265.74 233.99 125.98zm-281.96 150.5c-35.39,8.18 -71.95,13.3 -109.37,15.1l-30.37 -50.17 -30.37 50.17c-37.41,-1.83 -73.97,-6.96 -109.34,-15.16l139.71 -226.2 139.74 226.26z"/><path fill="#66aeb2" d="M3105.06 1581.28l6.85 230.43c-35.64,-11.61 -69.77,-26.53 -102.03,-44.44l-0.42 -20.41 -17.88 9.84c-31.88,-19.23 -61.78,-41.44 -89.31,-66.22l202.79 -109.2zm743.24 -144.05c-11.6,35.63 -26.53,69.76 -44.43,102.02l-20.41 0.42 9.84 17.88c-19.23,31.89 -41.43,61.78 -66.21,89.31l-109.2 -202.78 230.41 -6.85zm-165.01 253.41c-27.55,24.78 -57.46,46.97 -89.37,66.2l-17.88 -9.84 -0.43 20.41c-32.25,17.88 -66.38,32.79 -102.01,44.37l6.84 -230.36 202.85 109.22zm-269.43 137.12c-35.78,7.53 -72.76,11.78 -110.62,12.44l-10.51 -17.37 -10.51 17.37c-37.85,-0.68 -74.83,-4.95 -110.58,-12.5l121.09 -196.06 121.13 196.12z"/><path fill="#78b2b7" d="M3105.06 1581.28l5.79 194.79c-65.63,-22.98 -125.59,-58.02 -177.21,-102.48l171.42 -92.31zm707.61 -143c-22.98,65.62 -58.02,125.59 -102.48,177.21l-92.3 -171.41 194.78 -5.8zm-160.75 235.46c-51.64,44.44 -111.61,79.47 -177.26,102.41l5.78 -194.73 171.48 92.32zm-256.82 123.66c-33.13,6.22 -67.29,9.51 -102.23,9.51 -35.03,0 -69.29,-3.3 -102.49,-9.56l102.35 -165.71 102.37 165.76z"/><path fill="#89b8bc" d="M3105.06 1581.28l4.72 158.83c-52.84,-20 -101.54,-48.4 -144.48,-83.57l139.76 -75.26zm671.65 -141.93c-20,52.83 -48.4,101.54 -83.57,144.48l-75.25 -139.75 158.82 -4.73zm-156.46 217.34c-42.96,35.15 -91.67,63.53 -144.52,83.51l4.71 -158.78 139.81 75.27zm-244.06 110.09c-27.13,4.39 -54.95,6.71 -83.32,6.71 -28.46,0 -56.38,-2.33 -83.58,-6.76l83.44 -135.09 83.46 135.14z"/><path fill="#99bcc0" d="M3105.06 1581.28l3.64 122.47c-40.12,-16.53 -77.53,-38.3 -111.37,-64.45l107.73 -58.02zm635.28 -140.84c-16.53,40.11 -38.29,77.52 -64.44,111.37l-58.01 -107.73 122.45 -3.64zm-152.12 199.01c-33.86,26.13 -71.28,47.88 -111.41,64.39l3.63 -122.42 107.78 58.03zm-231.15 96.37c-21,2.79 -42.43,4.25 -64.2,4.25 -21.86,0 -43.37,-1.47 -64.46,-4.28l64.32 -104.15 64.34 104.18z"/><path fill="#a8c2c4" d="M3105.06 1581.28l2.54 85.63c-27.53,-12.44 -53.58,-27.6 -77.83,-45.08l75.29 -40.55zm598.44 -139.75c-12.44,27.54 -27.59,53.58 -45.07,77.83l-40.54 -75.28 85.61 -2.55zm-147.74 180.45c-24.25,17.47 -50.31,32.6 -77.86,45.03l2.54 -85.59 75.32 40.56zm-218.07 82.46c-14.74,1.46 -29.7,2.21 -44.82,2.21 -15.22,0 -30.26,-0.77 -45.09,-2.24l44.95 -72.77 44.96 72.8z"/><path fill="#b6c7c9" d="M3105.06 1581.28l1.43 48.05c-15.11,-7.56 -29.69,-16.02 -43.69,-25.29l42.26 -22.76zm560.86 -138.63c-7.56,15.1 -16.01,29.69 -25.28,43.68l-22.75 -42.25 48.03 -1.43zm-143.2 161.53c-13.99,9.27 -28.59,17.71 -43.7,25.26l1.42 -48.02 42.28 22.76zm-204.78 68.28c-8.3,0.49 -16.65,0.77 -25.07,0.77 -8.51,0 -16.96,-0.28 -25.34,-0.78l25.2 -40.81 25.21 40.82z"/><path fill="#e2815f" d="M3105.3 931.13l-202.85 -109.22c27.55,-24.78 57.46,-46.96 89.36,-66.2l17.89 9.84 0.42 -20.41c32.25,-17.89 66.38,-32.78 102.01,-44.37l-6.83 230.36zm-246.8 715.55c-24.77,-27.54 -46.97,-57.46 -66.2,-89.36l9.84 -17.89 -20.41 -0.42c-17.88,-32.25 -32.78,-66.38 -44.37,-102l230.35 6.83 -109.21 202.84zm-137.11 -269.41c-7.53,-35.78 -11.79,-72.77 -12.45,-110.63l17.36 -10.5 -17.35 -10.5c0.68,-37.86 4.94,-74.82 12.49,-110.57l196.05 121.07 -196.1 121.13zm16.05 -301.95c11.6,-35.63 26.53,-69.76 44.43,-102.02l20.4 -0.42 -9.83 -17.88c19.23,-31.89 41.43,-61.78 66.21,-89.31l109.2 202.78 -230.41 6.85z"/><path fill="#e08d6d" d="M3105.3 931.13l-171.48 -92.32c51.63,-44.45 111.61,-79.46 177.25,-102.41l-5.77 194.73zm-229.91 684.18c-44.43,-51.63 -79.46,-111.61 -102.4,-177.25l194.72 5.78 -92.32 171.47zm-123.64 -256.79c-6.22,-33.14 -9.52,-67.3 -9.52,-102.25 0,-35.02 3.3,-69.27 9.56,-102.46l165.7 102.33 -165.74 102.38zm21.32 -284.26c22.98,-65.62 58.02,-125.59 102.48,-177.2l92.3 171.41 -194.78 5.79z"/><path fill="#dd997c" d="M3105.3 931.13l-139.81 -75.27c42.95,-35.16 91.68,-63.52 144.52,-83.51l-4.71 158.78zm-212.86 652.51c-35.15,-42.96 -63.53,-91.67 -83.5,-144.51l158.77 4.71 -75.27 139.8zm-110.07 -244.04c-4.4,-27.13 -6.72,-54.96 -6.72,-83.33 0,-28.45 2.32,-56.36 6.75,-83.56l135.09 83.43 -135.12 83.46zm26.66 -266.41c20.01,-52.83 48.4,-101.53 83.57,-144.47l75.25 139.75 -158.82 4.72z"/><path fill="#dca58b" d="M3105.3 931.13l-107.78 -58.03c33.86,-26.13 71.28,-47.88 111.41,-64.39l-3.63 122.42zm-195.61 620.48c-26.14,-33.86 -47.88,-71.28 -64.39,-111.4l122.41 3.63 -58.02 107.77zm-96.37 -231.13c-2.79,-21.01 -4.25,-42.43 -4.25,-64.21 0,-21.85 1.47,-43.36 4.28,-64.45l104.14 64.32 -104.17 64.34zm32.07 -248.37c16.53,-40.11 38.29,-77.52 64.45,-111.37l58.01 107.73 -122.46 3.64z"/><path fill="#dab19d" d="M3105.3 931.13l-75.33 -40.56c24.26,-17.47 50.32,-32.59 77.86,-45.03l-2.53 85.59zm-178.14 588.02c-17.46,-24.25 -32.6,-50.31 -45.02,-77.85l85.57 2.54 -40.55 75.31zm-82.45 -218.06c-1.46,-14.74 -2.22,-29.69 -2.22,-44.82 0,-15.21 0.77,-30.24 2.24,-45.07l72.76 44.94 -72.78 44.95zm37.53 -230.07c12.44,-27.53 27.59,-53.58 45.07,-77.83l40.54 75.28 -85.61 2.55z"/><path fill="#d8bdae" d="M3105.3 931.13l-42.28 -22.76c14,-9.27 28.59,-17.71 43.7,-25.27l-1.42 48.03zm-160.35 554.98c-9.26,-13.99 -17.7,-28.58 -25.25,-43.69l48.01 1.42 -22.76 42.27zm-68.26 -204.76c-0.5,-8.3 -0.78,-16.65 -0.78,-25.08 0,-8.51 0.29,-16.95 0.79,-25.33l40.79 25.2 -40.8 25.21zm43.13 -211.45c7.56,-15.1 16.01,-29.69 25.28,-43.68l22.75 42.25 -48.03 1.43z"/></g></g></svg>