<svg  id="fndm-3b8z1u8tj7" viewBox="0.34100425243377686 0 349.6589660644531 114.50017547607422" xmlns="http://www.w3.org/2000/svg">
   <g xmlns="http://www.w3.org/2000/svg" fill="none">
    <path d="m7.5,1c0.35,0.55 1.3,1 2.15,1c3.5,0 18,8.65 23.35,13.95c10.5,10.35 12.85,21.15 7.05,32.6c-3.9,7.7 -3.35,7.8 3.95,0.85c16.85,-16.05 21.5,-32 13.2,-45.15l-2.7,-4.25l-23.8,0c-15.65,0 -23.6,0.35 -23.2,1z" fill="#4DA7CA"/>
    <path d="m28.75,37.95c-26.35,17.65 -26.15,40.2 0.7,67.05l8.75,8.75l22.15,0.45c24.65,0.5 24.2,0.55 19.65,-1.9c-11.85,-6.5 -31.75,-22.75 -40.65,-33.2c-14.4,-16.85 -16.5,-30.25 -6.3,-40.65c6.1,-6.2 4.5,-6.35 -4.3,-0.5z" fill="#E37639"/>
    <path d="m84.5,49.9c-13.85,6.35 -14.8,31.05 -1.5,37.95c4.55,2.35 17.15,2.7 22.3,0.6c3.05,-1.2 1.9,-7.05 -1.3,-6.7c-1.35,0.15 -4.75,0.55 -7.5,0.85c-8.3,0.95 -12.4,-1.8 -14,-9.35l-0.65,-3.25l26.15,0l0,-5.25c0,-12.9 -11.7,-20.3 -23.5,-14.85zm12.75,6.85c0.9,0.95 1.9,3 2.3,4.5l0.65,2.75l-8.6,0c-8,0 -8.6,-0.15 -8.6,-2.05c0,-5.6 10.45,-9.45 14.25,-5.2zm34.15,-7.35c-1.7,0.75 -4.05,2.6 -5.25,4.1l-2.15,2.75l0,-3.6c0,-3.6 -0.05,-3.65 -4,-3.65l-4,0l0,40l9,0l0,-12.05c0,-14.95 2,-19.7 9.15,-21.45c5.75,-1.45 6.85,1.55 6.85,18.5l0,15l9,0l0,-15.55c0,-18.2 -0.95,-21.7 -6.45,-24c-4.3,-1.8 -8.1,-1.8 -12.15,-0.05zm35.8,0.7c-12.9,6.4 -13.7,31 -1.2,37.6c9.15,4.85 24,2.6 24,-3.65l0,-3.8l-3.75,1.3c-8.65,3.1 -17.15,1 -19.15,-4.65c-2.6,-7.45 -2.65,-7.45 12.05,-7.1l13.15,0.3l-0.55,-6.1c-1.2,-13.2 -12.7,-19.75 -24.55,-13.9zm13.8,6.9c4.85,4.85 2.85,7 -6.5,7c-9.6,0 -10.3,-0.7 -5.9,-5.9c3.2,-3.8 9.15,-4.35 12.4,-1.1zm31.5,-6.85c-1.5,1.2 -3.4,3.55 -4.15,5.25c-1.45,3.1 -1.45,3.1 -0.85,-1.65l0.6,-4.75l-8.6,0l-0.1,20l-0.05,20l9.15,0l0,-11.25c0,-16.05 1.95,-20.75 8.5,-20.75c1.9,0 3,-0.5 3,-1.4c0,-0.75 0.3,-2.75 0.65,-4.5c0.75,-3.9 -3.65,-4.45 -8.15,-0.95zm26,-0.8c-8.65,2.8 -13.9,9 -15.1,17.75c-2.25,16.4 12.25,26.55 31.15,21.8l4.45,-1.15l0,-19.75l-8,0l0,6.9c0,6.85 -0.05,6.95 -2.9,7.6c-7.15,1.55 -14.35,-3.1 -15.65,-10c-2.2,-11.5 7,-19.3 19.1,-16.2l5.5,1.4l0.55,-2.6c0.3,-1.45 0.7,-3.1 0.9,-3.75c0.75,-2.5 -14.05,-4 -20,-2zm59,-0.45c-16.8,3 -18.3,17.45 -2.35,23.25c6.65,2.4 9.3,4.85 8.4,7.65c-1.05,3.35 -9.1,3.6 -16.95,0.6c-1.5,-0.6 -1.7,-0.1 -1.4,3.7c0.65,8.95 22.05,7.7 26.45,-1.55c3.45,-7.2 1.15,-11.1 -9.95,-16.55c-12.1,-5.95 -11.05,-11.8 1.95,-10.75c6,0.5 6.2,0.45 6.7,-2.1c0.8,-4.1 -4.25,-5.75 -12.85,-4.25zm27.75,0.25c-4.8,0.9 -5.25,1.25 -5.25,3.7c0.05,4.55 1.05,5.25 5.55,3.65c8.65,-3.1 15.45,-0.9 15.45,5c0,2.3 -0.4,2.5 -4.35,2.5c-16.15,0 -25.3,13.5 -15.7,23.15c4.9,4.85 16.45,3.15 20,-3c0.8,-1.3 1,-1.05 1,1.5c0.05,2.95 0.3,3.15 4.05,3.5l4,0.4l0,-16c-0.05,-23.85 -4.6,-28.3 -24.75,-24.4zm15.75,22.4c0,9.3 -11,15.35 -14.95,8.25c-2.1,-3.8 0.9,-7.85 7.05,-9.45c6.9,-1.85 7.9,-1.7 7.9,1.2zm-74,-2.55l0,20l9,0l0,-40l-9,0l0,20z" fill="#4EA8C9"/>
    <path d="m1.7,74.1c-2.65,10.55 -1.35,24.85 3.25,35.55l2.1,4.85l13.95,0c16.05,0 15.85,0.1 8.3,-4.45c-12.35,-7.35 -22.45,-20.15 -25.35,-32.05c-1.35,-5.45 -1.7,-6.1 -2.25,-3.9z" fill="#E37639"/>
   </g>
  </svg>