<svg xmlns="http://www.w3.org/2000/svg" fill-rule="evenodd" clip-rule="evenodd" image-rendering="optimizeQuality" shape-rendering="geometricPrecision" text-rendering="geometricPrecision" viewBox="-2 1 6600 3300"><g><rect width="6600" height="3300" x="-2" y="1" fill="none"/><g><g><g><path fill="#4f392b" fill-rule="nonzero" d="M1464.36 1511.63c-92.1,0 -192.05,-50.83 -211.64,-191.47l0 -5.84 568.3 0 0 -84.02c0,-263.73 -115.64,-443.49 -399.76,-443.49 -321.4,0 -466.41,197.35 -466.41,484.52 0,298.92 192.05,480.61 466.38,480.61 305.68,0 415.44,-203.19 415.44,-203.19l-146.98 -152.38c0.03,0 -76.41,115.27 -225.33,115.27l0 -0.01zm-60.76 -498.2c92.11,0 137.21,52.74 137.21,140.7l-282.22 0c19.6,-97.7 72.51,-140.7 145.01,-140.7zm1463.81 720.95l0 -224.68c-58.78,0 -78.38,-27.37 -78.38,-80.11l0 -267.61c0,-205.16 -94.07,-375.13 -335.09,-375.13 -172.45,0 -244.96,76.17 -270.43,148.47l0 -17.59c-27.44,-89.86 -94.07,-128.91 -203.8,-128.91 -84.25,0 -131.29,15.58 -131.29,15.58l0 224.69c60.76,0 78.42,29.34 78.42,78.18l0 632.99 295.9 0 0 -539.26c3.9,-60.59 37.22,-146.54 143.04,-146.54 74.47,0 127.35,56.68 127.35,146.54l0 283.26c0,181.69 84.26,265.71 244.96,265.71 84.26,0.03 129.32,-15.59 129.32,-15.59zm180.26 -1441.87c-101.88,0 -180.29,72.27 -180.29,171.95 0,101.57 78.38,171.91 180.29,171.91 99.95,0 180.3,-70.34 180.3,-171.91 0,-99.68 -80.35,-171.95 -180.3,-171.95zm-145.01 1488.74c0,109.42 -39.19,177.75 -131.29,177.75 -47.04,0 -74.48,-19.49 -74.48,-19.49l-88.16 218.8c0,0 58.79,64.5 195.99,64.5 280.21,0 393.88,-177.82 393.88,-427.91l0 -996.37 -295.9 0 0 982.72 -0.04 0 0 0zm1744.09 -269.62c-92.14,0 -192.08,-50.83 -211.64,-191.47l0 -5.84 568.26 0 0 -84.02c0,-263.73 -115.64,-443.49 -399.79,-443.49 -292.74,0 -438.73,164.07 -462.47,410.31 -25,-243.49 -181.66,-410.31 -446.76,-410.31 -290.05,0 -450.69,199.28 -450.69,480.61 0,285.21 158.73,484.52 450.69,484.52 266.6,0 421.69,-169.63 446.72,-413.2 26.97,258.44 209.54,413.2 462.51,413.2 305.75,0 415.48,-203.19 415.48,-203.19l-146.98 -152.38c0,0 -76.41,115.27 -225.33,115.27l0 -0.01zm-60.83 -498.2c92.14,0 137.24,52.74 137.24,140.7l-282.25 0c19.67,-97.7 72.54,-140.7 145.01,-140.7zm-891.6 476.71c-121.48,0 -156.76,-85.96 -156.76,-220.75 0,-134.79 39.15,-220.78 156.76,-220.78 117.61,0 156.76,85.99 156.76,220.78 0,134.79 -35.25,220.75 -156.76,220.75zm1665.67 -60.59l0 -631.02 -295.9 0 0 685.77c0,181.69 84.22,265.7 244.96,265.7 84.22,0 129.35,-15.62 129.35,-15.62l0 -224.68c-60.78,0 -78.41,-27.37 -78.41,-80.15l0 0zm-148.95 -793.18c99.94,0 182.23,-70.34 182.23,-171.91 0,-99.68 -82.28,-171.95 -182.23,-171.95 -99.91,0 -180.3,72.27 -180.3,171.95 0.04,101.57 80.39,171.91 180.3,171.91zm333.8 160.49c-53.9,0 -96.89,41.74 -96.89,93.74 0,53.18 42.99,94.88 96.89,94.88 54.47,0 96.31,-41.7 96.31,-94.88 0,-52 -41.84,-93.74 -96.31,-93.74zm0.57 168.62c-42.41,0 -73.38,-33.15 -73.38,-74.88 0,-41.13 30.97,-74.89 72.84,-74.89 41.88,0 72.24,33.76 72.24,75.46 -0.04,41.16 -30.4,74.31 -71.69,74.31l-0.01 0zm21.23 -72.03l0 -1.12c11.44,-3.43 19.46,-11.41 19.46,-21.7 0,-9.14 -3.97,-16.58 -9.17,-20.58 -6.86,-4.01 -14.91,-6.86 -32.7,-6.86 -15.46,0 -27.48,1.15 -36.07,2.85l0 93.7 21.77 0 0 -37.7 10.36 0c12.02,0 17.76,4.59 19.46,14.88 2.88,10.86 4.61,19.42 7.47,22.85l23.5 0c-2.28,-3.43 -4.01,-9.13 -6.9,-23.4 -2.85,-12.6 -8.01,-19.49 -17.18,-22.92zm-25.78 -6.83l-10.35 0 0 -26.86c2.27,-0.58 6.31,-1.16 12.02,-1.16 13.75,0 20.07,5.74 20.07,14.3 0.03,9.71 -9.71,13.72 -21.74,13.72z"/></g></g><path fill="#e47777" fill-rule="nonzero" d="M3340.35 1851.89l1635.37 0c0,90.84 4.69,372.68 4.69,498.47 0,496.1 -259.32,659.14 -542.01,659.14 -292.03,0 -549.01,-225.94 -549.01,-603.27 0,-34.95 0,-123.45 7,-181.69l-556.04 0 0 -372.65 0 0zm1284.97 372.65l-373.84 0c-7,53.55 -11.65,116.45 -11.65,170 0,97.84 42.01,218.95 200.88,218.95 144.91,0 189.23,-93.16 189.23,-225.91 0.03,-48.94 -2.31,-86.16 -4.62,-163.04l0 0z"/></g></g></svg>