<svg  id="fndm-gwe8yki2wv" viewBox="0.3646557331085205 0.4714818000793457 449.1353454589844 146.86500549316406" xmlns="http://www.w3.org/2000/svg">
   <g xmlns="http://www.w3.org/2000/svg" fill="none">
    <path d="m9,1.25c0,0.4 0.55,0.75 1.2,0.75c3,0 20.3,9.5 27.05,14.85c17.25,13.7 21.85,29.5 13.5,46.35c-4.5,9.05 -3.1,8.6 7.7,-2.5c20.95,-21.5 25.2,-41.6 12.25,-57.9c-1.4,-1.8 -61.7,-3.3 -61.7,-1.55zm91.9,30.65c-6,6.05 -2.65,13.05 6.35,13.1l4.75,0l0,-4c0,-2.9 -0.4,-4 -1.5,-4c-0.95,0 -1.5,0.95 -1.5,2.5c0,2.75 -3.55,3.55 -5.8,1.3c-3.35,-3.35 0.15,-9.4 4.9,-8.45c3.1,0.65 5,-1.05 2.8,-2.45c-2.85,-1.8 -7,-0.95 -10,2zm16.1,5.1c0,8.4 2.5,12.1 3.2,4.75l0.3,-3.25l1.8,3.25c1.25,2.35 2.45,3.25 4.3,3.25l2.6,0l-2.65,-3.15c-2.6,-3.1 -2.6,-3.1 -0.6,-4.55c4.4,-3.05 0.8,-8.3 -5.65,-8.3l-3.3,0l0,8zm6.5,-2.5c0,1.1 -0.8,2.1 -1.75,2.3c-1.3,0.25 -1.75,-0.3 -1.75,-2.3c0,-2 0.45,-2.55 1.75,-2.3c0.95,0.2 1.75,1.2 1.75,2.3zm8.5,0.75c0,7.9 1.35,9.95 6.35,9.95c5.9,0 7.65,-2.3 7.65,-9.95c0,-8.1 -3.4,-9.3 -3.6,-1.2c-0.2,7.95 -0.2,7.95 -3.35,7.95c-3.45,0 -4.4,-2 -3.9,-8.25c0.3,-3.35 0,-4.3 -1.4,-4.55c-1.5,-0.3 -1.75,0.5 -1.75,6.05zm19,1.6c0,6.6 0.3,8.15 1.5,8.15c0.95,0 1.5,-0.95 1.5,-2.5c0,-1.95 0.5,-2.5 2.35,-2.5c8.35,0 7.15,-9.6 -1.3,-10.7l-4.05,-0.55l0,8.1zm6.95,-3.4c1.55,1.85 0.55,3.55 -2,3.55c-1.4,0 -1.95,-0.7 -1.95,-2.5c0,-2.8 2.05,-3.35 3.95,-1.05z" fill="#4C94B4"/>
    <path d="m166.8,32.05c-5.5,5.5 -2.45,12.95 5.3,12.95c7.1,0 10.5,-8.5 5.45,-13.55c-3.35,-3.35 -7,-3.15 -10.75,0.6zm7.25,1c4.15,2.2 1.95,9.3 -2.65,8.8c-2.5,-0.3 -2.95,-0.85 -3.25,-3.8c-0.45,-4.7 2.25,-7 5.9,-5zm-129.75,11.4c-4.8,2.1 -14.25,8.75 -19.05,13.4c-22.85,22.2 -18.15,49.1 13.85,79.55l9.9,9.45l27.75,0.35c26.05,0.3 30.5,0.15 27.55,-0.9c-7.1,-2.55 -35.35,-24.35 -47.95,-36.95c-25.4,-25.5 -29.7,-45.95 -12.95,-61.55c5.55,-5.2 5.6,-5.4 0.9,-3.35zm66.25,19c-10.95,2.95 -17.3,14.55 -16.3,29.7c1.15,16.7 10.05,23.75 28.25,22.55c12.5,-0.85 14.65,-1.95 13.85,-7.05c-0.8,-5.2 -0.3,-4.95 -5.3,-3.15c-13.65,4.8 -23.8,0.3 -25.65,-11.4l-0.65,-4.1l16.55,0c19.05,0 18.6,0.25 16.8,-9.45c-2.7,-14.55 -13.05,-21 -27.55,-17.1zm13.8,10.2c1.45,1.45 2.65,3.2 2.65,3.9c0,0.7 0.25,2 0.6,2.85c0.55,1.4 -0.8,1.6 -10.95,1.6l-11.55,0l1.05,-2.95c2.8,-8.1 12.6,-11 18.2,-5.4zm47.15,-10.75c-4.9,1.25 -7.4,2.95 -10.55,7.35l-3,4.15l0.65,-5.7l0.7,-5.7l-10.8,0l0,52l11.5,0l0,-15.55c0,-20.6 3.2,-27.45 12.85,-27.45c7.4,0.05 8.15,2.3 8.15,25.05l0,17.95l11.15,0l-0.35,-21.25c-0.35,-23.45 -1,-26.25 -6.7,-29.2c-3.7,-1.9 -9.75,-2.65 -13.6,-1.65zm48,0c-11.9,3.1 -17.95,12.2 -17.9,27.15c0,21 13.65,30.05 36.9,24.6l5,-1.2l-0.1,-4.25c-0.1,-5.4 -0.15,-5.4 -5.45,-3.55c-13.15,4.55 -23.45,-0.3 -25.25,-11.9l-0.55,-3.75l33.85,0l0,-4.3c0,-15.9 -12.3,-26.5 -26.5,-22.8zm10.55,9.15c2.1,1.1 4.95,5.95 4.95,8.4c0,1.3 -1.75,1.55 -11,1.55c-11.75,0 -12,-0.15 -9.5,-5c2.8,-5.45 10.25,-7.8 15.55,-4.95zm45.45,-8.65c-3.7,1.65 -7,5.15 -8.45,9c-1.6,4.2 -2.1,2.75 -1.15,-3.2c0.95,-6.25 1,-6.2 -5.05,-6.2l-4.85,0l0,52l11,0l0,-13.8c0,-20.9 3.15,-28.2 12.15,-28.2c2.1,0 2.7,-0.6 3.25,-3.15c1.6,-8 0,-9.5 -6.9,-6.45zm149,-0.8c-1.1,0.25 -4.65,0.95 -7.85,1.6l-5.85,1.1l0.45,4.4c0.65,5.65 0.3,5.5 7.25,3.15c10.45,-3.55 19.5,-0.5 19.5,6.5c0,2 -0.7,2.3 -7.85,3.25c-21.35,2.9 -30.55,18.9 -17.5,30.4c6.15,5.4 20.1,3.1 24.1,-3.95c2.4,-4.2 3.1,-3.8 2.5,1.45l-0.5,4.5l10.75,0l-0.5,-21.45c-0.55,-23.9 -0.95,-25.25 -8.05,-28.75c-3.55,-1.7 -12.95,-3 -16.45,-2.2zm13.5,29.5c0,10.65 -12.65,19.75 -18.15,13c-4.5,-5.6 -0.35,-13.3 7.95,-14.65c2.05,-0.3 4.4,-0.75 5.2,-0.9c4.3,-0.9 5,-0.55 5,2.55zm-134.55,-27.55c-20.6,7.6 -23.15,38.55 -4.05,48.75c4.85,2.6 21.9,3.1 29.35,0.9l4.25,-1.3l0,-24.9l-11,0l0,17.9l-4.3,0.65c-18.95,2.8 -27.65,-21.35 -11.6,-32.4c3.45,-2.35 14.95,-2.7 21.55,-0.65c2.35,0.75 5.05,-6.85 3.2,-8.95c-1.45,-1.65 -22.9,-1.7 -27.4,0zm39.55,24.4l0,26.05l11.5,0l-0.25,-25.75l-0.2,-25.75l-5.55,-0.3l-5.5,-0.3l0,26.05zm32.5,-24c-15.95,6.3 -14.1,21 3.5,28.15c18.75,7.6 10.55,18.55 -8.75,11.65l-4.25,-1.5l0,10.55l7.05,1.3c16,2.85 28.1,-3.35 28.35,-14.45c0.15,-6.55 -2.4,-9.4 -13.05,-14.65c-10.4,-5.15 -12.35,-6.55 -12.35,-8.95c0,-4.65 10,-7.5 18.2,-5.25l3.6,1l0.45,-4.15c0.25,-2.3 0.25,-4.4 0,-4.65c-1.35,-1.6 -18.05,-0.9 -22.75,0.95z" fill="#4C94B4"/>
    <path d="m1.6,96c-2.55,11.35 -1,32.45 3.25,43.5l2.7,7l17.95,0.5c21.55,0.65 21.2,0.75 13.45,-3.85c-18.05,-10.65 -32.45,-28.55 -35.25,-43.85c-1.25,-6.6 -1.3,-6.7 -2.1,-3.3z" fill="#D4D64D"/>
   </g>
  </svg>