<svg  id="fndm-bx4l4uk4wc" viewBox="0 0.08306533098220825 523.7557373046875 95.91693115234375" xmlns="http://www.w3.org/2000/svg">
   <g xmlns="http://www.w3.org/2000/svg" fill="#2F6B39">
    <path d="m425.5,0.9c-4.9,2.1 -5.5,3.9 -14.1,47.3c-4.6,23.3 -8.7,43.1 -9,44c-0.4,1.5 0.1,1.8 2.9,1.8c4.5,0 8.4,-3.2 9.6,-7.8c1.1,-4 17.1,-84.1 17.1,-85.4c0,-1 -3.9,-0.9 -6.5,0.1zm29,0c-5.1,2.1 -5.6,3.8 -14.5,48.9c-8.6,43 -8.7,43.7 -6.5,44c3.1,0.4 7.2,-1.4 8.9,-4c1.1,-1.7 18.6,-85.4 18.6,-89.1c0,-0.9 -4,-0.8 -6.5,0.2zm-184.1,3.1c-9,1.9 -18.2,7.9 -21.8,14.1l-2,3.4l4.1,-3.3c6.2,-4.9 14.1,-8.1 23.1,-9.4c6.8,-1 9.5,-0.9 17.4,0.5c5.1,0.9 10.3,2 11.5,2.3c1.6,0.4 2.3,0.1 2.8,-1.6c0.4,-1.2 0.5,-2.4 0.2,-2.6c-2.7,-2.8 -27.4,-5.1 -35.3,-3.4zm-254.7,9.2c-2.9,13.4 -15.7,78.3 -15.7,79.7c0,1 3.7,1.2 18.8,0.9c17.7,-0.3 19,-0.5 24.2,-2.9c10.4,-4.9 14.4,-10.9 14.5,-21.6c0,-6.3 -0.3,-7.6 -3,-11.5c-2,-2.8 -4.9,-5.2 -8.3,-7l-5.3,-2.7l4.4,-1.9c18.2,-8.1 23.5,-30.1 8.9,-37.3c-4.2,-2.1 -6.4,-2.4 -20.8,-2.7l-16.2,-0.4l-1.5,7.4zm31.6,3.2c9.3,6.2 1,23.6 -13.2,27.6c-4.5,1.2 -13.1,1.3 -13.1,0.1s5,-27.2 5.6,-29c0.7,-2.1 17,-1.1 20.7,1.3zm-10.7,39c7.1,3.3 9.6,7.3 9.1,14.2c-0.7,10.1 -7.6,15.1 -21.9,16c-4.5,0.3 -8.9,0.1 -9.6,-0.4c-1.1,-0.7 -0.8,-3.9 1.9,-17.2l3.2,-16.2l6,0.6c3.3,0.3 8.4,1.7 11.3,3zm189.7,-47.4c-1.8,1.1 -3.3,2.1 -3.3,2.2c0,0.2 -0.4,1.8 -0.9,3.6l-1,3.2l11.6,0l0.7,-3.9c0.3,-2.2 0.9,-4.6 1.2,-5.5c0.9,-2.3 -4.3,-2.1 -8.3,0.4z"/>
    <path d="m265.6,15.1c-15.6,5.3 -22.7,15.9 -17.7,26.3c1.7,3.4 4.6,6.3 11.9,11.9c14.3,11 16.1,13.7 13.9,20.4c-2.4,7.3 -13.6,9.4 -28.5,5.3c-9.1,-2.5 -8.9,-2.6 -9.4,0.9c-0.4,2.8 -0.1,3 4.1,4.1c7.2,1.9 26,2.5 32.2,1c15.3,-3.6 25.3,-12.4 25.4,-22.5c0,-6.7 -3.1,-11.3 -12.7,-18.5c-11.6,-8.8 -16.8,-14.2 -16.8,-17.6c0,-4.5 2.4,-7.1 8,-8.4c5.5,-1.3 14,-0.3 22.1,2.5c3.4,1.2 4.4,1.3 5.1,0.3c1.8,-2.8 0.2,-4.3 -6.2,-6c-9.4,-2.4 -23.9,-2.3 -31.4,0.3zm-111.3,2.8c-1.7,1.1 -3.4,2.8 -3.7,3.8c-2.3,7.5 -11.7,59.4 -11.2,62.1c1.1,6.8 5.1,10.3 13.3,11.6l4.2,0.6l0.8,-4.2c0.9,-4.2 0.8,-4.3 -2,-5c-5.9,-1.3 -6,-4 -1,-29.6l3.7,-19.2l5.3,0c4.4,0 5.3,-0.3 5.3,-1.8c0,-0.9 0.3,-2.7 0.6,-4c0.6,-2 0.3,-2.2 -3.8,-2.2c-2.5,0 -4.7,-0.3 -5,-0.6c-0.3,-0.3 -0.2,-2 0.2,-3.7c0.4,-1.8 1.1,-4.7 1.4,-6.5c0.5,-3 0.4,-3.2 -2.2,-3.2c-1.5,0 -4.1,0.9 -5.9,1.9zm35.7,-0.4c-1.4,0.7 -3.1,2.4 -3.8,3.7c-1.2,2.5 -10.9,50.2 -11.8,58.3c-0.9,8.8 3.8,14.5 13.3,15.9l4.2,0.6l0.8,-4.2c0.8,-4 0.7,-4.3 -1.3,-4.6c-3,-0.4 -5.6,-3.6 -5.6,-6.8c0,-1.5 1.7,-11.7 3.8,-22.6l3.9,-19.8l5.2,0c4.4,0 5.3,-0.3 5.3,-1.8c0,-0.9 0.3,-2.7 0.6,-4c0.6,-2 0.3,-2.2 -3.8,-2.2c-2.5,0 -4.7,-0.2 -5,-0.5c-0.3,-0.3 0.1,-3.1 0.8,-6.3c0.8,-3.1 1.4,-6 1.4,-6.5c0,-1.2 -5.3,-0.7 -8,0.8zm136.3,0.1c-1.7,0.9 -3.6,2.8 -4.2,4.2c-1.8,4.4 -11.3,54.3 -11.4,59.7c-0.2,8.2 3.9,12.5 13,13.9c4.2,0.6 4.2,0.6 5.2,-3.1c1.5,-5.2 1.4,-5.3 -1.2,-5.3c-3.3,0 -5.7,-3 -5.7,-7c0,-2.9 6.1,-35.2 7.6,-40.3c0.4,-1.3 1.6,-1.7 5.3,-1.7c4.6,0 4.9,-0.1 5.5,-3.1c0.9,-4.8 0.9,-4.9 -4,-4.9l-4.6,0l0.7,-4.8c0.3,-2.6 0.9,-5.7 1.2,-7c0.4,-1.8 0.1,-2.2 -1.8,-2.2c-1.3,0 -3.8,0.7 -5.6,1.6zm-222.8,11.7c-12.1,4 -21.5,12.8 -28.5,26.7c-8.1,16.1 -8.2,32.5 -0.2,37.8c3.3,2.2 10.1,1.8 15.4,-0.9c5.7,-2.9 14.1,-11 19.9,-19.3c2.7,-3.8 4.9,-6.3 4.9,-5.5c0,0.8 -1.3,6.9 -2.9,13.6l-2.8,12.3l11.3,0l5.9,-29.8c3.2,-16.3 6,-30.6 6.3,-31.8c0.3,-1.9 -0.2,-2.2 -6.5,-2.8c-16.1,-1.5 -18.9,-1.5 -22.8,-0.3zm15.5,9.2c1.1,1 2,3 2,4.4c0,6.6 -10.3,21.5 -23.3,33.8c-7.8,7.5 -11,9 -14.3,6.8c-2.1,-1.3 -2.4,-2.3 -2.4,-7.6c0,-14.6 10,-32.1 21.5,-37.6c5.9,-2.8 13.3,-2.7 16.5,0.2zm250.3,-8.6c-10.3,3.5 -17.9,10.6 -22.7,21.2c-10.4,22.6 -5.7,41.7 10.6,43.8c7.4,0.9 17,-0.4 25.6,-3.5c7.8,-2.8 8.6,-3.7 9.7,-10.1l0.7,-4.3l-4.5,2.5c-11.7,6.6 -24.9,8.5 -30.2,4.3c-3,-2.3 -5.5,-7.4 -5.5,-11.1c0,-2.1 0.7,-2.4 7,-3.5c21,-3.6 35.1,-15.8 33.8,-29.2c-0.3,-2.9 -1.3,-5.9 -2.4,-7.1c-4.4,-5 -13,-6.2 -22.1,-3zm12,10.3c5.2,6.9 -5,17.5 -20.1,20.7c-7.2,1.5 -7.3,1.5 -6.6,-1.7c1.2,-4.8 5.4,-12.3 9.6,-16.8c6.2,-6.7 13.1,-7.6 17.1,-2.2zm112.3,-10.7c-10.8,3.1 -21.2,12.8 -27.6,25.9c-8.4,17.2 -9.2,30.2 -2.1,37c3.7,3.6 10.1,3.8 16.8,0.5c5.6,-2.7 15.5,-12.3 20.2,-19.7c1.9,-2.8 3.7,-5.2 4.1,-5.2c0.4,0 -0.6,5.5 -2.1,12.3c-1.5,6.7 -2.8,12.5 -2.9,12.9c0,0.5 2.5,0.8 5.5,0.8l5.4,0l0.9,-3.8c0.6,-2 3.3,-15.9 6.2,-30.7c2.9,-14.9 5.5,-27.5 5.7,-28.1c0.4,-1.1 -0.9,-1.3 -19.2,-2.8c-3.6,-0.3 -7.9,0 -10.9,0.9zm13.1,7.6c3.5,1.3 4.3,2.5 4.3,6.9c0,6 -6.9,16.5 -19.8,30.2c-10.2,10.8 -18.1,13.2 -19.9,6c-1.1,-4.4 1.5,-16.2 5.3,-23.7c7.7,-15.5 19.8,-23.3 30.1,-19.4zm-286.3,-4.8c-2.5,2.1 -3.1,4.5 -8,29.3c-3,14.8 -5.6,28.1 -6,29.7c-0.5,2.4 -0.3,2.7 2,2.7c4,0 7.3,-2 9,-5.4c0.9,-1.7 3.9,-14.8 6.6,-29.1c2.8,-14.3 5.3,-26.8 5.6,-27.8c0.8,-2.7 -5.8,-2.3 -9.2,0.6z"/>
    <path d="m293.7,79.1c-3.3,3.4 -9.8,6.8 -17.7,9.4c-8.7,2.9 -27.7,2.4 -39.6,-1.1c-1.8,-0.5 -2.2,-0.1 -2.6,2.5c-0.2,1.7 -0.4,3.1 -0.4,3.1c0.1,0 2.8,0.5 6.1,1c8.3,1.5 26.1,1.4 33.2,0c9.6,-2 16.3,-6.1 21.7,-13.3c3.5,-4.6 3.1,-5.5 -0.7,-1.6z"/>
   </g>
  </svg>