<svg  id="fndm-wl1vkim6hg" viewBox="0.02801513671875 6.074000358581543 296.94500732421875 87.85200500488281" xmlns="http://www.w3.org/2000/svg">
   <path d="m52.407,62.059c0,3.291 -1.306,5.68 -3.913,7.208c-2.071,1.214 -5.044,1.798 -8.923,1.798c-3.87,0 -6.844,-0.627 -8.957,-1.933c-2.476,-1.574 -3.744,-4.056 -3.744,-7.48l0,-8.286a1494.51,1494.51 0 0 1 10.904,-1.754l0,10.358c0,0.719 0.13,1.309 0.446,1.753c0.316,0.363 0.813,0.544 1.443,0.544c0.631,0 1.079,-0.181 1.396,-0.544c0.319,-0.444 0.454,-1.034 0.454,-1.753l0,-8.917l10.894,0l0,9.006zm55.58,8.379l-10.851,0l0,-1.484c-0.583,0.583 -1.486,1.08 -2.702,1.484c-1.127,0.406 -2.478,0.627 -4.053,0.627c-2.298,0 -4.236,-0.584 -5.724,-1.798c-1.48,-1.215 -2.204,-2.655 -2.204,-4.374l0,-17.56c3.558,-0.229 7.203,-0.449 10.9,-0.633l0,15.45c0,1.354 0.633,2.029 1.891,2.029c0.628,0 1.077,-0.136 1.396,-0.456c0.313,-0.4 0.496,-0.898 0.496,-1.53l0,-15.713c3.56,-0.183 7.204,-0.32 10.853,-0.452l-0.002,24.41zm15.404,-6.26c0.499,0 0.947,-0.135 1.215,-0.455c0.41,-0.4 0.588,-0.898 0.588,-1.572l0,-11.441c-0.755,0.184 -1.393,0.393 -1.89,0.621c-0.483,0.214 -0.84,0.441 -1.084,0.686c-0.54,0.538 -0.813,1.219 -0.813,2.028l0,8.106c0,0.674 0.182,1.172 0.501,1.572c0.339,0.303 0.803,0.445 1.396,0.456l0.087,-0.001zm-0.087,6.612c-0.996,0.194 -2.254,0.275 -3.83,0.275c-3.242,0 -5.54,-0.584 -6.938,-1.71c-1.35,-1.17 -2.024,-2.925 -2.024,-5.269l0,-8.914c0,-3.56 2.432,-6.536 7.295,-8.875c0.497,-0.227 0.992,-0.45 1.44,-0.632l4.057,-0.092c4.209,-0.102 8.464,-0.187 12.786,-0.22l0,25.085l-9.633,0l0,-1.71c-0.543,0.99 -1.353,1.619 -2.433,1.894c-0.227,0.06 -0.465,0.118 -0.72,0.168m-42.788,-8.731c0,2.834 -0.95,4.999 -2.747,6.488l2.925,5.452l-9.01,0l-1.578,-2.977c-0.718,0.043 -1.432,0.043 -2.25,0.043c-3.915,0 -6.931,-0.627 -9.095,-1.933c-2.567,-1.574 -3.827,-4.056 -3.827,-7.48l0,-11.976c3.556,-0.406 7.206,-0.72 10.898,-1.081l0,13.375c0,0.719 0.132,1.309 0.45,1.753c0.314,0.363 0.81,0.544 1.446,0.544c0.625,0 1.078,-0.181 1.391,-0.544c0.319,-0.444 0.498,-1.034 0.498,-1.753l0,-13.693c3.561,-0.266 7.16,-0.538 10.9,-0.809l-0.001,14.591zm79.627,8.379l-6.89,0c-4.732,0 -7.611,-0.626 -8.694,-1.891c-1.079,-1.308 -1.578,-4.237 -1.578,-8.83l0,-14.407l5.677,-0.051l5.227,0.051l0,14.322c0,1.3 0.447,2.2 1.307,2.743c0.626,0.359 1.623,0.54 2.923,0.54l2.028,0l0,7.523zm40.854,-23.914l0,23.914l-10.904,0l0,-24.368c3.694,0.134 7.298,0.272 10.904,0.454m-13.019,15.536c0,3.335 -1.265,5.763 -3.78,7.208c-2.028,1.214 -4.957,1.798 -8.832,1.798c-3.919,0 -6.978,-0.627 -9.098,-1.933c-2.562,-1.574 -3.872,-4.056 -3.872,-7.48l0,-16.3c3.694,0.041 7.343,0.13 10.903,0.18l0,16.437c0,0.719 0.178,1.309 0.49,1.753c0.319,0.363 0.763,0.544 1.4,0.544c0.626,0 1.127,-0.181 1.44,-0.544c0.312,-0.444 0.451,-1.034 0.451,-1.753l0,-16.347c3.688,0.09 7.297,0.224 10.898,0.355l0,16.082zm40.853,8.379l-10.899,0l0,-22.882c3.687,0.228 7.341,0.541 10.899,0.812l0,22.07zm14.973,-6.26l0.068,0c0.54,0 0.946,-0.135 1.264,-0.455c0.355,-0.4 0.54,-0.898 0.54,-1.572l0,-11.442c-0.744,0.184 -1.364,0.393 -1.872,0.626c-0.475,0.212 -0.842,0.442 -1.102,0.681c-0.54,0.538 -0.764,1.219 -0.764,2.028l0,8.106c0,0.674 0.134,1.172 0.447,1.572c0.345,0.312 0.825,0.445 1.42,0.456m0,6.61c-0.979,0.195 -2.274,0.276 -3.853,0.276c-3.243,0 -5.538,-0.584 -6.891,-1.71c-1.35,-1.17 -2.028,-2.925 -2.028,-5.269l0,-8.914c0,-2.39 1.04,-4.462 3.198,-6.308c3.258,0.3 6.446,0.617 9.573,0.951c4.397,0.47 8.66,0.976 12.77,1.53l0,19.093l-9.641,0l0,-1.71c-0.539,0.99 -1.348,1.619 -2.422,1.894c-0.225,0.06 -0.452,0.118 -0.707,0.168m26.33,-0.352l-10.899,0l0,-18.739c3.782,0.501 7.426,1.039 10.899,1.624l0,17.115z" fill="#6764ad"/>
   <path d="m97.133,42.434l0,-16.448l10.855,0l0,15.891c0.97,-0.042 1.948,-0.09 2.929,-0.13l0,-7.067c0,-3.291 1.307,-5.678 4.01,-7.213c1.996,-1.104 4.802,-1.725 8.37,-1.79c0.214,-0.005 0.425,-0.012 0.637,-0.012c3.87,0 6.755,0.676 8.693,1.985c2.293,1.487 3.47,4.013 3.47,7.429l0,5.99c2.278,-0.039 4.574,-0.06 6.889,-0.072l0,-8.437l-4.862,0l0,-6.574l4.862,0l0,-8.92l10.898,0l0,8.92l5.858,0l0,6.574l-5.858,0l0,8.437c2.857,0.016 5.694,0.044 8.512,0.093l0,-6.011c0,-3.327 1.306,-5.806 3.87,-7.34c2.178,-1.372 5.134,-2.05 8.923,-2.067l0.183,-0.007c3.55,0 6.529,0.811 8.913,2.394c2.478,1.484 3.693,3.693 3.693,6.621l0,7.15c0.706,0.03 1.413,0.063 2.12,0.094l0,-15.938l10.897,0l0,1.48c0.48,-0.373 1.099,-0.719 1.864,-1.006c0.253,-0.088 0.518,-0.174 0.795,-0.248c1.213,-0.368 2.562,-0.547 4.096,-0.547c2.303,0 4.144,0.632 5.628,1.895c1.531,1.216 2.257,2.702 2.257,4.465l0,11.493c0.765,0.057 1.534,0.12 2.293,0.185l0,-17.717l10.903,0l0,18.713c3.585,0.357 7.088,0.737 10.49,1.14c4.214,-2.091 6.356,-3.6 6.356,-4.5l0,-6.573c0,-0.723 -0.143,-1.263 -0.456,-1.62c-0.317,-0.356 -0.807,-0.586 -1.437,-0.586c-0.498,0 -0.945,0.23 -1.308,0.585c-0.36,0.358 -0.538,0.898 -0.538,1.621l0,8.783l-10.543,0l0,-8.869c0,-3.291 1.353,-5.678 4.008,-7.213c2.164,-1.17 5.137,-1.802 9.011,-1.802c3.87,0 6.757,0.676 8.687,1.985c2.3,1.487 3.471,4.013 3.471,7.429l0,13.113c0.178,0.024 0.364,0.063 0.539,0.089c0.715,0.11 1.421,0.229 2.123,0.344l0,-33.046l10.894,0l0,35.041c11.265,2.278 20.396,4.856 26.845,7.7c-14.55,-4.097 -34.412,-7.521 -57.923,-10.039a701.756,701.756 0 0 0 -15.669,-1.479a853.295,853.295 0 0 0 -20.522,-1.43a929.728,929.728 0 0 0 -27.67,-1.15a998.78,998.78 0 0 0 -51.892,-0.042c-19.793,0.503 -38.517,1.582 -55.573,3.14c-3.323,0.303 -6.583,0.623 -9.773,0.961a553.689,553.689 0 0 0 -18.313,2.252c-15.59,2.179 -29.006,4.804 -39.61,7.787c6.452,-2.844 15.583,-5.422 26.847,-7.7l0,-15.54c0,-3.327 1.215,-5.806 3.688,-7.34c2.12,-1.398 5.135,-2.074 9.012,-2.074l0.063,0.007c3.804,0.004 6.75,0.635 8.853,1.795c2.613,1.486 3.918,3.878 3.918,7.213l0,11.806c0.838,-0.105 1.677,-0.21 2.525,-0.314l0,-11.093c0,-3.327 1.26,-5.806 3.827,-7.34c2.179,-1.382 5.153,-2.055 8.963,-2.067l0.134,-0.007c3.558,0 6.53,0.811 8.963,2.394c2.436,1.484 3.695,3.693 3.695,6.621l0,8.903c0.643,-0.047 1.29,-0.105 1.939,-0.151l0,-17.447l10.893,0l0,16.679c1.254,-0.078 2.517,-0.157 3.785,-0.23m105.726,-9.698c-0.619,0 -1.1,0.141 -1.413,0.453c-0.317,0.313 -0.45,0.81 -0.45,1.49l0,7.82l1.863,0.117l1.874,0.115l0,-7.965c0,-1.35 -0.587,-2.029 -1.846,-2.029l-0.028,-0.001zm-27.67,8.63l1.89,0.052l0,-6.653c0,-0.723 -0.137,-1.263 -0.45,-1.62c-0.312,-0.356 -0.812,-0.586 -1.44,-0.586c-0.5,0 -0.943,0.23 -1.307,0.585c-0.363,0.358 -0.583,0.898 -0.583,1.621l0,6.547l1.89,0.054zm-51.892,-0.045l1.894,-0.048l0,-6.508c0,-0.723 -0.179,-1.263 -0.492,-1.62c-0.318,-0.356 -0.765,-0.586 -1.402,-0.586c-0.54,0 -0.99,0.23 -1.346,0.585c-0.362,0.358 -0.537,0.898 -0.537,1.621l0,6.611l1.883,-0.055zm-55.573,3.42l1.888,-0.187l0,-9.789c0,-0.723 -0.174,-1.263 -0.492,-1.62c-0.315,-0.356 -0.766,-0.586 -1.396,-0.586c-0.54,0 -0.99,0.23 -1.354,0.585c-0.362,0.358 -0.538,0.898 -0.538,1.621l0,10.166l1.892,-0.19zm-28.086,0.203l1.873,0l0,-10.179c0,-0.723 -0.134,-1.263 -0.452,-1.62c-0.317,-0.356 -0.763,-0.586 -1.395,-0.586l-0.026,0c-0.525,0.01 -0.973,0.232 -1.329,0.585c-0.36,0.358 -0.532,0.898 -0.532,1.621l0,10.18l1.861,-0.001zm183.742,-21.393l-5.451,0l0,-7.973l10.901,0l0,7.973l-5.45,0z" fill="#2d307a"/>
   <path d="m192.814,87.776l1.097,-3.508c0.258,-0.846 0.463,-1.839 0.673,-2.667l0.043,0c0.21,0.828 0.449,1.804 0.718,2.661l1.124,3.514l-3.655,0zm4.095,1.96l1.29,4.044l2.79,0l-4.63,-14.245l-3.315,0l-4.564,14.245l2.682,0l1.225,-4.045l4.522,0.001zm-16.966,4.044l2.597,0l0,-14.24l-2.597,0l0,14.24zm-6.678,-7.863l-5.035,0l0,2.05l2.524,0l0,3.55c-0.34,0.173 -1.038,0.295 -1.97,0.295c-2.96,0 -4.947,-1.925 -4.947,-5.158c0,-3.32 2.134,-5.115 5.176,-5.115c1.504,0 2.453,0.275 3.236,0.613l0.572,-2.111c-0.658,-0.295 -2.027,-0.656 -3.786,-0.656c-4.713,0 -7.923,2.899 -7.923,7.396c-0.022,2.154 0.718,4.04 1.987,5.24c1.353,1.291 3.171,1.905 5.585,1.905c1.898,0 3.67,-0.466 4.581,-0.806l0,-7.203zm-24.877,-4.395c0.253,-0.07 0.784,-0.128 1.606,-0.128c1.692,0 2.792,0.72 2.792,2.282c0,1.419 -1.1,2.353 -2.855,2.353l-1.543,0l0,-4.507zm-2.575,12.258l2.575,0l0,-5.859l1.313,0c1.478,0.045 2.157,0.638 2.558,2.498c0.404,1.772 0.738,2.933 0.948,3.361l2.686,0c-0.3,-0.553 -0.678,-2.2 -1.12,-3.975c-0.358,-1.376 -0.972,-2.367 -1.987,-2.748l0,-0.062c1.326,-0.487 2.578,-1.733 2.578,-3.568c0,-1.213 -0.441,-2.207 -1.228,-2.855c-0.95,-0.81 -2.342,-1.138 -4.393,-1.138c-1.505,0 -2.962,0.122 -3.93,0.289l0,14.057zm-6.936,-8.432l-5.365,0l0,-3.685l5.682,0l0,-2.128l-8.28,0l0,14.245l8.6,0l0,-2.14l-6.002,0l0,-4.181l5.365,0l0,-2.111zm-23.877,8.432l0,-5.094c0,-2.349 -0.017,-4.232 -0.13,-6.065l0.063,-0.026c0.702,1.61 1.653,3.361 2.56,4.902l3.722,6.283l2.681,0l0,-14.245l-2.411,0l0,4.968c0,2.173 0.07,4.016 0.239,5.916l-0.045,0a39.193,39.193 0 0 0 -2.432,-4.776l-3.675,-6.108l-2.958,0l0,14.245l2.386,0zm-9.32,-8.432l-5.368,0l0,-3.685l5.682,0l0,-2.128l-8.28,0l0,14.245l8.599,0l0,-2.14l-6.001,0l0,-4.181l5.367,0l0.001,-2.111zm-69.723,-68.844c-0.685,0.255 -2.023,0.606 -3.44,0.606c-1.815,0 -3.2,-0.462 -4.22,-1.434c-0.954,-0.908 -1.497,-2.325 -1.497,-3.949c0.016,-3.408 2.421,-5.574 5.973,-5.574c1.321,0 2.356,0.272 2.85,0.51l-0.43,1.576c-0.59,-0.27 -1.306,-0.462 -2.436,-0.462c-2.294,0 -3.903,1.354 -3.903,3.855c0,2.436 1.498,3.885 3.727,3.885c0.716,0 1.227,-0.095 1.48,-0.207l0,-2.69l-1.894,0l0,-1.546l3.79,0l0,5.43zm8.233,-5.35l1.162,0c1.322,0 2.134,-0.701 2.134,-1.768c0,-1.163 -0.812,-1.72 -2.085,-1.72c-0.622,0 -1.02,0.048 -1.211,0.096l0,3.392zm-1.942,-4.73c0.748,-0.143 1.83,-0.239 2.961,-0.239c1.545,0 2.58,0.255 3.312,0.86c0.59,0.494 0.925,1.242 0.925,2.166c0,1.386 -0.94,2.324 -1.96,2.676l0,0.047c0.78,0.287 1.243,1.035 1.497,2.07c0.35,1.338 0.637,2.58 0.844,2.994l-2.006,0c-0.16,-0.318 -0.43,-1.195 -0.716,-2.531c-0.32,-1.402 -0.813,-1.848 -1.928,-1.88l-0.987,0l0,4.41l-1.942,0l0,-10.573zm15.286,-0.159l0,6.258c0,2.102 0.876,3.074 2.197,3.074c1.418,0 2.262,-0.972 2.262,-3.074l0,-6.258l1.958,0l0,6.13c0,3.313 -1.704,4.778 -4.283,4.778c-2.484,0 -4.093,-1.385 -4.093,-4.761l0,-6.147l1.959,0zm14.889,5.127c0.255,0.08 0.557,0.096 0.956,0.096c1.465,0 2.357,-0.732 2.357,-1.975c0,-1.194 -0.828,-1.815 -2.182,-1.815c-0.542,0 -0.923,0.048 -1.13,0.096l-0.001,3.598zm-1.942,-4.982c0.716,-0.129 1.688,-0.224 2.993,-0.224c1.434,0 2.47,0.303 3.153,0.876c0.637,0.525 1.052,1.37 1.052,2.373c0,1.019 -0.319,1.847 -0.908,2.42c-0.796,0.78 -2.007,1.163 -3.392,1.163c-0.367,0 -0.686,-0.016 -0.956,-0.08l0,4.062l-1.942,0l0,-10.59zm14.698,5.254c0,2.197 1.098,3.932 2.977,3.932c1.895,0 2.962,-1.767 2.962,-4.012c0,-2.022 -1.003,-3.933 -2.962,-3.933c-1.943,0 -2.977,1.798 -2.977,4.013m8.01,-0.144c0,3.598 -2.182,5.654 -5.128,5.654c-3.041,0 -4.954,-2.325 -4.954,-5.463c0,-3.312 2.088,-5.637 5.112,-5.637c3.122,0 4.97,2.373 4.97,5.446" fill="#565353"/>
  </svg>