<svg xmlns="http://www.w3.org/2000/svg" fill-rule="evenodd" clip-rule="evenodd" image-rendering="optimizeQuality" shape-rendering="geometricPrecision" text-rendering="geometricPrecision" viewBox="-2 1 6600 3300"><g><rect width="6600" height="3300" x="-2" y="1" fill="none"/><g fill-rule="nonzero"><path fill="#78b1df" d="M962.1 860.36c2.26,-0.05 4.63,-0.1 6.92,-0.1 31.49,0 62.65,6.76 91.3,19.76 44.9,20.52 79.99,57.85 97.74,103.89 10.83,27.21 16.39,56.28 16.39,85.57 0,4.76 -0.17,9.56 -0.45,14.28 -1.74,35.85 -10.14,71.23 -24.61,104.06 -20.79,44.6 -50.89,84.44 -88.14,116.59 -30.78,27.09 -64.67,50.8 -100.64,70.4 -60.88,33.51 -125.55,60.8 -192.07,81.08 -50.92,15.84 -103.26,29.6 -155.6,40.27 -35.09,7.26 -70.31,13.77 -105.6,19.76 -26.45,4.46 -53.18,7.28 -79.8,10.69 -12.05,1.55 -24.25,2.28 -36.22,4.27 -5.37,0.88 -6.43,0.29 -5.74,-5.16 3.02,-21.8 7.66,-43.3 12.59,-64.72 11.66,-50.5 27.23,-100.58 46.28,-148.72 9.05,-23.14 19.28,-45.99 30.15,-68.39 22.83,-47.93 49.91,-94.14 80.36,-137.68 15.72,-22.1 32.48,-43.41 50.26,-63.93 17.68,-20.04 36.67,-39.31 56.39,-57.32 19.33,-17.73 40.31,-34.1 62.17,-48.61 44.07,-29.91 93.24,-51.83 144.94,-64.6 20.86,-5.06 42.2,-8.48 63.56,-10 10.01,-0.67 19.86,-1.19 29.81,-1.38l0.01 -0.01zm599.16 592.86c-0.1,80.09 -12.41,159.76 -36.25,236.12 -22.19,71.61 -53.87,140.2 -94.01,203.58 -29.59,46.96 -63.39,91.83 -100.56,133.21 -25.24,27.96 -51.97,54.29 -79.83,79.56 -4.14,3.84 -5.75,3.31 -8.68,-1.47 -22.21,-35.32 -44.82,-70.41 -67.3,-105.56 -2.91,-4.1 -5.57,-8.45 -7.85,-12.9 -3.57,-8.08 -7.66,-5.96 -12.47,-1.54 -50.91,46.17 -107.82,86.11 -168.48,118.32 -52.21,28.14 -108.63,48.13 -166.96,59.15 -17.53,3.23 -35.43,4.42 -53.27,5.92 -7.96,0.6 -16.08,0.94 -24.08,0.94 -35.92,0 -71.64,-6.25 -105.4,-18.43 -42.2,-14.82 -80.9,-38.4 -113.41,-69.12 -46.91,-44.82 -82.36,-100.57 -103.1,-162.07 -14.25,-40.06 -24,-81.74 -28.73,-124.03 -2.98,-23.74 -4.89,-48.08 -5.38,-72.06 0,-7.26 -1.59,-14.6 -1.51,-22 0,-3.83 0.67,-5.88 5.46,-6.54 22.38,-3 44.71,-6.47 67.07,-10.09 28.41,-4.62 56.8,-9.41 85.18,-14.39 36.4,-6.36 72.72,-13.58 108.86,-21.44 43.9,-9.57 87.53,-20.06 130.82,-32.15 35.41,-9.88 70.63,-20.43 105.39,-32.41 48.54,-16.52 96.77,-36.14 143.07,-58.32 37.66,-17.99 74.53,-38.91 109.47,-61.87 27.2,-18.19 53.42,-38.61 77.81,-60.41 37.04,-32.63 68.79,-71.15 93.71,-113.79 22.7,-39.22 38.71,-82.11 47.21,-126.63 4.94,-27.84 7.47,-56.25 7.47,-84.55 0,-11.38 -0.47,-22.93 -1.24,-34.25 -2.45,-53.96 -18.93,-106.51 -47.66,-152.26 -12.15,-19.01 -25.54,-37.55 -39.84,-54.98 -1.8,-2.22 -4.59,-4.36 -1.67,-7.22 3.31,-3.28 5.02,0.67 6.78,2.4 48.36,46.69 92.38,98.75 130.34,154.32 43.27,63.26 78.28,132.21 103.65,204.58 15.27,43.18 26.77,87.76 34.19,132.91 5.99,34.84 9.55,70.43 10.33,105.75 -0.06,7.78 1.11,15.73 0.89,23.69l-0.02 0.03z" data-name="Caminho 225"/><path fill="#373435" d="M4747.57 1630.24c0,5.74 -0.39,11.5 0,17.13 0.16,19.65 4.77,39.05 13.41,56.68 4.81,10.21 15.09,16.73 26.39,16.73 0.38,0 0.78,-0.01 1.16,-0.03 11.69,-0.63 22.99,-4.53 32.58,-11.23 23.29,-16.91 44.12,-37.23 61.61,-60.06 1.25,-1.82 1.92,-3.98 1.92,-6.17 0,-0.06 0,-0.13 0,-0.18 7.59,-57.77 15.26,-115.53 22.99,-173.27 0.61,-4.53 -1.92,-5.24 -4.63,-6.73 -11.55,-5.97 -24.37,-9.09 -37.37,-9.09 -5.83,0 -11.67,0.64 -17.37,1.88 -29.22,5.65 -54.51,23.91 -69.09,49.83 -20.75,35.37 -31.71,75.72 -31.71,116.75 0,2.56 0.06,5.2 0.13,7.74l-0.01 0.02 -0.01 0zm-279.55 748.46c25.96,0 47.31,-12.14 63.63,-36l0 30.98 26.37 0 0 -303.92 -26.37 0 0 97.12c-14.23,-7.95 -30.56,-11.72 -48.56,-11.72 -28.46,0 -51.9,10.47 -70.74,31.4 -18.42,20.93 -27.63,48.97 -27.63,84.14 0,33.07 7.53,59.02 23.02,78.7 15.49,19.67 35.59,29.3 60.28,29.3zm4.19 -23.02c-38.09,0 -61.12,-32.65 -61.12,-86.66 0,-27.62 6.7,-49.81 19.68,-66.55 13.39,-16.75 30.14,-25.12 50.65,-25.12 18.84,0 35.58,4.18 50.23,12.56l0 124.74c-15.49,27.21 -35.58,41.03 -59.44,41.03zm304.85 -95.87c0,-30.14 -7.54,-55.25 -22.19,-74.93 -14.65,-19.67 -34.74,-29.72 -60.28,-29.72 -26.37,0 -47.72,10.47 -64.04,31.4 -15.91,20.93 -23.87,47.72 -23.87,80.37 0,32.65 8.38,59.45 24.7,80.37 16.33,20.93 38.52,31.4 65.72,31.4 20.94,0 41.45,-4.61 61.12,-13.81l-7.11 -21.35c-17.59,8.37 -35.59,12.55 -53.58,12.55 -19.68,0 -35.59,-7.95 -46.89,-23.85 -11.3,-15.91 -17.17,-36.43 -17.58,-61.12l144 0 0 -11.31zm-143.16 -10.88c2.09,-20.51 8.37,-37.26 19.25,-50.65 11.3,-13.81 25.12,-20.51 41.44,-20.51 16.33,0 29.73,6.7 39.77,20.51 10.47,13.39 15.91,30.14 16.33,50.65l-116.79 0zm281.4 -93.77c-25.53,0 -48.97,14.23 -63.62,36l0 -30.97 -26.38 0 0 299.72 26.38 0 0 -93.35c13.81,7.96 30.14,12.14 48.97,12.14 28.05,0 51.49,-10.47 69.91,-31.4 18.84,-21.35 28.05,-49.39 28.05,-84.55 0,-33.08 -7.95,-59.03 -23.44,-78.28 -15.49,-19.68 -35.17,-29.31 -59.87,-29.31zm-4.18 22.61c37.26,0 61.12,33.49 61.12,86.65 0,28.04 -6.7,50.23 -19.68,66.98 -12.97,16.32 -30.14,24.69 -50.65,24.69 -18.84,0 -35.58,-4.18 -50.23,-12.55l0 -125.17c16.32,-27.21 35.99,-40.6 59.44,-40.6zm165.87 -17.58l-27.21 0 0 213.49 27.21 0 0 -213.49zm-13.4 -91.26c-11.3,0 -19.25,8.37 -19.25,18.83 0,10.47 8.79,18.84 19.25,18.84 24.28,1.67 24.28,-39.35 0,-37.67zm111.04 0.83l-27.21 0 0 303.92 27.21 0 0 -303.92zm49.5 252.43c0,33.49 23.86,56.51 61.95,56.51 26.79,0 49.4,-12.98 67.4,-38.93 0.83,11.72 2.93,23.02 5.86,33.91l26.37 0c-4.18,-16.75 -6.28,-34.33 -6.28,-52.75l0 -104.65c0,-36.84 -24.7,-61.12 -66.14,-61.12 -22.18,0 -45.21,5.86 -69.07,18l6.28 22.19c20.51,-11.72 41.02,-17.58 61.53,-17.58 25.54,0 41.03,15.07 41.03,39.76l0 30.98 -24.28 0c-30.98,0 -56.09,7.12 -75.77,20.93 -19.26,13.82 -28.88,31.4 -28.88,52.75zm65.3 33.9c-24.7,0 -38.93,-12.97 -38.93,-34.32 0,-30.14 30.98,-51.49 80.79,-51.49l21.77 0 0 43.12c-18.84,28.46 -40.19,42.69 -63.63,42.69zm189.32 111.77c9.2,3.77 19.25,5.87 30.55,5.87 28.89,0 48.14,-16.75 48.14,-39.77 0,-18.84 -13.39,-33.07 -35.58,-36.42l8.79 -18.84c19.26,-0.84 36.42,-4.61 51.49,-11.72l-7.11 -22.19c-16.33,7.12 -32.66,10.89 -49.82,10.89 -23.02,0 -41.02,-8.38 -54,-24.7 -12.98,-16.74 -19.67,-38.09 -19.67,-64.05 0,-25.95 6.69,-47.3 19.67,-63.63 12.98,-16.74 30.98,-25.12 54,-25.12 15.49,0 31.4,3.35 48.14,10.05l7.12 -22.19c-17.59,-7.11 -36,-10.88 -55.26,-10.88 -30.56,0 -55.26,10.47 -73.26,30.98 -18,20.51 -27.2,47.72 -27.2,80.79 0,29.72 7.53,54.42 22.18,74.51 14.65,20.1 35.16,32.24 60.7,36l-13.4 33.08c26.8,0.41 40.19,7.95 40.19,23.02 0,12.14 -10.88,20.93 -26.37,20.93 -8.79,0 -17.59,-1.67 -25.54,-5.02l-3.76 18.41zm132.38 -145.67c0,33.49 23.86,56.51 61.95,56.51 26.79,0 49.4,-12.98 67.4,-38.93 0.83,11.72 2.93,23.02 5.86,33.91l26.37 0c-4.18,-16.75 -6.28,-34.33 -6.28,-52.75l0 -104.65c0,-36.84 -24.69,-61.12 -66.14,-61.12 -22.18,0 -45.21,5.86 -69.07,18l6.28 22.19c20.51,-11.72 41.02,-17.58 61.54,-17.58 25.53,0 41.02,15.07 41.02,39.76l0 30.98 -24.28 0c-30.97,0 -56.09,7.12 -75.77,20.93 -19.26,13.82 -28.88,31.4 -28.88,52.75zm65.3 33.9c-24.7,0 -38.93,-12.97 -38.93,-34.32 0,-30.14 30.98,-51.49 80.79,-51.49l21.77 0 0 43.12c-18.84,28.46 -40.19,42.69 -63.63,42.69zm12.56 -246.56c10.88,8.79 21.77,13.4 33.07,13.4 21.77,0 34.33,-15.91 34.33,-43.96l-23.87 0c0,14.65 -4.18,22.19 -12.13,22.19 -4.61,0 -11.31,-3.77 -20.52,-10.89 -10.88,-8.79 -21.76,-13.39 -33.06,-13.39 -21.78,0 -34.33,15.91 -34.75,43.96l23.86 0c0.42,-14.65 4.6,-22.19 12.56,-22.19 5.02,0 11.72,3.76 20.51,10.88l0 0zm218.2 269.17c28.88,0 51.91,-10.47 69.07,-31.4 17.58,-20.92 26.37,-47.72 26.37,-80.37 0,-32.65 -8.79,-59.44 -26.37,-80.37 -17.16,-20.93 -40.19,-31.4 -69.07,-31.4 -28.47,0 -51.49,10.47 -69.07,31.82 -17.58,20.93 -26.37,47.72 -26.37,79.95 0,32.23 8.79,59.02 26.37,80.37 17.58,20.93 40.6,31.4 69.07,31.4zm50.65 -175.4c12.56,17.17 18.84,38.1 18.84,63.63 0,25.53 -6.28,46.47 -18.84,63.63 -12.56,16.74 -29.3,25.12 -50.65,25.12 -21.35,0 -38.1,-8.38 -50.65,-25.12 -12.14,-17.16 -18.42,-38.1 -18.42,-63.63 0,-25.53 6.28,-46.46 18.42,-63.63 12.55,-17.16 29.3,-25.53 50.65,-25.53 21.35,0 38.09,8.37 50.65,25.53zm-3023.81 -671.81c0.02,-0.95 0.03,-1.97 0.03,-2.94 0,-11.33 -1.31,-22.67 -3.86,-33.69 -4.31,-30.74 -23.68,-57.34 -51.59,-70.9 -12.73,-4.98 -26.31,-7.54 -39.99,-7.54 -9.99,0 -19.95,1.36 -29.56,4.05 -55.87,11.37 -101.67,51.39 -120.42,105.24 -9.3,28.87 -15.64,58.75 -18.79,88.88 -8.76,47.14 -16.33,94.5 -25.09,141.65 -1.53,8.25 0.59,10.92 8.14,12.82 23.2,6.37 47.29,9.62 71.37,9.62 7.75,0 15.54,-0.36 23.26,-1.01 48.83,-3.75 94,-27.56 124.74,-65.68 42.73,-52.55 57.12,-115.01 61.83,-180.54l-0.08 0.02 0.01 0.02zm69.78 -12.41c0,0.59 0,1.23 0,1.83 0,67.99 -19.82,134.61 -56.95,191.51 -32.55,49.35 -81.25,86.07 -137.72,103.67 -26.06,7.76 -53.17,11.71 -80.39,11.71 -1.06,0 -2.23,-0.03 -3.26,-0.03 -28.16,-0.99 -56.22,-5.82 -83.13,-14.22 -5.75,-1.5 -6.78,0.82 -7.41,4.45 -5.33,30.35 -10.33,60.75 -15.62,91.11 -4.27,24.52 -8.97,48.99 -13.09,73.54 -0.77,4.61 -2.24,5.92 -6.84,5.75 -18.28,-0.26 -36.56,-0.16 -54.84,0 -3.83,0 -6.63,0 -5.34,-5.48 4.49,-18.55 7.35,-37.41 10.19,-56.28 2.53,-16.98 6.3,-33.78 9.33,-50.7 3.21,-18.03 6.03,-36.16 9.3,-54.2 2.55,-14.25 5.75,-28.39 8.27,-42.65 2.68,-15.04 4.68,-30.2 7.47,-45.22 2.49,-13.41 4.98,-26.73 6.98,-40.24 2.18,-14.89 5.59,-29.61 8.35,-44.42 4.02,-21.75 8.11,-43.48 11.86,-65.28 3.63,-21.2 6,-42.67 10.58,-63.66 3.84,-17.39 6.17,-35.01 9.77,-52.43 4.27,-20.61 6.65,-41.61 10.53,-62.34 2.41,-12.89 5.28,-25.71 6.72,-38.8 0.25,-2.35 1.39,-2.74 3.3,-2.74 19.4,0 38.84,0 58.27,0 4.19,0 3.83,2.45 3.39,5.03 -2.54,13.75 -5.18,27.51 -7.67,41.27 -0.42,2.2 -0.36,4.5 -0.81,6.7 -0.23,0.64 -0.36,1.28 -0.36,1.94 0,1.94 1.05,3.72 2.73,4.66 2.77,1.36 4,-1.47 5.41,-3.01 13.45,-14.51 28.99,-27.1 45.99,-37.24 29.82,-19.26 64.66,-29.53 100.18,-29.53 3.05,0 6.11,0.08 9.13,0.22 31.87,0.98 62.38,13.19 86.09,34.49 22.91,21.56 38.27,49.99 43.78,80.96 3.85,15.65 5.81,31.73 5.81,47.85 0,0.59 0,1.2 0,1.78l0 0zm-1050.93 34.32c38.33,0 76.5,-0.16 114.72,0.17 5.87,0 7.95,-1.92 8.63,-7.28 2.18,-12.39 3.27,-25.09 3.27,-37.7 0,-8.12 -0.49,-16.25 -1.36,-24.32 -1.95,-33.53 -25.81,-61.77 -58.55,-69.29 -9.75,-2.61 -19.81,-3.96 -29.9,-3.96 -16.11,0 -32.07,3.39 -46.76,9.94 -52.48,24.4 -92.39,69.78 -109.94,124.95 -2.74,7.24 -0.13,7.66 6.05,7.66 37.91,-0.29 75.87,-0.17 113.83,-0.17l0.01 0zm141.76 224.11c-33.17,22.5 -70.07,39.39 -108.79,49.81 -23.79,5.95 -48.33,9 -72.89,9 -2.67,0 -5.39,-0.07 -8.03,-0.11 -0.13,0.01 -0.27,0.01 -0.38,0.01 -32.92,0 -65.09,-10.1 -92.07,-28.94 -23.22,-15.92 -41.26,-38.44 -51.74,-64.57 -6.19,-14.9 -10.72,-30.54 -13.42,-46.46 -1.56,-12.71 -2.35,-25.58 -2.35,-38.36 0,-4.63 0.11,-9.32 0.3,-13.9 0.42,-27.02 4.68,-53.97 12.54,-79.83 9.31,-33.39 24,-65.12 43.38,-93.87 12.61,-19.13 27.42,-36.87 43.94,-52.68 32.2,-31.82 73.66,-52.75 118.33,-59.81 10.16,-1.79 20.51,-2.71 30.85,-2.71 30.35,0 60.27,7.83 86.71,22.7 26.75,16.29 45.92,42.68 53.15,73.17 5.52,21.42 8.3,43.61 8.3,65.76 0,12.62 -0.91,25.23 -2.69,37.71 -1.92,15.94 -4.9,31.65 -6.92,47.52 -0.63,4.83 -2.3,5.37 -6.22,5.33 -16.58,-0.11 -33.14,0 -49.71,0 -83.43,0 -166.87,0.17 -250.29,-0.27 -8.38,0 -12.29,1.91 -12.73,10.15 -1.43,10.92 -2.18,21.97 -2.18,33 0,17.29 1.8,34.6 5.32,51.53 11.06,42.26 48.1,72.61 91.7,75.15 6.98,0.67 14.1,1.04 21.14,1.04 30.46,0 60.64,-6.44 88.42,-18.84 16.14,-6.73 31.93,-13.98 47.39,-21.97 4.14,-2.14 5.75,-1.13 7.78,2.54 6.86,12.63 14.15,25.28 21.15,37.91l0.01 -0.01zm2166.47 -222.07c0.01,-1.13 0.03,-2.34 0.03,-3.5 0,-17.68 -2.5,-35.3 -7.38,-52.26 -12.07,-41.41 -34.49,-74.88 -77.74,-87.88 -60.57,-18.24 -112,0.4 -155.22,44.33 -27.96,29.34 -47.85,65.5 -57.73,104.81 -7.29,22.73 -11.02,46.48 -11.02,70.34 0,23.38 3.59,46.71 10.58,69 12.28,44.74 50.61,77.49 96.7,82.61 6.48,0.87 13.05,1.32 19.61,1.32 40.41,0 79.08,-16.65 106.86,-45.97 48.1,-48.64 75.19,-114.36 75.31,-182.8l0 0zm-376.66 82.1c-0.08,-2.75 -0.14,-5.66 -0.14,-8.44 0,-21.95 2.96,-43.85 8.78,-65 11.06,-41.98 30.58,-81.42 57.16,-115.71 23.46,-31.4 54.14,-56.85 89.36,-74.06 30.28,-14.64 63.58,-22.29 97.24,-22.29 8.39,0 16.84,0.48 25.18,1.41 35.41,2.65 69.3,15.47 97.63,36.86 29.81,23.79 51,56.84 60.16,93.87 6.09,21.73 9.2,44.23 9.2,66.78 0,6.31 -0.24,12.68 -0.73,18.98 -3.53,46.44 -17.45,91.56 -40.69,131.93 -14.37,25.66 -32.62,49.09 -53.89,69.35 -27.65,26.64 -61.46,46.3 -98.31,57.15 -21.72,5.73 -44.18,8.64 -66.68,8.64 -6.49,0 -13.01,-0.25 -19.46,-0.74 -32.1,-1.31 -63.3,-11.46 -90.06,-29.27 -26.1,-17.83 -46.25,-43.17 -57.71,-72.6 -11.42,-27.05 -17.32,-56.21 -17.32,-85.58 0,-3.76 0.1,-7.56 0.28,-11.29l0 0.01zm-706.71 146.64c11.47,-0.35 22.94,-1.85 34.13,-4.35 46.03,-8.1 85.06,-38.55 104.16,-81.18 8.98,-26.91 15.03,-54.81 17.95,-83 1.03,-5.35 -2.13,-4.81 -5.37,-4.64 -24.45,1.44 -48.94,2.51 -73.21,6.04 -31.38,3.4 -62.05,12.14 -90.5,25.76 -27.5,12.15 -47.85,36.4 -54.99,65.6 -2.1,5.95 -3.17,12.2 -3.17,18.5 0,17.71 8.45,34.39 22.71,44.87 12.35,8.26 26.87,12.65 41.72,12.65 2.21,0 4.45,-0.09 6.66,-0.29l-0.09 0.04 0 0zm149.44 41.49c-8.28,0 -16.59,-0.38 -24.91,0.13 -5.75,0.4 -6.67,-3.07 -5.65,-6.74 4.1,-14.75 4.52,-30.18 8.39,-44.95 0.49,-1.92 1.11,-4.35 -0.77,-5.49 -2.28,-1.35 -3.44,1.25 -4.73,2.56 -27.79,28.14 -62.88,48.08 -101.26,57.59 -12.37,3.67 -25.27,5.53 -38.18,5.53 -5.21,0 -10.47,-0.31 -15.63,-0.9 -20.87,-2.03 -41.18,-7.95 -59.88,-17.4 -22.83,-12.38 -38.64,-34.7 -42.76,-60.33 -1.88,-9.19 -2.83,-18.63 -2.83,-28.03 0,-22.65 5.5,-44.98 16.02,-65.04 9.09,-17.22 21.91,-32.31 37.44,-44.09 17.78,-13.58 37.63,-24.37 58.72,-31.91 25.17,-9.23 51.26,-16.08 77.71,-20.28 35.25,-5.92 71.14,-9.6 106.83,-10.64 8.28,-0.22 7.51,-7.05 8.19,-11.32 3.78,-19.6 5.71,-39.58 5.71,-59.55 0,-0.24 0,-0.51 0,-0.73 -0.27,-6.81 -1.15,-13.63 -2.55,-20.29 -4.96,-26.05 -26.44,-45.78 -52.82,-48.5 -12.45,-2.15 -25.13,-3.26 -37.77,-3.26 -16.23,0 -32.45,1.81 -48.27,5.36 -22.67,4.05 -45.05,10.37 -66.52,18.66 -4.2,1.69 -5.28,-0.37 -5.75,-2.92 -2.74,-13.92 -6.34,-27.71 -10.63,-41.18 -1,-3.04 0.4,-4.42 3.83,-5.96 27.55,-12.17 56.49,-21.29 86.03,-27.06 18.4,-3.96 37.21,-6.03 56.07,-6.03 7.69,0 15.43,0.4 23.1,1.04 44.74,4.17 82.87,20.53 104.1,63.49 7.4,15.7 11.88,32.68 13.19,50.02 0.32,7.16 0.57,14.48 0.57,21.72 0,31.29 -3.58,62.53 -10.71,92.98 -5.75,30.85 -10.43,61.87 -15.87,92.78 -5.44,30.91 -11.32,61.68 -16.86,92.58 -3.09,17.24 -6.32,34.31 -8.51,51.58 -0.79,6.07 -3.83,6.95 -8.25,7.04 -8.26,0.13 -16.53,0 -24.77,0l0 -0.47 -0.02 0.01zm276.28 61.15c8.3,-18.42 20.27,-33.54 29.56,-51.51 -18.71,-1.01 -37,-5.98 -53.66,-14.51 -12.2,-4.91 -23.43,-12 -33.1,-20.9 -15.71,-15.83 -28.27,-34.63 -36.85,-55.22 -5.32,-14.06 -9.4,-28.65 -12.13,-43.42 -2.72,-18.63 -4.1,-37.58 -4.1,-56.44 0,-8.13 0.28,-16.38 0.77,-24.47 0.9,-14.18 3.38,-28.35 7.3,-42.02 9.99,-38.58 27.23,-75.05 50.65,-107.27 37.57,-55.94 94.86,-95.75 160.33,-111.52 15.83,-3.8 32.11,-5.73 48.4,-5.73 35.38,0 70.19,9.07 101.06,26.28 3.27,1.75 4.39,2.97 2.38,6.92 -6.79,13.42 -13.02,27.22 -19.34,40.93 -1.92,4.2 -3.93,5.88 -8.89,3.57 -14.93,-7.16 -30.73,-12.53 -46.96,-15.9 -10.82,-2.24 -21.91,-3.38 -32.98,-3.38 -37.03,0 -72.99,12.59 -101.92,35.67 -46.48,35.97 -78.63,87.5 -90.33,145.12 -3.8,16.96 -5.73,34.38 -5.73,51.78 0,7.53 0.38,15.18 1.09,22.65 0.57,32.65 14.07,63.87 37.52,86.63 13.68,12.09 30.57,20.02 48.62,22.74 9.26,1.22 18.69,1.87 28.07,1.87 24.33,0 48.55,-4.21 71.46,-12.36 10.92,-3.36 21.56,-7.67 32.32,-11.51 3.46,-1.22 5.31,-1.58 6.54,3.72 3.02,13.27 7.06,26.47 11.91,39.15 2.21,5.75 -0.36,6.61 -4.22,8.21 -29.13,12.98 -60.1,21.98 -91.71,26.54 -15.71,1.92 -17.07,13.05 -23.49,21.54 -2.68,3.53 0.99,2.99 3.07,3.53 12.15,2.97 23.93,7.62 34.87,13.73 17.73,11.52 28.45,31.25 28.45,52.4 0,13.52 -4.4,26.68 -12.51,37.5 -15.17,18.4 -36.48,30.78 -59.99,34.85 -13.61,2.67 -27.5,4.06 -41.39,4.06 -10.06,0 -20.18,-0.73 -30.14,-2.13 -18.4,-1.98 -36.46,-6.85 -53.35,-14.42 -4.16,-1.91 -5.75,-3.36 -2.42,-8.2 7.32,-10.37 13.93,-21.25 20.3,-32.25 2.52,-4.35 4.47,-5.14 9.08,-2.88 20.72,9.99 43.52,15.2 66.55,15.2 1.9,0 3.81,-0.05 5.68,-0.11 0.59,0.04 1.19,0.06 1.79,0.06 9.33,0 18.24,-3.9 24.59,-10.75 4.46,-4.96 12.51,-6.35 13.29,-15.07 0.23,-1.41 0.35,-2.85 0.35,-4.28 0,-10.25 -5.8,-19.63 -14.95,-24.24 -14.19,-7.36 -29.99,-11.24 -45.99,-11.27 -6.65,-0.4 -12.45,-4.58 -19.85,-2.89l0 0zm-1281.95 -49.89c-44.73,-1.4 -88.51,-13.92 -127.28,-36.28 -6.47,-3.35 -12.02,-8.48 -18.37,-12.07 -3.3,-1.91 -1.93,-3.3 -0.84,-5.17 8.35,-14.66 16.62,-29.34 25.07,-43.92 2.71,-4.68 6.04,-3.16 9.86,-0.88 23.22,14.5 48.35,25.9 74.58,33.69 14.77,5.17 30.39,7.83 46.06,7.83 16.45,0 32.82,-2.91 48.24,-8.62 24.47,-8.07 43.15,-28.08 49.47,-53.07 1.19,-4.62 1.81,-9.39 1.81,-14.18 0,-13.7 -4.99,-26.96 -14,-37.29 -11.19,-12.88 -25.24,-22.99 -41.01,-29.52 -13.41,-5.88 -26.15,-13.63 -39.47,-19.97 -16.84,-8.02 -33.34,-16.67 -49.49,-25.97 -27.89,-14.31 -48.44,-39.78 -56.5,-70.09 -1.77,-8.23 -2.69,-16.64 -2.69,-25.06 0,-6.3 0.51,-12.6 1.51,-18.81 2.97,-23.23 12.2,-45.29 26.66,-63.72 18.45,-24.15 43.88,-42.1 72.81,-51.37 22.6,-6.95 46.19,-10.53 69.87,-10.53 8.46,0 16.96,0.45 25.38,1.35 36.5,3.92 72.06,14.65 104.68,31.48 4.79,2.27 5.3,4.43 2.66,9.17 -7.88,14.18 -15.58,28.49 -22.36,43.23 -2.62,5.74 -6.23,5.27 -9.68,3.4 -15.52,-7.84 -31.71,-14.51 -48.23,-19.95 -9.13,-3.08 -18.59,-5.41 -28.1,-6.84 -12.23,-2.38 -24.76,-3.61 -37.24,-3.61 -2.2,0 -4.48,0.04 -6.65,0.12 -23.79,0.27 -46.92,8.06 -66.02,22.22 -14.86,12.17 -23.5,30.38 -23.5,49.6 0,13.67 4.39,26.99 12.49,38 12.13,13.64 27,24.67 43.59,32.34 28,14.55 57.01,27.16 84.31,43.06 30.01,14.17 52.49,40.62 61.66,72.52 2.08,9.11 3.14,18.47 3.14,27.83 0,26.19 -8.24,51.76 -23.55,73 -20.86,29.84 -51.57,51.46 -86.7,60.96 -17.06,4.86 -34.75,7.35 -52.51,7.35 -3.2,0 -6.46,-0.11 -9.66,-0.25l0 0.02zm2623.86 -0.45c-23.92,-0.73 -44.84,-16.35 -52.36,-39.05 -4.68,-9.45 -7.73,-19.69 -8.93,-30.17 -0.11,-2.2 -1.22,-4.23 -2.98,-5.54 -2.48,-1.2 -3.83,1.92 -5.23,3.42 -14.2,15.12 -29.69,29.16 -46.18,41.74 -26.42,19.55 -58.47,30.16 -91.34,30.16 -1.65,0 -3.37,-0.04 -5,-0.08 -22.26,-0.37 -43.86,-7.88 -61.58,-21.38 -18.47,-14.58 -32.77,-33.84 -41.4,-55.74 -7.16,-17.67 -12.27,-36.22 -15.13,-55.07 -2.81,-21.07 -4.27,-42.58 -4.27,-63.93 0,-5.86 0.18,-11.95 0.35,-17.76 0.36,-24.42 4.14,-48.82 11.02,-72.32 5.21,-20.78 12.62,-41.04 22.06,-60.29 8.45,-17.56 18.9,-34.16 31.03,-49.41 7.56,-9.66 15.83,-18.92 24.53,-27.59 30.03,-29.16 67.18,-50.05 107.73,-60.45 25.29,-5.68 51.18,-8.56 77.11,-8.56 12.63,0 25.33,0.73 37.87,2.06 35.38,2.68 70.53,10.02 104.13,21.55 4.1,1.39 7.42,-3.65 11.5,1.08 2.43,2.99 3.74,6.71 3.74,10.55 0,1.22 -0.13,2.44 -0.38,3.62 -2.59,20.96 -6.3,41.81 -8.17,62.83 -1.88,21.02 -5,42.07 -7.2,63.12 -2.21,21.06 -5.59,41.8 -7.48,62.78 -1.91,21.78 -6.29,43.23 -8.16,65.04 -1.74,20.17 -5.5,40.23 -8.1,60.27 -0.16,1.27 -0.24,2.54 -0.24,3.81 0,5.2 1.31,10.32 3.77,14.9 4.11,7.66 11.02,9.25 21.3,6.57 13.92,-4.58 27.66,-10.09 40.92,-16.4 4.19,-1.69 3.83,-0.49 4.43,2.55 4.59,23.28 9.1,46.61 14.37,69.75 0.24,0.71 0.39,1.46 0.39,2.21 0,2.25 -1.22,4.34 -3.16,5.47 -29.84,23.83 -65.2,40.1 -102.73,47.15 -11.97,1.73 -24.14,2.81 -36.23,3.11l0 0zm819.67 -362.05c0.03,-0.54 0.04,-1.11 0.04,-1.65 0,-15.15 -10.82,-28.16 -25.72,-30.92 -4.26,-0.97 -8.65,-1.48 -13.03,-1.48 -9.3,0 -18.48,2.22 -26.74,6.48 -45.33,21.48 -64.11,61.78 -74.99,107.42 -0.83,3.44 1.11,3.74 3.83,3.23 10.87,-1.92 21.88,-3.32 32.58,-5.94 29.25,-5.64 56.99,-17.83 80.96,-35.54 13.84,-9.43 22.43,-24.87 23.16,-41.6l-0.09 0 0 0zm-108.91 360.52c-2.66,0.14 -5.36,0.19 -8.04,0.19 -25.35,0 -50.44,-5.77 -73.23,-16.84 -35.95,-16.65 -64.21,-46.52 -78.8,-83.37 -9.26,-22.75 -15.18,-46.83 -17.39,-71.28 -1.12,-10.98 -1.77,-22.06 -1.77,-33.1 0,-7.28 0.27,-14.6 0.76,-21.84 2.22,-36.7 11.2,-72.81 26.35,-106.3 11.08,-25.26 25.7,-48.9 43.34,-70.1 26.9,-32.47 61.57,-57.81 100.74,-73.47 25.59,-10.15 52.89,-15.36 80.41,-15.36 3.04,0 6.13,0.08 9.14,0.18 0.4,0 0.82,0 1.24,0 38.18,0 74.67,16.07 100.46,44.23 16.45,19.39 26.58,43.43 28.95,68.74 0.81,6.04 1.25,12.2 1.25,18.31 0,23.17 -5.95,45.97 -17.24,66.18 -18.8,31.66 -46.79,56.96 -80.15,72.53 -37.59,19.14 -78.01,32.63 -119.56,39.84 -12,2.18 -23.94,4.66 -35.95,6.65 -3.55,0.57 -3.83,1.42 -3.15,4.85 4.97,30.66 29.32,54.5 60.05,58.84 5.49,0.5 11.02,0.78 16.55,0.78 23.03,0 45.92,-4.49 67.22,-13.23 18.19,-5.53 35.82,-13.22 52.29,-22.77 5.56,-3.38 8.45,-3.27 9.85,3.99 5.06,26.37 10.46,52.68 15.83,79.01 0.27,0.86 0.4,1.78 0.4,2.7 0,3.81 -2.26,7.26 -5.76,8.78 -30.49,18.72 -63.6,33.12 -98.11,42.58 -21.49,6.26 -43.81,9.47 -66.19,9.47 -3.15,0 -6.37,-0.09 -9.5,-0.21l0.01 0.02zm-1076.85 -726.21c0.02,1.24 0.05,2.52 0.05,3.78 0,10.76 -1.36,21.5 -4.04,31.92 -1.81,17.61 -3.82,35.2 -6.47,52.73 -3.03,20.08 -4.54,40.4 -7.27,60.53 -2.89,21.46 -4.59,43.07 -8.16,64.46 -2.58,15.57 -3.59,31.37 -5.47,47.07 -2.61,21.56 -5.43,43.1 -8.07,64.63 -2.51,20.47 -4.64,40.97 -7.44,61.32 -2.79,20.35 -5.23,41.34 -8.05,61.97 -2.17,15.89 -3.83,31.91 -5.63,47.91 -2.49,21.28 -5.47,42.5 -8.09,63.75 -1.45,11.74 -2.61,23.53 -3.83,35.28 -2.03,18.4 10.25,22.99 25.2,20.83 14.37,-2.25 28.36,-6.77 41.38,-13.28 5.1,-2.51 6.56,-0.68 6.97,3.95 1.22,14.06 1.43,28.3 3.93,42.15 2.24,12.51 1.41,25.25 4.09,37.64 0.27,0.66 0.41,1.36 0.41,2.07 0,2.67 -1.84,4.97 -4.41,5.59 -32.54,15.98 -67.48,26.89 -103.32,32.18 -8.64,1.28 -17.44,1.93 -26.17,1.93 -7.66,0 -15.39,-0.52 -22.98,-1.49 -22.7,-4.38 -41.65,-20.04 -50.21,-41.53 -3.8,-8.56 -6.89,-17.47 -9.22,-26.52 -0.15,-2.16 -0.23,-4.36 -0.23,-6.53 0,-5.23 0.43,-10.47 1.29,-15.63 0.24,-1.6 0.37,-3.24 0.37,-4.88 0,-1.2 -0.07,-2.4 -0.2,-3.6 -0.46,-3.01 -0.69,-6.08 -0.69,-9.12 0,-5.87 0.85,-11.69 2.51,-17.3 2.03,-12.53 3.37,-25.1 4.65,-37.73 1.12,-10.92 3.39,-21.75 4.88,-32.57 1.56,-11.23 2.78,-22.53 4.16,-33.77 1.54,-12.53 3.14,-25.04 4.62,-37.56 1.25,-10.71 2.28,-21.44 3.49,-32.15 1.26,-11.25 2.6,-22.5 3.96,-33.75 1.48,-12.35 2.26,-24.91 4.73,-37.02 3.3,-16.3 3.22,-32.96 6.41,-49.28 2.05,-10.56 2.6,-21.46 4.08,-32.19 1.65,-11.94 2.86,-23.98 4.58,-35.93 1.72,-11.96 2.09,-23.67 3.66,-35.44 2.13,-15.84 3.29,-31.8 6.23,-47.58 2.1,-11.49 2.51,-23.14 3.99,-34.68 1.47,-11.53 3.52,-22.88 5,-34.35 1.47,-11.48 2.56,-23 3.83,-34.49 1.62,-14.55 4.56,-28.94 4.8,-43.64 0,-3.14 2.37,-2.59 4.24,-2.69 22.18,-1.16 44.34,-2.24 66.5,-3.48 17.88,-1.02 35.75,-2.27 53.65,-3.37 2.18,-0.25 4.45,-0.14 6.29,-0.14l0 0zm719.11 234.47c54.68,0.39 107.81,18.5 151.37,51.56 2.95,2.23 2.49,3.64 1.24,5.76 -16.13,27.78 -32.39,55.57 -48.4,83.31 -2.22,3.84 -3.83,3.63 -7.14,1.53 -14.26,-9.8 -29.66,-18.09 -45.71,-24.59 -12.74,-5.46 -26.48,-8.27 -40.35,-8.27 -7.4,0 -14.8,0.81 -22.02,2.39 -14.98,2.88 -25.81,16 -25.81,31.24 0,8.98 3.81,17.56 10.47,23.59 13.53,13.28 28.84,24.71 45.39,33.99 23.3,14.14 45.13,30.89 64.79,49.81 24.76,23.75 38.79,56.57 38.79,90.89 0,4.9 -0.29,9.85 -0.86,14.7 -5.19,59.62 -46.27,110.07 -103.58,127.25 -21.71,6.73 -44.35,10.21 -67.11,10.21 -2.14,0 -4.38,-0.04 -6.5,-0.09 -36.03,-0.71 -71.63,-9.02 -104.24,-24.35 -12.79,-6.25 -25.01,-13.74 -36.41,-22.25 -2.17,-1.51 -2.19,-2.74 -1,-5.5 12.19,-28.2 23.84,-56.62 36.01,-84.85 5.3,-12.3 5.74,-12.1 17.06,-4.7 21.52,15.2 45.96,25.81 71.74,31.16 5.49,1.04 11.09,1.55 16.66,1.55 6.28,0 12.59,-0.67 18.73,-1.99 17.32,-3.01 29.96,-18.05 29.96,-35.61 0,-10.64 -4.69,-20.75 -12.82,-27.62 -15.08,-12.57 -31.12,-24.28 -47.71,-34.77 -23.3,-14.92 -45.11,-32.34 -64.82,-51.82 -18.78,-19.24 -30.21,-44.52 -32.19,-71.31 -0.31,-4.01 -0.49,-8.03 -0.49,-12.05 0,-25.96 6.94,-51.48 20.06,-73.86 12.46,-21.16 30.19,-38.83 51.38,-51.21 28.55,-15.78 60.75,-24.1 93.41,-24.1 0.03,0 0.07,0 0.09,0l0.01 0zm666.76 482.46c-19.42,0 -38.84,-0.12 -58.25,0.12 -3.69,0 -4.84,-0.24 -4.44,-4.37 1.71,-17.52 4.09,-34.92 6.59,-52.34 2.24,-15.59 2.68,-31.47 5.48,-46.98 1.92,-11.11 3.41,-22.33 4.6,-33.46 2.09,-12.54 3.4,-25.28 3.83,-37.95 0,-8.53 1.22,-17.03 3.58,-25.2 3.19,-11.89 2.59,-24.13 4.93,-36.01 3.02,-15.45 3.08,-31.25 6.4,-46.7 2.26,-10.54 2.47,-21.5 3.83,-32.27 1.56,-11.78 3.6,-23.49 5.08,-35.25 1.47,-11.77 2.28,-23 3.68,-34.6 1.25,-10.3 2.95,-20.57 4.33,-30.86 1.51,-11.21 3.58,-22.39 4.08,-33.63 0.54,-12.44 2.61,-15.95 14.47,-17.06 31.84,-3.01 63.73,-5.75 95.58,-8.79 5.27,-0.52 7.01,0.99 6.53,6.4 -1.91,21.08 -3.39,42.16 -5.02,63.23 -0.12,1.44 -0.19,2.87 -0.19,4.3 0,0.49 0.01,0.98 0.02,1.46 0,1.01 0.21,2.51 0.88,2.93 1.5,1.02 2.69,-0.29 3.51,-1.42 8.25,-10.72 17.66,-20.59 27.98,-29.32 26.34,-25.8 59.13,-44.27 94.88,-53.36 11.75,-2.55 13.05,-1.8 13.16,10.67 0.22,20.54 0.16,41.09 0.39,61.63 0.15,14.75 0.39,29.51 0.94,44.26 0.25,6.64 -4.98,4.83 -7.99,5.37 -32.56,5.11 -63.77,16.87 -91.64,34.49 -29.52,18.57 -48.93,49.67 -52.61,84.32 -4.19,32.98 -8.28,65.96 -12.02,98.99 -3.37,29.92 -8.27,59.63 -11.49,89.55 -1.65,15.08 -3.72,30.1 -5.18,45.18 -0.53,5.62 -2.3,6.97 -7.67,6.9 -19.4,-0.27 -38.83,-0.1 -58.25,-0.1l0 -0.13 0 0z" data-name="Caminho 226"/></g></g></svg>