<svg  id="fndm-qqe27vh574" viewBox="0.9100000262260437 0.9270000457763672 337.8800048828125 398.6679992675781" xmlns="http://www.w3.org/2000/svg">
   <g xmlns="http://www.w3.org/2000/svg" fill-rule="evenodd" fill="none">
    <path d="m338.79,168.713c0,92.667 -75.64,167.79 -168.94,167.79c-93.303,0 -168.94,-75.123 -168.94,-167.79c0,-92.665 75.638,-167.786 168.94,-167.786c93.3,0 168.94,75.121 168.94,167.786" fill-rule="nonzero" fill="#FF0009"/>
    <path d="m169.85,168.32l0,0.29l0.265,-0.263l-0.025,-0.027l-0.24,0z" stroke-width="1.333" stroke="#232020"/>
    <path d="m170.115,168.346l0.024,-0.027l-0.05,0l0.026,0.027z" stroke-width="1.333" stroke="#232020"/>
    <path d="m169.85,168.08l0,0.24l0.24,0l-0.24,-0.24z" stroke-width="1.333" stroke="#232020"/>
    <path d="m322.115,168.321l1.54,-0.758l-102.368,-50.39l-51.148,51.147l151.976,0.001z" fill-rule="nonzero" fill="#FFF"/>
    <path d="m170.09,168.32l0.049,0l51.148,-51.148l-0.7,-0.345l-50.738,-103.07l0,154.323l0.241,0.24z" fill-rule="nonzero" fill="#0054F6"/>
    <path d="m169.85,168.08l-51.084,-51.083l-102.722,50.565l1.54,0.759l152.266,0l0,-0.241zm152.265,0.241l-151.976,0l-0.024,0.026l50.3,50.3l0.172,-0.35l101.528,-49.976z" fill-rule="nonzero" fill="#0054F6"/>
    <path d="m169.85,13.756l-50.735,103.07l-0.35,0.172l51.085,51.082l0,-154.324zm0,154.854l0,152.758l50.564,-102.721l-50.3,-50.3l-0.264,0.263z" fill-rule="nonzero" fill="#FFF"/>
    <path d="m169.85,168.32l-152.266,0l101.53,49.977l0.346,0.703l50.39,-50.39l0,-0.29z" fill-rule="nonzero" fill="#FFF"/>
    <path d="m119.46,219l50.39,102.367l0,-152.757l-50.39,50.39z" fill-rule="nonzero" fill="#0054F6"/>
    <path d="m290.81,285.68c-32.232,28.148 -74.628,45.248 -121.084,45.248s-88.852,-17.1 -121.084,-45.248l-39.876,51.612c37.895,41.3 92.713,62.303 160.96,62.303c68.245,0 123.065,-21.003 160.959,-62.303l-39.875,-51.612z" fill-rule="nonzero" fill="#0054F6"/>
    <path d="m78.574,323.628l-4.068,5.661l-16.17,-11.62l-4.714,6.563l14.838,10.664l-3.76,5.232l-14.838,-10.664l-5.395,7.505l16.512,11.867l-4.068,5.661l-23.245,-16.705l22.006,-30.623l22.902,16.459zm2.082,32.339c0.085,0.989 0.374,1.88 0.865,2.674c0.492,0.795 1.157,1.508 2,2.14c0.843,0.636 1.77,1.162 2.776,1.579c0.684,0.284 1.44,0.53 2.268,0.74a8.35,8.35 0 0 0 2.468,0.25a5.176,5.176 0 0 0 2.263,-0.635c0.692,-0.382 1.22,-1.011 1.582,-1.888c0.39,-0.946 0.407,-1.834 0.047,-2.67c-0.36,-0.833 -0.947,-1.649 -1.761,-2.442c-0.814,-0.795 -1.78,-1.595 -2.894,-2.399a100.636,100.636 0 0 1 -3.354,-2.532a35.458,35.458 0 0 1 -3.311,-2.77a14.048,14.048 0 0 1 -2.561,-3.203a9.297,9.297 0 0 1 -1.206,-3.784c-0.138,-1.372 0.123,-2.855 0.784,-4.451c0.739,-1.79 1.764,-3.185 3.075,-4.185a11.236,11.236 0 0 1 4.364,-2.052c1.6,-0.367 3.268,-0.438 5.005,-0.216c1.736,0.224 3.386,0.658 4.948,1.305a24.058,24.058 0 0 1 4.994,2.781c1.506,1.102 2.72,2.375 3.646,3.826a10.843,10.843 0 0 1 1.655,4.77c0.179,1.732 -0.15,3.607 -0.984,5.623l-7.419,-3.07c0.367,-1.069 0.503,-2.022 0.412,-2.858a4.664,4.664 0 0 0 -0.821,-2.227a6.816,6.816 0 0 0 -1.78,-1.708a14.201,14.201 0 0 0 -2.51,-1.325a9.989,9.989 0 0 0 -1.934,-0.573a5.45,5.45 0 0 0 -1.967,-0.012c-0.64,0.117 -1.222,0.35 -1.75,0.705c-0.527,0.355 -0.944,0.904 -1.255,1.653c-0.283,0.683 -0.383,1.29 -0.296,1.82c0.085,0.532 0.436,1.134 1.053,1.808c0.616,0.675 1.524,1.468 2.728,2.386c1.2,0.916 2.778,2.101 4.73,3.557c0.596,0.401 1.4,1.01 2.414,1.828c1.014,0.82 1.934,1.841 2.764,3.06c0.828,1.219 1.399,2.628 1.71,4.221c0.312,1.596 0.062,3.37 -0.744,5.323c-0.66,1.593 -1.583,2.945 -2.764,4.057c-1.186,1.11 -2.592,1.91 -4.222,2.396c-1.632,0.49 -3.464,0.636 -5.498,0.44c-2.035,-0.192 -4.24,-0.781 -6.614,-1.765a23.922,23.922 0 0 1 -5.296,-3.019c-1.61,-1.218 -2.898,-2.62 -3.862,-4.2c-0.967,-1.581 -1.532,-3.32 -1.7,-5.218c-0.167,-1.899 0.21,-3.915 1.132,-6.047l7.417,3.067c-0.484,1.172 -0.684,2.253 -0.597,3.24m35.574,-9.292l1.304,-6.847l30.35,5.776l-1.302,6.847l-11.103,-2.112l-5.746,30.196l-8.146,-1.55l5.746,-30.195l-11.103,-2.115zm56.684,16.395c1.901,-0.02 3.323,-0.46 4.263,-1.317c0.942,-0.857 1.401,-2.234 1.377,-4.136c-0.02,-1.83 -0.51,-3.153 -1.47,-3.97c-0.962,-0.816 -2.391,-1.215 -4.293,-1.19l-9.084,0.106l0.124,10.614l9.083,-0.106l0,-0.001zm2.76,-17.09c1.69,-0.021 3.213,0.233 4.576,0.765c1.361,0.528 2.533,1.263 3.513,2.203a9.713,9.713 0 0 1 2.255,3.273c0.527,1.246 0.797,2.59 0.813,4.032c0.026,2.22 -0.417,4.143 -1.332,5.774c-0.913,1.63 -2.421,2.88 -4.525,3.75l0.003,0.103c1.022,0.272 1.872,0.693 2.549,1.267a7.182,7.182 0 0 1 1.661,2.038c0.432,0.79 0.751,1.656 0.954,2.604c0.205,0.948 0.349,1.9 0.429,2.847c0.041,0.599 0.087,1.301 0.13,2.112a43.1,43.1 0 0 0 0.214,2.479c0.099,0.844 0.25,1.646 0.45,2.398c0.203,0.755 0.5,1.394 0.897,1.92l-8.292,0.096c-0.471,-1.193 -0.771,-2.614 -0.896,-4.268a63.743,63.743 0 0 0 -0.531,-4.748c-0.305,-1.969 -0.92,-3.404 -1.844,-4.309c-0.927,-0.904 -2.43,-1.344 -4.505,-1.321l-8.292,0.097l0.172,14.733l-8.291,0.098l-0.44,-37.707l20.332,-0.236zm48.156,-7.51l1.5,6.809l-19.442,4.286l1.743,7.89l17.842,-3.934l1.388,6.292l-17.842,3.938l1.989,9.024l19.856,-4.38l1.5,6.809l-27.952,6.164l-8.123,-36.823l27.541,-6.075zm16.003,-6.41l12.574,28.05l16.77,-7.519l2.851,6.363l-24.337,10.91l-15.426,-34.413l7.568,-3.391zm51.813,-4.143l-12.183,-8.098l-0.082,0.062l4.508,13.974l7.757,-5.938zm-14.435,-18.081l34.115,21.376l-6.836,5.232l-7.368,-4.936l-11.197,8.57l2.752,8.467l-6.624,5.07l-11.595,-38.612l6.753,-5.167z" fill-rule="nonzero" fill="#FFF"/>
   </g>
  </svg>