<svg  id="fndm-grmulqupva" viewBox="135.9995880126953 81.9998779296875 329.00042724609375 85.99983215332031" xmlns="http://www.w3.org/2000/svg">
   <g xmlns="http://www.w3.org/2000/svg" transform="translate(136 82)" fill="#FE0000">
    <path d="m192.967,40.64c-0.526,-9.135 -7.359,-12.18 -11.622,-11.945c-4.322,0.234 -7.067,2.518 -9.345,7.846l-1.285,-6.09l-17.93,0l0,40.342s-7.826,5.562 -17.229,4.8c-9.344,-0.76 -18.689,-6.615 -19.214,-10.421l29.844,-16.219s0.233,-19.497 -23.537,-20.55c-16.177,0.233 -32.647,16.745 -25.055,39.58c0,0 -8.118,6.615 -11.622,7.084c-3.563,0.527 -3.796,-3.572 -4.03,-13.467c-0.233,-9.895 0.234,-20.258 0.234,-20.258l9.87,0l0,-10.598l-8.585,0l0,-16.744l-19.741,11.416l0,5.562l-5.84,0l0,9.368l5.08,0l0,30.447s-5.08,5.562 -16.703,5.094c-10.396,-0.762 -23.77,-6.85 -23.77,-20.552c-0.526,-5.855 3.796,-12.178 6.074,-14.696c0,0 3.037,2.81 8.877,2.81c5.84,0 14.66,-2.81 14.192,-9.133c-0.467,-6.324 -10.162,-11.71 -21.55,-6.148c0,0 -4.323,-4.04 -4.03,-9.895c0.233,-4.567 8.877,-16.219 14.659,-11.417c0,0 -2.512,3.044 -2.512,5.855c0,2.81 2.044,7.845 7.593,7.845c5.548,0 9.87,-4.332 9.636,-8.607c-0.232,-4.332 -5.079,-12.178 -22.251,-11.944c-17.287,0.293 -24.354,13.467 -24.82,19.79c0,5.094 1.751,9.134 8.117,13.935c0,0 -16.703,6.85 -16.47,25.353c0.234,11.651 9.637,26.64 34.4,26.874c12.673,0 23.01,-4.04 29.085,-8.9c0,0 -0.993,9.661 10.863,8.9c10.104,-0.76 18.98,-7.611 24.296,-12.705c0,0 8.351,13.466 29.084,12.705c14.952,-0.234 17.93,-4.8 24.004,-9.134l0,8.139l19.215,0l0,-34.72s0.233,-9.369 2.278,-7.085c2.044,2.283 5.84,7.611 10.103,7.846c4.322,0.234 10.163,-1.288 9.637,-10.364l0,0.001zm-157.807,-7.204c0.175,-2.342 2.92,-3.22 5.549,-2.693c4.555,0.82 6.891,2.693 6.6,4.567c-0.351,1.874 -4.264,2.752 -6.893,2.225c-3.445,-0.703 -5.431,-1.757 -5.256,-4.099zm86.67,2.694c7.243,0 9.754,12.998 9.754,12.998l-17.054,10.305c-6.54,-8.607 0,-23.303 7.3,-23.303zm76.17,-4.47l0,53.797l20.163,0s0,-39.74 -0.175,-41.418c-0.175,-1.678 2.04,-6.537 7.576,-6.652c4.545,0.173 6.701,2.313 6.701,7.346l0,34.881s0.175,6.826 7.576,6.363c7.4,-0.52 17.832,-4.859 24.417,-8.503c0,0 -1.166,8.503 9.09,8.156c10.257,-0.347 20.513,-7.693 27.914,-11.858l0,11.511l18.006,0l0,-43.732l9.732,0l0,-10.354l-10.081,0l0,-16.197l-18.007,10.702l0,5.669l-6.06,0l0,10.007l6.06,0l0,26.03s-9.266,7.52 -14.452,8.157c-5.186,0.694 -3.73,-4.685 -3.73,-8.503l0,-33.898l-17.657,0l0,35.228s-7.575,7 -11.246,7c-3.73,0 -3.847,-2.025 -3.847,-7.868l0,-21.864c0,-3.992 -2.04,-16.892 -15.326,-16.892c-9.615,0 -12.12,2.661 -15.792,6.826l-1.69,-4.165l-19.172,0.231z"/>
    <circle r="10.5" cy="18.5" cx="274.5"/>
   </g>
  </svg>