<svg  id="fndm-qcyugk1xxt" data-name="Camada 1" viewBox="0.02000141143798828 -0.010455183684825897 133.87998962402344 29.94045639038086" xmlns="http://www.w3.org/2000/svg">
   <path d="m70.51,14.69l-3.2,0l0,1.59l3.2,0l0,9.72c0,2.38 0.71,3.66 4,3.66a16.72,16.72 0 0 0 2.29,-0.17l0,-1.76a10.07,10.07 0 0 1 -2.07,0.17c-1.7,0 -2.1,-0.59 -2.1,-1.87l0,-9.75l4.17,0l0,-1.59l-4.19,0l0,-4.69l-2.1,0l0,4.69zm-16.35,4.54c0.14,-2.35 1.73,-3.23 5,-3.23s4.87,0.76 4.87,2.89c0,1.45 -0.57,1.7 -5.16,2c-3.23,0.17 -7.34,0.62 -7.34,4.62c0,3.32 3.2,4.42 5.72,4.42c4.82,0 6.24,-2 6.89,-2.95l0.06,0c0,1.16 0.14,2.61 2.27,2.61a8.88,8.88 0 0 0 1.76,-0.23l0,-1.46c-0.37,0 -0.74,0.06 -1.11,0.06c-0.82,0 -1.16,-0.42 -1.16,-1.64l0,-7.72c0,-2.83 -1.81,-4.37 -6.75,-4.37s-6.72,1.9 -7,5l1.95,0zm9.92,4.51c0,3 -3.32,4.56 -6.15,4.56c-2.27,0 -4.25,-0.68 -4.25,-3c0,-1.76 1.42,-2.49 3.85,-2.72c4.19,-0.4 5.61,-0.51 6.55,-1.11l0,2.27zm-15.59,0.43c-0.54,2.29 -2.27,4 -5.36,4c-4,0 -6.21,-2.41 -6.21,-6.06c0,-3.4 2,-6.06 6.21,-6.06c2.61,0 4.59,1 5.24,3.51l2.1,0c-0.34,-2.12 -2.3,-5.27 -7.34,-5.27c-5.58,0 -8.3,3.4 -8.3,7.82c0,4.62 3,7.82 8.3,7.82s7.06,-3.8 7.45,-5.72l-2.09,-0.04zm-17.66,5.26l2.1,0l0,-14.74l-2.1,0l0,8c0,3.34 -1.87,5.44 -6,5.44c-2.66,0 -4.45,-1 -4.45,-3.94l0,-9.5l-2.1,0l0,9.13c0,3.51 1.47,6.07 6.38,6.07c3.26,0 5.47,-1.79 6.09,-3.34l0.06,0l0.02,2.88zm-17,-4.71c-0.74,2.24 -2.32,3.4 -5.84,3.4c-3.74,0 -5.92,-2.49 -5.92,-5.55l14.25,0c0,-6.69 -4.51,-8.33 -8.3,-8.33c-5.5,0 -8,3.71 -8,7.82c0,3.6 2,7.82 8,7.82c4.88,0 7.08,-2.55 7.94,-5.16l-2.13,0zm-11.73,-3.72c0.48,-3.6 3.37,-5 6.07,-5s5.47,1.36 6.06,5l-12.13,0zm89.75,3.72c-0.74,2.24 -2.32,3.4 -5.84,3.4c-3.74,0 -5.92,-2.49 -5.92,-5.55l14.23,0c0,-6.69 -4.51,-8.33 -8.3,-8.33c-5.5,0 -8,3.71 -8,7.82c0,3.6 2,7.82 8,7.82c4.87,0 7.08,-2.55 7.94,-5.16l-2.11,0zm-11.76,-3.72c0.48,-3.6 3.37,-5 6.07,-5s5.47,1.36 6.06,5l-12.13,0z" fill="#3d3d3f"/>
   <path d="m93.98,29.43l2.75,0l5.44,-6.12l5.47,6.12l2.77,0l-6.91,-7.65l6.38,-7.09l-2.75,0l-4.96,5.61l-4.99,-5.61l-2.72,0l6.29,7.09l-6.77,7.65z" fill="#3d3d3f"/>
   <path d="m117.88,8.28a10.75,10.75 0 0 0 -1.61,-2.75a8.81,8.81 0 0 0 -1.15,-1.25l0.16,0.07a11.78,11.78 0 0 1 3.47,2.78c0.25,-0.29 0.51,-0.56 0.76,-0.83a11.53,11.53 0 0 1 3.17,-2.25a11.43,11.43 0 0 0 -10.76,-3.88c0,0.1 -0.1,0.21 -0.15,0.34a11.43,11.43 0 0 0 4.15,13.38a12.16,12.16 0 0 1 2,-5.61" fill="#0091b3"/>
   <path d="m133.9,5.29a11.29,11.29 0 0 0 -5.9,-1.62a11.44,11.44 0 0 0 -11.4,10.56c0,0.43 0.25,0.51 0.36,0.35a15,15 0 0 1 9.13,-6.07a21.36,21.36 0 0 0 -8.45,6.86c-1,1.44 -2.3,3.34 -2.35,3.44a0.46,0.46 0 0 0 0,0.45l0.56,0.27s0.16,0.19 0.36,-0.06s1.73,-2.92 1.94,-3.29a11.31,11.31 0 0 0 4.3,0.83a11.41,11.41 0 0 0 11.4,-11.4a1.36,1.36 0 0 0 0,-0.34" fill="#e2e71f"/>
  </svg>