<svg  id="fndm-igtbih1nna" viewBox="155 90 290 68" xmlns="http://www.w3.org/2000/svg">
   <path d="m178.988,118.676c0.935,-8.717 4.565,-15.135 13.284,-15.135c8.72,0 12.612,6.418 13.547,15.135l-26.831,0zm42.66,11.093s5.352,0 5.352,-5.565c0,-20.33 -12.387,-34.204 -36,-34.204s-36,13.54 -36,34.019c0,20.515 12.387,33.981 36,33.981c15.717,0 26.495,-5.973 31.921,-16.063c0,0 0.3,-0.483 0.3,-1.15c0,-1.336 -1.048,-2.449 -2.358,-2.449l-17.589,0c-2.095,3.784 -5.763,6.158 -11.04,6.158c-8.569,0 -12.199,-6.232 -13.246,-14.727l42.66,0zm99.302,-11.077c0.936,-8.723 4.566,-15.144 13.285,-15.144c8.72,0 12.611,6.421 13.547,15.144l-26.832,0zm42.699,11.098s5.351,0 5.351,-5.567c0,-20.34 -12.387,-34.223 -36,-34.223s-36,13.51 -36,34c0,20.526 12.387,34 36,34c15.717,0 26.495,-5.976 31.921,-16.072c0,0 0.3,-0.483 0.3,-1.15c0,-1.337 -1.048,-2.45 -2.358,-2.45l-17.551,0c-2.096,3.786 -5.763,6.161 -11.04,6.161c-8.57,0 -12.2,-6.236 -13.247,-14.736l42.624,0l0,0.037zm-132.649,25.791l0,-60.017c0,-5.564 5.413,-5.564 5.413,-5.564l18.587,0l0,67.992l-21.615,0c0,0.037 -2.385,0.037 -2.385,-2.41"/>
   <path d="m257,158l52,-68l-17.183,0s-5.377,0 -9.625,5.562l-25.192,32.924l0,29.514zm139.726,-2.447c0,2.447 -2.358,2.447 -2.358,2.447l-21.368,0l0,-68l18.374,0s5.352,0 5.352,5.525l0,3.077c5.052,-5.636 12.499,-8.602 20.806,-8.602c15.156,0 27.468,11.828 27.468,26.436l0,39.08c0,2.447 -2.358,2.447 -2.358,2.447l-21.368,0l0,-36.113c0,-7.045 -5.5,-12.718 -12.274,-12.718c-6.773,0 -12.274,5.71 -12.274,12.718l0,33.703z"/>
  </svg>