<svg  id="fndm-6g9opq3bgt" viewBox="136 72 328 106" xmlns="http://www.w3.org/2000/svg">
   <g xmlns="http://www.w3.org/2000/svg" fill-rule="evenodd" fill="none">
    <path d="m136,72l148,0l0,106l-148,0l0,-106z" fill="#E12626"/>
    <path d="m142,78l136,0l0,94l-136,0l0,-94zm4.383,4.348l127.234,0l0,85.305l-127.234,0l0,-85.306l0,0.001z" fill="#FFF"/>
    <path d="m156,92l49,0l0,11.207l-40.214,0l0,18.719l40.214,0l0,11.207l-40.214,0l0,18.66l40.214,0l0,11.207l-49,0l0,-71m56,0l49,0l0,13.73l-38.091,46.65l38.091,0l0,10.62l-49,0l0,-13.555l38.74,-47.47l-38.74,0l0,-9.975m143,11l51,0l0,7.709l-40.254,0l0,15.593l35.089,0l0,9.52l-35.089,0l0,15.593l40.254,0l0,8.585l-51,0l0,-57m-65,0l61,0l0,9.344l-25.068,0l0,47.656l-10.864,0l0,-48.59l-25.068,0l0,-8.41m174,48.765l0,8.235l-39.264,0c-7.546,0 -13.736,-6.015 -13.736,-13.432l0,-30.136c0,-7.358 6.19,-13.432 13.736,-13.432l39.264,0l0,8.235l-32.956,0c-5.718,0 -10.434,4.321 -10.434,9.578l0,21.433c0,5.256 4.657,9.578 10.434,9.578l32.956,-0.059" fill="#25201F"/>
   </g>
  </svg>