<svg  id="fndm-e5w4jm4q2z" viewBox="184 36.99978256225586 232.99993896484375 178.00018310546875" xmlns="http://www.w3.org/2000/svg">
   <g xmlns="http://www.w3.org/2000/svg" fill-rule="evenodd" fill="none">
    <path d="m306.107,84.753l0,52.247l-0.972,-0.227c-3.74,-0.453 -10.246,-1.963 -13.462,-3.624l-0.598,-0.377l0,-48.472l0.972,0c4.039,-0.68 8.451,-0.453 12.49,0.226l0.822,0l0.748,0.227zm-15.107,-46.811l0.823,0l0,-0.227l0.224,0.227l0.972,-0.227c24.232,-4.077 48.314,9.664 59.607,31.333l0.374,0.831l-11.667,11.778l-0.374,-0.83c-5.16,-15.176 -18.398,-25.973 -34.029,-28.238l-0.823,-0.226l0,19.932l-1.196,0c-4.787,0.076 -8.526,0.604 -13.088,1.812l-0.823,0l0,-36.165z" fill-rule="nonzero" fill="#000"/>
    <path d="m306.107,84.753l0,52.247l-0.972,-0.227c-3.74,-0.453 -10.246,-1.963 -13.462,-3.624l-0.598,-0.377l0,-48.472l0.972,0c4.039,-0.68 8.451,-0.453 12.49,0.226l0.822,0l0.748,0.227zm-15.107,-46.811l0.823,0l0,-0.227l0.224,0.227l0.972,-0.227c24.232,-4.077 48.314,9.664 59.607,31.333l0.374,0.831l-11.667,11.778l-0.374,-0.83c-5.16,-15.176 -18.398,-25.973 -34.029,-28.238l-0.823,-0.226l0,19.932l-1.196,0c-4.787,0.076 -8.526,0.604 -13.088,1.812l-0.823,0l0,-36.165z" fill-rule="nonzero" fill="#000"/>
    <path d="m269.545,114.407l-0.38,-0.376l-0.227,-0.377l-0.606,-0.602l-0.228,-0.376l-0.834,-0.829l-0.379,-0.226l-0.379,-0.376l-0.379,-0.226l-0.227,0l-0.38,-0.226l-0.227,-0.226l-0.379,0l-0.227,-0.226l-0.38,-0.225l-0.227,0l-0.379,-0.226l-0.379,0l-0.227,-0.226l-0.834,0c-1.971,0.075 0.152,-0.301 -1.82,-0.226l-0.833,0.226l-0.607,0l-0.834,0.226l-0.606,0.226l-0.607,0.225c-2.653,0.829 -4.548,3.238 -5.306,5.873l-0.38,1.205c-0.985,3.765 0.835,6.777 3.033,9.713l0.834,1.43l0.985,1.431l1.213,1.431l0.986,1.205c37.753,43.068 108.103,12.95 102.342,-44.65l-0.228,-0.603l0,-0.376l0,3.012c0.607,49.694 -62.618,67.615 -89.227,27.181l-0.834,-1.43" fill="#B2B2B2"/>
    <path d="m333.889,80.812l0.38,0.229l0.227,0.228l0.38,0.228l0.227,0.228l0.228,0.38l0.379,0.23l0.228,0.38l0.227,0.228l0.38,0.837l0,0.228l0.227,0.38l0,0.381l0.228,0.38l0,1.675l-0.228,0.228l0,0.609l-0.227,0.38l0,0.228l-0.228,0.229l0,0.228l-0.228,0.228l-0.227,0.38l-0.38,0.381l0,0.229l-0.607,0.608l-0.227,0l-0.38,0.229l-0.38,0.38l-0.227,0l-0.227,0.228l-0.38,0l-0.227,0.229l-0.228,0l-0.38,0.228l-2.276,0l-0.228,-0.228l-0.379,0l-0.228,-0.229l-0.379,0l-0.228,-0.228l-0.227,0l-0.38,-0.38l-0.227,0l-0.835,-0.61c-25.117,-16.512 -58.732,-7.685 -72.39,19.71l-0.835,1.445l-0.607,1.674l0.835,-2.055c13.203,-30.894 48.184,-44.134 78.309,-30.741l0.834,0.38" fill="red"/>
    <path d="m189.897,157l222.038,0l0.151,0.227l0.605,0l0.227,0.152l0.378,0l0.453,0.455l0.378,0l0.227,0.152l0.227,0.227l1.587,1.668l0,0.152l0.227,0.455l0.227,0.151l0,0.228l0.151,0.379l0,0.682l0.227,0.152l0,47.84l-0.227,0.152l0,0.606l-0.151,0.455l0,0.152l-0.227,0.227l-0.227,0.455l0,0.152l-1.587,1.668l-0.227,0.152l-0.227,0.227l-0.378,0l-0.453,0.455l-0.378,0l-0.227,0.152l-0.605,0l-0.151,0.227l-222.87,0l-0.378,-0.227l-0.378,0l-0.453,-0.152l-0.152,0l-0.226,-0.228l-0.454,-0.227l-0.151,0l-0.605,-0.607l-0.454,-0.227l-0.378,-0.38l0,-0.227l-0.226,-0.151l-0.605,-0.607l0,-0.455l-0.227,-0.227l0,-0.152l-0.151,-0.455l0,-0.151l-0.227,-0.455l0,-48.144l0.227,-0.455l0,-0.227l0.151,-0.38l0,-0.227l0.227,-0.151l0,-0.455l0.605,-0.607l0.226,-0.227l0,-0.152l0.378,-0.455l0.454,-0.151l0.605,-0.607l0.151,0l0.454,-0.227l0.226,-0.228l0.152,0l0.453,-0.152l0.378,0l0.378,-0.227l0.605,0" fill-rule="nonzero" fill="#000"/>
    <path d="m393.242,192.04l-0.377,0.218l-0.452,0c-2.185,1.24 -5.05,0.584 -6.708,2.552l0,0.365l-0.226,0.219l0,0.947l0.226,0.22l0,0.218l0.377,0.364l0,0.22l0.226,0.218l0.226,0l0.227,0.219l0.376,0l0.227,0.218l0.98,0l0.225,0.22l0.377,-0.22l0.98,0l0.226,-0.218l0.226,0l0.377,-0.22l0.226,0l0.226,-0.218l0.226,-0.219l0.227,-0.218l0.226,0l0.226,-0.22l0,-0.218l0.377,-0.364l0,-0.22l0.226,-0.364l0.226,-0.218l0,-0.365l0.226,-0.219l0,-0.583l0.226,-0.219l0,-1.385l-0.15,-0.51l-0.001,0zm-16.656,-6.344l0,-1.166c1.507,-7.145 10.778,-7 16.656,-6.854l0.603,0l0.603,0.22l1.206,0c0.83,0.437 1.809,0.29 2.638,0.801l0.603,0.219l1.206,0.583l0.377,0.365l0.377,0.218l0.377,0.365l0.226,0.364l0.603,0.584l0.376,0.583l0.227,0.365c0.527,0.802 0.376,1.75 0.829,2.551l0,15.312l0.226,0.218l0,0.584l0.226,0l0,0.218l0.226,0.22l0,0.218l0.377,0.364l0.226,0l0.226,0.22l0,0.582l-10.552,0l-0.603,-2.77l-0.226,0.219l-0.377,0.364l-0.377,0.219l-0.602,0.583l-0.377,0.219l-0.226,0.146l-0.227,0l-0.376,0.218l-0.226,0.22l-0.377,0.218l-0.226,0l-0.377,0.219l-0.226,0l-0.377,0.218l-0.226,0l-0.377,0.22l-0.377,0l-0.226,0.218l-0.905,0l-0.226,0.219l-1.658,0l-0.603,0.218l-1.206,0l-0.377,-0.218l-1.432,0l-0.376,-0.22l-0.377,0l-0.377,-0.218l-0.377,-0.219l-0.377,0l-0.377,-0.218l-0.226,-0.22l-0.377,-0.218c-1.055,-0.364 -2.562,-2.041 -3.014,-2.916l0,-0.438l-0.377,-0.802l0,-0.364l-0.226,-0.365l0,-2.552l0.226,-0.218l0,-0.584l0.226,-0.364l0,-0.219l0.226,-0.219l0,-0.218l0.226,-0.365l0,-0.219l0.226,-0.219l0.226,-0.218l0.226,-0.219l0,-0.146l0.98,-0.948l0.377,-0.218l0.377,-0.365l0.226,0l0.226,-0.219l0.377,-0.218l0.226,0l0.377,-0.22l0.226,-0.218l0.377,0l0.377,-0.219l0.603,-0.218l0.603,0l0.376,-0.219l0.603,-0.219l0.603,0l0.603,-0.218l0.377,0l1.206,-0.22l1.206,-0.218l0.98,-0.219l1.206,0l0.603,-0.218l0.98,0l0.226,-0.22l0.376,0l0.377,-0.218l0.226,0l0.227,-0.219l0.226,0l0,-0.218l0.376,0l0,0.145l0.227,-0.218l0,-0.219l0.226,0l0,-1.385l-0.226,-0.219l0,-0.219l-0.227,0l0,-0.218l-0.226,0l-0.376,-0.365l-0.227,0l-0.376,-0.073l-0.83,0l-0.226,-0.219l-1.432,0l-0.226,0.22l-0.829,0l-0.377,0.364l-0.226,0l-0.829,0.802l0,0.218l-0.226,0l0,0.584l-0.226,0.218l-9.647,0l0,-0.073zm-15.451,-0.364l-0.226,-0.365l0,-0.364l-0.226,-0.219l-0.226,-0.364l0,-0.22l-0.227,0l-0.226,-0.218c-0.829,-0.802 -1.96,-0.583 -3.014,-0.583l-0.377,0l-0.226,0.219l-0.377,0l-0.226,0.218l-0.226,0.219l-0.377,0.365l0,0.218l-0.226,0.219l0,0.365l0.226,0.218l0,0.365l0.226,0l0.226,0.219l0,0.218l0.226,0l0.226,0.219l0.377,0.219l0.226,0c1.809,0.802 4.598,0.948 6.331,1.604l0.377,0l0.603,0.219l0.377,0.218l0.603,0l0.377,0.219l0.603,0.219l0.376,0.218l0.226,0.22l0.377,0l0.226,0.218l0.227,0l0.376,0.219l0.377,0.364l0.226,0l0.377,0.365c0.679,0.729 1.658,1.385 1.81,2.333l0.225,0.219l0,0.218l0.226,0.365l0,0.364l0.226,0.365l0,2.552l-0.226,0.583l0,0.365l-0.226,0.583l-0.377,0.365l-0.226,0.364c-1.96,3.791 -9.421,4.885 -13.416,4.74l-0.98,0l-0.602,-0.22c-1.508,0.073 -4.447,-0.802 -5.88,-1.385l-0.376,-0.219l-0.377,-0.364c-1.733,-0.802 -3.015,-2.479 -3.618,-4.156l0,-0.365l-0.376,-1.166l0,-0.583l9.722,0l0,0.802l0.226,0.218l0,0.22l0.226,0.218l0,0.219l0.377,0.364l0,0.219l0.226,0l0,0.219l0.227,0l0.226,0.218l0.226,0l0,0.22l0.603,0l0.226,0.218l2.638,0l0.226,-0.219l0.377,0l0.226,-0.219l0.226,0l0.226,-0.218l0,-0.22l0.226,0l0.226,-0.218l0,-0.219l0.226,-0.218l0,-1.167l-0.226,0l0,-0.364l-0.452,0l0,-0.22l-0.226,0l-0.226,-0.218l-0.226,0l0,-0.219l-0.226,0l-0.227,-0.218l-0.226,0c-3.391,-1.531 -9.42,-1.24 -11.983,-3.938l-0.98,-0.947l0,-0.22l-0.377,-0.364l0,-0.364l-0.377,-0.365l0,-0.364l-0.226,-0.219l0,-0.583l-0.226,-0.22l0,-2.186l0.226,-0.584l0,-0.583l0.377,-0.802l0.226,-0.583l0.377,-0.365l0.226,-0.364l0.377,-0.22l0.226,-0.364l0.377,-0.364l0.377,-0.219l0.376,-0.364l0.377,-0.22l0.603,-0.218l0.377,-0.364l0.377,-0.22l0.603,-0.218l0.377,0l0.603,-0.219l0.377,-0.218l0.602,-0.22c1.734,-0.218 3.467,-0.51 5.276,-0.364l2.261,0l0.377,0.22l0.603,0l0.377,0.218l0.603,0l0.377,0.219l0.603,0l0.377,0.218l0.603,0.219l0.377,0.219l0.602,0.218l0.377,0.22l0.377,0.218c1.734,1.02 2.713,1.968 3.618,3.718l0,0.584l0.226,0.364l0.226,0.583l0,0.584l-8.818,0l0,-0.146zm-30.45,6.708l-0.376,0.218l-0.377,0l-0.377,0.22l-0.377,0.218l-0.829,0.219l-0.98,0.218l-0.527,0l-0.377,0.22l-0.377,0l-0.377,0.218l-0.377,0l-1.206,0.583l-0.301,0l0,0.219l-0.226,0l0,0.219l-0.226,0l0,0.218l-0.226,0l0,0.219l-0.227,0.219l0,1.604l0.227,0.218l0,0.22l0.603,0.583l0.226,0l0.226,0.218l0.226,0l0.226,0.219l0.98,0l0.377,0.219l0.376,0l0.227,-0.219l0.603,0l0.226,-0.219l0.603,0l0.603,-0.583l0.226,0l0.829,-0.802l0,-0.219l0.226,-0.364l0,-0.22l0.226,-0.218l0,-0.219l0.226,-0.218l0,-0.365l0.226,-0.219l0,-0.947l0.226,-0.365l0,-1.313l-0.15,0l-0.001,0.001zm-16.807,-6.344l0,-0.947l0.226,-0.365l0,-0.583l0.226,-0.219l0,-0.582l0.377,-0.365l0,-0.218l0.226,-0.365l0,-0.219l0.226,-0.219l0.227,-0.364l0.376,-0.219l0.226,-0.364l0.377,-0.22l0.603,-0.582l0.377,-0.22l0.377,-0.218c2.638,-1.53 8.065,-2.041 10.929,-1.75l2.637,0c3.543,0.365 7.236,1.313 8.743,4.74l0.226,0.364l0.227,0.583l0.226,0.365c0.98,5.104 0.301,10.499 0.377,15.749l0,1.385l0.226,0.219l0,0.218l0.377,0.365l0,0.219l0.226,0.218l0.226,0l0.226,0.219l0,0.583l-10.552,0l-0.377,-2.77l-0.226,0.218l-0.377,0.22l-0.226,0.218l-0.226,0.219l-0.226,0.218l-0.377,0.22l-0.377,0.364l-0.377,0.218l-0.226,0l-0.226,0.22l-0.377,0.218l-0.226,0.219l-0.377,0l-0.226,0.218l-0.527,0l-0.226,0.22l-0.377,0l-0.377,0.218l-0.226,0l-0.377,0.219l-0.603,0l-0.377,0.218l-1.432,0l-0.377,0.219l-0.377,0c-3.391,0.073 -7.386,-1.167 -8.969,-4.302l-0.376,-0.802l0,-0.364l-0.227,-0.365l0,-0.802l-0.226,-0.364l0,-1.167l0.226,-0.219l0,-0.948l0.227,-0.218l0,-0.584l0.376,-0.364l0,-0.365l0.227,-0.218l0,-0.22l1.808,-1.749l0.227,-0.219l0.226,-0.218l0.376,0l0.377,-0.365l0.377,0l0.377,-0.365l0.377,0l0.603,-0.218l0.377,-0.219l0.603,0l0.603,-0.219l0.376,-0.218l0.603,0l0.603,-0.22l0.603,0l0.98,-0.218l1.206,-0.219l1.206,-0.218l0.98,0l0.603,-0.22l0.98,0l0.376,-0.218l0.226,0l0.377,-0.219l0.377,0l0,-0.218l0.226,0l0.226,-0.22l0.226,0l0.227,-0.218l0,-0.219l0.226,0l0,-0.218l0.226,-0.219l0,-0.948l-0.226,0l0,-0.364l-0.226,-0.22l-0.227,0l0,-0.218l-0.376,-0.219l-0.226,-0.218l-0.227,0l0.076,-0.292l-0.83,0l-0.376,-0.219l-1.206,0l-0.377,0.22l-0.603,0l-0.226,0.218l-0.377,0.219l-0.226,0l-0.377,0.364l0,0.219l-0.226,0l0,0.219l-0.226,0l0,0.364l-0.226,0.219l0,0.364l-9.949,0l0,-0.073l0,-0.001zm-19.295,-0.583l-1.205,0l-0.227,0.219l-0.226,0l-0.226,0.219l-0.226,0l-0.377,0.218l-0.98,0.948l0,0.219l-0.226,0.219l0,0.218l-0.226,0.22l0,0.218l-0.226,0.219l0,0.218l-0.226,0.365l0,0.364l-0.226,0.22l0,3.134l0.226,0.219l0,0.365l0.226,0.364l0,0.365l0.226,0.218l0,0.22l0.226,0.364l0,0.218l0.603,0.584l0,0.218l0.226,0.22l0.227,0l0.226,0.218l0.226,0.219l0.226,0.218l0.226,0l0.226,0.22l0.603,0l0.226,0.218l0.98,0l0.226,-0.219l0.603,0l0.226,-0.219l0.226,0l0.226,-0.218l0.226,0l0.377,-0.365l0.226,0l0.227,-0.219l0.226,-0.218l0.226,-0.22l0,-0.218l0.377,-0.364l0,-0.22l0.226,-0.218l0,-0.583l0.226,-0.219l0,-0.219l0.226,-0.218l0,-0.948l0.226,-0.583l0,-0.948l-0.226,-0.584l0,-0.802l-0.226,-0.364l0,-0.365l-0.226,-0.218l0,-0.22l-0.226,-0.364l0,-0.218l-0.377,-0.365l0,-0.365l-0.226,-0.218l-0.226,0l-0.377,-0.365l0,-0.219l-0.226,-0.218l-0.227,0l-0.376,-0.219l-0.377,0l-0.226,-0.219l-1.056,0l0,0.073zm-14.395,-16.113l10.175,0l0,11.811l1.206,-1.166l0.377,-0.219c1.28,-1.093 2.939,-1.677 4.672,-1.75l1.206,0c2.035,-0.218 3.995,0.584 5.653,1.604l0.603,0.365l0.83,0.802c3.692,3.5 4.747,9.04 3.617,13.78l-0.377,1.167l0,0.583l-0.226,0.583l-0.377,0.583c-0.603,1.823 -2.035,3.427 -3.618,4.52l-0.452,0.147l-0.603,0.364c-1.96,0.802 -3.994,1.386 -6.105,1.386l-0.603,0l-0.377,-0.22l-0.829,0l-0.377,-0.218l-0.602,0l-0.227,-0.219l-0.226,0l-0.377,-0.218l-0.226,0l-0.376,-0.365l-0.377,0l-0.603,-0.583l-0.226,0l-0.98,-0.948l-0.226,-0.365l-0.226,-0.218l0,-0.22l-0.377,-0.364l-0.226,-0.364l-0.227,0l0,3.5l-8.968,0l0,-33.758l0.075,0zm-22.385,9.04l9.346,0l0,4.886l0.226,0l0,-0.365l0.226,-0.364c1.055,-1.75 1.055,-1.969 2.638,-3.354l0.377,-0.219l0.226,0l0.377,-0.219l0.226,-0.218l0.377,-0.219l0.226,0l0.377,-0.219l0.603,0l0.377,-0.218l0.829,0l0.226,-0.22l2.035,0l0,9.844l-0.226,0l-0.377,-0.22l-0.226,0c-1.432,0.074 -0.603,-0.29 -1.81,-0.218l-0.376,0.219l-0.98,0l-0.226,0.219l-0.452,0l-0.226,0.218l-0.377,0l-0.226,0.22l-0.226,0l-0.377,0.218l-0.603,0.583l-0.226,0.219l-0.377,0.364l0,0.22l-0.226,0.364l-0.226,0.218l0,0.365l-0.226,0.219l-0.227,0.364l0,0.802l-0.226,0.365l0,10.572l-10.325,0l0,-24.426l0.075,0zm-14.019,17.28l9.723,0l-0.226,0.365l0,0.365l-0.377,0.802c-1.357,3.354 -5.653,5.833 -9.346,6.27l-0.603,0l-0.829,0.219l-0.603,0c-3.165,0.437 -2.713,0 -5.276,0l-0.376,-0.219l-0.377,0c-0.679,-0.073 -2.638,-0.583 -3.241,-0.948l-0.377,0l-0.226,-0.219l-0.377,-0.218l-0.226,-0.219l-0.83,-0.365c-1.28,-0.947 -1.356,-0.656 -2.411,-1.968l-0.452,-0.292l-0.226,-0.364l-0.377,-0.365l-0.226,-0.364l-0.377,-0.365l0,-0.365l-0.377,-0.364l0,-0.365l-0.226,-0.218l-0.226,-0.365l0,-0.219l-0.226,-0.364l0,-0.219l-0.226,-0.364l0,-0.802l-0.227,-0.22l0,-0.947l-0.226,-0.583l0,-1.386c-0.15,-1.822 0.302,-1.24 0.226,-2.77l0.227,-0.219l0,-0.364l0.226,-0.22l0,-0.364l0.226,-0.219l0,-0.364l0.226,-0.219l0,-0.364l0.226,-0.22l0,-0.364l0.226,-0.218l0.226,-0.365l0.226,-0.219l0,-0.218l0.226,-0.365l0.377,-0.364l0.226,-0.365l0.603,-0.583l0.226,-0.365l0.227,-0.219l0.376,-0.218l0.227,-0.22l0.226,-0.364l0.376,-0.218l0.227,-0.22l0.376,-0.218l0.227,-0.219l0.376,-0.218l0.227,-0.219l0.376,-0.219l0.377,-0.218l0.226,-0.22l0.377,-0.218l0.226,0l0.83,-0.364l0.376,0l0.226,-0.22l0.377,0l0.377,-0.218l0.377,0l0.377,-0.219l0.603,0l0.376,-0.218l3.844,0c0.83,-0.073 3.166,0.291 3.844,0.583l0.377,0l0.377,0.219l0.226,0.218l0.377,0l0.829,0.365l0.377,0.219l0.377,0.218l0.226,0.22l1.206,0.582l0.829,0.802l0.377,0.22l0.226,0.364l0.377,0.218l0.376,0.802l0.377,0.365l0.226,0.365l0.226,0.218l0.227,0.365l0.226,0.219c1.055,1.75 1.432,3.208 2.035,5.103l0,0.802l0.226,0.584l0,2.187l-19.672,0l0,0.364l0.226,0.365l0,0.365l0.226,0.218l0,0.365l0.227,0.219l0,0.218l0.226,0.365l0.829,0.802l0.226,0.219l0,0.218l0.226,0l0.377,0.365l0.226,0l0.226,0.219l0.377,0l0.226,0.218l0.226,0l0.226,0.219l2.638,0l0.226,-0.219l0.226,0l0.377,-0.218l0.226,0l1.432,-1.386l0,-0.291l0,-0.001zm-9.12,-7.655l9.573,0l0,-0.364l-0.227,-0.22l0,-0.583l-0.226,-0.218l0,-0.219l-0.226,-0.219l0,-0.218l-0.226,-0.22l0,-0.218l-0.226,-0.219l-0.226,0l0,-0.218c-0.905,-0.948 -0.075,0.218 -0.98,-0.802l-0.226,0l0,-0.22l-0.226,0l-0.226,-0.218l-0.377,0l-0.226,-0.219l-2.412,0l-0.226,0.22l-0.377,0l-0.226,0.218l-0.603,0l0,0.219l-0.226,0l-0.226,0.218l-0.226,0.22l-0.226,0l-0.227,0.218l0,0.219l-0.226,0l-0.226,0.218l0,0.219l-0.226,0.219l0,0.218l-0.226,0.22l0,0.218l-0.226,0.219l0,0.583l-0.226,0.365l0,0.364l0.377,0l-0.001,0zm-38.588,-18.665l28.415,0l0,7.874l-16.883,0l0,6.126l13.416,0l0,7.874l-13.416,0l0,11.812l-11.608,0l0,-33.686l0.075,0l0.001,0z" fill="#FFF"/>
   </g>
  </svg>