<svg  id="fndm-jl0a7xgcu9" viewBox="0.9493083953857422 0.22904503345489502 547.220703125 514.7216186523438" xmlns="http://www.w3.org/2000/svg">
   <g xmlns="http://www.w3.org/2000/svg" fill="none">
    <path d="m276.12,414.21c-73.46,0 -146.923,-0.027 -220.39,-0.08a131.51,131.51 0 0 1 -23.22,-1.8c-21.25,-3.84 -31.21,-18.46 -27.87,-39.83c1.64,-10.51 5.47,-20.39 8.78,-30.41c24.94,-75.54 49.913,-151.07 74.92,-226.59c1.17,-3.54 2.48,-7 3.82,-10.52c11.25,-29.21 27.33,-41.16 58.42,-41.55c90.56,-1.11 181.14,-1.79 271.71,-2.61c4,0 8.1,0.12 12.12,0.48c13.84,1.26 18.88,5 22.47,18.29c24.49,90.6 52,180.36 77,270.8c3.14,11.31 8,22.38 7.53,34.66c-0.55,13.43 -7,22.13 -19.94,25.79c-9.14,2.59 -18.49,2.25 -27.8,2.25c-72.533,0.06 -145.063,0.06 -217.59,0l0.04,1.12zm236.08,-32c-3.08,-9.28 -6.07,-17.35 -8.44,-25.6a125555.823,125555.823 0 0 1 -73.26,-256.3c-1.78,-6.29 -5.07,-8.8 -11.15,-8.71c-3.42,0.05 -6.85,-0.05 -10.27,0l-247.36,2.67c-32.19,0.34 -33.43,0 -44.47,32.71c-26.14,77.4 -51.4,155.1 -77,232.68c-7.75,23.43 -7.76,23.47 17.11,23.42c147.213,-0.267 294.427,-0.55 441.64,-0.85l13.2,-0.02zm-235.25,97.76c0,9 -0.21,18 0.08,26.92c0.15,4.64 -0.89,6.62 -6.12,6.45c-16.61,-0.55 -13.36,1.63 -13.55,-13c-0.2,-15.52 0,-31 -0.17,-46.57c-0.08,-5.37 0.55,-7.9 7.36,-8.21c9.24,-0.43 14.79,2.55 19.26,10.42a111,111 0 0 0 18.51,24c0,-9.35 0.44,-18.72 -0.13,-28c-0.5,-8.29 5.15,-6.21 9.16,-5.84c4.01,0.37 10.57,-3.63 10.38,5.72c-0.36,18.31 -0.21,36.64 0,55c0.06,4.63 -1,6.34 -6.09,6.66c-9.08,0.58 -15.83,-1 -20.55,-10c-4.5,-8.59 -10.83,-16.23 -16.35,-24.29l-1.79,0.74zm-211.33,-0.71c0,8.09 -0.69,16.26 0.19,24.25c1,8.75 -2.54,11.08 -10.38,9.8a20.13,20.13 0 0 0 -5.59,0c-4.26,0.51 -5.42,-1.55 -5.18,-5.42c0.23,-3.72 -0.43,-7.54 0.16,-11.18c1.48,-9.17 -2.17,-11.65 -11.1,-11.06c-12,0.8 -12,0.16 -12,12.86c0,15.9 0,15.76 -15.29,14.87c-3.85,-0.22 -5.52,-1.08 -5.48,-5.28c0.18,-18.98 0.18,-37.96 0,-56.94c0,-4.17 1.42,-5.54 5.41,-5.2a41.4,41.4 0 0 0 9.31,-0.05c5.27,-0.75 6.62,1.7 6.06,6.31a30.93,30.93 0 0 0 0,3.73c0,14.32 5.26,18.46 19.59,15.69c3,-0.57 3.2,-2.74 3.34,-4.74a59.78,59.78 0 0 0 0,-12.11c-1.05,-7.57 2.21,-8.71 9.19,-9.13c9.85,-0.59 13.13,2.4 11.95,12.16c-0.88,7.04 -0.19,14.28 -0.18,21.44zm129.08,4.65c7.59,6.31 11.41,12.42 17.83,28.7c-0.81,0.23 -1.59,0.52 -2.4,0.68c-14.5,2.88 -24.41,-2.08 -28.73,-16.74a21.47,21.47 0 0 0 -2.27,-4.06c-1.88,-3.35 -4.28,-7.21 -8.34,-6.25c-4.6,1.1 -1.76,5.82 -2.26,8.89a27.63,27.63 0 0 0 0,8.37c1.1,7.47 -1.42,9.83 -9.38,10.11c-9.46,0.32 -12.16,-2.13 -11.62,-11.71c0.93,-16.43 0.51,-33 0.14,-49.43c-0.12,-5.49 1.74,-6.81 6.84,-6.61c9.63,0.36 19.28,0 28.92,0.15c14.47,0.17 21.61,4.1 24.15,13.08c2.86,10.05 -0.73,16.96 -12.88,24.82zm-20.62,-24.71c-3.21,-0.55 -6.25,0.56 -5.77,6.95c0.34,4.5 0.26,8.22 6.32,7.36c5.31,-0.76 12.61,0.61 12.66,-7.46c0.04,-6.88 -6.29,-6.35 -13.21,-6.85zm211.55,15.88c15.67,0 15.67,0 15.7,15.34c0,15.06 -0.71,16.13 -14.8,21.28c-20.87,7.63 -41.82,1.46 -49.7,-14.65c-6.5,-13.29 -4.69,-32.39 4.74,-42c11.2,-11.46 25.27,-11.42 39.79,-8.62c7.92,1.52 14.41,4.88 17.47,12.91c0.61,1.62 2.16,4.49 -0.35,4.54c-7,0.16 -14.35,7.51 -21.15,-1.19c-2.52,-3.22 -7.05,-3.72 -11.23,-2.88c-7.48,1.49 -11.12,6.69 -11.79,13.73c-0.84,8.92 -2.12,18.44 7.21,24.26c6.53,4.07 13,2.11 19.44,-1.17c2.62,-1.34 2.54,-3.26 2.33,-5.38c-0.27,-2.72 -2.57,-2.23 -4.27,-2.14c-6,0.35 -10.6,0.41 -9.83,-8.36c0.79,-9.06 6.9,-4.62 10.87,-5.56c1.76,-0.46 3.71,-0.11 5.57,-0.11zm162.54,37.74c-2.22,0.28 -2.84,0.33 -3.44,0.45c-14.48,2.86 -24.52,-1.87 -28.75,-16.69a14.14,14.14 0 0 0 -1.83,-3.24c-2.11,-3.44 -4.26,-8.2 -8.72,-7.14c-4.91,1.17 -1.45,6.37 -2.33,9.66a14.77,14.77 0 0 0 -0.1,3.71c0,13.83 -3.67,16.61 -17.34,13.8c-2.94,-0.61 -3.42,-2 -3.42,-4.39c0,-19.58 0.1,-39.16 -0.09,-58.73c0,-4.11 1.89,-4.38 5.08,-4.33c9.94,0.14 19.89,0 29.83,0.12c10.1,0.13 20.49,0.2 24.62,12.16c3.54,10.27 0,17.25 -12.6,25.91c10.16,6.86 12.71,18.39 19.09,28.71zm-45,-46.72c-1.23,5.5 0.6,8.23 6.57,7.42c5.07,-0.69 11.73,0.15 12,-6.94c0.32,-7.39 -6.19,-6.85 -11.4,-7.24c-4.94,-0.37 -8.77,0.25 -7.14,6.76l-0.03,0zm-89.25,13.54c0,-9.32 0.23,-18.65 -0.08,-28c-0.15,-4.55 1.42,-5.85 5.87,-5.78c14.92,0.24 29.85,0.37 44.76,0c6.24,-0.17 5.28,3.56 5.16,7.17c-0.12,3.41 1.55,7.8 -4.89,7.53c-8.07,-0.34 -16.17,0.09 -24.24,-0.15c-4.24,-0.12 -6.12,1 -6,5.67c0.07,4.31 1.95,5.31 5.64,5.28c7.15,-0.06 14.34,0.53 21.44,0c6,-0.47 5.54,2.81 5.67,6.8c0.14,4.39 -0.5,7.06 -5.94,6.75c-7.12,-0.42 -14.31,0.17 -21.44,-0.19c-6,-0.3 -5.11,3.59 -5.28,7.29c-0.19,3.9 0.26,6.57 5.3,6.37c8.07,-0.3 16.16,0 24.24,-0.1c3.49,0 7.89,-0.62 5.91,4.81c-1.32,3.63 4.18,11.16 -6.3,10.45c-13.92,-0.94 -28,-0.51 -41.94,-0.09c-6,0.18 -8.38,-1.27 -8,-7.65c0.5,-8.73 0.1,-17.45 0.12,-26.16zm-334.66,0.13c0,-9.32 0.22,-18.65 -0.09,-28c-0.15,-4.45 1.18,-6 5.71,-5.91c14.92,0.22 29.84,0.37 44.75,-0.06c6.89,-0.19 5.26,4.11 5.53,7.92c0.3,4.19 0.08,7.14 -5.65,6.79c-8.05,-0.48 -16.16,0.12 -24.23,-0.19c-5,-0.19 -5.24,2.28 -5.35,6.27c-0.13,4.45 1.71,5 5.47,4.86c7.13,-0.29 14.3,0.13 21.43,-0.21c4.84,-0.24 5.76,2 5.51,6.14c-0.23,3.72 0.82,7.65 -5.27,7.37c-7.13,-0.32 -14.3,0.18 -21.43,-0.13c-8.54,-0.38 -4.68,6 -5.63,9.72c-1.51,6 3.29,3.65 5.44,3.73c8.38,0.28 16.8,0.52 25.16,0c6.1,-0.38 5.62,3.25 5.37,7c-0.24,3.55 2,8.39 -5.15,8.24c-15.53,-0.31 -31.07,-0.25 -46.61,0c-4.47,0.07 -5.08,-1.91 -5,-5.61c0.16,-9.28 0.04,-18.61 0.04,-27.93zm162.72,0.34c0,9 -0.23,18 0.1,26.94c0.18,4.72 -1,7 -6.1,6.3a36.92,36.92 0 0 0 -8.34,0c-4.59,0.45 -6.62,-0.78 -6.54,-6c0.3,-18.58 0.26,-37.16 0,-55.74c-0.06,-4.59 1.53,-5.58 5.86,-5.71c15,-0.45 15,-0.64 15,14.72l0,19.51l0.02,-0.02zm-82.72,-443.95c-9.53,3.35 -14.26,-0.75 -17.15,-8.46c-0.87,-2.32 -2.4,-5.3 -5,-4.72c-3.19,0.72 -1.38,4.19 -1.65,6.44c-0.42,3.6 1.71,8 -5.38,7.91c-6.47,-0.08 -5.91,-3.56 -5.86,-7.73c0.09,-7.76 0.19,-15.52 -0.07,-23.27c-0.14,-4.08 1.37,-5.51 5.35,-5.34c6.2,0.26 12.46,-0.26 18.6,0.38c8.24,0.87 12.38,10.4 6.29,15.63c-5,4.3 -2.94,6.19 -0.27,9.72c2.01,2.66 3.25,5.9 5.14,9.44zm-13.42,-24.7c-1.16,-3.45 -4.11,-3 -6.78,-3.3c-3.61,-0.37 -3.94,1.89 -3.72,4.56c0.31,3.79 3.13,3.08 5.42,2.73c2.29,-0.35 4.91,-0.77 5.08,-3.99zm227.98,6.4c0,-3.64 0.22,-7.3 -0.06,-10.91c-0.31,-4.07 0.32,-6.12 5.34,-6.12c5.51,0 4.92,3 4.89,6.53c-0.07,7.77 0.13,15.55 -0.09,23.32c-0.06,2.13 1.67,5.68 -1.95,6.18c-3.43,0.47 -7.46,1.67 -10.14,-2.39c-3.32,-5.05 -6.87,-9.95 -10.67,-15.41c-2.54,4.06 -1,7.49 -1.39,10.71c-0.39,3.22 1.72,7.41 -4.82,7.54c-6.09,0.13 -5.42,-3.27 -5.4,-7c0,-7.46 -0.13,-14.93 0.13,-22.38c0.08,-2.36 -1.86,-6.22 2.58,-6.68c3.5,-0.36 7.35,-1.34 9.9,2.93c3,5 6.53,9.69 9.82,14.51l1.86,-0.83zm108.68,-5.68c13.57,7 16.35,13.29 10.52,20.51c-5,6.21 -20.94,6.9 -26.29,1c-1.8,-2 -4.53,-4.92 -2.46,-7.2c2.07,-2.28 6.13,-2.36 9.2,-0.36c1.49,1 2.38,2.9 3.9,3.82c2.71,1.65 5.64,1.41 7,-1.74c1.36,-3.15 -1.18,-4.48 -3.66,-5.33c-3.49,-1.2 -7.25,-1.83 -10.53,-3.44c-3.83,-1.89 -6.17,-5.27 -5.42,-9.86a9.61,9.61 0 0 1 7.73,-8.29c5.85,-1.41 11.74,-1.82 17.15,1.35c2.42,1.42 4.8,3.9 4.27,6.74c-0.63,3.34 -4.13,1.24 -6.28,1.88c-1.13,0.29 -2.26,0.4 -5.13,0.92zm1.51,-1.18c-0.91,-2.56 -2.56,-4.08 -5.46,-3.85c-1.64,0.13 -3.34,0.7 -3.23,2.52c0.21,3.52 3.49,2.73 5.64,3.39c1.59,0.49 2.98,0.11 3.03,-2.09l0.02,0.03zm-193.62,-2.34c-6.21,0 -9.94,-0.17 -13.65,0.05c-3.28,0.19 -4.46,-1.3 -4.49,-4.34c-0.03,-3.04 2,-3.37 4.35,-3.36c6.52,0 13.06,-0.16 19.57,0.12c2.53,0.1 6.11,-1.83 7.44,1.69s-0.51,6.39 -3.17,9c-5.31,5.21 -10.34,10.71 -16.94,17.61l16.48,0c2.63,0 4.88,-0.11 4.82,3.71c-0.06,3.51 -1.86,4 -4.72,4c-7.77,-0.08 -15.54,0.1 -23.3,-0.09c-2.19,-0.05 -5.36,1.53 -6.38,-1.81a7.37,7.37 0 0 1 2,-7.7c5.54,-5.67 10.94,-11.48 17.99,-18.88zm-202.89,10.36c-0.08,-18 -0.07,-18.3 17.77,-17.81c3.93,0.11 11.21,-3.4 11.56,2.88c0.41,7.14 -7.2,4.1 -11.58,4.93c-2.37,0.45 -6.38,-1.66 -6.63,2.47c-0.28,4.57 3.92,2.53 6.25,2.84a46.41,46.41 0 0 0 7.46,0.07c2.64,-0.07 4,0.85 3.86,3.76c-0.14,2.91 -1.31,3.86 -4,3.79c-3.42,-0.08 -6.84,0 -10.26,0c-2,0 -3.56,0.39 -3.52,3c0.04,2.61 0.71,4.2 3.6,4.18l12.13,0c2.6,0 3.91,1 3.88,3.89c0,2.65 -0.83,4.12 -3.66,4.11c-7.78,0 -15.56,-0.07 -23.33,0c-3,0 -3.6,-1.58 -3.56,-4.1c0.03,-4.67 0.03,-9.34 0.03,-14.01zm219,17.85c4.13,-11.07 8.22,-21.37 11.76,-31.86c1.55,-4.57 4.81,-4 8.14,-4c3.13,-0.05 5.83,-0.19 7.2,3.94c3.5,10.51 7.61,20.81 11.77,32c-5.41,-0.43 -9.85,2.38 -13.43,-4.17c-1.91,-3.5 -10.37,-3.41 -12.24,-0.1c-3.58,6.29 -7.88,4.02 -13.2,4.19zm19.31,-24.19c-1.06,3.65 -5.32,6.72 -2.13,10.6c0.59,0.71 3.66,0.62 4.27,-0.14c3.03,-3.87 -1.3,-6.86 -2.15,-10.46l0.01,0zm102.57,5.76c0,-17.42 0,-17.71 17,-17.21c4.2,0.13 12,-3.75 12.3,3c0.41,8.51 -8,2.8 -12.16,4.34c-2.21,0.81 -6.32,-1.54 -5.89,3.36c0.35,3.91 3.9,1.62 5.84,2.5c3.63,1.65 10.69,-4.09 11,3.47c0.31,8.14 -7,2.37 -10.6,3.92c-2.35,1 -6.76,-1.72 -6.37,3.9c0.36,5.29 4.51,2.52 7,3.47c4,1.54 11.64,-4 11.76,3.6c0.14,8.62 -8,3.94 -12.13,4.07c-17.74,0.58 -17.75,0.25 -17.75,-18.42zm-374.69,0.76c0.22,-18.21 0.22,-18.21 18.33,-18.2c1.86,0 3.72,0.07 5.57,0c2.82,-0.13 3.79,1.2 3.71,3.93c-0.08,2.73 -1.24,3.37 -3.85,3.95c-4.25,1 -11.75,-3.94 -12.16,3.14c-0.31,5.24 6.94,2 10.75,2.79c2.37,0.46 3,1.56 3.08,3.67c0.17,2.74 -0.89,4.31 -3.68,3.78c-9.14,-1.73 -12.3,2.1 -10.81,10.94c0.73,4.36 -2.52,4 -5.38,3.93c-2.86,-0.07 -5.74,0.39 -5.6,-4c0.16,-4.63 0.04,-9.28 0.04,-13.93zm124.39,17.77c-4.44,0.82 -6.34,-0.47 -6,-4.78c0.29,-3.71 0,-7.46 0,-11.19c0.07,-6 1.95,-13.18 -8.6,-11.49c-3.35,0.54 -2.6,-2.59 -2.79,-4.62c-0.26,-2.71 0.74,-4 3.63,-4c8.71,0.11 17.41,0.14 26.12,0c3.38,-0.05 4.07,1.52 4.11,4.57c0,3.53 -1.75,4.43 -4.61,4c-6.28,-0.89 -7.26,2.46 -6.87,7.69c0.34,4.64 -0.1,9.32 0,14c0.22,4.13 -0.22,7.3 -4.99,5.82zm41.42,-18c0,-3.72 0.13,-7.45 0,-11.16c-0.18,-4 -0.36,-7 5.46,-7c5.47,0 6.08,2.41 5.73,6.67c-0.2,2.46 0,5 0,7.44c0,12.51 0,12.62 12.1,13.24c3.1,0.16 5.26,0.19 5.44,4.25c0.21,4.64 -2.21,5.06 -5.74,4.74c-1.54,-0.14 -3.1,0 -4.65,0c-18.34,-0.01 -18.34,-0.01 -18.34,-18.18zm186.77,-17.92c4.34,0 8.67,0.05 13,0c2.62,0 3.91,0.83 3.79,3.75c-0.11,2.69 -0.17,5.38 -3.73,4.77c-8.43,-1.44 -7.88,3.89 -7.61,9.4c0.19,4 -0.13,8 0,12.07c0.17,3.79 0,6.3 -5.18,6.26c-5.18,-0.04 -6.48,-1.84 -6.07,-6.53c0.33,-3.68 0,-7.42 0.08,-11.13c0.14,-5.68 1.21,-11.85 -8.08,-10.13c-2.89,0.54 -3.35,-1.63 -3.47,-4.12c-0.16,-3.21 1.05,-4.46 4.22,-4.36c4.38,0.12 8.72,0.02 13.05,0.02zm-141.35,18.63c0,3.73 -0.14,7.47 0,11.19c0.14,3.72 0.15,6.31 -5.12,6.42c-5.48,0.11 -6.06,-2.25 -5.93,-6.63c0.24,-8.08 0.24,-16.167 0,-24.26c-0.09,-3.84 0.83,-5.55 5.14,-5.53c4.31,0.02 6.27,1.1 5.87,5.76c-0.36,4.32 -0.07,8.7 -0.07,13l0.11,0.05zm-53.5,-0.02c0,3.71 -0.28,7.45 0.06,11.12c0.43,4.73 -1.08,6.48 -6.1,6.56c-5.25,0.09 -5.17,-2.62 -5.11,-6.31c0.13,-8.35 0.24,-16.71 -0.06,-25.05c-0.16,-4.28 1.61,-5.19 5.42,-5c3.37,0.16 6.17,0.05 5.86,4.78c-0.31,4.73 -0.07,9.26 -0.07,13.9z" fill="#1E1411"/>
    <path d="m483.99,10.97c0,2.17 -1.44,2.55 -3,2.06c-2.15,-0.66 -5.43,0.13 -5.64,-3.39c-0.11,-1.82 1.59,-2.39 3.23,-2.52c2.85,-0.15 4.5,1.32 5.41,3.85z" fill="#FDFDFD"/>
    <path d="m64.24,365.89c7.42,-20.5 14.46,-40 21.53,-59.49c11.113,-30.667 22.233,-61.333 33.36,-92c10.63,-29.29 21.42,-58.53 31.82,-87.9c1.85,-5.22 4.23,-7.21 9.95,-7.21c32.69,0 65.38,-0.16 98.06,-0.89c8,-0.18 6.36,2.35 4.75,7.76c-3.82,12.77 -11.19,19.14 -24.94,17c-10.33,-1.63 -14.82,3 -17.91,13.24c-5.25,17.44 -9.94,35.17 -17.65,51.88c-2.87,6.24 -3.48,13.52 -5.37,21.32c9.18,0 17.84,-0.08 26.49,0c5,0.06 5.36,-3.92 5.69,-7c0.88,-8.29 5.37,-10.11 13.13,-10c24.9,0.48 49.81,0.37 74.71,0.11c5.87,-0.06 8.66,1.28 10.14,7.58c4.11,17.54 9,34.91 14,52.24c1.69,5.91 1.19,8.21 -5.92,8.14c-37.67,-0.33 -75.34,-0.27 -113,-0.07c-5.72,0 -8.19,-1 -8.11,-7.52c0.2,-16.14 -0.19,-15.53 -16.76,-16.34c-9,-0.44 -12.76,2.53 -15.43,11c-9.63,30.52 -20.09,60.78 -30.23,91.14c-1.14,3.43 -1.31,7.16 -6.78,7.11c-26.79,-0.23 -53.53,-0.1 -81.53,-0.1zm431.75,3.25c-25.83,0 -50.37,-0.18 -74.9,0.131c-6,0.069 -7,-3.541 -8.39,-7.821a26278.515,26278.515 0 0 0 -31.87,-97.24a94589.415,94589.415 0 0 0 -44.1,-133.41c-3.74,-11.3 -3.76,-11.37 8.57,-11.33c21.28,0.08 42.57,0.29 63.86,0.37c3.05,0 3.41,2.26 4,4.25c13.31,42.53 28.43,84.46 42.36,126.78c11.31,34.36 23.14,68.62 35.21,102.77c1.67,4.64 3.18,9.33 5.26,15.5z" fill="#C5043E"/>
   </g>
  </svg>