<svg xmlns="http://www.w3.org/2000/svg" fill-rule="evenodd" clip-rule="evenodd" image-rendering="optimizeQuality" shape-rendering="geometricPrecision" text-rendering="geometricPrecision" viewBox="-2 0.9900000095367432 6600 3300"><g><rect width="6600" height="3300" x="-2" y="0.99" fill="none"/><g fill="#373435"><path d="M816.86 1268.48l78.71 0 0.64 -480.28 -78.71 0 -0.64 480.28zm495.27 -480.28l-0.64 343.75 -239.31 -343.75 -65.91 0 -1.28 480.28 67.82 0 1.28 -347.86 243.16 347.86 61.43 0 1.28 -480.28 -67.83 0zm470.31 0l-131.18 400.69 -129.25 -400.69 -88.3 0 168.28 480.28 90.87 0 168.29 -480.28 -78.71 0zm591.25 488.51c103.02,0 176.61,-52.83 176.61,-150.25 0,-72.05 -34.56,-110.47 -122.22,-135.86l-56.95 -15.78c-33.91,-10.29 -56.94,-27.44 -56.94,-63.8 0,-36.37 27.51,-68.62 90.86,-68.62 37.11,0 80.63,9.61 124.14,32.94l-0.64 -70.68c-31.36,-14.41 -79.35,-24.7 -119.66,-24.7 -121.58,0 -173.41,67.24 -173.41,141.34 0,69.3 30.72,107.04 118.38,133.11l43.51 13.04c56.31,16.46 73.59,37.05 73.59,69.29 0,42.55 -32,71.36 -92.15,71.36 -39.66,0 -86.38,-8.91 -142.69,-34.31l0 75.48c44.15,18.52 94.7,27.44 137.57,27.44zm348.74 -8.23l78.07 0 0.64 -419.22 158.68 0 -1.91 -61.06 -392.25 0 -1.28 61.06 158.69 0 -0.64 419.22zm295.62 0l78.71 0 0.64 -480.28 -78.71 0 -0.64 480.28zm673.87 0l-7.74 -480.28 -93.43 0 -141.41 379.42 -139.5 -379.42 -105.65 0 -8.38 480.28 72.37 0 7.75 -359.53 126.94 333.27 86.22 0 125.34 -340.13 7.11 366.39 70.38 0zm154.5 -59.69l0 -155.75 195.02 0 0 -61.06 -194.37 0 0 -144.09 215.27 0 -1.28 -59.69 -290.14 0 -0.64 480.28 293.99 0 1.92 -59.69 -219.77 0zm-1862.02 0l0 -155.75 195.02 0 0 -61.06 -194.37 0 0 -144.09 215.27 0 -1.28 -59.69 -290.14 0 -0.64 480.28 293.99 0 1.92 -59.69 -219.77 0zm2465.72 -420.59l-0.64 343.75 -239.31 -343.75 -65.92 0 -1.28 480.28 67.83 0 1.28 -347.86 243.16 347.86 61.42 0 1.28 -480.28 -67.82 0zm282.18 480.28l78.07 0 0.64 -419.22 158.68 0 -1.91 -61.06 -392.25 0 -1.27 61.06 158.68 0 -0.64 419.22zm461.99 8.23c153.58,0 216.92,-113.2 216.92,-248.37 0,-141.34 -65.9,-248.38 -216.92,-248.38 -142.7,0 -216.92,115.96 -216.92,248.38 0,137.22 63.35,248.37 216.92,248.37zm0 -64.49c-93.43,0 -135.65,-78.22 -135.65,-183.88 0,-106.35 44.78,-183.88 135.65,-183.88 90.86,0 135.66,77.53 135.66,183.88 0,105.66 -41.6,183.88 -135.66,183.88zm408.24 64.49c103.02,0 176.61,-52.83 176.61,-150.25 0,-72.05 -34.56,-110.47 -122.22,-135.86l-56.95 -15.78c-33.91,-10.29 -56.94,-27.44 -56.94,-63.8 0,-36.37 27.51,-68.62 90.86,-68.62 37.11,0 80.63,9.61 124.14,32.94l-0.64 -70.68c-31.36,-14.41 -79.35,-24.7 -119.66,-24.7 -121.58,0 -173.41,67.24 -173.41,141.34 0,69.3 30.72,107.04 118.38,133.11l43.51 13.04c56.31,16.46 73.59,37.05 73.59,69.29 0,42.55 -32,71.36 -92.15,71.36 -39.66,0 -86.38,-8.91 -142.69,-34.31l0 75.48c44.15,18.52 94.7,27.44 137.57,27.44z"/><path fill-rule="nonzero" d="M1079.49 1648.74l0 206.89 165.2 0c55.8,0 96.12,-45.11 96.12,-104.39 0,-50.32 -37.6,-102.5 -87.68,-102.5l-173.64 0zm0 417.68l0 253.81 176.25 0c59.53,0 102.55,-55.34 102.55,-128.07 0,-61.72 -40.12,-125.74 -93.56,-125.74l-185.24 0zm576.3 156.94c0,198.62 -186.88,294.49 -368.89,294.49l-470.04 0 0 -1076.08 472.17 0c192.84,0 335.9,70.55 335.9,266.5 0,99.39 -37.49,163.8 -131.02,211.26 129.4,42.97 161.88,177.01 161.88,303.83zm839.84 58.48l0 236.01 -696.28 0 0 -1076.08 683.89 0 0 243.22 -429.98 0 0 166 369.44 0 0 239.47 -369.44 0 0 191.38 442.37 0zm3270.59 0l0 236.01 -696.28 0 0 -1076.08 683.89 0 0 243.22 -429.98 0 0 166 369.44 0 0 239.47 -369.44 0 0 191.38 442.37 0zm-2180.24 236.01l-7.22 -660.62 -235.03 535.67 -204.55 0 -198.96 -535.67 -43.29 660.62 -273.52 0 64.93 -1076.08 337.51 0 222.82 585.58 231.58 -585.58 328.75 0 64.93 1076.08 -287.95 0zm1297.35 -78.14c-151.33,88.11 -448.47,111.3 -592.32,41 -60.98,-29.8 -114.49,-69.96 -160.49,-120.48 -46,-50.52 -82.44,-109.38 -109.32,-176.57 -26.88,-67.19 -40.31,-138.17 -40.31,-212.94 0,-75.78 13.69,-146.26 41.08,-211.43 27.4,-65.17 65.13,-121.76 113.2,-169.75 48.08,-47.99 104.67,-85.88 169.79,-113.67 65.14,-27.79 134.91,-41.67 209.34,-41.67 60.6,0 155.5,-5.96 324.5,48.79l0 259.08c-112.11,-61.43 -319.61,-79.07 -421.41,-24.46 -93.47,50.17 -155.98,165.35 -154.93,265.31 1.59,152.58 99.77,288.27 226.47,302.58 26.5,2.99 94.15,1.01 147.85,-14.01l0 -156.17 -3.61 -2.72 -160.42 0 0 -204.97 410.58 0 0 532.08z"/></g></g></svg>