<svg xmlns="http://www.w3.org/2000/svg" fill-rule="evenodd" clip-rule="evenodd" image-rendering="optimizeQuality" shape-rendering="geometricPrecision" text-rendering="geometricPrecision" viewBox="-2 1.0099999904632568 6599.990234375 3299.989990234375"><g><rect width="6599.99" height="3299.99" x="-2" y="1.01" fill="none"/><g fill="#07306e" fill-rule="nonzero"><path d="M508.65 1380.09l151.2 0 0 537.6c0,105.35 23.98,209.5 203.99,205.39 180,-4.11 177.59,-31.91 177.59,-31.91l0 -711.08 149.51 0 0 802.69c0,0 -184.72,70.24 -364.43,70.24 -179.7,0 -317.86,-74.95 -317.86,-279.44 0,-204.49 0,-593.49 0,-593.49z"/><path d="M4541.57 1380.09l151.11 0 0 537.6c0,105.35 23.98,209.5 203.98,205.39 180.01,-4.11 177.6,-31.91 177.6,-31.91l0 -711.08 150.2 0 0 802.69c0,0 -184.82,70.24 -364.52,70.24 -179.71,0 -317.77,-74.95 -317.77,-279.44 0,-204.49 -0.6,-593.49 -0.6,-593.49z"/><path d="M2092.66 2229.94l-151.21 0 0 -537.6c0,-105.36 -23.98,-209.51 -203.98,-205.39 -180.01,4.11 -177.7,31.9 -177.7,31.9l0 711.49 -149.9 0 0 -802.69c0,0 184.82,-70.24 364.52,-70.24 179.7,0 317.77,74.35 317.77,278.84 0,204.48 0.5,593.69 0.5,593.69l0 0z"/><polygon points="2706.42,1379.49 2304.97,1379.49 2304.97,2232.35 2465.11,2232.35 2465.11,1499.89 2705.91,1499.89"/><circle cx="2385.04" cy="1159.05" r="100.94"/><polygon points="3073.85,1379.49 3475.4,1379.49 3475.4,2232.35 3315.26,2232.35 3315.26,1499.89 3074.45,1499.89"/><circle cx="3395.23" cy="1159.05" r="100.94"/><path d="M2368.28 2709.25l-42.94 115.08c96.64,32.96 198.15,50.21 300.35,50.79 165.26,0 256.06,-51.98 289.17,-102.75 33.89,-48.27 52.06,-105.91 52.06,-164.89 0,-1.29 -0.04,-2.73 -0.04,-3.99l0 -1847.3c0,-130.44 0,-141.57 51.88,-178.2 51.87,-36.62 244.32,-50.16 390.11,13.55l51.97 -112.08c0,0 -107.56,-52.57 -300.51,-52.57 -192.94,0 -254.35,54.88 -283.75,84.98 -29.4,30.1 -59.6,110.37 -59.6,176.49l0 1858.54c0,92.11 8.93,132.24 -43.04,167.66 -51.98,35.42 -101.54,38.93 -184.72,38.93 -83.18,0 -220.94,-44.25 -220.94,-44.25l0 0.01z"/><path d="M4013.2 1360.02c-198.37,0 -283.35,76.16 -327.6,185.02 -27.49,67.63 -37.12,194.76 -37.12,244.32 0,106.26 2.6,292.18 106.15,369.24 103.55,77.06 193.05,74.35 260.88,74.35 67.82,0 155.02,-29.2 204.58,-69.03l0 309.84 141.28 -0.61 0 -1052.93c-110.93,-39.66 -228.29,-60.2 -346.28,-60.2 -0.62,0 -1.25,0 -1.88,0l-0.01 0zm209.94 649.45c0,70.24 -95.02,94.42 -191.14,94.42 -96.12,0 -201.88,-9.13 -210.71,-224.25 -3.81,-92.01 -8.33,-254.96 48.36,-331.71 56.69,-76.76 295.09,-44.86 353.49,-14.15l0 475.69 0 0z"/><path d="M6087.35 1831l0 -65.52c0,-46.86 -7.02,-210.71 -65.42,-297.5 -58.39,-86.79 -168.26,-107.05 -283.35,-107.05 -115.08,0 -220.74,31.8 -272.71,97.32 -51.97,65.52 -89.4,133.75 -89.4,334.72 0,200.98 47.86,319.58 136.36,375.36 88.49,55.79 195.75,64.62 243.41,64.62 47.66,0 202.78,-22.98 278.94,-54.88l-31.91 -124.82c0,0 -78.76,44.25 -245.22,40.13 -166.46,-4.11 -186.83,-66.42 -205.39,-107.16 -18.56,-40.73 -18.56,-120.4 -17.26,-154.92l551.95 -0.3zm-553.25 -129.23c0.87,-10.59 1.34,-21.3 1.34,-31.91 0,-4.42 -0.1,-8.98 -0.24,-13.36 0.27,-92.89 75.66,-168.11 168.56,-168.15l86.19 0c0.01,0 0.01,0 0.01,0 81.11,0 146.89,65.78 146.89,146.89 0,0.02 0,0.09 0,0.11l0 66.43 -402.75 0 0 -0.01z"/></g></g></svg>