<svg  id="fndm-p2rk4thjw9" viewBox="0.6000000238418579 0.7999987602233887 398.3118896484375 121.4000015258789" xmlns="http://www.w3.org/2000/svg">
   <defs xmlns="http://www.w3.org/2000/svg">
    <linearGradient y2="15.536%" y1="86.907%" x2="49.91%" x1="49.91%" id="fndm-7ogfht7psm">
     <stop stop-color="#E60060" offset="0%"/>
     <stop stop-color="#C20831" offset="100%"/>
    </linearGradient>
   </defs>
   <g xmlns="http://www.w3.org/2000/svg" fill="none">
    <path d="m302.1,52.8l-1.6,0l1.9,-10c0.3,-1.6 -1.1,-2.3 -3.2,-2.3c-1.2,0 -3.1,0.5 -4.7,1.7l-2,10.5l-1.6,0l2.6,-13.5l1.4,0l-0.1,1.3c1.8,-1 3.3,-1.6 4.6,-1.6c1.7,0 3.4,0.1 4.3,1.9c2.2,-1.7 4,-1.9 5.3,-1.9c2.7,0 5.3,0.7 4.2,6.3l-1.4,7.5l-1.6,0l1.4,-7.5c0.8,-4.1 -0.9,-4.7 -2.8,-4.7c-1.3,0 -3.1,0.4 -4.7,1.9l-2,10.4zm40.5,-11c-1.1,-0.8 -2.7,-1.2 -3.7,-1.2c-2.4,0 -5.2,1.8 -5.9,5.2c-0.9,4.8 2.1,5.6 3.7,5.6c1.1,0 3.2,-0.6 4.3,-1.8l1.6,-7.8zm-1.7,9.6c-1.3,0.9 -2.7,1.7 -4.4,1.7c-2.2,0 -6.2,-1.1 -5,-7.2c0.9,-4.6 4.5,-6.8 7.8,-6.8c0.9,0 2.3,0.2 3.6,1.2l1.4,-7.2l1.6,0l-3.8,19.7l-1.4,0l0.2,-1.4zm10.2,-17.4c0.8,0 0.9,0.4 0.8,1c-0.1,0.5 -0.4,1 -1.2,1c-0.8,0 -0.9,-0.4 -0.8,-1c0.1,-0.6 0.4,-1 1.2,-1zm-4.4,18.8l2.6,-13.5l1.6,0l-2.6,13.5l-1.6,0zm15.5,-0.1c-1.1,0.2 -2.5,0.4 -3.9,0.4c-3.1,0 -5.9,-2.5 -5,-7c0.9,-4.5 4.7,-7 7.8,-7c1.4,0 2.8,0.2 3.8,0.4l-0.3,1.6c-1.1,-0.2 -2.5,-0.4 -3.8,-0.4c-2.3,0 -5.1,1.9 -5.8,5.4c-0.7,3.5 1.4,5.4 3.7,5.4c1.3,0 2.9,-0.1 3.9,-0.3l-0.4,1.5zm8,-18.7c0.8,0 0.9,0.4 0.8,1c-0.1,0.5 -0.4,1 -1.2,1c-0.8,0 -0.9,-0.4 -0.8,-1c0.1,-0.6 0.4,-1 1.2,-1zm-4.5,18.8l2.6,-13.5l1.6,0l-2.6,13.5l-1.6,0zm6.2,0l2.6,-13.5l1.4,0l-0.1,1.3c1.1,-0.9 3.3,-1.6 4.6,-1.6c3.1,0 5.1,1.4 4.3,5.5l-1.6,8.3l-1.6,0l1.6,-8.3c0.6,-2.9 -0.8,-3.9 -2.9,-3.9c-1.1,0 -2.8,0.5 -4.5,1.4l-2.1,10.8l-1.7,0zm24.9,-6.2c-1,-0.3 -2.2,-0.4 -3.2,-0.4c-2.7,0 -4.5,1 -4.8,2.7c-0.3,1.5 0.3,2.5 2.4,2.5c1.3,0 3.4,-0.4 4.9,-1.4l0.7,-3.4zm-0.8,4.8c-1.2,1 -3.7,1.7 -5,1.7c-3.4,0 -4.2,-1.7 -3.8,-4.1c0.5,-2.8 3.1,-4.2 6.7,-4.2c0.9,0 2.5,0.1 3.1,0.4l0.1,-0.4c0.6,-3.2 -0.8,-4.2 -2.5,-4.2c-1.6,0 -3.1,0.3 -5.1,1.1l0.3,-1.5c1.6,-0.6 3.2,-1.1 5.1,-1.1c2.6,0 4.7,1.3 3.8,5.8l-1.6,8l-1.4,0l0.3,-1.5zm-90.6,23.3c1.2,0.7 2.6,1 3.5,1c2.1,0 3.9,-0.2 4.5,-2.1c0.4,-1.7 -1.3,-2.2 -3.3,-2.9l-1.3,-0.4c-2.6,-0.9 -2.2,-3 -2.1,-3.4c0.5,-2.3 2.5,-3.8 6.3,-3.7c0.8,0 2.3,0.4 3.2,0.7l-0.3,1.6c-0.8,-0.3 -2.6,-0.7 -3.3,-0.7c-2.6,-0.1 -4,0.8 -4.3,2.3c0,0.1 -0.3,1.1 1.3,1.6l1.3,0.4c2.6,0.9 4.8,1.6 4.1,4.5c-0.9,3.4 -3.5,3.6 -6.4,3.6c-1,0 -2.5,-0.3 -3.5,-0.8l0.3,-1.7zm21.4,-4c-1,-0.3 -2.2,-0.4 -3.2,-0.4c-2.7,0 -4.5,1 -4.8,2.7c-0.3,1.5 0.2,2.5 2.4,2.5c1.3,0 3.4,-0.4 4.9,-1.4l0.7,-3.4zm-0.9,4.8c-1.2,1 -3.7,1.7 -5,1.7c-3.4,0 -4.2,-1.7 -3.8,-4.1c0.5,-2.8 3.1,-4.2 6.7,-4.2c0.9,0 2.5,0.1 3.1,0.4l0.1,-0.4c0.6,-3.2 -0.8,-4.2 -2.5,-4.2c-1.6,0 -3.1,0.3 -5.1,1.1l0.3,-1.5c1.6,-0.6 3.2,-1.1 5.1,-1.1c2.6,0 4.7,1.3 3.8,5.8l-1.6,8l-1.4,0l0.3,-1.5zm14.1,-14.3l-1.6,0l2.7,-3.5l1.7,0l-2.8,3.5zm0.8,14.3c-1.1,1 -3.4,1.7 -4.6,1.7c-3.1,0 -5.1,-1.4 -4.3,-5.5l1.6,-8.3l1.6,0l-1.6,8.3c-0.6,2.9 0.9,3.9 3,3.9c1.1,0 2.8,-0.5 4.5,-1.4l2.1,-10.8l1.6,0l-2.6,13.5l-1.4,0l0.1,-1.4zm17,-9.6c-1.1,-0.8 -2.7,-1.2 -3.7,-1.2c-2.4,0 -5.2,1.8 -5.9,5.2c-0.9,4.8 2.1,5.6 3.7,5.6c1.1,0 3.2,-0.6 4.3,-1.8l1.6,-7.8zm-1.8,9.6c-1.3,0.9 -2.7,1.7 -4.4,1.7c-2.2,0 -6.2,-1.1 -5,-7.2c0.9,-4.6 4.5,-6.8 7.8,-6.8c0.9,0 2.3,0.2 3.6,1.2l1.4,-7.2l1.6,0l-3.8,19.7l-1.4,0l0.2,-1.4zm-38,-30.1c1.1,0.5 4.4,1.1 6.4,0.8c3.8,-0.7 3.6,-5.5 -0.9,-5.5c-2.3,-0.1 -4.7,1.7 -5.5,4.7m-0.3,1.4c-0.4,3.1 1.4,4.7 3.9,4.7c1.9,0 3.9,-0.3 5,-0.6l-0.3,1.5c-1.1,0.3 -2.9,0.6 -4.9,0.6c-3.7,0 -6.1,-2.1 -5.1,-7.1c0.9,-4.4 4.3,-6.9 7.6,-6.9c6.4,0 6.4,7.4 1.3,8.4c-2.7,0.5 -5.8,-0.1 -7.5,-0.6m-31.2,22.7c1.1,0.5 4.4,1.1 6.4,0.8c3.8,-0.7 3.6,-5.5 -0.9,-5.5c-2.3,0 -4.7,1.7 -5.5,4.7m-0.3,1.4c-0.4,3.1 1.4,4.7 3.9,4.7c1.9,0 3.9,-0.3 5,-0.6l-0.3,1.5c-1.1,0.3 -2.9,0.6 -4.9,0.6c-3.7,0 -6.1,-2.1 -5.1,-7.1c0.9,-4.5 4.3,-6.9 7.6,-6.9c6.4,0 6.4,7.4 1.3,8.4c-2.7,0.6 -5.8,-0.1 -7.5,-0.6m77.4,-1.4c1.1,0.5 4.4,1.1 6.4,0.8c3.8,-0.7 3.6,-5.5 -0.9,-5.5c-2.3,0 -4.7,1.7 -5.5,4.7m-0.3,1.4c-0.4,3.1 1.4,4.7 3.9,4.7c1.9,0 3.9,-0.3 5,-0.6l-0.3,1.5c-1.1,0.3 -2.9,0.6 -4.9,0.6c-3.7,0 -6.1,-2.1 -5.1,-7.1c0.9,-4.5 4.3,-6.9 7.6,-6.9c6.4,0 6.4,7.4 1.3,8.4c-2.7,0.6 -5.8,-0.1 -7.5,-0.6" fill="#7C7C7B"/>
    <path d="m64.8,0.8l-8.8,0c-14.4,0 -28.6,2.2 -32.8,23.1c0,0 -2.1,10.9 -3.7,17.8c-0.9,0.2 -3.9,1.7 -5.2,2.5l-2,8.4l4.9,0c-1.1,4.8 -8.3,40.8 -8.3,40.8c-2.6,12.7 -3.8,16.5 -8.3,19.6l7.3,9.2c5.5,-3.1 9.4,-7.7 12.6,-20.4l10,-49.3l14.9,0l2.4,-10.9l-15,0s1.8,-9.2 3.1,-15.4c1.3,-6.2 3.8,-13 14.4,-13l14.4,0l1.5,-7.9c0.4,-2.8 -0.2,-4.2 -1.4,-4.5z" fill="url(#fndm-7ogfht7psm)"/>
    <path d="m168.6,73.8c-1.4,7.3 -6.8,12.1 -12.7,12.1c-7.5,0 -9.3,-3.3 -7.8,-11.7l6.5,-34l-12.9,0l-7.2,37.7c-2.5,12 5,20.3 15.7,20.3c4.9,0 10.8,-2.7 14.7,-6.7l0.7,-0.7l-1.3,7.2l12.9,0l11,-57.8l-13.2,0l-6.4,33.6zm-63.7,13.2c-7.3,0 -10,-2.9 -10,-9.9c0,-0.6 0,-1.3 0.2,-2.4c1.6,0.1 3.4,0.2 5,0.2c20,0 31.4,-7 31.4,-19.4c0,-8.8 -6.4,-15.8 -20.5,-15.8c-20.8,0 -28.9,19.4 -28.9,37.5c0,15 8,21.1 19.8,21.1c5.3,0 11.1,-1 16.9,-3.8c1.7,-0.8 3.5,-1.8 5.2,-3.1l-6.4,-8.1c-3.7,2 -7.8,3.7 -12.7,3.7zm5.6,-35.8c5.5,0 8.5,2.5 8.5,6c0,2.9 -3.5,7.9 -17.6,7.9c-1.4,0 -3,0 -4.6,-0.1c1.6,-6.9 6.3,-13.8 13.7,-13.8zm156.9,-10.9c-9.6,28.2 -18.1,44.8 -18.1,44.8c-0.4,-26.6 -4.8,-44.8 -4.8,-44.8c-12.3,-1.6 -24.2,0.5 -31.7,7.9l-0.6,0.5l1.4,-8.4l-13,0l-11.2,57.8l13.6,0l6.5,-32.3c2.1,-11.1 12.1,-14.7 23.4,-14.7c2.5,15 7.7,42.1 7.7,44.4c-2.4,6.8 -10.8,13.3 -18.5,16.3l6.9,8.6c25.5,-6 43.6,-60.5 51.5,-80.1l-13.1,0zm-195.6,47.9c-8.5,1.3 -9.1,-0.6 -8.5,-4.7c0,0 13.6,-66.6 14.3,-70c0.1,-0.3 0,-0.8 -0.6,-1.7c-0.9,-1.4 -8.6,-10.3 -12,-11l-0.3,0c1.3,0.3 1.8,1.7 1.4,4.6l-1.5,7.9l0,0.2l-13.3,66.7c-3,13.7 3.3,19.9 13.2,19.8c2,0 8.8,-0.6 14.1,-2.8l-6.8,-9z" fill="#7C7C7B"/>
   </g>
  </svg>