<svg xmlns="http://www.w3.org/2000/svg" data-id="fndm-83jaftl2i8" viewBox="0 0 712.72998046875 124.19780731201172"><g fill="none" fill-rule="evenodd"><g><path fill="#ED3237" d="M25.94,74.9878037 L79.36,74.9878037 L142.01,37.0478037 L147.85,1.16780371 L147.83,1.16780371 L25.94,74.9878037 Z M105.83,74.9878037 L120.42,74.9878037 C128.9,74.9878037 136.96,68.0578037 138.34,59.5878037 L139.11,54.8378037 L105.83,74.9878037 Z M121.37,1.16780371 L67.96,1.16780371 L5.84,38.7778037 L0,74.6678037 L121.37,1.16780371 Z M41.49,1.16780371 L27.38,1.16780371 C18.9,1.16780371 10.84,8.09780371 9.46,16.5678037 L8.74,20.9978037 L41.49,1.16780371 Z"/><path fill="#373435" d="M199.8,74.9878037 L204.38,46.5478037 L247.18,46.5478037 L249.54,31.8778037 L206.75,31.8778037 L209.31,15.9478037 L264.13,15.9478037 L266.5,1.22780371 L198.71,1.22780371 C190.56,1.22780371 182.81,7.89780371 181.5,16.0578037 L172,74.9878037 L199.8,74.9878037 Z M481.22,1.22780371 L532.91,1.22780371 L530.58,15.6678037 L484.66,15.6678037 C481.36,15.6678037 481.82,19.3878037 483.29,20.0278037 L514.59,33.5278037 C525.43,38.1978037 530.32,45.4378037 530.14,53.7978037 C529.88,65.9578037 518.29,74.9878037 506.66,74.9878037 L458.23,74.9878037 L452.94,60.5478037 L502.2,60.5478037 C504.78,60.5478037 505.41,56.4878037 502.83,55.3678037 L471.75,41.9778037 C464.25,38.7478037 456.26,32.1878037 456.52,22.6978037 C456.86,10.2878037 466.84,1.22780371 481.22,1.22780371 Z M553.39,74.9878037 L607.07,74.9878037 L609.44,60.2478037 L566.72,60.2478037 L576.24,1.22780371 L548.41,1.22780371 L539.24,58.1078037 C537.74,67.3878037 544.11,74.9878037 553.39,74.9878037 Z M291.86,74.9878037 L301.38,15.9478037 L320.89,15.9478037 C326.14,15.9478037 330.32,19.4278037 330.03,24.7278037 C329.66,31.5978037 322.46,35.8078037 317.03,35.8078037 L302.01,35.8078037 L322.04,67.5578037 C324.6,71.6278037 331.29,74.9878037 336.1,74.9878037 L370.13,74.9878037 L400.44,28.7778037 L414.3,68.1478037 C415.88,72.6378037 422.09,74.9878037 426.85,74.9878037 L447.61,74.9878037 L423.23,8.52780371 C419.44,-1.81219629 403.74,-3.65219629 395.94,8.04780371 L353.42,71.8278037 L334.83,43.7078037 C344.99,42.4578037 357.86,34.0678037 356.55,20.1178037 C355.38,7.61780371 343.68,1.22780371 327.73,1.22780371 L291.92,1.22780371 C283.76,1.22780371 276.02,7.89780371 274.7,16.0578037 L265.2,74.9878037 L291.86,74.9878037 Z M645.83,60.6178037 L648.43,44.4578037 L693.91,44.4578037 L696.19,30.3078037 L650.72,30.3078037 L653.03,15.9478037 L710.36,15.9478037 L712.73,1.22780371 L642.43,1.22780371 C634.28,1.22780371 626.53,7.89780371 625.22,16.0578037 L618.56,57.3578037 C616.74,68.6378037 622.69,74.9878037 633.74,74.9878037 L701.23,74.9878037 L703.55,60.6178037 L645.83,60.6178037 Z"/><path fill="#373435" d="M450.76,124.197804 L454.82,99.6378037 L456.69,99.6378037 C458.01,99.6778037 459.04,99.6878037 459.61,101.207804 L465.7,117.497804 L477.29,100.537804 C477.56,100.137804 478,99.8078037 478.48,99.6378037 L482.43,99.6378037 L478.55,124.077804 L478.48,124.197804 L474.16,124.197804 L474.09,124.137804 L476.44,109.897804 L467.09,123.227804 C466.13,124.607804 463.6,124.457804 462.99,122.867804 L457.74,109.167804 L455.3,124.197804 L450.76,124.197804 Z M642.49,104.037804 L651.72,104.037804 L648.39,124.197804 L652.89,124.197804 L656.23,104.037804 L664.76,104.037804 L665.49,99.6378037 L643.22,99.6378037 L642.49,104.037804 Z M684.45,124.197804 L686.07,114.387804 L697.92,99.6378037 L692.62,99.6378037 L684.46,109.817804 L679.05,99.6378037 L674.07,99.6378037 L681.82,114.207804 L680.17,124.197804 L684.45,124.197804 Z M625.58,124.197804 L629.64,99.6378037 L625.14,99.6378037 L621.08,124.197804 L625.58,124.197804 Z M536.29,124.137804 L548.05,124.137804 C551.79,124.137804 555.42,120.747804 556.01,117.767804 C556.41,115.747804 556.17,113.167804 553.96,111.617804 C556.88,109.807804 557.39,106.597804 556.44,103.637804 C555.9,101.947804 553.63,99.6478037 550.52,99.6378037 L537.71,99.6378037 C536.5,99.6378037 535.8,101.197804 535.62,102.267804 L532.83,119.237804 C531.92,122.617804 533.65,124.137804 536.29,124.137804 Z M547.62,119.977804 L537.2,119.977804 L538.23,113.727804 L547.62,113.727804 C554.07,113.727804 551.85,119.977804 547.62,119.977804 Z M548.59,109.377804 L538.95,109.377804 L539.85,103.947804 L549.98,103.947804 C551.54,103.947804 552.69,104.797804 552.63,106.267804 C552.57,107.907804 551.25,109.377804 548.59,109.377804 Z M595.36,124.137804 L611.49,124.137804 L612.18,119.977804 L596.28,119.977804 L599.64,99.6378037 L595.13,99.6378037 L591.9,119.237804 C591,122.617804 592.73,124.137804 595.36,124.137804 Z M574.46,124.197804 L578.52,99.6378037 L574.01,99.6378037 L569.96,124.197804 L574.46,124.197804 Z M509.24,103.707804 C514.34,103.707804 518.15,107.347804 517.75,111.827804 C517.36,116.317804 512.91,119.947804 507.82,119.947804 C502.72,119.947804 498.92,116.317804 499.31,111.827804 C499.7,107.347804 504.15,103.707804 509.24,103.707804 Z M512.1,99.6378037 C518.33,100.707804 522.69,105.757804 522.17,111.827804 C521.62,118.327804 515.68,123.657804 508.64,124.197804 L506.32,124.197804 C499.37,123.657804 494.34,118.327804 494.89,111.827804 C495.41,105.757804 500.62,100.707804 507.04,99.6378037 L512.1,99.6378037 Z"/></g></g></svg>