<svg  id="fndm-stuvaykrjc" viewBox="70.61312866210938 70.6500015258789 298.494140625 54.245994567871094" xmlns="http://www.w3.org/2000/svg">
   <g xmlns="http://www.w3.org/2000/svg" clip-rule="evenodd" fill-rule="evenodd">
    <path d="m238.052,70.65l1.789,0l0,54.246l-1.789,0l0,-54.246zm19.543,26.415c-1.619,-1.058 -3.148,-2.057 -3.148,-3.145c0,-1.017 1.296,-1.756 3.08,-1.756c1.198,0 2.454,0.226 4.075,0.73a0.15,0.15 0 0 0 0.196,-0.16l-0.295,-2.975a0.154,0.154 0 0 0 -0.125,-0.134c-1.699,-0.309 -3.242,-0.46 -4.712,-0.46c-3.484,0 -6.999,1.384 -6.999,4.474c0,2.398 2.404,4.014 4.524,5.441c1.606,1.079 3.124,2.099 3.124,3.206c0,1.295 -1.659,1.755 -3.079,1.755c-1.581,0 -3.319,-0.364 -5.162,-1.082a0.15,0.15 0 0 0 -0.148,0.021a0.146,0.146 0 0 0 -0.058,0.137l0.328,3.128a0.148,0.148 0 0 0 0.121,0.133c2.055,0.398 3.793,0.662 5.602,0.662c5.297,0 7.176,-2.547 7.176,-4.728c0,-2.305 -2.39,-3.868 -4.5,-5.247zm14.271,-3.576c-5.188,0 -8.541,2.785 -8.541,7.095c0,2.978 2.113,6.457 8.066,6.457c6.282,0 8.51,-3.766 8.51,-6.992c0.001,-4.046 -3.078,-6.56 -8.035,-6.56zm-0.415,10.757c-2.249,0 -3.701,-1.408 -3.701,-3.586c0,-1.316 0.398,-4.376 4.087,-4.376c2.316,0 3.643,1.345 3.643,3.689c-0.001,2.065 -1.061,4.273 -4.029,4.273zm15.289,-14.775l-4.269,0a0.152,0.152 0 0 0 -0.152,0.148c-0.151,6.937 -0.556,12.029 -0.947,16.953a0.15,0.15 0 0 0 0.152,0.163l4.239,0a0.152,0.152 0 0 0 0.151,-0.146c0.186,-5.043 0.447,-11.001 0.979,-16.954a0.155,0.155 0 0 0 -0.04,-0.116a0.16,0.16 0 0 0 -0.113,-0.048zm17.557,4.323l-4.149,0a0.15,0.15 0 0 0 -0.151,0.148l-0.003,0.117c-0.032,1.327 -0.128,5.361 -0.47,6.975c-0.403,1.842 -1.698,2.855 -3.645,2.855c-1.906,0 -2.872,-0.847 -2.872,-2.517c0,-1.416 0.445,-6.375 0.562,-7.409a0.152,0.152 0 0 0 -0.152,-0.169l-4.208,0a0.153,0.153 0 0 0 -0.153,0.151c-0.016,2.529 -0.174,4.475 -0.301,6.037c-0.094,1.14 -0.173,2.124 -0.173,3.017c0,2.608 1.981,4.043 5.576,4.043c2.528,0 4.27,-0.684 5.332,-2.068l0,1.613c0,0.084 0.068,0.151 0.152,0.151l3.912,0a0.153,0.153 0 0 0 0.153,-0.149c0.052,-3.688 0.28,-7.583 0.74,-12.628a0.144,0.144 0 0 0 -0.039,-0.115a0.137,0.137 0 0 0 -0.111,-0.052zm16.622,0l-4.298,0a0.15,0.15 0 0 0 -0.151,0.151c-0.034,4.728 -0.257,8.858 -0.681,12.624a0.15,0.15 0 0 0 0.151,0.168l4.417,0a0.15,0.15 0 0 0 0.152,-0.15c0.031,-5.368 0.195,-9.025 0.562,-12.625a0.145,0.145 0 0 0 -0.039,-0.117a0.146,0.146 0 0 0 -0.113,-0.051zm0.229,-4.479a0.154,0.154 0 0 0 -0.11,-0.047l-4.268,0a0.152,0.152 0 0 0 -0.152,0.148l-0.06,2.391a0.148,0.148 0 0 0 0.043,0.11c0.028,0.03 0.067,0.046 0.109,0.046l4.209,0a0.15,0.15 0 0 0 0.151,-0.144l0.118,-2.39a0.15,0.15 0 0 0 -0.04,-0.114zm9.697,4.174c-5.187,0 -8.538,2.785 -8.538,7.095c0,2.978 2.111,6.457 8.066,6.457c6.28,0 8.51,-3.766 8.51,-6.992c0,-4.046 -3.08,-6.56 -8.038,-6.56zm-0.414,10.757c-2.249,0 -3.703,-1.408 -3.703,-3.586c0,-1.316 0.399,-4.376 4.087,-4.376c2.316,0 3.644,1.345 3.644,3.689c0,2.065 -1.058,4.273 -4.028,4.273zm14.746,-8.627l0.12,-1.674a0.15,0.15 0 0 0 -0.152,-0.151l-4.149,0a0.151,0.151 0 0 0 -0.152,0.149c-0.08,4.395 -0.319,8.17 -0.801,12.625a0.153,0.153 0 0 0 0.153,0.168l4.238,0c0.082,0 0.15,-0.065 0.152,-0.148l0.01,-0.449c0.032,-1.464 0.097,-4.51 0.49,-6.312c0.46,-2.025 1.875,-3.188 3.883,-3.188c2.068,0 2.992,0.793 2.992,2.57c0,2.106 -0.211,4.372 -0.681,7.351a0.16,0.16 0 0 0 0.034,0.123a0.153,0.153 0 0 0 0.115,0.052l4.388,0a0.151,0.151 0 0 0 0.152,-0.151c0,-2.324 0.152,-4.526 0.275,-6.294c0.079,-1.131 0.14,-2.023 0.14,-2.632c0,-2.728 -1.958,-4.17 -5.665,-4.17c-2.555,0.001 -4.366,0.705 -5.542,2.131zm13.46,1.506c0,1.725 1.798,2.906 3.386,3.949c1.139,0.748 2.216,1.456 2.216,2.153c0,1.087 -1.608,1.171 -2.102,1.171c-1.437,0 -2.857,-0.461 -4.188,-0.932a0.156,0.156 0 0 0 -0.146,0.024a0.15,0.15 0 0 0 -0.055,0.137l0.326,2.747a0.15,0.15 0 0 0 0.121,0.131c1.849,0.366 3.366,0.535 4.774,0.535c2.79,0 6.05,-0.938 6.05,-3.583c0,-1.923 -1.978,-3.245 -3.566,-4.309c-1.047,-0.701 -2.037,-1.362 -2.037,-1.948c0,-0.939 1.11,-1.069 2.308,-1.069c1.223,0 2.294,0.331 3.18,0.653a0.152,0.152 0 0 0 0.203,-0.153l-0.178,-2.594a0.152,0.152 0 0 0 -0.128,-0.14c-1.796,-0.282 -3.156,-0.409 -4.411,-0.409c-5.006,0.001 -5.753,2.278 -5.753,3.637zm-43.983,-3.276a0.144,0.144 0 0 0 -0.105,-0.046l-3.368,0a0.182,0.182 0 0 1 -0.128,-0.054a0.183,0.183 0 0 1 -0.05,-0.123l0.105,-2.701a0.153,0.153 0 0 0 -0.051,-0.112a0.143,0.143 0 0 0 -0.123,-0.032l-3.823,0.712a0.148,0.148 0 0 0 -0.12,0.135l-0.128,2.01c0,-0.007 -0.002,-0.013 -0.003,-0.02c0,0.052 -0.01,0.179 -0.044,0.591c-0.455,5.581 -0.685,8.745 -0.685,9.405c0,3.012 2.079,3.427 4.326,3.427a14.69,14.69 0 0 0 3.354,-0.385a0.147,0.147 0 0 0 0.108,-0.1l0.327,-2.575a0.146,0.146 0 0 0 -0.172,-0.172l-0.306,0.068c-0.575,0.128 -0.863,0.173 -1.829,0.173c-1.158,0 -1.395,-0.714 -1.395,-1.786c0,-0.51 0.189,-3.603 0.301,-5.401l0.007,-0.109a0.178,0.178 0 0 1 0.178,-0.167l3.4,0a0.145,0.145 0 0 0 0.146,-0.139l0.119,-2.501a0.148,0.148 0 0 0 -0.039,-0.099c-0.001,0.002 -0.001,0.001 -0.002,0.001zm-178.446,-4.74l-5.959,0a0.146,0.146 0 0 0 -0.139,0.1c-0.368,1.09 -1.934,4.472 -3.316,7.455l-1.91,4.191a0.182,0.182 0 0 1 -0.334,-0.017l-0.256,-0.744c-0.823,-2.377 -3.328,-9.612 -3.565,-10.866a0.147,0.147 0 0 0 -0.144,-0.119l-5.84,0c-0.079,0 -0.139,0.053 -0.145,0.128c-0.011,0.128 -1.092,12.912 -1.69,16.958a0.15,0.15 0 0 0 0.034,0.119c0.027,0.032 0.069,0.05 0.111,0.05l3.794,0a0.145,0.145 0 0 0 0.145,-0.14c0.145,-3.665 0.423,-7.595 0.848,-12.012a0.18,0.18 0 0 1 0.157,-0.161c0.084,-0.01 0.162,0.04 0.189,0.121l3.976,12.091a0.148,0.148 0 0 0 0.139,0.101l4.002,0c0.058,0 0.11,-0.033 0.134,-0.087l5.336,-12.122a0.177,0.177 0 0 1 0.199,-0.103a0.179,0.179 0 0 1 0.141,0.174c-0.001,2.942 -0.343,10.481 -0.414,11.992c0,0.038 0.014,0.075 0.039,0.1a0.152,0.152 0 0 0 0.108,0.046l3.942,0a0.147,0.147 0 0 0 0.147,-0.146c0,-7.857 0.196,-12.504 0.414,-16.956a0.145,0.145 0 0 0 -0.143,-0.153zm25.776,4.368a0.148,0.148 0 0 0 -0.105,-0.046l-3.367,0a0.176,0.176 0 0 1 -0.178,-0.177l0.105,-2.701a0.153,0.153 0 0 0 -0.051,-0.112a0.141,0.141 0 0 0 -0.122,-0.032l-3.822,0.712a0.147,0.147 0 0 0 -0.12,0.135l-0.128,2.01c0,-0.007 -0.002,-0.013 -0.003,-0.019c0,0.052 -0.01,0.179 -0.043,0.591c-0.455,5.581 -0.685,8.745 -0.685,9.405c0,3.012 2.079,3.427 4.326,3.427a14.69,14.69 0 0 0 3.354,-0.385a0.147,0.147 0 0 0 0.108,-0.099l0.327,-2.575a0.145,0.145 0 0 0 -0.172,-0.172l-0.306,0.068c-0.575,0.128 -0.863,0.174 -1.83,0.174c-1.157,0 -1.395,-0.714 -1.395,-1.786c0,-0.51 0.189,-3.603 0.301,-5.401l0.007,-0.109a0.18,0.18 0 0 1 0.178,-0.167l3.4,0a0.145,0.145 0 0 0 0.146,-0.139l0.119,-2.501a0.148,0.148 0 0 0 -0.039,-0.099l-0.005,-0.002zm9.291,-0.35c-1.937,0 -3.98,0.236 -6.432,0.741a0.145,0.145 0 0 0 -0.115,0.115l-0.445,2.367a0.147,0.147 0 0 0 0.19,0.165c2.147,-0.713 4.023,-1.06 5.734,-1.06c2.108,0 2.551,0.681 2.551,1.252c0,1.039 -1.801,1.402 -3.897,1.824c-2.913,0.588 -6.537,1.321 -6.537,4.406c0,1.123 0.528,3.733 5.422,3.733c0.945,0 1.845,-0.076 2.751,-0.231a0.146,0.146 0 0 0 0.115,-0.098l0.741,-2.186a0.147,0.147 0 0 0 -0.181,-0.187c-0.816,0.252 -1.558,0.374 -2.27,0.374c-1.936,0 -2.343,-0.737 -2.343,-1.353c0,-1.31 1.869,-1.766 3.677,-2.207c0.838,-0.205 1.629,-0.399 2.232,-0.677a0.18,0.18 0 0 1 0.175,0.014a0.178,0.178 0 0 1 0.077,0.158c-0.232,3.69 -0.322,4.851 -0.465,5.923l-0.001,0.018c0,0.034 0.012,0.07 0.038,0.096a0.14,0.14 0 0 0 0.109,0.05l4.121,0c0.08,0 0.146,-0.066 0.146,-0.146c0,-2.248 0.177,-4.586 0.32,-6.477l0.184,-3.162c0.001,-2.258 -2.039,-3.452 -5.897,-3.452zm13.052,-4.018l-4.268,0a0.148,0.148 0 0 0 -0.147,0.143c-0.151,6.945 -0.556,12.033 -0.948,16.953a0.147,0.147 0 0 0 0.04,0.112a0.142,0.142 0 0 0 0.106,0.048l4.239,0c0.08,0 0.144,-0.062 0.147,-0.141c0.185,-5.048 0.446,-11.011 0.977,-16.953a0.15,0.15 0 0 0 -0.037,-0.113a0.143,0.143 0 0 0 -0.109,-0.049zm8.375,2.022c0.893,0 1.808,0.255 2.504,0.476a0.145,0.145 0 0 0 0.19,-0.148l-0.148,-2.415a0.152,0.152 0 0 0 -0.113,-0.135a15.56,15.56 0 0 0 -3.62,-0.411c-3.019,0 -4.682,1.253 -4.682,3.542l-0.434,6.198c-0.132,2.728 -0.256,5.306 -0.514,7.98a0.147,0.147 0 0 0 0.147,0.146l4.209,0a0.147,0.147 0 0 0 0.146,-0.141l0.402,-9.835a0.179,0.179 0 0 1 0.178,-0.172l3.187,0c0.077,0 0.141,-0.06 0.145,-0.138l0.148,-2.502a0.14,0.14 0 0 0 -0.04,-0.1a0.142,0.142 0 0 0 -0.106,-0.046l-3.35,0a0.178,0.178 0 0 1 -0.179,-0.178c0.015,-1.201 0.164,-2.121 1.93,-2.121zm12.461,2.127l-1.315,-0.131c-1.417,0 -2.573,0.479 -3.537,1.463a0.18,0.18 0 0 1 -0.199,0.039a0.181,0.181 0 0 1 -0.107,-0.164l0.047,-0.888a0.145,0.145 0 0 0 -0.041,-0.1a0.15,0.15 0 0 0 -0.106,-0.046l-3.942,0a0.147,0.147 0 0 0 -0.147,0.146c0,5.158 -0.251,8.491 -0.494,11.723l-0.068,0.907c-0.003,0.04 0.01,0.08 0.037,0.109a0.148,0.148 0 0 0 0.108,0.048l4.12,0a0.146,0.146 0 0 0 0.146,-0.146l0,-1.578c0,-2.672 0.119,-4.525 0.351,-5.508c0.305,-1.306 1.181,-2.863 3.623,-2.863c0.485,0 0.952,0.074 1.562,0.247a0.145,0.145 0 0 0 0.13,-0.025a0.15,0.15 0 0 0 0.055,-0.121l-0.118,-2.976c-0.001,-0.046 -0.017,-0.127 -0.105,-0.136zm6.07,0.173l-4.298,0a0.146,0.146 0 0 0 -0.146,0.145c-0.033,4.733 -0.256,8.863 -0.681,12.624a0.148,0.148 0 0 0 0.145,0.164l4.417,0a0.148,0.148 0 0 0 0.146,-0.146c0.032,-5.372 0.195,-9.029 0.562,-12.625a0.144,0.144 0 0 0 -0.037,-0.113a0.143,0.143 0 0 0 -0.108,-0.049zm0.227,-4.48a0.153,0.153 0 0 0 -0.107,-0.047l-4.269,0a0.147,0.147 0 0 0 -0.147,0.143l-0.059,2.392a0.144,0.144 0 0 0 0.146,0.149l4.209,0a0.146,0.146 0 0 0 0.146,-0.139l0.12,-2.39a0.153,0.153 0 0 0 -0.039,-0.108zm-66.041,4.176c-7.563,0 -8.15,5.522 -8.15,7.216c0,1.902 0.817,6.326 8.387,6.326c1.563,0 3.143,-0.159 4.829,-0.485a0.148,0.148 0 0 0 0.117,-0.117l0.534,-2.669a0.142,0.142 0 0 0 -0.044,-0.135a0.142,0.142 0 0 0 -0.138,-0.034c-1.45,0.391 -3.142,0.809 -4.882,0.809c-2.707,0 -4.389,-1.357 -4.389,-3.54l0,-0.082c0,-0.098 0.08,-0.178 0.178,-0.178l10.288,0a0.15,0.15 0 0 0 0.143,-0.118a7.09,7.09 0 0 0 0.181,-1.505c-0.001,-3.437 -2.638,-5.488 -7.054,-5.488zm-3.06,4.756c0.45,-1.251 1.538,-1.996 2.972,-1.996c1.615,0 2.344,0.588 2.487,1.996l-5.459,0zm78.743,-4.756c-5.183,0 -8.532,2.783 -8.532,7.089c0,2.978 2.111,6.454 8.059,6.454c6.279,0 8.506,-3.764 8.506,-6.986c0,-4.045 -3.076,-6.557 -8.033,-6.557zm-0.413,10.756c-2.251,0 -3.705,-1.409 -3.705,-3.591c0,-1.317 0.398,-4.381 4.09,-4.381c3.173,0 3.647,2.313 3.647,3.693c0,2.069 -1.059,4.279 -4.032,4.279z" fill="#003595"/>
    <path d="m89.371,86.048c-0.005,-0.308 0.273,-0.466 0.273,-0.466l3.487,-2.014a1.126,1.126 0 0 0 -1.127,-1.95l-0.001,-0.001l-4.443,2.565s-0.115,0.087 -0.263,-0.01l-4.426,-2.555l0,0.001a1.126,1.126 0 0 0 -1.126,1.95l3.487,2.012s0.278,0.158 0.272,0.465l0.001,6.076l0.001,0l-0.001,0.001a1.932,1.932 0 0 0 3.864,0l0,-0.001l0.002,-6.073zm-13.042,7.53c-0.264,-0.158 -0.539,0.004 -0.539,0.004l-3.488,2.013a1.126,1.126 0 0 1 -1.125,-1.95l-0.001,-0.001l4.443,-2.565s0.133,-0.056 0.122,-0.234l0.001,-5.11l0.001,0a1.127,1.127 0 0 1 2.252,-0.001l-0.001,4.026s-0.002,0.32 0.267,0.469l5.261,3.038l0.001,0.001a1.931,1.931 0 1 1 -1.932,3.346l-0.002,-0.001l-5.26,-3.035zm20.274,-3.354c0.269,-0.15 0.267,-0.469 0.267,-0.469l0,-4.027a1.126,1.126 0 0 1 2.252,0l0.001,0l0,5.13s-0.018,0.144 0.141,0.222l4.425,2.556a1.126,1.126 0 0 1 -1.126,1.95l-3.486,-2.013s-0.276,-0.162 -0.54,-0.004l-5.262,3.037l-0.002,0.001a1.931,1.931 0 1 1 -1.932,-3.346l0.001,-0.001l5.261,-3.036zm-7.232,19.231c-0.005,0.307 0.273,0.465 0.273,0.465l3.487,2.014a1.125,1.125 0 1 1 -1.127,1.95l-0.001,0.001l-4.443,-2.566s-0.115,-0.087 -0.263,0.011l-4.426,2.555l0,-0.001a1.125,1.125 0 0 1 -1.126,-1.95l3.487,-2.012s0.278,-0.158 0.272,-0.465l0.001,-6.076l0.001,0l-0.001,-0.002a1.931,1.931 0 1 1 3.864,0l0,0.002l0.002,6.074zm-13.042,-7.53c-0.264,0.158 -0.539,-0.003 -0.539,-0.003l-3.488,-2.013a1.125,1.125 0 1 0 -1.126,1.95l4.442,2.565s0.133,0.056 0.122,0.234l0.001,5.11l0.001,0a1.127,1.127 0 0 0 2.252,0.001l-0.001,-4.026s-0.002,-0.32 0.267,-0.469l5.261,-3.038l0,-0.001l0.001,0a1.932,1.932 0 0 0 -1.932,-3.346l-0.002,0.001l-5.259,3.035zm20.274,3.355c0.268,0.149 0.267,0.469 0.267,0.469l0.001,4.027a1.126,1.126 0 0 0 2.251,0l0.001,0l0,-5.13s-0.018,-0.144 0.141,-0.223l4.425,-2.555l0,-0.001a1.126,1.126 0 0 0 -1.126,-1.95l-3.487,2.013s-0.275,0.162 -0.539,0.004l-5.263,-3.037l-0.001,-0.001a1.932,1.932 0 1 0 -1.931,3.347l5.261,3.037z" fill="#00abc8"/>
   </g>
  </svg>