<svg  id="fndm-w5ejorqxhs" viewBox="338.79998779296875 342 365.4000244140625 84.10000610351562" xlink="http://www.w3.org/1999/xlink" xmlns="http://www.w3.org/2000/svg">
   <defs xmlns="http://www.w3.org/2000/svg">
    <path d="m338.8,384c0,23.2 18.9,42 42.2,42c23.2,0 42,-18.6 42.1,-41.7l0,-0.6c-0.2,-23.1 -19,-41.7 -42.1,-41.7c-23.3,0 -42.2,18.8 -42.2,42" id="fndm-fyazwkbx0e"/>
   </defs>
   <clipPath xmlns="http://www.w3.org/2000/svg" id="fndm-iv1bkz7k2p">
    <use xmlns:xlink="http://www.w3.org/1999/xlink" xlink:href="#fndm-fyazwkbx0e"/>
   </clipPath>
   <radialGradient xmlns="http://www.w3.org/2000/svg" gradientUnits="userSpaceOnUse" gradientTransform="matrix(65.0444 0 0 -65.0444 475.498 50316.777)" r="1" cy="768" cx="-1.706" id="fndm-fu10xl2hzq">
    <stop stop-color="#65c6f2" offset="0"/>
    <stop stop-color="#419ed2" offset="0.105"/>
    <stop stop-color="#287db6" offset="0.209"/>
    <stop stop-color="#1964a2" offset="0.307"/>
    <stop stop-color="#125494" offset="0.398"/>
    <stop stop-color="#0d4a8c" offset="0.478"/>
    <stop stop-color="#0b4789" offset="0.539"/>
    <stop stop-color="#10559d" offset="0.824"/>
    <stop stop-color="#1e71b7" offset="0.988"/>
    <stop stop-color="#1e71b7" offset="1"/>
   </radialGradient>
   <path clip-path="url(#fndm-iv1bkz7k2p)" d="m338.8,342l84.3,0l0,84.1l-84.3,0l0,-84.1z" fill="url(#fndm-fu10xl2hzq)"/>
   <path d="m402.8,403.2s-9.7,-0.5 -21.8,-0.5c-12.1,0 -21.8,0.5 -21.8,0.5s9.8,0.5 21.8,0.5c12.1,-0.1 21.8,-0.5 21.8,-0.5m-40.7,3.7s8.5,0.5 18.9,0.5c10.4,0 18.9,-0.5 18.9,-0.5s-8.5,-0.5 -18.9,-0.5c-10.4,0 -18.9,0.5 -18.9,0.5m42,-8.1l0.8,0l0,0.7l-0.8,0l0,-0.7zm0,-1.8l0.8,0l0,0.5l-0.8,0l0,-0.5zm0,0.9l0.8,0l0,0.6l-0.8,0l0,-0.6zm0,-1.5l0.8,0l0,0.4l-0.8,0l0,-0.4zm0,-0.4l0.8,0l0,0.2l-0.8,0l0,-0.2zm-1.6,2.8l0.8,0l0,0.7l-0.8,0l0,-0.7zm0,-1.8l0.8,0l0,0.5l-0.8,0l0,-0.5zm0,0.9l0.8,0l0,0.6l-0.8,0l0,-0.6zm0,-1.5l0.8,0l0,0.4l-0.8,0l0,-0.4zm0,-0.4l0.8,0l0,0.2l-0.8,0l0,-0.2zm1,0l0.4,0l0,0.6l-0.4,0l0,-0.6zm0,0.7l0.4,0l0,0.6l-0.4,0l0,-0.6zm0,0.7l0.4,0l0,0.6l-0.4,0l0,-0.6zm0,0.8l0.4,0l0,0.6l-0.4,0l0,-0.6zm0,0.7l0.4,0l0,0.6l-0.4,0l0,-0.6zm-1.5,-2.6l-2.6,0l0,3.2l-0.3,0l0,-3.5l3.2,0l0,3.5l-0.3,0l0,-3.2zm3.1,-0.3l0.6,0l0,3.6l-0.6,0l0,-3.6zm-6.5,0.3l0,3.2l0.3,0l0,-3.5l-45,0l0.2,0.3l44.5,0z" fill="#fff"/>
   <path d="m385.9,397.8l10.8,0l0,0.8l-10.8,0l0,-0.8zm10.3,1l0.5,0l0,0.7l-0.5,0l0,-0.7zm-0.6,0l0.5,0l0,0.7l-0.5,0l0,-0.7zm-0.7,0l0.5,0l0,0.7l-0.5,0l0,-0.7zm-0.7,0l0.5,0l0,0.7l-0.5,0l0,-0.7zm-0.7,0l0.5,0l0,0.7l-0.5,0l0,-0.7zm-0.7,0l0.5,0l0,0.7l-0.5,0l0,-0.7zm-0.7,0l0.5,0l0,0.7l-0.5,0l0,-0.7zm-0.7,0l0.5,0l0,0.7l-0.5,0l0,-0.7zm-0.7,0l0.5,0l0,0.7l-0.5,0l0,-0.7zm-0.7,0l0.5,0l0,0.7l-0.5,0l0,-0.7zm-0.7,0l0.5,0l0,0.7l-0.5,0l0,-0.7zm-0.7,0l0.5,0l0,0.7l-0.5,0l0,-0.7zm-0.6,0l0.5,0l0,0.7l-0.5,0l0,-0.7zm-0.7,0l0.5,0l0,0.7l-0.5,0l0,-0.7zm-0.7,0l0.5,0l0,0.7l-0.5,0l0,-0.7zm-0.7,0l0.5,0l0,0.7l-0.5,0l0,-0.7zm0,-1.1l10.9,0l1.6,-1.3l-12.5,0l0,1.3zm-0.3,-1.3l0.2,0l0,3.1l-0.2,0l0,-3.1zm-20,0l0.2,0l0,3.1l-0.2,0l0,-3.1zm-10.7,1.4l0.5,0.8l10,0l0,-0.8l-10.5,0zm10,1l0.5,0l0,0.7l-0.5,0l0,-0.7zm-0.7,0l0.5,0l0,0.7l-0.5,0l0,-0.7zm-0.7,0l0.5,0l0,0.7l-0.5,0l0,-0.7zm-0.7,0l0.5,0l0,0.7l-0.5,0l0,-0.7zm-0.7,0l0.5,0l0,0.7l-0.5,0l0,-0.7zm-0.7,0l0.5,0l0,0.7l-0.5,0l0,-0.7zm-0.7,0l0.5,0l0,0.7l-0.5,0l0,-0.7zm-0.7,0l0.5,0l0,0.7l-0.5,0l0,-0.7zm-0.6,0l0.5,0l0,0.7l-0.5,0l0,-0.7zm-0.7,0l0.5,0l0,0.7l-0.5,0l0,-0.7zm-0.7,0l0.5,0l0,0.7l-0.5,0l0,-0.7zm-2.6,0l0.5,0.7l1.9,0l0,-0.7l-2.4,0zm-0.7,-1.1l10.7,0l0,-1.3l-11.2,0l0.5,1.3zm30.5,1.2l-0.5,0l0,-0.7l0.5,0l0,0.7zm-0.9,0l-0.5,0l0,-0.7l0.5,0l0,0.7zm-0.8,0l-0.5,0l0,-0.7l0.5,0l0,0.7zm-0.8,0l-0.5,0l0,-0.7l0.5,0l0,0.7zm-0.9,0l-0.5,0l0,-0.7l0.5,0l0,0.7zm-0.8,0l-0.5,0l0,-0.7l0.5,0l0,0.7zm-0.8,0l-0.5,0l0,-0.7l0.5,0l0,0.7zm-0.9,0l-0.5,0l0,-0.7l0.5,0l0,0.7zm-0.8,0l-0.5,0l0,-0.7l0.5,0l0,0.7zm-0.9,0l-0.5,0l0,-0.7l0.5,0l0,0.7zm-0.8,0l-0.5,0l0,-0.7l0.5,0l0,0.7zm-0.8,0l-0.5,0l0,-0.7l0.5,0l0,0.7zm-0.9,0l-0.5,0l0,-0.7l0.5,0l0,0.7zm-0.8,0l-0.5,0l0,-0.7l0.5,0l0,0.7zm-0.9,0l-0.5,0l0,-0.7l0.5,0l0,0.7zm-0.8,0l-0.5,0l0,-0.7l0.5,0l0,0.7zm-0.8,0l-0.5,0l0,-0.7l0.5,0l0,0.7zm-0.9,0l-0.5,0l0,-0.7l0.5,0l0,0.7zm-0.8,0l-0.5,0l0,-0.7l0.5,0l0,0.7zm-0.9,0l-0.5,0l0,-0.7l0.5,0l0,0.7zm-0.8,0l-0.5,0l0,-0.7l0.5,0l0,0.7zm-0.8,0l-0.5,0l0,-0.7l0.5,0l0,0.7zm-0.9,0l-0.5,0l0,-0.7l0.5,0l0,0.7zm18.3,-1l0,-1.4l-0.4,0l0,1.4l-0.6,0l0,-1.4l-0.4,0l0,1.4l-0.5,0l0,-1.4l-0.5,0l0,1.4l-0.5,0l0,-1.4l-0.4,0l0,1.4l-0.5,0l0,-1.4l-0.4,0l0,1.4l-0.5,0l0,-1.4l-0.3,0l0,1.4l-0.5,0l0,-1.4l-0.4,0l0,1.4l-0.5,0l0,-1.4l-0.5,0l0,1.4l-0.5,0l0,-1.4l-0.4,0l0,1.4l-0.5,0l0,-1.4l-0.4,0l0,1.4l-0.5,0l0,-1.4l-0.4,0l0,1.4l-0.4,0l0,-1.4l-0.4,0l0,1.4l-0.5,0l0,-1.4l-0.4,0l0,1.4l-0.5,0l0,-1.4l-0.5,0l0,1.4l-0.5,0l0,-1.4l-0.4,0l0,1.4l-0.5,0l0,-1.4l-0.4,0l0,1.4l-0.5,0l0,-1.4l-0.4,0l0,1.4l-0.5,0l0,-1.4l-0.5,0l0,1.4l-0.5,0l0,-1.4l-0.4,0l0,1.4l-0.5,0l0,-1.4l-0.4,0l0,1.4l-0.5,0l0,-1.4l-0.4,0l0,1.4l-0.3,0l0,1.6l19.4,0l0,-1.6l-0.4,0zm-29.2,-24.1l0,14.5c0,3.3 1.1,5.6 2.1,7l6.7,0c-1.3,-1.4 -3,-4.1 -3,-8.4l0,-16.9c0,-3.3 -1,-5.6 -2.1,-7.1c-1.7,1.9 -3.3,4 -4.5,6.2c0.5,1.4 0.8,2.9 0.8,4.7" fill="#fff"/>
   <path d="m353.7,395.3l3.2,0c-1,-1.6 -2,-3.9 -2,-7l0,-14.4c0,-1.5 -0.2,-2.7 -0.5,-3.8c-2,4 -3.2,8.6 -3.2,13.3c0,4.2 0.8,8.2 2.5,11.9m15.4,-9.4l0,-17.9c0,-5.9 -2.7,-9.1 -3.5,-9.8c-1.9,1.2 -3.7,2.6 -5.3,4.3c1.1,1.5 2.3,4 2.3,7.5l0,16.8c0,4.5 1.9,7.1 3.1,8.4l7.8,0c-0.1,0 -0.2,-0.1 -0.2,-0.1c-0.1,0 -4.2,-2.7 -4.2,-9.2m37.1,-12.1l0,14.5c0,3.3 -1,5.6 -2.1,7l-6.7,0c1.2,-1.4 3,-4.1 3,-8.4l0,-16.9c0,-3.3 1,-5.6 2.1,-7.1c1.8,1.9 3.3,4 4.5,6.2c-0.5,1.4 -0.8,2.9 -0.8,4.7" fill="#fff"/>
   <path d="m408.4,395.3l-3.2,0c1.1,-1.6 2,-3.9 2,-7l0,-14.4c0,-1.5 0.2,-2.7 0.5,-3.8c2,4 3.2,8.6 3.2,13.3c0,4.2 -0.9,8.2 -2.5,11.9m-15.5,-9.4l0,-17.9c0,-5.9 2.7,-9.1 3.5,-9.8c1.9,1.2 3.7,2.6 5.3,4.3c-1.1,1.5 -2.3,4 -2.3,7.5l0,16.8c0,4.5 -1.9,7.1 -3.1,8.4l-7.8,0c0.1,0 0.3,-0.1 0.3,-0.1s4.1,-2.7 4.1,-9.2m15.3,10.1l-1.3,3.5l-1,0l0,-3.5" fill="#fff"/>
   <path d="m577.6,381.4l5.4,0c5.4,-0.1 11.7,-2.4 11.7,-8.9c0.1,-5.3 -4.1,-5.8 -9.4,-5.8l-4.3,0l-3.4,14.7zm-4.5,20l5.3,0c7.2,0 13.1,-3 13.2,-9.6c0.1,-4.7 -3.2,-6.8 -7.5,-6.8l-7.1,0l-3.9,16.4zm4.6,-38.4l7.6,0c6.7,0 13.7,1.1 13.6,9.3c-0.1,6 -4.9,10.2 -10.4,10.8l0,0.1c4.8,0.7 7.2,3.7 7.2,8.6c-0.1,8.1 -7.3,13.3 -17,13.3l-10.6,0l9.6,-42.1zm29.2,16.8c0.4,-1.8 0.7,-3.5 0.9,-5.5l3.8,0c-0.2,1.9 -0.4,3.6 -0.7,4.6l0.1,0c2,-3 4.6,-5.4 8.6,-5.4c1.3,0 2.3,0.3 3.3,0.4l-1,4c-1,-0.4 -2.1,-0.5 -3.2,-0.5c-6.2,0 -8.8,6.8 -10,12.3l-3.3,15.1l-4,0l5.5,-25zm23.9,22.7c7.1,0 10.4,-6.4 11.4,-12.8c-1.3,0 -2.4,-0.1 -3.7,-0.1c-5.1,0 -13.4,0.8 -13.5,7.5c-0.1,3.5 2.7,5.4 5.8,5.4m13.7,-4.8c-0.6,2.3 -1.1,5.2 -1.2,7.3l-3.8,0c0.2,-1.6 0.3,-3.2 0.7,-4.5l-0.2,0c-2.7,3.8 -6,5.2 -10.6,5.2c-4.8,0 -8.7,-3.5 -8.7,-8.6c0.1,-9 10.3,-10.9 17.8,-10.9c1.6,0 3,0.1 4.2,0.2c0.1,-0.9 0.2,-1.8 0.2,-3.1c0,-4.2 -2.3,-6.7 -6.5,-6.7c-3.5,0 -7.1,1.6 -9.1,2.7l0.5,-3.9c2.2,-0.9 5.7,-2.1 9.3,-2.1c6.6,0 10.1,3.6 10,10c0,1.2 -0.3,3.4 -0.9,5.8l-1.7,8.6zm5.7,2.6c2.2,1.3 4.7,2.2 7.3,2.2c3.7,0 8.7,-1.4 8.8,-6.2c0.1,-6.7 -12,-6.4 -11.9,-14.2c0.1,-6.1 6.6,-8.6 11.5,-8.6c2.8,0 5.3,0.5 7.9,1.5l-1.3,3.6c-2,-1.1 -4.5,-1.8 -6.8,-1.8c-3,0 -7.2,0.9 -7.3,5.2c0,5.3 12.2,5.9 12.1,14.1c-0.1,7 -6.5,9.6 -12.5,9.6c-3.2,0 -6,-0.5 -8.9,-1.7l1.1,-3.7zm38.6,-34.2l-4.5,0l1.2,-5.1l4.5,0l-1.2,5.1zm-6,8.2l4,0l-6.9,30.7l-4,0l6.9,-30.7zm17.4,-14.5l4,0l-10.3,45.2l-3.9,0l10.2,-45.2zm-160.7,22.7l-1.9,7.7l8.3,0c-1.9,3.7 -5.2,4.8 -8.9,4.8c-3.4,0 -10.7,-2 -10.7,-10.2c0,-14.2 17.2,-14.7 25.8,-14.7l2.7,0l1.8,-7c-3.2,-0.6 -7,-0.9 -10.7,-0.9c-15.7,0 -33.2,7.2 -33.2,25.3c0,12.2 11.6,18.4 21.5,18.4c4.8,0 7.8,-0.7 10.8,-0.8c2.3,0 3.5,0.5 4.7,1.9l0.2,0l6.7,-24.3l-17.1,0l0,-0.2zm-20.3,-19.5l-35.2,0l-1.9,7.1l10.5,0l-8.8,34.9l13.7,0l8.8,-34.9l9.5,0l3.4,-7.1zm-82.8,24.4c0,11.9 10.9,18.4 24,18.4c3.5,0 6.9,-0.4 10.4,-1l3,-11.6c-3.9,0.9 -6.6,1.4 -10.7,1.4c-3.9,0 -13.1,-1.4 -13.1,-9.9c0,-5.4 2.5,-8.9 6.1,-11.1c5.8,-3.5 14.4,-3.7 19.7,-3.7l1.7,0l1.8,-7.1c-2.9,-0.5 -6.4,-0.8 -9.7,-0.8c-15.7,0.1 -33.2,7.3 -33.2,25.4" fill="#2a2522"/>
   <path d="m394.6,410.8s-6.1,-0.5 -13.7,-0.5s-13.7,0.5 -13.7,0.5s6.1,0.4 13.7,0.4c7.6,0.1 13.7,-0.4 13.7,-0.4" fill="#fff"/>
  </svg>