<svg  id="fndm-dpu2kvnc8c" viewBox="95 79 409.9999694824219 92" xmlns="http://www.w3.org/2000/svg">
   <g xmlns="http://www.w3.org/2000/svg" fill="none">
    <path d="m201,171l-106,0l53.605,-92l8.543,17.196l-35.31,62.48l52.395,0.072l-12.244,-23.359l-8.472,12.253l-15.875,0l24.347,-41.63l39.011,64.988z" fill="#951234"/>
    <path d="m248.697,129.72l26.303,0.142l0,34.81s-5.132,3.242 -10.835,4.017c-5.702,0.775 -9.765,1.62 -20.315,1.198c-10.55,-0.423 -16.893,-0.493 -25.233,-7.61c-9.197,-7.893 -12.617,-18.674 -12.617,-26.919c0,-10.852 1.212,-18.11 6.13,-26.566c5.703,-9.865 17.892,-15.573 26.873,-16.912c10.193,-1.55 18.32,-0.775 24.806,0.211c5.916,0.916 10.55,3.594 10.55,3.594l0,12.966l-3.493,-1.339s-13.187,-3.946 -21.313,-3.876c-10.55,0.07 -18.89,3.876 -22.953,9.866c-4.063,5.99 -5.132,11.063 -5.132,16.7c0,5.638 1.64,14.799 6.914,19.59c5.275,4.792 13.045,7.33 20.743,7.33c7.698,0 10.977,-2.044 10.977,-2.044l0,-14.305l-11.405,0.211l0,-11.063l0,-0.001zm84.023,-1.053s-0.77,-5.934 -5.184,-9.867c-4.414,-3.934 -7.636,-4.693 -12.4,-5.383c-6.725,-0.897 -11.98,-0.069 -11.98,-0.069s-6.374,1.518 -8.406,2.278c-2.032,0.759 -3.573,2.898 -3.573,2.898l0.21,8.211s7.776,-3.588 14.922,-3.795c10.018,-0.207 12.47,4.485 12.47,6.693c0,2.209 -0.07,4.072 -0.07,4.072s-10.018,0.414 -14.361,0.759c-4.414,0.414 -13.591,2 -17.584,5.934c-3.993,3.933 -4.764,8.28 -4.764,13.801c0,8.28 7.566,13.801 19.195,13.801c11.56,0 18.775,-9.454 18.775,-9.454l0,9.454l12.96,-0.069l0.07,-22.91l-0.28,-16.354zm-13.59,20.495s-6.026,9.867 -14.362,9.867c-8.337,0 -10.228,-3.243 -10.228,-6.762c0,-3.52 2.732,-8.005 9.878,-9.592c7.215,-1.587 14.851,-0.552 14.711,-0.552l0,7.039l0.001,0zm185.59,-20.495s-0.77,-5.934 -5.184,-9.867c-4.414,-3.934 -7.636,-4.693 -12.4,-5.383c-6.725,-0.897 -11.98,-0.069 -11.98,-0.069s-6.374,1.518 -8.406,2.278c-2.032,0.759 -3.573,2.898 -3.573,2.898l0.21,8.211s7.776,-3.588 14.922,-3.795c10.018,-0.207 12.47,4.485 12.47,6.693c0,2.209 -0.07,4.072 -0.07,4.072s-10.018,0.414 -14.361,0.759c-4.414,0.414 -13.591,2 -17.584,5.934c-3.993,3.933 -4.764,8.28 -4.764,13.801c0,8.28 7.566,13.801 19.195,13.801c11.56,0 18.775,-9.454 18.775,-9.454l0,9.454l12.96,-0.069l0.07,-22.91l-0.28,-16.354zm-13.59,20.426s-6.026,9.867 -14.362,9.867c-8.407,0 -10.228,-3.243 -10.228,-6.762c0,-3.52 2.732,-8.005 9.878,-9.592c7.215,-1.587 14.851,-0.552 14.711,-0.552l0,7.039l0.001,0zm-128.098,-31.038l11.52,-0.141l0,9.457l-11.52,0.07l0,42.488l-16.848,0.071l0.072,-42.135l-5.256,0.141l0,-10.022l5.976,0l0,-11.292s-1.224,-5.152 3.672,-9.599c4.896,-4.446 8.928,-3.952 8.928,-3.952l17.352,-0.141l0.072,11.645l-10.512,-0.423s-1.656,0 -2.448,1.2s-1.224,3.246 -1.224,3.246l0.216,9.387zm19.968,-13.055l15,0l0,8l-15,0l0,-8zm0,12l15,0l0,54l-15,0l0,-54zm61.302,12.874s-5.773,-4.46 -11.907,-4.46s-10.32,0.425 -10.68,5.239c-0.361,4.813 4.907,6.441 8.226,7.29c3.32,0.85 10.175,1.7 14.361,5.31c0,0 5.412,3.255 4.618,11.608c-1.01,10.051 -5.123,11.963 -8.804,13.945c-3.68,2.052 -10.536,2.194 -16.742,2.194c-6.206,0 -11.907,-1.203 -13.206,-1.628c-1.227,-0.425 -3.68,-1.628 -3.68,-1.628l-0.072,-10.122s3.391,2.406 7.505,3.61c4.113,1.203 8.226,1.203 11.907,0.424c3.68,-0.778 7.216,-2.052 6.855,-6.087c-0.433,-4.035 -1.876,-5.663 -6.422,-7.291c-4.547,-1.628 -9.887,-2.407 -14,-4.813c-4.113,-2.407 -5.773,-6.088 -6.206,-11.326c-0.433,-5.238 1.732,-9.556 5.412,-11.963c3.68,-2.406 8.804,-4.176 15.01,-4.176c6.206,0 9.598,0.779 12.918,1.628c3.32,0.779 4.907,2.407 4.907,2.407l0,9.839z" fill="#000"/>
   </g>
  </svg>