<svg xmlns="http://www.w3.org/2000/svg" fill-rule="evenodd" clip-rule="evenodd" image-rendering="optimizeQuality" shape-rendering="geometricPrecision" text-rendering="geometricPrecision" viewBox="-2 1 6599.990234375 3300"><g><rect width="6599.99" height="3300" x="-2" y="1" fill="none"/><g><rect width="6599.99" height="3299.99" x="-2" y="1" fill="none"/><path fill="#373435" fill-rule="nonzero" d="M813.72 1715.13c0,24.27 3.24,46.69 9.83,67.15 6.58,20.34 16.41,38.02 29.58,52.81 13.18,14.68 29.59,26.24 49.24,34.68 19.65,8.32 42.53,12.48 68.76,12.48 14.68,0 29.7,-1.62 44.96,-4.86 15.37,-3.35 28.78,-7.74 40.34,-13.4l0 -119.45 -97.78 0 0 -50.17 152.35 0 0 204.75c-48.8,27.92 -92.32,39.3 -148.19,39.3 -34.32,0 -65.06,-5.55 -92.11,-16.65 -27.05,-10.98 -50.04,-26.35 -68.76,-45.88 -18.73,-19.53 -33.06,-42.64 -42.88,-69.57 -9.82,-26.82 -14.68,-56.06 -14.68,-87.72 0,-36.06 6.01,-68.31 17.91,-96.85 12.03,-28.43 28.32,-52.47 49.12,-72.23 20.81,-19.77 45.31,-34.91 73.74,-45.42 28.31,-10.52 58.82,-15.72 91.53,-15.72 27.16,0 53.28,3.35 78.47,10.17 25.08,6.7 47.96,16.52 68.54,29.36l-25.15 52.05c-28.57,-19.95 -72.07,-35.41 -121.74,-35.41 -24.97,0 -47.62,4.16 -67.85,12.36 -20.22,8.21 -37.33,19.88 -51.42,34.79 -14.1,15.02 -24.85,33.05 -32.48,53.97 -7.51,21.04 -11.33,44.15 -11.33,69.46zm628.34 -104.01c0,-52.87 -49.2,-60.33 -91.76,-60.33l-65.81 0 0 133.83 62.46 0c48.25,0 95.11,-18 95.11,-73.5zm91.33 321.05l-66.6 0 -121.7 -193.46 -60.6 0 0 193.46 -66.57 0 0 -438.24 117.26 0c23.24,0 44.98,1.81 64.96,5.54 20.11,3.76 37.56,10.06 52.35,18.96 14.79,9.01 26.47,20.8 34.9,35.48 8.44,14.56 12.71,33.05 12.71,55.13 0,16.29 -2.88,31.08 -8.66,44.38 -5.78,13.29 -13.29,24.96 -22.65,34.78 -9.48,9.94 -20.23,18.27 -32.37,24.97 -12.24,6.58 -24.84,11.44 -37.67,14.33l134.64 204.67zm353.09 -170.12l0 -268.12 65.87 0 0 260.03c0,250.96 -351.81,252.01 -351.81,6.71l0 -266.74 66.57 0 0 264.08c0,168 219.37,171.3 219.37,4.04zm385.41 -144.92c0,-11.44 -1.96,-21.38 -5.89,-29.71 -3.93,-8.43 -10.29,-15.25 -18.84,-20.68 -8.55,-5.43 -19.55,-9.45 -32.94,-12.02 -13.51,-2.6 -29.72,-3.93 -48.65,-3.93l-47.33 0 0 147.01 45.36 0c33.99,0 60.61,-6.79 79.64,-20.46 19.08,-13.7 28.65,-33.75 28.65,-60.21zm68.65 -3.36c0,20.81 -4.16,39.76 -12.36,57.1 -8.21,17.22 -20.58,32.12 -37.1,44.72 -16.41,12.48 -37.09,22.27 -61.83,29.13 -24.81,6.87 -77.84,10.4 -111.01,10.63l0 176.82 -66.57 0 0 -438.24 113.32 0c25.66,0 49.25,1.97 70.73,5.89 21.37,3.91 39.87,10.63 55.47,20 15.49,9.36 27.63,21.73 36.3,36.98 8.67,15.14 13.05,34.21 13.05,56.97zm413.4 100.67c0,-26.7 -2.89,-50.51 -8.78,-71.66 -5.89,-21.03 -14.56,-38.95 -26,-53.62 -11.56,-14.68 -25.77,-25.89 -42.65,-33.63 -16.98,-7.75 -36.4,-11.68 -58.47,-11.68 -21.27,0 -40.46,4.16 -57.67,12.37 -17.34,8.2 -32.02,19.76 -44.16,34.67 -12.24,14.91 -21.6,32.82 -28.31,53.63 -6.59,20.92 -9.94,43.92 -9.94,69.22 0,25.2 3.12,48.31 9.48,69 6.36,20.81 15.37,38.49 27.28,53.16 11.78,14.68 26.11,26.01 42.87,34.21 16.87,8.09 35.6,12.14 56.29,12.14 22.19,0 41.83,-3.81 59.28,-11.33 17.34,-7.63 32.02,-18.49 43.92,-32.82 11.9,-14.33 21.03,-31.9 27.39,-52.82 6.36,-20.8 9.47,-44.49 9.47,-70.84zm68.65 -6.94c0,35.37 -4.85,67.38 -14.44,95.93 -9.59,28.55 -23.35,52.82 -41.26,72.81 -18.03,19.99 -39.87,35.36 -65.53,46.11 -25.77,10.75 -54.9,16.07 -87.48,16.07 -31.1,0 -59.41,-5.21 -84.61,-15.72 -25.3,-10.52 -46.92,-25.43 -64.71,-44.73 -17.92,-19.3 -31.67,-42.53 -41.38,-69.57 -9.71,-27.16 -14.56,-57.21 -14.56,-90.38 0,-34.79 4.85,-66.34 14.45,-94.65 9.59,-28.43 23.46,-52.59 41.83,-72.47 18.26,-19.99 40.57,-35.48 66.92,-46.23 26.23,-10.86 56.17,-16.29 89.57,-16.29 30.5,0 58.13,5.31 82.98,15.95 24.84,10.63 45.99,25.54 63.56,44.84 17.45,19.3 30.97,42.41 40.45,69.23 9.48,26.93 14.21,56.51 14.21,89.1zm2610.03 542.36c-154.61,0 -266.9,-13.66 -396.76,-82.02l0.95 -268.89c73.71,58.98 282.68,95.23 375.1,95.23 66.18,0 129.16,-28.19 129.16,-94.33 0,-62.67 -65.98,-79.1 -126.09,-103.15 -61.34,-24.55 -153.36,-81.26 -207.19,-114.62 -241.13,-149.43 -215.99,-518.35 68.34,-596.43 204.58,-56.19 384.75,-38.79 571.96,57.11l-102.07 237.36c-71.61,-49.91 -215.68,-72.29 -304.57,-72.29 -76.56,0 -143.35,93.77 -40.57,144.15 29.96,14.68 63.74,41.94 116.38,62.59 184.83,72.51 340.76,167.12 334.15,371.17 -5.27,162.44 -104.11,277 -254.8,331.51 -55.25,19.97 -92.29,32.61 -163.99,32.61zm-902.71 -652.23c49.61,0 86.34,-12.8 110.17,-38.4 23.83,-25.59 35.75,-61.85 35.75,-108.79 0,-46.92 -13.13,-79.98 -39.4,-99.19 -26.26,-19.2 -63.72,-28.79 -112.36,-28.79l-84.63 0 0 275.17 90.47 0zm-382.79 -536.22l404.48 0c60.05,0 117.27,6.28 171.66,18.85 54.38,12.57 101.96,34.12 142.75,64.65 40.79,30.52 73.36,70.63 97.72,120.31 24.37,49.67 36.54,111.03 36.54,184.05 0,71.83 -12.17,133.48 -36.54,184.95 -24.36,51.48 -56.93,93.67 -97.72,126.6 -40.79,32.92 -87.8,57.46 -141.06,73.61 -53.25,16.17 -108.76,24.24 -166.55,24.24l-118.96 0 0 369.91 -292.32 0 0 -1167.17zm-483.9 1175.23c-428.27,17.74 -602.25,-224.26 -595.17,-585.41 7.93,-404.52 215.63,-599.08 565.44,-599.08 153.89,0 291.06,21.19 411.12,81.58l-106.47 233.62c-140.12,-73.72 -386.83,-86.43 -480.77,28.95 -112.73,138.44 -91.11,400.52 4.44,511.48 61.25,71.15 146.58,108.64 324.8,58.73l0 -170.69 -210.18 0 0 -246.86 485.99 0 0 612.57c-98.66,50.73 -252.9,69.06 -399.2,75.11z"/></g></g></svg>