<svg xmlns="http://www.w3.org/2000/svg" x="0px" y="0px" viewBox="1.3999998569488525 1.2999999523162842 174.01092529296875 34"><path fill="#ec1c24" fill-rule="evenodd" d="M8.3,1.3l27.6,0.1c1.7,0,3.1,1.1,3.6,2.6c0.1,0.5,0.2,1,0.1,1.5v0.1l-0.2-0.1l-0.2-0.1L39,5.3l-0.2-0.1	l-0.2-0.1L38.3,5l-0.2-0.1l-0.2-0.1l-0.2-0.1l-0.2-0.1l-0.2-0.1l-0.3-0.1l-0.2-0.1h-0.2l-0.3,0l-0.2-0.1h-0.3h-0.3h-0.3h-1h-0.5	h-0.5l-0.5,0.1l-0.5,0.1l-0.5,0.1l-0.5,0.1l-0.5,0.2l-0.5,0.2l-0.4,0.3l-0.4,0.2l-0.4,0.2L28.7,6l-0.4,0.2l-0.4,0.3l-0.4,0.3	l-0.4,0.3l-0.3,0.3l-0.3,0.3l-0.3,0.3c-0.9,0.9-1.4,0.8-2,0l-0.2-0.4l-0.3-0.3l-0.3-0.3L23,6.8l-0.3-0.3l-0.3-0.3L22.1,6l-0.4-0.2	l-0.4-0.2l-0.4-0.2l-0.4-0.2L20.1,5l-0.4-0.2l-0.4-0.1l-0.4-0.1l-0.5-0.1l-0.5-0.1h-0.5H17h-1.1h-0.5l-0.5,0.1l-0.5,0.1l-0.5,0.1	l-0.5,0.1l-0.5,0.2l-0.5,0.2l-0.4,0.2l-0.5,0.2l-0.4,0.3l-0.5,0.3L10,6.4L9.6,6.7L9.2,7.1L8.8,7.4L8.4,7.8L8,8.2L7.6,8.6L7.3,9	L7,9.5L6.7,9.9l-0.3,0.5l-0.3,0.5l-0.2,0.5l-0.2,0.5l-0.2,0.5l-0.2,0.5l-0.1,0.5L5,14l-0.1,0.5L4.8,15v0.3v0.3V17v0.3v0.3v0.3V18	l0.1,0.3l0.1,0.2L5,18.8L5.1,19l0.1,0.2l0.1,0.2l0.1,0.2L5.4,20l0.1,0.2l0.1,0.2l0.1,0.2l0.1,0.2l0.1,0.2L6,21.3l0.1,0.2l0.1,0.2	l0.1,0.2l0.1,0.2l0.1,0.2l0.2,0.2l0.2,0.2l6.7,6.5c0.7,0.5,1.6,0.5,2.2-0.1l1.9-1.6c0.6-0.5,0.6-1.4,0.1-2l0,0l-6.9-6.7l-0.1-0.1	L11,18.6L11,18.5l0-0.1l-0.1-0.1l-0.1-0.1L10.7,18l-0.1-0.1l-0.1-0.1l0-0.1l0-0.1v-0.1l-0.1-0.1v-0.1v-0.1V17v-0.1v-0.1v-0.1v-0.1	v-0.1v-0.1v-1.2v-0.3v-0.3l0.1-0.3l0.1-0.3l0.1-0.2l0.1-0.2l0.1-0.2l0.1-0.2l0.1-0.2l0.1-0.2l0.1-0.2l0.2-0.2l0.2-0.2l0.2-0.2	l0.2-0.2l0.2-0.2l0.2-0.2l0.2-0.2l0.2-0.2l0.2-0.2l0.2-0.1l0.2-0.1l0.2-0.1l0.2-0.1l0.2-0.1l0.2-0.1l0.2-0.1L15,9.8h0.3h0.3h0.8h0.2	h0.2c2,0.3,3.8,1.4,5.1,3.1c1.2,1.4,2.7,3.2,5.8,0.2c1.4-1.5,3.3-2.7,5.3-3.2l0.2,0h0.2h0.2h0.2h0.8h0.1h0.1H35h0.1h0.1h0.1h0.1h0.1	h0.1l0.1,0H36l0.1,0l0.1,0l0.1,0.1l0.1,0.1l0.1,0.1l0.1,0.1l0.1,0.1l0.1,0.1l0.1,0.1l0.1,0.1l0.1,0.1l0.1,0.1l0.1,0.1l0.1,0.1	l0.1,0.1l0.1,0.1l0.1,0.1l0.1,0.1l0.1,0.1l0.1,0.1l0.1,0.1l0.1,0.1l0.1,0.1l0.1,0.1l0.1,0.1V12l0.1,0.1v0.1l0,0.1v0.1v0.1v0.1v0.1	v0.1v0.1v0.1v0.1v0.1v0.1v0.1v0.1v1.1V15v0.1v0.1v0.1v0.1v0.1v0.1v0.1v0.1v0.1v0.1v0.1l0,0.1l-0.1,0.1l-0.1,0.1l-0.1,0.1L38,17	l-0.1,0.1l-0.1,0.1l-0.1,0.1l-0.1,0.1l-0.1,0.1l-0.1,0.1l-0.1,0.1l-0.1,0.1L37.3,18l-0.1,0.1l-0.1,0.1l-0.1,0.1L37,18.4l-0.1,0.1	L21.6,31c-1.5,1.1-0.7,2.5,0.2,2.5h3.5c1.3,0,1.7-0.5,2.9-1.5l9.6-7.6l-0.6,6.8c-0.3,2.3-2.2,4-4.5,4.1L5.1,35.2	c-2,0-3.7-1.6-3.7-3.6c0-0.2,0-0.3,0-0.5L3.8,5.4C4.1,3.1,6,1.4,8.3,1.3z" clip-rule="evenodd"/><path fill="#0066b2" fill-rule="evenodd" d="M101.2,16.5c0.1,0.9,0.1,1.9,0,2.8l-1.1,12.2c0,0.8-0.7,1.5-1.5,1.5h-0.2c-1.2,0-2.5-0.1-3.7-0.3	c-0.3-0.1-0.6-0.2-0.8-0.3c-0.1-0.1-0.3-0.1-0.4-0.2c-0.2-0.1-0.5-0.1-0.7,0c-0.8,0.2-1.6,0.4-2.3,0.7c-1,0.3-2,0.4-3,0.4	c-2,0.1-4-0.6-5.5-1.9l-0.3-0.3c-2.4,1.1-6.6,2.6-8.8,0.8c-1.3-1.1-1.4-2.9-1.2-4.4l0.5-5.6c0.2-1,0-2.1-0.4-3	c-0.5-0.7-1.4-1.1-2.3-1c-0.9,0-1.9,0.3-2.5,1c-0.7,0.8-1,1.8-1.1,2.8L64.9,32c0,0.6-0.5,1-1.1,1h-5.3c-0.5,0-1-0.3-1.1-0.8	c0-0.1,0-0.1,0-0.2l0.9-10c0.2-1,0-2.1-0.4-3c-0.5-0.7-1.4-1.1-2.3-1c-0.9,0-1.9,0.3-2.5,1c-0.6,0.8-1,1.8-1.1,2.8L51.2,32	c0,0.6-0.4,1-1,1h-5.5c-0.6,0-1-0.4-1-1v-0.1l0,0l1.7-18.7l0,0c0.1-0.7,0.7-1.2,1.4-1.2l0,0c2.2-0.1,4.4,0.7,6,2.2l0.4,0.3l0.3-0.3	c0.9-0.8,1.9-1.4,3-1.9c1.1-0.4,2.2-0.7,3.4-0.7c1.1,0,2.3,0.2,3.3,0.7c0.9,0.4,1.7,1.1,2.2,2l0.3,0.5l0.4-0.4	c2-1.8,4.6-2.8,7.3-2.8c1.8-0.1,3.6,0.5,5,1.8c1.1,1.5,1.6,3.3,1.3,5.2L79,26.9c0,0,0,0.2,0,0.3s0.5,0,0.6,0c0.2,0,0.4-0.1,0.6-0.2	c0-0.5,0.1-1,0.2-1.5c0.1-0.3,0.2-0.6,0.3-0.9c0.5-1.3,1.4-2.4,2.5-3.2c1.9-1.4,4.3-2.1,6.7-2c0.6,0,1.2,0.1,1.8,0.2l0,0	c0.9,0.2,1.7,0.6,2.5,1.1l0.2-1.5c0.2-1-0.3-1.9-1.2-2.4c-1.3-0.5-2.7-0.7-4.1-0.6c-1.1,0-2.1,0-3.2,0.1l-1.2,0.1l0,0	c-0.6,0.1-1.2-0.4-1.2-1c0-0.1,0-0.3,0-0.4l0.4-1.5c0.2-0.6,0.7-1,1.3-1c1-0.1,2-0.2,3.1-0.2s2.1-0.1,3.2-0.1c2.3,0,6.3,0.2,8.1,1.5	c0.6,0.4,1,1,1.2,1.7l0.2-2.3l0,0c0-0.5,0.4-1,0.9-1h3.1l0.5-5.5V6.5c0.1-0.7,0.5-1.2,1.3-1.2h5.1c0.3,0,0.7,0.1,0.9,0.4	c0.2,0.3,0.3,0.7,0.2,1l0,0l-0.5,5.3h3.8c0.3,0,0.6,0.1,0.8,0.3c0.2,0.3,0.2,0.6,0.1,0.9l-0.2,2.4c0,0.6-0.4,1-0.9,1.1	c0,0-0.1,0-0.1,0h-4l-0.9,7.4c-0.1,1.2,0,2.8,1.1,3.5c0.7,0.4,1.5,0.4,2.2,0l1.1-0.5c-0.5-1.3-0.6-2.8-0.5-4.2	c0.1-1.5,0.6-3,1.4-4.4l0,0l0.2-0.2c0.8-1.2,1.8-2.3,2.9-3.2c2.7-2.1,6.1-3.3,9.6-3.2c2.4-0.1,4.8,0.6,6.9,1.9	c1.2,0.8,2.2,1.9,2.9,3.2l0.3-3.4v-0.1c0.3-0.8,1.1-1.3,2-1.3h4.2c0.4,0,0.9,0.1,1.2,0.5c0.2,0.3,0.3,0.7,0.2,1.1l-0.9,9.5	c-0.2,1,0,2,0.4,2.9c0.5,0.7,1.4,1.1,2.2,1c1,0,1.9-0.3,2.6-1c0.7-0.8,1.1-1.8,1.1-2.9l0.9-9.6l0,0c0-0.8,0.6-1.4,1.4-1.5h5	c0.4,0,0.7,0.2,0.9,0.5c0.2,0.3,0.3,0.7,0.2,1.1L159.9,27c1,0.4,2,0.6,3.1,0.6c0.7,0,1.3-0.2,1.9-0.5c0.5-0.3,0.9-0.8,0.9-1.4	c0.1-1.1-1.4-2.3-2.1-3l-0.8-0.6l0,0c-0.6-0.5-1.1-1.1-1.4-1.8c-0.3-0.7-0.4-1.4-0.3-2.1c0.2-1.9,1.2-3.5,2.9-4.4	c2.2-1.2,4.8-1.8,7.3-1.7c0.6,0,1.2,0,1.8,0.1c0.3,0,0.6,0,1,0.1c0.7,0,1.3,0.6,1.2,1.4c0,0.1,0,0.2,0,0.2l-0.2,2.2	c0,0.4-0.2,0.7-0.5,0.9c-0.4,0.2-0.8,0.3-1.2,0.2c-0.5,0-1-0.1-1.4-0.1c-0.6,0-1.3,0.1-1.8,0.4c-0.5,0.3-0.8,0.8-0.9,1.3	c0,0.4,0.1,0.8,0.3,1.1c0.4,0.5,0.8,0.9,1.2,1.3c1.1,0.9,2.1,2,2.9,3.2c0.4,0.9,0.6,1.8,0.5,2.8c-0.1,1.8-1.1,3.4-2.6,4.3	c-2,1.1-4.3,1.7-6.6,1.6c-1.2,0-2.5-0.2-3.7-0.5c-1.2-0.2-2.4-0.6-3.6-1.1c-1.5-0.5-3-0.9-4.6-1.2c-0.6,0-1.3,0.2-1.8,0.6l0,0l0,0	c-0.8,0.8-1.8,1.3-2.8,1.7c-1.1,0.4-2.3,0.6-3.5,0.6c-1.8,0-3.8-0.3-5.1-1.7c-1.1-1.4-1.6-3.3-1.3-5.1l0.7-7.5	c-0.2,0.2-0.4,0.4-0.6,0.5l-13.7,7.6c3.2,1.5,7,1.3,10.1-0.5c0.5-0.2,1-0.2,1.4,0.2c0.5,0.3,0.7,0.9,0.6,1.4	c-0.1,0.3-0.1,0.5-0.1,0.8c0,0.3,0,0.6-0.1,0.9l0,0c-0.3,1.8-2.5,2.6-4,2.9c-1.8,0.4-3.6,0.6-5.4,0.6c-3.2,0.2-6.4-0.8-9-2.8	c-2.5,1.5-5.3,2.3-8.2,2.4c-1.7,0.1-3.7-0.1-5-1.4c-1.4-1.4-1.5-3.9-1.3-5.8l0.8-9.2h-3.1C101.5,16.6,101.3,16.6,101.2,16.5	L101.2,16.5z M122.4,23.6l8.8-5l0,0c0.7-0.3,0.8-0.7,0.1-1.2c-2.2-1.5-4.9-0.8-7,0.6C122.5,19.4,121.8,21.6,122.4,23.6L122.4,23.6z M92.9,28c0.7-0.5,1.1-1.2,1.2-2c0.1-0.8-0.2-1.6-0.8-2.1c-0.6-0.6-1.4-0.8-2.2-0.8c-0.8,0-1.7,0.3-2.3,0.8c-0.7,0.5-1.1,1.2-1.2,2	c-0.1,0.8,0.2,1.6,0.8,2.1c0.6,0.5,1.4,0.8,2.2,0.8C91.4,28.8,92.3,28.5,92.9,28z" clip-rule="evenodd"/><path fill="#0094d9" fill-rule="evenodd" d="M101.4,15.9L101.4,15.9c0.1,0,0.2,0.1,0.3,0.1h3.7l-0.9,9.9c-0.2,1.7-0.2,4,1.1,5.2c1.3,1.3,3.1,1.3,4.6,1.2	l0,0c2.8-0.1,5.5-1,7.9-2.4l0.3-0.2l0.3,0.2c2.4,1.9,5.5,2.9,8.6,2.7c1.8,0,3.6-0.2,5.3-0.6c1.4-0.3,3.3-1,3.5-2.4	c0.1-0.9,0-0.8,0.2-1.7c0.1-0.5-0.2-0.9-0.7-1c0,0,0,0,0,0c-0.1,0-0.3,0-0.4,0c-4.1,2.3-7.6,2.1-11.9,0.1l14.8-8.2l0,0	c0.2-0.1,0.4-0.3,0.6-0.5l0.3-0.5l-0.2-0.6c0-0.1-0.1-0.1-0.1-0.2c-0.7-1.2-1.6-2.2-2.7-2.9c-2-1.2-4.2-1.9-6.5-1.8	c-3.3-0.1-6.6,1-9.2,3.1c-1.1,0.8-2,1.8-2.8,3l-0.2,0.2c-0.7,1.3-1.2,2.7-1.3,4.1c-0.2,1.4,0,2.7,0.5,4l0.2,0.4l-1.6,0.8l0,0	c-0.9,0.4-1.9,0.4-2.8-0.1c-1.3-0.8-1.5-2.7-1.3-4.1l0.9-7.5l0.1-0.5h4.5c0.4,0,0.4-0.2,0.5-0.5l0.2-2.4v0c0.1-0.4,0-0.5-0.4-0.5	h-4.5l0.1-0.6l0.5-5.4c0-0.5,0-0.7-0.5-0.7h-5.2c-0.4,0-0.6,0.3-0.7,0.7l-0.5,5.5v0.5h-3.6c-0.3,0-0.4,0.1-0.4,0.4l0,0l-0.2,2.7l0,0	L101.4,15.9L101.4,15.9z M139.9,16.5L139,26.6c-0.3,1.6,0.1,3.3,1.1,4.6c1.2,1.2,3.1,1.5,4.7,1.5c1.1,0,2.3-0.2,3.3-0.5	c1-0.4,1.9-0.9,2.6-1.6l0,0h0.1c0.6-0.5,1.4-0.7,2.2-0.7c1.6,0.2,3.2,0.7,4.7,1.2l0,0l0,0c2.2,0.9,4.6,1.4,7,1.5	c2.2,0.1,4.4-0.4,6.3-1.5c1.4-0.8,2.3-2.2,2.5-3.8c0.1-0.8-0.1-1.7-0.4-2.5c-0.7-1.2-1.6-2.2-2.7-3.1c-0.5-0.4-0.9-0.9-1.3-1.5l0,0	c-0.3-0.4-0.4-1-0.4-1.5c0.1-0.8,0.5-1.5,1.2-1.8c0.7-0.3,1.4-0.5,2.1-0.5c0.5,0,1,0,1.5,0.1s1,0,1.1-0.6l0.2-2.3	c0.1-0.4-0.1-0.8-0.4-0.9c-0.1,0-0.1,0-0.2,0c-0.3,0-0.6-0.1-0.9-0.1c-0.6-0.1-1.2-0.1-1.8-0.1c-2.4-0.1-4.8,0.4-7,1.6	c-1.5,0.8-2.5,2.3-2.6,4c-0.1,0.6,0,1.2,0.3,1.8c0.3,0.6,0.7,1.2,1.2,1.6l0.8,0.6c1,0.8,2.5,2.1,2.4,3.5c-0.1,0.8-0.5,1.5-1.2,1.9	c-0.7,0.4-1.5,0.6-2.2,0.6c-1.1,0-2.3-0.3-3.4-0.7l-0.4-0.1l1.2-13.6c0-0.5,0-0.9-0.6-1h-5c-0.5,0.1-0.8,0.5-0.8,0.9l-0.9,9.6	c0,1.2-0.5,2.3-1.2,3.2c-0.8,0.8-1.9,1.2-3,1.2c-1.1,0.1-2.1-0.4-2.8-1.2c-0.5-1-0.7-2.2-0.5-3.3l0.9-9.5l0,0	c0.1-0.6-0.3-0.8-0.8-0.8h-4.1c-0.6,0-1.2,0.3-1.4,0.9L139.9,16.5L139.9,16.5z M79.2,18.5c0.3-1.7-0.1-3.4-1.1-4.7	c-1.2-1.1-2.9-1.7-4.6-1.5c-2.5,0-5,0.9-6.8,2.6l-1,0.9L65,14.7c-0.5-0.8-1.2-1.4-2-1.8c-1-0.4-2-0.6-3-0.6c-1.1,0-2.2,0.2-3.2,0.6	c-1,0.4-2,1-2.8,1.7l-0.8,0.7l-0.8-0.7c-1.5-1.4-3.5-2.2-5.6-2.1c-0.4-0.1-0.7,0.2-0.8,0.6l0,0l-1.7,18.7c0,0.2,0.1,0.4,0.3,0.4h5.4	c0.2,0,0.4-0.1,0.4-0.3l0,0l0.9-10.2c0-1.2,0.5-2.3,1.2-3.2c0.8-0.8,1.9-1.3,3-1.2c1.1-0.1,2.1,0.4,2.8,1.2c0.5,1,0.7,2.2,0.5,3.4	l-0.9,10c0,0.2,0.1,0.4,0.4,0.4h5.3c0.2,0,0.5-0.2,0.5-0.4c0,0,0,0,0,0l0.9-10.2c0.1-1.2,0.5-2.3,1.2-3.2c0.8-0.8,1.9-1.3,3-1.2	c1.1-0.1,2.1,0.4,2.8,1.2c0.5,1,0.7,2.2,0.5,3.4l-0.5,5.6c-0.1,1.3-0.1,3,1,3.9c1.5,1.2,4.6,0.8,8.6-1.1c0.2,0.2,0.4,0.5,0.6,0.7	c1.4,1.2,3.2,1.9,5.1,1.8c0.9,0,1.9-0.1,2.7-0.4c5.3-1.7,1.6,0,8.2,0c0.5,0.1,0.9-0.3,1-0.7c0-0.1,0-0.1,0-0.2l1.2-12.1	c0.1-0.9,0.1-1.9-0.1-2.8l-0.1-0.3l-0.1-0.3c-0.2-0.7-0.6-1.3-1.1-1.7c-1.7-1.3-5.7-1.4-7.8-1.4c-1.1,0-2.1,0-3.2,0.1	s-2,0.2-3.1,0.2c-0.4,0-0.7,0.2-0.8,0.5l-0.4,1.5c-0.1,0.3,0.1,0.5,0.4,0.6c0,0,0,0,0,0c0.1,0,0.1,0,0.2,0l1.2-0.1	c1.1-0.1,2.1-0.1,3.2-0.1c1.5-0.1,3,0.1,4.4,0.7c1.1,0.6,1.7,1.8,1.5,3l-0.2,1.7c-0.1,0.5-0.4,0.6-0.8,0.4c-1.2-0.8-2.6-1.3-4-1.3	c-2.2-0.1-4.5,0.5-6.3,1.8c-1,0.8-1.8,1.8-2.2,3c-0.1,0.3-0.2,0.6-0.2,0.9c-0.1,0.6-0.2,1.1-0.2,1.7l0,0c-0.5,0.3-2.6,1.1-2.4-0.6	C78.8,24.1,79,21.3,79.2,18.5L79.2,18.5z M90.6,29.3c-1,0-1.9-0.3-2.7-1c-0.7-0.6-1.1-1.6-1-2.6c0.1-1,0.6-1.9,1.4-2.4	c0.8-0.6,1.7-0.9,2.7-0.9c1,0,1.9,0.3,2.7,1c0.7,0.6,1.1,1.6,1,2.6c-0.1,1-0.6,1.9-1.4,2.4C92.5,29,91.6,29.3,90.6,29.3L90.6,29.3z M131.4,19.2l-9.4,5.4l-0.2-0.7c-0.7-2.3,0.1-4.8,2.1-6.2c2.3-1.6,5.2-2.3,7.7-0.7C132.7,17.7,132.6,18.7,131.4,19.2z" clip-rule="evenodd"/><path fill="#ec1c24" d="M50.2,4.7c0,0,0,0.1,0,0.1c0,0,0,0.1,0,0.1c0,0,0,0.1,0,0.1c0,0,0,0.1,0,0.1c0,0,0,0.1,0,0.1c0,0,0,0-0.1,0	c-0.1,0-0.1,0-0.2,0l-0.3-0.1C49.5,5,49.4,5,49.2,5c-0.2,0-0.4-0.1-0.6-0.1c-0.2,0-0.4,0-0.6,0.1c-0.3,0.1-0.6,0.3-0.8,0.6	c-0.1,0.1-0.2,0.3-0.2,0.5c-0.1,0.2-0.1,0.3-0.1,0.5c0,0.2,0,0.3,0,0.5c0,0.2,0.1,0.3,0.1,0.5c0.1,0.1,0.2,0.3,0.3,0.4	c0.1,0.1,0.3,0.2,0.4,0.2c0.2,0.1,0.3,0.1,0.5,0.1c0.1,0,0.2,0,0.4,0c0.1,0,0.2-0.1,0.3-0.1L49,7h-0.9c0,0-0.1,0-0.1,0	c0,0,0-0.1,0-0.1V6.7c0,0,0-0.1,0-0.1c0,0,0-0.1,0-0.1V6.4l0.1-0.1c0,0,0,0,0.1,0h1.6c0.1,0,0.1,0,0.2,0.1c0,0.1,0,0.1,0,0.2	l-0.2,1.9c0,0,0,0.1,0,0.1c0,0,0,0.1,0,0.1c0,0.1-0.1,0.1-0.2,0.1c-0.1,0.1-0.2,0.1-0.3,0.1L48.8,9c-0.2,0-0.4,0-0.5,0	c-0.3,0-0.6,0-0.9-0.1c-0.3-0.1-0.5-0.2-0.7-0.4c-0.2-0.2-0.3-0.4-0.5-0.6C46,7.8,46,7.5,45.9,7.2c0-0.3,0-0.5,0-0.8	c0-0.3,0.1-0.5,0.2-0.7c0.1-0.2,0.2-0.4,0.4-0.6c0.2-0.2,0.3-0.4,0.5-0.5c0.2-0.1,0.5-0.3,0.7-0.3c0.3-0.1,0.6-0.1,0.9-0.1	c0.2,0,0.3,0,0.5,0c0.2,0,0.3,0.1,0.5,0.1c0.1,0,0.2,0.1,0.3,0.1l0.2,0.1c0,0,0.1,0.1,0.1,0.1C50.2,4.6,50.2,4.6,50.2,4.7L50.2,4.7z M56.2,5.2c0,0.2,0,0.3,0,0.5c0,0.2-0.1,0.3-0.2,0.4c-0.1,0.2-0.2,0.3-0.3,0.4c-0.2,0.1-0.3,0.2-0.5,0.3c0.1,0.1,0.3,0.2,0.3,0.3	c0.1,0.2,0.2,0.4,0.3,0.6l0.3,1c0,0,0,0.1,0,0.1c0,0,0,0.1,0,0.1c0,0,0,0,0,0.1H56h-0.2h-0.5c-0.1,0-0.1,0-0.2,0c0,0-0.1,0-0.1,0	c0,0,0,0,0-0.1l-0.3-1.1c0-0.1-0.1-0.2-0.1-0.3c0-0.1-0.1-0.2-0.2-0.2c-0.1-0.1-0.1-0.1-0.2-0.1c-0.1,0-0.2,0-0.3,0h-0.3l-0.2,1.8	c0,0,0,0,0,0.1c0,0,0,0-0.1,0h-0.2h-0.5c0,0-0.1,0-0.1,0h-0.1c0,0,0,0,0-0.1l0.4-4.5c0-0.1,0-0.2,0.1-0.2c0.1-0.1,0.1-0.1,0.2-0.1	h1.3c0.2,0,0.4,0,0.6,0.1c0.2,0,0.3,0.1,0.5,0.2C56,4.6,56.1,4.9,56.2,5.2L56.2,5.2z M55.2,5.4c0-0.1,0-0.1,0-0.2	c0-0.1-0.1-0.1-0.1-0.1C55,5,54.9,5,54.9,5c-0.1,0-0.2,0-0.3,0H54l-0.1,1.4h0.5c0.2,0,0.3,0,0.5-0.1c0.1,0,0.2-0.1,0.3-0.2	c0.1-0.1,0.1-0.2,0.2-0.3C55.3,5.7,55.3,5.6,55.2,5.4L55.2,5.4z M62.7,7.2c0,0.3-0.1,0.6-0.2,0.8c-0.1,0.2-0.3,0.4-0.4,0.6	c-0.2,0.2-0.4,0.3-0.7,0.4C61.1,9,60.8,9.1,60.5,9c-0.3,0-0.6,0-0.9-0.1c-0.2-0.1-0.4-0.2-0.6-0.4c-0.2-0.2-0.3-0.4-0.3-0.6	c-0.1-0.3-0.1-0.6,0-0.8l0.2-2.8c0,0,0,0,0-0.1c0,0,0,0,0.1,0c0.1,0,0.1,0,0.2,0h0.5h0.2c0,0,0.1,0,0.1,0c0,0,0,0,0.1,0.1l-0.3,2.9	c0,0.2,0,0.3,0,0.5c0,0.1,0.1,0.2,0.2,0.3c0.1,0.1,0.2,0.2,0.3,0.2c0.1,0,0.3,0.1,0.4,0.1c0.1,0,0.3,0,0.4-0.1	c0.1,0,0.3-0.1,0.3-0.2c0.1-0.1,0.2-0.2,0.2-0.3c0.1-0.1,0.1-0.3,0.1-0.5l0.3-2.9c0,0,0,0,0-0.1c0,0,0,0,0.1,0c0.1,0,0.1,0,0.2,0	h0.5c0,0,0.1,0,0.2,0c0,0,0.1,0,0.1,0c0,0,0.1,0,0.1,0.1L62.7,7.2z M68.8,5.3c0,0.1,0,0.3,0,0.4c0,0.2-0.1,0.3-0.1,0.4	c-0.1,0.1-0.1,0.3-0.2,0.4c-0.1,0.1-0.2,0.2-0.4,0.3c-0.2,0.1-0.3,0.2-0.5,0.2c-0.2,0.1-0.5,0.1-0.8,0.1h-0.5l-0.2,1.5	c0,0,0,0,0,0.1c0,0-0.1,0-0.1,0c-0.1,0-0.1,0-0.2,0h-0.5h-0.2c0,0,0,0-0.1,0c0,0,0,0,0-0.1l0.4-4.3c0-0.1,0-0.2,0.1-0.3	c0.1-0.1,0.2-0.1,0.3-0.1h1.4h0.3c0.1,0,0.3,0.1,0.4,0.1c0.1,0.1,0.2,0.1,0.3,0.2c0.1,0.1,0.2,0.2,0.2,0.3C68.8,5,68.8,5.1,68.8,5.3	L68.8,5.3z M67.8,5.4c0-0.1-0.1-0.2-0.1-0.3C67.6,5.1,67.5,5,67.4,5h-0.2h-0.7l-0.2,1.6h0.4c0.1,0,0.2,0,0.4,0	c0.1,0,0.2-0.1,0.2-0.1c0.1-0.1,0.1-0.1,0.2-0.2c0-0.1,0.1-0.1,0.1-0.2c0-0.1,0-0.2,0-0.2c0-0.1,0-0.2,0-0.2L67.8,5.4z M75.3,5.8	c0,0.2,0,0.5,0,0.7c0,0.2-0.1,0.5-0.1,0.7c-0.1,0.2-0.2,0.5-0.3,0.7c-0.3,0.5-0.7,0.8-1.2,1c-0.3,0.1-0.6,0.2-0.9,0.2	c-0.3,0-0.5,0-0.8-0.1c-0.2-0.1-0.4-0.2-0.6-0.3c-0.2-0.1-0.3-0.3-0.4-0.5c-0.1-0.2-0.2-0.5-0.2-0.7c0-0.2,0-0.5,0-0.7	c0-0.3,0.1-0.5,0.1-0.8c0.1-0.2,0.2-0.5,0.3-0.7c0.1-0.2,0.3-0.4,0.5-0.6c0.2-0.2,0.4-0.3,0.7-0.4c0.3-0.1,0.6-0.2,0.9-0.1	c0.3,0,0.6,0,0.8,0.1c0.2,0.1,0.4,0.2,0.6,0.3c0.2,0.1,0.3,0.3,0.4,0.5C75.3,5.3,75.3,5.5,75.3,5.8L75.3,5.8z M74.3,5.9	c0-0.1,0-0.3-0.1-0.4c0-0.1-0.1-0.2-0.2-0.3C74,5.1,73.9,5,73.7,4.9c-0.1,0-0.3-0.1-0.5-0.1c-0.2,0-0.4,0-0.6,0.1	c-0.2,0.1-0.3,0.2-0.4,0.3c-0.1,0.1-0.2,0.3-0.3,0.5C72,6,72,6.1,71.9,6.3c0,0.2,0,0.3,0,0.5c0,0.1,0,0.3,0,0.4c0,0.1,0,0.3,0.1,0.4	c0,0.1,0.1,0.2,0.2,0.3c0.1,0.1,0.2,0.2,0.3,0.2c0.1,0,0.3,0.1,0.5,0.1c0.2,0,0.4,0,0.6-0.1c0.2-0.1,0.3-0.2,0.4-0.3	c0.1-0.1,0.2-0.3,0.3-0.5c0.1-0.2,0.1-0.3,0.2-0.5c0-0.2,0-0.3,0-0.5C74.4,6.2,74.4,6,74.3,5.9z"/></svg>