<svg  id="fndm-dbcecpd3gv" viewBox="0 0 800.0012817382812 228.4550018310547" xmlns="http://www.w3.org/2000/svg">
   <defs xmlns="http://www.w3.org/2000/svg">
    <clipPath id="fndm-r04m1u5uto">
     <path d="m0,0l411.024,0l0,566.929l-411.024,0l0,-566.929z"/>
    </clipPath>
    <clipPath id="fndm-hkwuiv1pvi">
     <path d="m0,0l411.024,0l0,566.929l-411.024,0l0,-566.929z"/>
    </clipPath>
   </defs>
   <g xmlns="http://www.w3.org/2000/svg" transform="matrix(6.5633 0 0 -6.5633 -948.836 372.093)" clip-path="url(#fndm-r04m1u5uto)" fill="#004a8f">
    <path d="m197.27,25.531l3.223,0.002l0,8.088l-6.964,0l0,-2.781l3.604,-0.015c-0.699,-1.263 -1.627,-2.449 -3.284,-2.433c-1.825,-0.09 -3.619,1.444 -3.665,3.984c-0.076,2.751 1.84,4.212 3.544,4.15c1.048,-0.045 2.311,-0.607 2.691,-1.764l3.299,1.566c-1.399,2.326 -3.679,3.513 -5.869,3.421c-4.121,0.031 -7.375,-2.539 -7.512,-7.22c0,-4.487 3.544,-6.995 6.6,-7.178c1.916,-0.106 3.466,0.623 4.333,1.733l0,-1.552l0,-0.001zm5.625,-0.013l9.564,0l0,3.025l-5.778,0l0,2.722l4.865,0l0,2.935l-4.849,0l0,2.388l5.762,0l0,3.07l-9.564,0l0,-14.14zm51.717,14.14l0.016,-8.849c0,-3.422 2.083,-5.367 5.93,-5.29c3.725,0.075 5.579,1.717 5.899,5.26l0,8.878l-3.741,0l0,-8.453c0.091,-1.429 -0.638,-2.326 -2.158,-2.372c-1.414,-0.03 -2.357,0.715 -2.235,2.372l0,8.453l-3.711,0l0,0.001zm-34.706,-6.643c1.178,0.107 1.699,0.704 1.73,1.806c0.03,1.041 -0.459,1.73 -1.73,1.852c-0.276,0.031 -0.582,0.015 -0.918,0l-0.796,0l0,-3.627l1.178,-0.03c0.184,-0.016 0.367,-0.016 0.536,0m0,6.626c1.469,-0.046 2.647,-0.214 3.627,-0.934c1.102,-0.857 1.668,-2.035 1.668,-3.519c0,-2.204 -1.148,-3.55 -3.244,-4.04l4.086,-5.63l-4.576,0l-1.561,2.431l-1.714,2.694l0,-5.126l-3.703,0l0,14.14l4.377,0c0.351,0 0.703,-0.016 1.04,-0.016m13.561,-0.046c1.223,-0.123 2.233,-0.474 3.122,-1.086c1.668,-1.255 2.922,-3.184 2.998,-5.937c-0.076,-3.23 -1.682,-5.265 -3.442,-6.244c-0.751,-0.369 -1.608,-0.614 -2.678,-0.735a14.553,14.553 0 0 0 -1.684,-0.076l-4.209,0l0,14.14l4.928,0c0.321,-0.016 0.643,-0.03 0.965,-0.062m0,-10.65c1.331,0.321 2.204,1.376 2.142,3.718c-0.061,2.203 -0.858,3.228 -2.142,3.566a4.533,4.533 0 0 1 -0.934,0.136l-1.209,0l0,-7.512l1.163,0c0.336,0 0.673,0.03 0.98,0.091m13.246,10.697l2.142,0l5.187,-14.124l-4.055,0l-0.765,2.601l-5.05,0l-0.704,-2.6l-3.994,0l4.897,14.123l2.342,0zm0,-8.6l1.652,0l-1.652,4.99l-0.108,0.336l-1.546,-5.326l1.654,0z"/>
   </g>
   <path d="m0,0l228.455,0l0,228.455l-228.455,0l0,-228.455z" fill="#004a8f"/>
   <g xmlns="http://www.w3.org/2000/svg" transform="matrix(6.5633 0 0 -6.5633 -948.836 372.093)" clip-path="url(#fndm-hkwuiv1pvi)" fill="#fff">
    <path d="m161.54,25.72l-2.441,0l0,1.158c-0.908,-0.84 -2.185,-1.51 -3.946,-1.51c-4.714,0 -7.077,3.863 -7.077,7.193c0,3.328 2.339,7.202 7.005,7.202c4.667,0 6.433,-4.172 6.433,-4.172l-2.113,-1.266s-1.455,2.759 -4.272,2.759s-4.452,-2.435 -4.452,-4.523c0,-2.09 1.66,-4.5 4.5,-4.5c1.968,0 3.089,1.198 3.59,1.933l-3.616,0l0,2.578l6.389,0l0,-6.852zm0.91,6.851l6.393,0l0,-2.579l-3.62,0c0.503,-0.735 1.625,-1.935 3.594,-1.935c2.842,0 4.503,2.413 4.503,4.503c0,2.09 -1.637,4.526 -4.455,4.526s-4.275,-2.76 -4.275,-2.76l-2.114,1.266s1.767,4.175 6.437,4.175c4.669,0 7.01,-3.876 7.01,-7.207c0,-3.332 -2.365,-7.197 -7.082,-7.197c-1.763,0 -3.04,0.671 -3.95,1.511l0,-1.159l-2.441,0l0,6.856z"/>
   </g>
  </svg>