<svg  id="fndm-81t8fchok0" viewBox="0 -0.000423431396484375 2181.7998046875 1160.4000244140625" xmlns="http://www.w3.org/2000/svg">
   <path d="m81.3,1016.7c0,-1.7 0.5,-3.2 1.5,-4.3c1,-1.2 2.5,-1.7 4.6,-1.7l8.9,0c2.1,0 3.6,0.5 4.5,1.7c1,1.2 1.6,2.7 1.6,4.3l0,80.4c0,5.8 1.2,9.9 3.8,12.5c2.5,2.6 6.2,3.9 11.3,3.9l26,0c2.2,0 3.7,0.5 4.7,1.6c0.9,1.1 1.4,2.6 1.4,4.4l0,4.8c0,1.5 -0.5,3.1 -1.4,4.3s-2.5,1.8 -4.7,1.8l-30.3,0c-10.4,0 -18.3,-2.8 -23.7,-8.4s-8.1,-13.6 -8.1,-24.1l-0.1,-81.2zm87.5,42.7l-7.8,0c-2.2,0 -3.7,-0.6 -4.7,-1.8c-1,-1.3 -1.5,-2.9 -1.4,-4.5l0,-4c0,-1.7 0.5,-3.1 1.4,-4.3c1,-1.2 2.5,-1.7 4.7,-1.7l21.7,0c2.1,0 3.6,0.5 4.6,1.7s1.5,2.6 1.5,4.3l0,75.3c0,1.6 -0.5,3.1 -1.5,4.3s-2.5,1.8 -4.6,1.8l-7.8,0c-2.1,0 -3.7,-0.5 -4.6,-1.8c-1,-1.2 -1.5,-2.7 -1.4,-4.3l0,-65l-0.1,0zm6.1,-30.8c-2.1,0 -3.7,-0.5 -4.6,-1.7c-1,-1.2 -1.5,-2.8 -1.4,-4.4l0,-5.8c0,-1.7 0.5,-3.2 1.4,-4.3c0.9,-1.2 2.5,-1.7 4.6,-1.7l7.8,0c2.1,0 3.6,0.5 4.6,1.7s1.5,2.7 1.5,4.3l0,5.8c0.1,1.6 -0.5,3.2 -1.5,4.4c-1,1.1 -2.5,1.7 -4.6,1.7l-7.8,0zm40.1,20.6c0,-1.7 0.5,-3.1 1.5,-4.3s2.6,-1.7 4.5,-1.7l7.8,0c2.1,0 3.6,0.5 4.6,1.7c1.1,1.2 1.6,2.6 1.6,4.3l0,9.9l5.6,-5.8c3,-3.2 6.6,-5.9 10.6,-8.1s8.9,-3.3 14.8,-3.3c7.3,0 13.2,2.1 18,6.1c4.7,4.1 7.1,11.5 7.1,22l0,54.5c0,1.7 -0.4,3.1 -1.4,4.3c-0.9,1.2 -2.5,1.8 -4.6,1.8l-7.8,0c-2.2,0 -3.7,-0.5 -4.7,-1.8c-1,-1.2 -1.5,-2.7 -1.4,-4.3l0,-50.7c0,-6 -1.2,-10.2 -3.6,-12.3c-2.3,-2 -5.3,-3.1 -8.4,-3.1c-3.7,0 -7.4,1.4 -10.9,4.3c-3.5,2.8 -6.4,5.4 -8.8,7.7l-4.5,4.5l0,49.6c0.1,1.6 -0.5,3.1 -1.5,4.3s-2.5,1.8 -4.6,1.8l-7.8,0c-2,0 -3.6,-0.5 -4.6,-1.8c-1,-1.2 -1.5,-2.7 -1.5,-4.3l0,-75.3zm101.9,-32.5c0,-1.7 0.5,-3.2 1.6,-4.3c1,-1.2 2.5,-1.7 4.5,-1.7l7.8,0c2,0 3.6,0.5 4.5,1.7c1,1.2 1.5,2.7 1.5,4.3l0,42.3l5.6,-5.8c3.1,-3.2 6.6,-5.9 10.6,-8.1s8.9,-3.3 14.8,-3.3c7.2,0 13.2,2.2 18,6.6c4.7,4.4 7.1,12.2 7.1,23.2l0,52.8c0,1.5 -0.5,3.1 -1.4,4.3s-2.5,1.8 -4.6,1.8l-7.7,0c-2.1,0 -3.7,-0.5 -4.6,-1.8c-1,-1.2 -1.5,-2.7 -1.4,-4.3l0,-50.7c0,-6 -1.2,-10.2 -3.7,-12.3c-2.3,-2 -5.3,-3.1 -8.4,-3.1c-3.8,0 -7.4,1.4 -10.9,4.3c-3.5,2.8 -6.4,5.4 -8.8,7.7l-4.5,4.5l0,49.6c0,1.6 -0.5,3.1 -1.5,4.3s-2.5,1.8 -4.5,1.8l-7.9,0c-2.1,0 -3.6,-0.5 -4.6,-1.8c-1,-1.2 -1.6,-2.7 -1.6,-4.3l0.1,-107.7zm97,71.3c0,-13.6 4.8,-24.5 14.6,-32.7c9.8,-8.1 20.7,-12.2 32.8,-12.2l24,0c2,0 3.5,0.5 4.5,1.7s1.5,2.6 1.5,4.3l0,75.3c0,1.6 -0.5,3.1 -1.5,4.3s-2.6,1.8 -4.5,1.8l-7.8,0c-2.1,0 -3.6,-0.5 -4.6,-1.8c-1,-1.2 -1.5,-2.7 -1.5,-4.3l0,-9.1l-6.4,5.8c-3.3,3 -7,5.5 -11,7.6s-8.9,3.1 -14.7,3.1c-6.7,0.1 -13.2,-2.4 -18,-7.1c-5,-4.7 -7.4,-12.4 -7.4,-23l0,-13.7zm19.9,12c0,6 1.2,10.1 3.5,12.1c2.4,2 5.1,3 8.5,3c3.9,0 7.9,-1.4 11.8,-4.4c3.9,-2.9 7.1,-5.4 9.4,-7.4l4.3,-4.3l0,-39.6l-8.9,0c-8.2,0 -15,2.6 -20.5,7.7c-5.4,5.1 -8.1,12 -8.1,20.8l0,12.1zm79.6,18.2c0,-1.7 0.4,-2.9 1.3,-3.7c0.8,-0.8 2,-1.1 3.4,-1.1l0.8,0l0.9,0.2c3.9,0.6 7.5,1.1 10.7,1.4s6.8,0.4 10.6,0.4c5.2,0 9.8,-0.7 13.6,-2.2s5.7,-4.3 5.7,-8.5c0.1,-2.8 -1.5,-5.4 -4,-6.7c-2.7,-1.5 -5.6,-2.6 -8.6,-3.4l-13.3,-3c-6.4,-1.6 -11.5,-4.3 -15.5,-7.9c-4,-3.7 -6,-9 -6,-16c0,-8.8 3.7,-15.2 11,-19.5c7.4,-4.3 16.3,-6.4 26.9,-6.4c4.2,0 7.8,0.2 10.7,0.4c2.8,0.3 6.1,0.8 9.7,1.5c1.7,0.2 2.9,0.8 3.7,1.8c0.7,0.9 1.1,2.3 1.1,4l0,5.6c0,1.6 -0.4,2.8 -1.2,3.7c-0.9,0.9 -2.1,1.3 -3.3,1.3l-1.8,-0.2l-2.4,-0.4c-2.5,-0.4 -5.1,-0.6 -7.6,-0.9c-2.9,-0.3 -5.9,-0.4 -8.9,-0.4c-5.1,0 -9.3,0.7 -12.7,2.1c-3.3,1.4 -5,4 -5,7.6c0,3 1.2,5 3.4,6s4.7,1.9 7.5,2.7l11.7,2.7c6.7,1.6 12.5,4.2 17.5,7.7c5,3.6 7.4,9.5 7.4,17.9c0,10.4 -4.1,17.6 -12.4,21.3c-8.2,3.8 -17.4,5.7 -27.2,5.7c-3.9,0 -7.8,-0.2 -11.7,-0.5c-3.6,-0.4 -7.2,-0.9 -10.9,-1.3c-2,-0.3 -3.4,-1 -4,-2c-0.8,-1.2 -1.1,-2.6 -1.1,-4l0,-5.9zm125.1,-30.2c0,-13.6 4.8,-24.5 14.6,-32.7c9.8,-8.1 20.7,-12.2 32.8,-12.2l24,0c2,0 3.6,0.5 4.6,1.7s1.5,2.6 1.5,4.3l0,75.3c0,1.6 -0.5,3.1 -1.5,4.3s-2.6,1.8 -4.6,1.8l-7.8,0c-2.1,0 -3.6,-0.5 -4.6,-1.8c-1,-1.2 -1.6,-2.7 -1.5,-4.3l0,-9.1l-6.4,5.8c-3.3,3 -7.1,5.5 -11,7.6c-4,2.1 -8.9,3.1 -14.7,3.1c-6.7,0.1 -13.2,-2.4 -18,-7.1c-5,-4.7 -7.4,-12.4 -7.4,-23l0,-13.7zm19.9,12c0,6 1.2,10.1 3.5,12.1c2.4,2 5.2,3 8.5,3c3.9,0 7.9,-1.4 11.8,-4.4c3.9,-2.9 7.1,-5.4 9.4,-7.4l4.3,-4.3l0,-39.6l-8.9,0c-8.2,0 -15,2.6 -20.5,7.7c-5.4,5.1 -8.1,12 -8.1,20.8l0,12.1zm78.2,-20.6c0,-12.4 4,-21.7 12.1,-28s17.9,-9.5 29.4,-9.5c9.3,0 17.2,2 23.7,6s9.9,10.7 9.9,19.9c0,8.3 -2.5,14.6 -7.6,18.8c-5,4.2 -12.1,6.3 -21,6.3l-26.6,0l0,3.8c0,6.6 2.1,11.3 6.3,14.1s9.1,4.2 14.8,4.2c4.4,0 8.4,-0.4 12,-1.2s6.8,-1.6 9.6,-2.2l1.2,-0.2l1,-0.1l2.7,1.1c0.7,0.8 1.1,1.8 1.1,3.2l0,4.9c0,1.9 -0.3,3.5 -1,4.7c-0.6,1.2 -1.8,2 -3.5,2.5c-2.7,0.8 -6.1,1.5 -10.5,2.5c-4.3,0.9 -8.7,1.3 -13.2,1.3c-11.4,0 -20.9,-2.7 -28.7,-8.2s-11.7,-14.5 -11.7,-27.1l0,-16.8zm19.9,1.4l21.4,0c5.4,0 9.2,-1 11.3,-3c2.1,-1.9 3.1,-4.8 3.1,-8.5c0,-4 -1.4,-6.9 -4.2,-8.4c-2.8,-1.6 -6.4,-2.4 -10.6,-2.4c-6.5,0 -11.6,1.7 -15.4,5.2c-3.7,3.4 -5.6,8.7 -5.6,16.1l0,1zm10.3,-50.1l-2.4,-0.7l-0.8,-1.4l0.2,-1l0.8,-1.2l11,-15.6c0.9,-1.4 1.8,-2.6 3,-3.6c1.1,-0.9 2.7,-1.4 4.7,-1.4l10.2,0c1.6,0 2.7,0.2 3.4,0.7l0.9,1.9l-0.5,1.8l-1.4,1.6l-15.3,14.7c-1.3,1.1 -2.7,2.2 -4.1,3.1c-1.2,0.8 -2.6,1.2 -4,1.2l-5.7,-0.1zm64.1,18.5c0,-1.7 0.5,-3.1 1.6,-4.3c1,-1.2 2.5,-1.7 4.5,-1.7l7.8,0c2.1,0 3.6,0.5 4.6,1.7c1.1,1.2 1.5,2.6 1.5,4.3l0,10.5l1.5,-1.9c2.9,-4.4 6.4,-8 10.4,-10.8s8.5,-4.2 13.7,-4.2l0.8,0c2,0 3.6,0.5 4.6,1.7c1,1.1 1.5,2.6 1.5,4.4l0,6.4c0,1.9 -0.5,3.4 -1.5,4.4c-1,1.1 -2.6,1.6 -4.6,1.6l-1.6,0c-3.2,0 -6.3,0.5 -9.3,1.4s-5.6,2.4 -7.8,4.3c-0.1,0 -1.4,1.2 -3.8,3.5c-1.3,1.3 -2.6,2.5 -3.9,3.7l0,50.2c0,1.7 -0.4,3.1 -1.5,4.3c-1,1.2 -2.5,1.8 -4.5,1.8l-7.9,0c-2.1,0 -3.6,-0.5 -4.5,-1.8c-1,-1.2 -1.6,-2.7 -1.6,-4.3l0,-75.2zm60.6,30.2c0,-12.4 4,-21.7 12.1,-28s17.9,-9.5 29.4,-9.5c9.3,0 17.2,2 23.7,6s9.8,10.7 9.8,19.9c0,8.3 -2.5,14.6 -7.6,18.8c-5,4.2 -12,6.3 -21,6.3l-26.5,0l0,3.8c0,6.6 2.1,11.3 6.2,14.1c4.2,2.8 9.1,4.2 14.8,4.2c4.4,0 8.4,-0.4 12,-1.2s6.8,-1.6 9.5,-2.2l1.2,-0.2l1.1,-0.1l2.6,1.1c0.7,0.8 1.1,1.8 1.1,3.2l0,4.9c0,1.9 -0.3,3.5 -0.9,4.7c-0.7,1.2 -1.8,2 -3.6,2.5c-2.7,0.8 -6.2,1.5 -10.4,2.5c-4.3,0.9 -8.8,1.3 -13.2,1.3c-11.4,0 -21,-2.7 -28.8,-8.2s-11.6,-14.5 -11.6,-27.1l0.1,-16.8zm20,1.4l21.4,0c5.4,0 9.2,-1 11.2,-3c2.1,-1.9 3.1,-4.8 3.1,-8.5c0,-4 -1.4,-6.9 -4.2,-8.4c-2.8,-1.6 -6.4,-2.4 -10.6,-2.4c-6.5,0 -11.6,1.7 -15.3,5.2c-3.8,3.4 -5.6,8.7 -5.6,16.1l0,1zm69.5,7.2c0,-13.6 4.9,-24.5 14.6,-32.7c9.8,-8.1 20.7,-12.2 32.9,-12.2l24,0c2,0 3.5,0.5 4.5,1.7s1.5,2.6 1.5,4.3l0,75.3c0,1.6 -0.5,3.1 -1.5,4.3s-2.6,1.8 -4.5,1.8l-7.8,0c-2.1,0 -3.6,-0.5 -4.6,-1.8c-1,-1.2 -1.5,-2.7 -1.5,-4.3l0,-9.1l-6.4,5.8c-3.3,3 -7,5.5 -11,7.6s-8.9,3.1 -14.7,3.1c-6.7,0.1 -13.2,-2.4 -18,-7.1c-5,-4.7 -7.4,-12.4 -7.4,-23l-0.1,-13.7zm19.9,12c0,6 1.2,10.1 3.5,12.1s5.2,3 8.5,3c3.9,0 7.9,-1.4 11.8,-4.4c3.9,-2.9 7.1,-5.4 9.4,-7.4l4.3,-4.3l0,-39.6l-8.9,0c-8.2,0 -15,2.6 -20.5,7.7c-5.4,5.1 -8.1,12 -8.1,20.8l0,12.1zm79.6,18.2c0,-1.7 0.4,-2.9 1.3,-3.7c0.8,-0.8 2,-1.1 3.4,-1.1l0.8,0l0.9,0.2c3.9,0.6 7.5,1.1 10.8,1.4c3.2,0.3 6.7,0.4 10.5,0.4c5.3,0 9.8,-0.7 13.6,-2.2c3.9,-1.5 5.8,-4.3 5.8,-8.5c0.1,-2.8 -1.5,-5.4 -4,-6.7c-2.7,-1.5 -5.6,-2.6 -8.6,-3.4l-13.3,-3c-6.4,-1.6 -11.6,-4.3 -15.6,-7.9s-6,-9 -6,-16c0,-8.8 3.7,-15.2 11,-19.5c7.4,-4.3 16.3,-6.4 26.8,-6.4c4.3,0 7.9,0.2 10.7,0.4c2.9,0.3 6.2,0.8 9.8,1.5c1.7,0.2 2.9,0.8 3.7,1.8c0.7,0.9 1.1,2.3 1.1,4l0,5.6c0,1.6 -0.4,2.8 -1.2,3.7c-0.9,0.9 -2.1,1.3 -3.3,1.3l-1.8,-0.2l-2.4,-0.4c-2.2,-0.3 -4.8,-0.6 -7.6,-0.9s-5.8,-0.4 -8.9,-0.4c-5.1,0 -9.3,0.7 -12.7,2.1c-3.3,1.4 -5,4 -5,7.6c0,3 1.2,5 3.4,6s4.7,1.9 7.5,2.7l11.7,2.7c6.7,1.6 12.5,4.2 17.5,7.7c5,3.6 7.4,9.5 7.4,17.9c0,10.4 -4.1,17.6 -12.4,21.3c-8.2,3.8 -17.3,5.7 -27.3,5.7c-4.3,0 -8.2,-0.2 -11.6,-0.5c-3.4,-0.4 -7,-0.8 -10.9,-1.3c-2,-0.3 -3.4,-1 -4,-2c-0.8,-1.2 -1.1,-2.6 -1.1,-4l0,-5.9zm132.6,-58.8l-7.8,0c-2.2,0 -3.7,-0.6 -4.7,-1.8c-1,-1.3 -1.5,-2.9 -1.4,-4.5l0,-4c0,-1.7 0.5,-3.1 1.4,-4.3c1,-1.2 2.5,-1.7 4.7,-1.7l21.7,0c2,0 3.6,0.5 4.5,1.7c1,1.2 1.5,2.6 1.5,4.3l0,75.3c0,1.6 -0.5,3.1 -1.5,4.3s-2.5,1.8 -4.5,1.8l-7.9,0c-2.1,0 -3.7,-0.5 -4.6,-1.8c-1,-1.2 -1.5,-2.7 -1.4,-4.3l0,-65zm6,-30.8c-2.1,0 -3.7,-0.5 -4.6,-1.7c-1,-1.2 -1.5,-2.8 -1.4,-4.4l0,-5.8c0,-1.7 0.5,-3.2 1.4,-4.3c0.9,-1.2 2.5,-1.7 4.6,-1.7l7.9,0c2,0 3.6,0.5 4.5,1.7c1,1.2 1.5,2.7 1.5,4.3l0,5.8c0.1,1.6 -0.5,3.2 -1.5,4.4c-1,1.1 -2.5,1.7 -4.5,1.7l-7.9,0zm40.2,20.6c0,-1.7 0.5,-3.1 1.5,-4.3s2.6,-1.7 4.5,-1.7l7.9,0c2,0 3.5,0.5 4.5,1.7s1.5,2.6 1.5,4.3l0,9.9l5.6,-5.8c3.1,-3.2 6.6,-5.9 10.6,-8.1s8.9,-3.3 14.7,-3.3c7.3,0 13.3,2.1 18,6.1c4.7,4.1 7.1,11.5 7.1,22l0,54.5c0,1.6 -0.5,3.1 -1.4,4.3s-2.5,1.8 -4.7,1.8l-7.8,0c-2.1,0 -3.7,-0.5 -4.7,-1.8c-1,-1.2 -1.4,-2.7 -1.4,-4.3l0,-50.7c0,-6 -1.2,-10.2 -3.6,-12.3c-2.3,-2 -5.3,-3.1 -8.4,-3.1c-3.7,0 -7.3,1.4 -10.9,4.3c-3.1,2.4 -6,5 -8.8,7.7l-4.5,4.5l0,49.6c0,1.6 -0.5,3.1 -1.5,4.3s-2.6,1.8 -4.5,1.8l-7.9,0c-2,0 -3.6,-0.5 -4.5,-1.8c-1,-1.2 -1.5,-2.7 -1.5,-4.3l0.2,-75.3zm103.2,10.2l-6.6,0c-2.1,0 -3.7,-0.6 -4.6,-1.8s-1.4,-2.7 -1.4,-4.5l0,-4c0,-1.7 0.5,-3.1 1.4,-4.3s2.5,-1.7 4.6,-1.7l6.6,0l0,-14.7c0,-1.6 0.5,-3.1 1.5,-4.3s2.5,-1.8 4.5,-1.8l7.8,0c2,0 3.6,0.6 4.6,1.8s1.5,2.6 1.5,4.3l0,14.7l17.4,0c2.1,0 3.7,0.5 4.7,1.7c0.9,1.2 1.4,2.6 1.4,4.3l0,4c0,1.8 -0.4,3.3 -1.4,4.5s-2.5,1.8 -4.7,1.8l-17.4,0l0,36.4c0,7.2 1.3,12.1 3.8,14.6c2.6,2.6 7,3.8 13.3,3.8l2.9,0c2,0 3.6,0.6 4.5,1.8c1.1,1.3 1.6,2.9 1.6,4.6l0,3.9c0.1,1.6 -0.5,3.1 -1.5,4.3s-2.5,1.8 -4.6,1.8l-8.5,0c-9.9,0 -17.6,-2.5 -23.1,-7.5s-8.3,-12.9 -8.3,-23.7l0,-40zm58.4,20c0,-12.4 4,-21.7 12.1,-28s17.9,-9.5 29.4,-9.5c9.2,0 17.2,2 23.7,6s9.8,10.7 9.8,19.9c0,8.3 -2.6,14.6 -7.6,18.8s-12.1,6.3 -21,6.3l-26.6,0l0,3.8c0,6.6 2.1,11.3 6.3,14.1s9.1,4.2 14.8,4.2c4,0 8,-0.4 12,-1.2c3.6,-0.8 6.8,-1.6 9.6,-2.2l1.2,-0.2l1,-0.1l2.7,1.1c0.7,0.8 1,1.8 1,3.2l0,4.9c0,1.9 -0.3,3.5 -0.9,4.7c-0.7,1.2 -1.8,2 -3.6,2.5c-2.7,0.8 -6.2,1.5 -10.5,2.5c-4.3,0.9 -8.7,1.3 -13.1,1.3c-11.4,0 -21,-2.7 -28.8,-8.2s-11.7,-14.5 -11.7,-27.1l0.2,-16.8zm19.9,1.4l21.4,0c5.4,0 9.1,-1 11.3,-3c2,-1.9 3.1,-4.8 3.1,-8.5c0,-4 -1.4,-6.9 -4.2,-8.4c-2.8,-1.6 -6.4,-2.4 -10.6,-2.4c-6.5,0 -11.6,1.7 -15.4,5.2c-3.7,3.4 -5.6,8.7 -5.6,16.1l0,1zm75.3,-53.8l-7.8,0c-2.1,0 -3.6,-0.6 -4.6,-1.8c-1.1,-1.2 -1.6,-2.9 -1.6,-4.5l0,-4c0,-1.7 0.5,-3.2 1.5,-4.3c1,-1.2 2.5,-1.7 4.6,-1.7l21.7,0c2,0 3.6,0.5 4.5,1.7c1,1.2 1.5,2.7 1.5,4.3l0,107.7c0,1.6 -0.5,3.1 -1.5,4.3s-2.6,1.8 -4.5,1.8l-7.8,0c-2.1,0 -3.6,-0.5 -4.6,-1.8c-1,-1.2 -1.6,-2.7 -1.6,-4.3l0.2,-97.4zm48.7,32.4l-7.8,0c-2.2,0 -3.7,-0.6 -4.7,-1.8c-1,-1.3 -1.5,-2.9 -1.4,-4.5l0,-4c0,-1.7 0.5,-3.1 1.4,-4.3s2.5,-1.7 4.7,-1.7l21.7,0c2,0 3.6,0.5 4.6,1.7s1.5,2.6 1.5,4.3l0,75.3c0,1.6 -0.5,3.1 -1.5,4.3s-2.6,1.8 -4.6,1.8l-7.8,0c-2.2,0 -3.7,-0.5 -4.7,-1.8c-1,-1.2 -1.5,-2.7 -1.4,-4.3l0,-65zm6.1,-30.8c-2.2,0 -3.7,-0.5 -4.7,-1.7s-1.5,-2.8 -1.4,-4.4l0,-5.8c0,-1.7 0.5,-3.2 1.4,-4.3c0.9,-1.2 2.5,-1.7 4.7,-1.7l7.8,0c2,0 3.6,0.5 4.6,1.7s1.5,2.7 1.5,4.3l0,5.8c0.1,1.6 -0.5,3.2 -1.5,4.4c-1,1.1 -2.6,1.7 -4.6,1.7l-7.8,0zm61.2,115.6c11,0 19.1,-1.7 24.2,-5.1c5.2,-3.4 7.8,-10 7.8,-19.7l0,-2.9l-3.4,1.9c-3.6,2 -7.5,3.6 -11.4,4.9c-4.1,1.4 -9,2.1 -14.8,2.1c-8.1,0 -15,-2.7 -20.3,-8c-5.4,-5.3 -8,-13.2 -8,-23.8l0,-6.9c0,-14 4.3,-24.8 13,-32.4c8.7,-7.5 19.1,-11.3 31.3,-11.3l27.5,0c2.1,0 3.7,0.5 4.7,1.7c1.1,1.2 1.6,2.6 1.6,4.3l0,69.8c0,14.4 -4.2,25 -12.5,31.6c-8.4,6.7 -19.8,10 -34.3,10l-16.5,0c-2.1,0 -3.7,-0.6 -4.7,-1.8s-1.6,-2.8 -1.5,-4.4l0,-3.9c0,-1.8 0.5,-3.3 1.5,-4.4c1.1,-1.2 2.6,-1.8 4.7,-1.8l11.1,0l0,0.1zm20.6,-84.8c-8.3,0 -14.8,2.4 -19.6,7.3c-4.8,4.8 -7.1,11.7 -7.1,20.5l0,5.3c0,5.8 1.2,9.9 3.7,12.5c2.4,2.6 5.9,3.9 10.4,3.9c3.9,0 7.7,-0.5 11,-1.6c3.4,-1.1 6.7,-2.3 9.8,-3.7l3.2,-1.4l0,-42.8l-11.4,0zm51.9,20c0,-12.4 4,-21.7 12.1,-28s17.8,-9.5 29.4,-9.5c9.3,0 17.2,2 23.7,6s9.8,10.7 9.8,19.9c0,8.3 -2.5,14.6 -7.6,18.8s-12,6.3 -21,6.3l-26.5,0l0,3.8c0,6.6 2,11.3 6.2,14.1s9.1,4.2 14.9,4.2c4.4,0 8.4,-0.4 12,-1.2s6.8,-1.6 9.5,-2.2l1.2,-0.2l1.1,-0.1l2.6,1.1c0.7,0.8 1.1,1.8 1.1,3.2l0,4.9c0,1.9 -0.3,3.5 -0.9,4.7c-0.7,1.2 -1.8,2 -3.5,2.5c-2.7,0.8 -6.2,1.5 -10.4,2.5c-4.3,0.9 -8.8,1.3 -13.2,1.3c-11.4,0 -21,-2.7 -28.8,-8.2s-11.6,-14.5 -11.6,-27.1l-0.1,-16.8zm20,1.4l21.4,0c5.4,0 9.2,-1 11.3,-3c2.1,-1.9 3.1,-4.8 3.1,-8.5c0,-4 -1.4,-6.9 -4.2,-8.4c-2.8,-1.6 -6.4,-2.4 -10.6,-2.4c-6.5,0 -11.6,1.7 -15.3,5.2c-3.8,3.4 -5.6,8.7 -5.6,16.1l-0.1,1zm74.4,-31.6c0,-1.7 0.5,-3.1 1.5,-4.3s2.6,-1.7 4.6,-1.7l7.8,0c2,0 3.6,0.5 4.5,1.7c1,1.2 1.5,2.6 1.5,4.3l0,9.9l5.6,-5.8c3.1,-3.2 6.6,-5.9 10.6,-8.1s8.9,-3.3 14.7,-3.3c7.3,0 13.3,2.1 18,6.1c4.7,4.1 7.1,11.5 7.1,22l0,54.5c0,1.5 -0.5,3.1 -1.4,4.3s-2.5,1.8 -4.7,1.8l-7.8,0c-2.2,0 -3.7,-0.5 -4.6,-1.8c-1,-1.2 -1.5,-2.7 -1.4,-4.3l0,-50.7c0,-6 -1.2,-10.2 -3.6,-12.3c-2.3,-2 -5.3,-3.1 -8.4,-3.1c-3.7,0 -7.3,1.4 -10.9,4.3c-3,2.4 -6,5 -8.8,7.7l-4.5,4.5l0,49.6c0,1.6 -0.5,3.1 -1.5,4.3s-2.5,1.8 -4.5,1.8l-7.8,0c-2.1,0 -3.6,-0.5 -4.6,-1.8c-1,-1.2 -1.5,-2.7 -1.5,-4.3l0.1,-75.3zm103.2,10.2l-6.6,0c-2.1,0 -3.7,-0.6 -4.6,-1.8s-1.4,-2.7 -1.4,-4.5l0,-4c0,-1.7 0.5,-3.1 1.4,-4.3s2.5,-1.7 4.6,-1.7l6.6,0l0,-14.7c0,-1.6 0.5,-3.1 1.5,-4.3s2.6,-1.8 4.6,-1.8l7.8,0c2.1,0 3.6,0.6 4.6,1.8s1.5,2.6 1.5,4.3l0,14.7l17.4,0c2.1,0 3.7,0.5 4.7,1.7c0.9,1.2 1.4,2.6 1.4,4.3l0,4c0.1,1.6 -0.4,3.2 -1.4,4.5c-1,1.2 -2.6,1.8 -4.7,1.8l-17.4,0l0,36.4c0,7.2 1.3,12.1 3.8,14.6c2.5,2.6 7,3.8 13.2,3.8l2.9,0c2,0 3.6,0.6 4.6,1.8s1.5,2.7 1.5,4.6l0,3.9c0,1.7 -0.5,3.1 -1.5,4.3s-2.6,1.8 -4.6,1.8l-8.5,0c-9.9,0 -17.6,-2.5 -23.1,-7.5s-8.3,-12.9 -8.3,-23.7l0,-40zm58.5,20c0,-12.4 4,-21.7 12.2,-28c8.1,-6.3 17.8,-9.5 29.4,-9.5c9.3,0 17.2,2 23.7,6s9.8,10.7 9.8,19.9c0,8.3 -2.6,14.6 -7.6,18.8s-12.1,6.3 -21,6.3l-26.6,0l0,3.8c0,6.6 2.1,11.3 6.3,14.1s9.1,4.2 14.8,4.2c4.4,0 8.4,-0.4 12,-1.2s6.8,-1.6 9.6,-2.2l1.2,-0.2l1,-0.1l2.7,1.1c0.7,0.8 1.1,1.8 1.1,3.2l0,4.9c0,1.9 -0.3,3.5 -1,4.7c-0.6,1.2 -1.8,2 -3.5,2.5c-2.7,0.8 -6.2,1.5 -10.5,2.5c-4.3,0.9 -8.7,1.3 -13.1,1.3c-11.4,0 -21,-2.7 -28.8,-8.2s-11.7,-14.5 -11.7,-27.1l0,-16.8zm19.9,1.4l21.5,0c5.4,0 9.1,-1 11.2,-3c2.1,-1.9 3.1,-4.8 3.1,-8.5c0,-4 -1.4,-6.9 -4.2,-8.4c-2.8,-1.6 -6.4,-2.4 -10.6,-2.4c-6.5,0 -11.6,1.7 -15.3,5.2c-3.8,3.4 -5.7,8.7 -5.7,16.1l0,1zm71.1,37.4c0,-1.7 0.4,-2.9 1.3,-3.7c0.8,-0.8 2,-1.1 3.4,-1.1l0.8,0l0.9,0.2c4,0.6 7.5,1.1 10.7,1.4s6.8,0.4 10.6,0.4c5.2,0 9.7,-0.7 13.6,-2.2c3.8,-1.5 5.8,-4.3 5.8,-8.5c0,-3 -1.4,-5.2 -4,-6.7c-2.7,-1.5 -5.6,-2.6 -8.6,-3.4l-13.3,-3c-6.4,-1.6 -11.6,-4.3 -15.5,-7.9c-4,-3.7 -6,-9 -6,-16c0,-8.8 3.7,-15.2 11,-19.5c7.4,-4.3 16.3,-6.4 26.8,-6.4c4.3,0 7.9,0.2 10.7,0.4c2.8,0.3 6.1,0.8 9.7,1.5c1.7,0.2 2.9,0.8 3.7,1.8c0.7,0.9 1.1,2.3 1.1,4l0,5.6c0,1.6 -0.4,2.8 -1.2,3.7c-0.9,0.9 -2,1.3 -3.3,1.3l-1.8,-0.2l-2.4,-0.4c-2.2,-0.3 -4.8,-0.6 -7.6,-0.9s-5.8,-0.4 -8.9,-0.4c-5.1,0 -9.3,0.7 -12.7,2.1c-3.3,1.4 -5,4 -5,7.6c0,3 1.2,5 3.4,6s4.8,1.9 7.5,2.7l11.7,2.7c6.7,1.6 12.5,4.2 17.5,7.7c4.9,3.6 7.4,9.5 7.4,17.9c0,10.4 -4.1,17.6 -12.4,21.3c-8.2,3.8 -17.4,5.7 -27.2,5.7c-3.9,0 -7.8,-0.1 -11.7,-0.5c-3.6,-0.4 -7.2,-0.9 -10.9,-1.3c-2,-0.3 -3.4,-1 -4,-2c-0.8,-1.2 -1.1,-2.6 -1.1,-4l0,-5.9zm-933,-224.4c246.8,0 446.9,-200.1 446.9,-446.9s-200,-446.9 -446.9,-446.9c-210.3,0 -386.6,145.2 -434.2,340.8c-2.3,9.6 -11,16.4 -20.9,16.4l-196.1,0c-11.9,0 -21.5,9.6 -21.5,21.5l0,135.4c0,11.9 9.6,21.5 21.5,21.5l136,0c11.9,0 21.5,9.6 21.5,21.5l0,81.4c0,6.4 -2.9,12.5 -7.9,16.6c-48,39.3 -108.1,60.8 -170.2,60.8c-148.6,0 -269,-120.5 -269,-269s120.5,-269 269,-269c42.1,0 82,9.7 117.5,27c10.1,4.9 22.2,1.3 27.9,-8.4l69.1,-116.2c3,-5.1 3.8,-11.2 2.2,-16.9s-5.5,-10.5 -10.8,-13.2c-63.6,-33.1 -134.2,-50.3 -205.9,-50.2c-246.8,0 -446.9,200.1 -446.9,446.9s200.1,446.9 446.9,446.9c125.7,0 239.2,-51.9 320.5,-135.4c4,-4.2 9.6,-6.5 15.4,-6.5s11.4,2.4 15.4,6.5c81.2,83.5 194.8,135.4 320.5,135.4m0,-177.9c-148.5,0 -269,-120.5 -269,-269s120.4,-269 269,-269s268.9,120.4 268.9,269s-120.4,269 -268.9,269" fill="#eb7302"/>
   <path d="m1856.7,360.9c-40.2,-205.6 -221.2,-360.9 -438.7,-360.9c-51,0 -101.6,8.7 -149.7,25.7c85.4,30.5 159.6,86.2 212.7,159.7c118.2,28.4 206,134.6 206,261.5c0,148.6 -120.4,269 -269,269s-269,-120.5 -269,-269c0,-93.1 47.3,-175.2 119.2,-223.5c-44.2,-29.7 -96.3,-45.6 -149.6,-45.5c-21.2,0 -42.4,2.5 -63,7.4c-55.1,76.1 -84.7,167.6 -84.5,261.6c0,246.8 200.1,446.9 446.9,446.9c217.4,0 398.5,-155.2 438.6,-360.9l0.1,-172z" fill="#b0b0b3"/>
   <path d="m1886.2,704.7c-11.8,0 -21.4,-9.6 -21.5,-21.4l0,-647.8c0,-11.9 -9.6,-21.5 -21.5,-21.5l-134.9,0c-11.9,0 -21.5,9.6 -21.5,21.5l0,825.6c0,11.9 9.6,21.5 21.5,21.5l452.1,0c11.9,0 21.4,-9.6 21.4,-21.5l0,-134.9c0,-11.9 -9.6,-21.5 -21.4,-21.5l-274.2,0z" fill="#eb7302"/>
  </svg>