<svg  id="fndm-m36hl3o35h" viewBox="0.14000000059604645 0.7325000166893005 1030.8270263671875 294.9859619140625" xmlns="http://www.w3.org/2000/svg">
   <g xmlns="http://www.w3.org/2000/svg" fill="none">
    <path d="m0.14,148.5l0,-117.86c0,-20.44 9.13,-29.82 29.29,-29.83c64.94,0 129.89,-0.31 194.84,0.31c10.28,0.1 20.9,-0.29 31.09,1.84c13.83,2.88 20.33,11.37 20.58,25.83c0.18,11.08 -0.39,22.19 0.13,33.26c0.32,7 -2.47,8.26 -8.85,8.24c-64.64,-0.2 -129.27,0 -193.9,-0.24c-7.32,0 -9.14,1.53 -9.07,9.14c0.43,46.88 0.23,93.77 0,140.65c0,5.35 1,6.88 6.81,6.85c65.26,-0.36 130.52,-0.29 195.79,-0.55c6.7,0 10,1.52 9.19,9c-1.55,14.64 2.52,29.62 -2.84,44.07c-4,10.84 -11.49,16.32 -23.83,16.34c-61.153,0.12 -122.3,0.168 -183.44,0.14c-13,0 -26,0.09 -39,-0.05c-17.14,-0.18 -26.79,-10.13 -26.79,-27.41l0,-119.73z" fill="#D73138"/>
    <path d="m987.34,137.81c11.4,0 22.82,0.21 34.21,-0.11c5,-0.14 6.56,1 5.73,6.32c-3.17,20.26 -5.88,40.59 -8.77,60.89c-1.59,11.26 -3.27,22.5 -4.74,33.78c-0.69,5.26 -2.21,8.81 -8.72,8a53.8,53.8 0 0 0 -14.23,0c-10.18,1.43 -15.7,-1.38 -13.55,-12.77c0.35,-1.89 0.36,-4.11 -2.13,-4.51a8.81,8.81 0 0 0 -7.9,2.08c-26.94,24.54 -58,24 -89.37,12.26c-26,-9.72 -36.77,-33 -42.1,-58c-8.1,-38.07 4.72,-71.1 27.33,-101.57c20.56,-27.71 48.28,-41.17 81.75,-42.54c36.3,-1.48 67.66,11.12 82.2,47.93c0.4,0.857 0.753,1.735 1.06,2.63c5.3,19 4.69,19.79 -14.61,19.8c-6,0 -12,0.16 -18.06,0c-11,-0.35 -22.05,2 -26.92,-13.84c-4.69,-15.22 -40.78,-16.57 -53.89,0.1c-20.71,26.31 -27.55,55.59 -18.15,87.86c6.33,21.73 28.26,23.39 49,17.1c8.92,-2.71 16.06,-8.47 21.44,-16.32a9,9 0 0 0 1.06,-9c-1.28,-2.84 -4.44,-1.15 -6.86,-1c-22,1.3 -22,1.28 -18.38,-19.93c3.27,-19.08 3.27,-19.08 22.69,-19.08l21.91,-0.08zm-412.78,108.72c-23.45,0 -46.9,-0.21 -70.35,0.15c-6.17,0.09 -7.56,-1.66 -6.67,-7.59a38538.042,38538.042 0 0 0 25.25,-172.23c2.7,-18.75 2.47,-18.79 21.77,-18.78c41.19,0 82.39,0.24 123.58,-0.162c8.34,-0.078 9.62,2.812 8.15,10.002c-1.58,7.74 -2.36,15.64 -3.32,23.49c-0.78,6.45 -3,9.62 -10.73,9.44c-25.66,-0.6 -51.34,0 -77,-0.35c-6.09,-0.08 -8.18,1.3 -8.27,7.67c-0.09,6.56 -1.78,13.14 -3.12,19.64c-1.12,5.45 0.61,7.23 6.25,7.16c21.23,-0.28 42.47,0.13 63.69,-0.29c6.72,-0.14 8.11,2.07 6.93,8.19c-1.66,8.66 -2.75,17.43 -4,26.17c-0.84,6 -3.06,8.89 -10.26,8.65c-20.89,-0.69 -41.82,0 -62.72,-0.48c-5.31,-0.12 -7.32,1 -7.74,6.39c-0.53,6.92 -2,13.77 -3.09,20.64c-1.19,7.31 0.73,10.45 9.24,10.25c26.29,-0.63 52.6,0 78.9,-0.41c6.65,-0.1 8.27,1.81 6.94,8.13c-2,9.24 -3.93,18.58 -4.53,28c-0.38,6 -2.9,6.47 -7.62,6.45c-23.77,-0.15 -47.54,-0.07 -71.3,-0.07l0.02,-0.06zm-84.3,-70.3c-9.66,39.42 -49.43,73.44 -89,77.94c-20.25,2.31 -39.54,0.42 -58.29,-7.49c-23.94,-10.1 -37.48,-28.71 -40.67,-53.78c-5.1,-40.06 3,-77.86 28.19,-109.79c21.93,-27.84 52.23,-40.58 88.1,-39c9.47,0.42 18.92,0.85 28.09,3.4c30.35,8.43 49.7,37 50.35,70.26c0.09,4.4 -1.86,5.32 -5.7,5.26c-14.88,-0.24 -29.77,-0.59 -44.64,-0.27c-6.1,0.13 -5.38,-4.17 -6.21,-7.44c-7,-27.77 -27.94,-31.15 -47.22,-24.3c-11.4,4.06 -16.81,14.8 -22.1,24.81c-12.66,24 -15.3,49.26 -7.07,75.1c6.23,19.54 20.76,23 41.4,17.63c13.48,-3.54 22.8,-13.26 27.15,-26.85c1.11,-3.48 2.43,-5.55 6.36,-5.53c17.01,0.09 34.04,0.05 51.26,0.05zm260.67,70.3c-22.15,0 -44.31,-0.22 -66.46,0.15c-6.33,0.11 -7.36,-2 -6.51,-7.69c7.83,-52.93 15.44,-105.9 23.15,-158.85c1.37,-9.34 3.2,-18.62 4.31,-28c0.57,-4.81 2.55,-6.2 7.25,-6.12c14.87,0.27 29.75,0.18 44.62,0c3.86,0 5.4,0.26 4.65,5.16c-5.72,37.63 -11.07,75.31 -16.4,113c-1.54,10.88 -2.36,21.86 -4.08,32.71c-1,6.27 1.38,7.49 7.05,7.43c23.74,-0.24 47.49,0.27 71.21,-0.32c7.94,-0.2 9,2.72 7.84,9.28c-1.49,8.69 -2.66,17.45 -3.7,26.21c-0.62,5.18 -2.47,7.36 -8.36,7.23c-21.52,-0.45 -43,-0.17 -64.57,-0.17l0,-0.02z" fill="#373737"/>
    <path d="m240.41,160.68c-8.21,0 -16.44,-0.16 -24.65,0.06c-5.06,0.14 -7.44,-1.42 -7.38,-7c0.22,-20.74 -2,-16.73 16,-17c13.9,-0.2 27.82,0.16 41.72,-0.16c6.08,-0.14 8.35,1.6 8,8.1c-0.81,15.91 -0.5,15.92 -16.61,15.86l-17.07,0l-0.01,0.14zm0.05,43.39c-8.52,0 -17,-0.18 -25.56,0.06c-4.91,0.14 -6.4,-1.73 -6.59,-6.63c-0.65,-17.63 -0.84,-17.62 16.34,-17.63c13.57,0 27.15,0.33 40.71,-0.15c6.76,-0.24 8.85,2.09 8.56,8.65c-0.79,18.25 2.74,15.24 -15.47,15.74c-6,0.17 -12,0 -18,0l0.01,-0.04zm-0.69,-86.83c-7.89,0 -15.79,-0.3 -23.66,0.1c-5.5,0.28 -8.08,-1.13 -7.84,-7.19c0.84,-21.86 -2.62,-17.27 17.27,-17.64c13.57,-0.25 27.15,0.15 40.71,-0.2c5.88,-0.15 7.75,1.9 7.41,7.7c-1.12,19.19 4.19,17.19 -17.79,17.33l-16.1,0l0,-0.1z" fill="#D73138"/>
   </g>
  </svg>