<svg xmlns="http://www.w3.org/2000/svg" fill-rule="evenodd" clip-rule="evenodd" image-rendering="optimizeQuality" shape-rendering="geometricPrecision" text-rendering="geometricPrecision" viewBox="-2 1 6600 3300"><g><rect width="6600" height="3300" x="-2" y="1" fill="#373435"/><path fill="#fefefe" d="M738.28 1745.92l-97.27 0 0 -21.86 297.4 0 0 21.86 -83.14 0c0,73.42 -23.57,126.06 -70.71,157.91 -47.13,31.86 -96.41,47.79 -147.84,47.79 -75.14,0 -137.7,-30.01 -187.7,-90 -49.99,-60 -74.99,-130.13 -74.99,-210.41 0,-81.42 25.57,-151.92 76.71,-211.49 51.14,-59.57 114.84,-89.35 191.12,-89.35 39.43,0 77.14,11.43 113.14,34.28 10.86,6.86 18.42,10.29 22.71,10.29 9.14,0 18.28,-8.14 27.43,-24.43l19.28 0 6 155.99 -21.86 0c-23.71,-102.84 -79.85,-154.27 -168.41,-154.27 -45.99,0 -79.56,10.36 -100.71,31.07 -21.14,20.71 -34.06,46.85 -38.78,78.42 -4.71,31.57 -7.07,76.64 -7.07,135.21 0,105.42 3.5,175.27 10.5,209.55 7,34.28 21.36,60.06 43.07,77.35 21.71,17.28 48.28,25.93 79.7,25.93 25.15,0 47.5,-5.15 67.07,-15.43 19.57,-10.28 31.86,-25.64 36.85,-46.07 5,-20.42 7.5,-50.92 7.5,-91.49l0 -30.85zm452.11 -70.71l0 241.27 93 0 0 21.85 -286.27 0 0 -21.85 91.28 0 0 -530.97 -91.28 0 0 -21.85 296.12 0c66.85,0 117.21,14.86 151.06,44.56 33.85,29.72 50.78,66.28 50.78,109.71 0,44.57 -17.07,81.93 -51.21,112.06 -34.14,30.15 -90.92,45.22 -170.34,45.22l-83.14 0zm0 -289.7l0 267.41 55.28 0c28.86,0 52.86,-2.43 72,-7.28 19.14,-4.86 35.64,-17.72 49.5,-38.57 13.85,-20.86 20.78,-53.14 20.78,-96.85 0,-38.57 -6.07,-66.93 -18.21,-85.07 -12.15,-18.14 -26.5,-29.28 -43.07,-33.43 -16.57,-4.14 -37.14,-6.21 -61.71,-6.21l-74.57 0zm690.38 530.97l0 -530.97 -93.86 0 0 -21.85 290.56 0 0 21.85 -94.71 0 0 530.97 94.71 0 0 21.85 -290.56 0 0 -21.85 93.86 0zm325.69 0l0 -293.13 -60.86 0 0 -21.86 39 0c38.57,0 73.57,-2.14 104.99,-6.42l0 83.56 1.71 0c29.43,-58.56 71,-87.85 124.71,-87.85 25.14,0 45.78,6.43 61.93,19.29 16.14,12.85 27.14,27.99 32.99,45.42 5.86,17.43 8.79,44.43 8.79,81l0 179.99 66.85 0 0 21.85 -207.41 0 0 -21.85 56.99 0 0 -214.28c0,-32.85 -2.07,-55.57 -6.21,-68.14 -4.14,-12.56 -14.93,-18.85 -32.36,-18.85 -27.71,0 -52.63,14.21 -74.77,42.64 -22.14,28.42 -33.22,66.64 -33.22,114.63l0 144 56.14 0 0 21.85 -200.13 0 0 -21.85 60.86 0zm760.69 -293.13l-162.42 328.27 -11.14 0 -164.99 -328.27 -51.85 0 0 -21.86 210.41 0 0 21.86 -64.71 0 112.28 227.98 110.56 -227.98 -64.71 0 0 -21.86 139.27 0 0 21.86 -52.7 0zm380.16 120.85l-216.84 0c-2,84.56 2.72,136.63 14.15,156.2 11.42,19.57 31.85,29.36 61.28,29.36 60.56,0 101.56,-35.14 122.99,-105.42l18.42 0c-9.42,42.57 -27.28,73.99 -53.56,94.28 -26.29,20.28 -55.57,30.42 -87.85,30.42 -46,0 -85.99,-17.07 -119.99,-51.21 -34,-34.14 -51,-77.07 -51,-128.77 0,-50.29 16.64,-92.57 49.92,-126.85 33.29,-34.28 71.93,-51.43 115.92,-51.43 38.29,0 71.78,13.57 100.5,40.72 28.71,27.14 44.06,64.71 46.06,112.7zm-216.84 -19.28l124.71 0c2.29,-20.29 3.43,-35.71 3.43,-46.29 0,-45.71 -20.71,-68.56 -62.14,-68.56 -20.57,0 -36.71,5.5 -48.43,16.5 -11.71,11 -17.57,25.93 -17.57,44.78l0 53.57zm513.39 -127.28l0 95.99 -17.56 0c-13.14,-55.71 -45.14,-83.56 -96,-83.56 -22,0 -40.36,5.78 -55.07,17.35 -14.71,11.57 -22.07,24.79 -22.07,39.64 0,12.57 5.21,22.5 15.64,29.79 10.43,7.28 35.07,13.5 73.93,18.64 85.42,10.57 128.13,49.43 128.13,116.56 0,33.42 -11.07,61.28 -33.21,83.56 -22.14,22.29 -49.64,33.43 -82.49,33.43 -32.28,0 -63.57,-13.29 -93.86,-39.85l-29.99 25.71 -15 0 0 -126.42 15 0c24.57,80.85 65.85,121.28 123.85,121.28 21.99,0 41.99,-7 59.99,-21 18,-14 27,-30.43 27,-49.28 0,-15.72 -5.36,-27.57 -16.07,-35.57 -10.71,-8 -39.64,-15.43 -86.78,-22.28 -80.28,-11.72 -120.42,-47.43 -120.42,-107.14 0,-29.42 10.78,-54.07 32.36,-73.93 21.57,-19.85 47.92,-29.78 79.06,-29.78 32.85,0 60.42,10.86 82.71,32.57 5.71,-6 11.57,-14.57 17.57,-25.71l13.28 0zm242.13 -93.85l0 97.7 101.56 0 0 21.86 -101.56 0 0 212.13c0,31.14 2.07,52.42 6.22,63.85 4.14,11.43 15.21,17.15 33.21,17.15 13.71,0 26.92,-4.58 39.64,-13.72 12.71,-9.14 22.35,-23.28 28.92,-42.42l18.43 0c-13.14,55.42 -53,83.13 -119.57,83.13 -27.99,0 -48.56,-5.07 -61.7,-15.21 -13.14,-10.15 -21.22,-22.64 -24.22,-37.5 -2.99,-14.86 -4.5,-35 -4.5,-60.43l0 -206.98 -76.27 0 0 -21.86 76.27 0 0 -90.42c28.29,0 56.14,-2.43 83.57,-7.28zm240.41 412.69l0 -293.13 -60.42 0 0 -21.86 37.71 0c44.57,0 79.99,-1.85 106.28,-5.56l0 82.7 1.71 0c22.57,-55.14 62.85,-82.7 120.85,-82.7 63.14,0 97.99,29.28 104.57,87.85l1.71 0c24.85,-58.57 66.14,-87.85 123.85,-87.85 25.71,0 47.35,6.42 64.92,19.28 17.57,12.86 28.43,27.71 32.57,44.56 4.14,16.86 6.21,44.72 6.21,83.57l0 173.14 59.57 0 0 21.85 -199.27 0 0 -21.85 56.14 0 0 -211.71c0,-33.42 -1.93,-56.42 -5.78,-68.99 -3.86,-12.57 -14.22,-18.85 -31.08,-18.85 -23.14,0 -46.92,13.07 -71.35,39.21 -24.42,26.14 -36.64,75.78 -36.64,148.91l0 111.43 55.28 0 0 21.85 -194.12 0 0 -21.85 55.71 0 0 -165.85c0,-64.57 -2.36,-103 -7.07,-115.28 -4.72,-12.28 -15.93,-18.42 -33.65,-18.42 -24.28,0 -45.49,10.71 -63.64,32.13 -18.14,21.43 -29.42,42.29 -33.85,62.57 -4.43,20.29 -6.64,52.57 -6.64,96.85l0 108 55.28 0 0 21.85 -199.27 0 0 -21.85 60.42 0zm967.21 -172.28l-216.84 0c-2,84.56 2.72,136.63 14.15,156.2 11.42,19.57 31.85,29.36 61.28,29.36 60.56,0 101.56,-35.14 122.99,-105.42l18.42 0c-9.42,42.57 -27.28,73.99 -53.56,94.28 -26.29,20.28 -55.57,30.42 -87.85,30.42 -46,0 -85.99,-17.07 -119.99,-51.21 -34,-34.14 -51,-77.07 -51,-128.77 0,-50.29 16.64,-92.57 49.93,-126.85 33.28,-34.28 71.92,-51.43 115.91,-51.43 38.29,0 71.79,13.57 100.5,40.72 28.71,27.14 44.07,64.71 46.06,112.7zm-216.84 -19.28l124.71 0c2.29,-20.29 3.43,-35.71 3.43,-46.29 0,-45.71 -20.71,-68.56 -62.14,-68.56 -20.57,0 -36.71,5.5 -48.42,16.5 -11.72,11 -17.58,25.93 -17.58,44.78l0 53.57zm332.55 191.56l0 -293.13 -60.85 0 0 -21.86 38.99 0c38.58,0 73.57,-2.14 105,-6.42l0 83.56 1.71 0c29.43,-58.56 71,-87.85 124.71,-87.85 25.14,0 45.78,6.43 61.92,19.29 16.15,12.85 27.14,27.99 33,45.42 5.86,17.43 8.78,44.43 8.78,81l0 179.99 66.85 0 0 21.85 -207.41 0 0 -21.85 57 0 0 -214.28c0,-32.85 -2.07,-55.57 -6.21,-68.14 -4.15,-12.56 -14.93,-18.85 -32.36,-18.85 -27.71,0 -52.64,14.21 -74.78,42.64 -22.14,28.42 -33.21,66.64 -33.21,114.63l0 144 56.14 0 0 21.85 -200.13 0 0 -21.85 60.85 0zm569.53 -412.69l0 97.7 101.56 0 0 21.86 -101.56 0 0 212.13c0,31.14 2.07,52.42 6.22,63.85 4.13,11.43 15.21,17.15 33.2,17.15 13.72,0 26.93,-4.58 39.64,-13.72 12.72,-9.14 22.36,-23.28 28.93,-42.42l18.43 0c-13.14,55.42 -53,83.13 -119.57,83.13 -27.99,0 -48.56,-5.07 -61.7,-15.21 -13.14,-10.15 -21.22,-22.64 -24.22,-37.5 -3,-14.86 -4.5,-35 -4.5,-60.43l0 -206.98 -76.27 0 0 -21.86 76.27 0 0 -90.42c28.29,0 56.14,-2.43 83.57,-7.28zm416.11 93.85l0 95.99 -17.56 0c-13.14,-55.71 -45.14,-83.56 -96,-83.56 -22,0 -40.36,5.78 -55.07,17.35 -14.71,11.57 -22.07,24.79 -22.07,39.64 0,12.57 5.21,22.5 15.64,29.79 10.43,7.28 35.07,13.5 73.93,18.64 85.42,10.57 128.13,49.43 128.13,116.56 0,33.42 -11.07,61.28 -33.21,83.56 -22.14,22.29 -49.64,33.43 -82.49,33.43 -32.29,0 -63.57,-13.29 -93.86,-39.85l-29.99 25.71 -15 0 0 -126.42 15 0c24.57,80.85 65.85,121.28 123.85,121.28 21.99,0 41.99,-7 59.99,-21 18,-14 27,-30.43 27,-49.28 0,-15.72 -5.36,-27.57 -16.07,-35.57 -10.71,-8 -39.64,-15.43 -86.78,-22.28 -80.28,-11.72 -120.42,-47.43 -120.42,-107.14 0,-29.42 10.78,-54.07 32.36,-73.93 21.57,-19.85 47.92,-29.78 79.06,-29.78 32.85,0 60.42,10.86 82.71,32.57 5.71,-6 11.57,-14.57 17.57,-25.71l13.28 0z"/></g></svg>