<svg  id="fndm-3qp71c6bkt" viewBox="0.6549873352050781 0.07200000435113907 409.3450012207031 54.85499954223633" xmlns="http://www.w3.org/2000/svg">
   <g xmlns="http://www.w3.org/2000/svg" fill="#6B88BB">
    <path d="m67.447,26.342c-1.585,7.092 -3.53,13.099 -10.304,19.105c-7.494,6.586 -17.294,9.48 -27.815,9.48c-19.672,0 -31.274,-10.348 -28.175,-25.545c3.243,-15.704 19.168,-26.053 39.344,-26.053c12.899,0 21.906,4.487 25.509,13.533l-16.502,4.993c-1.297,-4.631 -5.404,-7.67 -11.961,-7.67c-10.737,0 -17.943,7.887 -19.456,15.269c-1.513,7.526 2.738,15.125 13.403,15.125c7.061,0 13.042,-2.822 14.844,-8.395l-13.259,0l2.018,-9.914l32.354,0l0,0.072zm18.015,-0.579l0.144,0c3.747,-4.052 9.08,-5.862 14.988,-5.862l2.882,0l-2.305,11.217c-1.874,-0.868 -3.82,-1.085 -6.197,-1.085c-8.36,0 -11.386,4.27 -12.539,9.987l-2.738,13.316l-15.132,0l6.773,-32.928l15.133,0l-1.01,5.355l0.001,0z"/>
    <path d="m144.766,38.862l-31.85,0c-1.009,4.776 1.73,7.31 7.999,7.31c3.242,0 5.764,-0.87 7.854,-3.04l14.556,0c-4.035,7.743 -14.268,11.29 -23.996,11.29c-14.123,0 -23.419,-6.152 -21.113,-17.514c2.234,-11 13.331,-17.586 27.238,-17.586c14.772,0 21.906,7.092 19.6,18.31l-0.288,1.23zm-12.682,-6.803c-0.072,-3.112 -3.387,-5.21 -7.494,-5.21c-4.396,0 -8.431,1.809 -10.016,5.21l17.51,0zm33.291,-7.381l0.144,0c4.324,-3.98 8.791,-5.356 14.7,-5.356c11.457,0 14.916,5.573 13.259,13.678l-4.18,20.336l-15.132,0l3.315,-16.066c0.648,-3.112 2.45,-8.684 -5.044,-8.684c-6.125,0 -8.647,3.546 -9.44,7.67l-3.53,17.08l-15.133,0l6.773,-32.928l15.133,0l-0.865,4.27zm62.403,25.039l-0.144,0c-3.315,3.257 -8.863,4.776 -13.835,4.776c-12.61,0 -19.889,-8.177 -17.943,-17.585c1.945,-9.408 12.322,-17.513 24.932,-17.513c4.9,0 9.8,1.447 12.322,4.27l4.828,-23.593l15.133,0l-10.953,53.264l-15.133,0l0.793,-3.619zm-16.357,-12.81c-0.865,4.198 2.09,7.382 8.214,7.382c6.125,0 10.377,-3.184 11.241,-7.381c0.865,-4.053 -2.017,-7.454 -8.214,-7.454c-6.125,0 -10.377,3.401 -11.241,7.454l0,-0.001zm82.651,1.955l-31.85,0c-1.009,4.776 1.73,7.31 7.999,7.31c3.242,0 5.764,-0.87 7.854,-3.04l14.556,0c-4.035,7.743 -14.268,11.29 -23.996,11.29c-14.123,0 -23.419,-6.152 -21.113,-17.514c2.234,-11 13.33,-17.586 27.238,-17.586c14.772,0 21.906,7.092 19.6,18.31l-0.288,1.23zm-12.682,-6.803c-0.072,-3.112 -3.387,-5.21 -7.494,-5.21c-4.396,0 -8.431,1.809 -10.017,5.21l17.511,0zm33.29,-7.381l0.145,0c4.324,-3.98 8.791,-5.356 14.7,-5.356c11.457,0 14.916,5.573 13.259,13.678l-4.18,20.336l-15.132,0l3.315,-16.066c0.648,-3.112 2.45,-8.684 -5.044,-8.684c-6.125,0 -8.647,3.546 -9.44,7.67l-3.53,17.08l-15.133,0l6.773,-32.928l15.133,0l-0.865,4.27l-0.001,0zm76.383,14.184l-31.85,0c-1.009,4.776 1.73,7.31 7.999,7.31c3.242,0 5.764,-0.87 7.854,-3.04l14.556,0c-4.035,7.743 -14.268,11.29 -23.996,11.29c-14.123,0 -23.419,-6.152 -21.113,-17.514c2.234,-11 13.331,-17.586 27.238,-17.586c14.773,0 21.906,7.092 19.6,18.31l-0.288,1.23zm-12.682,-6.803c-0.072,-3.112 -3.387,-5.21 -7.494,-5.21c-4.396,0 -8.431,1.809 -10.016,5.21l17.51,0zm28.729,-17.09c1.25,1.25 1.874,2.812 1.874,4.531c0,1.797 -0.625,3.36 -1.875,4.61c-1.25,1.25 -2.812,1.874 -4.53,1.874c-1.798,0 -3.282,-0.625 -4.532,-1.875s-1.875,-2.812 -1.875,-4.609c0,-1.797 0.625,-3.281 1.875,-4.531c1.25,-1.25 2.812,-1.875 4.531,-1.875c1.719,-0.078 3.281,0.547 4.531,1.875l0.001,0zm0.702,-0.781c-1.484,-1.485 -3.203,-2.188 -5.312,-2.188c-2.031,0 -3.828,0.703 -5.313,2.188c-1.484,1.484 -2.187,3.203 -2.187,5.312c0,2.11 0.703,3.828 2.188,5.313c1.484,1.484 3.203,2.187 5.312,2.187c2.11,0 3.828,-0.703 5.313,-2.188c1.484,-1.484 2.187,-3.28 2.187,-5.312c0,-2.11 -0.703,-3.828 -2.188,-5.313l0,0.001zm-4.218,5c-0.313,0.156 -0.781,0.156 -1.406,0.156l-1.329,0l0,-2.969l1.25,0c0.782,0 1.407,0.078 1.72,0.313c0.39,0.234 0.546,0.624 0.546,1.171c0.078,0.625 -0.156,1.094 -0.781,1.329zm-4.14,4.374l1.483,0l0,-3.28l1.172,0c0.782,0 1.329,0.077 1.641,0.234c0.547,0.312 0.781,0.937 0.781,1.875l0,1.015l1.328,0l-0.078,-0.078c0,-0.078 -0.078,-0.234 -0.078,-0.39l0,-1.25c0,-0.391 -0.156,-0.86 -0.469,-1.25c-0.312,-0.47 -0.78,-0.704 -1.406,-0.782c0.547,-0.078 0.938,-0.234 1.172,-0.39c0.547,-0.313 0.781,-0.86 0.781,-1.641c0,-1.016 -0.39,-1.719 -1.25,-2.11c-0.469,-0.234 -1.25,-0.312 -2.265,-0.312l-2.891,0l0,8.36l0.078,0l0.001,-0.001z"/>
   </g>
  </svg>