<svg  id="fndm-hegsxe43c8" viewBox="0.2394847869873047 0.6967208385467529 876.9973754882812 107.9932861328125" xmlns="http://www.w3.org/2000/svg">
   <g xmlns="http://www.w3.org/2000/svg" fill="none">
    <path d="m63.01,78.55c-18.08,12.55 -36.16,12 -50.37,-1.2c-14,-13 -16.6,-40.57 -5.47,-58.72c9.27,-15.13 29.46,-21.62 47.49,-15.13c6.71,2.41 12.37,6.44 15.89,12.73c2.3,4.1 6.86,8.49 3.13,13.35c-2.64,3.46 -15.1,-0.58 -18.18,-5.2c-7.27,-10.92 -24.76,-10.34 -32,1.43c-7.24,11.77 -7.55,24 -0.87,35.92c7.37,13.22 27.52,14.07 34.63,1.78c3.27,-5.67 3.56,-9.3 -4.91,-9.08c-3.45,0.09 -9,2.91 -10.19,-3.27c-1.12,-5.76 -1.36,-11.38 7.91,-10.35c8.39,0.93 19.39,-2.63 24.72,1.55c5.66,4.44 1.25,15.89 1.87,24.25a36,36 0 0 1 -0.06,8.5c-0.6,3.6 2.7,8.77 -3.23,10.44c-5.65,1.59 -9.3,-1.05 -10.36,-7z" fill="#010101"/>
    <path d="m415.46,26.76c7.55,7.15 17.6,8 26.92,10.58c18.19,5.1 25.06,14 22.31,29.1a18.9,18.9 0 0 1 -2.53,7c-9.1,13.73 -23,15.37 -37.63,14c-12.63,-1.23 -23,-6.61 -27.64,-19.41c-1.17,-3.2 -4.32,-8.47 0.72,-9.53c5.04,-1.06 11.93,-4.32 16,3c5.72,10.28 14.73,13.94 25.78,10.5c3.88,-1.21 6.89,-3.36 7.44,-7.62c0.55,-4.26 -2,-7 -5.6,-8.89c-6.78,-3.62 -14.35,-4.45 -21.61,-6.4c-15.68,-4.22 -21.85,-11.51 -21.18,-24.59c0.55,-10.93 7.05,-16.94 16.57,-20.59a73.38,73.38 0 0 1 29.08,0l-0.13,-0.07c2.42,1.83 5.35,2.58 8.06,3.81a11.6,11.6 0 0 1 6.82,6.18c1.9,4.28 6.14,9 1.72,13.55c-3.61,3.69 -14.51,0.29 -17.59,-4.71c-6,-9.78 -19.22,-9.48 -27.41,0.62a2.76,2.76 0 0 1 -0.89,-2.72a8,8 0 0 0 0.79,6.19z" fill="#B58E16"/>
    <path d="m856.48,28.34c1.38,2 3.31,2.06 4.79,0.59c4.74,-4.72 10.08,-3.55 15.54,-2c0,0.6 0.07,1.2 0.1,1.8c-1.71,11.24 -0.46,22.54 -0.74,33.81c-0.24,9.54 0.22,19.1 -0.82,28.62c0,6.16 -4,10 -8.63,12.45c-12.82,6.65 -25.91,7 -38.78,-0.31a5.08,5.08 0 0 1 -0.77,-0.54c-4,-3.25 -9.16,-8.3 -5.79,-12.19c3.07,-3.54 10.51,-3 15.61,0.4c2.28,1.53 4.06,3.79 6.07,5.72c3.4,1.67 7,1.38 10.61,1.13c1.26,-0.09 1.94,-0.67 0.71,-0.41a5.06,5.06 0 0 1 -0.34,-0.81c2.22,-2.17 5.11,-3.78 5.9,-7.11c0.79,-3.33 3.28,-7 0.53,-9.76s-4.79,1.54 -7.16,2.52c-12.83,5.26 -27,0.16 -32.44,-12.55c-4.68,-10.9 -4.2,-21.86 0.91,-32.74c5.76,-12.22 25.54,-17 34.7,-8.62zm5.09,25.98c-0.15,-10.67 -6.14,-17.95 -14.39,-17.49c-7.43,0.38 -12.22,7.29 -12.1,17.38c0.13,11.35 4.66,16.97 13.38,16.62c7.79,-0.31 13.24,-7.17 13.11,-16.51z" fill="#B58E15"/>
    <path d="m724.61,45.8a58.27,58.27 0 0 1 1.11,12.18c0.27,20.19 -18.42,39.67 -43.85,23c0,6.13 -0.39,11.71 0.11,17.2c0.62,6.92 -2.48,8.3 -8.76,8.39c-6.78,0.11 -8.58,-2.29 -8.47,-8.76c0.34,-21.1 0.08,-42.21 0.19,-63.31c0,-3 -1.55,-7.25 2.19,-8.38c4,-1.21 9.61,-2.59 12.46,0.79c2.85,3.38 4.08,2.21 6.73,0.89c17.4,-8.69 34,-0.94 38.29,18zm-29.6,-8.72a11.73,11.73 0 0 0 -11.37,6.93a27.13,27.13 0 0 0 0.1,23.63c4.05,8.45 16.6,9.29 22.05,1.7c2.82,-3.93 3.26,-8.71 2.93,-13.49c0.11,-3.77 0,-7.48 -1.82,-10.98c-2.5,-4.91 -6.54,-7.65 -11.89,-7.79z" fill="#B58F15"/>
    <path d="m617.39,30.4a2.16,2.16 0 0 1 2.53,0c-0.421,3.259 -0.91,6.526 0.353,9.655l-0.014,0.063l-0.029,0.152c-6.34,8.68 -6.62,18.01 -2.21,27.41c3.42,7.24 11.25,8.95 18,4.75c6.75,-4.2 9.3,-16.84 5.36,-26.49c-3.21,-7.86 -8.95,-10.01 -19.41,-7.25a1.85,1.85 0 0 0 -0.719,0.184l0.159,0.126c-3.91,-3 -0.7,-6.39 -0.41,-9.62c8.36,-6.2 16.86,-3.94 25.38,-0.74c12.12,7.91 17,23.44 12.29,39c-4.1,13.49 -13.18,20.11 -26.25,20c-5.69,-0.07 -9.84,-3.64 -16.59,-5.8c0,6.74 -0.18,12.8 0,18.85c0.28,7.35 -5,5.71 -9.11,5.87c-4.11,0.16 -7.93,0.19 -7.85,-6.15c0.28,-22.62 0.1,-45.25 0.1,-67.87l-0.002,-0.362c-0.024,-2.735 -0.226,-5.793 3.422,-6.358c5.65,-0.88 11.26,-1 15,4.58zm-107.48,53.31c-3.05,-10.63 -0.76,-21.5 -1.37,-32.25c-0.71,-12.64 -4.92,-15.72 -17.46,-12c-0.92,-0.5 -1.75,-0.84 -1.37,0.82c-6,10.83 -3.21,22.64 -3.59,34.05c-0.4,12.6 -3.59,14.6 -15.84,9.24c2.22,-3 0.15,-6.62 1.36,-9.68c0,-1.35 0.22,6.5 -1.35,9.69c-2.42,-18.44 -0.47,-37 -1.05,-55.44c-0.17,-5.34 0.51,-10.76 -0.15,-16c-1.08,-8.59 3.18,-10 10.38,-9.57c4.76,0.29 7,1.8 6.6,6.72a52.2,52.2 0 0 0 0,8.48c0.31,4 -2,9.34 1.1,11.64c3.1,2.3 6.08,-3 9.48,-4.15c14.17,-4.95 27.44,2.88 28.53,17.73c0.91,12.21 0.7,24.52 0.47,36.78c-0.13,6.81 -5.52,8 -15.74,4c2.68,-10.39 0,-21.06 1.34,-31.52c-1.08,10.41 1.12,21.06 -1.34,31.46z" fill="#B58F16"/>
    <path d="m361.98,30.44c3.42,3.32 4.29,7.63 4.36,12.08c0.21,12.9 0.29,25.8 0.33,38.69c0,4.23 -8.38,7.37 -13.85,3.63c-4.25,-2.91 -6.61,-1.34 -9.91,0.1c-7.52,3.29 -15.15,3.75 -22.83,0.58c-7.68,-3.17 -10.69,-9.12 -10.48,-17.2c0.21,-8.08 4.52,-13.09 11.68,-15.3c5.65,-1.74 11.7,-2.27 17.59,-3.19c4.4,-0.68 9.11,-1 10.48,-6.29a5.68,5.68 0 0 0 -3.26,-6.29c-4.72,-2.24 -11.27,-3.37 -14,0.78c-5.18,7.79 -11.6,7 -18.78,5.8a5.53,5.53 0 0 1 -0.19,-6.15c8,-14.25 37.2,-18.57 48.86,-7.24zm-16.6,27.79c-9.69,0.07 -19,4.71 -18.94,10.2c0.07,6.32 4.55,7.42 7.93,7.58c9.35,0.06 14.99,-5.08 15.32,-12.44c0.14,-3.02 0.03,-5.34 -4.31,-5.34z" fill="#010101"/>
    <path d="m126.76,27.7c10,5.47 14.18,14.58 15.16,25.56c0.43,4.77 -1.12,6.87 -6.26,6.72c-10.07,-0.29 -20.15,0.11 -30.23,-0.14c-8.18,-0.2 -7.33,3.73 -4.29,8.68c4,6.51 13.47,8.82 19.78,3.3c6.01,-5.25 12.13,-5.53 19.63,-4.73c-3.43,17.12 -24.65,25.17 -41.34,17.69c-15.13,-6.79 -21.93,-27.13 -14.28,-43.66c7,-15.2 26.8,-21.63 41.83,-13.42zm-14.18,9.24c-6.59,-0.14 -13.33,3.37 -13,9.37c0.38,7.09 8.19,1.07 12.25,3.62c3.77,-2.72 11.27,4 11.9,-3.99c0.45,-5.58 -5.26,-8.88 -11.15,-9z" fill="#020202"/>
    <path d="m146.72,55.93c0,-7.23 -0.19,-14.47 0.09,-21.69c0.11,-2.85 -2,-7.5 1.94,-8.19c4.27,-0.76 10.34,-2.79 13.18,1.52c2.73,4.15 4,2 6.36,0.66c17.78,-10 33.25,-2.21 34.61,17.84c0.76,11.27 0.06,22.63 0.42,33.93c0.21,6.65 -4.13,5.86 -8.18,5.71c-4.05,-0.15 -9.31,1.73 -9.12,-5.73c0.23,-9.74 0.13,-19.5 0,-29.24c-0.1,-6.85 -2,-12.84 -10.32,-12.92c-8.32,-0.08 -11.76,5 -12,12.65c-0.26,9.74 -0.5,19.5 -0.2,29.23c0.26,8.28 -5.58,5.5 -9.74,6.06c-4.82,0.64 -7.58,-0.32 -7.19,-6.26c0.49,-7.88 0.15,-15.76 0.15,-23.57z" fill="#010101"/>
    <path d="m562.47,24.31c18.89,-0.04 30.88,12.11 30.94,31.35c0.06,19.18 -12,31.69 -30.7,31.8c-19,0.11 -32,-13 -31.71,-31.95c0.29,-18.95 12.58,-31.16 31.47,-31.2zm1.35,13.19c-5.45,-0.83 -10.53,1.2 -12.94,5.82c-4.25,8.17 -4.55,17.22 0.09,25.29c3.81,6.64 10.79,6.58 17.6,5.21a3.07,3.07 0 0 0 3.16,-2c4.16,-4.69 3.86,-10.9 5.58,-16.41a2.76,2.76 0 0 0 -0.25,-2.24c-0.71,-2.39 -1.4,-4.79 -2.12,-7.17c-1.65,-5.5 -5.97,-7.71 -11.12,-8.5z" fill="#B58F16"/>
    <path d="m264.3,43.07c0.95,2.09 0.3,4.4 0.78,6.51c1.73,7.58 -2.19,9.13 -8.75,9.44c-10.53,0.51 -21.19,-1.94 -31.69,0.91c-0.63,6.39 2,11.36 7.8,13.61a15.51,15.51 0 0 0 16.71,-3.16c0.47,-0.42 0.83,-1 1.27,-1.39a11.2,11.2 0 0 1 13.83,-1.28c3,2.21 -1.22,7.09 -3.79,10.14c-8.41,10 -23.27,12.68 -36.29,6.71c-11.93,-5.48 -18.9,-19.71 -16.63,-34c2.22,-13.93 13,-24.46 26,-26.17c13.29,-1.73 28,5.31 30.76,18.68zm-21,-4.83c-2.48,-1.54 -5.39,-1.48 -8.19,-0.93c-5.32,1.06 -10.36,4.27 -10.1,9.39c0.31,6.12 6.49,1.27 9.71,2.76a5,5 0 0 0 1.85,0l0,-0.05a23.46,23.46 0 0 0 4.67,0c2.81,-0.59 7.15,2.16 8.21,-1.69c1.23,-4.48 -2.64,-7.32 -6.15,-9.48z" fill="#020202"/>
    <path d="m756.14,54.57c0,-6.61 -0.13,-13.23 0.06,-19.84c0.09,-3 -1.51,-7.11 2.12,-8.5c4,-1.52 9.33,-2.63 12.43,0.77c3.1,3.4 4.78,2.26 7.79,0.69c17.48,-9.12 31.93,-1.79 33.51,17.51c1,11.58 0.31,23.29 0.47,34.93c0.09,6.54 -4.62,5.54 -8.59,5.56c-3.97,0.02 -8.56,1 -8.39,-5.65c0.23,-9.13 0.18,-18.27 0,-27.41c-0.13,-7.22 -1,-14.4 -10.53,-14.82c-7.58,-0.33 -11.64,4.62 -12,14.86c-0.32,8.8 -0.32,17.64 0,26.45c0.27,6.76 -3.88,6.64 -8.6,6.65c-4.72,0.01 -8.78,0.25 -8.38,-6.64c0.48,-8.2 0.12,-16.37 0.11,-24.56z" fill="#B58F16"/>
    <path d="m391.13,44.49c0,11.63 -0.36,23.28 0.13,34.89c0.31,7.15 -4,6.36 -8.46,6.36c-4.46,0 -8.72,0.75 -8.63,-6.32c0.32,-23.26 0.44,-46.53 0,-69.79c-0.14,-7.65 4.21,-6.66 9,-6.84c5,-0.18 8.34,0.17 8.06,6.81c-0.51,11.61 -0.11,23.26 -0.1,34.89z" fill="#040404"/>
    <path d="m313.12,37.68c0.06,2.047 0.113,4.097 0.16,6.15c-6.54,-7.17 -17.31,-4.53 -22.79,5.58c-2,9 -0.85,18.07 -0.72,27.08c0.1,7.19 -2.1,9.9 -9.63,10.1c-7.76,0.2 -7.65,-3.79 -7.57,-9.28c0.2,-14.41 0,-28.83 0.15,-43.25c0,-2.77 -1.85,-7.37 2.66,-7.74c4.07,-0.33 9.47,-3.33 12.39,2.74c1,2 2.22,3 4.21,1.11a62.9,62.9 0 0 1 7,-4.29c8.6,-3.9 11.3,-2.23 12,7.12c0.17,1.83 -0.12,3.82 2.14,4.68z" fill="#090909"/>
    <path d="m731.32,55.11c0,-7.86 0.23,-15.73 -0.07,-23.57c-0.25,-6.24 3.57,-6.24 8,-6.16c4.43,0.08 9.1,-0.78 9,6.19c-0.16,16 -0.16,32.03 0,48.09c0.08,7.15 -4.83,5.91 -9.09,6.07c-4.26,0.16 -8.24,0.17 -8,-6.1c0.3,-8.16 0.07,-16.35 0.07,-24.52l0.09,0z" fill="#B69019"/>
    <path d="m291.98,30.17c-0.85,3.24 -3.63,5.56 -4.69,1.41c-2,-7.82 -7.43,-4.52 -11.23,-4.31c-4.6,0.27 -2.78,4.88 -2.82,7.63c-0.18,14.13 0.13,28.28 -0.19,42.42c-0.13,5.6 1.41,7.67 7.36,7.67c6.13,0 7.89,-1.83 8.11,-8c0.32,-9.18 -2.81,-18.7 2,-27.56c-0.07,10 -0.5,20.11 -0.12,30.14c0.33,8.71 -5.42,7.25 -10.71,7.59c-5.73,0.36 -8.74,-1.06 -8.58,-7.69c0.37,-14.77 0,-29.56 0.22,-44.33c0.07,-3.64 -2.35,-9.54 3.51,-10.14c4.85,-0.5 11.61,-3.8 14.71,4c0.22,0.61 1.58,0.79 2.43,1.17z" fill="#010101"/>
    <path d="m739.9,17c-5.91,1.13 -8.8,0 -8.88,-7c-0.08,-7 3.21,-7.58 8.6,-7.56c5.39,0.02 8.81,0.71 8.88,7.61c0.07,7.18 -3.38,7.88 -8.6,6.95z" fill="#B79322"/>
    <path d="m224.64,59.93c1.17,-3.75 4.35,-2.82 7,-2.87c5.88,-0.11 11.77,0 17.65,0c14.41,0 14.41,0 15.07,-13.94c2.07,1.88 1.75,4.55 2.28,6.94c1.51,6.83 0,10.57 -8.29,10.1c-11.21,-0.68 -22.47,-0.23 -33.71,-0.23z" fill="#090909"/>
    <path d="m875.35,91.16c-4.46,-4.34 0.33,-8.74 0.1,-13.19c-0.68,-13.42 -0.3,-26.9 -0.2,-40.35c0,-3 -1,-6.33 1.66,-8.89c0.14,17.84 0.37,35.67 0.32,53.51c-0.01,2.97 -1.22,5.95 -1.88,8.92z" fill="#AF8B00"/>
    <path d="m444.08,3.82l-29.08,0c9.72,-3.89 19.38,-4.43 29.08,0z" fill="#B58E15"/>
    <path d="m619.8,30.73l-2.34,-0.41c9.33,-7.82 19.76,-8.43 28.92,-1.68c-8.32,-0.48 -17,-5.48 -24.72,1.81c-0.49,0.98 -1.11,1.07 -1.86,0.28z" fill="#B58F15"/>
    <path d="m876.81,26.93c-5.24,0.6 -10.93,-1.64 -15.2,4.2c-1.8,2.47 -4.33,0 -5.13,-2.79c6.7,-1.56 13.13,-7.08 20.33,-1.41z" fill="#B58E15"/>
    <path d="m854.04,96.6c0.41,0.69 4.4,0.26 1.13,1.87a10.78,10.78 0 0 1 -12.11,-1.78l10.98,-0.09z" fill="#B18B00"/>
    <path d="m489.72,40.24l-2.93,-1.4c0.52,-0.65 0.92,-1.69 1.57,-1.88c2,-0.57 2.43,0.94 2.73,2.46a1.26,1.26 0 0 1 -1.37,0.82z" fill="#B18F02"/>
    <path d="m452.01,7.56c-3.37,0.18 -6.21,-0.76 -8.06,-3.81c3.35,-0.13 6.21,0.77 8.06,3.81z" fill="#B58F16"/>
    <path d="m415.46,26.76c-2.58,-2.26 -2.3,-4.88 -0.53,-9.29l0.62,5.73l-0.09,3.56z" fill="#B08E00"/>
    <path d="m723.86,52.12c-0.15,2.92 -0.31,5.85 -0.54,10.17c-2.06,-4.64 -1.21,-7.8 0.54,-10.17z" fill="#B08B00"/>
    <path d="m621.97,38.69l-1.71,1.58c-4.13,-3 -2,-6.28 -0.46,-9.55c0.61,-0.11 1.24,-0.2 1.86,-0.27c-0.18,2.76 -1.71,5.57 0.31,8.24z" fill="#B18E08"/>
    <path d="m650.47,58.93l0,-6.13c2.53,2.01 0.8,4.04 0,6.13z" fill="#AF9100"/>
    <path d="m612.89,91.3c1.26,1.9 1.54,3.7 0.45,5.56c-2.23,-1.81 -0.39,-3.84 -0.45,-5.56z" fill="#AF8A00"/>
    <path d="m509.91,83.71l0,-33.68c1.1,11.25 4.32,22.55 0,33.68z" fill="#B28C00"/>
    <path d="m470.29,83.58l0,-11c1.52,3.73 3.39,7.51 0,11z" fill="#B58F16"/>
    <path d="m568.57,73.8l3.16,-2c1.19,0.55 4,0.23 2.8,2.3c-1.54,2.65 -4.09,2.37 -5.96,-0.3z" fill="#B09110"/>
    <path d="m577.31,55.41c-0.08,-0.75 -0.17,-1.5 -0.25,-2.26c1.56,-0.77 3,-1.17 2.95,1.37c0,1 0.77,2.67 -1,2.87c-0.51,0.06 -1.14,-1.28 -1.7,-1.98z" fill="#B18B00"/>
    <path d="m757.97,81.01l0,-49.83l1.16,0l0,50.2l-1.16,-0.37z" fill="#B58D00"/>
    <path d="m781.51,36.46c2.77,-3.17 4.8,-1.49 7.65,-2.33c-2.74,3.07 -4.77,1.37 -7.65,2.33z" fill="#B09000"/>
    <path d="m733.72,54.64l0,-10.71a11.52,11.52 0 0 1 0,10.71z" fill="#B38C00"/>
   </g>
  </svg>