<svg  id="fndm-cxvs0cspub" viewBox="74.99999237060547 64 449.99993896484375 122.99996948242188" xmlns="http://www.w3.org/2000/svg">
   <g xmlns="http://www.w3.org/2000/svg" fill-rule="evenodd" fill="none">
    <path d="m495.47,123.365c0,-2.963 0.08,-4.806 0.32,-5.606c0.239,-0.801 0.638,-1.122 1.276,-1.122c0.718,0 1.277,0.881 1.756,2.643c0.399,1.442 0.878,2.643 1.197,3.524c1.117,2.403 2.394,4.245 3.831,5.447c1.437,1.201 3.113,1.762 5.028,1.762c2.554,0 4.63,-0.72 6.066,-2.163c1.436,-1.441 2.235,-3.444 2.235,-5.846c0,-2.003 -0.639,-3.685 -1.836,-5.046c-1.197,-1.362 -4.07,-3.124 -8.54,-5.367c-4.47,-2.162 -7.422,-4.165 -8.859,-6.007c-1.437,-1.842 -2.155,-4.085 -2.155,-6.888c0,-4.085 1.357,-7.288 4.15,-9.771c2.794,-2.403 6.465,-3.685 11.174,-3.685c2.314,0 4.47,0.24 6.385,0.641c1.915,0.4 3.272,0.961 4.07,1.522c0.32,0.24 0.559,0.56 0.718,1.041c0.16,0.48 0.24,1.201 0.24,2.163c0,2.563 -0.08,4.325 -0.32,5.126c-0.239,0.8 -0.638,1.281 -1.197,1.281c-0.638,0 -1.277,-0.72 -1.755,-2.162a23.401,23.401 0 0 0 -1.357,-2.804c-0.958,-1.441 -1.995,-2.483 -3.113,-3.203c-1.197,-0.721 -2.474,-1.042 -3.91,-1.042c-2.076,0 -3.752,0.561 -5.108,1.682c-1.357,1.122 -1.996,2.483 -1.996,4.245c0,2.563 2.953,5.206 8.78,8.01c0.957,0.48 1.675,0.8 2.154,1.04c3.512,1.683 6.146,3.685 7.822,5.928c1.676,2.243 2.474,4.966 2.474,8.01c0,4.965 -1.596,8.81 -4.709,11.693c-3.112,2.883 -7.422,4.325 -12.77,4.325c-2.234,0 -4.39,-0.24 -6.464,-0.8c-2.075,-0.561 -3.672,-1.202 -4.789,-2.003c-0.24,-0.24 -0.4,-0.56 -0.559,-0.961c-0.08,-0.4 -0.16,-1.202 -0.16,-2.243l0,-3.364l-0.08,0l0.001,0zm-35.277,-16.58c0,6.008 1.357,10.893 4.15,14.498c2.794,3.684 6.465,5.526 11.094,5.526c4.15,0 7.981,-1.682 11.493,-5.046c0.479,-0.48 0.798,-0.8 0.958,-0.8c0.319,0 0.558,0.08 0.638,0.24c0.16,0.16 0.24,0.48 0.24,0.88c0,0.561 -0.24,1.202 -0.719,2.003c-0.478,0.8 -1.197,1.602 -2.075,2.483c-1.995,2.002 -4.31,3.524 -7.023,4.645a23.88,23.88 0 0 1 -8.62,1.602c-5.986,0 -10.774,-2.162 -14.366,-6.487c-3.591,-4.325 -5.427,-10.092 -5.427,-17.3c0,-7.13 1.916,-12.816 5.826,-17.221c3.911,-4.325 8.94,-6.568 15.244,-6.568c5.108,0 9.258,1.442 12.53,4.405c3.273,2.964 4.949,6.568 4.949,10.893c0,0.881 -0.24,1.442 -0.798,1.762c-0.479,0.32 -1.437,0.48 -2.873,0.48l-24.024,0c-0.478,0 -0.877,0.081 -0.957,0.321c-0.16,0.16 -0.24,0.641 -0.24,1.282l0,2.403l0,-0.001zm9.099,-7.048c3.75,0 6.305,-0.4 7.821,-1.201c1.517,-0.801 2.315,-2.163 2.315,-4.005c0,-1.922 -0.718,-3.524 -2.235,-4.886c-1.516,-1.361 -3.352,-2.082 -5.587,-2.082c-2.474,0 -4.629,0.881 -6.544,2.643c-1.916,1.762 -3.193,4.085 -3.751,6.808l-0.32,1.522l0,0.32c0,0.24 0.08,0.48 0.32,0.561c0.24,0.16 0.558,0.16 0.957,0.16l7.024,0l0,0.16zm-56.586,31.077l0,14.177c0,1.441 0.16,2.402 0.479,2.963c0.319,0.56 1.037,0.961 2.154,1.362c0.56,0.16 1.437,0.4 2.475,0.48l0.16,0c0.957,0.08 1.595,0.24 1.835,0.48c0.24,0.241 0.399,0.642 0.399,1.202c0,0.48 -0.16,0.801 -0.559,1.122c-0.399,0.32 -0.878,0.4 -1.596,0.4c-0.878,0 -2.394,-0.08 -4.55,-0.4c-2.154,-0.24 -3.91,-0.4 -5.267,-0.4c-1.756,0 -3.591,0.08 -5.666,0.4c-2.075,0.24 -3.193,0.4 -3.432,0.4c-0.559,0 -1.038,-0.16 -1.357,-0.4c-0.32,-0.24 -0.479,-0.641 -0.479,-1.122c0,-0.56 0.08,-0.96 0.32,-1.201c0.239,-0.24 0.718,-0.4 1.596,-0.48c0.558,-0.08 1.037,-0.161 1.356,-0.241c0.24,-0.08 0.559,-0.16 0.878,-0.24c0.878,-0.4 1.517,-0.801 1.836,-1.362c0.32,-0.56 0.479,-1.522 0.479,-2.883l0,-45.173c0,-1.362 -0.08,-2.403 -0.4,-3.044c-0.239,-0.64 -0.718,-1.121 -1.356,-1.442c-0.32,-0.16 -0.718,-0.24 -1.437,-0.32c-1.037,-0.08 -1.596,-0.56 -1.596,-1.282c0,-0.4 0.16,-0.8 0.4,-1.04c0.239,-0.321 0.877,-0.642 1.915,-1.042c0.479,-0.16 0.878,-0.32 1.356,-0.56c0.4,-0.16 0.878,-0.481 1.277,-0.722a31.835,31.835 0 0 0 4.869,-3.444c1.596,-1.361 2.554,-2.002 2.793,-2.002c0.4,0 0.639,0.16 0.798,0.48c0.16,0.32 0.24,0.882 0.24,1.602l0,4.886c0,0.24 0.08,0.4 0.08,0.56c0.08,0.161 0.16,0.161 0.319,0.161c0.08,0 0.24,-0.08 0.399,-0.16c0.16,-0.08 0.24,-0.24 0.399,-0.4l1.117,-1.202c1.836,-2.002 3.751,-3.444 5.747,-4.325c1.995,-0.881 4.07,-1.362 6.385,-1.362c5.108,0 9.338,2.163 12.69,6.408c3.352,4.245 5.028,9.611 5.028,16.099c0,7.288 -2.075,13.295 -6.226,17.94c-4.15,4.646 -9.497,7.05 -15.962,7.05c-1.676,0 -3.272,-0.161 -4.788,-0.561c-1.517,-0.401 -3.113,-0.962 -4.63,-1.763l-0.478,0.4l0,0.001zm0,-28.914l0,18.502c0,3.043 0.718,5.366 2.234,6.968c1.517,1.602 3.672,2.403 6.545,2.403c4.23,0 7.742,-1.762 10.375,-5.287c2.634,-3.524 3.99,-8.09 3.99,-13.776c0,-5.606 -1.276,-10.172 -3.91,-13.536c-2.634,-3.364 -6.145,-5.046 -10.455,-5.046c-2.953,0 -5.188,0.801 -6.624,2.403c-1.437,1.602 -2.155,4.005 -2.155,7.369zm-24.901,17.86c0,2.404 0.239,4.166 0.638,5.127c0.4,0.961 1.117,1.442 2.075,1.442c0.559,0 1.357,-0.4 2.235,-1.122c0.958,-0.72 1.596,-1.04 1.995,-1.04c0.4,0 0.718,0.16 0.878,0.4c0.24,0.24 0.32,0.64 0.32,1.04c0,1.122 -1.118,2.644 -3.273,4.406c-2.155,1.762 -4.23,2.643 -6.145,2.643c-1.597,0 -3.033,-0.64 -4.31,-1.762c-1.277,-1.201 -2.315,-2.883 -3.113,-5.126l-0.638,0l-2.315,1.762c-2.713,2.082 -4.789,3.444 -6.305,4.165a10.457,10.457 0 0 1 -4.55,1.041c-2.314,0 -4.23,-0.72 -5.586,-2.162c-1.357,-1.442 -2.075,-3.364 -2.075,-5.847c0,-3.605 1.197,-6.728 3.671,-9.371c2.474,-2.643 6.944,-5.447 13.488,-8.33l2.794,-1.282c0.479,-0.24 0.798,-0.48 0.957,-0.72c0.16,-0.32 0.24,-0.801 0.24,-1.682l0,-7.049c0,-3.123 -0.32,-5.206 -0.958,-6.327c-0.638,-1.121 -1.756,-1.682 -3.432,-1.682c-1.596,0 -2.953,0.48 -4.07,1.442c-1.117,0.96 -2.315,2.643 -3.512,5.206c-1.197,2.483 -2.394,4.165 -3.432,4.966c-1.037,0.8 -2.394,1.12 -3.99,1.12c-0.559,0 -1.118,-0.16 -1.517,-0.56c-0.399,-0.4 -0.558,-0.8 -0.558,-1.281c0,-3.444 1.995,-6.648 5.906,-9.532c3.91,-2.963 8.54,-4.405 13.887,-4.405c3.99,0 6.784,0.801 8.22,2.323c1.517,1.522 2.235,4.565 2.235,9.13l0,23.068l0.24,0l0,-0.001zm-8.78,-2.162l0,-7.849c0,-0.4 -0.08,-0.64 -0.16,-0.88c-0.08,-0.161 -0.239,-0.321 -0.398,-0.321c-0.08,0 -0.24,0 -0.48,0.08c-0.239,0.08 -0.398,0.16 -0.638,0.24l-3.671,1.602c-2.075,0.961 -3.671,2.243 -4.709,3.844c-1.117,1.602 -1.676,3.525 -1.676,5.687c0,2.003 0.32,3.604 1.038,4.646c0.718,1.04 1.676,1.602 3.032,1.602c1.996,0 3.752,-0.882 5.268,-2.644c1.676,-1.601 2.394,-3.684 2.394,-6.007zm-42.06,-26.59c0,0.24 0,0.48 0.08,0.64c0.08,0.16 0.16,0.24 0.24,0.24c0.079,0 0.238,-0.08 0.398,-0.16c0.16,-0.08 0.4,-0.24 0.639,-0.56l2.155,-2.163c1.197,-1.282 2.394,-2.243 3.591,-2.884a7.922,7.922 0 0 1 3.751,-0.96c1.995,0 3.751,0.64 5.108,2.002c1.357,1.361 2.075,2.963 2.075,4.885c0,1.362 -0.479,2.563 -1.516,3.524c-0.958,0.962 -2.235,1.442 -3.672,1.442c-1.596,0 -3.272,-0.8 -5.028,-2.403c-1.756,-1.602 -2.953,-2.403 -3.511,-2.403c-1.357,0 -2.315,0.801 -2.953,2.323c-0.639,1.522 -1.038,3.925 -1.038,7.049l0,21.545c0,1.281 0.16,2.162 0.559,2.723c0.399,0.56 1.117,1.041 2.234,1.442c0.719,0.24 1.676,0.48 2.794,0.56c0.08,0 0.16,0.08 0.16,0.08c0.08,0 0.16,0 0.239,0.08c1.277,0.24 1.915,0.802 1.995,1.602c0,0.481 -0.24,0.801 -0.638,1.122c-0.4,0.32 -0.958,0.4 -1.676,0.4c-1.038,0 -2.634,-0.08 -4.949,-0.32c-2.234,-0.24 -3.99,-0.32 -5.267,-0.32c-1.437,0 -3.193,0.08 -5.188,0.32c-1.995,0.24 -3.272,0.32 -3.751,0.32c-0.559,0 -1.038,-0.16 -1.357,-0.4c-0.32,-0.24 -0.479,-0.721 -0.479,-1.282c0,-0.8 0.559,-1.281 1.597,-1.441l0.08,0s0.08,-0.08 0.159,-0.08c0.878,-0.16 1.596,-0.32 2.235,-0.561c0.798,-0.4 1.356,-0.801 1.676,-1.282c0.319,-0.48 0.479,-1.441 0.479,-2.883l0,-23.468c0,-1.521 -0.08,-2.563 -0.32,-3.123c-0.24,-0.48 -0.638,-0.881 -1.277,-1.202c-0.24,-0.16 -0.718,-0.24 -1.356,-0.32c-1.038,-0.08 -1.597,-0.56 -1.597,-1.282c0,-0.56 0.639,-1.201 1.996,-1.922l0.08,-0.08c0.718,-0.32 1.276,-0.64 1.755,-0.881c0.48,-0.32 0.958,-0.56 1.357,-0.881c1.437,-0.801 2.873,-1.842 4.31,-3.124c1.436,-1.281 2.314,-1.922 2.554,-1.922c0.399,0 0.718,0.16 0.878,0.48c0.16,0.32 0.24,0.882 0.24,1.602l0,3.925l0.159,0l0,0.001zm-24.422,28.753c0,2.403 0.239,4.165 0.638,5.126c0.4,0.961 1.117,1.442 2.075,1.442c0.559,0 1.357,-0.4 2.235,-1.122c0.958,-0.72 1.596,-1.04 1.995,-1.04c0.4,0 0.718,0.16 0.878,0.4c0.24,0.24 0.32,0.64 0.32,1.04c0,1.122 -1.118,2.644 -3.273,4.406c-2.155,1.762 -4.23,2.643 -6.145,2.643c-1.597,0 -3.033,-0.64 -4.31,-1.762c-1.277,-1.201 -2.315,-2.883 -3.113,-5.126l-0.638,0l-2.315,1.762c-2.713,2.082 -4.789,3.444 -6.305,4.165a10.457,10.457 0 0 1 -4.55,1.041c-2.314,0 -4.23,-0.72 -5.586,-2.162c-1.357,-1.442 -2.075,-3.364 -2.075,-5.847c0,-3.605 1.197,-6.728 3.671,-9.371c2.474,-2.643 6.944,-5.447 13.488,-8.33l2.794,-1.282c0.479,-0.24 0.798,-0.48 0.957,-0.72c0.16,-0.32 0.24,-0.801 0.24,-1.682l0,-7.049c0,-3.123 -0.32,-5.206 -0.958,-6.327c-0.638,-1.121 -1.756,-1.682 -3.432,-1.682c-1.596,0 -2.953,0.48 -4.07,1.442c-1.117,0.96 -2.315,2.643 -3.512,5.206c-1.197,2.483 -2.394,4.165 -3.432,4.966c-1.037,0.8 -2.394,1.12 -3.99,1.12c-0.559,0 -1.118,-0.16 -1.517,-0.56c-0.399,-0.4 -0.558,-0.8 -0.558,-1.281c0,-3.444 1.995,-6.648 5.906,-9.532c3.91,-2.963 8.54,-4.405 13.887,-4.405c3.99,0 6.784,0.801 8.22,2.323c1.517,1.522 2.235,4.565 2.235,9.13l0,23.068l0.24,0zm-8.78,-2.163l0,-7.849c0,-0.4 -0.08,-0.64 -0.16,-0.88c-0.08,-0.161 -0.239,-0.321 -0.398,-0.321c-0.08,0 -0.24,0 -0.48,0.08c-0.239,0.08 -0.398,0.16 -0.638,0.24l-3.671,1.602c-2.075,0.961 -3.671,2.243 -4.709,3.844c-1.117,1.602 -1.676,3.525 -1.676,5.687c0,2.003 0.32,3.604 1.038,4.646c0.718,1.04 1.676,1.602 3.032,1.602c1.996,0 3.752,-0.882 5.268,-2.644c1.596,-1.601 2.394,-3.684 2.394,-6.007zm-42.06,-26.59c0,0.24 0,0.48 0.08,0.64c0.08,0.16 0.16,0.24 0.24,0.24c0.079,0 0.239,-0.08 0.398,-0.16c0.16,-0.08 0.4,-0.24 0.639,-0.56l2.155,-2.163c1.197,-1.282 2.394,-2.243 3.591,-2.884a7.922,7.922 0 0 1 3.751,-0.96c1.995,0 3.751,0.64 5.108,2.002c1.357,1.361 2.075,2.963 2.075,4.885c0,1.362 -0.479,2.563 -1.516,3.524c-0.958,0.962 -2.235,1.442 -3.672,1.442c-1.596,0 -3.272,-0.8 -5.028,-2.403c-1.755,-1.602 -2.953,-2.403 -3.511,-2.403c-1.357,0 -2.315,0.801 -2.953,2.323c-0.639,1.522 -1.038,3.925 -1.038,7.049l0,21.545c0,1.281 0.16,2.162 0.559,2.723c0.399,0.56 1.117,1.041 2.234,1.442c0.719,0.24 1.677,0.48 2.794,0.56c0.08,0 0.16,0.08 0.16,0.08c0.08,0 0.16,0 0.239,0.08c1.277,0.24 1.915,0.802 1.995,1.602c0,0.481 -0.24,0.801 -0.638,1.122c-0.4,0.32 -0.958,0.4 -1.676,0.4c-1.038,0 -2.634,-0.08 -4.949,-0.32c-2.234,-0.24 -3.99,-0.32 -5.267,-0.32c-1.437,0 -3.193,0.08 -5.188,0.32c-1.995,0.24 -3.272,0.32 -3.751,0.32c-0.559,0 -1.038,-0.16 -1.357,-0.4c-0.319,-0.24 -0.479,-0.721 -0.479,-1.282c0,-0.8 0.559,-1.281 1.597,-1.441l0.08,0s0.08,-0.08 0.159,-0.08c0.878,-0.16 1.596,-0.32 2.235,-0.561c0.798,-0.4 1.357,-0.801 1.676,-1.282c0.319,-0.48 0.479,-1.441 0.479,-2.883l0,-23.468c0,-1.521 -0.08,-2.563 -0.32,-3.123c-0.24,-0.48 -0.638,-0.881 -1.277,-1.202c-0.239,-0.16 -0.718,-0.24 -1.356,-0.32c-1.038,-0.08 -1.597,-0.56 -1.597,-1.282c0,-0.56 0.639,-1.201 1.996,-1.922l0.08,-0.08c0.718,-0.32 1.276,-0.64 1.755,-0.881c0.48,-0.32 0.958,-0.56 1.357,-0.881c1.437,-0.801 2.873,-1.842 4.31,-3.124c1.437,-1.281 2.314,-1.922 2.554,-1.922c0.399,0 0.718,0.16 0.878,0.48c0.16,0.32 0.24,0.882 0.24,1.602l0,3.925l0.159,0l0,0.001zm-24.503,28.752c0,2.403 0.24,4.165 0.638,5.126c0.4,0.961 1.118,1.442 2.075,1.442c0.56,0 1.357,-0.4 2.235,-1.122c0.958,-0.72 1.596,-1.04 1.995,-1.04c0.4,0 0.719,0.16 0.878,0.4c0.24,0.24 0.32,0.64 0.32,1.04c0,1.122 -1.118,2.644 -3.273,4.406c-2.155,1.762 -4.23,2.643 -6.145,2.643c-1.596,0 -3.033,-0.64 -4.31,-1.762c-1.277,-1.201 -2.314,-2.883 -3.113,-5.126l-0.638,0l-2.315,1.762c-2.713,2.082 -4.788,3.444 -6.305,4.165a10.457,10.457 0 0 1 -4.549,1.041c-2.314,0 -4.23,-0.72 -5.587,-2.162c-1.357,-1.442 -2.075,-3.364 -2.075,-5.847c0,-3.605 1.197,-6.728 3.671,-9.371c2.475,-2.643 6.944,-5.447 13.489,-8.33l2.793,-1.282c0.479,-0.24 0.798,-0.48 0.958,-0.72c0.16,-0.32 0.24,-0.801 0.24,-1.682l0,-7.049c0,-3.123 -0.32,-5.206 -0.959,-6.327c-0.638,-1.121 -1.755,-1.682 -3.431,-1.682c-1.597,0 -2.953,0.48 -4.07,1.442c-1.118,0.96 -2.315,2.643 -3.513,5.206c-1.197,2.483 -2.394,4.165 -3.431,4.966c-1.038,0.8 -2.395,1.12 -3.991,1.12c-0.559,0 -1.117,-0.16 -1.516,-0.56c-0.4,-0.4 -0.56,-0.8 -0.56,-1.281c0,-3.444 1.996,-6.648 5.907,-9.532c3.91,-2.963 8.54,-4.405 13.887,-4.405c3.99,0 6.784,0.801 8.22,2.323c1.517,1.522 2.235,4.565 2.235,9.13l0,23.068l0.24,0zm-8.78,-2.163l0,-7.849c0,-0.4 -0.08,-0.64 -0.159,-0.88c-0.08,-0.161 -0.24,-0.321 -0.4,-0.321c-0.079,0 -0.239,0 -0.478,0.08c-0.24,0.08 -0.399,0.16 -0.638,0.24l-3.672,1.602c-2.075,0.961 -3.671,2.243 -4.709,3.844c-1.117,1.602 -1.676,3.525 -1.676,5.687c0,2.003 0.32,3.604 1.038,4.646c0.718,1.04 1.676,1.602 3.033,1.602c1.995,0 3.75,-0.882 5.267,-2.644c1.676,-1.601 2.395,-3.684 2.395,-6.007l-0.001,0zm-69.276,-23.147c0,-1.121 -0.16,-2.082 -0.478,-2.723c-0.32,-0.64 -0.878,-1.121 -1.597,-1.522c-0.478,-0.24 -1.197,-0.4 -2.155,-0.56l-0.16,0c-0.717,-0.08 -1.196,-0.24 -1.436,-0.401c-0.24,-0.24 -0.319,-0.56 -0.319,-1.041c0,-0.48 0.16,-0.881 0.479,-1.202c0.32,-0.32 0.798,-0.4 1.357,-0.4c0.319,0 1.356,0.16 3.112,0.4c1.756,0.24 3.273,0.4 4.71,0.4c0.638,0 1.436,-0.08 2.314,-0.16c0.878,-0.08 1.436,-0.16 1.676,-0.16c0.638,0 1.117,0.08 1.357,0.32c0.239,0.241 0.319,0.642 0.319,1.362l0,26.432c0,3.604 0.798,6.407 2.474,8.41c1.676,2.002 3.91,3.043 6.784,3.043c3.033,0 5.347,-0.961 7.023,-2.803c1.676,-1.842 2.474,-4.405 2.474,-7.77l0,-21.623c0,-1.201 -0.16,-2.162 -0.478,-2.723c-0.32,-0.56 -0.799,-1.041 -1.597,-1.442a5.943,5.943 0 0 0 -1.995,-0.56c-0.08,0 -0.16,-0.08 -0.16,-0.08c-0.798,-0.08 -1.277,-0.24 -1.516,-0.401c-0.24,-0.24 -0.32,-0.56 -0.32,-1.041c0,-0.48 0.16,-0.881 0.48,-1.202c0.319,-0.32 0.798,-0.48 1.356,-0.48c0.24,0 1.198,0.08 2.874,0.32c1.676,0.24 3.352,0.32 4.868,0.32c0.718,0 1.516,0 2.394,-0.08c0.878,-0.08 1.357,-0.08 1.517,-0.08c0.638,0 1.117,0.08 1.357,0.32c0.239,0.241 0.319,0.641 0.319,1.362l0,33.32c0,1.521 0.08,2.563 0.399,3.123c0.24,0.56 0.718,1.041 1.357,1.362c0.16,0.08 0.399,0.16 0.558,0.24c0.24,0.08 0.48,0.08 0.958,0.08c0.718,0.08 1.197,0.24 1.357,0.4c0.24,0.16 0.32,0.481 0.32,0.802c0,0.8 -1.118,1.601 -3.353,2.322c-0.32,0.08 -0.559,0.16 -0.798,0.24c-1.915,0.641 -3.592,1.202 -5.188,1.603c-1.516,0.4 -2.474,0.64 -2.793,0.64c-0.479,0 -0.798,-0.16 -1.038,-0.48c-0.24,-0.32 -0.399,-0.881 -0.399,-1.602l0,-4.085c0,-0.48 0,-0.8 -0.08,-1.041c-0.08,-0.24 -0.16,-0.4 -0.319,-0.4l-0.24,0.24l-0.478,0.48l-1.197,1.202c-1.437,1.682 -3.193,3.043 -5.188,3.924c-1.995,0.961 -4.07,1.362 -6.305,1.362c-4.39,0 -7.822,-1.362 -10.376,-4.085c-2.554,-2.723 -3.91,-6.327 -3.91,-10.813l0,-23.068l-0.32,0l0,-0.001z" fill-rule="nonzero" fill="#000"/>
    <path d="m93.91,109.06c1.038,-0.399 1.597,-0.638 1.916,-0.797c0.24,-0.159 0.399,-0.318 0.399,-0.477c0,-0.08 -0.16,-0.24 -0.479,-0.399c-0.32,-0.159 -0.878,-0.477 -1.755,-0.875l-2.873,-1.592c-3.67,-1.911 -6.543,-4.459 -8.538,-7.563c-1.995,-3.105 -3.032,-6.528 -3.032,-10.19c0,-6.528 2.953,-12.022 8.777,-16.48c5.825,-4.457 13.246,-6.687 22.183,-6.687c6.782,0 13.325,1.194 19.709,3.662c0.239,0.08 0.478,0.16 0.638,0.239c0.08,0.08 0.32,0.16 0.479,0.318c1.596,0.876 3.51,1.354 5.825,1.354c0.16,0 0.399,0 0.877,-0.08c0.4,0 0.718,-0.08 1.038,-0.08l5.186,-0.318c0.08,0 0.24,0 0.479,-0.08c0.798,-0.08 1.596,-0.08 2.394,-0.08c1.755,0 2.952,0.399 3.59,1.195c0.639,0.796 0.958,2.309 0.958,4.538c0,0.318 -0.24,0.477 -0.639,0.716c-0.398,0.16 -0.957,0.319 -1.675,0.319c-2.075,0 -3.99,0 -5.586,0.08c-1.596,0.079 -2.872,0.159 -3.67,0.238a22.737,22.737 0 0 1 2.234,5.493c0.479,1.831 0.718,3.662 0.718,5.493c0,5.732 -2.154,10.509 -6.543,14.33c-4.388,3.821 -10.373,6.21 -17.953,7.165c-1.357,0.16 -2.633,0.239 -3.75,0.318c-1.118,0.08 -2.235,0.08 -3.352,0.08c-2.074,0.08 -3.67,0.239 -4.787,0.398c-1.117,0.16 -1.995,0.319 -2.713,0.478c-1.676,0.477 -3.112,1.194 -4.23,2.07c-1.116,0.875 -1.675,1.751 -1.675,2.627c0,1.672 0.958,2.866 2.873,3.582c1.915,0.637 6.064,1.035 12.527,1.035l3.511,0c13.246,0 22.422,1.194 27.449,3.503c5.027,2.388 7.58,6.369 7.58,12.021c0,7.324 -4.309,13.693 -13.006,19.186c-8.698,5.493 -19.15,8.2 -31.439,8.2c-9.974,0 -17.953,-1.433 -23.778,-4.22c-5.825,-2.786 -8.777,-6.527 -8.777,-11.145c0,-1.99 0.718,-3.821 2.075,-5.652c1.436,-1.751 3.59,-3.503 6.463,-5.095l6.462,-3.503c0.718,-0.398 1.197,-0.796 1.436,-1.114a1.26,1.26 0 0 0 0.4,-0.956c0,-0.08 -0.08,-0.318 -0.32,-0.637c-0.24,-0.318 -0.479,-0.637 -0.878,-0.955l-2.473,-2.309c-2.953,-2.786 -4.947,-4.936 -6.064,-6.528c-1.118,-1.512 -1.676,-2.786 -1.676,-3.821c0,-0.876 0.399,-1.592 1.117,-2.15c0.718,-0.636 2.394,-1.353 4.947,-2.229l7.42,-2.627l0.001,0.001zm4.629,22.37c-2.394,1.512 -4.23,3.264 -5.506,5.254c-1.277,1.99 -1.835,4.06 -1.835,6.29c0,4.139 1.915,7.562 5.825,10.19c3.83,2.626 8.857,3.98 15.16,3.98c7.5,0 13.565,-1.354 18.273,-3.98c4.708,-2.707 7.022,-6.13 7.022,-10.27c0,-7.325 -12.687,-11.066 -37.982,-11.305c-0.478,-0.16 -0.798,-0.16 -0.957,-0.16l0,0.001zm12.767,-26.272c4.149,0 7.58,-1.671 10.133,-5.174c2.554,-3.423 3.91,-7.882 3.91,-13.454c0,-5.653 -1.276,-10.11 -3.83,-13.534c-2.553,-3.423 -5.984,-5.095 -10.213,-5.095c-4.23,0 -7.66,1.672 -10.294,5.095c-2.633,3.423 -3.91,7.881 -3.91,13.613c0,5.653 1.277,10.11 3.91,13.534c2.634,3.344 6.065,5.015 10.294,5.015z" fill="#C02829"/>
    <path d="m273.237,171.602l2.081,0c0.56,0 0.96,-0.08 1.44,-0.24c0.4,-0.158 0.72,-0.477 1.04,-0.875c0.321,-0.399 0.561,-0.797 0.721,-1.195c0.16,-0.398 0.24,-0.876 0.32,-1.354l0,-0.478c0,-0.398 -0.08,-0.796 -0.16,-1.195c-0.08,-0.398 -0.32,-0.716 -0.56,-1.035a2.5,2.5 0 0 0 -0.88,-0.717c-0.32,-0.159 -0.72,-0.239 -1.2,-0.239l-0.56,0l-2.402,-0.08l0,7.408l0.16,0zm-2.08,-8.283l5.521,0c0.72,0 1.361,0.159 1.921,0.318c0.56,0.16 0.96,0.398 1.36,0.797c0.32,0.318 0.64,0.716 0.8,1.274c0.161,0.478 0.241,1.035 0.241,1.673l0,0.637c0,0.717 -0.08,1.433 -0.32,1.911a4.518,4.518 0 0 1 -0.96,1.434c-0.4,0.398 -0.88,0.637 -1.36,0.956c-0.481,0.239 -0.961,0.477 -1.441,0.557c-0.16,0.08 -0.4,0.08 -0.56,0.08c-0.16,0 -0.4,0.08 -0.56,0.08l-1.842,0c-0.16,0 -0.24,0 -0.4,-0.08c-0.08,0 -0.24,-0.08 -0.32,-0.08l0,8.044l-2.001,0l0,-17.6l-0.08,0l0.001,-0.001zm-11.524,9.239l4.481,0l-2.24,-6.054l-2.241,6.054zm-4.482,8.044l6.882,-17.522l0.48,0l6.723,17.522l-2.561,0l-2.4,-6.85l-5.363,0l-2.24,6.85l-1.761,0l0.24,0zm-9.603,-9.24l0.08,0.08l0.56,0c0.64,0 1.2,-0.08 1.68,-0.159c0.48,-0.08 0.88,-0.239 1.2,-0.478c0.321,-0.239 0.641,-0.478 0.881,-0.717c0.24,-0.238 0.4,-0.477 0.56,-0.796c0.08,-0.16 0.16,-0.398 0.24,-0.557c0.08,-0.16 0.08,-0.399 0.16,-0.558c0,-0.16 0.08,-0.319 0.08,-0.478l0,-0.558c0,-0.08 0,-0.238 -0.08,-0.318c0,-0.16 -0.08,-0.239 -0.08,-0.398c-0.08,-0.16 -0.16,-0.24 -0.16,-0.398c-0.08,-0.24 -0.24,-0.399 -0.4,-0.638c-0.16,-0.239 -0.4,-0.398 -0.64,-0.557a2.93,2.93 0 0 0 -0.88,-0.398c-0.32,-0.08 -0.72,-0.16 -1.2,-0.16l-1.921,-0.08l0,7.169l-0.08,0l0,-0.001zm-2.081,9.24l0,-17.283l5.362,0c0.72,0 1.36,0.159 1.92,0.318c0.56,0.24 0.96,0.478 1.361,0.876c0.32,0.399 0.64,0.876 0.8,1.354c0.16,0.478 0.24,1.036 0.24,1.593c0,0.558 -0.08,1.115 -0.24,1.513c-0.16,0.478 -0.32,0.877 -0.64,1.195c-0.24,0.319 -0.56,0.637 -0.88,0.876c-0.32,0.24 -0.64,0.478 -0.96,0.558l-0.48,0.239c-0.16,0.08 -0.32,0.08 -0.481,0.159c-0.16,0.08 -0.32,0.08 -0.4,0.08c-0.16,0 -0.24,0.08 -0.4,0.08l5.842,8.442l-2.562,0l-5.682,-8.283l-0.72,0l0,8.283l-2.081,0l0.001,0zm-11.844,-8.044l4.481,0l-2.24,-6.054l-2.241,6.054zm-4.482,8.044l6.883,-17.522l0.48,0l6.722,17.522l-2.48,0l-2.402,-6.85l-5.361,0l-2.241,6.85l-1.76,0l0.16,0l-0.001,0zm-9.603,-9.24l0.08,0.08l0.64,0c0.64,0 1.2,-0.08 1.68,-0.159c0.48,-0.08 0.881,-0.239 1.201,-0.478c0.32,-0.239 0.64,-0.478 0.88,-0.717c0.24,-0.238 0.4,-0.477 0.56,-0.796c0.08,-0.16 0.16,-0.398 0.24,-0.557c0.08,-0.16 0.08,-0.399 0.16,-0.558c0,-0.16 0.08,-0.319 0.08,-0.478l0,-0.558c0,-0.08 0,-0.238 -0.08,-0.318c0,-0.16 -0.08,-0.239 -0.08,-0.398c-0.08,-0.16 -0.16,-0.24 -0.16,-0.398c-0.08,-0.24 -0.24,-0.399 -0.4,-0.638c-0.16,-0.239 -0.4,-0.398 -0.64,-0.557a2.93,2.93 0 0 0 -0.88,-0.398c-0.32,-0.08 -0.72,-0.16 -1.2,-0.16l-1.921,-0.08l0,7.169l-0.16,0l0,-0.001zm-2.08,9.24l0,-17.283l5.361,0c0.72,0 1.36,0.159 1.92,0.318c0.56,0.24 0.961,0.478 1.361,0.876c0.32,0.399 0.64,0.876 0.8,1.354c0.16,0.478 0.24,1.036 0.24,1.593c0,0.558 -0.08,1.115 -0.24,1.513c-0.16,0.478 -0.32,0.877 -0.64,1.195c-0.24,0.319 -0.56,0.637 -0.88,0.876c-0.32,0.24 -0.64,0.478 -0.96,0.558l-0.48,0.239c-0.16,0.08 -0.32,0.08 -0.48,0.159c-0.16,0.08 -0.32,0.08 -0.4,0.08c-0.16,0 -0.24,0.08 -0.401,0.08l5.842,8.442l-2.56,0l-5.683,-8.283l-0.72,0l0,8.283l-2.08,0zm-11.845,-8.044l4.482,0l-2.241,-6.054l-2.24,6.054l-0.001,0zm-4.481,8.044l6.882,-17.522l0.48,0l6.722,17.522l-2.56,0l-2.401,-6.85l-5.362,0l-2.24,6.85l-1.761,0l0.24,0zm-15.366,-6.69l0,-10.593c0.08,0.08 0.24,0.08 0.32,0.08c0.08,0 0.16,0.079 0.24,0.079l1.2,0c0.08,0 0.16,0 0.16,-0.08c0.08,0 0.08,0 0.16,-0.08l0,10.195c0,1.195 0.08,2.15 0.321,2.947c0.24,0.797 0.56,1.434 0.96,1.912c0.4,0.478 0.96,0.876 1.52,1.115a4.772,4.772 0 0 0 1.842,0.398c0.88,0 1.6,-0.16 2.16,-0.398c0.64,-0.24 1.12,-0.637 1.44,-1.195c0.32,-0.557 0.641,-1.195 0.801,-1.911c0.16,-0.717 0.32,-1.593 0.4,-2.629l0,-10.432c0.08,0 0.08,0.08 0.16,0.08s0.08,0.079 0.16,0.079l0.88,0c0.08,0 0.16,0 0.16,-0.08c0.08,0 0.16,-0.08 0.16,-0.08l0,9.956c0,1.195 -0.16,2.23 -0.4,3.107a7.773,7.773 0 0 1 -1.12,2.469c-0.48,0.716 -1.12,1.274 -1.92,1.592c-0.8,0.32 -1.841,0.478 -2.962,0.478l-0.32,0c-1.2,0 -2.24,-0.159 -3.04,-0.557a3.613,3.613 0 0 1 -1.841,-1.593c-0.4,-0.717 -0.72,-1.513 -0.96,-2.31c-0.4,-0.717 -0.48,-1.593 -0.48,-2.548l-0.001,-0.001zm-17.766,-1.753c0.08,-1.354 0.24,-2.469 0.48,-3.424c0.32,-0.956 0.72,-1.753 1.2,-2.39c0.48,-0.637 1.04,-1.195 1.601,-1.593c0.56,-0.398 1.12,-0.796 1.76,-1.035c0.32,-0.16 0.641,-0.24 0.961,-0.319c0.32,-0.08 0.64,-0.16 0.96,-0.16c0.32,-0.079 0.64,-0.079 0.88,-0.158c0.32,0 0.56,-0.08 0.801,-0.08c0.48,0 0.96,0 1.44,0.08l1.441,0.239c0.48,0.08 0.96,0.239 1.44,0.477c0.48,0.24 0.96,0.478 1.441,0.717l-0.72,2.15c-0.08,0 -0.16,-0.079 -0.24,-0.159l-0.24,-0.239c-0.08,-0.08 -0.16,-0.238 -0.24,-0.318l-0.32,-0.319c-0.24,-0.159 -0.4,-0.398 -0.72,-0.557c-0.24,-0.16 -0.561,-0.319 -0.881,-0.478c-0.32,-0.16 -0.64,-0.239 -1.04,-0.319c-0.4,-0.08 -0.8,-0.159 -1.281,-0.159l-0.4,0c-0.16,0 -0.32,0 -0.48,0.08c-0.16,0 -0.32,0 -0.48,0.08c-0.16,0 -0.32,0.079 -0.48,0.159c-0.56,0.159 -1.041,0.398 -1.601,0.796c-0.48,0.398 -0.96,0.797 -1.44,1.354c-0.48,0.558 -0.8,1.195 -1.041,1.991c-0.24,0.797 -0.4,1.752 -0.48,2.788l0,0.637c0,1.195 0.16,2.31 0.4,3.345c0.32,1.036 0.72,1.912 1.28,2.628c0.56,0.797 1.28,1.354 2.081,1.673c0.8,0.398 1.6,0.558 2.641,0.558c0.4,0 0.72,0 1.12,-0.08c0.32,0 0.72,-0.08 1.04,-0.16c0.32,-0.079 0.641,-0.159 0.881,-0.318c0.24,-0.16 0.48,-0.239 0.64,-0.398l0,-6.531l0.08,0.08l1.36,0c0.08,0 0.16,0 0.24,-0.08c0.08,0 0.161,-0.08 0.241,-0.08l0,7.328c-0.08,0 -0.16,0.08 -0.24,0.08c-0.08,0 -0.16,0.079 -0.32,0.079c-0.08,0.08 -0.24,0.08 -0.32,0.16c-0.08,0 -0.24,0.079 -0.4,0.079c-0.24,0.08 -0.56,0.16 -0.8,0.16c-0.24,0.079 -0.56,0.079 -0.801,0.158c-0.24,0.08 -0.48,0.08 -0.72,0.16s-0.48,0.08 -0.72,0.08s-0.48,0.079 -0.64,0.079l-0.881,0c-1.2,0 -2.32,-0.16 -3.361,-0.558c-0.96,-0.398 -1.84,-0.955 -2.561,-1.831a7.479,7.479 0 0 1 -1.6,-2.788c-0.8,-1.115 -0.961,-2.31 -0.961,-3.664zm206.077,8.14l0,-16.754l7.923,0c0,0.078 0,0.156 -0.08,0.234c0,0.078 0,0.078 -0.08,0.156l0,1.169c-0.24,-0.078 -0.4,-0.078 -0.64,-0.156c-0.24,0 -0.48,-0.078 -0.72,-0.078l-4.563,0l0,5.922l3.28,0l2.082,-0.234c0,0.078 0,0.156 -0.08,0.234c0,0.078 0,0.078 -0.08,0.156l0,0.701c0,0.078 0,0.156 0.08,0.234c0,0.078 0.08,0.156 0.08,0.234l-2.561,-0.234l-2.721,0l0,6.935c0.08,0 0.24,0.078 0.32,0.078l2.561,0c0.32,0 0.56,0 0.881,-0.078c0.24,0 0.56,0 0.8,-0.078c0.24,0 0.48,-0.078 0.72,-0.078s0.4,-0.078 0.56,-0.078c0,0.078 0,0.156 -0.08,0.234c0,0.078 -0.08,0.156 -0.08,0.234l0,0.779c0,0.078 0,0.156 0.08,0.156c0,0.078 0,0.078 0.08,0.078l-7.762,0l0,0.234zm-11.045,-16.754l7.763,0l0,1.247c0,0.078 0,0.156 0.08,0.234c0,0.078 0,0.156 0.08,0.234l-0.48,0c-0.08,0 -0.08,0 -0.16,-0.078c-0.24,0 -0.4,-0.078 -0.64,-0.078s-0.4,-0.078 -0.64,-0.078s-0.4,-0.078 -0.64,-0.078s-0.4,-0.078 -0.64,-0.078c-0.401,0 -0.881,-0.078 -1.361,-0.078l-1.361,0l0,5.922l3.281,0l2.241,-0.156c0,0.078 0,0.156 -0.08,0.234c0,0.078 0,0.078 -0.08,0.156l0,1.169l-2.24,-0.234l-3.282,0l0,8.416l-1.92,0l0,-16.754l0.08,0l-0.001,0zm-16.887,16.755l0,-16.91l1.04,0l10.485,12.858l0,-12.858c0.08,0.078 0.08,0.078 0.16,0.078s0.08,0.077 0.16,0.077l0.64,0c0.08,0 0.16,0 0.16,-0.077c0.08,0 0.08,-0.078 0.16,-0.078l0,16.83l-0.88,0l-10.724,-13.246l0,13.247l-1.12,0c0.08,0.078 0,0.078 -0.08,0.078l-0.001,0.001zm-17.207,-8.416c0,1.247 0.16,2.416 0.4,3.35c0.32,1.014 0.72,1.793 1.28,2.494c0.561,0.702 1.281,1.17 2.002,1.559c0.72,0.311 1.6,0.545 2.48,0.545c0.801,0 1.601,-0.156 2.242,-0.545c0.72,-0.312 1.28,-0.857 1.84,-1.559c0.56,-0.701 0.96,-1.48 1.28,-2.493c0.321,-1.013 0.561,-2.104 0.641,-3.35l0,-0.313c0,-1.09 -0.16,-2.026 -0.4,-2.96c-0.32,-0.858 -0.72,-1.715 -1.28,-2.416c-0.56,-0.701 -1.281,-1.247 -2.001,-1.637c-0.72,-0.39 -1.601,-0.545 -2.481,-0.545c-0.8,0 -1.601,0.156 -2.161,0.468c-0.64,0.311 -1.2,0.7 -1.601,1.324c-0.4,0.624 -0.8,1.169 -1.12,1.87a9.602,9.602 0 0 0 -0.72,1.948c-0.08,0.234 -0.08,0.39 -0.16,0.624c-0.08,0.234 -0.08,0.39 -0.08,0.623c0,0.156 -0.08,0.39 -0.08,0.546c0,0.078 -0.08,0.311 -0.08,0.467l-0.001,0zm-2.24,0l0,-0.935c0.08,-1.013 0.32,-1.948 0.72,-2.805c0.4,-0.935 0.96,-1.792 1.6,-2.572c0.72,-0.857 1.52,-1.48 2.561,-1.87a9.758,9.758 0 0 1 3.522,-0.623c1.36,0.078 2.48,0.234 3.441,0.623c0.96,0.312 1.76,0.857 2.321,1.48c0.56,0.624 1.04,1.325 1.44,2.027c0.4,0.701 0.64,1.48 0.801,2.26c0,0.077 0.08,0.233 0.08,0.311c0,0.078 0,0.156 0.08,0.234c0,0.078 0,0.156 0.08,0.312c0,0.078 0,0.233 0.08,0.311c0,0.156 0.08,0.39 0.08,0.546l0,0.777c0,1.325 -0.24,2.571 -0.64,3.662c-0.4,1.091 -1.04,1.948 -1.92,2.728c-0.881,0.779 -1.762,1.324 -2.722,1.714c-0.96,0.39 -2,0.545 -3.041,0.545l-0.88,0c-0.16,0 -0.4,0 -0.56,-0.078c-0.161,0 -0.401,-0.077 -0.561,-0.077c-0.16,-0.078 -0.4,-0.078 -0.56,-0.156a5.528,5.528 0 0 1 -2.081,-0.935a17.897,17.897 0 0 1 -1.921,-1.637c-0.64,-0.701 -1.04,-1.48 -1.36,-2.493c-0.4,-0.935 -0.56,-2.026 -0.56,-3.35l0,0.001zm-14.647,0.156c0,-1.169 0.16,-2.182 0.56,-3.195s0.88,-1.948 1.601,-2.805c0.72,-0.857 1.6,-1.48 2.561,-1.948c0.96,-0.468 2.081,-0.623 3.361,-0.623l1.921,0c0.32,0 0.64,0.077 0.88,0.077c0.32,0.078 0.56,0.156 0.881,0.234c0.32,0.078 0.56,0.156 0.8,0.312s0.48,0.234 0.72,0.39l-0.56,1.87l-0.16,0c-0.24,-0.234 -0.56,-0.468 -0.8,-0.702c-0.24,-0.233 -0.56,-0.39 -0.88,-0.545c-0.32,-0.156 -0.56,-0.312 -0.88,-0.39c-0.32,-0.078 -0.561,-0.156 -0.881,-0.233l-1.04,0c-0.8,0 -1.521,0.155 -2.161,0.467a4.91,4.91 0 0 0 -1.921,1.48a6.751,6.751 0 0 0 -1.36,2.338c-0.32,0.935 -0.481,1.948 -0.481,3.04l0,0.311c0,1.402 0.24,2.571 0.48,3.584c0.32,1.013 0.8,1.793 1.36,2.338a7.098,7.098 0 0 0 1.922,1.325c0.64,0.311 1.36,0.39 2.16,0.39l0.4,0c0.4,0 0.801,-0.079 1.201,-0.157s0.8,-0.233 1.12,-0.39c0.4,-0.155 0.72,-0.389 1.041,-0.545c0.32,-0.233 0.64,-0.467 0.88,-0.701l-0.16,1.48c-0.08,0.078 -0.24,0.156 -0.32,0.234c-0.08,0.078 -0.16,0.156 -0.32,0.156c-0.08,0.078 -0.24,0.156 -0.32,0.156c-0.08,0.078 -0.24,0.078 -0.32,0.156c-0.16,0.078 -0.32,0.156 -0.48,0.156c-0.16,0.078 -0.32,0.078 -0.48,0.156c-0.08,0 -0.08,0 -0.16,0.077c-0.08,0 -0.08,0 -0.16,0.078c-0.24,0.078 -0.4,0.078 -0.641,0.156c-0.24,0.078 -0.4,0.078 -0.64,0.156c-0.24,0 -0.4,0.078 -0.64,0.078l-0.64,0c-1.041,0 -2.082,-0.156 -2.962,-0.545c-0.96,-0.39 -1.76,-0.936 -2.561,-1.793c-0.8,-0.779 -1.36,-1.714 -1.76,-2.805c0,-1.169 -0.16,-2.415 -0.16,-3.818l-0.001,0zm-16.727,-4.831c0.08,-0.702 0.24,-1.325 0.56,-1.792c0.24,-0.546 0.56,-0.935 1.04,-1.247c0.401,-0.312 0.881,-0.546 1.281,-0.78a6.9,6.9 0 0 1 1.361,-0.389l0.64,0c0.4,0 0.72,0 1.04,0.078c0.32,0.078 0.641,0.156 0.961,0.312c0.32,0.078 0.56,0.233 0.8,0.39c0.24,0.155 0.4,0.389 0.56,0.545c-0.08,0.078 -0.16,0.233 -0.24,0.311c-0.08,0.078 -0.08,0.234 -0.16,0.39s-0.08,0.312 -0.16,0.468c-0.08,0.155 -0.08,0.39 -0.16,0.545l-0.32,-0.078s0,-0.078 -0.08,-0.156c0,-0.078 -0.08,-0.156 -0.08,-0.156c0,-0.078 -0.08,-0.155 -0.08,-0.233c0,-0.078 -0.08,-0.156 -0.16,-0.234c-0.08,-0.156 -0.24,-0.312 -0.4,-0.468c-0.16,-0.156 -0.32,-0.311 -0.56,-0.39c-0.16,-0.155 -0.4,-0.233 -0.64,-0.311c-0.24,-0.078 -0.56,-0.078 -0.8,-0.078c-0.321,0 -0.641,0.078 -0.881,0.234c-0.32,0.156 -0.56,0.39 -0.8,0.623c-0.24,0.312 -0.48,0.624 -0.56,0.935c-0.16,0.312 -0.16,0.702 -0.16,1.091l0,0.468c0,0.233 0.08,0.39 0.16,0.623c0.08,0.234 0.24,0.468 0.4,0.701c0.16,0.234 0.32,0.39 0.56,0.624c0.24,0.156 0.48,0.39 0.8,0.545l2.4,1.091c0.401,0.234 0.801,0.468 1.121,0.78c0.32,0.311 0.56,0.623 0.8,0.934c0.24,0.39 0.32,0.702 0.48,1.091c0.08,0.39 0.16,0.78 0.16,1.17l0,0.545a8.042,8.042 0 0 1 -0.48,1.87c-0.24,0.623 -0.64,1.169 -1.12,1.714c-0.48,0.545 -1.04,0.935 -1.6,1.169c-0.56,0.234 -1.28,0.39 -2.001,0.39l-0.8,0c-0.24,-0.078 -0.56,-0.156 -0.8,-0.234c-0.241,-0.078 -0.561,-0.156 -0.801,-0.312s-0.48,-0.234 -0.72,-0.39c-0.16,-0.155 -0.4,-0.311 -0.56,-0.39c0.08,-0.155 0.08,-0.31 0.16,-0.467c0.08,-0.156 0.08,-0.311 0.08,-0.39l0,-1.324l0.32,-0.078c0.4,0.623 0.72,1.169 1.04,1.558c0.32,0.39 0.64,0.624 0.88,0.702c0.24,0.078 0.56,0.156 0.8,0.234c0.24,0.077 0.48,0.077 0.72,0.077c0.481,0 0.881,-0.077 1.281,-0.233c0.4,-0.156 0.64,-0.39 0.96,-0.78c0.24,-0.311 0.401,-0.7 0.561,-1.09c0.16,-0.39 0.16,-0.78 0.24,-1.17c0,-0.31 0,-0.623 -0.16,-0.934a2.845,2.845 0 0 0 -0.4,-0.857a2.8,2.8 0 0 0 -0.56,-0.78c-0.24,-0.233 -0.56,-0.39 -0.88,-0.545l-2.242,-1.169c-0.64,-0.312 -1.12,-0.623 -1.52,-1.013c-0.4,-0.39 -0.64,-0.701 -0.72,-1.09l-0.24,-1.17a3.532,3.532 0 0 1 -0.32,-1.48l-0.001,0zm-10.324,13.089l0,-16.753l7.923,0c0,0.078 0,0.156 -0.08,0.234c0,0.078 0,0.078 -0.08,0.156l0,1.169c-0.24,-0.078 -0.4,-0.078 -0.64,-0.156c-0.24,0 -0.48,-0.078 -0.72,-0.078l-4.563,0l0,5.922l3.281,0l2.081,-0.234c0,0.078 0,0.156 -0.08,0.234c0,0.078 0,0.078 -0.08,0.156l0,0.701c0,0.078 0,0.156 0.08,0.234c0,0.078 0.08,0.156 0.08,0.234l-2.321,-0.078l-2.721,0l0,6.935c0.08,0 0.24,0.078 0.32,0.078l2.562,0c0.32,0 0.56,0 0.88,-0.078c0.24,0 0.56,0 0.8,-0.078c0.24,0 0.481,-0.078 0.721,-0.078s0.4,-0.078 0.56,-0.078c0,0.078 0,0.156 -0.08,0.234c0,0.078 -0.08,0.156 -0.08,0.234l0,0.779c0,0.078 0,0.156 0.08,0.156c0,0.078 0,0.078 0.08,0.078l-8.003,0l0,0.078l0,-0.001zm157.22,-12.399c0.079,-0.726 0.237,-1.37 0.553,-1.854c0.238,-0.564 0.554,-0.967 1.029,-1.29c0.395,-0.322 0.87,-0.564 1.265,-0.806c0.396,-0.16 0.87,-0.322 1.345,-0.403l0.633,0c0.395,0 0.712,0 1.028,0.08c0.317,0.081 0.633,0.162 0.95,0.323c0.316,0.08 0.553,0.242 0.79,0.403c0.238,0.161 0.396,0.403 0.554,0.564c-0.079,0.081 -0.158,0.242 -0.237,0.323c-0.08,0.08 -0.08,0.242 -0.158,0.403c-0.08,0.161 -0.08,0.322 -0.159,0.483c-0.079,0.162 -0.079,0.403 -0.158,0.565l-0.316,-0.081s0,-0.08 -0.08,-0.161c0,-0.08 -0.078,-0.161 -0.078,-0.161c0,-0.081 -0.08,-0.162 -0.08,-0.242c0,-0.08 -0.079,-0.161 -0.158,-0.242c-0.079,-0.161 -0.237,-0.322 -0.395,-0.484c-0.158,-0.16 -0.317,-0.322 -0.554,-0.403c-0.158,-0.16 -0.395,-0.241 -0.633,-0.322c-0.237,-0.08 -0.553,-0.08 -0.79,-0.08c-0.317,0 -0.634,0.08 -0.87,0.241c-0.317,0.161 -0.555,0.403 -0.792,0.645c-0.237,0.322 -0.475,0.645 -0.554,0.967c-0.158,0.323 -0.158,0.726 -0.158,1.129l0,0.483c0,0.242 0.08,0.403 0.158,0.645c0.08,0.242 0.238,0.483 0.396,0.725c0.158,0.242 0.316,0.403 0.554,0.645c0.237,0.161 0.474,0.403 0.79,0.564l2.374,1.129c0.395,0.241 0.79,0.483 1.107,0.806c0.317,0.322 0.554,0.644 0.791,1.047c0.237,0.403 0.317,0.726 0.475,1.129c0.079,0.403 0.158,0.806 0.158,1.209l0,0.562a8.633,8.633 0 0 1 -0.475,1.935c-0.237,0.645 -0.632,1.21 -1.107,1.773a4.39,4.39 0 0 1 -1.582,1.21a5.099,5.099 0 0 1 -1.978,0.402l-0.791,0c-0.237,-0.08 -0.553,-0.161 -0.79,-0.242c-0.238,-0.08 -0.554,-0.16 -0.792,-0.322c-0.237,-0.161 -0.474,-0.242 -0.712,-0.403a2.405,2.405 0 0 0 -0.553,-0.403c0.079,-0.161 0.079,-0.322 0.158,-0.484c0.079,-0.16 0.079,-0.322 0.079,-0.403l0,-1.37l0.316,-0.08c0.396,0.645 0.712,1.209 1.029,1.612c0.316,0.403 0.632,0.644 0.87,0.725c0.237,0.08 0.554,0.161 0.79,0.242c0.238,0.08 0.475,0.08 0.713,0.08c0.474,0 0.87,-0.08 1.265,-0.241c0.396,-0.162 0.633,-0.403 0.87,-0.806c0.238,-0.323 0.396,-0.726 0.554,-1.129c0.158,-0.403 0.158,-0.806 0.238,-1.209c0,-0.322 0,-0.644 -0.159,-0.967a3.006,3.006 0 0 0 -0.395,-0.886a2.896,2.896 0 0 0 -0.554,-0.806c-0.237,-0.242 -0.554,-0.403 -0.87,-0.565l-2.215,-1.208c-0.633,-0.323 -1.107,-0.645 -1.503,-1.048c-0.395,-0.403 -0.633,-0.726 -0.712,-1.129l-0.237,-1.209c-0.237,-0.644 -0.237,-1.128 -0.237,-1.611l0,0.001zm-10.205,13.54l0,-17.329l7.832,0c0,0.081 0,0.162 -0.08,0.242c0,0.08 0,0.08 -0.079,0.161l0,1.29c-0.237,-0.08 -0.395,-0.08 -0.633,-0.161c-0.237,0 -0.474,-0.08 -0.711,-0.08l-4.509,0l0,6.125l3.243,0l2.057,-0.242c0,0.08 0,0.161 -0.08,0.242c0,0.08 -0.079,0.08 -0.079,0.16l0,0.726c0,0.08 0,0.161 0.08,0.242c0,0.08 0.079,0.161 0.079,0.242l-2.532,-0.242l-2.69,0l0,7.173c0.08,0 0.238,0.08 0.317,0.08l2.532,0c0.316,0 0.553,0 0.87,-0.08c0.237,0 0.553,0 0.79,-0.08c0.238,0 0.475,-0.081 0.713,-0.081c0.237,0 0.395,-0.08 0.553,-0.08c0,0.08 0,0.16 -0.079,0.241c0,0.08 0,0.161 -0.079,0.242l0,0.805c0,0.081 0,0.162 0.08,0.162c0,0.08 0,0.08 0.078,0.08l-7.673,0l0,0.162zm-14.634,-18.86c0,-0.242 0.08,-0.483 0.159,-0.725s0.158,-0.403 0.316,-0.645c0.08,-0.161 0.237,-0.322 0.395,-0.484c0.159,-0.16 0.238,-0.241 0.396,-0.403c0.08,0 0.08,-0.08 0.158,-0.08c0.08,0 0.08,-0.08 0.158,-0.08c0.08,0 0.08,-0.081 0.159,-0.081l0.553,0c0.08,0 0.159,0 0.238,0.08c0.079,0 0.158,0 0.237,0.08c0.079,0 0.158,0.081 0.237,0.081c0,0 0.08,0 0.08,0.081l0.078,0s0.08,0 0.08,0.08c0,0 0.079,0 0.079,0.081c0,0 0.079,0 0.079,0.08c0,0 0.079,0 0.079,0.081c0,0 0.079,0 0.079,0.081c0,0 0.08,0 0.08,0.08c0.078,0 0.157,0.081 0.157,0.081c0.08,0.08 0.158,0.08 0.158,0.08c0.08,0 0.08,0.081 0.159,0.081s0.158,0.081 0.158,0.081c0.079,0.08 0.237,0.08 0.395,0.161l0.317,0c0.079,0 0.237,0 0.316,-0.08c0.08,-0.081 0.238,-0.162 0.317,-0.242c0.079,-0.08 0.237,-0.242 0.316,-0.403c0.08,-0.161 0.158,-0.403 0.237,-0.645l0.712,0.161c0,0.08 0,0.161 -0.079,0.242c0,0.08 -0.079,0.161 -0.079,0.322c0,0.081 -0.079,0.242 -0.079,0.323c-0.08,0.08 -0.08,0.242 -0.158,0.322c-0.08,0.161 -0.238,0.323 -0.317,0.564c-0.079,0.162 -0.237,0.323 -0.395,0.484a1.644,1.644 0 0 1 -0.475,0.322c-0.158,0.08 -0.395,0.08 -0.633,0.08l-0.474,0c-0.158,0 -0.317,-0.08 -0.475,-0.16c-0.158,-0.08 -0.316,-0.161 -0.395,-0.242c-0.159,-0.08 -0.238,-0.161 -0.396,-0.242c-0.158,-0.08 -0.237,-0.161 -0.395,-0.161c-0.08,-0.08 -0.238,-0.161 -0.317,-0.161c-0.079,-0.08 -0.237,-0.08 -0.316,-0.161c-0.08,0 -0.158,-0.081 -0.237,-0.081c-0.159,0 -0.238,0 -0.396,0.08c-0.08,0 -0.158,0.081 -0.237,0.162c-0.08,0.08 -0.08,0.16 -0.159,0.242c-0.079,0.08 -0.158,0.16 -0.158,0.322c0,0 0,0.08 -0.079,0.08c0,0.081 0,0.081 -0.079,0.081l0,0.322l-0.554,-0.322zm-2.373,10.317c0,1.37 0.158,2.498 0.396,3.546c0.316,1.048 0.712,1.854 1.265,2.579c0.554,0.725 1.266,1.209 1.978,1.612c0.712,0.322 1.582,0.564 2.452,0.564c0.791,0 1.582,-0.161 2.215,-0.564c0.712,-0.323 1.266,-0.887 1.82,-1.612c0.553,-0.725 0.949,-1.531 1.265,-2.58c0.316,-1.047 0.554,-2.175 0.633,-3.465l0,-0.644c0,-1.129 -0.158,-2.096 -0.396,-2.983c-0.237,-0.886 -0.712,-1.773 -1.265,-2.498c-0.554,-0.726 -1.266,-1.29 -1.978,-1.693s-1.582,-0.564 -2.452,-0.564c-0.791,0 -1.503,0.161 -2.136,0.484c-0.633,0.322 -1.107,0.725 -1.582,1.37a14.247,14.247 0 0 0 -1.107,1.853a8.68,8.68 0 0 0 -0.712,2.015c-0.08,0.242 -0.08,0.403 -0.158,0.645c-0.08,0.242 -0.08,0.403 -0.08,0.645s-0.079,0.403 -0.079,0.645c-0.079,0.322 -0.079,0.483 -0.079,0.645zm-2.215,0l0,-0.968a8.667,8.667 0 0 1 0.712,-2.901c0.396,-0.887 0.95,-1.773 1.582,-2.66c0.712,-0.806 1.503,-1.45 2.532,-1.934a9.15,9.15 0 0 1 3.401,-0.645c1.345,0.08 2.452,0.242 3.401,0.645c0.95,0.322 1.74,0.886 2.294,1.531c0.554,0.645 1.029,1.37 1.424,2.096c0.396,0.725 0.633,1.531 0.791,2.337c0,0.08 0.08,0.242 0.08,0.322c0,0.081 0,0.162 0.079,0.242c0,0.08 0,0.242 0.079,0.323c0,0.08 0,0.16 0.079,0.322c0,0.242 0.079,0.403 0.079,0.564l0,0.806c0,1.37 -0.237,2.66 -0.633,3.788c-0.395,1.129 -1.028,2.015 -1.898,2.821c-0.87,0.806 -1.74,1.37 -2.69,1.773c-0.95,0.403 -1.977,0.564 -3.006,0.564l-0.87,0c-0.158,0 -0.395,0 -0.554,-0.08c-0.158,0 -0.395,-0.08 -0.553,-0.08c-0.159,-0.081 -0.396,-0.081 -0.554,-0.162c-0.712,-0.161 -1.424,-0.484 -2.136,-0.967a17.926,17.926 0 0 1 -1.898,-1.693c-0.633,-0.725 -1.029,-1.531 -1.345,-2.579c-0.237,-0.886 -0.396,-2.095 -0.396,-3.465zm-14.317,0c0,-1.37 0.158,-2.58 0.474,-3.627c0.317,-1.048 0.712,-1.935 1.345,-2.58c0.554,-0.725 1.187,-1.289 1.899,-1.692c0.632,-0.484 1.344,-0.806 2.056,-1.048c0.238,-0.08 0.396,-0.08 0.633,-0.16c0.237,-0.082 0.396,-0.082 0.633,-0.082s0.395,-0.08 0.633,-0.08l0.553,0c0.396,0 0.712,0 1.108,0.08c0.316,0 0.712,0.081 1.028,0.162c0.158,0 0.317,0.08 0.475,0.08c0.158,0.08 0.316,0.08 0.395,0.08c0.159,0.081 0.238,0.081 0.396,0.162c0.158,0.08 0.237,0.08 0.395,0.08c0.08,0.081 0.238,0.081 0.317,0.162c0.079,0.08 0.158,0.08 0.316,0.161c0.08,0.08 0.158,0.08 0.238,0.161c0.079,0 0.158,0.08 0.237,0.08l-0.554,2.096l-0.158,0c-0.158,-0.241 -0.237,-0.403 -0.475,-0.564a3.46,3.46 0 0 0 -0.553,-0.483a7.275,7.275 0 0 0 -0.633,-0.403c-0.238,-0.081 -0.475,-0.242 -0.712,-0.242c-0.158,-0.08 -0.317,-0.161 -0.554,-0.161c-0.158,-0.081 -0.316,-0.081 -0.474,-0.081c-0.159,0 -0.317,-0.08 -0.475,-0.08l-0.396,0c-0.87,0 -1.66,0.16 -2.294,0.483c-0.632,0.322 -1.186,0.806 -1.66,1.45c-0.396,0.646 -0.792,1.29 -1.03,2.016c-0.236,0.725 -0.474,1.45 -0.632,2.176c0,0.161 -0.079,0.403 -0.079,0.564c0,0.161 -0.08,0.403 -0.08,0.564l0,1.693c0,0.16 0,0.403 0.08,0.564c0,0.161 0.08,0.403 0.08,0.645c0,0.16 0.078,0.403 0.157,0.644a9.58,9.58 0 0 0 0.712,1.935c0.317,0.645 0.712,1.209 1.108,1.773a4.39,4.39 0 0 0 1.582,1.209c0.633,0.242 1.265,0.403 2.056,0.403c0.475,0 0.95,-0.08 1.424,-0.161c0.475,-0.081 0.87,-0.242 1.187,-0.484c0.395,-0.242 0.712,-0.484 1.107,-0.725c0.317,-0.242 0.712,-0.565 1.029,-0.806l-0.159,1.773a3.46,3.46 0 0 1 -0.553,0.483c-0.238,0.162 -0.475,0.242 -0.712,0.323c-0.238,0.08 -0.554,0.161 -0.87,0.242c-0.317,0.08 -0.554,0.16 -0.87,0.241c-0.159,0 -0.238,0 -0.396,0.081c-0.158,0 -0.237,0 -0.396,0.08l-1.423,0l-0.554,0.968c0.395,0 0.79,0 1.107,0.08c0.317,0.08 0.554,0.162 0.791,0.403a1.5,1.5 0 0 1 0.475,0.565c0.079,0.241 0.158,0.483 0.158,0.805l0,0.322c-0.079,0.323 -0.158,0.565 -0.316,0.807a1.866,1.866 0 0 1 -0.554,0.564c-0.237,0.161 -0.554,0.242 -0.791,0.322c-0.316,0.081 -0.633,0.081 -0.95,0.081l-0.474,0c-0.158,0 -0.316,-0.08 -0.474,-0.08c-0.159,0 -0.317,-0.081 -0.475,-0.081c-0.158,-0.08 -0.317,-0.08 -0.475,-0.161l0.317,-0.806c0.079,0 0.237,0.08 0.316,0.08c0.08,0.08 0.158,0.08 0.317,0.08c0.079,0 0.158,0.081 0.316,0.081l0.237,0c0.238,0 0.396,0 0.554,-0.08l0.475,-0.242l0.316,-0.322c0.08,-0.08 0.158,-0.242 0.158,-0.323c0,-0.08 0,-0.16 -0.079,-0.322c-0.079,-0.08 -0.079,-0.161 -0.158,-0.242c-0.08,-0.08 -0.158,-0.161 -0.317,-0.161c-0.158,-0.08 -0.237,-0.08 -0.474,-0.08l-0.633,0l-0.316,-0.242l0.632,-1.935c-0.949,-0.08 -1.819,-0.322 -2.61,-0.806a7.117,7.117 0 0 1 -2.136,-1.692c-0.633,-0.726 -1.107,-1.612 -1.424,-2.74c-0.316,-1.37 -0.474,-2.58 -0.474,-4.03zm-14.476,0c0,-1.21 0.158,-2.257 0.554,-3.305c0.395,-1.048 0.87,-2.015 1.582,-2.901c0.712,-0.887 1.582,-1.532 2.531,-2.015c0.95,-0.484 2.057,-0.645 3.322,-0.645l1.899,0c0.316,0 0.633,0.08 0.87,0.08c0.316,0.081 0.554,0.162 0.87,0.242c0.317,0.08 0.554,0.161 0.791,0.323c0.237,0.16 0.475,0.241 0.712,0.403l-0.554,1.934l-0.158,0c-0.237,-0.242 -0.554,-0.484 -0.79,-0.725c-0.238,-0.242 -0.555,-0.403 -0.871,-0.565c-0.316,-0.16 -0.554,-0.322 -0.87,-0.403c-0.317,-0.08 -0.554,-0.16 -0.87,-0.241l-1.029,0c-0.79,0 -1.503,0.16 -2.135,0.483a4.872,4.872 0 0 0 -1.899,1.532a7.062,7.062 0 0 0 -1.345,2.417c-0.316,0.968 -0.474,2.015 -0.474,3.144l0,0.322c0,1.45 0.158,2.66 0.474,3.708c0.317,1.047 0.791,1.853 1.345,2.417a7.013,7.013 0 0 0 1.899,1.37c0.632,0.323 1.344,0.404 2.056,0.404l0.396,0c0.395,0 0.79,-0.081 1.186,-0.162a4.52,4.52 0 0 0 1.108,-0.403c0.395,-0.16 0.712,-0.403 1.028,-0.564c0.317,-0.242 0.633,-0.483 0.87,-0.725l-0.158,1.531c-0.08,0.08 -0.237,0.161 -0.316,0.242c-0.08,0.08 -0.159,0.161 -0.317,0.161c-0.079,0.08 -0.237,0.161 -0.316,0.161c-0.08,0.081 -0.238,0.081 -0.317,0.162c-0.158,0.08 -0.316,0.16 -0.474,0.16c-0.158,0.081 -0.317,0.081 -0.475,0.162c-0.079,0 -0.079,0 -0.158,0.08c-0.08,0 -0.08,0 -0.158,0.081c-0.238,0.08 -0.396,0.08 -0.633,0.161s-0.396,0.081 -0.633,0.162c-0.237,0 -0.395,0.08 -0.554,0.08l-0.632,0c-1.029,0 -2.057,-0.161 -2.927,-0.564a7.572,7.572 0 0 1 -2.532,-1.854c-0.79,-0.806 -1.344,-1.773 -1.74,-2.901c0.08,-1.21 -0.158,-2.499 -0.158,-3.95l0,0.001zm96.45,0.227l4.457,0l-2.228,-6.216l-2.228,6.216l-0.001,0zm-4.455,8.26l6.843,-17.993l0.478,0l6.684,17.993l-2.467,0l-2.387,-7.034l-5.332,0l-2.228,7.034l-1.591,0zm-7.003,2.617l6.127,-22c0.08,0.082 0.08,0.082 0.16,0.082s0.08,0.082 0.159,0.082l0.637,0c0.079,0 0.158,0 0.158,-0.082c0.08,0 0.08,-0.082 0.16,-0.082l-6.128,21.918l-1.433,0c0.32,0.082 0.24,0.082 0.16,0.082zm-8.912,-16.357c0.08,-0.736 0.238,-1.39 0.557,-1.88c0.238,-0.573 0.557,-0.982 1.034,-1.31c0.398,-0.327 0.875,-0.572 1.273,-0.817a6.585,6.585 0 0 1 1.353,-0.41l0.637,0c0.398,0 0.716,0 1.034,0.083c0.318,0.081 0.637,0.163 0.955,0.327c0.318,0.081 0.557,0.245 0.796,0.409c0.239,0.163 0.398,0.409 0.557,0.572c-0.08,0.082 -0.16,0.245 -0.239,0.327c-0.08,0.082 -0.08,0.246 -0.159,0.41c-0.08,0.163 -0.08,0.326 -0.16,0.49c-0.079,0.163 -0.079,0.409 -0.158,0.572l-0.319,-0.081s0,-0.082 -0.08,-0.164c0,-0.082 -0.079,-0.164 -0.079,-0.164c0,-0.081 -0.08,-0.163 -0.08,-0.245c0,-0.082 -0.079,-0.163 -0.158,-0.245c-0.08,-0.164 -0.24,-0.327 -0.398,-0.491c-0.16,-0.164 -0.319,-0.327 -0.557,-0.409c-0.16,-0.163 -0.398,-0.245 -0.637,-0.327c-0.239,-0.082 -0.557,-0.082 -0.796,-0.082c-0.318,0 -0.636,0.082 -0.875,0.246c-0.318,0.163 -0.557,0.408 -0.796,0.736c-0.239,0.327 -0.477,0.654 -0.557,0.981c-0.159,0.327 -0.159,0.736 -0.159,1.145l0,0.491c0,0.245 0.08,0.409 0.16,0.654c0.079,0.245 0.238,0.49 0.317,0.736c0.16,0.245 0.319,0.409 0.557,0.654c0.24,0.164 0.478,0.41 0.796,0.573l2.387,1.145c0.398,0.245 0.796,0.49 1.115,0.818c0.318,0.327 0.557,0.654 0.795,1.063c0.239,0.409 0.319,0.736 0.478,1.145c0.08,0.409 0.159,0.818 0.159,1.227l0,0.572a8.823,8.823 0 0 1 -0.478,1.963c-0.238,0.654 -0.636,1.227 -1.114,1.8a4.421,4.421 0 0 1 -1.591,1.226a5.092,5.092 0 0 1 -1.99,0.409l-0.796,0c-0.238,-0.082 -0.556,-0.164 -0.795,-0.246c-0.239,-0.081 -0.557,-0.163 -0.796,-0.327c-0.239,-0.163 -0.477,-0.245 -0.716,-0.409a2.42,2.42 0 0 0 -0.557,-0.409c0.08,-0.163 0.08,-0.327 0.16,-0.49c0.079,-0.164 0.079,-0.327 0.079,-0.41l0,-1.471l0.318,-0.082c0.398,0.654 0.716,1.227 1.035,1.636c0.318,0.409 0.636,0.654 0.875,0.736c0.239,0.081 0.557,0.245 0.796,0.245c0.238,0.082 0.477,0.082 0.716,0.082a3.22,3.22 0 0 0 1.273,-0.246c0.398,-0.163 0.637,-0.408 0.875,-0.817c0.239,-0.327 0.398,-0.736 0.557,-1.145c0.16,-0.41 0.16,-0.818 0.24,-1.227c0,-0.327 0,-0.654 -0.16,-0.982a3.064,3.064 0 0 0 -0.398,-0.9a2.94,2.94 0 0 0 -0.557,-0.817c-0.239,-0.245 -0.557,-0.409 -0.875,-0.572l-2.228,-1.227c-0.637,-0.327 -1.114,-0.655 -1.512,-1.063c-0.398,-0.41 -0.637,-0.737 -0.717,-1.145l-0.238,-1.227c-0.16,-0.654 -0.16,-1.145 -0.16,-1.636l0.001,0z" fill-rule="nonzero" fill="#000"/>
   </g>
  </svg>