<svg  id="fndm-dwefzyqc8u" viewBox="0.17013168334960938 0.3650398254394531 1455.4598388671875 643.5149536132812" xmlns="http://www.w3.org/2000/svg">
   <path d="m1455.63,475.89c-61.32,0.11 -122.66,0.64 -184,0.17c-34.08,-0.26 -68,-4.31 -98.45,-20.9c-31.63,-17.22 -44.24,-46.91 -43.19,-81c1.1,-35.82 22.14,-59.51 55,-72.55c46.18,-18.32 94.77,-18.51 143.15,-16.46c34.22,1.45 33.59,-12.93 22.11,-37.59c-11.28,-24.24 -30.08,-36.53 -55.18,-42.31c-13.19,-3 -29.56,5.56 -39.66,-10.1c48.24,-28.83 154.25,-10.53 200.2,67.31l0.02,213.43zm-94.76,-94.77c-8.41,-29.5 22.7,-78.42 -46.91,-73.51c-75.26,5.3 -102.74,20.24 -102.61,72.36c0.13,49.87 33.12,69.6 103.13,74.76c70.75,5.16 36.63,-45.75 46.39,-73.63l0,0.02zm-1359.43,-142.84c0,-67.8 2.2,-135.69 -0.76,-203.36c-2,-45.91 28.62,-32.5 51.48,-33.39c22.86,-0.89 49.92,-8.54 46.72,32.8c-3.11,40.12 0.45,80.7 -1.11,121c-0.9,23.36 7.38,30.88 30.42,30.3c41.81,-1.05 83.95,-3.5 124.84,9.81c62,20.19 89.32,56.05 90.25,121.29c0.61,43.57 -1.46,87.24 0.6,130.73c1.89,39.95 -26.28,29.17 -45.82,28.13c-20.08,-1.07 -52.18,15.6 -51.13,-28.19c1.24,-51.63 1.56,-103.35 -0.13,-154.95c-2.17,-66.48 -79.59,-110.44 -138.45,-80.39c-16.24,8.3 -9.66,22.39 -9.79,33.91c-0.74,62.94 -3.44,126.11 0.74,188.79c2.77,41.73 -17,43.56 -48.27,42.08c-27.79,-1.31 -53.45,4.72 -50.65,-40.07c4.12,-65.88 1.06,-132.3 1.06,-198.49zm882.88,399.82c56.07,-15.28 89.87,-49.86 102.48,-104.55c12,-52.14 8.39,-57.49 -46,-57c-42.94,0.37 -83.77,-6.43 -119.38,-31.7c-47,-33.36 -61.66,-81.13 -55.45,-136c5.83,-51.53 36.17,-86 83.77,-102.83c72,-25.42 147.15,-10.45 220.93,-13.18c20.19,-0.74 16.1,16.31 16.12,28.38c0.16,93.57 2,187.19 -0.68,280.69c-2.87,99.12 -91.94,161.92 -201.79,136.19zm106.71,-300.76l0,-96.48c0,-13.19 -0.08,-23.3 -18.76,-26.6c-65.49,-11.57 -119.86,26 -129,91.92c-11.85,85 26,141.42 98.05,147.6c33.14,2.84 56.92,-0.53 50.41,-44.17c-3.57,-23.6 -0.68,-48.15 -0.7,-72.27zm-476.49,-140.05c111.77,-41.59 202,20 200.62,131.75c-0.6,47.88 21.34,111.66 -9.69,139.08c-26.76,23.65 -89.1,7.1 -135.71,8.19c-37.23,0.86 -74.32,-0.08 -110.59,-10.1c-44.42,-12.27 -68.93,-41.89 -69.86,-87.4c-0.87,-43 25.32,-67.16 64.33,-80.46c40.63,-13.85 82.47,-13.52 124.47,-13.9c12.05,-0.1 28.45,6.32 35.13,-7.43c6.68,-13.75 -2.41,-27.72 -10,-40.27c-20.01,-33.28 -56.06,-31.79 -88.7,-39.46zm105.71,182.74c-9.43,-26.34 25.15,-77.09 -45.85,-72.4c-74.25,4.9 -104.52,20.95 -105.33,71c-0.79,48.56 35.27,70.71 103.26,76.15c68.18,5.43 42.31,-41.8 47.92,-74.75z" fill="#0B6784"/>
  </svg>