<svg  id="fndm-h572s6voox" viewBox="0.9766900539398193 0.920091450214386 148.03443908691406 44.97991180419922" xmlns="http://www.w3.org/2000/svg">
   <path d="m79,13.4c1.2,-0.8 2.3,-1.3 3.6,-1.4c0.9,-0.1 1.8,-0.1 2.6,0.1c1.7,0.4 2.7,1.4 3.2,3.1c0.4,1.7 0.2,3.4 -0.1,5.1c-0.5,2.3 -1.1,4.4 -2.5,6.3c-2,2.8 -5.7,3.5 -8.6,2.5c-0.4,-0.1 -0.8,-0.4 -1.1,-0.6c-0.5,-0.4 -0.5,-0.4 -0.7,0.2c-0.2,1 -0.5,2.1 -0.7,3.1c-0.4,1.9 -1.7,3 -3.6,3.2c-0.8,0.1 -1.5,-0.1 -2.1,-0.5c-0.4,-0.2 -0.3,-0.5 -0.2,-0.8c0.3,-1.5 0.7,-3.1 1,-4.6c1.2,-5.3 2.4,-10.5 3.6,-15.8c0.2,-0.8 0.5,-1.1 1.3,-1.2c1.2,-0.2 2.4,-0.2 3.6,0c0.6,0.3 1,0.4 0.7,1.3zm3.8,4.8l0,-0.6c0,-1.1 -0.6,-1.6 -1.6,-1.7c-1.6,-0.1 -2.9,0.9 -3.4,2.6c-0.2,0.9 -0.4,1.7 -0.6,2.6c-0.2,0.9 -0.5,1.8 -0.4,2.8c0.1,0.9 0.6,1.5 1.4,1.6c1.2,0.3 2.4,-0.3 3.1,-1.5c0.9,-1.8 1.3,-3.8 1.5,-5.8zm39.2,10c-1.1,0.7 -2.1,1.1 -3.3,1.2c-0.8,0.1 -1.6,0.1 -2.3,0c-2.2,-0.3 -3.5,-1.6 -3.7,-3.8c-0.3,-4 0.5,-7.7 2.8,-11c1.3,-1.9 3.2,-2.7 5.5,-2.8c1.3,-0.1 2.6,0 3.7,0.7c0.3,0.2 0.5,0.6 0.8,0.5c0.3,-0.1 0.3,-0.6 0.4,-1c0.4,-1.6 0.8,-3.1 1.1,-4.7c0.1,-0.4 0.3,-0.7 0.7,-0.7c0.6,-0.1 1.2,-0.2 1.8,-0.2c1.7,0 2.8,1.4 2.4,3.1c-0.8,3.3 -1.5,6.6 -2.3,9.9c-0.5,2.3 -1,4.6 -1.6,6.9c-0.6,2.5 -3.2,3.8 -5.4,2.7c-0.5,0 -0.8,-0.2 -0.6,-0.8zm-3.8,-4.9l0,0.4c0,1.2 0.6,1.8 1.9,1.8c1.5,0 2.7,-0.9 3.1,-2.5c0.3,-1 0.5,-2 0.7,-2.9c0.2,-0.8 0.4,-1.7 0.4,-2.6c-0.1,-1 -0.7,-1.6 -1.7,-1.6c-1.4,-0.1 -2.3,0.5 -2.9,1.7c-0.9,1.8 -1.3,3.7 -1.5,5.7zm-74,-9.7c1.2,-0.7 2.4,-1.2 3.6,-1.4c0.9,-0.1 1.9,-0.1 2.8,0.1c1.9,0.5 3,2.2 2.7,4.2c-0.3,2.1 -0.9,4.1 -1.3,6.2c-0.3,1.4 -0.6,2.7 -0.9,4c-0.6,2.4 -3.2,3.5 -5.4,2.5c-0.4,-0.2 -0.5,-0.4 -0.4,-0.9c0.8,-3.4 1.6,-6.8 2.3,-10.3c0.3,-1.2 -0.2,-1.7 -1.4,-1.8c-0.4,0 -0.8,0 -1.2,0.1c-1,0.2 -1.7,0.7 -1.9,1.9c-0.5,2.7 -1.2,5.4 -1.8,8.1c-0.7,2.9 -3.5,3.7 -5.4,2.8c-0.5,-0.2 -0.6,-0.5 -0.5,-1c1.4,-6.2 2.9,-12.4 4.3,-18.6c0.2,-0.7 0.3,-1.4 0.5,-2.1c0.1,-0.4 0.3,-0.6 0.7,-0.7c0.6,0 1.2,-0.1 1.8,-0.1c1.7,0 2.8,1.3 2.5,3c-0.2,1.1 -0.5,2.2 -0.8,3.3c-0.2,0.3 -0.2,0.4 -0.2,0.7zm18.9,14.5c-1.1,0.7 -2.2,1.2 -3.3,1.4c-0.8,0.1 -1.5,0.1 -2.3,0c-2.2,-0.4 -3.6,-1.7 -3.8,-3.9c-0.4,-3.9 0.5,-7.6 2.7,-10.9c1.2,-1.8 3,-2.6 5.1,-2.7c1,-0.1 2,-0.1 3,0.1c0.6,0.2 1.2,0.4 1.7,0.9c0.2,0.2 0.4,0.3 0.5,-0.1c0.1,-0.3 0.3,-0.4 0.6,-0.5c1.5,-0.4 3,-0.3 4.5,0c0.5,0.1 0.4,0.4 0.4,0.7c-0.7,3.2 -1.5,6.4 -2.2,9.5c-0.3,1.3 -0.6,2.7 -0.9,4c-0.6,2.4 -3.2,3.6 -5.4,2.5c-0.5,-0.1 -0.8,-0.3 -0.6,-1zm-3.8,-5.2c-0.1,2.2 0.7,3 2.8,2.6c1.1,-0.2 1.8,-1.1 2.1,-2.1c0.5,-1.8 0.9,-3.6 1.2,-5.4c0.2,-1 -0.4,-1.9 -1.3,-2c-1.4,-0.3 -2.5,0.2 -3.2,1.5c-1.1,1.7 -1.4,3.8 -1.6,5.4zm84.1,-9.6c0.1,-1 0.7,-1 1.3,-1.1c1.2,-0.2 2.4,-0.2 3.6,0.1c0.8,0.1 0.8,0.2 0.6,1c-0.9,3.7 -1.7,7.4 -2.6,11.1c-0.2,0.7 -0.3,1.4 -0.5,2.2c-0.6,2.3 -3.1,3.6 -5.3,2.6c-0.5,-0.2 -0.8,-0.4 -0.5,-1.2c-1.2,0.8 -2.3,1.3 -3.5,1.4c-1.8,0.2 -3.5,0.1 -4.8,-1.3c-0.8,-0.9 -1.2,-2 -1.2,-3.2c-0.1,-3.7 0.7,-7.1 2.7,-10.2c1.2,-1.8 3.1,-2.7 5.3,-2.8l1.9,0c1.1,0.1 2.1,0.4 3,1.4zm-7.2,10l0,0.7c0.1,1 0.6,1.5 1.6,1.6c1.7,0.1 2.9,-0.8 3.4,-2.5c0.4,-1.5 0.7,-3 1,-4.5c0.1,-0.4 0.1,-0.7 0.1,-1.1c0,-1 -0.6,-1.5 -1.6,-1.6c-1.4,-0.1 -2.4,0.5 -3,1.8c-1,1.7 -1.4,3.6 -1.5,5.6zm-40.3,1.5c0.2,-0.4 0.3,-0.7 0.5,-1.1c1.5,-3.6 2.9,-7.2 4.4,-10.9c0.2,-0.6 0.5,-0.8 1.1,-0.8c1.3,-0.1 2.5,-0.2 3.8,0c0.5,0.1 0.6,0.3 0.4,0.7c-1.9,4.5 -3.8,8.9 -5.7,13.4c-0.3,0.8 -0.9,1.6 -1.5,2.2c-0.7,0.7 -1.5,1.2 -2.5,1.2c-1.4,0 -2.9,0 -4.3,-0.2c-0.4,-0.1 -0.6,-0.2 -0.7,-0.7c-0.6,-5.2 -1.3,-10.3 -2,-15.5c-0.1,-0.5 0.1,-0.7 0.6,-0.8c1.4,-0.3 2.8,-0.3 4.2,0c0.5,0.1 0.7,0.3 0.7,0.9c0.4,3.8 0.7,7.7 1,11.6z" fill="#1761a3"/>
   <path d="m23,6.5c-0.2,2.7 -1,5.4 -2.1,8.1c-0.4,0.9 -0.8,1.7 -1.4,2.5c-1.2,1.5 -2.5,1.5 -3.6,0c-1.4,-1.8 -2,-3.9 -2.6,-6c-0.4,-1.4 -0.7,-2.8 -0.8,-4.2c-0.4,-2.8 1.6,-5.4 4.3,-5.9c2.9,-0.5 5.7,1.4 6.1,4.2c0.1,0.4 0.1,0.8 0.1,1.3z" fill="#c43f34"/>
   <path d="m11.7,20.9c-2.7,-0.2 -5.4,-0.7 -7.9,-1.8c-1.9,-0.9 -3,-2.8 -2.8,-4.9c0.2,-1.9 1.7,-3.6 3.7,-4c1.2,-0.3 2.4,-0.1 3.4,0.6c2.5,1.6 4.5,3.7 6.1,6.1c0.3,0.5 0.6,1.1 0.7,1.7c0.2,0.9 -0.1,1.6 -1,1.9c-0.6,0.3 -1.4,0.4 -2.2,0.4zm12.2,0.1c-0.7,0 -1.4,0 -2.1,-0.2c-1.2,-0.4 -1.6,-1.2 -1.3,-2.3c0.1,-0.5 0.3,-0.9 0.6,-1.3c1.6,-2.5 3.7,-4.6 6.2,-6.2c1.8,-1.1 4.1,-0.8 5.6,0.6c2.4,2.2 1.8,6.1 -1.1,7.6c-1.9,1 -4,1.4 -6.1,1.8l-1.8,0z" fill="#c8522c"/>
   <path d="m106,29.5l-0.5,0c-1.3,-0.2 -1.6,-0.5 -1.3,-1.8c1.1,-5 2.3,-10 3.4,-15c0.1,-0.5 0.3,-0.7 0.8,-0.7c1.4,-0.2 2.8,-0.2 4.3,0c0.4,0.1 0.6,0.2 0.5,0.7c-1.1,4.6 -2.1,9.2 -3.2,13.9c-0.5,1.8 -2,3 -4,2.9z" fill="#1761a3"/>
   <path d="m14.2,31.4c0.2,-1.6 0.8,-3.5 1.9,-5.2c0,-0.1 0.1,-0.1 0.1,-0.2c1,-1.4 2.1,-1.5 3.1,-0.1c1.3,1.8 2,3.9 2.1,6.1c0.1,2 -1.9,3.5 -4,3.3c-2.1,-0.2 -3.4,-1.7 -3.2,-3.9z" fill="#e4af2c"/>
   <path d="m23.1,22.5c1.5,0 2.9,0.3 4.2,0.7c1.7,0.6 2.5,2.4 1.8,4s-2.5,2.2 -4.1,1.3c-1.5,-0.8 -2.8,-2 -3.9,-3.4c-0.2,-0.3 -0.4,-0.6 -0.5,-0.9c-0.3,-0.7 0,-1.2 0.7,-1.5c0.2,-0.1 0.4,-0.1 0.6,-0.1c0.5,0 0.8,0 1.2,-0.1zm-13.9,6.5c-1.4,0 -2.6,-0.9 -2.9,-2.2c-0.3,-1.3 0.2,-2.7 1.4,-3.3c1.8,-0.9 3.8,-1.2 5.8,-0.9c1.4,0.2 1.8,1.1 1,2.3c-1,1.6 -2.4,2.8 -4,3.7c-0.5,0.3 -0.9,0.4 -1.3,0.4z" fill="#d2782b"/>
   <path d="m110.8,11.3c-0.7,0 -1.4,0 -2.1,-0.1c-0.4,-0.1 -0.6,-0.2 -0.5,-0.7c0.2,-0.8 0.4,-1.5 0.5,-2.3c0.1,-0.3 0.2,-0.5 0.6,-0.6c0.9,-0.1 1.9,-0.1 2.8,-0.1c1.3,0.1 1.9,0.8 1.7,2.2c-0.3,1.5 0,1.4 -1.8,1.6c-0.4,0.1 -0.8,0 -1.2,0z" fill="#1761a3"/>
   <path d="m107.4,40.7c-0.2,0.9 -0.4,1.9 -0.6,2.9c-0.1,0.3 -0.2,0.4 -0.5,0.4c-0.3,-0.1 -0.3,-0.3 -0.2,-0.5c0.2,-0.9 0.4,-1.7 0.5,-2.6c0.1,-0.3 0.1,-0.5 -0.2,-0.7c-0.2,-0.2 -0.5,-0.2 -0.8,0c-0.5,0.2 -0.8,0.5 -0.9,1c-0.2,0.8 -0.3,1.6 -0.5,2.4c-0.1,0.3 -0.2,0.6 -0.5,0.5c-0.5,-0.1 -0.3,-0.4 -0.2,-0.7c0.2,-0.8 0.3,-1.6 0.5,-2.4c0.1,-0.3 0.1,-0.5 -0.1,-0.7c-0.3,-0.2 -0.5,-0.1 -0.8,0c-0.4,0.2 -0.8,0.5 -0.9,1c-0.1,0.7 -0.3,1.4 -0.4,2.1c0,0.2 -0.1,0.4 -0.2,0.6c-0.1,0.2 -0.3,0.3 -0.5,0.2c-0.2,0 -0.3,-0.2 -0.2,-0.4c0.3,-1.3 0.5,-2.5 0.8,-3.8c0.1,-0.3 0.3,-0.5 0.6,-0.3s0.5,0.1 0.8,0c0.5,-0.2 1,-0.2 1.5,0.2c0.2,0.2 0.4,0.2 0.6,0c0.3,-0.2 0.6,-0.3 1,-0.3c0.7,-0.3 1.2,0.2 1.2,1.1zm5.1,3.3s-0.3,0 -0.4,-0.1c-0.7,-0.4 -0.7,0 -0.8,0.5c-0.1,0.4 -0.1,0.8 -0.2,1.1c-0.1,0.3 -0.3,0.4 -0.6,0.4c-0.3,-0.1 -0.2,-0.3 -0.2,-0.5c0.4,-1.9 0.8,-3.7 1.2,-5.6c0.1,-0.3 0.3,-0.6 0.6,-0.4c0.3,0.2 0.6,0.1 0.9,0c1.1,-0.3 2,0.3 1.9,1.4c0,0.7 -0.2,1.5 -0.5,2.1c-0.4,0.8 -1,1.2 -1.9,1.1zm1.6,-3c0.1,-0.8 -0.5,-1.2 -1.2,-0.9c-0.5,0.2 -0.8,0.6 -0.9,1.1c-0.1,0.3 -0.1,0.6 -0.2,0.9c-0.1,0.5 0,1 0.5,1.2c0.5,0.2 1.1,0 1.4,-0.5c0.2,-0.6 0.3,-1.2 0.4,-1.8zm-21.2,-1.3c0.8,-0.3 1.5,-0.6 2.1,0c0.6,0.6 0.5,1.4 0.3,2.1c-0.1,0.5 -0.2,1 -0.5,1.4c-0.5,0.9 -1.5,1.2 -2.4,0.8c-0.2,-0.1 -0.3,-0.3 -0.5,0c-0.1,0.1 -0.3,0.2 -0.5,0.1s-0.1,-0.4 -0.1,-0.6c0.3,-1.6 0.7,-3.2 1,-4.8c0,-0.2 0.1,-0.4 0.2,-0.7c0.1,-0.3 0.3,-0.4 0.5,-0.3c0.3,0.1 0.2,0.3 0.2,0.5c-0.1,0.4 -0.2,0.9 -0.3,1.5zm1.8,1.5c0,-1 -0.5,-1.4 -1.2,-1.1c-0.3,0.1 -0.5,0.3 -0.6,0.5c-0.4,0.6 -0.5,1.4 -0.5,2.1c0,0.5 0.3,0.7 0.8,0.7s0.9,-0.3 1.1,-0.7c0.2,-0.6 0.3,-1.1 0.4,-1.5zm-14.9,1.2c0.1,-0.6 0.2,-1.4 0.5,-2c0.5,-0.9 1.5,-1.3 2.4,-0.9c0.3,0.1 0.4,0.2 0.7,0c0.3,-0.2 0.6,0 0.5,0.4c-0.3,1.2 -0.5,2.5 -0.8,3.7c0,0.2 -0.2,0.4 -0.4,0.3c-0.5,-0.3 -0.9,0.1 -1.4,0.1c-1,0.1 -1.5,-0.4 -1.5,-1.6zm0.8,-0.1c0,1 0.6,1.3 1.3,0.9c0.4,-0.2 0.6,-0.5 0.7,-0.9l0.3,-1.2c0.1,-0.5 0.1,-0.9 -0.5,-1.1c-0.5,-0.2 -1,0.1 -1.3,0.6c-0.3,0.6 -0.5,1.2 -0.5,1.7zm38.8,0.3c0.1,-0.7 0.2,-1.5 0.5,-2.2c0.5,-1 1.6,-1.4 2.6,-0.9c0.2,0.1 0.3,0.2 0.5,0c0.1,-0.1 0.3,-0.1 0.5,0c0.1,0.1 0.1,0.3 0.1,0.4c-0.3,1.2 -0.5,2.5 -0.8,3.7c-0.1,0.4 -0.3,0.6 -0.7,0.3c-0.3,-0.2 -0.4,0 -0.6,0.1c-1.2,0.4 -2.1,-0.2 -2.1,-1.4zm0.7,-0.2c0,0.7 0.3,1 1,0.9c0.6,-0.1 1,-0.5 1.1,-1.1c0.1,-0.3 0.1,-0.6 0.2,-1c0.1,-0.5 0.1,-1 -0.5,-1.2c-0.4,-0.2 -1,0 -1.3,0.5c-0.3,0.7 -0.4,1.3 -0.5,1.9zm14.9,-1.3c0,0.5 -0.1,1.1 -0.3,1.6c-0.5,1.1 -1.4,1.6 -2.5,1.3c-0.6,-0.1 -0.9,-0.6 -1,-1.2c-0.1,-0.9 0.1,-1.9 0.6,-2.7c0.5,-0.7 1.7,-1.1 2.5,-0.7c0.5,0.3 0.7,0.7 0.7,1.7zm-0.8,0c0,-0.4 0,-0.9 -0.5,-1.1c-0.5,-0.1 -1,0 -1.3,0.5c-0.4,0.5 -0.5,1.2 -0.5,1.8c0,0.5 -0.1,0.9 0.5,1.1c0.6,0.1 1,-0.1 1.3,-0.6c0.3,-0.5 0.5,-1.1 0.5,-1.7zm-36.2,2.9c-1.1,0 -1.6,-0.5 -1.6,-1.5c0,-0.9 0.2,-1.7 0.7,-2.4c0.3,-0.4 0.7,-0.7 1.2,-0.8c0.6,-0.1 1.2,-0.1 1.6,0.4c0.4,0.6 0.3,1.2 0.1,1.8c-0.1,0.3 -0.3,0.3 -0.6,0.3l-1.5,0c-0.3,0 -0.7,-0.1 -0.7,0.4s0.1,0.9 0.7,1c0.3,0.1 0.7,0 1,-0.1c0.2,-0.1 0.5,-0.2 0.6,0.1c0.1,0.3 -0.2,0.4 -0.4,0.5c-0.4,0.3 -0.8,0.4 -1.1,0.3zm0.4,-2.6c0.3,-0.2 0.8,0.2 1,-0.3c0.1,-0.4 0.1,-0.7 -0.2,-0.9c-0.4,-0.3 -0.8,-0.1 -1.1,0.1c-0.3,0.2 -0.7,0.6 -0.6,1c0.1,0.2 0.5,0 0.9,0.1zm43.2,2.6c-1.1,0 -1.7,-0.5 -1.7,-1.5c0,-0.8 0.2,-1.5 0.6,-2.2c0.5,-0.7 1.2,-1.1 2.1,-1c0.5,0 0.9,0.3 1.1,0.8c0.2,0.6 0,1.1 -0.3,1.6c-0.1,0.2 -0.3,0.2 -0.5,0.2l-1.5,0c-0.3,0 -0.8,-0.1 -0.7,0.5c0,0.5 0.1,0.9 0.7,0.9c0.4,0.1 0.7,0 1,-0.1c0.2,-0.1 0.4,-0.1 0.5,0.1c0.1,0.2 0,0.4 -0.2,0.5c-0.4,0.2 -0.8,0.3 -1.1,0.2zm0.4,-2.6c0.3,-0.1 0.7,0.2 0.9,-0.2c0.2,-0.3 0.2,-0.7 -0.1,-1c-0.3,-0.3 -0.7,-0.2 -1.1,0c-0.4,0.2 -0.7,0.6 -0.7,1c0.1,0.4 0.5,0.1 0.8,0.2l0.2,0zm-63.9,-3.6l1.2,0c0.2,0 0.6,-0.1 0.5,0.3c0,0.3 -0.3,0.3 -0.6,0.3l-1.6,0c-0.4,0 -0.6,0.2 -0.7,0.6c-0.1,0.3 -0.1,0.7 -0.2,1c-0.1,0.4 0.1,0.6 0.5,0.6l1.1,0c0.2,0 0.6,-0.1 0.5,0.3c0,0.3 -0.3,0.3 -0.6,0.3l-1.3,0c-0.4,0 -0.6,0.2 -0.7,0.5c-0.1,0.6 -0.2,1.1 -0.4,1.7c-0.1,0.3 -0.2,0.5 -0.5,0.4c-0.4,-0.1 -0.2,-0.4 -0.2,-0.6c0.3,-1.7 0.7,-3.3 1,-5c0.1,-0.4 0.3,-0.6 0.7,-0.6c0.5,0.2 0.9,0.2 1.3,0.2zm9.4,2.3l-1.6,0c-0.2,0 -0.4,0 -0.4,-0.3s0.2,-0.3 0.4,-0.3l2.2,0c0.4,0 0.5,0.3 0.2,0.7c-0.7,0.8 -1.4,1.5 -2.1,2.3c-0.2,0.3 -0.5,0.5 -0.9,0.9l1.8,0c0.2,0 0.5,0 0.5,0.2c0,0.3 -0.2,0.4 -0.4,0.4l-2.4,0c-0.4,0 -0.5,-0.3 -0.2,-0.7c0.6,-0.7 1.3,-1.4 1.9,-2.2l1,-1zm40.6,2.8c0.6,-1 1.1,-2 1.6,-2.9c0.1,-0.1 0.2,-0.3 0.3,-0.4c0.2,-0.2 0.4,-0.3 0.7,-0.2c0.3,0.2 0,0.4 -0.1,0.5l-2.1,3.6c-0.2,0.3 -0.4,0.5 -0.7,0.4c-0.4,0 -0.4,-0.4 -0.4,-0.6c-0.2,-1.1 -0.4,-2.2 -0.5,-3.4c0,-0.2 -0.1,-0.5 0.3,-0.6c0.4,-0.1 0.5,0.2 0.5,0.5c0.1,1.1 0.2,2 0.4,3.1zm9.5,1.1c-1.1,0 -1.6,-0.6 -1.6,-1.6c0,-0.6 0.2,-1.3 0.5,-1.8c0.5,-1 1.6,-1.5 2.7,-1.2c0.2,0.1 0.4,0.1 0.4,0.4c-0.1,0.2 -0.3,0.3 -0.5,0.3c-1.5,-0.1 -2.5,1.1 -2.2,2.6c0.1,0.4 0.3,0.7 0.8,0.7l0.7,0c0.2,0 0.4,0 0.4,0.2c0.1,0.2 -0.1,0.3 -0.3,0.4c-0.4,0.1 -0.6,0 -0.9,0zm-19.2,-3.9c-0.6,0 -1.2,0.4 -1.3,1c-0.2,0.8 -0.3,1.6 -0.5,2.3c-0.1,0.3 -0.2,0.6 -0.5,0.5c-0.4,-0.1 -0.3,-0.4 -0.2,-0.6c0.2,-1.1 0.5,-2.2 0.7,-3.3c0.1,-0.5 0.3,-0.8 0.8,-0.5c0.2,0.1 0.4,0 0.5,-0.1c0.3,-0.1 0.5,-0.2 0.8,-0.1c0.2,0.1 0.5,0.1 0.4,0.4c-0.1,0.3 -0.3,0.4 -0.6,0.4l-0.1,0zm22.9,-1.5c0.1,-0.1 0.1,-0.2 0.2,-0.2c0.1,-0.1 0.3,-0.2 0.4,-0.3c0.8,-0.6 1.2,-0.5 1.7,0.3c0.1,0.1 0.1,0.3 0,0.4c-0.1,0.1 -0.3,0.2 -0.4,0.1c-0.5,-0.6 -1,-0.3 -1.5,0c-0.1,0 -0.3,-0.1 -0.4,-0.3z" fill="#424242"/>
  </svg>