<svg  id="fndm-8gn6sz2kjx" viewBox="75 85 450 80.99993133544922" xmlns="http://www.w3.org/2000/svg">
   <g xmlns="http://www.w3.org/2000/svg" transform="translate(75 85)" fill="none">
    <path d="m160,2l0,76l-15.839,0l0,-34.454l-41.321,0l0,34.454l-15.84,0l0,-76l15.839,0l0,29.675l41.322,0l0,-29.675l15.839,0zm73.614,51.613l0.38,-0.078c0.153,-11.249 -2.892,-20.015 -9.06,-25.99c-9.44,-9.231 -23.067,-8.533 -23.22,-8.533c-11.876,-0.155 -20.936,3.103 -26.95,9.775c-9.06,10.086 -7.69,24.67 -7.69,24.826l0,0.078c0,0.232 0.609,27.308 33.422,27.308c0.457,0 25.961,0.466 31.9,-19.473l0.152,-0.465l-15.988,0l-0.076,0.233c0,0.077 -4.187,8.223 -15.912,8.223l-0.304,0c-2.97,0 -17.74,-0.776 -18.196,-15.749l0.076,-0.077l51.466,0l0,-0.078zm-51.618,-9.31c0.457,-2.793 3.274,-14.895 18.12,-14.818l0.456,0c14.846,0 17.663,12.103 18.12,14.818l-36.696,0zm59.004,-44.303l15,0l0,78l-15,0l0,-78zm87.988,49.362c-1.636,-31.56 -30.456,-29.695 -30.456,-29.695c-14.878,0 -20.33,6.919 -21.966,9.717l0,-29.384l-14.566,0l0,77.814l14.566,0l0,-7.618c7.166,10.494 22.277,9.794 22.277,9.794c31.702,-0.622 30.145,-30.628 30.145,-30.628zm-33.884,19.201s-14.8,1.244 -18.538,-13.37l0,-10.263c0.857,-4.353 4.362,-13.914 18.616,-13.914c18.46,0 18.616,16.557 18.694,19.356c0,-0.078 0.624,18.112 -18.772,18.19l0,0.001zm154.896,-48.156l0,14.937c-26.543,-6.006 -26.696,14.167 -26.696,14.552l0,28.104l-14.304,0l0,-56.13l14.304,0l0,11.164c8.72,-16.554 26.696,-12.627 26.696,-12.627zm-48.018,29.099c-1.158,-30.263 -30.736,-30.572 -34.365,-30.495c-2.317,-0.077 -33.361,-0.542 -34.597,30.495c0,0 -2.008,30.262 34.21,30.494l0.464,0c36.219,-0.232 34.288,-30.494 34.288,-30.494zm-34.365,19.349l-0.077,0c-20.156,-0.465 -19.538,-19.427 -19.538,-19.427c1.158,-20.355 19.538,-18.962 19.538,-18.962l0.154,0s18.38,-1.47 19.538,18.962c-0.154,0.078 0.54,19.04 -19.615,19.427z" fill="#07254E"/>
    <ellipse ry="39" rx="39.5" fill="#07254E" cy="39" cx="39.5"/>
    <path d="m32,58l13,0l-13,0z" fill="#FF4C2E"/>
    <path d="m72.844,58.845l-66.22,0l33.109,-58.302l33.111,58.302z" fill="#FFF"/>
    <path d="m56.094,32.217l0,25.23l-9.582,0l0,-20.34l-13.556,6.367l0,13.973l-9.66,0l0,-25.23l9.66,-16.924l0,18.321l13.556,-6.365l0,-11.956l9.582,16.924z" fill="#07254E"/>
   </g>
  </svg>