<svg xmlns="http://www.w3.org/2000/svg" viewBox="0.000010000000656873453 0.00014000000373926014 222 111"><g xmlns="http://www.w3.org/2000/svg" fill="none" fill-rule="evenodd"><g transform="translate(0.000010, 0.000140)"><rect width="222" height="111"/><g transform="translate(37.425840, 28.007260)"><path fill="#104D7F" d="m8.92675,23.87549l27.04566,0l0,19.57124l8.63008,0l0,-43.18464l-8.63008,0l0,16.80607l-27.04566,0l0,-16.80607l-8.62974,0l0,34.83045c0,4.74475 4.37003,8.38992 8.62974,8.35419l0,-19.57124zm47.16323,-17.3493l13.85347,0c2.90719,0 7.3482,0.43458 8.64354,3.41409c1.60815,3.69865 0.16919,7.67111 -4.3105,7.67111l-18.18651,0l0,-11.0852zm25.63494,13.63147c5.45717,1.20183 8.91801,5.78949 8.4027,11.29273c-0.80491,8.59241 -6.93312,12.6799 -17.08559,11.99608l-16.95205,0l-2.76558,0l-5.86417,0l0,-43.18438l5.86417,0l2.76558,0l17.44382,0c6.52007,0 13.838,1.00438 14.14711,9.25201c0.22671,6.04513 -1.93173,9.1945 -5.63745,10.53054l-0.31854,0.11302zm-8.4175,17.02471c3.9442,-0.31787 5.72525,-1.13658 6.82179,-3.65863c0.73866,-1.69897 1.01212,-4.35995 0.05315,-6.06228c-0.78339,-1.39187 -2.6048,-2.92704 -4.58699,-3.58597l-19.50539,0l0,13.30688l17.21744,0z"/><path fill="#727376" d="m101.25251,6.52619l0,13.49726l17.79667,0c5.37946,0 6.88133,-6.38654 5.27519,-10.08317c-1.29332,-2.97716 -5.73635,-3.41409 -8.6432,-3.41409l-14.42866,0zm-8.62974,-6.2641l6.43934,0l2.1904,0l18.01867,0c6.52041,0 13.52686,1.63001 14.57295,8.61393c0.66937,4.46994 0.93274,10.24497 -7.18237,13.5938c3.74844,1.00237 6.33575,3.66435 6.52613,7.24258c0.24352,4.57556 -0.12311,10.55308 1.67072,13.81009l-9.14775,0c-3.59875,-4.16351 2.997,-17.07517 -9.00782,-17.07517l-15.45053,0l0,16.99915c-4.2597,0.03599 -8.62974,-3.60918 -8.62974,-8.35393l0,-34.83045z"/><circle cx="140.84574" cy="6.30225" r="6.30225" fill="#104D7F"/><polygon fill="#FEFEFE" points="140.84588 0.66034 143.41233 5.10539 145.97811 9.55043 140.84588 9.55043 135.71331 9.55043 138.27909 5.10539"/><polygon fill="#104D7F" points="139.5677 9.30926 139.5677 7.26955 141.72177 6.05124 141.72177 9.30926 143.264 9.30926 143.264 5.33176 141.72177 2.66036 141.72177 4.44342 139.5677 5.66173 139.5677 3.35629 138.02547 6.02769 138.02547 9.30926"/><path fill="#727376" fill-rule="nonzero" d="m135.82969,48.17608l-3.03535,3.92973l0,2.84362l-1.14431,0l0,-2.84362l-3.03602,-3.92973l1.3431,0l2.41005,3.12078l2.4124,-3.12078l1.05013,0zm-29.12438,6.77335l-1.14364,0l0,-5.60617l-2.60076,0l0,-1.16718l6.34449,0l0,1.16718l-2.60009,0l0,5.60617zm-21.941,-1.05416l0,1.05416l-5.35054,0l0,-6.77335l1.15675,0l0,5.71919l4.19379,0zm-52.26183,0.02018l0,1.03398l-5.8682,0l0,-6.77335l5.74576,0l0,1.00774l-4.60246,0l0,1.88633l3.64921,0l0,0.95729l-3.64921,0l0,1.88801l4.7249,0zm-31.44092,-2.75246l2.3643,0c0.62429,0 1.08948,-0.1073 1.39625,-0.31955c0.30642,-0.21426 0.46014,-0.47528 0.46014,-0.78373c0,-0.3108 -0.16314,-0.55096 -0.48773,-0.72284c-0.32459,-0.17121 -0.7326,-0.25766 -1.22772,-0.25766l-2.50524,0l0,2.08378zm5.46019,3.78644l-1.19174,0l-1.66533,-2.93477l-2.60312,0l0,2.93477l-1.06156,0l0,-6.77335l3.57151,0c0.96872,0 1.6882,0.19845 2.15306,0.59267c0.46788,0.3959 0.70165,0.82779 0.70165,1.29601c0,0.36092 -0.13151,0.70771 -0.39287,1.03768c-0.26034,0.32997 -0.69224,0.56677 -1.29567,0.70939l1.78407,3.1376zm52.14107,0.03666l-1.23008,0l-0.64884,-1.6206l-3.11944,0l-0.63539,1.6206l-1.24757,0l2.69191,-6.808l1.46722,0l2.72219,6.808zm-2.27045,-2.60311l-1.18232,-3.03871l-1.18232,3.03871l2.36464,0z"/></g></g></g></svg>