<svg  id="fndm-qxwlownwej" viewBox="0.9369423985481262 0.12645816802978516 719.885009765625 175.52508544921875" xmlns="http://www.w3.org/2000/svg">
   <g xmlns="http://www.w3.org/2000/svg" fill="none">
    <path d="m581.19,67.69c10.68,0.85 16.2,10.16 12.18,19.45c-1.25,2.87 -3.67,4.57 -6.25,6.26c8.58,4.86 11.15,9.77 9.41,17.64c-1.67,7.58 -7.67,12.39 -16.61,12.71c-8.33,0.3 -16.67,0.07 -25,0.23c-2.28,0.04 -2.75,-0.82 -2.74,-2.9c0.07,-16.21 0.05,-32.42 0.02,-48.63c-0.01,-3.09 1.24,-5.06 4.45,-5.07c8.18,-0.02 16.4,-0.34 24.54,0.31zm0.93,31.18c-4.75,-1.43 -9.62,-0.6 -14.43,-0.69c-7.43,-0.135 -7.71,-0.047 -7.72,6.656l0,1.796c0.009,9.104 0.266,10.133 7.896,10.154l0.544,0c0.835,-0.002 1.752,-0.013 2.76,-0.026c3.17,0 6.37,0.25 9.5,-0.05c4.72,-0.47 7.77,-3.85 8.02,-8.34c0.28,-4.94 -1.88,-8.09 -6.57,-9.5zm-1.55,-24.44c-4.35,-1.01 -8.73,-0.58 -13.09,-0.63a200.44,200.44 0 0 0 -1.566,-0.015l-0.47,0c-5.246,0.012 -5.464,0.69 -5.474,6.815l0,1.717c0.01,8.682 0.312,8.869 9.773,8.873l0.637,0c3.25,-0.24 7.01,0.38 10.74,-0.82c4.24,-1.38 5.44,-4.56 5.31,-8.4c-0.13,-3.75 -1.74,-6.59 -5.86,-7.54z" fill="#111328"/>
    <path d="m127.47,79.35c-0.44,1.27 -1.36,2.1 -2.51,2.72c-1.25,1.31 -2.6,2.53 -3.79,3.9c-1.62,2.84 -3.9,5.05 -6.57,6.9c-5,-0.64 -7.18,-4.71 -9.75,-8.19c-1.42,-1.91 -2.71,-3.91 -4.5,-5.51c-2.86,-3.09 -5.49,-6.44 -9.15,-8.67c-4.41,-2.68 -7.6,-5.87 -6.13,-11.67c0.43,-1.71 -0.23,-3.6 0.37,-5.36c0.03,-6.08 0.33,-12.14 1.83,-18.08c1.29,0.78 0.23,2.17 0.81,3.09c0.37,0.43 -0.4,0.64 0.1,0.31c0.57,-0.37 -0.41,-0.49 -0.23,-0.88c0.07,-0.41 0.26,-0.73 0.56,-0.99c2.16,-2.29 4.04,-3.2 5.08,0.91c0.18,0.72 0.76,1.43 1.43,1.7c5.09,2.04 8.09,7.09 13.29,9.04c2.55,0.95 4.35,3.17 6.27,5.08c3.19,3.16 5.87,6.86 9.86,9.18c1.05,0.61 1.97,1.61 2.21,2.78c0.62,3.01 2.83,3.99 5.39,4.67c2.07,2.94 -1.2,4.06 -2.33,5.52c-0.89,1.14 -1.58,2.3 -2.24,3.55z" fill="#1995D3"/>
    <path d="m173,93.79c0,-8.78 0.2,-17.57 -0.09,-26.35c-0.13,-3.86 1.92,-3.56 4.48,-3.58c2.51,-0.03 4.26,-0.04 4.1,3.45c-0.3,6.35 0,12.72 -0.13,19.08c-0.05,2.36 0.71,3.17 3.1,3.14c8.18,-0.12 16.36,-0.15 24.54,0.01c2.79,0.06 3.22,-1.12 3.17,-3.5c-0.12,-6.21 0.19,-12.43 -0.12,-18.62c-0.2,-3.92 2.07,-3.5 4.57,-3.54c2.59,-0.04 4.51,-0.25 4.46,3.58c-0.21,17.72 -0.21,35.44 -0.01,53.15c0.04,3.69 -1.92,3.42 -4.26,3.32c-2.24,-0.1 -4.94,0.96 -4.76,-3.26c0.3,-6.95 0.01,-13.93 0.12,-20.89c0.04,-2.28 -0.55,-3.21 -3.02,-3.16c-8.18,0.14 -16.36,0.16 -24.54,-0.01c-2.69,-0.05 -3.31,0.91 -3.25,3.4c0.15,6.66 -0.12,13.33 0.12,19.99c0.11,3.12 -0.65,4.28 -3.93,4.04c-2.72,-0.2 -4.82,0.19 -4.65,-3.88c0.35,-8.79 0.1,-17.58 0.1,-26.37zm104.63,-22.58c-0.3,12.68 1.18,25.43 -0.77,38.04c-1.68,10.82 -8,15.95 -18.17,15.69c-10.55,-0.27 -16.89,-6.17 -18.21,-17.04c-0.46,-3.76 -0.29,-7.49 0.69,-11.21c3.38,-12.93 18.52,-17.62 29.4,-8.11c0,-6.04 0.08,-11.3 -0.04,-16.56c-0.05,-2.27 0.97,-3.07 3,-2.73c0.45,0.077 0.997,0.005 1.544,-0.054l0.252,-0.026c1.215,-0.114 2.35,-0.043 2.304,2zm-19.14,18.69c-3.33,-0.34 -6.22,1.51 -8.44,4.36c-3.3,4.23 -3.43,14.53 -0.42,19.08c4.12,6.23 13.37,7.05 18.02,1.6c4.18,-4.9 4.41,-15.8 0.43,-20.85c-2.31,-2.92 -5.31,-4.4 -9.59,-4.19z" fill="#121429"/>
    <path d="m130.18,129.28c11.08,7.21 14.21,18.34 8.64,30.7c-5.54,12.29 -17.18,18.09 -29.58,14.73l-0.016,-0.01l-0.26,0.028c-0.943,0.064 -1.79,-0.245 -2.62,-0.625l-0.496,-0.234l-0.248,-0.119l-0.006,-0.01l-0.004,0.02l-1.01,-0.45l-1.31,-0.616c-1.195,-0.572 -2.356,-1.202 -3.28,-2.214c-1.15,-0.39 -2.06,-1.05 -2.58,-2.18l0,-0.007l-0.312,-0.18c-2,-1.219 -3.251,-3.082 -4.268,-5.143l-1.44,-1.595c-1.713,-1.925 -3.313,-3.928 -4.08,-6.495l0,-0.026l-0.01,0.026c-1.44,-1.493 -2.414,-3.244 -3.271,-5.061l-0.388,-0.843l-0.622,-1.393c-0.577,-1.293 -1.166,-2.58 -1.889,-3.793c-0.46,-0.45 -0.75,-1.14 -0.21,-1.5c1.676,-1.132 16.79,2.208 16.87,1.89c3.17,-0.85 6.38,-1.37 9.67,-1.09c0.373,0.133 0.684,0.34 0.933,0.63l-0.103,0.05c0.61,-0.29 1.23,-0.58 1.84,-0.88l0.559,0.035c0.378,-0.33 0.797,-0.611 1.231,-0.875l0.303,-0.149c0.857,-0.406 3.746,-2.338 5.101,-2.082l0.096,-0.119l0.57,-0.534l0.24,-0.211c0.723,-0.614 1.507,-1.035 2.575,-0.568l0.055,-0.107c0.316,-0.284 0.677,-0.512 1.046,-0.731l0.443,-0.262c0.663,-0.395 1.299,-0.825 1.681,-1.567c0.532,-0.54 1.007,-1.137 1.466,-1.748l0.768,-1.039c1.068,-1.441 2.188,-2.837 3.916,-3.653zm-26.71,40.73c0.242,0.132 0.459,0.272 0.649,0.42a5.08,5.08 0 0 1 0.086,-0.414a3.12,3.12 0 0 1 -0.735,-0.006z" fill="#1996D3"/>
    <path d="m424.27,85.03c3.3,1.85 4.68,4.97 4.66,8.76c-0.03,8.64 0.07,17.28 -0.09,25.91c-0.007,0.313 0.064,0.689 0.143,1.084l0.048,0.24c0.263,1.325 0.463,2.775 -1.891,2.826a9.58,9.58 0 0 0 -0.827,0.066l-0.246,0.03l-0.249,0.03l-0.25,0.03l-0.25,0.029c-1.869,0.195 -3.625,0.037 -2.958,-3.945c-5.05,3.53 -9.84,5 -15.19,4.63c-6.03,-0.42 -9.77,-3.21 -10.88,-8.4c-1.18,-5.51 1,-10.21 5.96,-12.97c2.737,-1.516 5.715,-2.145 8.719,-2.724l1.127,-0.217l0.564,-0.109c2.07,-0.41 4.24,-0.73 6.1,-1.65c1.62,-0.8 3.84,-1.65 3.47,-4.2c-0.34,-2.33 -1.91,-3.75 -4.09,-4.41c-4.68,-1.42 -8.97,-0.54 -12.85,2.41a7.791,7.791 0 0 0 -0.444,0.37l-0.324,0.292c-0.825,0.74 -1.663,1.388 -3.112,0.568c-3,-1.7 -3.23,-3.27 -0.57,-5.65c5.68,-5.1 16.93,-6.65 23.43,-3zm-2.19,18.83c-4.52,0.86 -8.86,1.47 -13.08,2.55c-3.81,0.99 -6.04,3.82 -5.35,7.76c0.74,4.22 4.45,4.51 7.86,4.33c7.3,-0.38 11.42,-6.02 10.57,-14.64z" fill="#121428"/>
    <path d="m651.8,85.18c2.79,1.78 4.44,4.47 4.44,7.94l0,14.06c0,4.69 0.02,9.38 -0.02,14.06c-0.002,0.173 0.007,0.362 0.016,0.557l0.01,0.235c0.033,0.986 -0.04,2.007 -1.516,1.788c-1.66,-0.25 -4.35,1.68 -4.86,-1.33c-0.343,-2.036 -1.012,-1.842 -1.738,-1.35l-0.146,0.102c-0.245,0.174 -0.493,0.368 -0.736,0.508c-4.05,2.36 -8.4,3.27 -13.05,2.94c-5.53,-0.38 -9.21,-3.1 -10.46,-7.8c-1.42,-5.36 0.6,-10.36 5.34,-13.27c3.31,-2.03 7.07,-2.53 10.76,-3.3c2.21,-0.46 4.46,-0.91 6.53,-1.76c1.58,-0.66 3.48,-1.49 3.34,-3.8c-0.15,-2.41 -1.6,-3.89 -3.78,-4.59c-4.8,-1.56 -9.44,-0.98 -13.2,2.35c-2.42,2.14 -3.87,1.44 -5.62,-0.44c-1.75,-1.874 -0.707,-2.831 0.444,-3.63l0.203,-0.14l0.203,-0.137l0.198,-0.136c0.227,-0.158 0.44,-0.315 0.612,-0.477c5.12,-4.78 17.26,-6.05 23.03,-2.38zm-2.4,18.68c-4.75,0.93 -9.23,1.55 -13.55,2.73c-3.64,0.99 -5.44,3.93 -4.92,7.61c0.49,3.5 3.56,4.11 6.51,4.3c7.92,0.5 13,-5.63 11.96,-14.64z" fill="#111428"/>
    <path d="m51.81,73.39l3.614,0.31c0.602,0.052 1.204,0.102 1.806,0.15c0.91,1.049 0.517,1.742 -0.15,2.235l-0.19,0.13l-0.197,0.12l-0.201,0.111l-0.202,0.104c-0.663,0.33 -1.31,0.693 -1.95,1.069l-0.958,0.57l-0.955,0.573c-1.754,1.045 -3.536,2.033 -5.557,2.548c-0.13,0.04 -0.26,0.081 -0.39,0.124c-0.27,0.853 -0.869,1.48 -1.523,2.065l-0.677,0.594c-0.367,0.324 -0.723,0.655 -1.02,1.027c-0.293,0.263 -0.535,0.59 -0.762,0.932l-0.479,0.746l-0.197,0.29c-0.538,0.761 -1.194,1.378 -2.41,1.312c0.059,0.066 0.115,0.144 0.168,0.23c0.361,1.157 0.06,2.189 -0.348,3.204l-0.362,0.868l-0.09,0.218c-2.21,5.41 -2.53,10.94 -1.3,16.66l0.092,0.406l0.304,1.224l0.091,0.402c0.284,1.342 0.354,2.71 -0.677,3.998l-2.605,0.963l-1.292,0.465l-0.862,0.302l-0.862,0.293c-0.144,0.049 -0.288,0.096 -0.432,0.143l-0.864,0.278c-6.199,1.947 -12.497,2.935 -19.203,0.306c-4.74,-1.86 -8.36,-4.64 -9.26,-10c-0.96,-3.07 -1.54,-6.15 -0.13,-9.27c0.441,-6.845 3.923,-11.9 8.663,-16.1l0.64,-0.554l0.653,-0.545c0.33,-0.27 0.665,-0.537 1.004,-0.801c9.245,-7.197 19.895,-8.51 30.886,-8.186l1.138,0.039l1.14,0.05l1.142,0.06l1.144,0.067c1.208,0.076 2.414,0.17 3.62,0.27z" fill="#6FB6E5"/>
    <path d="m327.84,83.63c7.19,1.24 13.13,7.53 14.22,15.19c0.32,2.09 0.35,4.22 0.44,5.58c-0.79,16.44 -14.09,24.82 -27.94,18.36c-2.39,-1.12 -4.33,-2.66 -5.79,-4.9c-5.25,-8.07 -5.4,-16.63 -1.64,-25.09c3.36,-7.56 11.4,-10.74 20.71,-9.14zm-3.67,5.9c-4.77,-0.11 -8.8,1.77 -10.74,6.21c-2.39,5.47 -2.46,11.27 0.19,16.73c1.93,3.98 5.48,6.07 9.93,6.05c4.43,-0.02 7.75,-2.03 9.88,-6.09c1.4,-2.66 1.61,-5.47 1.79,-8.17c-0.09,-2.75 -0.26,-5.34 -1.34,-7.72c-1.88,-4.18 -4.95,-6.9 -9.71,-7.01z" fill="#121429"/>
    <path d="m660.67,115.8c3.83,-0.38 7.07,-0.4 10.32,1.63c3.05,1.92 6.76,1.51 10.19,0.7c2.11,-0.5 3.83,-1.76 4.25,-4.21c0.45,-2.62 -1.18,-3.88 -3.08,-5c-3.85,-2.27 -8.27,-2.83 -12.46,-4.09c-6.99,-2.1 -9.56,-5.03 -9.29,-10.91c0.24,-5.26 3.98,-9.22 10.37,-10.24c6.04,-0.97 12.13,-1.2 16.9,3.8c1.42,1.49 3.92,3.61 2.34,5.15c-1.54,1.52 -4.88,1.51 -7.03,-0.48c-3.59,-3.31 -7.64,-3.2 -11.88,-1.83c-1.61,0.52 -3.04,1.45 -3.41,3.31c-0.4,2.02 1.1,2.99 2.39,4.03c1.84,1.46 4.06,1.93 6.29,2.43c2.95,0.66 5.94,1.24 8.78,2.25c4.25,1.52 7.42,4.26 7.59,9.17c0.17,5.11 -1.73,9.16 -6.65,11.33c-6.75,2.97 -13.54,2.78 -20.2,-0.16c-2.7,-1.19 -4.46,-3.48 -5.42,-6.88z" fill="#121428"/>
    <path d="m450.54,125.04c-6.39,-0.59 -11.82,-1.19 -14.93,-6.77c-1.02,-1.83 -1.01,-2.8 1.44,-2.7c2.39,0.1 4.64,-0.02 6.92,1.46c3.63,2.36 7.84,1.92 11.88,0.89c2.13,-0.54 3.24,-2.17 3.61,-4.24c0.38,-2.12 -0.91,-3.4 -2.53,-4.4c-4.34,-2.7 -9.4,-3.23 -14.15,-4.71c-6.53,-2.02 -8.91,-5.66 -7.94,-12.22c0.11,-0.74 0.24,-1.52 0.58,-2.17c3.04,-5.74 8.38,-7.07 14.23,-7.03c5.97,0.04 11.57,1.09 14.36,7.4c0.33,0.74 1.24,2.07 0.19,2.32c-2.4,0.58 -5.02,1.27 -7.22,-0.85c-3.38,-3.26 -7.39,-3.01 -11.46,-1.83c-1.76,0.51 -3.5,1.36 -3.77,3.48c-0.31,2.38 1.43,3.52 3.18,4.48c4.73,2.6 10.36,2.13 15.2,4.47c6.76,3.26 8.85,9.92 4.92,16.21c-1.71,2.75 -4.37,4.22 -7.32,5.01c-2.61,0.73 -5.35,0.92 -7.19,1.2z" fill="#121429"/>
    <path d="m362,115.19c3.13,-9.58 6.2,-19.04 9.34,-28.49c0.53,-1.59 0.55,-3.48 3.2,-3.66c5.18,-0.35 5.52,-0.05 3.79,4.83c-3.84,10.82 -7.68,21.65 -11.4,32.51c-0.8,2.34 -1.55,3.89 -4.58,3.66c-2.81,-0.22 -5.12,0.01 -6.33,-3.46c-3.82,-10.99 -8.05,-21.83 -11.91,-32.8c-0.46,-1.31 -2.92,-3.72 -0.14,-4.4c2.42,-0.6 5.94,-1.8 7.34,2.75c2.57,8.38 5.62,16.6 8.53,24.87c0.5,1.37 0.62,2.98 2.16,4.19z" fill="#131428"/>
    <path d="m69.62,91.34c1.32,5.8 -1.63,10.11 -4.97,14.29c-5.69,1.84 -11.4,3.63 -17.06,5.54c-1.86,0.633 -3.873,0.998 -5.447,2.309l-0.273,0.241c-2.41,0.53 -2.64,-1.11 -3.01,-2.85c-1.93,-9.07 -0.15,-17.37 5.01,-25.01l0.002,-0.008l0.008,0.008c0.55,-0.37 1.11,-0.73 1.67,-1.09c0.119,0.004 0.235,0.002 0.349,-0.005c7.368,4.05 14.954,7.382 23.721,6.575zm9.92,-13.81c2.19,0.386 1.553,1.762 0.734,2.966l-0.142,0.204c-0.047,0.068 -0.095,0.134 -0.142,0.2l-0.014,0.013c-2.84,0.403 -5.301,1.543 -7.166,3.797a5.958,5.958 0 0 0 -0.836,0.587c-0.943,-0.005 -1.79,-0.413 -2.616,-0.847l-0.418,-0.22c-2.52,-1.32 -4.95,-2.68 -8.02,-2.33c-1.55,0.18 -2.94,-0.78 -3.52,-2.32c-0.526,-1.388 0.339,-2.081 1.274,-2.706l0.366,-0.242l0.24,-0.162c0.6,-0.26 1.25,-0.41 1.77,-0.83c6.39,-1.66 12.39,0.83 18.49,1.89z" fill="#6FB6E5"/>
    <path d="m70.08,89.25l-0.06,1.79c-0.21,0.06 -0.42,0.09 -0.63,0.1c-1.58,1.33 -2.13,2.51 -5.49,1.73c-4.19,-0.97 -7.65,-4.11 -12.28,-3.84c-2.43,0.14 -5.59,-0.67 -6.07,-4.27c0.88,-0.66 1.77,-1.32 2.65,-1.98c8.44,-1.73 15.48,1.29 21.88,6.47z" fill="#6FB6E5"/>
    <path d="m70.08,89.25c-3.3,-0.23 -5.35,-3.1 -8.59,-3.84c-4.41,-1.01 -8.66,-2.7 -13.29,-2.62c3.34,-3.24 7.3,-5.27 11.86,-6.13c-1.54,1.64 -3.32,4.43 0.46,4.07c5.04,-0.47 8.14,2.94 12.28,3.97c-0.76,1.61 -1.34,3.32 -2.72,4.55z" fill="#6FB6E5"/>
    <path d="m504.44,84.57c0.088,0.004 0.177,0.007 0.265,0.009l0.265,0.006c1.184,0.03 2.261,0.109 2.2,1.955c-0.29,9.19 0.85,18.44 -1.07,27.54c-1.56,7.41 -5.41,10.56 -12.48,10.61c-7.67,0.06 -11.91,-3.2 -13.67,-10.51c-2.69,-11.18 3.86,-20.23 14.11,-19.53c2.62,0.19 4.9,1.26 7.81,3.32c0,-4.35 0.06,-7.81 -0.02,-11.27c-0.05,-1.97 1.05,-2.2 2.59,-2.13zm-11.01,14.72c-5,-0.03 -8.49,4.07 -8.64,10.17c-0.15,5.88 3.75,10.72 8.64,10.72c5.08,0.01 8.36,-3.97 8.43,-10.21c0.07,-6.53 -3.18,-10.64 -8.43,-10.68z" fill="#13152A"/>
    <path d="m88.3,37.41l0,0.91c0.28,0.2 0.37,0.4 0.28,0.61c-0.09,0.2 -0.18,0.3 -0.28,0.3c-1.36,-1.01 -0.73,-2.55 -1.03,-3.84c-0.44,-3.92 0.99,-7.67 1.06,-11.55c1.36,-2.3 3.46,-1.45 5.28,-1.06c11.66,2.52 22.7,6.51 32.3,13.84c3.33,3.5 7.18,6.53 9.77,10.71c2.48,4.01 4.66,8.11 4.35,13.04c0.16,2.72 0.24,5.41 -2.57,7.05c-2.46,-0.01 -0.94,-2.23 -1.76,-3.15c-0.43,-2.5 -3.1,-4.21 -2.53,-7.08c-1.83,2.39 -3.92,1.81 -4.69,-0.53c-1.15,-3.51 -5.16,-4.66 -6.03,-8.23c-0.18,-0.73 -1.14,-0.98 -1.92,-0.98c-2.99,0.01 -4.23,-1.18 -3.16,-4.24c0.42,-1.21 -0.59,-1.65 -1.37,-2.43c-4.55,-4.58 -10.95,-3.75 -16.34,-5.81c-2.05,-0.79 -4.74,-0.57 -1.59,-3.63c0.74,-0.72 0.73,-2.39 -1.64,-2.39c-2.85,0.01 -5.55,-1.17 -5.96,3.54c-0.08,1.02 -0.66,3.63 -2.17,4.92z" fill="#1993CD"/>
    <path d="m100.84,10.03c1.63,3.57 4.11,5.91 8.3,5.89c0.77,0 1.82,0.29 2.01,0.87c1.48,4.33 6.48,4.87 8.74,8.24c1.65,2.47 4.65,2.63 6.83,4.43c4.61,3.81 9.26,7.48 13.23,12.01a34.22,34.22 0 0 0 1.748,1.822l0.777,0.76c2.245,2.195 4.426,4.429 4.895,7.888c-1.24,2.52 -2.22,5.2 -3.77,7.51c-2.021,3.017 -2.149,0.373 -2.565,-1.081l0.005,-0.009c-1.56,-9.47 -7.11,-16.31 -14.47,-21.95l-0.008,0.007c-8.959,-7.937 -19.897,-11.673 -31.074,-14.923l-1.398,-0.404c-0.4,-0.115 -0.875,-0.15 -1.352,-0.195l-0.26,-0.027c-1.208,-0.134 -2.339,-0.453 -2.168,-2.488l-0.002,0.01l0.012,-0.01c1.93,-2.34 2.64,-5.53 5.22,-7.4c1.78,-0.25 3.02,-3.46 5.3,-0.95z" fill="#1B8DC6"/>
    <path d="m523.91,94.32c8.41,0.06 13.5,5.85 13.49,15.36c-0.01,9.27 -5.31,15.03 -13.82,15.02c-8.83,-0.01 -13.88,-5.56 -13.96,-15.33c-0.08,-9.34 5.4,-15.11 14.29,-15.05zm-0.208,4.729l-0.262,0.001c-5.19,0.1 -8.51,4.1 -8.53,10.28c-0.02,6.4 3.42,10.8 8.51,10.86c5.04,0.06 8.81,-4.44 8.86,-10.59c0.05,-6.2 -3.67,-10.65 -8.84,-10.55l0.262,-0.001z" fill="#131529"/>
    <path d="m720.77,96.56c0,8.03 -0.08,16.05 0.05,24.07c0.04,2.46 -0.52,3.46 -3.2,3.39c-2.4,-0.07 -3.44,-0.46 -3.42,-3.21c0.13,-16.2 0.11,-32.4 0.02,-48.6c-0.02,-2.63 0.52,-3.75 3.47,-3.74c2.85,0.01 3.15,1.24 3.13,3.57c-0.11,8.17 -0.05,16.35 -0.05,24.52z" fill="#14152A"/>
    <path d="m282.55,114.08c-0.08,-5.44 0.13,-10.86 1.33,-16.2c2.02,-8.95 7.53,-13.81 16.61,-14.67c1.47,-0.14 3.47,-0.62 3.24,1.75c-0.19,1.95 1.64,4.64 -1.73,5.77c-11.17,3.74 -12.42,5.53 -12.47,17.45c-0.02,4.38 -0.16,8.78 0.05,13.15c0.14,2.96 -1.65,2.59 -3.48,2.61c-1.87,0.01 -3.74,0.27 -3.57,-2.61c0.13,-2.4 0.02,-4.83 0.02,-7.25z" fill="#13152A"/>
    <path d="m100.13,10.12c-1.88,-1.59 -2.69,2.58 -4.59,0.85c2.46,-3.64 5.95,-5.85 10.01,-7.29c10.2,4.83 19.74,10.79 28.5,17.84c4.89,3.93 9.25,8.58 13.51,13.25c2.09,2.29 3.49,4.85 3.36,8.06c-0.08,2 -1.19,3.64 -1.94,5.4c-7.66,-10.61 -17.26,-19.33 -27.62,-27.1c-4.36,-3.27 -9.74,-5.21 -13.93,-9.01c-1.94,-1.75 -5.03,-0.66 -7.3,-2z" fill="#1884BD"/>
    <path d="m601.26,110.26c0.17,-5.39 -0.4,-11.75 2.88,-17.67c3.33,-6.02 8.45,-8.8 15.03,-9.4c1.32,-0.12 3.18,-0.43 2.93,1.64c-0.24,1.97 1.76,5.37 -1.62,5.72c-10.81,1.12 -12.36,8.56 -12.53,17.17c-0.09,4.39 -0.22,8.79 0.02,13.17c0.16,2.88 -1.17,3.05 -3.47,3.12c-2.56,0.07 -3.46,-0.7 -3.29,-3.29c0.21,-3.17 0.05,-6.36 0.05,-10.46z" fill="#131429"/>
    <path d="m100.13,10.12c4.18,-0.57 7.97,-0.29 10.91,3.45c1.16,1.47 2.96,2.66 4.72,3.38c9.73,3.98 16.42,11.8 23.78,18.71c2.65,2.49 6.19,4.48 7.04,8.56c0.08,0.37 2.36,3.77 2.38,3.99c-0.34,1.32 -0.52,2.71 -1.59,3.72c-2.34,-4.31 -5.82,-7.95 -9.33,-11c-2.44,-2.13 -3.43,-6.65 -7.93,-6.31c-1.08,0.08 -1.68,-0.53 -1.32,-1.74c0.12,-0.41 0.23,-0.94 0.08,-1.31c-1.16,-2.8 -2.62,0.27 -4.13,-0.12c-2.67,-0.69 2.42,-3.91 -1.09,-3.19c-2.27,0.47 -3.37,-1.02 -4.07,-1.85c-1.68,-1.99 -2.78,-4.35 -6.01,-3.53c-0.17,0.04 -0.62,-0.22 -0.61,-0.33c0.28,-5.44 -3.71,-5.36 -7.43,-6.08c-3.23,-0.61 -4.64,-3.33 -5.4,-6.35z" fill="#1789C1"/>
    <path d="m698.81,103.01c0,-5.44 0.13,-10.88 -0.05,-16.32c-0.09,-2.69 0.62,-3.71 3.5,-3.68c2.69,0.03 3.28,0.98 3.26,3.45c-0.1,11.48 -0.15,22.97 0.03,34.45c0.04,2.91 -1.24,3.01 -3.5,3.09c-2.6,0.09 -3.36,-0.75 -3.29,-3.32c0.17,-5.88 0.05,-11.78 0.05,-17.67z" fill="#13152C"/>
    <path d="m234.81,103.38c0,5.9 -0.19,11.81 0.08,17.7c0.14,3.19 -1.64,2.77 -3.66,2.89c-2.28,0.14 -3.17,-0.44 -3.14,-2.95c0.13,-11.65 0.15,-23.31 0,-34.96c-0.04,-3 1.5,-2.93 3.67,-3.01c2.37,-0.09 3.17,0.66 3.11,3.07c-0.16,5.76 -0.06,11.51 -0.06,17.26z" fill="#121429"/>
    <path d="m384.04,103.79c0,-5.9 0.11,-11.8 -0.05,-17.69c-0.07,-2.46 0.83,-3.1 3.15,-3.05c2.23,0.04 3.65,0.13 3.61,3.06c-0.15,11.64 -0.13,23.29 0,34.94c0.03,2.53 -0.9,3.03 -3.15,2.94c-2.09,-0.09 -3.76,0.14 -3.63,-2.95c0.25,-5.74 0.07,-11.5 0.07,-17.25z" fill="#141528"/>
    <path d="m150.91,42.82c-3.18,-8.9 -11.08,-13.85 -17.19,-20.24c-6.01,-6.3 -14.78,-8.88 -21.33,-14.67c-1.9,-1.68 -5.78,-0.75 -6.85,-4.23c1.29,-1.02 2.79,-1.55 4.39,-1.85c8.63,0.47 14.05,7.12 20.24,11.56c7.69,5.52 16.15,10.78 20.98,19.61c0.08,0.15 0.24,-0.78 0.64,-1.04c0.4,-0.24 0.78,-0.23 1.15,0.03c0.36,3.81 -0.7,7.35 -2.03,10.83z" fill="#167FB8"/>
    <path d="m106.54,111.06l0.002,0.012l0.496,0.284c2.317,1.344 4.555,2.797 6.46,4.708l0.402,0.416l0.514,0.259c1.196,0.61 2.344,1.284 3.105,2.465l0.021,-0.004c0.76,0.64 1.524,1.271 2.29,1.9l1.15,0.94c1.717,0.837 3.226,1.962 4.682,3.155l0.869,0.723l1.368,1.152l0.471,0.39c-0.127,4.067 -2.803,7.135 -7.351,8.463c-0.053,1.683 -1.059,1.927 -2.436,1.597l0.037,-0.1c-0.825,2.347 -2.43,2.794 -4.533,1.997l0.003,0.113c-1.35,2.147 -3.23,2.539 -5.464,1.706l0.004,0.314c-0.055,0.255 -0.097,0.307 -0.184,0.326l-0.14,0.019a0.958,0.958 0 0 0 -0.306,0.105c-0.936,0.31 -1.92,0.239 -2.874,0.128l-0.849,-0.1a16.97,16.97 0 0 0 -0.277,-0.028a3.573,3.573 0 0 0 -0.824,0.047l-0.663,0.101c-0.52,0.072 -1.039,0.097 -1.479,-0.13l-0.004,0.012l-1.68,0.03c-1.16,0.91 -2.304,0.807 -3.448,0.522l-0.36,-0.095l-0.599,-0.168c-0.696,-0.195 -1.393,-0.371 -2.093,-0.339c-0.008,-0.005 -0.009,-0.002 -0.01,0a11.14,11.14 0 0 0 -1.344,-0.024l-1.086,0.044c-1.357,0.05 -2.703,0.015 -3.941,-0.86a3.764,3.764 0 0 0 -0.087,-0.204a4.519,4.519 0 0 1 -0.243,0.624c-2.35,1 -4.27,0.21 -5.98,-1.45c-2.245,-3.555 -3.525,-7.445 -4.618,-11.399l-0.34,-1.25l-0.531,-2.005c-0.547,-2.068 -1.1,-4.132 -1.771,-6.156c0.4,-1.05 1.2,-1.91 2.27,-1.81c3.67,0.36 7.24,-0.87 10.89,-0.53l0.076,0.787a4.58,4.58 0 0 1 0.344,-0.307l5.42,-2.04l0.003,0.023l0.007,-0.013a998.745,998.745 0 0 1 5.436,-3.163l0.054,-0.047l1.473,-0.746c0.324,-1.798 1.627,-2.574 3.327,-2.944c2,-0.08 3.27,1.06 4.34,2.55l0.001,0zm-28.49,-4.95c0.5,0.39 0.81,0.94 0.64,1.54c-0.928,3.292 0.367,4.99 3.53,5.561l0.23,0.039c1.15,0.19 2.37,0.43 3.15,1.49l-2.274,0.824l-0.505,0.178l-0.505,0.172l-0.505,0.163l-0.253,0.078l-0.505,0.148c-3.029,0.845 -6.053,0.967 -9.073,-1.613c-0.002,-0.148 0.004,-0.3 0.014,-0.454l0.031,-0.463c0.03,-0.463 0.037,-0.919 -0.125,-1.303c-1.453,-3.497 -0.006,-5.122 3.032,-5.806l0.414,-0.085a6.78,6.78 0 0 1 0.214,-0.039c0.73,-0.73 1.58,-0.8 2.49,-0.43z" fill="#80B5E1"/>
    <path d="m152.94,32c-0.31,-0.01 -0.63,-0.03 -0.94,-0.04c-3.7,-6.32 -9.5,-10.69 -14.87,-15.34c-4.4,-3.82 -9.1,-7.4 -14.23,-10.33c-2.24,-1.28 -4.39,-2.6 -6.98,-3.11c-1.19,-0.24 -2.89,-0.03 -3.03,-2c3.99,-1.08 8,-1.57 12.04,-0.29c2.91,1.75 6.18,2.67 9.11,4.53c3.48,2.22 6.54,4.82 9.6,7.51c1.87,1.64 3,4.07 5.93,4.61c2.03,0.37 1.6,2.95 2.57,4.37c1.23,0.51 0.98,1.53 0.88,2.5c0.48,2.52 0.62,5.04 -0.09,7.55l0.01,0.04z" fill="#0D71AA"/>
    <path d="m112.9,1.17c12.01,2.82 20.58,10.96 29.52,18.68c2.23,1.93 3.84,4.57 6.92,5.86c1.91,0.79 3.12,3.57 2.66,6.25l0,4.38c-4.27,-8.3 -11.16,-12.92 -17.48,-18.17c-5.28,-4.4 -11.71,-7.29 -16.31,-12.51c-1.15,-1.3 -2.47,-0.87 -3.71,-1.14c-1.86,-0.41 -3.59,-0.87 -4.58,-2.69c0.87,-0.8 1.92,-0.76 2.98,-0.66z" fill="#1078B1"/>
    <path d="m152.15,21.91c-5.85,-4.63 -10.68,-10.49 -17.03,-14.45c-3.85,-2.39 -7.37,-5.65 -12.3,-6.27c0.71,-0.1 1.42,-0.21 2.13,-0.31c11.35,1.85 21.93,4.86 26.68,17.08c0.52,1.35 0.64,2.59 0.52,3.95z" fill="#0E6BA2"/>
    <path d="m82.76,85.47c0.03,-1.18 0.05,-2.35 0.08,-3.53c2.21,-0.41 4.4,-1.02 6.68,-0.84c5.27,2.48 5.88,3.85 4.81,10.62c-0.54,1.32 -1.22,2.54 -2.56,3.23c-4.14,-2.08 -8.14,-4.3 -9.01,-9.48z" fill="#64AAD8"/>
    <path d="m82.76,85.47c1.97,4.09 6.32,5.86 9.03,9.24c0.66,1.03 0.02,1.79 -0.52,2.57c-2.45,2.34 -4.95,2.94 -7.52,0.18c-2.3,-3.36 -1.33,-7.26 -1.76,-10.92c0.25,-0.36 0.51,-0.72 0.77,-1.07z" fill="#68ABDB"/>
    <path d="m85.45,53.46c-0.88,7.76 0.83,13.93 8.65,17.83c2.89,1.44 5.89,4.2 6.94,7.95c-0.17,0.16 -0.33,0.32 -0.5,0.48c-0.86,0.43 -2.11,0.67 -2.57,0.05c-3.89,-5.29 -11.38,-6.98 -13.74,-13.76c0.08,-1.4 -0.31,-2.83 0.34,-4.18c0.07,-2.82 -0.29,-5.67 0.88,-8.37z" fill="#299BD4"/>
    <path d="m107.18,89.32l-0.88,-0.88c-2.91,-2.02 -5.63,-4.23 -7.5,-7.32c0.02,-1.5 1.54,-1.19 2.24,-1.87l0.02,-0.02c3.36,0.67 3.67,4.03 5.41,6.13c2.38,2.86 4.84,5.64 8.15,7.49c-0.34,1.92 -2.59,2.21 -3.29,3.83c-2.23,0.33 -2.68,-1.18 -3.04,-2.87c-0.33,-1.5 0.14,-3.21 -1.11,-4.49z" fill="#299BD4"/>
    <path d="m231.78,75.41c-2.78,0.57 -3.74,-0.3 -3.76,-3c-0.01,-2.7 1,-3.24 3.45,-3.24c2.43,0 3.53,0.47 3.43,3.22c-0.07,2.52 -0.58,3.89 -3.12,3.02z" fill="#1D1E2F"/>
    <path d="m387.29,75.43c-3.15,0.7 -3.2,-1.05 -3.34,-3.31c-0.19,-3.12 1.65,-2.75 3.69,-2.93c2.85,-0.25 3.08,1.17 3.16,3.48c0.09,2.98 -1.48,3.2 -3.51,2.76z" fill="#1E1E31"/>
    <path d="m702.56,69.27c2.95,-0.62 2.86,1.28 3,3.45c0.22,3.17 -1.77,2.68 -3.75,2.87c-2.91,0.28 -3,-1.28 -3.1,-3.52c-0.15,-3.14 1.72,-2.95 3.85,-2.8z" fill="#1F2133"/>
    <path d="m136.53,64.69c1.11,0.64 -0.64,2.26 0.94,2.74c-2.3,4.84 -6.46,8.12 -10,11.92c0.05,-1.63 -2.49,-4.2 1.91,-4.25c1.23,-0.01 2.08,-2.41 2.6,-4.03c-0.73,-3.73 1.34,-5.46 4.55,-6.38z" fill="#2397CE"/>
    <path d="m84.58,61.82c0.07,1.56 0.14,3.11 0.22,4.67c0.9,4.24 3.08,7.38 7.19,9.23c1.32,0.6 3.09,1.56 2.72,3.71c-2.67,1.63 -4.84,-0.95 -7.33,-0.87c-1.49,-0.2 -2.66,-0.93 -3.56,-2.11l0.02,0.05c-0.93,-3.01 -0.72,-6.03 -0.11,-9.06c0.59,-1.84 -0.33,-3.89 0.85,-5.62z" fill="#4EA2D5"/>
    <path d="m100.99,101.89c1.48,-1.55 2.97,-3.09 4.45,-4.64c1.52,-0.13 3.02,-0.2 4.08,1.22c-1.49,2.94 -5.27,3.61 -6.61,6.69c-0.32,-0.15 -0.63,-0.3 -0.95,-0.45c-1.02,-0.7 -1.89,-1.46 -0.97,-2.82z" fill="#56A4D5"/>
    <path d="m109.52,98.47c-1.4,-0.28 -3.05,0.31 -4.08,-1.22c0.96,-2.56 2.51,-4.99 1.74,-7.93c2.77,1.68 0.8,6.01 4.14,7.37c-0.6,0.59 -1.2,1.19 -1.8,1.78z" fill="#419FD1"/>
    <path d="m66.43,108.15c3.67,0 4.49,1.99 2.75,6.7c-1.46,-2.01 -4.66,-3.31 -2.75,-6.7z" fill="#A1C5DF"/>
    <path d="m152.93,31.96l0.09,-7.55c0.9,2.53 0.93,5.05 -0.09,7.55z" fill="#1078B1"/>
    <path d="m121.17,85.96c0.57,-1.97 1.9,-3.2 3.79,-3.9c-0.73,1.82 -1.96,3.15 -3.79,3.9z" fill="#339BCD"/>
    <path d="m136.53,64.69c-1.79,1.93 -4.05,3.52 -4.55,6.37c-3.51,0.04 -5.74,-1.04 -6.34,-5.09c-0.53,-3.57 -5.28,-3.31 -7.07,-6.52c-1.67,-2.99 -4.78,-5.34 -7.62,-7.47c-5.28,-3.95 -10.75,-7.66 -16.31,-11.21c-2.05,-1.31 -3.02,-2.81 -2.93,-5.45c-0.44,2.2 -1.56,2.85 -3.4,2.1c-1.17,-3.21 2.19,-5.56 1.64,-8.82c-0.19,-1.13 1.83,-2.01 3.25,-1.37c1.74,0.79 3.28,1.09 5.18,0.39c1.44,-0.53 0.73,-0.06 1.1,1.74c0.49,2.37 1.24,3.91 -2.38,3.7c5.3,2.2 10.69,2.04 15.63,4.04c2.03,0.82 3.01,2.77 5.44,3.39c2.18,0.55 0.43,3.56 -1.47,6.17c5.29,-1.54 6.77,0.46 8.54,4.08c0.94,1.93 3.56,3.58 4.76,6.22c1.03,2.27 2.08,0.46 2.41,-0.95c0.17,-0.72 -0.08,-1.62 1,-1.64c0.32,-0.01 0.96,0.68 0.91,0.77c-2.04,3.83 2.86,6.06 2.21,9.55zm-48.23,-25.46l0,-0.91c0.91,0.51 1.93,1 1.42,2.32c-0.12,0.31 -0.66,0.46 -1,0.68c-0.14,-0.7 -0.28,-1.4 -0.42,-2.09z" fill="#1695D1"/>
    <path d="m121.23,138.43c1.11,-0.75 2.22,-1.49 3.33,-2.24c-0.27,1.99 -1.73,2.21 -3.33,2.24z" fill="#319CD6"/>
    <path d="m71.14,93.1c1.23,-2.56 2.13,-5.34 4.19,-7.37c1.13,-1.11 2.5,-2.86 4.09,-2.32c1.65,0.56 0.43,2.68 0.85,4.05c-0.06,0.89 -0.36,1.84 -0.15,2.66c1.22,4.98 -0.29,6.75 -5.73,6.61c-3.44,-0.1 -3.68,-1.05 -3.25,-3.63z" fill="#74B0DC"/>
    <path d="m74.5,105.52c-1.5,-0.11 -3.49,0.78 -3.58,-2c-0.07,-2.12 0.16,-3.76 2.69,-4.43c2.83,-0.75 5.55,-1.29 8.29,0.19c0.77,0.59 1.4,1.27 1.49,2.3c-1.55,4.5 -5.62,3.31 -8.89,3.94z" fill="#83B7DF"/>
    <path d="m66.56,106.45c0.22,-1.13 0.13,-2.44 1.49,-2.94c0.14,-0.05 0.75,0.57 0.78,0.92c0.18,1.67 -0.96,1.99 -2.29,2.01l0.02,0.01z" fill="#93BCD1"/>
    <path d="m78.22,106.3c2.39,-0.79 4.51,-2.39 7.16,-2.4c0.87,0.28 1.63,0.72 2.12,1.53c0.91,0.34 1.83,0.69 2.74,1.03c0.72,1.86 3.54,3.07 1.75,5.7c-1.88,1.49 -4.16,1.97 -6.39,2.58c-0.9,-0.05 -1.83,0 -2.71,-0.18c-6.04,-1.23 -6.74,-2.51 -4.67,-8.26z" fill="#7AB3DF"/>
    <path d="m91.99,112.16c0.16,-1.99 -0.77,-3.18 -2.47,-4.25c-1.46,-0.92 -0.09,-1.22 0.72,-1.45c3.59,-0.41 7.43,-4.08 10.59,0.84c-2.94,1.62 -5.89,3.24 -8.84,4.86z" fill="#6DADD8"/>
    <path d="m96.47,86.52l-1.95,-3.39c-0.28,-0.48 -0.24,-0.94 0.11,-1.37c6.57,-0.19 11.07,5.17 10.11,12.03c-0.68,0.89 -1.35,1.79 -2.03,2.68c-3.57,0.26 -5.56,-1.51 -5.82,-5.2c-0.12,-1.59 0.55,-3.24 -0.42,-4.75z" fill="#4EA2D6"/>
    <path d="m96.47,86.52c1.46,1.11 0.6,2.78 1.02,4.13c0.85,2.69 1.67,5.5 5.21,5.82c-1.21,2.14 -3.64,2.93 -5.18,4.7c-0.91,-2.09 -1.94,0.72 -2.88,-0.07l0.01,0c-1.16,-0.98 -2.56,-1.84 -1.87,-3.75c0.6,-1.19 1.19,-2.39 1.79,-3.58c1.5,-2.19 2.14,-4.6 1.9,-7.25z" fill="#5FA7D8"/>
    <path d="m100.99,101.89c0.32,0.94 0.64,1.88 0.96,2.83c-1.05,-0.01 -2.08,-0.25 -2.3,-1.39c-0.15,-0.78 0.7,-1.13 1.34,-1.44z" fill="#69ABD5"/>
    <path d="m94.65,101.1c1,-1.49 1.94,-1.04 2.88,0.07c-0.74,1 -1.86,0.63 -2.84,0.78c0,-0.28 -0.01,-0.56 -0.04,-0.85z" fill="#71AED8"/>
    <path d="m99.11,81.24c-1.48,-0.67 -2.96,-1.35 -4.44,-2.02c-2.18,-1.73 -4.26,-3.49 -6.89,-4.69c-3.35,-1.53 -3.39,-4.84 -2.99,-8.05c3.03,5.14 9.68,6.36 12.57,11.65c0.83,1.51 2.36,1 3.66,1.12c-0.63,0.67 -1.27,1.33 -1.91,1.99z" fill="#3D9ED5"/>
    <path d="m92.79,97.36c0.62,1.25 1.24,2.5 1.87,3.75c-1.9,-0.45 -4.33,-0.49 -2.68,-3.59c0.27,-0.07 0.54,-0.13 0.81,-0.16z" fill="#71AED8"/>
   </g>
  </svg>