<svg  id="fndm-hsl815vug" viewBox="0.5903419256210327 0.6822967529296875 1239.971435546875 279.4412841796875" xmlns="http://www.w3.org/2000/svg">
   <g xmlns="http://www.w3.org/2000/svg" fill="#213A78">
    <path d="m0.75,138.59c-0.81,-11.78 1.59,-22.46 4.31,-33c17.21,-66.51 79.71,-110.36 148.6,-104.36c47.1,4.07 79,38.69 79,85.7c0,31.08 -0.24,62.16 0.17,93.23c0.09,7.49 -2.28,11.43 -9.18,14.45a1484.503,1484.503 0 0 0 -60.06,27.89c-8.55,4.23 -9.09,0.73 -9.07,-6.45c0.16,-47.547 0.183,-95.097 0.07,-142.65c0,-26.14 -15.85,-41.61 -42.11,-41.34c-55.31,0.57 -103.83,44.91 -109.34,99.83c-0.18,2 0.76,4.45 -2.39,6.7z"/>
    <path d="m278.38,152.13c0.75,22.47 -7.12,42.39 -18.2,61.11c-29.35,49.55 -89.24,75.83 -145.35,64.12c-39.75,-8.3 -66,-40.09 -66.24,-80.56c-0.18,-32.17 0.16,-64.35 -0.202,-96.52c-0.078,-7.08 2.352,-10.75 8.722,-13.57c19.81,-8.79 39.58,-17.76 59,-27.45c9,-4.48 10.62,-2 10.57,6.91c-0.27,46.39 -0.15,92.78 -0.12,139.17c0,29.567 14.767,44.03 44.3,43.39c49,-1 94.18,-38 105,-86c0.71,-3.5 1.65,-7.07 2.52,-10.6zm328.73,-72.47c15.31,0.5 30.67,-0.22 46,0.69c13.28,0.8 26.5,3.52 31.81,18.33c4.91,13.97 1.68,26.25 -9.95,36.37c10,5.71 16.41,13.46 17.59,24.84c2.3,22.17 -10,37 -33.51,38.52c-17.51,1.1 -35.13,0.24 -52.69,0.64c-5.7,0.13 -6.75,-2.29 -6.73,-7.31c0.16,-34.767 0.16,-69.533 0,-104.3c0,-5.69 1.38,-8 7.48,-7.78zm29.465,65.372a20.996,20.996 0 0 0 -2.426,0.1c-11.138,1.12 -3.024,11.338 -6.471,16.804l-0.108,0.164c4.166,4.723 -5.196,16.23 8.602,16.364a27.8,27.8 0 0 0 1.363,-0.022l0.485,-0.022c19.24,-1 25.62,-4 25.76,-15.69c0.16,-12.62 -7.48,-17.23 -26.75,-17.69l-0.455,-0.008zm2.935,-45.512c-3.25,1.71 -9.93,-3.15 -10.63,3.44c-0.77,7.2 -3.92,17.39 1.44,21.32l-0.09,-0.067l0.09,0.067c0.178,0.13 0.362,0.256 0.551,0.376l0.01,0.007c5.471,3.475 15.006,2.409 22.059,-0.963c4.347,-2.064 5.353,-5.905 5.243,-9.914c-0.044,-1.679 -0.287,-3.39 -0.563,-5.016l-0.062,-0.345l-0.067,-0.335c-0.52,-2.477 -1.463,-4.2 -2.702,-5.406c-3.567,-3.483 -9.583,-2.673 -15.027,-3.141l-0.252,-0.023zm-269.98,38.79c0,-17.21 0.16,-34.41 -0.1,-51.61c-0.07,-5.09 1,-6.92 6.68,-7.1c22.29,-0.7 22.28,-1 22.28,20.93c0,24.37 0,24 24.15,24.46c8,0.15 11.68,-1.38 10.48,-10.19c-0.8,-5.88 -0.38,-12 -0.09,-17.93c0.27,-5.48 -2.51,-14.36 1.33,-15.73c7.29,-2.6 16.05,-1.23 24.2,-1.15c3.88,0 3.18,3.45 3.18,5.92c0,35.52 0,71.05 0.12,106.57c0,4.76 -1.3,6.27 -6.23,6.62c-22.7,1.58 -22.7,1.77 -22.7,-20.25l0,-4.49c0,-28.13 0,-28 -28.53,-25.64c-5.15,0.41 -6.1,2.31 -6,6.78c0.21,12 -0.2,23.94 0.18,35.9c0.19,5.83 -1.66,7.54 -7.55,7.71c-21.43,0.63 -21.42,0.88 -21.42,-20.42l0.02,-40.38zm719.48,-12.39c0,12.35 -0.15,24.71 0.07,37.07c0.1,6 0.76,12.3 5.56,16.52c4.57,4 10.27,3.88 15.93,2c5.86,-2 7.7,-6.48 8.14,-12.11c2,-25.43 0.2,-50.9 1,-76.33c0.14,-4.37 -3.14,-11.46 2.75,-12.7c7.85,-1.64 16.35,-0.32 24.55,0.1c0.54,0 1.33,3.22 1.32,4.94c-0.16,27.69 0.16,55.41 -0.88,83.08c-0.65,17 -9.66,25.92 -26.18,30.51c-9.27,2.57 -18.6,2.59 -27.85,1.43c-19.87,-2.51 -31.17,-12.53 -32.38,-32.51c-1.68,-27.61 -0.8,-55.38 -1.15,-83.08c0,-4 1.72,-4.73 5.34,-5.14c23,-2.63 23.7,-2.17 23.7,20.39l0,25.84l0.08,-0.01zm-562.6,-46.37c17.62,0.53 17.65,0.06 23.49,16.78c11.75,33.72 23.49,67.43 35.76,102.62l-10.4,0c-19.32,0.07 -19.42,0.1 -25.86,-18.65c-1.51,-4.4 -3.36,-7.09 -8.61,-6.29c-3.29,0.51 -6.72,0.1 -10.09,0.1l-2.223,0c-17.094,0.012 -17.993,0.519 -23.167,18.25c-3.14,10.71 -10.6,6.07 -16.25,6.37c-12.8,0.68 -12.9,0.18 -8.77,-11.86c11.24,-32.74 22.73,-65.41 33.7,-98.24c2.2,-6.6 5,-9.3 12.42,-9.08zm1.94,39.55c-0.48,1.475 -0.962,2.95 -1.444,4.427l1.444,-4.417c-2.79,8.53 -5.593,17.102 -8.367,25.663l-1.433,4.417c-0.569,1.756 -0.76,3.299 0.094,4.232c0.54,0.604 1.503,0.956 3.056,0.948l19.52,0l-0.004,-0.01l0.004,0l-10.63,-35l-2.24,-0.26zm361.65,-39.49c18.11,0.3 18.06,0 24.13,17.45l4.132,11.884c10.335,29.714 20.727,59.494 31.368,90.006l-10,0c-19.8,0.1 -20,0.16 -26.14,-18.34c-1.68,-5 -4.05,-7.4 -9.46,-6.57c-2.56,0.39 -5.23,0.07 -7.85,0.07l-1.189,0c-19.032,0.004 -19.376,0.302 -25.971,19c-1.53,4.35 -3.31,6.09 -7.79,5.91c-6.32,-0.26 -12.67,-0.07 -19,-0.07c-1.79,-4.24 0.59,-7.41 1.71,-10.7c11.42,-33.44 23.08,-66.81 34.24,-100.35c2.12,-6.36 5.16,-8.41 11.82,-8.29zm2.12,39.26c-1.94,6.35 -3.84,12.7 -5.83,19c-1.683,5.36 -2.67,9.257 -2.701,12l0,0.03c-0.07,6.107 4.59,6.498 16.831,4.58c2.458,-0.385 3.93,-0.74 3.923,-2.575c0.006,-0.553 -0.126,-1.24 -0.413,-2.105c-3.38,-10.35 -6.48,-20.82 -9.68,-31.25l-2.13,0.32zm120.31,-39.09c6.22,0 10.8,0.57 15.17,-0.11c9.89,-1.55 13,2 12.25,12c-0.48,6.57 -1.46,9.24 -8.64,8.8c-10.43,-0.64 -20.93,-0.23 -31.39,-0.13c-5.56,0.05 -12.18,-0.55 -14,6.21c-2,7.34 4.23,10.45 9.43,13.38c8.75,4.94 18,9.05 26.42,14.52c17,11.06 22.48,27.35 15.37,44.44c-6.22,14.94 -19.36,20 -34,21.7a72,72 0 0 1 -22.33,-0.61c-27.07,-5.51 -20.53,-0.25 -21.54,-27.32c-0.22,-5.81 1.82,-6.66 6.38,-3.68c7.87,5.13 16.2,9.16 25.55,10.8c7.25,1.26 15.33,2 18.63,-5.82c3.72,-8.79 -3.48,-13.56 -10.06,-17.5c-8.3,-5 -17,-9.28 -25,-14.67c-12.36,-8.33 -18.94,-19.75 -16.07,-35.24c2.87,-15.49 13.39,-22.08 27.72,-25.23c9.26,-2.04 18.51,-1.09 26.11,-1.54zm-222.16,70.17c0,-13.86 -0.3,-27.73 0.13,-41.57c0.2,-6.24 -1.47,-9.09 -8,-8.11a47.33,47.33 0 0 1 -6.74,0c-11.92,0 -15.65,-5.38 -12.38,-17.14c0.81,-2.9 2.35,-3.38 4.72,-3.38c24.34,0 48.69,0.12 73,-0.09c6.15,-0.05 5.73,4 5,7.49c-0.89,4.43 3.87,10.82 -4,13a12.7,12.7 0 0 1 -2.24,0.08c-6.59,0.59 -15.86,-3 -19.11,1.68c-3.37,4.9 -1.35,13.63 -1.38,20.69c-0.09,22.09 -0.34,44.2 0.13,66.28c0.16,7.36 -1,10.44 -9.44,10.22c-19.69,-0.51 -19.7,0 -19.7,-20l0.01,-29.15zm384.56,-10.72c0,-16.8 0.38,-33.62 -0.18,-50.41c-0.25,-7.47 2.1,-9.33 9.36,-9.25c20,0.22 20,-0.12 20,19.46c0,23.53 0.27,47.07 -0.16,70.59c-0.13,7 1.93,9.39 8.84,8.64c5.17,-0.56 10.55,0.54 15.65,-0.25c10.13,-1.56 12.84,2.47 12.11,12.16c-0.47,6.29 -1.07,9.24 -8.51,8.95c-16,-0.64 -32.13,-0.62 -48.17,0c-7.62,0.28 -9.34,-2.34 -9.14,-9.46c0.48,-16.77 0.2,-33.59 0.2,-50.43zm-429.75,0.56c0,17.22 -0.24,34.45 0.13,51.66c0.12,5.77 -1.33,7.56 -7.38,7.68c-21.73,0.43 -21.73,0.71 -21.73,-21.32c0,-29.2 0.3,-58.41 -0.19,-87.61c-0.14,-8.1 1.48,-11 10.26,-10.66c18.89,0.65 18.91,0.1 18.91,18.68l0,41.57z"/>
   </g>
  </svg>