<svg xmlns="http://www.w3.org/2000/svg" fill-rule="evenodd" clip-rule="evenodd" image-rendering="optimizeQuality" shape-rendering="geometricPrecision" text-rendering="geometricPrecision" viewBox="-2 1 6600 3300"><g><rect width="6600" height="3300" x="-2" y="1" fill="#373435"/><g fill="#fefefe" fill-rule="nonzero"><path d="M2661.81 366.56c-2.36,6.27 -3.14,94.93 -1.57,198.5l2.35 187.51 47.08 10.2c25.89,6.28 96.5,22.75 156.91,38.44l109.84 27.47 18.05 -22.76c133.38,-160.05 280.1,-284.8 457.41,-389.15 40.01,-24.32 79.24,-47.86 85.52,-51.78 7.85,-4.71 -138.09,-7.85 -429.95,-7.85 -361.69,-0.78 -442.5,0.79 -445.64,9.42l0 0z"/><path d="M3580.55 401.08c-160.84,111.41 -308.34,240.08 -415.83,361.69 -40.79,46.29 -74.53,87.87 -74.53,92.58 0,4.71 48.64,26.68 108.27,50.21 157.7,61.2 342.86,155.35 480.95,245.58 25.11,16.47 25.11,16.47 97.29,-96.51 106.7,-167.9 208.7,-407.19 258.91,-604.12 10.98,-42.37 19.61,-80.82 19.61,-85.52 0,-6.28 -65.12,-8.63 -205.56,-8.63l-206.34 0.78 -62.77 43.94 0 0z"/><path d="M4016.78 770.62c-38.44,116.9 -122.39,291.86 -184.38,384.44 -24.32,36.09 -43.93,67.47 -43.93,70.61 0.78,3.14 18.83,19.62 40.79,36.88 21.97,17.26 82.39,69.83 133.38,116.12l92.58 84.73 0 -397c0,-218.11 -0.78,-396.21 -2.35,-396.21 -1.57,0 -17.26,45.51 -36.09,100.43l0 0z"/><path d="M2659.45 1114.26c0.79,172.61 2.36,320.11 4.71,327.96 3.14,10.2 10.99,-7.06 22.75,-49.43 42.37,-144.36 116.91,-309.13 196.15,-429.95 23.54,-36.88 41.58,-68.26 40.01,-70.61 -6.27,-5.5 -217.32,-80.82 -241.65,-86.31l-23.53 -4.71 1.56 313.05 0 0z"/><path d="M2967.79 1016.98c-66.68,101.21 -156.13,273.81 -201.63,390.72 -36.88,93.36 -87.88,261.26 -96.51,314.61l-5.49 30.6 204.78 0 204.77 0 53.35 -36.87c134.17,-91.01 251.86,-188.3 356.99,-295.01 94.15,-94.93 142.01,-152.2 137.3,-164.76 -7.06,-18.04 -200.85,-128.67 -397.78,-227.53 -101.21,-50.21 -188.3,-91.79 -193.79,-91.79 -5.5,0 -32.96,36.09 -61.99,80.03z"/><path d="M3710.01 1319.82c0,10.99 -156.92,167.12 -222.04,219.69 -72.18,58.84 -193.01,140.44 -259.7,174.96 -28.24,14.9 -51.78,29.03 -51.78,32.95 0,3.14 196.93,4.71 437.8,3.92l437.01 -2.35 2.35 -98.86 2.36 -99.64 -100.43 -73.75c-109.84,-80.81 -215.76,-152.99 -233.8,-160.06 -6.28,-3.13 -11.77,-1.56 -11.77,3.14l0 0z"/><path d="M4235.68 2073.81c-70.61,10.19 -90.23,15.69 -92.58,25.1 -1.57,9.42 6.27,14.13 29.03,18.05 20.4,3.14 36.87,11.77 47.07,25.1 16.48,20.4 16.48,28.25 16.48,404.06l0 383.66 51 0 50.99 0 0 -430.73c0,-237.73 -2.35,-433.09 -5.49,-434.66 -3.92,-1.57 -47.07,3.14 -96.5,9.42l0 0z"/><path d="M1783.86 2099.7c-2.35,5.49 -4.71,91.01 -5.49,190.65l-2.35 180.45 -178.1 2.36 -178.89 1.57 0 -188.3 0 -188.3 -25.1 0c-34.53,0 -202.43,22.75 -211.84,28.24 -12.55,7.85 10.2,26.68 32.95,26.68 31.38,0 69.83,15.69 78.46,31.38 4.71,9.42 7.84,156.92 7.84,379.74l0 365.61 58.85 0 58.84 0 1.57 -201.63 2.36 -202.43 171.82 -2.35c132.59,-1.57 173.39,0.79 178.88,7.85 3.14,5.49 6.28,97.28 6.28,203.99l0 194.57 54.92 0 54.92 0 -1.57 -418.18 -2.35 -417.39 -49.43 -2.36c-34.52,-1.57 -50.21,0.79 -52.57,7.85l0 0z"/><path d="M2186.35 2356.26c-58.84,23.53 -82.38,44.72 -109.84,101.21 -25.89,51.78 -25.89,53.35 -25.89,166.33 0,101.21 2.35,118.47 18.83,160.84 28.24,69.83 85.52,123.18 153.78,144.36 59.63,18.83 157.7,21.97 223.6,7.85 36.09,-7.85 39.23,-10.2 39.23,-31.39 0,-22.75 -0.78,-23.53 -29.03,-17.26 -147.5,31.39 -278.52,-70.61 -309.91,-239.3 -14.12,-76.1 -24.32,-72.18 178.89,-72.18l177.31 0 -3.14 -54.13c-3.92,-68.26 -32.95,-119.26 -87.87,-153 -34.52,-21.18 -45.51,-24.32 -113.76,-25.89 -59.63,-2.35 -83.17,0.79 -112.2,12.56l0 0zm149.86 54.13c31.38,22.75 48.64,51.78 53.35,86.31l4.71 32.95 -123.18 0c-121.61,0 -122.4,0 -122.4,-18.05 0.79,-22.75 25.11,-76.89 41.59,-91.01 40.01,-32.95 109.05,-37.66 145.93,-10.2l0 0z"/><path d="M2649.25 2355.47c-65.12,10.2 -76.88,14.12 -76.88,26.68 0,8.63 5.49,14.12 15.69,14.12 22.75,0 59.63,20.4 65.9,35.3 2.36,7.07 4.71,116.91 4.71,243.22 0,126.32 2.35,235.38 4.71,242.44 3.92,9.42 15.69,12.55 50.21,12.55l45.51 0 3.14 -186.73c2.35,-183.59 2.35,-186.73 23.53,-229.09 26.68,-54.14 57.28,-73.75 114.55,-72.97l40.8 0 0 -49.43 0 -50.21 -26.67 0c-54.93,0 -101.22,31.38 -132.6,90.23l-17.26 31.38 -2.35 -61.2c-2.36,-69.83 7.84,-65.9 -112.98,-46.29l-0.01 0z"/><path d="M3160.8 2348.41c-112.98,34.52 -174.18,151.42 -162.41,309.12 11.77,155.35 71.4,241.65 193.01,277.75 32.17,8.63 63.55,10.98 125.53,8.63 95.72,-4.71 110.63,-9.42 110.63,-33.74 0,-16.48 -2.35,-17.26 -61.98,-17.26 -51.78,0.78 -68.26,-3.14 -105.14,-20.4 -102.78,-51 -161.62,-171.82 -152.2,-313.83 5.49,-83.95 28.24,-128.67 77.67,-153 65.9,-32.95 129.45,-7.06 147.5,60.42l8.63 32.17 54.14 0c29.81,0 55.7,-3.14 58.84,-7.85 7.06,-11.77 -18.05,-64.34 -44.72,-92.58 -36.09,-36.88 -95.72,-56.49 -169.47,-55.71 -32.95,0 -69.04,3.14 -80.03,6.28l0 0z"/><path d="M3584.48 2355.47c-54.14,10.2 -74.54,16.48 -74.54,25.11 0,6.27 11.77,14.12 29.03,18.04 55.71,13.34 56.49,15.69 61.98,228.32 3.92,194.57 7.85,219.68 40.8,266.75 36.88,52.57 138.09,68.26 209.48,32.17 36.09,-18.04 94.15,-80.81 94.15,-101.21 0,-4.71 3.93,-3.14 7.85,3.14 3.92,6.27 7.84,32.17 7.84,56.49l0 45.5 47.08 0 47.07 0 0 -295 0 -295.79 -29.03 5.5c-16.47,2.35 -58.84,8.63 -94.15,13.33 -52.56,7.85 -65.12,11.77 -65.12,22.76 0,9.41 8.63,14.9 29.82,18.83 56.49,8.63 60.41,20.4 60.41,168.68l0 130.24 -28.24 59.63c-29.82,61.98 -75.32,113.76 -106.71,121.61 -26.67,7.06 -69.04,-3.14 -83.16,-18.83 -36.88,-40.01 -40.02,-65.12 -42.37,-295.79l-3.14 -219.68 -17.26 -1.57c-9.41,0 -51,4.71 -91.79,11.77l0 0z"/><path d="M4620.12 2354.69c-82.38,28.24 -126.31,91.79 -142.01,203.99 -23.53,164.76 35.31,305.98 148.29,360.12 54.13,25.89 154.56,33.74 238.51,18.83 51.78,-8.63 53.35,-10.2 53.35,-32.17 0,-22.75 -0.78,-23.54 -29.03,-17.26 -138.87,29.03 -257.34,-52.57 -303.63,-208.7 -7.06,-23.53 -12.55,-56.49 -12.55,-72.96l0 -29.82 180.45 0 180.45 0 0 -37.66c0,-84.73 -50.99,-160.84 -123.17,-185.16 -46.3,-15.69 -144.37,-15.69 -190.66,0.79l0 0zm148.29 55.7c31.38,22.75 48.64,51.78 53.35,86.31l4.71 32.95 -127.1 0 -126.32 0 4.71 -21.97c7.84,-32.95 25.89,-69.04 42.36,-83.95 39.23,-35.31 110.63,-41.58 148.29,-13.34l0 0z"/><path d="M5138.73 2353.12c-61.2,18.83 -102,76.1 -102.78,143.57 0,72.97 32.17,108.28 161.62,174.18 94.94,49.43 128.68,80.81 128.68,121.61 0,55.71 -34.53,91.01 -98.86,102 -36.09,5.49 -112.98,-11.77 -161.63,-36.09 -16.47,-8.63 -29.81,-14.13 -30.59,-13.34 -5.5,14.91 -3.14,70.61 3.92,75.32 32.95,25.89 185.94,32.95 256.56,12.55 59.62,-18.04 104.35,-63.55 116.12,-120.04 22.75,-105.13 -20.4,-165.54 -167.9,-236.16 -90.23,-43.93 -113.77,-65.9 -113.77,-109.05 0,-77.68 80.81,-98.86 198.5,-51.79 51,20.4 55.71,17.26 51,-29.03 -2.36,-23.53 -5.49,-26.67 -37.66,-35.3 -47.86,-12.56 -160.84,-11.77 -203.21,1.57l0 0z"/></g></g></svg>