<svg  id="fndm-pjg9xz7wy9" viewBox="0.30000001192092896 0.9700000286102295 501.3600158691406 510.0599670410156" xmlns="http://www.w3.org/2000/svg">
   <g xmlns="http://www.w3.org/2000/svg" fill="none">
    <path d="m0.3,255.69l0,-234.61c0,-17.82 2.33,-20.11 20.46,-20.11l459,0c18.94,0 21.89,2.87 21.9,21.08l0,468.08c0,18.08 -2.86,20.9 -21.17,20.9l-459,0c-18.94,0 -21.17,-2.2 -21.17,-20.72l-0.02,-234.62zm9.49,-0.66l0,223.21c0,18.51 5.33,23.95 23.38,23.95c144.63,0 289.26,-0.26 433.89,0.39c15.72,0.07 26.67,-11 26.59,-27.09c-0.66,-145.76 -0.38,-291.53 -0.39,-437.3c0,-21.18 -5,-26.26 -26,-26.27l-433.89,0c-19.18,0 -23.57,4.35 -23.57,23.35c-0.018,73.24 -0.023,146.493 -0.01,219.76z" fill="#1D4662"/>
    <path d="m427.07,456.15c-9,-14.35 -18.83,-28.25 -26.64,-43.21c-5.27,-10.09 -13.34,-7.74 -20.46,-6.73c-7.12,1.01 -3.34,8.17 -3.41,12.41c-0.4,22 -0.4,44 0,66c0.13,6.87 -1.56,9.66 -8.81,9c-7.05,-0.62 -14.19,-0.14 -24,-0.14c14.3,-11.27 20.65,-24 22.58,-39.75c2.44,-19.91 -12.9,-46.64 -31,-51.38c-19.7,-5.14 -40.79,8.22 -47.57,31.1c-6.78,22.88 -0.51,42.51 19.86,60l-28.83,0c-6.19,0 -4.88,-4.52 -4.88,-8.07c-0.06,-23.92 -0.41,-47.84 0.17,-71.75c0.2,-8 -2.85,-9.51 -9.7,-8.9c-6.2,0.57 -13.77,-1.7 -12.74,9.08c0.69,7.12 -0.88,14.4 1.23,21.6a14.91,14.91 0 0 1 -3.1,0.63c-8.34,0 -18.37,2.79 -24.6,-0.87c-7.23,-4.25 -2.26,-15.14 -2.63,-23.05c-0.38,-8.33 -5.75,-6.28 -10.28,-6.46c-4.9,-0.21 -9.84,-1.05 -9.72,6.94c0.35,23.53 -0.15,47.07 0.27,70.6c0.14,7.48 -1.18,10.66 -9.73,10.51c-21.59,-0.38 -21.6,0.08 -21.6,-21.36c0,-12.53 0.81,-25.13 -0.24,-37.57c-1,-11.44 2.38,-16.2 14.19,-14.28c4.64,0.76 9.79,1.67 9.59,-6.66c-0.16,-6.69 -1.42,-9.41 -8.79,-9.19c-17.44,0.53 -34.92,0.42 -52.38,0c-6.46,-0.14 -8.34,1.91 -8.55,8.38c-0.24,7.41 3.37,7.63 9,7.66c15.26,0.05 15.26,0.25 15.26,16c0,16.33 -0.08,32.65 0,49c0,4.6 -0.12,8.07 -6.4,7.9c-12.75,-0.35 -25.5,-0.11 -42.1,-0.11c18.32,-11.58 25.83,-27.22 26.55,-43.78c1.1,-25.79 -20.13,-49.66 -43.09,-48.84c-22.96,0.82 -41.42,24.68 -39.24,51.12c1.39,16.89 5.57,24.63 22.84,41.39c-13,0 -25,0.35 -36.89,-0.13c-7.95,-0.32 -12.27,-5.31 -12.83,-13.28c-0.19,-2.64 -0.08,-5.31 -0.08,-8l0,-429.37c0,-18.6 3.17,-21.75 21.86,-21.75l422.54,0c18.21,0 21.14,2.95 21.14,21.11l0,430.52c0,18.38 -14.21,27.67 -31.46,20.8c-4.74,-1.89 -2.93,-5.68 -3,-8.68c-0.15,-23.16 -0.53,-46.33 0.14,-69.47c0.27,-9 -3.11,-10.26 -11.09,-10.66c-9.48,-0.47 -9.18,4.27 -9,10.89c0.31,13.45 0.09,26.92 0.09,40.38l-2.47,0.42zm-88.81,-72.41c-0.18,1.44 0.38,2.09 1.87,1.73l4.51,0c2.71,-0.2 2.69,-2 2.32,-4l0.06,-2.26c2.07,-20 0.43,-40.13 0.84,-60.2c0,-2.15 -0.13,-4.66 -3.25,-5c-3.77,-0.58 -7.77,-1.82 -7.51,4.54c0.89,21.72 -1.27,43.5 1.16,65.19zm-123.06,-35c0.09,-18.25 -11.32,-35.23 -25.25,-37.59c-20.85,-3.54 -31.2,3.4 -38.91,26.1c-5.17,15.21 4.72,41.58 17.34,46.27c25.11,9.3 46.69,-6.73 46.82,-34.81l0,0.03zm172.12,39.32c12.84,-0.07 24,-9.14 25.44,-20.57c1.41,-11.67 -4.89,-18.68 -20.15,-22.47c-5.41,-1.34 -10.94,-2.4 -16.14,-4.31c-4,-1.47 -7.91,-4.69 -6.48,-9.3c1.31,-4.18 4.08,-7.34 9.94,-8.31c8.34,-1.39 14.14,-0.92 18.36,7.39c2.52,4.95 8.13,4.28 11.8,1.68c4.23,-3 -1,-6 -2.16,-8.27c-5.73,-11.18 -19.73,-15.68 -32.4,-11.16c-10.4,3.7 -18,13.84 -16.67,23.09c1.61,11.11 9.69,15.41 19.63,17.49c4.79,1 9.73,1.81 14.21,3.65c4.68,1.92 8.68,5.33 7.57,11.26c-1.11,5.93 -5.67,9 -11.36,9.38c-6.95,0.48 -13.85,-0.28 -17.32,-7.78c-2.36,-5.08 -7.24,-5.24 -10.56,-3.45c-5.18,2.79 -0.64,6.61 1.11,9.33c5.85,9.01 14.47,12.92 25.18,12.32l0,0.03zm-110.55,-39.96c0,9.85 0.15,19.7 -0.07,29.54c-0.11,4.85 1.64,6.73 6.58,6.62c11.74,-0.25 23.49,-0.13 35.23,-0.07c3.38,0 5.79,-0.37 5.78,-4.79c0,-4.26 -1.27,-6.21 -5.81,-6.09c-8.33,0.23 -16.68,-0.13 -25,0.12c-4.86,0.14 -6.2,-1.62 -6.59,-6.53c-0.77,-9.86 0.67,-16.21 12.94,-14.16c5.53,0.92 11.34,0.24 17,0.11c3.39,-0.08 7.49,0.05 7.16,-5c-0.27,-4.08 -3.34,-5.44 -7.19,-5.41c-7.2,0.06 -14.43,-0.38 -21.59,0.11c-7.88,0.55 -7,-4.4 -7.17,-9.48c-0.17,-5.49 -0.05,-9.72 7.5,-9.08c7.15,0.6 14.39,0.21 21.58,0.22c3.66,0 7.69,1.11 7.58,-5.18c-0.09,-5.37 -2.63,-6.06 -7.09,-6c-11,0.23 -22,0.29 -32.95,0c-5.76,-0.16 -8.26,1.66 -8,7.75c0.38,9.12 0.1,18.23 0.11,27.32zm-136.23,0.4l0,-29.53c0,-3.32 -0.58,-5.9 -4.91,-5.82c-4,0.07 -6.66,1 -6.59,5.58c0.07,4.58 -0.41,9.13 0.06,13.62c0.71,6.63 -2,8.16 -8.33,8.22c-20.22,0.21 -20.22,0.49 -21.3,-20a10.63,10.63 0 0 1 0,-1.13c0.21,-3.87 -0.54,-6.43 -5.47,-6.39c-4.93,0.04 -6.67,1.82 -6.63,6.67c0.147,19.333 0.147,38.64 0,57.92c0,4.31 1.48,6 5.91,6.09c4.43,0.09 6.12,-1.47 5.88,-5.82c-0.2,-3.77 -0.06,-7.56 0,-11.35c0.19,-17.55 -1.79,-15 15.08,-15.06c16,0 14.58,-2.3 14.67,14.4c0,3.79 0.18,7.58 0,11.36c-0.27,4.95 1.91,6.48 6.75,6.46c5.4,0 4.91,-3.49 4.93,-6.84c-0.01,-9.46 -0.05,-18.92 -0.05,-28.38zm108.5,6.66c0,-5.31 0.53,-10.68 -0.11,-15.91c-1.32,-10.74 0.57,-17.82 13.78,-15.16c3.48,0.7 5.76,-0.55 5.84,-4.74c0.08,-4.19 -1.3,-6.28 -5.83,-6.22c-11.75,0.15 -23.51,-0.09 -35.27,0.11c-4,0.07 -9.72,-2.15 -9.85,5.55c-0.14,8.21 6.07,5.44 9.71,5.15c7.81,-0.62 10.61,1.75 10.2,10c-0.7,14 -0.18,28.06 -0.2,42.09c0,4.26 -0.53,8.4 6.06,8.28c6.75,-0.13 5.62,-4.61 5.65,-8.64c0.05,-6.86 0.02,-13.68 0.02,-20.51z" fill="#1D4662"/>
    <path d="m107.31,446.61c0.26,16.56 -10.13,30.74 -22.51,30.72c-12.38,-0.02 -22.6,-14 -22.31,-30.82l0,-1.14c0.83,-16.15 10.4,-28.25 22.14,-28c12.36,0.26 22.43,13.28 22.68,29.24zm239.81,2.87c-0.38,10.18 -3.17,21.08 -14.67,26.92c-6.41,3.26 -13.61,2.93 -19,-2.48c-8.91,-9 -13.76,-19.7 -10.31,-32.72c4.68,-17.63 11.94,-24.12 26.08,-21.09c10.4,2.22 17.66,10.83 17.9,29.37zm-93.37,23.79c0,20.43 0,20 -21,20.51c-8.63,0.23 -11.7,-2.19 -10.56,-10.75c0.65,-4.84 0.07,-9.84 0.13,-14.76c0.24,-17.62 -2.82,-15.89 15.42,-16c16.01,0 16.01,0 16.01,21zm143.82,-33.93c9.53,16.5 19.1,33 28.57,49.51c2,3.5 0.2,4.75 -3.28,4.73c-7.21,0 -14.42,-0.12 -21.62,0c-4.56,0.09 -5.79,-2.2 -5.75,-6.36c0.12,-15.74 0,-31.49 0,-47.23l2.08,-0.65z" fill="#1D4662"/>
    <path d="m344.64,385.44c0,-1.76 0.51,-3.26 2.32,-4c0.37,2.02 0.39,3.83 -2.32,4zm-6.38,-1.7l1.87,1.73c-1.49,0.36 -2.05,-0.29 -1.87,-1.73z" fill="#EDEFF1"/>
    <path d="m203.07,347.96c0,14.9 -9.11,27.05 -20.29,27.07c-11.18,0.02 -20.19,-12.09 -20.29,-27.08c-0.09,-14.77 9.21,-27.24 20.25,-27.15c11.04,0.09 20.35,12.62 20.33,27.16z" fill="#1D4662"/>
   </g>
  </svg>