<svg xmlns="http://www.w3.org/2000/svg" viewBox="0.1767730712890625 0.25 379.3839111328125 127.26115417480469"><g fill="none" fill-rule="evenodd"><g fill-rule="nonzero"><g><path fill="#0FC0E1" d="M0.0432308458,47.08 C0.223230846,44.52 1.66323085,43.42 4.37323085,43.87 C7.60793212,44.4948545 10.9510978,44.2392819 14.0532308,43.13 C25.8232308,38.64 33.0532308,30.33 35.3432308,17.81 C35.8000436,14.8743782 36.5093417,11.983654 37.4632308,9.17 C39.6832308,3.17 44.0832308,0.01 50.4632308,5.68434189e-14 C60.6132308,5.68434189e-14 69.3332308,3.89 77.3532308,9.75 L78.3532308,10.47 L79.4032308,11.32 C79.8904888,11.537978 80.289019,11.9153472 80.5332308,12.39 C81.0332308,13.24 81.9732308,13.59 82.6132308,14.28 C84.1844926,15.1404971 85.3919477,16.5397244 86.0132308,18.22 L90.0132308,24.09 C90.1035427,24.0976145 90.1870767,24.1409716 90.2452826,24.2104432 C90.3034884,24.2799147 90.3315483,24.3697501 90.3232308,24.46 L92.1232308,28.11 C92.9213275,29.1832 93.4526243,30.4308907 93.6732308,31.75 L93.6732308,31.75 C94.4606148,32.661742 94.8240778,33.8648046 94.6732308,35.06 C94.7832308,35.54 94.6732308,36.06 94.9932308,36.51 C95.3132308,36.96 95.3932308,37.45 95.4332308,37.96 C95.7132308,39.78 95.9965642,41.6 96.2832308,43.42 C96.7732308,43.98 96.1932308,44.71 96.5632308,45.29 L96.5632308,45.96 C97.0512233,55.7471435 94.7669981,65.4732983 89.9732308,74.02 C88.6832308,76.39 87.5332308,78.9 85.3132308,80.63 C84.6932308,80.98 84.3132308,81.96 83.3132308,81.34 C83.0871364,80.7641234 83.1781319,80.1119891 83.5532308,79.62 C84.7218961,77.2212459 85.4017537,74.6139922 85.5532308,71.95 C85.6585149,71.5854734 85.8352803,71.24554 86.0732308,70.95 C91.9648361,65.0852516 95.1588017,57.038776 94.8932308,48.73 C94.7032308,41.13 91.7132308,34.73 85.1732308,30.56 C78.2532308,26.13 71.1032308,26.16 64.0532308,30.42 C60.548113,32.5084236 57.4539921,35.219592 54.9232308,38.42 C54.5595947,38.9121559 54.1046583,39.3297468 53.5832308,39.65 C53.4134825,39.7416203 53.2317069,39.8089446 53.0432308,39.85 C50.6832308,40.06 48.3132308,39.85 45.9432308,39.96 C34.7332308,40.48 24.4532308,43.76 15.4232308,50.51 C12.5272454,52.5633796 10.2594103,55.3817274 8.87323085,58.65 C8.75847189,58.8021829 8.59071964,58.9056896 8.40323085,58.94 C6.65453148,58.2821545 5.13579449,57.1283314 4.03323085,55.62 C1.87584942,53.2385794 0.485499939,50.2627436 0.0432308458,47.08 Z" transform="translate(-195.000000, -266.000000) translate(195.176769, 266.250000)"/><path fill="#0763AE" d="M121.083231,79.89 C119.205441,80.0217073 117.318631,79.9277025 115.463231,79.61 C114.756585,79.5287703 114.113702,79.1626521 113.683307,78.5963422 C113.252911,78.0300324 113.072291,77.3125948 113.183231,76.61 C113.364868,73.7653421 113.341475,70.9112982 113.113231,68.07 C113.268278,67.5479352 113.268278,66.9920648 113.113231,66.47 C113.390774,65.3016341 113.356288,64.0808349 113.013231,62.93 C112.603231,61.71 113.203231,60.57 113.233231,59.4 C113.359056,58.4002298 113.318508,57.3865261 113.113231,56.4 C113.283254,55.8904761 113.283254,55.3395239 113.113231,54.83 C113.353729,53.0514265 113.353729,51.2485735 113.113231,49.47 C113.303365,47.4945645 113.303365,45.5054355 113.113231,43.53 C113.289202,42.9471251 113.336962,42.333074 113.253231,41.73 C113.253231,34.25 113.313231,26.73 113.253231,19.3 C113.186136,18.6966146 113.250966,18.0858556 113.443231,17.51 C114.003231,16.78 115.003231,16.93 115.653231,16.4 C116.743231,15.74 117.953231,16.4 119.063231,16.08 L119.163231,16.08 C119.903231,16.49 120.773231,15.89 121.493231,16.4 C122.404816,16.7252459 123.239047,17.2359997 123.943231,17.9 C124.473231,18.47 124.223231,19.16 124.223231,19.8 C124.223231,27.0133333 124.223231,34.2266667 124.223231,41.44 C124.141293,41.8617959 124.204745,42.2989107 124.403231,42.68 L148.213231,42.79 C148.773231,42.79 149.373231,42.79 149.213231,41.94 C148.997661,41.7224784 148.866508,41.4353595 148.843231,41.13 C149.343231,36.84 148.843231,32.54 149.143231,28.25 C149.143231,28.01 149.143231,28.33 149.213231,28.08 C149.213231,25.41 149.463231,22.72 149.213231,20.08 C149.013231,17.92 149.773231,16.84 151.773231,16.42 C152.503231,16 153.363231,16.42 154.103231,16.09 L154.923231,16.09 C155.663231,16.43 156.493231,16.09 157.233231,16.37 C160.063231,17.53 160.063231,17.53 160.063231,20.59 C160.063231,39.15 160.063231,57.7166667 160.063231,76.29 C160.063231,77.4 160.063231,78.48 159.063231,79.23 C158.733231,79.91 158.063231,79.73 157.503231,79.83 L157.363231,79.83 L157.233231,79.91 C155.545407,80.235066 153.811055,80.235066 152.123231,79.91 C151.169257,79.8180425 150.26588,79.4378567 149.533231,78.82 C148.943286,78.1168878 148.620955,77.2278218 148.623231,76.31 C148.753231,73.54 148.353231,70.75 148.963231,67.98 C149.273231,66.57 148.283231,65.12 148.663231,63.67 C149.303231,61.22 149.023231,58.72 148.993231,56.25 C148.932734,54.6402531 148.762338,53.0365195 148.483231,51.45 C140.483231,51.3 132.433231,51.28 124.403231,51.45 C124.164709,52.0709997 124.102417,52.7458309 124.223231,53.4 C124.223231,61.09 124.223231,68.78 124.223231,76.47 C124.223231,77.12 124.443231,77.81 124.003231,78.41 L124.003231,78.41 C123.683231,79.84 122.373231,79.54 121.423231,79.87 L121.273231,79.87 L121.083231,79.89 Z" transform="translate(-195.000000, -266.000000) translate(195.176769, 266.250000)"/><path fill="#0663AE" d="M232.583231,32.13 C233.683231,32.53 234.863231,32.02 235.963231,32.43 C237.433231,32.77 238.963231,33.05 240.383231,33.43 C247.913231,35.57 252.653231,40.43 254.073231,48.14 C255.27957,54.370963 254.936167,60.8029065 253.073231,66.87 C250.883231,73.95 245.963231,78.13 238.833231,79.8 C238.236358,79.8753772 237.633798,79.8954625 237.033231,79.86 C235.346179,80.1154403 233.630283,80.1154403 231.943231,79.86 L230.943231,79.8 C230.103231,79.4 229.143231,79.92 228.293231,79.47 L223.563231,78.75 C223.298382,80.2314144 223.237818,81.7421386 223.383231,83.24 L223.383231,94.12 L223.383231,94.12 C223.383231,94.2166667 223.388786,94.3147222 223.396194,94.4135648 L223.420268,94.7118519 C223.449898,95.1111111 223.449898,95.5133333 223.183231,95.88 C222.537898,96.5693333 221.704342,96.8338222 220.860031,97.0717807 L220.399498,97.2013393 C220.246342,97.2452444 220.093898,97.2906667 219.943231,97.34 C218.864425,97.619908 217.732037,97.619908 216.653231,97.34 C215.273231,97.25 213.913231,97.11 212.993231,95.87 C212.795297,95.3611626 212.739976,94.8079563 212.833231,94.27 L212.833231,39.13 L212.833231,39.13 C212.747663,38.5892384 212.79924,38.0356474 212.983231,37.52 C213.193231,35.4 214.623231,34.45 216.473231,33.98 C218.323231,33.51 220.243231,33.16 222.133231,32.75 C222.753231,32.45 223.473231,32.82 224.093231,32.5 L225.093231,32.42 C226.323231,32.03 227.623231,32.53 228.863231,32.13 L232.583231,32.13 Z M234.253231,40.58 C231.013082,39.9838337 227.68011,40.1274079 224.503231,41 C223.393231,41.24 223.303231,41.91 223.303231,42.85 L223.303231,55.98 C223.303231,60.23 223.393231,64.49 223.273231,68.74 C223.223231,70.32 223.833231,70.85 225.223231,71.15 C227.534746,71.678609 229.90258,71.9204304 232.273231,71.87 C237.463231,71.72 241.003231,69.21 242.623231,64.21 C244.180869,59.4464315 244.426133,54.3511538 243.333231,49.46 C242.253231,44.58 239.063231,41.68 234.253231,40.58 Z" transform="translate(-195.000000, -266.000000) translate(195.176769, 266.250000)"/><path fill="#0663AE" d="M170.323231,95.96 L169.993231,95.56 C169.623231,95.21 169.723231,94.85 169.933231,94.47 C173.143231,90.47 176.363231,86.52 179.553231,82.53 C180.263231,81.65 180.843231,80.64 181.613231,79.82 C182.243231,79.15 181.613231,78.82 181.373231,78.49 C180.043231,76.38 178.773231,74.25 177.593231,72.05 C174.780928,66.8129274 172.496355,61.3091843 170.773231,55.62 C169.363231,51.06 168.433231,46.39 167.433231,41.74 C167.39317,41.3209553 167.39317,40.8990447 167.433231,40.48 C167.033231,39.87 167.433231,39.13 167.113231,38.48 L167.063231,37.9 C166.623231,37.05 167.133231,36.09 166.733231,35.24 C166.553231,33.44 167.543231,32.69 169.173231,32.45 C169.813231,32.36 170.453231,32.17 171.083231,32.03 C171.915783,31.8113615 172.790679,31.8113615 173.623231,32.03 C175.623231,32.41 177.563231,32.74 177.623231,35.36 C178.043231,36.36 177.523231,37.36 177.943231,38.36 L178.023231,39.36 C178.333231,39.96 177.963231,40.66 178.303231,41.25 C178.548991,44.5530326 179.155947,47.819191 180.113231,50.99 C181.639275,56.8784304 183.812511,62.5798223 186.593231,67.99 C186.733231,68.25 186.893231,68.52 187.013231,68.79 C187.543231,69.95 188.013231,69.79 188.543231,68.79 C190.537122,64.9138962 192.135201,60.8466685 193.313231,56.65 C194.063231,54.11 194.553231,51.49 195.153231,48.9 C195.513231,48.3 195.073231,47.57 195.483231,46.99 C195.559459,46.9122313 195.559459,46.7877687 195.483231,46.71 C195.843231,46.11 195.433231,45.4 195.793231,44.8 L195.853231,44.16 C196.223231,43.44 195.793231,42.61 196.143231,41.89 L196.213231,40.89 C196.643231,39.67 196.103231,38.38 196.523231,37.16 C196.523231,37.11 196.523231,37.05 196.523231,36.99 C196.953231,32.99 196.953231,32.99 200.893231,31.99 C201.601356,31.7802309 202.355106,31.7802309 203.063231,31.99 C204.463231,32.43 206.133231,32.32 206.993231,33.89 C207.386185,35.678854 207.420175,37.5279125 207.093231,39.33 L207.093231,40.68 C206.693231,41.68 207.183231,42.68 206.793231,43.68 L206.723231,44.63 C206.403231,45.25 206.723231,45.98 206.423231,46.63 C205.743231,49.63 205.113231,52.58 204.373231,55.54 C203.144165,60.7545062 201.195479,65.7726248 198.583231,70.45 C196.763231,73.61 194.863231,76.74 193.003231,79.88 C192.766556,80.5663407 192.360726,81.1819653 191.823231,81.67 L182.583231,93.85 C181.223231,95.65 179.663231,97.17 177.243231,97.38 C176.300445,97.7248625 175.266017,97.7248625 174.323231,97.38 C173.673231,97.01 172.803231,97.67 172.213231,96.96 C171.583231,96.72 170.663231,96.85 170.323231,95.96 Z" transform="translate(-195.000000, -266.000000) translate(195.176769, 266.250000)"/><path fill="#0663AE" d="M287.523231,32.68 C295.833231,34.49 300.743231,39.96 302.073231,48.8 C302.415941,51.2074155 302.559761,53.6389706 302.503231,56.07 C302.503231,58.31 301.663231,59.16 299.443231,59.17 C296.128231,59.155 292.841356,59.15125 289.557293,59.1503125 L273.153231,59.15 L273.153231,59.15 C271.953231,59.15 271.613231,59.45 271.703231,60.69 C272.173231,67.62 275.813231,71.19 283.423231,71.83 C289.203231,72.32 294.823231,71.72 300.093231,69.04 C301.523231,68.31 302.153231,68.71 302.403231,70.34 C303.111815,73.3097537 301.567475,76.3561246 298.753231,77.54 C296.253987,78.7823339 293.536766,79.5261732 290.753231,79.73 C285.917136,80.3147504 281.017607,80.0951163 276.253231,79.08 C266.963231,76.88 262.333231,71.65 261.033231,61.48 C260.359113,56.5903334 260.558883,51.6197964 261.623231,46.8 C263.683231,37.8 269.793231,32.72 278.993231,32.18 C281.846098,31.9608176 284.715508,32.1290128 287.523231,32.68 Z M285.483231,40.61 C280.163231,39.23 273.663231,40.18 272.013231,48.41 C271.843231,49.24 271.803231,50.1 271.593231,50.92 C271.323231,51.97 271.783231,52.15 272.713231,52.15 L272.713231,52.15 L288.801358,52.1499143 C292.582936,52.1464609 292.567305,52.0177778 291.723231,48.19 C290.953231,44.61 289.293231,41.61 285.483231,40.61 Z" transform="translate(-195.000000, -266.000000) translate(195.176769, 266.250000)"/><path fill="#0763AE" d="M368.413231,32.79 C375.413231,34.27 379.243231,39.07 379.353231,46.27 C379.403231,50.74 379.353231,55.15 379.353231,59.61 L379.353231,72.92 L379.353231,72.92 C379.353231,75.52 378.073231,77.46 375.573231,78.04 C367.283231,80.04 358.913231,80.87 350.513231,78.72 C346.003231,77.57 342.093231,75.41 340.633231,70.52 C339.598017,67.1851579 339.598017,63.6148421 340.633231,60.28 C342.313231,54.91 346.633231,52.74 351.713231,51.8 C356.877971,50.8589575 362.200788,51.3252653 367.123231,53.15 C368.853231,53.78 369.183231,53.31 369.053231,51.67 C368.893231,49.79 369.053231,47.9 368.843231,46.03 C368.710082,43.3060013 366.69406,41.0442242 364.003231,40.6 C359.903231,39.6 355.793231,40.06 351.693231,40.6 C349.286572,40.9312274 346.909379,41.4494623 344.583231,42.15 C343.393231,42.5 342.743231,42.15 342.463231,40.9 C342.014086,38.9914612 342.26979,36.9848996 343.183231,35.25 C343.540419,34.4553443 344.259112,33.8818796 345.113231,33.71 C352.833231,32.16 360.603231,31.14 368.413231,32.79 Z M367.133231,59.39 C363.938252,58.3978213 360.558299,58.151509 357.253231,58.67 C353.183231,59.34 350.963231,61.64 350.833231,65.34 C350.673231,69.75 352.543231,72.29 356.673231,73.29 C360.437645,74.0165641 364.317568,73.8832452 368.023231,72.9 C368.903231,72.71 369.023231,72.18 369.023231,71.44 L369.023231,71.44 L369.023231,66.52 C369.023231,65.01 368.923231,63.48 369.013231,61.98 C369.131773,61.3841019 368.996255,60.7657686 368.639348,60.274073 C368.282442,59.7823775 367.736532,59.4619348 367.133231,59.39 Z" transform="translate(-195.000000, -266.000000) translate(195.176769, 266.250000)"/><path fill="#0763AE" d="M319.423231,36.34 C323.703231,32.34 328.913231,31.73 334.423231,32.13 C336.693231,32.29 337.283231,32.78 337.673231,35.02 C337.823102,35.9184754 337.863397,36.8318171 337.793231,37.74 C337.593231,40.74 336.663231,41.39 333.643231,41.01 C328.443231,40.34 323.883231,41.61 320.363231,45.75 C319.605539,46.6203027 319.20853,47.7469495 319.253231,48.9 C319.303231,58.13 319.253231,67.36 319.323231,76.6 C319.433966,77.3183567 319.240135,78.0503519 318.788399,78.6197669 C318.336663,79.1891819 317.667945,79.5444337 316.943231,79.6 C314.978768,80.0356754 312.93853,79.9945277 310.993231,79.48 C309.734851,79.3087689 308.845371,78.1613399 308.993231,76.9 C309.043231,63.97 308.993231,51.03 308.993231,38.09 C308.993231,34.89 310.993231,32.91 314.213231,32.8 L315.303231,32.8 C318.913231,32.81 318.913231,32.81 319.423231,36.34 Z" transform="translate(-195.000000, -266.000000) translate(195.176769, 266.250000)"/><path fill="#94969A" d="M328.953231,109.89 C328.953231,112.26 328.953231,114.63 328.953231,117 C328.953231,118.64 328.173231,119.29 326.353231,119.2 C325.003231,119.13 323.913231,118.9 323.943231,117.03 C324.033231,111.56 324.003231,106.09 323.943231,100.63 C323.778738,99.4419426 324.491504,98.3074216 325.633231,97.94 C330.053231,96.35 334.513231,95.37 339.053231,97.49 C339.680028,97.715925 340.372827,97.6687712 340.963231,97.36 C343.711967,96.3649423 346.672486,96.1030104 349.553231,96.6 C352.672845,97.0813734 355.052773,99.6434175 355.303231,102.79 C355.669868,107.752087 355.706615,112.733044 355.413231,117.7 C355.353231,119.25 354.003231,119.21 352.953231,119.17 C351.903231,119.13 350.543231,119.17 350.563231,117.4 C350.563231,113.82 350.563231,110.23 350.563231,106.65 C350.563231,106.04 350.563231,105.43 350.563231,104.82 C350.513231,103.02 349.983231,101.43 348.163231,100.69 C346.163231,99.88 344.343231,100.6 342.613231,101.56 C341.953231,101.92 342.173231,102.64 342.163231,103.22 C342.163231,107.78 342.163231,112.33 342.163231,116.89 C342.163231,118.68 341.593231,119.21 339.753231,119.2 C337.913231,119.19 337.363231,118.7 337.353231,116.87 C337.353231,112.8 337.353231,108.73 337.353231,104.66 C337.353231,103.1 337.203231,101.53 335.523231,100.82 C333.502793,100.055624 331.247733,100.224021 329.363231,101.28 C328.783231,101.55 328.973231,102.28 328.973231,102.78 C328.943231,105.15 328.953231,107.52 328.953231,109.89 Z" transform="translate(-195.000000, -266.000000) translate(195.176769, 266.250000)"/><path fill="#94969A" d="M268.103231,102.59 C267.739749,101.934045 267.199186,101.393482 266.543231,101.03 C265.61952,100.735168 264.626942,100.735168 263.703231,101.03 C261.993231,101.14 261.363231,101.96 261.403231,103.73 C261.523231,108.21 261.403231,112.73 261.403231,117.17 C261.495163,117.983813 260.961504,118.736961 260.163231,118.92 C259.237931,119.218986 258.259639,119.317837 257.293231,119.21 C256.833586,119.210732 256.395826,119.01375 256.091524,118.669258 C255.787223,118.324765 255.645775,117.866041 255.703231,117.41 C255.703231,108.49 255.703231,99.57 255.703231,90.65 C255.649493,90.2280323 255.776228,89.8029709 256.052274,89.4793306 C256.32832,89.1556903 256.728069,88.9634943 257.153231,88.95 C258.101741,88.7399481 259.084721,88.7399481 260.033231,88.95 C261.005503,89.2392851 261.607226,90.2106377 261.433231,91.21 C261.383231,93.44 261.433231,95.67 261.433231,98.05 C264.643231,96.88 267.813231,96.21 270.933231,97.91 C272.853231,98.91 273.483231,100.91 273.933231,102.86 C274.223231,107.99 274.023231,113.12 274.023231,118.26 C274.023231,118.34 273.873231,118.43 273.783231,118.51 C271.713231,119.66 269.843231,119.51 268.393231,118.15 C268.053231,113.62 268.333231,109.08 268.233231,104.54 C268.357888,103.88961 268.313119,103.218087 268.103231,102.59 L268.103231,102.59 Z" transform="translate(-195.000000, -266.000000) translate(195.176769, 266.250000)"/><path fill="#94969A" d="M239.903231,96.62 C240.523231,97.06 241.253231,96.61 241.833231,97.01 C242.003601,97.0751852 242.17452,97.1396022 242.345476,97.2039745 L242.85794,97.3976807 C244.818882,98.1452538 246.716935,98.9825926 247.773231,101.01 C248.313231,102.06 248.693231,103.2 249.143231,104.3 C249.38826,106.352714 249.38826,108.427286 249.143231,110.48 C248.991089,110.874887 248.864167,111.279033 248.763231,111.69 C248.242097,115.481536 245.232213,118.446251 241.433231,118.91 C240.480859,119.145107 239.485602,119.145107 238.533231,118.91 L234.873231,118.56 C234.453231,120.51 234.813231,122.48 234.683231,124.43 C234.633231,125.13 234.893231,125.87 234.483231,126.53 C233.433231,127.53 232.113231,127.25 230.903231,127.14 C230.093231,127.07 229.803231,126.33 229.803231,125.5 L229.803231,99.5 L229.803231,99.5 C229.803231,98.26 230.503231,97.79 231.493231,97.5 C232.243231,97.28 233.013231,97.14 233.783231,96.97 C234.603231,96.51 235.563231,97.07 236.383231,96.62 L239.903231,96.62 Z M244.303231,108.19 C244.713231,102.58 241.583231,99.77 236.023231,100.67 C235.013231,100.83 234.583231,101.26 234.583231,102.33 L234.583231,102.33 L234.583231,107.6 L234.603231,113.42 C234.603231,113.97 234.623231,114.48 235.233231,114.79 C236.885108,115.608195 238.816594,115.643596 240.497344,114.886484 C242.178094,114.129372 243.431437,112.65933 243.913231,110.88 C244.108139,109.993949 244.238481,109.094921 244.303231,108.19 Z" transform="translate(-195.000000, -266.000000) translate(195.176769, 266.250000)"/><path fill="#94969A" d="M373.163231,96.61 C376.983231,97.08 379.303231,99.53 379.353231,103.41 C379.383231,105.41 379.363231,107.42 379.363231,109.42 L379.363231,115.61 L379.363231,115.61 C379.523198,116.816575 378.73933,117.946904 377.553231,118.22 C373.443231,119.22 369.303231,119.69 365.173231,118.38 C361.543231,117.24 360.263231,114.91 360.783231,110.71 C361.113231,108.05 363.533231,106 366.723231,105.76 C368.77731,105.477429 370.86817,105.64115 372.853231,106.24 C374.253231,106.74 374.343231,106.13 374.363231,105.01 C374.363231,101.26 373.463231,100.29 369.663231,100.27 C367.784357,100.321144 365.91371,100.538661 364.073231,100.92 C363.926334,100.946897 363.759319,101.011463 363.584229,101.082789 L363.406894,101.155224 C362.779925,101.408621 362.103231,101.618621 361.893231,100.46 C361.673231,99.19 361.693231,97.81 363.253231,97.27 C364.109104,96.9622609 365.005109,96.7803651 365.913231,96.73 C368.322149,96.4849447 370.747522,96.4448006 373.163231,96.61 Z M370.776384,109.000218 L370.323231,109 C367.423231,109.01 365.873231,110.16 365.873231,112.4 C365.783231,114.87 367.503231,116.28 370.783231,116.28 C374.063231,116.28 374.343231,116 374.343231,112.7 C374.343231,109.365 374.11363,109.014809 370.776384,109.000218 Z" transform="translate(-195.000000, -266.000000) translate(195.176769, 266.250000)"/><path fill="#94969A" d="M293.453231,96.65 C297.013231,97.17 299.133231,99.43 299.183231,103.03 L299.183231,115.42 L299.183231,115.42 C299.183231,117.5 298.403231,118.29 296.293231,118.53 C295.513231,118.63 294.753231,118.82 293.973231,118.96 C293.253231,119.28 292.443231,118.87 291.733231,119.24 L288.983231,119.24 C288.263231,118.85 287.433231,119.32 286.713231,118.92 C282.083231,118.14 280.633231,116.43 280.593231,112.19 C280.593231,108.45 282.903231,106.03 286.813231,105.75 C288.869574,105.481819 290.959476,105.655694 292.943231,106.26 C294.213231,106.72 294.363231,106.26 294.383231,105.14 C294.453231,101.43 293.383231,100.32 289.743231,100.28 C287.801898,100.303119 285.868206,100.527655 283.973231,100.95 C283.233231,101.1 282.063231,102.02 281.793231,100.46 C281.573231,99.2 281.643231,97.84 283.173231,97.29 C283.97266,97.0038702 284.806679,96.8256325 285.653231,96.76 C288.241391,96.4382879 290.857028,96.4014007 293.453231,96.65 Z M290.564315,109.000339 L290.333231,109 C287.223231,109 285.893231,110.02 285.893231,112.52 C285.893231,115.02 287.313231,116.22 290.623231,116.28 C293.933231,116.34 294.363231,115.92 294.363231,112.69 C294.363231,109.24 294.103231,109 290.333231,109 Z" transform="translate(-195.000000, -266.000000) translate(195.176769, 266.250000)"/><path fill="#94969A" d="M307.883231,119.31 C306.683231,119.31 306.053231,118.92 306.073231,117.49 C306.143231,111.67 306.073231,105.84 306.073231,100.02 C306.073231,98.76 306.433231,97.53 307.673231,97.24 C308.913231,96.95 310.303231,96.19 311.093231,97.99 C311.373231,98.62 311.693231,98.1 311.923231,97.99 C313.759992,96.8926465 315.90883,96.4354468 318.033231,96.69 C319.843231,96.77 319.823231,98.07 319.753231,99.28 C319.683231,100.49 319.233231,101.28 317.643231,100.93 C315.859377,100.580219 314.011677,101.025712 312.583231,102.15 C311.605341,102.789556 311.044524,103.903561 311.113231,105.07 C311.183231,109.07 311.113231,113.07 311.113231,117.07 C311.28967,118.057599 310.667873,119.012188 309.693231,119.25 C309.121628,119.508813 308.470718,119.530391 307.883231,119.31 L307.883231,119.31 Z" transform="translate(-195.000000, -266.000000) translate(195.176769, 266.250000)"/><path fill="#0663AE" d="M53.2632308,39.49 L53.6232308,39.38 C53.9064061,39.1580687 54.2659833,39.0573871 54.6232308,39.1 C61.6258815,39.8866981 68.3005274,42.4931198 73.9832308,46.66 C74.1728807,46.8125595 74.323669,47.0078989 74.4232308,47.23 C74.5081002,47.4100542 74.4849265,47.6224801 74.3632308,47.78 C72.3632308,52.26 72.0932308,57.06 71.8932308,61.85 C71.6932308,66.64 71.7632308,71.57 70.8132308,76.36 C68.7132308,86.94 61.9432308,93.69 51.3332308,95.61 C41.7321569,97.3975249 31.8118856,95.3977015 23.6532308,90.03 C23.1263817,89.5043338 22.5144176,89.0715637 21.8432308,88.75 C21.3972442,88.27264 20.8687767,87.8796769 20.2832308,87.59 C19.5732308,86.97 18.8532308,86.36 18.1132308,85.77 C13.1261726,81.6102477 9.5260838,76.0287147 7.79323085,69.77 C6.92660174,66.7162695 6.80996473,63.4984601 7.45323085,60.39 C7.58323085,59.74 7.68323085,59.06 8.36323085,58.69 C8.45596602,58.7049436 8.55049567,58.7049436 8.64323085,58.69 C9.09323085,58.47 9.46323085,58.69 9.83323085,58.91 C18.3232308,63.24 26.5632308,61.91 34.5232308,57.55 C40.5232308,54.23 45.0432308,49.23 49.2832308,43.95 C50.5832308,42.4 51.5232308,40.6 53.2632308,39.49 Z" transform="translate(-195.000000, -266.000000) translate(195.176769, 266.250000)"/><path fill="#0FC0E1" d="M74.3832308,47.78 C74.3832308,47.66 74.3832308,47.54 74.3832308,47.42 C75.0240097,44.1055452 77.3304497,41.3567225 80.4832308,40.15 C85.0832308,38.15 88.8532308,40.15 91.3932308,44.37 C93.1630531,47.3360104 93.6674726,50.8885647 92.7932308,54.23 C91.8125946,58.5167205 89.5486687,62.4027196 86.3032308,65.37 C86.1261344,65.4545328 85.9203272,65.4545328 85.7432308,65.37 C84.3554027,58.2656154 80.2878455,51.9673469 74.3832308,47.78 L74.3832308,47.78 Z" transform="translate(-195.000000, -266.000000) translate(195.176769, 266.250000)"/><path fill="#0763AE" d="M85.7432308,65.31 L85.9632308,65.31 C86.993973,67.1142772 87.1698345,69.2832353 86.4432308,71.23 L86.0332308,71.88 C85.2340147,73.1467264 84.3129748,74.3323559 83.2832308,75.42 C82.7393259,76.0477163 82.2445319,76.7163569 81.8032308,77.42 C80.3832308,79.82 80.6232308,80.55 83.1332308,81.56 C83.2232308,83.36 81.7332308,83.99 80.6632308,84.93 C78.8465874,86.5129038 76.2592545,86.8555186 74.0932308,85.8 C72.3832308,84.8 71.6432308,82.8 72.0932308,80.38 C72.6644726,77.6818694 74.1476657,75.2628521 76.2932308,73.53 C78.5232308,71.53 80.8832308,69.74 83.1532308,67.82 C84.1289956,67.1077398 85.0007164,66.2629448 85.7432308,65.31 Z" transform="translate(-195.000000, -266.000000) translate(195.176769, 266.250000)"/><path fill="#1E3A6C" d="M8.38323085,58.7 C6.13323085,66.56 8.78323085,73.33 13.1432308,79.7 C14.6644434,81.9580976 16.4805066,84.0028503 18.5432308,85.78 C18.5432308,86.09 18.5432308,86.29 18.1432308,86.13 C9.01323085,78.82 3.53323085,69.28 1.05323085,57.95 C0.196103799,54.4042602 -0.140755449,50.752706 0.0532308458,47.11 C0.203230846,47.3 0.433230846,47.48 0.483230846,47.69 C1.58323085,52.42 4.58323085,55.87 8.38323085,58.7 Z" transform="translate(-195.000000, -266.000000) translate(195.176769, 266.250000)"/><path fill="#1E4173" d="M80.6632308,84.96 C81.5760108,83.9429926 82.3990804,82.8489122 83.1232308,81.69 C83.0432308,81.39 83.1232308,81.29 83.4432308,81.37 C84.1932308,81.37 84.6132308,80.53 85.3932308,80.62 C84.4409698,82.6267438 82.744309,84.1835108 80.6632308,84.96 Z" transform="translate(-195.000000, -266.000000) translate(195.176769, 266.250000)"/><path fill="#2B4F80" d="M18.1432308,86.15 L18.5432308,85.8 C19.2732422,86.2406938 19.9115358,86.8178741 20.4232308,87.5 C20.6132308,87.66 20.6032308,87.79 20.4232308,87.91 C19.5577295,87.4744463 18.7837594,86.8769957 18.1432308,86.15 Z" transform="translate(-195.000000, -266.000000) translate(195.176769, 266.250000)"/><path fill="#315889" d="M21.8932308,88.61 C22.6853386,88.7588519 23.3521029,89.290765 23.6732308,90.03 C22.8552819,89.7177907 22.1099611,89.24133 21.4832308,88.63 C21.5266335,88.5606081 21.6012546,88.5168562 21.6830049,88.5128684 C21.7647553,88.5088806 21.8432804,88.5451619 21.8932308,88.61 Z" transform="translate(-195.000000, -266.000000) translate(195.176769, 266.250000)"/><path fill="#244E81" d="M21.8932308,88.61 L21.4832308,88.61 L20.3932308,87.84 L20.3932308,87.43 C21.0306185,87.6074929 21.5706555,88.032322 21.8932308,88.61 L21.8932308,88.61 Z" transform="translate(-195.000000, -266.000000) translate(195.176769, 266.250000)"/><path fill="#1E3A6C" d="M86.4432308,71.23 L85.9632308,65.31 C88.9632308,61.83 91.6932308,58.23 92.4432308,53.53 C93.0854162,50.2169381 92.430288,46.78378 90.6132308,43.94 C87.4432308,39.07 81.6932308,38.51 77.5532308,42.61 C76.2635494,44.0553228 75.1830185,45.6744361 74.3432308,47.42 C68.2454053,43.0049029 61.105905,40.2483391 53.6232308,39.42 C56.3729982,35.7689939 59.7445364,32.6310262 63.5832308,30.15 C68.8723306,26.6431982 75.5024437,25.8272174 81.4840078,27.946917 C87.4655719,30.0666166 92.102458,34.8753077 94.0032308,40.93 C97.7632308,52.42 94.6732308,62.55 86.4432308,71.23 Z" transform="translate(-195.000000, -266.000000) translate(195.176769, 266.250000)"/><path fill="#F0F4F6" d="M53.2632308,39.49 C48.0232308,46.67 42.5232308,53.62 34.5832308,58.05 C27.1932308,62.18 19.4632308,63.46 11.3732308,60.15 C10.4399563,59.7173316 9.53483432,59.2263613 8.66323085,58.68 C9.51323085,54.96 12.1032308,52.42 14.9332308,50.25 C22.7632308,44.25 31.7432308,41.03 41.4732308,39.72 C45.3869975,39.2689206 49.3348493,39.1919057 53.2632308,39.49 Z" transform="translate(-195.000000, -266.000000) translate(195.176769, 266.250000)"/><path fill="#EFF3F6" d="M83.4432308,81.37 L83.1232308,81.69 C80.5232308,81.69 79.7432308,80.5 80.8732308,78.12 C82.0032308,75.74 84.0632308,73.76 86.0332308,71.88 C86.2332308,75.34 84.7832308,78.34 83.4432308,81.37 Z" transform="translate(-195.000000, -266.000000) translate(195.176769, 266.250000)"/></g></g></g></svg>