<svg xmlns="http://www.w3.org/2000/svg" fill-rule="evenodd" clip-rule="evenodd" image-rendering="optimizeQuality" shape-rendering="geometricPrecision" text-rendering="geometricPrecision" viewBox="-2 1 6600 3300"><g fill-rule="nonzero"><rect width="6600" height="3300" x="-2" y="1" fill="#373435"/><path fill="#fefefe" d="M282.2 1982.81l0 -457.67 121.58 0 0 457.67 -121.58 0zm0 -538.99l0 -101.9 121.58 0 0 101.9 -121.58 0zm180.91 538.99l0 -457.67 121.59 0 0 46.53c37.22,-37.23 84.51,-55.84 141.72,-55.54 53.56,0 97.18,16.79 130.9,50.35 33.71,33.56 50.49,77.34 50.49,131.65l0 284.68 -121.58 0 0 -261.03c0,-30.97 -9.01,-56.29 -27.01,-75.82 -18,-19.37 -41.49,-29.14 -70.32,-29.14 -30.36,0 -55.38,10.83 -74.91,32.8 -19.53,21.82 -29.29,50.04 -29.29,84.21l0 248.98 -121.59 0zm449.27 -363.39l0 -94.28 82.68 0 0 -40.28c0,-51.87 15.72,-93.82 47.15,-126.17 31.43,-32.33 72.15,-48.5 122.19,-48.5 51.87,0 95.05,18.3 129.68,54.91l-62.25 72.93c-16.31,-15.26 -34.93,-22.89 -55.83,-22.89 -17.55,0 -31.88,5.8 -42.87,17.55 -10.99,11.59 -16.47,26.54 -16.47,45l0 47.45 153.62 0 0 94.28 -153.62 0 0 363.39 -121.6 0 0 -363.39 -82.68 0zm376.2 363.39l0 -457.67 121.58 0 0 86.19c16.93,-29.74 39.21,-53.09 66.82,-69.87 27.61,-16.78 58.28,-25.33 92.3,-25.33l0 117.17c-47.14,0 -85.44,11.14 -114.88,33.26 -29.44,22.27 -44.24,51.1 -44.24,86.5l0 229.75 -121.58 0zm276.1 -125.55c0,-47.15 21.36,-85.44 63.78,-114.88 42.4,-29.6 97.17,-44.25 164.3,-44.25 26.08,0 50.03,1.99 71.4,6.26l0 -24.56c0,-17.7 -8.85,-32.04 -26.55,-43.33 -17.7,-11.44 -40.58,-17.08 -68.65,-17.08 -48.82,0 -92.46,13.73 -130.9,41.19l-57.66 -71.55c21.51,-22.12 50.34,-39.67 86.5,-52.93 36.15,-13.28 74.45,-20 114.57,-20 59.95,0 108.92,14.8 147.06,44.25 38.14,29.59 57.21,67.58 57.21,113.96l0 308.47 -121.58 0 0 -42.87c-37.84,34.79 -84.83,52.17 -141.12,51.87 -46.54,0 -84.52,-12.51 -114.11,-37.68 -29.45,-25.02 -44.25,-57.21 -44.25,-96.87zm237.84 -77.81c-32.5,0 -58.89,6.1 -79.17,18.3 -20.14,12.21 -30.36,27.62 -30.36,46.08 0,14.64 6.86,26.54 20.58,36.01 13.74,9.3 30.52,14.03 50.5,14.03 29.15,0 53.24,-9.77 72.01,-29.29 18.77,-19.53 28.08,-45.01 28.08,-76.59 -18.47,-5.64 -39.07,-8.54 -61.64,-8.54zm224.24 203.36l0 -130.13 131.96 0 0 130.13 -131.96 0zm502.36 -126.47l70.63 70.63c-42.71,43.18 -100.69,64.84 -173.92,64.84 -75.06,0 -136.24,-22.12 -183.21,-66.21 -47.15,-44.09 -70.64,-101.3 -70.64,-171.63 0,-70.32 23.34,-127.53 70.18,-171.62 46.68,-44.09 107.7,-66.22 182.76,-66.22 72.16,0 130.43,21.67 174.83,64.84l-70.63 70.63c-23.35,-21.51 -55.08,-32.18 -95.2,-32.18 -37.83,0 -68.96,12.66 -93.52,37.98 -24.41,25.33 -36.62,57.52 -36.62,96.57 0,39.06 12.21,71.24 36.62,96.58 24.56,25.32 55.69,37.98 93.52,37.98 39.05,0 70.79,-10.83 95.2,-32.19zm134.85 69.26c-46.85,-44.09 -70.18,-101.3 -70.18,-171.63 0,-70.32 23.33,-127.53 70.18,-171.62 46.67,-44.09 106.94,-66.22 180.77,-66.22 73.69,0 133.95,22.13 180.78,66.22 46.83,44.09 70.18,101.3 70.18,171.62 0,70.33 -23.35,127.54 -70.18,171.63 -46.83,44.09 -107.09,66.21 -180.78,66.21 -73.83,0 -134.1,-22.12 -180.77,-66.21zm61.62 -171.63c0,39.06 11.14,71.24 33.57,96.58 22.27,25.32 50.8,37.98 85.58,37.98 34.63,0 63.16,-12.66 85.59,-37.98 22.27,-25.34 33.56,-57.52 33.56,-96.58 0,-39.66 -11.29,-72.01 -33.56,-97.03 -22.43,-25.01 -50.96,-37.52 -85.59,-37.52 -34.78,0 -63.31,12.51 -85.58,37.52 -22.43,25.02 -33.57,57.37 -33.57,97.03zm527.38 228.84l-121.59 0 0 -457.67 121.59 0 0 36.61c34.33,-30.36 76.73,-45.62 127.38,-45.62 64.69,0 111.83,22.28 141.73,66.67 36.61,-44.7 87.26,-66.97 151.95,-66.67 52.47,0 94.28,16.33 125.39,48.97 31.13,32.65 46.69,75.52 46.69,128.46l0 289.25 -122.51 0 0 -288.33c0,-23.19 -7.17,-42.11 -21.65,-56.75 -14.5,-14.5 -33.12,-21.83 -56.14,-21.83 -27.32,0 -50.2,10.38 -68.5,30.98 -18.47,20.75 -27.62,47.29 -27.62,79.79l0 256.14 -122.81 0 0 -288.33c0,-23.19 -7.17,-42.11 -21.51,-56.75 -14.33,-14.5 -33.1,-21.83 -56.3,-21.83 -27.45,0 -50.34,10.23 -68.64,30.52 -18.31,20.44 -27.46,47.14 -27.46,80.25l0 256.14zm768.72 0l-121.59 0 0 -457.67 121.59 0 0 36.61c34.32,-30.36 76.73,-45.62 127.38,-45.62 64.68,0 111.83,22.28 141.73,66.67 36.61,-44.7 87.26,-66.97 151.94,-66.67 52.48,0 94.28,16.33 125.4,48.97 31.13,32.65 46.69,75.52 46.69,128.46l0 289.25 -122.51 0 0 -288.33c0,-23.19 -7.17,-42.11 -21.66,-56.75 -14.49,-14.5 -33.11,-21.83 -56.14,-21.83 -27.31,0 -50.19,10.38 -68.49,30.98 -18.47,20.75 -27.62,47.29 -27.62,79.79l0 256.14 -122.81 0 0 -288.33c0,-23.19 -7.17,-42.11 -21.51,-56.75 -14.34,-14.5 -33.1,-21.83 -56.3,-21.83 -27.45,0 -50.34,10.23 -68.64,30.52 -18.31,20.44 -27.46,47.14 -27.46,80.25l0 256.14zm1088.32 -185.97l-334.41 0c4.27,26.85 19.84,48.81 46.84,65.91 26.86,17.23 59.35,25.78 97.18,25.78 45.92,0 80.85,-10.53 104.96,-31.27l66.21 66.05c-45.92,45.92 -107.86,68.8 -185.97,68.5 -76.89,0 -139.28,-22.58 -187.18,-67.74 -48.06,-45.16 -72.01,-103.58 -72.01,-175.44 0,-68.19 21.66,-124.02 64.99,-167.35 43.33,-43.48 99.61,-65.15 168.57,-65.15 68.96,0 125.1,22.28 168.43,66.83 43.32,44.55 64.98,102.21 64.98,172.84 0,12.82 -0.75,26.55 -2.59,41.04zm-332.58 -89.4l207.79 0c0.61,-26.24 -8.24,-47.75 -26.54,-64.53 -18.31,-16.78 -41.81,-25.32 -70.33,-25.32 -28.69,0 -53.4,8.54 -74.3,25.32 -20.75,16.78 -32.95,38.29 -36.62,64.53zm371.78 275.37l0 -457.67 121.58 0 0 86.19c16.93,-29.74 39.21,-53.09 66.82,-69.87 27.62,-16.78 58.28,-25.33 92.3,-25.33l0 117.17c-47.14,0 -85.43,11.14 -114.88,33.26 -29.44,22.27 -44.24,51.1 -44.24,86.5l0 229.75 -121.58 0zm632.94 -126.47l70.63 70.63c-42.71,43.18 -100.68,64.84 -173.91,64.84 -75.06,0 -136.24,-22.12 -183.22,-66.21 -47.14,-44.09 -70.64,-101.3 -70.64,-171.63 0,-70.32 23.34,-127.53 70.19,-171.62 46.67,-44.09 107.69,-66.22 182.76,-66.22 72.15,0 130.43,21.67 174.82,64.84l-70.63 70.63c-23.34,-21.51 -55.08,-32.18 -95.2,-32.18 -37.83,0 -68.95,12.66 -93.51,37.98 -24.42,25.33 -36.62,57.52 -36.62,96.57 0,39.06 12.2,71.24 36.62,96.58 24.56,25.32 55.68,37.98 93.51,37.98 39.06,0 70.8,-10.83 95.2,-32.19zm529.05 -59.5l-334.4 0c4.27,26.85 19.84,48.81 46.83,65.91 26.86,17.23 59.35,25.78 97.19,25.78 45.92,0 80.85,-10.53 104.95,-31.27l66.22 66.05c-45.92,45.92 -107.87,68.8 -185.97,68.5 -76.89,0 -139.29,-22.58 -187.19,-67.74 -48.06,-45.16 -72.01,-103.58 -72.01,-175.44 0,-68.19 21.67,-124.02 64.99,-167.35 43.33,-43.48 99.62,-65.15 168.57,-65.15 68.96,0 125.11,22.28 168.43,66.83 43.32,44.55 64.99,102.21 64.99,172.84 0,12.82 -0.76,26.55 -2.6,41.04zm-332.57 -89.4l207.79 0c0.6,-26.24 -8.25,-47.75 -26.55,-64.53 -18.31,-16.78 -41.8,-25.32 -70.33,-25.32 -28.68,0 -53.39,8.54 -74.29,25.32 -20.75,16.78 -32.96,38.29 -36.62,64.53z"/></g></svg>