<svg xmlns="http://www.w3.org/2000/svg" fill-rule="evenodd" clip-rule="evenodd" image-rendering="optimizeQuality" shape-rendering="geometricPrecision" text-rendering="geometricPrecision" viewBox="-7.130000114440918 0.5299999713897705 6600 3300"><g><rect width="6600" height="3300" x="-7.13" y="0.53" fill="#373435"/><path fill="#fefefe" fill-rule="nonzero" d="M997.05 2025.99l338.17 0 0 -14.7 -116.57 0 0 -718.36 116.57 0 0 -14.7 -338.17 0 0 14.7 116.57 0 0 718.36 -116.57 0 0 14.7zm1071.39 -282.51l-320.32 0 0 14.7 135.48 0 0 88.22c0,30.81 -5.43,57.59 -16.28,80.34 -10.85,22.76 -24.86,41.49 -42.01,56.19 -17.15,14.7 -36.58,25.73 -58.29,33.08 -21.7,7.35 -43.41,11.03 -65.11,11.03 -35.71,0 -64.77,-3.68 -87.17,-11.03 -22.41,-7.35 -44.11,-20.48 -65.12,-39.38 -18.9,-16.8 -34.3,-37.11 -46.21,-60.91 -11.9,-23.81 -21.18,-49.72 -27.83,-77.72 -6.65,-28.01 -11.37,-57.76 -14.17,-89.27 -2.81,-31.51 -4.21,-63.01 -4.21,-94.52 0,-46.21 2.98,-92.07 8.93,-137.58 5.95,-45.51 17.86,-86.3 35.71,-122.35 17.85,-36.06 42.71,-65.12 74.57,-87.17 31.85,-22.06 74.04,-33.08 126.55,-33.08 44.11,0 80.34,7.7 108.7,23.1 28.35,15.4 51.11,34.31 68.26,56.71 17.16,22.41 29.76,45.86 37.81,70.37 8.05,24.5 13.48,45.86 16.28,64.06l11.55 0 0 -210.04 -15.75 -1.05c-5.6,7 -11.38,12.42 -17.33,16.27 -5.95,3.86 -15.93,5.78 -29.93,5.78 -12.61,0 -23.98,-2.1 -34.14,-6.3 -10.15,-4.2 -21.52,-8.93 -34.13,-14 -12.6,-5.08 -27.48,-9.63 -44.63,-13.66 -17.16,-4.02 -39.04,-5.95 -65.64,-5.95 -51.81,0 -98.02,9.8 -138.63,29.41 -40.61,19.6 -76.67,45.16 -108.18,76.67 -9.1,9.1 -20.48,21.7 -34.13,37.8 -13.65,16.11 -26.95,36.06 -39.91,59.87 -12.95,23.8 -23.98,51.63 -33.08,83.49 -9.1,31.86 -13.65,67.74 -13.65,107.65 0,59.51 11.55,113.07 34.66,160.68 23.1,47.61 52.16,88.92 87.16,123.93 35.71,35.71 72.82,61.79 111.33,78.24 38.51,16.46 82.62,24.68 132.33,24.68 32.9,0 60.91,-3.32 84.02,-9.97 23.1,-6.66 43.23,-14.18 60.38,-22.58 17.16,-8.41 32.21,-15.93 45.16,-22.58 12.96,-6.66 25.73,-9.98 38.34,-9.98 10.5,0 18.2,1.4 23.1,4.2 4.9,2.8 11.21,8.05 18.91,15.75l12.6 0 0 -238.4 84.02 0 0 -14.7zm-69.17 -450.55l116.58 0 0 496.76c0,85.42 22.23,148.78 66.69,190.09 44.46,41.31 108.7,61.96 192.72,61.96 55.31,0 99.77,-7.7 133.38,-23.1 33.6,-15.4 59.86,-35.71 78.76,-60.91 19.61,-25.91 32.56,-50.94 38.86,-75.1 6.3,-24.15 9.45,-50.93 9.45,-80.34l0 -509.36 116.58 0 0 -14.7 -248.9 0 0 14.7 116.57 0 0 488.36c0,25.2 -1.05,46.38 -3.15,63.54 -2.1,17.15 -5.08,31.85 -8.93,44.1 -3.85,12.26 -8.4,22.94 -13.65,32.04 -5.25,9.1 -11.38,18.2 -18.38,27.3 -21.7,29.41 -47.61,49.89 -77.72,61.44 -30.1,11.55 -64.76,17.33 -103.97,17.33 -28,0 -52.86,-3.85 -74.57,-11.55 -21.7,-7.7 -39.9,-20.48 -54.61,-38.34 -14.7,-17.85 -25.73,-41.3 -33.08,-70.36 -7.35,-29.06 -11.03,-64.59 -11.03,-106.6l0 -507.26 116.58 0 0 -14.7 -338.18 0 0 14.7zm601.94 733.06l225.8 0 0 -14.7 -116.58 0 110.28 -291.97 243.65 0 110.28 291.97 -116.58 0 0 14.7 323.47 0 0 -14.7 -93.47 0 -285.66 -751.97 -25.21 0 -283.56 751.97 -92.42 0 0 14.7zm456.85 -321.37l-231.05 0 115.52 -305.62 115.53 305.62zm319.42 321.37l338.18 0 0 -14.7 -116.58 0 0 -718.36 60.91 0c14.01,0 29.76,1.22 47.26,3.68 17.51,2.45 35.19,9.27 53.04,20.47 17.85,11.21 35.01,28.89 51.46,53.04 16.46,24.16 30.63,57.59 42.54,100.3l11.55 0 0 -192.19 -638.54 0 0 192.19 11.55 0c11.9,-42.71 26.08,-76.14 42.54,-100.3 16.45,-24.15 33.6,-41.83 51.46,-53.04 17.85,-11.2 35.53,-18.02 53.03,-20.47 17.51,-2.46 33.26,-3.68 47.26,-3.68l60.92 0 0 718.36 -116.58 0 0 14.7zm445.46 0l640.64 0 0 -230 -11.56 0c-2.1,16.1 -7,36.41 -14.7,60.91 -7.7,24.51 -19.6,48.14 -35.71,70.89 -16.1,22.76 -36.93,42.36 -62.49,58.82 -25.55,16.45 -57.58,24.68 -96.09,24.68l-198.49 0 0 -379.14 85.06 0c25.21,0 45.69,4.38 61.44,13.13 15.76,8.75 28.36,20.48 37.81,35.18 9.45,14.71 16.8,31.51 22.06,50.42 5.25,18.9 10.32,38.5 15.22,58.81l11.56 0 0 -326.62 -11.56 0c-7.7,31.5 -15.57,57.23 -23.63,77.19 -8.05,19.95 -17.85,35.71 -29.4,47.26 -11.56,11.55 -25.38,19.43 -41.49,23.63 -16.1,4.2 -35.7,6.3 -58.81,6.3l-68.26 0 0 -324.52 174.33 0c28.71,0 53.22,3.5 73.52,10.5 20.3,7 37.81,17.68 52.51,32.03 14.7,14.36 27.31,31.86 37.81,52.52 10.5,20.65 20.3,44.63 29.41,71.94l11.55 0 0 -181.69 -600.73 0 0 14.7 116.57 0 0 718.36 -116.57 0 0 14.7zm620.84 0l248.9 0 0 -13.65 -116.58 0 0 -704.71 2.11 0 249.95 719.41 251.01 -727.81 2.1 0 0 713.11 -116.58 0 0 13.65 338.17 0 0 -13.65 -116.57 0 0 -719.41 116.57 0 0 -14.7 -232.1 0 -194.29 565.02 -2.1 0 -194.29 -565.02 -236.3 0 0 14.7 116.57 0 0 719.41 -116.57 0 0 13.65zm806.73 0l338.17 0 0 -14.7 -116.57 0 0 -718.36 116.57 0 0 -14.7 -338.17 0 0 14.7 116.57 0 0 718.36 -116.57 0 0 14.7z"/></g></svg>