<svg xmlns="http://www.w3.org/2000/svg" fill-rule="evenodd" clip-rule="evenodd" image-rendering="optimizeQuality" shape-rendering="geometricPrecision" text-rendering="geometricPrecision" viewBox="-1.9900000095367432 1 6599.990234375 3300"><g><rect width="6599.99" height="3300" x="-1.99" y="1" fill="#ff7a00"/><g><g><g><g fill="#fefefe"><path fill-rule="nonzero" d="M662.94 793.41c-0.11,3.06 -0.11,6.69 -0.11,13.95l0 27.06c0,7.27 0,10.9 0.11,13.96 3.42,91.07 80.81,164.14 177.25,167.41 3.27,0.1 7.11,0.1 14.85,0.1 7.69,0 11.53,0 14.74,-0.1 96.5,-3.27 173.94,-76.34 177.31,-167.41 0.16,-3.06 0.16,-6.69 0.16,-13.96l0 -27.06c0,-7.26 0,-10.89 -0.16,-13.95 -3.37,-91.07 -80.81,-164.2 -177.26,-167.41 -3.26,-0.11 -7.1,-0.11 -14.79,-0.11 -7.74,0 -11.58,0 -14.85,0.11 -96.44,3.21 -173.83,76.34 -177.25,167.41zm2518.08 645.86l0 746.56c0,129.83 50.12,188.32 208.37,188.32 66.29,0 131.46,-18.43 170.47,-32.33l0 300.87c-66.33,22.27 -167.68,33.43 -250.7,33.43 -332.61,0 -490.28,-166.62 -490.28,-454.65l0 -1506.45 362.14 0 0 479.13 378.84 0 0 245.17 -378.84 0 0 -0.05z"/><path d="M3682.42 1893.07c0,-442.22 278.86,-743.46 725.14,-743.46 476.81,0 713.13,347.88 688.18,852.33l-1041.27 0c18.84,258.81 140.3,390.05 355.41,390.05 181.83,0 278.33,-87.7 319.92,-211.74l353.78 0c-68.76,304.08 -309.56,495.87 -675.97,495.87 -452.43,0 -725.19,-298.39 -725.19,-746.3l0 -36.8 0 0.05zm722.4 -453.64c-198.47,0 -317.08,106.23 -350.35,317.45l677.54 -5.58c-19.48,-197.05 -125.92,-311.87 -327.19,-311.87z"/><path fill-rule="nonzero" d="M2091.84 1149.61c-232.9,0 -376.62,137.62 -448.54,272.97l-16.69 -228.43 -345.35 0 0 1437.38 362.09 0 0 -807.84c0,-238.44 126.46,-384.37 317.56,-384.37 191.11,0 261.86,126.46 261.86,345.36l0 846.85 362.1 0 0 -924.82c0.58,-320.88 -138.72,-557.1 -493.03,-557.1zm3568.37 272.97c91.91,-179.94 279.65,-272.97 420.63,-272.97 25.06,0 64.6,3.32 86.34,8.32l0 281.39c-34.98,-3.55 -70.12,-5.41 -105.29,-5.58 -257.38,0 -401.68,154.88 -401.68,417.85l0 779.94 -362.2 0 0 -1437.38 350.98 0 11.16 228.43 0.06 0zm-5231.39 -228.43l0 244.85 245.02 0 0 1192.53 362.25 0 0 -1437.38 -607.27 0z"/></g></g></g></g></g></svg>