<svg xmlns="http://www.w3.org/2000/svg" viewBox="0.6567833423614502 0.7995156049728394 81.92817687988281 15.906155586242676"><g xmlns="http://www.w3.org/2000/svg" fill="#00A335"><path d="m65.56014,3.88583c-3.31599,0 -6.00403,2.7111 -6.00403,6.05492c0,3.34342 2.68804,6.05452 6.00403,6.05452c1.09431,0 2.11987,-0.2963 3.00319,-0.81188l0,0.81228l3.00162,0l0,-6.05505c-0.00013,-3.34409 -2.68843,-6.05479 -6.00481,-6.05479zm3.00174,6.05479l0,0.03001c-0.01593,1.65803 -1.3535,2.99732 -3.00188,2.99732c-1.65812,0 -3.0024,-1.35522 -3.0024,-3.02733c0,-1.67185 1.34428,-3.02786 3.0024,-3.02786c1.65839,0 3.00215,1.35601 3.00215,3.02786l-0.00027,0zm-46.20878,2.79836c-0.30384,0.14622 -0.64336,0.22963 -1.00278,0.22963c-1.28923,0 -2.33481,-1.05427 -2.33481,-2.35463l0.00013,0l0.00053,-3.70016l2.27251,-0.00053c0,-0.00053 0.37628,-1.33437 0.37628,-3.02693l-2.64879,0.00053l0,-3.54211c-1.67894,0 -3.00267,0.44731 -3.00267,0.44731c0,0 0.00079,1.81927 0.00039,3.09387l-0.00039,0l0,6.72151c0,0.00226 0,0.00438 0,0.00651c0,2.97181 2.38947,5.38156 5.33669,5.38156c1.00884,0 1.95169,-0.28316 2.75665,-0.77403c-0.74978,-0.68465 -1.35218,-1.53027 -1.75374,-2.48253zm38.49369,-8.07912c-0.80457,-0.49061 -1.74768,-0.77403 -2.75705,-0.77403c-2.94683,0 -5.33656,2.40988 -5.33656,5.38143c0,0.00239 0.00027,0.00438 0.00027,0.00651l0,6.72164l3.00188,0l0.00026,-6.72815l-0.00026,0c0,-1.3001 1.04545,-2.3545 2.33441,-2.3545c0.35981,0 0.69947,0.08327 1.00344,0.22963c0.40169,-0.95253 1.00409,-1.79788 1.75361,-2.48253zm-59.15574,-4.57034c-0.9065,0 -1.64127,0.74109 -1.64127,1.65484c0,0.91455 0.73477,1.65564 1.64127,1.65564c0.90677,0 1.64153,-0.74109 1.64153,-1.65564c0,-0.91375 -0.73476,-1.65484 -1.64153,-1.65484zm7.97047,3.79671c-2.94723,0 -5.33696,2.40948 -5.33696,5.38129c0,0.002 0.00027,0.00412 0.00027,0.00625l0,6.7219l3.00201,0l0,-6.72815l0,0c0,-1.30036 1.04545,-2.35463 2.33481,-2.35463c1.28989,0 2.33494,1.05427 2.33494,2.35463l0,6.72815l3.00215,0l0,-6.72815c0,-2.97181 -2.38947,-5.38129 -5.33722,-5.38129zm-9.47147,12.10944l3.00214,0l0,-12.10931c-1.6792,0 -3.00214,0.44731 -3.00214,0.44731l0,11.662zm35.37196,-0.00026l3.00227,0l0,-15.65063c-1.64272,0.00053 -2.94617,0.42845 -2.99951,0.44638l-0.00276,15.20425zm10.21967,-12.10958c-1.09379,0 -2.1183,0.29644 -3.00136,0.81201l-0.00079,-4.35306c-1.64509,0.00053 -2.95052,0.42978 -2.99977,0.44638c0,0 -0.0025,9.14242 -0.0025,9.14959c0,3.34342 2.68869,6.05452 6.00428,6.05452c3.31678,0 6.00456,-2.7111 6.00456,-6.05452c0.00013,-3.34382 -2.68778,-6.05492 -6.00442,-6.05492zm0,9.08212c-1.65787,0 -3.00215,-1.35562 -3.00215,-3.02733l0.00079,0l0,-0.02258c0.01212,-1.66188 1.351,-3.00502 3.00136,-3.00502c1.65865,0 3.00267,1.35549 3.00267,3.0276c0,1.67171 -1.34415,3.02733 -3.00267,3.02733z" transform="translate(.607 .71)"/><path d="m34.65037,11.37459c-1.54842,-0.6201 -2.90245,-0.66499 -2.90245,-0.66499c-0.37588,1.45802 -1.77824,2.4387 -3.29702,2.23683c-0.34111,-0.04502 -0.66115,-0.14716 -0.95234,-0.29431l6.79042,-5.25446c-0.83697,-1.81568 -2.5483,-3.17422 -4.66238,-3.45499c-3.28675,-0.43629 -6.30154,1.89683 -6.73431,5.21103c-0.43278,3.31434 1.88096,6.35468 5.16719,6.79097c3.03691,0.40335 5.8415,-1.65458 6.59168,-4.56994l-0.00079,-0.00014zm-8.78531,-1.8259c0.21665,-1.65883 1.72556,-2.82625 3.36986,-2.60804c0.3411,0.04529 0.66114,0.14755 0.95233,0.29458l-4.28663,3.31699c-0.06546,-0.32167 -0.08047,-0.65928 -0.03556,-1.00353zm52.46186,-0.91601l-1.975,-0.00199c-0.47044,0 -0.85198,-0.38449 -0.85198,-0.85917c0,-0.47414 0.38141,-0.85876 0.85198,-0.85876l4.31297,0c0.01752,-0.05406 0.44212,-1.35814 0.44265,-3.01431c0,0 -4.67133,-0.0004 -4.95884,-0.0004c-2.01622,0 -3.65064,1.6482 -3.65064,3.68156c0,2.03336 1.63442,3.68316 3.65064,3.68316l1.975,0c0.47044,0 0.85198,0.38462 0.85198,0.85903c0,0.4744 -0.38141,0.8589 -0.85198,0.8589l-4.89219,0c-0.01805,0.05392 -0.44239,1.35814 -0.44265,3.01444c0,0 5.46562,0.00027 5.53819,0.00027c2.01622,0 3.65091,-1.64794 3.65091,-3.68157c-0.00013,-2.03296 -1.63482,-3.68116 -3.65104,-3.68116z" transform="translate(.607 .71)"/></g></svg>