<svg  id="fndm-vj4e9pqv3s" viewBox="0 0.0007283389568328857 96.85099029541016 24.87892723083496" xmlns="http://www.w3.org/2000/svg">
   <path d="m21.414,22.563l-0.1,-1.727l-0.02,-13.81c2.029,-0.04 3.889,-0.509 5.198,1.708c0.36,0.628 0.63,1.317 0.829,1.977l0.79,0l-0.419,-5.022l-16.736,0l-0.409,5.022l0.79,0a10.3,10.3 0 0 1 0.819,-1.977c1.32,-2.217 3.189,-1.748 5.208,-1.708l-0.02,13.81l-0.088,1.727c-0.421,0.979 -1.58,1.179 -2.621,1.118l0,0.789l9.388,0l0,-0.789c-1.048,0.061 -2.2,-0.139 -2.609,-1.118m-21.414,-16.874l0,0.829l0.62,0c0.35,0 0.871,0.119 1.27,0.33c0.84,0.338 0.82,1.735 0.82,2.335l0.02,5.892l-0.02,5.901c0,0.607 0.02,2.006 -0.82,2.336c-0.399,0.209 -0.92,0.33 -1.27,0.33l-0.62,0l0,0.828l9.547,0l0,-0.828l-0.6,0c-0.36,0 -0.891,-0.121 -1.279,-0.33c-0.851,-0.33 -0.83,-1.729 -0.83,-2.336l-0.021,-5.901l0.021,-5.892c0,-0.6 -0.021,-1.997 0.83,-2.335c0.388,-0.211 0.919,-0.33 1.279,-0.33l0.6,0l0,-0.829l-9.547,0zm59.311,-3.545c0.461,-0.368 0.36,-1.407 -0.14,-1.816c-0.349,-0.23 -0.839,-0.48 -1.488,-0.21c-1.811,1.538 -3.079,2.936 -4.608,4.633c1.469,-0.509 3.938,-1.408 5.719,-2.217c0.188,-0.04 0.418,-0.27 0.517,-0.39m-2.669,4.374l1.402,0.139c0.688,0.16 1.098,0.71 1.229,1.328l0,8.188c0.219,2.546 -0.171,5.052 -2.49,6.31c-1.55,0.828 -4.008,0.67 -5.488,-0.27c-1.119,-0.609 -1.41,-1.628 -1.64,-2.705l0,-11.523c0.09,-0.688 0.392,-1.188 0.859,-1.328c0.43,-0.269 0.84,-0.139 1.479,-0.139l0,-0.829l-8.798,0l0,0.829l1.271,0.139c0.59,0.23 1.089,0.749 1.18,1.349l0.099,11.691c0.249,1.358 0.88,2.727 2.09,3.654c2.569,1.679 7.358,2.077 10.147,0.33c2.968,-1.547 2.778,-4.374 2.778,-7.508l0,-8.188s0,-0.729 1.032,-1.328c0.588,-0.139 1.037,-0.139 1.628,-0.139l0,-0.829l-6.779,0l0,0.829l0.001,0zm-13.295,15.926l-7.089,-16.754l-1.2,0l-6.537,15.935c-0.53,1.048 -1.49,1.836 -2.649,2.057l0,0.788l6.238,0l0,-0.788c-0.431,0.061 -0.88,-0.02 -1.569,-0.33c-1.02,-1.378 0.019,-2.765 0.469,-4.004l7.037,0l0.191,0.142c0.419,1.217 1.34,2.376 0.569,3.664c-0.449,0.509 -1.098,0.448 -1.729,0.528l0,0.788l8.308,0l0.06,-0.788c-0.821,-0.14 -1.67,-0.47 -2.099,-1.238m-11.587,-4.703l2.709,-6.87l0.14,0c0.92,2.297 1.91,4.573 2.789,6.87l-5.638,0zm42.167,-3.556c-2.1,-1.526 -4.628,-1.937 -6.128,-4.313c-0.26,-0.799 -0.24,-1.787 0.321,-2.406c0.839,-0.71 1.838,-1.259 3.118,-0.929c2.309,0.449 3.928,2.625 4.519,4.793l0.859,0l0,-5.641l-0.879,0c-0.451,0.199 -0.531,1.009 -1.359,0.699c-1.531,-0.6 -3.109,-1.238 -4.91,-1.158c-2.12,0.149 -4.277,1.308 -4.987,3.484c-0.41,1.478 -0.16,3.115 0.778,4.294c2.63,2.886 6.82,3.295 8.619,6.929c0.149,0.818 0,1.667 -0.351,2.346c-0.48,0.601 -1.169,1.279 -1.949,1.359c-2.44,0.12 -4.368,-1.318 -5.798,-3.376c-0.341,-0.45 -0.791,-1.768 -0.791,-1.768l-0.939,0l0,5.971l0.939,0c0.431,-0.888 1.021,-0.948 1.411,-0.787c2.34,1.037 5.247,1.787 7.787,0.568c1.6,-0.79 3.059,-2.446 3.199,-4.244c0.221,-2.445 -1.539,-4.492 -3.459,-5.821m20.814,8.259l-7.087,-16.754l-1.201,0l-6.526,15.935c-0.54,1.048 -1.511,1.836 -2.66,2.057l0,0.788l6.248,0l0,-0.788c-0.44,0.061 -0.89,-0.02 -1.58,-0.33c-1.008,-1.378 0.021,-2.765 0.48,-4.004l7.028,0l0.2,0.142c0.41,1.217 1.329,2.376 0.56,3.664c-0.45,0.509 -1.1,0.448 -1.72,0.528l0,0.788l8.308,0l0.06,-0.788c-0.831,-0.14 -1.67,-0.47 -2.11,-1.238m-11.586,-4.703l2.72,-6.87l0.131,0c0.927,2.297 1.897,4.573 2.788,6.87l-5.639,0z"/>
  </svg>