<svg  id="fndm-t51eiqxe7s" viewBox="-0.0019939057528972626 -0.05100000277161598 300.31610107421875 303.7970275878906" xmlns="http://www.w3.org/2000/svg">
   <g xmlns="http://www.w3.org/2000/svg" fill-rule="evenodd">
    <path d="m50.075,-0.051l200.175,0l2.597,0.053l2.526,0.215l2.517,0.321l2.465,0.438l2.42,0.572l2.385,0.679l2.323,0.795l2.27,0.912l2.217,1.01l2.155,1.116l2.102,1.233l2.032,1.314l1.952,1.403l1.89,1.519l1.828,1.599l1.723,1.67l1.669,1.761l1.563,1.823l1.502,1.92l1.387,1.993l1.29,2.056l1.2,2.126l1.113,2.18l1.016,2.243l0.875,2.296l0.795,2.35l0.67,2.413l0.566,2.448l0.433,2.493l0.318,2.52l0.203,2.582l0.062,2.61l0,202.533l-0.062,2.601l-0.203,2.564l-0.318,2.545l-0.433,2.486l-0.565,2.45l-0.671,2.411l-0.795,2.336l-0.875,2.297l-1.016,2.26l-1.113,2.165l-1.2,2.126l-1.29,2.05l-1.387,1.994l-1.502,1.899l-1.563,1.842l-1.67,1.765l-1.722,1.671l-1.828,1.595l-1.89,1.5l-1.952,1.406l-2.032,1.31l-2.102,1.215l-2.155,1.12l-2.217,1.025l-2.27,0.893l-2.323,0.797l-2.385,0.683l-2.42,0.57l-2.465,0.437l-2.517,0.322l-2.526,0.21l-2.597,0.056l-200.175,0l-2.591,-0.056l-2.533,-0.21l-2.516,-0.322l-2.459,-0.438l-2.44,-0.569l-2.365,-0.683l-2.327,-0.797l-2.271,-0.893l-2.234,-1.025l-2.158,-1.12l-2.083,-1.215l-2.046,-1.31l-1.952,-1.406l-1.896,-1.5l-1.82,-1.595l-1.728,-1.67l-1.67,-1.766l-1.558,-1.842l-1.483,-1.899l-1.407,-1.993l-1.296,-2.05l-1.201,-2.127l-1.107,-2.165l-1.014,-2.26l-0.882,-2.297l-0.788,-2.336l-0.676,-2.41l-0.563,-2.45l-0.431,-2.487l-0.32,-2.545l-0.206,-2.564l-0.056,-2.6l0,-202.536l0.056,-2.609l0.206,-2.582l0.32,-2.52l0.43,-2.493l0.564,-2.448l0.676,-2.413l0.788,-2.35l0.883,-2.296l1.013,-2.243l1.107,-2.18l1.201,-2.126l1.296,-2.056l1.407,-1.992l1.483,-1.921l1.558,-1.823l1.67,-1.76l1.727,-1.671l1.82,-1.6l1.897,-1.517l1.952,-1.403l2.046,-1.314l2.082,-1.233l2.158,-1.117l2.234,-1.01l2.27,-0.91l2.328,-0.796l2.366,-0.68l2.44,-0.57l2.458,-0.439l2.516,-0.321l2.533,-0.215l2.592,-0.053z" fill="#1a5493"/>
    <path d="m25.017,253.107l23.35,0l0,-101.28l-23.35,0l0,101.28zm127.975,-78.118l-1.334,0l-1.316,0.045l-1.299,0.053l-1.254,0.08l-1.237,0.072l-1.218,0.116l-1.202,0.134l-1.183,0.134l-1.149,0.17l-1.121,0.17l-1.113,0.188l-1.087,0.205l-1.05,0.215l-1.034,0.223l-1.016,0.25l-0.99,0.25l-0.962,0.26l-0.936,0.268l-0.901,0.285l-0.883,0.286l-0.866,0.286l-0.821,0.304l-0.804,0.304l-0.777,0.322l-0.751,0.303l-0.725,0.322l-0.697,0.322l-0.68,0.321l-0.636,0.322l-0.619,0.322l-0.583,0.33l-0.565,0.322l4.399,14.922l0.503,-0.304l0.53,-0.304l0.539,-0.304l0.565,-0.286l0.583,-0.285l0.6,-0.286l0.62,-0.286l0.635,-0.26l0.663,-0.267l0.67,-0.269l0.68,-0.268l0.69,-0.24l0.698,-0.233l0.715,-0.241l0.724,-0.233l0.734,-0.205l0.75,-0.215l0.751,-0.187l0.769,-0.188l0.75,-0.17l0.778,-0.17l0.786,-0.151l0.768,-0.134l0.786,-0.134l0.769,-0.117l0.795,-0.089l0.786,-0.098l0.768,-0.054l0.786,-0.062l0.769,-0.054l0.795,-0.018l0.768,0l1.237,0.018l1.2,0.054l1.123,0.098l1.05,0.116l1.017,0.17l0.962,0.187l0.901,0.224l0.84,0.25l0.812,0.286l0.75,0.304l0.69,0.321l0.636,0.34l0.6,0.366l0.566,0.376l0.53,0.402l0.468,0.393l0.432,0.42l0.407,0.438l0.362,0.42l0.318,0.437l0.283,0.456l0.265,0.438l0.22,0.429l0.203,0.438l0.177,0.437l0.124,0.42l0.115,0.42l0.097,0.393l0.07,0.403l0.045,0.375l0.035,0.366l0,1.153l-2.8,0.027l-2.738,0.071l-2.668,0.134l-2.588,0.188l-2.517,0.25l-2.438,0.322l-2.385,0.357l-2.287,0.438l-2.217,0.473l-2.12,0.554l-2.067,0.608l-1.97,0.661l-1.872,0.724l-1.802,0.777l-1.731,0.84l-1.634,0.894l-1.537,0.947l-1.449,1l-1.369,1.064l-1.254,1.144l-1.184,1.176l-1.068,1.234l-0.98,1.31l-0.902,1.349l-0.768,1.404l-0.69,1.482l-0.582,1.519l-0.468,1.595l-0.38,1.632l-0.283,1.69l-0.15,1.766l-0.053,1.804l0.018,1.082l0.07,1.082l0.133,1.082l0.194,1.064l0.239,1.063l0.282,1.063l0.336,1.045l0.397,1.025l0.433,1.007l0.504,0.987l0.547,0.968l0.583,0.95l0.636,0.93l0.698,0.892l0.75,0.874l0.787,0.835l0.84,0.797l0.882,0.76l0.945,0.722l0.972,0.683l1.033,0.646l1.087,0.607l1.13,0.55l1.184,0.495l1.219,0.455l1.254,0.399l1.334,0.342l1.351,0.284l1.405,0.228l1.448,0.172l1.502,0.094l1.537,0.038l0.936,-0.019l0.927,-0.037l0.901,-0.039l0.901,-0.076l0.875,-0.094l0.883,-0.115l0.866,-0.132l0.865,-0.152l0.84,-0.19l0.83,-0.19l0.821,-0.209l0.813,-0.228l0.786,-0.246l0.786,-0.267l0.768,-0.303l0.751,-0.304l0.733,-0.323l0.733,-0.342l0.716,-0.341l0.698,-0.38l0.67,-0.398l0.654,-0.4l0.663,-0.436l0.618,-0.437l0.619,-0.456l0.6,-0.474l0.583,-0.494l0.548,-0.513l0.539,-0.512l0.53,-0.532l0.503,-0.55l0.486,-0.57l0.265,0l2.552,7.88l19,0l0,-44.888l-0.027,-1.707l-0.088,-1.67l-0.133,-1.653l-0.185,-1.636l-0.248,-1.608l-0.318,-1.581l-0.353,-1.537l-0.433,-1.501l-0.512,-1.475l-0.539,-1.43l-0.645,-1.384l-0.689,-1.35l-0.768,-1.304l-0.83,-1.26l-0.919,-1.215l-0.971,-1.153l-1.052,-1.108l-1.148,-1.036l-1.219,-0.992l-1.298,-0.93l-1.37,-0.875l-1.465,-0.795l-1.537,-0.742l-1.634,-0.661l-1.705,-0.608l-1.82,-0.518l-1.899,-0.455l-1.987,-0.376l-2.084,-0.286l-2.182,-0.205l-2.27,-0.134l-2.358,-0.045zm13.32,50.111l0,0.456l-0.018,0.475l-0.036,0.474l-0.035,0.494l-0.062,0.475l-0.053,0.494l-0.08,0.474l-0.105,0.475l-0.045,0.17l-0.07,0.248l-0.053,0.228l-0.062,0.152l-0.07,0.189l-0.08,0.19l-0.203,0.475l-0.23,0.455l-0.239,0.456l-0.264,0.456l-0.283,0.437l-0.3,0.455l-0.318,0.436l-0.336,0.419l-0.362,0.417l-0.354,0.418l-0.397,0.399l-0.406,0.398l-0.415,0.38l-0.433,0.36l-0.468,0.362l-0.468,0.341l-0.495,0.324l-0.486,0.322l-0.521,0.285l-0.53,0.284l-0.539,0.267l-0.565,0.227l-0.565,0.228l-0.601,0.21l-0.6,0.17l-0.601,0.17l-0.636,0.134l-0.636,0.113l-0.645,0.096l-0.671,0.056l-0.68,0.057l-1.272,0l-0.583,-0.037l-0.566,-0.039l-0.565,-0.076l-0.539,-0.094l-0.53,-0.095l-0.52,-0.133l-0.513,-0.152l-0.468,-0.152l-0.486,-0.19l-0.45,-0.208l-0.433,-0.228l-0.433,-0.228l-0.389,-0.266l-0.397,-0.285l-0.353,-0.285l-0.363,-0.323l-0.318,-0.341l-0.318,-0.343l-0.282,-0.38l-0.265,-0.398l-0.256,-0.398l-0.23,-0.437l-0.203,-0.437l-0.168,-0.456l-0.168,-0.493l-0.132,-0.494l-0.115,-0.512l-0.097,-0.551l-0.053,-0.55l-0.036,-0.57l-0.017,-0.589l0.017,-0.665l0.053,-0.626l0.098,-0.626l0.106,-0.608l0.15,-0.57l0.194,-0.57l0.22,-0.53l0.248,-0.532l0.283,-0.513l0.3,-0.475l0.336,-0.475l0.37,-0.456l0.398,-0.436l0.433,-0.4l0.45,-0.398l0.486,-0.38l0.513,-0.38l0.52,-0.34l0.566,-0.324l0.583,-0.323l0.6,-0.303l0.637,-0.285l0.636,-0.266l0.68,-0.246l0.706,-0.248l0.716,-0.208l0.733,-0.21l0.768,-0.208l0.769,-0.171l0.812,-0.17l0.804,-0.153l0.848,-0.133l0.786,-0.114l0.822,-0.114l0.83,-0.094l0.865,-0.096l0.857,-0.056l0.901,-0.076l0.901,-0.039l0.928,-0.037l0.556,-0.02l0.565,-0.018l0.583,-0.02l2.906,0l0.001,8.051zm85.853,-47.886l0,45.152l-0.035,0.645l-0.062,0.628l-0.088,0.607l-0.098,0.608l-0.132,0.569l-0.168,0.57l-0.203,0.532l-0.168,0.436l-0.212,0.437l-0.22,0.437l-0.23,0.436l-0.239,0.418l-0.265,0.437l-0.282,0.437l-0.3,0.417l-0.319,0.418l-0.318,0.417l-0.362,0.418l-0.353,0.399l-0.371,0.38l-0.398,0.38l-0.415,0.36l-0.433,0.36l-0.45,0.343l-0.45,0.341l-0.486,0.304l-0.486,0.304l-0.53,0.266l-0.521,0.265l-0.548,0.248l-0.565,0.208l-0.574,0.21l-0.6,0.17l-0.628,0.152l-0.636,0.114l-0.636,0.114l-0.68,0.057l-0.671,0.057l-0.716,0l-0.865,-0.019l-0.84,-0.057l-0.83,-0.095l-0.786,-0.152l-0.75,-0.171l-0.734,-0.228l-0.689,-0.265l-0.662,-0.304l-0.636,-0.323l-0.6,-0.38l-0.584,-0.418l-0.547,-0.455l-0.504,-0.475l-0.503,-0.532l-0.45,-0.55l-0.433,-0.589l-0.416,-0.626l-0.37,-0.665l-0.345,-0.702l-0.336,-0.722l-0.282,-0.76l-0.283,-0.797l-0.238,-0.835l-0.212,-0.855l-0.186,-0.892l-0.168,-0.911l-0.132,-0.95l-0.115,-0.987l-0.088,-1.007l-0.062,-1.044l-0.036,-1.063l-0.017,-1.101l0,-40.157l-22.789,0l0,45.492l0.036,1.082l0.044,1.045l0.053,1.044l0.08,1.025l0.088,1.006l0.115,0.969l0.114,0.968l0.15,0.93l0.15,0.912l0.169,0.892l0.203,0.873l0.212,0.855l0.22,0.836l0.23,0.816l0.256,0.779l0.265,0.778l0.3,0.76l0.283,0.74l0.318,0.721l0.318,0.703l0.318,0.683l0.362,0.665l0.354,0.665l0.353,0.626l0.38,0.627l0.397,0.607l0.406,0.57l0.416,0.57l0.432,0.55l0.433,0.532l0.45,0.512l0.469,0.513l0.486,0.475l0.485,0.475l0.495,0.436l0.521,0.437l0.512,0.418l0.54,0.399l0.547,0.38l0.565,0.36l0.557,0.342l0.583,0.322l0.583,0.324l0.6,0.284l0.618,0.285l0.619,0.246l0.645,0.248l0.653,0.228l0.636,0.208l0.68,0.21l0.654,0.17l0.698,0.171l0.67,0.152l0.699,0.152l0.715,0.114l0.707,0.114l0.715,0.095l0.733,0.076l0.733,0.076l0.751,0.057l0.751,0.019l0.768,0.037l1.449,0l0.654,-0.019l0.636,-0.018l0.636,-0.039l0.644,-0.056l0.619,-0.057l0.618,-0.058l0.6,-0.094l0.583,-0.076l0.583,-0.115l0.583,-0.094l0.557,-0.133l0.547,-0.114l0.548,-0.152l0.539,-0.152l0.53,-0.152l1.007,-0.342l0.998,-0.36l0.936,-0.38l0.919,-0.38l0.883,-0.418l0.848,-0.417l0.804,-0.456l0.768,-0.455l0.733,-0.476l0.716,-0.474l0.68,-0.493l0.654,-0.494l0.618,-0.513l0.583,-0.532l0.547,-0.532l0.522,-0.55l0.503,-0.532l0.477,-0.531l0.424,-0.513l0.415,-0.493l0.398,-0.475l0.353,-0.475l0.318,-0.436l0.3,-0.456l2.933,10.785l18.504,0l0,-75.893l-23.124,0zm-181.894,-25.385l0,25.35l-10.643,0l0,17.298l10.643,0l0,30.87l0.018,0.95l0.019,0.93l0.02,0.93l0.036,0.893l0.057,0.892l0.075,0.873l0.075,0.855l0.094,0.855l0.093,0.815l0.113,0.817l0.132,0.798l0.15,0.778l0.15,0.76l0.169,0.76l0.169,0.72l0.188,0.722l0.206,0.703l0.225,0.683l0.225,0.665l0.245,0.645l0.262,0.646l0.263,0.608l0.281,0.607l0.3,0.57l0.3,0.57l0.32,0.55l0.338,0.532l0.357,0.531l0.357,0.494l0.375,0.475l0.394,0.474l0.394,0.437l0.375,0.38l0.376,0.38l0.394,0.36l0.394,0.36l0.431,0.343l0.432,0.341l0.47,0.342l0.47,0.323l0.468,0.323l0.507,0.303l0.506,0.285l0.526,0.304l0.545,0.266l0.544,0.266l0.582,0.266l0.563,0.228l0.6,0.247l0.6,0.209l0.62,0.208l0.62,0.19l0.638,0.19l0.657,0.151l0.656,0.152l0.68,0.134l0.672,0.133l0.697,0.113l0.69,0.076l0.715,0.076l0.715,0.076l0.733,0.038l0.734,0.02l0.75,0.018l1.237,-0.019l1.14,-0.037l1.077,-0.058l0.972,-0.075l0.918,-0.095l0.848,-0.115l0.804,-0.133l0.733,-0.152l0.715,-0.152l0.654,-0.17l0.618,-0.19l0.619,-0.19l1.166,-0.417l1.148,-0.437l0,-17.64l-0.3,0.114l-0.398,0.115l-0.468,0.113l-0.583,0.095l-0.654,0.096l-0.733,0.056l-0.786,0.057l-0.848,0.019l-0.75,-0.019l-0.698,-0.038l-0.672,-0.075l-0.636,-0.115l-0.6,-0.133l-0.566,-0.152l-0.547,-0.19l-0.504,-0.227l-0.468,-0.247l-0.45,-0.266l-0.433,-0.323l-0.38,-0.322l-0.37,-0.361l-0.337,-0.38l-0.318,-0.418l-0.282,-0.456l-0.265,-0.455l-0.247,-0.512l-0.221,-0.513l-0.212,-0.55l-0.168,-0.59l-0.168,-0.588l-0.132,-0.645l-0.133,-0.646l-0.088,-0.684l-0.097,-0.721l-0.071,-0.722l-0.062,-0.76l-0.035,-0.797l-0.036,-0.797l-0.017,-0.836l0,-27.756l14.485,0l0,-17.299l-14.485,0l0,-25.348l-22.676,-0.001zm173.282,-0.018l-14.08,20.47l16.288,0l19.847,-20.47l-22.055,0z" fill="#fff212"/>
   </g>
  </svg>