<svg xmlns="http://www.w3.org/2000/svg" viewBox="0.000010000000656873453 0.00014000000373926014 222 111"><g xmlns="http://www.w3.org/2000/svg" fill="none" fill-rule="evenodd"><g transform="translate(0.000010, 0.000140)"><rect width="222" height="111"/><g fill-rule="nonzero"><path fill="#273E74" d="m117.19582,0.00142l88.61904,0l-5.16957,24.66252l-87.77578,0l4.32631,-24.66252zm-112.91122,0l3.00575,0l-4.27317,24.66252l-3.01718,0l4.2846,-24.66252zm14.63317,0c1.57182,-0.00504 3.14062,0.00539 4.70976,0l-4.06327,24.66252l-4.42823,0l3.78174,-24.66252zm14.53091,0c2.01885,-0.00504 3.95294,0.00539 5.9765,0l-3.8369,24.66252l-6.34415,0l4.20455,-24.66252zm14.69942,0c3.40636,-0.00504 3.80865,0.00539 7.21668,0l-4.13895,24.66252l-7.39058,0l4.31285,-24.66252zm13.65065,0c4.21295,0 6.53958,0.00539 10.74715,0l-4.05789,24.66252l-11.0149,0l4.32564,-24.66252zm16.84139,0c5.01754,0 7.82987,0.00539 12.84943,0l-4.36264,24.66252l-12.63886,0l4.15207,-24.66252zm17.62478,0l-4.25534,24.66252l17.27497,0l4.42385,-24.66252l-17.44348,0z" transform="translate(8.092570, 43.168831)"/><path fill="#FEFEFE" d="m139.58553,1.38119l3.36902,0l-1.3135,6.75721c-0.22873,1.17189 -0.63405,2.0054 -1.19342,2.48606c-0.56778,0.49176 -1.39322,0.73832 -2.47564,0.73832c-0.39421,0 -0.77767,-0.03364 -1.15911,-0.10528c-0.36495,-0.07064 -0.7437,-0.17558 -1.12715,-0.32022l0.45645,-2.34984c0.2452,0.12614 0.46048,0.21023 0.64682,0.26001c0.18702,0.05517 0.35251,0.08207 0.50219,0.08207c0.29701,0 0.52574,-0.07669 0.67576,-0.23175c0.14968,-0.14968 0.27313,-0.45745 0.35453,-0.90347l1.26405,-6.41311zm1.81872,9.78717l3.46118,0l0.53347,-1.44535l2.00036,0l-0.02086,1.44535l3.41342,0l-0.85134,-9.78717l-3.98658,0l-4.54965,9.78717zm4.70673,-3.4188l1.39322,-3.6297l-0.03935,3.6297l-1.35387,0zm5.05925,3.4188l1.91929,-9.78717l3.39256,0l-1.44535,7.35627l2.48102,0l-0.47091,2.4309l-5.87661,0zm6.83625,0l1.92333,-9.78717l3.39055,0l-1.44805,7.35627l2.48371,0l-0.47326,2.4309l-5.87628,0zm6.83828,0l1.91895,-9.78717l5.99737,0l-0.46284,2.37271l-2.61489,0l-0.25261,1.25161l2.35791,0l-0.44165,2.28861l-2.35488,0l-0.27346,1.34344l2.61489,0l-0.49378,2.5308l-5.99501,0zm7.4037,-3.01146l-0.57821,2.58832c0.35453,0.19946 0.80155,0.36058 1.32695,0.47292c0.52877,0.11336 1.08545,0.17357 1.67678,0.17357c1.39019,0 2.48101,-0.30778 3.28257,-0.9065c0.79953,-0.60209 1.1988,-1.42686 1.1988,-2.47564c0,-0.46485 -0.10293,-0.87555 -0.2997,-1.23815c-0.20485,-0.35689 -0.61521,-0.78306 -1.24017,-1.28525c-0.05012,-0.03935 -0.11336,-0.09149 -0.18702,-0.14968c-0.62799,-0.50219 -0.93812,-0.888 -0.93812,-1.16449c0,-0.20485 0.0814,-0.37034 0.24454,-0.48067c0.1601,-0.12041 0.38345,-0.18163 0.67037,-0.18163c0.31517,0 0.6438,0.04978 0.98487,0.16078c0.35251,0.0999 0.69964,0.26001 1.06762,0.46485l0.47831,-2.38381c-0.47327,-0.19441 -0.93879,-0.33367 -1.39827,-0.43054c-0.45745,-0.08947 -0.94114,-0.13421 -1.45073,-0.13421c-1.25363,0 -2.24758,0.27582 -2.97749,0.82779c-0.73395,0.55197 -1.0989,1.28794 -1.0989,2.2237c0,0.4181 0.11302,0.79651 0.32324,1.13758c0.21023,0.34713 0.60714,0.7437 1.18299,1.19342c0.48067,0.36832 0.80089,0.6623 0.96402,0.88296c0.16549,0.22334 0.24723,0.44164 0.24723,0.67272c0,0.25261 -0.09956,0.45746 -0.29936,0.60209c-0.19745,0.14969 -0.4625,0.23075 -0.7992,0.23075c-0.3838,0 -0.78104,-0.07064 -1.19578,-0.20989c-0.4181,-0.13421 -0.81198,-0.33098 -1.18534,-0.59099zm-43.01015,7.9291l-1.71343,7.25603l-2.90921,0l2.78576,-9.78683l3.95799,0l0.03128,5.16419l2.05788,-5.16419l3.93478,0l-1.03533,9.78683l-2.92266,0l1.10327,-7.24863l-2.86447,7.24863l-2.28425,0l-0.14161,-7.25603zm7.12217,7.25603l3.46959,0l0.52506,-1.44804l2.00035,0l-0.01345,1.44804l3.41207,0l-0.85739,-9.78683l-3.9812,0l-4.55503,9.78683zm4.70707,-3.41409l1.39826,-3.63407l-0.04978,3.63407l-1.34848,0zm12.85178,-3.8554c-0.19946,-0.08947 -0.38581,-0.14665 -0.56778,-0.18399c-0.17054,-0.03431 -0.34915,-0.05516 -0.53045,-0.05516c-0.79415,0 -1.43257,0.29936 -1.91088,0.91693c-0.48335,0.61016 -0.72015,1.42248 -0.72015,2.4319c0,0.64582 0.1443,1.12716 0.44164,1.43695c0.27851,0.31282 0.72554,0.47326 1.32763,0.47326c0.14464,0 0.29634,-0.01581 0.46485,-0.03969c0.16819,-0.0259 0.34713,-0.06021 0.53348,-0.11234l-0.51498,2.35992c-0.23175,0.0814 -0.47831,0.13119 -0.74941,0.1729c-0.26809,0.02926 -0.58561,0.05011 -0.93274,0.05011c-1.36396,0 -2.40769,-0.32055 -3.12751,-0.96401c-0.71746,-0.64448 -1.07805,-1.57721 -1.07805,-2.79922c0,-1.91896 0.53953,-3.46623 1.6354,-4.63375c1.09588,-1.16953 2.54426,-1.75279 4.34919,-1.75279c0.3367,0 0.66028,0.02086 0.97007,0.07064c0.32324,0.04473 0.63337,0.111 0.93778,0.20552l-0.52809,2.42282zm-0.42315,7.26949l3.38315,0l0.74336,-3.82378l1.37977,0l-0.74639,3.82378l3.36666,0l1.93174,-9.78683l-3.38248,0l-0.6808,3.54258l-1.39523,0l0.70165,-3.54258l-3.37709,0l-1.92434,9.78683zm8.48915,0l4.54965,-9.78683l3.98659,0l0.85671,9.78683l-3.41644,0l0.0185,-1.44804l-2.00036,0l-0.53347,1.44804l-3.46118,0zm4.70976,-3.41409l1.34546,0l0.04473,-3.63407l-1.39019,3.63407zm5.06699,3.41409l1.92635,-9.78683l2.56275,0c1.61085,0 2.80124,0.30172 3.56647,0.91423c0.76489,0.59974 1.14868,1.54559 1.14868,2.82041c0,0.98252 -0.18702,1.93107 -0.57081,2.84598c-0.37303,0.91692 -0.86176,1.61353 -1.45847,2.1127c-0.49109,0.3895 -1.04071,0.67575 -1.68216,0.84393c-0.6253,0.16314 -1.60849,0.24958 -2.9489,0.24958l-2.54391,0zm3.87894,-2.41509c0.02388,0.00505 0.05012,0.00505 0.07669,0.00505c0.02321,0.00841 0.06055,0.00841 0.11033,0.00841c0.1998,0 0.39186,-0.03734 0.5624,-0.11336c0.18937,-0.07602 0.33098,-0.18702 0.45476,-0.31517c0.19947,-0.2109 0.39187,-0.65187 0.57048,-1.30677c0.18634,-0.6623 0.27346,-1.31418 0.27346,-1.96807c0,-0.42314 -0.08207,-0.74134 -0.24723,-0.93576c-0.17356,-0.20283 -0.44198,-0.30777 -0.82039,-0.3256l-0.9805,4.95127zm9.18306,-0.84629c0,0.35991 0.05584,0.63102 0.17861,0.79617c0.1184,0.1655 0.3182,0.25261 0.57821,0.25261c0.2368,0 0.44703,-0.07669 0.62059,-0.22637c0.17357,-0.15204 0.32863,-0.39119 0.46486,-0.73294c0.19442,-0.43155 0.3367,-0.95661 0.44703,-1.5772c0.1184,-0.60714 0.17659,-1.19275 0.17659,-1.74472c0,-0.36529 -0.06358,-0.63102 -0.18198,-0.80458c-0.1184,-0.16785 -0.29129,-0.26001 -0.53851,-0.26001c-0.26304,0 -0.47831,0.07366 -0.65188,0.22031c-0.17894,0.1507 -0.3367,0.39187 -0.46788,0.72352c-0.17894,0.4514 -0.32863,0.98252 -0.44703,1.60547c-0.12277,0.62261 -0.17861,1.2062 -0.17861,1.74774zm0.41037,3.4558c-1.15407,0 -2.07099,-0.33367 -2.76256,-1.00943c-0.70165,-0.66734 -1.04575,-1.55332 -1.04575,-2.66702c0,-0.90953 0.14228,-1.79013 0.43122,-2.65223c0.29432,-0.85672 0.68315,-1.57418 1.17996,-2.15508c0.48369,-0.56476 1.05652,-0.98555 1.68989,-1.26137c0.63607,-0.27548 1.36396,-0.41776 2.18132,-0.41776c1.16651,0 2.09185,0.33132 2.78005,0.99597c0.68416,0.64952 1.03061,1.55636 1.03061,2.68351c0,0.91693 -0.15001,1.79248 -0.43592,2.63878c-0.28389,0.8483 -0.68383,1.57182 -1.18535,2.16786c-0.47091,0.55735 -1.02288,0.9805 -1.66937,1.25901c-0.6438,0.28389 -1.37472,0.41776 -2.1941,0.41776z" transform="translate(8.092570, 43.168831)"/></g></g></g></svg>