<svg  id="fndm-eq1z0367x1" viewBox="114.99998474121094 52.677001953125 370 147.322998046875" xmlns="http://www.w3.org/2000/svg">
   <g xmlns="http://www.w3.org/2000/svg" fill-rule="evenodd" fill="none">
    <g fill="red">
     <path d="m241.705,74.592l0,-0.846l-38.308,0s5.88,1.862 8.485,3.046c1.68,0.762 2.016,1.27 2.268,2.285c0.672,2.2 0.924,50.6 0.336,53.308c-0.84,3.892 -4.62,6.43 -9.493,5.669c-1.26,-0.17 -2.436,-0.677 -3.528,-1.523c-2.184,-1.693 -3.949,-4.57 -6.3,-6.093c-3.53,-2.284 -14.03,-2.115 -16.215,0.762c-1.008,1.354 -0.336,3.808 1.597,5.33c7.56,6.008 27.555,3.64 34.023,1.778c8.821,-2.454 16.214,-7.108 18.062,-14.893c1.26,-5.33 0.42,-40.615 1.597,-44.253c0.588,-1.693 2.016,-2.624 5.796,-3.724c1.512,-0.423 1.68,-0.507 1.68,-0.846z" fill-rule="nonzero"/>
     <path d="m269.933,82.208l0,49.584c0,1.946 -0.084,2.285 -0.42,3.131c-0.252,0.592 -0.588,1.015 -1.092,1.608c-1.093,1.1 -3.36,2.707 -3.36,2.707s29.486,1.27 44.02,0c9.493,-0.761 25.707,-4.146 27.387,-15.992c1.008,-6.938 -5.712,-14.215 -12.601,-15.23c-3.277,-0.424 -8.317,-1.608 -8.653,-2.454c-0.168,-0.508 -0.252,-1.185 -0.252,-1.185s8.82,-3.3 12.853,-5.839c6.805,-4.315 6.049,-13.453 -0.756,-18.784c-1.008,-0.846 -6.385,-3.808 -9.24,-4.4c-1.681,-0.339 -2.017,-0.423 -3.781,-0.423l-51.078,-0.593s3.444,1.185 4.872,2.116c0.505,0.338 1.597,1.608 1.933,2.792c0.168,0.677 0.168,1.016 0.168,2.962zm18.902,21.915l0,-27.33s5.208,-0.255 9.073,0c9.745,0.592 16.886,8.038 13.945,17.769c-1.68,5.5 -8.82,9.138 -16.717,9.476c-2.773,0.17 -6.301,0.085 -6.301,0.085zm0,25.47l0,-23.1s3.78,-0.085 6.72,0c10.082,0.338 17.643,4.145 19.49,12.945c2.437,11.847 -10.332,19.631 -21.842,17.431c-1.932,-0.338 -3.108,-1.269 -3.948,-3.807c-0.42,-1.185 -0.42,-1.524 -0.42,-3.47l0,0.001zm86.445,7.277c-1.26,0.338 -4.284,0.845 -4.284,0.507l0,1.185c0.252,0.253 3.193,0.084 4.789,-0.339c0.42,0 0.924,-0.17 1.428,-0.254c6.217,-1.354 14.03,-5.077 14.786,-11.423c0.672,-5.923 -1.849,-8.8 -5.797,-11.677c-2.268,-1.607 -18.65,-7.954 -18.818,-7.277c-0.084,0.423 -0.168,0.846 0,0.931c1.932,0.846 5.04,1.608 7.813,2.708c6.636,2.538 13.61,8.038 12.013,16.161c-0.756,3.639 -3.696,6.6 -7.309,7.785c-0.924,0.423 -3.444,0.93 -4.62,1.692l-0.001,0.001zm-13.189,2.368l0,-0.676c0,-0.254 -0.168,-0.339 -1.848,-0.677c-4.62,-0.847 -12.265,-3.216 -14.114,-7.785c-0.672,-1.692 -1.344,-3.977 -2.184,-4.23c-0.672,-0.17 -1.764,0 -1.764,0l0,3.892c0.168,6.6 2.016,7.192 8.149,8.207c4.452,0.846 11.761,1.27 11.761,1.27l0,-0.001zm42.761,-53.308l1.176,0l0,-3.215c0,-1.438 0,-1.777 -0.252,-3.215c-0.42,-3.046 -1.008,-3.554 -2.94,-4.146c-1.932,-0.592 -4.285,-1.354 -7.981,-1.523c-2.1,-0.085 -4.62,0 -4.62,0l0,0.677c0,0.254 0.167,0.338 1.848,0.677c4.452,0.846 8.905,3.638 11.34,9.053c0.757,1.524 0.925,1.693 1.429,1.693l0,-0.001zm-41.752,20.224c-7.478,-4.908 -15.038,-6.6 -16.215,-15.4c-0.42,-2.962 0,-6.262 1.849,-8.462c0.504,-0.592 4.956,-4.23 3.948,-5.415c-0.672,-0.677 -4.956,2.285 -5.797,3.046c-4.704,4.146 -6.72,10.07 -3.696,15.146c1.26,2.116 3.276,3.893 6.3,6.262c2.185,1.692 13.358,6.515 13.61,5.838c0.168,-0.423 0.168,-0.93 0,-1.015l0.001,0z"/>
     <path d="m376.709,74c-0.42,-0.085 -1.176,0.085 -2.436,0.338c-8.065,1.777 -15.206,4.4 -17.474,10.747c-1.513,4.315 -0.168,6.853 3.108,10.238c0.588,0.592 1.176,1.185 1.848,1.523c0.924,0.508 1.176,0.677 2.772,1.27l26.295,10.66c1.597,0.678 1.933,0.847 3.277,1.609c3.864,2.2 7.14,7.361 7.645,10.238c0.672,3.385 0.084,7.785 -1.849,10.154c-2.016,2.454 -6.804,5.67 -6.048,6.685c0.504,0.592 4.116,-0.762 6.805,-2.116c8.485,-4.23 13.777,-12.438 7.056,-21.492c-0.672,-0.846 -1.344,-1.692 -2.184,-2.37c-1.092,-0.846 -1.428,-1.015 -3.024,-1.692l-30.496,-13.03c-1.596,-0.677 -1.848,-0.847 -2.856,-1.524c-3.024,-2.2 -4.62,-7.107 -4.2,-9.561c0.924,-5.077 3.192,-6.854 7.812,-9.054c0.924,-0.423 1.765,-0.846 2.773,-0.93c0.756,-0.085 1.092,-0.17 1.26,-0.255l3.276,-0.338l0,-1.185l-3.36,0.085zm47.885,-21.323c24.531,14.638 39.317,33.677 39.317,54.408c0,20.73 -14.786,39.769 -39.317,54.407c30.748,-14.046 49.65,-33.254 49.65,-54.407c0,-21.154 -18.902,-40.362 -49.65,-54.408zm-251.608,108.9c-24.531,-14.639 -39.317,-33.677 -39.317,-54.408c0,-20.73 14.786,-39.769 39.317,-54.407c-30.748,14.046 -49.65,33.253 -49.65,54.407c0,21.154 18.902,40.277 49.65,54.408z"/>
    </g>
    <path d="m484.244,112c-1.68,44.461 -83.556,80.198 -184.244,80.198s-182.565,-35.737 -184.244,-80.198a36.103,36.103 0 0 0 -0.756,7.382c0,44.546 82.8,80.618 185,80.618s185,-36.072 185,-80.618c0,-2.433 -0.252,-4.95 -0.756,-7.382z" stroke-width="0.72" stroke="#7F7F7F" fill="#7F7F7F"/>
   </g>
  </svg>