<svg  id="fndm-6kzzmmak2u" viewBox="0.20000000298023224 0.5499935150146484 1708.10986328125 451.4806213378906" xmlns="http://www.w3.org/2000/svg">
   <g xmlns="http://www.w3.org/2000/svg" fill="none">
    <path d="m297.23,93.73l23.45,-26.14c0.63,0.2 -1,1 -2.32,1c-16.9,-0.06 -33.8,0 -50.69,-0.12a9.81,9.81 0 0 0 -7.47,3.06c-28.22,26.88 -56.84,53.35 -84.66,80.64c-16.26,15.88 -35.38,23.43 -57.68,23.88c-16.89,0.3 -33.79,0.14 -50.68,0.42c-3.47,0.06 -4.15,-1.17 -4.14,-4.32c0.08,-55.7 0.08,-111.403 0,-167.11c0,-3.51 1,-4.49 4.5,-4.49c110.24,0.093 220.48,0.093 330.72,0c3.59,0 4.45,1.11 4.43,4.54c-0.113,34.46 -0.113,68.92 0,103.38c0,4 -1.34,4.59 -4.87,4.58c-21.91,-0.1 -43.8,0.07 -65.62,2.67c-20.36,2.43 -38.56,9.8 -53.55,23.84c-37.24,34.86 -74.22,70 -111.3,105.05c-0.43,0.4 -0.79,0.9 -2.17,2.51l17,0c-2.31,3.77 -6,6.2 -9,9.32c-5.06,5.33 -9.89,10.88 -14.61,16.1l55.11,0a7.06,7.06 0 0 0 5.25,-2.38c7,-6.73 14,-13.38 21.07,-20.06c22.16,-21.087 44.317,-42.183 66.47,-63.29c12.28,-11.76 26.59,-18.91 43.5,-20.76c17.51,-1.95 35.07,-0.95 52.61,-1c0,56.667 0.033,113.357 0.1,170.07c0,3.88 -1,5 -5,5c-109.86,-0.107 -219.723,-0.107 -329.59,0c-4.43,0 -5.11,-1.5 -5.1,-5.44c0.15,-35.45 0.09,-70.9 0.1,-106.35c28.54,-0.34 57.12,0.67 85.54,-3.06c17.94,-2.36 34.34,-8.57 48.25,-20.29c20.09,-16.93 38.27,-35.93 57.56,-53.68c17.56,-16.18 34.79,-32.74 52.12,-49.18c2.43,-2.32 5.25,-4.37 7.52,-8.39l-16.85,0z" fill="#A41D23"/>
    <path d="m717.66,240.17c0.06,21.62 -2.72,42.72 -12.4,62.35c-9.18,18.6 -22.92,32.08 -44,36.18c-27.17,5.29 -51.23,-6.12 -64.54,-30.47a115.8,115.8 0 0 1 -13.5,-45.26c-2.08,-22.29 -2.14,-44.44 3.67,-66.22c4.42,-16.58 11.56,-31.65 25,-43.06c22,-18.56 64.33,-20.52 86.77,11.88c10.47,15.12 15.22,32.15 17.59,50.07a221.14,221.14 0 0 1 1.41,24.53zm-40.72,1.53c-0.59,-8.83 -0.52,-17.53 -1.89,-26.14c-1.57,-9.91 -3.16,-19.81 -8.54,-28.56c-8.66,-14.09 -23.05,-14.46 -32.29,-0.81c-6.35,9.38 -8.6,20.16 -10.23,31.1c-2.52,16.82 -1.48,33.69 0.28,50.46c1,10 3.93,19.69 9.88,28.05c8,11.3 22,11.51 30.5,0.57a44.65,44.65 0 0 0 6.64,-12.84c4.77,-13.61 5.03,-27.83 5.65,-41.83z" fill="#6F7072"/>
    <path d="m1118.95,238.21c-0.28,-20.59 2.45,-40.66 11.11,-59.58c15.4,-33.64 46.1,-43.65 74.65,-35.66c18.11,5.07 29.64,18.07 37.67,34.46c7.47,15.25 10.45,31.63 11.55,48.42c1.67,25.47 -0.14,50.52 -10.78,74.14c-8.81,19.56 -22.63,34 -44.38,38.59c-27.38,5.81 -52.36,-6.13 -65.74,-30.93c-9.82,-18.22 -13.43,-38 -14.06,-58.4c-0.12,-3.68 -0.02,-7.36 -0.02,-11.04zm94.43,3.26a153.09,153.09 0 0 0 -1.09,-21.51c-1.57,-11.41 -2.89,-22.93 -9.12,-33c-8.7,-14.09 -23,-14.35 -32.29,-0.71c-4.81,7 -7.07,15 -8.85,23.21c-4.38,20.24 -3.26,40.59 -0.67,60.84c1.22,9.58 4.18,19 10.44,26.75c7.86,9.8 21,9.81 28.94,0.09a43.8,43.8 0 0 0 7.58,-14.57c4.33,-13.38 5.07,-27.2 5.06,-41.1z" fill="#A41D23"/>
    <path d="m866.98,238.74c-0.57,-20.08 1.93,-39.71 10.1,-58.26c8.76,-19.9 22.58,-34.24 44.71,-38.68c27.24,-5.46 50.65,5.11 64.85,29c8.35,14.06 12.4,29.49 14.24,45.56c2.92,25.52 2,50.76 -6.5,75.27c-5.25,15.15 -13.4,28.42 -26.78,37.85c-28.66,20.17 -68,11 -85.71,-20.08c-10,-17.52 -14.17,-36.63 -14.88,-56.6c-0.17,-4.69 -0.03,-9.38 -0.03,-14.06zm94.3,2.67a160.9,160.9 0 0 0 -3.15,-34.36c-1.71,-8.89 -4.08,-17.64 -10.54,-24.5c-8.26,-8.78 -19.21,-8.35 -26.83,0.94c-5,6.07 -7.75,13.17 -9.67,20.68c-5.22,20.39 -4.71,41 -2.43,61.71c1.2,10.92 3.87,21.4 10.42,30.42c7.81,10.75 21.59,10.81 29.84,0.36a45.39,45.39 0 0 0 7.4,-14.67c4.18,-13.22 4.84,-26.87 4.96,-40.58z" fill="#6F7072"/>
    <path d="m1386.63,336.91c-12.37,0 -24.73,-0.07 -37.1,0c-3.19,0 -3.17,-2.39 -3.88,-4.28c-10,-26.36 -20,-52.73 -30,-79.11c-0.55,-1.44 -0.58,-3.23 -2.62,-4.55l0,40.87c0,14.39 -0.09,28.78 0.06,43.16c0,3.09 -0.84,4 -3.94,3.94c-10.2,-0.19 -20.41,-0.16 -30.62,0c-2.9,0 -4,-0.53 -4,-3.8c0.073,-61.907 0.073,-123.817 0,-185.73c0,-2 -0.4,-3.94 2.85,-3.86c18.55,0.47 37.13,-0.72 55.66,1.23c40.3,4.26 50.29,33.19 47.49,61.5c-1.71,17.26 -9,31.79 -24.42,41.07c-3.08,1.85 -1.36,3.58 -0.69,5.36c9.96,26.387 19.96,52.76 30,79.12c0.49,1.55 1.5,2.96 1.21,5.08zm-73.66,-136.22l-0.22,0l0,15.55c0,10.62 2.06,12.2 12.63,9.66c13.81,-3.3 21.26,-17.33 17.75,-33.37c-2.74,-12.46 -14.76,-19.92 -27.92,-17.53c-2.55,0.46 -2.22,2 -2.23,3.63c-0.02,7.35 -0.01,14.71 -0.01,22.06z" fill="#A41D23"/>
    <path d="m837.53,336.89c-5.52,0 -11,-0.1 -16.56,0c-2.62,0.07 -3.82,-0.74 -4.38,-3.47c-1.73,-8.34 -4,-16.57 -5.65,-24.91c-0.61,-3 -1.58,-4.2 -4.84,-4.13c-10.37,0.21 -20.74,0.17 -31.11,0c-2.93,0 -4,0.91 -4.56,3.82c-1.45,8.05 -3.4,16 -4.89,24.05c-0.61,3.25 -1.65,4.82 -5.42,4.69c-9.69,-0.31 -19.41,-0.33 -29.1,0c-4.34,0.14 -4.42,-1.36 -3.61,-4.85c9.567,-40.98 19.063,-81.98 28.49,-123c4.78,-20.66 9.67,-41.29 14.29,-62c0.72,-3.22 1.8,-4.41 5.18,-4.34c10.37,0.22 20.75,0.25 31.12,0c3.64,-0.09 5.16,1 6,4.61c11,46.287 22.103,92.553 33.31,138.8c3.75,15.59 7.37,31.2 11.32,46.73c0.85,3.35 0.17,4.07 -3.06,4c-5.48,-0.14 -11,0 -16.53,0zm-47.28,-143.84c-0.5,1.69 -0.69,2.15 -0.77,2.62a97501.924,97501.924 0 0 1 -11.63,75.14c-0.47,3 1.25,2.85 3.19,2.85c6.34,0 12.7,-0.15 19,0.05c3.35,0.1 4.53,-0.32 3.86,-4.34c-4.12,-25.12 -10.69,-49.83 -13.65,-76.32z" fill="#6F7072"/>
    <path d="m1516.41,239.87c0,-30.45 0.07,-60.89 -0.08,-91.33c0,-3.81 0.79,-5.06 4.86,-5c22.58,0.22 45.16,0.22 67.74,0c3.76,0 4.91,0.91 4.72,4.73c-0.45,9 -0.58,18.05 -0.57,27.08c0,3 -0.76,4 -3.93,4c-10.2,-0.22 -20.41,0 -30.61,-0.15c-3,-0.05 -4,0.66 -4,3.85c0.2,11.71 0.19,23.42 0,35.13c0,2.92 1,3.66 3.72,3.61c8.86,-0.15 17.73,0.07 26.59,-0.12c3.06,-0.07 4,0.77 4,3.91c-0.167,9.2 -0.123,18.4 0.13,27.6c0.09,3.2 -0.67,4.34 -4.08,4.24c-8.86,-0.24 -17.73,0.06 -26.59,-0.15c-3.13,-0.08 -3.94,0.8 -3.86,3.91c0.287,11.873 0.39,23.747 0.31,35.62c0,3.07 0.87,4 4,4c10.2,-0.18 20.41,0.06 30.61,-0.14c3.29,-0.06 4.71,0.5 4.61,4.27c-0.26,9.19 -0.26,18.4 0.1,27.59c0.16,4 -1.31,4.57 -4.83,4.55c-22.58,-0.15 -45.17,-0.21 -67.75,0c-4.38,0 -5.08,-1.36 -5.06,-5.33c0.17,-30.61 0.09,-61.22 0.09,-91.83l-0.12,-0.04zm103.09,53.81c8.58,5.41 16.28,9.17 25,10.36c9.72,1.33 20.29,-3.62 24.19,-11.64c4.1,-8.41 1.61,-19.58 -6.28,-26.35c-5.58,-4.78 -11.54,-9.12 -17.33,-13.65c-3.69,-2.89 -7.34,-5.82 -11.06,-8.65c-27,-20.54 -25.88,-55.13 -14.68,-77.6c10.45,-21 33.51,-30.11 58.7,-23.91c18.41,4.54 19,5.36 18.83,24c-0.08,6.49 0,13 0,20.5c-2.06,-1.47 -3.33,-2.34 -4.56,-3.26c-6.43,-4.78 -13.44,-8.1 -21.55,-8.65c-14.73,-1 -23.64,9.49 -20.46,24.06a22.78,22.78 0 0 0 8.18,13.43c9.42,7.49 19.12,14.65 28.23,22.51c22.46,19.38 28,51.62 13.81,77.79c-12.49,23 -39.29,33 -66.2,24.65c-15.54,-4.81 -15.45,-4.81 -14.9,-20.81c0.29,-7.16 0.08,-14.35 0.08,-22.78zm-595.75,-53.56c0,-30.62 0.07,-61.24 -0.09,-91.86c0,-3.72 0.87,-4.79 4.67,-4.76c22.76,0.187 45.517,0.187 68.27,0c3.47,0 4.54,0.91 4.44,4.42c-0.25,8.7 -0.3,17.41 0,26.1c0.14,4 -0.7,5.48 -5.08,5.31c-9.69,-0.37 -19.41,0 -29.11,-0.19c-3.61,-0.09 -5,0.73 -4.94,4.66c0.26,10.87 0.2,21.75 0,32.63c-0.05,3.22 0.86,4.39 4.2,4.32c9,-0.2 18.07,0.07 27.1,-0.14c3.36,-0.08 4.7,0.61 4.56,4.33c-0.33,9.19 -0.33,18.4 -0.19,27.6c0,3.12 -1,4 -4,3.92c-8.87,-0.19 -17.75,0.13 -26.6,-0.16c-3.76,-0.13 -4.75,0.9 -4.72,4.68c0.25,23.59 0.11,47.18 0.37,70.77c0.05,4.17 -1,5.39 -5.21,5.25c-9.69,-0.32 -19.41,-0.26 -29.1,0c-3.59,0.09 -4.45,-1.08 -4.43,-4.52c0.12,-30.78 0.07,-61.57 0.07,-92.35l-0.21,-0.01zm406.55,18.24c0,-24.75 -0.09,-49.5 0.09,-74.24c0,-3.93 -1,-5.17 -5,-5c-7.17,0.34 -14.37,0 -21.56,0.14c-2.6,0.05 -4,-0.33 -3.84,-3.46c0.33,-9.53 0.43,-19.06 0.45,-28.59c0,-2.74 0.83,-3.7 3.71,-3.69c30.44,0.1 60.877,0.1 91.31,0c2.53,0 3.54,0.63 3.5,3.35c-0.14,9.687 -0.14,19.383 0,29.09c0,2.81 -1.13,3.32 -3.58,3.28c-7.19,-0.12 -14.39,0.18 -21.57,-0.13c-4,-0.18 -5,1 -5,5c0.133,48.827 0.157,97.657 0.07,146.49c0,7.2 0.88,6.25 -6.5,6.29c-8.86,0 -17.73,-0.18 -26.59,0.1c-3.86,0.12 -5,-0.87 -5,-4.9c0.2,-24.58 0.1,-49.16 0.1,-73.74l-0.59,0.01z" fill="#A41D23"/>
    <path d="m487.8,296.5c5.2,5.19 10.14,8.78 16.37,10.24c7.57,1.78 14.09,-1.24 17.38,-8.27c2.61,-5.59 3,-11.59 3,-17.65c-0.2,-43.66 -0.29,-87.32 -0.69,-131c0,-5.15 1.28,-6.54 6.35,-6.31c9.35,0.44 18.74,0.26 28.1,0.06c3.38,-0.08 4.59,0.71 4.58,4.36c-0.1,45.84 -0.1,91.68 0,137.52a75.67,75.67 0 0 1 -4.2,26.1c-5.77,15.83 -16.88,25.52 -33.66,27.84a64.69,64.69 0 0 1 -33.51,-3.89c-2.1,-0.85 -3.76,-1.68 -3.73,-4.54c0.1,-11.13 0.01,-22.28 0.01,-34.46zm-190.57,-202.77l16.83,0c-2.27,4 -5.09,6.07 -7.52,8.39c-17.33,16.44 -34.56,33 -52.12,49.18c-19.27,17.75 -37.45,36.75 -57.52,53.65c-13.91,11.72 -30.31,17.93 -48.25,20.29c-28.42,3.73 -57,2.72 -85.54,3.06l-62.91,0c9.82,-9.07 18.6,-17.2 27.41,-25.28c1.53,-1.4 3.53,-0.74 5.31,-0.74c29.45,-0.1 58.89,0 88.33,-0.29c15.37,-0.18 30.73,-1.15 45.88,-4.17c21.41,-4.27 37.87,-16.7 53.17,-31.4c24.76,-23.76 49.76,-47.22 74.65,-70.79c0.72,-0.68 1.52,-1.27 2.28,-1.9zm105.35,71.25c-17.54,0.09 -35.1,-0.91 -52.61,1c-16.91,1.88 -31.22,9 -43.45,20.77c-22.087,21.2 -44.24,42.3 -66.46,63.3c-7,6.68 -14.08,13.33 -21.07,20.06a7.06,7.06 0 0 1 -5.25,2.38c-18.56,-0.07 -37.13,0 -55.11,0c4.72,-5.22 9.55,-10.77 14.61,-16.1c3,-3.12 6.67,-5.55 9,-9.32c11.52,-0.11 23.05,-0.61 34.55,-0.18c6.24,0.24 10.47,-1.87 14.88,-6.11c27.39,-26.44 55.39,-52.32 82.72,-78.9c15.39,-15 33.69,-22.21 54.63,-22.5c33.22,-0.46 66.45,-0.12 100.73,-0.12c-4.82,4.44 -9.72,8 -13.36,12.49c-8.87,11 -19.89,15 -33.79,13.16c-6.54,-0.86 -13.34,0 -20.02,0.07z" fill="#6F7072"/>
    <path d="m793.76,120.72c-9.52,0 -19.05,-0.18 -28.56,0.09c-3.48,0.09 -4.22,-1.13 -4.09,-4.26c0.21,-5.33 0.16,-10.69 0,-16c-0.08,-2.58 0.73,-3.48 3.39,-3.47c19.547,0.1 39.093,0.1 58.64,0c2.94,0 3.68,1 3.59,3.78c-0.19,5.34 -0.23,10.69 0,16c0.14,3.1 -0.83,4 -3.93,3.93c-9.66,-0.2 -19.35,-0.07 -29.04,-0.07z" fill="#A41D23"/>
    <path d="m1113.06,433.27c-0.26,-13.74 -1.19,-27.4 -1.11,-41.11c0,-3.35 0.55,-4.6 4.25,-4.58c3.7,0.02 4.36,1.4 4.34,4.7c-0.13,18.23 0,36.47 -0.11,54.7c0,1.57 1,4.2 -2.06,4.08c-2.49,-0.1 -5.57,1.52 -6.79,-2.89c-3.29,-11.91 -7,-23.69 -10.62,-35.52a8.59,8.59 0 0 0 -2.52,-4.26c0.25,5.91 0.61,11.83 0.75,17.75c0.16,7.35 0,14.71 0.24,22.06c0.11,3.65 -2.32,2.93 -4.38,2.92c-2.06,-0.01 -4.34,0.8 -4.32,-2.91c0.14,-19.07 0.07,-38.14 0.06,-57.21c0,-1.74 -0.12,-3.56 2.45,-3.25c2.57,0.31 5.53,-1.36 6.78,3c3.66,12.84 7.79,25.55 11.74,38.32c0.43,1.4 0.87,2.8 1.3,4.2zm-14.66,-28.71a1.64,1.64 0 0 0 -0.07,2.12a1.67,1.67 0 0 0 0.07,-2.12zm234.55,28.76c-0.29,-13.87 -1.26,-27.53 -1.11,-41.24c0,-2.89 0.07,-4.66 3.81,-4.47c3.1,0.15 4.83,0.35 4.79,4.25c-0.2,18.4 -0.07,36.8 -0.13,55.2c0,1.6 0.94,4.16 -2.15,4c-2.52,-0.12 -5.53,1.4 -6.73,-3c-3.28,-11.92 -7,-23.7 -10.63,-35.53c-0.46,-1.49 -0.42,-3.28 -1.93,-4.24l0,14.89c0.09,7.52 -0.1,15.07 0.51,22.55c0.41,5.18 -2,5.68 -6.06,5.45c-2.35,-0.14 -2.69,-1.13 -2.69,-3.1c0.053,-19.073 0.053,-38.143 0,-57.21c0,-1.81 0,-3.47 2.54,-3.17c2.54,0.3 5.49,-1.26 6.72,3.08c3.65,12.85 7.79,25.56 11.74,38.33c0.43,1.43 0.89,2.82 1.32,4.21zm-14.68,-28.76a1.64,1.64 0 0 0 -0.07,2.12a1.67,1.67 0 0 0 0.07,-2.12zm247.37,46.18c-7.66,1 -7.64,1 -10.27,-6.09a148.09,148.09 0 0 0 -9.21,-21.08c0,7.59 -0.14,15.17 0.07,22.75c0.1,3.44 -0.44,5.05 -4.53,5c-3.8,-0.06 -4.22,-1.5 -4.2,-4.71c0.127,-18.22 0.127,-36.44 0,-54.66c0,-3.15 0.67,-4.63 4.11,-4.26c2.48,0.27 5,0 7.51,0.05c8.85,0.07 13.42,3.9 14.27,12.7c0.7,7.29 0.3,14.55 -6.69,19.21c-2.21,1.48 -0.92,2.84 -0.4,4.27c2.72,7.36 5.51,14.69 8.2,22.06c0.56,1.51 1.61,2.97 1.14,4.76zm-19.68,-45.45c0,2 -0.12,4 0,6c0.13,1.51 -1,3.72 1.21,4.31c1.53,0.42 3.22,-0.48 4.54,-1.62c4,-3.48 3.9,-14.65 -0.25,-17.83a4.83,4.83 0 0 0 -4.21,-1.11c-2.12,0.57 -1.2,2.45 -1.29,3.78c-0.1,2.14 0,4.31 0,6.47zm-379.17,7.85c0.07,-5.74 0.55,-11.38 2.46,-16.82c2.4,-6.8 7.27,-9.83 15.24,-9.52c6.53,0.25 11.09,4.07 13.17,10.44c1.21,3.73 -1.85,3.21 -3.5,4s-3.46,2.74 -4.58,-0.74c-1.12,-3.48 -3.35,-6.43 -7.63,-5.7c-4.28,0.73 -5.14,4.57 -5.57,8a110.28,110.28 0 0 0 0.72,34.4c0.66,3.46 1.93,6.72 6.12,6.78c4.19,0.06 5.49,-3.24 6.18,-6.66a49.85,49.85 0 0 0 0.77,-6.44c0.23,-3.42 0.61,-6.9 -4.84,-5.92c-2.74,0.5 -2.19,-1.9 -2.12,-3.41c0.07,-1.51 -1,-4 2.12,-4.07c3.67,-0.06 7.35,0 11,0c1.68,0 2.41,0.82 2.41,2.46c0,7.35 0.15,14.73 -1.93,21.88c-1.92,6.61 -5.86,9.8 -12.09,10.17c-7.14,0.42 -12.2,-2.41 -14.85,-8.7c-4.07,-9.74 -2.76,-20.04 -3.08,-30.15zm221.18,6.5c0,-9.36 0.14,-18.73 -0.07,-28.09c-0.07,-3.17 1,-4 4,-3.91c2.83,0.1 4.76,0.17 4.56,3.94c-0.31,5.67 0,11.37 -0.13,17.05c-0.11,3.06 1,4 4,4.07c8.72,0.12 8.72,0.26 8.72,-8.68c0,-4.18 0.21,-8.38 -0.07,-12.54c-0.23,-3.29 1.15,-3.87 4,-3.84c2.85,0.03 4.52,0.39 4.49,4c-0.173,18.573 -0.173,37.14 0,55.7c0,3.81 -1.81,3.75 -4.58,3.87c-3,0.13 -4.08,-0.69 -4,-3.88c0.24,-7.68 -0.1,-15.39 0.16,-23.07c0.11,-3.48 -0.84,-4.63 -4.42,-4.49c-10,0.38 -8.19,-1.18 -8.33,8.1c-0.1,6 0,12.05 0,18.07c0,2.88 0.49,5.29 -4.1,5.39c-5,0.11 -4.35,-2.54 -4.33,-5.6c0.19,-8.68 0.1,-17.39 0.1,-26.09zm102.22,31.41c-3.28,0.85 -4.24,-0.94 -4.8,-3.86c-1.7,-8.84 -2.8,-9.45 -11.82,-8.28c-3.86,0.5 -2.48,3.68 -3.34,5.72c-1.13,2.65 0.42,6.92 -5.18,6.68c-4,-0.17 -4.32,-1.47 -3.57,-4.74c2.54,-11.05 4.93,-22.13 7.34,-33.21c1.6,-7.33 3.22,-14.66 4.67,-22c0.55,-2.75 1.73,-3.75 4.68,-3.74c3.11,0 3.5,1.79 4,4c3.93,18.42 7.78,36.87 11.88,55.25c0.81,3.71 -0.14,4.94 -3.86,4.18zm-12.13,-49.19l-0.77,-0.09c-1.37,8.84 -2.77,17.68 -4.09,26.52c-0.17,1.18 -1.42,3.1 0.28,3.46a22.29,22.29 0 0 0 7.94,0.1c1.83,-0.29 0.92,-2.24 0.75,-3.4c-1.35,-8.87 -2.76,-17.73 -4.11,-26.59zm213,49.19c-3.15,0.76 -4.57,-0.68 -4.87,-3.77c-0.18,-1.82 -0.81,-3.59 -1,-5.41c-0.27,-2.34 -1.54,-3.15 -3.73,-3c-0.67,0.06 -1.34,0 -2,0c-7.22,0 -7.07,0 -8.82,7c-0.45,1.77 0.57,4.57 -2.69,5.2c-5.35,1 -6.59,-0.15 -5.43,-5.46c3.88,-17.747 7.737,-35.503 11.57,-53.27c0.58,-2.67 0.82,-5 4.76,-4.86c3.94,0.14 3.69,2.54 4.19,4.88c3.9,18.09 7.69,36.2 11.72,54.26c0.81,3.65 0.3,5.26 -3.7,4.43zm-12.22,-49l-0.84,0c-1.32,8.52 -2.68,17.05 -3.92,25.59c-0.19,1.35 -1.56,3.42 0,4a12.11,12.11 0 0 0 8.31,0.05c1.79,-0.64 0.57,-3 0.35,-4.51c-1.22,-8.41 -2.58,-16.79 -3.9,-25.13zm-655.31,17c0,-9.2 0.09,-18.4 -0.06,-27.6c0,-2.77 0.68,-3.87 3.62,-3.75c5.18,0.21 10.37,0.16 15.56,0c2.64,-0.08 4,0.48 3.9,3.55c0,2.76 -0.73,3.83 -3.66,3.76c-3.46,-0.07 -8,-1.58 -10.14,0.66c-2.34,2.44 -0.54,7 -0.82,10.65a4.17,4.17 0 0 0 0,0.5c0,8.13 0,8.13 8.14,8.19c2.43,0 4.87,-0.72 4.88,3.52c0.01,4.24 -2.44,3.5 -4.87,3.51c-8.15,0.07 -8.15,0.07 -8.15,8.19l0,2c0,10.95 0,11.07 11,11.45c3,0.11 3.56,1.23 3.63,3.89c0.08,2.94 -1,3.74 -3.77,3.63a141.22,141.22 0 0 0 -14.55,0c-3.64,0.23 -4.93,-0.69 -4.79,-4.61c0.3,-9.17 0.08,-18.38 0.08,-27.54zm220.87,0.54c0,-9.2 0.11,-18.4 0,-27.6c-0.06,-3.07 0.51,-4.55 4,-4.35c5.18,0.26 10.37,0.26 15.55,0c3.19,-0.13 3.39,1.47 3.47,4c0.08,2.79 -1.09,3.34 -3.56,3.34c-3.48,0 -8.08,-1.58 -10.17,0.61c-2.48,2.61 -0.77,7.34 -0.84,11.13c-0.14,8.15 0,8.19 8.52,8.25c2.45,0 4.44,-0.25 4.43,3.46c0,3.48 -1.59,3.63 -4.27,3.64c-8.72,0 -8.75,0.11 -8.71,9.06c0,3.84 -1.14,8.5 0.61,11.3c2,3.27 7.08,1 10.79,1.22c2.93,0.15 3.15,1.56 3.17,3.84c0.02,2.28 -0.19,3.81 -3.15,3.7c-5.52,-0.19 -11.05,-0.19 -16.56,0c-2.77,0.1 -3.34,-1 -3.31,-3.5c0.11,-9.36 0.04,-18.73 0.03,-28.1zm365.45,-0.12c0,-9.18 0.11,-18.36 -0.06,-27.53c-0.06,-3.12 0.62,-4.48 4.08,-4.32c2.93,0.14 4.49,0.45 4.46,4a2975.04,2975.04 0 0 0 0,55.57c0,3.61 -1.51,3.88 -4.43,4c-3.38,0.15 -4.19,-1 -4.12,-4.24c0.2,-9.12 0.07,-18.3 0.07,-27.48z" fill="#6F7072"/>
    <path d="m1098.4,404.56a1.67,1.67 0 0 1 -0.07,2.12a1.64,1.64 0 0 1 0.07,-2.12zm219.87,0a1.67,1.67 0 0 1 -0.07,2.12a1.64,1.64 0 0 1 0.07,-2.12z" fill="#FEFEFE"/>
   </g>
  </svg>