<svg xmlns="http://www.w3.org/2000/svg" viewBox="0.715301513671875 0.7054443359375 437.30169677734375 127.49454498291016"><g xmlns="http://www.w3.org/2000/svg" fill="none" fill-rule="evenodd"><g fill-rule="nonzero"><g><path fill="#1F1B16" d="m180.85505,123.81455c-1.21,-13.28999 -0.18,-26.59999 -0.55,-39.88999c-0.07,-2.69 -0.34,-5.37 -0.52,-8c-11.64,-0.94 -23.28,-1.56 -34.89,0.33c0,14.78 -0.09,29.55999 0.07,44.33999c0,3.21 -0.7,4.34001 -4.12,4.25c-9.53,-0.23999 -19.08,-0.21999 -28.61,0c-3.41,0.08 -4.73,-0.60999 -4.71023,-4.4c0.14023,-37.72666 0.14023,-75.45666 0,-113.18999c0,-3.1 0.89023,-4 3.92023,-3.9c9.93,0.17 19.86,0.21 29.78,0c3.34,-0.07 3.73,1.27 3.71,4.07c-0.13,13 0.06,26.06 -0.14,39.09c0,3.61 0.63,5.1 4.68,4.94c8.75,-0.33 17.53,-0.35 26.27,0c4.15,0.17 4.68,-1.45 4.63,-5c-0.18,-12.84 0,-25.67 -0.15,-38.51c-0.05,-3.45 0.65,-4.75 4.43,-4.64c9.53,0.28 19.08,0.24 28.61,0c3.38,-0.08 4.14,1 4.1301,4.24c-0.1001,37.73333 -0.1201,75.46333 -0.0601,113.19c0,2.14 0.42,4.15 -3.06,4.07999c-10.7,-0.2 -21.41,-0.07999 -32.12,-0.12999c-0.44,0 -0.88,-0.56 -1.32,-0.85001c1.5,-3.91999 0.63,-8 0.68,-12c0.14,-11 0.05,-21.99999 0,-32.99999c0,12.93 0,25.85999 0,38.79c-0.02,2.04999 0.67,4.23999 -0.66,6.18999z" transform="translate(-163.000000, -255.000000) translate(163.715309, 255.705445)"/><path fill="#1F1B16" d="m296.05505,35.07456c-1.82,-3.75 -5.4,-5.21 -8.86,-6.82c-3.46,-1.61 -6.85,-1.21 -10.31,-0.27c-7.25,3.25 -8.2,5.18 -5.9,10.9c0.532,1.35386 1.62722,2.40892 3,2.89c8.52,4.13 17.73,5.88 26.72,8.43c10.89,3.08 21.24,7.24 28.6,16.58c3.32112,4.28565 5.29456,9.46114 5.67,14.87c-0.6584,3.05492 -0.6584,6.21507 0,9.27c-1.68,19.35999 -15.14,30.62 -34.48,34.99999c-2.42,0.55 -4.94,0.67 -7.42,1c-6.57915,-0.67997 -13.21086,-0.67997 -19.79,0c-21.06,-2.31 -36.14,-14.81 -40.68,-33.70999c-0.09,-4.07 1.61,-5.54 5.92,-5.31c7.74,0.42 15.52,0.12 23.28,0.12c2.12,0 4.32,-0.32 5.9,1.64c2.43,6.47 7.83,9 14,10.42999c1.57795,1.18835 3.75204,1.18835 5.33,0c2.56,-0.77999 5.28,-1.21999 7.64,-2.37999c6.46,-3.17 6.74,-9.75 0.61,-13.56c-5.48,-3.4 -11.84,-4.4 -17.94,-6.12c-10.49,-2.95 -21.05,-5.3 -30.14,-12.23c-6.73264,-4.85326 -11.17894,-12.25652 -12.3,-20.48c0.64996,-4.23186 0.64996,-8.53815 0,-12.77c2.52,-15.74 12.79,-26.21 29.9,-30.28c2,-0.49 4.14,-0.68 6.21,-1c1.52,0.4 3.06,1.06 4.47,-0.27c23.76,-4.88 51.87,8.27 56,34c-0.36,2.44 -1.91,2.91 -4.15,2.89c-8.74,-0.1 -17.49,-0.23 -26.22,0.07c-2.71,0.11 -3.52,-1.75 -5.06,-2.89z" transform="translate(-163.000000, -255.000000) translate(163.715309, 255.705445)"/><path fill="#1F1B16" d="m386.60505,31.49456c-0.49336,8.13305 -0.47666,16.28903 0.05,24.42c-0.31349,0.15084 -0.67619,0.16188 -0.99827,0.03038c-0.32208,-0.1315 -0.57341,-0.39324 -0.69173,-0.72038c-0.26,-7.18 0,-14.36 -0.13,-22.14c0,0.56 -0.16,0.54 -0.55,0.53c-0.39,-0.01 0.38,0.08 0.39,0.33c0.26,5.62 0,11.24 0.18,16.86c0.05,1.83 -0.82,3.93 1.05,5.44c11.62,0.67 23.24,0.24 34.85,0.23c3.59,0 5.3,0.68 5,4.78c-0.35001,5.80139 -0.35001,11.6186 0,17.42c0.24,4 -1.4,4.83 -5,4.75c-9.49,-0.22 -19,-0.11 -28.48,0c-1.89,0 -3.88,-0.54 -5.67,0.6c-0.09,12.12 -0.13,24.24 -0.35,36.35c0,1.45 1.57,4.17 -2,4.18999c1.31,-11.76 0.09,-23.56999 0.66,-34.69999c0,-1.42 -1.09,-0.22 -0.39,-0.57c0.19,-0.1 0.3,0.06 0.29,0.47c-0.08,9.72 -0.05,19.43999 0,29.15999c0,2.67 -0.51,4.66 -3.69,4.68001c-9.72,0.05999 -19.45,0.25999 -29.17,-0.12c-0.79968,-0.07443 -1.52849,-0.48986 -2,-1.14001c-0.48,-32.40999 -0.08,-64.82999 -0.21,-97.23999c0,-5.63 0.1,-11.26 0,-16.89c-0.07,-2.82 0.56,-4.21 3.83,-4.20006c26.22667,0.11339 52.45667,0.11339 78.69,0c3.06,0 4.07,1.00006 4,4.00006c-0.17,6 -0.28,12 0,18c0.2,3.92 -1.22,4.9 -5,4.84c-13,-0.2 -26,-0.1 -39.06,0c-1.82,0.01 -3.83,-0.57 -5.6,0.64z" transform="translate(-163.000000, -255.000000) translate(163.715309, 255.705445)"/><path fill="#1F1B16" d="m0.98505,89.95456c-1.65,-3.92 -0.71,-8 -0.79,-12c0,-2.5 1.36,-3.16 3.74,-3.13c8.72,0.11 17.45,0.25 26.17,0c4,-0.14 4.07,1.72 3.49,4.57c-0.36,2.71 -1.18,5.45 0.43,8.05c0.51,1.22 1,2.48 1.56,3.65c1.65,3.15 3.86,5.88 7.76,5.72c5,-0.2 8.18,-3.09 9,-8c0.41728,-2.88368 0.59455,-5.79701 0.53,-8.71c0,-23.89 0.12,-47.78 -0.08,-71.67c0,-4.14 1.14,-5.21 5.17,-5.08c9.13,0.3 18.27,0.21 27.41,0c3.25,-0.07 4.73,0.31 4.69079,4.26c-0.23079,25.64 0.05921,51.28 -0.25079,76.92c-0.25,20.48 -10.59,35.55999 -27.22,40.74c-2.93,0.91 -5.85,2 -9,1.75c-5.41047,-0.70495 -10.88953,-0.70495 -16.3,0c-18.31,-1.10001 -33.67,-14.14 -36,-32.55c0.32,-1.58 1.03,-3.12 -0.31,-4.52z" transform="translate(-163.000000, -255.000000) translate(163.715309, 255.705445)"/><path fill="#060505" d="m386.60505,31.49456c1.67,-2 4,-1.18 6,-1.19c12.46,-0.08 24.92,-0.19 37.37,0c4.2,0.08 6.08,-0.91 5.75,-5.47c-0.34499,-5.04745 -0.34499,-10.11256 0,-15.16c0.27,-4.25 -1.5,-5.21 -5.42,-5.19c-24.72,0.14 -49.44,0.19 -74.16,0c-4.71,0 -5.88,1.44 -5.86,6c0.16,37.33 0.09,74.67 0.09,112c0.26219,0.18667 0.41851,0.48814 0.42,0.81c0,0.31999 -0.05,0.48 -0.15,0.48c-0.1848,0.15775 -0.42605,0.2331 -0.66779,0.20855c-0.24172,-0.02455 -0.46291,-0.14687 -0.61221,-0.33856c-0.08,-35.91333 -0.15667,-71.82666 -0.23,-107.73999c0,-12.51 0,-12.51 12.59,-12.51c23.32,0 46.64,0.1 70,-0.09c4.07,0 5.9,0.55 5.53,5.22c-0.41501,6.20306 -0.41501,12.42693 0,18.63c0.2,3.69 -1,4.49 -4.52,4.44c-15.42,-0.22 -30.78,-0.1 -46.13,-0.1z" transform="translate(-163.000000, -255.000000) translate(163.715309, 255.705445)"/><path fill="#140F0B" d="m385.47505,55.89456l1.18,0c11.62,0 23.24,0.12 34.86,-0.12c3.88,-0.09 5.61,0.72 5.38,5c-0.34,6.37 -0.29,12.78 0,19.15c0.15,3.44 -1.13,4.12 -4.27,4.07c-12,-0.16 -24,-0.06 -36,-0.06c1.5,-1.83 3.58,-1.15 5.44,-1.16c9.31,-0.06 18.63,-0.21 27.94,0c4.16,0.12 5.45,-1.37 5.23,-5.36c-0.28001,-5.03612 -0.28001,-10.08389 0,-15.12c0.22,-4 -1.07,-5.47 -5.23,-5.36c-9.5,0.27 -19,0.13 -28.53,0c-2,0 -4.31,0.75 -6.05,-1.11l0.05,0.07z" transform="translate(-163.000000, -255.000000) translate(163.715309, 255.705445)"/><path fill="#19140D" d="m350.34505,123.57456l0,-1.11c9.12,0 18.26,-0.27001 27.36,0.09999c5,0.21001 6.87,-1 6.64,-6.37c-0.4607,-10.26044 -0.12637,-20.54116 1,-30.74999l0,32.88999c0,2.13001 0.22,4.29001 -1.11,6.18001l-1.25,0c-9,-0.66 -18.05,-0.08 -27.07,-0.31001c-1.83,-0.07999 -3.8,0.52 -5.57,-0.62999z" transform="translate(-163.000000, -255.000000) translate(163.715309, 255.705445)"/><path fill="#090909" d="m267.71505,89.69456c-10.49,-2.32 -21.11,-0.55 -31.66,-1c-3.26,-0.15 -1.84,3.38 -3.44,4.58c-1.6,-4.74 0,-6.27 5,-6c8.63,0.41 17.29,0.09 25.94,0.13c1.76,-0.06 4.11,-0.84 4.16,2.29z" transform="translate(-163.000000, -255.000000) translate(163.715309, 255.705445)"/><path fill="#020201" d="m296.05505,35.07456c2.14528,1.57435 4.76108,2.3746 7.42,2.27c7.31,-0.22 14.62,-0.13 21.93,0c2.39,0 4.61,0 6,-2.31c0.69,2.22 0.52,3.56 -2.46,3.52c-9.84,-0.13 -19.68,-0.18 -29.51,0c-2.83,0.05 -2.9,-1.69 -3.38,-3.48z" transform="translate(-163.000000, -255.000000) translate(163.715309, 255.705445)"/><path fill="#010101" d="m144.89505,76.20456c0.09,-0.17 0.17,-0.47 0.29,-0.48c11.54,-1.67 23.08,-2.07 34.6,0.15l-34.89,0.33z" transform="translate(-163.000000, -255.000000) translate(163.715309, 255.705445)"/><path fill="#1F1B16" d="m350.34505,123.57456c9,0 18.09,0 27.13,0.06999c1.87,0 3.88,-0.56 5.56,0.84001c-10.66667,0.07999 -21.35,0.15999 -32.05,0.23999c-0.82,0 -1.52,-0.08999 -1.62,-1.09999c0.33,-0.01001 0.65,-0.02 0.98,-0.05z" transform="translate(-163.000000, -255.000000) translate(163.715309, 255.705445)"/><path fill="#020201" d="m273.29505,126.95455c6.49721,-1.62 13.29279,-1.62 19.79,0c-6.57702,0.71999 -13.21298,0.71999 -19.79,0z" transform="translate(-163.000000, -255.000000) translate(163.715309, 255.705445)"/><path fill="#010101" d="m37.31505,126.95455c5.31848,-1.57993 10.98152,-1.57993 16.3,0c-5.41449,0.64001 -10.88552,0.64001 -16.3,0l0,0z" transform="translate(-163.000000, -255.000000) translate(163.715309, 255.705445)"/><path fill="#010101" d="m234.90505,32.62456c1.55513,4.11462 1.55513,8.65537 0,12.77c-0.60004,-4.23552 -0.60004,-8.53448 0,-12.77z" transform="translate(-163.000000, -255.000000) translate(163.715309, 255.705445)"/><path fill="#070504" d="m276.88505,27.98456c3.49,-2.07 6.93,-2.09 10.31,0.27l-10.31,-0.27z" transform="translate(-163.000000, -255.000000) translate(163.715309, 255.705445)"/><path fill="#010101" d="m334.98505,90.92456c-1.54489,-2.89691 -1.54489,-6.3731 0,-9.27c0.00666,3.08666 0.00666,6.17666 0,9.27z" transform="translate(-163.000000, -255.000000) translate(163.715309, 255.705445)"/><path fill="#010101" d="m34.02505,87.37456c-2.4,-2.56 -1.79,-5.29 -0.43,-8.05l0.43,8.05z" transform="translate(-163.000000, -255.000000) translate(163.715309, 255.705445)"/><path fill="#090604" d="m287.05505,100.16456c-1.49,2.63 -3.7,0.91999 -5.63,0.91c-0.04234,-0.16398 -0.04234,-0.33603 0,-0.5c0.0887,-0.16712 0.20347,-0.31903 0.34,-0.45l5.29,0.04z" transform="translate(-163.000000, -255.000000) translate(163.715309, 255.705445)"/><path fill="#010101" d="m275.43505,0.99456c-1.33,2.69 -2.92,1.1 -4.47,0.27l4.47,-0.27z" transform="translate(-163.000000, -255.000000) translate(163.715309, 255.705445)"/><path fill="#010101" d="m0.98505,89.95456c2.13,1.35 1.47,2.88 0.31,4.45l-0.31,-4.45z" transform="translate(-163.000000, -255.000000) translate(163.715309, 255.705445)"/><path fill="#130C0A" d="m180.85505,123.81455l0,-46.51999l1.29,0l0,17.78c0,7.76999 0,15.53999 0,23.3c0,1.87999 0.56,3.95 -1.27,5.42l-0.02,0.01999z" transform="translate(-163.000000, -255.000000) translate(163.715309, 255.705445)"/><path fill="#19140E" d="m385.39505,55.96456c-2.61,-7.65 -0.38,-15.45 0.08,-23.18l0,23.11l-0.08,0.07z" transform="translate(-163.000000, -255.000000) translate(163.715309, 255.705445)"/></g></g></g></svg>