<svg  id="fndm-rkbccq22kc" viewBox="0.55711829662323 0.24648261070251465 886.7288208007812 234.07666015625" xmlns="http://www.w3.org/2000/svg">
   <g xmlns="http://www.w3.org/2000/svg" fill="none">
    <path d="m231.39,81.13c16.13,55.35 -4.75,107.81 -52.62,137.26c-39.13,24 -99.92,20.53 -130.13,-8c9.47,-0.12 18.14,2.09 27,2c20.25,-0.25 37.58,-6.22 51.92,-21.37c32.62,-34.46 65.81,-68.4 98.71,-102.6c1.62,-1.66 2.69,-3.77 5.12,-7.29zm437.8,-14.97c25.17,0.42 41.62,16.65 41.27,41.92a147.7,147.7 0 0 1 -2.25,20.7c-4,25.4 -32.07,38 -54.22,27.78c-4.11,-1.93 -8.23,-3.9 -13.12,-6.17c0,16.45 -0.2,32.1 0.11,47.73c0.1,5 -1,7 -6.34,6.63a130.54,130.54 0 0 0 -17.8,0c-4.26,0.27 -5.17,-1.32 -5.16,-5.28c0.14,-41.92 0.157,-83.84 0.05,-125.76c0,-3.75 1,-5.15 4.75,-5c4.382,0.275 8.778,0.275 13.16,0c7.27,-0.56 13.59,-0.47 10.55,11.19c8.2,-9.79 17.43,-13.93 29,-13.74zm3.63,20.76c-3.59,-6.26 -9.69,-8.38 -16.59,-7.55c-6.55,0.79 -10.43,4.95 -12.55,11.11c-3.02,8.72 -2.02,17.83 -2.35,24.72c0,5.68 0.02,9.28 0,12.87c-0.06,9.38 5.08,16.12 14,18.32c8.09,2.187 16.55,-1.957 19.78,-9.69c7.07,-16.78 6.89,-33.65 -2.29,-49.78zm-297.99,-22.14c26.93,0.3 47.65,16.68 50.34,39.81c3.52,30.16 -14.11,52 -44.63,55.32c-28.18,3.06 -52.85,-13.65 -56.86,-38.5c-5.18,-32.14 17.27,-57.02 51.15,-56.63zm0.12,8.99c-8.2,-0.43 -13.7,4.49 -16.44,11.75c-6.91,18.31 -6.51,36.79 0.49,55c2.65,6.84 7.97,10.35 15.65,10.35c7.4,-0.01 11.89,-3.83 15,-10.09c4.47,-9.04 4.67,-18.87 5.67,-28.75c-1.06,-8.53 -1.16,-17.29 -4.45,-25.61c-2.92,-7.41 -7.98,-12.23 -15.92,-12.65zm207.89,-0.86c7.89,5.36 9.95,13.37 9.94,22.26c0,15.22 0.09,30.44 -0.15,45.65c-0.08,5.06 1,8.68 6.68,9.25c1.93,0.19 3.55,0.34 3.14,3.06c-0.29,1.92 -0.81,3.14 -2.76,4.11c-10.23,5.1 -23.49,3.48 -31.64,-4.49c-2.56,-2.51 -3.66,-3.15 -7.28,-0.73c-10.87,7.31 -23.1,9.84 -36.09,6.5c-10,-2.58 -16,-9.37 -17.36,-19.36c-1.42,-10.47 2.66,-19 11.39,-24.28c10,-6 21.59,-6.45 32.35,-9.8c11.65,-3.63 14.37,-8 10.43,-17c-1.67,-3.81 -4.82,-5.94 -8.47,-7.45c-11.67,-4.8 -24.9,-1.32 -33.1,8.7c-6.93,-9 -6.91,-9.16 1.59,-15.37c13.55,-9.9 47.44,-10.49 61.33,-1.05zm-20.49,37.57c-9.43,1.49 -18.02,4.44 -23.43,12.82a17,17 0 0 0 -0.14,19c2.48,4.01 6.6,4.99 11.48,4.09c7.62,-1.41 11.09,-6.69 11.89,-13.3c0.88,-7.31 0.2,-14.8 0.2,-22.61zm228.93,-38.22c7.55,4.89 10.84,12.1 10.81,21c0,16 0.07,32 -0.06,48c0,4.74 1.27,8.06 6.42,8.87c1.55,0.25 4.06,-0.66 3.64,2.43a5.63,5.63 0 0 1 -3.19,4.85c-9.63,4.83 -23.26,3.38 -31.08,-4.25c-3,-2.93 -4.56,-3 -8.12,-0.7a45.44,45.44 0 0 1 -32.52,6.93c-11.31,-1.72 -18.48,-9 -20.28,-20.19c-1.75,-10.85 2.72,-19.53 12.54,-25.1c8.51,-4.82 18.2,-5.42 27.31,-8.09c14.06,-4.13 16.63,-6.29 15.28,-14.27c-1.38,-8.15 -11.07,-14 -21.84,-13.23c-9.24,0.65 -14.43,3.3 -21.04,10.74c-6.59,-9.09 -6.59,-9.09 2.13,-15.36c13.2,-9.49 46.36,-10.47 60,-1.63zm-21.07,38.29c-10.95,-1.14 -25.33,12.77 -24.51,24c0.43,5.78 2.32,10.8 8.89,11.86c6.39,1 11.53,-1.09 14.86,-7c2.87,-5.11 3.04,-10.646 3.05,-16.224l0,-3.17c0.004,-2.124 0.018,-4.246 -0.02,-6.346c-0.03,-1.51 0.06,-2.88 -2.27,-3.12zm-463.83,-22.87c0,16.25 0.44,32.51 -0.09,48.75c-1,30.2 -12.66,43.51 -41.93,49.42c-4,0.82 -5.52,-0.77 -7,-3.85c-0.77,-1.64 -1.26,-2.89 0.75,-3.7c16.51,-6.63 16.07,-21.33 16.19,-35.23c0.3,-35.12 0.26,-70.243 -0.12,-105.37c-0.06,-6.28 1.25,-8.95 7.93,-8.18c7.84,0.91 18.09,-3.29 23,1.74c4.53,4.63 1.09,14.73 1.27,22.41c0.26,11.33 0.06,22.67 0.06,34l-0.06,0.01zm195.11,40.04c0.73,24.09 -21.71,32.76 -38.05,32.26c-7.93,-0.25 -15.77,-2.15 -23.53,-4.15c-4.94,-1.27 -6.69,-4.19 -5,-8.4c1.49,-3.72 -1.68,-9.24 3.08,-11.13c5.5,-2.17 7.94,3.16 11.08,6.44c7,7.37 16.59,9.33 24.61,5.22s8.72,-12.11 1.18,-16.94c-4.07,-2.62 -8.71,-4.4 -13.2,-6.32c-6.43,-2.74 -12.68,-5.77 -18.17,-10.17c-13.59,-10.88 -13.71,-29.43 -0.3,-40.69c17,-14.22 36.87,-9.54 53.88,-2.15c2.42,1.06 2.55,2.81 1.87,5.09c-0.81,2.71 -1.08,5.61 -2.06,8.24c-0.86,2.33 0.54,6 -3.88,6.49c-3.69,0.38 -4.75,-2.07 -6.27,-4.56c-3.68,-6 -9,-9.93 -16,-11c-7.52,-1.15 -14.5,2.29 -15.65,8.09c-1.49,7.45 3.63,10.59 9.43,13c8.08,3.35 16.57,5.59 24.37,9.74c8.86,4.71 13.7,11.42 12.61,20.94zm350.79,-43.77c7.33,-8.79 15.57,-14.91 26.52,-16.83c5.06,-0.89 9.24,-0.78 8.2,6.64c-0.71,5.06 1.46,11.21 -0.7,15.22c-2.5,4.63 -9.27,1.49 -14.12,2.37c-14.21,2.56 -19.82,8.9 -19.71,23.51c0.09,12.65 0,25.3 0.3,37.94c0.13,4.48 -1.28,5.9 -5.67,5.64c-8,-0.46 -18.27,2.46 -23.27,-1.5c-5.29,-4.19 -1.6,-15 -1.72,-22.84c-0.28,-19.61 0.06,-39.23 -0.27,-58.84c-0.09,-5.24 1.56,-6.84 6.59,-6.54c5.661,0.387 11.343,0.36 17,-0.08c5.47,-0.46 7.53,1.45 6.88,6.87a72,72 0 0 0 -0.03,8.44z" fill="#FA2E2A"/>
    <path d="m29.07,193.61c1.08,-3.67 4.07,-5.44 6.31,-7.68a337163.459,337163.459 0 0 1 154.54,-154c0.55,-0.54 1,-1.17 1.57,-1.71c1.07,-1 2.21,-2.74 3.82,-1.41c2.36,2 -0.18,3.08 -1.24,4.16a4229.41,4229.41 0 0 1 -27.25,27.44c-43.08,43.027 -86.18,86.02 -129.3,128.98c-2.14,2.1 -3.77,5.84 -8.45,4.22z" fill="#FA332F"/>
    <path d="m183.14,20.13c-0.16,2.11 -1.95,2.95 -3.18,4.17c-37.847,37.68 -75.71,75.347 -113.59,113c-13.9,13.84 -27.73,27.73 -41.73,41.48c-1.24,1.22 -2.39,4.58 -4.61,2.64c-2.75,-2.4 0.62,-3.95 2,-5.37c30.52,-30.427 61.07,-60.83 91.65,-91.21a27074.79,27074.79 0 0 0 61.91,-61.85a34.32,34.32 0 0 1 4.58,-4.13c1.27,-0.84 2.47,-0.21 2.97,1.27z" fill="#FA3430"/>
    <path d="m167.92,10.86c0.47,2.95 -1.84,3.8 -3.16,5.12c-49.007,49.06 -98.047,98.087 -147.12,147.08c-1.09,1.09 -2.17,2.21 -3.29,3.27c-0.83,0.78 -1.74,1.07 -2.62,0.06a2,2 0 0 1 -0.1,-2.79c1,-1.17 2.11,-2.26 3.2,-3.35c47.793,-47.747 95.603,-95.47 143.43,-143.17c2.63,-2.62 4.65,-6.89 9.66,-6.22zm-121.42,186.93c11.45,-11.34 22.6,-22.31 33.67,-33.36c39.673,-39.6 79.34,-79.213 119,-118.84c1.28,-1.27 2.56,-2.55 3.89,-3.78c1.1,-1 2.28,-2.59 3.88,-1.13c2.24,2 -0.19,3.09 -1.3,4.21a64194.425,64194.425 0 0 1 -70.73,70.6c-26.387,26.22 -52.81,52.4 -79.27,78.54c-2.15,2.12 -3.76,6.05 -9.14,3.76zm-41.47,-46.4c1.64,-8.1 140.47,-145.94 144.44,-146.1l-144.44,146.1zm-3.07,-20.46c0.26,-6.49 123.08,-129.14 128.51,-129.24l-128.51,129.24z" fill="#FA332F"/>
    <path d="m189.64,24.48c-0.06,2.43 -1.88,3.28 -3.1,4.5l-120,120a4452.8,4452.8 0 0 1 -37.46,37c-1.25,1.22 -2.47,4.48 -4.69,2.26c-2.22,-2.22 1,-3.55 2.22,-4.8c52.373,-52.44 104.787,-104.84 157.24,-157.2c1.21,-1.21 2.15,-3.09 4.3,-2.82c0.58,0.05 1.09,0.74 1.49,1.06z" fill="#FA2E2A"/>
    <path d="m75.34,193.79c32.14,-32.54 64,-64.88 95.95,-97.13c13.08,-13.2 26.29,-26.273 39.63,-39.22c1.61,-1.58 3.42,-5.82 5.61,-3.61c2.79,2.82 -1.7,4.68 -3.42,6.4a39656.754,39656.754 0 0 1 -104.66,104.49a14681.1,14681.1 0 0 0 -24.66,24.62c-2.39,2.39 -4.78,4.65 -8.45,4.45z" fill="#FA322F"/>
    <path d="m175.77,16.39c-1.28,1.46 -2.55,3.09 -4,4.53c-49.94,49.76 -99.887,99.507 -149.84,149.24c-1.1,1.09 -2.14,2.25 -3.28,3.29c-0.9,0.8 -1.83,2.08 -3.14,0.45c-1,-1.3 -0.51,-2.35 0.49,-3.35s2.14,-2.24 3.23,-3.34c49.933,-49.747 99.87,-99.493 149.81,-149.24a22,22 0 0 1 4.18,-3.41c1.49,-0.87 2.33,0.09 2.55,1.83zm-116.79,181.29c1.23,-1.4 2.15,-2.6 3.21,-3.65c47.3,-47.28 94.607,-94.547 141.92,-141.8a20.05,20.05 0 0 1 2.86,-2.6c1.66,-1.1 2.77,-5.17 5.19,-2.46c2,2.22 -1.44,3.91 -2.91,5.38a19059.824,19059.824 0 0 1 -58,58.09a159126.488,159126.488 0 0 1 -82.22,82c-2.6,2.6 -4.76,6.4 -10.05,5.04z" fill="#FA2F2B"/>
    <path d="m34.2,130.03l94.44,-94.88c8.74,-8.78 17.55,-17.49 26.32,-26.24c1.28,-1.28 2.48,-3 4.49,-1.28c2.01,1.72 -0.23,2.59 -1.1,3.45c-40.667,40.36 -81.333,80.693 -122,121c-1.83,0.49 -2.52,-0.22 -2.15,-2.05z" fill="#FA332F"/>
    <path d="m119.09,0.78l-118.45,120.81c1.14,-7.96 113.72,-120.27 118.45,-120.81z" fill="#FA3430"/>
    <path d="m141.87,2.56c0.29,2.64 -2,3.48 -3.35,4.81c-43.053,43.14 -86.137,86.247 -129.25,129.32a37.32,37.32 0 0 1 -2.8,2.69c-1,0.81 -1.76,3.07 -3.55,1.07c-1.44,-1.59 -0.22,-2.79 0.88,-3.93c0.72,-0.75 1.41,-1.51 2.14,-2.24c43,-42.82 86.017,-85.62 129.05,-128.4c1.77,-1.75 3.13,-5.2 6.88,-3.32z" fill="#FA2F2B"/>
    <path d="m107.87,0.29c-35.18,35.55 -71,71.73 -106.88,108c-1.52,-3.33 1.31,-5.05 3.13,-6.86a59013.69,59013.69 0 0 1 98.26,-97.71c2.06,-2.07 4.26,-3.77 5.49,-3.43z" fill="#FA3330"/>
    <path d="m92.96,2.26l-89.15,89c1.53,-4.68 84.62,-86.87 89.15,-89z" fill="#FA3531"/>
    <path d="m125.93,112.01c-27.46,27.587 -54.923,55.183 -82.39,82.79c-1.6,1.6 -3.37,3.41 -4.25,2.78l84.47,-87.63c1.88,-0.49 2.54,0.23 2.17,2.06z" fill="#FA3430"/>
    <path d="m76.56,7.99l-69.15,70.71c2.88,-8.04 64.07,-68.91 69.15,-70.71z" fill="#FA2F2B"/>
    <path d="m125.93,112.01c-0.72,-0.69 -1.44,-1.38 -2.17,-2.06c15.77,-16.41 31.79,-32.56 48.43,-48.09a2.75,2.75 0 0 1 2.15,2l-48.41,48.15z" fill="#FA3532"/>
    <path d="m18.12,55.27c10.78,-14.51 22.88,-25.68 35.91,-36.63l-35.91,36.63z" fill="#FA4542"/>
    <path d="m174.34,63.87l-2.15,-2c8.27,-8.47 16.52,-17 24.86,-25.38c1.09,-1.1 2.26,-3.66 4.24,-1.8c1.98,1.86 -0.23,3.24 -1.44,4.42a4259.022,4259.022 0 0 1 -25.51,24.76z" fill="#FA322E"/>
    <path d="m34.2,130.03l2.16,2.06c-8.5,8.667 -17.01,17.3 -25.53,25.9a7.41,7.41 0 0 1 -2,1.07c-0.02,-5.24 7.18,-13.41 25.37,-29.03z" fill="#FA3532"/>
   </g>
  </svg>