<svg  id="fndm-c7c2j1ag8w" viewBox="115.57785034179688 76 369.9731750488281 96.06399536132812" xmlns="http://www.w3.org/2000/svg">
   <g xmlns="http://www.w3.org/2000/svg" fill-rule="evenodd" fill="none">
    <path d="m465.14,142.922c-14.507,0 -17.909,-2.063 -15.92,-8.897l14.764,-52.094l-42.235,0l-16.175,56.865c-5.52,19.406 8.152,27.078 40.951,27.078l32.35,0l6.676,-22.952l-20.412,0l0.001,0z" fill-rule="nonzero" fill="#77787B"/>
    <path d="m211.216,124.032c0,26.562 -21.438,48.032 -47.82,48.032c-26.444,0 -47.818,-21.534 -47.818,-48.032c-0.065,-26.563 21.374,-48.032 47.755,-48.032c26.445,0 47.883,21.47 47.883,48.032" fill="#EC1C24"/>
    <path d="m163.012,146.404c6.483,-5.867 8.151,-13.797 8.151,-13.797c-1.604,2.643 -4.043,5.673 -8.151,7.93m0,-0.065c-4.044,2.192 -9.692,3.74 -17.652,3.546l-18.485,0l-2.054,8.382l20.218,0.064c8.28,0.323 14.057,-2.514 17.973,-6.125" fill="#FFF"/>
    <path d="m163.012,138.667c4.557,-1.999 7.83,-4.9 8.922,-8.446l3.402,-11.282s1.09,-5.03 6.932,-5.03l14.25,0l2.053,-8.316l-16.11,0.064c-8.088,0 -14.507,0.838 -19.45,4.062m0,0c-3.658,2.45 -6.482,6.254 -8.536,11.992l-2.31,7.737c-1.734,3.997 -5.136,3.417 -7.703,3.674l-14.763,0l-2.183,8.446l17.844,-0.064c6.868,0.193 13.03,-0.903 17.652,-2.901" fill="#FFF"/>
    <path d="m182.781,103.078l16.432,0l2.118,-8.188l-18.806,0c-20.54,0.065 -24.712,15.41 -25.354,17.73l-1.605,5.351c5.328,-9.412 9.628,-15.28 27.215,-14.893" fill="#77787B"/>
    <path d="m371.555,101.209c1.155,0 2.054,0.064 2.567,0.064l36.394,0l5.52,-19.342l-52.312,0c-22.594,0 -45.765,6.254 -50.772,23.726c-0.192,0.58 -0.256,1.16 -0.385,1.741c-0.834,4.449 0.321,9.026 5.392,13.346c9.179,8.381 26.445,12.378 25.161,18.31c-0.642,3.03 -3.466,4.062 -11.168,3.804l-31.067,0c-1.155,3.352 -6.804,17.988 -27.536,23.016l62.261,0c46.471,0 58.218,-9.67 58.667,-24.757c0.45,-15.796 -23.171,-24.886 -32.03,-31.462c-1.347,-1.29 -1.989,-2.708 -1.476,-4.642c0.835,-3.482 5.135,-3.804 10.784,-3.804" fill-rule="nonzero" fill="#77787B"/>
    <path d="m312.439,81.931l-43.005,0l-14.57,51.9c-2.119,6.512 -6.869,7.608 -11.17,8.447c-2.695,0.515 -11.425,0.709 -17.65,0.709l-6.74,0l-6.74,22.887c48.975,0 76.51,-1.676 85.24,-32.365l2.632,-9.413l0.064,0l11.939,-42.165z" fill-rule="nonzero" fill="#77787B"/>
   </g>
  </svg>