<svg  id="fndm-drtepuoczi" viewBox="35 87.9999771118164 530 74.0000228881836" xmlns="http://www.w3.org/2000/svg">
   <g xmlns="http://www.w3.org/2000/svg" fill-rule="evenodd" fill="none">
    <path d="m43,124l5.44,-36l36.56,0l-42,36z" fill="#F58220"/>
    <path d="m560.073,92.754l-1.003,0l0,-1.256l1.003,0a0.62,0.62 0 0 1 0.639,0.628c-0.091,0.359 -0.365,0.628 -0.639,0.628zm1.825,-0.628c0,-0.987 -0.821,-1.794 -1.825,-1.794l-2.19,0l0,6.01l1.187,0l0,-2.422l0.273,0l1.278,2.422l1.277,0l-1.277,-2.512c0.73,-0.18 1.277,-0.897 1.277,-1.704zm-2.372,5.74c-2.555,0 -4.653,-2.062 -4.653,-4.574c0,-2.511 2.098,-4.574 4.653,-4.574c2.554,0 4.653,2.063 4.653,4.574c-0.091,2.512 -2.099,4.575 -4.653,4.575l0,-0.001zm0,-9.866a5.366,5.366 0 0 0 -5.383,5.382c0,2.96 2.463,5.292 5.383,5.292c3.01,0 5.474,-2.422 5.474,-5.292c-0.091,-2.96 -2.463,-5.382 -5.474,-5.382zm-154.83,31.215l1.277,-8.611c0.273,-1.436 1.55,-2.602 3.01,-2.691l20.529,0l1.733,-11.392l-23.174,0c-6.295,0 -12.226,5.023 -13.23,11.302l-5.109,34.175l0,0.09c-0.912,6.278 3.467,11.39 9.854,11.39l23.083,0l1.734,-11.39l-20.255,0c-1.46,0 -2.555,-1.256 -2.464,-2.692l0,-0.179l1.278,-8.521l23.174,0l1.734,-11.392l-23.175,-0.09l0.001,0.001zm139.228,-5.651c-0.456,3.139 -3.467,5.65 -6.66,5.65l0.091,0l-9.215,0l1.733,-11.301l9.033,0c3.285,-0.09 5.474,2.511 5.018,5.65l0,0.001zm-3.284,-17.044l-20.62,0l-8.577,56.868l11.588,0l3.467,-22.783l3.102,0l8.211,22.783l11.587,0l-8.576,-23.5c7.39,-2.153 13.412,-8.701 14.598,-16.325c1.369,-9.419 -5.2,-17.043 -14.78,-17.043zm-343.967,42.786l1.278,-8.611l5.109,-34.175l-11.587,0l-6.843,45.477l0,0.09c-0.912,6.278 3.467,11.39 9.854,11.39l23.174,0l1.733,-11.39l-20.254,0c-1.551,-0.09 -2.646,-1.346 -2.464,-2.781zm246.89,-8.7l9.488,0c2.92,0.268 4.927,2.69 4.47,5.65c-0.455,3.14 -3.466,5.65 -6.66,5.65l0.092,0l-9.124,0l1.734,-11.3zm3.467,-22.694l9.032,0c3.193,0 5.383,2.511 4.927,5.74c-0.456,3.14 -3.376,5.651 -6.57,5.651l-9.214,0l1.825,-11.391zm-6.934,45.476l8.94,0c9.58,0 18.522,-7.714 19.89,-17.042c0.64,-4.306 -0.364,-8.342 -2.645,-11.302c3.193,-3.05 5.474,-6.997 6.204,-11.392c1.46,-9.418 -5.2,-17.042 -14.78,-17.042l-20.62,0l-8.577,56.868l11.588,0l0,-0.09zm-144.521,-39.825c-0.456,3.139 -3.467,5.65 -6.66,5.65l0.09,0l-9.214,0l1.733,-11.391l9.033,0c3.193,0 5.474,2.601 5.018,5.74l0,0.001zm11.496,0c1.46,-9.419 -5.2,-17.043 -14.78,-17.043l-20.62,0l-8.577,56.868l11.588,0l3.375,-22.783l3.102,0l8.212,22.783l11.587,0l-8.576,-23.5c7.481,-2.243 13.503,-8.701 14.689,-16.325zm69.797,-25.563l-7.3,48.526l-7.662,-48.526l-15.056,0l-22.445,48.885l7.391,-48.885l-15.054,0l-11.13,73.91l22.352,0l22.719,-49.512l7.846,49.512l22.262,0l11.131,-73.91l-15.054,0zm-137.678,31.215l1.277,-8.611c0.274,-1.436 1.551,-2.602 3.011,-2.691l20.529,0l1.733,-11.392l-23.174,0c-6.296,0 -12.226,5.023 -13.23,11.302l-5.109,34.175l0,0.09c-0.912,6.278 3.467,11.39 9.854,11.39l23.083,0l1.733,-11.48l-20.254,0c-1.46,0 -2.555,-1.256 -2.464,-2.691l0,-0.18l1.278,-8.52l23.174,0l1.733,-11.392l-23.174,0zm-123.17,-31.215l-25.548,0l-51.002,44.4l-4.47,29.6l15.054,0l2.92,-19.195l10.036,-8.7l23.174,27.895l18.43,0l-30.473,-37.583l41.878,-36.417l0.001,0zm356.556,53.998c-1.003,6.278 3.467,11.391 9.854,11.391l23.083,0l1.734,-11.391l-20.255,0c-1.46,0 -2.555,-1.256 -2.464,-2.691l0,-0.18l1.278,-8.52l23.174,0l1.734,-11.392l-23.084,0l1.278,-8.611c0.273,-1.436 1.55,-2.602 3.01,-2.691l20.529,0l1.734,-11.392l-23.175,0c-6.295,0 -12.226,5.023 -13.23,11.302l-5.2,34.175zm-331.74,-22.694l-23.176,0l1.278,-8.61c0.273,-1.436 1.55,-2.602 3.01,-2.692l20.529,0l1.734,-11.391l-23.084,0c-6.295,0 -12.225,5.023 -13.23,11.302l-5.2,34.085l0,0.09c-0.912,6.278 3.467,11.39 9.854,11.39l23.083,0l1.734,-11.39l-20.164,0c-1.46,0 -2.554,-1.256 -2.463,-2.692l0,-0.179l1.277,-8.521l23.174,0l1.643,-11.392l0.001,0zm32.115,-5.74c-0.456,3.139 -3.467,5.65 -6.66,5.65l0.091,0l-9.215,0l1.734,-11.391l9.032,0c3.285,0 5.566,2.601 5.018,5.74l0,0.001zm-3.193,-17.043l-20.62,0l-8.576,56.868l11.587,0l3.467,-22.783l9.033,0c9.58,0 18.43,-7.714 19.89,-17.042c1.368,-9.419 -5.2,-17.043 -14.78,-17.043l-0.001,0z" fill-rule="nonzero" fill="#000"/>
   </g>
  </svg>