<svg  id="fndm-fvo843kb35" viewBox="136 6 329 229" xmlns="http://www.w3.org/2000/svg">
   <g xmlns="http://www.w3.org/2000/svg" fill-rule="evenodd" fill="none">
    <path d="m205,93l-69,69l69,0l0,-69zm65.016,29.274l39.016,38.726l155.968,-155l-173.288,0l-60.712,60.315l0,94.685l41.205,0l-38.826,-38.632l38.826,-38.726l36.827,0l-39.016,38.821l0,-0.189z" fill="#00904A"/>
    <path d="m231,198.854l9.456,0l0,15.41l10.97,-15.41l10.59,0l-13.05,16.36l14.374,19.215l-11.725,0l-11.159,-16.551l0,16.551l-9.456,0l0,-35.575zm34.894,-2.854l8.983,0l0,38.524l-8.983,0l0,-38.524zm30.449,26.539c-2.648,0 -4.54,0.285 -5.674,0.856c-1.135,0.57 -1.702,1.522 -1.702,2.759c0,0.95 0.284,1.617 0.946,2.187c0.661,0.571 1.418,0.857 2.458,0.857c1.608,0 2.932,-0.571 3.972,-1.618c1.04,-1.141 1.513,-2.568 1.513,-4.28l0,-0.761l-1.513,0zm9.929,-1.807l0,13.792l-7.754,0l-0.19,-4.09c-1.04,1.522 -2.363,2.664 -3.876,3.33c-1.513,0.665 -3.31,1.046 -5.485,1.046c-2.648,0 -4.823,-0.761 -6.336,-2.283c-1.607,-1.522 -2.364,-3.52 -2.364,-6.088c0,-2.949 1.135,-5.041 3.404,-6.468c2.27,-1.427 5.863,-2.093 10.591,-2.093l3.5,0l0,-0.38c0,-1.427 -0.568,-2.569 -1.608,-3.33c-1.135,-0.76 -2.648,-1.141 -4.823,-1.141c-1.04,0 -2.175,0.19 -3.499,0.57c-1.324,0.381 -2.742,0.857 -4.255,1.618l-0.19,-5.993a22.922,22.922 0 0 1 4.729,-1.332a33.902,33.902 0 0 1 5.579,-0.475c4.255,0 7.47,1.046 9.456,3.234c2.175,2.092 3.12,5.422 3.12,10.083l0.001,0zm21.087,-6.754c-1.796,0 -3.215,0.666 -4.255,1.902c-1.04,1.237 -1.608,2.95 -1.608,5.137c0,2.188 0.473,3.995 1.513,5.232c1.04,1.236 2.365,1.902 4.067,1.902c1.607,0 2.931,-0.57 3.971,-1.807c0.946,-1.237 1.513,-2.854 1.513,-4.946c0,-2.188 -0.473,-3.996 -1.418,-5.327c-0.946,-1.332 -2.27,-2.093 -3.783,-2.093zm-14.751,-17.978l8.983,0l0,15.79c1.04,-1.427 2.27,-2.568 3.688,-3.234c1.418,-0.76 3.026,-1.046 4.917,-1.046c3.499,0 6.336,1.236 8.416,3.71c2.08,2.473 3.12,5.707 3.12,9.892c0,4.186 -1.04,7.515 -3.214,10.083c-2.175,2.568 -5.012,3.805 -8.416,3.805c-2.08,0 -3.877,-0.476 -5.58,-1.427c-1.607,-0.951 -2.931,-2.378 -3.971,-4.28l0,5.327l-8.038,0l0,-38.62l0.095,0zm34.988,12.08l8.983,0l0,26.35l-8.983,0l0,-26.35zm0,-12.08l8.983,0l0,7.324l-8.983,0l0,-7.324zm43.404,23.02l0,15.41l-8.889,0l0,-13.603c0,-2.093 -0.378,-3.615 -1.135,-4.661c-0.756,-1.046 -1.796,-1.522 -3.31,-1.522c-1.512,0 -2.836,0.666 -3.782,1.902c-0.945,1.237 -1.418,2.95 -1.418,5.137l0,12.651l-8.984,0l0,-26.349l8.133,0l0,4.756c1.04,-1.807 2.364,-3.139 3.971,-4.09c1.608,-0.951 3.5,-1.427 5.485,-1.427c3.215,0 5.674,0.952 7.281,2.95c1.797,2.187 2.648,5.04 2.648,8.846z" fill="#1D1D1B"/>
   </g>
  </svg>