<svg xmlns="http://www.w3.org/2000/svg" fill-rule="evenodd" clip-rule="evenodd" image-rendering="optimizeQuality" shape-rendering="geometricPrecision" text-rendering="geometricPrecision" viewBox="-2 1 6600 3300"><g><rect width="6600" height="3300" x="-2" y="1" fill="none"/><g><rect width="6599.99" height="3300" x="-2" y="1" fill="none"/><g><path fill="#104d7f" d="M2462.48 1951.11c-53.2,-53.2 -83.85,-123.7 -83.85,-193.75 0,-57.36 21.02,-109.91 58.89,-147.78 86.26,-86.48 237.1,-76.18 338.24,21.67l62.6 -65.89c-136.59,-131.8 -343.92,-141.43 -465.2,-20.14 -55.14,54.92 -85.35,130.17 -85.38,211.99l0 0.27c0.03,93.88 40.09,187.74 110.33,257.99l6.57 6.57 62.83 -66.12 -5.03 -4.81 0 0zm-602.32 96.77l82.06 0 0 -300.49c0,-86.31 82.06,-175.77 175.84,-175.77l75.07 0 0 -79.37 -63.35 0c-65.64,0 -110.35,21.32 -141.85,43.09 -17.73,12.25 -32.82,27.22 -45.71,41.96l0 -73.71 -82.06 0 0 544.29zm-433.74 11.34c158.26,0 287.2,-124.73 287.2,-283.48 0,-158.76 -128.94,-283.49 -287.2,-283.49 -158.25,0 -287.21,124.73 -287.21,283.49 0,158.75 128.96,283.48 287.21,283.48zm0 -73.7c-111.36,0 -205.15,-91.86 -205.15,-209.78 0,-119.07 93.79,-209.78 205.15,-209.78 111.37,0 205.15,90.71 205.15,209.78 0,119.06 -93.78,209.78 -205.15,209.78zm-978.84 62.36l87.92 0 0 -232.46 164.12 -170.09 293.07 402.55 105.5 0 -339.95 -464.91 310.64 -328.85 -111.36 0 -422.02 447.91 0 -447.91 -87.92 0 0 793.76zm2428.66 -364.96l-91.08 95.89 0 178.21 -169.22 0 -86.47 90.85 346.77 0 0 -364.95z"/><path fill="#a9abae" fill-rule="nonzero" d="M3098.11 1940.16c18.14,22.68 39.69,43.09 64.63,60.1 44.23,30.61 106.59,58.96 196.18,58.96 164.42,0 260.8,-96.38 260.8,-221.12 0,-272.14 -442.23,-170.09 -442.23,-385.54 0,-85.04 68.03,-153.08 192.77,-153.08 63.5,0 108.85,20.41 140.6,39.69 18.15,12.47 34.02,24.94 46.5,39.68l39.68 -39.68c-15.87,-18.15 -35.15,-34.02 -57.83,-47.63 -39.69,-23.81 -95.25,-48.76 -168.95,-48.76 -153.09,0 -249.47,96.39 -249.47,209.78 0,272.15 442.23,170.09 442.23,385.54 0,96.39 -66.9,164.42 -204.1,164.42 -77.11,0 -131.54,-24.94 -167.83,-51.03 -21.54,-14.74 -38.55,-31.74 -53.29,-51.02l-39.69 39.69zm1014.88 107.72l51.03 0 0 -340.18c0,-130.4 -86.18,-215.45 -204.11,-215.45 -63.5,0 -109.99,24.95 -142.88,48.76 -19.28,13.61 -36.29,29.48 -49.89,47.62l34.01 34.02c11.35,-14.74 24.95,-27.21 40.83,-39.68 27.21,-19.28 66.9,-39.69 117.93,-39.69 90.71,0 153.08,61.23 153.08,164.42l-215.45 34.02c-103.19,17 -164.42,78.24 -164.42,164.42 0,79.38 72.57,153.08 181.43,153.08 71.44,0 120.2,-26.08 151.95,-53.29 19.28,-15.88 34.02,-34.02 46.49,-54.44l0 96.39zm0 -238.13c0,113.4 -85.05,198.44 -198.44,198.44 -79.38,0 -130.4,-51.02 -130.4,-102.05 0,-57.83 38.55,-99.79 124.73,-113.39l204.11 -34.03 0 51.03zm238.13 17.01c0,136.08 96.38,232.46 221.11,232.46 64.64,0 112.26,-26.08 142.88,-53.29 18.14,-15.88 32.88,-34.02 44.22,-54.44l0 96.39 51.03 0 0 -544.29 -51.03 0 0 306.16c0,113.4 -83.91,198.44 -187.1,198.44 -96.38,0 -170.09,-72.57 -170.09,-181.43l0 -323.17 -51.02 0 0 323.17zm209.77 -419.56l45.36 0 102.06 -147.41 -62.37 0 -85.05 147.41zm867.47 640.68l51.02 0 0 -793.76 -51.02 0 0 357.19c-13.61,-21.54 -30.62,-41.95 -49.9,-58.96 -35.15,-30.62 -86.18,-60.1 -159.88,-60.1 -136.07,0 -255.14,119.06 -255.14,283.49 0,164.42 119.07,283.48 255.14,283.48 73.7,0 124.73,-28.35 159.88,-58.96 19.28,-17.01 36.29,-37.42 49.9,-60.1l0 107.72zm-209.78 -39.69c-107.72,0 -204.11,-96.38 -204.11,-232.45 0,-136.08 96.39,-232.46 204.11,-232.46 113.39,0 209.78,96.38 209.78,232.46 0,136.07 -96.39,232.45 -209.78,232.45zm861.79 -96.38c-11.34,19.27 -26.08,35.15 -43.09,48.76 -30.61,23.81 -73.7,47.62 -132.67,47.62 -113.39,0 -202.97,-90.71 -215.45,-209.78l459.25 0 0 -22.67c0,-168.96 -113.39,-283.49 -249.47,-283.49 -140.61,0 -260.8,119.06 -260.8,283.49 0,158.75 124.73,283.48 266.47,283.48 71.44,0 124.74,-28.35 161.02,-56.7 21.55,-17 39.69,-35.15 54.43,-56.7l-39.69 -34.01zm-391.21 -164.42c5.67,-107.73 100.93,-204.11 209.78,-204.11 108.86,0 185.97,78.24 198.44,204.11l-408.22 0z"/></g></g></g></svg>