<svg xmlns="http://www.w3.org/2000/svg" fill-rule="evenodd" clip-rule="evenodd" image-rendering="optimizeQuality" shape-rendering="geometricPrecision" text-rendering="geometricPrecision" viewBox="-2 1 6600 3300"><g><rect width="6600" height="3300" x="-2" y="1" fill="none"/><g><path fill="#3e4095" d="M918.37 774.48c5.09,214.62 33.1,420.43 135.62,608.97 53.34,98.1 225.68,148.16 307.46,224.17 63.77,59.26 98.2,96.77 132.92,188.64 25.5,-214.29 30.46,-423.82 -75.52,-611.83 -101.01,-179.2 -300.23,-301.76 -500.48,-409.95zm1778.08 1302.25l0 -1192.06c0,-126.72 -103.68,-230.39 -230.4,-230.39l-1532.66 0c-126.72,0 -230.39,103.67 -230.39,230.39l0 1192.06 909.48 0c-19.42,-199.77 -7.33,-407.98 72.22,-570.99 155.54,-318.64 528.62,-514.21 864.18,-651.15 -593.57,406.06 -787.45,725.02 -828.42,1222.14l975.99 0z"/><path fill="#f58634" d="M933.39 2647.73l1532.66 0c126.72,0 230.4,-103.68 230.4,-230.4l0 -216.46 -983.07 0c-3.75,110.94 -1.68,230.66 4.04,361.72 -33.19,-98.31 -66.99,-225.14 -88.89,-361.72l-925.53 0 0 216.46c0,126.72 103.67,230.4 230.39,230.4z"/><polygon fill="#f58634" fill-rule="nonzero" points="3511.78,968.09 3389.11,968.09 3389.11,1547.03 3235.3,1547.03 3235.3,968.09 3108.07,968.09 3108.07,865.67 3511.78,865.67"/><path fill="#3e4095" fill-rule="nonzero" d="M5294.87 1954.9l-122.67 0 0 578.94 -153.79 0 0 -578.94 -127.24 0 0 -102.43 403.7 0 0 102.43zm-641.85 578.94l1.55 0 130.35 0 1.54 0 0 -681.37 -131.89 0 0 453.73 -259.83 -453.73 -1.54 0 -130.35 0 -1.54 0 0 681.37 131.89 0 0 -453.72 259.82 453.72zm-1538.77 -494.22c0,-223.72 271.98,-242.71 388.55,-167.63l-41.52 99.37c-95.81,-67.11 -189.72,-24.3 -189.72,62.78 0,114 250.43,73.12 250.43,296.98 0,250.67 -308.09,232.37 -420.09,175.25l41.52 -118.86c79.54,58.98 218.22,42.9 218.22,-43.81 0,-113.35 -247.39,-79.12 -247.39,-304.08zm1054.26 494.22l-151.39 0 -43.13 -151.85 -220.49 0 -42.68 151.85 -150.51 0 224.29 -681.37 164.75 0 219.16 681.37zm-215.83 -236.74l-74.14 -254.68c-5.4,-19.14 -9.31,-41.9 -11.6,-68.28l-3.75 0c-1.63,22.23 -5.57,44.26 -12.1,66.11l-74.95 256.85 176.54 0zm1940.32 236.74l-151.39 0 -43.13 -151.85 -220.49 0 -42.7 151.85 -150.5 0 224.3 -681.37 164.74 0 219.17 681.37zm-215.83 -236.74l-74.16 -254.68c-5.38,-19.14 -9.3,-41.9 -11.6,-68.28l-3.75 0c-1.63,22.23 -5.55,44.26 -12.08,66.11l-74.97 256.85 176.56 0z"/><polygon fill="#f58634" fill-rule="nonzero" points="3978.86,1547.03 3619.88,1547.03 3619.88,865.67 3963.29,865.67 3963.29,973.63 3773.68,973.63 3773.68,1147.64 3946.74,1147.64 3946.74,1255.62 3773.68,1255.62 3773.68,1439.06 3978.86,1439.06"/><path fill="#f58634" fill-rule="nonzero" d="M4604.68 1547.03l-171.12 0 -179.52 -316.26 0 316.26 -149.38 0 0 -659.21c59.24,-25.71 108.41,-36.72 187.5,-38.78 200.3,-5.21 289.91,78.43 289.91,201.89 0,23.85 -3.46,45.75 -10.55,65.87 -7.09,20.11 -17.17,38.28 -30.1,54.34 -12.92,16.22 -28.52,30.18 -46.79,41.86 -18.27,11.68 -44.14,20.93 -66.67,27.58l176.72 306.45zm-350.64 -594.2l0 250.74 64.59 0c77.76,0 106.52,-66.72 106.52,-133.66 0,-130.05 -68.47,-148.88 -171.11,-117.08z"/><path fill="#f58634" fill-rule="nonzero" d="M5234.86 1547.03l-171.11 0 -179.53 -316.26 0 316.26 -149.37 0 0 -659.21c59.23,-25.71 108.41,-36.72 187.49,-38.78 200.3,-5.21 289.92,78.43 289.92,201.89 0,23.85 -3.46,45.75 -10.55,65.87 -7.09,20.11 -17.17,38.28 -30.09,54.34 -12.92,16.22 -28.53,30.18 -46.8,41.86 -18.28,11.68 -44.15,20.93 -66.68,27.58l176.72 306.45zm-350.64 -594.2l0 250.74 64.59 0c77.77,0 106.53,-66.72 106.53,-133.66 0,-130.05 -68.48,-148.88 -171.12,-117.08z"/><path fill="#f58634" fill-rule="nonzero" d="M5893 1547.03l-151.39 0 -43.13 -151.84 -220.49 0 -42.7 151.84 -150.5 0 224.3 -681.36 164.74 0 219.17 681.36zm-215.83 -236.74l-74.16 -254.69c-5.38,-19.13 -9.3,-41.89 -11.6,-68.27l-3.75 0c-1.63,22.23 -5.55,44.25 -12.08,66.11l-74.97 256.85 176.56 0z"/></g></g></svg>