<svg  id="fndm-vcg99zhbrd" viewBox="-0.03218020126223564 0 130.05218505859375 25.450002670288086" xmlns="http://www.w3.org/2000/svg">
   <g xmlns="http://www.w3.org/2000/svg" data-name="Camada 2">
    <g data-name="Camada 1">
     <path d="m4.52,15.54c-1.59,-1 -4.12,-2.29 -4.52,-4.17a21.65,21.65 0 0 0 0,2.36a6,6 0 0 0 0.81,2.6c0.9,1.4 2.66,1.68 3.61,3a11.17,11.17 0 0 1 2.08,6.12c0.92,-1.62 1.73,-4 1.17,-5.82a7.11,7.11 0 0 0 -3.2,-4.08m0.39,-5.55a8.42,8.42 0 0 1 -1.95,-4.57c-0.06,-0.73 -0.09,-2.16 -0.09,-2.16a6.52,6.52 0 0 0 -0.64,7.92c0.95,1.54 2.6,2.13 4,3.13a10.35,10.35 0 0 1 3.24,4a8.18,8.18 0 0 1 0.7,3c1.27,-3.29 0.56,-5.72 -1.72,-8.32c-0.5,-0.65 -3.06,-2.59 -3.51,-3.09m5.45,-6.51l3,0l0,1l-3,0l0,-1zm6.47,3.79l-4.33,0l0,-1l4.38,0s2.14,-0.6 2.14,-4.12l-10.42,0l0,1.12c-0.51,-0.26 -1.19,-0.85 -1.28,-3.19l-2.36,2.17c-0.22,1.09 -0.55,4.52 3.14,7.68a11.08,11.08 0 0 1 4.52,8.68a5.08,5.08 0 0 0 2.53,-3.68a4.23,4.23 0 0 0 -1.13,-3.63c-0.13,-0.14 -0.62,-0.56 -0.62,-0.56c3.15,0.52 3,2.38 3.15,3.19a16.83,16.83 0 0 0 2.37,-4.51c0.76,-2.38 -2.09,-2.15 -2.09,-2.15" fill="#a8934a"/>
     <path d="m39.13,21.75l0,-17.88a1.21,1.21 0 0 0 -1.21,-1.21l-3.65,0a0.17,0.17 0 0 0 0,0.34a1.5,1.5 0 0 1 1.51,1.51l0,17a1.21,1.21 0 0 0 1.22,1.25l10.58,0l0.29,-1l-8.74,-0.01zm19.46,-9.03l2,-8.12l2,8.12l-4,0zm11.55,9.87a0.23,0.23 0 0 0 -0.21,-0.17a2.07,2.07 0 0 1 -1.93,-1.5l-4.26,-17a1.64,1.64 0 0 0 -1.5,-1.21l-2.14,0l-5,20.1l1,0l2.26,-9l4.54,0l2,7.83a1.64,1.64 0 0 0 1.5,1.21l3.6,0a0.13,0.13 0 0 0 0.13,-0.17m5.75,-19.85a0.25,0.25 0 0 0 0.21,0.17a2.06,2.06 0 0 1 1.91,1.51l4.26,17a1.65,1.65 0 0 0 1.51,1.21l2.18,0l5,-20.1l-1,0l-4.54,18.2l-4.24,-16.95a1.65,1.65 0 0 0 -1.51,-1.21l-3.66,0a0.13,0.13 0 0 0 -0.13,0.17m23.53,0a0.23,0.23 0 0 0 0.21,0.17a2,2 0 0 1 1.88,1.51l4.27,17a1.64,1.64 0 0 0 1.5,1.21l2.18,0l5,-20.1l-1,0l-4.54,18.16l-4.22,-16.91a1.64,1.64 0 0 0 -1.5,-1.21l-3.65,0a0.13,0.13 0 0 0 -0.13,0.17m25.6,18.26l0,0.47a1.21,1.21 0 0 0 1.2,1.21l3.65,0a0.17,0.17 0 0 0 0,-0.34a1.51,1.51 0 0 1 -1.51,-1.51l0,-17.06a1.2,1.2 0 0 0 -1.2,-1.2l-3.65,0a0.17,0.17 0 0 0 -0.17,0.16a0.17,0.17 0 0 0 0.17,0.17a1.52,1.52 0 0 1 1.51,1.51l0,16.59z" fill="#37373b"/>
    </g>
   </g>
  </svg>