<svg  id="fndm-otxob7ir6x" viewBox="0 0 2500 557.7000122070312" xmlns="http://www.w3.org/2000/svg">
   <path d="m0,278.8l0,-278.8l653.8,0l0,557.7l-153.8,0l0,-403.9l-96.2,0l0,403.8l-153.8,0l0,-403.8l-96.2,0l0,403.8l-153.8,0l0,-278.8zm730.8,0l0,-278.8l423.1,0l0,557.7l-153.9,0l0,-153.9l-115.4,0l0,153.8l-153.8,0l0,-278.8zm269.2,-67.3l0,-57.7l-115.4,0l0,115.4l115.4,0l0,-57.7zm230.8,67.3l0,-278.8l153.8,0l0,211.5l134.6,0l0,-211.5l153.8,0l0,557.7l-153.8,0l0,-211.5l-134.6,0l0,211.5l-153.8,0l0,-278.9zm519.2,0l0,-278.8l153.8,0l0,423.1l173.1,0l0,134.6l-326.9,0l0,-278.9zm403.8,0l0,-278.8l346.2,0l0,134.6l-192.3,0l0,76.9l192.3,0l0,134.6l-192.3,0l0,76.9l192.3,0l0,134.6l-346.2,0l0,-278.8z" fill="#1e2a63"/>
  </svg>