<svg  id="fndm-osru48wtnf" viewBox="95 46 409 155" xmlns="http://www.w3.org/2000/svg">
   <g xmlns="http://www.w3.org/2000/svg" fill-rule="evenodd" fill="#009992">
    <path d="m277.393,146.086l0,-63.086l-18.393,0l0,79l51,0l0,-15.914l-32.607,0zm40.607,-41.086l19,0l0,57l-19,0l0,-57zm0,-22l19,0l0,16l-19,0l0,-16zm124.862,22.472l-14.98,0l0,-22.472l-18.308,0l0,22.555l-39.696,0c-20.972,0 -26.049,13.963 -26.049,21.068c0,17.928 23.385,19.828 23.718,19.91l0.833,0.084l-13.815,16.358l0.582,0c3.33,-0.083 8.323,-0.083 14.148,0c13.565,0.248 16.894,3.718 16.894,7.931c0,3.884 -5.077,7.27 -13.15,7.27c-9.736,0 -15.062,-2.395 -15.062,-6.774l0,-0.496l-16.894,-0.082c-0.083,0.413 -0.083,0.826 -0.083,1.322c0,7.683 6.574,16.854 31.124,16.854c18.808,0 30.875,-6.031 30.875,-19.498c0,-2.892 -0.915,-7.436 -4.66,-11.154c-1.914,-1.982 -6.74,-5.866 -21.97,-6.444c-0.5,0 -0.999,0 -1.498,-0.082c0,0 2.496,-1.405 3.745,-2.149c4.993,-2.974 10.485,-5.205 15.146,-9.583c3.245,-3.057 5.326,-7.519 5.326,-12.724c0,-3.387 -0.915,-6.113 -2.913,-9.666l13.399,0l0,45.688l18.308,0l0,-45.688l8.322,0c5.66,0 9.487,3.387 9.487,12.062l0,33.626l18.309,0l0,-37.508c0,-15.697 -10.569,-20.407 -21.138,-20.407l0,-0.001zm-71.403,32.387c-5.826,0 -10.653,-4.792 -10.653,-10.41c0,-5.866 4.578,-10.575 10.653,-10.575c6.324,0 10.486,4.626 10.486,9.914c0,6.114 -4.66,11.07 -10.486,11.07l0,0.001zm-180.353,-72.785l0.817,-1.398l8.987,-14.88l-4.657,-2.796l-12.253,14.717l-1.47,1.808l-1.39,1.645l-5.392,6.495l-41.748,50.07l67.645,0l10.294,-12.333l-47.057,0l20.914,-34.613a53.876,53.876 0 0 1 19.28,13.73c0.327,0.411 0.736,0.822 1.063,1.233c1.225,1.48 2.45,3.042 3.513,4.686c1.062,1.645 2.124,3.29 3.023,5.098c0.326,0.575 0.571,1.15 0.898,1.726a46.033,46.033 0 0 1 2.288,5.509c0.49,1.398 0.898,2.877 1.307,4.357c0.408,1.48 0.735,2.96 0.98,4.44c0.245,1.48 0.49,3.042 0.572,4.604c0.164,1.562 0.164,3.124 0.164,4.686c0,2.138 -0.082,4.193 -0.327,6.249c-0.082,0.493 -0.164,0.986 -0.164,1.48c-0.326,2.055 -0.653,4.028 -1.225,5.92c-0.409,1.479 -0.817,2.877 -1.307,4.274a46.033,46.033 0 0 1 -2.288,5.509c-0.735,1.562 -1.634,3.124 -2.45,4.604c-1.39,2.22 -2.86,4.357 -4.494,6.33c-1.062,1.316 -2.288,2.631 -3.513,3.865a50.507,50.507 0 0 1 -5.882,5.097a49.202,49.202 0 0 1 -6.536,4.193c-0.735,0.411 -1.552,0.822 -2.288,1.233l-2.696,1.233c-1.388,0.576 -2.777,1.07 -4.166,1.563c-1.88,0.575 -3.84,1.15 -5.8,1.48a43.021,43.021 0 0 1 -4.494,0.74c-2.042,0.246 -4.085,0.328 -6.209,0.328l-0.98,0l-5.8,6.989l-1.39,1.644c2.696,0.247 5.392,0.411 8.088,0.411c38.153,0 69.035,-28.282 69.035,-63.224c0.245,-26.638 -17.565,-49.33 -42.892,-58.702z"/>
    <path d="m171.672,126.31l-44.127,0l-10.277,12.325l46.982,0l-20.881,34.592c-4.568,-1.89 -8.81,-4.437 -12.643,-7.477a34.29,34.29 0 0 1 -3.67,-3.205a44.636,44.636 0 0 1 -2.774,-2.793a56.143,56.143 0 0 1 -6.933,-9.45a63.724,63.724 0 0 1 -2.692,-5.258c-1.468,-3.37 -2.61,-6.82 -3.344,-10.518c-0.163,-0.904 -0.326,-1.807 -0.49,-2.793c-0.162,-0.904 -0.244,-1.89 -0.325,-2.794c-0.164,-1.89 -0.327,-3.78 -0.327,-5.752c0,-2.3 0.163,-4.601 0.408,-6.902l0.245,-1.726c0.163,-1.15 0.408,-2.218 0.652,-3.286c0.49,-2.219 1.142,-4.355 1.876,-6.41c0.898,-2.629 2.04,-5.094 3.345,-7.477a39.991,39.991 0 0 1 2.691,-4.437a62.324,62.324 0 0 1 6.526,-8.052c9.706,-9.778 23.164,-15.859 38.01,-15.859l0.978,0l7.178,-8.627c-2.692,-0.247 -5.383,-0.411 -8.075,-0.411c-38.173,0.082 -69.005,28.348 -69.005,63.27c0,26.54 17.863,49.218 43.148,58.585l-0.897,1.397l-8.972,14.872l4.568,2.876l12.235,-14.708l1.468,-1.808l1.386,-1.643l5.384,-6.491l41.68,-50.04l-23.328,0zm332.328,-28.858l-10.695,0l0,-14.452l-18.61,0l0,14.452l-10.695,0l0,11.935l10.695,0l0,52.613l18.61,0l0,-52.613l10.695,0l0,-11.935z"/>
   </g>
  </svg>