<svg  id="fndm-9xxftoxf4l" viewBox="55.667991638183594 56.58504104614258 489.3320007324219 136.89744567871094" xmlns="http://www.w3.org/2000/svg">
   <g xmlns="http://www.w3.org/2000/svg" fill-rule="evenodd" fill="none">
    <path d="m55.669,155.733s73.793,25.822 94.602,-40.893c11.199,12.53 24.487,25.738 20.81,44.025c-9.945,48.681 -77.972,37.76 -101.623,17.187c-5.516,-6.435 -10.029,-11.938 -13.79,-20.32l0.001,0.001z" fill="#3F8ECA"/>
    <path d="m136.148,56.847c0.25,-0.932 -15.795,1.1 -24.403,21.335c0,0 -26.91,71.624 44.627,105.49c0,0 35.769,-26.67 -3.176,-65.784c-21.812,-22.012 -21.645,-44.532 -17.048,-61.041z" fill="#E8E33A"/>
    <path d="m119.684,153.531c7.522,11.176 19.055,21.759 36.521,30.056c7.187,-5.504 12.62,-13.547 14.876,-24.807c1.086,-7.789 -0.335,-17.27 -7.187,-27.854c-4.012,-5.757 -9.026,-11.006 -13.623,-16.17c-6.351,20.573 -17.8,32.34 -30.587,38.775z" fill="#669F3E"/>
    <path d="m89.014,160.728c4.095,10.16 11.031,21.673 22.815,32.002c-16.798,-1.947 -33.011,-8.55 -42.288,-16.678c-3.677,-4.318 -6.852,-8.213 -9.694,-12.785c-0.836,-2.2 -1.671,-4.487 -2.423,-6.942c4.178,1.27 16.797,4.657 31.59,4.403z" fill="#3F8ECA"/>
    <path d="m88.763,160.728c4.095,10.16 10.948,21.673 22.648,31.917c-16.631,-2.032 -32.677,-8.55 -41.87,-16.593c-3.76,-4.488 -7.103,-8.467 -9.945,-13.208c-0.752,-2.116 -1.587,-4.233 -2.256,-6.519c4.011,1.185 16.63,4.657 31.423,4.403z" fill="#3F8ECA"/>
    <path d="m88.512,160.728c4.012,10.16 10.864,21.589 22.48,31.917c-16.463,-2.116 -32.258,-8.635 -41.45,-16.509c-3.928,-4.572 -7.271,-8.72 -10.28,-13.715c-0.752,-1.947 -1.42,-3.98 -2.09,-6.096c3.929,1.185 16.464,4.572 31.34,4.403z" fill="#3F8FCB"/>
    <path d="m88.261,160.728c4.012,10.074 10.865,21.589 22.314,31.833c-16.296,-2.201 -31.924,-8.636 -40.95,-16.51c-4.011,-4.74 -7.521,-8.974 -10.53,-14.223c-0.669,-1.862 -1.337,-3.725 -1.922,-5.588c3.677,1.186 16.213,4.657 31.088,4.488z" fill="#4390CC"/>
    <path d="m88.01,160.728c4.012,10.074 10.781,21.504 22.147,31.748c-16.13,-2.201 -31.59,-8.636 -40.532,-16.424c-4.179,-4.91 -7.689,-9.229 -10.864,-14.647a362.681,362.681 0 0 1 -1.755,-5.165c3.593,1.101 16.045,4.572 31.005,4.488l-0.001,0z" fill="#4391CD"/>
    <path d="m87.676,160.728c4.012,10.074 10.698,21.42 21.98,31.663c-15.962,-2.285 -31.172,-8.635 -40.115,-16.34c-4.262,-4.995 -7.939,-9.482 -11.115,-15.154c-0.585,-1.524 -1.086,-3.133 -1.587,-4.741c3.426,1.1 15.878,4.656 30.837,4.572z" fill="#4493CE"/>
    <path d="m87.426,160.728c3.928,9.99 10.613,21.42 21.812,31.663c-15.879,-2.37 -30.838,-8.635 -39.697,-16.34c-4.429,-5.164 -8.19,-9.736 -11.365,-15.747c-0.502,-1.354 -0.92,-2.794 -1.421,-4.233c3.26,1.1 15.711,4.657 30.67,4.657l0.001,0z" fill="#4391CD"/>
    <path d="m87.175,160.728c3.928,9.99 10.53,21.335 21.561,31.579c-15.711,-2.37 -30.503,-8.636 -39.195,-16.255c-4.512,-5.334 -8.357,-10.075 -11.7,-16.256c-0.417,-1.185 -0.835,-2.455 -1.253,-3.725c3.092,1.016 15.544,4.657 30.587,4.657z" fill="#4794CE"/>
    <path d="m86.924,160.728c3.928,9.99 10.447,21.25 21.395,31.494c-15.545,-2.455 -30.17,-8.635 -38.778,-16.17c-4.68,-5.504 -8.607,-10.33 -11.95,-16.848a150.195,150.195 0 0 1 -1.003,-3.217c2.674,0.93 15.126,4.656 30.336,4.74l0,0.001z" fill="#4795CF"/>
    <path d="m86.674,160.728c3.927,9.905 10.362,21.165 21.227,31.41c-15.377,-2.456 -29.752,-8.636 -38.36,-16.086c-4.847,-5.673 -8.858,-10.583 -12.285,-17.441c-0.25,-0.847 -0.585,-1.778 -0.835,-2.624c2.507,0.846 14.959,4.656 30.253,4.74l0,0.001z" fill="#4795CE"/>
    <path d="m86.423,160.728c3.844,9.905 10.363,21.165 21.06,31.325c-15.21,-2.54 -29.417,-8.636 -37.942,-16.001c-4.93,-5.842 -9.109,-10.922 -12.619,-18.034c-0.25,-0.677 -0.418,-1.354 -0.668,-2.031c2.256,0.677 14.708,4.571 30.169,4.74l0,0.001z" fill="#4B96CF"/>
    <path d="m86.089,160.728a88.01,88.01 0 0 0 20.892,31.325c-15.042,-2.54 -29.082,-8.636 -37.44,-15.917c-5.097,-6.01 -9.36,-11.175 -12.953,-18.626c-0.167,-0.508 -0.334,-0.93 -0.502,-1.439c2.006,0.508 14.458,4.487 30.003,4.657z" fill="#4B97D0"/>
    <path d="m85.838,160.728c3.844,9.82 10.196,20.996 20.726,31.24c-14.876,-2.624 -28.665,-8.635 -37.023,-15.832c-5.265,-6.18 -9.61,-11.514 -13.204,-19.388l-0.25,-0.761c1.337,0.338 13.956,4.487 29.75,4.74l0.001,0.001z" fill="#4E98D0"/>
    <path d="m85.587,160.728c3.844,9.82 10.112,20.911 20.559,31.155c-14.709,-2.624 -28.331,-8.635 -36.605,-15.831c-5.432,-6.35 -9.861,-11.853 -13.538,-20.065l0,-0.085c0.334,0.085 13.204,4.487 29.584,4.826z" fill="#4F99D1"/>
    <path d="m85.336,160.728c3.761,9.736 10.029,20.911 20.392,31.07c-14.542,-2.708 -27.997,-8.635 -36.103,-15.746c-5.432,-6.435 -9.861,-11.853 -13.622,-20.15c-0.084,-0.085 12.786,4.487 29.333,4.826z" fill="#529AD2"/>
    <path d="m85.086,160.728c3.76,9.736 9.945,20.827 20.14,30.986c-14.374,-2.71 -27.578,-8.635 -35.685,-15.662c-5.432,-6.435 -9.861,-11.853 -13.622,-20.15c0,-0.085 12.787,4.402 29.167,4.826z" fill="#529AD2"/>
    <path d="m84.751,160.643c3.761,9.736 9.862,20.742 19.974,30.902c-14.207,-2.794 -27.244,-8.636 -35.267,-15.578c-5.432,-6.434 -9.862,-11.853 -13.622,-20.15c0.083,0 12.703,4.403 28.915,4.826z" fill="#529AD2"/>
    <path d="m84.5,160.643c3.678,9.651 9.779,20.658 19.807,30.817c-13.956,-2.794 -26.91,-8.55 -34.766,-15.493c-5.432,-6.434 -9.861,-11.853 -13.622,-20.15c0,0 12.536,4.403 28.582,4.826l-0.001,0z" fill="#529BD3"/>
    <path d="m84.25,160.643c3.677,9.651 9.778,20.573 19.64,30.732c-13.79,-2.878 -26.493,-8.55 -34.349,-15.323c-5.432,-6.435 -9.861,-11.853 -13.622,-20.15c0,-0.085 12.369,4.233 28.331,4.74l0,0.001z" fill="#559CD3"/>
    <path d="m84,160.643c3.676,9.567 9.694,20.573 19.471,30.648c-13.622,-2.879 -26.157,-8.551 -33.93,-15.24c-5.432,-6.434 -9.861,-11.852 -13.622,-20.15c0,-0.084 12.202,4.234 28.08,4.742l0.001,0z" fill="#589ED4"/>
    <path d="m83.749,160.643c3.677,9.567 9.61,20.488 19.305,30.563c-13.455,-2.878 -25.824,-8.55 -33.429,-15.154c-5.432,-6.435 -9.861,-11.853 -13.622,-20.15c-0.084,-0.085 12.034,4.148 27.746,4.74l0,0.001z" fill="#589ED4"/>
    <path d="m83.414,160.643a89.868,89.868 0 0 0 19.138,30.478c-13.288,-2.963 -25.406,-8.466 -33.01,-15.07c-5.433,-6.434 -9.862,-11.852 -13.623,-20.15c0,-0.084 11.951,4.15 27.495,4.742z" fill="#5B9FD5"/>
    <path d="m83.164,160.643c3.593,9.482 9.443,20.319 18.887,30.394c-13.121,-2.963 -25.072,-8.466 -32.593,-14.985c-5.432,-6.435 -9.862,-11.853 -13.622,-20.15c0.083,-0.085 11.867,4.064 27.328,4.74l0,0.001z" fill="#5B9FD5"/>
    <path d="m82.913,160.643c3.593,9.482 9.36,20.234 18.72,30.31c-12.954,-2.964 -24.737,-8.467 -32.092,-14.901c-5.432,-6.435 -9.861,-11.853 -13.622,-20.15c0,-0.085 11.7,4.064 26.994,4.74l0,0.001z" fill="#5EA1D6"/>
    <path d="m82.662,160.643a92.271,92.271 0 0 0 18.553,30.224c-12.786,-2.963 -24.32,-8.381 -31.674,-14.815c-5.432,-6.435 -9.861,-11.853 -13.622,-20.15c0,-0.085 11.533,3.979 26.743,4.74l0,0.001z" fill="#5EA1D6"/>
    <path d="m82.411,160.558c3.51,9.398 9.193,20.065 18.386,30.14c-12.62,-3.048 -23.985,-8.381 -31.172,-14.646c-5.432,-6.435 -9.861,-11.853 -13.622,-20.15c-0.084,-0.085 11.282,3.894 26.408,4.656z" fill="#61A2D6"/>
    <path d="m82.077,160.558c3.51,9.313 9.11,19.98 18.219,30.055c-12.452,-3.047 -23.651,-8.381 -30.755,-14.561c-5.432,-6.435 -9.861,-11.853 -13.622,-20.15c0,-0.085 11.282,3.894 26.158,4.656z" fill="#64A4D8"/>
    <path d="m81.826,160.558c3.51,9.313 9.026,19.98 18.052,29.97c-12.202,-3.047 -23.233,-8.296 -30.337,-14.476c-5.432,-6.435 -9.861,-11.853 -13.622,-20.15c0,-0.085 11.115,3.81 25.907,4.656z" fill="#64A3D7"/>
    <path d="m81.576,160.558c3.426,9.313 9.025,19.896 17.884,29.802c-12.034,-3.048 -22.899,-8.297 -29.919,-14.308c-5.432,-6.435 -9.861,-11.853 -13.622,-20.15c0,-0.085 11.032,3.81 25.657,4.656z" fill="#64A4D8"/>
    <path d="m81.325,160.558c3.426,9.229 8.942,19.811 17.717,29.717c-11.867,-3.048 -22.564,-8.212 -29.417,-14.223c-5.432,-6.435 -9.861,-11.853 -13.622,-20.15c-0.084,-0.085 10.78,3.725 25.322,4.656z" fill="#66A5D8"/>
    <path d="m81.074,160.474c3.427,9.228 8.859,19.726 17.467,29.632c-11.7,-3.133 -22.23,-8.213 -29,-14.14c-5.432,-6.433 -9.861,-11.852 -13.622,-20.149c0,0 10.697,3.81 25.155,4.657z" fill="#69A6D7"/>
    <path d="m80.74,160.474c3.343,9.143 8.775,19.641 17.3,29.547c-11.534,-3.133 -21.813,-8.128 -28.582,-13.97c-5.432,-6.434 -9.862,-11.852 -13.622,-20.15c0.083,-0.084 10.697,3.641 24.904,4.573z" fill="#6CA8DA"/>
    <path d="m80.49,160.474c3.342,9.143 8.69,19.557 17.131,29.462c-11.365,-3.132 -21.477,-8.127 -28.08,-13.884c-5.432,-6.435 -9.861,-11.853 -13.622,-20.15c0,-0.085 10.447,3.64 24.57,4.572l0.001,0z" fill="#6CA8DA"/>
    <path d="m80.239,160.474c3.342,9.059 8.607,19.472 16.965,29.293c-11.199,-3.133 -21.144,-8.043 -27.663,-13.715c-5.432,-6.435 -9.861,-11.853 -13.622,-20.15c0,-0.085 10.363,3.556 24.32,4.572z" fill="#6CA8DA"/>
    <path d="m79.988,160.474c3.343,9.059 8.524,19.387 16.798,29.208c-10.948,-3.132 -20.726,-8.043 -27.161,-13.63c-5.432,-6.435 -9.861,-11.853 -13.622,-20.15c-0.084,-0.085 10.112,3.471 23.985,4.572z" fill="#6EA9DA"/>
    <path d="m79.654,160.389c3.259,8.974 8.44,19.303 16.63,29.124c-10.78,-3.133 -20.391,-7.958 -26.743,-13.461c-5.432,-6.435 -9.861,-11.853 -13.622,-20.15c0,-0.085 10.029,3.471 23.735,4.487z" fill="#70AADA"/>
    <path d="m79.403,160.389c3.26,8.974 8.357,19.218 16.463,29.04c-10.613,-3.133 -20.057,-7.874 -26.325,-13.377c-5.432,-6.435 -9.861,-11.853 -13.622,-20.15c0,-0.085 9.945,3.386 23.484,4.487z" fill="#72ABDB"/>
    <path d="m79.152,160.389c3.26,8.89 8.274,19.134 16.297,28.87c-10.447,-3.133 -19.723,-7.874 -25.908,-13.207c-5.432,-6.435 -9.861,-11.853 -13.622,-20.15c0,-0.085 9.778,3.386 23.233,4.487z" fill="#75ADDB"/>
    <path d="m78.901,160.389c3.176,8.89 8.274,19.049 16.13,28.785c-10.28,-3.132 -19.305,-7.789 -25.406,-13.122c-5.432,-6.435 -9.861,-11.853 -13.622,-20.15c-0.084,-0.085 9.61,3.302 22.898,4.487z" fill="#74ACDB"/>
    <path d="m78.567,160.304c3.176,8.805 8.19,18.965 15.962,28.7c-10.112,-3.132 -18.97,-7.703 -24.988,-12.952c-5.432,-6.435 -9.861,-11.853 -13.622,-20.15c0,-0.085 9.527,3.302 22.648,4.402z" fill="#75ADDC"/>
    <path d="m78.316,160.304c3.176,8.805 8.107,18.88 15.712,28.532c-9.862,-3.133 -18.637,-7.705 -24.57,-12.784c-5.432,-6.435 -9.862,-11.853 -13.622,-20.15c0.083,-0.085 9.527,3.217 22.48,4.402z" fill="#79AFDC"/>
    <path d="m78.066,160.304c3.092,8.72 8.023,18.795 15.544,28.447c-9.694,-3.133 -18.219,-7.62 -24.069,-12.7c-5.432,-6.434 -9.861,-11.852 -13.622,-20.15c0,-0.084 9.277,3.218 22.147,4.403z" fill="#79AFDD"/>
    <path d="m77.815,160.22c3.092,8.72 7.94,18.71 15.377,28.277c-9.527,-3.133 -17.884,-7.535 -23.65,-12.53c-5.433,-6.434 -9.862,-11.853 -13.623,-20.15c0,0 9.11,3.217 21.896,4.403z" fill="#7BB1DD"/>
    <path d="m77.48,160.22c3.093,8.635 7.856,18.625 15.21,28.192c-9.36,-3.132 -17.55,-7.45 -23.232,-12.36c-5.432,-6.435 -9.862,-11.853 -13.622,-20.15c0.083,-0.085 9.109,3.132 21.645,4.318l-0.001,0z" fill="#7BB0DD"/>
    <path d="m77.23,160.22c3.092,8.635 7.772,18.54 15.043,28.108c-9.193,-3.133 -17.216,-7.366 -22.732,-12.276c-5.432,-6.435 -9.861,-11.853 -13.622,-20.15c0,-0.085 8.859,3.048 21.311,4.318z" fill="#7DB2DF"/>
    <path d="m76.98,160.135c3.008,8.55 7.688,18.456 14.875,27.939c-8.942,-3.048 -16.881,-7.366 -22.314,-12.107c-5.432,-6.434 -9.861,-11.853 -13.622,-20.15c0,0 8.775,3.133 21.06,4.318l0.001,0z" fill="#7FB3DF"/>
    <path d="m76.729,160.135c3.008,8.55 7.605,18.287 14.708,27.854c-8.775,-3.048 -16.463,-7.281 -21.896,-11.937c-5.432,-6.435 -9.861,-11.853 -13.622,-20.15c0,-0.085 8.608,2.963 20.81,4.233z" fill="#81B4DF"/>
    <path d="m76.394,160.135c3.009,8.466 7.522,18.202 14.542,27.685c-8.608,-3.048 -16.13,-7.197 -21.478,-11.768c-5.432,-6.435 -9.862,-11.853 -13.622,-20.15c0.083,-0.085 8.608,2.878 20.558,4.233z" fill="#83B5DF"/>
    <path d="m76.144,160.05c2.925,8.467 7.521,18.118 14.374,27.6c-8.44,-3.048 -15.795,-7.111 -20.977,-11.598c-5.432,-6.435 -9.861,-11.853 -13.622,-20.15c0,-0.085 8.357,2.878 20.225,4.148z" fill="#83B5E0"/>
    <path d="m75.893,160.05c2.925,8.382 7.438,18.033 14.207,27.431c-8.274,-3.048 -15.46,-7.027 -20.559,-11.43c-5.432,-6.434 -9.861,-11.852 -13.622,-20.15c0,-0.084 8.274,2.795 19.974,4.15l0,-0.001z" fill="#83B5E0"/>
    <path d="m75.642,160.05c2.925,8.382 7.354,17.949 14.04,27.346c-8.023,-2.963 -15.126,-6.942 -20.14,-11.26c-5.433,-6.434 -9.862,-11.853 -13.623,-20.15c0,-0.169 8.107,2.71 19.723,4.064z" fill="#85B6E0"/>
    <path d="m75.308,159.966c2.925,8.297 7.27,17.863 13.873,27.176c-7.856,-2.963 -14.792,-6.857 -19.723,-11.09c-5.432,-6.435 -9.862,-11.853 -13.622,-20.15c0.083,-0.085 8.106,2.709 19.472,4.064z" fill="#87B7E0"/>
    <path d="m75.057,159.966c2.842,8.297 7.187,17.779 13.706,27.007c-7.689,-2.963 -14.374,-6.773 -19.222,-11.006c-5.432,-6.434 -9.861,-11.853 -13.622,-20.15c0,0 7.856,2.794 19.138,4.149z" fill="#89B7E1"/>
    <path d="m74.806,159.966c2.842,8.212 7.104,17.61 13.539,26.922c-7.521,-2.963 -14.04,-6.688 -18.804,-10.836c-5.432,-6.435 -9.861,-11.853 -13.622,-20.15c0,-0.085 7.772,2.624 18.887,4.064z" fill="#8BBAE2"/>
    <path d="m74.556,159.881c2.841,8.212 7.02,17.525 13.371,26.753c-7.354,-2.878 -13.706,-6.603 -18.386,-10.582c-5.432,-6.435 -9.861,-11.853 -13.622,-20.15c0,-0.085 7.605,2.624 18.637,3.979z" fill="#8BB8E1"/>
    <path d="m74.221,159.881c2.758,8.128 6.937,17.44 13.205,26.669c-7.104,-2.879 -13.372,-6.52 -17.968,-10.414c-5.432,-6.434 -9.862,-11.853 -13.622,-20.15c0.083,-0.169 7.605,2.456 18.385,3.895z" fill="#8DBBE2"/>
    <path d="m73.97,159.796c2.759,8.043 6.854,17.356 13.038,26.5c-6.937,-2.879 -13.037,-6.35 -17.467,-10.244c-5.432,-6.435 -9.861,-11.853 -13.622,-20.15c0,-0.085 7.355,2.54 18.052,3.894l-0.001,0z" fill="#8FBBE3"/>
    <path d="m73.72,159.796c2.758,8.043 6.853,17.271 12.87,26.33c-6.77,-2.793 -12.703,-6.265 -17.049,-10.074c-5.432,-6.435 -9.861,-11.853 -13.622,-20.15c0,-0.085 7.271,2.455 17.801,3.894z" fill="#91BCE3"/>
    <path d="m73.47,159.712c2.674,7.958 6.769,17.101 12.786,26.16c-6.602,-2.793 -12.369,-6.18 -16.631,-9.905c-5.432,-6.434 -9.861,-11.853 -13.622,-20.15c-0.084,0 7.02,2.54 17.466,3.895l0.001,0z" fill="#93BDE3"/>
    <path d="m73.135,159.712c2.674,7.958 6.686,17.017 12.62,26.076c-6.436,-2.71 -12.035,-6.096 -16.214,-9.736c-5.432,-6.435 -9.861,-11.853 -13.622,-20.15c0,-0.085 7.02,2.37 17.216,3.81z" fill="#93BDE3"/>
    <path d="m72.884,159.712c2.675,7.873 6.602,16.932 12.452,25.906c-6.267,-2.709 -11.7,-6.01 -15.795,-9.566c-5.432,-6.435 -9.861,-11.853 -13.622,-20.15c0,-0.085 6.853,2.37 16.965,3.81z" fill="#95BEE4"/>
    <path d="m72.634,159.627c2.674,7.789 6.518,16.848 12.285,25.737c-6.018,-2.709 -11.366,-5.841 -15.294,-9.312c-5.432,-6.435 -9.861,-11.853 -13.622,-20.15c-0.084,-0.085 6.686,2.286 16.63,3.725l0.001,0z" fill="#97BFE4"/>
    <path d="m72.3,159.627c2.59,7.789 6.434,16.679 12.117,25.568c-5.85,-2.624 -10.948,-5.757 -14.876,-9.143c-5.432,-6.435 -9.861,-11.853 -13.622,-20.15c0,-0.085 6.602,2.286 16.38,3.725l0.001,0z" fill="#99C0E4"/>
    <path d="m72.049,159.542c2.59,7.705 6.351,16.594 11.95,25.484c-5.683,-2.625 -10.613,-5.673 -14.458,-8.974c-5.432,-6.435 -9.861,-11.853 -13.622,-20.15c0,-0.085 6.519,2.201 16.13,3.64z" fill="#9BC1E6"/>
    <path d="m71.798,159.542c2.59,7.705 6.351,16.51 11.783,25.314c-5.515,-2.54 -10.279,-5.503 -14.04,-8.72c-5.432,-6.434 -9.861,-11.853 -13.622,-20.15c0,-0.169 6.352,2.117 15.879,3.556z" fill="#9AC0E5"/>
    <path d="m71.547,159.458c2.507,7.62 6.268,16.34 11.617,25.144c-5.349,-2.54 -9.945,-5.418 -13.623,-8.55c-5.432,-6.435 -9.861,-11.853 -13.622,-20.15c0,-0.085 6.268,2.116 15.628,3.556z" fill="#9CC1E5"/>
    <path d="m71.213,159.458c2.507,7.535 6.184,16.255 11.45,24.975c-5.182,-2.455 -9.612,-5.334 -13.122,-8.381c-5.432,-6.435 -9.861,-11.853 -13.622,-20.15c0,-0.085 6.101,2.116 15.294,3.556z" fill="#9EC2E6"/>
    <path d="m70.962,159.373c2.507,7.535 6.1,16.17 11.282,24.806c-4.93,-2.37 -9.276,-5.164 -12.703,-8.127c-5.432,-6.435 -9.861,-11.853 -13.622,-20.15c0,-0.085 6.017,2.032 15.043,3.471z" fill="#A0C3E6"/>
    <path d="m70.711,159.373c2.424,7.45 6.018,16.001 11.199,24.637c-4.764,-2.37 -8.942,-5.08 -12.285,-7.958c-5.432,-6.435 -9.861,-11.853 -13.622,-20.15c-0.084,-0.085 5.766,2.032 14.708,3.471z" fill="#A2C4E6"/>
    <path d="m70.377,159.288c2.424,7.366 5.934,15.917 11.032,24.468c-4.597,-2.286 -8.692,-4.91 -11.868,-7.704c-5.432,-6.435 -9.861,-11.853 -13.622,-20.15c0,-0.085 5.767,1.947 14.458,3.386z" fill="#A4C5E7"/>
    <path d="m70.126,159.288c2.424,7.366 5.85,15.748 10.865,24.299c-4.43,-2.286 -8.357,-4.826 -11.45,-7.535c-5.432,-6.435 -9.861,-11.853 -13.622,-20.15c0,-0.085 5.6,1.947 14.207,3.386z" fill="#A4C5E7"/>
    <path d="m69.876,159.204c2.423,7.28 5.85,15.662 10.697,24.129c-4.262,-2.202 -8.023,-4.657 -11.032,-7.281c-5.432,-6.435 -9.861,-11.853 -13.622,-20.15c0,-0.085 5.516,1.862 13.957,3.302z" fill="#A4C5E7"/>
    <path d="m69.541,159.119a128.48,128.48 0 0 0 10.53,23.96c-4.095,-2.117 -7.688,-4.488 -10.613,-7.027c-5.432,-6.435 -9.862,-11.853 -13.622,-20.15c0.083,-0.085 5.515,1.862 13.705,3.217z" fill="#A7C7E7"/>
    <path d="m69.29,159.119c2.34,7.196 5.684,15.409 10.364,23.79c-3.928,-2.116 -7.355,-4.402 -10.113,-6.857c-5.432,-6.435 -9.861,-11.853 -13.622,-20.15c0,-0.085 5.265,1.778 13.372,3.217l-0.001,0z" fill="#A7C7E7"/>
    <path d="m69.04,159.034c2.34,7.112 5.6,15.24 10.28,23.537c-3.678,-2.032 -7.02,-4.234 -9.695,-6.604c-5.432,-6.434 -9.861,-11.853 -13.622,-20.15c-0.084,0 5.098,1.863 13.037,3.217z" fill="#A9C8E8"/>
    <path d="m68.79,159.034c2.256,7.027 5.515,15.155 10.111,23.367c-3.51,-1.947 -6.685,-4.064 -9.276,-6.35c-5.432,-6.434 -9.861,-11.852 -13.622,-20.15c-0.084,-0.084 4.93,1.694 12.786,3.133l0.001,0z" fill="#A9C6E7"/>
    <path d="m68.455,158.95c2.256,7.027 5.432,14.985 9.945,23.197a56.482,56.482 0 0 1 -8.859,-6.095c-5.432,-6.435 -9.861,-11.853 -13.622,-20.15c0,-0.085 4.931,1.693 12.536,3.048z" fill="#ABC7E8"/>
    <path d="m68.204,158.95c2.257,6.942 5.349,14.9 9.778,23.028c-3.176,-1.863 -6.017,-3.81 -8.44,-5.842c-5.433,-6.434 -9.862,-11.853 -13.623,-20.15c0,-0.169 4.764,1.524 12.285,2.964z" fill="#ADC8E8"/>
    <path d="m67.954,158.865c2.172,6.858 5.265,14.731 9.61,22.859c-3.008,-1.778 -5.683,-3.64 -8.023,-5.672c-5.432,-6.435 -9.861,-11.853 -13.622,-20.15c0,-0.085 4.68,1.608 12.035,2.963z" fill="#ACC7E7"/>
    <path d="m67.62,158.78a140.096,140.096 0 0 0 9.443,22.605c-2.842,-1.693 -5.432,-3.47 -7.605,-5.418c-5.432,-6.434 -9.862,-11.853 -13.622,-20.15c0.083,0 4.68,1.609 11.783,2.963l0.001,0z" fill="#AEC8E7"/>
    <path d="m67.369,158.78c2.172,6.773 5.181,14.478 9.36,22.436c-2.675,-1.609 -5.098,-3.302 -7.104,-5.08c-5.432,-6.434 -9.861,-11.853 -13.622,-20.15c-0.084,-0.169 4.346,1.44 11.366,2.794z" fill="#B0C9E8"/>
    <path d="m67.118,158.696c2.09,6.688 5.098,14.308 9.193,22.181c-2.507,-1.524 -4.764,-3.132 -6.686,-4.825c-5.432,-6.435 -9.861,-11.853 -13.622,-20.15c-0.084,-0.085 4.262,1.44 11.115,2.794z" fill="#B0C7E7"/>
    <path d="m66.784,158.611c2.089,6.604 5.014,14.223 9.025,22.012c-2.34,-1.439 -4.429,-2.963 -6.268,-4.571c-5.432,-6.435 -9.861,-11.853 -13.622,-20.15c0,-0.085 4.179,1.44 10.865,2.709z" fill="#B1C8E7"/>
    <path d="m66.533,158.611c2.09,6.52 4.93,14.054 8.858,21.758a45.89,45.89 0 0 1 -5.85,-4.317c-5.432,-6.435 -9.861,-11.853 -13.622,-20.15c0,-0.085 4.095,1.354 10.614,2.709z" fill="#B1C8E7"/>
    <path d="m66.282,158.526c2.006,6.52 4.847,13.885 8.692,21.59c-2.006,-1.27 -3.845,-2.625 -5.433,-4.064c-5.432,-6.435 -9.861,-11.853 -13.622,-20.15c0,-0.085 4.012,1.354 10.363,2.624z" fill="#B3C9E6"/>
    <path d="m65.948,158.442c2.006,6.434 4.763,13.8 8.608,21.335a39.268,39.268 0 0 1 -5.015,-3.81c-5.432,-6.434 -9.861,-11.853 -13.622,-20.15c0,0 3.845,1.355 10.029,2.625z" fill="#B3C7E5"/>
    <path d="m65.697,158.442c2.006,6.35 4.68,13.63 8.44,21.08c-1.67,-1.1 -3.175,-2.285 -4.596,-3.47c-5.432,-6.435 -9.861,-11.853 -13.622,-20.15c0,-0.085 3.761,1.27 9.778,2.54z" fill="#B3C8E6"/>
    <path d="m65.446,158.357c1.923,6.265 4.597,13.461 8.274,20.827c-1.504,-1.016 -2.841,-2.117 -4.095,-3.217c-5.432,-6.434 -9.861,-11.853 -13.622,-20.15c-0.084,0 3.593,1.27 9.443,2.54z" fill="#B5C8E6"/>
    <path d="m65.112,158.272a156.75,156.75 0 0 0 8.107,20.658c-1.338,-0.931 -2.591,-1.863 -3.678,-2.878c-5.432,-6.435 -9.861,-11.853 -13.622,-20.15c0,-0.085 3.51,1.185 9.193,2.37z" fill="#B6C8E5"/>
    <path d="m64.861,158.272c1.923,6.096 4.513,13.123 7.94,20.404a55.384,55.384 0 0 1 -3.26,-2.54c-5.432,-6.434 -9.861,-11.853 -13.622,-20.15c0,-0.169 3.427,1.016 8.942,2.286z" fill="#B6C8E5"/>
    <path d="m64.61,158.188c1.84,6.01 4.43,12.953 7.773,20.15c-1.003,-0.763 -1.922,-1.525 -2.842,-2.286c-5.432,-6.435 -9.861,-11.853 -13.622,-20.15c0,-0.085 3.26,1.1 8.692,2.286l-0.001,0z" fill="#B8C9E5"/>
    <path d="m64.276,158.103c1.839,6.011 4.346,12.784 7.605,19.896a27.246,27.246 0 0 1 -2.423,-1.947c-5.432,-6.435 -9.862,-11.853 -13.622,-20.15c0.083,-0.085 3.259,1.016 8.44,2.201z" fill="#B7C7E4"/>
    <path d="m64.026,158.018c1.838,5.927 4.262,12.615 7.438,19.557c-0.669,-0.508 -1.338,-1.015 -1.923,-1.608c-5.432,-6.434 -9.861,-11.853 -13.622,-20.15c0,0 3.092,1.1 8.107,2.201z" fill="#B7C7E4"/>
    <path d="m63.775,158.018c1.755,5.842 4.179,12.446 7.27,19.303l-1.504,-1.27c-5.432,-6.434 -9.861,-11.852 -13.622,-20.15c0,-0.084 2.925,1.017 7.856,2.117z" fill="#B9C7E3"/>
    <path d="m63.44,157.934a159.868,159.868 0 0 0 7.188,19.049c-0.334,-0.339 -0.752,-0.593 -1.087,-0.931c-5.432,-6.435 -9.861,-11.853 -13.622,-20.15c0,-0.085 2.842,0.931 7.522,2.032l-0.001,0z" fill="#BBC8E4"/>
    <path d="m63.19,157.85c1.755,5.671 4.011,12.021 7.02,18.71c-0.167,-0.17 -0.418,-0.34 -0.585,-0.508c-5.432,-6.435 -9.861,-11.853 -13.622,-20.15c-0.084,-0.085 2.674,0.931 7.187,1.947l0,0.001z" fill="#BBC8E4"/>
    <path d="m62.94,157.764a170.83,170.83 0 0 0 6.769,18.372l-0.168,-0.17c-5.432,-6.433 -9.861,-11.852 -13.622,-20.149c0,0 2.591,0.931 7.02,1.947l0.001,0z" fill="#BAC6E3"/>
    <path d="m62.605,157.764c1.671,5.419 3.76,11.515 6.602,17.949c-5.265,-6.265 -9.61,-11.684 -13.288,-19.811c0,-0.085 2.507,0.846 6.686,1.862z" fill="#BCC7E3"/>
    <path d="m62.354,157.68c1.588,5.249 3.677,11.09 6.268,17.27c-5.014,-6.01 -9.193,-11.26 -12.703,-19.133c0,0 2.424,0.847 6.435,1.863z" fill="#BCC7E3"/>
    <path d="m62.104,157.595c1.504,5.08 3.51,10.752 6.017,16.679c-4.764,-5.673 -8.775,-10.922 -12.202,-18.457c0,0 2.257,0.847 6.185,1.778z" fill="#BEC8E3"/>
    <path d="m61.77,157.51c1.504,4.91 3.342,10.33 5.766,16.086c-4.513,-5.418 -8.357,-10.583 -11.617,-17.779c0,0 2.173,0.762 5.85,1.693l0.001,0z" fill="#BDC6E2"/>
    <path d="m61.519,157.426c1.42,4.74 3.259,9.99 5.515,15.578c-4.345,-5.25 -7.939,-10.16 -11.115,-17.187c0,0 2.09,0.762 5.6,1.609z" fill="#BFC7E2"/>
    <path d="m134.81,86.733c-8.941,5.503 -19.806,14.985 -27.327,30.817c-2.006,-21.843 4.513,-39.368 4.513,-39.368a46.748,46.748 0 0 1 4.178,-7.959c5.432,-4.487 11.951,-8.89 19.472,-12.7c-2.172,8.467 -3.259,18.542 -0.835,29.21l-0.001,0z" fill="#E8E33A"/>
    <path d="m134.81,86.479c-8.941,5.503 -19.806,14.9 -27.327,30.647c-1.839,-21.589 4.513,-38.944 4.513,-38.944c1.337,-3.133 2.758,-5.842 4.345,-8.213c5.433,-4.487 11.868,-8.805 19.389,-12.53c-2.256,8.467 -3.343,18.457 -0.92,29.04z" fill="#EAE439"/>
    <path d="m134.727,86.31c-8.942,5.502 -19.806,14.815 -27.328,30.478c-1.755,-21.42 4.513,-38.522 4.513,-38.522a46.519,46.519 0 0 1 4.513,-8.466c5.432,-4.402 11.784,-8.72 19.221,-12.445c-2.089,8.381 -3.259,18.287 -0.919,28.954l0,0.001z" fill="#EAE439"/>
    <path d="m134.644,86.055c-8.859,5.503 -19.723,14.816 -27.245,30.31c-1.588,-21.25 4.597,-38.099 4.597,-38.099c1.42,-3.386 3.008,-6.265 4.763,-8.72c5.349,-4.402 11.7,-8.636 19.055,-12.276c-2.257,8.297 -3.343,18.202 -1.17,28.785z" fill="#EAE439"/>
    <path d="m134.644,85.886c-8.859,5.418 -19.64,14.731 -27.245,30.055c-1.504,-21.08 4.597,-37.675 4.597,-37.675c1.42,-3.556 3.092,-6.519 4.93,-8.974c5.349,-4.318 11.617,-8.55 18.971,-12.107c-2.34,8.213 -3.426,18.118 -1.253,28.7l0,0.001z" fill="#EAE439"/>
    <path d="m134.56,85.632c-8.859,5.418 -19.64,14.647 -27.244,29.886c-1.421,-20.827 4.68,-37.252 4.68,-37.252c1.504,-3.64 3.259,-6.688 5.098,-9.228c5.265,-4.233 11.532,-8.382 18.803,-12.022c-2.34,8.297 -3.426,18.118 -1.337,28.616z" fill="#EAE439"/>
    <path d="m134.56,85.378c-8.859,5.418 -19.556,14.562 -27.244,29.716c-1.337,-20.657 4.68,-36.828 4.68,-36.828c1.588,-3.725 3.343,-6.857 5.265,-9.482c5.265,-4.233 11.449,-8.297 18.636,-11.853c-2.256,8.213 -3.426,17.949 -1.337,28.447z" fill="#EAE439"/>
    <path d="m134.476,85.209c-8.858,5.333 -19.555,14.477 -27.244,29.462c-1.17,-20.488 4.68,-36.49 4.68,-36.49a45.486,45.486 0 0 1 5.432,-9.736c5.265,-4.148 11.366,-8.212 18.386,-11.683l0,0.085c-2.09,8.212 -3.26,17.948 -1.254,28.362z" fill="#EAE439"/>
    <path d="m134.476,84.955c-8.775,5.333 -19.472,14.392 -27.16,29.293c-1.087,-20.235 4.68,-36.066 4.68,-36.066c1.671,-3.98 3.593,-7.281 5.683,-9.99c5.181,-4.064 11.198,-8.044 18.135,-11.43c0.083,0 0.167,0.085 0.167,0.17c-2.34,8.042 -3.51,17.694 -1.505,28.023z" fill="#EAE439"/>
    <path d="m134.393,84.7c-8.775,5.334 -19.472,14.309 -27.16,29.125c-1.004,-20.065 4.763,-35.643 4.763,-35.643c1.755,-4.149 3.76,-7.535 5.85,-10.33c5.098,-3.978 10.948,-7.873 17.717,-11.26c0.167,0 0.25,0.085 0.25,0.17c-2.172,8.212 -3.342,17.694 -1.42,27.939l0,-0.001z" fill="#ECE53D"/>
    <path d="m134.393,84.531c-8.775,5.334 -19.389,14.224 -27.16,28.87c-0.92,-19.81 4.763,-35.22 4.763,-35.22a44.293,44.293 0 0 1 6.1,-10.582c5.015,-3.895 10.781,-7.62 17.383,-11.006c0.335,0 0.418,0.084 0.418,0.169c-2.173,8.128 -3.343,17.61 -1.504,27.77l0,-0.001z" fill="#ECE53D"/>
    <path d="m134.31,84.277c-8.692,5.25 -19.306,14.139 -27.161,28.7c-0.753,-19.64 4.763,-34.795 4.763,-34.795c1.839,-4.403 4.012,-7.959 6.352,-10.837a102.91,102.91 0 0 1 16.965,-10.668c0.417,0 0.668,0.085 0.585,0.17c-2.09,7.958 -3.26,17.355 -1.505,27.43l0.001,0z" fill="#ECE53D"/>
    <path d="m134.31,84.023c-8.692,5.25 -19.306,14.054 -27.078,28.532c-0.668,-19.473 4.764,-34.373 4.764,-34.373c1.922,-4.572 4.178,-8.213 6.518,-11.091c4.764,-3.64 10.28,-7.281 16.547,-10.414c0.585,0 0.836,0.085 0.836,0.17c-2.173,7.958 -3.343,17.186 -1.588,27.176l0.001,0z" fill="#ECE53D"/>
    <path d="m134.226,83.854c-8.692,5.25 -19.222,14.054 -27.077,28.362c-0.585,-19.218 4.847,-33.95 4.847,-33.95a44.004,44.004 0 0 1 6.769,-11.43c4.68,-3.555 10.029,-7.026 16.046,-10.074c0.668,-0.085 1.086,0 1.086,0.17c-2.173,7.788 -3.343,17.016 -1.671,26.922z" fill="#ECE53D"/>
    <path d="m134.226,83.6c-8.608,5.164 -19.222,13.97 -27.077,28.108c-0.502,-19.05 4.847,-33.526 4.847,-33.526c2.005,-4.91 4.513,-8.72 7.02,-11.684c4.513,-3.471 9.694,-6.773 15.544,-9.736c0.836,-0.085 1.337,0 1.337,0.17c-2.173,7.704 -3.343,16.847 -1.671,26.668z" fill="#ECE53D"/>
    <path d="m134.142,83.346c-8.608,5.164 -19.138,13.885 -26.993,27.939c-0.418,-18.795 4.847,-33.103 4.847,-33.103c2.089,-5.08 4.68,-8.975 7.27,-12.022a115.812,115.812 0 0 1 15.043,-9.483c1.003,-0.169 1.588,-0.084 1.588,0.085c-2.09,7.789 -3.26,16.848 -1.755,26.584z" fill="#ECE53D"/>
    <path d="m134.142,83.092c-8.608,5.164 -19.054,13.8 -26.993,27.77c-0.335,-18.626 4.847,-32.68 4.847,-32.68c2.173,-5.25 4.847,-9.229 7.605,-12.361c4.262,-3.217 9.109,-6.265 14.458,-9.059c1.17,-0.254 1.922,-0.17 1.838,0.085c-2.09,7.704 -3.26,16.678 -1.755,26.245z" fill="#ECE53D"/>
    <path d="m134.142,82.923c-8.608,5.08 -19.054,13.715 -26.993,27.515c-0.251,-18.372 4.847,-32.256 4.847,-32.256c2.256,-5.419 5.014,-9.567 7.855,-12.615c4.095,-3.048 8.775,-6.011 13.873,-8.72c1.421,-0.339 2.257,-0.254 2.173,0c-2.09,7.62 -3.26,16.509 -1.755,26.076z" fill="#EDE63D"/>
    <path d="m134.059,82.669c-8.525,5.08 -18.971,13.63 -26.91,27.346c-0.168,-18.203 4.847,-31.833 4.847,-31.833c2.34,-5.588 5.181,-9.821 8.19,-12.954c3.928,-2.878 8.357,-5.672 13.204,-8.297c1.588,-0.423 2.59,-0.338 2.507,-0.084c-2.09,7.535 -3.26,16.34 -1.838,25.822z" fill="#EDE640"/>
    <path d="m134.059,82.415c-8.525,5.08 -18.971,13.546 -26.91,27.176c-0.084,-17.948 4.847,-31.41 4.847,-31.41c2.423,-5.841 5.432,-10.159 8.524,-13.291c3.76,-2.71 7.94,-5.419 12.536,-7.874c1.838,-0.508 2.925,-0.423 2.841,-0.17c-2.09,7.536 -3.176,16.256 -1.838,25.569z" fill="#EDE640"/>
    <path d="m133.975,82.245c-8.44,5.08 -18.887,13.462 -26.91,26.923c0,-17.779 4.847,-30.902 4.847,-30.902c2.507,-6.01 5.683,-10.413 8.859,-13.63c3.593,-2.54 7.521,-5.08 11.867,-7.45c2.006,-0.593 3.26,-0.593 3.26,-0.255c-2.007,7.366 -3.177,16.002 -1.923,25.314z" fill="#EDE640"/>
    <path d="m133.975,81.991c-8.44,4.996 -18.804,13.377 -26.826,26.754c0.083,-17.525 4.847,-30.479 4.847,-30.479c2.59,-6.265 5.933,-10.837 9.193,-14.054c3.342,-2.37 7.02,-4.74 11.031,-6.942c2.256,-0.677 3.677,-0.677 3.677,-0.423c-2.006,7.365 -3.176,15.916 -1.922,25.144z" fill="#EDE640"/>
    <path d="m133.975,81.737c-8.44,4.996 -18.804,13.292 -26.826,26.584c0.167,-17.355 4.847,-30.055 4.847,-30.055c2.674,-6.519 6.184,-11.175 9.61,-14.392a142.821,142.821 0 0 1 10.196,-6.435c2.507,-0.846 4.179,-0.846 4.095,-0.592c-2.006,7.28 -3.176,15.832 -1.922,24.89z" fill="#EDE640"/>
    <path d="m133.891,81.483c-8.357,4.996 -18.72,13.208 -26.742,26.33c0.25,-17.101 4.847,-29.631 4.847,-29.631c2.841,-6.773 6.435,-11.515 10.028,-14.816c2.842,-2.032 5.934,-3.98 9.277,-5.842c2.758,-1.016 4.68,-1.016 4.596,-0.762c-2.006,7.366 -3.176,15.747 -2.006,24.721z" fill="#EDE640"/>
    <path d="m133.891,81.314c-8.357,4.995 -18.636,13.123 -26.742,26.16c0.25,-16.847 4.847,-29.208 4.847,-29.208c2.925,-7.111 6.853,-12.022 10.53,-15.324a125.042,125.042 0 0 1 8.19,-5.164c3.092,-1.27 5.181,-1.27 5.098,-0.931c-1.923,7.196 -3.009,15.493 -1.923,24.467z" fill="#EDE644"/>
    <path d="m133.891,81.06c-8.357,4.91 -18.636,13.038 -26.742,25.992c0.334,-16.679 4.847,-28.786 4.847,-28.786c3.092,-7.45 7.187,-12.53 11.115,-15.747c2.173,-1.524 4.513,-2.963 7.02,-4.402c3.426,-1.524 5.85,-1.609 5.766,-1.186c-1.922,7.027 -3.092,15.24 -2.006,24.13l0,-0.001z" fill="#EFE744"/>
    <path d="m133.808,80.806c-8.274,4.91 -18.553,13.038 -26.66,25.822c0.418,-16.424 4.848,-28.362 4.848,-28.362c3.259,-7.958 7.688,-13.122 11.867,-16.34c1.755,-1.185 3.593,-2.286 5.516,-3.47c3.844,-1.863 6.602,-1.948 6.518,-1.525c-1.922,6.943 -3.092,15.155 -2.09,23.875l0.001,0z" fill="#EFE744"/>
    <path d="m133.808,80.552c-8.274,4.91 -18.47,12.954 -26.66,25.568c0.502,-16.255 4.848,-27.938 4.848,-27.938c3.593,-8.551 8.44,-13.885 12.87,-17.102c1.086,-0.678 2.256,-1.44 3.426,-2.117c4.43,-2.37 7.689,-2.54 7.605,-2.116c-1.922,7.027 -3.092,15.07 -2.09,23.705l0.001,0z" fill="#EFE744"/>
    <path d="m133.808,80.298a79.43,79.43 0 0 0 -26.576,25.399c0.585,-16.001 4.764,-27.515 4.764,-27.515c8.357,-20.235 24.068,-22.267 23.901,-21.335c-1.922,6.942 -3.008,14.9 -2.09,23.451l0.001,0z" fill="#EFE847"/>
    <path d="m133.724,80.129c-8.19,4.826 -18.385,12.784 -26.575,25.23c0.585,-15.748 4.763,-27.093 4.763,-27.093c8.44,-20.319 24.152,-22.35 23.985,-21.42c-1.922,6.858 -3.008,14.817 -2.173,23.283z" fill="#F1E847"/>
    <path d="m133.724,79.875c-8.19,4.826 -18.302,12.7 -26.492,25.06c0.669,-15.578 4.764,-26.669 4.764,-26.669c8.357,-20.319 24.068,-22.35 23.901,-21.42c-1.838,6.774 -3.008,14.647 -2.173,23.029z" fill="#F1E847"/>
    <path d="m133.724,79.62c-8.106,4.742 -18.302,12.616 -26.492,24.807c0.752,-15.324 4.764,-26.245 4.764,-26.245c8.357,-20.235 24.068,-22.267 23.901,-21.335c-1.838,6.773 -3.008,14.477 -2.173,22.774l0,-0.001z" fill="#F1E84A"/>
    <path d="m133.64,79.367c-8.106,4.741 -18.218,12.53 -26.408,24.637c0.752,-15.07 4.764,-25.822 4.764,-25.822c8.357,-20.235 24.068,-22.267 23.901,-21.335c-1.838,6.688 -2.925,14.308 -2.256,22.52l-0.001,0z" fill="#F1E84A"/>
    <path d="m133.64,79.113c-8.106,4.741 -18.134,12.445 -26.324,24.467c0.835,-14.9 4.68,-25.398 4.68,-25.398c8.357,-20.235 24.068,-22.267 23.901,-21.335c-1.838,6.603 -2.925,14.223 -2.256,22.266l-0.001,0z" fill="#F1E84A"/>
    <path d="m133.64,78.944c-8.022,4.74 -18.05,12.36 -26.324,24.298c0.919,-14.647 4.68,-24.976 4.68,-24.976c8.357,-20.319 24.068,-22.35 23.901,-21.42c-1.838,6.52 -2.925,14.055 -2.256,22.098l-0.001,0z" fill="#F1E84D"/>
    <path d="m133.64,78.69c-8.022,4.656 -18.05,12.276 -26.324,24.128c0.919,-14.392 4.68,-24.552 4.68,-24.552c8.357,-20.319 24.068,-22.35 23.901,-21.42c-1.755,6.52 -2.925,13.885 -2.256,21.844l-0.001,0z" fill="#F1E84D"/>
    <path d="m133.64,78.436c-8.022,4.656 -17.967,12.191 -26.324,23.874c1.003,-14.223 4.596,-24.128 4.596,-24.128c8.44,-20.235 24.152,-22.267 23.985,-21.335c-1.755,6.434 -2.841,13.715 -2.256,21.589l-0.001,0z" fill="#F1E950"/>
    <path d="m133.557,78.182c-7.94,4.656 -17.884,12.106 -26.241,23.705c1.003,-13.97 4.596,-23.705 4.596,-23.705c8.44,-20.235 24.152,-22.267 23.985,-21.335c-1.755,6.35 -2.841,13.63 -2.34,21.335z" fill="#F1E950"/>
    <path d="m133.557,77.928c-7.94,4.571 -17.884,12.022 -26.158,23.536c1.087,-13.716 4.597,-23.282 4.597,-23.282c8.357,-20.235 24.068,-22.267 23.901,-21.335c-1.755,6.265 -2.841,13.461 -2.34,21.08l0,0.001z" fill="#F1E952"/>
    <path d="m133.557,77.758c-7.856,4.572 -17.8,11.938 -26.074,23.367c1.086,-13.546 4.513,-22.859 4.513,-22.859c8.357,-20.319 24.068,-22.35 23.901,-21.42a63.955,63.955 0 0 0 -2.34,20.912z" fill="#F1E952"/>
    <path d="m133.557,77.504c-7.856,4.572 -17.717,11.853 -26.074,23.198c1.086,-13.292 4.513,-22.436 4.513,-22.436c8.357,-20.319 24.068,-22.35 23.901,-21.42c-1.671,6.181 -2.758,13.123 -2.34,20.658z" fill="#F1E955"/>
    <path d="m133.557,77.25c-7.856,4.487 -17.633,11.853 -25.99,23.029c1.17,-13.039 4.429,-22.013 4.429,-22.013c8.357,-20.319 24.068,-22.35 23.901,-21.42c-1.671,6.096 -2.758,12.954 -2.34,20.404z" fill="#F1E955"/>
    <path d="m133.557,76.996c-7.772,4.487 -17.633,11.768 -25.99,22.775c1.17,-12.87 4.429,-21.59 4.429,-21.59c8.357,-20.234 24.068,-22.266 23.901,-21.334c-1.671,6.01 -2.758,12.868 -2.34,20.15l0,-0.001z" fill="#F2EA57"/>
    <path d="m133.474,76.742c-7.773,4.487 -17.55,11.684 -25.908,22.605c1.254,-12.614 4.346,-21.165 4.346,-21.165c8.44,-20.235 24.152,-22.267 23.985,-21.335c-1.671,5.926 -2.674,12.699 -2.423,19.895z" fill="#F2EA57"/>
    <path d="m133.474,76.488c-7.689,4.487 -17.467,11.6 -25.824,22.436c1.254,-12.36 4.346,-20.742 4.346,-20.742c8.357,-20.235 24.068,-22.267 23.901,-21.335c-1.588,5.926 -2.674,12.53 -2.423,19.641z" fill="#F2EA5A"/>
    <path d="m133.474,76.234c-7.689,4.403 -17.383,11.514 -25.824,22.267c1.254,-12.107 4.262,-20.32 4.262,-20.32c8.44,-20.234 24.152,-22.266 23.985,-21.334c-1.588,5.841 -2.674,12.36 -2.423,19.387z" fill="#F2EA5C"/>
    <path d="m133.474,75.98c-7.689,4.403 -17.383,11.43 -25.74,22.097c1.337,-11.937 4.262,-19.895 4.262,-19.895c8.357,-20.235 24.068,-22.267 23.901,-21.335c-1.588,5.757 -2.59,12.191 -2.423,19.133z" fill="#F2EA5C"/>
    <path d="m133.474,75.811c-7.605,4.402 -17.3,11.345 -25.657,21.928c1.337,-11.684 4.179,-19.473 4.179,-19.473c8.357,-20.319 24.068,-22.35 23.901,-21.42c-1.588,5.673 -2.59,12.107 -2.423,18.965z" fill="#F2EA5F"/>
    <path d="m133.474,75.557c-7.605,4.318 -17.216,11.26 -25.657,21.758c1.337,-11.43 4.179,-19.049 4.179,-19.049c8.357,-20.319 24.068,-22.35 23.901,-21.42c-1.588,5.588 -2.59,11.938 -2.423,18.711z" fill="#F2EA61"/>
    <path d="m133.474,75.303c-7.605,4.318 -17.216,11.176 -25.573,21.589c1.337,-11.175 4.095,-18.626 4.095,-18.626c8.357,-20.319 24.068,-22.35 23.901,-21.42c-1.504,5.588 -2.59,11.769 -2.423,18.457z" fill="#F4EB63"/>
    <path d="m133.474,75.05c-7.522,4.317 -17.133,11.09 -25.49,21.419c1.421,-11.006 4.012,-18.203 4.012,-18.203c8.357,-20.319 24.068,-22.35 23.901,-21.42c-1.504,5.504 -2.507,11.6 -2.423,18.203l0,0.001z" fill="#F4EC65"/>
    <path d="m133.474,74.795c-7.522,4.233 -17.049,11.006 -25.49,21.25c1.421,-10.752 4.012,-17.779 4.012,-17.779c8.357,-20.319 24.068,-22.35 23.901,-21.42c-1.504,5.419 -2.507,11.43 -2.423,17.95l0,-0.001z" fill="#F4EC6A"/>
    <path d="m133.474,74.541c-7.438,4.233 -16.965,11.006 -25.406,21.081c1.42,-10.498 3.928,-17.44 3.928,-17.44c8.357,-20.235 24.068,-22.267 23.901,-21.335c-1.504,5.333 -2.507,11.344 -2.423,17.694z" fill="#F4EC6C"/>
    <path d="m133.474,74.287c-7.438,4.233 -16.882,10.923 -25.324,20.913c1.421,-10.244 3.845,-17.017 3.845,-17.017c8.357,-20.235 24.068,-22.267 23.901,-21.335c-1.42,5.249 -2.423,11.175 -2.423,17.44l0.001,-0.001z" fill="#F4EC6C"/>
    <path d="m133.474,74.033c-7.438,4.149 -16.882,10.837 -25.323,20.742c1.421,-10.074 3.845,-16.593 3.845,-16.593c8.357,-20.235 24.068,-22.267 23.901,-21.335c-1.42,5.164 -2.423,11.006 -2.423,17.186z" fill="#F4EC70"/>
    <path d="m133.474,73.78c-7.355,4.148 -16.798,10.751 -25.239,20.572c1.42,-9.82 3.76,-16.17 3.76,-16.17c8.358,-20.235 24.07,-22.267 23.902,-21.335c-1.42,5.164 -2.423,10.836 -2.423,16.932l0,0.001z" fill="#F4EC70"/>
    <path d="m133.474,73.525c-7.355,4.149 -16.715,10.668 -25.155,20.404c1.42,-9.567 3.677,-15.747 3.677,-15.747c8.357,-20.235 24.068,-22.267 23.901,-21.335a65.182,65.182 0 0 0 -2.423,16.678z" fill="#F4ED74"/>
    <path d="m133.474,73.271c-7.271,4.064 -16.631,10.583 -25.155,20.235c1.42,-9.313 3.677,-15.324 3.677,-15.324c8.357,-20.235 24.068,-22.267 23.901,-21.335a63.19,63.19 0 0 0 -2.423,16.424z" fill="#F6EE76"/>
    <path d="m133.474,73.017c-7.271,4.064 -16.631,10.498 -25.072,20.065c1.42,-9.059 3.594,-14.9 3.594,-14.9c8.357,-20.235 24.068,-22.267 23.901,-21.335c-1.337,4.91 -2.34,10.413 -2.423,16.17z" fill="#F6EE78"/>
    <path d="m133.474,72.763c-7.271,4.064 -16.548,10.498 -24.988,19.98c1.42,-8.889 3.51,-14.477 3.51,-14.477c8.357,-20.319 24.068,-22.35 23.901,-21.42c-1.337,4.826 -2.256,10.245 -2.423,15.917z" fill="#F6EE7A"/>
    <path d="m133.474,72.51c-7.188,4.063 -16.464,10.413 -24.988,19.81c1.42,-8.635 3.426,-14.054 3.426,-14.054c8.44,-20.319 24.152,-22.35 23.985,-21.42a65.302,65.302 0 0 0 -2.423,15.663l0,0.001z" fill="#F6EE7C"/>
    <path d="m133.474,72.255c-7.188,3.98 -16.38,10.329 -24.905,19.642c1.421,-8.382 3.343,-13.715 3.343,-13.715c8.44,-20.235 24.152,-22.267 23.985,-21.335c-1.337,4.74 -2.256,9.905 -2.423,15.408z" fill="#F6EE80"/>
    <path d="m133.474,72.001c-7.104,3.98 -16.38,10.244 -24.821,19.473c1.42,-8.128 3.343,-13.292 3.343,-13.292c8.357,-20.235 24.068,-22.267 23.901,-21.335c-1.253,4.656 -2.173,9.736 -2.423,15.154z" fill="#F7F082"/>
    <path d="m133.474,71.747c-7.104,3.98 -16.297,10.16 -24.738,19.303c1.421,-7.873 3.26,-12.868 3.26,-12.868c8.357,-20.235 24.068,-22.267 23.901,-21.335c-1.253,4.571 -2.173,9.566 -2.423,14.9z" fill="#F7F082"/>
    <path d="m133.474,71.493c-7.02,3.98 -16.13,10.075 -24.654,19.134c1.42,-7.704 3.176,-12.445 3.176,-12.445c8.357,-20.235 24.068,-22.267 23.901,-21.335c-1.253,4.487 -2.173,9.397 -2.423,14.646z" fill="#F7F086"/>
    <path d="m133.557,71.24c-7.02,3.894 -16.13,9.99 -24.653,18.964c1.42,-7.45 3.092,-12.022 3.092,-12.022c8.357,-20.235 24.068,-22.267 23.901,-21.335a63.878,63.878 0 0 0 -2.34,14.392l0,0.001z" fill="#F7F088"/>
    <path d="m133.557,70.985c-7.02,3.895 -16.13,9.99 -24.57,18.88c1.337,-7.196 3.009,-11.683 3.009,-11.683c8.357,-20.235 24.068,-22.267 23.901,-21.335c-1.17,4.317 -2.09,9.143 -2.34,14.138z" fill="#F7F08A"/>
    <path d="m133.557,70.731c-6.936,3.895 -16.046,9.906 -24.486,18.71c1.337,-6.942 2.925,-11.26 2.925,-11.26c8.357,-20.234 24.068,-22.266 23.901,-21.334c-1.17,4.233 -2.09,8.974 -2.34,13.884z" fill="#F7F08C"/>
    <path d="m133.557,70.477c-6.936,3.81 -15.962,9.821 -24.403,18.541c1.337,-6.688 2.842,-10.836 2.842,-10.836c8.357,-20.235 24.068,-22.267 23.901,-21.335a69.14,69.14 0 0 0 -2.34,13.63z" fill="#F7F18E"/>
    <path d="m133.557,70.223c-6.853,3.81 -15.878,9.737 -24.403,18.372c1.337,-6.519 2.758,-10.413 2.758,-10.413c8.44,-20.235 24.152,-22.267 23.985,-21.335a66.565,66.565 0 0 0 -2.34,13.376z" fill="#F7F190"/>
    <path d="m133.64,69.97c-6.852,3.81 -15.878,9.65 -24.319,18.286c1.254,-6.265 2.675,-9.99 2.675,-9.99c8.357,-20.319 24.068,-22.35 23.901,-21.42c-1.086,4.064 -2.006,8.467 -2.256,13.123l-0.001,0.001z" fill="#F7F193"/>
    <path d="m133.64,69.715c-6.769,3.725 -15.71,9.567 -24.235,18.118c1.254,-6.01 2.59,-9.651 2.59,-9.651c8.358,-20.235 24.07,-22.267 23.902,-21.335c-1.086,3.979 -1.922,8.297 -2.256,12.868l-0.001,0z" fill="#F7F195"/>
    <path d="m133.64,69.461c-6.769,3.726 -15.71,9.567 -24.151,17.949c1.253,-5.757 2.507,-9.228 2.507,-9.228c8.357,-20.235 24.068,-22.267 23.901,-21.335c-1.086,3.894 -1.922,8.127 -2.256,12.614l-0.001,0z" fill="#F7F197"/>
    <path d="m133.64,69.207c-6.769,3.726 -15.627,9.483 -24.151,17.864c1.253,-5.503 2.423,-8.805 2.423,-8.805c8.44,-20.319 24.152,-22.35 23.985,-21.42c-1.086,3.81 -1.838,7.959 -2.256,12.361l-0.001,0z" fill="#F9F299"/>
    <path d="m133.724,68.953c-6.685,3.64 -15.544,9.398 -24.068,17.695c1.17,-5.25 2.34,-8.382 2.34,-8.382c8.357,-20.319 24.068,-22.35 23.901,-21.42c-1.003,3.726 -1.838,7.79 -2.173,12.107z" fill="#F9F39D"/>
    <path d="m133.724,68.7c-6.685,3.64 -15.46,9.312 -23.985,17.525c1.17,-4.996 2.257,-8.043 2.257,-8.043c8.357,-20.235 24.068,-22.267 23.901,-21.335c-1.003,3.64 -1.838,7.62 -2.173,11.852l0,0.001z" fill="#F9F39F"/>
    <path d="m133.724,68.445c-6.602,3.64 -15.46,9.229 -23.901,17.44c1.086,-4.825 2.173,-7.619 2.173,-7.619c8.357,-20.319 24.068,-22.35 23.901,-21.42a69.515,69.515 0 0 0 -2.173,11.6l0,-0.001z" fill="#F9F3A1"/>
    <path d="m133.724,68.191c-6.602,3.556 -15.377,9.229 -23.818,17.272c1.087,-4.572 2.09,-7.197 2.09,-7.197c8.357,-20.319 24.068,-22.35 23.901,-21.42a66.453,66.453 0 0 0 -2.173,11.345z" fill="#F9F3A3"/>
    <path d="m133.808,67.937c-6.602,3.472 -15.294,9.06 -23.818,17.102c1.003,-4.318 2.006,-6.857 2.006,-6.857c8.357,-20.235 24.068,-22.267 23.901,-21.335c-0.92,3.47 -1.671,7.111 -2.09,11.09l0.001,0z" fill="#F9F3A5"/>
    <path d="m133.808,67.599c-6.519,3.556 -15.21,9.059 -23.734,17.017c1.002,-4.064 1.838,-6.434 1.838,-6.434c8.44,-20.235 24.152,-22.267 23.985,-21.335c-0.92,3.386 -1.671,6.942 -2.09,10.752l0.001,0z" fill="#F9F4A7"/>
    <path d="m133.808,67.345c-6.435,3.471 -15.127,8.974 -23.65,16.848c0.918,-3.81 1.754,-6.011 1.754,-6.011c8.44,-20.235 24.152,-22.267 23.985,-21.335c-0.92,3.301 -1.671,6.773 -2.09,10.498l0.001,0z" fill="#F9F4A9"/>
    <path d="m133.891,67.09c-6.435,3.472 -15.126,8.975 -23.567,16.764c0.92,-3.556 1.672,-5.588 1.672,-5.588c8.357,-20.319 24.068,-22.35 23.901,-21.42c-0.92,3.218 -1.588,6.604 -2.006,10.245l0,-0.001z" fill="#F9F4AB"/>
    <path d="m133.891,66.837c-6.435,3.471 -15.042,8.89 -23.483,16.594c0.836,-3.302 1.588,-5.25 1.588,-5.25c8.357,-20.234 24.068,-22.266 23.901,-21.334c-0.836,3.132 -1.588,6.519 -2.006,9.99z" fill="#F9F4AD"/>
    <path d="m133.975,66.583c-6.351,3.386 -14.96,8.805 -23.4,16.509c0.836,-3.048 1.504,-4.826 1.504,-4.826c8.274,-20.319 23.985,-22.35 23.818,-21.42a69.1,69.1 0 0 0 -1.922,9.737z" fill="#F8F3AF"/>
    <path d="m133.975,66.329c-6.351,3.386 -14.876,8.72 -23.316,16.34c0.752,-2.794 1.337,-4.403 1.337,-4.403c8.357,-20.319 24.068,-22.35 23.901,-21.42a65.505,65.505 0 0 0 -1.922,9.483z" fill="#F8F3B1"/>
    <path d="m133.975,66.075c-6.268,3.386 -14.792,8.635 -23.316,16.255c0.752,-2.624 1.253,-4.064 1.253,-4.064c8.44,-20.319 24.152,-22.35 23.985,-21.42c-0.836,2.88 -1.42,6.012 -1.922,9.229z" fill="#F8F4B3"/>
    <path d="m134.059,65.736c-6.268,3.387 -14.709,8.636 -23.233,16.086c0.668,-2.37 1.17,-3.64 1.17,-3.64c8.357,-20.235 24.068,-22.267 23.901,-21.335c-0.752,2.793 -1.42,5.841 -1.838,8.89l0,-0.001z" fill="#F8F4B5"/>
    <path d="m134.059,65.482c-6.185,3.302 -14.709,8.551 -23.15,16.001c0.585,-2.116 1.003,-3.217 1.003,-3.217c8.44,-20.319 24.152,-22.35 23.985,-21.42c-0.752,2.71 -1.42,5.673 -1.838,8.636z" fill="#F8F4B7"/>
    <path d="m134.142,65.228c-6.184,3.302 -14.625,8.466 -23.066,15.832c0.502,-1.862 0.92,-2.878 0.92,-2.878c8.357,-20.235 24.068,-22.267 23.901,-21.335c-0.752,2.624 -1.337,5.418 -1.755,8.381z" fill="#F8F4B9"/>
    <path d="m134.142,64.974c-6.1,3.302 -14.541,8.382 -22.982,15.747c0.501,-1.608 0.836,-2.455 0.836,-2.455c8.357,-20.319 24.068,-22.35 23.901,-21.42c-0.752,2.54 -1.337,5.25 -1.755,8.128z" fill="#F8F4BB"/>
    <path d="m134.226,64.72c-6.101,3.217 -14.458,8.382 -22.899,15.578c0.418,-1.354 0.669,-2.032 0.669,-2.032c8.357,-20.319 24.068,-22.35 23.901,-21.42a68.447,68.447 0 0 0 -1.671,7.874z" fill="#F8F5BD"/>
    <path d="m134.226,64.466c-6.017,3.217 -14.375,8.297 -22.815,15.494c0.334,-1.101 0.585,-1.694 0.585,-1.694c8.357,-20.319 24.068,-22.35 23.901,-21.42a63.911,63.911 0 0 0 -1.671,7.62z" fill="#F8F5BF"/>
    <path d="m134.31,64.128c-6.018,3.217 -14.291,8.212 -22.732,15.324c0.25,-0.847 0.418,-1.27 0.418,-1.27c8.357,-20.235 24.068,-22.267 23.901,-21.335c-0.668,2.37 -1.17,4.74 -1.588,7.28l0.001,0.001z" fill="#F8F5C1"/>
    <path d="m134.31,63.874c-5.934,3.132 -14.208,8.127 -22.649,15.239c0.168,-0.593 0.335,-0.847 0.335,-0.847c8.357,-20.319 24.068,-22.35 23.901,-21.42c-0.668,2.287 -1.17,4.572 -1.588,7.028l0.001,0z" fill="#FAF6C4"/>
    <path d="m134.393,63.62c-5.934,3.132 -14.124,8.127 -22.564,15.07c0.083,-0.34 0.167,-0.508 0.167,-0.508c8.357,-20.235 24.068,-22.267 23.901,-21.335a80.298,80.298 0 0 0 -1.504,6.773z" fill="#FAF6C6"/>
    <path d="m134.393,63.366c-5.85,3.132 -14.04,8.043 -22.48,14.985l0,-0.085c8.44,-20.319 24.151,-22.35 23.984,-21.42a74.276,74.276 0 0 0 -1.504,6.52z" fill="#FAF7CA"/>
    <path d="m134.476,63.027c-5.85,3.048 -13.956,7.958 -22.313,14.816c8.44,-19.98 23.901,-21.928 23.734,-20.996c-0.585,2.032 -1.003,4.063 -1.42,6.18l-0.001,0z" fill="#FAF7CC"/>
    <path d="m134.56,62.773c-5.766,3.048 -13.873,7.874 -22.23,14.647c8.44,-19.557 23.734,-21.505 23.567,-20.573c-0.501,1.947 -1.003,3.894 -1.337,5.926z" fill="#FBF8CE"/>
    <path d="m134.56,62.519c-5.683,2.963 -13.706,7.789 -22.063,14.477c8.524,-19.133 23.567,-21.08 23.4,-20.15c-0.501,1.863 -0.92,3.726 -1.337,5.673z" fill="#FBF8D0"/>
    <path d="m134.644,62.265c-5.683,2.963 -13.623,7.704 -21.896,14.308c8.524,-18.795 23.316,-20.658 23.15,-19.726a56.705,56.705 0 0 0 -1.254,5.418z" fill="#FBF8D2"/>
    <path d="m134.644,61.926a145.335,145.335 0 0 0 -21.729,14.139c8.608,-18.287 23.15,-20.15 22.982,-19.218c-0.501,1.693 -0.836,3.386 -1.253,5.08l0,-0.001z" fill="#FCF8D4"/>
    <path d="m134.727,61.672c-5.516,2.879 -13.371,7.535 -21.645,13.97c8.692,-17.864 22.982,-19.727 22.815,-18.795c-0.418,1.608 -0.836,3.217 -1.17,4.825z" fill="#FCF9D6"/>
    <path d="m196,126.286l39.188,0l0,7.077l-31.132,0l0,15.672l22.07,0l0,7.077l-22.07,0l0,19.21l31.132,0l0,7.077l-39.188,0l0,-56.113zm345.308,22.664l2.265,-6.656s-4.699,-1.853 -15.104,-1.853c-10.322,0 -15.524,4.465 -15.524,13.228c0,8.762 8.643,11.374 14.936,11.374c6.294,0 9.315,2.864 9.315,6.319c0,3.454 -2.77,5.898 -9.315,5.898c-6.629,0 -12.335,-2.275 -12.335,-2.275l-2.014,6.487s6.713,2.022 15.776,2.022c9.063,0 15.692,-4.044 15.692,-12.385c0,-8.341 -4.7,-12.975 -15.524,-12.975c-10.741,0 -11.496,-11.122 -0.755,-11.122c10.908,0.085 12.587,1.938 12.587,1.938zm-34.74,4.466c-0.169,-15.166 -19.217,-15.924 -31.637,-10.869l2.434,5.476c13.007,-4.465 21.146,0.085 21.146,3.876l0,5.814c-5.706,-1.348 -26.265,-5.224 -26.265,9.436l0,6.656s1.175,14.323 26.265,8.089l0,0.59l8.056,-2.444l0,-26.624l0.001,0zm-8.057,9.773c-3.692,-0.758 -18.041,-3.033 -18.041,5.308l0,2.444c0,8.088 11.496,7.077 18.041,4.97l0,-12.721l0,-0.001zm-87.27,-40.189l0,20.305c1.762,-2.022 5.538,-2.949 7.971,-2.949l4.112,0c8.979,0 16.363,7.415 16.363,16.43l0,10.363c0,9.015 -7.384,16.43 -16.363,16.43c-7.888,0 -12.839,-0.169 -20.14,-3.455l0,-53.67l8.056,-3.454l0.001,0zm0,28.478l0,23.422c1.006,1.095 3.608,1.516 6.21,1.516l6.46,0c4.028,0 7.301,-4.044 7.301,-8.93l0,-11.206c0,-4.886 -3.273,-8.93 -7.3,-8.93l-5.707,0c-2.601,0 -5.622,1.685 -6.965,4.128l0.001,0zm34.908,-9.858l8.056,0l0,2.275c0,0.674 3.524,-4.297 14.769,-2.612l0.083,6.909c-5.454,-1.18 -14.852,0 -14.852,3.791l0,30.585l-8.056,0l0,-40.948zm-114.04,0l8.056,0l0,2.275c0,0.674 3.524,-4.297 14.769,-2.612l0.084,6.909c-5.455,-1.18 -14.853,0 -14.853,3.791l0,30.585l-8.056,0l0,-40.948zm-20.643,-10.953l0,10.953l14.35,0l0,7.078l-14.35,0l0,20.22c0,11.29 8.98,7.92 14.014,6.572l1.343,6.404c-10.574,2.696 -23.413,5.055 -23.413,-13.144l0,-34.628l8.056,-3.455zm-34.069,9.605l3.273,0c8.978,0 16.363,7.414 16.363,16.43l0,7.077l-27.524,0l0,3.707c0,4.887 3.273,8.931 7.3,8.931l4.028,0c4.532,0 7.72,-0.421 12.084,-1.6l1.343,6.318c-5.119,1.77 -7.636,2.275 -13.51,2.36l-3.44,0c-8.98,0 -16.364,-7.415 -16.364,-16.43l0,-10.363c0.084,-9.016 7.468,-16.43 16.447,-16.43zm11.245,17.188l0,-1.18c0,-4.886 -3.273,-8.93 -7.301,-8.93l-4.448,0c-4.027,0 -7.3,4.044 -7.3,8.93l0,1.18l19.049,0zm86.012,-17.188l5.286,0c8.98,0 16.364,7.414 16.364,16.43l0,10.363c0,9.015 -7.385,16.43 -16.364,16.43l-5.286,0c-8.98,0 -16.364,-7.415 -16.364,-16.43l0,-10.363c0,-9.016 7.301,-16.43 16.364,-16.43zm-0.588,7.077l6.462,0c4.028,0 7.3,4.045 7.3,8.931l0,11.206c0,4.887 -3.272,8.931 -7.3,8.931l-6.462,0c-4.028,0 -7.3,-4.044 -7.3,-8.93l0,-11.207c0,-4.886 3.272,-8.93 7.3,-8.93l0,-0.001zm-123.354,-24.349l0,44.655c0,5.14 1.259,8.004 5.874,10.7l-4.28,5.645c-5.286,-1.685 -9.65,-9.184 -9.65,-16.177l0,-41.369l8.056,-3.454z" fill="#3F8ECA"/>
   </g>
  </svg>