<svg  id="fndm-z3n1mq99q5" viewBox="0 0.1637706756591797 755.6195068359375 486.72119140625" xmlns="http://www.w3.org/2000/svg">
   <g xmlns="http://www.w3.org/2000/svg" fill="none">
    <path d="m105.13,0.654c-2.99,0.748 -4.112,2.15 -4.766,5.794c-0.374,1.869 -1.308,5.046 -2.056,7.102s-1.682,5.607 -2.056,7.943c-0.654,4.018 -1.682,7.943 -9.812,36.912a1089.286,1089.286 0 0 0 -4.205,15.42c-2.15,9.25 -4.205,16.82 -5.7,20.932c-1.028,2.523 -1.776,5.513 -1.776,6.728c0,1.215 -0.841,4.299 -1.869,6.915c-1.028,2.617 -1.869,5.794 -1.869,7.103c0,1.308 -0.467,3.27 -1.121,4.392c-0.561,1.121 -1.402,3.738 -1.776,5.794c-0.374,2.055 -1.495,6.915 -2.616,10.746c-1.122,3.832 -2.43,8.504 -2.804,10.28c-0.467,1.775 -1.775,6.634 -2.897,10.746c-4.205,15.513 -6.728,25.325 -7.476,28.502c-0.374,1.775 -1.401,5.607 -2.242,8.41c-0.935,2.804 -1.963,6.635 -2.43,8.41c-2.804,11.308 -5.046,18.784 -5.7,19.251c-0.468,0.28 -0.842,2.056 -0.842,3.925c-0.093,1.869 -0.84,5.794 -1.869,8.597c-1.027,2.804 -1.775,6.355 -1.869,7.756c0,1.402 -0.56,3.552 -1.308,4.673c-0.747,1.121 -1.869,4.766 -2.43,7.943c-0.56,3.27 -1.495,7.102 -2.055,8.41c-0.841,2.337 -2.617,8.785 -10,37.1c-1.588,6.167 -3.55,13.082 -4.298,15.419c-2.897,8.97 -4.112,13.83 -4.672,17.848c-0.655,4.486 -3.084,12.896 -4.206,14.391c-0.373,0.468 -0.934,2.897 -1.214,5.42c-0.374,2.43 -1.215,5.7 -2.056,7.196c-0.748,1.495 -1.402,3.925 -1.402,5.42c0,1.589 -0.841,4.579 -1.869,6.822c-1.308,2.99 -1.869,6.166 -1.869,11.68c0,10.747 3.364,18.036 11.214,24.671c6.635,5.42 10.28,7.476 13.363,7.476c1.308,0 4.112,0.654 6.261,1.402c3.458,1.215 18.596,1.402 114.194,1.402c68.592,0 110.83,-0.374 111.858,-0.935c0.935,-0.467 2.243,-2.897 2.897,-5.326c0.655,-2.43 1.87,-6.635 2.804,-9.158c2.523,-6.822 4.579,-14.205 5.233,-18.41c0.374,-1.962 1.028,-3.831 1.402,-4.111c1.121,-0.655 1.028,-6.635 -0.094,-7.383c-0.467,-0.28 -48.313,-0.56 -106.25,-0.467c-57.94,0 -106.813,-0.28 -108.495,-0.56c-1.962,-0.375 -3.457,-1.403 -4.018,-2.617c-0.935,-1.963 -0.748,-2.804 3.925,-19.718c1.028,-3.645 2.523,-9.065 3.27,-12.148c0.748,-3.084 2.15,-8.317 3.084,-11.682c0.935,-3.364 2.43,-9.064 3.27,-12.615c0.842,-3.645 2.337,-8.69 3.272,-11.214c2.055,-5.513 4.579,-14.952 5.793,-21.587c0.468,-2.616 1.496,-6.541 2.243,-8.784c0.748,-2.15 1.402,-4.953 1.402,-6.26c0,-1.216 0.748,-4.02 1.775,-6.168c0.935,-2.15 2.056,-5.42 2.43,-7.196c0.374,-1.776 1.215,-4.392 1.87,-5.7c0.747,-1.309 1.588,-5.047 1.962,-8.41c0.28,-3.271 1.027,-6.73 1.401,-7.57c0.467,-0.841 2.336,-7.29 4.112,-14.391c1.869,-7.009 3.738,-13.55 4.299,-14.485c0.467,-0.934 1.308,-3.55 1.775,-5.7c1.495,-6.915 3.551,-14.952 5.7,-22.24c1.028,-3.832 2.337,-8.505 2.71,-10.28c2.15,-9.065 3.458,-13.737 4.486,-15.606c0.654,-1.122 1.121,-2.897 1.121,-4.019c0,-1.027 1.496,-7.102 3.365,-13.363c1.869,-6.26 4.018,-13.924 4.672,-17.007c0.56,-3.084 1.589,-6.916 2.15,-8.41c2.149,-6.075 5.7,-18.877 5.7,-20.653c0,-0.934 0.84,-4.018 1.869,-6.728c1.028,-2.71 1.869,-5.7 1.869,-6.822c0,-1.028 0.56,-3.831 1.308,-6.261c5.513,-18.316 7.102,-23.736 8.037,-28.222c0.654,-2.803 1.962,-7.382 2.896,-10.092c1.028,-2.71 1.776,-5.887 1.776,-7.102c0,-1.121 0.841,-4.58 1.869,-7.57c2.15,-6.354 2.43,-11.307 0.56,-11.96c-1.588,-0.655 -38.687,-0.655 -41.21,0l0,-0.001z" fill="#5D5D5D"/>
    <path d="m216.801,52.331c-0.748,0.468 -2.897,0.935 -4.766,0.935c-4.485,0 -15.045,3.738 -21.867,7.756c-4.485,2.617 -16.167,15.98 -18.41,21.026c-3.177,7.009 -6.354,16.26 -7.849,22.615c-0.654,2.803 -2.056,7.85 -3.177,11.213c-1.122,3.365 -2.336,7.757 -2.804,9.813c-0.373,2.055 -2.056,8.316 -3.55,14.017c-1.59,5.607 -3.365,12.148 -3.926,14.484c-0.56,2.337 -1.495,5.42 -2.055,7.009a181.855,181.855 0 0 0 -2.337,8.317c-0.747,3.084 -1.962,6.728 -2.71,8.13c-0.747,1.402 -1.308,3.831 -1.308,5.233c0,2.336 -1.121,7.009 -5.14,21.306c-1.682,5.981 -6.728,23.456 -7.85,27.1c-0.467,1.496 -1.12,4.486 -1.495,6.542c-0.56,4.018 -2.336,10.28 -4.952,17.755c-1.215,3.551 -1.589,7.663 -1.589,16.821c0.094,10.84 0.374,12.896 2.71,19.157c4.018,11.027 10.373,19.53 19.811,26.352c6.915,5.047 12.055,7.57 20.933,10.093c7.008,1.962 7.57,1.962 89.71,1.589c55.509,-0.187 84.104,-0.655 86.908,-1.309c10.28,-2.523 14.017,-4.018 20.558,-8.504c6.262,-4.205 14.952,-12.241 14.952,-13.83c0,-0.374 1.028,-1.962 2.15,-3.551c3.457,-4.486 7.289,-14.578 8.597,-22.521c0.374,-2.056 2.243,-9.252 4.205,-15.886c2.056,-6.729 4.018,-13.83 4.579,-15.887c4.486,-17.942 6.541,-25.698 7.102,-26.54c0.56,-0.934 4.392,-15.138 7.009,-26.258c0.467,-1.776 1.402,-5.14 2.243,-7.476c0.747,-2.336 1.869,-6.542 2.523,-9.345c1.308,-6.448 3.55,-14.017 4.672,-16.073c0.467,-0.841 1.028,-3.364 1.402,-5.607c0.28,-2.243 1.308,-6.541 2.243,-9.625c4.579,-14.672 6.541,-21.68 6.541,-22.895c0,-0.654 0.374,-2.523 0.841,-4.112c0.841,-2.71 2.99,-10.747 5.794,-21.12c2.523,-9.811 0.28,-24.95 -4.673,-30.277c-0.934,-1.121 -1.962,-2.803 -2.336,-3.831c-0.84,-2.804 -14.204,-10.934 -19.717,-12.055c-6.355,-1.215 -191.103,-1.776 -192.972,-0.56l0,-0.001zm164.096,47.472c3.925,2.99 7.289,10.466 6.635,14.952c-0.748,4.953 -2.243,11.775 -3.925,16.82c-0.748,2.43 -2.43,8.13 -3.738,12.803c-1.308,4.58 -2.99,10.28 -3.738,12.616c-0.654,2.336 -1.495,5.7 -1.869,7.476c-0.374,1.775 -1.028,3.738 -1.495,4.298c-0.467,0.561 -1.308,3.551 -1.87,6.542c-0.934,5.046 -2.335,10.092 -6.26,22.334c-0.841,2.523 -1.776,6.355 -2.15,8.41c-0.373,2.056 -1.401,5.607 -2.149,7.757c-1.402,3.831 -2.803,8.69 -8.69,30.557c-2.71,10 -3.365,12.242 -5.794,19.625c-1.028,3.083 -2.056,6.728 -2.43,8.223c-0.748,3.738 -6.635,9.812 -10.653,11.027c-2.243,0.654 -27.474,0.841 -79.058,0.654c-86.066,-0.28 -79.805,0.28 -84.104,-8.223c-2.71,-5.327 -2.897,-8.504 -0.84,-14.111c1.401,-3.925 3.083,-10.28 5.046,-19.53c0.56,-2.337 1.495,-6.075 2.242,-8.411c1.963,-6.261 6.075,-20.84 8.598,-30.371c5.513,-21.587 6.821,-26.353 9.438,-34.576c1.308,-4.112 2.71,-9.158 3.084,-11.214c0.84,-4.766 2.43,-10.84 5.7,-21.96c1.402,-4.86 3.27,-11.401 4.112,-14.485c3.364,-11.681 5.326,-16.167 8.69,-19.437c1.963,-1.776 4.486,-3.458 5.794,-3.738c1.309,-0.187 37.006,-0.374 79.432,-0.28l77.095,0.093l2.897,2.15l0,-0.001zm141.481,-47.472c-0.747,0.468 -3.457,0.935 -5.887,0.935c-5.046,0 -14.391,3.925 -20.746,8.784c-4.859,3.644 -12.615,11.868 -12.615,13.457c0,0.654 -0.841,2.896 -1.963,4.952c-2.149,4.206 -5.046,13.457 -6.074,19.064c-0.28,2.056 -1.028,4.485 -1.495,5.42c-0.467,0.934 -1.495,5.14 -2.243,9.345c-2.43,12.802 -2.99,14.952 -4.579,19.81c-0.84,2.524 -2.056,7.57 -2.803,11.215c-0.748,3.55 -1.963,8.877 -2.804,11.68c-2.803,9.44 -3.457,11.682 -4.205,16.354c-1.215,7.196 -2.43,12.336 -5.046,21.494c-1.308,4.579 -2.43,9.531 -2.43,10.933c0,1.308 -0.84,4.392 -1.775,6.635c-1.028,2.336 -2.056,6.261 -2.43,8.784c-0.28,2.43 -1.121,6.168 -1.869,8.224c-0.747,2.055 -1.775,5.793 -2.243,8.41c-2.056,10.186 -4.766,21.68 -5.793,25.231c-0.655,2.056 -1.309,7.383 -1.496,11.775c-0.28,6.354 0,9.251 1.496,13.923c1.12,3.271 1.962,6.729 1.962,7.663c0,2.337 6.448,11.588 11.4,16.26c8.411,7.943 15.233,12.242 21.774,13.644c10.28,2.336 19.438,2.616 89.43,2.71c78.778,0.093 79.245,0 81.208,-3.832c0.373,-0.747 1.12,-4.392 1.588,-7.943c1.028,-6.821 2.243,-12.896 4.018,-20.091c0.561,-2.336 1.122,-6.074 1.215,-8.41l0.094,-4.206l-78.03,-0.467c-75.506,-0.467 -78.123,-0.56 -81.58,-2.336c-7.01,-3.551 -9.065,-13.27 -5.42,-25.138c2.522,-7.943 3.737,-13.083 4.859,-20.185c0.56,-3.364 1.775,-8.784 2.803,-12.148c0.935,-3.364 2.243,-7.85 2.71,-10c0.56,-2.148 1.402,-4.204 1.87,-4.485c0.56,-0.28 0.934,-2.336 0.934,-4.579c0,-2.149 0.747,-6.728 1.775,-9.999c2.617,-9.158 4.766,-18.783 4.766,-21.493c0,-1.402 0.654,-4.112 1.495,-6.074c0.841,-2.056 2.336,-7.196 3.177,-11.588c0.935,-4.392 2.617,-11.12 3.738,-14.951c1.122,-3.832 2.524,-10 3.271,-13.55c3.645,-18.13 5.514,-23.082 10.747,-28.035l2.897,-2.804l58.125,-0.28c31.96,-0.093 59.527,-0.467 61.115,-0.748c1.776,-0.28 3.458,-1.308 4.112,-2.336c1.028,-1.962 3.084,-10.28 5.046,-20.932c0.654,-3.645 1.776,-9.158 2.336,-12.429c0.935,-4.579 0.935,-6.074 0,-7.195c-1.028,-1.215 -9.999,-1.402 -68.124,-1.402c-41.584,0 -67.47,0.374 -68.31,0.934l-0.001,0z" fill="#5D5D5D"/>
    <path d="m704.51,52.144l-30.558,0.187l-1.495,2.336c-0.841,1.309 -2.804,8.972 -4.299,17.102c-1.588,8.036 -3.27,16.633 -3.831,19.063c-0.56,2.43 -0.748,4.766 -0.467,5.233c0.28,0.468 7.662,1.122 16.447,1.495c8.784,0.374 16.54,0.841 17.288,1.122c1.962,0.84 1.775,9.438 -0.374,17.568c-5.046,18.97 -5.981,27.38 -3.364,29.53c1.775,1.495 33.08,2.43 37.846,1.215c3.084,-0.841 3.364,-1.215 5.794,-8.784c1.308,-4.299 2.897,-10.186 3.458,-12.99c0.654,-2.803 1.682,-7.85 2.336,-11.214a584.386,584.386 0 0 0 2.897,-14.017c0.84,-4.392 1.869,-8.784 2.336,-9.812c0.467,-1.028 1.495,-5.233 2.243,-9.345c0.84,-4.112 2.056,-9.345 2.71,-11.681c2.15,-6.915 2.803,-14.485 1.402,-15.7c-1.682,-1.308 -13.55,-1.681 -50.37,-1.308l0.001,0z" fill="#53AD54"/>
    <path d="m689.09,159.984c-0.747,1.122 -1.494,4.766 -3.083,14.298c-0.467,2.523 -2.15,9.999 -3.738,16.54c-1.589,6.542 -2.897,12.71 -2.897,13.737c0,2.617 -2.71,13.363 -3.925,15.42c-0.56,1.027 -1.308,4.204 -1.775,7.008c-0.374,2.897 -1.215,7.102 -1.682,9.438a272.553,272.553 0 0 0 -1.87,8.41c-0.467,2.337 -1.495,6.729 -2.242,9.813c-0.748,3.084 -1.87,8.13 -2.43,11.214c-0.56,3.083 -1.869,9.158 -2.897,13.55c-1.121,4.392 -2.336,9.625 -2.71,11.68c-0.374,2.057 -1.401,6.262 -2.242,9.346c-1.402,5.42 -2.15,8.877 -4.486,21.96c-1.028,5.513 -2.056,9.999 -4.672,19.624c-0.561,1.776 -2.15,9.065 -3.645,16.167c-1.495,7.009 -2.99,13.27 -3.364,13.924c-0.374,0.56 -0.935,3.55 -1.402,6.728c-0.747,6.355 -2.897,15.793 -5.513,24.857c-0.935,3.365 -2.056,8.41 -2.337,11.214c-0.373,2.804 -1.027,5.607 -1.495,6.168c-0.467,0.654 -1.121,3.27 -1.495,5.98c-0.747,6.262 -4.86,11.869 -10.092,13.831c-3.178,1.121 -17.569,1.308 -99.523,1.215c-52.612,0 -96.533,0.187 -97.467,0.467c-2.15,0.654 -6.261,9.625 -6.261,13.55c0,1.589 -0.468,3.738 -1.122,4.86c-0.934,1.775 -2.99,8.503 -6.26,20.839c-0.468,1.682 -0.468,3.457 -0.094,4.018c0.467,0.84 27.287,1.121 105.69,1.028c97.935,-0.094 105.504,-0.187 112.513,-1.776c4.111,-0.934 9.251,-2.616 11.4,-3.644c2.15,-1.122 4.392,-2.056 5.047,-2.056c2.896,0 18.783,-14.672 21.493,-19.905c0.934,-1.869 2.616,-5.14 3.644,-7.195c2.15,-4.205 7.009,-22.241 7.943,-29.437c0.374,-2.616 1.028,-6.074 1.589,-7.85c0.56,-1.681 1.495,-5.513 2.15,-8.41c0.653,-2.897 1.868,-8.223 2.71,-11.774c1.494,-6.074 2.803,-12.149 6.728,-30.838c0.84,-4.112 2.616,-11.681 3.831,-16.821c3.364,-13.55 4.018,-16.26 4.86,-21.96c0.373,-2.804 1.401,-7.01 2.242,-9.345c0.841,-2.337 1.589,-5.794 1.589,-7.663c0,-1.87 0.374,-4.392 0.84,-5.607c0.468,-1.215 1.403,-4.673 1.963,-7.756c0.654,-3.084 1.87,-7.943 2.617,-10.747c0.747,-2.803 1.962,-7.85 2.616,-11.214c0.654,-3.364 1.682,-7.943 2.243,-10.28c2.71,-10.746 3.551,-14.764 5.514,-26.632c0.56,-3.084 1.588,-7.196 2.43,-9.065c0.747,-1.962 1.401,-4.672 1.401,-6.074c0,-1.401 1.495,-8.504 3.364,-15.7c1.87,-7.195 3.925,-16.26 4.58,-20.09c0.653,-3.832 2.148,-10.84 3.27,-15.607c1.121,-4.765 1.775,-9.064 1.402,-9.625c-0.935,-1.401 -44.108,-1.308 -44.95,0.187z" fill="#5D5D5D"/>
   </g>
  </svg>