<svg  id="fndm-m5t0k4y448" viewBox="0 0.0994110107421875 354 154.99896240234375" xmlns="http://www.w3.org/2000/svg">
   <g xmlns="http://www.w3.org/2000/svg" fill="none">
    <path d="m8.75,4.85l-8.7,4.65l-0.05,54.25l0,54.25l20,0l0,-59c0,-46.6 -0.25,-59 -1.25,-58.9c-0.7,0.05 -5.2,2.2 -10,4.75z" fill="#204F96"/>
    <path d="m61,32.55c-42.45,11.9 -40.35,78.05 2.8,86.5c31.1,6.1 55,-15.25 52.95,-47.35c-1.85,-28.45 -28.1,-46.9 -55.75,-39.15zm19.5,16.55c17.65,4.9 21.6,42.3 5.4,50.95c-15.15,8.1 -31.45,-0.7 -33.95,-18.4c-3.25,-22.55 10.05,-37.65 28.55,-32.55z" fill="#204F96"/>
    <path d="m288.5,32c-6.1,1.3 -9.45,2.8 -14.7,6.55l-4.8,3.45l0,-9l-19,0l0,81l19,0l0,-25.75c0,-29.25 0.25,-30.3 7.8,-35.65c10.4,-7.35 24.15,-2.8 27.1,9c0.65,2.5 1.1,14.45 1.1,28.35l0,24.05l19.15,0l-0.35,-31.25c-0.35,-34.85 -0.5,-35.75 -7.5,-42.95c-6.3,-6.45 -18.3,-9.85 -27.8,-7.8z" fill="#4FA839"/>
    <path d="m151.5,34.35c-24.8,8.2 -35.15,36.65 -23.4,64.35c7.2,16.95 35.45,25.15 51.05,14.8c4.85,-3.2 4.85,-3.2 4.85,1.35c0,10.75 -9.85,22.1 -19.25,22.15c-2.1,0 -2.15,1.55 -0.6,11.05c1.35,8.15 2.05,8.45 12.7,4.85c11.35,-3.85 21.35,-15.5 25.55,-29.85c2.55,-8.65 2.4,-9.05 -3.4,-9.05l-5,0l0,-21l11,0l0,-60l-20,0l0,5.75l-6.25,-2.55c-7.5,-3.05 -20.85,-3.95 -27.25,-1.85zm23,17.5c2.2,1 5.5,3.5 7.25,5.55l3.25,3.65l0,28.9l-3.4,3.4c-10.8,10.8 -28.5,8.65 -34.35,-4.15c-6.85,-14.95 -1.65,-32.05 11.25,-36.95c6.6,-2.55 11.05,-2.65 16,-0.4z" fill="#204F96"/>
    <path d="m220,63l0,30l11,0l0,21l8,0l0,-81l-19,0l0,30z" fill="#4FA839"/>
    <path d="m333,103.5l0,10.5l21,0l0,-21l-21,0l0,10.5z" fill="#204E94"/>
   </g>
  </svg>