<svg  id="fndm-wis6ozydvi" viewBox="0.25999999046325684 0.26337289810180664 1795.1259765625 244.44094848632812" xmlns="http://www.w3.org/2000/svg">
   <g xmlns="http://www.w3.org/2000/svg" fill="none">
    <path d="m484.77,243.52c-2.95,-5.14 -8.64,-4.07 -13.09,-5.35a141.07,141.07 0 0 1 -41.67,-19.32c-16.4,-11.35 -16.39,-11.37 -3.31,-26.73c17.16,-20.15 17,-19.88 39.4,-8.52a128.16,128.16 0 0 0 84,12c11.3,-2.15 21.26,-6.81 22.49,-20.18c1.34,-14.47 -8.52,-21 -20.18,-23.68c-21.74,-5 -44,-7.77 -65.71,-13.06c-44.18,-10.78 -63.56,-38.85 -56.35,-80.34c4.58,-26.37 21.1,-44 45.88,-50.68c43.77,-11.87 87.2,-10.32 128.68,11c11.38,5.85 14.5,11.36 4.58,21.74c-7.14,7.46 -10.94,19.66 -19.25,24.13c-7.94,4.26 -16.79,-6.73 -26,-9.06c-20.84,-5.25 -41.65,-9.77 -63.15,-3.76c-9.37,2.63 -16.34,7.28 -16.74,18.15c-0.37,11.13 5.67,17.31 15.47,21.11c18.32,7.13 38.12,6.61 56.89,11.35c9.08,2.3 18.34,4 27.22,6.93c25,8.12 40.82,25 43.54,51.39c2.58,25.13 -4.39,47.21 -25.56,63.44c-13.56,10.41 -29.73,14.16 -45.36,19.44l-71.78,0zm-430.42,-236.18c1.44,61.45 1.32,122.89 0,184.34c0.94,9.32 8.15,6.91 13.62,6.94c28.3,0.15 56.6,0.34 84.89,-0.08c9,-0.13 12.62,2.79 12.08,12c-0.59,9.89 -0.15,19.84 -0.15,29.77l-164.53,0.29l0,-236.33l50.9,0.23l3.19,2.84z" fill="#1A1819"/>
    <path d="m801.78,243.52c0,-69.63 0.3,-139.25 -0.34,-208.87c-0.09,-12.72 3.73,-16.08 15.91,-15.48c19.84,1 39.77,0.18 59.66,0.29c30.8,0.16 52.45,13.46 60.4,36.91c9,26.45 1.72,48.53 -23.32,69.12c29.62,14.29 39.33,38.43 34.54,69.48c-4.07,26.39 -22.78,39.2 -45.19,48.55l-101.66,0zm21.75,-65.79c0,14 -0.07,25.39 0,36.82c0,5 -0.1,10.77 7.15,10.62c20.82,-0.42 41.79,2.52 62.41,-1.64c21.82,-4.4 33.88,-20.12 33.82,-42.52c-0.06,-21.9 -12.84,-37.56 -34.13,-42.81c-8.38,-2.07 -16.76,-2.3 -25.14,-1.81c-14.14,0.83 -32.08,-6.27 -41.4,3.45c-8.66,9.06 -1.46,26.65 -2.71,37.89zm0,-99.43c0,9.47 0.28,18.94 -0.08,28.4c-0.33,8.47 3.33,11.37 11.61,11.11c14.94,-0.47 29.91,0.29 44.84,-0.29c23,-0.89 38.41,-17.2 38.12,-39.45c-0.3,-22.64 -15.46,-37.44 -39,-38.05c-5.48,-0.14 -11,-0.09 -16.44,-0.09c-39.07,-0.02 -39.07,-0.01 -39.06,38.41l0.01,-0.04zm181.61,165.22c-0.233,-71.613 -0.48,-143.227 -0.74,-214.84c0,-5.9 1.58,-9.52 8.34,-9.24c28.27,1.15 56.68,-2.52 84.85,2.3c28.77,4.93 43.87,20.55 49.84,51.5c4.83,25.08 -6.88,53.52 -28.91,65.34c-10.18,5.46 -11.76,8.82 -5.91,19.52c15.42,28.24 33.19,55.3 45.06,85.42l-23.93,0c-10,-18.33 -22.63,-35.73 -29.45,-55.18c-11.54,-32.86 -32.63,-43.49 -65.62,-38.19c-9.16,1.47 -12.88,2.78 -12.67,12.73c0.58,26.87 0.12,53.76 0.08,80.64l-20.94,0zm21.09,-158.79c0,12 0.29,23.93 -0.11,35.88c-0.23,7.14 2.48,9.65 9.54,9.49c16.44,-0.38 32.92,0.38 49.33,-0.37c23.76,-1.1 39.92,-20 39.78,-45.43c-0.14,-25.55 -14.92,-42.61 -39.18,-43.89c-16.41,-0.86 -32.89,-0.06 -49.32,-0.59c-8,-0.26 -10.46,2.92 -10.16,10.53c0.45,11.45 0.12,22.92 0.12,34.38zm152.37,158.79c26.4,-71.747 52.76,-143.513 79.08,-215.3c2.46,-6.73 6,-9.72 13.07,-8.83c6.41,0.8 13.47,-2.32 17,7.4c26.16,72.34 52.8,144.51 79.28,216.73l-23.92,0c-7,-20 -14.26,-40 -20.91,-60.16c-2.46,-7.48 -6.85,-9.56 -14.33,-9.43c-23.287,0.4 -46.583,0.4 -69.89,0c-7.45,-0.12 -11.88,1.92 -14.37,9.4c-6.7,20.17 -14,40.13 -21.06,60.18l-23.95,0.01zm94.49,-196.25c-12,32.64 -23.4,63.77 -34.75,94.93c-1.92,5.26 -6.55,11.78 5,11.68c19.85,-0.15 39.7,-0.1 59.56,0c6,0 8.12,-2 5.89,-8.1c-11.91,-32.51 -23.62,-65.08 -35.7,-98.51zm150.75,196.25c-9.22,-5.75 -19.41,-9.77 -27.92,-16.81c-5.84,-4.84 -6.43,-8.8 -1.54,-14.9s8.08,-8.25 15.46,-2.75c19.4,14.45 41,22.62 65.65,16.44c14.92,-3.75 25.8,-12.16 29.6,-28.22c3.8,-16.06 -1.94,-28.18 -14.11,-38.09c-12.56,-10.22 -27.83,-15.33 -42.15,-22.21c-7.62,-3.66 -15.53,-6.76 -22.92,-10.83c-22.41,-12.31 -35.65,-30.06 -32.09,-57c3.42,-25.82 20.11,-41 43,-48.7c27.36,-9.18 53.83,-4.8 78.83,10.13c9.66,5.77 6.42,11.17 2.79,18.34c-4.52,9 -8.92,4.23 -14,1c-18,-11.46 -37.23,-16.3 -58.31,-9.81c-16.13,5 -27.35,15.34 -29.79,32.1c-2.36,16.28 7.54,27.58 20.71,35.06c12.06,6.86 25.14,11.93 37.78,17.77c5,2.3 10.07,4.33 14.91,6.87c21.75,11.39 38.49,26.17 39.34,53.39c0.88,27.94 -13.2,45.8 -36.48,58.24l-68.76,-0.02zm242.24,0c0.127,-70.24 0.247,-140.477 0.36,-210.71c0,-7.21 -0.89,-13.61 10.16,-13.702c10.4,-0.078 13.59,2.942 13.5,13.492c-0.48,56.29 -0.22,112.58 -0.22,168.88c0,3.48 0.38,7 -0.07,10.45c-1.34,10.18 2.31,14 13.08,13.65c24.38,-0.75 48.86,0.69 73.2,-0.58c14.8,-0.77 21.62,3 18.59,18.52l-128.6,0zm-86.73,0c0,-70.28 -0.037,-140.553 -0.11,-210.82c0,-7.11 -1.16,-13.52 10.06,-13.621c11,-0.099 11.87,5.001 11.82,13.671c-0.44,70.26 -0.6,140.51 -0.84,210.77l-20.93,0z" fill="#9A9A9A"/>
    <path d="m0.28,240.53l164.53,-0.29l5.65,-0.41c0.09,1.23 0.19,2.46 0.29,3.69c-53.37,0 -106.74,0.12 -160.11,-0.32c-3.04,-0.03 -8.77,4.79 -10.36,-2.67z" fill="#FBFAF8"/>
    <path d="m251.41,240.42l0.09,3.1l-53.83,0l0.54,-3.51l53.2,0.41z" fill="#9A9A9A"/>
    <path d="m251.41,240.42l-53.2,-0.41c-0.193,-76.633 -0.373,-153.263 -0.54,-229.89c0,-2.31 -0.56,-5.13 3.08,-5.48c1,1.53 2,1.5 2.85,-0.14c40.25,-0.16 80.52,-0.95 120.75,-0.16c35.71,0.73 70.23,30 75.83,66.22c6.22,40.26 -10.76,78.21 -44.35,93.9c-5.72,2.67 -11.52,6 -18.37,4.62l-5.11,2.31c-4.87,1 -9.74,2.2 -14.75,0.88c-19.43,-7.47 -39.53,-2.11 -59.31,-2.93c-1.27,-0.05 -2.66,2.52 -4,3.87c-3.11,17 -0.51,34.23 -1.47,51.32c-0.32,5.31 1.36,10.81 -1.41,15.89zm0.44,-185.22a486.26,486.26 0 0 1 0,68.6c-2.52,1.4 -1.45,2.2 0.48,2.85l2.3,1.62c1.47,5.19 5.79,5.15 9.63,4.5c14.56,-2.45 30.16,5.61 44,-4.33c25.08,-5.47 34.09,-13.52 36.31,-32.46c3.21,-27.39 -6.84,-39.1 -39.32,-45.78c-16.92,-6.48 -33.78,-7.26 -50.57,0.47l-2.33,1.67c-2,0.66 -3,1.49 -0.5,2.86z" fill="#1A1819"/>
    <path d="m672.29,128.97c0.06,-21.86 17.06,-38.63 38.87,-38.4c22.64,0.26 40,17.85 39.45,39.93c-0.55,21 -18.93,38.39 -40.14,37.9c-22,-0.51 -38.26,-17.31 -38.18,-39.43z" fill="#E23433"/>
    <path d="m170.46,239.83l-5.65,0.41c0,-9.93 -0.44,-19.88 0.15,-29.77c0.54,-9.18 -3.1,-12.1 -12.08,-12c-28.29,0.42 -56.59,0.23 -84.89,0.08c-5.47,0 -12.68,2.38 -13.62,-6.94c10.89,5 22.38,1.88 33.56,2.16c21.74,0.55 43.57,1.25 65.22,-0.21c15,-1 18.85,4.29 17.23,18.11c-1.03,9.28 -0.03,18.78 0.08,28.16zm83.81,-66.62c1.33,-1.35 2.72,-3.92 4,-3.87c19.78,0.82 39.88,-4.54 59.31,2.93l-63.31,0.94zm-199.92,-165.87l-3.14,-2.8c2.14,-0.31 3.5,0.22 3.14,2.8zm149.25,-2.84c-0.87,1.64 -1.82,1.67 -2.85,0.14a2.52,2.52 0 0 1 2.85,-0.14zm128.75,166.89l5.14,-2.29c-1.14,2.14 -2.98,2.6 -5.14,2.29zm-77.73,-43.12l53.58,0.17c-13.79,9.94 -29.39,1.88 -44,4.33c-3.79,0.65 -8.11,0.69 -9.58,-4.5zm50.57,-78.07l-50.57,0.47c16.79,-7.73 33.65,-6.95 50.57,-0.47zm-52.84,2.14a3.6,3.6 0 0 1 -0.45,2.86c-2.55,-1.37 -1.55,-2.2 0.45,-2.86zm-0.51,71.46a3.59,3.59 0 0 1 0.48,2.85c-1.97,-0.65 -2.97,-1.45 -0.48,-2.85z" fill="#000"/>
   </g>
  </svg>