<svg  id="fndm-9czakfapp3" viewBox="75 72 450 101" xmlns="http://www.w3.org/2000/svg">
   <path d="m114.28,93.878c11.562,-2.901 13.145,4.156 12.75,7.92c-0.872,7.842 -1.98,10.194 -3.723,17.722c7.445,-10.664 15.839,-26.426 28.114,-26.19c2.85,-0.08 5.702,1.254 5.702,1.254c10.453,6.744 0.792,20.702 -7.128,19.369c-4.83,-0.785 -5.622,-3.45 -6.177,-8.077c-0.712,-1.725 -3.722,-1.49 -5.385,0.313c-8.711,9.489 -14.809,22.898 -14.809,22.898s-4.276,11.057 -9.107,20.153c0,0 -1.346,1.803 -4.672,2.196l-11.087,-0.079c-3.643,-0.314 -2.851,-2.823 -2.851,-2.823s13.146,-39.051 13.067,-41.168c0.237,-1.255 -0.08,-4.784 -3.564,-3.059c-4.593,2.275 -4.752,5.411 -9.662,9.097c0,0 -2.534,1.176 -2.534,-1.569c1.743,-4.626 11.483,-15.683 21.066,-17.957zm-39.28,28.622c0,-27.838 22.807,-50.5 51,-50.5c28.113,0 51,22.584 51,50.5c0,27.838 -22.807,50.5 -51,50.5s-51,-22.584 -51,-50.5zm404.62,29.5c1.34,-0.309 3.152,-0.386 4.491,-0.386c0.946,0 4.727,0.386 4.727,0.386l0,-28.033l2.049,0l6.933,8.109l9.848,12.279c1.812,2.394 3.466,5.02 5.436,7.645c1.497,0 3.624,-0.463 5.278,-0.463c1.733,0 4.727,0.386 6.618,0.463l-11.424,-13.978l-11.896,-14.827c7.485,-1.467 16.86,-6.564 16.86,-16.526c0,-8.727 -6.067,-13.669 -19.617,-13.669l-19.145,0l0,59l-0.157,0l-0.001,0zm9.14,-54.058c3.624,-0.386 8.587,-0.308 11.58,0.155c6.067,0.927 8.903,4.402 8.903,9.807c0,6.101 -4.49,9.962 -10.32,11.12c-4.097,0.773 -8.982,0.387 -10.085,0.31l0,-21.392l-0.078,0zm-279.76,54.058c1.34,-0.309 3.151,-0.386 4.412,-0.386c0.945,0 4.727,0.386 4.727,0.386l0,-28.033l1.97,0l6.932,8.109l9.848,12.279c1.891,2.394 3.467,5.02 5.436,7.645c1.497,0 3.546,-0.463 5.279,-0.463s4.727,0.386 6.618,0.463l-11.424,-13.978l-11.975,-14.827c7.484,-1.467 16.86,-6.564 16.86,-16.526c0,-8.727 -6.067,-13.669 -19.539,-13.669l-19.144,0l0,59zm9.139,-54.058c3.624,-0.386 8.587,-0.308 11.581,0.155c6.066,0.927 8.903,4.402 8.903,9.807c0,6.101 -4.412,9.962 -10.321,11.12c-4.097,0.773 -8.981,0.387 -10.084,0.31l0,-21.392l-0.08,0l0.001,0zm227.605,0.927l11.817,-0.077c2.837,-0.077 11.109,1.158 11.109,1.158c-0.079,-0.85 -0.473,-2.625 -0.473,-3.475c0,-0.85 0.315,-2.317 0.394,-3.243l-31.828,0l0,58.614l32.537,0c-0.079,-0.85 -0.315,-2.24 -0.315,-3.09c0,-0.849 0.236,-2.78 0.315,-3.783c-2.757,0.463 -10.557,1.003 -13.314,1.08c-5.436,0.155 -4.648,0.31 -10.163,0.155l0,-22.936l8.272,0c2.679,0 10.005,0.386 12.684,0.464c-0.079,-0.927 -0.236,-1.777 -0.315,-2.78c-0.079,-0.541 0.236,-2.626 0.315,-3.321c-2.679,0.231 -7.957,0.463 -10.714,0.463l-10.242,0l0,-19.228l-0.079,0l0,-0.001zm-23.005,-5.869c-0.866,0.077 -2.52,0.309 -3.387,0.309s-2.364,-0.232 -3.23,-0.309l0,42.937l-40.18,-42.86l-4.49,0l0,58.923c0.787,-0.077 1.417,-0.232 2.284,-0.386c1.497,-0.309 3.388,0.309 4.254,0.386l-0.079,-44.327l37.186,39.848c1.891,2.008 2.758,3.012 3.782,4.247l3.781,0l0,-58.768l0.08,0l-0.001,0zm-152.446,5.87l11.818,-0.078c2.836,-0.077 11.108,1.158 11.108,1.158c-0.078,-0.85 -0.472,-2.625 -0.472,-3.475c0,-0.85 0.315,-2.317 0.394,-3.243l-31.829,0l0,58.614l32.538,0c-0.08,-0.85 -0.315,-2.24 -0.315,-3.09c0,-0.849 0.236,-2.78 0.315,-3.783c-2.837,0.463 -10.557,1.003 -13.394,1.08c-5.436,0.155 -4.648,0.31 -10.163,0.155l0,-22.936l8.273,0c2.678,0 10.005,0.386 12.684,0.464c-0.079,-0.927 -0.237,-1.777 -0.315,-2.78c-0.08,-0.541 0.236,-2.626 0.315,-3.321c-2.679,0.231 -7.957,0.463 -10.715,0.463l-10.242,0l0,-19.228zm85.953,-5.87c-0.867,0.077 -2.521,0.309 -3.388,0.309c-0.866,0 -2.442,-0.232 -3.23,-0.309l0,42.937l-40.258,-42.86l-4.49,0l0,58.923c0.787,-0.077 1.417,-0.232 2.284,-0.386c1.497,-0.309 3.388,0.309 4.254,0.386l-0.078,-44.327l37.185,39.848c1.891,2.008 2.758,3.012 3.782,4.247l3.782,0l0,-58.768l0.157,0z" fill-rule="evenodd" fill="#D31217"/>
  </svg>