<svg  id="fndm-1taotaxmr8" viewBox="0.4732475280761719 0.6204919815063477 1318.093017578125 325.728515625" xmlns="http://www.w3.org/2000/svg">
   <g xmlns="http://www.w3.org/2000/svg" fill="none">
    <path d="m689.24,219.14c15.29,-40.61 29.48,-79.47 44.63,-118c5.52,-14 19.1,-15.74 32.34,-16.93c13.24,-1.19 18.07,7.87 21.93,17.87a16559.088,16559.088 0 0 1 36.88,96.64c2.57,6.78 7.66,15.84 -1,19.66c-9.32,4.1 -20.43,2.88 -27.47,-7.19c-4,-5.75 -3.25,-15.64 -14.11,-15.25c-16.56,0.59 -33.13,0.78 -49.68,1.51c-1.33,0.06 -3.33,2.85 -3.66,4.62c-4.65,25.23 -22.92,16.55 -39.86,17.07zm90.22,-51.4l-19.76,-52.28l-19.78,52.28l39.54,0zm420.73,-15.77c0,-18.7 0.84,-37.44 -0.26,-56.07c-0.91,-15.39 9,-12.13 17.45,-12c8.45,0.13 19.5,-3.39 17.36,12.1a60.45,60.45 0 0 0 0,8.3c0.08,38.58 0,38.05 37.34,34.1c10.18,-1.08 13.15,-4.38 12.26,-13.91c-0.7,-7.55 -0.17,-15.22 -0.14,-22.83c0.06,-15.8 15.06,-24.43 29.83,-17.55c6.3,2.93 4.06,8.13 4.08,12.45c0.19,36.7 -0.62,73.41 0.44,110.07c0.49,16.63 -9.93,12.41 -18.91,13.3c-10.63,1 -17.78,-0.83 -15.51,-13.91c0.46,-2.69 0.06,-5.53 0.06,-8.3c0,-35.5 0,-35 -34.6,-34.81c-11.51,0.06 -16.43,2.9 -15,14.88c0.82,6.82 -1,14 0.35,20.71c4,20.26 -6.46,23 -23.09,21.63c-8.78,-0.72 -12.11,-2.89 -11.8,-12.06c0.58,-18.71 0.14,-37.41 0.14,-56.1zm-641.65,-13.28c0,11.77 0.16,23.54 0,35.31c-0.43,25.31 -11.66,40.36 -35.94,46.17c-19.86,4.75 -39.69,4.64 -58.67,-4.9c-14.25,-7.17 -22.66,-18.48 -23,-34.24c-0.68,-27.68 0.25,-55.39 -0.49,-83.06c-0.47,-17.09 11.27,-9 18.53,-10.14c8.36,-1.27 17.36,-3.09 15.78,10.77c-0.54,4.79 -0.08,9.69 -0.08,14.53c0,75.79 1.65,81.87 26.1,80.08c28.42,-2.07 23.16,7.61 23.68,-79.88c0,-5.54 0.6,-11.16 -0.1,-16.61c-2.13,-16.55 9.55,-12.61 18.65,-13.29c10.2,-0.75 17.22,0.09 15.91,13.75c-1.31,13.66 -0.37,27.66 -0.37,41.51zm573.17,84c-45.84,3.59 -74.16,-25.4 -74.9,-69.84c-0.77,-46.17 25.06,-72 71.71,-71.83c13.32,0.06 26,3.06 38.79,6.24c13.79,3.42 14.86,10.55 11.06,23c-2.63,8.6 -5.3,9 -12.67,6.61c-14.25,-4.74 -29.07,-5.48 -44.11,-6.18c-15.57,-0.72 -22.38,7.8 -26.81,19.77c-15.16,40.94 6.83,67.95 49.83,61.59c6.16,-0.91 12.46,-1.71 18.3,-3.72c7.62,-2.63 13.83,-6.28 15.63,6.59c1.29,9.26 5.37,16.95 -8.18,20.8c-13.55,3.85 -26.61,7.36 -38.65,6.97zm-185.16,-73.15c1.11,-18 -4.8,-39.39 16.17,-55.26c13.26,-10 65.46,-18.92 79.17,-10.18c6.25,4 2.17,8.61 1.83,12.8c-0.7,8.62 -5.2,13.74 -14.61,13.68c-11,-0.07 -22.15,-0.56 -33.06,0.67c-11.53,1.31 -16.25,9 -15,20.6c1.45,13 11.29,6.28 17.41,7.25c6.75,1.06 13.79,0.4 20.7,0.2c8.66,-0.25 16.1,-1.11 15.93,12.18c-0.15,11.79 -5,14 -15,13.28a149.46,149.46 0 0 0 -22.79,0c-6.49,0.53 -15.94,-4.31 -16.51,8.92c-0.47,11 4.11,17.82 14.38,19.06c10.88,1.32 22.2,1.87 33,0.34c13.72,-1.94 14.06,6.71 15.82,15.72c2.18,11.12 -4.25,13.16 -12.93,13.1c-14.49,-0.08 -29.52,2.16 -43.35,-0.92c-32.29,-7.18 -43.92,-23.71 -41.34,-48.49c0.78,-6.8 0.18,-13.78 0.18,-22.95zm-362.02,1.07c0,-4.15 -0.24,-8.32 0,-12.45c1.19,-17.64 -7.55,-45.73 3.47,-50.77c21.35,-9.79 48.93,-6.28 73.14,-1.29c24.68,5.07 40.26,28.98 37.78,50.98c-2.64,23.07 -22.09,38.28 -50.57,39.51c-2.77,0.12 -5.62,0.56 -8.29,0.06c-17.79,-3.37 -23.07,4.42 -20.92,21.33c1.43,11.25 3.7,22.83 -16,22.43c-16.08,-0.33 -20,-5 -18.85,-20c1.24,-16.52 0.24,-33.2 0.24,-49.8zm34.82,-22.25c0,27.07 0,26.9 16.2,26.87c16.86,0 28.1,-9.21 29.13,-24.75c1.25,-19 -14.38,-19.1 -28.84,-20.67c-19.15,-2.07 -17.35,9.47 -16.49,18.55zm257.83,-44.52c13.82,0 27.67,0.4 41.48,-0.13c10.75,-0.4 17.66,-0.15 17.33,14.73c-0.29,13.46 -6,15.7 -16.24,13.92c-20.82,-3.63 -25.54,5.42 -23.93,24.82c1.88,22.66 -0.66,45.66 0.79,68.39c1,15.62 -7.68,15 -17.78,14c-8.88,-0.85 -21.51,5.61 -20.32,-13.35c1.51,-24.11 -0.84,-48.46 0.76,-72.55c1.16,-17.38 -4.18,-24.25 -21.46,-21.25c-14,2.42 -19.82,-2.49 -18.71,-17.66c0.71,-9.65 4.13,-11.37 12.45,-11.11c15.19,0.53 30.37,0.19 45.63,0.19zm-752.4,-23.38c1.1,17.94 -9.69,32.44 -14.32,48.73c-6.42,22.54 -13.72,44.73 -15.38,68.35c-2.93,41.88 10.4,60.34 50.39,73.49c12.53,4.12 28.33,-0.86 37.66,12.63c-6.83,4.09 -14.36,4.24 -22,4.21a535,535 0 0 1 -106.58,-11.49l-3.54,-3c1,-1.8 2.62,-3.53 2.81,-5.41c6.32,-62.11 31.13,-118 58.06,-173.2c2.85,-5.79 3.86,-13.81 12.9,-14.31z" fill="#033A47"/>
    <path d="m124.78,60.46c-9,0.5 -10.05,8.52 -12.9,14.35c-26.96,55.18 -51.74,111.09 -58.06,173.2c-0.19,1.88 -1.84,3.61 -2.83,5.39c-13.55,-3.11 -23.87,-11.9 -34.82,-19.58a9.54,9.54 0 0 0 -0.83,-3.36c5.44,-15.66 10.23,-31.6 16.45,-47c21.71,-53.62 58.87,-98.19 88.34,-147.25c4.76,-7.93 12.23,-20.15 25.27,-22.09c-0.87,18.16 -13.25,31.14 -20.62,46.34z" fill="#0F1099"/>
    <path d="m145.4,14.17c-13,1.94 -20.51,14.16 -25.27,22.09c-29.47,49.06 -66.63,93.63 -88.34,147.25c-6.22,15.35 -11,31.29 -16.45,47c-20.31,-20.26 -16.67,-43.56 -7.59,-66.85c12.41,-31.84 32.94,-58.55 55.39,-83.89a800.14,800.14 0 0 1 74.7,-74.22c2.94,-2.54 6.27,-7.28 10.42,-3.55c5.32,4.73 -0.92,8.27 -2.86,12.17z" fill="#03BEE5"/>
    <path d="m335.37,136.01c0,-11.76 1.13,-23.65 -0.27,-35.24c-1.9,-15.58 5.06,-17.48 18.59,-17.79c14.46,-0.34 17.3,4.91 16.71,17.82c-1,20.7 0.48,41.52 -0.43,62.23c-1.18,26.72 1.41,30 32.5,31.61c7,0.35 15.93,-5.85 20.81,2.63c3.26,5.65 5.29,13.55 4.17,19.78c-1.46,8.2 -10.27,4.76 -15.89,5.08c-10.32,0.57 -20.8,0.84 -31,-0.31c-31.41,-3.52 -45.11,-19.22 -45.15,-50.53c-0.06,-11.76 -0.04,-23.52 -0.04,-35.28z" fill="#033A47"/>
    <path d="m54.55,256.38a535,535 0 0 0 106.54,11.49c7.68,0 15.21,-0.12 22,-4.21c19.46,-3.51 38.87,-4 58.23,0.72c-57.12,23.92 -116.4,36.79 -178.63,35.26a12.77,12.77 0 0 0 -2,-2.29c-3.09,-13.51 -8.38,-26.68 -6.14,-40.97z" fill="#05953D"/>
    <path d="m62.69,299.64c62.18,1.53 121.51,-11.34 178.67,-35.26l12.82,-0.82c-5.94,10.94 -15.49,13.39 -23,17.78c-33.42,19.61 -67.7,37.66 -106.59,43.59c-25.16,3.85 -48.67,1.24 -61.9,-25.29zm-8.14,-43.26c-2.24,14.29 3.05,27.46 6.09,41c-38.45,-2.11 -54.28,-24.73 -44.47,-63.53c11,7.68 21.27,16.47 34.82,19.58l3.56,2.95z" fill="#F9D206"/>
   </g>
  </svg>