<svg  id="fndm-07ngb5giuq" viewBox="0.3800000250339508 0.6481611728668213 1122.7802734375 185.8467254638672" xmlns="http://www.w3.org/2000/svg">
   <path d="m368.33,20.26c29.28,0.09 58.56,0.07 87.84,0.33c17.19,0.15 31.76,12.82 36.93,31.58c4.95,17.93 -0.16,32.93 -15.26,42.2c-3.32,2 -3.11,3.62 -1.09,5c16.62,11.36 16.39,28.85 17.23,46a76.66,76.66 0 0 0 1.33,13.23c1.48,6.52 0,8.86 -7.26,8.59c-24.17,-0.93 -22.91,4.31 -25.55,-23c-2.93,-30.43 -8.66,-35.3 -38.88,-34.36c-24,0.74 -24,0.15 -24,23.91c0,8.87 -0.31,17.76 0.05,26.61c0.22,5.26 -1.76,6.69 -6.69,6.31a173.58,173.58 0 0 0 -20.39,-0.56c-5.08,0.21 -5.83,-2 -5.76,-6.35c0.15,-10 -0.12,-20.08 -0.22,-30.13l0,-12.41c0.74,-30.77 1.13,-61.55 0.36,-92.32c0.48,-1.54 0.92,-3.09 1.36,-4.63zm58.56,66.43c5.39,0 11,-0.47 16.59,0.11c9.59,1 14.27,-4.13 16.55,-12.37a30.42,30.42 0 0 0 -0.78,-20c-2.68,-6.58 -7,-10.47 -14.77,-10.16c-8.83,0.35 -17.69,-0.16 -26.54,-0.3c-16.38,-0.25 -16.58,-0.25 -16.59,16.52c0,8.15 -3.85,18.66 1.4,23.84s15.77,1.17 24.14,2.36zm588,63.9c-0.75,0.43 -1.81,0.68 -2.21,1.33c-2.67,4.4 -2,12.2 -7.38,13.17c-8.58,1.56 -17.68,0.91 -26.49,0.3c-5.12,-0.36 -1.55,-4.11 -0.85,-5.91c6.26,-15.94 12.81,-31.76 19.17,-47.66c11.12,-27.82 22.35,-55.6 33.09,-83.57c1.74,-4.54 4.14,-5.61 8.21,-5.35l0.88,0c25.72,-0.35 25.79,-0.38 35.56,23.33c11.56,28.06 22.53,56.39 34.75,84.16c4.3,9.78 8.39,19.63 12.58,29.45c2.38,5.57 0.11,5.69 -4.32,5.86c-27.66,1.09 -27.73,1.18 -37,-25.84c-1.6,-4.63 -3.62,-6.85 -9.09,-6.66c-14.17,0.47 -28.4,0.7 -42.55,-0.07c-9.69,-0.54 -13.28,3.81 -13.79,12.48l-0.56,4.98zm33.6,-94.25c-6.69,17.92 -12.48,33.48 -18.3,49c-1.38,3.68 1,4 3.58,4l34.68,0l-19.96,-53zm-1048.11,37.8a15.52,15.52 0 0 1 4.51,-9.37c8.87,-8.68 17.7,-17.38 26.43,-26.2c5.94,-6 11.83,-6 17.74,-0.2c8.83,8.72 17.69,17.42 26.3,26.35c6.23,6.47 6,11.62 -0.49,18.3c-7.96,8.273 -15.96,16.52 -24,24.74l-1.79,1.88l0.05,-0.05l-1.99,1.91a1.64,1.64 0 0 0 -1.31,0.74l-7.17,1.3l-5.37,-2.12c-1.08,-1.9 -2.22,-3.73 -4.51,-4.39l-0.26,0.81l0.2,-0.82a15,15 0 0 0 -6.14,-6.09l-2,-1.94a9.83,9.83 0 0 0 -5.07,-5.18a20.14,20.14 0 0 0 -7.22,-7.19a5.27,5.27 0 0 0 -3.4,-3.42c-1.82,-2.86 -3.94,-5.58 -4.51,-9.06zm78.95,83.46c-6.91,-7.2 -13.84,-14.37 -20.71,-21.6c-6.87,-7.23 -7.09,-11.67 -0.14,-18.9c8.57,-8.93 17.49,-17.51 26.22,-26.27c4.94,-5 10.63,-6.05 15.59,-1c11.48,11.67 24.6,21.94 33.89,35.67c-1.787,0.667 -1.787,1.333 0,2c-10,14.26 -23.42,25.24 -35.92,37.06c-3.33,3.15 -7.83,2.11 -11.46,-0.66c-2.56,-1.95 -4.94,-4.14 -7.4,-6.22l-0.07,-0.08zm-28.23,-138.38c10.41,-13.14 23.55,-23.57 35.27,-35.41c4.63,-4.68 10.36,-3.92 15.06,0.67c9.5,9.3 19,18.65 28.23,28.21c4.85,5 4.92,10.6 -0.08,15.7c-8.89,9.08 -17.8,18.15 -26.94,27c-6.65,6.44 -11.62,6.39 -18.37,-0.13c-11.17,-10.76 -22.13,-21.76 -33.18,-32.76c0.01,-1.07 0.01,-2.17 0.01,-3.28zm908.79,14.12c2.41,9.2 -1.59,12.15 -10.35,10.9a27.26,27.26 0 0 0 -8,0.34c-6.72,1 -11.69,0.55 -13.74,-7.82c-1.77,-7.25 -8.48,-10.41 -15.46,-11.64a47.85,47.85 0 0 0 -21.08,0.72c-6.83,1.86 -12.44,4.57 -12.39,13c0.05,7.54 6.1,10.21 11.34,12a356,356 0 0 0 34.94,9.46c25.8,5.85 40.32,21.86 39.81,44.54c-0.46,18.448 -12.829,34.467 -30.56,39.58c-24.92,6.9 -49.32,7 -71.58,-8.06c-11.22,-7.7 -15.93,-19.86 -18.3,-32.86c-0.55,-3 0.61,-4.39 3.63,-4.61a95.07,95.07 0 0 0 11.46,-1.18c8.6,-1.69 13.79,-0.68 17.41,9.57c6.5,18.38 39.6,23 53,8.54c8.16,-8.82 6.22,-19.59 -4.76,-24.54c-10.98,-4.95 -22.75,-6.22 -34.09,-9.48c-8,-2.29 -15.82,-4.88 -23,-9.11c-25.17,-14.86 -25.52,-50.12 0.2,-63.88c23.33,-12.48 47.86,-11.41 71.66,-0.36c10.46,4.86 16,14.47 19.87,25l-0.01,-0.11zm-443.88,40.49c0,-21 0.19,-42 -0.12,-62.95c-0.08,-5.81 1,-8.19 7.58,-8.11c31.91,0.37 63.84,0.32 95.76,0.05c5.83,-0.05 7.44,1.6 7.41,7.4c-0.09,16.81 0.18,16.81 -16.63,16.81c-18.92,0 -37.84,0.19 -56.75,-0.12c-5.36,-0.08 -7,1.39 -7.1,6.88c-0.51,24.81 -0.7,24.81 23.71,24.8c14.19,0 28.39,0.27 42.56,-0.18c6.37,-0.21 8.81,1.29 8.68,8.22c-0.32,16.21 0,16.23 -16.41,16.24c-17.14,0 -34.29,0.2 -51.42,-0.13c-5.37,-0.1 -7.36,1.32 -7.08,6.88c0.47,8.263 0.47,16.547 0,24.81c-0.38,6 1.89,7.47 7.53,7.41c22.17,-0.25 44.35,0.25 66.5,-0.26c7.31,-0.17 9.73,1.53 9.43,9.13c-0.59,14.91 -0.14,14.93 -15.06,14.93c-30.45,0 -60.89,-0.17 -91.33,0.15c-5.81,0.06 -7.51,-1.28 -7.41,-7.23c0.37,-21.57 0.14,-43.15 0.15,-64.73zm194.65,33.13c6.58,-21.27 12.43,-41.91 20.33,-61.88c4.83,-12.2 9.13,-24.61 13.68,-36.93c0.8,-2.15 1,-5 4.09,-5.09c8.56,-0.17 17.2,-0.74 25.68,0.11c5.75,0.58 1.86,5 1,7.3c-11.72,31.87 -23.64,63.66 -35.51,95.47c-4.46,12 -9,23.89 -13.36,35.88c-0.93,2.57 -2.32,3.89 -5.1,3.88c-8.27,-0.05 -16.55,-0.15 -24.81,0c-5.69,0.13 -5.47,-4.64 -6.68,-7.86c-14,-37.29 -28,-74.6 -41.68,-112c-2.68,-7.35 -10.21,-16.46 -6.32,-21.65c2.95,-3.92 14.9,-1 22.83,-1.31c4.77,-0.18 7.45,0.43 9.44,6.25c11,32 22.83,63.79 34.41,95.62c0.23,0.52 0.76,0.87 2,2.21zm112.23,-32.16c0,21.27 -0.16,42.54 0.12,63.81c0.08,5.35 -1.39,7 -6.88,7.16c-23.24,0.55 -23.24,0.73 -23.24,-22.43c0,-37.52 0.09,-75 -0.14,-112.56c0,-5.89 1.18,-8.12 7.7,-8c22.49,0.29 22.49,0 22.49,22.42c-0.033,16.52 -0.05,33.053 -0.05,49.6zm-636.86,-0.3c0.25,4 -3.56,7.07 -6.41,10.11c-7.63,8.16 -15.85,15.75 -23.92,23.49c-7.09,6.79 -11.8,6.76 -18.93,-0.24c-8.64,-8.47 -17.13,-17.09 -25.72,-25.61c-5.54,-5.51 -6.2,-11.33 -0.63,-17.05c9.05,-9.31 18.32,-18.4 27.52,-27.56c5.36,-5.33 11,-5.38 16.37,-0.22c9.54,9.23 18.87,18.69 28.23,28.12a11.53,11.53 0 0 1 3.49,8.96zm86.3,12c0,-17.14 -0.34,-34.29 0.15,-51.42c0.19,-6.85 -2.06,-8.61 -8.58,-8.22c-9.42,0.57 -18.91,-0.08 -28.36,0.28c-5.51,0.2 -7.73,-1.08 -7.66,-7.29c0.2,-16.92 -0.13,-16.92 16.29,-16.92c31.33,0 62.65,0.16 94,-0.2c6.67,-0.07 8.46,1.76 8.32,8.4c-0.34,15.83 0,15.85 -15.77,15.88c-6.79,0 -13.64,0.52 -20.37,-0.14c-6.94,-0.68 -8.33,2 -8.27,8.43c0.3,33.68 -0.05,67.38 0.34,101.06c0.08,7.1 -1.29,9.66 -9,9.46c-21,-0.53 -21,-0.13 -21,-21.2c-0.04,-12.693 -0.07,-25.4 -0.09,-38.12z" fill="#0B1F72"/>
  </svg>