<svg xmlns="http://www.w3.org/2000/svg" fill-rule="evenodd" clip-rule="evenodd" image-rendering="optimizeQuality" shape-rendering="geometricPrecision" text-rendering="geometricPrecision" viewBox="-2 1 6599.990234375 3299.989990234375"><g><rect width="6599.99" height="3299.99" x="-2" y="1" fill="none"/><g><polygon fill="#373435" points="3394.64,1066.6 3567.72,1066.6 3684.59,1529.62 3686.84,1529.62 3837.44,1066.6 3988.03,1066.6 4138.63,1543.11 4262.25,1066.6 4424.08,1066.6 4210.56,1790.36 4068.95,1790.36 3909.37,1289.12 3907.12,1289.12 3747.53,1790.36 3610.42,1790.36"/><path fill="#373435" d="M4496.01 1066.6l240.5 0c58.44,0 112.39,6.74 166.33,20.23 51.69,11.24 96.65,33.71 137.11,62.93 38.22,26.97 69.68,65.18 92.16,112.38 22.48,44.96 33.72,103.4 33.72,168.58 0,58.44 -11.24,110.14 -33.72,155.09 -20.23,42.71 -51.69,80.92 -87.66,112.38 -38.21,29.23 -83.17,51.7 -130.37,67.44 -49.45,15.73 -101.14,24.72 -155.09,24.72l-262.98 0.01 0 -723.76zm159.59 575.41l83.16 0c38.22,0 71.93,-2.25 103.4,-11.24 31.47,-6.75 60.69,-17.99 83.17,-35.96 22.48,-17.99 40.46,-40.47 53.94,-69.68 13.49,-26.97 20.23,-62.93 20.23,-103.4 0,-33.71 -6.75,-65.18 -20.23,-92.15 -13.49,-24.72 -31.46,-47.2 -53.94,-65.19 -22.48,-15.73 -49.45,-29.22 -78.67,-38.21 -31.46,-8.99 -62.93,-11.24 -96.65,-11.24l-94.41 0.01 0 427.06 0 0z"/><path fill="#373435" d="M5750.23 1255.41c-15.73,-20.23 -35.96,-33.72 -58.44,-44.96 -22.48,-11.24 -49.45,-15.73 -78.66,-15.73 -31.47,0 -58.44,6.74 -83.17,17.98 -26.97,11.24 -49.45,26.97 -67.44,47.2 -17.98,20.23 -33.71,44.96 -44.95,74.17 -8.99,29.23 -15.74,60.69 -15.74,94.41 0,33.72 6.75,65.18 15.74,92.16 11.24,29.22 26.97,53.94 44.95,74.17 17.99,20.22 40.47,35.96 65.19,47.2 24.72,13.49 51.69,17.98 80.91,17.98 31.47,0 60.69,-6.74 85.42,-20.23 26.97,-13.49 47.2,-31.46 62.93,-56.19l134.86 98.9c-31.47,42.7 -71.93,74.17 -116.88,94.41 -47.2,20.22 -96.65,31.46 -146.1,31.46 -56.19,0 -110.14,-8.99 -157.34,-26.97 -47.2,-17.98 -89.9,-42.71 -123.62,-76.42 -35.96,-33.72 -62.93,-71.93 -80.92,-119.13 -20.22,-47.2 -31.46,-98.9 -31.46,-157.34 0,-58.44 11.24,-110.14 31.46,-157.34 17.99,-47.2 44.96,-87.66 80.92,-121.38 33.72,-31.47 76.42,-56.2 123.62,-74.17 47.2,-17.99 101.15,-26.97 157.34,-26.97 20.23,0 40.46,2.25 62.93,4.49 22.48,4.49 44.96,11.24 67.44,17.98 20.23,8.99 40.46,20.23 60.69,33.72 20.23,13.49 38.21,29.22 53.94,49.45l-123.62 101.15z"/><polygon fill="#373435" points="3610.42,1949.94 3644.14,1949.94 3817.21,2199.44 3819.45,2199.44 3819.45,1949.94 3844.18,1949.94 3844.18,2233.15 3810.47,2233.15 3637.39,1985.91 3637.39,2233.15 3610.42,2233.15"/><polygon fill="#373435" points="3922.85,1949.94 4098.17,1949.94 4098.17,1974.66 3949.82,1974.67 3949.82,2075.81 4089.18,2075.81 4089.18,2100.54 3949.82,2100.54 3949.82,2210.68 4104.92,2210.68 4104.92,2233.15 3922.85,2233.15"/><polygon fill="#373435" points="4226.29,1974.67 4127.39,1974.67 4127.39,1949.94 4349.91,1949.94 4349.91,1974.66 4251.01,1974.67 4251.01,2233.15 4224.04,2233.15 4224.04,1974.67"/><polygon fill="#373435" points="4356.66,1949.94 4383.63,1949.94 4455.56,2201.68 4527.49,1949.94 4561.2,1949.94 4633.13,2201.68 4705.06,1949.94 4732.02,1949.94 4648.86,2233.15 4617.39,2233.15 4545.46,1981.42 4543.21,1981.42 4471.28,2233.15 4439.82,2233.15"/><path fill="#373435" d="M4754.5 2091.55c0,-20.23 4.49,-40.46 11.24,-58.44 6.74,-20.23 17.98,-33.72 29.22,-47.2 13.49,-13.49 29.22,-24.72 47.2,-31.47 17.98,-8.98 38.21,-11.24 60.69,-11.24 20.23,0 40.46,2.26 58.44,11.24 17.98,6.75 33.72,17.99 47.2,31.47 13.49,13.49 22.48,26.97 29.22,47.2 8.99,17.98 11.24,35.96 11.24,58.44 0,22.48 -2.25,42.7 -11.24,60.69 -6.74,17.98 -15.73,33.72 -29.22,47.2 -13.49,13.49 -29.23,22.48 -47.2,31.46 -17.99,6.75 -38.21,8.99 -58.44,8.99 -22.48,0 -42.71,-2.25 -60.69,-8.99 -17.98,-8.98 -33.72,-17.98 -47.2,-31.46 -11.24,-13.49 -22.48,-29.23 -29.22,-47.2 -6.75,-17.99 -11.24,-38.21 -11.24,-60.69zm26.97 0c0,17.98 2.25,33.72 8.99,49.45 4.49,15.73 13.49,29.22 22.48,40.46 11.24,11.24 24.72,20.23 38.21,26.97 15.73,4.5 31.46,8.99 51.69,8.99 17.99,0 33.72,-2.25 49.45,-8.99 15.74,-6.74 26.97,-15.73 38.21,-26.97 11.24,-11.24 17.99,-24.72 24.72,-40.46 4.5,-15.73 8.99,-31.47 8.99,-49.45 0,-17.99 -4.49,-33.72 -8.99,-49.45 -6.74,-15.74 -13.49,-29.23 -24.72,-40.47 -11.24,-8.98 -22.47,-17.98 -38.21,-24.72 -13.49,-6.74 -31.46,-11.24 -49.45,-11.24 -20.23,0 -35.96,4.5 -51.69,11.24 -13.49,6.75 -26.97,15.74 -38.21,24.72 -8.99,11.24 -17.99,24.73 -22.48,40.47 -6.75,15.73 -8.99,33.71 -8.99,49.45z"/><path fill="#373435" d="M5109.63 1949.94l74.18 0c4.5,0 8.99,0 15.74,2.25 4.49,0 13.49,0 20.22,2.25 6.75,0 15.74,2.25 22.48,4.5 8.99,4.49 15.73,8.99 20.23,13.49 6.74,6.74 11.24,13.49 15.73,22.48 4.5,6.74 6.75,17.98 6.75,31.46 0,13.49 -2.25,24.72 -6.75,33.72 -4.49,6.75 -11.24,15.73 -17.98,20.23 -6.75,6.74 -13.49,8.99 -22.48,13.49 -8.99,2.25 -17.99,2.25 -24.72,4.49l83.17 137.11 -31.47 -0.01 -78.67 -134.86 -49.46 0 0 134.86 -26.97 0 0 -285.46zm26.97 125.87l56.2 0c13.49,0 24.72,-2.25 33.72,-6.74 8.99,-2.25 15.73,-6.75 20.23,-11.24 4.49,-4.49 6.74,-11.24 8.98,-17.98 2.25,-4.5 2.25,-11.24 2.25,-15.74 0,-4.49 0,-8.99 -2.25,-15.73 -2.25,-6.75 -4.49,-11.24 -8.98,-15.73 -4.5,-4.5 -11.24,-8.99 -20.23,-13.49 -8.99,-2.26 -20.23,-4.5 -33.72,-4.5l-56.2 0.01 0 101.14z"/><polygon fill="#373435" points="5347.89,1949.94 5374.86,1949.94 5374.86,2075.81 5377.11,2075.81 5514.23,1949.94 5552.43,1949.94 5408.58,2080.31 5561.43,2235.4 5523.21,2235.4 5377.11,2087.05 5374.86,2087.05 5374.86,2235.41 5347.89,2235.4"/><path fill="#373435" d="M5601.88 2181.45c6.74,11.24 15.73,20.23 26.97,26.98 11.24,6.74 24.72,8.98 38.21,8.98 8.99,0 15.74,-2.25 24.72,-4.49 8.99,-2.25 15.74,-6.75 20.23,-11.24 6.75,-4.49 11.24,-11.24 13.49,-17.98 2.25,-6.75 4.5,-13.49 4.5,-22.48 0,-8.99 -2.26,-17.99 -4.5,-24.72 -4.49,-6.75 -11.24,-11.24 -17.98,-15.74 -6.75,-4.49 -13.49,-6.74 -22.48,-11.24 -8.99,-2.25 -17.99,-4.49 -26.97,-6.74 -8.99,-4.5 -17.99,-6.75 -26.98,-11.24 -8.98,-2.25 -17.98,-8.99 -24.72,-13.49 -6.74,-6.75 -11.24,-13.49 -15.73,-22.48 -4.49,-8.99 -6.74,-20.23 -6.74,-33.72 0,-13.49 2.25,-24.72 6.74,-33.71 6.75,-11.24 13.49,-17.99 20.23,-24.73 8.99,-6.74 20.22,-11.23 29.22,-15.73 11.24,-2.25 22.48,-4.49 35.96,-4.49 13.49,0 29.22,2.25 42.71,8.99 13.49,4.49 24.72,13.49 33.71,26.97l-22.47 15.73c-6.75,-8.99 -15.74,-15.73 -22.48,-20.23 -11.24,-4.49 -20.23,-6.74 -33.72,-6.74 -6.75,0 -15.73,2.25 -24.72,4.49 -6.75,2.25 -13.49,4.5 -20.23,8.99 -4.49,4.49 -8.99,8.99 -13.49,15.73 -4.49,6.75 -4.49,15.74 -4.49,24.72 0,13.5 2.25,24.73 11.24,31.47 6.74,8.99 15.73,13.49 26.97,17.99 11.24,4.49 22.48,8.98 33.72,11.23 13.49,4.5 24.72,8.99 35.96,13.5 11.24,6.74 20.22,13.49 26.97,24.72 8.99,8.98 11.24,22.47 11.24,40.46 0,13.49 -2.25,24.72 -6.75,35.96 -4.49,8.99 -11.24,17.98 -20.22,24.72 -6.75,6.75 -17.99,11.24 -26.98,15.73 -11.24,2.25 -22.47,4.5 -33.71,4.5 -20.23,0 -35.96,-2.25 -51.7,-8.99 -15.73,-6.75 -29.22,-17.98 -40.46,-33.72l24.72 -17.98 0.01 0.02z"/><path fill="#5cc4f0" d="M946.92 963.2l-204.54 204.54c-26.98,24.72 -38.22,58.44 -38.22,92.16l728.26 0 -298.95 -296.7c-22.77,-22.76 -51.65,-35.49 -81.25,-38.2l-24.06 0c-29.59,2.71 -58.48,15.44 -81.24,38.2z"/><path fill="#1e9dd8" d="M1432.42 1259.9l-728.26 0c0,33.72 11.24,67.43 38.22,94.41l204.54 204.54 94.4 92.15 391.11 -391.1 -0.01 0z"/><path fill="#5cc4f0" d="M1041.31 1651l728.26 0c0,-33.71 -11.24,-67.43 -38.21,-92.15l-298.94 -298.95 -391.11 391.1z"/><path fill="#1e9dd8" d="M1432.42 2039.85l298.94 -296.69c26.98,-24.72 38.22,-58.44 38.22,-92.16l-728.27 0 391.11 388.85z"/><path fill="#354b88" d="M1041.31 1651l-94.4 92.16 -204.54 204.54c-26.98,26.97 -38.21,60.69 -38.21,92.15l728.26 0 -391.11 -388.85z"/><path fill="#485fa9" d="M742.38 2134.25l204.54 204.54c22.76,22.77 51.65,35.5 81.24,38.21l24.06 0c29.6,-2.71 58.48,-15.44 81.25,-38.21l298.95 -298.94 -728.26 0c0,33.72 11.24,67.44 38.22,94.41l0 -0.01z"/><path fill="#5cc4f0" d="M2704.61 2338.79l204.53 -204.54c24.72,-24.72 38.21,-58.44 38.21,-92.15l-728.24 0 296.69 296.69c22.77,22.77 52.08,35.5 82.17,38.21l24.47 0c30.09,-2.71 59.4,-15.44 82.17,-38.21z"/><path fill="#1e9dd8" d="M2219.11 2039.85l728.24 0c0,-33.71 -13.49,-67.43 -38.21,-92.15l-204.53 -204.54 -94.41 -92.16 -391.1 388.85 0.01 0z"/><path fill="#5cc4f0" d="M2610.21 1651l-730.5 0c0,33.72 13.49,67.44 40.46,92.16l298.95 298.95 391.1 -391.11 -0.01 0z"/><path fill="#1e9dd8" d="M2219.11 1259.9l-298.95 298.95c-26.97,24.72 -40.46,58.44 -40.46,92.15l730.51 0 -391.1 -391.1z"/><path fill="#354b88" d="M2610.21 1651l94.41 -92.15 204.53 -204.54c24.72,-26.98 38.21,-60.69 38.21,-94.41l-728.25 0 391.1 391.1z"/><path fill="#485fa9" d="M2909.14 1167.74l-204.53 -204.54c-22.77,-22.76 -52.08,-35.49 -81.97,-38.2l-24.28 0c-29.77,2.71 -58.52,15.44 -80.3,38.2l-298.95 296.7 728.24 0c0,-33.72 -13.49,-67.44 -38.21,-92.16z"/></g></g></svg>