<svg  id="fndm-zltesrl4ep" viewBox="0.376938134431839 0.2872925400733948 1357.5096435546875 274.108154296875" xmlns="http://www.w3.org/2000/svg">
   <g xmlns="http://www.w3.org/2000/svg" fill="none">
    <path d="m1182.05,131.32c0,-39.75 -0.1,-79.51 0.06,-119.26c0.05,-13.43 1.13,-11.51 11.72,-11.68c10.55,-0.17 21.11,-0.06 31.67,-0.03c7.9,0.02 8.74,0.88 8.75,8.56c0,20.64 0.08,41.28 -0.08,61.92c-0.03,3.38 0.68,4.38 4.26,4.18c17.53,-0.97 35.09,-2.06 52.64,-0.96c13.6,0.85 26.96,2.87 38.86,10.36c14.08,8.85 20.31,22.56 23.58,38c2.98,14.05 3.64,28.32 4.16,42.67c0.66,18.21 -0.13,36.24 -3.19,54.15c-2.4,14.02 -7.03,26.99 -18.06,37c-7.98,7.24 -17.49,10.9 -27.66,13.2c-22.45,5.09 -45.13,3.79 -67.83,2.22c-12.01,-0.83 -24.03,-1.43 -35.97,-2.96c-5.57,-0.71 -11.12,-1.71 -16.65,-2.71c-3.66,-0.66 -5.47,-3.13 -5.69,-6.74c-0.25,-3.95 -0.54,-7.91 -0.55,-11.86c-0.03,-38.69 -0.02,-77.37 -0.02,-116.06z" fill="#D41036"/>
    <path d="m82.1,173.09c0.34,-15.99 -0.31,-32.05 3.07,-47.84c2.98,-13.95 7.9,-26.91 19.5,-36.19c9.57,-7.66 20.97,-11.32 32.81,-12.67c24.01,-2.75 48.17,-2.91 72.08,0.85c26.82,4.22 42.2,20.56 47.07,47.15c2.15,11.72 3.47,23.52 3.49,35.41c0.02,17.69 0.77,35.41 -1.72,53.03c-1.88,13.36 -4.54,26.43 -12.66,37.7c-8.45,11.74 -20.59,17.78 -34.18,20.13c-28.29,4.9 -56.73,5.43 -84.9,-1.13c-23.37,-5.44 -36.31,-20.78 -40.64,-44.09c-3.22,-17.34 -4.41,-34.76 -3.92,-52.35z" fill="#2A343E"/>
    <path d="m1087.05,191.29c-17.59,0 -35.18,0.07 -52.77,-0.06c-3.16,-0.02 -4.71,0.21 -3.76,4.05c1.05,4.26 1.3,8.71 2.07,13.05c1.96,11.11 8.73,17.35 20.03,18.63c7.13,0.81 14.29,1.17 21.46,1.17c18.2,-0.01 36.41,-0.01 54.61,0c7.66,0 8.51,0.84 8.51,8.29c0,8.1 0.01,16.21 0,24.31c-0.01,5.9 -0.64,6.77 -6.51,7.81c-11.25,2 -22.6,3.17 -34.01,3.87c-13.43,0.82 -26.87,0.91 -40.31,0.51c-12.34,-0.38 -24.64,-1.12 -36.61,-4.66c-22.22,-6.57 -33.46,-22.51 -38.14,-44.18c-4.72,-21.86 -3.68,-43.94 -2.89,-66.05c0.37,-10.51 0.08,-21.07 1.98,-31.45c1.65,-8.99 4.38,-17.61 9.01,-25.68c7.44,-12.97 19.05,-19.77 32.96,-23.17c13.52,-3.3 27.38,-4.65 41.24,-4.38c14.89,0.29 29.74,1.29 44.4,4.82c20.83,5 32.68,18.35 37.95,38.33c5.26,19.95 5.48,40.38 5.38,60.83c-0.07,12.87 -1.13,13.98 -14.11,13.98c-16.84,-0.02 -33.66,-0.02 -50.49,-0.02z" fill="#D41036"/>
    <path d="m638.53,191.15c0,20.94 0.01,41.88 0,62.82c-0.01,9.14 -1.74,11.45 -10.83,13.44c-14.45,3.17 -29.14,4.67 -43.88,5.68c-18.45,1.27 -36.92,1.45 -55.38,0.61c-8.97,-0.4 -17.92,-1.62 -26.52,-4.41c-14.96,-4.85 -24.7,-15.04 -28.39,-30.22c-4.04,-16.64 -4.51,-33.38 0.45,-50.12c5.06,-17.08 16.77,-26.22 33.65,-29.58c13.34,-2.66 26.85,-3.58 40.45,-3.53c11.47,0.04 22.94,0.03 34.41,-0.01c1.51,-0.01 3.49,0.72 3.56,-2.12c0.13,-5.19 0.68,-10.4 -0.12,-15.54c-1.5,-9.66 -8.36,-15.91 -19.06,-17.33c-5.28,-0.7 -10.63,-1.09 -15.95,-1.13c-19.73,-0.13 -39.46,-0.04 -59.18,-0.06c-5.48,0 -6.28,-0.82 -6.28,-6.38c-0.01,-8.87 0.11,-17.73 -0.06,-26.6c-0.08,-4.25 1.53,-6.27 5.82,-7.1c26.86,-5.15 53.98,-5.68 81.15,-4.37c14.18,0.68 28.16,2.85 41.03,9.61c14.01,7.35 21.93,18.8 24.08,34.44c0.83,6.07 1.06,12.14 1.05,18.24c-0.01,17.89 0,35.77 0,53.66zm-238.84,-71.5c-9.73,0.3 -21.63,-0.26 -33.54,0.79c-14.23,1.26 -20.84,9.62 -22.71,21.1c-3.52,21.62 -3.69,43.5 -0.01,65.11c2.64,15.48 12,22.04 28.7,22.17c20.49,0.17 40.97,0.28 61.46,0.42c6.33,0.04 7.56,1.2 7.58,7.37c0.02,8.1 0.06,16.21 -0.01,24.31c-0.05,5.89 -1.41,7.57 -7.21,8.67c-23.21,4.4 -46.64,5.13 -70.18,4.27c-13.92,-0.51 -27.63,-1.97 -40.68,-7.31c-15.51,-6.35 -24.04,-18.52 -28.58,-34.03c-3.58,-12.23 -4.78,-24.76 -4.83,-37.47c-0.08,-20.01 -0.2,-40.04 1.32,-59.97c1.44,-18.81 6.64,-36.41 23.19,-48.09c9.7,-6.84 21.02,-9.78 32.59,-10.85c29.27,-2.72 58.5,-2.11 87.57,2.64c4.42,0.72 6.79,3.07 6.78,7.65c0,9.02 0.1,18.04 0,27.06c-0.05,4.36 -2.09,6.14 -6.7,6.16c-10.84,0.03 -21.7,0 -34.74,0zm-346.98,17.19l0,126.14c0,8.4 -0.77,9.184 -9.07,9.184c-12.08,0 -24.17,0.006 -36.25,-0.014c-5.46,-0.01 -6.71,-1.23 -6.98,-6.66c-0.06,-1.22 -0.02,-2.45 -0.02,-3.67l0,-249.98c0,-1.07 -0.03,-2.14 0.01,-3.21c0.22,-6.45 1.06,-7.3 7.63,-7.32c12.39,-0.03 24.78,-0.03 37.17,0c6.15,0.01 7.5,1.37 7.5,7.55c0.01,42.66 0.01,85.32 0.01,127.98z" fill="#2A343E"/>
    <path d="m747.91,204.27c3.89,-8.11 5.31,-16.99 7.72,-25.54c9.13,-32.46 17.91,-65.02 26.7,-97.58c0.89,-3.31 2.7,-5.15 5.9,-5.12c14.64,0.13 29.28,-0.56 43.92,0.33c3.71,0.22 4.78,1.93 4.71,5.14c0.47,7.72 -3,14.61 -4.88,21.77c-5.98,22.76 -12.49,45.37 -18.72,68.07c-0.85,3.09 -1.71,6.17 -3.17,9.05c-2.96,3.7 -3.02,8.42 -4.26,12.68c-6.01,20.54 -11.52,41.24 -17.66,61.74c-3.66,12.22 -11.72,17.56 -24.5,17.61c-11.43,0.05 -22.86,0.19 -34.29,0.29c-1.06,-1.67 -0.14,-3.26 0.27,-4.84c5.23,-20.08 11.07,-40 16.42,-60.06c0.34,-1.3 0.55,-2.71 1.84,-3.54zm123,0c2.87,-3.25 2.84,-7.58 3.9,-11.4c10.27,-36.91 20.35,-73.88 30.28,-110.89c1.23,-4.58 3.71,-6.09 8.08,-6.052c12.69,0.092 25.37,0.022 38.06,0.042c8.49,0.01 9.64,1.24 7.48,9.27c-5.16,19.23 -10.51,38.42 -15.84,57.61c-7.4,26.65 -14.86,53.29 -22.3,79.93c-2.82,10.1 -5.38,20.28 -8.54,30.28c-2.7,8.53 -7.35,15.7 -16.51,18.75c-1.94,0.65 -3.9,0.6 -5.88,0.61c-12.37,0.1 -24.75,0.21 -37.12,0.31c-0.86,-1.99 -0.17,-3.92 0.35,-5.81c5.46,-19.83 10.91,-39.66 16.42,-59.48c0.33,-1.17 0.48,-2.43 1.62,-3.17z" fill="#D41036"/>
    <path d="m747.91,204.27c-2,10.84 -5.57,21.26 -8.42,31.88c-3.27,12.22 -6.74,24.38 -10.12,36.57c-12.6,-0.86 -18.89,-9.2 -22.03,-19.99c-8.77,-30.2 -17.06,-60.55 -25.46,-90.86c-7.02,-25.33 -13.94,-50.69 -20.89,-76.04c-0.44,-1.61 -0.93,-3.24 -1.09,-4.88c-0.27,-2.85 0.92,-4.87 4.03,-4.89c15.13,-0.06 30.26,-0.04 45.39,-0.02c3.64,0.01 4.3,2.95 5.01,5.57c3.87,14.22 7.58,28.49 11.5,42.69c7.16,25.92 14.43,51.81 21.64,77.72c0.2,0.74 0.3,1.5 0.44,2.25zm123,0c-1.24,8.84 -4.34,17.21 -6.63,25.77c-3.81,14.25 -7.82,28.45 -11.76,42.68c-11.46,-0.73 -17.92,-7.74 -21.22,-17.83c-6.89,-21.09 -12.17,-42.65 -18.21,-63.99c-0.99,-3.51 -2,-7 -3,-10.51c-1.07,-4.26 1.96,-7.56 2.77,-11.4c2.53,-12.08 6.02,-23.96 9.5,-35.76c5.07,-17.18 9.19,-34.62 14.51,-51.72c2.6,4.38 2.93,9.46 4.25,14.21c10.04,36.14 19.88,72.35 29.79,108.55z" fill="#2A343E"/>
    <path d="m1234.49,172.53c0,-16.34 0.09,-32.68 -0.07,-49.02c-0.03,-3.38 0.53,-4.76 4.4,-4.67c13.42,0.33 26.84,0.11 40.25,0.86c13.14,0.74 20.34,6.54 23.73,19.26c3.52,13.22 1.92,26.7 1.98,40.07c0.03,7.44 0.21,14.92 -0.63,22.37c-0.56,4.92 -1.78,9.66 -4.02,13.94c-3.74,7.14 -10.19,10.5 -18.05,11.65c-15.25,2.22 -30.39,0.69 -45.55,-0.9c-2.93,-0.31 -1.98,-2.21 -1.99,-3.63c-0.07,-16.64 -0.05,-33.28 -0.05,-49.93zm-1026.67,1.46c0.6,11.14 -0.43,22.18 -2.29,33.17c-1.98,11.67 -7.31,17.57 -18.67,20.13c-10.38,2.34 -20.78,2.31 -31.24,0.18c-10.47,-2.13 -16.82,-8.45 -18.71,-18.71c-4.3,-23.42 -4.21,-46.9 0.35,-70.29c1.89,-9.7 8.12,-15.49 17.68,-17.45c10.72,-2.19 21.57,-1.95 32.27,0.04c11.44,2.13 17.31,9.34 19.02,22.42c0.67,5.12 1.27,10.26 1.54,15.41c0.26,5.03 0.05,10.07 0.05,15.1zm856.97,-16.76c-10.23,0 -20.46,-0.08 -30.69,0.06c-2.67,0.04 -3.83,-0.49 -3.7,-3.48c0.21,-4.88 0.44,-9.75 1.5,-14.5c2.67,-11.99 10.39,-18.36 22.44,-20.12c9.96,-1.45 19.75,-1.02 29.34,1.92c7.96,2.44 11.99,8.49 13.46,16.31c1.06,5.67 1.52,11.45 2.5,17.14c0.55,3.2 -1.51,2.67 -3.25,2.67c-10.53,0.01 -21.06,0 -31.6,0zm-478.37,52.43c0,5.19 -0.04,10.39 0.02,15.58c0.02,1.82 -0.12,3.32 -2.34,3.74c-15.68,2.93 -31.45,4.13 -47.24,1.46c-14.15,-2.39 -15.1,-11.2 -14.42,-22.79c0.74,-12.52 5.78,-16.78 18.47,-17.06c14.19,-0.31 28.4,-0.02 42.6,-0.15c2.56,-0.02 3.02,0.93 2.96,3.18c-0.15,5.35 -0.05,10.7 -0.05,16.04z" fill="#FEFEFE"/>
   </g>
  </svg>