<svg xmlns="http://www.w3.org/2000/svg" fill-rule="evenodd" clip-rule="evenodd" image-rendering="optimizeQuality" shape-rendering="geometricPrecision" text-rendering="geometricPrecision" viewBox="-2 1 6600 3300"><g><rect width="6600" height="3300" x="-2" y="1" fill="#0098da"/><g fill="#fefefe" fill-rule="nonzero"><path d="M503.64 1787.95c-20.33,0 -39.75,-4.01 -58.36,-12.05 -18.6,-7.94 -35.15,-19.5 -49.5,-34.58 -14.17,-15.07 -25.57,-33.43 -34.01,-55.15 -8.45,-21.72 -12.69,-46.24 -12.69,-73.44 0,-27.29 4.16,-51.95 12.44,-74.17 8.27,-22.21 19.83,-41.3 34.52,-57.38 14.58,-15.8 31.7,-28.1 51.54,-36.79 19.83,-8.59 40.98,-12.94 63.51,-12.94 16.8,0 31.96,2.05 45.48,6.23 13.61,4.09 26.56,9.91 38.86,17.46l9.83 -16.32 19.19 0 1.96 121.46 -19.67 0c-2.54,-11.81 -6.39,-24.59 -11.48,-38.44 -5.07,-13.76 -11.07,-25.48 -17.95,-35.07 -7.63,-10.81 -16.71,-19.34 -27.2,-25.5 -10.58,-6.13 -22.63,-9.18 -36.15,-9.18 -15.49,0 -29.82,3.44 -43.19,10.34 -13.27,6.88 -24.83,17.04 -34.5,30.49 -9.25,13.03 -16.55,29.5 -21.8,49.57 -5.24,20 -7.88,42.38 -7.88,67.05 0,21.8 2.79,41.72 8.3,59.9 5.48,18.2 13.27,34.18 23.51,47.94 10.16,13.62 22.29,24.28 36.22,31.98 13.94,7.69 29.51,11.54 46.73,11.54 12.85,0 24.75,-2.04 35.56,-6.13 10.91,-4.11 20.24,-9.52 28.26,-16.24 7.96,-7.04 14.92,-15.08 21,-24 6.05,-9.02 10.99,-18.77 14.82,-29.35l18.2 8.61c-13.76,33.85 -31.96,57.93 -54.66,72.44 -22.63,14.5 -49.66,21.72 -80.89,21.72zm369.68 -63.92c-9.9,18.85 -23.27,33.92 -39.98,45.15 -16.65,11.24 -35.89,16.8 -57.53,16.8 -19.11,0 -35.82,-3.36 -50.25,-10.08 -14.35,-6.72 -26.14,-15.8 -35.48,-27.28 -9.35,-11.56 -16.23,-25.01 -20.81,-40.32 -4.6,-15.33 -6.88,-31.57 -6.88,-48.61 0,-15.41 2.45,-30.49 7.37,-45.23 4.83,-14.76 12.05,-28.11 21.46,-39.92 9.18,-11.31 20.48,-20.49 34.11,-27.45 13.52,-6.97 28.75,-10.41 45.56,-10.41 17.38,0 32.2,2.71 44.58,8.19 12.29,5.41 22.37,12.88 30.08,22.29 7.37,8.95 12.87,19.5 16.47,31.63 3.6,12.15 5.41,25.34 5.41,39.59l0 15.82 -157.36 0c0,15.57 1.48,29.67 4.5,42.29 2.97,12.62 7.63,23.76 14.12,33.43 6.21,9.28 14.51,16.57 24.57,21.98 10.16,5.33 22.21,8.02 36.23,8.02 14.35,0 26.71,-3.36 37.05,-10.07 10.4,-6.64 20.4,-18.69 30.07,-36.14l16.71 10.32zm-53.58 -89.99c0,-8.93 -0.75,-18.52 -2.3,-28.68 -1.48,-10.24 -3.93,-18.78 -7.29,-25.58 -3.7,-7.37 -8.77,-13.34 -15.16,-17.94 -6.41,-4.68 -14.68,-6.96 -24.77,-6.96 -16.86,0 -30.88,6.96 -41.94,20.89 -11.15,14.02 -17.22,33.36 -18.21,58.27l109.67 0zm485.99 145.55l-116.05 0 0 -15.74c3.77,-0.31 7.55,-0.65 11.4,-0.98 3.76,-0.32 7.12,-0.89 10.07,-1.87 4.59,-1.47 7.96,-3.95 10.16,-7.55 2.22,-3.6 3.28,-8.27 3.28,-14.09l0 -122.11c0,-16.65 -3.77,-29.43 -11.38,-38.53 -7.55,-9.02 -17.06,-13.52 -28.37,-13.52 -7.78,0 -15.15,1.24 -22.05,3.6 -6.8,2.37 -13.11,5.74 -18.85,10.08 -4.66,3.54 -8.51,7.29 -11.64,11.4 -3.1,4.09 -5.4,7.45 -7.04,10.16l0 136.54c0,5.56 0.99,10.24 2.95,13.76 1.97,3.62 5.25,6.41 10.01,8.27 3.75,1.5 7.11,2.56 10.16,3.29 2.95,0.74 6.88,1.24 11.79,1.55l0 15.74 -113.59 0 0 -15.74c3.69,-0.31 7.29,-0.65 10.73,-0.98 3.46,-0.32 6.57,-0.89 9.51,-1.87 4.43,-1.47 7.79,-3.95 9.93,-7.55 2.2,-3.6 3.26,-8.27 3.26,-14.09l0 -122.11c0,-16.65 -3.75,-29.43 -11.3,-38.53 -7.63,-9.02 -17.04,-13.52 -28.36,-13.52 -7.79,0 -15.08,1.24 -21.96,3.69 -6.8,2.54 -13.11,5.9 -18.85,10.24 -4.58,3.52 -8.51,7.45 -11.72,11.88 -3.12,4.34 -5.58,7.7 -7.13,9.92l0 135.56c0,5.48 1.16,10 3.36,13.68 2.22,3.69 5.58,6.49 10.08,8.45 3.29,1.55 6.73,2.77 10.25,3.6 3.51,0.75 7.37,1.32 11.71,1.63l0 15.74 -115.54 0 0 -15.74c3.67,-0.31 7.53,-0.65 11.46,-0.98 3.93,-0.32 7.29,-0.89 10.16,-1.87 4.52,-1.47 7.88,-3.95 10.01,-7.55 2.2,-3.6 3.28,-8.27 3.28,-14.01l0 -147.04c0,-5.07 -1.16,-9.67 -3.44,-13.76 -2.38,-4.1 -5.58,-7.54 -9.77,-10.41 -3.03,-1.97 -6.8,-3.52 -11.23,-4.66 -4.5,-1.24 -9.1,-1.97 -13.93,-2.3l0 -15.75 79.75 -5.4 3.36 3.36 0 33.92 1.73 0c3.93,-3.93 8.76,-8.68 14.5,-14.09 5.74,-5.48 11.07,-9.83 16.06,-13.19 5.57,-3.85 12.54,-7.06 20.9,-9.59 8.35,-2.54 17.38,-3.85 27.12,-3.85 15.26,0 28.45,4.1 39.44,12.38 10.96,8.2 18.83,18.18 23.58,29.82 5.82,-5.56 10.84,-10.48 15.26,-14.74 4.34,-4.27 10.16,-8.77 17.37,-13.53 6.06,-4.18 13.19,-7.55 21.39,-10.08 8.2,-2.54 17.38,-3.85 27.36,-3.85 20.01,0 35.82,6.56 47.47,19.67 11.64,13.11 17.46,33.26 17.46,60.49l0 120.14c0,5.56 0.98,10.24 2.87,13.76 1.97,3.62 5.23,6.41 9.91,8.27 3.69,1.5 7.29,2.56 10.99,3.29 3.59,0.74 7.6,1.24 12.12,1.55l0 15.74zm238.4 -55.56c-9.91,18.85 -23.27,33.92 -39.98,45.15 -16.65,11.24 -35.89,16.8 -57.54,16.8 -19.1,0 -35.81,-3.36 -50.24,-10.08 -14.35,-6.72 -26.14,-15.8 -35.48,-27.28 -9.36,-11.56 -16.24,-25.01 -20.82,-40.32 -4.6,-15.33 -6.88,-31.57 -6.88,-48.61 0,-15.41 2.46,-30.49 7.38,-45.23 4.83,-14.76 12.05,-28.11 21.46,-39.92 9.18,-11.31 20.48,-20.49 34.11,-27.45 13.52,-6.97 28.75,-10.41 45.56,-10.41 17.38,0 32.2,2.71 44.58,8.19 12.29,5.41 22.37,12.88 30.08,22.29 7.37,8.95 12.87,19.5 16.47,31.63 3.6,12.15 5.4,25.34 5.4,39.59l0 15.82 -157.35 0c0,15.57 1.48,29.67 4.5,42.29 2.97,12.62 7.63,23.76 14.12,33.43 6.21,9.28 14.5,16.57 24.57,21.98 10.16,5.33 22.21,8.02 36.23,8.02 14.34,0 26.71,-3.36 37.05,-10.07 10.4,-6.64 20.4,-18.69 30.07,-36.14l16.71 10.32zm-53.58 -89.99c0,-8.93 -0.75,-18.52 -2.3,-28.68 -1.48,-10.24 -3.93,-18.78 -7.3,-25.58 -3.69,-7.37 -8.76,-13.34 -15.15,-17.94 -6.41,-4.68 -14.68,-6.96 -24.77,-6.96 -16.86,0 -30.88,6.96 -41.95,20.89 -11.14,14.02 -17.22,33.36 -18.2,58.27l109.67 0zm296.99 -62.77c9.44,11.15 16.73,24.18 21.88,38.92 5.17,14.84 7.8,31.73 7.8,50.82 0,18.69 -3.12,35.73 -9.35,51.22 -6.23,15.41 -14.43,28.6 -24.59,39.41 -10.66,11.07 -22.53,19.52 -35.56,25.5 -13.11,5.89 -26.97,8.84 -41.64,8.84 -14.17,0 -25.81,-1.63 -34.91,-4.83 -9.02,-3.19 -16.47,-6.88 -22.21,-11.23l-1.89 0 0 71.3c0,5.74 1.14,10.57 3.37,14.43 2.22,3.85 5.66,6.64 10.32,8.45 3.85,1.38 9.25,2.77 16.39,4.17 7.13,1.39 12.95,2.14 17.63,2.3l0 15.72 -132.78 0 0 -15.72c5.01,-0.34 9.75,-0.75 14.43,-1.24 4.6,-0.49 8.76,-1.22 12.46,-2.36 4.84,-1.57 8.12,-4.44 10.08,-8.37 1.89,-4.01 2.87,-8.77 2.87,-14.18l0 -251.94c0,-4.83 -1.23,-9.41 -3.61,-13.92 -2.38,-4.52 -5.49,-8.11 -9.34,-10.83 -2.87,-1.88 -6.88,-3.36 -11.97,-4.42 -5.17,-1.06 -10.09,-1.71 -14.92,-2.04l0 -15.75 81.22 -5.4 3.36 2.87 0 26.81 1.97 0.49c8.27,-9.59 18.52,-17.63 30.82,-24.02 12.21,-6.39 24.41,-9.59 36.54,-9.59 14.69,0 28.03,3.12 40.24,9.33 12.23,6.23 22.7,14.69 31.39,25.26zm-38.68 169.8c6.41,-9.91 11.06,-21.47 14.09,-34.58 3.05,-13.11 4.6,-27.77 4.6,-44.01 0,-11.79 -1.32,-23.92 -3.85,-36.31 -2.54,-12.28 -6.57,-23.03 -11.97,-32.21 -5.41,-9.26 -12.54,-16.79 -21.31,-22.53 -8.77,-5.82 -19.34,-8.69 -31.63,-8.69 -11.81,0 -21.88,2.62 -30.15,7.79 -8.3,5.24 -15.49,11.47 -21.57,18.69l0 140.13c1.48,4.35 3.78,8.77 7.06,13.45 3.26,4.68 6.96,8.69 10.89,12.05 4.99,4.01 10.32,7.21 16.06,9.75 5.74,2.45 12.8,3.69 21.07,3.69 8.93,0 17.54,-2.38 25.89,-7.13 8.28,-4.68 15.25,-11.4 20.82,-20.09zm313.88 -17.04c-9.91,18.85 -23.28,33.92 -39.99,45.15 -16.64,11.24 -35.89,16.8 -57.53,16.8 -19.11,0 -35.82,-3.36 -50.24,-10.08 -14.35,-6.72 -26.15,-15.8 -35.48,-27.28 -9.36,-11.56 -16.24,-25.01 -20.82,-40.32 -4.6,-15.33 -6.88,-31.57 -6.88,-48.61 0,-15.41 2.46,-30.49 7.37,-45.23 4.84,-14.76 12.05,-28.11 21.47,-39.92 9.18,-11.31 20.48,-20.49 34.1,-27.45 13.52,-6.97 28.76,-10.41 45.57,-10.41 17.37,0 32.19,2.71 44.58,8.19 12.28,5.41 22.37,12.88 30.07,22.29 7.37,8.95 12.88,19.5 16.47,31.63 3.6,12.15 5.41,25.34 5.41,39.59l0 15.82 -157.35 0c0,15.57 1.47,29.67 4.5,42.29 2.97,12.62 7.63,23.76 14.11,33.43 6.21,9.28 14.51,16.57 24.57,21.98 10.17,5.33 22.22,8.02 36.23,8.02 14.35,0 26.71,-3.36 37.05,-10.07 10.4,-6.64 20.41,-18.69 30.08,-36.14l16.71 10.32zm-53.59 -89.99c0,-8.93 -0.74,-18.52 -2.3,-28.68 -1.47,-10.24 -3.93,-18.78 -7.29,-25.58 -3.7,-7.37 -8.77,-13.34 -15.16,-17.94 -6.4,-4.68 -14.68,-6.96 -24.76,-6.96 -16.87,0 -30.88,6.96 -41.95,20.89 -11.15,14.02 -17.22,33.36 -18.2,58.27l109.66 0zm354.79 145.55l-153.42 0 0 -17.21c4.34,-0.32 10.55,-0.81 18.75,-1.48 8.12,-0.57 13.86,-1.55 17.22,-2.87 5.33,-2.04 9.18,-4.91 11.56,-8.51 2.38,-3.62 3.59,-8.61 3.59,-15l0 -246.61c0,-5.57 -0.9,-10.24 -2.61,-14.02 -1.81,-3.75 -5.9,-6.88 -12.54,-9.49 -4.76,-1.89 -10.81,-3.7 -18.11,-5.33 -7.31,-1.73 -13.2,-2.71 -17.86,-3.05l0 -17.2 153.42 0 0 17.2c-5.01,0.18 -10.91,0.75 -17.79,1.81 -6.88,1.06 -12.88,2.38 -17.95,3.93 -6.15,1.97 -10.24,5.1 -12.3,9.36 -2.05,4.34 -3.11,9.18 -3.11,14.41l0 246.36c0,5.32 1.14,10 3.44,14.01 2.38,4.11 6.31,7.39 11.97,9.77 3.36,1.3 8.77,2.7 16.4,4.17 7.6,1.55 14.09,2.38 19.34,2.54l0 17.21zm298.31 0l-116.55 0 0 -15.74c3.7,-0.31 7.79,-0.65 12.13,-0.98 4.45,-0.32 8.12,-0.89 10.99,-1.87 4.5,-1.47 7.86,-3.95 10.01,-7.55 2.2,-3.6 3.26,-8.27 3.26,-14.09l0 -121.62c0,-16.81 -3.93,-29.76 -11.79,-38.86 -7.95,-9.08 -17.54,-13.68 -28.86,-13.68 -8.43,0 -16.14,1.32 -23.1,3.93 -7.05,2.63 -13.29,5.9 -18.69,9.75 -5.25,3.69 -9.42,7.63 -12.54,11.89 -3.11,4.17 -5.33,7.63 -6.8,10.16l0 136.05c0,5.4 1.16,9.91 3.36,13.44 2.22,3.52 5.58,6.24 10.08,8.2 3.28,1.55 6.96,2.77 10.81,3.6 3.93,0.75 7.96,1.32 12.13,1.63l0 15.74 -116.52 0 0 -15.74c3.67,-0.31 7.52,-0.65 11.46,-0.98 3.93,-0.32 7.29,-0.89 10.16,-1.87 4.52,-1.47 7.88,-3.95 10,-7.55 2.21,-3.6 3.29,-8.27 3.29,-14.01l0 -146.05c0,-5.41 -1.16,-10.4 -3.44,-15 -2.38,-4.5 -5.59,-8.28 -9.77,-11.15 -3.03,-1.88 -6.63,-3.28 -10.74,-4.16 -4.16,-0.91 -8.68,-1.48 -13.44,-1.81l0 -15.75 79.26 -5.4 3.36 3.36 0 33.51 1.23 0c3.76,-3.85 8.59,-8.43 14.33,-13.84 5.74,-5.32 11.15,-9.67 16.24,-13.03 5.9,-3.85 12.96,-7.06 21.05,-9.59 8.12,-2.54 17.3,-3.85 27.46,-3.85 22.63,0 39.44,7.05 50.33,21.23 10.91,14.17 16.39,32.94 16.39,56.47l0 123.09c0,5.56 0.98,10.08 2.95,13.52 1.96,3.44 5.25,6.16 10,8.02 3.93,1.66 7.3,2.8 10.17,3.37 2.77,0.66 6.72,1.16 11.79,1.47l0 15.74zm262.5 -222.02c-7.22,1.32 -14.02,3.93 -20.49,7.88 -6.56,3.84 -12.05,10.81 -16.72,20.72 -9.42,21.41 -19.25,43.78 -29.33,66.97 -10.09,23.28 -20.5,47.69 -31.39,73.26 -3.21,7.37 -6.65,16.06 -10.24,26.15 -3.62,10.08 -6.9,19.75 -9.93,29.01l-18.77 0c-15.16,-37.52 -29.17,-71.79 -42.03,-102.77 -12.8,-30.9 -26.06,-62.62 -39.84,-95.08 -3.19,-7.29 -8.36,-13.03 -15.49,-17.12 -7.14,-4.1 -14.25,-6.64 -21.47,-7.78l0 -15.75 109.57 0 0 16.73c-4.84,0.16 -10.81,1.14 -18.03,2.95 -7.21,1.89 -10.81,4.35 -10.81,7.55 0,0.49 0.39,1.71 1.22,3.67 0.83,2.05 1.65,4.27 2.38,6.88 6.56,16.16 15.9,38.77 27.87,67.78 11.95,29.01 21.72,52.47 29.25,70.16 5.74,-13.61 13.03,-30.57 21.72,-50.89 8.69,-20.25 18.03,-42.95 28.11,-68.02 1.63,-4.26 3.13,-8.27 4.6,-11.97 1.38,-3.77 2.12,-7.55 2.12,-11.4 0,-2.69 -1.31,-5.15 -3.93,-7.29 -2.71,-2.12 -5.82,-4.01 -9.51,-5.64 -3.68,-1.58 -7.29,-2.79 -10.81,-3.54 -3.52,-0.81 -6.39,-1.4 -8.61,-1.71l0 -15.26 90.56 0 0 14.51zm220.53 166.46c-9.91,18.85 -23.28,33.92 -39.99,45.15 -16.64,11.24 -35.89,16.8 -57.53,16.8 -19.11,0 -35.82,-3.36 -50.24,-10.08 -14.35,-6.72 -26.15,-15.8 -35.48,-27.28 -9.36,-11.56 -16.24,-25.01 -20.82,-40.32 -4.6,-15.33 -6.88,-31.57 -6.88,-48.61 0,-15.41 2.46,-30.49 7.37,-45.23 4.84,-14.76 12.05,-28.11 21.47,-39.92 9.18,-11.31 20.48,-20.49 34.1,-27.45 13.52,-6.97 28.76,-10.41 45.56,-10.41 17.38,0 32.2,2.71 44.59,8.19 12.28,5.41 22.37,12.88 30.07,22.29 7.37,8.95 12.88,19.5 16.47,31.63 3.6,12.15 5.41,25.34 5.41,39.59l0 15.82 -157.35 0c0,15.57 1.47,29.67 4.5,42.29 2.97,12.62 7.63,23.76 14.11,33.43 6.21,9.28 14.51,16.57 24.57,21.98 10.17,5.33 22.22,8.02 36.23,8.02 14.35,0 26.71,-3.36 37.05,-10.07 10.4,-6.64 20.41,-18.69 30.08,-36.14l16.71 10.32zm-53.59 -89.99c0,-8.93 -0.74,-18.52 -2.3,-28.68 -1.47,-10.24 -3.93,-18.78 -7.29,-25.58 -3.7,-7.37 -8.77,-13.34 -15.16,-17.94 -6.4,-4.68 -14.68,-6.96 -24.76,-6.96 -16.87,0 -30.88,6.96 -41.95,20.89 -11.15,14.02 -17.22,33.36 -18.2,58.27l109.66 0zm237 29.91c6.57,5.74 11.56,12.39 15.08,19.92 3.54,7.54 5.25,16.72 5.25,27.54 0,21.87 -8.2,39.82 -24.49,53.76 -16.32,13.85 -37.47,20.81 -63.44,20.81 -13.77,0 -26.39,-2.53 -37.95,-7.62 -11.56,-5.07 -19.76,-9.75 -24.75,-13.92l-4.76 15.65 -18.18 0 -2.46 -82.13 16.71 0c1.32,6.31 4.01,13.6 8.12,21.98 4.19,8.35 9.18,15.98 15,22.7 6.23,7.12 13.68,13.11 22.37,17.95 8.69,4.83 18.43,7.21 29.27,7.21 15.23,0 27.02,-3.54 35.32,-10.5 8.27,-6.95 12.36,-17.04 12.36,-30.07 0,-6.72 -1.31,-12.46 -3.93,-17.38 -2.61,-4.83 -6.47,-9.1 -11.56,-12.79 -5.24,-3.68 -11.71,-7.04 -19.34,-9.99 -7.7,-2.95 -16.22,-5.82 -25.57,-8.69 -7.45,-2.3 -15.81,-5.33 -24.99,-9.26 -9.1,-3.93 -16.96,-8.53 -23.53,-13.78 -6.95,-5.56 -12.69,-12.44 -17.12,-20.64 -4.52,-8.11 -6.72,-17.71 -6.72,-28.77 0,-19.35 7.22,-35.64 21.55,-49.09 14.34,-13.44 33.61,-20.16 57.71,-20.16 9.26,0 18.67,1.23 28.34,3.61 9.67,2.36 17.54,5.23 23.61,8.59l5.48 -13.19 17.22 0 3.44 76.23 -16.72 0c-3.37,-16.88 -10.48,-30.58 -21.55,-41.14 -10.99,-10.57 -24.43,-15.9 -40.31,-15.9 -13.04,0 -23.3,3.26 -30.75,9.91 -7.45,6.56 -11.14,14.58 -11.14,23.94 0,7.11 1.24,13.19 3.69,17.94 2.46,4.84 6.14,8.85 11.15,12.21 4.74,3.2 10.73,6.23 18.02,9.02 7.22,2.77 16.14,5.98 26.8,9.42 10.57,3.36 20.5,7.29 29.76,11.79 9.33,4.45 17.04,9.44 23.01,14.84zm202.35 105.4c-10.4,4.27 -20.25,7.87 -29.5,10.81 -9.26,2.87 -20.64,4.35 -34.01,4.35 -19.83,0 -33.85,-4.99 -41.87,-15 -8.12,-9.98 -12.15,-24.18 -12.15,-42.36l0 -160.48 -42.77 0 0 -23.11 43.78 0 0 -73.76 43.75 0 0 73.76 67.86 0 0 23.11 -67.37 0 0 132.69c0,10 0.34,18.28 1.06,25 0.75,6.64 2.46,12.46 5.17,17.45 2.54,4.58 6.39,8.2 11.48,10.58 5.08,2.38 11.96,3.6 20.57,3.6 4.01,0 9.92,-0.42 17.61,-1.14 7.7,-0.75 13.21,-1.65 16.39,-2.79l0 17.29zm138.76 10.24l-115.05 0 0 -15.74c3.67,-0.31 7.53,-0.65 11.46,-0.98 3.93,-0.32 7.29,-0.89 10.16,-1.87 4.52,-1.47 7.88,-3.95 10.01,-7.55 2.2,-3.6 3.28,-8.27 3.28,-14.01l0 -146.05c0,-5.08 -1.16,-9.75 -3.44,-14.02 -2.3,-4.25 -5.51,-7.78 -9.59,-10.65 -3.03,-1.97 -7.38,-3.6 -13.12,-4.92 -5.66,-1.39 -10.91,-2.2 -15.66,-2.53l0 -15.75 83.68 -5.4 3.36 3.36 0 193.01c0,5.56 1.06,10.24 3.2,13.93 2.2,3.68 5.57,6.39 10.16,8.2 3.52,1.4 6.96,2.54 10.32,3.44 3.37,0.91 7.06,1.48 11.23,1.79l0 15.74zm-30 -333.14c0,9.18 -3.02,17.12 -9,23.92 -6,6.8 -13.37,10.24 -22.21,10.24 -8.12,0 -15.26,-3.28 -21.23,-9.74 -5.98,-6.47 -9.02,-13.84 -9.02,-22.22 0,-8.84 3.04,-16.55 9.02,-23.11 5.97,-6.55 13.11,-9.83 21.23,-9.83 9.18,0 16.63,3.12 22.45,9.26 5.81,6.15 8.76,13.36 8.76,21.48zm464.22 333.14l-116.06 0 0 -15.74c3.78,-0.31 7.55,-0.65 11.4,-0.98 3.76,-0.32 7.12,-0.89 10.07,-1.87 4.6,-1.47 7.96,-3.95 10.16,-7.55 2.22,-3.6 3.28,-8.27 3.28,-14.09l0 -122.11c0,-16.65 -3.77,-29.43 -11.38,-38.53 -7.55,-9.02 -17.06,-13.52 -28.36,-13.52 -7.79,0 -15.16,1.24 -22.06,3.6 -6.8,2.37 -13.11,5.74 -18.85,10.08 -4.66,3.54 -8.51,7.29 -11.63,11.4 -3.11,4.09 -5.41,7.45 -7.04,10.16l0 136.54c0,5.56 0.98,10.24 2.95,13.76 1.96,3.62 5.25,6.41 10,8.27 3.76,1.5 7.12,2.56 10.16,3.29 2.95,0.74 6.88,1.24 11.8,1.55l0 15.74 -113.6 0 0 -15.74c3.7,-0.31 7.3,-0.65 10.74,-0.98 3.45,-0.32 6.56,-0.89 9.51,-1.87 4.42,-1.47 7.78,-3.95 9.93,-7.55 2.2,-3.6 3.26,-8.27 3.26,-14.09l0 -122.11c0,-16.65 -3.76,-29.43 -11.3,-38.53 -7.63,-9.02 -17.05,-13.52 -28.37,-13.52 -7.78,0 -15.08,1.24 -21.96,3.69 -6.8,2.54 -13.11,5.9 -18.85,10.24 -4.58,3.52 -8.51,7.45 -11.71,11.88 -3.13,4.34 -5.58,7.7 -7.14,9.92l0 135.56c0,5.48 1.16,10 3.36,13.68 2.23,3.69 5.59,6.49 10.09,8.45 3.28,1.55 6.72,2.77 10.24,3.6 3.52,0.75 7.37,1.32 11.71,1.63l0 15.74 -115.54 0 0 -15.74c3.68,-0.31 7.53,-0.65 11.46,-0.98 3.93,-0.32 7.29,-0.89 10.16,-1.87 4.53,-1.47 7.89,-3.95 10.01,-7.55 2.2,-3.6 3.28,-8.27 3.28,-14.01l0 -147.04c0,-5.07 -1.16,-9.67 -3.44,-13.76 -2.38,-4.1 -5.58,-7.54 -9.77,-10.41 -3.02,-1.97 -6.8,-3.52 -11.22,-4.66 -4.5,-1.24 -9.1,-1.97 -13.94,-2.3l0 -15.75 79.75 -5.4 3.36 3.36 0 33.92 1.73 0c3.93,-3.93 8.77,-8.68 14.51,-14.09 5.74,-5.48 11.06,-9.83 16.06,-13.19 5.56,-3.85 12.54,-7.06 20.89,-9.59 8.36,-2.54 17.38,-3.85 27.13,-3.85 15.25,0 28.44,4.1 39.43,12.38 10.97,8.2 18.83,18.18 23.59,29.82 5.82,-5.56 10.83,-10.48 15.25,-14.74 4.35,-4.27 10.17,-8.77 17.38,-13.53 6.05,-4.18 13.19,-7.55 21.39,-10.08 8.19,-2.54 17.37,-3.85 27.36,-3.85 20.01,0 35.81,6.56 47.47,19.67 11.64,13.11 17.45,33.26 17.45,60.49l0 120.14c0,5.56 0.99,10.24 2.87,13.76 1.97,3.62 5.23,6.41 9.91,8.27 3.7,1.5 7.29,2.56 10.99,3.29 3.6,0.74 7.61,1.24 12.13,1.55l0 15.74zm238.4 -55.56c-9.91,18.85 -23.28,33.92 -39.99,45.15 -16.65,11.24 -35.89,16.8 -57.53,16.8 -19.11,0 -35.82,-3.36 -50.24,-10.08 -14.35,-6.72 -26.15,-15.8 -35.49,-27.28 -9.35,-11.56 -16.23,-25.01 -20.81,-40.32 -4.6,-15.33 -6.88,-31.57 -6.88,-48.61 0,-15.41 2.46,-30.49 7.37,-45.23 4.84,-14.76 12.05,-28.11 21.46,-39.92 9.18,-11.31 20.49,-20.49 34.11,-27.45 13.52,-6.97 28.76,-10.41 45.56,-10.41 17.38,0 32.2,2.71 44.59,8.19 12.28,5.41 22.36,12.88 30.07,22.29 7.37,8.95 12.88,19.5 16.47,31.63 3.6,12.15 5.41,25.34 5.41,39.59l0 15.82 -157.35 0c0,15.57 1.47,29.67 4.5,42.29 2.97,12.62 7.62,23.76 14.11,33.43 6.21,9.28 14.51,16.57 24.57,21.98 10.16,5.33 22.21,8.02 36.23,8.02 14.35,0 26.71,-3.36 37.05,-10.07 10.4,-6.64 20.41,-18.69 30.08,-36.14l16.71 10.32zm-53.59 -89.99c0,-8.93 -0.75,-18.52 -2.3,-28.68 -1.47,-10.24 -3.93,-18.78 -7.29,-25.58 -3.7,-7.37 -8.77,-13.34 -15.16,-17.94 -6.4,-4.68 -14.68,-6.96 -24.76,-6.96 -16.87,0 -30.89,6.96 -41.95,20.89 -11.15,14.02 -17.22,33.36 -18.2,58.27l109.66 0zm342.89 145.55l-116.54 0 0 -15.74c3.69,-0.31 7.78,-0.65 12.13,-0.98 4.44,-0.32 8.12,-0.89 10.99,-1.87 4.5,-1.47 7.86,-3.95 10,-7.55 2.2,-3.6 3.26,-8.27 3.26,-14.09l0 -121.62c0,-16.81 -3.93,-29.76 -11.79,-38.86 -7.94,-9.08 -17.53,-13.68 -28.86,-13.68 -8.43,0 -16.13,1.32 -23.09,3.93 -7.06,2.63 -13.29,5.9 -18.7,9.75 -5.25,3.69 -9.41,7.63 -12.54,11.89 -3.1,4.17 -5.32,7.63 -6.8,10.16l0 136.05c0,5.4 1.16,9.91 3.36,13.44 2.22,3.52 5.58,6.24 10.09,8.2 3.28,1.55 6.95,2.77 10.81,3.6 3.93,0.75 7.96,1.32 12.13,1.63l0 15.74 -116.53 0 0 -15.74c3.68,-0.31 7.53,-0.65 11.46,-0.98 3.93,-0.32 7.29,-0.89 10.16,-1.87 4.52,-1.47 7.89,-3.95 10.01,-7.55 2.2,-3.6 3.28,-8.27 3.28,-14.01l0 -146.05c0,-5.41 -1.16,-10.4 -3.44,-15 -2.38,-4.5 -5.58,-8.28 -9.77,-11.15 -3.03,-1.88 -6.62,-3.28 -10.73,-4.16 -4.17,-0.91 -8.69,-1.48 -13.45,-1.81l0 -15.75 79.26 -5.4 3.36 3.36 0 33.51 1.24 0c3.75,-3.85 8.59,-8.43 14.33,-13.84 5.74,-5.32 11.14,-9.67 16.24,-13.03 5.89,-3.85 12.95,-7.06 21.05,-9.59 8.12,-2.54 17.3,-3.85 27.46,-3.85 22.62,0 39.43,7.05 50.32,21.23 10.91,14.17 16.39,32.94 16.39,56.47l0 123.09c0,5.56 0.99,10.08 2.95,13.52 1.97,3.44 5.25,6.16 10.01,8.02 3.93,1.66 7.29,2.8 10.16,3.37 2.77,0.66 6.72,1.16 11.79,1.47l0 15.74zm174.48 -10.24c-10.4,4.27 -20.25,7.87 -29.51,10.81 -9.26,2.87 -20.64,4.35 -34,4.35 -19.84,0 -33.85,-4.99 -41.87,-15 -8.12,-9.98 -12.15,-24.18 -12.15,-42.36l0 -160.48 -42.77 0 0 -23.11 43.77 0 0 -73.76 43.76 0 0 73.76 67.85 0 0 23.11 -67.36 0 0 132.69c0,10 0.33,18.28 1.06,25 0.75,6.64 2.46,12.46 5.17,17.45 2.54,4.58 6.39,8.2 11.48,10.58 5.07,2.38 11.95,3.6 20.56,3.6 4.01,0 9.93,-0.42 17.61,-1.14 7.71,-0.75 13.21,-1.65 16.4,-2.79l0 17.29z"/><path d="M5061.01 1659.2c0,16.65 -2.61,32.94 -7.94,49.02 -5.25,16.06 -12.8,29.66 -22.63,40.89 -11.06,12.77 -23.84,22.29 -38.43,28.52 -14.6,6.23 -30.99,9.34 -49.1,9.34 -15.08,0 -29.42,-2.87 -43.03,-8.52 -13.6,-5.66 -25.73,-13.93 -36.3,-24.84 -10.4,-10.66 -18.78,-23.77 -24.91,-39.18 -6.15,-15.39 -9.26,-32.69 -9.26,-51.87 0,-36.96 10.81,-67.11 32.36,-90.64 21.56,-23.53 49.83,-35.24 84.76,-35.24 33.18,0 60.56,11.14 82.1,33.43 21.57,22.29 32.38,51.97 32.38,89.09zm-49.67 0.49c0,-12.05 -1.22,-24.67 -3.6,-38.02 -2.46,-13.36 -6.07,-24.67 -10.81,-33.93 -5.17,-9.92 -11.89,-17.86 -20.25,-23.86 -8.35,-5.97 -18.61,-9 -30.64,-9 -12.39,0 -22.88,3.03 -31.65,9.08 -8.77,6.07 -15.9,14.43 -21.31,24.92 -5.17,9.75 -8.77,20.9 -10.89,33.36 -2.06,12.46 -3.12,24.59 -3.12,36.23 0,15.31 1.23,29.5 3.77,42.54 2.46,13.03 6.39,24.67 11.89,34.91 5.49,10.24 12.37,18.28 20.56,24.1 8.28,5.82 18.52,8.76 30.75,8.76 20.07,0 35.97,-9.67 47.68,-29.01 11.72,-19.34 17.62,-46.06 17.62,-80.08zm239.81 4.26c6.57,5.74 11.56,12.39 15.08,19.92 3.53,7.54 5.24,16.72 5.24,27.54 0,21.87 -8.19,39.82 -24.49,53.76 -16.31,13.85 -37.46,20.81 -63.43,20.81 -13.78,0 -26.4,-2.53 -37.96,-7.62 -11.56,-5.07 -19.75,-9.75 -24.75,-13.92l-4.75 15.65 -18.18 0 -2.46 -82.13 16.71 0c1.31,6.31 4.01,13.6 8.11,21.98 4.19,8.35 9.18,15.98 15,22.7 6.23,7.12 13.68,13.11 22.37,17.95 8.69,4.83 18.44,7.21 29.27,7.21 15.24,0 27.03,-3.54 35.32,-10.5 8.28,-6.95 12.37,-17.04 12.37,-30.07 0,-6.72 -1.32,-12.46 -3.93,-17.38 -2.62,-4.83 -6.47,-9.1 -11.56,-12.79 -5.25,-3.68 -11.72,-7.04 -19.34,-9.99 -7.71,-2.95 -16.22,-5.82 -25.58,-8.69 -7.45,-2.3 -15.8,-5.33 -24.98,-9.26 -9.1,-3.93 -16.96,-8.53 -23.53,-13.78 -6.96,-5.56 -12.7,-12.44 -17.12,-20.64 -4.52,-8.11 -6.72,-17.71 -6.72,-28.77 0,-19.35 7.21,-35.64 21.54,-49.09 14.35,-13.44 33.61,-20.16 57.71,-20.16 9.26,0 18.68,1.23 28.35,3.61 9.67,2.36 17.53,5.23 23.61,8.59l5.48 -13.19 17.22 0 3.44 76.23 -16.73 0c-3.36,-16.88 -10.48,-30.58 -21.54,-41.14 -10.99,-10.57 -24.44,-15.9 -40.32,-15.9 -13.03,0 -23.29,3.26 -30.74,9.91 -7.45,6.56 -11.15,14.58 -11.15,23.94 0,7.11 1.24,13.19 3.7,17.94 2.46,4.84 6.13,8.85 11.14,12.21 4.74,3.2 10.74,6.23 18.03,9.02 7.21,2.77 16.14,5.98 26.79,9.42 10.58,3.36 20.5,7.29 29.76,11.79 9.34,4.45 17.04,9.44 23.02,14.84zm393.23 -40.8c7.22,8.02 12.55,16.78 15.99,26.3 3.44,9.51 5.15,20.58 5.15,33.28 0,30.07 -11.15,54.9 -33.36,74.42 -22.19,19.57 -49.83,29.32 -82.78,29.32 -15.23,0 -30.39,-2.37 -45.64,-7.13 -15.16,-4.82 -28.27,-10.56 -39.33,-17.28l-10.34 17.53 -19.17 0 -3.44 -116.54 19.66 0c4.03,14.35 8.69,27.38 14.01,38.94 5.43,11.56 12.47,22.37 21.23,32.45 8.36,9.42 18.03,16.97 29.17,22.53 11.07,5.58 24.02,8.37 38.79,8.37 10.97,0 20.64,-1.49 28.83,-4.34 8.28,-2.87 14.92,-6.9 20.09,-12.23 5.07,-5.25 8.85,-11.38 11.38,-18.51 2.46,-7.14 3.7,-15.34 3.7,-24.59 0,-13.53 -3.85,-26.23 -11.48,-37.94 -7.71,-11.72 -19.19,-20.66 -34.34,-26.72 -10.4,-4.18 -22.29,-8.76 -35.74,-13.85 -13.42,-5 -24.98,-9.75 -34.73,-14.25 -19.26,-8.69 -34.18,-20.02 -44.76,-34.03 -10.65,-14.02 -15.98,-32.38 -15.98,-54.9 0,-13.03 2.61,-25.08 7.94,-36.31 5.25,-11.22 12.8,-21.23 22.55,-30.07 9.26,-8.28 20.24,-14.84 32.86,-19.6 12.62,-4.66 25.81,-7.04 39.59,-7.04 15.65,0 29.66,2.46 42.13,7.29 12.36,4.84 23.68,10.48 33.92,16.89l9.83 -16.32 19.19 0 1.96 113.11 -19.67 0c-3.52,-12.95 -7.45,-25.34 -11.88,-37.21 -4.34,-11.81 -10.08,-22.55 -17.14,-32.14 -6.88,-9.26 -15.23,-16.71 -25.16,-22.21 -9.9,-5.49 -22.03,-8.28 -36.46,-8.28 -15.16,0 -28.11,4.84 -38.84,14.59 -10.73,9.77 -16.06,21.72 -16.06,35.73 0,14.77 3.44,26.89 10.32,36.57 6.88,9.67 16.88,17.61 29.99,23.84 11.64,5.58 23.12,10.5 34.42,14.51 11.31,4.1 22.22,8.53 32.79,13.11 9.57,4.18 18.85,8.94 27.7,14.17 8.84,5.33 16.55,11.48 23.11,18.54zm140.14 128.91c0,8.94 -3.29,16.63 -9.75,22.95 -6.47,6.31 -14.17,9.5 -23.2,9.5 -9,0 -16.71,-3.19 -23.19,-9.5 -6.47,-6.32 -9.75,-14.01 -9.75,-22.95 0,-9.03 3.28,-16.71 9.75,-23.2 6.48,-6.47 14.19,-9.75 23.19,-9.75 9.03,0 16.73,3.28 23.2,9.75 6.46,6.49 9.75,14.17 9.75,23.2zm373.97 27.53l-141.63 0 0 -17.21c12.54,-0.81 22.88,-2.36 31.16,-4.84 8.19,-2.36 12.28,-5.33 12.28,-8.85 0,-1.47 -0.08,-3.18 -0.41,-5.24 -0.31,-2.13 -0.81,-3.94 -1.47,-5.57l-28.19 -76.3 -119.57 0c-4.51,11.22 -8.12,20.99 -10.99,29.26 -2.77,8.36 -5.33,15.99 -7.53,23.02 -2.05,6.88 -3.54,12.54 -4.35,16.81 -0.82,4.34 -1.23,7.86 -1.23,10.57 0,6.39 5.09,11.39 15.17,14.92 10.07,3.52 21.47,5.57 34.09,6.22l0 17.21 -128.42 0 0 -17.21c4.17,-0.32 9.34,-1.22 15.64,-2.78 6.24,-1.47 11.31,-3.53 15.34,-6.07 6.39,-4.34 11.38,-8.85 14.92,-13.6 3.52,-4.76 6.96,-11.23 10.32,-19.58 17.12,-42.72 35.97,-90.74 56.63,-144.09 20.66,-53.27 39.1,-100.72 55.23,-142.35l19.27 0 113.57 293.89c2.38,6.23 5.1,11.3 8.12,15.15 3.05,3.86 7.3,7.55 12.8,11.25 3.6,2.28 8.43,4.17 14.33,5.64 5.99,1.55 10.91,2.38 14.92,2.54l0 17.21zm-136.95 -139.17l-51.72 -132.34 -50.89 132.34 102.61 0zm225.38 111.64c0,8.94 -3.28,16.63 -9.75,22.95 -6.46,6.31 -14.17,9.5 -23.19,9.5 -9,0 -16.71,-3.19 -23.2,-9.5 -6.46,-6.32 -9.75,-14.01 -9.75,-22.95 0,-9.03 3.29,-16.71 9.75,-23.2 6.49,-6.47 14.2,-9.75 23.2,-9.75 9.02,0 16.73,3.28 23.19,9.75 6.47,6.49 9.75,14.17 9.75,23.2z"/></g></g></svg>