<svg xmlns="http://www.w3.org/2000/svg" fill-rule="evenodd" clip-rule="evenodd" image-rendering="optimizeQuality" shape-rendering="geometricPrecision" text-rendering="geometricPrecision" viewBox="-2 1.0099999904632568 6599.990234375 3300"><g><rect width="6599.99" height="3300" x="-2" y="1.01" fill="none"/><g fill="#006038" fill-rule="nonzero"><path d="M1986.76 2267.08c17.35,0 30.41,-4.29 39.04,-12.92 8.71,-8.46 13.05,-20.04 13.05,-34.31 0,-15.14 -4.68,-26.9 -14.1,-35.36 -9.4,-8.36 -22.34,-12.57 -38.86,-12.57l-52.1 0 0 95.16 52.97 0zm-91.48 -129.55l88.1 0c17.64,0 32.57,2.42 44.72,7.27 12.14,4.82 21.98,10.98 29.58,18.66 7.5,7.55 13.06,16.18 16.52,25.8 3.42,9.64 5.17,19.48 5.17,29.38 0,17.57 -4.13,33.22 -12.41,46.76 -8.25,13.48 -21.08,23.59 -38.43,30.18l64.58 117.9 -44.76 0 -59.17 -112.96 -55.39 0 0 112.96 -38.51 0 0 -275.95z"/><path d="M2284.08 2300.53c-1.08,-14.91 -6.33,-27.57 -15.65,-38.07 -9.37,-10.45 -22.68,-15.67 -39.69,-15.67 -8.89,0 -16.83,1.39 -23.81,4.56 -7.11,2.99 -13.06,7.02 -18,11.97 -4.95,4.95 -8.89,10.63 -11.59,17.17 -2.86,6.47 -4.29,13.11 -4.6,20.04l113.34 0zm33.53 84.8c-2.16,2.39 -5.51,5.65 -9.93,9.55 -4.42,3.86 -10.15,7.54 -17.13,11.06 -7.07,3.69 -15.31,6.76 -24.85,9.41 -9.42,2.55 -20.3,3.94 -32.5,3.94 -14.87,0 -28.48,-2.55 -40.89,-7.55 -12.37,-4.85 -23.08,-11.92 -31.93,-20.93 -8.8,-9.25 -15.61,-20.09 -20.39,-32.84 -4.9,-12.58 -7.24,-26.64 -7.24,-42.2 0,-14.05 2.25,-27.11 6.99,-39.43 4.72,-12.28 11.32,-22.94 19.9,-31.85 8.51,-9.06 18.62,-16.08 30.46,-21.29 11.62,-5.25 24.59,-7.85 38.64,-7.85 16.53,0 30.71,3.21 42.55,9.46 11.88,6.42 21.64,14.79 29.14,25.24 7.6,10.5 13.2,22.51 16.75,35.95 3.55,13.54 5.37,27.64 5.37,42.21l-151.81 0c0.31,8.63 2.18,16.44 5.65,23.56 3.43,7.19 8.06,13.44 13.83,18.69 5.85,5.2 12.46,9.33 19.82,12.4 7.46,2.95 15.36,4.52 23.61,4.52 16.3,0 29.67,-2.73 40.12,-8.29 10.53,-5.51 18.08,-10.88 22.72,-16.1l21.12 22.34z"/><path d="M2511.2 2263.74c-2.73,-2.18 -7.9,-5.22 -15.22,-8.91 -7.52,-3.77 -18.1,-5.63 -31.93,-5.63 -9.12,0 -17.49,1.69 -25.02,4.95 -7.55,3.34 -14.19,8.06 -19.87,14.09 -5.6,6.03 -10.07,13.53 -13.2,22.42 -3.16,8.72 -4.8,18.7 -4.8,29.76 0,9.02 1.16,17.65 3.33,25.8 2.21,8.12 5.64,15.19 10.1,21.31 4.57,6.06 10.38,10.83 17.49,14.26 6.95,3.43 15.27,5.12 24.95,5.12 9.66,0 17.91,-1.77 24.79,-5.29 6.9,-3.6 12.41,-8.11 16.75,-13.49 4.34,-5.28 7.51,-11.32 9.63,-17.78 2.04,-6.46 3,-12.4 3,-17.91l0 -68.7zm0 125.26c-1.39,1.77 -3.65,4.2 -6.78,7.72 -3.21,3.47 -7.41,6.81 -12.61,10.06 -5.3,3.34 -11.45,6.21 -18.48,8.71 -7.02,2.53 -15.14,3.69 -24.55,3.69 -12.19,0 -23.51,-2.33 -33.96,-6.93 -10.45,-4.77 -19.57,-11.46 -27.29,-19.92 -7.76,-8.54 -13.71,-18.91 -18,-31.23 -4.25,-12.27 -6.38,-25.93 -6.38,-41.06 0,-18.23 3.12,-33.93 9.51,-46.98 6.33,-13.1 14.39,-23.94 24.2,-32.32 9.76,-8.37 20.39,-14.48 31.84,-18.43 11.44,-3.77 22.29,-5.73 32.44,-5.73 13.8,0 24.55,1.6 32.27,5 7.77,3.24 13.67,5.68 17.79,7.32l0 -91.35 37.21 0 0 234.1 0 22.12c0,6.24 0.18,12.84 0.47,19.6l-36.38 0 -1.3 -24.37z"/><path d="M2750.72 2300.53c-1.13,-14.91 -6.34,-27.57 -15.75,-38.07 -9.37,-10.45 -22.65,-15.67 -39.73,-15.67 -8.81,0 -16.74,1.39 -23.73,4.56 -7.07,2.99 -13.05,7.02 -18.05,11.97 -4.94,4.95 -8.8,10.63 -11.53,17.17 -2.81,6.47 -4.29,13.11 -4.6,20.04l113.39 0zm33.47 84.8c-2.21,2.39 -5.55,5.65 -9.93,9.55 -4.42,3.86 -10.1,7.54 -17.21,11.06 -7.03,3.69 -15.27,6.76 -24.81,9.41 -9.46,2.55 -20.26,3.94 -32.45,3.94 -14.84,0 -28.58,-2.55 -40.94,-7.55 -12.37,-4.85 -23.04,-11.92 -31.84,-20.93 -8.81,-9.25 -15.66,-20.09 -20.43,-32.84 -4.9,-12.58 -7.29,-26.64 -7.29,-42.2 0,-14.05 2.3,-27.11 7.04,-39.43 4.68,-12.28 11.27,-22.94 19.9,-31.85 8.55,-9.06 18.65,-16.08 30.36,-21.29 11.71,-5.25 24.64,-7.85 38.65,-7.85 16.57,0 30.75,3.21 42.59,9.46 11.88,6.42 21.61,14.79 29.19,25.24 7.59,10.5 13.18,22.51 16.78,35.95 3.56,13.54 5.38,27.64 5.38,42.21l-151.85 0c0.31,8.63 2.17,16.44 5.55,23.56 3.48,7.19 8.11,13.44 13.88,18.69 5.82,5.2 12.41,9.33 19.92,12.4 7.41,2.95 15.31,4.52 23.54,4.52 16.27,0 29.67,-2.73 40.12,-8.29 10.47,-5.51 18.09,-10.88 22.74,-16.1l21.11 22.34z"/><path d="M3061.3 2263.74c-2.7,-2.18 -7.91,-5.22 -15.24,-8.91 -7.5,-3.77 -18.08,-5.63 -31.91,-5.63 -9.12,0 -17.44,1.69 -25.04,4.95 -7.55,3.34 -14.17,8.06 -19.9,14.09 -5.6,6.03 -10.02,13.53 -13.15,22.42 -3.16,8.72 -4.77,18.7 -4.77,29.76 0,9.02 1.13,17.65 3.3,25.8 2.21,8.12 5.59,15.19 10.15,21.31 4.47,6.06 10.32,10.83 17.39,14.26 6.98,3.43 15.36,5.12 25.03,5.12 9.63,0 17.92,-1.77 24.73,-5.29 6.93,-3.6 12.49,-8.11 16.82,-13.49 4.3,-5.28 7.46,-11.32 9.55,-17.78 2.03,-6.46 3.04,-12.4 3.04,-17.91l0 -68.7zm0 125.26c-1.44,1.77 -3.65,4.2 -6.78,7.72 -3.16,3.47 -7.41,6.81 -12.61,10.06 -5.3,3.34 -11.41,6.21 -18.44,8.71 -7.03,2.53 -15.23,3.69 -24.6,3.69 -12.14,0 -23.45,-2.33 -33.92,-6.93 -10.49,-4.77 -19.6,-11.46 -27.37,-19.92 -7.67,-8.54 -13.66,-18.91 -18,-31.23 -4.15,-12.27 -6.37,-25.93 -6.37,-41.06 0,-18.23 3.16,-33.93 9.55,-46.98 6.33,-13.1 14.39,-23.94 24.24,-32.32 9.71,-8.37 20.34,-14.48 31.83,-18.43 11.46,-3.77 22.21,-5.73 32.45,-5.73 13.8,0 24.47,1.6 32.28,5 7.67,3.24 13.61,5.68 17.74,7.32l0 -91.35 37.2 0 0 234.1 0 22.12c0,6.24 0.17,12.84 0.44,19.6l-36.39 0 -1.25 -24.37z"/><path d="M3300.81 2300.53c-1.09,-14.91 -6.34,-27.57 -15.7,-38.07 -9.37,-10.45 -22.69,-15.67 -39.73,-15.67 -8.8,0 -16.7,1.39 -23.73,4.56 -7.11,2.99 -13.06,7.02 -18.04,11.97 -4.99,4.95 -8.81,10.63 -11.54,17.17 -2.82,6.47 -4.29,13.11 -4.6,20.04l113.34 0zm33.53 84.8c-2.25,2.39 -5.55,5.65 -9.98,9.55 -4.42,3.86 -10.1,7.54 -17.14,11.06 -7.06,3.69 -15.3,6.76 -24.84,9.41 -9.46,2.55 -20.3,3.94 -32.45,3.94 -14.83,0 -28.59,-2.55 -40.94,-7.55 -12.41,-4.85 -23.08,-11.92 -31.84,-20.93 -8.9,-9.25 -15.66,-20.09 -20.43,-32.84 -4.91,-12.58 -7.29,-26.64 -7.29,-42.2 0,-14.05 2.26,-27.11 6.98,-39.43 4.69,-12.28 11.33,-22.94 19.96,-31.85 8.51,-9.06 18.61,-16.08 30.37,-21.29 11.7,-5.25 24.59,-7.85 38.64,-7.85 16.56,0 30.75,3.21 42.59,9.46 11.89,6.42 21.64,14.79 29.19,25.24 7.55,10.5 13.14,22.51 16.75,35.95 3.6,13.54 5.37,27.64 5.37,42.21l-151.81 0c0.31,8.63 2.18,16.44 5.56,23.56 3.46,7.19 8.1,13.44 13.83,18.69 5.85,5.2 12.45,9.33 19.95,12.4 7.42,2.95 15.31,4.52 23.55,4.52 16.27,0 29.67,-2.73 40.08,-8.29 10.5,-5.51 18.09,-10.88 22.77,-16.1l21.13 22.34z"/><path d="M3490.61 2346.41c3.91,4.5 8.2,8.97 13.05,13.44 4.82,4.6 10.25,8.71 16.36,12.23 6.07,3.6 12.8,6.5 20.21,8.72 7.46,2.16 15.62,3.26 24.47,3.26 18.17,0 32.4,-4.12 42.62,-12.41 10.2,-8.25 15.28,-19.35 15.28,-33.53 0,-15.1 -5.82,-26.54 -17.3,-34.06 -11.64,-7.53 -28.33,-13.78 -50.06,-18.46 -11.89,-2.44 -22.65,-5.95 -32.32,-10.28 -9.63,-4.39 -17.95,-9.94 -25.02,-16.54 -7.03,-6.63 -12.46,-14.26 -16.32,-23.07 -3.94,-8.54 -5.89,-18.44 -5.89,-29.45 0,-10.28 1.95,-19.95 5.89,-28.97 3.86,-9.16 9.68,-17.14 17.35,-24.08 7.69,-6.77 17.36,-12.32 28.93,-16.52 11.63,-4.08 24.95,-6.12 40.13,-6.12 13.53,0 25.2,1.35 34.92,4.34 9.84,2.81 18.21,6.33 25.07,10.5 6.85,4.12 12.36,8.41 16.53,12.83 4.11,4.47 7.32,7.98 9.54,10.71l-26.46 24.43c-1.7,-1.92 -4.12,-4.47 -7.47,-7.72 -3.34,-3 -7.5,-6.21 -12.57,-9.24 -5.17,-3.08 -11.07,-5.51 -17.78,-7.64 -6.78,-2.08 -14.54,-3.07 -23.42,-3.07 -8.77,0 -16.41,1.16 -22.74,3.51 -6.28,2.39 -11.62,5.38 -15.75,9.06 -4.15,3.69 -7.19,7.98 -9.1,12.67 -1.92,4.6 -2.91,9.42 -2.91,14 0,6.86 1.52,12.76 4.34,17.57 2.99,4.82 7.12,9.08 12.63,12.75 5.5,3.91 12.4,6.99 20.5,9.68 8.17,2.52 17.4,5.11 27.9,7.58 10.28,2.49 20.25,5.73 30.05,9.77 9.73,4.03 18.48,9.33 26.25,16.09 7.72,6.81 13.88,15.05 18.38,24.81 4.56,9.85 6.81,21.73 6.81,35.83 0,11.88 -2.5,22.69 -7.36,32.62 -5.04,9.89 -11.8,18.6 -20.57,25.81 -8.67,7.36 -18.95,13.09 -30.79,17.04 -11.89,4.03 -24.69,6.04 -38.47,6.04 -13.02,0 -24.77,-1.62 -35.4,-4.65 -10.53,-2.99 -20.3,-6.85 -28.93,-11.53 -8.71,-4.74 -16.26,-9.82 -22.77,-15.53 -6.5,-5.65 -11.8,-11.19 -15.87,-16.75l28.06 -25.67z"/><path d="M3842.22 2322.42c-1.03,-0.26 -3.16,-0.6 -6.41,-1 -3.16,-0.43 -6.77,-0.78 -10.93,-1.04 -4.12,-0.3 -8.59,-0.57 -13.32,-0.86 -4.6,-0.17 -9.23,-0.36 -13.61,-0.36 -10.46,0 -18.92,1.22 -25.43,3.78 -6.45,2.38 -11.58,5.55 -15.26,9.24 -3.73,3.69 -6.24,7.85 -7.68,12.49 -1.39,4.52 -2.08,8.81 -2.08,12.98 0,10.4 3.64,18.34 10.76,23.71 7.16,5.47 17.09,8.07 29.79,8.07 7.16,0 13.97,-1.29 20.47,-3.68 6.47,-2.43 12.24,-5.81 17.14,-10.02 5.03,-4.12 9.03,-8.9 12.06,-14.41 2.99,-5.54 4.5,-11.19 4.5,-16.9l0 -22zm0.48 67.93c-7.19,9.58 -16.69,16.78 -28.36,21.38 -11.71,4.77 -23.82,7.11 -36.22,7.11 -8.02,0 -15.91,-1.08 -23.81,-3.16 -7.8,-2.04 -15.01,-5.47 -21.43,-10.24 -6.55,-4.9 -11.71,-11.06 -15.7,-18.61 -4.03,-7.63 -6.03,-16.96 -6.03,-27.93 0,-20.73 7.16,-37.35 21.73,-49.66 14.4,-12.49 35.31,-18.57 62.59,-18.57 4.42,0 9.16,0.09 14.05,0.39 4.99,0.22 9.72,0.47 14.05,0.73 4.43,0.27 8.29,0.62 11.67,0.88 3.26,0.3 5.64,0.56 6.98,0.82l0 -7.03c0,-14.35 -4.37,-24.68 -13,-30.88 -8.72,-6.21 -20.43,-9.19 -35.44,-9.19 -14.57,0 -26.11,1.99 -34.66,6.02 -8.54,3.95 -15.79,8.07 -21.55,12.15l-17.35 -25.24c3.24,-2.78 7.24,-5.6 11.96,-8.2 4.74,-2.78 10.24,-5.38 16.58,-7.72 6.38,-2.34 13.48,-4.26 21.51,-5.86 7.98,-1.47 17.22,-2.21 27.68,-2.21 24.9,0 44.32,5.99 58.55,17.95 14.27,12.06 21.26,29.12 21.26,51.15l0 90.95 0 20.91c0,6.81 0.17,12.49 0.46,17.18l-34.78 0 -0.74 -23.12z"/><path d="M4027.12 2133.85l40.56 0 -31.84 56.3 -31.1 0 22.38 -56.3zm-91 87.17l37.26 0 0 113.04c0,18.23 3.68,31.32 11.1,39.43 7.51,8.11 18.22,12.23 32.27,12.23 10.81,0 19.7,-2.25 26.77,-6.59 6.98,-4.38 12.7,-10.06 17.09,-17.13 4.43,-7.07 7.55,-15.01 9.37,-23.99 1.77,-9.02 2.64,-18.17 2.64,-27.59l0 -89.4 37.26 0 0 150.61 0 22.16c0,6.2 0.17,12.84 0.39,19.6l-35.57 0 -1.22 -28.5c-2.51,3.35 -5.54,6.9 -9.14,10.76 -3.56,3.86 -7.98,7.43 -13.23,10.55 -5.2,3.16 -11.24,5.85 -18.18,8.02 -6.84,2.3 -14.74,3.34 -23.59,3.34 -25.12,0 -43.5,-7.2 -55.39,-21.65 -11.89,-14.52 -17.83,-34.31 -17.83,-59.37l0 -115.52z"/><path d="M4308.78 2263.74c-2.7,-2.18 -7.81,-5.22 -15.24,-8.91 -7.5,-3.77 -18.04,-5.63 -31.88,-5.63 -9.15,0 -17.47,1.69 -25.07,4.95 -7.5,3.34 -14.14,8.06 -19.77,14.09 -5.68,6.03 -10.16,13.53 -13.28,22.42 -3.12,8.72 -4.77,18.7 -4.77,29.76 0,9.02 1.05,17.65 3.3,25.8 2.17,8.12 5.64,15.19 10.15,21.31 4.6,6.06 10.32,10.83 17.39,14.26 6.98,3.43 15.4,5.12 24.98,5.12 9.73,0 17.96,-1.77 24.81,-5.29 6.95,-3.6 12.46,-8.11 16.79,-13.49 4.25,-5.28 7.46,-11.32 9.55,-17.78 2.03,-6.46 3.04,-12.4 3.04,-17.91l0 -68.7zm0 125.26c-1.27,1.77 -3.61,4.2 -6.73,7.72 -3.21,3.47 -7.46,6.81 -12.63,10.06 -5.33,3.34 -11.44,6.21 -18.48,8.71 -7.02,2.53 -15.17,3.69 -24.59,3.69 -12.14,0 -23.46,-2.33 -33.96,-6.93 -10.5,-4.77 -19.47,-11.46 -27.28,-19.92 -7.68,-8.54 -13.66,-18.91 -17.91,-31.23 -4.29,-12.27 -6.51,-25.93 -6.51,-41.06 0,-18.23 3.16,-33.93 9.49,-46.98 6.34,-13.1 14.45,-23.94 24.21,-32.32 9.85,-8.37 20.43,-14.48 31.92,-18.43 11.46,-3.77 22.21,-5.73 32.45,-5.73 13.79,0 24.5,1.6 32.31,5 7.64,3.24 13.54,5.68 17.71,7.32l0 -91.35 37.2 0 0 234.1 0 22.12c0,6.24 0.22,12.84 0.48,19.6l-36.39 0 -1.29 -24.37z"/><path d="M4548.3 2300.53c-1.05,-14.91 -6.38,-27.57 -15.62,-38.07 -9.42,-10.45 -22.73,-15.67 -39.77,-15.67 -8.9,0 -16.83,1.39 -23.78,4.56 -7.11,2.99 -13.05,7.02 -18,11.97 -5.03,4.95 -8.84,10.63 -11.57,17.17 -2.78,6.47 -4.3,13.11 -4.56,20.04l113.3 0zm33.53 84.8c-2.27,2.39 -5.56,5.65 -9.99,9.55 -4.42,3.86 -10.1,7.54 -17.12,11.06 -7.04,3.69 -15.32,6.76 -24.87,9.41 -9.4,2.55 -20.29,3.94 -32.48,3.94 -14.74,0 -28.45,-2.55 -40.91,-7.55 -12.4,-4.85 -23.02,-11.92 -31.79,-20.93 -8.93,-9.25 -15.65,-20.09 -20.51,-32.84 -4.9,-12.58 -7.15,-26.64 -7.15,-42.2 0,-14.05 2.21,-27.11 6.93,-39.43 4.73,-12.28 11.32,-22.94 19.91,-31.85 8.5,-9.06 18.61,-16.08 30.36,-21.29 11.76,-5.25 24.64,-7.85 38.7,-7.85 16.52,0 30.75,3.21 42.54,9.46 11.89,6.42 21.65,14.79 29.24,25.24 7.55,10.5 13.14,22.51 16.69,35.95 3.61,13.54 5.43,27.64 5.43,42.21l-151.81 0c0.26,8.63 2.08,16.44 5.59,23.56 3.38,7.19 8.12,13.44 13.75,18.69 5.86,5.2 12.54,9.33 19.95,12.4 7.43,2.95 15.32,4.52 23.51,4.52 16.32,0 29.72,-2.73 40.13,-8.29 10.54,-5.51 18.09,-10.88 22.81,-16.1l21.09 22.34z"/><path d="M2537.9 1559.14c-4.42,-97.04 -9.93,-214.23 -8.89,-315.78l-3.29 0c-24.56,91.44 -55.83,193.02 -89.28,287.88l-110.55 325.78 -104.88 0 -100.37 -321.35c-29.01,-95.94 -55.74,-198.66 -75.86,-292.31l-2.26 0c-3.3,98.2 -7.76,217.58 -13.4,320.15l-16.7 302.42 -128.26 0 50.19 -752.04 180.73 0 98.12 302.37c26.89,88.14 50.23,177.53 69.27,261.11l3.3 0c20.07,-81.54 45.8,-174.1 74.73,-262.25l103.75 -301.23 178.58 0 43.54 752.04 -133.9 0 -14.57 -306.79z"/><path d="M3229.65 1735.39c0,49.06 2.27,97.02 8.94,130.55l-123.83 0 -10.11 -60.28 -3.3 0c-32.36,42.41 -89.26,72.51 -160.69,72.51 -109.36,0 -170.72,-79.24 -170.72,-161.69 0,-136.12 121.57,-206.47 322.48,-205.43l0 -8.85c0,-35.73 -14.52,-94.86 -110.48,-94.86 -53.52,0 -109.34,16.7 -146.16,40.21l-26.82 -89.3c40.22,-24.56 110.49,-47.98 196.37,-47.98 174.1,0 224.32,110.44 224.32,229.88l0 195.24zm-133.89 -135.03c-97.07,-1.08 -189.68,19 -189.68,101.59 0,53.57 34.58,78.02 78.04,78.02 55.86,0 94.89,-35.61 108.3,-74.69 3.34,-10.06 3.34,-20.03 3.34,-30.1l0 -74.82z"/><path d="M3514.13 1183.07l0 139.53 130.51 0 0 102.63 -130.51 0 0 239.9c0,66.89 17.86,100.42 70.26,100.42 24.51,0 37.95,-1.13 53.53,-5.65l2.29 103.84c-20.09,7.72 -56.86,14.44 -99.28,14.44 -51.32,0 -92.61,-16.64 -118.29,-44.63 -30.14,-31.23 -43.54,-81.45 -43.54,-152.8l0 -255.52 -76.99 0 0 -102.63 76.99 0 0 -101.54 135.03 -37.99z"/><path d="M3822.02 1632.76c3.38,98.2 79.24,140.53 167.29,140.53 63.68,0 108.27,-9.98 150.69,-24.51l20.13 93.79c-46.85,20.07 -111.61,34.43 -189.64,34.43 -176.36,0 -280.11,-108.13 -280.11,-274.44 0,-150.59 91.47,-292.29 265.54,-292.29 176.27,0 234.27,145.05 234.27,264.45 0,25.68 -2.21,45.72 -4.43,58.04l-363.74 0zm238.82 -95.9c1.04,-50.23 -21.25,-132.86 -112.68,-132.86 -84.85,0 -120.54,76.99 -126.14,132.86l238.82 0z"/><path d="M4283.91 1497.76c0,-73.7 -1.13,-127.3 -4.47,-175.14l118.2 0 5.69 102.61 3.33 0c26.73,-75.9 90.35,-114.93 149.47,-114.93 13.36,0 21.21,1.03 32.4,3.33l0 128.35c-12.32,-2.25 -24.63,-3.35 -41.29,-3.35 -64.67,0 -110.44,41.25 -122.71,103.71 -2.26,12.32 -3.38,26.77 -3.38,41.3l0 282.29 -137.24 0 0 -368.17z"/><path d="M4686.69 1123.95c61.33,-8.89 137.19,-15.58 218.65,-15.58 140.58,0 236.57,29.02 305.75,87.02 73.69,59.11 118.28,149.42 118.28,276.69 0,135.02 -45.81,234.34 -117.16,299.01 -74.78,68.02 -194.19,102.67 -340.35,102.67 -79.12,0 -139.46,-4.47 -185.17,-10.02l0 -739.79zm137.19 638.17c19.05,3.43 47.98,3.43 75.86,3.43 178.58,1.03 284.59,-98.25 284.59,-289.01 1.08,-165.21 -94.86,-261.11 -266.67,-261.11 -43.55,0 -73.65,3.33 -93.78,7.84l0 538.85z"/><path d="M5523.39 1632.76c3.38,98.2 79.25,140.53 167.42,140.53 63.59,0 108.22,-9.98 150.56,-24.51l20.12 93.79c-46.84,20.07 -111.6,34.43 -189.63,34.43 -176.36,0 -280.12,-108.13 -280.12,-274.44 0,-150.59 91.44,-292.2 265.56,-292.2 176.31,0 234.34,144.96 234.34,264.36 0,25.68 -2.25,45.72 -4.51,58.04l-363.74 0zm238.82 -95.9c1.13,-50.23 -21.16,-132.86 -112.69,-132.86 -84.79,0 -120.49,76.99 -126.13,132.86l238.82 0z"/><path d="M6131.47 1170.82c0,40.17 -30.1,73.61 -78.07,73.61 -45.8,0 -75.9,-33.44 -75.9,-73.61 0,-42.42 31.26,-74.78 77.03,-74.78 46.84,0 75.86,32.36 76.94,74.78zm-146.16 151.77l137.23 0 0 543.26 -137.23 0 0 -543.26z"/><path d="M1182.63 1004.21l0 376.02 376.01 0.09 0 219.29 -376.01 0 0 375.93 -219.39 0 0 -375.93 -376.01 0 0 -219.38 376.01 0 0 -376.02 219.39 0zm122.71 -122.74l-464.86 0 0 376.04 -375.96 0 0 464.81 375.96 0 0 375.97 464.86 0 0 -375.97 375.96 0 0 -464.81 -375.96 0 0 -376.04z"/></g></g></svg>