<svg xmlns="http://www.w3.org/2000/svg" x="0px" y="0px" viewBox="0 -0.43399810791015625 649.8819580078125 128"><g xmlns="http://www.w3.org/2000/svg"><path fill="#FF4600" d="m236.912,97.475c-18.414,0 -32.337,-13.025 -32.337,-33.685c0,-20.66 14.372,-34.134 32.562,-34.134c18.414,0 32.336,13.249 32.336,33.684c0,20.661 -14.147,34.135 -32.561,34.135m156.744,-45.137c-6.962,2.246 -10.555,4.94 -10.555,10.779c0,7.635 5.165,9.656 12.801,11.003c6.287,1.123 16.168,2.92 16.168,12.8c0,8.086 -7.635,11.005 -15.271,11.005l-40.421,0c-2.021,0 -3.368,-1.348 -3.368,-3.369l0,-61.98c0,-2.021 1.348,-3.368 3.368,-3.368l33.685,0c8.533,0 15.495,2.695 15.495,11.004c0,7.41 -6.064,10.329 -11.902,12.126m-72.758,-34.807l0,92.07c0,10.779 6.063,16.842 16.842,16.842l58.835,0c29.867,0 46.934,-13.249 46.934,-35.93c0,-13.922 -5.839,-23.803 -18.863,-30.091c8.309,-6.288 12.351,-15.046 12.351,-25.6c0,-21.333 -15.27,-34.133 -44.237,-34.133l-55.02,0c-10.78,0 -16.842,6.063 -16.842,16.842m-304.505,110.035c9.656,0 16.393,-6.737 16.393,-16.618l0,-67.593l35.48,21.109c1.572,0.898 4.267,2.47 8.309,2.47c3.593,0 6.737,-1.796 7.86,-2.47l35.93,-21.559l0,67.369c0,12.126 8.084,17.291 16.393,17.291c9.656,0 16.393,-6.961 16.393,-16.618l0,-94.764c0,-10.778 -6.962,-15.719 -15.72,-15.719c-2.919,0 -5.614,0.674 -8.308,2.246l-50.302,29.193c-1.123,0.673 -1.797,0.673 -2.92,0l-51.2,-28.969c-2.694,-1.571 -5.389,-2.47 -8.533,-2.47c-8.758,0 -16.168,4.941 -16.168,16.169l0,93.642c0,11.003 6.961,17.291 16.393,17.291m629.894,-101.502c2.472,-3.817 3.595,-7.41 3.595,-11.003c0,-4.716 -2.246,-8.758 -6.064,-11.453c-3.145,-2.245 -6.512,-3.368 -9.656,-3.368c-4.939,0 -9.656,2.47 -13.473,7.41l-37.053,48.73c-6.737,8.983 -11.453,16.618 -11.453,28.744l0,25.151c0,12.126 8.084,17.291 16.393,17.291c9.656,0 16.618,-6.961 16.618,-16.618l0,-28.07c0,-1.797 0.449,-3.145 1.572,-4.717l39.521,-52.097zm-86.906,-18.414l17.517,22.905c3.144,4.043 4.267,7.86 4.267,11.229c0,4.491 -2.471,8.533 -6.288,11.452c-2.919,2.246 -6.288,3.593 -9.207,3.593c-4.716,0 -9.207,-2.695 -13.249,-7.635l-18.414,-22.456c-2.92,-3.593 -4.267,-7.186 -4.267,-10.779c0,-4.491 2.47,-8.982 6.063,-11.902c2.92,-2.47 6.513,-3.817 9.881,-3.817c4.94,0 9.881,2.47 13.697,7.41m-18.862,87.579l-45.811,0c-2.021,0 -3.368,-1.347 -3.368,-3.368l0,-74.555c0,-12.126 -8.084,-17.291 -16.394,-17.291c-9.656,0 -16.617,6.962 -16.617,16.618l0,92.968c0,10.779 6.063,16.842 16.842,16.842l64.674,0c12.127,0 17.292,-7.186 17.292,-15.495c0,-9.656 -6.963,-15.719 -16.618,-15.719m-303.607,32.337c37.277,0 66.246,-27.846 66.246,-64.225c0,-36.603 -28.295,-63.775 -65.797,-63.775c-37.277,0 -66.47,27.846 -66.47,64.449c0,36.604 28.519,63.551 66.021,63.551"/></g></svg>