<svg xmlns="http://www.w3.org/2000/svg" xmlns:xlink="http://www.w3.org/1999/xlink" fill-rule="evenodd" clip-rule="evenodd" image-rendering="optimizeQuality" shape-rendering="geometricPrecision" text-rendering="geometricPrecision" viewBox="-2 1 6600 3300"><defs><linearGradient id="b" x1="1390.51" x2="1390.51" y1="2497.79" y2="1755.43" gradientUnits="userSpaceOnUse"><stop offset="0" stop-color="#b3282e"/><stop offset="0.490196" stop-color="#d0402a"/><stop offset="1" stop-color="#ee5925"/></linearGradient><linearGradient id="a" x1="3239.12" x2="4396.76" y1="2089.9" y2="1207.77" gradientUnits="userSpaceOnUse"><stop offset="0" stop-color="#aa212f"/><stop offset="0.580392" stop-color="#7a151f"/><stop offset="1" stop-color="#4a080e"/></linearGradient><linearGradient id="e" x1="2275.93" x2="3448.15" y1="2116.05" y2="1185.95" gradientUnits="userSpaceOnUse" xlink:href="#a"/><linearGradient id="c" x1="312.11" x2="1484.33" y1="2116.05" y2="1185.95" gradientUnits="userSpaceOnUse" xlink:href="#a"/><linearGradient id="h" x1="1390.38" x2="1390.38" y1="1542.98" y2="804.64" gradientUnits="userSpaceOnUse" xlink:href="#b"/><linearGradient id="d" x1="1294.02" x2="2466.24" y1="2116.05" y2="1185.95" gradientUnits="userSpaceOnUse" xlink:href="#a"/><linearGradient id="g" x1="3354.37" x2="3354.37" y1="2492.98" y2="2142.16" gradientUnits="userSpaceOnUse" xlink:href="#b"/><linearGradient id="j" x1="2372.42" x2="2372.42" y1="2497.79" y2="1755.43" gradientUnits="userSpaceOnUse" xlink:href="#b"/><linearGradient id="f" x1="2372.42" x2="2372.42" y1="2492.98" y2="799.83" gradientUnits="userSpaceOnUse"><stop offset="0" stop-color="#f89421"/><stop offset="0.580392" stop-color="#f68123"/><stop offset="1" stop-color="#f36e25"/></linearGradient><linearGradient id="i" x1="2372.29" x2="2372.29" y1="1542.98" y2="804.64" gradientUnits="userSpaceOnUse" xlink:href="#b"/><linearGradient id="k" x1="3354.33" x2="3354.33" y1="1542.98" y2="799.83" gradientUnits="userSpaceOnUse" xlink:href="#b"/></defs><g><rect width="6600" height="3300" x="-2" y="1" fill="none"/><g><g><path fill="#ed3237" fill-rule="nonzero" d="M6288.42 2354.64l78.93 -114.71 -42.86 -0.01 -58.71 88.11 -58.04 -88.11 -42.84 0 78.83 114.71 -84.63 121.38 42.85 0.01 63.93 -95.37 64.42 95.37 42.85 0 -84.73 -121.38zm-239.14 1.92c0,57.36 -22.53,90.63 -68.28,90.63 -38.01,0 -58.04,-23.98 -58.04,-68.96l0 -138.31 -35.6 0 0 137.35c0,69.35 29.02,104.07 88.61,104.07 1.18,0.03 2.4,0.06 3.6,0.06 27.82,0 54.06,-13.04 70.87,-35.19l0 29.8 34.25 0.01 0 -236.1 -35.7 0 0.29 116.64zm-414.18 -19.34c6.19,-40.91 30.28,-69.35 70.23,-69.35 39.94,0 65,27.37 68.29,69.35l-138.52 0zm130.68 -84.34c-17.53,-12.23 -38.44,-18.78 -59.81,-18.78 -30.33,0 -59.2,13.17 -79.08,36.07 -18.85,24.03 -29.11,53.71 -29.11,84.25 0,1.64 0.03,3.32 0.08,4.94 -0.06,1.69 -0.1,3.44 -0.1,5.14 0,30.58 11.16,60.12 31.34,83.07 20.78,21.62 49.5,33.88 79.49,33.88 1.75,0 3.51,-0.04 5.24,-0.13 0.15,0.01 0.31,0.01 0.45,0.01 35.88,0 69.7,-16.75 91.46,-45.26l-24.57 -22.63c-15.74,21.69 -40.91,34.57 -67.71,34.61 -46.24,0 -76.03,-29.01 -79.41,-79.02l175.64 0.01 0 -16.35c0,-38.69 -11.51,-74.76 -44.79,-99.82l0.88 0.01zm-300.51 169.65c-12.94,16.15 -32.57,25.57 -53.28,25.57 -0.84,0 -1.7,-0.03 -2.53,-0.05 -0.83,0.03 -1.67,0.05 -2.5,0.05 -20.87,0 -40.63,-9.39 -53.79,-25.58 -13.45,-18.81 -20.7,-41.43 -20.7,-64.56 0,-23.14 7.25,-45.75 20.7,-64.57 13.22,-16.18 33.02,-25.58 53.93,-25.58 0.78,0 1.59,0.02 2.36,0.05 0.79,-0.03 1.59,-0.05 2.39,-0.05 20.75,0 40.41,9.42 53.42,25.58 13.44,18.82 20.7,41.43 20.7,64.57 0,23.13 -7.26,45.75 -20.7,64.56l0 0.01zm-53.25 -188.44c-30.25,0 -62.12,14.14 -77.89,37.66l0 -133.59 -35.6 0 0 337.86 34.64 0 0 -32.3c19.92,23.83 49.44,37.62 80.52,37.62 30.15,0 58.88,-12.99 78.78,-35.61 19.89,-24.9 30.76,-55.89 30.76,-87.77 0,-31.89 -10.87,-62.88 -30.75,-87.77 -18.81,-22.87 -46.89,-36.13 -76.49,-36.13 -1.32,0 -2.65,0.03 -3.97,0.03zm-247.8 117.03c0,57.36 -22.64,90.63 -68.29,90.63 -38.01,0 -58.03,-23.99 -58.03,-68.96l0 -132.87 -35.6 0 0 137.35c0,69.35 29.01,104.07 88.5,104.07 1.17,0.03 2.38,0.05 3.56,0.05 27.86,0 54.14,-13.02 71.02,-35.19l0 29.8 34.14 0.02 0 -236.1 -35.59 0 0.29 111.2zm-304.87 66.73c-13.13,16.17 -32.86,25.57 -53.7,25.57 -0.83,0 -1.68,-0.02 -2.5,-0.04 -0.91,0.03 -1.87,0.06 -2.79,0.06 -20.65,0 -40.18,-9.42 -53.02,-25.59 -13.51,-18.8 -20.8,-41.42 -20.8,-64.57 0,-23.16 7.29,-45.77 20.8,-64.56 12.97,-16.16 32.6,-25.58 53.33,-25.58 0.82,0 1.67,0.02 2.47,0.04 0.77,-0.02 1.59,-0.04 2.37,-0.04 20.87,0 40.65,9.4 53.83,25.57 13.76,18.72 21.19,41.35 21.19,64.57 0,23.22 -7.43,45.84 -21.18,64.57zm21.59 -146.69c-19.1,-23.46 -47.75,-37.08 -77.99,-37.08 -0.43,0 -0.89,0.01 -1.32,0.01 -0.82,0 -1.68,-0.03 -2.5,-0.03 -29.58,0 -57.65,13.27 -76.43,36.12 -19.88,24.9 -30.76,55.89 -30.76,87.78 0,31.88 10.88,62.87 30.75,87.77 19.06,22.58 47.12,35.62 76.67,35.62 0.74,0 1.53,-0.01 2.26,-0.03 0.48,0.01 1.03,0.02 1.52,0.02 30.72,0 59.84,-13.82 79.25,-37.63l0 32.31 34.15 0 0 -337.86 -35.6 0 0 133zm1175.62 -300.42c-16.08,22.92 -42.13,36.87 -70.13,37.52 -26.88,0 -45.65,-15.38 -45.65,-38.69 0,-23.32 17.22,-41.88 53.4,-41.88 21.25,0.45 42.35,4.42 62.37,11.61l0.01 31.44zm-57.94 -177.88c-1.45,-0.08 -2.95,-0.11 -4.42,-0.11 -34.34,0 -65.92,18.88 -82.15,49.14l24.57 23.21c10.97,-23.59 34.65,-38.69 60.68,-38.69 0.27,0 0.57,0.01 0.83,0.01 34.63,0 58.03,20.31 58.03,55.52l0 24.08c-20.77,-6.91 -42.52,-10.86 -64.41,-11.61 -51.84,0 -87.05,27.47 -87.05,74.28 0,44.79 34.63,71.77 79.42,71.77 1.54,0.07 3.15,0.12 4.72,0.12 25.99,0 50.81,-10.89 68.39,-30.01l0 24.1 34.62 0 0 -149.25c0,-59.38 -36.07,-92.56 -93.34,-92.56l0.11 0zm-239.5 37.03l0.4 -31.24 -34.62 0 0 236.02 35.6 0 0 -100.6c0,-76.7 22.63,-104.56 78.44,-104.56 1.36,-0.1 2.75,-0.16 4.11,-0.16 1.37,0 2.75,0.06 4.11,0.15l0 -34.24c-1.75,-0.09 -3.56,-0.14 -5.32,-0.14 -1.77,0 -3.58,0.05 -5.33,0.14 -34.63,0 -56.3,9.1 -77.39,34.63zm-162.71 85.8c0,57.36 -22.54,90.63 -68.29,90.63 -38.01,0 -58.03,-24.08 -58.03,-68.96l0 -138.71 -35.5 0 0 137.25c0,69.45 29.02,104.18 88.41,104.18 1.14,0.04 2.35,0.06 3.5,0.06 27.91,0 54.23,-13.02 71.16,-35.18l0.01 29.71 34.14 0 0 -236.02 -35.59 0 0.19 117.04zm-359.14 -122.84c-0.8,-0.02 -1.66,-0.03 -2.48,-0.03 -31.22,0 -61.05,13.12 -82.15,36.11 -21.67,24.07 -33.67,55.37 -33.67,87.77 0,32.4 12,63.7 33.67,87.78 22.37,22.76 52.99,35.61 84.92,35.61 31.93,0 62.55,-12.85 84.92,-35.62 21.92,-23.04 34.17,-53.69 34.17,-85.51 0,-0.75 -0.02,-1.57 -0.02,-2.31 0.01,-0.8 0.03,-1.65 0.03,-2.45 0,-31.85 -12.45,-62.46 -34.66,-85.28 -21.12,-22.98 -50.96,-36.1 -82.19,-36.1 -0.84,0 -1.72,0.01 -2.54,0.03zm59.3 188.42c-15.29,16.28 -36.63,25.51 -58.96,25.51 -22.33,0 -43.68,-9.23 -58.96,-25.52 -14.91,-17.05 -23.16,-38.94 -23.16,-61.61 0,-0.99 0.02,-2.01 0.05,-2.99 -0.04,-1.04 -0.05,-2.11 -0.05,-3.16 0,-22.48 8.25,-44.17 23.17,-60.96 15.14,-16.53 36.53,-25.94 58.95,-25.94 22.42,0 43.8,9.41 58.96,25.93 14.84,16.9 23.06,38.66 23.06,61.17 0,0.97 -0.02,1.99 -0.05,2.96 0.03,0.9 0.05,1.86 0.05,2.78 0,22.71 -8.2,44.68 -23.06,61.82l0 0.01zm-350.97 -188.41c-1.03,-0.04 -1.96,-0.06 -2.86,-0.06 -28.67,0 -55.41,14.6 -70.9,38.73 -13.11,-23.93 -38.26,-38.83 -65.57,-38.83 -1.55,0 -3.11,0.06 -4.65,0.15 -26.71,0.02 -51.84,12.74 -67.7,34.24l0 -28.44 -34.73 0 0 236.02 35.69 0 0 -130c0,-50.2 21.57,-78.63 62,-78.63 35.11,0 52.91,23.69 52.91,70.89l0 137.74 35.79 0 0 -130c0,-50.2 21.67,-78.63 60.66,-78.63 36.56,0 54.84,22.73 54.84,68.48l-0.01 140.15 35.6 0 0 -137.16c0,-70.03 -30.28,-104.65 -91.07,-104.65z"/></g><g><g><path fill="url(#a)" d="M3354.81 2497.84l-5.97 0c-97.81,0 -177.83,-80.03 -177.83,-177.84l0 0c0,-97.81 80.02,-177.83 177.83,-177.83l270.48 0 -0.84 0.01c272.4,0 493.3,-220.9 493.3,-493.3 0,-272.4 -220.9,-493.29 -493.3,-493.29l-261.95 0 -1.82 -355.76 0 0 263.78 0c31.33,0 62.69,1.66 93.87,5.21 428.8,48.79 752.53,412.08 752.53,843.65 0,467.86 -378.6,847.7 -846.41,849.15l-263.67 0 0 0z"/><path fill="url(#c)" d="M1537.86 1098.79l-984.97 1323.08c-156.87,210.72 -427.46,-39.82 -294.32,-218.66l984.98 -1323.08c7.56,-10.17 15.4,-19.24 23.44,-27.31 32.65,-29.88 76.05,-48.18 123.52,-48.18l0 0c27.72,0 54.04,6.24 77.65,17.38 90.43,49.95 145.5,174.96 69.7,276.77z"/><path fill="url(#d)" d="M2519.77 1098.79l-984.97 1323.08c-14.83,19.93 -30.68,35.71 -47.11,47.84 -28.22,17.77 -61.55,28.07 -97.18,28.07l0 0c-34.45,0 -66.76,-9.63 -94.37,-26.34 -81.84,-54.57 -127.44,-171.81 -55.66,-268.23l984.98 -1323.08c7.57,-10.17 15.4,-19.24 23.44,-27.31 32.65,-29.88 76.05,-48.18 123.52,-48.18l0 0c27.72,0 54.05,6.24 77.66,17.38 90.42,49.95 145.49,174.96 69.69,276.77z"/><path fill="url(#e)" d="M3501.68 1098.79l-984.97 1323.08c-14.83,19.93 -30.68,35.71 -47.11,47.84 -28.22,17.77 -61.55,28.07 -97.18,28.07l0 0c-34.45,0 -66.76,-9.63 -94.37,-26.34 -81.84,-54.57 -127.44,-171.81 -55.65,-268.23l984.97 -1323.08c28.73,-38.6 61.28,-61.68 94.46,-72.58 15.33,-4.62 31.48,-7.27 48.18,-7.66 131.44,0.4 248.65,168.64 151.67,298.9z"/></g><path fill="url(#f)" d="M3354.33 799.83l0 0c100.83,0 183.33,82.5 183.33,183.33l0 1326.49c0,100.83 -82.5,183.32 -183.33,183.32l0 0c-100.83,0 -183.32,-82.49 -183.32,-183.32l0 -1326.49c0,-100.83 82.49,-183.33 183.32,-183.33zm-981.91 4.81l0 0c100.83,0 183.33,82.5 183.33,183.33l0 1326.49c0,100.83 -82.5,183.32 -183.33,183.32l0 0c-100.83,0 -183.32,-82.49 -183.32,-183.32l0 -1326.49c0,-100.83 82.49,-183.33 183.32,-183.33zm-981.91 0l0 0c100.83,0 183.33,82.5 183.33,183.33l0 1326.49c0,100.83 -82.5,183.32 -183.33,183.32l0 0c-100.83,0 -183.33,-82.49 -183.33,-183.32l0 -1326.49c0,-100.83 82.5,-183.33 183.33,-183.33z"/><path fill="url(#g)" d="M3171.09 2314.88c2.73,-95.47 81.66,-172.71 177.75,-172.71l188.82 0 0 167.48c0,100.83 -82.5,183.32 -183.33,183.32l0 0c-99.08,0 -180.45,-79.66 -183.24,-178.09z"/><path fill="url(#h)" d="M1537.86 1098.79l-330.68 444.19 0 -555.01c0,-34.47 9.65,-66.78 26.36,-94.4l10.01 -13.44c7.56,-10.17 15.4,-19.24 23.44,-27.31 5.02,-4.6 10.29,-8.92 15.79,-12.94l0.43 -0.31c0.98,-0.71 1.96,-1.41 2.96,-2.1l0.52 -0.36c0.97,-0.68 1.96,-1.35 2.95,-2l0.66 -0.44c0.95,-0.62 1.9,-1.24 2.87,-1.85l0.8 -0.5c0.9,-0.56 1.81,-1.12 2.72,-1.67l1.44 -0.85c0.76,-0.45 1.52,-0.89 2.28,-1.32 0.67,-0.38 1.33,-0.75 2,-1.12l1.72 -0.94c0.73,-0.4 1.46,-0.78 2.19,-1.16 0.67,-0.35 1.34,-0.69 2.01,-1.03 0.61,-0.31 1.23,-0.62 1.86,-0.93 0.67,-0.33 1.34,-0.65 2.02,-0.98 0.68,-0.32 1.37,-0.64 2.06,-0.96 0.63,-0.29 1.25,-0.58 1.88,-0.86 0.76,-0.34 1.51,-0.67 2.27,-1l1.79 -0.76c0.82,-0.34 1.63,-0.67 2.46,-1l1.61 -0.64c0.96,-0.38 1.93,-0.75 2.9,-1.11l1.13 -0.41c1.04,-0.38 2.08,-0.75 3.12,-1.11l0.98 -0.33c1.05,-0.35 2.1,-0.7 3.16,-1.03l1.11 -0.35c1.07,-0.33 2.15,-0.65 3.23,-0.97l1 -0.28c1.13,-0.32 2.26,-0.63 3.4,-0.93l0.81 -0.21c1.23,-0.32 2.45,-0.62 3.68,-0.91l0.63 -0.15c1.31,-0.3 2.63,-0.59 3.95,-0.86l0.63 -0.13c1.33,-0.27 2.67,-0.53 4,-0.77l0.48 -0.09c1.31,-0.23 2.64,-0.45 3.97,-0.66l0.59 -0.09c1.31,-0.2 2.62,-0.38 3.94,-0.55l0.58 -0.08c1.3,-0.16 2.61,-0.31 3.91,-0.45l0.69 -0.07c1.35,-0.13 2.69,-0.25 4.05,-0.36l0.43 -0.03c1.38,-0.11 2.76,-0.2 4.14,-0.27l0.52 -0.03c1.42,-0.07 2.84,-0.12 4.26,-0.16l0.33 -0.01c1.53,-0.04 3.07,-0.06 4.61,-0.06l0 0c1.53,0 3.05,0.02 4.57,0.06l0.27 0.01c1.49,0.04 2.97,0.09 4.46,0.17l0.23 0.01c3.01,0.15 6,0.38 8.97,0.69l0.33 0.03c1.44,0.15 2.87,0.31 4.3,0.49l0.31 0.04c1.4,0.19 2.8,0.38 4.19,0.6l0.33 0.05c1.38,0.21 2.75,0.44 4.12,0.68l0.52 0.1c1.32,0.24 2.65,0.49 3.96,0.76l0.61 0.13c1.27,0.26 2.52,0.54 3.78,0.83l0.57 0.13c1.28,0.3 2.56,0.61 3.83,0.94l0.74 0.19c1.13,0.3 2.26,0.6 3.39,0.92l1.14 0.33c1.06,0.31 2.11,0.62 3.16,0.94l1.1 0.35c1.1,0.35 2.2,0.7 3.29,1.07l1 0.35c1.02,0.34 2.02,0.7 3.03,1.07l1.42 0.52c0.9,0.34 1.8,0.68 2.7,1.03l1.57 0.62c0.81,0.33 1.62,0.66 2.43,1l1.67 0.71c0.8,0.35 1.6,0.7 2.4,1.06l1.78 0.81 1.52 0.71c90.4,49.97 145.45,174.95 69.66,276.75z"/><path fill="url(#b)" d="M1555.6 2393.94l-20.8 27.93c-14.82,19.91 -30.65,35.68 -47.06,47.8 -0.55,0.35 -1.09,0.69 -1.64,1.03l-1.37 0.83c-0.84,0.51 -1.69,1.02 -2.55,1.51l-1.19 0.69c-0.92,0.52 -1.84,1.04 -2.77,1.55l-1.17 0.64c-0.88,0.47 -1.76,0.94 -2.65,1.4l-1.24 0.64c-0.85,0.43 -1.7,0.86 -2.56,1.28l-1.51 0.73c-0.91,0.43 -1.82,0.86 -2.73,1.28l-1.12 0.51c-1,0.45 -2.01,0.89 -3.01,1.32l-0.92 0.39c-1.07,0.46 -2.15,0.9 -3.24,1.33l-0.99 0.4c-1.1,0.43 -2.2,0.85 -3.31,1.26l-0.86 0.32c-1.14,0.41 -2.27,0.81 -3.42,1.21l-0.81 0.27c-1.11,0.38 -2.23,0.74 -3.35,1.09l-0.91 0.29c-1.15,0.36 -2.31,0.7 -3.47,1.04l-0.64 0.18c-1.26,0.36 -2.54,0.71 -3.81,1.04l-0.54 0.14c-1.3,0.34 -2.61,0.65 -3.91,0.96l-0.55 0.13c-1.29,0.3 -2.59,0.58 -3.89,0.85l-0.59 0.12c-1.36,0.28 -2.71,0.54 -4.07,0.79l-0.27 0.04c-1.41,0.26 -2.84,0.5 -4.27,0.72l-0.05 0.01 -0.03 0 -0.11 0.02c-1.42,0.22 -2.85,0.41 -4.29,0.6l-0.25 0.03c-1.41,0.18 -2.82,0.35 -4.24,0.49l-0.45 0.05c-1.41,0.14 -2.83,0.27 -4.25,0.38l-0.35 0.03c-1.46,0.11 -2.92,0.2 -4.39,0.28l-0.21 0.01c-1.48,0.07 -2.97,0.13 -4.47,0.17l-0.27 0.01c-1.51,0.03 -3.02,0.05 -4.54,0.05l0 0c-1.53,0 -3.05,-0.02 -4.57,-0.06l-0.23 0c-1.51,-0.04 -3.02,-0.1 -4.53,-0.17l-0.11 -0.01c-1.53,-0.08 -3.05,-0.18 -4.56,-0.29l-0.09 -0.01c-1.46,-0.11 -2.92,-0.24 -4.38,-0.39l-0.37 -0.04c-1.4,-0.14 -2.8,-0.3 -4.2,-0.48l-0.42 -0.05c-1.39,-0.18 -2.78,-0.38 -4.16,-0.59l-0.39 -0.06c-1.38,-0.21 -2.75,-0.44 -4.11,-0.69l-0.47 -0.08c-1.33,-0.24 -2.65,-0.5 -3.97,-0.77l-0.6 -0.12c-1.29,-0.27 -2.56,-0.55 -3.84,-0.84l-0.62 -0.15c-1.27,-0.3 -2.53,-0.61 -3.79,-0.93l-0.62 -0.16c-1.23,-0.32 -2.45,-0.65 -3.66,-1l-0.85 -0.24c-1.11,-0.32 -2.22,-0.65 -3.32,-0.99l-1.07 -0.34c-1.05,-0.33 -2.1,-0.68 -3.15,-1.03l-1.15 -0.39c-1,-0.35 -2,-0.7 -3,-1.06l-1.3 -0.48c-0.95,-0.36 -1.9,-0.72 -2.84,-1.08l-1.41 -0.56c-0.9,-0.37 -1.81,-0.74 -2.71,-1.12l-1.33 -0.56c-0.9,-0.39 -1.8,-0.78 -2.69,-1.18l-1.57 -0.72c-0.82,-0.37 -1.63,-0.76 -2.45,-1.14l-1.69 -0.83c-0.77,-0.37 -1.53,-0.75 -2.29,-1.14l-1.63 -0.84c-0.7,-0.36 -1.41,-0.74 -2.11,-1.12 -0.62,-0.33 -1.23,-0.66 -1.84,-1 -0.68,-0.37 -1.36,-0.75 -2.03,-1.14l-1.82 -1.05c-0.64,-0.37 -1.28,-0.75 -1.91,-1.13l-0.52 -0.31c-37.24,-24.83 -66.97,-62.65 -81.56,-105.57 -4.81,-16.33 -7.4,-33.58 -7.4,-51.41l0 -35.08c4.41,-25.82 15.06,-51.67 33.3,-76.17l333.36 -447.78 0 559.03c0,28.43 -6.56,55.4 -18.24,79.48z"/><path fill="url(#i)" d="M2519.77 1098.79l-330.67 444.19 0 -555.01c0,-34.47 9.64,-66.78 26.35,-94.4l10.01 -13.44c7.57,-10.17 15.4,-19.24 23.44,-27.31 5.02,-4.6 10.29,-8.92 15.79,-12.94l0.43 -0.31c0.98,-0.71 1.96,-1.41 2.96,-2.1l0.52 -0.36c0.98,-0.68 1.96,-1.35 2.95,-2l0.66 -0.44c0.95,-0.62 1.91,-1.24 2.87,-1.85l0.81 -0.5c0.9,-0.56 1.8,-1.12 2.71,-1.67l1.44 -0.85c0.76,-0.45 1.52,-0.89 2.29,-1.32 0.66,-0.38 1.33,-0.75 1.99,-1.12l1.73 -0.94c0.72,-0.4 1.45,-0.78 2.19,-1.16 0.66,-0.35 1.33,-0.69 2,-1.03 0.62,-0.31 1.24,-0.62 1.86,-0.93 0.67,-0.33 1.34,-0.65 2.02,-0.98 0.68,-0.32 1.37,-0.64 2.06,-0.96 0.63,-0.29 1.25,-0.58 1.88,-0.86 0.76,-0.34 1.52,-0.67 2.28,-1l1.79 -0.76c0.81,-0.34 1.63,-0.67 2.45,-1l1.61 -0.64c0.97,-0.38 1.93,-0.75 2.9,-1.11l1.13 -0.41c1.04,-0.38 2.08,-0.75 3.12,-1.11l0.98 -0.33c1.05,-0.35 2.1,-0.7 3.16,-1.03l1.11 -0.35c1.07,-0.33 2.15,-0.65 3.23,-0.97l1 -0.28c1.13,-0.32 2.26,-0.63 3.4,-0.93l0.82 -0.21c1.22,-0.32 2.44,-0.62 3.67,-0.91l0.64 -0.15c1.31,-0.3 2.62,-0.59 3.94,-0.86l0.64 -0.13c1.32,-0.27 2.66,-0.53 4,-0.77l0.47 -0.09c1.32,-0.23 2.64,-0.45 3.97,-0.66l0.59 -0.09c1.31,-0.2 2.62,-0.38 3.94,-0.55l0.58 -0.08c1.3,-0.16 2.61,-0.31 3.92,-0.45l0.69 -0.07c1.34,-0.13 2.69,-0.25 4.04,-0.36l0.43 -0.03c1.38,-0.11 2.76,-0.2 4.14,-0.27l0.52 -0.03c1.42,-0.07 2.84,-0.12 4.27,-0.16l0.32 -0.01c1.53,-0.04 3.07,-0.06 4.61,-0.06l0 0c1.53,0 3.05,0.02 4.57,0.06l0.27 0.01c1.49,0.04 2.98,0.09 4.46,0.17l0.23 0.01c3.01,0.15 6,0.38 8.97,0.69l0.33 0.03c1.44,0.15 2.87,0.31 4.3,0.49l0.31 0.04c1.4,0.19 2.8,0.38 4.19,0.6l0.33 0.05c1.38,0.21 2.75,0.44 4.12,0.68l0.52 0.1c1.33,0.24 2.65,0.49 3.96,0.76l0.61 0.13c1.27,0.26 2.53,0.54 3.78,0.83l0.57 0.13c1.28,0.3 2.56,0.61 3.84,0.94l0.73 0.19c1.13,0.3 2.26,0.6 3.39,0.92l1.14 0.33c1.06,0.31 2.11,0.62 3.16,0.94l1.1 0.35c1.1,0.35 2.2,0.7 3.29,1.07l1.01 0.35c1.01,0.34 2.01,0.7 3.02,1.07l1.42 0.52c0.9,0.34 1.8,0.68 2.7,1.03l1.57 0.62c0.81,0.33 1.63,0.66 2.43,1l1.67 0.71c0.81,0.35 1.6,0.7 2.4,1.06l1.79 0.81 1.51 0.71c90.4,49.97 145.45,174.95 69.66,276.75z"/><path fill="url(#j)" d="M2537.51 2393.94l-20.8 27.93c-14.82,19.91 -30.65,35.68 -47.06,47.8 -0.54,0.35 -1.09,0.69 -1.63,1.03l-1.37 0.83c-0.85,0.51 -1.7,1.02 -2.56,1.51l-1.19 0.69c-0.91,0.52 -1.84,1.04 -2.76,1.55l-1.17 0.64c-0.88,0.47 -1.77,0.94 -2.66,1.4l-1.24 0.64c-0.85,0.43 -1.7,0.86 -2.56,1.28l-1.51 0.73c-0.91,0.43 -1.82,0.86 -2.73,1.28l-1.12 0.51c-1,0.45 -2,0.89 -3.01,1.32l-0.91 0.39c-1.08,0.46 -2.16,0.9 -3.25,1.33l-0.99 0.4c-1.1,0.43 -2.2,0.85 -3.31,1.26l-0.86 0.32c-1.13,0.41 -2.27,0.81 -3.42,1.21l-0.81 0.27c-1.11,0.38 -2.23,0.74 -3.35,1.09l-0.9 0.29c-1.16,0.36 -2.32,0.7 -3.48,1.04l-0.63 0.18c-1.27,0.36 -2.55,0.71 -3.82,1.04l-0.54 0.14c-1.3,0.34 -2.6,0.65 -3.91,0.96l-0.55 0.13c-1.29,0.3 -2.59,0.58 -3.89,0.85l-0.59 0.12c-1.35,0.28 -2.71,0.54 -4.07,0.79l-0.26 0.04c-1.42,0.26 -2.84,0.5 -4.27,0.72l-0.06 0.01 -0.03 0 -0.11 0.02c-1.42,0.22 -2.85,0.41 -4.28,0.6l-0.26 0.03c-1.41,0.18 -2.82,0.35 -4.24,0.49l-0.44 0.05c-1.42,0.14 -2.84,0.27 -4.26,0.38l-0.35 0.03c-1.46,0.11 -2.92,0.2 -4.39,0.28l-0.21 0.01c-1.48,0.07 -2.97,0.13 -4.46,0.17l-0.28 0.01c-1.51,0.03 -3.02,0.05 -4.54,0.05l0 0c-1.53,0 -3.05,-0.02 -4.57,-0.06l-0.22 0c-1.52,-0.04 -3.03,-0.1 -4.53,-0.17l-0.12 -0.01c-1.53,-0.08 -3.05,-0.18 -4.56,-0.29l-0.08 -0.01c-1.47,-0.11 -2.93,-0.24 -4.39,-0.39l-0.37 -0.04c-1.4,-0.14 -2.8,-0.3 -4.2,-0.48l-0.41 -0.05c-1.4,-0.18 -2.79,-0.38 -4.17,-0.59l-0.39 -0.06c-1.37,-0.21 -2.75,-0.44 -4.11,-0.69l-0.47 -0.08c-1.33,-0.24 -2.65,-0.5 -3.97,-0.77l-0.6 -0.12c-1.28,-0.27 -2.56,-0.55 -3.84,-0.84l-0.62 -0.15c-1.27,-0.3 -2.53,-0.61 -3.79,-0.93l-0.62 -0.16c-1.23,-0.32 -2.45,-0.65 -3.66,-1l-0.85 -0.24c-1.11,-0.32 -2.21,-0.65 -3.32,-0.99l-1.06 -0.34c-1.06,-0.33 -2.11,-0.68 -3.16,-1.03l-1.15 -0.39c-1,-0.35 -2,-0.7 -3,-1.06l-1.3 -0.48c-0.95,-0.36 -1.9,-0.72 -2.84,-1.08l-1.4 -0.56c-0.91,-0.37 -1.81,-0.74 -2.72,-1.12l-1.33 -0.56c-0.9,-0.39 -1.8,-0.78 -2.69,-1.18l-1.57 -0.72c-0.82,-0.37 -1.63,-0.76 -2.44,-1.14l-1.7 -0.83c-0.77,-0.37 -1.53,-0.75 -2.29,-1.14l-1.63 -0.84c-0.7,-0.36 -1.41,-0.74 -2.11,-1.12 -0.61,-0.33 -1.23,-0.66 -1.84,-1 -0.68,-0.37 -1.36,-0.75 -2.03,-1.14l-1.82 -1.05c-0.64,-0.37 -1.28,-0.75 -1.91,-1.13l-0.52 -0.31c-37.24,-24.83 -66.97,-62.65 -81.56,-105.57 -4.8,-16.33 -7.39,-33.58 -7.39,-51.41l0 -35.08c4.41,-25.82 15.06,-51.67 33.3,-76.17l333.35 -447.78 0 559.03c0,28.43 -6.56,55.4 -18.24,79.48z"/><path fill="url(#k)" d="M3459.4 1155.59l-288.39 387.39 0 -559.82c0,-27.59 6.18,-53.8 17.22,-77.32l19.14 -25.71c28.66,-38.49 61.11,-61.56 94.2,-72.5 0.75,-0.22 1.49,-0.45 2.24,-0.67l0.9 -0.26c1.18,-0.33 2.37,-0.65 3.55,-0.96l0.73 -0.19c1.24,-0.32 2.48,-0.63 3.73,-0.92l0.69 -0.16c1.21,-0.28 2.42,-0.54 3.64,-0.8l0.86 -0.17c1.23,-0.25 2.46,-0.49 3.7,-0.72l0.73 -0.13c1.23,-0.22 2.47,-0.42 3.71,-0.62l0.89 -0.14c1.21,-0.18 2.44,-0.35 3.66,-0.51l0.87 -0.11c1.22,-0.16 2.45,-0.3 3.69,-0.43l1.01 -0.1c1.22,-0.13 2.44,-0.23 3.66,-0.33l0.86 -0.07c1.26,-0.09 2.53,-0.17 3.81,-0.24l0.89 -0.05c1.25,-0.06 2.5,-0.1 3.75,-0.14l0.87 -0.02c1.57,0 3.14,0.05 4.71,0.11l-0.01 -0.16c100.66,0.21 182.95,82.62 182.95,183.32l0 172.43 -78.26 0z"/></g></g></g></svg>