<svg xmlns="http://www.w3.org/2000/svg" fill-rule="evenodd" clip-rule="evenodd" image-rendering="optimizeQuality" shape-rendering="geometricPrecision" text-rendering="geometricPrecision" viewBox="-1.9900000095367432 1 6599.990234375 3300"><g fill-rule="nonzero"><rect width="6599.99" height="3300" x="-1.99" y="1" fill="#5979f2"/><g fill="#fefefe"><path d="M4337.53 1747.98c0,1.91 0,3.63 -1.33,4.97 -20.66,73.25 -84.17,108.83 -160.66,108.44 -1.98,0.06 -4.05,0.11 -6.06,0.11 -25.14,0 -50.02,-5.34 -72.96,-15.6 -75.17,-35.2 -108.45,-116.67 -108.23,-203.51 0,-83.2 22.55,-147.85 84.92,-190.31 28.19,-18.71 61.34,-28.73 95.2,-28.73 1.16,0 2.37,0.02 3.51,0.04 93.13,0 163.14,55.27 174.22,148.62l-196.03 -0.01 -84.17 35.77 0 64.27 414.68 0c2.4,-17.05 3.62,-34.24 3.62,-51.45 0,-182.86 -136.74,-309.48 -317.49,-306.04 -1.84,-0.01 -3.84,-0.05 -5.71,-0.05 -54.84,0 -108.87,14.14 -156.68,40.98 -102.15,59.1 -150.74,167.93 -150.16,289.19 0.57,121.27 51.07,229.53 156.25,286.91 51.42,26.79 108.76,40.85 166.8,40.85 2.78,0 5.68,-0.05 8.42,-0.09 126.42,1.72 234.29,-65.23 275.43,-178.65 6.16,-14.44 10.27,-29.76 12.07,-45.35l-135.64 -0.36zm1562.91 51.75c33.39,-40.11 51.7,-90.76 51.7,-142.96 0,-3.33 -0.09,-6.77 -0.22,-10.07 0.13,-3.35 0.21,-6.75 0.21,-10.14 0,-52.99 -18.28,-104.43 -51.69,-145.53 -17.12,-18.87 -38.07,-34.01 -61.39,-44.34 -23.33,-10.31 -48.59,-15.66 -74.11,-15.66 -25.51,0 -50.78,5.35 -74.11,15.66 -23.32,10.32 -44.25,25.45 -61.39,44.33 -33.39,44.53 -51.47,98.67 -51.47,154.32 0,0 0,0.03 0,0.03 0,55.67 18.03,109.83 51.46,154.36 17.24,18.7 38.22,33.67 61.54,43.87 23.29,10.2 48.51,15.46 73.95,15.46 51.47,0 100.62,-21.54 135.52,-59.35l0 0.02zm180.71 -477.92l0 642.48 -117.84 0 -16.43 -97.74c-22.65,31.75 -52.33,57.97 -86.63,76.49 -36.04,18.99 -76.23,28.97 -116.99,28.97 -1.99,0 -4.07,-0.04 -6.03,-0.06 -1.66,-0.01 -3.51,0.03 -5.21,0.03 -53.07,0 -105.38,-13.69 -151.64,-39.64 -46.37,-26.84 -83.92,-66.78 -107.86,-114.74 -25.2,-51.22 -38.41,-107.72 -38.41,-164.86 0,-3.36 0.05,-6.82 0.14,-10.15 -0.03,-2.4 -0.07,-4.93 -0.07,-7.37 0,-57.26 13.58,-113.81 39.5,-164.81 24.73,-47.62 62.42,-87.41 108.62,-114.73 45.86,-26.79 98.19,-40.97 151.37,-40.97 1.35,0 2.82,0.03 4.14,0.03 1.99,-0.04 4.16,-0.08 6.21,-0.08 40.9,0 81.37,9.36 118.13,27.24 34.24,17.22 63.63,42.92 85.29,74.59l37.09 -94.1 96.62 -0.58zm-982.84 474.83c33.34,-39.54 51.67,-89.64 51.67,-141.38 0,-3.24 -0.08,-6.51 -0.21,-9.72 0.12,-3.44 0.24,-6.98 0.24,-10.47 0,-52.71 -18.28,-103.9 -51.69,-144.66 -34.97,-37.7 -84.09,-59.16 -135.52,-59.16 -51.43,0 -100.56,21.46 -135.5,59.17 -33.31,44.04 -51.36,97.81 -51.36,153.03 0,55.23 18.03,108.96 51.35,153.01 35.12,37.37 84.23,58.63 135.54,58.63 -0.01,0 -0.01,0 -0.01,0 51.32,0 100.37,-21.24 135.49,-58.65l0 0.2zm181.23 -474.8l0 616.46c0,90.28 -26.79,160.41 -80.33,210.4 -53.55,49.99 -136.46,74.85 -248.64,74.59 -87.11,0 -157.8,-19.44 -212.13,-58.34 -26.62,-18.78 -48.63,-43.48 -64.26,-72.07 -15.66,-28.57 -24.57,-60.45 -26.01,-92.99l138.08 0c3.55,17.01 10.47,33.21 20.3,47.55 9.83,14.33 22.47,26.61 37.07,36.03 32.69,19.35 70.05,29.64 108.06,29.64 2.92,0 5.94,-0.08 8.84,-0.18 122.9,0 184.37,-59.87 184.37,-179.6l0 -71.53c-46.91,70.38 -117.06,105.58 -210.37,105.58 -1.69,0 -3.51,0.04 -5.21,0.04 -53.1,0 -105.37,-13.66 -151.66,-39.63 -46.12,-26.49 -83.59,-65.78 -107.89,-113.05 -25.2,-50.53 -38.39,-106.37 -38.39,-162.88 0,-3.56 0.09,-7.26 0.18,-10.78 -0.05,-2.42 -0.09,-4.94 -0.09,-7.39 0,-56.83 13.62,-112.94 39.64,-163.42 24.76,-47.64 62.45,-87.43 108.65,-114.76 45.87,-26.78 98.19,-40.97 151.36,-40.97 1.36,0 2.82,0.04 4.14,0.04 2.12,-0.02 4.37,-0.09 6.52,-0.09 41.46,0 82.34,9.95 119.16,28.97 34.56,18.86 63.93,46.12 85.31,79.17l35.76 -100.42 97.54 -0.37zm-1653.34 61.78c44.38,45.78 66.57,118.78 66.57,219l0 363.41 -135.61 0.01 0 -363.04c0,-55.98 -11.29,-98.69 -33.85,-128.14 -22.59,-27.88 -56.56,-44.08 -92.43,-44.08 -2.66,0 -5.35,0.09 -7.99,0.26 -1.95,-0.07 -3.99,-0.12 -5.96,-0.12 -40.66,0 -79.21,18.25 -104.98,49.67 -26.77,35.82 -41.28,79.41 -41.28,124.16 0,4 0.13,8.05 0.36,12.02l-0.01 347.55 -136.76 0 0 -361.31c0,-57 -11.47,-99.9 -34.42,-128.72 -23.15,-27.56 -57.33,-43.48 -93.32,-43.48 -2.62,0 -5.27,0.08 -7.87,0.25 -1.6,-0.04 -3.27,-0.09 -4.88,-0.09 -41.06,0 -79.83,19.04 -104.9,51.54 -26.64,36.85 -41.05,81.23 -41.05,126.72 0,3.77 0.11,7.63 0.29,11.37l0 344.28 -135.59 0.01 0 -643.05 97.35 0 35.77 83.97c43.04,-57.65 110.86,-91.69 182.84,-91.69 1.78,0 3.62,0.03 5.37,0.06 1.51,-0.01 3.13,-0.04 4.67,-0.04 40.02,0 79.48,9.95 114.69,28.92 35.02,20.14 62.74,51 78.99,87.98 21.61,-35.97 52.41,-65.72 89.13,-86.05 38.57,-20.28 81.67,-30.91 125.29,-30.91 2.54,0 5.13,0.04 7.64,0.1 2.39,-0.05 4.91,-0.11 7.35,-0.11 61.99,0 121.4,25.11 164.58,69.56l0.01 -0.01zm-1755.31 311.47c21.24,46.8 55.48,86.69 98.51,114.76 43.63,26.65 93.85,40.75 144.98,40.75 51.13,0 101.35,-14.1 144.97,-40.74 43.03,-28.14 77.21,-68.03 98.51,-114.79 23.19,-51.85 35.2,-108.18 35.2,-165.05 0,-56.87 -12.01,-113.2 -35.18,-165.08 -21.32,-46.73 -55.5,-86.62 -98.5,-114.75 -43.65,-26.64 -93.86,-40.74 -145,-40.74 -51.13,0 -101.35,14.1 -144.98,40.74 -43.03,28.07 -77.27,67.96 -98.51,114.75 -23.18,51.88 -35.18,108.21 -35.18,165.08 0,56.88 12,113.21 35.18,165.09l0 -0.02zm612.49 59.76c-34.49,66.2 -87.02,121.46 -151.3,159.33 -67.63,37.84 -143.97,57.77 -221.49,57.77 -77.51,0 -153.86,-19.93 -221.46,-57.75 -64.3,-37.89 -116.83,-93.19 -151.33,-159.37 -35.33,-71.25 -53.8,-149.87 -53.8,-229.5 0,-79.62 18.47,-158.24 53.84,-229.55 34.45,-66.16 86.99,-121.42 151.26,-159.29 67.58,-37.84 143.98,-57.77 221.49,-57.77 77.51,0 153.92,19.93 221.51,57.74 64.26,37.9 116.79,93.16 151.3,159.34 35.37,71.34 53.78,149.9 53.78,229.54 0,79.63 -18.41,158.18 -53.78,229.49l-0.02 0.02z"/><path d="M1038.24 1958.57l-167.11 0c0.19,-138.81 55.43,-271.88 153.55,-370.01 98.08,-98.08 231.24,-153.36 370.02,-153.49l0 167.15c-94.45,0.09 -185.1,37.73 -251.87,104.46 -66.8,66.76 -104.46,157.4 -104.59,251.89l0 0zm-523.38 -356.36l0 -167.15c94.45,-0.09 185.08,-37.7 251.82,-104.48 66.74,-66.78 104.37,-157.42 104.46,-251.88l167.1 0.02c-0.12,138.74 -55.41,271.9 -153.44,369.99 -98.05,98.12 -231.2,153.38 -369.93,153.5l-0.01 0z"/></g></g></svg>