<svg  id="fndm-gixjxf9k92" viewBox="0.0800933837890625 0.12634500861167908 494.98828125 164.6947784423828" xmlns="http://www.w3.org/2000/svg">
   <g xmlns="http://www.w3.org/2000/svg" fill="none">
    <path d="m123.03,77.1c0,8.91 0.02,15.74 -0.01,22.57c-0.02,4.57 -2.16,6.75 -6.68,6.83c-5.74,-0.16 -14.05,1.77 -14,-6.52c-0.03,-12.43 -0.04,-24.86 -0.02,-37.29c-0.01,-6.83 -1.31,-15.6 -9.54,-16.45c-2.81,-0.38 -5.64,-0.22 -8.49,0.44c-2.25,0.52 -2.85,1.56 -2.84,3.77c0.07,16.1 0.02,32.2 0,48.3c-0.01,5.7 -2.05,7.76 -7.68,7.77c-6.28,-0.25 -14.25,1.89 -14.07,-7.11c-0.07,-16 -0.18,-32 -0.09,-47.99c0.02,-2.88 -0.91,-4.35 -3.69,-4.88c-21.7,-4.21 -16.44,17.14 -17.18,31.04c-0.11,7.34 -0.02,14.67 -0.05,22.01c-0.02,4.74 -2.16,6.87 -6.92,6.92c-2.65,0.03 -5.3,0.1 -7.95,-0.04c-3.47,-0.18 -5.83,-2.43 -5.8,-5.85c0.13,-15.07 -0.76,-30.17 0.48,-45.22c1.29,-15.7 11.78,-25.52 27.61,-26.23c7.89,-0.36 15.69,0.2 23.13,3.11c1.26,0.49 2.14,0.11 3.16,-0.26c11.46,-4.1 23,-4.04 34.42,-0.15c19.13,5.88 15.99,30.62 16.21,45.23zm304.63,-23.69l0,-45.83c0,-5.72 1.59,-7.34 7.18,-7.35c2.34,0 4.68,-0.02 7.03,0.01c4.74,0.04 6.52,1.87 6.52,6.76c0.01,15.48 0,30.96 0.01,46.44c0,3.93 0.54,4.42 4.46,3.73c3.85,-0.68 6.69,-2.85 8.56,-6.25c2.99,-5.43 6.05,-10.82 8.83,-16.35c1.87,-3.73 4.55,-5.49 8.75,-5.18c2.84,0.21 5.7,-0.04 8.55,0.09c4.49,0.21 5.86,2.51 3.73,6.46c-5.07,9.39 -10.13,18.79 -16.06,27.67c-1.24,1.85 -1.09,3.04 0.13,4.78c7.08,10.08 12.62,21.08 18.76,31.73c2.14,3.71 0.6,6.18 -3.66,6.33c-3.46,0.12 -6.92,0.08 -10.39,0.04c-3.18,-0.04 -5.26,-1.75 -6.74,-4.46c-3.61,-6.6 -7.23,-13.18 -10.94,-19.73c-2.15,-3.81 -4.79,-7.11 -9.56,-7.76c-3.58,-0.49 -4.39,0.16 -4.4,3.73c-0.02,7.13 -0.01,14.26 -0.04,21.39c-0.02,4.8 -2.04,6.78 -6.89,6.82c-5.85,-0.25 -13.98,1.9 -13.81,-6.62c-0.03,-15.49 -0.02,-30.97 -0.02,-46.45zm-229.59,14.03c-2.52,5.18 -7.17,7.63 -12.79,8.12c-9.96,0.88 -19.96,0.56 -29.94,0.45c-3.26,-0.04 -3.21,1.28 -2.67,3.55c4.3,16.56 26.14,12.14 38.41,8.36c2.25,-0.45 3.93,0.32 4.05,2.84c0.13,2.95 0.1,5.91 -0.02,8.86c-0.1,2.56 -1.99,3.61 -4.13,4.28c-6.56,2.05 -13.26,3.18 -19.66,3c-17.77,0.52 -35.96,-6.67 -38.98,-25.78c-3.45,-18.56 -0.82,-43.78 20.58,-49.58c26.09,-8.84 57.75,6.32 45.15,35.9zm-18.17,-12.95c-0.53,-9.39 -12.71,-12.19 -19.73,-7.81c-4.98,2.78 -7.61,7.09 -7.97,12.83c-0.11,1.68 0.58,2.05 2.1,2.01c3.35,-0.09 6.7,-0.03 10.05,-0.03l0,-0.01c3.05,0 6.09,0.02 9.14,0c4.84,-0.03 6.76,-2.11 6.41,-6.99zm71.07,13.36c0,-10.49 -0.01,-20.98 0,-31.47c0.01,-4.88 1.95,-6.82 6.84,-6.86c2.44,-0.02 4.89,-0.01 7.33,0c0.71,0 1.68,-0.23 2.09,0.14c3.86,3.46 7.89,0.75 11.73,0.23c18.54,-2.28 39.22,1.76 40.39,23.89c1.17,15.66 0.34,31.35 0.46,47.03c0.02,3.19 -2.35,5.43 -5.71,5.61c-3.25,0.18 -6.52,0.18 -9.77,0.02c-3.42,-0.17 -5.3,-2.53 -5.32,-6.53c-0.05,-11.81 -0.05,-23.63 -0.07,-35.44c0.33,-11.33 -5.18,-21.71 -17.94,-19.35c-9.09,1.66 -9.1,1.66 -9.11,10.85c-0.02,14.36 -0.02,28.72 -0.04,43.08c0.31,9.31 -7.29,7.2 -13.97,7.45c-4.86,-0.04 -6.91,-2.04 -6.92,-6.86c-0.01,-10.61 0.01,-21.2 0.01,-31.79zm105.88,0.09c-0.22,-19.37 6.74,-35.19 27.48,-38.02c10.04,-1.53 20.1,-1.32 29.93,1.77c6.51,1.69 5.47,8 4.98,13.3c-0.42,3.58 -1.58,4.34 -5.13,3.49c-3.46,-0.82 -6.86,-1.92 -10.34,-2.6c-11.22,-2.25 -24.96,1.62 -25.52,14.94c-1.02,11.65 -0.97,26.46 13.49,28.84c6.76,1.06 13.39,0.48 19.87,-1.76c6.45,-2.23 8.05,-1.07 8,5.85c-0.14,4.27 0.25,8.65 -4.79,10c-12.29,3.76 -24.67,4.35 -36.94,0.31c-16.85,-5.28 -20.76,-20.01 -21.03,-36.12zm-147.85,-19.06c0,-13.75 -0.01,-27.5 0,-41.25c0,-5.75 1.71,-7.43 7.47,-7.45c5.77,0.24 13.38,-1.78 13.18,6.56c0.2,26.58 -0.11,53.17 0.34,79.74c0.48,6.97 9.44,0.92 11.85,5.6c1.82,3.42 1.13,7.36 0.41,11.07c-0.29,1.48 -1.6,2.38 -3.07,2.66c-12.56,2.75 -30.03,1.01 -29.96,-15.38c-0.09,-13.85 -0.03,-27.7 -0.03,-41.55l-0.19,0zm139.76,19.14c0,10.29 0.01,20.57 0,30.86c0,5.75 -1.88,7.59 -7.72,7.6c-5.35,-0.12 -13.1,1.47 -13.08,-6.2c-0.04,-21.49 -0.04,-42.98 -0.01,-64.47c-0.01,-8.4 8.76,-5.99 14.45,-6.29c4.28,0.07 6.33,2.1 6.34,6.42c0.04,10.69 0.01,21.38 0.02,32.08z" fill="#003659"/>
    <path d="m8.82,56.43c-5.28,0.25 -9.61,-0.53 -8.59,-6.88c2.09,-14.67 9.94,-25.54 22.6,-33c4.95,-2.91 10.32,-4.78 16.06,-5.43c3.75,-0.42 6.06,1.46 6.43,5.19c-0.05,2.72 0.77,5.87 -0.26,8.14c-1.07,2.32 -4.51,1.37 -6.87,1.94c-12.68,3.07 -22.28,13.87 -23.41,26.6c-0.3,3.45 -0.3,3.45 -5.96,3.44z" fill="#E2A24E"/>
    <path d="m155.65,130.61c3.84,4.84 7.69,9.67 11.78,14.83c4,-5.04 7.9,-9.94 11.8,-14.85c0.2,0.08 0.4,0.17 0.61,0.25c0,8.19 -0.01,16.37 0.01,24.56c0,1.02 -0.39,1.44 -1.44,1.44c-1.42,0 -1.31,-0.95 -1.31,-1.87l0,-17.78c-3.05,3.87 -5.66,7.03 -8.08,10.32c-1.2,1.63 -1.89,1.96 -3.21,0.07c-2.33,-3.32 -4.92,-6.47 -7.41,-9.69c-1.11,0.27 -0.62,1.15 -0.62,1.74c-0.04,5.09 -0.01,10.17 -0.03,15.26c0,0.87 0.23,1.89 -1.23,1.95c-1.28,0.06 -1.53,-0.57 -1.52,-1.66c0.02,-8.1 0.01,-16.2 0.01,-24.3c0.2,-0.09 0.42,-0.18 0.64,-0.27z" fill="#073B5D"/>
    <path d="m348.12,143.17c0.16,-1.35 0.11,-2.53 1.84,-2.3c1.103,0.146 1.166,0.752 1.119,1.38l-0.026,0.296c-0.013,0.132 -0.023,0.26 -0.023,0.384c0.03,6.62 0.02,13.24 0.02,19.87l0,0.11l0.004,0.217c0.016,0.903 0.01,1.729 -1.454,1.693c-1.69,-0.04 -1.33,-1.19 -1.34,-2.13c-0.03,-2.64 -0.01,-5.28 -0.01,-8.41c-3.45,3.67 -9.04,3.76 -11.9,-0.25c-5.35,-7.78 3.11,-18.58 11.77,-10.86zm0.28,5.45c-0.19,-7.87 -11.31,-7.64 -10.87,0.49c0.06,7.77 11.3,7.2 10.87,-0.49z" fill="#073B5E"/>
    <path d="m258.48,142.96c4.03,-3.31 4.5,-3.35 9.16,-0.1c1.01,0.7 1.19,-0.1 1.62,-0.5c1.97,-1.83 4.17,-2.48 6.71,-1.36c2.51,1.11 3.13,3.28 3.13,5.78c-0.01,2.75 0,5.5 0,8.25c0,0.91 0.15,1.85 -1.33,1.82c-1.51,-0.03 -1.22,-1.05 -1.23,-1.91c-0.03,-2.75 0,-5.5 -0.02,-8.25c0.28,-4.65 -6.18,-5.09 -7.31,-0.85c-0.88,2.9 -0.25,5.87 -0.47,8.8c-0.07,0.89 0.48,2.14 -1.25,2.2c-1.75,0.05 -1.31,-1.19 -1.33,-2.1c-0.04,-2.55 -0.04,-5.09 -0.01,-7.64c0.02,-2.17 -0.62,-3.95 -3.07,-4.12c-6.12,-0.29 -4.39,7.62 -4.7,11.58c-0.06,0.88 0.54,2.16 -1.18,2.27c-1.95,0.12 -1.42,-1.3 -1.43,-2.29c-0.04,-3.87 -0.05,-7.74 0.01,-11.61c0.01,-0.77 -0.53,-1.84 1.02,-2.06c1.8,-0.25 1.48,1.09 1.68,2.09z" fill="#03385B"/>
    <path d="m391.47,148.27c0.03,1.19 -0.54,1.34 -1.47,1.33c-1.83,-0.01 -3.66,0 -5.49,0c-1.32,0 -2.65,-0.05 -3.97,0.02c-0.77,0.04 -1.82,-0.45 -2.25,0.32c-0.56,1.01 0.31,1.95 0.87,2.74c1.65,2.32 5.2,2.82 8.3,1.11c0.98,-0.54 1.82,-1.19 2.48,0.1c0.6,1.19 -0.65,1.48 -1.32,1.92c-3.19,2.07 -8.38,1.5 -11.01,-1.17c-2.7,-2.74 -3.06,-7.49 -0.81,-10.7c4.62,-6.35 14.17,-3.42 14.67,4.33zm-3.52,-3.09c-1.65,-2.98 -6.38,-3.32 -8.59,-0.58c-0.61,0.76 -1.48,1.74 -1.03,2.68c0.41,0.87 1.62,0.31 2.48,0.39c0.8,0.08 1.62,0.02 2.43,0.02c1.12,0 2.24,-0.08 3.35,0.01c2.47,0.21 2.2,-1.01 1.36,-2.52z" fill="#053A5C"/>
    <path d="m293.62,141c3.531,1.414 3.529,5.033 3.469,8.298l-0.009,0.464c-0.007,0.384 -0.012,0.762 -0.01,1.128c0.02,0.01 0.03,0.01 0.04,0.01c0,1.52 -0.02,3.05 0.01,4.57c0.03,1.65 -1.78,1.69 -2,1.26c-0.81,-1.56 -1.517,-1.145 -2.225,-0.643l-0.17,0.121c-0.285,0.202 -0.57,0.393 -0.865,0.452c-2.63,0.52 -5.33,0.9 -7.34,-1.48c-2.21,-2.62 -0.77,-6.66 2.66,-7.41c0.653,-0.142 1.328,-0.18 2.009,-0.196l1.021,-0.019c0.511,-0.012 1.02,-0.035 1.52,-0.105c0.91,-0.13 2.46,0.85 2.55,-1.11c0.37,-3.8 -4.64,-4.59 -6.98,-2.42l-0.168,0.14l-0.168,0.137c-0.614,0.497 -1.222,0.853 -1.874,-0.137c-0.8,-1.2 0.42,-1.62 1.04,-2.06c2.29,-1.61 4.8,-2.1 7.49,-1zm0.72,10.04c0.361,-1.698 -0.754,-1.716 -1.865,-1.622l-0.237,0.021l-0.118,0.011a8.952,8.952 0 0 1 -1.216,0.016l-0.315,-0.014l-0.158,-0.007l-0.317,-0.014c-1.737,-0.07 -3.417,0.026 -3.804,2.609c-0.36,2.41 1.71,2.72 3.45,2.84c2.72,0.18 4.53,-1.36 4.58,-3.84z" fill="#073B5E"/>
    <path d="m242.24,148.86c-0.05,4.64 -3.74,8.18 -8.47,8.15c-4.79,-0.04 -8.3,-3.57 -8.24,-8.29c0.63,-11.21 16.22,-10.84 16.71,0.14zm-2.84,0.03c0.13,-7.97 -11.05,-8.09 -11.13,-0.17c-0.25,7.91 11.16,8.09 11.13,0.17z" fill="#063A5D"/>
    <path d="m407.39,142.77c0.98,0.58 1.07,-0.49 1.52,-0.86c2.51,-2.04 5.13,-2.12 7.3,0.26c1.13,1.24 1.53,0.89 2.48,-0.03c1.84,-1.77 4.06,-2.24 6.45,-1.15c2.33,1.06 3.11,3.04 3.1,5.46c-0.01,2.95 -0.01,5.89 0.01,8.84c0,0.89 -0.08,1.56 -1.28,1.55c-1.2,-0.01 -1.27,-0.69 -1.27,-1.57c0.01,-2.54 -0.01,-5.08 0,-7.62c0.02,-2.44 -0.41,-4.58 -3.44,-4.72c-5.68,-0.06 -4.22,7.96 -4.36,11.9c-0.01,1 0.22,2.1 -1.44,2c-1.52,-0.09 -1.12,-1.17 -1.13,-1.99c-0.04,-2.34 0,-4.67 -0.02,-7.01c-0.01,-1.83 0.14,-3.8 -2.05,-4.62c-2.28,-0.86 -3.89,0.25 -5.22,1.99c-1.81,-1.08 -1.91,-1.45 -0.65,-2.43z" fill="#04395B"/>
    <path d="m449.55,148.67c0.1,4.61 -3.55,8.3 -8.25,8.34c-4.83,0.04 -8.37,-3.36 -8.42,-8.09c0.29,-11.19 15.91,-11.26 16.67,-0.25zm-2.79,0.27c0.12,-8.04 -11.19,-8.16 -11.22,-0.13c-0.07,7.78 11.13,7.95 11.22,0.13z" fill="#063A5D"/>
    <path d="m476.29,141.09c3.258,1.373 3.328,4.555 3.277,7.593l-0.009,0.466a42.22,42.22 0 0 0 -0.008,1.591c0,1.62 -0.03,3.25 0.01,4.87c0.03,1.49 -1.56,1.51 -1.78,1.12c-0.88,-1.598 -1.654,-1.126 -2.488,-0.588l-0.194,0.125a4.55,4.55 0 0 1 -0.598,0.333c-3.68,1.61 -7.88,-0.18 -8.33,-3.47c-0.4,-2.93 1.03,-4.97 3.97,-5.44c1.29,-0.21 2.65,-0.03 3.94,-0.23c1,-0.15 2.73,0.86 2.76,-1.23c0.22,-3.84 -4.7,-4.34 -7.11,-2.29c-0.62,0.47 -1.22,1.26 -2.01,0.25c-0.88,-1.13 0.14,-1.66 0.82,-2.13c2.39,-1.68 5,-2.21 7.75,-0.97zm0.67,9.91c-0.006,-1.627 -0.729,-1.709 -1.514,-1.592l-0.206,0.034l-0.207,0.038c-0.479,0.088 -0.94,0.162 -1.233,-0.08c-0.213,0.013 -0.43,0.02 -0.647,0.025l-0.327,0.005l-0.325,0.005c-1.842,0.027 -3.575,0.14 -3.761,2.625c-0.18,2.48 1.93,2.8 3.79,2.83c2.72,0.04 4.44,-1.57 4.43,-3.89z" fill="#053A5D"/>
    <path d="m196.96,154.15c-2.37,3.07 -5.14,3.57 -7.97,2.42c-2.81,-1.14 -3.39,-3.82 -3.36,-6.62c0.02,-2.44 0.02,-4.88 0,-7.32c-0.01,-1.02 0.09,-1.76 1.43,-1.76c1.38,0 1.38,0.83 1.38,1.8c-0.02,2.44 0.03,4.88 -0.01,7.32c-0.04,2.52 0.54,4.47 3.59,4.56c6.58,0.21 4.91,-6.77 5.17,-11.16c0.05,-0.92 -0.76,-2.41 1.21,-2.49c1.97,-0.09 1.36,1.39 1.38,2.35c0.06,3.76 0.06,7.53 0,11.29c-0.01,0.87 0.54,2.13 -1.14,2.31c-1.91,0.17 -1.36,-1.31 -1.68,-2.7z" fill="#073C5E"/>
    <path d="m367.9,154.09c-2.26,3.06 -5.04,3.6 -7.88,2.54c-2.85,-1.07 -3.46,-3.72 -3.39,-6.56c0.06,-2.44 0,-4.88 0.02,-7.32c0.01,-0.86 -0.28,-1.85 1.23,-1.89c1.46,-0.03 1.34,0.85 1.34,1.78c0,2.44 -0.02,4.88 0.01,7.32c0.02,2.46 0.62,4.47 3.65,4.58c6.65,0.47 4.89,-7.41 5.19,-11.74c0.02,-0.87 -0.24,-1.86 1.23,-1.93c1.62,-0.08 1.47,0.95 1.46,1.98c-0.01,3.86 0.04,7.72 -0.03,11.58c-0.02,0.93 0.68,2.37 -1.3,2.4c-1.93,0.04 -1.08,-1.49 -1.53,-2.74z" fill="#04395C"/>
    <path d="m315.96,157.01c-1.68,0.1 -3.61,-0.43 -5.1,-2c-0.44,-0.47 -1.55,-0.98 -0.71,-1.87c0.67,-0.7 1.45,-0.89 2.31,0.06c1.4,1.55 3.19,2.08 5.24,1.41c0.9,-0.3 1.69,-0.72 1.81,-1.81c0.27,-2.92 -3.92,-2.79 -5.81,-3.85c-4.55,-1.68 -3.7,-7.77 1.02,-8.38c2.24,-0.49 4.2,0.26 5.83,1.84c0.43,0.42 0.31,0.9 -0.17,1.27c-0.51,0.39 -1.05,0.69 -1.63,0.19c-1.41,-1.39 -5.05,-1.9 -5.49,0.65c-0.31,2.47 2.84,2.48 4.47,3.21c3.3,1.08 4.63,2.75 4.27,5.36c-0.34,2.54 -2.29,3.91 -6.04,3.92z" fill="#063B5D"/>
    <path d="m219.2,157.04c-3.07,0.02 -4.2,-1.74 -4.35,-4.25c-0.15,-2.54 -0.07,-5.09 -0.06,-7.64c0,-1.04 0.11,-1.91 -1.42,-2.11c-1.38,-0.18 -1.5,-1.85 -0.41,-1.95c2.41,-0.22 1.77,-1.71 1.82,-3c0.05,-1.42 0.02,-2.85 0.01,-4.28c0,-0.79 0.14,-1.35 1.15,-1.38c1.09,-0.04 1.44,0.43 1.42,1.44c-0.03,1.42 0.11,2.86 -0.03,4.27c-0.2,2.01 0.28,3.11 2.58,2.79c0.67,-0.09 1.78,-0.46 1.86,0.88c0.02,3.3 -4.92,-1.29 -4.45,4.09c0.15,2.13 -0.03,4.28 0.08,6.41c0.07,1.42 0.61,2.74 2.43,2.3c1.13,-0.28 2.45,-0.81 2.58,0.76c0.13,1.53 -2.09,1.54 -3.21,1.67z" fill="#04395B"/>
    <path d="m457.51,142.66c1.21,-1.77 2.86,-2.52 4.96,-2.01c0.63,0.15 1.53,0.28 1.27,1.32c-0.19,0.78 -0.4,1.38 -1.58,1.37c-4.14,-0.05 -5.14,0.98 -5.25,5.05c-0.06,2.23 -0.03,4.46 -0.01,6.69c0.01,0.98 -0.03,1.78 -1.39,1.78c-1.31,0 -1.47,-0.71 -1.46,-1.74c0.02,-4.16 0.08,-8.32 -0.02,-12.48c-0.05,-1.92 0.97,-1.91 2.31,-1.68c0.87,0.23 -0.53,2.04 1.17,1.7z" fill="#0E4163"/>
    <path d="m487.71,143.17c1.7,-1.69 3.16,-3.04 5.28,-2.61c0.75,0.15 2.04,0.09 1.71,1.55c-0.24,1.04 -0.73,1.38 -1.95,1.12c-2.9,-0.61 -4.48,0.97 -4.75,3.71c-0.26,2.62 -0.19,5.26 -0.26,7.9c-0.03,1.01 0.17,2.09 -1.47,2.01c-1.5,-0.08 -1.16,-1.13 -1.16,-1.96c-0.03,-3.96 -0.04,-7.92 0.02,-11.88c0.01,-0.76 -0.58,-1.86 0.93,-2.13c1.63,-0.29 1.73,0.77 1.65,2.29z" fill="#083C5E"/>
    <path d="m407.39,142.77c-1.19,1.18 0.58,1.58 0.65,2.43c-0.79,3.1 -0.34,6.27 -0.49,9.41c-0.04,0.88 0.51,2.14 -1.22,2.22c-1.71,0.08 -1.37,-1.1 -1.38,-2.06c-0.02,-4.07 0.01,-8.14 -0.02,-12.21c-0.01,-1.01 0.04,-1.76 1.41,-1.69c1.54,0.08 1.19,1.01 1.05,1.9z" fill="#03385B"/>
    <path d="m205.51,148.74c0,-2.13 0.02,-4.25 -0.01,-6.38c-0.01,-0.95 0.19,-1.5 1.33,-1.49c1.18,0.01 1.27,0.65 1.27,1.55c-0.02,4.25 -0.01,8.5 -0.01,12.75c0,0.82 0.07,1.6 -1.16,1.66c-1.37,0.06 -1.44,-0.72 -1.43,-1.73c0.02,-2.11 0.01,-4.24 0.01,-6.36z" fill="#073B5E"/>
    <path d="m302.77,148.76c0,-2.13 0.02,-4.25 -0.01,-6.38c-0.01,-0.93 0.16,-1.51 1.32,-1.51c1.17,0 1.29,0.61 1.29,1.53c-0.02,4.25 0,8.51 -0.01,12.76c0,0.81 0.09,1.61 -1.15,1.68c-1.35,0.07 -1.46,-0.68 -1.45,-1.7c0.03,-2.13 0.01,-4.26 0.01,-6.38z" fill="#04395C"/>
    <path d="m304.14,136.19c-2.55,0.22 -2.69,-3.8 -0.14,-3.77c2.3,-0.13 2.61,3.72 0.14,3.77z" fill="#154767"/>
    <path d="m206.69,136.18c-2.39,-0.05 -2.12,-3.97 0.16,-3.75c2.58,0.07 2.46,3.89 -0.16,3.75z" fill="#114364"/>
    <path d="m457.51,142.66c-0.23,0.59 -0.46,1.57 -1.07,0.3c-0.27,-0.55 -0.08,-1.32 -0.1,-1.99c1.15,0.03 0.25,1.49 1.17,1.69z" fill="#0E4163"/>
   </g>
  </svg>