<svg  id="fndm-c20mipnm54" viewBox="0.6696720123291016 0.7357425689697266 1740.6011962890625 324.852783203125" xmlns="http://www.w3.org/2000/svg">
   <g xmlns="http://www.w3.org/2000/svg" fill="none">
    <path d="m598.8,182.85c26.9,-51.12 55,-101.67 80.15,-153.61c10.27,-21.11 21.87,-31.37 45.91,-27.81c14.71,2.18 30,0.91 45,0.22c9.1,-0.42 10.29,2.61 8.52,10.77a42385.092,42385.092 0 0 0 -43.51,203c-2.17,10.19 -4.44,20.37 -6.2,30.64c-1.16,6.78 -3.83,10 -11.46,9.52a278.85,278.85 0 0 0 -35,0c-9,0.57 -9.36,-3.27 -7.83,-10.34c13.833,-64 27.57,-128 41.21,-192c0.58,-2.72 2,-5.34 -0.13,-9c-19.93,37.56 -39.59,74.6 -59.25,111.63c-15.8,29.78 -31.9,59.41 -47.2,89.45c-4,7.88 -8.76,11.1 -17.42,10.17c-10.68,-1.16 -24.05,4.24 -31.5,-2.24c-7,-6.11 -3.68,-19.69 -4.73,-30c-6.05,-59.29 -11.88,-118.59 -17.85,-178.61c-5.56,3.4 -3.69,9.12 -4.62,13.42c-13.37,61.94 -26.65,123.9 -39.45,186c-1.88,9.12 -5.67,11.59 -14.83,11.57c-155.733,-0.313 -311.463,-0.313 -467.19,0c-10.2,-0.05 -12.2,-1.85 -9.88,-12.42a17253.53,17253.53 0 0 0 50.09,-231c1.76,-8.34 4.75,-10.59 13,-10.58c169.093,0.22 338.183,0.22 507.27,0c8.69,0 11.18,2.63 11.78,11.15c4,56.53 8.55,113 12.92,169.54l2.2,0.53z" fill="#0248BA"/>
    <path d="m1241.34,228.27c-16,15.24 -31.86,23.59 -51.34,23.77c-34.29,0.33 -57.23,-19.92 -59.55,-54.32c-2.55,-38 10.35,-70.53 37.72,-97c15.28,-14.77 34.09,-22.49 55.29,-23.36c19.24,-0.8 36.45,3.76 46.42,22.28c1.3,-0.68 2.38,-0.89 2.52,-1.37c5.48,-19.16 5.46,-19.17 25.28,-19.16c8.347,0 16.68,0.033 25,0.1a15,15 0 0 1 3.22,1c-12.33,41.93 -19.64,85.05 -29.09,127.69c-3.16,14.25 -6.09,28.55 -9.09,42.83c-8.82,42.06 -31.72,64.63 -74.23,72.07c-21.11,3.7 -42.47,4.11 -63.41,-1.17c-23.31,-5.88 -34.73,-22.1 -33.41,-44.75c0.38,-6.5 2.56,-8.73 9,-8.35c7.9,0.47 15.86,0 23.79,0.13c8.87,0.15 19.26,-3.29 19.79,12.21c0.21,6.22 7.5,9.54 13.9,11.07c20.47,4.89 39.77,-4.91 47.92,-24.45c4.87,-11.55 6.93,-23.86 10.27,-39.22zm-59.1,-47.2c-0.11,14.87 1.09,26.45 12.74,32.42c12.22,6.26 24.37,3.49 35.57,-3.68c7.2,-4.61 12.29,-11.25 16.13,-18.77a102.8,102.8 0 0 0 11.32,-49.43c-0.48,-24.69 -18.23,-36.06 -41,-26.41c-8.31,3.53 -14.6,9.47 -19.48,17c-10.23,15.87 -14.43,33.48 -15.3,48.87l0.02,0zm-169.5,-79.26c17.24,-19.21 37.79,-28.41 62.58,-28.14c34.09,0.38 52,20.79 46.07,54.32c-5.16,29.14 -11.72,58 -17.67,87c-0.84,4.08 -1.76,8.15 -2.66,12.22c-6.29,28.29 -6.29,28.29 -35.84,28.29c-23.1,0 -23.07,0 -18.39,-22c6.5,-30.58 12.963,-61.173 19.39,-91.78c4.71,-22.61 -9.55,-35.59 -31.89,-29.12c-19.88,5.77 -27.78,21.27 -31.77,39.72c-6.7,31 -13.68,61.88 -19.56,93c-1.65,8.73 -5.21,10.73 -13.18,10.29c-10.82,-0.59 -21.71,-0.45 -32.55,0c-6.72,0.25 -8.85,-1.69 -7.37,-8.57c11.593,-54.233 22.99,-108.5 34.19,-162.8c1.11,-5.42 3.26,-6.87 8.15,-6.68c5.84,0.21 11.69,-0.06 17.54,0.07c7.89,0.17 17.84,-2.29 23.11,1.56c5.44,4.02 -2.67,13.7 -0.15,22.62zm418.03,78.18c-17.11,0 -34.23,0.2 -51.33,-0.1c-6.28,-0.11 -8.53,2.09 -9.4,8.41c-2.68,19.27 1.52,31.34 13.8,36.64c14.89,6.41 34.55,2 43.52,-12.24c5.72,-9.06 12.27,-10.84 21.6,-10.1c7.07,0.67 14.19,0.67 21.26,0c11.92,-1.33 10.9,3.55 6.88,11.66c-9.29,18.77 -23.21,32.49 -42.78,40a118.54,118.54 0 0 1 -71.32,4.83c-21.67,-5.18 -35.77,-18.31 -40.93,-40.71c-11.86,-51.44 21.89,-118.25 70.17,-138c17.74,-7.25 36.1,-10 55.12,-6.41c23.83,4.54 40,17.78 46.39,41.69c5.22,19.51 2.83,38.82 -1.52,58.15c-1.41,6.23 -5.29,6.27 -10.14,6.24c-17.11,-0.14 -34.22,-0.06 -51.32,-0.06zm-49.62,-32.67l52.16,0c2.07,0 4.15,0 6.22,-0.05c2.61,-0.07 4.52,-0.8 5.76,-3.6c6.92,-15.64 -4.62,-34.71 -21.63,-35.51c-20.34,-0.95 -36.01,13.12 -42.51,39.16zm-519.25,85.52c-20.34,21.71 -43.39,29.79 -70.52,26.3c-27,-3.47 -41.31,-22.77 -36,-49.51c6.37,-32 27.48,-50.47 57.14,-60.44a133.59,133.59 0 0 1 50.62,-6.87c13.14,0.81 16.8,-4.25 16.89,-16c0.11,-13.82 -4.45,-20.63 -16.41,-22.23c-12.35,-1.66 -24.74,4.3 -29.34,16.49c-3.07,8.11 -7.6,9.24 -14.91,8.86a287.05,287.05 0 0 0 -30.06,0c-7.64,0.41 -9.55,-1.75 -6.79,-9.06c6.37,-16.87 17.53,-29.19 33.79,-36.77c26.09,-12.15 53.33,-13.59 80.68,-6.09c26.53,7.28 36.85,26.25 31.35,55.29c-6.36,33.59 -13.54,67 -19.63,100.68c-4,21.92 -3.39,22 -26.27,22l-1.22,0c-20.79,0.03 -20.79,0.03 -19.32,-22.65zm-7.59,-61c-14.88,1.59 -32.84,3.64 -43.38,21.21c-5,8.33 -6.16,17.41 0.27,25.65c6.09,7.83 14.55,8.76 23.65,6.31c20.39,-5.5 28.19,-21.43 33,-39.85c3.67,-13.82 3.73,-13.81 -13.54,-13.37l0,0.05zm745.22,32.46c3.75,0 7.53,0.23 11.27,0c7.55,-0.55 13.53,-0.5 13.44,10.2c-0.06,6 5.48,10.15 11.34,12.1a38,38 0 0 0 31.46,-2.94c7.72,-4.29 13.12,-10.89 12.7,-20.11c-0.42,-9.22 -8.34,-11.87 -15.44,-14.2c-13.86,-4.53 -28.07,-8 -41.84,-12.81c-26.77,-9.3 -35.73,-29 -25.53,-55.45c5.64,-14.59 15.81,-25.51 29.43,-32.9c25.61,-13.91 52.93,-17.56 81.22,-11c21.82,5 34.4,21.32 33.66,40.82c-0.23,6.24 -2.09,9.16 -8.81,8.7c-7.07,-0.48 -14.19,-0.05 -21.29,-0.13c-9,-0.09 -18.6,2.93 -20.36,-12c-1,-8.37 -16.74,-11.57 -29.92,-7.48c-9.74,3 -17.43,8.46 -17.41,20.07c0,7.35 5.8,9.78 11.38,11.55c12.31,3.91 24.8,7.26 37.18,11c44,13.09 53.28,47.58 21.91,81.44c-25.46,27.47 -79.76,38.73 -113.92,23.33c-16.49,-7.44 -26.58,-19.51 -26.64,-38.68c0,-8.09 1.8,-12.76 11.15,-11.52c4.92,0.55 10.01,0.01 15.02,0.01zm-25.02,-202.48c26.52,0 26.49,0 21.12,25.07c-15.61,72.87 -31.36,145.73 -46.57,218.69c-1.62,7.74 -4.2,10.57 -12.07,10.1a236.14,236.14 0 0 0 -31.25,0c-9.83,0.71 -10.62,-2.74 -8.72,-11.47c16.49,-75.67 33,-151.36 48.24,-227.27c2.58,-12.77 7.24,-17 19.25,-15.21c3.26,0.48 6.71,0.09 10,0.09z" fill="#044ABA"/>
   </g>
  </svg>