<svg  id="fndm-m9xwioh5ox" viewBox="25 90 550 68.99998474121094" xmlns="http://www.w3.org/2000/svg">
   <path d="m25,104.978l13.73,0l0,5.672c2.016,-2.347 3.936,-4.01 5.952,-5.085c2.018,-0.978 4.513,-1.565 7.298,-1.565c3.073,0 5.473,0.587 7.297,1.663c1.824,1.075 3.169,2.738 4.417,4.987c2.304,-2.542 4.416,-4.205 6.24,-5.183c1.92,-0.88 4.225,-1.37 7.01,-1.37c4.032,0 7.392,1.174 9.6,3.717c2.305,2.446 3.456,6.357 3.456,11.638l0,24.45l-14.69,0l0,-22.298c0,-1.76 -0.384,-3.032 -1.056,-3.814c-0.864,-1.37 -2.208,-2.054 -3.552,-2.054c-1.825,0 -3.169,0.587 -4.225,1.956c-0.96,1.174 -1.536,3.227 -1.536,6.064l0,20.146l-14.786,0l0,-21.418c0,-1.76 -0.096,-2.934 -0.288,-3.52c-0.288,-0.88 -0.864,-1.761 -1.728,-2.348c-0.672,-0.587 -1.632,-0.88 -2.688,-0.88c-1.729,0 -3.073,0.587 -4.033,1.956c-1.056,1.271 -1.728,3.423 -1.728,6.357l0,19.951l-14.69,0l0,-39.022zm86.49,12.227l-14.314,-1.35c0.49,-2.506 1.275,-4.433 2.353,-5.783c0.98,-1.542 2.55,-2.699 4.314,-3.662c1.373,-0.771 3.333,-1.35 5.686,-1.832c2.451,-0.385 5.098,-0.578 7.844,-0.578c4.51,0 8.137,0.29 10.882,0.771c2.647,0.482 5,1.542 6.765,3.084c1.176,0.964 2.255,2.603 2.94,4.627c0.785,2.024 1.08,3.855 1.08,5.687l0,16.964c0,1.83 0.097,3.18 0.391,4.24c0.196,0.964 0.687,2.314 1.569,3.856l-14.118,0a33.573,33.573 0 0 1 -1.078,-2.313c-0.098,-0.482 -0.294,-1.253 -0.49,-2.41c-1.961,1.831 -3.824,3.18 -5.785,3.952c-2.647,0.964 -5.784,1.542 -9.215,1.542c-4.706,0 -8.236,-0.964 -10.687,-3.084c-2.45,-2.217 -3.627,-4.82 -3.627,-7.904c0,-2.892 0.882,-5.301 2.647,-7.132c1.765,-1.928 5,-3.278 9.608,-4.145c5.686,-1.06 9.216,-1.928 10.98,-2.313a49.979,49.979 0 0 0 5.294,-1.832c0,-1.831 -0.392,-3.084 -1.078,-3.759c-0.784,-0.77 -2.157,-1.06 -4.02,-1.06c-2.45,0 -4.215,0.386 -5.49,1.06c-1.176,0.675 -1.863,1.832 -2.45,3.374l-0.001,0zm12.941,7.807c-2.058,0.675 -4.117,1.35 -6.372,1.928c-3.04,0.77 -5,1.638 -5.784,2.41c-0.883,0.77 -1.275,1.734 -1.275,2.698c0,1.157 0.392,2.12 1.176,2.892c0.883,0.674 2.157,1.06 3.628,1.06c1.765,0 3.235,-0.386 4.706,-1.157c1.372,-0.77 2.45,-1.831 3.039,-2.891c0.588,-1.157 0.882,-2.699 0.882,-4.53l0,-2.41zm48.792,-20.045l13.777,0l0,37.987c0,2.513 -0.478,4.833 -1.626,6.863a14.283,14.283 0 0 1 -4.019,5.413c-1.722,1.257 -3.73,2.32 -6.314,2.9c-2.679,0.58 -5.645,0.87 -8.897,0.87c-7.75,0 -12.916,-1.16 -15.882,-3.48c-2.87,-2.32 -4.21,-5.413 -4.21,-9.28c0,-0.483 0,-1.062 0.096,-2.03l14.16,1.74c0.382,1.257 0.86,2.224 1.722,2.707c0.956,0.774 2.391,1.16 4.018,1.16c2.105,0 3.635,-0.58 4.688,-1.74c1.052,-1.16 1.626,-3.19 1.626,-5.993l0,-5.8c-1.53,1.74 -2.87,2.9 -4.4,3.674c-2.201,1.16 -4.689,1.836 -7.272,1.836c-5.166,0 -9.184,-2.223 -12.341,-6.67c-2.2,-3.189 -3.349,-7.442 -3.349,-12.662c0,-5.993 1.53,-10.536 4.4,-13.726c2.871,-3.093 6.602,-4.736 11.29,-4.736c2.966,0 5.358,0.483 7.367,1.547c1.913,0.966 3.731,2.706 5.358,5.123l0,-5.703l-0.192,0zm-13.585,18.655c0,2.803 0.574,4.93 1.722,6.186c1.148,1.354 2.774,2.03 4.688,2.03c1.913,0 3.348,-0.58 4.592,-2.03c1.244,-1.353 1.914,-3.48 1.914,-6.283c0,-2.803 -0.575,-5.026 -2.01,-6.476c-1.243,-1.353 -2.87,-2.223 -4.688,-2.223c-1.913,0 -3.348,0.677 -4.592,2.127c-1.148,1.256 -1.626,3.576 -1.626,6.67l0,-0.001zm45.592,-6.417l-14.247,-1.35c0.59,-2.506 1.277,-4.433 2.358,-5.783c0.982,-1.542 2.554,-2.699 4.52,-3.662c1.277,-0.771 3.242,-1.35 5.698,-1.832c2.358,-0.385 5.01,-0.578 7.762,-0.578c4.618,0 8.155,0.29 10.906,0.771c2.751,0.482 5.011,1.542 6.78,3.084c1.277,0.964 2.358,2.603 3.045,4.627c0.688,2.024 1.081,3.855 1.081,5.687l0,16.964c0,1.83 0.098,3.18 0.295,4.24c0.196,0.964 0.688,2.314 1.572,3.856l-14.05,0c-0.59,-0.964 -0.884,-1.831 -1.081,-2.313c-0.197,-0.482 -0.393,-1.253 -0.491,-2.41c-2.064,1.831 -3.93,3.18 -5.895,3.952c-2.653,0.964 -5.7,1.542 -9.236,1.542c-4.716,0 -8.254,-0.964 -10.71,-3.084c-2.358,-2.217 -3.537,-4.82 -3.537,-7.904c0,-2.892 0.786,-5.301 2.653,-7.132c1.768,-1.928 4.913,-3.278 9.629,-4.145c5.6,-1.06 9.235,-1.928 10.906,-2.313a43.542,43.542 0 0 0 5.305,-1.832c0,-1.831 -0.294,-3.084 -1.08,-3.759c-0.688,-0.77 -2.064,-1.06 -3.93,-1.06c-2.457,0 -4.324,0.386 -5.6,1.06c-1.18,0.675 -1.966,1.832 -2.654,3.374l0.001,0zm13.067,7.807c-2.063,0.675 -4.127,1.35 -6.387,1.928c-3.045,0.77 -5.01,1.638 -5.796,2.41c-0.786,0.77 -1.18,1.734 -1.18,2.698c0,1.157 0.394,2.12 1.18,2.892c0.786,0.674 2.063,1.06 3.635,1.06c1.67,0 3.144,-0.386 4.618,-1.157c1.572,-0.77 2.554,-1.831 3.046,-2.891c0.59,-1.157 0.884,-2.699 0.884,-4.53l0,-2.41zm20.046,-20.012l35.41,0l0,8.497l-19.193,19.573l20.44,0l0,9.93l-38,0l0,-9.452l18.232,-18.523l-16.889,0l0,-10.025zm41.657,-15l15,0l0,9.833l-15,0l0,-9.833zm0,14.37l15,0l0,37.63l-15,0l0,-37.63zm23,0.564l13.829,0l0,5.975c2.142,-2.427 4.188,-4.108 6.33,-5.228c2.143,-1.027 4.675,-1.681 7.694,-1.681c4.09,0 7.401,1.12 9.641,3.548c2.337,2.334 3.506,5.882 3.506,10.83l0,23.622l-14.9,0l0,-20.447c0,-2.334 -0.487,-3.922 -1.364,-4.949c-0.876,-0.933 -2.142,-1.493 -3.7,-1.493c-1.85,0 -3.312,0.56 -4.48,1.96c-1.169,1.4 -1.753,3.642 -1.753,7.096l0,17.833l-14.803,0l0,-37.066zm91,22.72l-29.772,0c0.195,2.404 0.878,4.038 1.952,5.288c1.367,1.635 3.319,2.5 5.662,2.5c1.366,0 2.83,-0.384 4.1,-1.057a9.792,9.792 0 0 0 2.635,-2.404l14.642,1.25c-2.245,3.846 -4.978,6.634 -8.102,8.269c-3.221,1.73 -7.809,2.5 -13.763,2.5c-5.174,0 -9.176,-0.673 -12.105,-2.115c-2.928,-1.347 -5.368,-3.654 -7.418,-6.731c-1.952,-3.173 -2.831,-6.827 -2.831,-11.058c0,-5.961 1.952,-10.865 5.76,-14.52c3.904,-3.653 9.273,-5.576 16.106,-5.576c5.564,0 9.956,0.77 13.275,2.5c3.124,1.73 5.662,4.038 7.223,7.308c1.757,3.077 2.538,7.115 2.538,12.211l0,1.635l0.098,0zm-15.13,-7.02c-0.293,-2.788 -0.976,-4.903 -2.343,-6.057c-1.171,-1.154 -2.83,-1.923 -4.978,-1.923c-2.343,0 -4.198,0.961 -5.662,2.788c-0.878,1.154 -1.562,2.885 -1.757,5.193l14.74,0l0,-0.001zm20.13,-30.634l15,0l0,52l-15,0l0,-52zm64,52.158l-13.926,0l0,-6.084c-2.045,2.527 -4.09,4.305 -6.233,5.335c-2.143,1.03 -4.772,1.591 -7.791,1.591c-4.09,0 -7.207,-1.123 -9.641,-3.463c-2.338,-2.34 -3.409,-5.99 -3.409,-10.857l0,-23.68l14.9,0l0,20.404c0,2.433 0.487,4.025 1.364,5.054c0.876,0.936 2.142,1.498 3.7,1.498c1.85,0 3.214,-0.656 4.285,-1.966c1.17,-1.31 1.753,-3.65 1.753,-7.113l0,-17.877l14.9,0l0,37.158l0.098,0zm7,-52.158l15,0l0,9.833l-15,0l0,-9.833zm0,14.37l15,0l0,37.63l-15,0l0,-37.63zm21.531,0.63l35.32,0l0,8.497l-19.239,19.573l20.388,0l0,9.93l-38,0l0,-9.452l18.378,-18.523l-16.848,0l0.001,-10.025zm53.959,12.205l-14.314,-1.35c0.49,-2.506 1.275,-4.433 2.353,-5.783c0.98,-1.542 2.451,-2.699 4.314,-3.662c1.373,-0.771 3.235,-1.35 5.686,-1.832c2.451,-0.385 5,-0.578 7.844,-0.578c4.51,0 8.137,0.29 10.882,0.771c2.647,0.482 5,1.542 6.765,3.084c1.176,0.964 2.255,2.603 2.94,4.627c0.785,2.024 1.08,3.855 1.08,5.687l0,16.964c0,1.83 0.097,3.18 0.391,4.24c0.196,0.964 0.687,2.314 1.569,3.856l-14.118,0a33.573,33.573 0 0 1 -1.078,-2.313c-0.098,-0.482 -0.294,-1.253 -0.49,-2.41c-1.961,1.831 -3.824,3.18 -5.785,3.952c-2.647,0.964 -5.784,1.542 -9.215,1.542c-4.706,0 -8.236,-0.964 -10.687,-3.084c-2.45,-2.217 -3.627,-4.82 -3.627,-7.904c0,-2.892 0.882,-5.301 2.647,-7.132c1.765,-1.928 5,-3.278 9.608,-4.145c5.588,-1.06 9.216,-1.928 10.98,-2.313a49.979,49.979 0 0 0 5.294,-1.832c0,-1.831 -0.392,-3.084 -1.078,-3.759c-0.784,-0.77 -2.157,-1.06 -4.02,-1.06c-2.45,0 -4.215,0.386 -5.49,1.06c-1.176,0.675 -1.863,1.832 -2.45,3.374l-0.001,0zm12.941,7.807c-2.058,0.675 -4.117,1.35 -6.372,1.928c-3.04,0.77 -5,1.638 -5.784,2.41c-0.883,0.77 -1.275,1.734 -1.275,2.698c0,1.157 0.392,2.12 1.176,2.892c0.785,0.674 2.06,1.06 3.628,1.06c1.765,0 3.235,-0.386 4.706,-1.157c1.372,-0.77 2.45,-1.831 3.039,-2.891c0.588,-1.157 0.882,-2.699 0.882,-4.53l0,-2.41z" fill-rule="evenodd" fill="#0086CD"/>
  </svg>