<svg  id="fndm-zaxv4o881a" viewBox="175 43 250 161" xmlns="http://www.w3.org/2000/svg">
   <g xmlns="http://www.w3.org/2000/svg" fill="none">
    <path d="m409.743,70l-234.743,0l15.257,-27l234.743,0l-15.257,27zm0,134l-234.743,0l15.257,-27l234.743,0l-15.257,27z" fill="#F36F21"/>
    <path d="m281.338,85.068l15.097,0l0,13.526l-15.097,0l0,-13.526zm0.205,21.818l15.712,0l0,56.619l-15.712,0l0,-56.619zm55.197,-21.886l15.713,0l0,78.165l-15.713,0l0,-78.165zm-27.736,0l15.713,0l0,78.165l-15.713,0l0,-78.165zm100.355,38.13c-0.888,-11.146 -8.949,-19.235 -25.003,-19.235c-5.465,0 -9.564,0.68 -13.936,2.991c-3.211,1.7 -6.354,4.69 -7.857,7.545c-1.57,2.787 -1.98,5.777 -1.98,8.836c0,4.758 1.98,8.564 5.123,10.875c3.074,2.447 7.036,3.806 11.409,4.826c4.372,0.951 8.607,1.631 12.775,2.718c4.098,1.088 6.08,3.195 6.08,5.234c0,1.427 0,3.127 -2.938,4.894c-1.503,1.155 -3.894,1.835 -7.31,1.835c-8.13,0 -11.818,-3.262 -12.638,-9.787l-14.346,0.475c0.41,5.982 3.825,13.322 8.608,16.109c5.191,2.99 8.607,4.554 18.991,4.554c5.056,0 7.31,-0.544 10.999,-1.563c3.689,-1.088 7.72,-4.214 9.974,-6.661c2.596,-2.855 3.689,-7.341 3.689,-12.303c0,-4.622 -1.913,-8.564 -4.919,-11.147c-3.074,-2.65 -6.558,-3.602 -11.135,-4.69c-4.577,-0.951 -10.247,-1.903 -14.278,-2.922c-4.03,-0.952 -6.148,-2.787 -6.148,-4.69c0,-3.67 4.099,-5.914 10.11,-5.914c3.621,0 6.217,1.088 7.925,2.311c1.366,1.088 2.732,3.67 3.142,5.982l13.663,-0.272l0,-0.001zm-179.327,19.032c-0.683,-4.214 -1.435,-6.66 -1.435,-6.66l-14.687,-50.095l-23.91,0l0,78.029l16.054,0l0,-54.24l0.205,0l2.323,8.836l13.253,45.336l16.464,0l13.253,-45.336l2.323,-8.836l0.205,0l0,54.24l15.986,0l0,-77.96l-23.91,0l-14.689,50.093s-0.683,2.38 -1.434,6.593l-0.001,0z" fill="#000"/>
   </g>
  </svg>