<svg xmlns="http://www.w3.org/2000/svg" fill-rule="evenodd" clip-rule="evenodd" data-name="Layer 1" image-rendering="optimizeQuality" shape-rendering="geometricPrecision" text-rendering="geometricPrecision" viewBox="-2 1 6599.990234375 3300"><g><rect width="6599.99" height="3300" x="-2" y="1" fill="none"/><g fill="#061922" fill-rule="nonzero"><path d="M1836.04 1342.63l-69.65 0c-0.17,-0.01 -0.36,-0.01 -0.54,-0.01 -14.94,0 -27.1,12.04 -27.24,26.98l0 342.04c0,100.61 -63.56,133.39 -158.27,133.39l-25.15 0c-93.25,0 -158.09,-34.1 -158.09,-133.39l0 -342c-0.14,-14.94 -12.29,-26.97 -27.23,-26.97 -0.14,0 -0.28,0 -0.41,0l-69.96 0c-0.38,-0.01 -0.77,-0.02 -1.15,-0.02 -14.99,0 -27.22,12 -27.51,26.99l0 345.04c0,162.31 96.62,248.07 279.44,248.07l34.78 0c182.97,0 279.62,-85.76 279.62,-248.07l0 -345.04c-0.25,-15.01 -12.5,-27.04 -27.5,-27.04 -0.38,0 -0.77,0.01 -1.14,0.03l0 0z"/><path d="M2857.27 1342.58l-573.09 0c-0.23,-0.01 -0.48,-0.01 -0.72,-0.01 -14.82,0 -26.84,12.02 -26.84,26.83 0,0.14 0.01,0.29 0.01,0.42l0 57.71c0,0.15 -0.01,0.31 -0.01,0.46 0,14.79 12,26.79 26.79,26.79 0.26,0 0.52,-0.01 0.77,-0.01l226.1 0 0 485.78c0.49,14.68 12.53,26.33 27.22,26.33 0.17,0 0.35,0 0.52,0l68.74 0c0.18,0 0.37,0.01 0.56,0.01 14.69,0 26.74,-11.66 27.22,-26.34l0 -485.79 222.69 0c0.28,0.01 0.58,0.02 0.86,0.02 14.87,0 26.93,-12.06 26.93,-26.92 0,-0.11 -0.01,-0.23 -0.01,-0.33l0 -57.62c0.01,-0.13 0.01,-0.28 0.01,-0.42 0,-14.87 -12.06,-26.92 -26.92,-26.92 -0.28,0 -0.56,0 -0.83,0.01l0 0z"/><path d="M3072.65 1333.32l-66.46 0c-0.16,0 -0.34,0 -0.5,0 -15.05,0 -27.24,12.19 -27.24,27.24 0,0.12 0,0.25 0,0.37l0 577.62c0.31,14.81 12.42,26.65 27.23,26.65 0.17,0 0.34,0 0.51,0l66.42 0c0.09,0 0.19,0 0.29,0 15.39,0 28.01,-12.22 28.49,-27.6l0 -576.59c-0.11,-15.33 -12.58,-27.7 -27.92,-27.7 -0.27,0 -0.55,0 -0.82,0.01l0 0z"/><path d="M4682.42 1592.33c-96.03,-21.7 -162.08,-26.24 -162.08,-84.22 0,-33.19 1.13,-70.33 90.8,-70.33l126.21 0c64.92,0 99.88,25.75 100.33,58.57 0.32,26.51 23.52,29.51 43.5,29.51l49.62 0c14.44,0 28.24,-8.67 28.24,-43.58 0,-64.56 -54.48,-111.28 -121.45,-133.39 -28.32,-9.22 -58.09,-14.05 -87.93,-14.12l-106.6 0c-222.87,0 -251.42,95.66 -251.42,178.92 0,135.12 148.05,154.64 273.58,183.29 96.38,21.97 172.52,39.31 172.52,97.33 0,26.16 -11.49,59.66 -88.58,59.66l-146.91 0c-87.85,0 -103.2,-6.54 -107.42,-46.94 -2.72,-26.2 -18.75,-34.6 -38.5,-34.6l-49.94 0c-0.32,0 -28.06,0.46 -28.06,35.32 0,91.8 78.96,155.77 177.97,155.77l158.54 0c222.96,0 251.52,-95.57 251.52,-178.74 0.09,-136.52 -157.99,-164.08 -283.93,-192.45l-0.01 0z"/><path d="M6146.62 1445.32l-187.59 0c-93.25,0 -140.74,34.78 -140.74,135.88l0 356.49c-0.2,15.1 -12.5,27.24 -27.6,27.24 -0.05,0 -0.1,0 -0.14,0l-63.56 0c-0.3,0.01 -0.61,0.01 -0.91,0.01 -15.14,0 -27.5,-12.12 -27.79,-27.25l0 -351.63c0,-165.26 72.96,-252.52 255.83,-252.52l192.37 0 0 0 0 0c13.34,0.03 24.15,10.86 24.15,24.2 0,0.03 0,0.07 0,0.1l0 62.24c0.01,0.28 0.02,0.58 0.02,0.87 0,13.32 -10.71,24.18 -24.04,24.37l0 0z"/><path d="M2379.75 1857.47l-200.31 0c-95.34,0 -98.83,-26.93 -98.83,-135.21l0 -354.12c-0.17,-15.09 -12.46,-27.24 -27.56,-27.24 -0.06,0 -0.12,0 -0.18,0l-65.29 0c-0.29,-0.01 -0.61,-0.01 -0.91,-0.01 -15.12,0 -27.45,12.13 -27.69,27.25l0 442.93c0,103.65 60.52,157.67 204.76,157.67l215.92 0c13.34,0 24.15,-10.81 24.15,-24.15l0 -61.88c0.01,-0.27 0.02,-0.55 0.02,-0.82 0,-13.36 -10.73,-24.24 -24.08,-24.42l0 0z"/><path d="M3612.01 1853.88l-200.22 0c-95.7,0 -98.88,-27.24 -98.88,-136.2l0 -356.85c-0.05,-15.23 -12.41,-27.56 -27.65,-27.56 0,0 0,0 0,0l-65.33 0c-0.25,0 -0.52,-0.01 -0.77,-0.01 -15.27,0 -27.71,12.3 -27.88,27.57l0 446.15c0,104.42 60.52,158.9 204.76,158.9l215.92 0 0 0 0 0c0,0 0,0 0,0 13.34,0 24.16,-10.81 24.16,-24.15 0,-0.03 0,-0.06 0,-0.09l0 -62.56c0,-0.24 0.01,-0.49 0.01,-0.73 0,-13.38 -10.75,-24.28 -24.12,-24.47l0 0z"/><path d="M4045.22 1337.68l0 -0.23 -71.05 0 0 0.23c-148.64,2.95 -248.43,88.07 -248.43,210.43l0 391.53c0,26.24 15.16,26.24 20.06,26.24l74.55 0c21.43,0 28.01,-6.31 28.01,-27.24l0 -162.35 318.94 0 0 162.4c0,20.88 6.59,27.24 28.01,27.24l75.23 0c5,0 20.02,0 20.02,-26.24l0 -391.58c-0.04,-129.03 -96.65,-207.34 -245.34,-210.43l0 0zm0 325.15l-194.27 0 0 -105.05c0,-89.17 60.34,-112.64 120.36,-112.64l76.36 0c60.07,0 116.32,36.32 116.32,112.64l0 105.05 -118.77 0z"/><path d="M5246.29 1445.37l332.06 0c14.39,0 26.01,-14.4 26.01,-29.33l0 -54.48c0,-0.15 0.01,-0.31 0.01,-0.46 0,-14.44 -11.59,-26.22 -26.02,-26.46l-392.35 0c-124.9,0.31 -137.79,108.96 -137.79,199.35l-0.28 112.23 0 0 0 4.9 0 0 0.28 112.05c0,90.39 12.85,199.17 137.79,199.4l392.35 0c14.43,-0.24 26.02,-12.03 26.02,-26.47 0,-0.15 -0.01,-0.31 -0.01,-0.46l0 -57.56c0,-14.8 -11.62,-29.24 -26.01,-29.24l-331.97 0c-86.81,0 -76.55,-63.56 -76.55,-63.56l0 -81.04 401.21 0c14.49,-0.46 26.01,-12.36 26.01,-26.86 0,-0.02 0,-0.04 0,-0.06l0 -54.07c0,-0.04 0,-0.07 0,-0.11 0,-14.49 -11.53,-26.36 -26.01,-26.77l-401.3 0 0 -77.18c0,0 -10.26,-73.82 76.55,-73.82l0 0z"/><path d="M1160.2 1342.63l-161.26 0c-23.92,0 -38.63,9.44 -45.03,29.01l-150.82 441.29 -150.69 -441.25c-6.4,-19.61 -21.07,-29.01 -45.08,-29.01l-161.26 0c-11.57,0.45 -20.72,9.97 -20.72,21.55 0,0.26 0.01,0.53 0.01,0.79l0 580.03c0,0.17 0,0.34 0,0.5 0,11.97 9.65,21.7 21.62,21.8l78.31 0c11.96,-0.07 21.62,-9.79 21.62,-21.75 0,-0.18 -0.01,-0.37 -0.01,-0.55l0 -429.39c-0.5,-11.08 7.9,-15.39 12.76,-5l154.86 402.7c6.76,17.66 19.2,26.2 37.86,26.2l101.34 0c18.84,0 31.19,-8.54 37.95,-26.2l154.95 -402.7c4.86,-10.39 13.3,-6.08 12.76,5l0 429.39c0,0.17 -0.01,0.34 -0.01,0.5 0,11.97 9.66,21.7 21.62,21.8l78.23 0c11.96,-0.07 21.61,-9.79 21.61,-21.75 0,-0.18 0,-0.37 0,-0.55l0 -580.08c0,-0.26 0.01,-0.53 0.01,-0.79 0,-11.54 -9.09,-21.04 -20.62,-21.54l-0.01 0z"/></g></g></svg>