<svg xmlns="http://www.w3.org/2000/svg" fill-rule="evenodd" clip-rule="evenodd" image-rendering="optimizeQuality" shape-rendering="geometricPrecision" text-rendering="geometricPrecision" viewBox="-2 1 6600 3300"><g><g><rect width="6600" height="3300" x="-2" y="1" fill="#0f62ac"/><path fill="#fefefe" d="M645.67 1751.8l-0.27 -3.88c19.26,-6.66 32.71,-18.36 40.32,-35.15 7.73,-16.81 11.59,-45.71 11.59,-86.6l0 -19.49 0 -107.21c0,-21.36 -2.98,-35.96 -8.9,-43.67 -5.84,-7.79 -16.34,-13.81 -31.45,-18.1l0 -3.89c10.09,0.32 19.7,0.57 28.76,0.73 9.21,0.16 17.72,0.23 25.65,0.23 13.16,0 23.52,-0.07 31.24,-0.16 7.7,-0.07 15.43,-0.16 22.95,-0.32 16.22,31.74 35.51,66.31 57.77,103.89 22.26,37.58 49.55,81.49 81.79,131.72l126.31 -236.09c1.98,0 5.04,0.07 9.31,0.23 16.88,0.5 28.68,0.73 35.29,0.73 10.58,0 27.49,-0.32 50.64,-0.96 2.09,0 3.77,0 4.95,0l0 3.89c-12.86,1.7 -21.67,6.56 -26.51,14.54 -4.84,7.86 -7.21,23.19 -7.21,45.84l0 146.2c0,41.21 2.78,67.92 8.32,80.26 5.41,12.24 16.4,20.04 32.62,23.38l0 3.88c-11.56,-0.48 -22.94,-0.88 -34.23,-1.13 -11.27,-0.23 -25.11,-0.32 -41.53,-0.32 -10.59,0 -21.88,0.09 -33.65,0.32 -11.84,0.25 -24.22,0.65 -37.17,1.13l-0.31 -3.88c15.74,-3.18 26.42,-10.79 31.87,-22.81 5.43,-12.09 8.2,-40.19 8.2,-84.42l0 -175.64 -157.07 294.54 -4.34 0c-26.72,-54.04 -53.44,-105.09 -80.13,-153.07 -26.7,-48.05 -52.62,-91.78 -77.72,-131.25l0 141.15c0,48.55 3.63,80.77 10.95,96.76 7.43,16.06 20.76,27.58 40.07,34.74l-0.31 3.88c-11.95,-0.48 -22.54,-0.88 -31.83,-1.13 -9.38,-0.23 -17.22,-0.32 -23.54,-0.32 -10.29,0 -20.58,0.09 -30.99,0.32 -10.38,0.25 -20.83,0.65 -31.44,1.13zm629.05 -111.11l0 2.84c0,41.23 2.89,68.01 8.73,80.51 5.81,12.43 17.19,20.38 34.03,23.88l0 3.88c-12,-0.48 -23.83,-0.88 -35.72,-1.13 -11.88,-0.23 -26.42,-0.32 -43.64,-0.32 -18.29,0 -32.92,0.09 -43.71,0.32 -10.77,0.25 -20.94,0.65 -30.64,1.13l-0.3 -3.88c16.52,-3.18 27.78,-10.95 33.62,-23.47 5.82,-12.41 8.82,-40.33 8.82,-83.76l0 -165.01c0,-11.2 -2.77,-19.88 -8.34,-25.9 -5.54,-5.99 -14.61,-10.38 -27.31,-13.06l0 -3.82c12.2,0.57 24.06,1.07 35.72,1.39 11.58,0.32 22.96,0.48 34.23,0.48 11.18,0 22.65,-0.16 34.33,-0.48 11.68,-0.32 23.63,-0.82 35.78,-1.39l0 3.82c-12.33,1.86 -21.33,6.02 -27.1,12.27 -5.61,6.25 -8.5,15.17 -8.5,26.69l0 165.01zm145.49 -34.01l0 10.24c0,48.37 3.66,80.52 10.88,96.49 7.23,16.08 20.68,27.69 40.17,34.98l-0.3 3.41c-12.2,-0.48 -22.76,-0.88 -31.85,-1.13 -9.22,-0.23 -17.01,-0.32 -23.56,-0.32 -10.27,0 -20.56,0.09 -30.94,0.32 -10.38,0.25 -20.88,0.65 -31.46,1.13l-0.3 -3.41c19.61,-6.97 33.15,-19.15 40.67,-36.5 7.49,-17.29 11.26,-52.37 11.26,-105.21l0 -107.62c0,-20.45 -2.88,-34.67 -8.61,-42.44 -5.65,-7.88 -16.03,-14.13 -31.14,-18.92l0 -3.89c4.65,0 11.15,0.16 19.69,0.48 17,0.32 28.18,0.48 33.6,0.48 11.77,0 21.56,-0.07 29.38,-0.16 7.84,-0.07 15.54,-0.16 23.26,-0.32 47.17,47.89 131.34,119.73 252.61,215.48 2.36,1.89 4.04,3.25 5.25,4l0 -78.17c0,-54.21 -3.66,-89.19 -10.88,-104.87 -7.23,-15.65 -20.7,-27.04 -40.17,-34.01l0.29 -3.41c4.07,0.16 9.8,0.41 17.41,0.73 18.9,0.82 31.64,1.23 38.19,1.23 13.54,0 33.82,-0.66 61.02,-1.96l1.79 0 0 3.41c-19.67,6.82 -33.33,18.77 -40.98,35.8 -7.5,17.04 -11.27,51.37 -11.27,103.08l0 183.99 -5.41 0c-35.91,-35.94 -80.83,-77.74 -134.54,-125.38 -53.7,-47.66 -115.02,-100.16 -184.06,-157.55l0 130.02zm486.56 -13.13c5.23,0.31 10.77,0.56 16.61,0.72 5.93,0.16 14.54,0.23 26.03,0.23l35.6 0c13.34,0 22.95,-0.07 28.99,-0.23 6.02,-0.16 11.34,-0.41 16.22,-0.72l-61.75 -102.44 -61.7 102.44zm-139.47 158.25l-0.27 -2.91c13.72,-6.99 28.67,-19.72 44.98,-38.32 16.34,-18.5 33.13,-41.96 50.26,-70.36l131.15 -214.69 4.63 0 136.52 212.33c2.27,3.34 5.54,8.29 9.77,14.94 35.21,54.87 63.2,86.93 84.08,96.1l0 2.91c-11.18,-0.48 -21.77,-0.88 -31.56,-1.13 -9.88,-0.23 -19.38,-0.32 -28.37,-0.32 -21.47,0 -39.37,0.09 -53.62,0.32 -14.33,0.25 -28.49,0.65 -42.32,1.13l-0.3 -2.91c10,-2.68 16.99,-5.93 20.95,-9.74 3.97,-3.82 5.95,-9.34 5.95,-16.63 0,-4.96 -1.57,-11.04 -4.75,-18.43 -3.16,-7.4 -9.49,-19.08 -18.99,-35.14l-36.19 -62.27c-6.04,-0.32 -11.88,-0.57 -17.52,-0.73 -5.74,-0.16 -12.15,-0.23 -19.29,-0.23l-65.47 0c-9.7,0 -17.22,0.07 -22.45,0.23 -5.33,0.16 -10.29,0.41 -14.94,0.73l-20.56 37.6c-9.32,16.47 -16.34,30.51 -21.09,42.02 -4.63,11.61 -7.02,20.7 -7.02,27.36 0,8.93 2.87,16.15 8.73,21.67 5.79,5.52 15.22,10.06 28.17,13.56l0 2.91c-6.34,-0.48 -13.45,-0.88 -21.18,-1.13 -7.7,-0.23 -19.37,-0.32 -34.98,-0.32 -13.59,0 -25.24,0.09 -35.03,0.32 -9.89,0.25 -19.59,0.65 -29.29,1.13zm468.84 -23.38l24.92 -70.6 4.07 0.5c4.84,25.96 20.88,47.54 47.98,64.77 27.17,17.19 58.82,25.8 95.24,25.8 36.69,0 66.36,-6.9 88.92,-20.78 22.65,-13.88 33.92,-31.99 33.92,-54.3 0,-9.5 -2.48,-18.02 -7.52,-25.49 -5.02,-7.38 -11.95,-13.06 -20.86,-16.79 -14.93,-6.18 -41.35,-11.45 -79.45,-15.68 -15.22,-1.79 -26.78,-3.15 -34.71,-4.29 -45.6,-6.34 -78.74,-16.31 -99.39,-29.96 -20.68,-13.64 -31.06,-32.22 -31.06,-55.66 0,-29.72 15.72,-53.82 47.19,-72.5 31.55,-18.58 73.2,-27.92 124.9,-27.92 25.93,0 51.76,2.27 77.54,6.91 25.72,4.63 49.19,11.11 70.25,19.56l-22.56 57.79 -5.55 -0.5c-5.04,-22.81 -18.19,-40.66 -39.55,-53.41 -21.38,-12.74 -48.46,-19.15 -81.31,-19.15 -32.24,0 -58.63,6.18 -79.33,18.42 -20.67,12.27 -31.06,27.68 -31.06,46.28 0,9 3.07,17.45 9.11,25.15 6.14,7.79 14.23,13.72 24.54,17.86 17.22,6.65 49.34,12.65 96.53,18.01 16.43,2.12 28.99,3.66 37.67,4.8 36.71,4.95 63.81,13.79 81.31,26.78 17.51,12.91 26.24,30.44 26.24,52.69 0,33.6 -16.66,60.86 -49.87,81.9 -33.24,21.01 -76.97,31.48 -131.27,31.48 -34.01,0 -66.27,-2.77 -96.73,-8.2 -30.35,-5.52 -57.05,-13.31 -80.11,-23.47zm388.12 23.38l-0.27 -3.88c19.27,-6.66 32.71,-18.36 40.33,-35.15 7.72,-16.81 11.58,-45.71 11.58,-86.6l0 -19.49 0 -107.21c0,-21.36 -2.97,-35.96 -8.9,-43.67 -5.84,-7.79 -16.34,-13.81 -31.45,-18.1l0 -3.89c10.09,0.32 19.7,0.57 28.77,0.73 9.2,0.16 17.72,0.23 25.64,0.23 13.16,0 23.52,-0.07 31.24,-0.16 7.7,-0.07 15.43,-0.16 22.95,-0.32 16.22,31.74 35.51,66.31 57.77,103.89 22.26,37.58 49.55,81.49 81.79,131.72l126.31 -236.09c1.98,0 5.05,0.07 9.32,0.23 16.88,0.5 28.67,0.73 35.28,0.73 10.58,0 27.49,-0.32 50.64,-0.96 2.09,0 3.77,0 4.95,0l0 3.89c-12.86,1.7 -21.67,6.56 -26.51,14.54 -4.84,7.86 -7.2,23.19 -7.2,45.84l0 146.2c0,41.21 2.77,67.92 8.31,80.26 5.41,12.24 16.4,20.04 32.62,23.38l0 3.88c-11.56,-0.48 -22.94,-0.88 -34.23,-1.13 -11.27,-0.23 -25.11,-0.32 -41.53,-0.32 -10.59,0 -21.88,0.09 -33.65,0.32 -11.83,0.25 -24.22,0.65 -37.17,1.13l-0.31 -3.88c15.74,-3.18 26.42,-10.79 31.87,-22.81 5.43,-12.09 8.2,-40.19 8.2,-84.42l0 -175.64 -157.07 294.54 -4.34 0c-26.72,-54.04 -53.44,-105.09 -80.13,-153.07 -26.69,-48.05 -52.62,-91.78 -77.72,-131.25l0 141.15c0,48.55 3.64,80.77 10.95,96.76 7.43,16.06 20.77,27.58 40.08,34.74l-0.32 3.88c-11.95,-0.48 -22.54,-0.88 -31.83,-1.13 -9.38,-0.23 -17.22,-0.32 -23.54,-0.32 -10.29,0 -20.58,0.09 -30.98,0.32 -10.39,0.25 -20.84,0.65 -31.45,1.13zm661.61 -158.25c5.22,0.31 10.77,0.56 16.61,0.72 5.93,0.16 14.54,0.23 26.03,0.23l35.6 0c13.34,0 22.95,-0.07 28.99,-0.23 6.02,-0.16 11.34,-0.41 16.22,-0.72l-61.75 -102.44 -61.7 102.44zm-139.47 158.25l-0.27 -2.91c13.72,-6.99 28.67,-19.72 44.98,-38.32 16.33,-18.5 33.12,-41.96 50.25,-70.36l131.16 -214.69 4.63 0 136.52 212.33c2.27,3.34 5.54,8.29 9.76,14.94 35.22,54.87 63.21,86.93 84.09,96.1l0 2.91c-11.18,-0.48 -21.77,-0.88 -31.56,-1.13 -9.88,-0.23 -19.38,-0.32 -28.38,-0.32 -21.46,0 -39.37,0.09 -53.61,0.32 -14.34,0.25 -28.49,0.65 -42.33,1.13l-0.29 -2.91c10,-2.68 16.99,-5.93 20.95,-9.74 3.97,-3.82 5.95,-9.34 5.95,-16.63 0,-4.96 -1.57,-11.04 -4.75,-18.43 -3.16,-7.4 -9.5,-19.08 -18.99,-35.14l-36.19 -62.27c-6.05,-0.32 -11.89,-0.57 -17.52,-0.73 -5.75,-0.16 -12.15,-0.23 -19.29,-0.23l-65.47 0c-9.7,0 -17.22,0.07 -22.45,0.23 -5.34,0.16 -10.29,0.41 -14.95,0.73l-20.56 37.6c-9.31,16.47 -16.33,30.51 -21.08,42.02 -4.63,11.61 -7.02,20.7 -7.02,27.36 0,8.93 2.86,16.15 8.72,21.67 5.8,5.52 15.23,10.06 28.18,13.56l0 2.91c-6.34,-0.48 -13.45,-0.88 -21.18,-1.13 -7.7,-0.23 -19.38,-0.32 -34.98,-0.32 -13.59,0 -25.24,0.09 -35.04,0.32 -9.88,0.25 -19.58,0.65 -29.28,1.13zm206.15 -345.84l79.92 -71.5c5.25,-4.7 10.59,-8.38 15.93,-10.88 5.4,-2.52 10.49,-3.81 15.04,-3.81 6.02,0 11.17,1.88 15.51,5.68 4.34,3.81 6.54,8.26 6.54,13.31 0,4.45 -1.81,8.36 -5.27,11.77 -3.45,3.38 -9.79,7.4 -19.06,12.01l-87.17 43.42 -21.44 0zm366.65 396.5l-6.45 -13.08c10.99,-6.07 23.94,-11.52 38.66,-16.47 14.86,-4.86 31.97,-9.5 51.57,-13.79 -59.18,-5.68 -106.43,-23.95 -141.94,-54.71 -35.53,-30.76 -53.32,-68.34 -53.32,-112.91 0,-48.05 20.38,-87.74 61.11,-118.98 40.76,-31.32 92.9,-47 156.28,-47 63.52,0 115.93,15.74 157.08,47.16 41.16,31.49 61.72,71.11 61.72,118.82 0,45.46 -18.99,83.76 -56.88,114.86 -37.88,30.99 -87.33,48.62 -148.45,52.76 32.72,6.65 68.14,17.29 106.33,31.8 38.19,14.54 60.9,21.77 68.24,21.77 3.48,0 7.32,-0.41 11.48,-1.3 4.15,-0.91 8.99,-2.2 14.63,-3.91l2.38 3.34c-15.95,9.82 -32.24,17.61 -49.05,23.38 -16.83,5.84 -33.55,9.32 -50.16,10.63 -28.08,-7.97 -60.02,-20.87 -96.05,-38.8 -35.9,-17.95 -60.12,-26.94 -72.7,-26.94 -8.29,0 -16.9,1.86 -25.72,5.59 -8.79,3.74 -18.38,9.65 -28.76,17.78zm-33.15 -210.46c0,49.41 12.36,88.06 37.19,115.73 24.83,27.76 59.37,41.64 103.58,41.64 42.53,0 76.35,-14.04 101.57,-42.12 25.22,-28.01 37.78,-66.31 37.78,-114.84 0,-49.6 -12.36,-88.08 -37.21,-115.5 -24.79,-27.44 -59.43,-41.17 -103.85,-41.17 -44.21,0 -78.42,13.57 -102.64,40.76 -24.26,27.19 -36.42,65.66 -36.42,115.5zm739.44 -16.4l0 -5.43c0,-51.23 -3.66,-84.58 -11.06,-100.01 -7.43,-15.49 -20.81,-26.62 -39.99,-33.44l0.3 -3.41c4.04,0.16 9.81,0.41 17.42,0.73 18.88,0.82 31.65,1.23 38.17,1.23 13.54,0 33.85,-0.66 61.02,-1.96l1.77 0 0 3.41c-19.67,6.82 -33.32,18.77 -40.93,35.8 -7.5,17.04 -11.27,51.37 -11.27,103.08l0 47.16c0,46.66 -13.95,81.15 -41.76,103.48 -27.78,22.24 -70.9,33.35 -129.15,33.35 -62.62,0 -107.64,-10.06 -135.13,-30.19 -27.38,-20.13 -41.15,-53.73 -41.15,-100.8 0,-13.15 0.21,-28.49 0.6,-46.1 0.4,-17.63 0.61,-28.64 0.61,-33.28l0 -73.45c0,-11.45 -2.57,-20.13 -7.82,-26.06 -5.24,-6.02 -13.85,-10.31 -26.01,-12.99l0 -3.82c11.56,0.57 23.04,1.07 34.33,1.39 11.27,0.32 22.44,0.48 33.53,0.48 10.95,0 22.13,-0.16 33.51,-0.48 11.47,-0.32 22.95,-0.82 34.53,-1.39l0 3.82c-12.17,2.2 -20.99,6.34 -26.31,12.34 -5.45,6.08 -8.11,14.94 -8.11,26.71l0 106.96c0,26.47 0.89,47.66 2.55,63.57 1.79,15.83 4.45,28.4 8.11,37.82 7.54,18.84 21.58,33.51 42.14,44.08 20.61,10.54 45.51,15.81 74.88,15.81 44.03,0 77.56,-10.13 100.6,-30.35 23.06,-20.2 34.62,-49.67 34.62,-88.31l0 -49.75zm197.7 65.09l0 2.84c0,41.23 2.88,68.01 8.72,80.51 5.82,12.43 17.2,20.38 34.03,23.88l0 3.88c-11.99,-0.48 -23.83,-0.88 -35.71,-1.13 -11.88,-0.23 -26.42,-0.32 -43.64,-0.32 -18.29,0 -32.92,0.09 -43.71,0.32 -10.77,0.25 -20.95,0.65 -30.65,1.13l-0.29 -3.88c16.51,-3.18 27.78,-10.95 33.62,-23.47 5.81,-12.41 8.81,-40.33 8.81,-83.76l0 -165.01c0,-11.2 -2.77,-19.88 -8.33,-25.9 -5.55,-5.99 -14.61,-10.38 -27.31,-13.06l0 -3.82c12.2,0.57 24.06,1.07 35.71,1.39 11.59,0.32 22.97,0.48 34.24,0.48 11.18,0 22.65,-0.16 34.33,-0.48 11.67,-0.32 23.62,-0.82 35.78,-1.39l0 3.82c-12.34,1.86 -21.34,6.02 -27.11,12.27 -5.61,6.25 -8.49,15.17 -8.49,26.69l0 165.01zm132.79 -34.01l0 10.24c0,48.37 3.65,80.52 10.88,96.49 7.22,16.08 20.67,27.69 40.16,34.98l-0.29 3.41c-12.2,-0.48 -22.76,-0.88 -31.85,-1.13 -9.23,-0.23 -17.02,-0.32 -23.56,-0.32 -10.27,0 -20.56,0.09 -30.94,0.32 -10.39,0.25 -20.88,0.65 -31.47,1.13l-0.29 -3.41c19.6,-6.97 33.14,-19.15 40.66,-36.5 7.5,-17.29 11.27,-52.37 11.27,-105.21l0 -107.62c0,-20.45 -2.88,-34.67 -8.61,-42.44 -5.66,-7.88 -16.04,-14.13 -31.15,-18.92l0 -3.89c4.66,0 11.16,0.16 19.7,0.48 16.99,0.32 28.17,0.48 33.6,0.48 11.77,0 21.56,-0.07 29.38,-0.16 7.83,-0.07 15.53,-0.16 23.26,-0.32 47.16,47.89 131.33,119.73 252.61,215.48 2.36,1.89 4.04,3.25 5.24,4l0 -78.17c0,-54.21 -3.65,-89.19 -10.88,-104.87 -7.22,-15.65 -20.7,-27.04 -40.17,-34.01l0.3 -3.41c4.07,0.16 9.79,0.41 17.4,0.73 18.9,0.82 31.65,1.23 38.19,1.23 13.54,0 33.83,-0.66 61.02,-1.96l1.8 0 0 3.41c-19.68,6.82 -33.33,18.77 -40.99,35.8 -7.49,17.04 -11.26,51.37 -11.26,103.08l0 183.99 -5.41 0c-35.92,-35.94 -80.83,-77.74 -134.54,-125.38 -53.71,-47.66 -115.02,-100.16 -184.06,-157.55l0 130.02zm509.3 -13.13c5.22,0.31 10.77,0.56 16.6,0.72 5.93,0.16 14.54,0.23 26.04,0.23l35.6 0c13.34,0 22.95,-0.07 28.99,-0.23 6.02,-0.16 11.33,-0.41 16.22,-0.72l-61.75 -102.44 -61.7 102.44zm-139.47 158.25l-0.27 -2.91c13.72,-6.99 28.67,-19.72 44.98,-38.32 16.33,-18.5 33.12,-41.96 50.25,-70.36l131.16 -214.69 4.63 0 136.51 212.33c2.28,3.34 5.55,8.29 9.77,14.94 35.22,54.87 63.21,86.93 84.08,96.1l0 2.91c-11.17,-0.48 -21.76,-0.88 -31.55,-1.13 -9.88,-0.23 -19.38,-0.32 -28.38,-0.32 -21.47,0 -39.37,0.09 -53.61,0.32 -14.34,0.25 -28.49,0.65 -42.33,1.13l-0.29 -2.91c9.99,-2.68 16.99,-5.93 20.94,-9.74 3.98,-3.82 5.96,-9.34 5.96,-16.63 0,-4.96 -1.57,-11.04 -4.75,-18.43 -3.16,-7.4 -9.5,-19.08 -18.99,-35.14l-36.19 -62.27c-6.05,-0.32 -11.89,-0.57 -17.52,-0.73 -5.75,-0.16 -12.15,-0.23 -19.29,-0.23l-65.47 0c-9.7,0 -17.22,0.07 -22.45,0.23 -5.34,0.16 -10.29,0.41 -14.95,0.73l-20.56 37.6c-9.31,16.47 -16.33,30.51 -21.08,42.02 -4.63,11.61 -7.02,20.7 -7.02,27.36 0,8.93 2.86,16.15 8.72,21.67 5.8,5.52 15.23,10.06 28.17,13.56l0 2.91c-6.33,-0.48 -13.44,-0.88 -21.17,-1.13 -7.7,-0.23 -19.38,-0.32 -34.99,-0.32 -13.58,0 -25.24,0.09 -35.03,0.32 -9.88,0.25 -19.58,0.65 -29.28,1.13zm468.84 -23.38l24.92 -70.6 4.07 0.5c4.84,25.96 20.88,47.54 47.98,64.77 27.17,17.19 58.82,25.8 95.23,25.8 36.69,0 66.36,-6.9 88.92,-20.78 22.65,-13.88 33.92,-31.99 33.92,-54.3 0,-9.5 -2.47,-18.02 -7.52,-25.49 -5.02,-7.38 -11.95,-13.06 -20.85,-16.79 -14.93,-6.18 -41.35,-11.45 -79.45,-15.68 -15.22,-1.79 -26.78,-3.15 -34.71,-4.29 -45.6,-6.34 -78.74,-16.31 -99.4,-29.96 -20.67,-13.64 -31.05,-32.22 -31.05,-55.66 0,-29.72 15.72,-53.82 47.18,-72.5 31.56,-18.58 73.2,-27.92 124.91,-27.92 25.92,0 51.75,2.27 77.54,6.91 25.72,4.63 49.18,11.11 70.24,19.56l-22.56 57.79 -5.54 -0.5c-5.04,-22.81 -18.2,-40.66 -39.55,-53.41 -21.38,-12.74 -48.46,-19.15 -81.31,-19.15 -32.24,0 -58.64,6.18 -79.33,18.42 -20.68,12.27 -31.06,27.68 -31.06,46.28 0,9 3.07,17.45 9.11,25.15 6.13,7.79 14.22,13.72 24.54,17.86 17.22,6.65 49.34,12.65 96.53,18.01 16.42,2.12 28.99,3.66 37.66,4.8 36.72,4.95 63.82,13.79 81.31,26.78 17.52,12.91 26.24,30.44 26.24,52.69 0,33.6 -16.65,60.86 -49.86,81.9 -33.24,21.01 -76.97,31.48 -131.27,31.48 -34.01,0 -66.27,-2.77 -96.74,-8.2 -30.35,-5.52 -57.04,-13.31 -80.1,-23.47zm-4951.52 168.64l5309.72 0 0 85.17 -5309.72 0 0 -85.17z"/></g></g></svg>