<svg  id="fndm-drfj6gfmyl" viewBox="0.288665771484375 0.43375158309936523 1578.3013916015625 518.087646484375" xmlns="http://www.w3.org/2000/svg">
   <g xmlns="http://www.w3.org/2000/svg" fill="none">
    <path d="m93.26,438.57c12.18,-28 17.66,-55.55 25.1,-82.46c8,-29 7.49,-29.12 37.92,-29.14c3.34,0 6.7,0.25 10,-0.06c6.6,-0.62 9.43,1.46 10.05,8.79a13354.3,13354.3 0 0 0 14.78,164.57c1,10.24 -2.28,12.75 -12.1,12.56c-24.12,-0.47 -24.13,0 -25.88,-23.93c-2.22,-30.34 -4.44,-60.69 -8.89,-91.41c-5.947,20.127 -11.9,40.26 -17.86,60.4c-4.46,15.2 -9.29,30.32 -13,45.71c-1.72,7.07 -4.7,9.17 -11.84,9.19c-24,0.07 -24,0.38 -30.36,-23.11a47075.406,47075.406 0 0 1 -23.57,-88.08c-5.79,1.42 -3.8,5.55 -4,8.29c-2.23,30.39 -4.48,60.77 -6.11,91.19c-0.43,8 -1.8,11.69 -11.23,11.66c-27.55,-0.1 -27.49,0.4 -24.9,-27.48c4.55,-49 9.25,-98 13.28,-147.11c0.77,-9.31 4.09,-12.21 13,-11.3a96.21,96.21 0 0 0 22.5,0c11.67,-1.62 15.69,3.93 18.19,14.35c7.65,31.75 16.14,63.3 24.92,97.37zm476.14,-59.74c0,-18.07 0.37,-35.55 -0.15,-53c-0.26,-8.82 2.84,-10.49 11.08,-9.1c24.59,4.17 24.26,3.88 24.72,28.32c1,53.77 -3,107.63 2.89,161.29c0.36,3.3 0.84,6.42 -3.41,6c-9.29,-0.8 -19.24,3.37 -27.75,-2.77c-2.63,-1.89 -4.15,-1.31 -6.57,-0.47c-45.91,16 -77.31,-3.69 -82,-52c-2,-20.74 1,-40.84 13.15,-58.6c14.22,-20.73 36.38,-28.2 61.44,-20.87a62.46,62.46 0 0 0 6.6,1.2zm0.42,66.35c0,-7.92 -0.66,-15.92 0.16,-23.76c1.08,-10.3 -4.88,-14.38 -13.06,-16.77c-8.76,-2.56 -16.66,-0.94 -22.2,6.91c-8.71,12.31 -9.65,53.25 -1.55,65.52c6,9 14.86,9.93 24.37,7.74c8.9,-2 13.35,-7.36 12.44,-17.13c-0.7,-7.44 -0.14,-15 -0.16,-22.49l0,-0.02zm237.42,-3.56c0,10.44 0.06,20.88 0,31.32a32.1,32.1 0 0 0 3.74,15.62c2,3.89 9.29,6.18 6.48,11a59.32,59.32 0 0 1 -15.56,17.64c-5.41,4 -10.29,-2 -13.57,-5.82c-5.23,-6.06 -8.9,-5.57 -15.28,-1.09c-16.11,11.3 -45.25,9.73 -60.28,-2.09c-13.23,-10.4 -17.87,-32.59 -10.45,-51.87c7.33,-19.1 24.27,-23.91 41.93,-27.09c5.3,-0.95 10.82,-0.67 16.24,-1c5.42,-0.33 12.69,1.83 11.8,-8c-0.73,-8.04 -1.13,-16.28 -12.21,-17.04c-12.23,-0.87 -23.33,2.91 -33.1,9.54c-7.58,5.14 -11.81,4 -15.44,-4a56.42,56.42 0 0 0 -6,-9.55c-3.68,-5.07 -2,-8.19 3.06,-10.88c21.48,-11.44 43.77,-18.8 68.48,-13.59c20.58,4.34 30,15.83 30.41,36.84c0.19,10 0,20 0,30.06l-0.25,0zm-35.28,26.45c0.23,-16 0.11,-16.16 -15.64,-14.12a47.31,47.31 0 0 0 -4.91,0.77c-7.61,1.75 -12.73,6.1 -13.55,14.17c-0.77,7.62 -0.44,15 7,19.87c7,4.56 13.35,2.16 19.89,-1.13c8.65,-4.35 6.91,-12.28 7.21,-19.56zm-419.29,-16.37c-1,-19.61 2.39,-42.28 -3.46,-64.48c-0.83,-3.12 -0.81,-5.7 3.13,-6.79c7.64,-2.1 15.19,-4.51 22.83,-6.62c5,-1.38 7,2.12 7.76,5.95c1.65,8.69 5.55,7 11.1,3.36c11.93,-7.83 25.08,-11.34 39.34,-8.58c15.4,3 25.48,12.18 26,27.74c1.25,34.6 0.82,69.25 1.11,103.88c0,4 -1.38,6.39 -5.73,6.36c-7.93,-0.05 -15.87,-0.11 -23.8,-0.06c-7.45,0 -6,-5.46 -6,-9.77c-0.09,-25.47 0.17,-50.93 -0.18,-76.39c-0.13,-9 2.75,-20.88 -11.83,-21.93c-13.13,-0.94 -24.45,10.54 -24.45,23.68c0,24.63 -0.28,49.26 0.18,73.89c0.16,8.1 -2.11,10.8 -10.51,10.83c-25.39,0.09 -25.41,0.46 -25.51,-24.42c-0.02,-11.27 0.02,-22.54 0.02,-36.65zm-35.39,-20.7c0,15.45 -0.08,30.9 0.08,46.35c0,3.72 1,7.42 1.34,11.15c0.51,5.2 7.95,10.13 3.55,14.63c-5.07,5.18 -12.64,7.9 -19.12,11.7c-2.63,1.55 -5.4,0.89 -6.65,-1.29c-5.52,-9.64 -11.68,-6.79 -19.32,-2.48c-10.12,5.72 -21.61,6.36 -32.94,4.65c-22.16,-3.36 -33.34,-15.41 -33.85,-38c-0.69,-30 -0.21,-60.12 -0.54,-90.18c-0.07,-6.13 2,-8.36 8.11,-9.86c27.79,-6.78 27.71,-7 27.73,20.87c0,23.38 -0.22,46.76 0.17,70.14c0.24,14.7 5.52,20.58 16.47,20.08c12.2,-0.55 20,-9 20,-21.93c0,-25 0.35,-50.11 -0.22,-75.15c-0.19,-8.58 1.85,-12.32 11,-14.11c24.3,-4.78 24.19,-5.32 24.19,19.58c-0.013,11.3 -0.013,22.583 0,33.85zm715.02,85.79c-15.28,0.56 -30.44,-5.22 -45.58,-11.32c-6.77,-2.73 -7.77,-6.63 -4,-12.55a32.85,32.85 0 0 0 3.72,-7.91c2.57,-8.39 6.64,-10.21 14.65,-5.4a72.22,72.22 0 0 0 33.14,10.26c9.58,0.56 17.93,-2.08 20,-12.74c2.07,-10.66 -5.92,-14.69 -14.37,-17c-6.8,-1.89 -13.89,-2.77 -20.81,-4.26c-20.8,-4.45 -32.16,-16.33 -33.46,-34.86c-1.48,-21.18 9,-37.92 28.66,-44.73c23,-8 45.18,-3.83 66.75,6c4.27,1.95 5,4.12 3.25,8.76c-6.1,16.39 -7.6,17.29 -23.77,12.11c-5.13,-1.65 -10.48,-3.34 -15.79,-3.58c-8.62,-0.38 -17.47,0.91 -19.44,11.44c-1.91,10.26 6.74,12.23 13.75,14.58c6.7,2.24 13.69,3.61 20.53,5.45c21.54,5.8 32,17.5 33,37c1,18.37 -10.38,35.74 -28.33,43.2c-10.61,4.41 -18.19,5.8 -31.9,5.55zm176.8,-4.24c-13,4.18 -18.7,-4.07 -20.55,-17c-1.3,-9.09 -5.87,-13.19 -15.22,-11.52c-2.43,0.43 -5,0 -7.5,0.07c-24.57,0.34 -19.68,-2.87 -25.87,19c-2.16,7.62 -5.79,9.52 -13.13,9.59c-24.8,0.21 -25,0.43 -17.57,-22.38c11.16,-34.5 22.86,-68.83 33.63,-103.44c2.74,-8.79 6.94,-11.36 15.91,-11.21c28.38,0.48 28.43,0.09 37.1,27.79a42003.75,42003.75 0 0 1 28.24,90.68c5.67,18.17 5.71,18.16 -15.04,18.42zm-45.16,-94.21c-3,10.48 -5.88,20.26 -8.42,30.15c-2,7.9 4.24,7.09 8.24,6.26c4,-0.83 13.18,4.24 11.17,-5.58c-2.09,-10.23 -2.85,-21.35 -10.99,-30.83zm-287.23,-18.32c0,24.59 -0.24,49.18 0.15,73.76c0.11,7.61 -0.12,15.34 10.86,18.27c6.66,1.78 6.7,11.24 6.92,17.43c0.2,5.82 -6.65,5.21 -10.85,5.9c-27.22,4.5 -43.6,-9.06 -43.83,-36.8c-0.35,-40.84 -0.18,-81.69 -0.23,-122.53l0,-7.51c-0.65,-25.83 -0.58,-25.53 25.09,-31.36c7.78,-1.77 10.84,-0.22 10.8,7.85c-0.14,25 0,50 0,75l1.09,-0.01zm-201.38,43.02c0,20 -0.23,40 0.13,60c0.12,6.87 -1.93,9.39 -9.1,9.71c-26.87,1.22 -26.85,1.47 -26.85,-25.26c0,-32.93 0.28,-65.86 -0.21,-98.78c-0.12,-8 2.85,-10.82 10.14,-12.19c26,-4.86 25.93,-5 25.93,21.49l0,45l-0.04,0.03zm-17.41,-126.72c12.31,-0.05 21.76,9.77 21.62,22.49c-0.14,12.72 -9.58,22.16 -22.07,22.11c-12.49,-0.05 -21.76,-9.62 -21.76,-22.42c0.066,-12.234 9.976,-22.13 22.21,-22.18z" fill="#5A5C5D"/>
    <path d="m1205.48,267.49l8.24,7.16c0.74,-0.3 1.86,-0.4 2.13,-0.93c1.57,-3.1 -1.58,-8 3.26,-9.71c2.65,-0.94 4.63,1.41 6.1,3.34c2.77,3.66 5.66,7.75 3.91,12.46c-1.92,5.16 -5.3,2.49 -7.61,0.11c-7.18,-7.42 -6.1,1.12 -8,4a2.26,2.26 0 0 0 -0.63,1.09c-4.23,-5.2 -8.08,-10.57 -8,-17.72l0.6,0.2zm282.05,70.9c3.06,-8.49 7.22,-15.39 18.13,-12.49l-1.77,6.17l-8.62,7.18c-2.21,0.63 -5.69,1.21 -3.52,4.22c1.86,2.58 4,-0.34 5.64,-1.89c2.91,0.37 4.54,1.32 2.07,4.31c-2.92,3.51 -7.14,4.8 -11.07,6.59c0.32,-4.73 4.38,-9.69 -0.86,-14.09zm-23.88,-320.33c1.88,3.36 3.41,6.7 -0.1,10c-3.7,3.48 -5.86,-1.16 -8.75,-1.78c-4.59,-1 -7.69,-4.19 -9.58,-8.64c4.85,-4.12 9.45,-0.77 14,-0.09l4.43,0.51zm-216.15,297.81c-6.15,-0.07 -8.72,-5.9 -13.41,-8.37a4.75,4.75 0 0 1 -1.59,-7.37c2.06,-2.69 5.19,-1.6 7.84,0c5.82,3.61 9,8.41 7.33,15.56l-0.17,0.18zm225.14,32.03l-1.77,1.71c-4.54,4.4 -9.31,8.61 -16.15,5.36c-2.36,-1.12 -1.41,-3.82 0.15,-5.23c5.16,-4.68 10.29,-10.2 18,-4.22a2.91,2.91 0 0 0 -0.23,2.38zm-215.62,-299.86c2.83,0.89 4.54,-1.23 6.67,-2.37c2.74,-1.46 5.51,-4.79 8.78,-1.75c2.31,2.15 0.32,4.69 -1.31,6.44c-3.61,3.89 -7.09,8.29 -13.49,6.88c-6.65,-1.47 0.35,-5.25 -1.29,-7.56c0.21,-0.55 0.43,-1.09 0.64,-1.64zm127.04,332.42c-2.82,-2.73 -7.63,-5.76 -2.78,-9.64a13.49,13.49 0 0 1 16.1,-0.6c2.49,1.64 1.27,4.37 -1.43,5.69c-3.18,1.55 -7.49,0.28 -9.84,3.94a2.59,2.59 0 0 0 -2.05,0.61zm-189.22,-185.69c1.2,-2.36 1.68,-6.76 5.5,-4.44c4.49,2.71 3.25,7.95 3.13,12.41c-0.07,2.51 -0.27,5.52 -3.17,5.92c-3.94,0.54 -4.16,-3 -4.84,-5.79c-0.39,-1.59 -0.82,-3.16 -1.24,-4.74c0.334,-0.71 0.618,-1.441 0.85,-2.19c0.09,-0.35 -0.14,-0.74 -0.23,-1.17zm104.23,168.15c-0.75,-2.85 -4.42,-6.93 1.18,-7.83c5.44,-0.86 11.31,1.27 13.84,6.45c2.28,4.64 -2.9,3.47 -5.23,4.31l-9.79,-2.93zm219.94,-43.14c-1.72,-7.73 4.06,-11.31 8.79,-15.25c0.89,-0.74 3.77,0.25 3.4,2.28c-1.23,6.66 -6.09,10.32 -11.8,13.08l-0.39,-0.11zm-251.61,22.42c-6,-2.43 -11.86,-5 -14,-13.62c8,0.53 11.72,5.6 15.84,9.92l-0.42,2.45a1.1,1.1 0 0 0 -1.07,1.41l-0.35,-0.16zm239.66,-297c-0.77,2.71 5,5.19 1.08,7.37c-3.92,2.18 -6.65,-2.17 -9.38,-4.4c-2.06,-1.68 -5.59,-4 -3.27,-6.94c2.85,-3.6 5.65,2.1 8.87,1.32l2.7,2.65zm-316,125.36c1.11,-4.87 -0.31,-10.65 5.83,-14.82c3.25,7.68 2.79,14 -3.31,19.48l-2.52,-4.66zm167.97,210.64c-3.93,-2 -9.2,-0.56 -12.42,-4.65c8.83,-5.09 11,-4.65 18.8,3.88l-6.38,0.77zm110.13,-16.21c-3.57,-0.5 -6.49,4.18 -10.62,1.29c1.75,-5.24 6.67,-5.76 10.73,-7.3c1.27,-0.49 3.78,-0.65 3.13,2c-0.35,1.45 -1.92,2.6 -2.94,3.89l-0.3,0.12zm109.43,-82.3c-0.3,0.69 -0.45,1.76 -1,1.95c-0.55,0.19 -1.33,-0.48 -2,-0.77c0.3,-0.69 0.45,-1.77 0.94,-2c0.49,-0.23 1.37,0.52 2.06,0.82z" fill="#993E38"/>
    <path d="m1267.76,342.35a1.1,1.1 0 0 1 1.07,-1.41l0.86,1.62l-1.93,-0.21zm95.16,-129.3c11.16,0.16 18.28,7 17.38,15.8c-0.9,8.8 -6.4,13.39 -15,13.6a15.19,15.19 0 0 1 -15.34,-16.1c0.54,-9.22 6.2,-12.95 12.96,-13.3zm-32.41,-37.67c0.29,-8.9 5.33,-14.36 14.59,-14.74c9.7,-0.39 14.74,5.54 14.65,14.81c-0.08,9.09 -5.29,15.33 -14.53,15.52c-9.24,0.19 -14.44,-5.43 -14.71,-15.59zm65.76,-4.49c-8.42,-1.69 -14.71,-6.17 -14.48,-15.58c0.23,-9.41 6.4,-14.76 15.43,-14.37c8.8,0.38 14.68,5.49 14.6,15.28c-0.08,10.07 -6.48,13.56 -15.55,14.67zm35.25,34.78c0.22,10.25 -6.8,17.53 -15.55,17.23c-9.18,-0.3 -13.58,-6.17 -13.91,-14.47c-0.37,-9.2 4.87,-15.14 14.16,-15.59c9.29,-0.45 14.54,4.86 15.3,12.83zm45.51,-18.34c-0.82,8.86 -4.63,15.07 -13.67,14.94c-8.62,-0.12 -12.08,-6.46 -12.19,-14.27c-0.11,-8.58 4,-14.46 13.2,-14.4c8.9,0.06 11.15,6.97 12.66,13.73zm-162.69,-59.13c1.57,-8.4 6.33,-14.31 15.41,-14.5c7.67,-0.17 12.87,4.72 12.33,12.4c-0.61,8.62 -5.81,14.41 -15.2,14.66c-8.2,0.2 -11.72,-4.68 -12.54,-12.56zm70.37,133.27c8.12,0.48 13.67,4.28 14,12.77c0.36,8.78 -5.62,13 -13.4,13.21c-8.31,0.22 -15.09,-4 -15,-13.14c0.08,-8.46 6.63,-11.78 14.4,-12.84zm-73.55,-66.27c-1.08,8.65 -4.47,14.93 -13.22,14.49c-8.28,-0.41 -12.71,-6.37 -12.74,-14.36c-0.03,-7.99 4.09,-14.3 12.48,-14.47c9.25,-0.24 12.24,6.97 13.48,14.34zm65.37,-73.71c-7.84,-1 -13.8,-4.49 -13.54,-13.3c0.26,-8.81 6.44,-12.31 14.28,-12.47c8,-0.17 14.09,3.5 14.17,12.34c0.09,9.51 -6.53,12.64 -14.91,13.43zm68.87,3.78c8.18,0.54 13.09,6 13.29,15.19c0.16,7.29 -4,11.71 -11.44,12.2c-8,0.52 -16.34,-8.07 -15.62,-16.19c0.64,-7.27 4.83,-11.27 13.77,-11.2zm-11.96,143.79c-8.24,-0.11 -13.69,-3.6 -13.63,-11.58c0.06,-9.22 5.89,-14.2 15,-14.71c7.32,-0.41 12,3.24 12.19,10.79c0.27,9.42 -5.01,14.29 -13.56,15.5zm-161.93,-121.01c1,-6.85 4.87,-13.3 13.53,-13.68c6.76,-0.3 10,5 10.24,11.61c0.27,7.91 -7.57,16.76 -14.26,15.76c-6.69,-1 -9.66,-5.68 -9.51,-13.69zm44.26,82.25c7.58,1.76 14.11,4.75 14,14.27c-0.12,9.05 -7.13,12.55 -13.85,12.58c-8.65,0.05 -12.42,-7.37 -12.45,-15.28c-0.05,-7.24 4.94,-10.9 12.3,-11.57zm109.39,-124.73c-7.4,-0.88 -13.57,-4.39 -14,-13.49c-0.33,-7.42 5.14,-10 11.28,-10.49c7.93,-0.66 16.14,7.17 15.65,14.26c-0.4,5.92 -5.24,9.81 -12.93,9.72zm-86.65,195.17c-7.48,-0.82 -13.88,-4.55 -14.19,-13.37c-0.23,-6.77 4.9,-10.57 11.5,-10.26c8.26,0.39 14.52,4.58 14.92,13.45c0.33,7.12 -4.76,9.93 -12.23,10.18zm128.02,-64.54c1.25,-7.95 5,-14.52 13.88,-14.6c7,-0.06 10,5.75 9.87,12.08c-0.23,8.49 -4.59,14.31 -13.74,14.47c-7.61,0.05 -9.44,-5.45 -10.01,-11.95zm-106.07,-156.41c-7,-0.36 -13.11,-1.95 -13.34,-9.27c-0.26,-8.27 6,-11.4 13.3,-11.88c6.45,-0.43 12.25,1.9 12.58,9.1c0.39,8.46 -6.12,10.93 -12.54,12.05zm127.43,58.18c-8.18,-1.88 -13,-6.78 -13.27,-15.29c-0.21,-6.37 3.17,-10.63 9.7,-10c8.87,0.93 12.23,7.57 12.65,15.6c0.31,5.92 -3.23,8.97 -9.08,9.69zm25.27,33.5c-0.27,6.24 -1.8,12 -9.47,11.89c-8.71,-0.1 -10.77,-7.07 -11.21,-13.82c-0.41,-6.3 2.68,-12 9.71,-12c8.44,0.03 10.53,6.66 10.97,13.93zm-224.91,88.3c-0.5,5.88 -2.88,10.3 -8.92,10.08c-9,-0.33 -12.86,-6.61 -13.56,-14.71c-0.48,-5.52 1.9,-9.94 8.41,-9.6c8.98,0.48 12.53,6.66 14.07,14.23zm112.91,63.86c-6.53,-0.38 -12.31,-2 -12.15,-9.57c0.19,-8.45 6.69,-10.93 13.73,-11.15c6.32,-0.2 12.08,2.64 12.07,9.66c0.03,8.46 -6.93,10.17 -13.65,11.06zm-89.83,-226.8c-4.68,-0.54 -9.67,-4.27 -9.47,-8.3c0.41,-7.79 6.73,-12 14.37,-12.9c6.14,-0.71 11,1.66 10.87,8.71c-0.15,9.76 -7.06,12.04 -15.77,12.49zm94.52,-31.15c-7,-0.73 -13.41,-2.38 -13.63,-10.28c-0.18,-6.84 5.25,-8.88 11.23,-8.63c7.1,0.29 13.94,2.37 13.9,10.81c-0.03,6.91 -6.19,7.81 -11.5,8.1zm-134.58,53.3c-6.06,-0.18 -8.93,-3.36 -8.67,-8.76c0.4,-8.08 4.78,-13.46 12.85,-14.59c5.75,-0.8 8.52,3.09 8.26,8.47c-0.39,8.1 -5.13,12.84 -12.44,14.88zm-15.37,48.39c-0.84,5.95 -2.25,12.47 -10.34,12.66c-7.1,0.17 -8.88,-5.62 -8.76,-11.28c0.13,-6.67 2.69,-12.86 10.41,-13.19c7.16,-0.36 8.37,5.48 8.69,11.81zm101.79,168.3c-5.58,-1.57 -12.18,-1.92 -11.64,-11c0.46,-7.68 5.54,-8.66 11.13,-8.13c6.4,0.61 12.9,2.92 12.63,10.78c-0.23,6.78 -6.1,7.97 -12.12,8.35zm-62.47,-47.26c6.48,1.1 12,5.06 13.2,13c0.86,5.74 -3.18,8.56 -8.4,8.32c-8,-0.38 -13.23,-5.21 -14.45,-13c-0.87,-5.53 2.89,-8.24 9.65,-8.32zm-46.27,-76.15c0,-7.39 2.87,-12.92 9.75,-12.82c7.4,0.11 10.28,6.2 10.66,13.09c0.37,6.5 -1.69,12.58 -8.86,12.71c-8.16,0.14 -10.75,-6.48 -11.55,-12.98zm199.95,72.85c7.1,0.18 10.92,2.9 10.36,9.14c-0.81,9.18 -7.72,12.67 -15.49,13.38c-6.26,0.57 -7.54,-4.2 -7.5,-10c0.07,-9.64 7.47,-10.27 12.63,-12.52zm28.52,-199.06c-0.57,6.32 -4.32,8.67 -9.34,8.25c-7.25,-0.59 -13,-4.78 -13.59,-12c-0.38,-5.12 3.85,-7.72 10.06,-7.67c8.72,0.08 11.33,5.06 12.87,11.42zm47.93,128.88c-1,6.31 -3.08,12.71 -10.86,12.64c-7,-0.06 -8.21,-6 -7.93,-11.82c0.33,-6.77 2.37,-13.06 10.39,-12.88c6.87,0.16 8.14,6 8.4,12.06zm-24.88,57.06c-3,6.57 -5,14.26 -13.93,15.18c-5.73,0.59 -8.74,-2.93 -8.5,-8.19c0.35,-7.9 4.91,-13.37 12.63,-14.9c5.49,-1.1 7.55,4 9.8,7.91zm-154.31,-224.91c-6.4,-0.35 -11.85,-1 -11.23,-7c0.82,-7.73 7.7,-8.65 14,-9.13c4.61,-0.36 9.06,1.47 8.91,6.27c-0.26,7.98 -7.3,8.64 -11.68,9.86zm121.73,278.12c-2.06,8.14 -8.38,10.61 -15.73,11c-4.5,0.27 -7.25,-2.7 -6.1,-7.07c1.91,-7.25 7.53,-10.34 14.75,-10.56c4.35,-0.07 7,1.9 7.08,6.63zm-26.3,-285.5c6.7,1.08 13.35,3.25 14.34,11.09c0.64,5 -3.78,7.24 -8.48,6.51c-6.88,-1.06 -13.24,-3.74 -14,-11.75c-0.42,-5.01 4.12,-5.35 8.14,-5.85zm-125.37,12.87c-2.09,7 -7.39,10.61 -14.49,11.47c-4.21,0.51 -7.87,-1.62 -7.29,-6.34c1,-7.92 6.92,-11 14.08,-11.69c4.18,-0.41 7.27,1.46 7.7,6.56zm-68.59,71.5c-3.71,4.37 -2,13.58 -11.54,14.28c-4.54,0.33 -7.19,-1.88 -7.29,-6.35c-0.18,-8.37 4.94,-13.07 12.31,-15c3.9,-0.95 5.73,2.54 6.52,7.07zm293.44,33.73c-0.61,5.32 -1.13,10.4 -6.48,10c-7.9,-0.6 -9.28,-7.18 -9.31,-13.62c0,-4.69 1.07,-9.77 7.49,-8.66c7.39,1.26 7.28,7.8 8.3,12.28zm-298.91,98.4c7.32,1.53 10.94,6.66 11.87,13.76c0.52,3.91 -0.48,8.13 -5.48,7.84c-8,-0.47 -10.9,-6.61 -12.07,-13.4c-0.64,-3.87 0.68,-7.46 5.68,-8.2zm272.27,1.76c0.42,-7.2 1.86,-13.15 9.74,-14.11c5.29,-0.65 7.72,2.6 7.59,7.4c-0.18,7.17 -2.93,13.35 -10.72,14.45c-5.5,0.78 -6.25,-4.1 -6.61,-7.74zm-127.33,-237.35c5.75,0.81 11.6,1.34 11.24,7.9c-0.32,5.75 -5.86,6.35 -10.41,6.16c-5.23,-0.22 -12.16,-0.37 -11.81,-7.53c0.31,-6.22 7.14,-5.36 10.98,-6.53zm-161.3,163.13c-0.68,6.64 -2.38,13.86 -8.16,14.35c-5.5,0.47 -6.06,-6.84 -6.23,-11.79c-0.18,-5.57 0.61,-11.89 7.51,-12.16c5.88,-0.23 5.59,6.06 6.88,9.6zm35.43,112.22c7.77,0.69 11.6,5.73 12.56,12.94c0.54,4.05 -2.6,6.78 -6.28,5.27c-5.79,-2.37 -13.12,-3.59 -13.71,-12.27c-0.4,-5.8 3.45,-5.61 7.43,-5.94zm156.11,39.45c4.5,0.58 10.64,-0.06 9.74,6.54c-0.93,6.8 -7.17,8.54 -13.23,8.81c-4.75,0.21 -10.08,-0.73 -9.57,-6.81c0.63,-7.57 7.43,-7.68 13.06,-8.54zm78.1,-267.73c6.74,1.65 11,6.14 11.8,13.47c0.42,3.89 -1.91,6.81 -5.92,5.8c-6.88,-1.72 -11.55,-6.4 -12.58,-13.59c-0.58,-4.08 2.28,-5.77 6.7,-5.68zm-257.94,160.14c-0.86,4.07 -0.54,10.2 -6.66,9.78c-7,-0.48 -8.64,-6.89 -9.22,-12.82c-0.46,-4.76 0.46,-10.16 6.41,-9.92c7.33,0.34 8.24,6.95 9.47,12.96zm281.93,-101.49c-7.24,-1.89 -10.08,-7.47 -10.51,-14.54c-0.25,-4 1.14,-8.16 6.08,-7.2c7.49,1.46 10.54,7.37 11.27,14.45c0.46,4.48 -1.99,6.87 -6.84,7.29zm-204.06,196.78c4.94,3.46 12.36,4.45 13.45,12.31c0.68,5 -3.28,6.34 -7.16,6.45c-7.4,0.2 -13.07,-3.5 -14.7,-10.52c-1.1,-4.73 4.05,-6.28 8.41,-8.24zm59.64,37.99c-4.87,-0.58 -11.41,-1 -11.38,-7.81c0,-5.66 6.3,-5.94 10.58,-5.84c4.59,0.1 11,-0.43 11.61,6.23c0.58,6.87 -5.29,7.08 -10.81,7.42zm122.74,-62.42c4.56,0 7.14,2.14 6.31,6.1c-1.49,7.18 -6.39,11.66 -13.6,12.81c-3.39,0.54 -5.73,-2.15 -5.24,-5.46c1.08,-7.36 5.94,-11.58 12.53,-13.45zm53.67,-101.18c-1,4.81 -1.13,11 -7.77,10.91c-5.81,-0.08 -6.59,-5.39 -6.57,-10.21c0,-5.22 0.84,-11.25 6.81,-11.63c6.45,-0.37 6.81,5.9 7.53,10.93zm-274.89,-125.51c-2.14,5.85 -6.1,10.79 -13.66,11.38c-3.46,0.27 -7.31,-0.45 -6.43,-5.16c1.45,-7.7 7.3,-11.51 14.34,-13.08c4.01,-0.93 6.02,1.88 5.75,6.86zm150,-43.64c-5.34,-1.69 -12.52,-1.85 -13.67,-8.29c-0.85,-4.79 5.06,-4.7 8.35,-4c5.08,1 12.44,-0.18 13.46,7.14c0.71,5.08 -4.68,4.31 -8.14,5.15zm117.2,209.39c0.82,-5.27 0.78,-11.81 8.08,-12.91c3.58,-0.54 4,3.47 3.92,6.34c-0.26,5.78 -0.71,12.23 -7.48,13.8c-4.71,1.09 -4,-3.77 -4.52,-7.23zm-207.49,115.8c4.16,1.14 10.31,1.41 11.17,7.28c0.81,5.48 -4.56,5.1 -8.07,4.69c-5.37,-0.61 -11.75,-1.63 -11.94,-8.4c-0.1,-3.68 4.85,-3.63 8.84,-3.57zm2.31,-341.34c3.41,-0.22 8,-0.19 6.94,4.24c-1.3,5.25 -6.86,6.77 -12,7c-3,0.12 -8.18,1 -7.55,-3.65c0.88,-6.59 7.27,-6.84 12.61,-7.59zm148.22,36.23c-0.53,4.41 -3.29,5.11 -6.3,4.31c-6.15,-1.63 -11.85,-4.38 -12.45,-11.65c-0.24,-3 3,-3.64 5.51,-3.17c6.4,1.17 11.4,4.21 13.24,10.51zm-189.96,-9.77c-4.2,0.14 -7.37,0 -7.16,-4.17c0.4,-7.64 7.51,-6.49 12,-8.49c3.15,-1.39 6.78,0.82 6.16,3.65c-1.26,5.84 -6.73,7.77 -11,9.01zm-58.16,46.21c5.52,1.66 5.43,5.5 3.73,9.84c-1.7,4.34 -4.21,8.47 -9,9.54c-5.1,1.13 -5,-2.89 -4.79,-6.3c0.37,-5.43 5.1,-8.26 7.65,-12.4l2.41,-0.68zm56.15,254.52c-0.54,4.34 -3.52,4.64 -6.39,4c-5.76,-1.34 -11.24,-3.75 -11.93,-10.49c-0.38,-3.67 2.91,-4.64 6.06,-3.89c5.89,1.38 10.27,4.7 12.26,10.38zm264.57,-191.61c-0.5,3.14 0.91,8.08 -4,7.36c-5.9,-0.86 -6.44,-6.76 -6.94,-11.54c-0.31,-3 -0.55,-7.91 4,-7.24c5.97,0.84 5.99,6.84 6.94,11.42zm-25.86,136.6c-2,4.85 -3.69,10.93 -10.69,11.68c-4.35,0.47 -4.24,-3.24 -3.63,-6.13c1.28,-6.11 4.43,-11.05 11.11,-11.7c2.92,-0.28 3.72,2.77 3.21,6.15zm-314.85,-137.66c-1.28,4.47 -1.87,10.55 -7.87,10.7c-4.63,0.12 -4.8,-4.93 -4.07,-8.56c0.94,-4.68 1.54,-10.79 7.7,-10.94c5.08,-0.12 4.07,5.02 4.24,8.8zm209.72,211.6c2.93,0.31 7.64,-0.55 7.19,3c-0.85,6.78 -7.34,6.88 -12.63,7.4c-2.67,0.25 -7.2,0.54 -6.39,-3.53c1.17,-5.9 7.08,-6.06 11.83,-6.87zm118.39,-245.86c-0.63,3.94 -2,8.36 -4.54,7.08c-5.64,-2.86 -8.07,-8.84 -8.64,-15.17c-0.19,-2.19 1.27,-4.49 3.61,-3.89c6.53,1.72 8.02,7.39 9.57,11.98zm12.02,70.13c1.06,-3.34 -0.81,-9.29 4.45,-8.67c5,0.59 4.14,6.5 4,10.42c-0.08,3 0.85,8.19 -3.56,8c-5.52,-0.3 -4.16,-6.02 -4.89,-9.75zm-355.31,51.53c0.84,-2.84 -1,-8.36 4.1,-7.11c5.33,1.32 6.32,7.21 6.73,12.28c0.24,2.86 0.12,7.06 -3.69,6.49c-6.2,-0.91 -6.24,-6.81 -7.14,-11.66zm168.33,-221.28c-3.31,-1.06 -9.72,1.36 -9.58,-4.31c0.14,-5.24 6.45,-3.83 10.13,-3.84c3.68,-0.01 10,-2.09 9.92,3.7c-0.05,4.94 -6.24,3.92 -10.47,4.45zm183.81,250.36c-1.54,4.67 -2.3,10.37 -7.81,11.7c-3,0.71 -3.4,-3 -2.67,-5.49c1.36,-4.66 2.15,-10.23 8.11,-11.1c2.44,-0.38 2.33,2.79 2.37,4.89zm-157.21,-260.76c6.44,-3.62 12.12,-2 17,2.14c1.53,1.3 -0.62,4.19 -2.39,4.77c-6.65,2.19 -11.66,0.19 -14.61,-6.91zm167.75,225.34c-4.81,-7.71 -2.62,-13.39 1.86,-21c5.04,8.42 2.07,14.04 -1.86,21zm-36.82,-148.83c0.31,3 -1.08,4.5 -3.45,4c-5.77,-1.29 -8.81,-5.71 -10.64,-10.87c-1.18,-3.31 1.19,-4.67 4,-4c5.74,1.43 8.29,6.12 10.09,10.87zm-319.71,45.61c-3.15,-0.09 -3.46,-2.32 -3.13,-4.28c0.84,-4.89 2.08,-9.92 6.94,-12.35c2.49,-1.25 3.79,1.14 3.49,3.32c-0.72,5.36 -2.1,10.52 -7.3,13.31zm21.61,-46.66c-1.14,-7.3 3.61,-11.2 8.74,-14.73c0.56,-0.39 3,0.48 3,1c1,6.28 -4.91,8.84 -7.45,13.26l-4.29,0.47z" fill="#993E38"/>
    <path d="m1231.24,77.9l4.33,-0.47c3.16,1.6 3.12,4.52 3.08,7.44l-2.43,0.68c-3.49,-0.31 -7.35,-0.1 -7.57,-5.19l0.06,-0.07l2.53,-2.39zm266.15,263.68c-1.64,1.55 -3.78,4.47 -5.64,1.89c-2.17,-3 1.31,-3.59 3.52,-4.22c0.7,0.78 1.41,1.55 2.12,2.33z" fill="#993E38"/>
   </g>
  </svg>