<svg xmlns="http://www.w3.org/2000/svg" fill-rule="evenodd" clip-rule="evenodd" image-rendering="optimizeQuality" shape-rendering="geometricPrecision" text-rendering="geometricPrecision" viewBox="-2 1 6600 3300"><g><rect width="6600" height="3300" x="-2" y="1" fill="none"/><g><g><path fill="#373435" d="M468.23 1069.17l0 -25.59 392.29 0 -6.54 25.59 -385.75 0 0 0zm692.86 0l-8.8 -25.59 175.95 0 -8.82 25.59 -158.33 0zm-692.86 219.31l329.62 0 6.54 -25.58 -336.16 0 0 25.58zm557.65 0l34.34 0 -1.71 -5.06 0 -2.78 0 2.78 0 -2.78 0.02 0 -2.81 -8.4 -2.8 -5.59 0 -2.91 -0.15 -0.84 -19.57 0 -7.32 25.58zm27.06 -24.61l-0.02 -0.13 0 0.13 0.02 0zm176.14 2.78l5.59 5.59 0 5.59 2.65 10.65 6.94 0 1.59 -7.84 5.59 -13.99 1.28 -3.75 -24.93 0 1.29 3.75zm192.92 16.77l-1.66 5.06 26.28 0 -2.24 -13.43 -2.02 -12.15 -14.6 0 -0.15 0.84 0 2.91 -2.8 5.59 -2.81 8.4 0 2.78zm233.9 5.06l146.37 0 0 -25.58 -151.04 0 4.67 25.58zm375.66 0l142.6 0 0 -25.58 -142.6 0 0 25.58zm360.69 -24.61l0 24.61 59.27 0 -21.79 -25.58 -37.48 0 0 0.97zm297.2 24.61l24.36 0 0 -5.06 -2.79 -13.96 0 -6.56 -38.58 0 5.02 3.75 5.59 11.18 6.4 10.65zm239.67 0l134.22 0 0 -10.65 0 -14.93 -134.22 0 0 25.58zm360.69 0l236.36 0 1.3 -7.84 0 -17.74 -237.66 0 0 25.58zm461.37 -10.65l0 10.65 134.2 0 0 -25.58 -134.2 0 0 14.93zm676.63 10.65l93.41 0 9.98 -25.58 -86.41 0 -0.19 0.97 0 -0.97 -1.13 0 -12.85 20.52 -2.81 5.06zm307.83 0l139.35 0 -8.97 -25.58 -121.41 0 -8.97 25.58zm351.26 0l162.99 0 0 -25.58 -173.2 0 10.21 25.58zm700.56 0l340.31 0 0 -25.58 -332.32 0 -3.12 9.34 -4.87 16.24zm-5319.23 438.68l217.33 0 6.54 -25.59 -223.87 0 0 25.59zm431.97 0l4827.62 0 -12.42 -25.59 -4807.86 0 -7.34 25.59zm5073.56 0l154.01 0 0 -25.59 -166.45 0 12.44 25.59zm-5505.53 -511.77l348.33 0 6.54 -25.58 -354.87 0 0 25.58zm743.21 0l57.65 0 8.8 -25.58 -75.27 0 8.82 25.58zm431.15 0l159.7 0 0 -25.58 -164.37 0 4.67 25.58zm388.97 0l142.6 0 0 -25.58 -142.6 0 0 25.58zm357.88 -10.25l0 10.25 10.8 0 -7.99 -18.62 -2.78 -3.48 0 11.85 -0.03 0zm247.06 10.25l74.52 0 0 -25.58 -95.91 0 21.39 25.58zm292.62 0l134.22 0 0 -4.66 0 -20.92 -134.22 0 0 25.58zm360.69 0l237.66 0 0 -10.25 0.02 0 0 -15.33 -237.68 0 0 25.58zm461.37 0l134.2 0 0 -25.58 -134.2 0 0 25.58zm346.7 0l86.68 0 13.98 -4.66 16.79 0 19.58 -5.59 11.18 0 5.59 -5.59 0 5.59 5.59 -8.39 8.69 -6.94 -168.08 0 0 25.58zm363.64 0l88.2 0 9.97 -25.58 -95.51 0 0.02 6.96 -2.68 18.62zm299.75 0l88.09 0 -8.99 -25.58 -70.13 0 -8.97 25.58zm296.5 0l192.12 0 0 -25.58 -202.31 0 10.19 25.58zm404.63 0l157.97 0 7 -4.66 -2.34 4.66 0.26 0 7.67 -10.23 11.18 -8.39 2.32 -6.96 -184.06 0 0 25.58zm346.93 0l318.44 0 0 -25.58 -311.27 0 -4.59 15.33 -2.58 10.25zm-5341.1 438.66l236.05 0 6.56 -25.59 -242.61 0 0 25.59zm452.91 0l4771.14 0 -12.44 -25.59 -4751.36 0 -7.34 25.59zm5017.04 0l189.59 0 0 -25.59 -202.04 0 12.45 25.59zm-5469.95 -511.77l367.04 0 6.54 -25.59 -373.58 0 0 25.59zm718.03 0l108 0 8.81 -25.59 -125.61 0 8.8 25.59zm442.99 0l173.04 0 0 -25.59 -177.7 0 4.66 25.59zm402.31 0l142.6 0 0 -25.59 -142.6 0 0 25.59zm522.42 -25.59l157.04 0 0 25.59 -135.65 0 -21.39 -25.59zm375.14 0l134.22 0 0 25.59 -134.22 0 0 -25.59zm360.69 25.59l237.68 0 0 -25.59 -237.68 0 0 25.59zm461.37 0l134.2 0 0 -25.59 -134.2 0 0 25.59zm346.7 0l180.14 0 -1.18 -7.04 -5.59 -16.8 -0.86 -1.75 -172.51 0 0 25.59zm368.81 0l111.53 0 9.97 -25.59 -124.01 0 0 12.96 2.51 12.63zm313.46 -15.44l11.18 2.81 -4.43 12.63 36.81 0 -4.43 -12.63 0 -2.81 0 -2.81 -2.79 -5.59 -0.86 -1.75 -19.66 0 -1.84 7.34 -2.8 2.81 0 2.81 -11.18 -2.81zm50.33 0l-11.2 0 0 2.81 0 -2.81 11.2 0.02 0 -0.02zm198.18 15.44l221.23 0 0 -25.59 -231.42 0 10.19 25.59zm433.74 0l187.52 0 -0.19 -1.43 -8.39 -16.79 -2.45 -7.37 -176.49 0 0 25.59zm366.28 -4.26l0.02 0 -0.87 4.26 299.94 0 0 -25.59 -300.95 0 1.86 7.37 0 13.96zm-5360.45 442.91l254.76 0 6.56 -25.58 -261.32 0 0 25.58zm473.86 0l216.51 0 -8.63 -25.58 -200.54 0 -7.34 25.58zm382.54 0l165.78 0 -3.8 -25.58 -153.6 0 -8.38 25.58zm384.55 0l93.09 0 0 -25.58 -97.75 0 4.66 25.58zm322.38 0l142.6 0 0 -25.58 -142.6 0 0 25.58zm360.69 0l308.23 0 -21.79 -25.58 -286.44 0 0 25.58zm536.87 0l265.07 0 -2.24 -1.11 -13.99 -11.18 -11.18 -8.4 -8.16 -4.89 -229.5 0 0 25.58zm695.53 0l260.73 0 0 -25.58 -228.03 0 -9.62 7.7 -11.2 8.37 -11.88 9.51zm473.23 0l309.35 0 9.97 -25.58 -319.32 0 0 25.58zm535.12 0l339.76 0 -7.91 -25.58 -322.11 0 -9.74 25.58zm570.38 0l46.51 0 0 -25.58 -56.72 0 10.21 25.58zm259.02 0l194.34 0 -12.45 -25.58 -181.89 0 0 25.58zm440.21 0l225.16 0 0 -25.58 -237.6 0 12.44 25.58zm-5434.38 -73.11l273.47 0 6.56 -25.59 -280.03 0 0 25.59zm494.81 0l170.97 0 -8.61 -25.59 -155.02 0 -7.34 25.59zm385.51 0l131 0 -3.8 -25.59 -118.82 0 -8.38 25.59zm347.32 0l106.4 0 0 -25.59 -111.06 0 4.66 25.59zm335.69 0l142.6 0 0 -25.59 -142.6 0 0 25.59zm360.69 0l245.98 0 -21.77 -25.59 -224.21 0 0 25.59zm536.87 0l181.6 0 -2.64 -3.5 -8.4 -11.18 -8.18 -10.91 -162.38 0 0 25.59zm774.68 0l181.58 0 0 -25.59 -164.01 0 -6.54 10.91 -8.39 11.18 -2.64 3.5zm394.08 0l337.84 0 9.98 -25.59 -347.82 0 0 25.59zm562.96 0l289.29 0 -7.94 -25.59 -271.62 0 -9.73 25.59zm513.41 0l75.64 0 0 -25.59 -85.83 0 10.19 25.59zm288.15 0l158.77 0 -12.44 -25.59 -146.33 0 0 25.59zm404.65 0l260.72 0 0 -25.59 -273.17 0 12.45 25.59zm-5398.82 -511.76l404.46 0 6.56 -25.59 -411.02 0 0 25.59zm667.69 0l208.69 0 8.8 -25.59 -226.28 0 8.79 25.59zm466.69 0l199.68 0 0 -25.59 -204.34 0 4.66 25.59zm428.95 0l142.6 0 0 -25.59 -142.6 0 0 25.59zm421.55 0l257.91 0 0 -25.59 -279.3 0 21.39 25.59zm476.01 0l134.22 0 0 -25.59 -134.22 0 0 25.59zm360.69 0l237.68 0 0 -25.59 -237.68 0 0 25.59zm461.37 0l134.2 0 0 -25.59 -134.2 0 0 25.59zm657.71 0l226.32 0 9.98 -25.59 -267.41 0 19.3 13.77 11.81 11.82zm561.53 0l279.47 0 0 -25.59 -289.66 0 10.19 25.59zm808.33 0l349.02 0 0 -25.59 -380.43 0 11.45 8.18 19.56 16.77 0.4 0.64zm-5310.52 438.65l292.2 0 6.54 -25.59 -298.74 0 0 25.59zm515.75 0l125.43 0 -8.61 -25.59 -109.5 0 -7.32 25.59zm388.52 0l96.21 0 -3.8 -25.59 -84.04 0 -8.37 25.59zm310.04 0l119.73 0 0 -25.59 -124.39 0 4.66 25.59zm349.02 0l142.6 0 0 -25.59 -142.6 0 0 25.59zm360.69 0l183.75 0 -21.79 -25.59 -161.96 0 0 25.59zm536.87 0l149.39 0 -1.19 -5.89 -2.8 -13.98 -0.95 -5.72 -144.45 0 0 25.59zm408.23 -5.89l13.97 5.59 2.38 0.3 105.3 0 1.37 -0.28 13.99 -2.8 11.18 -2.81 8.39 -11.18 11.18 -8.39 0.05 -0.13 -195.82 0 0.04 0.13 8.4 8.37 8.39 8.4 11.18 2.8zm400.92 5.89l147.11 0 0 -25.59 -142.6 0 0 0.13 -2.78 16.79 -1.73 8.67zm359.61 0l366.34 0 9.98 -25.59 -376.32 0 0 25.59zm1047.26 0l104.75 0 0 -25.59 -114.96 0 10.21 25.59zm317.26 0l123.23 0 -12.45 -25.59 -110.78 0 0 25.59zm369.08 0l296.29 0 0 -25.59 -308.73 0 12.44 25.59zm-5363.25 -511.77l423.38 0 1.94 -5.8 8.38 0 0.02 0 198.49 0 7.77 5.8 -7.77 -5.8 8.4 0 1.94 5.8 258.97 0 1.92 -5.8 8.4 0 198.52 0 7.74 5.8 -7.74 -5.8 8.39 0 1.94 5.8 213.35 0 0 -5.8 11.2 0 206.91 0 5.8 5.8 -5.8 -5.8 11.18 0 0 5.8 142.6 0 0 -5.8 11.18 0 0.02 0 195.71 0 8.4 2.79 2.53 3.01 319.02 0 0 -5.8 11.18 0 195.74 0 5.8 5.8 -5.8 -5.8 11.18 0 0 5.8 134.22 0 0 -5.8 11.18 0 204.11 0 5.8 5.8 -5.8 -5.8 11.18 0 0 5.8 237.66 0 0 -5.8 11.2 0 201.33 0 5.8 5.8 -5.8 -5.8 11.18 0 0 5.8 134.2 0 0 -5.8 11.18 0 0.02 0 209.7 0 58.72 0 25.15 2.79 22.38 2.8 22.38 0 1.69 0.21 427.81 0 3.88 -5.8 5.61 0 257.24 0 7.74 5.8 -7.76 -5.8 8.4 0 1.94 5.8 308.43 0 0 -5.8 11.18 0 209.72 0 30.76 0 30.75 2.79 22.36 0 27.97 2.8 1.69 0.21 543.45 0 0 -25.58 -5659.54 0 0 25.58zm1339.42 0l0.02 0 5.8 -5.8 -5.82 5.8zm1725.2 0l0.02 0 5.8 -5.8 -5.82 5.8zm1133.29 0l0.02 0 7.74 -5.8 -7.76 5.8zm-4197.91 1456.11l5659.54 0 0 25.59 -5659.54 0 0 -25.59zm0 -1017.45l310.91 0 6.54 -25.59 -317.45 0 0 25.59zm536.7 0l79.88 0 -8.6 -25.59 -63.96 0 -7.32 25.59zm391.49 0l61.42 0 -3.79 -25.59 -49.26 0 -8.37 25.59zm272.81 0l133.04 0 0 -25.59 -137.7 0 4.66 25.59zm362.33 0l142.6 0 0 -25.59 -142.6 0 0 25.59zm360.69 0l121.5 0 -21.77 -25.59 -99.73 0 0 25.59zm536.87 0l137.93 0 -0.93 -8.27 0 -17.32 -137 0 0 25.59zm363.47 -11.06l2.76 11.06 223.75 0 0 -11.06 -0.02 -0.02 0 -14.51 -226.47 0 0 14.53 -0.02 0zm454.41 11.06l138.38 0 0 -25.59 -135.36 0 -1.63 14.51 -1.39 11.08zm599.28 0l146.44 0 9.98 -25.59 -116.61 0 -8.56 6.14 -0.03 0 -16.77 11.18 -14.45 8.27zm769.73 0l133.88 0 0 -25.59 -144.07 0 10.19 25.59zm346.39 0l87.66 0 -9.45 -19.45 -78.21 0 0 19.45zm333.52 0l331.85 0 0 -25.59 -344.3 0 12.45 25.59zm-5327.69 -511.77l5659.54 0 0 -25.59 -5659.54 0 0 25.59zm0 1602.33l5659.54 0 0 25.59 -5659.54 0 0 -25.59zm0 -1675.44l5659.54 0 0 -37.32 -5659.54 0 0 37.32zm0 1748.56l5659.54 0 0 37.31 -5659.54 0 0 -37.31zm1147.71 -1456.11l-4.66 -25.59 191.01 0 0 25.59 -186.35 0zm415.62 0l0 -25.59 142.6 0 0 25.59 -142.6 0zm482.68 0l-21.39 -25.59 218.17 0 0 25.59 -196.78 0zm414.88 0l0 -25.59 134.22 0 0 25.59 -134.22 0zm360.69 0l0 -25.59 237.68 0 0 25.59 -237.68 0zm461.37 -25.59l134.2 0 0 25.59 -134.2 0 0 -25.59zm699.54 25.59l-10.99 -25.59 176.96 0 -9.98 25.59 -155.99 0zm538.62 -25.59l260.55 0 0 25.59 -250.36 0 -10.19 -25.59zm827.25 25.59l-8.73 -25.59 319.91 0 0 25.59 -311.18 0z"/></g><path fill="#373435" d="M5047.64 2147.8l41.39 -1.44 0 23.88c0,30.1 2.74,50.37 8.33,60.69 4.64,8.71 14.41,13.08 29.37,13.08 15.9,0 26.32,-5.21 31.05,-15.53 4.45,-9.76 6.73,-29.28 6.73,-58.24 0,-21.11 -5.21,-38.92 -15.53,-53.6 -7.57,-10.5 -19.03,-20.46 -34.47,-29.93 -20.84,-12.97 -36.17,-26.14 -46.02,-39.68 -13.82,-19.22 -20.85,-43.37 -20.85,-72.44 0,-33.05 3.34,-56.61 9.77,-70.73 11.64,-25.48 34.74,-38.26 69.32,-38.26 32.57,0 54.82,11.26 66.84,33.81 8.15,15.23 12.22,40.25 12.22,75.18l0 22.53 -41.28 1.33 0 -23.86c0,-30.1 -2.85,-50.37 -8.34,-60.69 -4.64,-8.71 -14.38,-13.07 -29.44,-13.07 -15.91,0 -26.24,5.21 -31.08,15.52 -4.45,9.85 -6.62,29.26 -6.62,58.24 0,21.12 5.21,39.03 15.53,53.6 7.59,10.51 19.04,20.55 34.38,29.94 20.93,12.97 36.26,26.22 46.11,39.65 13.84,19.24 20.74,43.39 20.74,72.46 0,33.03 -3.21,56.72 -9.66,70.73 -11.65,25.48 -34.75,38.26 -69.4,38.26 -32.49,0 -54.83,-11.28 -66.85,-33.81 -8.16,-15.15 -12.24,-40.25 -12.24,-75.18l0 -22.44zm-1286.59 -348.96l108.15 0c8.33,0 15.12,6.79 15.12,15.12l0 0c0,8.33 -6.79,15.13 -15.12,15.13l-108.15 0c-8.33,0 -15.13,-6.8 -15.13,-15.13l0 0c0,-8.33 6.8,-15.12 15.13,-15.12zm-346.49 504.63l108.15 0c8.33,0 15.12,6.79 15.12,15.13l0 0c0,8.33 -6.79,15.12 -15.12,15.12l-108.15 0c-8.34,0 -15.13,-6.79 -15.13,-15.12l0 0c0,-8.34 6.79,-15.13 15.13,-15.13zm985.89 -155.67l41.39 -1.44 0 23.88c0,30.1 2.74,50.37 8.33,60.69 4.64,8.71 14.41,13.08 29.37,13.08 15.9,0 26.32,-5.21 31.05,-15.53 4.45,-9.76 6.73,-29.28 6.73,-58.24 0,-21.11 -5.21,-38.92 -15.53,-53.6 -7.57,-10.5 -19.03,-20.46 -34.47,-29.93 -20.84,-12.97 -36.17,-26.14 -46.02,-39.68 -13.82,-19.22 -20.85,-43.37 -20.85,-72.44 0,-33.05 3.34,-56.61 9.77,-70.73 11.65,-25.48 34.74,-38.26 69.32,-38.26 32.57,0 54.82,11.26 66.84,33.81 8.15,15.23 12.22,40.25 12.22,75.18l0 22.53 -41.28 1.33 0 -23.86c0,-30.1 -2.85,-50.37 -8.34,-60.69 -4.64,-8.71 -14.38,-13.07 -29.44,-13.07 -15.91,0 -26.24,5.21 -31.08,15.52 -4.45,9.85 -6.62,29.26 -6.62,58.24 0,21.12 5.21,39.03 15.53,53.6 7.59,10.51 19.04,20.55 34.38,29.94 20.93,12.97 36.26,26.22 46.11,39.65 13.84,19.24 20.74,43.39 20.74,72.46 0,33.03 -3.21,56.72 -9.66,70.73 -11.65,25.48 -34.75,38.26 -69.4,38.26 -32.49,0 -54.83,-11.28 -66.85,-33.81 -8.16,-15.15 -12.24,-40.25 -12.24,-75.18l0 -22.44zm-187.37 -106.06l0 35.22 -86.28 0 0 160.13 92.14 0 0 35.23 -133.53 0 0 -401.13 133.53 0 0 34.93 -92.14 0 0 135.62 86.28 0zm-320.28 146.49c0,27.55 -5.97,49.05 -17.99,64.38 -13.92,17.72 -33.79,26.62 -59.65,26.62 -26.14,0 -46.03,-8.9 -59.66,-26.62 -12.02,-15.33 -18.1,-36.83 -18.1,-64.38l0 -231.63c0,-27.55 6.08,-49.04 18.1,-64.4 13.63,-17.7 33.52,-26.6 59.66,-26.6 51.8,0 77.64,30.31 77.64,91l0 231.63zm-52.46 44.98c7.38,-9.47 11.18,-24.43 11.18,-44.98l0 -231.63c0,-37.21 -12.13,-55.77 -36.36,-55.77 -11.27,0 -19.71,3.6 -25.3,10.8 -7.38,9.47 -11.07,24.42 -11.07,44.97l0 231.63c0,20.55 3.69,35.51 11.07,44.98 5.59,7.19 14.03,10.8 25.3,10.8 11.26,0 19.7,-3.61 25.18,-10.8zm-295.55 -204.17l-41.28 0 0 -72.44c0,-20.55 -3.8,-35.5 -11.18,-44.97 -5.48,-7.2 -13.92,-10.8 -25.19,-10.8 -11.26,0 -19.7,3.6 -25.29,10.8 -7.38,9.47 -11.07,24.42 -11.07,44.97l0 231.63c0,20.55 3.69,35.51 11.07,44.98 5.59,7.19 14.03,10.8 25.29,10.8 24.24,0 36.37,-18.57 36.37,-55.78l0 -72.35 41.28 0 0 72.35c0,60.69 -25.84,91 -77.65,91 -26.13,0 -46.02,-8.9 -59.65,-26.62 -12.02,-15.33 -18.1,-36.83 -18.1,-64.38l0 -231.63c0,-27.55 6.08,-49.04 18.1,-64.4 13.63,-17.7 33.52,-26.6 59.65,-26.6 25.87,0 45.74,8.9 59.66,26.6 12.02,15.36 17.99,36.85 17.99,64.4l0 72.44zm-387.39 128.69l-23.86 -127.07c-0.57,-2.76 -1.43,-9.09 -2.57,-18.86 -1.04,-9.66 -1.88,-15.8 -2.45,-18.56 -0.38,2.76 -1.14,9.01 -2.19,18.86 -1.12,9.74 -1.99,16.18 -2.56,19.13l-23.85 126.5 57.48 0zm-64.11 35.23l-14.97 79.36 -41.67 0 75.48 -401.43 33.05 0 75.48 401.43 -41.68 0 -14.96 -79.36 -70.73 0zm-303.69 79.36l-41.39 0 0 -401.43 77.76 0c51.8,0 77.64,30.32 77.64,91.03l0 60.98c0,27.36 -5.97,48.75 -17.99,64.1 -13.92,17.7 -33.79,26.6 -59.65,26.6l-36.37 0 0 158.72zm0 -366.2l0 172.26 36.37 0c11.26,0 19.7,-3.51 25.18,-10.51 7.39,-9.66 11.18,-24.62 11.18,-44.97l0 -60.98c0,-37.24 -12.13,-55.8 -36.36,-55.8l-36.37 0zm-239.57 366.2l-41.3 0 0 -401.43 41.3 0 0 401.43zm-239.5 -243.28l-41.28 0 0 -72.44c0,-20.55 -3.8,-35.5 -11.18,-44.97 -5.48,-7.2 -13.92,-10.8 -25.19,-10.8 -11.26,0 -19.7,3.6 -25.29,10.8 -7.38,9.47 -11.07,24.42 -11.07,44.97l0 231.63c0,20.55 3.69,35.51 11.07,44.98 5.59,7.19 14.03,10.8 25.29,10.8 24.24,0 36.37,-18.57 36.37,-55.78l0 -72.35 41.28 0 0 72.35c0,60.69 -25.84,91 -77.65,91 -26.13,0 -46.02,-8.9 -59.65,-26.62 -12.02,-15.33 -18.1,-36.83 -18.1,-64.38l0 -231.63c0,-27.55 6.08,-49.04 18.1,-64.4 13.63,-17.7 33.52,-26.6 59.65,-26.6 25.87,0 45.74,8.9 59.66,26.6 12.02,15.36 17.99,36.85 17.99,64.4l0 72.44zm-353.58 243.28l-41.3 0 0 -401.43 41.3 0 0 401.43zm-220.07 -401.43l0 35.23 -66.28 0 0 366.2 -41.39 0 0 -366.2 -66.57 0 0 -35.23 174.24 0zm-347.45 91.03c0,-60.71 -25.84,-91.03 -77.64,-91.03l-77.76 0 0 401.43 41.39 0 0 -178.69 36.37 0c11.26,0 19.7,3.5 25.18,10.61 7.39,9.55 11.18,24.51 11.18,44.89l0 123.19 41.28 0 0 -123.19c0,-27.38 -5.97,-47.82 -17.99,-61.28 -4.83,-5.4 -10.42,-9.75 -16.66,-13.06 6.24,-3.88 11.83,-8.52 16.66,-13.84 12.02,-13.54 17.99,-33.98 17.99,-61.36l0 -37.67zm-114.01 -55.8l36.37 0c24.23,0 36.36,18.56 36.36,55.8l0 37.67c0,20.36 -3.79,35.33 -11.18,44.99 -5.48,7.01 -13.92,10.51 -25.18,10.51l-36.37 0 0 -148.97zm-277.83 251.61l-23.86 -127.07c-0.57,-2.76 -1.43,-9.09 -2.57,-18.86 -1.04,-9.66 -1.88,-15.8 -2.45,-18.56 -0.38,2.76 -1.14,9.01 -2.19,18.86 -1.12,9.74 -1.99,16.18 -2.55,19.13l-23.86 126.5 57.48 0zm-64.11 35.23l-14.97 79.36 -41.66 0 75.47 -401.43 33.06 0 75.47 401.43 -41.68 0 -14.96 -79.36 -70.73 0zm-303.69 79.36l-41.38 0 0 -401.43 77.75 0c51.81,0 77.65,30.32 77.65,91.03l0 60.98c0,27.36 -5.97,48.75 -18,64.1 -13.92,17.7 -33.79,26.6 -59.65,26.6l-36.37 0 0 158.72zm0 -366.2l0 172.26 36.37 0c11.26,0 19.7,-3.51 25.18,-10.51 7.39,-9.66 11.18,-24.62 11.18,-44.97l0 -60.98c0,-37.24 -12.12,-55.8 -36.36,-55.8l-36.37 0zm4769.01 362.42l43.01 0 0 -65.12 -43.01 0 0 65.12zm609.28 0l43.01 0 0 -65.12 -43.01 0 0 65.12zm-249.44 -110.81l-23.85 -127.07c-0.57,-2.76 -1.44,-9.09 -2.58,-18.86 -1.03,-9.66 -1.87,-15.8 -2.44,-18.56 -0.38,2.76 -1.14,9.01 -2.2,18.86 -1.12,9.74 -1.98,16.18 -2.55,19.13l-23.86 126.5 57.48 0zm-64.1 35.23l-14.98 79.36 -41.66 0 75.48 -401.43 33.05 0 75.47 401.43 -41.68 0 -14.95 -79.36 -70.73 0z"/></g></g></svg>