<svg  id="fndm-4nofztypos" viewBox="0.02999114990234375 0.27497029304504395 1680.7001953125 560.5496215820312" xmlns="http://www.w3.org/2000/svg">
   <g xmlns="http://www.w3.org/2000/svg" fill="none">
    <path d="m820.84,171.54c0,-43 -0.23,-85.92 0.07,-128.87c0.24,-33.6 9.1,-42 42.83,-42.07c53,-0.05 106,0.33 158.93,-0.32c13,-0.16 12.8,3.48 8.42,13.57c-41.46,95.31 -82.47,190.82 -123.83,286.18c-4.91,11.33 -10.25,22.56 -19.38,31.48c-11.05,10.79 -24.18,14.87 -39.27,13c-17.78,-2.25 -27.34,-13.29 -27.53,-34c-0.44,-46.3 -0.14,-92.6 -0.14,-138.89l-0.1,-0.08z" fill="#904229"/>
    <path d="m1394.05,436.75l89.64,0c-26.46,9.76 -11.37,32 -14.59,48.48c-0.93,4.73 3,6.49 7.35,6.49c12.89,0 25.78,0 38.67,-0.06c2.84,0 7,-0.06 7.26,-3.14c1.23,-14.14 3.22,-28.45 -1.48,-42.37c-1.92,-5.67 -9.49,-3.17 -13.62,-8.93l48.25,0c-18.09,4.72 -14.34,19.35 -14.44,32.05c-0.15,21 -0.06,42 0,63c0,8.25 -0.28,17.86 9.66,20c9.94,2.14 15.68,-5.59 19.26,-13.84c13.32,-30.62 26.25,-61.4 39.63,-92c1.74,-4 1.9,-10.8 7.79,-10.52c4.72,0.23 5,6.4 6.64,10.18c11.74,27.67 23.19,55.45 34.86,83.14c4.43,10.52 8.55,21.46 21.8,25.74c-14.76,4.76 -29.28,1.85 -45,2.16c14.55,-9.86 6.18,-19.91 2.93,-30.22c-3.5,-11.08 -12,-8.76 -19.83,-8.91c-4.3,-0.08 -8.6,0 -12.89,0c-16.66,0.06 -24.27,7.1 -27.28,23.71c-1.58,8.73 6,9.46 13.39,14.93l-83.45,0c12.27,-8.12 20.31,-37.65 14.43,-51.8c-1.32,-3.18 -3.6,-4.18 -6.59,-4.28c-4.3,-0.14 -8.59,-0.16 -12.89,-0.16c-38.54,0 -40,1.77 -34.62,41c1.12,8.06 1.8,8.72 16.27,14.76c-17.1,3.93 -32.63,-1.56 -49,0.63c14.46,-4.83 14.12,-15.67 13.93,-27.1c-0.41,-24.34 -0.49,-48.71 0,-73c0.25,-12.15 -5.48,-15.86 -16.57,-15.82c-11.09,0.04 -16.81,4 -16.68,16c0.32,30.56 0.07,61.12 -0.06,91.67c0,3.15 1.63,7.48 -2.15,9c-4.71,2 -6.31,-2.87 -8.59,-5.66c-20.18,-24.78 -40.35,-49.57 -60.51,-74.37c-2.65,-3.24 -4.71,-7.17 -10.85,-9.34c0,25.13 -0.12,49.6 0.06,74.07c0.07,9.59 9.62,9.08 17.58,14.48l-94.84,0c12.32,-5.31 16.52,-10.62 11.91,-20.82c-4.61,-10.2 -7.2,-21 -22.32,-18a46.24,46.24 0 0 1 -15.7,0c-12,-1.84 -17.8,3.5 -22.18,14.41c-4.5,11.21 -6.62,19.57 11.24,21.87l-2.89,3.27c-19,0 -38,0.3 -56.92,-0.2c-5.15,-0.13 -7.23,-5.79 -10,-9.58c-9.58,-13.08 -19,-26.24 -28.53,-39.39c-2.89,-4 -6,-7.75 -11.7,-6.35c-7,1.74 -4.06,7.45 -4.31,11.81c-0.29,5.24 -0.42,10.48 -0.66,15.72c-0.56,12 0.29,23.22 15.21,27.47l-95.78,0c8.12,-5.49 12.22,-11.46 7.44,-21.09c-4.53,-9.12 -6.23,-21 -21.24,-18c-4.59,0.92 -9.52,0.16 -14.29,0.17c-17.52,0.06 -25.55,7.37 -28.41,24.27c-1.76,10.36 9.38,7.6 12.83,14.49c-12.62,2.23 -24.35,1.35 -38.29,0c23.24,-17.46 25.87,-43.75 37.07,-65.29c7.68,-14.77 13.2,-30.64 20.17,-45.8c1.79,-3.91 1.4,-11.23 7.39,-10.53c4.82,0.56 5.32,7.29 7.1,11.52c12.18,29 24.1,58.17 36.25,87.21c1.83,4.37 3.77,9 6.84,12.47c5.42,6.1 12.67,8.34 20.81,6.15c8.3,-2.24 9.07,-9.23 9.12,-16c0.21,-26.73 0,-53.47 0.17,-80.2c0.09,-10.57 -5.68,-15.38 -15.58,-18.05c26,-1.47 51.84,-6.28 76.72,3.45c10.47,4.09 15.87,13.32 16.12,25c0.25,12.14 -4.41,22.18 -15.67,26.6c-12.06,4.73 -11.09,10.16 -4.2,18.54c8.46,10.31 15.74,21.66 24.72,31.47c11.08,12.11 19.22,10.92 26,-4c14.82,-32.55 28.75,-65.5 43.07,-98.27c1.09,-2.48 1.06,-5.85 5.57,-6.63c6.61,8.39 9.6,19 13.86,28.79a4662.447,4662.447 0 0 1 31.74,75.11c4.66,11.32 12.62,16.67 24.59,14.6c12.62,-2.18 11,-12.63 11,-21.53c0.18,-18.62 -0.66,-37.28 0.28,-55.85c0.89,-17.63 -0.49,-32.8 -25.8,-35.39c23.74,-8.23 34.23,-5.25 46.62,10.15a6283.177,6283.177 0 0 0 48.82,59.87c2.26,2.74 4.21,7.53 8.72,5.67c4.51,-1.86 2.43,-6.73 2.49,-10.26c0.25,-15.28 -0.06,-30.56 0.31,-45.83c0.33,-10.27 -0.68,-19.23 -13.18,-22.99zm-276,7.57c-9.413,-1.273 -13.623,3.373 -12.63,13.94c0.6,6.6 0.07,13.3 0.08,20c0,18.92 2.21,20.48 20.31,14.5c12.8,-4.23 19.6,-14.68 17.67,-27.16c-2.16,-13.62 -10.64,-21.07 -25.43,-21.28zm-115.86,19.29c-4,8.84 -6.89,14.8 -9.49,20.87c-12,27.9 -11.23,28.67 19,25.91c7.78,-0.72 8.89,-3.59 6.12,-10c-4.88,-11.29 -9.64,-22.65 -15.63,-36.78zm236.93,-0.1c-6.39,14.81 -11.64,26.84 -16.75,38.93c-1,2.4 -3.18,6.69 0.74,7a207.37,207.37 0 0 0 31.23,0c3.92,-0.29 2.27,-4.41 1.23,-6.93c-5.06,-12.18 -10.22,-24.28 -16.45,-39zm373.13,0.22c-6.88,15.66 -12.06,27.24 -17,38.9c-1,2.28 -3.53,6.5 0.59,6.84c10.32,0.743 20.68,0.743 31,0c3.86,-0.25 2.74,-4.35 1.71,-6.87c-4.76,-11.62 -9.71,-23.19 -16.3,-38.87zm-844.45,-412.97c1.12,4.63 1.67,5.86 1.67,7.09c0,82 0.44,164.08 -0.21,246.11c-0.25,31.53 -10.78,40.69 -41.94,40.78c-25.28,0.08 -50.557,0.08 -75.83,0c-14,-0.05 -17,-4.21 -11.48,-17.28c6.5,-15.36 14,-30.27 21,-45.43c34,-74.04 68,-148.09 102,-222.15c0.98,-2.08 2.15,-4.07 4.79,-9.12z" fill="#899291"/>
    <path d="m638.12,268.92c0,-85.84 0.11,-171.68 -0.18,-257.52c0,-9.08 3.29,-11.1 11.69,-11c33.86,0.41 67.74,0.71 101.59,-0.06c15.65,-0.36 10.38,6.94 6.94,14.46c-34.493,75.38 -69.003,150.76 -103.53,226.14c-4.46,9.74 -9.09,19.41 -13.64,29.11l-2.87,-1.13z" fill="#904229"/>
    <path d="m1036.2,288.35c0,15.26 -0.33,30.52 0.13,45.77c0.24,8 -2.6,10.93 -10.71,10.76c-22.4,-0.46 -44.83,0.28 -67.21,-0.5c-26.38,-0.91 -36.27,-15.2 -27.19,-39.85c7.9,-21.43 17.54,-42.22 26.21,-63.37c2.46,-6 6.09,-8.89 12.93,-8.76c18.59,0.36 37.18,0.31 55.77,0.07c7.3,-0.09 10.31,2.72 10.16,10.12c-0.3,15.25 -0.09,30.51 -0.09,45.76zm-1034.43,147.9c9.78,0 19.56,-0.08 29.34,0c6.23,0.07 7.21,5.55 9.13,9.68c10.27,22.06 20.28,44.24 30.58,66.29c2,4.21 3,9.13 8.67,13.22c8.56,-18.29 17,-36.24 25.37,-54.22c1.61,-3.46 2.94,-7.05 4.54,-10.51c12.34,-26.63 12.35,-26.62 48,-23.14c-22.39,5.5 -18.3,19.82 -18.38,32.36c-0.14,20.53 0.51,41.09 -0.24,61.59c-0.42,11.42 1.17,20.49 15.56,23.74c-13.78,3.56 -35.2,3.58 -50.9,-0.18c16.72,-2.2 17,-12.32 16.84,-23.33c-0.35,-20.88 -0.1,-41.76 -0.1,-65.65c-8.6,9.19 -11.09,18.36 -15,26.59c-9,19 -17.44,38.19 -26.27,57.24c-1.29,2.78 -1.68,7.56 -6,6.62c-2,-0.43 -3.63,-4.06 -4.78,-6.54c-11.61,-25.12 -23.07,-50.31 -34.63,-75.45c-0.95,-2 -2.34,-3.9 -6,-5.56c0,25.23 -0.3,50.47 0.18,75.7c0.14,7.36 8.86,7.12 15.77,11.74c-15.07,2.46 -27.44,1.65 -40.71,-0.22c14.32,-4.56 14.81,-15.15 14.52,-27c-0.56,-22.42 -0.47,-44.88 0,-67.31c0.22,-11.71 -1.16,-21.43 -17.23,-21.52l1.74,-4.14zm803.37,119.09c-25.12,6.39 -30.87,4.58 -43.79,-13.09c-8.45,-11.55 -16.93,-23.08 -25.11,-34.84c-3.12,-4.49 -6.84,-6.81 -12.05,-5.17c-5,1.58 -3.27,6.31 -3.42,9.81c-0.29,7.15 0.1,14.33 -0.17,21.49c-0.38,10.34 0.55,19.64 13.53,23l-45.93,0c13,-4.08 14.39,-13.77 14.19,-25c-0.39,-22.92 -0.33,-45.85 -0.12,-68.77c0.1,-11 -0.5,-21.13 -14.6,-25c24.61,-0.85 48.71,-4.66 72.09,2.21c11.47,3.37 18.95,12.68 19.75,25.62c0.83,13.31 -4.64,23.83 -16.8,28.83c-10.36,4.25 -10.73,8.43 -3.75,16c3.86,4.18 6.88,9.15 10.18,13.83c14.76,20.91 14.75,20.92 36,31.08zm-84.52,-85.14l0.07,0c0,6.15 -0.08,12.3 0,18.45c0.05,2.78 0.14,5.46 3.86,6.52c8.27,2.37 26.42,-5.29 30.79,-14c5.35,-10.71 4.57,-21.21 -4,-30.1c-7.38,-7.64 -17.21,-8.71 -26.38,-5.51c-8.37,2.92 -3,11.58 -4.28,17.57c-0.46,2.28 -0.06,4.71 -0.06,7.07zm-450.55,-31.97c16.91,-3.39 31.7,-4.47 44,13.35c16.44,23.75 36.35,45.07 55.89,68.83c5.08,-9.07 2.56,-17.18 2.87,-24.76c0.49,-11.91 0,-23.85 0.08,-35.78c0.07,-10.13 0.17,-20.13 -14.07,-22.12l38.5,0c-15.43,3.73 -15,15.23 -14.81,27.57c0.51,27.66 0.24,55.34 0.15,83c0,3.15 1.49,7.44 -2,9.15c-4.9,2.38 -6.32,-2.88 -8.51,-5.52c-23.06,-27.85 -46,-55.81 -71.69,-87c0,28.67 -0.23,53.54 0.11,78.4c0.13,9 9.46,8.78 18.83,13.75l-42.77,0c15.35,-4.83 15.17,-16.69 14.77,-29.38c-0.54,-18.59 -0.14,-37.21 -0.18,-55.82c-0.02,-23.34 -0.63,-24.26 -21.17,-33.67z" fill="#899291"/>
    <path d="m273.66,496.56c-0.16,35.94 -25.93,63.84 -59.36,64.26c-33.1,0.42 -59.55,-28.12 -59.38,-64.08c0.17,-35.96 26.35,-63.38 60.27,-63.21c33.04,0.17 58.63,27.74 58.47,63.03zm-21.6,3.65c-0.16,-13.91 -0.5,-25.81 -5.7,-36.95c-6.4,-13.73 -16.4,-21.73 -32.21,-21.8c-16.08,-0.06 -26.15,8.59 -31.67,22.39c-9.07,22.71 -8.42,45.84 1.1,68.28c5.69,13.4 16.53,21.1 31.4,20.83c15.37,-0.28 25.6,-8.89 32,-22.5c4.91,-10.27 4.93,-21.25 5.08,-30.25zm661.11,-2.54c-0.4,35.88 -27.31,64 -60.36,63.07c-34,-1 -58.49,-28.41 -58.06,-65.09c0.41,-35.41 26,-62.09 59.65,-62.06c33.65,0.03 59.17,27.82 58.77,64.08zm-97.29,-1.1a90,90 0 0 0 6.43,33.53c5.58,14.27 16,22.92 31.49,22.811c14.42,-0.101 25.61,-7.301 31.68,-20.721c10,-22 9.14,-44.69 0.91,-66.8c-6.76,-18.14 -17.34,-24.52 -34.82,-23.89c-14.54,0.52 -26.26,10.14 -31.56,26.86a86.69,86.69 0 0 0 -4.13,28.21zm220.34,-429.95c0,44.87 -0.17,89.75 0.15,134.62c0.06,8.46 -2.16,12.14 -11.22,11.77c-14.78,-0.6 -29.6,-0.38 -44.4,-0.15c-7.46,0.12 -9.74,-3.05 -6.92,-9.62c19.68,-45.86 39.43,-91.69 59.25,-137.49l3.14,0.87zm-427.48,399.1c-11.11,-19.76 -32.69,-27.41 -52.38,-21.55c-8.25,2.46 -6.2,9.29 -5.44,14.16c1.64,10.57 -7.19,25 5.4,30.91c8.39,3.94 21.52,4.54 30.4,-1.72c9.74,-6.86 9.1,-1.56 10.53,5.53c1.43,7.09 0.46,13.82 -0.37,21.29c-5,-7.55 -7.81,-15.59 -19.13,-16.3c-27,-1.7 -27,-2.35 -27.07,24.74c-0.1,28.13 -0.09,27.71 28.19,27.77c12.83,0 22.49,-5.51 31.33,-14.61c3.63,18.08 0.77,22 -15,22c-21.48,0 -43,0.17 -64.45,0c-4.5,-0.05 -9.61,1.82 -14.5,-3.43c15.39,-1.68 16.4,-11.91 16.13,-23.86c-0.51,-22.91 -0.09,-45.84 -0.18,-68.76c-0.07,-17 -0.15,-17 -15.39,-22.87c2.8,-5.14 7.64,-2.66 11.33,-2.71c21,-0.28 42.08,0.87 63,-0.45c14.49,-0.92 20.36,3.56 18.22,18c-0.44,2.63 -0.33,5.44 -0.62,11.86zm-130.26,91.38l-44.77,0c12.37,-5.36 14,-14.91 13.66,-26.58c-0.62,-22.9 0.19,-45.84 -0.28,-68.75c-0.12,-5.81 4.26,-15 -5.42,-16.69c-9.68,-1.69 -20.41,-1.87 -27.13,8.14c-2.06,3.08 -3.31,6.69 -5.09,10.38c-8.24,-20.91 -3.87,-27.67 17.17,-27.571c19.58,0.101 39.157,0.124 58.73,0.071c23.58,0 24.59,1.21 20.75,29.59c-6,-14.43 -14.31,-22.35 -29,-21.36c-7.68,0.52 -11.26,2.5 -11.17,10.76c0.3,28.17 0.53,56.35 -0.05,84.51c-0.27,10.28 7.3,12.06 12.6,17.5zm150.56,-0.57c13.31,-2.59 14.78,-12 14.66,-23.15c-0.26,-23.86 0,-47.73 -0.1,-71.59c0,-16.17 -0.5,-16.72 -18.3,-24.34l51.12,0c-18.79,3.8 -15.05,18.57 -15.12,31.37c-0.11,21.47 0.41,43 -0.21,64.42c-0.34,11.68 2.53,19.81 15.35,23.29l-47.4,0z" fill="#899291"/>
   </g>
  </svg>