<svg xmlns="http://www.w3.org/2000/svg" fill-rule="evenodd" clip-rule="evenodd" image-rendering="optimizeQuality" shape-rendering="geometricPrecision" text-rendering="geometricPrecision" viewBox="-2 1 6600 3300"><g><rect width="6600" height="3300" x="-2" y="1" fill="none"/><g><g fill-rule="nonzero"><path fill="#373435" d="M2401.57 2196.34l0 -291.61c0,-41.24 -16.3,-79.62 -82.49,-79.62 -64.27,0 -87.3,39.33 -87.3,82.5l0 289.69 -121.82 0 0 -291.61c0,-41.25 -16.31,-79.62 -82.5,-79.62 -64.27,0 -87.29,39.33 -87.29,82.49l0 289.7 -121.82 0 0 -464.28 109.35 0 1.92 62.35 0.96 0c19.18,-45.08 62.35,-74.82 137.18,-74.82 62.35,0 115.1,25.9 137.16,71.95 23.03,-41.25 78.66,-71.95 147.74,-71.95 106.47,0 170.74,61.4 170.74,162.12l0 314.63 -121.83 0 0 -1.92 0 0zm454.68 13.43c-139.08,0 -250.35,-99.77 -250.35,-244.61 0,-144.85 110.31,-245.57 250.35,-245.57 140.06,0 249.41,99.76 249.41,245.57 0,145.81 -110.31,244.61 -249.41,244.61zm0 -383.7c-69.05,0 -128.53,57.56 -128.53,140.05 0,82.5 59.48,139.09 128.53,139.09 69.08,0 128.55,-57.56 128.55,-139.09 0,-81.54 -60.44,-140.05 -128.55,-140.05zm679.16 370.27l0 -54.68 -0.95 0c-23.99,37.42 -71.95,66.19 -141.98,66.19 -107.43,0 -223.5,-84.41 -223.5,-243.65 0,-146.76 104.55,-244.61 235.97,-244.61 48.93,0 103.6,17.27 121.83,34.53l0 -287.77 118.94 0 0 729.03 -110.31 0 0 0.96 0 0zm-9.6 -325.19c-26.85,-28.78 -65.22,-45.08 -104.55,-44.12 -73.86,0 -131.42,58.51 -131.42,139.09 0,80.58 57.56,139.09 131.42,139.09 41.25,0.96 80.58,-19.19 104.55,-53.72l0 -180.34zm553.5 340.54c-34.53,-7.68 -62.35,-32.61 -72.9,-66.19 -21.11,46.05 -69.07,64.27 -122.79,64.27 -87.29,0 -152.52,-63.31 -152.52,-148.69 0,-87.28 70.98,-141 155.4,-149.63l101.68 -9.6 0 -23.02c0,-34.54 -24.94,-61.39 -81.54,-61.39 -45.08,0.95 -90.17,13.42 -129.5,37.4l-23.02 -95.92c40.29,-25.89 98.8,-40.28 158.28,-40.28 114.15,0 193.76,57.55 193.76,167.86l0 169.8c0,47.95 23.03,73.85 55.64,82.49l-82.49 72.9 0 0zm-91.13 -223.5l-72.91 5.75c-48.92,3.84 -70.03,35.49 -70.03,66.19 0,30.69 24.95,54.68 55.65,54.68 0.96,0 1.92,0 1.92,0 46.04,0.95 84.41,-36.45 85.37,-82.5 0,-0.96 0,-2.88 0,-3.84l0 -40.28zm356.84 226.37c-62.35,-5.74 -125.66,-46.04 -125.66,-146.76l0 -601.45 120.87 0 0 586.11c-0.97,36.44 26.85,67.14 62.35,70.02l-57.56 92.08 0 0zm710.81 -18.22l0 -291.61c0,-41.24 -16.31,-79.62 -82.5,-79.62 -64.27,0 -87.29,39.33 -87.29,82.5l0 289.69 -121.82 0 0 -291.61c0,-41.25 -16.31,-79.62 -82.5,-79.62 -64.27,0 -87.3,39.33 -87.3,82.49l0 289.7 -121.81 0 0 -464.28 109.35 0 1.92 62.35 0.95 0c19.19,-45.08 62.35,-74.82 137.18,-74.82 62.35,0 115.11,25.9 137.17,71.95 23.02,-41.25 78.66,-71.95 147.73,-71.95 106.47,0 170.74,61.4 170.74,162.12l0 314.63 -121.82 0 0 -1.92 0 0zm551.57 15.35c-34.54,-7.68 -62.35,-32.61 -72.91,-66.19 -21.09,46.05 -69.06,64.27 -122.78,64.27 -87.29,0 -152.52,-63.31 -152.52,-148.69 0,-87.28 70.98,-141 155.4,-149.63l101.68 -9.6 0 -23.02c0,-34.54 -24.94,-61.39 -81.54,-61.39 -45.08,0.95 -90.16,13.42 -129.5,37.4l-22.06 -95.92c40.29,-25.89 98.8,-40.28 158.28,-40.28 114.15,0 193.77,57.55 193.77,167.86l0 169.8c0,47.95 22.06,73.85 55.64,82.49l-83.46 72.9 0 0zm-91.13 -223.5l-72.9 5.75c-48.93,3.84 -70.03,35.49 -70.03,66.19 0,30.69 24.94,54.68 55.64,54.68 0.96,0 1.92,0 1.92,0 46.04,0.95 84.41,-36.45 85.37,-82.5 0,-0.96 0,-2.88 0,-3.84l0 -40.28zm300.24 -332.87c-22.06,0 -69.06,-46.04 -69.06,-69.06 0,-23.03 46.04,-69.07 69.06,-69.07 23.03,0 67.15,46.04 67.15,69.07 0,23.02 -44.12,69.06 -67.15,69.06zm-62.35 541.02l0 -464.28 123.75 0 0 464.28 -123.75 0zm368.36 7.67c-47.96,0.97 -94.97,-10.55 -137.18,-32.61l-13.42 -115.1c41.24,31.64 92.09,49.87 144.85,50.83 34.53,0 58.51,-18.22 58.51,-42.21 0,-25.89 -18.23,-40.28 -53.72,-50.83 -90.18,-29.74 -141.97,-72.91 -141.97,-149.65 0,-84.42 67.15,-140.05 164.03,-140.05 54.68,0 108.4,16.31 129.5,28.78l-21.1 94.01c-30.7,-18.23 -65.23,-27.82 -100.72,-27.82 -31.66,0 -50.84,16.31 -50.84,40.29 0,23.98 16.31,34.53 53.71,46.04 97.84,30.69 145.81,77.69 145.81,157.31 -1.92,75.79 -59.48,141.01 -177.46,141.01z"/><g fill="#727376"><path d="M1871.1 2768.06c-11.51,0 -23.02,-1.92 -32.61,-6.72 -9.59,-4.79 -18.23,-10.55 -24.94,-18.22 -6.71,-7.68 -11.51,-16.31 -15.35,-25.9 -3.84,-9.6 -5.75,-21.11 -5.75,-32.62 0,-11.51 1.91,-22.06 5.75,-31.65 3.84,-9.6 8.63,-19.19 15.35,-25.9 6.71,-7.68 15.35,-13.43 24.94,-17.27 9.59,-4.8 20.14,-6.72 32.61,-6.72 11.52,0 23.03,1.92 32.62,6.72 9.59,4.79 18.23,10.55 24.94,17.27 6.71,7.67 11.51,16.3 15.35,25.9 3.84,9.59 5.75,21.1 5.75,31.65 0,11.51 -1.91,22.06 -5.75,32.62 -3.84,9.59 -8.63,19.18 -15.35,25.9 -6.72,6.71 -15.35,13.42 -24.94,18.22 -9.59,4.8 -20.15,6.72 -32.62,6.72zm0 -21.11c8.64,0 16.31,-1.92 22.07,-4.79 6.71,-3.84 11.51,-7.68 16.31,-13.43 4.79,-5.76 7.67,-12.47 10.55,-19.19 1.92,-7.67 3.83,-15.35 3.83,-23.02 0,-7.67 -0.96,-15.35 -3.83,-23.02 -1.92,-7.68 -5.76,-13.43 -10.55,-19.19 -4.8,-5.75 -9.6,-9.59 -16.31,-13.43 -6.72,-3.83 -13.43,-4.79 -22.07,-4.79 -8.63,0 -16.3,1.92 -22.06,4.79 -6.71,3.84 -12.47,7.68 -16.31,13.43 -4.79,5.76 -7.67,11.51 -10.55,19.19 -1.92,7.67 -3.83,15.35 -3.83,23.02 0,7.67 0.95,15.35 3.83,23.02 1.92,7.68 5.76,13.43 10.55,19.19 4.8,5.75 9.6,9.59 16.31,13.43 6.72,2.87 13.43,4.79 22.06,4.79z"/><path d="M2073.51 2764.22l0 -217.75 24.94 0 0 83.45c6.71,-8.63 14.39,-15.35 23.02,-20.14 9.59,-4.8 19.19,-7.67 29.74,-7.67 10.55,0 19.18,1.91 27.82,5.75 8.63,3.84 16.3,9.59 22.06,16.31 5.75,6.71 10.55,16.31 14.39,25.9 3.83,10.55 4.79,22.06 4.79,34.53 0,12.47 -1.91,23.98 -4.79,34.53 -3.84,10.56 -8.63,19.19 -14.39,25.9 -5.76,6.72 -13.43,12.47 -22.06,16.31 -8.64,3.84 -18.23,5.76 -27.82,5.76 -11.51,0 -21.11,-2.88 -30.7,-7.68 -9.59,-4.79 -17.27,-11.51 -23.02,-20.14l0 23.02 -23.98 0 0 1.92zm23.98 -42.21c4.79,6.72 10.55,12.47 19.18,17.27 8.64,4.8 18.23,6.71 27.82,6.71 7.68,0 15.35,-1.91 21.11,-4.79 6.71,-2.88 11.51,-7.68 16.3,-12.47 4.8,-4.8 7.68,-11.51 9.6,-19.19 1.91,-7.67 3.83,-15.35 3.83,-23.98 0,-8.63 -0.96,-17.27 -3.83,-23.98 -1.92,-7.67 -5.76,-14.39 -9.6,-19.19 -3.83,-4.79 -9.59,-9.59 -16.3,-12.47 -6.72,-2.87 -13.43,-4.79 -21.11,-4.79 -9.59,0 -19.18,2.88 -27.82,7.67 -8.63,4.8 -15.34,10.55 -19.18,18.23l0 70.98z"/><path d="M2359.37 2764.22l0 -17.27c-13.43,14.39 -30.7,22.07 -51.8,22.07 -6.72,0 -13.43,-0.96 -20.15,-2.88 -6.71,-1.92 -12.47,-5.76 -17.27,-9.59 -4.79,-4.8 -9.59,-9.6 -12.47,-16.31 -2.87,-6.72 -4.79,-14.39 -4.79,-22.07 0,-8.63 1.92,-16.3 4.79,-23.02 2.88,-6.71 7.68,-11.51 12.47,-16.31 4.8,-4.79 11.51,-7.67 17.27,-9.59 6.72,-1.92 13.43,-2.88 20.15,-2.88 10.55,0 21.1,1.92 29.73,4.8 8.63,2.88 16.31,8.63 23.02,16.31l0 -28.78c0,-10.55 -3.83,-19.18 -11.51,-24.94 -7.67,-5.76 -17.26,-8.63 -28.77,-8.63 -18.23,0 -34.54,7.67 -47.97,22.06l-11.51 -17.27c16.31,-17.26 37.41,-25.9 63.31,-25.9 8.64,0 16.31,0.96 23.03,2.88 7.67,1.92 13.42,4.8 19.18,9.59 5.76,3.84 9.59,9.6 13.43,16.31 2.88,6.72 4.8,15.35 4.8,23.98l0 108.4 -24.94 0 0 -0.96zm-43.17 -13.43c8.63,0 17.27,-1.92 24.94,-4.8 7.67,-2.87 14.39,-7.67 19.18,-14.39l0 -29.73c-4.79,-6.72 -11.51,-11.51 -19.18,-14.39 -7.68,-2.88 -16.31,-4.8 -24.94,-4.8 -11.51,0 -21.11,2.88 -27.82,9.59 -6.71,6.72 -10.55,14.39 -10.55,24.95 0,9.59 3.84,18.22 10.55,24.94 6.71,6.71 16.31,8.63 27.82,8.63l0 0z"/><path d="M2538.75 2764.22l0 -102.64c0,-14.39 -2.88,-23.02 -9.6,-28.78 -6.71,-4.8 -15.35,-7.67 -25.9,-7.67 -4.79,0 -9.59,0.96 -14.39,1.92 -4.79,0.95 -8.63,2.87 -13.43,5.75 -3.83,1.92 -7.67,4.8 -11.51,7.67 -3.83,2.88 -5.75,5.76 -8.63,9.6l0 115.11 -24.94 0 0 -157.32 24.94 0 0 23.02c2.88,-2.88 5.76,-6.71 10.55,-9.59 3.84,-2.88 8.64,-5.75 13.43,-8.63 4.8,-2.88 10.55,-4.8 15.35,-5.76 4.8,-0.96 11.51,-1.92 17.27,-1.92 33.57,0 49.88,17.27 49.88,50.84l0 110.32 -23.02 0 0 -1.92 0 0z"/><path d="M2681.67 2768.06c-11.51,0 -22.06,-1.92 -31.65,-6.72 -9.59,-3.84 -18.23,-9.59 -24.94,-17.27 -6.72,-7.67 -12.47,-16.3 -16.31,-25.9 -3.84,-10.55 -5.75,-21.1 -5.75,-32.61 0,-11.51 1.91,-23.02 5.75,-32.61 3.84,-9.6 9.59,-18.23 16.31,-25.9 6.71,-7.68 15.35,-13.43 24.94,-17.27 9.59,-3.84 20.14,-6.72 31.65,-6.72 14.39,0 25.9,2.88 35.5,7.68 9.59,4.79 16.3,11.51 23.02,19.18l-16.31 15.35c-4.8,-6.71 -11.51,-12.47 -18.23,-15.35 -6.71,-2.88 -14.38,-4.79 -22.06,-4.79 -8.63,0 -16.31,1.92 -23.02,4.79 -6.72,2.88 -12.47,7.68 -17.27,12.47 -4.79,4.8 -8.63,11.51 -10.55,19.19 -2.88,7.67 -3.84,15.35 -3.84,23.98 0,8.63 0.96,17.27 3.84,23.98 2.88,7.68 5.76,14.39 10.55,19.19 4.8,4.79 10.55,9.59 17.27,12.47 6.71,2.87 14.39,4.79 23.02,4.79 16.31,0 29.74,-6.71 40.29,-20.14l16.31 15.35c-5.76,7.67 -13.43,14.39 -23.02,19.18 -9.6,4.8 -21.11,7.68 -35.5,7.68l0 0z"/><path d="M2842.83 2768.06c-11.51,0 -23.02,-1.92 -32.62,-6.72 -9.59,-4.79 -18.22,-10.55 -24.94,-18.22 -6.71,-7.68 -11.51,-16.31 -15.34,-25.9 -3.84,-9.6 -5.76,-21.11 -5.76,-32.62 0,-11.51 1.92,-22.06 5.76,-31.65 3.83,-9.6 8.63,-19.19 15.34,-25.9 6.72,-7.68 15.35,-13.43 24.94,-17.27 9.6,-4.8 20.15,-6.72 32.62,-6.72 11.51,0 23.02,1.92 32.61,6.72 9.6,4.79 18.23,10.55 24.94,17.27 6.72,7.67 11.52,16.3 15.35,25.9 3.84,9.59 5.76,21.1 5.76,31.65 0,11.51 -1.92,22.06 -5.76,32.62 -3.83,9.59 -8.63,19.18 -15.35,25.9 -6.71,6.71 -15.34,13.42 -24.94,18.22 -10.55,4.8 -21.1,6.72 -32.61,6.72zm0 -21.11c8.63,0 16.31,-1.92 22.06,-4.79 6.72,-3.84 11.51,-7.68 16.31,-13.43 4.8,-5.76 7.67,-12.47 10.55,-19.19 1.92,-7.67 3.84,-15.35 3.84,-23.02 0,-7.67 -0.96,-15.35 -3.84,-23.02 -1.92,-7.68 -5.75,-13.43 -10.55,-19.19 -4.8,-5.75 -9.59,-9.59 -16.31,-13.43 -6.71,-3.83 -13.43,-4.79 -22.06,-4.79 -8.63,0 -16.31,1.92 -22.06,4.79 -6.72,3.84 -12.47,7.68 -16.31,13.43 -4.8,5.76 -7.68,11.51 -10.55,19.19 -1.92,7.67 -3.84,15.35 -3.84,23.02 0,7.67 0.96,15.35 3.84,23.02 1.92,7.68 5.75,13.43 10.55,19.19 4.79,5.75 9.59,9.59 16.31,13.43 5.75,2.87 13.43,4.79 22.06,4.79z"/><path d="M3158.42 2764.22l0 -23.02c-5.75,7.67 -13.43,14.39 -23.02,20.14 -9.59,5.76 -19.18,7.68 -30.69,7.68 -10.56,0 -19.19,-1.92 -27.82,-5.76 -8.64,-3.84 -16.31,-9.59 -22.07,-16.31 -5.75,-6.71 -11.51,-15.35 -14.39,-25.9 -3.83,-10.55 -4.79,-22.06 -4.79,-34.53 0,-12.47 1.92,-23.98 4.79,-34.53 3.84,-10.55 8.64,-19.19 14.39,-25.9 5.76,-6.72 13.43,-12.47 22.07,-16.31 8.63,-3.84 18.22,-5.76 28.77,-5.76 10.56,0 20.15,2.88 29.74,7.68 9.59,4.79 17.27,11.51 23.02,20.14l0 -83.45 23.99 0 0 217.75 -23.99 0 0 -1.92zm-47 -17.27c9.59,0 19.19,-1.92 27.82,-6.71 8.63,-4.8 15.35,-10.55 19.18,-17.27l0 -70.98c-4.79,-6.72 -10.55,-12.47 -19.18,-18.23 -8.63,-4.79 -18.23,-7.67 -27.82,-7.67 -7.67,0 -15.35,1.92 -21.1,4.79 -6.72,2.88 -11.51,7.68 -16.31,12.47 -4.8,5.76 -7.68,11.51 -9.59,19.19 -1.92,7.67 -3.84,15.35 -3.84,23.98 0,8.63 0.96,16.31 3.84,23.98 1.91,7.68 5.75,13.43 9.59,19.19 4.79,5.75 9.59,9.59 16.31,12.47 5.75,2.87 13.43,4.79 21.1,4.79z"/><path d="M3243.8 2584.84c-4.8,0 -8.64,-1.92 -11.51,-4.8 -2.88,-2.87 -4.8,-6.71 -4.8,-11.51 0,-4.79 1.92,-8.63 4.8,-11.51 2.87,-2.88 6.71,-4.79 11.51,-4.79 4.79,0 8.63,1.91 11.51,4.79 2.88,2.88 4.79,6.72 4.79,11.51 0,4.8 -1.91,8.64 -4.79,11.51 -2.88,2.88 -6.72,4.8 -11.51,4.8zm-11.51 179.38l0 -157.32 24.94 0 0 157.32 -24.94 0z"/><path d="M3368.5 2828.49c-13.43,0 -24.94,-1.92 -34.53,-4.8 -9.6,-2.87 -19.19,-9.59 -28.78,-18.22l12.47 -18.23c6.71,7.68 13.43,13.43 22.06,16.31 8.64,2.88 18.23,4.8 28.78,4.8 6.71,0 12.47,-0.96 19.19,-2.88 5.75,-1.92 11.51,-4.8 16.3,-7.68 4.8,-3.83 8.64,-8.63 11.51,-14.39 2.88,-5.75 3.84,-13.42 3.84,-22.06l0 -22.06c-5.75,7.67 -13.43,14.39 -22.06,20.14 -9.59,5.76 -19.19,7.68 -30.7,7.68 -10.55,0 -19.18,-1.92 -27.82,-5.76 -8.63,-3.84 -16.3,-8.63 -22.06,-16.31 -5.76,-6.71 -11.51,-15.34 -14.39,-25.9 -3.84,-9.59 -4.8,-21.1 -4.8,-34.53 0,-12.47 1.92,-23.98 4.8,-34.53 3.84,-10.55 7.67,-18.23 14.39,-25.9 5.76,-6.72 13.43,-12.47 22.06,-16.31 8.64,-3.84 18.23,-5.75 28.78,-5.75 10.55,0 20.15,2.87 29.74,7.67 9.59,4.79 17.26,11.51 23.02,20.14l0 -23.98 23.98 0 0 152.52c0,13.43 -1.92,23.98 -6.71,32.62 -3.84,8.63 -9.6,15.35 -17.27,21.1 -7.67,5.76 -15.35,8.63 -23.98,11.51 -8.63,3.84 -18.23,4.8 -27.82,4.8l0 0zm3.84 -84.41c4.79,0 9.59,-0.96 14.39,-1.92 4.79,-0.96 9.59,-2.88 13.43,-5.76 3.83,-1.92 7.67,-4.79 11.51,-7.67 2.87,-2.88 5.75,-6.72 7.67,-9.59l0 -69.07c-1.92,-3.84 -4.8,-6.71 -7.67,-9.59 -2.88,-2.88 -6.72,-5.76 -11.51,-7.68 -3.84,-1.91 -8.64,-3.83 -13.43,-5.75 -4.8,-0.96 -9.6,-1.92 -14.39,-1.92 -7.68,0 -15.35,1.92 -21.11,4.8 -6.71,2.87 -11.51,6.71 -16.3,12.47 -4.8,5.75 -7.68,11.51 -9.6,19.18 -1.92,7.68 -3.83,15.35 -3.83,23.98 0,8.64 0.96,16.31 3.83,23.98 1.92,7.68 5.76,13.43 9.6,19.19 4.79,5.76 9.59,9.59 16.3,12.47 5.76,1.92 13.43,2.88 21.11,2.88l0 0z"/><path d="M3504.71 2584.84c-4.79,0 -7.67,-1.92 -11.51,-4.8 -3.83,-2.87 -4.79,-6.71 -4.79,-11.51 0,-4.79 1.92,-8.63 4.79,-11.51 2.88,-2.88 6.72,-4.79 11.51,-4.79 4.8,0 8.64,1.91 11.51,4.79 2.88,2.88 4.8,6.72 4.8,11.51 0,4.8 -1.92,8.64 -4.8,11.51 -2.87,2.88 -6.71,4.8 -11.51,4.8zm-12.47 179.38l0 -157.32 23.98 0 0 157.32 -23.98 0z"/><path d="M3605.44 2768.06c-11.52,0 -20.15,-2.88 -25.9,-9.6 -5.76,-6.71 -8.64,-15.34 -8.64,-26.86l0 -102.64 -25.9 0 0 -22.06 25.9 0 0 -43.17 24.94 0 0 43.17 31.66 0 0 22.06 -31.66 0 0 97.85c0,5.75 0.96,10.55 3.84,14.39 2.88,3.83 6.71,5.75 12.47,5.75 3.84,0 6.71,-0.96 9.59,-1.92 2.88,-0.96 4.8,-2.87 6.72,-4.79l6.71 18.22c-2.88,2.88 -6.71,5.76 -11.51,7.68 -4.8,1.92 -10.55,1.92 -18.23,1.92l0.01 0z"/><path d="M3759.88 2764.22l0 -17.27c-13.43,14.39 -30.7,22.07 -51.8,22.07 -6.72,0 -13.43,-0.96 -20.15,-2.88 -6.71,-1.92 -12.47,-5.76 -17.27,-9.59 -4.79,-3.84 -9.59,-9.6 -12.47,-16.31 -2.87,-6.72 -4.79,-14.39 -4.79,-22.07 0,-8.63 1.92,-16.3 4.79,-23.02 2.88,-6.71 7.68,-11.51 12.47,-16.31 4.8,-4.79 11.52,-7.67 17.27,-9.59 6.72,-1.92 13.43,-2.88 20.15,-2.88 10.55,0 21.1,1.92 29.73,4.8 8.64,2.88 16.31,8.63 23.03,16.31l0 -28.78c0,-10.55 -3.84,-19.18 -11.52,-24.94 -7.67,-5.76 -17.26,-8.63 -28.77,-8.63 -18.23,0 -34.54,7.67 -47.97,22.06l-11.51 -17.27c16.31,-17.26 37.41,-25.9 63.31,-25.9 8.64,0 16.31,0.96 23.03,2.88 7.67,1.92 13.43,4.8 19.18,9.59 5.76,3.84 9.59,9.6 13.43,16.31 2.88,6.72 4.8,15.35 4.8,23.98l0 108.4 -24.94 0 0 -0.96zm-43.17 -13.43c8.63,0 17.27,-1.92 24.94,-4.8 7.67,-2.87 14.39,-7.67 19.19,-14.39l0 -29.73c-4.8,-6.72 -11.52,-11.51 -19.19,-14.39 -7.67,-2.88 -16.31,-4.8 -24.94,-4.8 -11.51,0 -21.1,2.88 -27.82,9.59 -6.71,6.72 -10.55,14.39 -10.55,24.95 0,9.59 3.84,18.22 10.55,24.94 6.72,6.71 16.31,8.63 27.82,8.63l0 0z"/><polygon points="3833.74,2764.22 3833.74,2546.47 3857.72,2546.47 3857.72,2764.22"/><path d="M4105.21 2764.22l0 -23.02c-5.76,7.67 -13.43,14.39 -23.02,20.14 -9.6,4.8 -19.19,7.68 -30.7,7.68 -10.55,0 -19.19,-1.92 -27.82,-5.76 -8.63,-3.84 -16.31,-9.59 -22.06,-16.31 -5.76,-6.71 -11.51,-15.35 -14.39,-25.9 -2.88,-10.55 -4.8,-22.06 -4.8,-34.53 0,-12.47 1.92,-23.98 4.8,-34.53 2.88,-10.55 7.67,-19.19 14.39,-25.9 5.75,-6.72 13.43,-12.47 22.06,-16.31 8.63,-3.84 18.23,-5.76 28.78,-5.76 10.55,0 20.14,2.88 29.74,7.68 9.59,4.79 17.26,11.51 23.02,20.14l0 -83.45 23.98 0 0 217.75 -23.98 0 0 -1.92zm-47.01 -17.27c9.6,0 19.19,-1.92 27.82,-6.71 8.63,-4.8 15.35,-10.55 19.19,-17.27l0 -70.98c-4.8,-6.72 -10.55,-12.47 -19.19,-18.23 -8.63,-4.79 -18.22,-7.67 -27.82,-7.67 -7.67,0 -15.35,1.92 -21.1,4.79 -5.76,2.88 -11.51,7.68 -16.31,12.47 -4.8,4.8 -7.67,11.51 -9.59,19.19 -1.92,7.67 -3.84,15.35 -3.84,23.98 0,8.63 0.96,16.31 3.84,23.98 1.92,7.68 5.76,13.43 9.59,19.19 3.84,5.75 9.59,9.59 16.31,12.47 6.72,2.87 13.43,4.79 21.1,4.79z"/><path d="M4247.18 2768.06c-11.51,0 -23.03,-1.92 -32.62,-6.72 -9.59,-4.79 -18.22,-10.55 -24.94,-18.22 -6.71,-7.68 -11.51,-16.31 -15.35,-25.9 -3.83,-9.6 -5.75,-21.11 -5.75,-32.62 0,-11.51 1.92,-22.06 5.75,-31.65 3.84,-9.6 8.64,-19.19 15.35,-25.9 6.72,-7.68 15.35,-13.43 24.94,-17.27 9.59,-4.8 20.15,-6.72 32.62,-6.72 11.51,0 23.02,1.92 32.61,6.72 9.59,4.79 18.23,10.55 24.94,17.27 6.72,7.67 11.51,16.3 15.35,25.9 3.84,9.59 5.76,21.1 5.76,31.65 0,11.51 -1.92,22.06 -5.76,32.62 -3.84,9.59 -8.63,19.18 -15.35,25.9 -6.71,7.67 -15.35,13.42 -24.94,18.22 -9.59,4.8 -20.14,6.72 -32.61,6.72zm0 -21.11c8.63,0 16.3,-1.92 22.06,-4.79 6.71,-3.84 11.51,-7.68 16.31,-13.43 4.79,-5.76 7.67,-12.47 10.55,-19.19 1.92,-7.67 3.84,-15.35 3.84,-23.02 0,-7.67 -0.96,-15.35 -3.84,-23.02 -1.92,-7.68 -5.76,-13.43 -10.55,-19.19 -4.8,-5.75 -9.59,-9.59 -16.31,-13.43 -6.71,-3.83 -13.43,-4.79 -22.06,-4.79 -8.64,0 -16.31,1.92 -22.07,4.79 -6.71,3.84 -12.47,7.68 -16.3,13.43 -4.8,5.76 -7.68,11.51 -10.56,19.19 -1.91,7.67 -3.83,15.35 -3.83,23.02 0,7.67 0.96,15.35 3.83,23.02 1.92,7.68 5.76,13.43 10.56,19.19 4.79,5.75 9.59,9.59 16.3,13.43 6.72,2.87 14.39,4.79 22.07,4.79z"/><path d="M4415.05 2768.06c-13.43,0 -24.94,-1.92 -35.5,-5.76 -10.55,-3.84 -20.14,-10.55 -27.81,-19.18l12.47 -17.27c4.79,5.75 12.47,11.51 22.06,15.35 9.59,4.79 19.18,6.71 29.74,6.71 12.47,0 21.1,-2.88 27.81,-7.67 6.72,-4.8 9.6,-11.51 9.6,-19.19 0,-6.71 -1.92,-11.51 -6.72,-14.39 -4.79,-3.83 -10.55,-5.75 -18.22,-8.63 -7.68,-2.88 -15.35,-3.84 -23.03,-5.76 -8.63,-1.91 -16.3,-4.79 -23.02,-7.67 -7.67,-3.84 -13.43,-7.67 -18.23,-13.43 -4.79,-5.75 -6.71,-13.43 -6.71,-23.02 0,-5.76 0.96,-11.51 3.84,-17.27 2.87,-5.75 6.71,-10.55 11.51,-14.39 4.79,-3.83 11.51,-7.67 18.22,-9.59 7.68,-1.92 15.35,-3.84 24.94,-3.84 13.43,0 24.95,1.92 34.54,6.72 9.59,4.79 17.26,9.59 23.98,16.31l-11.51 17.26c-4.8,-5.75 -11.51,-10.55 -19.19,-14.39 -7.67,-3.83 -17.26,-5.75 -27.82,-5.75 -10.55,0 -19.18,1.92 -25.9,6.71 -5.75,4.8 -9.59,10.55 -9.59,17.27 0,5.76 1.92,9.59 6.72,13.43 4.79,2.88 10.55,5.75 18.22,7.67 7.68,1.92 15.35,3.84 23.03,5.76 8.63,1.92 16.3,4.79 23.02,7.67 7.67,3.84 13.43,8.64 18.22,14.39 4.8,5.76 6.72,14.39 6.72,23.98 0,6.72 -0.96,12.47 -3.84,18.23 -2.88,5.75 -6.71,10.55 -11.51,15.35 -4.79,3.83 -11.51,7.67 -19.18,10.55 -7.68,2.88 -16.31,3.84 -26.86,3.84z"/><path d="M4613.61 2584.84c-4.79,0 -7.67,-1.92 -11.51,-4.8 -3.84,-2.87 -4.79,-6.71 -4.79,-11.51 0,-4.79 1.91,-8.63 4.79,-11.51 2.88,-2.88 6.72,-4.79 11.51,-4.79 4.8,0 8.64,1.91 11.51,4.79 2.88,2.88 4.8,6.72 4.8,11.51 0,4.8 -1.92,8.64 -4.8,11.51 -2.87,2.88 -7.67,4.8 -11.51,4.8zm-12.47 179.38l0 -157.32 23.98 0 0 157.32 -23.98 0z"/><path d="M4780.52 2764.22l0 -102.64c0,-14.39 -2.88,-23.02 -9.59,-28.78 -6.72,-4.8 -15.35,-7.67 -25.9,-7.67 -4.8,0 -9.59,0.96 -14.39,1.92 -4.8,0.95 -8.63,2.87 -13.43,5.75 -4.8,2.88 -7.67,4.8 -11.51,7.67 -3.84,2.88 -5.75,5.76 -8.63,9.6l0 115.11 -23.98 0 0 -157.32 23.98 0 0 23.02c2.88,-2.88 5.75,-6.71 10.55,-9.59 3.84,-2.88 8.63,-5.75 13.43,-8.63 4.79,-2.88 10.55,-4.8 15.35,-5.76 4.79,-0.96 11.51,-1.92 17.26,-1.92 33.58,0 49.88,17.27 49.88,50.84l0 110.32 -23.02 0 0 -1.92 0 0z"/><polygon points="4896.59,2764.22 4831.36,2606.9 4858.22,2606.9 4910.98,2736.4 4962.78,2606.9 4989.64,2606.9 4924.41,2764.22 4896.59,2764.22"/><path d="M5085.56 2768.06c-11.51,0 -22.06,-1.92 -32.61,-5.76 -9.59,-3.84 -18.23,-9.59 -24.94,-17.27 -6.72,-7.67 -12.47,-16.3 -16.31,-25.9 -3.84,-10.55 -5.75,-21.1 -5.75,-33.57 0,-11.51 1.91,-22.06 5.75,-31.66 3.84,-9.59 9.59,-19.18 16.31,-25.9 6.71,-7.67 15.35,-13.42 24.94,-17.26 9.59,-4.8 20.14,-6.72 31.66,-6.72 11.51,0 23.02,1.92 31.65,6.72 9.59,4.79 17.27,10.55 23.98,18.22 6.72,7.68 11.51,16.31 14.39,26.86 3.84,10.55 4.8,21.11 4.8,33.58l0 5.75 -127.58 0c0,7.68 1.92,14.39 4.79,21.11 2.88,6.71 6.72,12.47 11.51,17.26 4.8,4.8 10.56,8.64 17.27,11.51 6.72,2.88 14.39,4.8 23.02,4.8 9.6,0 18.23,-1.92 26.86,-4.8 8.64,-3.83 16.31,-8.63 22.07,-14.39l11.51 16.31c-7.68,7.68 -17.27,13.43 -27.82,18.23 -11.51,0.96 -23.02,2.88 -35.49,2.88l-0.01 0zm48.93 -92.09c0,-5.76 -0.96,-11.51 -2.88,-18.23 -1.92,-5.75 -4.8,-11.51 -9.59,-17.27 -3.84,-4.79 -9.6,-9.59 -16.31,-12.47 -6.72,-2.87 -14.39,-4.79 -23.02,-4.79 -8.64,0 -16.31,1.92 -22.07,4.79 -5.75,2.88 -11.51,7.68 -15.34,12.47 -3.84,4.8 -7.68,10.56 -9.6,17.27 -1.92,5.76 -3.83,12.47 -3.83,18.23l102.64 0z"/><path d="M5247.68 2768.06c-13.43,0 -24.94,-1.92 -35.49,-5.76 -10.55,-3.84 -20.15,-10.55 -27.82,-19.18l12.47 -17.27c4.79,5.75 12.47,11.51 22.06,15.35 9.59,4.79 19.19,6.71 29.74,6.71 12.47,0 21.1,-2.88 27.82,-7.67 6.71,-4.8 9.59,-11.51 9.59,-19.19 0,-6.71 -1.92,-11.51 -6.72,-14.39 -4.79,-3.83 -10.55,-5.75 -18.22,-8.63 -7.68,-2.88 -15.35,-3.84 -23.02,-5.76 -8.64,-1.91 -16.31,-4.79 -23.03,-7.67 -7.67,-3.84 -13.43,-7.67 -18.22,-13.43 -4.8,-5.75 -6.72,-13.43 -6.72,-23.02 0,-5.76 0.96,-11.51 3.84,-17.27 2.88,-5.75 6.71,-10.55 11.51,-14.39 4.8,-3.83 11.51,-7.67 18.23,-9.59 7.67,-1.92 15.34,-3.84 24.94,-3.84 13.43,0 24.94,1.92 34.53,6.72 9.59,4.79 17.27,9.59 23.98,16.31l-11.51 17.26c-4.8,-5.75 -11.51,-10.55 -19.18,-14.39 -7.68,-3.83 -17.27,-5.75 -27.82,-5.75 -10.55,0 -19.19,1.92 -25.9,6.71 -5.76,4.8 -9.6,10.55 -9.6,17.27 0,5.76 1.92,9.59 6.72,13.43 4.8,2.88 10.55,5.75 18.23,7.67 7.67,1.92 15.34,3.84 23.02,5.76 8.63,1.92 16.31,4.79 23.02,7.67 7.67,3.84 13.43,8.64 18.23,14.39 4.79,5.76 6.71,14.39 6.71,23.98 0,6.72 -0.96,12.47 -3.84,18.23 -2.87,5.75 -6.71,10.55 -11.51,15.35 -4.79,3.83 -11.51,7.67 -19.18,10.55 -7.68,2.88 -16.31,3.84 -26.86,3.84z"/><path d="M5388.69 2768.06c-11.51,0 -20.15,-2.88 -25.9,-9.6 -5.76,-6.71 -8.63,-15.34 -8.63,-26.86l0 -102.64 -25.9 0 0 -22.06 25.9 0 0 -43.17 24.94 0 0 43.17 31.65 0 0 22.06 -31.65 0 0 97.85c0,5.75 0.96,10.55 3.83,14.39 2.88,3.83 6.72,5.75 12.47,5.75 3.84,0 6.72,-0.96 9.6,-1.92 2.87,-0.96 4.79,-2.87 6.71,-4.79l6.72 18.22c-2.88,2.88 -6.72,5.76 -11.52,7.68 -4.79,1.92 -10.55,1.92 -18.22,1.92l0 0z"/><path d="M5456.8 2584.84c-4.8,0 -7.68,-1.92 -11.51,-4.8 -3.84,-2.87 -4.8,-6.71 -4.8,-11.51 0,-4.79 1.92,-8.63 4.8,-11.51 2.87,-2.88 6.71,-4.79 11.51,-4.79 4.79,0 8.63,1.91 11.51,4.79 2.87,2.88 4.79,6.72 4.79,11.51 0,4.8 -1.92,8.64 -4.79,11.51 -2.88,2.88 -6.72,4.8 -11.51,4.8zm-11.51 179.38l0 -157.32 23.98 0 0 157.32 -23.98 0z"/><path d="M5632.34 2764.22l0 -23.02c-5.76,7.67 -13.43,14.39 -23.02,20.14 -9.6,4.8 -19.19,7.68 -30.7,7.68 -10.55,0 -19.18,-1.92 -27.82,-5.76 -8.63,-3.84 -16.31,-9.59 -22.06,-16.31 -5.76,-6.71 -11.51,-15.35 -14.39,-25.9 -2.88,-10.55 -4.8,-22.06 -4.8,-34.53 0,-12.47 1.92,-23.98 4.8,-34.53 2.88,-10.55 7.67,-19.19 14.39,-25.9 5.75,-6.72 13.43,-12.47 22.06,-16.31 8.64,-3.84 18.23,-5.76 28.78,-5.76 10.55,0 20.14,2.88 29.74,7.68 9.59,4.79 17.26,11.51 23.02,20.14l0 -83.45 23.98 0 0 217.75 -23.98 0 0 -1.92zm-47 -17.27c9.59,0 19.18,-1.92 27.81,-6.71 8.64,-4.8 15.35,-10.55 19.19,-17.27l0 -70.98c-4.8,-6.72 -10.55,-12.47 -19.19,-18.23 -8.63,-4.79 -18.22,-7.67 -27.81,-7.67 -7.68,0 -15.35,1.92 -21.11,4.79 -5.75,2.88 -11.51,7.68 -16.31,12.47 -4.79,4.8 -7.67,11.51 -9.59,19.19 -1.92,7.67 -3.84,15.35 -3.84,23.98 0,8.63 0.96,16.31 3.84,23.98 1.92,7.68 5.76,13.43 9.59,19.19 3.84,5.75 9.6,9.59 16.31,12.47 6.72,2.87 13.43,4.79 21.11,4.79z"/><path d="M5775.27 2768.06c-11.51,0 -23.02,-1.92 -32.62,-6.72 -9.59,-4.79 -18.22,-10.55 -24.94,-18.22 -6.71,-7.68 -11.51,-16.31 -15.35,-25.9 -3.83,-9.6 -5.75,-21.11 -5.75,-32.62 0,-11.51 1.92,-22.06 5.75,-31.65 3.84,-9.6 8.64,-19.19 15.35,-25.9 6.72,-7.68 15.35,-13.43 24.94,-17.27 9.6,-4.8 20.15,-6.72 32.62,-6.72 11.51,0 23.02,1.92 32.61,6.72 9.59,4.79 18.23,10.55 24.94,17.27 6.72,7.67 11.51,16.3 15.35,25.9 3.84,9.59 5.76,21.1 5.76,31.65 0,11.51 -1.92,22.06 -5.76,32.62 -3.83,9.59 -8.63,19.18 -15.35,25.9 -6.71,7.67 -15.35,13.42 -24.94,18.22 -10.55,4.8 -21.1,6.72 -32.61,6.72zm0 -21.11c8.63,0 16.31,-1.92 22.06,-4.79 6.72,-3.84 11.51,-7.68 16.31,-13.43 4.8,-5.76 7.67,-12.47 10.55,-19.19 1.92,-7.67 3.84,-15.35 3.84,-23.02 0,-7.67 -0.96,-15.35 -3.84,-23.02 -1.92,-7.68 -5.75,-13.43 -10.55,-19.19 -4.8,-5.75 -9.59,-9.59 -16.31,-13.43 -6.71,-3.83 -13.43,-4.79 -22.06,-4.79 -8.63,0 -16.31,1.92 -22.06,4.79 -6.72,3.84 -12.47,7.68 -16.31,13.43 -4.8,5.76 -7.68,11.51 -10.55,19.19 -1.92,7.67 -3.84,15.35 -3.84,23.02 0,7.67 0.96,15.35 3.84,23.02 1.91,7.68 5.75,13.43 10.55,19.19 4.79,5.75 9.59,9.59 16.31,13.43 5.75,2.87 13.42,4.79 22.06,4.79z"/><path d="M5892.3 2764.22l0 -157.32 23.98 0 0 25.9c6.71,-8.63 14.39,-15.35 23.02,-20.14 8.63,-5.76 19.19,-7.68 29.74,-7.68l0 24.94c-2.88,-0.95 -6.72,-0.95 -9.59,-0.95 -3.84,0 -7.68,0.95 -11.52,1.91 -3.83,0.96 -8.63,2.88 -12.46,5.76 -3.84,1.92 -7.68,4.8 -10.56,7.67 -2.87,2.88 -5.75,5.76 -7.67,9.59l0 111.28 -24.94 0 0 -0.96 0 0z"/><path d="M6071.68 2768.06c-11.51,0 -22.07,-1.92 -32.62,-5.76 -9.59,-3.84 -18.22,-9.59 -24.94,-17.27 -6.71,-7.67 -12.47,-16.3 -16.31,-25.9 -3.83,-10.55 -5.75,-21.1 -5.75,-33.57 0,-11.51 1.92,-22.06 5.75,-31.66 3.84,-9.59 9.6,-19.18 16.31,-25.9 6.72,-7.67 15.35,-13.42 24.94,-17.26 9.6,-4.8 20.15,-6.72 31.66,-6.72 11.51,0 23.02,1.92 31.65,6.72 9.6,4.79 17.27,10.55 23.98,18.22 6.72,7.68 11.52,16.31 14.39,26.86 3.84,10.55 4.8,21.11 4.8,33.58l0 5.75 -127.58 0c0,7.68 1.92,14.39 4.8,21.11 2.87,6.71 6.71,12.47 11.51,17.26 4.79,4.8 10.55,8.64 17.26,11.51 6.72,2.88 14.39,4.8 23.03,4.8 9.59,0 18.22,-1.92 26.86,-4.8 8.63,-3.83 16.3,-8.63 22.06,-14.39l11.51 16.31c-7.67,7.68 -17.27,13.43 -27.82,18.23 -10.55,0.96 -23.02,2.88 -35.49,2.88l0 0zm48.92 -92.09c0,-5.76 -0.96,-11.51 -2.88,-18.23 -1.92,-5.75 -4.79,-11.51 -9.59,-17.27 -3.84,-4.79 -9.59,-9.59 -16.31,-12.47 -6.71,-2.87 -14.39,-4.79 -23.02,-4.79 -8.63,0 -16.31,1.92 -22.06,4.79 -5.76,2.88 -11.51,7.68 -15.35,12.47 -3.84,4.8 -7.68,10.56 -9.59,17.27 -1.92,5.76 -3.84,12.47 -3.84,18.23l102.64 0z"/><path d="M6233.79 2768.06c-13.43,0 -24.94,-1.92 -35.49,-5.76 -10.55,-3.84 -20.15,-10.55 -27.82,-19.18l12.47 -17.27c4.8,5.75 12.47,11.51 22.06,15.35 9.6,4.79 19.19,6.71 29.74,6.71 12.47,0 21.1,-2.88 27.82,-7.67 6.71,-4.8 9.59,-11.51 9.59,-19.19 0,-6.71 -1.92,-11.51 -6.71,-14.39 -4.8,-3.83 -10.55,-5.75 -18.23,-8.63 -7.67,-2.88 -15.35,-3.84 -23.02,-5.76 -8.63,-1.91 -16.31,-4.79 -23.02,-7.67 -7.68,-3.84 -13.43,-7.67 -18.23,-13.43 -4.8,-5.75 -6.71,-13.43 -6.71,-23.02 0,-5.76 0.95,-11.51 3.83,-17.27 2.88,-5.75 6.72,-10.55 11.51,-14.39 4.8,-3.83 11.51,-7.67 18.23,-9.59 7.67,-1.92 15.35,-3.84 24.94,-3.84 13.43,0 24.94,1.92 34.53,6.72 9.59,4.79 17.27,9.59 23.98,16.31l-11.51 17.26c-4.79,-5.75 -11.51,-10.55 -19.18,-14.39 -7.68,-3.83 -17.27,-5.75 -27.82,-5.75 -10.55,0 -19.19,1.92 -25.9,6.71 -5.76,4.8 -9.59,10.55 -9.59,17.27 0,5.76 1.92,9.59 6.71,13.43 4.8,2.88 10.55,5.75 18.23,7.67 7.67,1.92 15.35,3.84 23.02,5.76 8.63,1.92 16.31,4.79 23.02,7.67 7.68,3.84 13.43,8.64 18.23,14.39 4.8,5.76 6.71,14.39 6.71,23.98 0,6.72 -0.96,12.47 -3.83,18.23 -2.88,5.75 -6.72,10.55 -11.51,15.35 -4.8,3.83 -11.51,7.67 -19.19,10.55 -7.67,2.88 -16.31,3.84 -26.86,3.84z"/></g></g><polygon fill="#373435" points="1921.95,473.52 852.38,1529.66 296.01,1176.65 296.01,1757 493.85,1882 296.01,2076.43 296.01,2655.82 852.38,2109.05 1529.61,2541.67 1529.61,1966.12 1207.61,1758.59 1921.94,1053.87"/></g></g></svg>