<svg xmlns="http://www.w3.org/2000/svg" id="fndm-ek9h8iqys3" viewBox="0.24000000953674316 0.7599999904632568 2255.52001953125 601.2799682617188"><defs xmlns="http://www.w3.org/2000/svg"><clipPath id="fndm-wl83dol62y" clipPathUnits="userSpaceOnUse"><path d="m-372,-298l3000,0l0,1200l-3000,0l0,-1200z"/></clipPath></defs><style xmlns="http://www.w3.org/2000/svg"/><g xmlns="http://www.w3.org/2000/svg" id="fndm-74gy12xaat" clip-path="url(#fndm-wl83dol62y)"><path id="fndm-foirblndxb" fill="#021f59" fill-rule="evenodd" d="m707.44,142.76l66.49,0c6.17,0 9.97,1.91 13.77,7.13l99.27,140.11l101.16,-140.11c3.32,-4.75 8.07,-7.13 13.77,-7.13l62.22,0l0,336.74l-62.22,0l0,-244.6l-116.83,154.84l-115.42,-155.31l0,245.07l-62.21,0l0,-336.74zm391.35,218c0,-75.99 47.97,-126.33 120.16,-126.33c26.6,0 61.74,11.87 79.32,39.89l3.32,-24.22c0.95,-6.17 4.75,-8.55 10.45,-8.55l44.17,0l0,237.95l-53.19,0l-4.75,-34.67c-13.77,28.02 -54.62,41.8 -80.74,41.8c-71.25,0 -118.74,-50.35 -118.74,-125.87zm197.58,0c0,-43.22 -27.55,-72.19 -68.39,-72.19c-41.8,0 -69.35,28.97 -69.35,72.19c0,43.22 27.55,71.72 69.35,71.72c40.84,0 68.39,-28.5 68.39,-71.72zm104.49,-119.21l45.59,0c5.7,0 9.5,2.38 10.45,8.55l3.32,25.17c13.3,-21.84 34.68,-36.57 67.92,-36.57c4.28,0 7.13,0.48 11.4,0.95l0,57.95c-5.7,-1.43 -12.35,-1.9 -20.9,-1.9c-38.47,0 -58.89,23.74 -58.89,69.81l0,113.99l-58.89,0l0,-237.95zm170.98,-11.87c0,-56.04 36.09,-93.09 90.24,-93.09c19.47,0 40.37,5.22 55.56,15.67c4.75,3.33 6.18,8.08 3.33,13.3l-18.52,36.57c-11.4,-8.07 -22.33,-12.35 -35.62,-12.35c-22.8,0 -36.1,15.2 -36.1,41.32l0,10.45l73.62,0l0,55.1l-73.62,0l0,182.85l-58.89,0l0,-249.82zm163.85,11.87l45.6,0c5.7,0 9.5,2.38 10.45,8.55l3.32,25.17c13.3,-21.84 34.67,-36.57 67.92,-36.57c4.27,0 7.12,0.48 11.4,0.95l0,57.95c-5.7,-1.43 -12.35,-1.9 -20.9,-1.9c-38.47,0 -58.89,23.74 -58.89,69.81l0,113.99l-58.9,0l0,-237.95zm169.56,0l58.42,0l0,237.95l-58.42,0l0,-237.95zm101.64,276.42c-0.95,-6.17 1.9,-10.45 8.55,-10.45l51.76,0c3.81,29.93 28.5,41.8 63.65,41.8c32.77,0 66.96,-18.53 66.96,-71.24l0,-36.1c-13.77,28.02 -54.61,41.8 -80.74,41.8c-71.24,0 -118.73,-50.35 -118.73,-124.44c0,-74.57 47.97,-124.91 120.16,-124.91c26.6,0 61.74,11.87 79.31,39.89l3.33,-24.22c0.95,-6.17 4.75,-8.55 10.45,-8.55l44.17,0l0,237.95c0,91.67 -64.59,122.54 -124.91,122.54c-69.82,0 -115.41,-28.02 -123.96,-84.07zm-106.87,-342.43c0,-20.9 13.78,-34.67 34.67,-34.67c20.9,0 34.68,13.77 34.68,34.67c0,20.89 -13.78,34.67 -34.68,34.67c-20.89,0 -34.67,-13.78 -34.67,-34.67zm295.9,183.8c0,-41.8 -27.55,-70.77 -68.4,-70.77c-41.79,0 -69.34,28.97 -69.34,70.77c0,42.27 27.55,70.77 69.34,70.77c40.85,0 68.4,-28.5 68.4,-70.77zm-2151.03,-28.97c0,53.67 16.62,104.49 50.34,149.13l-17.57,0c-7.6,0 -12.83,-2.37 -17.58,-8.55c-42.27,-55.09 -59.84,-112.56 -59.84,-178.1c0,-160.53 131.09,-292.09 292.09,-292.09c21.85,0 40.37,2.85 52.25,5.7c7.6,1.9 11.4,6.17 13.3,13.77c4.27,18.05 8.54,47.97 9.97,75.52c-26.12,-8.55 -49.39,-12.35 -75.04,-12.35c-137.26,0 -247.92,112.56 -247.92,246.97zm539.06,-37.52c0,65.54 -17.57,123.01 -59.84,178.1c-4.75,6.18 -9.98,8.55 -17.58,8.55l-17.57,0c33.72,-44.64 50.34,-95.46 50.34,-149.13c0,-73.04 -31.16,-137.91 -81.36,-182.82c-1.64,-36.83 -6.48,-72.08 -14.05,-104.31c84.37,51.4 140.5,144.04 140.06,249.61z"/><path id="fndm-xi51zmjcfs" fill="#00a000" d="m457.94,147.54c-1.64,-36.82 -6.48,-72.07 -14.05,-104.3c-0.02,-0.07 -0.03,-0.14 -0.05,-0.21c-2.53,-1.45 -5,-2.84 -7.44,-4.19c-4.72,-2.69 -9.52,-5.26 -14.41,-7.69c0.01,0.05 0.03,0.09 0.04,0.13c-13.63,-6.78 -26.8,-12.22 -41.83,-17.23c9.5,34.68 15.2,72.67 15.2,116.37c-0.48,129.66 -51.77,234.62 -114.94,234.14c-59.84,0 -108.76,-94.03 -113.51,-217.52c-12.35,8.55 -23.27,16.62 -33.72,28.5c-4.28,4.75 -7.13,10.45 -7.13,18.04c0,149.14 71.72,300.17 165.76,300.64c91.66,0.48 166.23,-142.48 166.7,-318.68c0,-9.42 -0.21,-18.76 -0.62,-28z"/></g></svg>