<svg  id="fndm-fkqhhtu6qx" viewBox="135 61 330 128" xmlns="http://www.w3.org/2000/svg">
   <g xmlns="http://www.w3.org/2000/svg" fill-rule="evenodd" fill="none">
    <path d="m145.328,152.479l-0.737,6.757l14.845,0l-0.637,5.853l-14.844,0l-0.822,7.541l15.795,0l-0.705,6.479l-23.223,0l3.605,-33.109l23.088,0l-0.705,6.479l-15.66,0zm28.453,3.016l6.093,0l-0.31,1.898c1.532,-1.435 3.656,-2.152 6.373,-2.152c0.558,0 1.096,0.03 1.61,0.085c0.988,0.108 1.86,0.322 2.62,0.642c0.784,0.331 1.442,0.773 1.975,1.327c1.33,1.382 1.85,3.405 1.56,6.067l-1.715,15.747l-6.731,0l1.63,-14.978l0.048,-1.486c-0.027,-0.582 -0.244,-1.012 -0.647,-1.29c-0.484,-0.331 -1.24,-0.498 -2.272,-0.498c-3.148,0 -4.882,1.485 -5.205,4.455l-1.501,13.797l-6.73,0l2.57,-23.614l0.632,0zm55.185,0.782l-2.462,22.62c-0.205,1.875 -0.569,3.464 -1.093,4.765c-0.546,1.353 -1.265,2.403 -2.16,3.152c-0.884,0.742 -2.074,1.295 -3.567,1.658c-1.446,0.351 -3.176,0.528 -5.19,0.528c-1.94,0 -3.56,-0.133 -4.859,-0.398c-1.366,-0.279 -2.39,-0.715 -3.07,-1.308c-0.704,-0.615 -1.178,-1.505 -1.42,-2.67c-0.227,-1.083 -0.253,-2.416 -0.08,-3.999l0.068,-0.632l6.564,0l-0.086,0.782c-0.07,0.654 -0.069,1.178 0.004,1.572c0.054,0.293 0.139,0.488 0.253,0.58l0.005,0.005c0.149,0.125 0.459,0.228 0.929,0.31c0.55,0.095 1.276,0.143 2.173,0.143c1.493,0 2.623,-0.292 3.392,-0.876c0.735,-0.558 1.166,-1.418 1.293,-2.58l0.289,-2.663a6.67,6.67 0 0 1 -1.459,1.016c-1.25,0.646 -2.776,0.97 -4.581,0.97c-1.76,0 -3.232,-0.22 -4.415,-0.655c-1.249,-0.461 -2.18,-1.165 -2.79,-2.11c-0.589,-0.908 -0.96,-2.18 -1.114,-3.816c-0.147,-1.566 -0.098,-3.48 0.149,-5.74c0.232,-2.137 0.589,-3.95 1.068,-5.44c0.496,-1.542 1.127,-2.747 1.89,-3.616c0.783,-0.89 1.814,-1.556 3.092,-1.996c1.233,-0.424 2.697,-0.638 4.39,-0.638c1.893,0 3.438,0.361 4.637,1.084a5.6,5.6 0 0 1 1.38,1.161l0.079,-1.991l6.775,0l-0.084,0.782zm-11.598,4.58c-0.955,0 -1.736,0.092 -2.343,0.278c-0.536,0.164 -0.927,0.398 -1.17,0.7l-0.003,0.003c-0.27,0.333 -0.516,0.924 -0.74,1.773c-0.238,0.908 -0.437,2.08 -0.593,3.516c-0.166,1.53 -0.232,2.775 -0.196,3.735c0.032,0.887 0.143,1.498 0.33,1.837c0.154,0.274 0.467,0.491 0.938,0.65c0.567,0.191 1.336,0.287 2.304,0.287c0.978,0 1.78,-0.099 2.405,-0.297l0,-0.003c0.566,-0.18 0.982,-0.436 1.249,-0.771l0.002,-0.003c0.295,-0.366 0.56,-0.993 0.796,-1.882c0.254,-0.952 0.46,-2.173 0.623,-3.662c0.156,-1.426 0.208,-2.59 0.16,-3.497c-0.046,-0.824 -0.17,-1.4 -0.37,-1.728c-0.172,-0.275 -0.506,-0.493 -1.004,-0.652c-0.59,-0.19 -1.387,-0.284 -2.388,-0.284zm38.22,9.737l6.12,0l-0.177,1.637c-0.262,2.398 -1.36,4.197 -3.295,5.4c-1.856,1.154 -4.474,1.732 -7.853,1.732c-2.262,0 -4.125,-0.197 -5.587,-0.588c-1.55,-0.415 -2.672,-1.06 -3.37,-1.931l-0.002,0c-0.684,-0.86 -1.116,-2.152 -1.298,-3.881c-0.173,-1.64 -0.125,-3.698 0.145,-6.175c0.241,-2.216 0.628,-4.075 1.16,-5.576c0.552,-1.56 1.267,-2.75 2.144,-3.573c0.876,-0.824 2.089,-1.437 3.634,-1.839c1.492,-0.388 3.297,-0.582 5.412,-0.582c2.041,0 3.738,0.19 5.09,0.569c1.43,0.402 2.49,1.023 3.176,1.863l-0.001,0.001c0.68,0.83 1.119,2.022 1.317,3.579c0.189,1.48 0.165,3.306 -0.07,5.477l-0.246,2.257l-15.04,0l0,0.01l-0.05,0.34l0,-0.002c-0.11,1.032 -0.127,1.887 -0.045,2.563c0.071,0.59 0.212,1.012 0.422,1.265l0.002,0.006c0.201,0.248 0.556,0.443 1.063,0.585c0.586,0.164 1.35,0.246 2.292,0.246c0.942,0 1.713,-0.05 2.312,-0.148c0.546,-0.089 0.935,-0.211 1.168,-0.367l0,0.001c0.202,-0.136 0.374,-0.37 0.517,-0.7c0.17,-0.397 0.29,-0.91 0.358,-1.537l0.069,-0.632l0.632,0l0.001,0zm0.08,-6.293l0.019,-0.229l0.003,-0.019c0.09,-0.824 0.094,-1.492 0.014,-2.002c-0.066,-0.416 -0.179,-0.7 -0.338,-0.85l-0.006,-0.004c-0.179,-0.172 -0.525,-0.31 -1.038,-0.414c-0.595,-0.12 -1.383,-0.18 -2.362,-0.18c-0.943,0 -1.716,0.072 -2.316,0.216c-0.536,0.128 -0.924,0.307 -1.163,0.537c-0.248,0.236 -0.465,0.645 -0.653,1.226c-0.154,0.472 -0.28,1.045 -0.381,1.719l8.222,0l-0.001,0zm20.783,-8.806l6.094,0l-0.311,1.898c1.532,-1.435 3.657,-2.152 6.374,-2.152c0.558,0 1.094,0.03 1.609,0.085c0.988,0.108 1.86,0.322 2.62,0.642c0.783,0.331 1.442,0.773 1.975,1.327c1.33,1.382 1.85,3.405 1.559,6.067l-1.714,15.747l-6.73,0l1.63,-14.978l0.047,-1.486c-0.028,-0.582 -0.243,-1.012 -0.648,-1.29c-0.483,-0.331 -1.24,-0.498 -2.27,-0.498c-3.149,0 -4.883,1.485 -5.206,4.455l-1.502,13.797l-6.73,0l2.57,-23.614l0.633,0zm41.698,-8.713l-1.165,10.7a7.024,7.024 0 0 1 1.578,-1.165c1.316,-0.717 2.922,-1.076 4.816,-1.076c0.543,0 1.067,0.028 1.57,0.082c0.984,0.108 1.852,0.323 2.605,0.644a5.795,5.795 0 0 1 1.96,1.34c1.31,1.386 1.82,3.413 1.53,6.079l-1.712,15.723l-6.73,0l1.569,-14.414l0.079,-0.72c0.024,-0.218 0.035,-0.432 0.035,-0.643c0,-0.766 -0.175,-1.343 -0.525,-1.73c-0.353,-0.391 -0.915,-0.628 -1.686,-0.712a6.125,6.125 0 0 0 -0.665,-0.033c-1.625,0 -2.873,0.406 -3.743,1.22c-0.877,0.82 -1.408,2.083 -1.594,3.79l-1.44,13.242l-6.731,0l3.604,-33.109l6.73,0l-0.085,0.782zm32.469,16.564l-6.21,0l0.086,-0.782c0.154,-1.407 0.45,-2.592 0.887,-3.554c0.462,-1.01 1.08,-1.777 1.857,-2.299c0.748,-0.503 1.797,-0.875 3.148,-1.118c1.301,-0.234 2.883,-0.352 4.746,-0.352c2.037,0 3.743,0.143 5.115,0.429c1.437,0.299 2.522,0.762 3.254,1.392c0.763,0.65 1.28,1.577 1.554,2.778c0.255,1.125 0.295,2.5 0.118,4.125l-1.65,15.144l-6.798,0l0.297,-1.54c-0.449,0.35 -0.952,0.65 -1.51,0.899c-1.335,0.596 -2.975,0.895 -4.92,0.895c-2.866,0 -4.976,-0.635 -6.332,-1.906c-1.391,-1.302 -1.948,-3.21 -1.675,-5.725c0.273,-2.505 1.238,-4.396 2.894,-5.671c1.628,-1.253 3.893,-1.88 6.794,-1.88c1.922,0 3.46,0.227 4.613,0.682c0.538,0.212 0.995,0.474 1.372,0.784l0.207,-1.903c0.088,-0.804 0.092,-1.466 0.014,-1.984c-0.065,-0.427 -0.18,-0.727 -0.346,-0.899c-0.174,-0.181 -0.497,-0.327 -0.967,-0.437c-0.55,-0.129 -1.266,-0.194 -2.148,-0.194c-2.285,0 -3.519,0.828 -3.699,2.482l-0.069,0.634l-0.632,0zm2.921,5.825c-2.579,0 -3.962,0.827 -4.143,2.482c-0.07,0.64 -0.061,1.16 0.026,1.559c0.068,0.309 0.177,0.523 0.328,0.643l0.003,0c0.189,0.15 0.544,0.27 1.065,0.363c0.596,0.104 1.37,0.155 2.326,0.155c1.481,0 2.597,-0.237 3.347,-0.709c0.675,-0.424 1.06,-1.069 1.153,-1.932c0.012,-0.113 0.018,-0.229 0.018,-0.35c0,-0.603 -0.202,-1.07 -0.607,-1.403c-0.468,-0.386 -1.211,-0.634 -2.226,-0.745a11.938,11.938 0 0 0 -1.29,-0.063zm26.659,-13.676l6.185,0l-0.322,1.511c0.406,-0.347 0.84,-0.647 1.299,-0.899c1.168,-0.64 2.49,-0.96 3.969,-0.96c0.321,0 0.638,0.017 0.95,0.05c1.623,0.178 2.85,0.82 3.684,1.928c0.806,1.071 1.208,2.551 1.208,4.438c0,0.539 -0.034,1.123 -0.103,1.752l-0.238,2.186l-6.518,0l0.184,-0.856a35.7,35.7 0 0 0 0.148,-0.716c0.035,-0.184 0.056,-0.318 0.066,-0.4c0.11,-1.016 0.017,-1.748 -0.283,-2.196c-0.255,-0.381 -0.719,-0.572 -1.392,-0.572c-1.099,0 -1.954,0.357 -2.565,1.07c-0.658,0.768 -1.076,1.958 -1.251,3.568l-1.492,13.71l-6.731,0l2.57,-23.614l0.632,0zm36.38,-8.713l-0.553,5.071l-6.73,0l0.637,-5.853l6.73,0l-0.085,0.782l0.001,0zm-1.035,9.495l-2.485,22.832l-6.73,0l2.57,-23.614l6.73,0l-0.085,0.782zm18.794,7.069l-6.21,0l0.085,-0.782c0.154,-1.407 0.45,-2.592 0.888,-3.554c0.46,-1.01 1.08,-1.777 1.856,-2.299c0.748,-0.503 1.797,-0.875 3.148,-1.118c1.301,-0.234 2.883,-0.352 4.746,-0.352c2.038,0 3.743,0.143 5.115,0.429c1.437,0.299 2.523,0.762 3.254,1.392c0.763,0.65 1.281,1.577 1.554,2.778c0.256,1.125 0.296,2.5 0.118,4.125l-1.648,15.144l-6.8,0l0.297,-1.54c-0.449,0.35 -0.952,0.65 -1.51,0.899c-1.335,0.596 -2.975,0.895 -4.918,0.895c-2.868,0 -4.978,-0.635 -6.334,-1.906c-1.39,-1.302 -1.948,-3.21 -1.675,-5.725c0.273,-2.505 1.238,-4.396 2.894,-5.671c1.628,-1.253 3.893,-1.88 6.795,-1.88c1.921,0 3.46,0.227 4.612,0.682c0.538,0.212 0.995,0.474 1.372,0.784l0.207,-1.903c0.088,-0.804 0.092,-1.466 0.014,-1.984c-0.065,-0.427 -0.18,-0.727 -0.346,-0.899c-0.174,-0.181 -0.497,-0.327 -0.967,-0.437c-0.55,-0.129 -1.265,-0.194 -2.148,-0.194c-2.285,0 -3.519,0.828 -3.698,2.482l-0.07,0.634l-0.631,0zm2.92,5.825c-2.579,0 -3.962,0.827 -4.142,2.482c-0.07,0.64 -0.061,1.16 0.025,1.559c0.068,0.309 0.177,0.523 0.329,0.643l0.002,0c0.19,0.15 0.544,0.27 1.066,0.363c0.595,0.104 1.37,0.155 2.325,0.155c1.481,0 2.598,-0.237 3.347,-0.709c0.675,-0.424 1.06,-1.069 1.154,-1.932c0.012,-0.113 0.018,-0.229 0.018,-0.35c0,-0.603 -0.203,-1.07 -0.607,-1.403c-0.47,-0.386 -1.211,-0.634 -2.227,-0.745a11.938,11.938 0 0 0 -1.29,-0.063z" fill="#063"/>
    <path d="m395,61l34,0l-20.165,37l-13.835,-37" fill="#F93"/>
    <path d="m259.8,140.271l13.607,0c7.483,0 14.385,-6.138 15.34,-13.641l5.413,-42.53l34.737,0c9.737,0 9.158,14.758 -0.715,14.833l-29.915,0.244l26.215,31.707c4.269,5.162 11.976,9.387 17.124,9.387l21.487,0l-22.957,-27.768c28.44,-11.02 22.128,-51.503 -8.19,-51.503l-62.058,0l-10.088,79.271zm-119.8,0l13.607,0c7.483,0 14.385,-6.138 15.34,-13.641l4.028,-31.652l8.397,45.293l25.563,0l18.91,-43.789l-3.768,29.61c-0.993,7.799 4.558,14.18 12.335,14.18l13.071,0l10.089,-79.272l-29.527,0c-7.481,0 -15.9,6.142 -18.7,13.641l-12.045,32.229l-4.102,-32.229c-0.955,-7.5 -7.857,-13.641 -15.34,-13.641l-27.77,0l-10.088,79.271zm325,-79.271l-27.527,0l-29.61,54.083l-16.268,-42.663c-2.396,-6.282 -9.443,-11.42 -15.665,-11.42l-16.216,0l26.14,68.552c6.254,16.405 33.908,14.078 41.614,0l37.532,-68.552z" fill="#063"/>
    <path d="m384,121c5.33,4.58 13.581,10.507 20.579,10.507c7.752,0 18.8,-4.573 26.421,-9.903l-4.13,7.118c-2.239,3.865 -6.315,6.752 -11.053,8.465a30.892,30.892 0 0 1 -11.137,1.804c-3.72,-0.093 -7.327,-0.896 -10.365,-2.474c-3.174,-1.648 -5.73,-4.164 -7.127,-7.625l-3.188,-7.892m-67,-1c1.743,1.67 8.975,7.853 20.469,7.853l13.838,0l8.693,10.147l-18.753,0c-2.373,0 -5.391,-0.97 -8.338,-2.527c-2.994,-1.583 -5.88,-3.767 -7.934,-6.163l-7.975,-9.31m-53.6,6.858l12.512,0s6.705,-0.546 12.088,-6.858l-0.725,5.77c-0.422,3.352 -2.167,6.41 -4.635,8.633c-2.463,2.219 -5.646,3.597 -8.945,3.597l-11.695,0l1.4,-11.142m-39.615,-5.858l-0.688,5.467a12.925,12.925 0 0 0 -0.097,1.61c0,2.828 0.97,5.363 2.615,7.27c1.65,1.908 3.99,3.209 6.732,3.56c0.473,0.06 0.993,0.093 1.55,0.093l11.684,0l1.419,-11.253l-12.527,0c-5.605,0 -8.803,-3.051 -10.688,-6.747m-45.785,-9l4.985,27l23.395,0l6.62,-15.395c-3.828,3.433 -7.563,4.087 -7.563,4.087l-15.385,0c-6.77,0 -9.758,-9.81 -12.052,-15.692m-37,27l12.053,0c3.402,0 6.682,-1.41 9.22,-3.678c2.545,-2.274 4.343,-5.4 4.777,-8.828l0.95,-7.494c-5.612,8.459 -12.583,7.186 -12.583,7.186l-12.795,0l-1.622,12.814" fill="#063"/>
    <path d="m318,121c1.728,1.577 8.666,7.38 19.653,7.38l13.614,0c2.913,3.171 5.823,6.342 8.733,9.511l-17.695,0.109c-2.547,0 -5.707,-0.908 -8.799,-2.368c-2.952,-1.484 -5.834,-3.577 -7.922,-5.897a23624.83,23624.83 0 0 0 -7.584,-8.735" fill="#036936"/>
    <path d="m319,122c1.67,1.578 8.153,7.34 18.379,7.34l13.063,0l8.558,9.432l-16.236,0.228c-2.655,0 -5.873,-0.901 -9.03,-2.35c-2.84,-1.47 -5.646,-3.596 -7.715,-5.974l-7.019,-8.676" fill="#056B38"/>
    <path d="m319,122c1.652,1.483 7.848,6.865 17.577,6.865l12.836,0l8.587,8.797c-5.067,0.114 -10.136,0.226 -15.205,0.338c-2.818,0 -6.17,-0.84 -9.463,-2.19c-2.797,-1.373 -5.595,-3.406 -7.696,-5.708c-2.211,-2.702 -4.424,-5.401 -6.636,-8.102" fill="#086E3B"/>
    <path d="m320,123c1.678,1.39 7.744,6.394 17.22,6.394l12.939,0c2.947,2.721 5.893,5.443 8.841,8.163l-14.553,0.443c-3.059,0 -6.632,-0.78 -10.15,-2.032c-2.827,-1.274 -5.69,-3.216 -7.877,-5.438l-6.42,-7.53" fill="#0A703D"/>
    <path d="m321,124c1.661,1.299 7.437,5.924 16.416,5.924l12.71,0c2.96,2.511 5.916,5.023 8.874,7.534l-13.516,0.542c-3.227,0 -6.933,-0.72 -10.588,-1.877c-2.786,-1.174 -5.642,-3.022 -7.86,-5.161c-2.01,-2.321 -4.023,-4.641 -6.036,-6.962" fill="#0D7340"/>
    <path d="m322,125c1.643,1.298 7.132,5.874 15.614,5.874l12.482,0l8.904,7.44c-4.162,0.229 -8.326,0.459 -12.488,0.686c-3.39,0 -7.23,-0.711 -11.02,-1.852c-2.741,-1.161 -5.59,-3.047 -7.838,-5.26c-1.883,-2.296 -3.77,-4.592 -5.654,-6.888" fill="#0F7542"/>
    <path d="m322,125c1.625,1.205 6.83,5.404 14.818,5.404l12.254,0l8.928,6.81c-3.82,0.263 -7.642,0.525 -11.465,0.786c-3.551,0 -7.519,-0.65 -11.443,-1.695c-2.7,-1.063 -5.538,-2.855 -7.817,-4.986c-1.757,-2.107 -3.516,-4.212 -5.275,-6.319" fill="#127845"/>
    <path d="m323,126c1.609,1.11 6.527,4.936 14.025,4.936l12.022,0c2.985,2.062 5.969,4.126 8.953,6.186l-10.45,0.878c-3.711,0 -7.806,-0.59 -11.858,-1.542c-2.658,-0.964 -5.487,-2.659 -7.794,-4.704a7935.252,7935.252 0 0 0 -4.898,-5.754" fill="#127845"/>
    <path d="m324,127c1.636,1.11 6.408,4.876 13.625,4.876l12.137,0l9.238,6.074c-3.24,0.35 -6.481,0.701 -9.722,1.05c-3.98,0 -8.323,-0.58 -12.627,-1.512c-2.688,-0.947 -5.592,-2.69 -7.995,-4.823c-1.55,-1.888 -3.104,-3.776 -4.656,-5.665" fill="#177D4A"/>
    <path d="m324,128c1.619,1.018 6.105,4.41 12.83,4.41l11.907,0l9.263,5.448c-2.9,0.38 -5.8,0.763 -8.703,1.142c-4.139,0 -8.61,-0.52 -13.047,-1.356c-2.647,-0.85 -5.54,-2.497 -7.973,-4.544c-1.425,-1.7 -2.85,-3.4 -4.277,-5.1" fill="#177D4A"/>
    <path d="m325,128c1.6,0.926 5.804,3.945 12.039,3.945l11.676,0l9.285,4.83l-7.688,1.225c-4.3,0 -8.896,-0.46 -13.461,-1.203c-2.605,-0.754 -5.49,-2.3 -7.95,-4.256l-3.901,-4.541" fill="#1C824F"/>
    <path d="m326,129c1.583,0.832 5.503,3.484 11.252,3.484l11.444,0c3.102,1.407 6.202,2.814 9.304,4.219l-6.687,1.297c-4.452,0 -9.171,-0.402 -13.863,-1.05c-2.56,-0.66 -5.435,-2.105 -7.922,-3.965a5127.483,5127.483 0 0 0 -3.528,-3.985" fill="#1C824F"/>
    <path d="m327,130c1.564,0.834 5.204,3.406 10.47,3.406l11.21,0l9.32,4.07c-1.897,0.508 -3.794,1.017 -5.693,1.524c-4.602,0 -9.443,-0.389 -14.258,-1.012c-2.515,-0.636 -5.379,-2.144 -7.891,-4.12a5118.188,5118.188 0 0 1 -3.158,-3.868" fill="#218754"/>
    <path d="m327,130c1.545,0.738 4.906,2.946 9.694,2.946l10.974,0l9.332,3.46c-1.57,0.53 -3.138,1.063 -4.708,1.594c-4.752,0 -9.707,-0.33 -14.641,-0.862c-2.473,-0.54 -5.323,-1.944 -7.86,-3.823l-2.791,-3.315" fill="#218754"/>
    <path d="m328,131c1.578,0.645 4.77,2.49 9.232,2.49l11.108,0c3.22,0.955 6.44,1.908 9.66,2.86c-1.288,0.551 -2.574,1.101 -3.864,1.65c-5.062,0 -10.305,-0.272 -15.53,-0.712c-2.511,-0.447 -5.445,-1.746 -8.095,-3.519l-2.511,-2.769" fill="#248A57"/>
    <path d="m329,132c1.559,0.553 4.471,2.043 8.452,2.043l10.874,0c3.224,0.76 6.45,1.518 9.674,2.277c-0.957,0.56 -1.916,1.122 -2.874,1.68c-5.211,0 -10.574,-0.217 -15.921,-0.566c-2.465,-0.356 -5.388,-1.542 -8.062,-3.198l-2.143,-2.236" fill="#268C59"/>
    <path d="m329,133c1.54,0.553 4.174,1.93 7.678,1.93l10.637,0l9.685,2.055a725.85,725.85 0 0 1 -1.894,2.015c-5.358,0 -10.835,-0.196 -16.3,-0.512c-2.42,-0.32 -5.33,-1.597 -8.029,-3.424c-0.591,-0.689 -1.184,-1.375 -1.777,-2.064" fill="#298F5C"/>
    <path d="m330,133c1.52,0.46 3.881,1.485 6.912,1.485l10.399,0l9.689,1.475c-0.308,0.68 -0.617,1.36 -0.928,2.04c-5.498,0 -11.085,-0.14 -16.664,-0.367c-2.377,-0.23 -5.27,-1.393 -7.993,-3.1l-1.415,-1.533" fill="#2B915E"/>
    <path d="m331,134c1.499,0.366 3.585,1.054 6.146,1.054l10.15,0c3.227,0.309 6.452,0.616 9.679,0.923c0.009,0.675 0.02,1.35 0.025,2.023c-5.628,0 -11.315,-0.087 -16.997,-0.229c-2.33,-0.145 -5.205,-1.181 -7.945,-2.747l-1.058,-1.024" fill="#2E9461"/>
    <path d="m332,135c1.537,0.274 3.429,0.648 5.615,0.648l10.312,0l10.07,0.42l1.003,1.932c-5.995,0 -12.02,-0.04 -18.045,-0.104c-2.373,-0.066 -5.35,-0.957 -8.22,-2.341l-0.735,-0.555" fill="#309663"/>
    <path d="m332,136c1.52,0.273 3.139,0.432 4.856,0.432l20.174,0l1.97,2.568l-18.43,0c-2.333,0 -5.299,-1.064 -8.195,-2.774l-0.375,-0.226" fill="#396"/>
    <path d="m263.385,127.419l12.514,0c0.108,0 6.748,-0.512 12.101,-6.419c-0.235,1.801 -0.217,3.581 -0.212,5.172c-0.452,3.219 -2.208,6.153 -4.68,8.294c-2.519,2.18 -5.774,3.534 -9.149,3.534l-11.959,0l1.385,-10.581" fill="#036936"/>
    <path d="m263.35,128.355l12.362,0c0.223,0 6.713,-0.505 11.968,-6.355c-0.226,1.783 0.06,3.524 0.32,4.873c-0.476,3.273 -2.224,6.26 -4.67,8.443c-2.545,2.273 -5.834,3.684 -9.245,3.684l-12.085,0l1.35,-10.645" fill="#056B38"/>
    <path d="m263.254,127.915l11.642,0c0.32,0 6.363,-0.47 11.28,-5.915c-0.206,1.66 0.33,3.257 0.824,4.277c-0.477,3.14 -2.135,6.002 -4.443,8.103c-2.453,2.233 -5.623,3.62 -8.91,3.62l-11.647,0c0.419,-3.36 0.837,-6.723 1.254,-10.085" fill="#086E3B"/>
    <path d="m263.21,128.48l11.395,0c0.428,0 6.274,-0.436 11.052,-5.48c-0.194,1.538 0.602,2.994 1.343,3.697c-0.498,3.002 -2.133,5.736 -4.395,7.753c-2.459,2.19 -5.636,3.55 -8.93,3.55l-11.675,0c0.403,-3.173 0.808,-6.347 1.21,-9.52" fill="#0A703D"/>
    <path d="m263.166,129.047l11.146,0c0.536,0 6.183,-0.402 10.824,-5.047c-0.184,1.417 0.875,2.734 1.864,3.129c-0.518,2.861 -2.13,5.468 -4.348,7.398c-2.464,2.142 -5.648,3.473 -8.95,3.473l-11.702,0l1.166,-8.953" fill="#0D7340"/>
    <path d="m263.122,129.971l10.897,0c0.645,0 6.093,-0.394 10.592,-4.971c-0.172,1.395 1.15,2.666 2.389,2.773c-0.539,2.93 -2.126,5.596 -4.3,7.577c-2.47,2.251 -5.662,3.65 -8.972,3.65l-11.728,0l1.122,-9.029" fill="#0F7542"/>
    <path d="m263.078,129.538l10.646,0c0.753,0 6,-0.36 10.361,-4.538c-0.16,1.273 1.426,2.404 2.915,2.209c-0.559,2.79 -2.124,5.326 -4.252,7.22c-2.475,2.203 -5.675,3.571 -8.992,3.571l-11.756,0l1.078,-8.462" fill="#127845"/>
    <path d="m263.031,130.111l10.396,0c0.864,0 5.909,-0.328 10.13,-4.111c-0.15,1.154 1.703,2.149 3.443,1.664c-0.58,2.645 -2.12,5.05 -4.203,6.853c-2.481,2.149 -5.688,3.483 -9.014,3.483l-11.783,0c0.344,-2.63 0.689,-5.26 1.031,-7.889" fill="#127845"/>
    <path d="m262.986,131.022l10.144,0c0.973,0 5.816,-0.319 9.896,-4.022c-0.14,1.128 1.98,2.07 3.974,1.244c-0.6,2.724 -2.117,5.2 -4.154,7.065c-2.487,2.277 -5.702,3.691 -9.035,3.691l-11.811,0c0.33,-2.66 0.658,-5.319 0.986,-7.978" fill="#177D4A"/>
    <path d="m262.941,130.595l9.89,0c1.084,0 5.723,-0.285 9.662,-3.595c-0.127,1.009 2.26,1.815 4.507,0.707c-0.621,2.58 -2.114,4.92 -4.106,6.694c-2.492,2.22 -5.715,3.599 -9.056,3.599l-11.838,0l0.941,-7.405" fill="#177D4A"/>
    <path d="m262.896,131.174l9.633,0c1.196,0 5.632,-0.253 9.43,-3.174c-0.118,0.89 2.54,1.563 5.041,0.194c-0.643,2.428 -2.112,4.632 -4.057,6.31c-2.498,2.157 -5.728,3.496 -9.077,3.496l-11.866,0c0.299,-2.275 0.599,-4.552 0.896,-6.826" fill="#1C824F"/>
    <path d="m262.85,131.28l9.377,0c1.308,0 5.537,-0.237 9.192,-2.97c-0.105,0.834 2.823,1.42 5.581,-0.31c-0.664,2.446 -2.11,4.665 -4.008,6.365c-2.504,2.242 -5.742,3.635 -9.098,3.635l-11.894,0l0.85,-6.72" fill="#1C824F"/>
    <path d="m262.805,132.53l9.12,0c1.42,0 5.444,-0.213 8.953,-2.692c-0.093,0.755 3.106,1.24 6.122,-0.838c-0.685,2.416 -2.106,4.606 -3.958,6.292c-2.51,2.287 -5.755,3.708 -9.12,3.708l-11.922,0l0.805,-6.47" fill="#218754"/>
    <path d="m262.758,132.413l8.86,0c1.535,0 5.35,-0.172 8.717,-2.165c-0.083,0.608 3.39,0.947 6.665,-1.248c-0.706,2.145 -2.102,4.088 -3.908,5.595c-2.516,2.1 -5.769,3.405 -9.141,3.405l-11.951,0l0.758,-5.587" fill="#218754"/>
    <path d="m262.712,132.658l8.6,0c1.647,0 5.254,-0.15 8.476,-1.893c-0.07,0.531 3.678,0.768 7.212,-1.765c-0.728,2.115 -2.101,4.029 -3.858,5.524c-2.523,2.144 -5.783,3.476 -9.164,3.476l-11.978,0l0.712,-5.342" fill="#248A57"/>
    <path d="m262.665,132.914l8.34,0c1.76,0 5.159,-0.127 8.234,-1.612c-0.06,0.452 3.965,0.585 7.761,-2.302c-0.75,2.085 -2.097,3.97 -3.808,5.45c-2.529,2.19 -5.796,3.55 -9.185,3.55l-12.007,0l0.665,-5.086" fill="#268C59"/>
    <path d="m262.619,133.18l8.076,0c1.875,0 5.063,-0.103 7.993,-1.316c-0.048,0.37 4.254,0.391 8.312,-2.864c-0.771,2.051 -2.094,3.904 -3.758,5.372c-2.534,2.238 -5.81,3.628 -9.206,3.628l-12.036,0l0.619,-4.82" fill="#298F5C"/>
    <path d="m262.572,134.459l7.813,0c1.99,0 4.967,-0.081 7.749,-1.011c-0.036,0.284 4.544,0.192 8.866,-3.448c-0.793,2.016 -2.092,3.836 -3.707,5.29c-2.54,2.289 -5.824,3.71 -9.229,3.71l-12.064,0l0.572,-4.541" fill="#2B915E"/>
    <path d="m262.523,134.75l7.55,0c2.105,0 4.869,-0.055 7.504,-0.688c-0.024,0.194 4.837,-0.02 9.423,-4.062a14.72,14.72 0 0 1 -3.656,5.207c-2.546,2.34 -5.838,3.793 -9.25,3.793l-12.094,0c0.175,-1.415 0.35,-2.833 0.523,-4.25" fill="#2E9461"/>
    <path d="m262.457,134.493l6.991,0c2.134,0 4.583,-0.024 6.969,-0.312c-0.01,0.087 4.924,-0.214 9.583,-4.181c-0.803,1.727 -2.002,3.283 -3.46,4.55c-2.451,2.128 -5.618,3.45 -8.903,3.45l-11.637,0c0.153,-1.168 0.306,-2.337 0.457,-3.507" fill="#309663"/>
    <path d="m262.41,134.778l13.468,0s5.206,-0.418 10.122,-4.778a14.468,14.468 0 0 1 -3.411,4.467c-2.457,2.18 -5.632,3.533 -8.923,3.533l-11.666,0l0.41,-3.222" fill="#396"/>
    <path d="m223.685,121l-0.648,5.333a8.92,8.92 0 0 0 0.032,1.911c0.077,2.832 1.096,5.35 2.77,7.214c1.568,1.85 3.788,3.111 6.388,3.452c0.625,0.059 1.297,0.09 2.001,0.09c3.661,-0.052 7.32,-0.106 10.98,-0.16l0.792,-10.897c-4.068,0 -8.099,-0.048 -12.103,-0.125c-5.344,-0.074 -8.404,-3.133 -10.212,-6.818" fill="#036936"/>
    <path d="m223.655,121l-0.634,4.909a6.778,6.778 0 0 0 0.164,2.098c0.16,2.677 1.27,5.038 3.041,6.756c1.555,1.693 3.748,2.844 6.31,3.154a38.35,38.35 0 0 0 2.543,0.083c3.579,-0.101 7.155,-0.206 10.73,-0.307l0.191,-9.945c-4.132,0 -8.186,-0.094 -12.184,-0.239c-5.306,-0.145 -8.354,-3.037 -10.16,-6.509" fill="#056B38"/>
    <path d="m223.62,121l-0.606,4.774a6.46,6.46 0 0 0 0.297,2.403c0.24,2.68 1.427,5.024 3.264,6.698c1.508,1.634 3.63,2.747 6.106,3.045c0.979,0.052 2,0.08 3.053,0.08c3.423,-0.157 6.845,-0.312 10.266,-0.47l-0.439,-9.585c-4.114,0 -8.115,-0.143 -12.03,-0.364c-5.164,-0.22 -8.14,-3.12 -9.911,-6.581" fill="#086E3B"/>
    <path d="m223.583,122c-0.192,1.545 -0.384,3.09 -0.573,4.635a6.544,6.544 0 0 0 0.428,2.72c0.32,2.682 1.572,5.008 3.46,6.636c1.45,1.574 3.482,2.645 5.849,2.934a82.97,82.97 0 0 0 3.543,0.075l9.71,-0.638l-1.064,-9.211c-4.066,0 -7.979,-0.194 -11.777,-0.495c-4.977,-0.3 -7.855,-3.205 -9.576,-6.656" fill="#0A703D"/>
    <path d="m223.547,122c-0.182,1.409 -0.363,2.817 -0.54,4.227a6.068,6.068 0 0 0 0.558,2.867c0.4,2.527 1.717,4.699 3.657,6.187c1.392,1.424 3.333,2.39 5.593,2.651c1.309,0.043 2.655,0.068 4.03,0.068c3.053,-0.254 6.105,-0.508 9.155,-0.765l-1.69,-8.306c-4.016,0 -7.84,-0.232 -11.52,-0.592c-4.79,-0.36 -7.573,-3.101 -9.243,-6.337" fill="#0D7340"/>
    <path d="m223.513,122c-0.172,1.363 -0.34,2.724 -0.508,4.088a6.402,6.402 0 0 0 0.69,3.184c0.48,2.531 1.86,4.684 3.853,6.127c1.333,1.362 3.183,2.287 5.335,2.536a151.8,151.8 0 0 0 4.517,0.065c2.867,-0.31 5.734,-0.623 8.6,-0.933c-0.77,-2.644 -1.543,-5.289 -2.314,-7.931c-3.967,0 -7.702,-0.285 -11.267,-0.724c-4.602,-0.44 -7.286,-3.185 -8.906,-6.412" fill="#0F7542"/>
    <path d="m223.479,123c-0.16,1.313 -0.319,2.626 -0.475,3.942a6.81,6.81 0 0 0 0.82,3.515c0.557,2.535 2.006,4.668 4.046,6.064c1.276,1.299 3.038,2.182 5.08,2.417c1.637,0.04 3.308,0.062 5.002,0.062l8.048,-1.11l-2.94,-7.54c-3.913,0 -7.561,-0.337 -11.009,-0.86c-4.416,-0.522 -7.004,-3.275 -8.572,-6.49" fill="#127845"/>
    <path d="m223.445,123a668.49,668.49 0 0 0 -0.442,3.553a6.47,6.47 0 0 0 0.95,3.617a9.349,9.349 0 0 0 4.241,5.624c1.219,1.157 2.889,1.942 4.826,2.15c1.8,0.038 3.631,0.056 5.486,0.056l7.494,-1.212c-1.186,-2.23 -2.372,-4.46 -3.56,-6.689c-3.865,0 -7.425,-0.369 -10.755,-0.94c-4.231,-0.569 -6.722,-3.156 -8.24,-6.159" fill="#127845"/>
    <path d="m223.412,123c-0.14,1.135 -0.276,2.27 -0.41,3.407c-0.036,1.474 0.365,2.84 1.081,3.95a9.477,9.477 0 0 0 4.436,5.56c1.158,1.093 2.739,1.834 4.569,2.03c1.964,0.035 3.956,0.053 5.968,0.053l6.944,-1.389l-4.18,-6.295a52.28,52.28 0 0 1 -10.503,-1.077c-4.043,-0.654 -6.437,-3.246 -7.905,-6.239" fill="#177D4A"/>
    <path d="m223.38,123a376.11,376.11 0 0 0 -0.378,3.255c-0.034,1.612 0.415,3.099 1.209,4.296a9.606,9.606 0 0 0 4.63,5.494c1.101,1.028 2.594,1.723 4.315,1.906c2.126,0.032 4.28,0.049 6.451,0.049l6.393,-1.574c-1.6,-1.961 -3.198,-3.924 -4.8,-5.885c-3.766,0 -7.148,-0.48 -10.247,-1.221c-3.858,-0.74 -6.157,-3.34 -7.574,-6.32" fill="#177D4A"/>
    <path d="m223.346,124c-0.119,1.03 -0.235,2.061 -0.345,3.095c-0.031,1.759 0.467,3.373 1.338,4.66c0.873,2.388 2.58,4.312 4.824,5.425c1.042,0.956 2.445,1.605 4.06,1.776c2.29,0.029 4.602,0.044 6.932,0.044c1.949,-0.59 3.898,-1.177 5.845,-1.768l-5.419,-5.455c-3.714,0 -7.011,-0.538 -9.994,-1.37c-3.673,-0.833 -5.874,-3.438 -7.241,-6.407" fill="#1C824F"/>
    <path d="m223.313,124c-0.109,0.909 -0.213,1.82 -0.312,2.733c-0.028,1.783 0.518,3.412 1.466,4.701c0.952,2.233 2.723,4.009 5.016,4.997c0.987,0.825 2.3,1.384 3.808,1.53c2.451,0.025 4.924,0.039 7.412,0.039l5.297,-1.837l-6.036,-4.677a33.4,33.4 0 0 1 -9.741,-1.423c-3.487,-0.865 -5.594,-3.305 -6.91,-6.063" fill="#1C824F"/>
    <path d="m223.28,124a232.87,232.87 0 0 0 -0.28,2.574c-0.024,1.927 0.57,3.685 1.596,5.065a9.62,9.62 0 0 0 5.209,4.926c0.928,0.757 2.154,1.267 3.555,1.4c2.614,0.023 5.246,0.035 7.89,0.035l4.75,-2.03l-6.65,-4.247c-3.616,0 -6.736,-0.619 -9.49,-1.574c-3.302,-0.957 -5.312,-3.402 -6.58,-6.149" fill="#218754"/>
    <path d="m223.248,125c-0.088,0.799 -0.17,1.6 -0.247,2.405c-0.022,2.082 0.618,3.974 1.724,5.447a9.735,9.735 0 0 0 5.4,4.854c0.871,0.684 2.007,1.145 3.303,1.263c2.775,0.02 5.564,0.031 8.369,0.031l4.203,-2.234l-7.263,-3.795c-3.568,0 -6.6,-0.68 -9.239,-1.732c-3.119,-1.052 -5.033,-3.506 -6.25,-6.239" fill="#218754"/>
    <path d="m223.215,125c-0.077,0.686 -0.149,1.376 -0.215,2.07c-0.018,2.08 0.67,3.967 1.853,5.428c1.184,2.084 3.147,3.672 5.591,4.436c0.813,0.565 1.862,0.944 3.05,1.04c2.936,0.017 5.886,0.026 8.846,0.026l3.66,-2.272l-7.877,-3.087c-3.516,0 -6.463,-0.692 -8.986,-1.761c-2.936,-1.07 -4.755,-3.356 -5.922,-5.88" fill="#248A57"/>
    <path d="m223.183,125c-0.066,0.63 -0.127,1.263 -0.183,1.901c-0.015,2.235 0.72,4.257 1.98,5.813c1.264,2.09 3.29,3.655 5.784,4.363c0.757,0.491 1.715,0.82 2.799,0.902c3.096,0.014 6.204,0.021 9.32,0.021c1.04,-0.826 2.078,-1.653 3.117,-2.477c-2.828,-0.878 -5.658,-1.754 -8.488,-2.631c-3.467,0 -6.327,-0.755 -8.735,-1.92c-2.752,-1.167 -4.476,-3.458 -5.594,-5.972" fill="#268C59"/>
    <path d="m223.151,126a72.54,72.54 0 0 0 -0.15,1.721c-0.014,2.399 0.768,4.564 2.107,6.218c1.34,2.094 3.43,3.636 5.975,4.287c0.698,0.414 1.57,0.689 2.548,0.756c3.257,0.013 6.522,0.018 9.795,0.018l2.574,-2.693l-9.098,-2.154c-3.418,0 -6.191,-0.819 -8.485,-2.087c-2.569,-1.267 -4.199,-3.567 -5.266,-6.066" fill="#298F5C"/>
    <path d="m223.119,126a48.91,48.91 0 0 0 -0.119,1.535c-0.01,2.569 0.82,4.88 2.235,6.643a10.084,10.084 0 0 0 6.164,4.204c0.644,0.334 1.427,0.553 2.298,0.605c3.417,0.01 6.842,0.013 10.27,0.013l2.033,-2.918l-9.706,-1.653c-3.37,0 -6.057,-0.888 -8.237,-2.261c-2.386,-1.375 -3.92,-3.683 -4.938,-6.168" fill="#2B915E"/>
    <path d="m223.087,126c-0.037,0.408 -0.066,0.821 -0.087,1.237c-0.007,2.534 0.869,4.813 2.362,6.54c1.495,1.94 3.711,3.318 6.354,3.803c0.585,0.23 1.28,0.38 2.048,0.412c3.577,0.005 7.158,0.008 10.742,0.008c0.498,-0.971 0.997,-1.941 1.494,-2.913l-10.316,-1.04c-3.318,0 -5.92,-0.886 -7.985,-2.257c-2.204,-1.37 -3.644,-3.51 -4.612,-5.79" fill="#2E9461"/>
    <path d="m223.055,126c-0.026,0.346 -0.045,0.695 -0.055,1.05c-0.003,2.705 0.92,5.134 2.489,6.969c1.573,1.943 3.85,3.297 6.543,3.72c0.53,0.147 1.138,0.24 1.799,0.258c3.736,0.002 7.474,0.003 11.214,0.003l0.955,-3.14l-10.92,-0.535c-3.271,0 -5.786,-0.956 -7.74,-2.434c-2.02,-1.479 -3.364,-3.624 -4.285,-5.891" fill="#309663"/>
    <path d="m223.024,127c-0.017,0.279 -0.024,0.561 -0.024,0.85c0,2.887 0.97,5.474 2.615,7.42c1.65,1.948 3.99,3.276 6.733,3.636c0.473,0.061 0.993,0.094 1.55,0.094l11.685,0l0.417,-3.381l-11.525,0c-6.446,0 -9.713,-4.119 -11.45,-8.619" fill="#396"/>
    <path d="m178,112l4.765,26l22.961,0c2.092,-4.9 4.184,-9.8 6.274,-14.702c-3.655,3.27 -7.2,3.896 -7.2,3.896l-15.099,0c-6.535,0 -9.461,-9.44 -11.701,-15.194" fill="#036936"/>
    <path d="m178,113l4.685,25l23.2,0c2.04,-4.67 4.079,-9.34 6.115,-14.011c-3.59,3.105 -7.05,3.702 -7.05,3.702l-15.256,0c-6.494,0 -9.442,-9.066 -11.694,-14.691" fill="#056B38"/>
    <path d="m178,114l4.603,24l23.447,0c1.984,-4.441 3.968,-8.883 5.95,-13.324c-3.524,2.943 -6.895,3.511 -6.895,3.511l-15.42,0c-6.45,0 -9.42,-8.695 -11.685,-14.187" fill="#086E3B"/>
    <path d="m178,115l4.386,24l23,0c1.873,-4.395 3.743,-8.793 5.614,-13.19c-3.357,2.904 -6.541,3.467 -6.541,3.467l-15.125,0c-6.218,0 -9.124,-8.686 -11.334,-14.277" fill="#0A703D"/>
    <path d="m178,115l4.303,23l23.249,0c1.817,-4.167 3.633,-8.334 5.448,-12.503c-3.29,2.74 -6.385,3.276 -6.385,3.276l-15.289,0c-6.174,0 -9.104,-8.314 -11.326,-13.773" fill="#0D7340"/>
    <path d="m178,116l4.219,22l23.501,0l5.28,-11.82c-3.222,2.578 -6.227,3.085 -6.227,3.085l-15.455,0c-6.13,0 -9.082,-7.942 -11.318,-13.265" fill="#0F7542"/>
    <path d="m179,117l4.007,22l23.043,0c1.652,-3.89 3.302,-7.782 4.951,-11.672c-3.056,2.534 -5.88,3.035 -5.88,3.035l-15.152,0c-5.9,0 -8.786,-7.932 -10.968,-13.363" fill="#127845"/>
    <path d="m179,117l3.921,21l23.3,0c1.594,-3.663 3.187,-7.327 4.779,-10.991c-2.986,2.374 -5.718,2.847 -5.718,2.847l-15.322,0c-5.856,0 -8.766,-7.56 -10.96,-12.856" fill="#127845"/>
    <path d="m179,118l3.714,20l22.826,0c1.487,-3.438 2.975,-6.876 4.46,-10.315c-2.825,2.214 -5.38,2.66 -5.38,2.66l-15.01,0c-5.628,0 -8.47,-7.19 -10.61,-12.345" fill="#177D4A"/>
    <path d="m179,119c1.208,6.667 2.417,13.335 3.627,20l23.087,0c1.43,-3.383 2.858,-6.766 4.286,-10.15c-2.755,2.164 -5.217,2.603 -5.217,2.603l-15.182,0c-5.582,0 -8.45,-7.177 -10.601,-12.453" fill="#177D4A"/>
    <path d="m179,119l3.538,19l23.352,0c1.372,-3.159 2.74,-6.317 4.11,-9.476c-2.685,2.007 -5.05,2.418 -5.05,2.418l-15.357,0c-5.537,0 -8.426,-6.808 -10.593,-11.942" fill="#1C824F"/>
    <path d="m179,120l3.335,18l22.865,0c1.268,-2.935 2.534,-5.87 3.8,-8.807c-2.527,1.85 -4.722,2.234 -4.722,2.234l-15.036,0c-5.312,0 -8.132,-6.437 -10.242,-11.427" fill="#1C824F"/>
    <path d="m179,121l3.245,17l23.135,0l3.62,-8.143c-2.454,1.694 -4.553,2.05 -4.553,2.05l-15.213,0c-5.264,0 -8.11,-6.067 -10.234,-10.907" fill="#218754"/>
    <path d="m180,122c1.05,5.667 2.102,11.335 3.153,17l23.411,0c1.147,-2.651 2.292,-5.302 3.436,-7.955c-2.38,1.638 -4.379,1.988 -4.379,1.988l-15.396,0c-5.217,0 -8.087,-6.054 -10.225,-11.033" fill="#218754"/>
    <path d="m180,122l2.956,16l22.907,0c1.046,-2.43 2.093,-4.861 3.137,-7.293c-2.226,1.483 -4.06,1.805 -4.06,1.805l-15.064,0c-4.995,0 -7.795,-5.684 -9.876,-10.512" fill="#248A57"/>
    <path d="m180,123l2.863,15l23.187,0c0.983,-2.213 1.969,-4.427 2.95,-6.64c-2.15,1.33 -3.885,1.624 -3.885,1.624l-15.247,0c-4.946,0 -7.773,-5.314 -9.868,-9.984" fill="#268C59"/>
    <path d="m180,124l2.767,15l23.474,0l2.759,-6.423c-2.074,1.264 -3.705,1.55 -3.705,1.55l-15.437,0c-4.895,0 -7.748,-5.298 -9.858,-10.127" fill="#298F5C"/>
    <path d="m180,124c0.86,4.667 1.717,9.335 2.577,14l22.949,0c0.826,-1.924 1.65,-3.847 2.474,-5.773c-1.926,1.114 -3.399,1.374 -3.399,1.374l-15.091,0c-4.676,0 -7.457,-4.93 -9.509,-9.601" fill="#2B915E"/>
    <path d="m180,125l2.479,13l23.243,0c0.76,-1.71 1.519,-3.422 2.278,-5.133c-1.847,0.966 -3.215,1.199 -3.215,1.199l-15.285,0c-4.626,0 -7.433,-4.562 -9.5,-9.066" fill="#2E9461"/>
    <path d="m180,126c0.793,4.333 1.585,8.667 2.379,13l23.541,0c0.694,-1.625 1.387,-3.253 2.08,-4.88c-1.767,0.89 -3.029,1.112 -3.029,1.112l-15.48,0c-4.573,0 -7.41,-4.543 -9.491,-9.232" fill="#309663"/>
    <path d="m180,126l2.195,12l22.998,0l1.807,-4.244c-1.624,0.742 -2.734,0.94 -2.734,0.94l-15.124,0c-4.358,0 -7.12,-4.175 -9.142,-8.696" fill="#396"/>
    <path d="m141,138l11.87,0c3.35,0 6.581,-1.39 9.08,-3.625c2.475,-2.213 4.23,-5.25 4.675,-8.58c0.05,-2.054 0.079,-4.449 0.375,-6.795c-5.37,7.94 -12.017,6.747 -12.126,6.747l-12.324,0c-0.518,4.083 -1.034,8.168 -1.551,12.253" fill="#036936"/>
    <path d="m141,138l12.057,0c3.403,0 6.684,-1.367 9.223,-3.569c2.48,-2.15 4.249,-5.095 4.72,-8.324c-0.214,-1.623 -0.477,-3.913 -0.19,-6.107c-5.298,7.427 -11.828,6.308 -12.046,6.308l-12.237,0l-1.527,11.692" fill="#056B38"/>
    <path d="m141,138l12.071,0c3.407,0 6.692,-1.344 9.234,-3.508c2.452,-2.086 4.206,-4.936 4.695,-8.062c-0.48,-1.202 -1.032,-3.388 -0.76,-5.43c-5.147,6.915 -11.46,5.874 -11.79,5.874l-11.97,0l-1.48,11.126" fill="#086E3B"/>
    <path d="m141,139l12.084,0c3.41,0 6.7,-1.401 9.244,-3.656c2.422,-2.147 4.163,-5.07 4.672,-8.28c-0.749,-0.843 -1.592,-3.053 -1.334,-5.064c-4.994,6.807 -11.091,5.784 -11.53,5.784l-11.704,0l-1.432,11.216" fill="#0A703D"/>
    <path d="m141,138l11.633,0c3.283,0 6.449,-1.377 8.898,-3.594c2.302,-2.082 3.962,-4.91 4.469,-8.016c-0.977,-0.426 -2.066,-2.53 -1.833,-4.39c-4.656,6.298 -10.311,5.35 -10.84,5.35l-10.996,0l-1.331,10.65" fill="#0D7340"/>
    <path d="m141,138l11.646,0c3.286,0 6.456,-1.35 8.908,-3.525c2.273,-2.016 3.92,-4.744 4.446,-7.743c-1.234,-0.023 -2.606,-2.022 -2.388,-3.732c-4.507,5.791 -9.953,4.92 -10.589,4.92l-10.737,0l-1.286,10.08" fill="#0F7542"/>
    <path d="m141,139l11.66,0c3.29,0 6.463,-1.416 8.918,-3.696c2.245,-2.086 3.879,-4.898 4.422,-7.994c-1.492,0.39 -3.144,-1.636 -2.94,-3.31c-4.36,5.667 -9.599,4.814 -10.34,4.814l-10.48,0l-1.24,10.186" fill="#127845"/>
    <path d="m141,138l11.672,0c3.294,0 6.471,-1.39 8.929,-3.626c2.217,-2.018 3.838,-4.732 4.399,-7.718c-1.752,0.788 -3.686,-1.132 -3.496,-2.656c-4.212,5.163 -9.241,4.386 -10.09,4.386l-10.218,0l-1.196,9.614" fill="#127845"/>
    <path d="m141,138l11.685,0c3.298,0 6.479,-1.36 8.94,-3.548c2.187,-1.947 3.795,-4.557 4.375,-7.432c-2.01,1.17 -4.228,-0.643 -4.053,-2.02c-4.064,4.663 -8.881,3.961 -9.84,3.961l-9.957,0l-1.15,9.039" fill="#177D4A"/>
    <path d="m141,138l11.699,0c3.302,0 6.486,-1.326 8.95,-3.462c2.16,-1.872 3.753,-4.374 4.351,-7.132c-2.27,1.53 -4.771,-0.174 -4.61,-1.406c-3.916,4.17 -8.524,3.542 -9.588,3.542l-9.697,0l-1.105,8.458" fill="#177D4A"/>
    <path d="m141,139l11.712,0c3.305,0 6.492,-1.406 8.959,-3.67c2.13,-1.956 3.71,-4.564 4.329,-7.438c-2.533,2.032 -5.316,0.296 -5.17,-0.892c-3.768,4.02 -8.164,3.415 -9.336,3.415l-9.436,0a29466.5,29466.5 0 0 1 -1.058,8.585" fill="#1C824F"/>
    <path d="m141,138l11.725,0c3.31,0 6.5,-1.372 8.97,-3.58c2.102,-1.88 3.67,-4.378 4.305,-7.133c-2.793,2.383 -5.862,0.755 -5.73,-0.287c-3.62,3.529 -7.804,2.999 -9.083,2.999l-9.174,0l-1.013,8.001" fill="#1C824F"/>
    <path d="m141,139l11.738,0c3.313,0 6.508,-1.425 8.98,-3.718c2.073,-1.925 3.626,-4.47 4.282,-7.282c-3.055,2.892 -6.41,1.272 -6.292,0.31c-3.47,3.256 -7.443,2.766 -8.83,2.766l-8.911,0l-0.967,7.924" fill="#218754"/>
    <path d="m141,139l11.752,0c3.316,0 6.515,-1.441 8.99,-3.762c2.044,-1.917 3.585,-4.446 4.258,-7.238c-3.318,3.347 -6.958,1.777 -6.854,0.926c-3.32,2.884 -7.08,2.45 -8.578,2.45l-8.647,0l-0.921,7.624" fill="#218754"/>
    <path d="m141,138l11.765,0c3.32,0 6.523,-1.326 9,-3.46c2.018,-1.736 3.545,-4.018 4.235,-6.54c-3.58,3.466 -7.506,2.087 -7.418,1.416c-3.17,2.274 -6.719,1.932 -8.323,1.932l-8.384,0l-0.875,6.652" fill="#248A57"/>
    <path d="m141,138l11.779,0c3.324,0 6.53,-1.342 9.01,-3.501c1.987,-1.731 3.5,-3.994 4.211,-6.499c-3.844,3.9 -8.058,2.57 -7.985,2.004c-3.018,1.917 -6.353,1.628 -8.067,1.628l-8.12,0l-0.828,6.368" fill="#268C59"/>
    <path d="m141,138l11.792,0c3.329,0 6.538,-1.358 9.021,-3.543c1.96,-1.725 3.46,-3.97 4.187,-6.457c-4.108,4.344 -8.609,3.065 -8.551,2.606c-2.868,1.553 -5.988,1.319 -7.813,1.319l-7.854,0l-0.782,6.075" fill="#298F5C"/>
    <path d="m141,138l11.805,0c3.332,0 6.545,-1.374 9.031,-3.587c1.93,-1.718 3.416,-3.945 4.164,-6.413c-4.374,4.799 -9.164,3.572 -9.12,3.223c-2.716,1.178 -5.624,1.002 -7.556,1.002l-7.59,0l-0.734,5.775" fill="#2B915E"/>
    <path d="m141,138l11.82,0c3.335,0 6.552,-1.391 9.04,-3.63c1.902,-1.711 3.374,-3.92 4.14,-6.37c-4.64,5.265 -9.718,4.09 -9.688,3.855c-2.566,0.795 -5.258,0.676 -7.3,0.676l-7.324,0c-0.228,1.823 -0.458,3.647 -0.688,5.469" fill="#2E9461"/>
    <path d="m141,139l11.832,0c3.34,0 6.56,-1.409 9.052,-3.676c1.87,-1.704 3.33,-3.894 4.116,-6.324c-4.906,5.742 -10.275,4.622 -10.26,4.502c-2.413,0.404 -4.89,0.342 -7.042,0.342l-7.057,0l-0.641,5.156" fill="#309663"/>
    <path d="m141,139l11.846,0c3.343,0 6.567,-1.426 9.062,-3.723c1.843,-1.696 3.288,-3.865 4.092,-6.277c-5.172,6.233 -10.83,5.168 -10.83,5.168l-13.577,0l-0.593,4.832" fill="#396"/>
    <path d="m384,121c5.132,4.57 13.027,10.466 19.745,10.51c7.427,0.043 17.956,-4.432 25.255,-9.68a2439.072,2439.072 0 0 0 -3.442,6.953c-1.952,3.771 -5.624,6.565 -9.931,8.196a29.077,29.077 0 0 1 -10.875,2.02c-3.666,-0.028 -7.245,-0.789 -10.28,-2.347c-3.165,-1.628 -5.74,-4.145 -7.199,-7.63a449.82,449.82 0 0 1 -3.273,-8.022" fill="#036936"/>
    <path d="m384,122c5.049,4.305 12.762,9.838 19.347,9.923c7.269,0.084 17.516,-4.04 24.653,-8.913c-0.977,2.17 -1.911,4.297 -2.835,6.4c-1.704,3.464 -5.057,6.007 -9.027,7.46c-3.39,1.37 -7.16,2.104 -10.855,2.129c-3.694,0.037 -7.323,-0.638 -10.425,-2.088c-3.221,-1.516 -5.877,-3.893 -7.427,-7.208a207.794,207.794 0 0 1 -3.431,-7.703" fill="#056B38"/>
    <path d="m384,122c4.851,4.29 12.21,9.783 18.512,9.915c6.942,0.132 16.676,-3.883 23.488,-8.662c-0.767,2.128 -1.472,4.193 -2.162,6.214c-1.42,3.36 -4.377,5.799 -7.923,7.16c-3.287,1.46 -6.963,2.274 -10.585,2.361c-3.638,0.107 -7.235,-0.52 -10.332,-1.948c-3.208,-1.492 -5.878,-3.867 -7.486,-7.205a142.246,142.246 0 0 1 -3.512,-7.835" fill="#086E3B"/>
    <path d="m385,123c4.651,4.02 11.652,9.147 17.676,9.317c6.615,0.172 15.836,-3.493 22.324,-7.893a183.52,183.52 0 0 0 -1.505,5.66c-1.142,3.051 -3.708,5.24 -6.836,6.43c-3.182,1.466 -6.762,2.31 -10.31,2.455c-3.581,0.171 -7.14,-0.37 -10.229,-1.692c-3.189,-1.378 -5.873,-3.611 -7.535,-6.774a100.312,100.312 0 0 1 -3.585,-7.503" fill="#0A703D"/>
    <path d="m385,123c4.57,4 11.39,9.074 17.28,9.297c6.457,0.221 15.393,-3.318 21.72,-7.612a104.968,104.968 0 0 0 -0.886,5.451c-0.892,2.934 -3.133,5.009 -5.92,6.097c-3.16,1.565 -6.734,2.492 -10.294,2.706c-3.612,0.245 -7.224,-0.245 -10.38,-1.539c-3.252,-1.35 -6.014,-3.579 -7.773,-6.763a82.293,82.293 0 0 1 -3.747,-7.637" fill="#0D7340"/>
    <path d="m385,124c4.368,3.727 10.832,8.431 16.442,8.69c6.13,0.258 14.554,-2.932 20.558,-6.847c-0.174,1.742 -0.227,3.362 -0.248,4.897c-0.62,2.632 -2.481,4.459 -4.858,5.376c-3.052,1.565 -6.529,2.518 -10.01,2.787c-3.55,0.304 -7.12,-0.101 -10.265,-1.286c-3.227,-1.238 -5.998,-3.322 -7.808,-6.327a64.771,64.771 0 0 1 -3.811,-7.29" fill="#0F7542"/>
    <path d="m385,124c4.24,3.452 10.459,7.785 15.879,8.078c5.908,0.292 13.962,-2.555 19.742,-6.096c0.022,1.577 0.182,3.015 0.379,4.356c-0.361,2.332 -1.875,3.918 -3.886,4.671c-2.998,1.556 -6.434,2.53 -9.893,2.85c-3.545,0.36 -7.133,0.035 -10.314,-1.044c-3.26,-1.125 -6.083,-3.063 -7.969,-5.885a51.894,51.894 0 0 1 -3.938,-6.93" fill="#127845"/>
    <path d="m385,125c4.086,3.422 10.012,7.69 15.206,8.038c5.645,0.347 13.277,-2.357 18.793,-5.774c0.214,1.52 0.588,2.877 1.001,4.119c-0.103,2.197 -1.262,3.654 -2.893,4.294c-2.92,1.66 -6.293,2.725 -9.706,3.119c-3.516,0.442 -7.097,0.173 -10.292,-0.874c-3.266,-1.092 -6.122,-3.022 -8.074,-5.86a46.773,46.773 0 0 1 -4.035,-7.062" fill="#127845"/>
    <path d="m386,125c3.927,3.145 9.563,7.04 14.53,7.418c5.38,0.378 12.584,-1.99 17.838,-5.033c0.402,1.354 0.984,2.531 1.613,3.583c0.154,1.906 -0.652,3.127 -1.908,3.608c-2.844,1.645 -6.148,2.723 -9.515,3.162c-3.483,0.49 -7.051,0.3 -10.26,-0.64c-3.27,-0.982 -6.155,-2.763 -8.17,-5.414a39.01,39.01 0 0 1 -4.128,-6.684" fill="#177D4A"/>
    <path d="m386,126c3.87,3.108 9.36,6.927 14.228,7.362c5.253,0.437 12.216,-1.77 17.341,-4.674c0.606,1.292 1.416,2.379 2.277,3.321c0.418,1.755 -0.053,2.834 -0.959,3.193c-2.84,1.755 -6.165,2.929 -9.572,3.447c-3.543,0.579 -7.195,0.451 -10.5,-0.455c-3.36,-0.943 -6.352,-2.712 -8.483,-5.377a35.927,35.927 0 0 1 -4.332,-6.817" fill="#177D4A"/>
    <path d="m386,126c3.682,2.83 8.834,6.275 13.432,6.737c4.945,0.46 11.423,-1.416 16.241,-3.955c0.791,1.13 1.799,2.042 2.865,2.8c0.669,1.47 0.552,2.322 0.027,2.53c-2.74,1.731 -5.968,2.909 -9.296,3.466c-3.482,0.621 -7.09,0.567 -10.379,-0.233c-3.334,-0.833 -6.328,-2.45 -8.502,-4.925a30.849,30.849 0 0 1 -4.388,-6.42" fill="#1C824F"/>
    <path d="m386,127c3.572,2.783 8.502,6.14 12.935,6.665c4.747,0.524 10.886,-1.178 15.504,-3.559c0.99,1.06 2.22,1.872 3.51,2.511c0.932,1.304 1.164,2 1.005,2.075c-2.696,1.847 -5.903,3.127 -9.226,3.77c-3.496,0.716 -7.14,0.73 -10.484,-0.032c-3.379,-0.79 -6.444,-2.392 -8.707,-4.877a29.023,29.023 0 0 1 -4.537,-6.553" fill="#1C824F"/>
    <path d="m386,127c3.425,2.504 8.081,5.49 12.302,6.032c4.498,0.544 10.233,-0.84 14.605,-2.863c1.177,0.9 2.614,1.545 4.119,2.01c1.187,1.03 1.765,1.512 1.974,1.447c-2.628,1.809 -5.775,3.082 -9.06,3.756c-3.472,0.748 -7.113,0.83 -10.478,0.173c-3.393,-0.682 -6.492,-2.133 -8.824,-4.42a25.28,25.28 0 0 1 -4.638,-6.135" fill="#218754"/>
    <path d="m387,128c3.276,2.449 7.653,5.333 11.657,5.944c4.245,0.612 9.575,-0.579 13.693,-2.43c1.363,0.825 3.006,1.358 4.72,1.69c1.436,0.852 2.356,1.162 2.93,0.951c-2.553,1.933 -5.64,3.316 -8.882,4.081c-3.444,0.85 -7.08,1.005 -10.459,0.394c-3.398,-0.637 -6.531,-2.067 -8.926,-4.363a24.085,24.085 0 0 1 -4.733,-6.267" fill="#218754"/>
    <path d="m387,128c3.221,2.17 7.448,4.687 11.353,5.31c4.116,0.622 9.191,-0.267 13.177,-1.773c1.595,0.671 3.495,1.048 5.472,1.218c1.737,0.593 3.034,0.704 3.998,0.369c-2.558,1.877 -5.675,3.24 -8.97,4.028c-3.52,0.871 -7.259,1.087 -10.755,0.574c-3.511,-0.531 -6.771,-1.81 -9.3,-3.903c-1.946,-1.6 -3.654,-3.534 -4.975,-5.823" fill="#248A57"/>
    <path d="m387,129c3.07,2.106 7.016,4.507 10.702,5.2c3.861,0.696 8.524,0.02 12.257,-1.294c1.782,0.585 3.887,0.842 6.077,0.868c1.988,0.396 3.63,0.322 4.964,-0.171c-2.484,2.007 -5.54,3.486 -8.792,4.37c-3.492,0.979 -7.222,1.276 -10.736,0.813c-3.517,-0.478 -6.809,-1.733 -9.402,-3.83c-1.995,-1.606 -3.738,-3.583 -5.07,-5.956" fill="#268C59"/>
    <path d="m387,129c2.921,1.83 6.589,3.873 10.058,4.57c3.61,0.695 7.865,0.297 11.346,-0.694c1.967,0.44 4.277,0.553 6.675,0.435c2.237,0.16 4.223,-0.09 5.921,-0.689c-2.413,1.934 -5.406,3.378 -8.615,4.27c-3.464,0.986 -7.188,1.332 -10.715,0.965c-3.525,-0.38 -6.848,-1.482 -9.506,-3.373c-2.042,-1.447 -3.82,-3.267 -5.164,-5.484" fill="#298F5C"/>
    <path d="m388,130c2.772,1.757 6.165,3.67 9.42,4.443c3.361,0.772 7.212,0.605 10.444,-0.175c2.151,0.347 4.663,0.329 7.268,0.056c2.485,-0.056 4.808,-0.508 6.868,-1.275c-2.34,2.07 -5.272,3.636 -8.438,4.631c-3.44,1.101 -7.156,1.534 -10.7,1.22c-3.529,-0.32 -6.885,-1.394 -9.605,-3.284c-2.09,-1.45 -3.902,-3.312 -5.257,-5.616" fill="#2B915E"/>
    <path d="m388,130c2.625,1.673 5.747,3.439 8.79,4.295c3.112,0.858 6.566,0.944 9.55,0.4c2.335,0.241 5.046,0.081 7.856,-0.365a30.228,30.228 0 0 0 7.804,-1.917c-2.268,2.218 -5.14,3.915 -8.264,5.024c-3.412,1.226 -7.122,1.754 -10.679,1.501c-3.539,-0.258 -6.925,-1.297 -9.706,-3.186c-2.139,-1.45 -3.986,-3.357 -5.351,-5.752" fill="#2E9461"/>
    <path d="m388,131c2.48,1.404 5.331,2.828 8.165,3.67c2.868,0.843 5.927,1.17 8.669,0.915c2.512,0.114 5.42,-0.17 8.432,-0.733a47.792,47.792 0 0 0 8.734,-2.336c-2.198,2.117 -5.011,3.754 -8.092,4.85a28.166,28.166 0 0 1 -10.66,1.606c-3.545,-0.167 -6.965,-1.056 -9.805,-2.73c-2.187,-1.289 -4.067,-3.025 -5.443,-5.242" fill="#309663"/>
    <path d="m388,131c4.809,2.617 10.645,5.036 15.791,5.036c5.538,0 12.785,-1.763 19.209,-4.216c-2.192,2.272 -5.027,4.048 -8.155,5.264a28.473,28.473 0 0 1 -10.954,1.906c-3.658,-0.098 -7.207,-0.947 -10.195,-2.615c-2.3,-1.284 -4.268,-3.063 -5.696,-5.375" fill="#396"/>
    <path d="m401.735,61l10.265,4.174l10.267,-4.174l5.733,0l-13.074,23.423l-2.925,2.577l-9.122,-8.035l-6.879,-17.965l5.735,0" fill="#F93"/>
    <path d="m400.477,61l11.524,4.771l11.523,-4.771l4.476,0l-13.414,24.682l-2.586,2.318l-8.915,-7.996l-7.085,-19.004l4.477,0" fill="#FF9E3B"/>
    <path d="m399.2,61l12.801,5.198l12.801,-5.198l3.198,0l-13.748,25.019l-2.25,1.981l-8.713,-7.664l-7.289,-19.336l3.2,0" fill="#FFA340"/>
    <path d="m397.9,61l14.1,5.617l14.102,-5.617l1.898,0l-14.077,25.341l-1.923,1.659l-8.509,-7.343l-7.491,-19.657l1.9,0" fill="#FFA647"/>
    <path d="m396.576,61l15.424,6.25l15.426,-6.25l0.574,0l-14.402,26.598l-1.598,1.402l-8.309,-7.292l-7.691,-20.708l0.576,0" fill="#FFAB4F"/>
    <path d="m396,62l16.042,6.387l15.958,-6.354l-14.666,26.85l-1.292,1.117l-8.2,-7.074l-7.842,-20.926" fill="#FFB057"/>
    <path d="m396,62l15.61,6.088l15.39,-6.002l-14.427,26.1l-0.963,0.814l-7.903,-6.677l-7.707,-20.323" fill="#FFB55E"/>
    <path d="m396,63l15.681,6.017l15.319,-5.878l-14.652,26.305l-0.667,0.556l-7.86,-6.535l-7.821,-20.465" fill="#FFB866"/>
    <path d="m396,63l15.247,5.943l14.753,-5.751l-14.401,26.51l-0.352,0.298l-7.566,-6.392l-7.681,-20.608" fill="#FFBD6B"/>
    <path d="m397,64l15.321,5.656l14.679,-5.418l-14.628,25.72l-0.05,0.042l-7.526,-6.017l-7.796,-19.983" fill="#FFC273"/>
    <path d="m397,65l14.885,5.602l14.115,-5.313l-14.21,25.711l-7.139,-5.822l-7.651,-20.178" fill="#FFC47A"/>
    <path d="m397,65l14.445,5.339l13.555,-5.01l-13.761,24.671l-6.738,-5.396l-7.501,-19.604" fill="#FFC982"/>
    <path d="m397,66l14.522,5.29l13.478,-4.91l-13.803,24.62l-6.578,-5.192l-7.619,-19.808" fill="#FFCF87"/>
    <path d="m398,67l14.08,5.24l12.92,-4.81l-13.355,24.57l-6.18,-4.985l-7.465,-20.015" fill="#FFD48F"/>
    <path d="m398,67l14.16,4.985l12.84,-4.521l-13.404,23.536l-6.012,-4.585l-7.584,-19.415" fill="#FFD696"/>
    <path d="m398,68l13.715,4.937l12.285,-4.422l-12.956,23.485l-5.619,-4.382l-7.425,-19.618" fill="#FFDB9E"/>
    <path d="m398,68l13.268,4.685l11.732,-4.143l-12.507,22.458l-5.234,-4.005l-7.259,-18.995" fill="#FFE0A6"/>
    <path d="m399,69l13.349,4.64l11.651,-4.05l-12.565,22.41l-5.054,-3.804l-7.381,-19.196" fill="#FFE3AB"/>
    <path d="m399,70l12.899,4.592l11.101,-3.953l-12.117,22.361l-4.672,-3.605l-7.211,-19.395" fill="#FFE8B3"/>
    <path d="m399,70l12.985,4.348l11.015,-3.688l-12.176,21.34l-4.487,-3.254l-7.337,-18.746" fill="#FFEDBA"/>
    <path d="m399,71l12.53,4.301l10.47,-3.595l-11.73,21.294l-4.11,-3.056l-7.16,-18.944" fill="#FFF2C2"/>
    <path d="m400,71l12.072,4.063l9.928,-3.342l-11.284,20.279l-3.74,-2.728l-6.976,-18.272" fill="#FFF5C7"/>
    <path d="m400,73l11.737,3.986l9.263,-3.146l-11.117,20.16l-2.686,-1.976l-7.197,-19.024" fill="#FFF5C7"/>
    <path d="m400,73l11.27,3.937l8.73,-3.05l-10.65,20.113l-2.375,-1.798l-6.975,-19.202" fill="#FCEDBF"/>
    <path d="m400,74l11.365,3.707l8.635,-2.817l-10.716,19.11l-2.184,-1.541l-7.1,-18.459" fill="#FCE6B8"/>
    <path d="m401,75l10.893,3.66l8.107,-2.725l-10.247,19.065l-1.883,-1.37l-6.87,-18.63" fill="#FADEB0"/>
    <path d="m401,75l10.994,3.434l8.006,-2.501l-10.321,18.067l-1.677,-1.135l-7.002,-17.865" fill="#FAD4A8"/>
    <path d="m401,76l10.516,3.388l7.484,-2.412l-9.852,18.024l-1.385,-0.968l-6.763,-18.032" fill="#F7CCA1"/>
    <path d="m401,76l10.622,3.343l7.378,-2.32l-9.933,17.977l-1.168,-0.796l-6.899,-18.204" fill="#F7C499"/>
    <path d="m402,77l10.138,3.125l6.862,-2.115l-9.464,16.99l-0.884,-0.591l-6.652,-17.409" fill="#F5BA91"/>
    <path d="m402,77l10.25,3.081l6.75,-2.03l-9.551,16.949l-0.652,-0.426l-6.797,-17.574" fill="#F5B38A"/>
    <path d="m402,78l9.76,2.87l6.24,-1.835l-9.08,15.965l-0.38,-0.242l-6.54,-16.758" fill="#F5AB82"/>
    <path d="m402,79l9.261,2.828l5.739,-1.753l-8.605,15.925l-0.123,-0.082l-6.272,-16.918" fill="#F2A378"/>
    <path d="m402,79l9.38,2.803l5.62,-1.68l-8.648,15.877l-6.352,-17" fill="#F29970"/>
    <path d="m403,80l8.874,2.632l5.126,-1.52l-8.06,14.888l-5.94,-16" fill="#F09169"/>
    <path d="m403,80l9.002,2.463l4.998,-1.367l-8.046,13.904l-5.954,-15" fill="#F08A61"/>
    <path d="m403,81l8.486,2.46l4.514,-1.31l-7.459,13.85l-5.541,-15" fill="#ED8259"/>
    <path d="m403,81l8.624,2.294l4.376,-1.164l-7.444,12.87l-5.556,-14" fill="#ED7852"/>
    <path d="m404,82l8.096,2.292l3.904,-1.106l-6.859,12.814l-5.141,-14" fill="#ED704A"/>
    <path d="m404,83l8.244,2.13l3.756,-0.97l-6.845,11.84l-5.155,-13" fill="#EB6942"/>
    <path d="m404,83l7.705,2.133l3.295,-0.913l-6.26,11.78l-4.74,-13" fill="#E85E3B"/>
    <path d="m404,84l7.866,1.974l3.134,-0.787l-6.246,10.813l-4.754,-12" fill="#E85733"/>
    <path d="m404,84l7.312,1.98l2.688,-0.727l-5.663,10.747l-4.337,-12" fill="#E84F29"/>
    <path d="m405,85l7.489,1.824l2.511,-0.611l-5.647,9.787l-4.353,-11" fill="#E64521"/>
   </g>
  </svg>