<svg  id="fndm-du4gm5cua3" viewBox="0.6701875925064087 0.7811965942382812 1347.951171875 402.8963623046875" xmlns="http://www.w3.org/2000/svg">
   <g xmlns="http://www.w3.org/2000/svg" fill="none">
    <path d="m506.34,1.11c51.42,0 102.84,0.17 154.25,-0.17c8.92,-0.06 11.87,5.65 15.63,11.6c14.53,23 29.19,45.88 45.1,70.85c14.62,-24.44 28.35,-45.82 40.35,-68.12c6,-11.18 13.23,-14.69 25.66,-14.48c45.53,0.76 91.08,0.3 137.43,1.78c-41.24,17.46 -66.77,46.7 -64.71,91.84c2,43.77 29.1,70.3 74.93,85l-224.39,0c78.16,-22 63,-83 60.75,-138.93c-27.61,46.43 -55.23,92.85 -84.46,142l-91,-147c-7.64,86.62 1.9,123.7 58.3,145.09l-155.93,0c49.12,-16.11 77.45,-45.87 75.94,-93.92c-1.35,-42.94 -27.04,-70.9 -67.85,-85.54z" fill="#8EB053"/>
    <path d="m615.85,357.37a460056.48,460056.48 0 0 1 37.31,-86.48c9,-20.92 45.67,-34.11 65.79,-24c5.4,2.7 4.27,7.29 4.28,11.45c0.13,31.19 -0.18,62.39 0.22,93.59c0.12,9.37 -3.62,12.27 -12.47,12c-7.62,-0.27 -14.74,-0.26 -13.12,-10.81c1.8,-11.65 -5.22,-12 -13.62,-11.66c-8.4,0.34 -16.56,0.31 -24.83,0c-6.5,-0.24 -11.15,1.49 -12.64,8.49c-3,14.05 -13.68,16.38 -24.71,13.4c-11.3,-3.06 -24.57,6.15 -32.49,-1.57c-8.1,-7.88 -2.09,-21.69 -3.15,-32.84c-1.54,-16.06 -13.9,-8.87 -22,-10.26c-7.82,-1.32 -13.84,0.11 -12.72,10.62c0.74,6.93 -0.29,14 0.24,21c0.7,9.3 -1.68,14 -12.42,13.78c-9.69,-0.21 -13.56,-2.89 -13.38,-13.12c0.52,-30.547 0.52,-61.103 0,-91.67c-0.17,-10.05 3.23,-13.41 13.18,-13c17.17,0.65 34.39,0.53 51.57,0.08c14.93,-0.4 21,6.76 19.93,21c-2.18,29.61 -1.36,59.25 5.03,90zm46.2,-43.07c37.18,4.3 37.3,4.27 35.63,-29.89c-0.22,-4.45 2.8,-11.13 -5,-12.23c-6.42,-0.91 -12.63,-0.39 -15.7,7.26c-4.41,11.07 -9.35,21.94 -14.93,34.86zm-92.58,-21.22c5.78,-1.56 16.63,3.46 16.88,-10.33c0.28,-15.42 -11.56,-10.18 -19.3,-10.68c-6.87,-0.45 -15.29,-3.19 -15.59,9.88c-0.32,14.43 9.1,10.43 18.01,11.13z" fill="#434144"/>
    <path d="m672.55,403l-648.29,0c-5.1,0 -10.21,0.12 -15.3,-0.1c-3,-0.13 -6.88,0.51 -7.28,-4c-0.48,-5.28 3.44,-6.06 7.44,-6.21c4.46,-0.16 8.93,-0.11 13.39,-0.11c434.74,0 869.487,0.103 1304.24,0.31c6.79,0 19.82,-6.24 19.652,6.16c-0.092,7.39 -12.892,3.71 -19.822,3.72c-218.007,0.26 -436.017,0.337 -654.03,0.23zm-186.11,-236.599c-43.78,0.209 -76.44,-31.771 -76.681,-75.091c-0.239,-42.9 33.001,-77.12 75.251,-77.53c41.59,-0.41 76.65,34.09 77.39,76.14c0.74,42.24 -33.06,76.31 -75.96,76.481zm-18.18,-69.171c14,4.67 15.47,8.77 2,17.1c-13.47,8.33 -14.45,25.62 -4.54,36.52c9.91,10.9 27.6,10.84 37.46,0.16c10.36,-11.21 9.77,-27.8 -4.25,-36.29c-17.21,-10.42 -8.81,-14.34 4.16,-18c-12.52,-10.72 -23.45,-16.07 -34.83,0.51zm13.52,-57.1c-5.45,-5.74 -9.9,-4 -12.54,1.49c-2.56,5.33 0.41,9 3.35,14.36c9.77,17.77 32.21,20.24 41.71,37.54c2.21,4 1.47,15.17 11.93,7.33c7,-5.24 10.33,-10 3.78,-18.45c-7.77,-9.94 -13.91,-21.16 -21.62,-31.15c-6.55,-8.47 -11.8,-21.75 -26.61,-11.09l0,-0.03z" fill="#8EB053"/>
    <path d="m807.1,305.76c9,-12.73 10.55,-26.14 15.28,-38.17c7.07,-18 35.47,-29.4 52.32,-20.79c5.46,2.78 3.84,7.54 3.87,11.59c0.18,31.19 -0.16,62.4 0.26,93.59c0.13,9.32 -3.38,11.92 -12.3,12c-9.4,0 -13.88,-2 -13.62,-12.63a704.92,704.92 0 0 0 -2,-77.33c-12.94,19.53 -17.17,41.86 -25.11,62.73a125.79,125.79 0 0 0 -5.43,16.24c-1.65,7.17 -4.88,11.09 -13,10.86c-7.4,-0.21 -9.36,-4.52 -11.26,-10.46c-7,-21.74 -14.5,-43.3 -21.52,-65c-1.9,-5.86 -3.29,-11.71 -12,-17.62l0,78.32c0,7.58 1.74,15.05 -10.79,15c-11.27,0 -14,-4 -13.78,-14.48c0.56,-29.91 0.64,-59.86 0,-89.77c-0.25,-11.07 3.67,-13.67 14.2,-13.75c32,-0.23 34.91,1.37 45,31.54c2.96,8.75 6.13,17.44 9.88,28.13zm-781.85,-34.01l0,75.93c0,8.2 1.83,16 -11.68,16.47c-14.82,0.48 -12.72,-8.24 -12.71,-17.08c0,-29.32 0.38,-58.64 -0.18,-88c-0.2,-9.87 2.61,-12.89 12.8,-13.07c32.71,-0.59 35.65,1.21 46.59,32.29c3.05,8.66 3.44,18.71 11.77,26.68c4.68,-13.45 8.86,-25.86 13.31,-38.17c6.25,-17.26 37.47,-28.85 52.72,-19.76c4.91,2.93 3.65,7.68 3.66,11.89c0.11,30.59 -0.26,61.19 0.25,91.77c0.17,10.1 -3.45,13.1 -13.28,13.25c-10,0.16 -13.26,-2.93 -13,-13c0.63,-25.69 0.21,-51.4 0.21,-79.65c-10.12,6.27 -10.56,14.21 -12.82,21c-6.45,19.28 -12.5,38.7 -19.17,57.9c-2.11,6.11 -2.48,13.86 -12.81,13.72c-9.68,-0.12 -11.08,-6.22 -13.25,-13.14c-6.1,-19.39 -12.24,-38.79 -19.1,-57.92c-2.39,-6.63 -2.48,-15.01 -13.31,-21.11z" fill="#434144"/>
    <path d="m1.98,209.3l1345.62,0c-8.88,7.93 -1314.68,11.53 -1345.62,0z" fill="#8EB053"/>
    <path d="m426.79,303.72c0,-12.07 0.15,-24.15 0,-36.22c-0.23,-13.91 5.51,-21.52 20.3,-21.23c15.87,0.32 31.76,0.15 47.65,0c12.62,-0.08 18.77,6.26 18.81,18.65c0.07,26.68 0,53.37 0,80c0,11.7 -6.32,18 -17.36,18.41c-17.13,0.65 -34.31,0.52 -51.45,0.12c-12.43,-0.29 -18,-7.6 -17.95,-19.8c0.13,-13.25 0,-26.59 0,-39.93zm25.51,0.49c0,7 0.79,14.14 -0.16,21c-2,14.55 7.45,13.56 16.56,12.87c8.41,-0.63 20.44,4.71 19.46,-12.18c-0.8,-14 0,-28.05 -0.23,-42.07c-0.07,-4.74 1.22,-9.8 -6.06,-11.93c-19.63,-5.75 -29.55,0.9 -29.57,20.82c-0.01,3.84 0,7.67 0,11.51l0,-0.02zm797.62,0.89c0,12.73 -0.46,25.49 0.13,38.2c0.65,13.86 -6,20.12 -19.14,20.32c-15.28,0.24 -30.57,0.17 -45.85,0c-13.77,-0.13 -21.11,-6.32 -20.85,-21.06c0.44,-25.46 0.29,-50.94 0.06,-76.42c-0.12,-13.46 5.87,-20.05 19.5,-19.88c15.92,0.21 31.85,0.18 47.77,0c12.72,-0.12 18.68,5.88 18.43,18.66c-0.29,13.43 -0.05,26.8 -0.05,40.18zm-24.38,1c0,-8.27 0.05,-16.54 0,-24.81c0,-3.69 0.3,-7.11 -4.55,-9.09c-17,-6.95 -30.68,1.44 -30.72,19.36c0,12.08 -0.09,24.17 0.07,36.25c0.05,4.2 -0.78,8.39 5.47,10.36c19,6 29.75,-1.16 29.78,-20.62c-0.06,-3.86 -0.06,-7.67 -0.08,-11.49l0.03,0.04zm77.24,57.6c-7,0 -14,-0.28 -21,0.07c-9,0.46 -15.41,0.29 -15.79,-12.36c-0.41,-14 6.88,-13.71 16.56,-13.32c10.17,0.41 20.38,-0.11 30.56,0.14c6.75,0.17 10.64,-1.54 10.84,-9.39c0.22,-8.27 -3,-11.76 -11.07,-11.05c-1.27,0.12 -2.56,-0.09 -3.82,0c-50.58,3.9 -44.31,-6.76 -43.79,-53.63c0.13,-11.9 7.46,-18.18 20.06,-17.91c16.55,0.35 33.13,0.51 49.67,-0.09c9.31,-0.34 13.55,1.49 13.62,12.28c0.08,11.36 -4.1,14.33 -14.46,13.55c-9.5,-0.71 -19.1,-0.18 -28.65,-0.13c-7.48,0 -15.25,-1.81 -15,10.82c0.21,11.71 7.44,9.7 14,9.51c51.26,-1.5 43.24,2 43.65,45.07c0.22,23.45 -2.82,26.25 -26.27,26.43c-6.37,0.05 -12.74,0.01 -19.11,0.01zm-979.33,-59.84c0,-14.67 0.37,-29.35 -0.14,-44c-0.32,-9.22 1.66,-13.7 12.44,-13.91c11.71,-0.22 14.52,4.65 13.25,14.72a45.78,45.78 0 0 0 0,5.74c0.07,21.42 12.24,29.46 33.37,22.67c4.93,-1.59 5.38,-4.51 5.42,-8.39c0.06,-7 0.49,-14.06 -0.06,-21c-0.74,-9.38 1.7,-13.69 12.43,-13.68c11.12,0 14.26,4 14.08,14.55a2657.59,2657.59 0 0 0 0,89.91c0.15,9.63 -2.36,13.47 -12.76,13.6c-11.16,0.14 -15,-3.84 -13.73,-14.46c0.53,-4.4 -0.53,-9 0.2,-13.36c2.91,-17.29 -4,-21.19 -21.19,-21.94c-25.5,-1.1 -15.95,15.71 -17.82,27.39c-1.44,9 6.49,23.4 -13.32,22.29c-9,-0.51 -12.55,-3.09 -12.27,-12.27c0.46,-15.96 0.1,-31.91 0.1,-47.86zm664.81,0.96c0,-15.93 0.35,-31.86 -0.15,-47.78c-0.26,-8.37 2.74,-11.31 11,-10.84c10.16,0.58 20.37,0.13 30.57,0.14c35,0 37.28,1.64 45.64,34.76a9229.005,9229.005 0 0 1 17,68.41c1.14,4.76 7.2,12.21 -2.12,13.47c-7.35,1 -18.3,6.09 -21.79,-7.76c-5.73,-22.78 -13.56,-45.15 -17.67,-68.2c-3.3,-18.53 -15.5,-14.95 -27.13,-15.1c-14.78,-0.2 -9,11.24 -9.19,18a968.948,968.948 0 0 0 -0.07,61.15c0.33,10.45 -4.11,12.64 -13.57,12.95c-10.46,0.34 -13.1,-3.65 -12.69,-13.32c0.64,-15.28 0.16,-30.59 0.17,-45.88zm-833.91,-3.59c0,-14.63 0.32,-29.27 -0.12,-43.89c-0.24,-8.11 2.49,-11.37 10.92,-11.17c18.43,0.46 36.91,0.66 55.33,-0.05c11,-0.43 10.05,6.06 10.38,13.35c0.38,8.48 -1.56,13.23 -11.42,12.5c-9.49,-0.7 -19.09,0.24 -28.6,-0.25c-8.14,-0.42 -11.31,2.4 -11.16,10.85c0.14,7.54 3,10 10.15,9.78c8.89,-0.23 17.83,1 26.68,0.42c10.18,-0.67 14.47,1.84 14.65,13.38c0.21,12.8 -6.33,12.83 -15.37,12.39c-8.25,-0.4 -16.56,0.28 -24.8,-0.18c-7.84,-0.45 -11.58,1.7 -11.3,10.49c0.25,7.86 3.77,9.62 10.59,9.37c8.9,-0.32 17.83,0.26 26.71,-0.16c8.57,-0.4 14.31,0.17 14.1,11.69c-0.19,10.52 -2.72,14.87 -13.89,14.13c-13.3,-0.88 -26.71,-0.52 -40.06,-0.13c-15.72,0.47 -23.89,-5.62 -22.94,-22.45c0.72,-13.29 0.15,-26.68 0.15,-40.07zm742.05,1.37c0,-12.12 1,-24.34 -0.25,-36.33c-1.61,-15.26 2.34,-22.23 19.22,-20.24c13.21,1.55 26.75,0.21 40.14,0.34c8.43,0.09 17.57,-3 17.74,12.16c0.18,16 -9.46,13.27 -18.73,13.32c-7.66,0 -15.33,0.35 -23,0c-8.33,-0.43 -11,3.21 -10.91,11.29c0.12,7.57 3.32,10.08 10.38,9.88c8.92,-0.25 17.87,0.33 26.77,-0.11c9.44,-0.47 15.35,0.55 15.4,12.88c0.05,12.33 -5.79,13.71 -15.25,12.76c-1.89,-0.19 -4,-0.57 -5.7,0.07c-10.24,3.92 -29.75,-9.76 -30.32,9.32c-0.62,20.78 19.5,5.92 29.41,10.15c2.16,0.92 5.06,0.31 7.59,0.1c8.66,-0.72 14.24,0.43 14.22,11.83c0,11.12 -3.82,14.44 -14.42,13.9c-14,-0.72 -28,-0.07 -42.08,-0.23c-13.62,-0.15 -21.47,-5.53 -20.43,-20.88c0.94,-13.38 0.22,-26.82 0.22,-40.21zm210.89,14.88c0,-8.89 -0.35,-17.8 0.08,-26.68c0.55,-11.49 1.1,-21.86 -15.94,-19.17c-10.12,1.59 -8.47,-6.84 -8.65,-12.93c-0.2,-6.46 -0.81,-12.8 9.23,-12.49c16.51,0.51 33,0.11 49.56,0.13c7.46,0 15.54,-1.93 15.15,10.65c-0.29,9.49 -0.92,16.62 -13,14.89c-10.18,-1.45 -11.08,4.7 -11,12.69c0.3,22.24 -0.33,44.49 0.28,66.72c0.3,10.63 -4.48,12.63 -13.76,12.64c-9,0 -12.54,-3 -12.07,-12.14c0.56,-11.41 0.12,-22.87 0.12,-34.31zm-861.48,-15.45c0,-12.75 -0.28,-25.51 0.1,-38.24c0.24,-7.91 -4.13,-17.84 11.57,-17.94c14.66,-0.1 12.72,8.29 12.7,17.11c0,20.4 0.5,40.81 -0.21,61.18c-0.36,10.46 2.36,15.41 13.61,14.18c6.93,-0.75 14.05,0.38 21,-0.26c10.12,-0.92 14.77,1.68 14.54,13.26c-0.22,10.5 -4.06,12.65 -13.57,12.54c-70.89,-0.75 -58.73,6.94 -59.75,-58c-0.01,-1.28 0.01,-2.56 0.01,-3.83z" fill="#434144"/>
   </g>
  </svg>