<svg xmlns="http://www.w3.org/2000/svg" fill-rule="evenodd" clip-rule="evenodd" image-rendering="optimizeQuality" shape-rendering="geometricPrecision" text-rendering="geometricPrecision" viewBox="-2 1 6600 3300"><g><rect width="6600" height="3300" x="-2" y="1" fill="none"/><g><g><g><rect width="6600" height="3300" x="-2" y="1" fill="none"/><g fill="#5d6161"><path d="M2268.53 1254.03l711.4 0 0 143.24c0,19.43 -17,36.42 -36.42,36.42l-206.38 0c-19.43,0 -36.43,14.58 -36.43,36.43l0 570.57 -111.68 0c-41.27,0 -75.26,-33.99 -75.26,-75.27l0 -495.3c2.43,-21.85 -14.57,-36.43 -33.99,-36.43l-72.85 0c-21.85,0 -138.39,-2.43 -138.39,-116.54l0 -63.12z"/><path d="M1921.33 2040.69l0 -786.66 -388.48 0c-150.53,0 -169.96,126.25 -169.96,126.25 0,0 -7.28,-126.25 -131.11,-126.25l-126.25 0c-301.07,0 -335.07,257.36 -335.07,393.33l0 240.37c0,0 7.29,53.42 -38.84,53.42l-50.99 -0.01 0 99.55 89.84 0c0,0 60.7,0 63.13,0 138.39,-4.85 123.83,-179.67 123.83,-179.67l0 -191.81c0,-203.95 104.4,-235.52 250.08,-235.52l31.55 0c12.95,0 19.43,8.92 19.43,26.72l0 553.58c0,31.56 -2.43,26.7 26.7,26.7 2.44,0 4.86,0 4.86,0 162.67,0 150.53,-179.67 150.53,-179.67l0 -213.66c0,-191.81 97.12,-213.66 242.8,-213.66l31.57 -0.01c12.95,0 19.42,8.92 19.42,26.72l0 424.89c0,121.4 92.26,155.39 128.68,155.39l58.28 0z"/><path d="M4718.35 1275.88c0,-19.42 2.44,-21.84 -14.57,-21.84l-803.65 -0.01c-14.57,0 -14.57,4.85 -14.57,19.42 0,2.43 0,12.14 0,17 0,0 55.84,50.98 55.84,131.11l0 359.34c0,80.12 21.85,143.25 65.56,186.96 41.27,41.27 114.11,65.55 184.52,67.98l0 2.43 4.86 0c7.29,0 12.14,0 19.43,0l495.31 2.43 0 -29.14c0,-77.69 -65.56,-143.24 -143.25,-143.24l-344.78 -0.01c-60.71,0 -99.55,-4.86 -99.55,-77.7l0 -364.2 400.62 0.01c182.1,0 194.24,-150.54 194.24,-150.54l-0.01 0z"/><path d="M4155.07 1727.48c-9.71,0 -12.14,-4.85 -17,-9.71 -2.43,-4.85 33.99,-160.25 184.52,-160.25l220.95 0c9.71,0 31.57,7.29 33.99,29.14l0 111.69c-2.43,19.42 -19.43,26.7 -33.99,29.13l-388.47 0z"/><path d="M2188.4 1271.02c0,-12.14 -2.43,-14.57 -9.71,-16.99 -4.85,-2.44 -167.53,29.13 -174.81,148.11 0,2.43 0,14.57 0,16.99 2.43,9.71 14.57,19.43 31.57,21.85l121.39 0c21.85,-2.43 31.57,-16.99 31.57,-29.13l0 -140.83 -0.01 0z"/><path d="M2188.4 2001.85c0,21.85 -16.99,38.84 -38.84,38.84l-145.68 0 0 -488.02c0,-24.28 16.99,-41.28 38.84,-41.28l145.68 0 0 490.46z"/><path d="M3866.14 2004.28l-220.94 -216.09c55.84,-9.71 92.26,-33.99 131.11,-75.27 50.99,-48.56 80.12,-116.54 80.12,-186.95 0,-150.54 -123.83,-271.93 -254.93,-271.93l-541.45 -0.01 0 786.66 72.84 0c63.12,0 114.11,-50.98 114.11,-114.11l0 -507.45 337.49 0c55.84,2.43 104.41,48.56 104.41,106.84 0,7.28 -2.44,16.99 -4.86,26.7 0,1.61 0,3.24 0,4.85 -31.57,97.12 -135.97,114.11 -167.53,114.11 -41.27,2.44 -55.84,-4.85 -94.69,-24.28 -9.71,-4.85 -24.28,-14.57 -38.84,-21.85 -50.99,-21.85 -104.41,14.58 -109.26,21.85 -2.43,7.29 4.85,12.14 9.71,17l378.76 369.05c4.86,4.86 9.71,7.29 17,7.29l223.36 0 -36.42 -36.42 0.01 0.01z"/><path d="M5172.38 1268.6c19.43,14.57 36.43,26.7 53.42,36.42 21.85,14.57 38.85,24.28 50.99,29.14 9.71,2.43 16.99,2.43 24.28,2.43 7.28,0 14.57,0 24.28,-2.43 9.71,-4.86 19.43,-9.71 31.57,-17 26.7,-12.14 31.56,-19.43 77.7,-48.56l-7.29 -21.85 -4.86 0c-38.85,26.7 -55.84,38.84 -77.7,50.98 -9.71,7.29 -19.43,9.71 -26.71,14.58 -7.28,0 -12.14,2.43 -16.99,2.43 -4.86,0 -9.71,-2.43 -14.57,-4.86 -12.14,-2.43 -26.71,-9.7 -48.57,-24.28 -16.99,-9.71 -33.99,-24.28 -55.84,-38.84l-9.71 21.85 0 -0.01zm437.04 -92.26c21.85,0 43.71,4.85 60.7,14.57 19.43,7.29 33.99,16.99 48.57,29.14l0 2.43 2.43 2.43c12.14,12.14 24.28,29.13 33.99,48.56 7.28,19.43 14.57,38.85 14.57,63.13 0,26.7 -9.71,53.41 -26.7,77.7 -19.43,24.28 -36.43,48.56 -53.42,70.41 -31.57,43.71 -55.84,80.12 -70.41,106.83 -14.57,29.14 -21.85,50.99 -21.85,70.41 0,19.43 4.85,38.85 19.43,60.71 12.14,24.28 33.99,53.41 65.55,87.4 17,19.43 36.42,41.28 58.27,65.56 21.85,21.85 29.14,50.99 29.14,77.7 0,21.85 -4.85,43.71 -14.57,60.7 -7.29,19.43 -17,33.99 -29.14,46.13l0 2.44c-4.85,4.85 -9.71,9.7 -14.57,14.57 -12.14,9.71 -29.14,19.42 -46.13,29.13 -17,7.29 -36.42,12.14 -58.27,12.14l-2.44 -0.04c-24.29,0 -50.99,-7.29 -72.85,-26.71 -12.14,-9.7 -21.85,-16.99 -33.99,-26.7l-9.71 21.85c4.86,4.85 9.71,9.71 17,14.57l9.71 7.29c0,0 0,2.43 0,2.43 26.7,19.43 58.27,31.57 89.84,31.57 24.28,0 46.13,-4.86 70.41,-14.57 19.43,-7.29 36.42,-19.43 50.98,-31.57 0,-2.43 2.44,-2.43 2.44,-2.43 4.85,-4.86 9.7,-9.71 14.57,-14.58 0,0 0,-2.43 2.43,-2.43 12.14,-16.99 24.28,-33.99 31.57,-53.41 12.14,-24.29 16.99,-48.57 16.99,-70.42 0,-33.99 -12.14,-67.98 -33.99,-92.26 0,0 -2.43,0 -2.43,0 -21.85,-26.7 -41.28,-48.56 -58.27,-67.98 -31.57,-33.99 -50.99,-60.7 -63.13,-82.55 -9.71,-19.43 -14.57,-33.99 -14.57,-48.56 0,-14.58 4.85,-33.99 17,-58.28 14.57,-24.28 36.42,-58.27 70.41,-104.4 16.99,-21.85 33.99,-43.71 50.98,-70.41 21.85,-26.7 31.57,-58.27 31.57,-92.26 0,-24.28 -4.85,-48.56 -16.99,-72.85 -7.29,-21.84 -21.85,-38.84 -36.43,-55.83l-2.43 -2.44c-2.43,0 -2.43,-2.43 -2.43,-2.43 -14.57,-14.57 -33.99,-26.7 -53.42,-33.99 -21.85,-12.14 -46.13,-16.99 -70.41,-16.99 -31.57,0 -63.13,9.71 -89.84,29.13 -29.13,19.43 -4.85,2.43 -41.27,26.71l4.85 24.28c14.57,-9.71 30.76,-20.23 48.57,-31.56 26.71,-17 53.42,-24.28 77.7,-24.28l-0.01 0.01zm-172.38 842.5c-26.71,-21.85 -48.56,-36.42 -67.98,-46.13 -26.71,-14.57 -46.13,-19.43 -65.56,-19.43 -19.43,0 -38.84,4.86 -65.56,19.43 -26.7,14.57 -58.27,36.42 -97.11,65.56 -19.43,16.99 -43.71,33.99 -67.98,53.41 -24.28,19.43 -50.99,26.71 -75.27,26.71 -24.28,0 -46.13,-4.86 -63.13,-14.57 -19.42,-7.29 -33.99,-19.43 -48.56,-31.57 -2.43,-2.43 -4.85,-4.86 -4.85,-7.29l-2.43 -2.43 -2.44 0.02c-9.71,-12.14 -21.85,-29.14 -29.13,-46.13 -9.71,-19.43 -17,-41.28 -17,-63.13 0,-26.7 12.14,-55.84 33.99,-77.7 21.85,-21.85 41.28,-43.7 58.27,-63.12l-2.42 -0.01c26.71,-31.57 46.13,-58.27 60.7,-84.98 12.15,-24.28 17,-48.56 17,-70.41 0,-24.28 -4.85,-48.56 -19.43,-77.7 -7.28,-19.42 -21.85,-41.27 -38.84,-65.55l-19.43 12.14c17,24.28 29.14,46.13 36.42,63.12 12.14,24.28 17,46.13 17,67.98 0,19.43 -4.86,38.85 -17,60.71 -9.71,21.85 -26.7,48.56 -53.41,77.69 -14.58,19.43 -33.99,41.28 -55.84,63.13 -26.71,26.7 -38.85,60.7 -38.85,94.69 0,24.28 4.86,48.57 17,72.85 9.71,19.42 21.85,36.42 33.99,50.98 -0.01,1.62 0.8,2.43 2.42,2.43l2.43 2.44 0 2.43c2.43,0 4.86,2.43 7.29,4.85 14.57,14.57 33.99,26.71 53.42,36.42 24.28,12.14 48.56,17 72.84,17 31.57,0 63.12,-12.14 89.84,-31.57l12.14 -12.14c21.85,-14.57 38.84,-29.13 55.84,-41.28 41.27,-31.56 70.41,-53.41 94.69,-63.12 21.85,-12.14 38.85,-17 53.42,-17 16.99,0 31.57,4.86 53.42,14.58 19.42,9.7 41.27,26.7 70.41,48.56l9.71 -21.85 -0.02 -0.02zm-543.87 -565.72c-9.71,-12.14 -19.43,-24.28 -31.57,-36.42 -19.43,-24.28 -29.13,-50.99 -29.13,-77.7 0,-21.85 7.28,-41.27 14.57,-60.7 7.28,-17 16.99,-33.99 26.7,-46.13l2.43 0.01 0 -2.44c4.86,-4.85 9.71,-7.28 12.14,-12.14l2.44 -2.43c24.28,-19.42 60.7,-38.84 104.4,-38.84 24.28,0 50.98,7.28 75.26,24.28 14.58,7.29 26.71,16.99 38.85,24.28l12.14 -19.43c-12.14,-7.28 -24.28,-16.99 -36.42,-24.28 -26.71,-19.42 -58.27,-29.13 -89.84,-29.13 -58.27,0 -99.55,29.13 -118.98,46.13 -1.61,0.01 -2.41,0.81 -2.41,2.43l-2.43 0 -2.43 2.43c-2.43,4.86 -7.29,7.29 -9.71,12.14 0,0 -2.43,0 -2.43,0 0,0 0,2.43 0,2.43 -12.14,14.58 -24.28,31.57 -31.57,50.99 -9.71,24.28 -17,46.13 -17,70.41 0,33.99 12.14,65.56 36.43,92.26 9.7,12.14 19.42,24.28 26.7,33.99l21.86 -12.14zm565.72 -109.26l2.43 -4.85 -9.71 -16.99 -46.13 29.13c-21.85,17 -43.71,26.71 -63.13,33.99 -14.57,4.86 -26.7,7.29 -41.27,7.29 -14.57,0 -26.71,-2.43 -41.28,-7.29 -12.14,-4.85 -26.7,-12.14 -41.28,-19.43 -19.42,-12.14 -43.7,-26.7 -70.41,-46.13 -2.43,0 -12.14,19.43 -12.14,19.43 26.71,19.43 50.99,36.42 70.41,46.13 17,12.14 31.57,17 46.14,21.85 16.99,7.29 33.99,9.71 48.56,9.71 16.99,0 31.57,-2.43 48.56,-9.71 24.28,-7.29 48.56,-21.85 70.41,-33.99l38.84 -29.14zm-471.03 143.25c17,24.28 29.14,48.56 38.85,70.41 16.99,33.99 24.28,65.56 24.28,99.55 0,31.57 -7.29,63.13 -24.28,94.69 -14.58,31.57 -36.43,63.13 -65.56,97.12 -17,19.43 -36.42,41.28 -60.7,65.56 -12.15,12.14 -14.58,24.28 -14.58,38.84 0,12.14 2.43,26.71 9.71,38.85 4.86,12.14 14.57,26.7 21.85,33.99l0 2.43c2.43,2.43 4.86,2.43 4.86,4.85 9.7,7.29 21.85,14.58 33.99,21.85 14.57,4.86 26.7,9.71 41.27,9.71 14.57,0 26.71,-4.85 41.28,-16.99 26.7,-19.43 48.56,-36.42 70.41,-53.42 38.85,-29.14 72.84,-53.42 104.4,-70.41 31.57,-17 60.71,-26.71 89.84,-26.71 31.57,0 60.71,9.71 89.84,26.71 21.85,12.14 46.13,26.7 72.84,46.13l12.15 -19.43c-29.14,-21.85 -50.99,-36.42 -72.85,-48.56 -36.42,-19.43 -70.41,-26.7 -101.98,-26.7 -31.57,0 -63.12,7.28 -101.98,26.7 -33.99,19.43 -72.84,46.13 -106.83,72.84 -17,12.14 -33.99,26.71 -50.99,41.28l-19.42 14.57c-9.71,7.29 -17,9.71 -29.14,9.71 -7.29,0 -16.99,-2.43 -29.14,-7.29 -9.7,-4.85 -19.42,-12.14 -26.7,-16.99 0.02,-1.61 0.02,-2.41 0.02,-2.41 -2.43,0 -2.43,-2.44 -4.86,-4.86 -7.28,-7.28 -14.57,-16.99 -16.99,-26.7 -4.85,-9.71 -7.29,-21.85 -7.29,-29.14 0,-7.28 0,-14.57 9.71,-21.85 21.85,-24.28 41.28,-46.13 60.71,-67.98 31.56,-36.42 53.41,-70.41 67.98,-101.98 16.99,-33.99 26.7,-70.41 26.7,-104.4 0,-36.42 -9.71,-70.41 -26.7,-109.26 -9.71,-24.28 -24.29,-48.56 -41.28,-75.26l-19.42 14.55zm536.59 529.3c12.14,9.71 26.7,21.85 38.84,31.57 14.57,12.14 29.14,16.99 43.71,16.99 12.14,0 24.28,-4.85 36.42,-9.71 12.14,-4.85 24.28,-12.14 31.57,-19.42 4.85,-2.44 7.28,-7.29 12.14,-9.71 7.28,-9.71 14.57,-21.85 19.42,-33.99 7.29,-12.14 9.71,-26.71 9.71,-38.85 0,-14.57 -2.43,-26.7 -14.57,-41.27 -21.85,-24.29 -43.71,-46.13 -60.7,-65.56 -31.57,-36.42 -53.42,-65.56 -70.41,-94.7 -17,-29.13 -26.71,-58.27 -26.71,-89.83 0,-31.57 9.71,-63.13 26.71,-94.7 19.42,-33.99 43.7,-70.41 75.26,-114.11 17,-24.28 33.99,-46.13 53.42,-70.41 12.14,-17 16.99,-31.57 16.99,-46.13 0,-14.57 -4.85,-26.71 -9.7,-41.28 -7.29,-12.14 -14.58,-24.28 -21.85,-31.57l-4.86 -2.43c-7.28,-9.71 -19.43,-16.99 -31.57,-21.85 -12.14,-4.85 -26.7,-9.71 -38.84,-9.71 -14.57,0 -31.57,4.86 -46.13,14.58l-38.85 29.13 7.29 7.29 2.43 12.14 41.28 -26.7c12.14,-9.71 21.85,-12.14 33.99,-12.14 9.71,0 19.43,2.43 29.13,7.28 9.71,4.86 17,9.71 24.29,17l4.85 2.43c4.85,7.28 12.14,16.99 17,24.28 4.85,12.14 7.28,21.85 7.28,31.57 0,12.14 -2.43,19.42 -12.14,31.56 -19.43,26.71 -36.42,48.57 -50.98,70.42 -29.14,38.84 -58.28,80.12 -77.7,116.54 -21.85,38.84 -31.57,72.84 -31.57,106.83 0,33.99 9.71,65.56 29.14,101.98 16.99,26.71 38.84,53.42 75.26,97.12 14.57,19.43 33.99,41.28 58.27,67.98l2.42 -0.03c4.85,7.29 7.28,14.57 7.28,24.28 0,7.29 -2.43,19.43 -7.28,29.14 -2.43,9.71 -9.71,19.43 -17,26.7 -2.43,4.86 -4.85,7.29 -7.28,9.71 -9.71,7.29 -17,12.14 -26.71,14.57 -9.71,4.86 -19.43,7.29 -26.7,7.29 -12.14,0 -19.43,-2.43 -26.71,-9.71 -14.57,-12.14 -29.13,-24.28 -41.27,-33.99l-14.57 19.43 0 -0.01zm-456.47 -723.53l17 -17c-14.57,-9.7 -29.14,-19.42 -43.71,-31.56 -17,-9.71 -31.57,-14.58 -46.13,-14.58 -26.71,0 -53.42,12.15 -70.41,26.71 -2.43,4.85 -4.86,7.28 -9.71,12.14 -7.29,7.29 -14.57,19.43 -19.43,31.57 -4.85,12.14 -7.29,26.7 -7.29,38.84 0,14.57 2.44,26.71 14.58,41.28 12.14,14.57 24.28,29.13 36.42,43.71l19.43 -14.58c-12.14,-14.57 -24.29,-29.13 -38.85,-43.7 -7.28,-9.71 -9.71,-17 -9.71,-26.71 0,-9.71 2.43,-19.43 7.29,-29.13 4.85,-9.71 9.71,-19.43 14.57,-26.71l9.71 -7.28c12.14,-9.71 31.57,-21.85 53.42,-21.85 12.14,0 21.85,2.43 33.99,12.14 14.57,9.71 29.13,19.42 43.71,29.13l-4.88 -2.42z"/><path d="M5101.97 2084.4c7.29,16.99 19.43,38.84 31.57,63.12 17,33.99 38.84,63.13 65.56,84.98 26.7,21.85 58.27,33.99 89.84,36.42 0,0 2.43,0 2.43,0l7.28 0c1.61,0 2.42,0 2.42,0l2.43 0c2.43,0 4.85,0 4.85,0l4.86 0c31.57,-2.43 63.12,-14.57 89.84,-36.42 26.7,-21.85 48.56,-50.99 65.56,-84.98 21.85,-46.13 38.84,-77.69 53.41,-104.4 29.14,-48.56 50.99,-80.12 72.85,-101.98 19.42,-19.42 38.84,-36.42 67.98,-53.41l-12.14 -21.85c-29.14,19.42 -50.99,36.42 -72.85,58.27 -24.28,24.28 -46.13,58.27 -75.26,106.83 -17,29.14 -33.99,63.13 -55.84,104.4 -14.58,33.99 -36.43,58.28 -58.28,77.7 -24.28,19.43 -50.98,29.14 -77.69,31.57l-2.44 -0.01c-2.43,0 -4.85,0 -7.28,0l-12.14 0c-26.71,-2.43 -53.42,-12.14 -75.27,-31.57 -24.28,-19.42 -43.71,-43.71 -58.27,-77.7 -12.14,-24.28 -24.28,-46.13 -33.99,-65.55l-19.43 14.57 0 0.01zm156.1 -1051.32l83.6 0c21.74,5.79 42.75,16.31 61.4,31.57 26.71,21.85 48.56,50.98 65.55,84.97 21.85,46.13 36.42,75.27 50.99,99.55 26.71,48.56 48.56,77.7 72.84,104.4 19.43,19.43 41.28,36.43 75.27,58.28l-14.57 16.99c-31.57,-19.43 -55.85,-36.42 -77.7,-58.27 -26.71,-29.14 -51,-60.7 -77.7,-109.26 -14.57,-29.13 -31.57,-60.7 -48.56,-99.55 -17,-33.99 -36.42,-60.69 -60.71,-80.12 -24.28,-19.42 -50.99,-29.13 -77.69,-31.56l-7.29 0 -2.43 0c-2.42,0 -7.28,0 -9.71,0l-2.41 0c-26.72,2.42 -53.42,14.56 -77.7,33.99 -21.85,16.99 -41.28,43.7 -58.27,77.69 -17,38.85 -33.99,70.42 -48.57,99.55 -26.7,46.13 -48.56,77.7 -75.26,106.84 -26.71,29.13 -60.7,50.99 -104.4,77.69 -29.14,17 -63.13,33.99 -106.84,53.42 -31.57,17 -58.27,36.42 -77.7,60.7 -16.99,21.86 -29.13,51 -31.56,77.7l0 2.43c0,2.44 0,4.86 0,7.29 2.43,29.14 12.14,58.27 31.56,84.98 17,24.28 43.71,46.13 77.7,63.12 26.71,14.57 50.99,26.71 70.41,38.85l-16.99 16.99c-19.43,-9.72 -38.86,-19.42 -60.71,-31.57l-2.43 -2.43c-38.84,-19.42 -67.98,-43.71 -87.4,-72.84 -21.85,-29.14 -33.99,-63.13 -33.99,-94.69l0 -9.71c0,-1.62 0,-3.24 0,-4.86 0,-31.57 14.57,-63.13 36.42,-89.84 19.42,-26.7 48.55,-50.98 84.97,-67.98 46.13,-19.42 77.7,-38.84 104.41,-53.41 0,0 0.8,0 2.43,0.01 41.27,-24.29 72.83,-46.14 97.11,-72.85 24.28,-26.71 46.13,-55.85 70.42,-101.98 14.56,-26.7 31.55,-55.84 50.98,-97.11 17,-36.43 36.42,-65.56 63.13,-87.41 18.65,-15.26 39.67,-25.78 61.4,-31.57zm657.28 613.22l0 9.93c-0.38,33.38 -12.47,64.43 -33.98,93.1 -21.85,26.71 -50.99,50.99 -87.41,67.98 -24.28,12.14 -43.71,21.86 -60.7,31.57l-19.43 -16.99c21.85,-12.14 43.7,-21.85 67.98,-36.43 33.99,-14.57 60.7,-36.42 80.12,-60.7 19.43,-24.28 29.14,-50.98 31.57,-80.12l0 -7.29 -2.43 -2.43c0,0 2.43,0 2.43,2.43l-2.43 -4.85 0 2.43c0,-29.13 -9.71,-55.84 -29.14,-80.12 -16.99,-26.71 -43.7,-48.56 -80.12,-65.56 -24.28,-12.14 -46.13,-24.28 -65.56,-33.99l0 0.01 14.58 -19.43c19.41,9.71 38.84,21.85 63.12,33.99 36.42,17 65.56,41.28 87.41,70.42 21.85,26.7 33.99,60.69 33.99,92.26l0 0.07 0 0.08 0 0.08 0 0.07 0 0.07 0 0.09 0 0.07 0 0.07 0 0.08 0 0.08 0 0.07 0 0.08 0 0.07 0 0.08 0 0.08 0 0.07 0 0.07 0 0.09 0 0.07 0 0.07 0 0.08 0 0.08 0 0.07 0 0.08 0 0.07 0 0.08 0 0.07 0 0.08 0 0.07 0 0.08 0 0.08 0 0.07 0 0.07 0 0.09 0 0.07 0 0.07 0 0.08 0 0.08 0 0.07 0 0.08 0 0.07 0 0.08 0 0.08 0 0.07 0 0.07 0 0.09 0 0.07 0 0.07 0 0.08 0 0.08zm-971.19 246.29c29.14,16.99 48.57,33.99 65.56,50.98 19.43,19.43 36.42,41.28 55.84,75.27l19.43 -14.57c-19.43,-33.99 -38.85,-55.84 -58.27,-77.7 -19.43,-19.43 -41.28,-36.42 -70.42,-53.42l-12.14 19.43 0 0.01zm220.95 143.25c9.71,21.85 24.28,46.13 36.42,75.26 14.57,26.71 29.14,46.13 46.13,58.27 14.57,14.58 31.57,19.43 46.13,21.85l4.86 0c2.43,0 4.85,0 9.7,0 14.58,-2.43 29.14,-7.28 46.14,-21.85 14.57,-12.14 31.56,-31.56 46.13,-58.27 19.42,-41.27 38.84,-77.7 55.84,-106.83 26.7,-50.99 53.41,-89.84 82.55,-118.98 21.85,-21.85 43.71,-38.84 70.41,-55.84l-9.71 -21.85c-31.57,19.43 -55.84,38.85 -77.7,60.71 -29.13,31.57 -55.84,67.98 -87.4,123.83 -14.58,29.13 -33.99,63.12 -55.84,106.83 -12.14,24.28 -24.28,41.28 -38.85,53.42 -12.14,9.71 -21.85,14.57 -33.99,14.57 -2.43,0 -4.85,0 -7.28,0l-2.44 -0.01c-12.14,0 -21.85,-4.85 -33.99,-14.57 -14.57,-12.14 -29.13,-29.14 -38.84,-50.99 -17,-33.99 -29.14,-58.27 -38.85,-77.69l-19.42 12.14zm-172.39 -203.95c26.7,16.99 50.98,33.99 72.84,55.84 21.85,21.84 41.28,48.56 60.7,80.12l19.43 -14.58c-21.85,-33.99 -41.28,-60.7 -63.13,-82.55 -21.85,-19.43 -43.7,-38.84 -75.26,-58.27l-14.57 19.43 -0.01 0.01zm684.69 -301.07c19.43,12.14 43.71,24.28 70.41,38.84 21.85,12.15 41.28,26.71 53.42,41.28 9.71,12.14 14.57,24.28 14.57,36.42l0 4.86c-2.43,12.14 -4.85,21.85 -16.99,33.99 -9.71,14.57 -26.71,29.13 -48.57,38.84 -1.62,0 -2.43,0 -2.43,0 -31.57,17 -55.84,31.57 -80.12,41.28l9.71 21.85c24.28,-12.14 50.99,-24.28 82.55,-41.28l-2.43 2.43 2.43 -2.43c26.71,-12.14 46.13,-29.13 58.27,-46.13 14.58,-16.99 19.43,-31.57 19.43,-48.56l0 -4.86c0,-16.99 -4.85,-33.99 -16.99,-50.98 -14.58,-17 -33.99,-33.99 -63.13,-48.56 -24.28,-12.14 -48.56,-24.29 -70.41,-36.43l-9.71 19.43 -0.01 0.01zm-725.97 -38.85c-31.57,19.42 -65.56,36.42 -109.26,58.27 -26.7,12.14 -46.13,26.7 -60.7,43.71 -12.14,14.57 -17,31.56 -17,48.56 -1.61,1.61 -2.42,3.23 -2.42,4.85 2.43,17 7.29,33.99 19.43,50.99 14.57,16.99 33.99,36.42 63.13,50.98 29.13,14.58 58.27,29.14 82.55,43.71l12.14 -21.85c-24.28,-12.14 -50.99,-26.7 -82.55,-43.71l-2.44 0c-24.28,-12.14 -41.27,-26.7 -53.41,-43.7 -9.71,-12.15 -14.58,-24.29 -14.58,-36.43l0 -4.85c0,-12.14 4.86,-24.28 14.58,-33.99 12.14,-14.57 29.13,-26.7 50.98,-38.85 48.56,-21.85 82.55,-41.27 111.69,-55.84 50.99,-29.13 87.41,-58.27 118.98,-92.26 33.99,-31.56 60.7,-70.41 89.83,-123.83 14.58,-26.7 31.57,-58.27 50.99,-101.98 9.71,-21.84 24.28,-41.27 38.84,-53.41 9.71,-7.29 21.85,-12.14 31.57,-14.57l12.13 0c9.71,0 21.85,7.29 33.99,14.58 14.58,12.14 26.71,31.56 38.85,53.41 19.42,38.85 36.42,72.85 50.98,101.98 31.57,55.84 58.27,94.7 89.84,126.26 24.28,24.28 53.42,46.13 89.84,70.41l9.71 -21.85c-31.57,-19.43 -58.27,-41.28 -82.55,-63.13 -31.57,-31.57 -58.27,-70.41 -84.98,-121.4 -16.99,-31.56 -33.99,-63.12 -50.98,-101.98 -14.58,-29.13 -29.14,-48.56 -46.13,-60.7 -17,-12.14 -31.57,-19.43 -48.57,-21.85l-4.85 -0.01c-2.43,0 -4.86,0 -7.29,0 -16.99,2.43 -31.57,9.71 -46.13,21.85 -16.99,12.14 -31.57,31.57 -46.13,60.71 -16.99,38.84 -33.99,70.41 -50.98,101.98 -24.29,46.13 -53.42,84.97 -82.56,118.97 -31.56,31.57 -70.41,58.27 -116.54,84.98l0 -0.01z"/></g></g></g></g></g></svg>