<svg  id="fndm-w3rekfzeub" viewBox="0 0 562.8999633789062 93.10000610351562" xmlns="http://www.w3.org/2000/svg">
   <g xmlns="http://www.w3.org/2000/svg" fill="#35745F">
    <path d="m25.4,7l-4.9,7l-20.5,0l0,26l5.7,0l7.4,26.2l7.5,26.3l14.7,0.3l14.8,0.3l-0.3,-14.3l-0.3,-14.2l-4.6,0.2c-2.9,0.2 -4.9,-0.2 -5.6,-1c-0.5,-0.7 -2.7,-5.7 -4.8,-11l-3.8,-9.7l13.2,-20.6c7.2,-11.4 13.1,-21.1 13.1,-21.6s-6,-0.9 -13.3,-0.9l-13.4,0l-4.9,7z"/>
    <path d="m79.5,7l-4.8,7l-20.7,0l0,26l3,0c2.5,0 3.1,0.5 3.9,3.7c0.6,2.1 3.9,13.9 7.4,26.3l6.4,22.5l14.6,0.3l14.7,0.3l0,-28.1l-4.9,0c-2.7,0 -5.3,-0.6 -5.8,-1.3c-0.6,-0.6 -2.7,-5.6 -4.7,-10.9l-3.7,-9.7l12.8,-20.3c7.1,-11.2 13.3,-20.9 13.7,-21.6c0.6,-0.9 -2.3,-1.2 -13.2,-1.2l-13.9,0l-4.8,7z"/>
    <path d="m138.4,0.7c-0.5,0.5 -3,3.6 -5.3,7l-4.4,6.3l-20.7,0l0,26l2.9,0c2,0 3.1,0.6 3.5,1.7c0.3,1 2.8,9.9 5.6,19.8s6,21 7.1,24.7l2,6.8l28.9,0l0,-27.9l-5.2,-0.3l-5.3,-0.3l-4.3,-10.7l-4.3,-10.6l12.6,-19.7c6.9,-10.9 13,-20.6 13.5,-21.5c0.9,-1.7 0.1,-1.8 -12.3,-1.9c-7.2,-0.1 -13.7,0.2 -14.3,0.6zm47.9,28.1l-12.3,0.3l0,63.9l16,0l0,-21.5c0,-11.8 0.3,-21.5 0.8,-21.5c0.4,0 2.9,5.1 5.6,11.2c2.7,6.2 7.1,15.9 9.7,21.5l4.8,10.3l19.2,0l10.1,-21c5.6,-11.6 10.4,-21 10.8,-21c0.4,0 0.7,8.7 0.8,19.2c0.1,10.6 0.1,20.1 0.2,21.1c0,1.6 0.8,1.8 7.3,1.5l7.2,-0.3l0,-63.6l-12.6,-0.2l-12.7,-0.2l-9.8,19.8c-5.5,10.9 -10.2,20.1 -10.6,20.3c-0.4,0.2 -4.6,-7.1 -9.4,-16.3c-4.8,-9.3 -9.6,-18.4 -10.8,-20.3l-2.1,-3.5l-12.2,0.3zm240.1,1.1c-12.7,1 -14.4,3.5 -14.4,20.5c0,10.8 0.1,11.6 2.6,14.5c1.4,1.7 4.2,3.5 6.2,4.1c2,0.5 13,1 24.5,1l20.7,0l0,6l-18.5,0c-11.7,0 -18.5,-0.4 -18.5,-1s-3.5,-1 -8.5,-1l-8.5,0l0,6.8c0,5.5 0.4,7.2 1.9,8.6c3.2,2.9 14,3.8 38.8,3.4c29.4,-0.6 27.7,0.5 28.1,-16.7l0.4,-11.9l-3,-3.3l-3,-3.4l-23.1,-0.3l-23.1,-0.3l0,-9.9l34,0l0,2.5c0,2.5 0.1,2.5 9,2.5l9,0l0,-6c0,-7.2 -1.9,-12.2 -5.5,-14.6c-2.2,-1.4 -5.6,-1.7 -21.8,-2c-10.6,-0.1 -22.9,0.1 -27.3,0.5zm-37.4,31.6l0,31.5l16,0l0,-63l-16,0l0,31.5zm119.1,-21.3c-2.7,5.7 -9.4,19.6 -15,31c-5.5,11.4 -10.1,20.9 -10.1,21.3c0,0.3 4.4,0.5 9.9,0.5l9.8,0l9.6,-19.5c5.3,-10.7 10,-19.5 10.4,-19.5c0.6,0 7.4,11.4 9.1,15.2c0.2,0.5 -3.2,0.8 -7.5,0.8l-7.9,0l-3.1,7.5l-3.1,7.5l30.6,0l1.6,4l1.6,4l18.9,0l-8.3,-17.3c-4.5,-9.4 -11.3,-23.6 -15.1,-31.5l-6.8,-14.2l-19.7,0l-4.9,10.2zm-232.1,21.8l0,31l60,0l0,-17l-22.7,-0.2l-22.8,-0.3l0,-7l16.8,-0.3l16.7,-0.2l0,-15l-34.1,0l0.3,-2.8l0.3,-2.7l14.3,-0.3l14.2,-0.3l0,-15.9l-43,0l0,31z"/>
    <path d="m325,39l0,8l23,0l0,46l16,0l0,-44l19,0l0,-18l-58,0l0,8z"/>
   </g>
  </svg>