<svg  id="fndm-nxp8l9jgc5" viewBox="56.16999816894531 74 488.487060546875 101.39402770996094" xmlns="http://www.w3.org/2000/svg">
   <g xmlns="http://www.w3.org/2000/svg" fill="none">
    <g fill="#951914">
     <path d="m72.557,100.527c0,6.181 5.094,11.16 11.462,11.16l11.461,0l0,-11.16c0,-6.18 -5.094,-11.246 -11.462,-11.246c-6.283,0 -11.462,4.98 -11.462,11.246l0.001,0zm22.924,18.887l0,-2.575l-11.461,0c-9.255,0 -16.727,-7.383 -16.727,-16.312c0,-9.014 7.472,-16.397 16.727,-16.397c9.17,0 16.641,7.297 16.641,16.397l0,37.774c0,9.014 -7.471,16.397 -16.641,16.397c-9.255,0 -16.727,-7.297 -16.727,-16.397c0,-9.014 7.472,-16.311 16.727,-16.311l11.46,0l0,-2.576l0.001,0zm-22.924,18.887c0,6.181 5.094,11.246 11.462,11.246c6.283,0 11.462,-4.98 11.462,-11.246l0,-11.16l-11.461,0c-6.283,0 -11.462,4.979 -11.462,11.16l-0.001,0z"/>
     <path d="m72.642,119.414c-6.538,3.778 -10.953,10.817 -10.953,18.801c0,12.019 9.934,21.806 22.075,21.806c6.453,0 12.311,-2.747 16.302,-7.126c0,6.181 -6.877,11.933 -16.302,11.933c-15.283,0 -27.594,-11.503 -27.594,-26.613c0,-7.297 2.887,-13.907 7.641,-18.8c-4.754,-4.894 -7.641,-11.505 -7.641,-18.802c0,-15.023 12.31,-26.613 27.594,-26.613c9.51,0.086 16.387,5.838 16.387,12.019c-4.076,-4.378 -9.85,-7.126 -16.302,-7.126c-12.226,0 -22.075,9.787 -22.075,21.806c-0.085,7.898 4.33,14.938 10.868,18.715z"/>
    </g>
    <g fill="#951914">
     <path d="m135.528,138.3c0,-6.18 -5.094,-11.16 -11.462,-11.16l-11.462,0l0,11.161c0,6.181 5.094,11.246 11.462,11.246c6.283,0 11.462,-5.065 11.462,-11.246l0,-0.001zm-22.924,-18.886l0,2.576l11.462,0c9.255,0 16.726,7.383 16.726,16.31c0,9.015 -7.471,16.398 -16.726,16.398c-9.17,0 -16.641,-7.297 -16.641,-16.397l0,-37.774c0,-9.014 7.471,-16.397 16.641,-16.397c9.255,0 16.726,7.297 16.726,16.397c0,9.015 -7.471,16.312 -16.726,16.312l-11.462,0l0,2.575zm22.924,-18.887c0,-6.18 -5.094,-11.246 -11.462,-11.246c-6.283,0 -11.462,4.98 -11.462,11.246l0,11.16l11.462,0c6.283,0 11.462,-4.979 11.462,-11.16z"/>
     <path d="m144.274,119.414c4.754,4.894 7.641,11.504 7.641,18.801c0,15.024 -12.311,26.613 -27.594,26.613c-9.425,0 -16.302,-5.752 -16.302,-11.933c4.075,4.379 9.849,7.126 16.302,7.126c12.226,0 22.075,-9.787 22.075,-21.806c0,-7.984 -4.415,-15.023 -10.953,-18.8c6.538,-3.778 10.953,-10.818 10.953,-18.802c0,-12.019 -9.934,-21.805 -22.075,-21.805c-6.453,0 -12.312,2.747 -16.302,7.125c0,-6.181 6.877,-11.933 16.302,-11.933c15.283,0 27.594,11.504 27.594,26.613c0,7.297 -2.972,13.908 -7.641,18.801z"/>
    </g>
    <path d="m286.247,142.856c0,3.98 0.258,9.173 1.291,11.596l-5.767,3.721l-2.84,-2.336l-1.206,-0.26c-2.496,0.26 -6.37,2.942 -14.892,2.942c-7.575,0 -16.096,-5.452 -16.096,-12.634l0,-40.5l10.673,0l0,38.769c0,1.558 0.43,7.442 8.35,7.442c4.562,0 7.661,-0.346 10.157,-2.856l0,-43.355l10.416,0l0,37.47l-0.086,0l0,0.001zm14.117,-46.126c0,-2.595 -1.291,-6.663 -1.291,-6.663l11.965,-2.336l0,69.317l-10.674,0l0,-60.317l0,-0.001zm136.607,0c0,-2.595 -1.291,-6.663 -1.291,-6.663l11.965,-2.336l0,69.317l-10.675,0l0,-60.317l0.001,-0.001zm-98.905,-5.624l0,15.057l11.88,0l-0.431,6.145l-11.449,0l0,29.942c0,5.712 0.603,10.298 5.251,10.298c2.238,0 5.423,-0.779 6.714,-1.125l-0.516,4.327c-1.636,0.952 -6.714,2.942 -9.9,2.942c-9.468,0 -12.395,-7.615 -12.395,-12.98l0,-33.318l-6.972,0l0,-6.144l1.98,0c3.701,0 6.025,-1.73 10.501,-13.587c0.517,-1.384 5.337,-1.557 5.337,-1.557zm28.837,8.827c-3.788,0 -6.37,-3.03 -6.37,-6.664s2.668,-6.49 6.628,-6.49s6.456,2.942 6.456,6.49c0,3.635 -2.582,6.664 -6.628,6.664l-0.086,0zm-4.993,57.115l0,-39.288c0,-4.24 -4.218,-5.798 -4.218,-5.798l1.033,-6.49l14.375,-0.693l0,52.27l-11.19,0l0,-0.001zm36.67,-6.144c1.033,0.346 2.41,0.606 3.529,0.606c8.78,0 13.859,-8.308 13.859,-20.51c0,-10.644 -4.735,-19.73 -13.515,-19.73c-2.668,0 -5.25,0.605 -7.402,2.509l0,61.615l-10.846,0l0,-49.24c0,-3.98 0,-7.616 -0.173,-11.942c-0.086,-2.77 -0.086,-3.722 -0.946,-4.847l6.111,-3.894l3.271,2.337c3.874,-3.462 8.78,-3.548 16.097,-3.548c11.104,0 19.023,10.903 19.023,24.75c0,16.442 -10.07,28.644 -20.745,28.644c-3.185,0 -5.94,-0.606 -8.35,-1.817l0,-4.933l0.087,0zm135.316,-31.933c0,-2.336 -0.258,-8.221 -9.038,-8.221c-2.669,0 -6.8,1.644 -8.953,3.462l0,42.75l-10.845,0l0,-30.808c0,-3.98 0,-7.616 -0.172,-11.942c-0.086,-2.77 -0.086,-3.722 -0.947,-4.847l6.112,-3.894l4.132,2.77c3.013,-1.558 7.23,-4.068 12.567,-4.068c11.104,0 17.905,5.452 17.905,16.356l0,36.52l-10.76,0l0,-38.079l-0.001,0.001zm-49.926,28.991l0,-24.924c0,-4.24 0.172,-12.028 -9.813,-11.942c-4.648,0 -7.92,0.952 -11.362,3.375l-2.84,-6.317c4.045,-2.683 9.037,-4.067 15.149,-4.067c14.978,0 18.077,8.567 18.593,14.192l0,26.221c0,5.452 0.43,7.962 1.205,9.692l-5.681,3.289l-2.238,-3.03c-4.907,2.51 -7.059,3.549 -14.031,3.549c-9.813,0 -17.216,-7.356 -17.216,-14.798c0,-11.683 9.813,-16.875 24.877,-15.837l0,5.366c-6.714,0.173 -13.256,2.769 -13.256,9.865c0,6.404 4.734,7.875 7.833,7.875c4.82,0.087 6.972,-0.692 8.78,-2.51l0,0.001zm-309.195,9.086l0,-64.471l15.494,0l15.064,44.913l15.666,-44.913l14.117,0l0,64.471l-11.104,0l0,-52.096l-18.249,52.096l-7.058,0l-17.388,-52.096l0,52.096l-6.542,0z" fill="#1D1D1B"/>
   </g>
  </svg>