<svg  id="fndm-xxx8r8zem7" viewBox="118.888671875 297.68701171875 359.1583251953125 81.14749145507812" xmlns="http://www.w3.org/2000/svg">
   <path d="m445.508,314.137c1.74,-0.417 13.67,-0.024 16.309,0.053c0.423,1.946 0.097,9.474 0.097,11.992c0,11.602 0.259,24.635 -0.017,35.916l-16.398,-0.084l0.009,-47.877zm-3.989,35.211c-0.21,2.3 -2.759,5.325 -3.902,6.436c-1.674,1.628 -3.714,3.034 -6.333,4.107c-7.684,3.146 -18.097,3.255 -25.833,-0.906c-7.24,-3.893 -11.28,-12.028 -9.36,-20.917c3.7,-17.143 31.412,-18.198 41.25,-8.028c1.684,1.742 3.027,3.479 4.133,6.306c0.984,2.512 1.586,5.774 1.453,8.897l-31.013,0.056c-0.058,3.67 2.518,6.065 5.447,6.931c1.768,0.523 3.655,0.524 5.408,-0.102c2.11,-0.753 2.171,-1.566 3.397,-2.797l15.353,0.017zm-117.272,-0.01c-0.213,2.302 -2.79,5.434 -3.899,6.505c-5.817,5.618 -16.285,7.35 -24.442,5.812c-12.314,-2.323 -19.684,-11.979 -17.063,-23.68c2.378,-10.616 13.72,-15.955 26.966,-14.414c11.757,1.368 20.192,8.841 19.873,21.682l-31,0.025c-0.177,3.683 2.606,6.156 5.508,6.992c3.266,0.941 6.78,0.142 8.653,-2.93l15.404,0.008zm34.031,-25.616l36.962,0.02c0.249,1.292 0.082,4.435 0.081,5.923c-0.002,3.333 0.416,3.934 -0.793,5.025l-6.222,5.512c-1.283,1.235 -11.922,10.248 -12.393,11.104l19.714,0.096l-0.004,10.692l-39.04,-0.054c-0.142,-2.608 -0.005,-6.424 -0.029,-9.279c-0.012,-1.568 -0.207,-1.567 0.743,-2.316c2.282,-1.798 4.318,-3.872 6.597,-5.687c3.148,-2.506 8.134,-7.004 11.614,-10.015l1.438,-1.398l-18.75,0.105l0.082,-9.728zm-27.517,-9.576l15.507,-0.076l0.073,9.668l7.55,0.059l-0.024,8.403l-7.561,0.09c-0.246,4.018 -0.015,8.68 -0.032,12.775c-0.026,6.301 2.069,4.975 7.452,5.346l-0.025,11.664c-3.857,0.35 -9.095,0.374 -12.937,-0.024c-4.016,-0.416 -7.39,-1.7 -8.802,-4.54c-2.614,-5.256 -0.972,-18.455 -1.503,-25.286l-5.59,-0.092l0.06,-8.407l5.795,-0.012l0.037,-9.568zm-120.558,9.596l15.743,0.03c1.045,3.868 2.094,7.707 3.15,11.56l2.356,8.638c0.2,0.744 0.385,2.174 0.95,2.73l6.403,-22.895c1.598,-0.186 12.786,-0.24 13.706,0.067l6.266,22.809c0.95,-1.18 5.598,-21.321 6.61,-22.937l15.233,0.049l-13.027,38.3l-15.772,-0.03c-0.984,-1.558 -5.22,-19.777 -6.25,-22.293l-0.384,-0.61l-5.687,22.932l-15.879,-0.02l-13.418,-38.33zm-11.73,-18.826l0,66.731c0,0.732 0.405,1.715 0.688,2.429l0.39,0.71c2.84,3.75 4.9,3.644 9.555,3.644c87.08,-0.006 174.158,0.184 261.242,0.184c2.437,0.01 7.679,-4.163 7.693,-6.973l0.006,-65.625c0,-2.979 -1.496,-5.073 -3.18,-6.536c-2.24,-1.946 -4.37,-1.518 -6.718,-1.53c-86.138,-0.391 -172.346,0 -258.493,0c-0.733,0 -1.415,0 -2.14,-0.04l-2.084,0.032c-2.166,0.008 -4.733,1.738 -5.677,3.49c-0.172,0.317 -0.226,0.379 -0.421,0.678c-0.408,0.626 -0.861,1.961 -0.861,2.806zm-79.563,29.318c10.441,-0.01 8.345,1.189 12.385,-6.49c0.992,-1.886 5.779,-11.524 6.498,-12.382c0.93,-1.11 5.248,-1.776 6.7,0.814c1.655,2.95 4.594,9.364 6.288,12.776c0.535,1.077 1.024,2.108 1.564,3.2c1.751,3.55 2.592,2.999 4.222,-0.213l4.697,-9.61c0.83,-1.736 2.097,-4.696 3.094,-6.252c0.689,-1.077 1.31,-1.621 3.127,-1.616c2.157,0.007 2.54,-0.229 3.66,1.099c2.117,2.511 7.996,17.345 10.078,18.35c1.064,0.515 7.602,0.446 9.184,0.258l0,-27.97c0.018,-4.657 -2.282,-5.625 -2.934,-6.598c-1.839,-0.973 -2.056,-1.522 -4.791,-1.808c-2.114,-0.22 -43.512,-0.026 -46.723,-0.026c-1.101,0 -2.202,0.004 -3.303,-0.002c-1.329,-0.008 -1.832,0.196 -3.11,0.19c-3.957,-0.016 -7.192,0 -9.663,3.72c-1.22,1.837 -0.974,2.96 -0.974,5.81l0,26.75l0.001,0zm0,8.149l0,26.88c0,3.545 -0.302,4.555 2.152,7.014c0.223,0.224 0.323,0.335 0.552,0.548l0.82,0.648c1.474,0.917 3.182,1.328 5.085,1.33l45.105,-0.006c4.112,0 6.945,0.16 11.001,-0.181c0.836,-0.07 1.236,-0.295 1.858,-0.526l1.773,-0.977l0.107,-0.076l1.627,-1.673c1.35,-2.058 1.417,-3.285 1.417,-5.916l0,-27.02c-1.75,-0.146 -7.954,-0.27 -9.138,0.271c-1.205,0.551 -1.46,1.54 -2.061,2.726a994.206,994.206 0 0 1 -1.61,3.159c-1.109,2.166 -2.094,4.16 -3.195,6.336c-0.68,1.343 -2.588,5.3 -3.318,6.207c-1.06,1.316 -1.658,1.04 -3.784,1.029c-3.237,-0.017 -4.306,-4.224 -6.181,-8.14l-4.686,-9.612c-2.539,-5.168 -3.691,-0.77 -5.868,3.733c-1.032,2.136 -2.032,4.102 -3.093,6.246c-0.532,1.075 -1.013,2.089 -1.56,3.208c-1.417,2.897 -1.669,4.617 -4.82,4.539c-1.949,-0.049 -2.477,0.098 -3.469,-1.128c-0.712,-0.88 -5.433,-10.397 -6.415,-12.278c-0.653,-1.253 -2.457,-5.327 -3.481,-5.886c-1.455,-0.795 -6.708,-0.455 -8.819,-0.455l0.001,0z" fill-rule="evenodd" fill="#d30019"/>
   <path d="m118.91,334.234l0,8.149c2.11,0 7.363,-0.34 8.818,0.455c1.024,0.559 2.828,4.633 3.481,5.885c0.982,1.881 5.703,11.399 6.415,12.278c0.992,1.226 1.52,1.08 3.47,1.129c3.15,0.078 3.402,-1.642 4.82,-4.539c0.546,-1.12 1.027,-2.134 1.559,-3.208c1.06,-2.145 2.06,-4.11 3.093,-6.246c2.177,-4.504 3.33,-8.902 5.868,-3.733l4.686,9.611c1.875,3.917 2.944,8.124 6.18,8.14c2.127,0.011 2.724,0.288 3.785,-1.029c0.73,-0.906 2.638,-4.863 3.318,-6.206c1.102,-2.177 2.086,-4.17 3.194,-6.337a766.01,766.01 0 0 0 1.61,-3.158c0.602,-1.186 0.857,-2.175 2.062,-2.726c1.184,-0.541 7.389,-0.417 9.138,-0.27l0,-8.261c-1.582,0.188 -8.12,0.257 -9.184,-0.258c-2.082,-1.005 -7.961,-15.839 -10.079,-18.35c-1.119,-1.328 -1.502,-1.092 -3.659,-1.099c-1.817,-0.006 -2.438,0.538 -3.127,1.616c-0.997,1.556 -2.263,4.516 -3.094,6.253l-4.697,9.609c-1.63,3.212 -2.47,3.764 -4.222,0.213c-0.54,-1.092 -1.03,-2.123 -1.564,-3.2c-1.695,-3.412 -4.633,-9.825 -6.288,-12.776c-1.452,-2.59 -5.77,-1.925 -6.7,-0.814c-0.72,0.858 -5.506,10.496 -6.498,12.381c-4.04,7.68 -1.944,6.48 -12.386,6.491l0.001,0zm104.711,27.838l15.88,0.02l5.686,-22.932l0.383,0.61c1.031,2.517 5.267,20.736 6.251,22.294l15.772,0.03l13.027,-38.3l-15.232,-0.05c-1.013,1.616 -5.66,21.757 -6.611,22.938l-6.266,-22.81c-0.92,-0.307 -12.107,-0.252 -13.706,-0.066l-6.403,22.895c-0.565,-0.557 -0.75,-1.987 -0.95,-2.73l-2.355,-8.638a3170.848,3170.848 0 0 1 -3.151,-11.56l-15.743,-0.03l13.418,38.329zm71.007,-24.119c0.052,-4.348 3.067,-6.476 7.427,-6.483c3.887,-0.007 7.25,2.803 7.347,6.493l-14.774,-0.01zm29.619,11.385l-15.404,-0.007c-1.873,3.072 -5.387,3.871 -8.653,2.93c-2.902,-0.836 -5.685,-3.309 -5.508,-6.992l31,-0.025c0.319,-12.841 -8.116,-20.314 -19.873,-21.682c-13.246,-1.542 -24.588,3.798 -26.966,14.414c-2.62,11.7 4.749,21.357 17.063,23.68c8.157,1.539 18.625,-0.194 24.442,-5.812c1.11,-1.071 3.686,-4.203 3.899,-6.505l0,-0.001zm87.887,-11.381c0.053,-4.369 3.068,-6.47 7.433,-6.484c3.926,-0.014 7.196,2.789 7.35,6.49l-14.783,-0.006zm29.385,11.391l-15.353,-0.016c-1.226,1.23 -1.287,2.043 -3.396,2.796c-1.754,0.626 -3.641,0.625 -5.409,0.102c-2.929,-0.866 -5.505,-3.26 -5.447,-6.931l31.014,-0.056c0.132,-3.122 -0.47,-6.385 -1.453,-8.897c-1.107,-2.827 -2.45,-4.564 -4.135,-6.306c-9.837,-10.17 -37.548,-9.115 -41.25,8.028c-1.918,8.889 2.122,17.024 9.36,20.917c7.737,4.16 18.15,4.052 25.834,0.906c2.62,-1.073 4.66,-2.478 6.333,-4.107c1.143,-1.11 3.691,-4.136 3.902,-6.436z" fill-rule="evenodd" fill="#fff"/>
   <path d="m358.196,333.45l18.75,-0.105l-1.438,1.399c-3.48,3.01 -8.466,7.508 -11.613,10.014c-2.28,1.815 -4.316,3.889 -6.598,5.688c-0.95,0.748 -0.755,0.747 -0.742,2.315c0.023,2.855 -0.114,6.671 0.028,9.28l39.04,0.054l0.004,-10.692l-19.714,-0.097c0.471,-0.855 11.11,-9.869 12.393,-11.104l6.222,-5.511c1.21,-1.092 0.791,-1.692 0.793,-5.026c0,-1.488 0.168,-4.63 -0.081,-5.922l-36.962,-0.02l-0.082,9.727zm-27.472,-9.735l-5.796,0.012l-0.06,8.407l5.591,0.092c0.531,6.83 -1.11,20.03 1.503,25.286c1.412,2.84 4.786,4.123 8.802,4.54c3.842,0.398 9.08,0.374 12.937,0.023l0.025,-11.663c-5.383,-0.371 -7.478,0.955 -7.452,-5.347c0.017,-4.095 -0.214,-8.757 0.032,-12.775l7.56,-0.09l0.025,-8.403l-7.55,-0.058l-0.073,-9.668l-15.507,0.076l-0.037,9.568zm114.776,38.299l16.397,0.084c0.276,-11.281 0.017,-24.314 0.017,-35.916c0,-2.518 0.326,-10.045 -0.097,-11.992c-2.64,-0.077 -14.57,-0.47 -16.309,-0.053l-0.008,47.877z" fill-rule="evenodd" fill="#fff"/>
   <path d="m412.134,337.957l14.783,0.007c-0.154,-3.702 -3.424,-6.504 -7.35,-6.491c-4.365,0.014 -7.38,2.115 -7.433,6.484zm-117.506,-0.004l14.774,0.01c-0.096,-3.69 -3.46,-6.5 -7.347,-6.493c-4.36,0.007 -7.375,2.135 -7.427,6.483z" fill-rule="evenodd" fill="#d00219"/>
   <path d="m187.474,299.6l0.183,0l-0.153,-0.214l-0.03,0.214z" fill-rule="evenodd" fill="#af8511"/>
  </svg>