<svg  id="fndm-z5caqh9czl" viewBox="55 70 489 111" xmlns="http://www.w3.org/2000/svg">
   <g xmlns="http://www.w3.org/2000/svg" fill-rule="evenodd" fill="none">
    <path d="m55,114l489,0l0,-43.914l-489,-0.086" fill="#2584BF"/>
    <path d="m461.974,103.1c-3.558,-1.351 -6.768,-4.561 -6.768,-8.531c-0.434,-3.464 0.78,-6.59 4.252,-8.532c5.727,-4.393 24.818,8.532 24.818,8.532c-6.769,4.392 -13.104,10.474 -22.302,8.531m69.594,-16.05c-1.041,4.393 -2.777,9.546 -7.55,12.165c-9.805,6.082 -18.309,-2.704 -26.032,-7.096c0,0 14.318,-13.685 24.297,-10.982l0.52,-0.76c-10.76,-8.025 -21.26,2.703 -30.544,7.518c-9.545,-4.14 -17.268,-13.178 -29.07,-11.742c-4.512,0.253 -8.504,3.126 -11.28,6.59c-2.951,3.716 -3.732,9.545 -1.997,14.36c1.215,5.153 6.509,8.785 10.76,9.714c11.802,1.943 20.827,-5.828 29.591,-10.981c7.29,5.828 16.054,10.981 25.772,12.164c6.248,0 13.537,-3.632 16.054,-10.221c1.041,-3.464 1.562,-7.35 -0.52,-10.729" fill="#FEFEFE"/>
    <path d="m55,164l0,-44l7,0l0,44m19.792,-22.543c0,4.923 1.099,8.637 3.297,11.228c2.198,2.591 4.987,3.8 8.369,3.8c3.381,0 6.17,-1.295 8.369,-3.8c2.198,-2.505 3.297,-6.305 3.297,-11.4c0,-5.01 -1.1,-8.725 -3.213,-11.143c-2.113,-2.418 -4.987,-3.714 -8.453,-3.714c-3.55,0 -6.34,1.296 -8.538,3.714c-2.03,2.505 -3.128,6.305 -3.128,11.315m-8.792,0.259c0,-4.405 0.676,-8.12 1.944,-11.142c0.93,-2.246 2.283,-4.232 3.889,-5.96c1.69,-1.727 3.466,-3.023 5.495,-3.887c2.62,-1.122 5.664,-1.727 9.13,-1.727c6.255,0 11.243,1.987 14.963,5.96c3.72,3.973 5.579,9.5 5.579,16.583c0,6.996 -1.86,12.524 -5.58,16.497c-3.719,3.973 -8.707,5.96 -14.878,5.96c-6.255,0 -11.328,-1.987 -14.963,-5.873c-3.72,-4.06 -5.579,-9.501 -5.579,-16.411m61.287,11.947c-2.828,-2.51 -4.153,-6.317 -4.153,-11.25c0,-5.019 1.325,-8.74 4.064,-11.25c2.74,-2.51 6.362,-3.634 10.692,-4.153c3.004,-0.433 13.343,1.47 15.11,2.163l0,-5.625c-4.153,-2.336 -9.19,-3.548 -15.198,-3.548c-4.33,0 -8.13,0.606 -11.487,1.73c-2.474,0.866 -4.772,2.164 -6.893,3.895a22.394,22.394 0 0 0 -4.948,5.971c-1.59,3.029 -2.474,6.75 -2.474,11.164c0,6.923 2.297,12.375 6.98,16.355c4.684,3.981 10.957,5.885 18.822,5.885c5.92,0 10.957,-1.212 15.021,-3.462l0,-6.923c-2.562,1.904 -11.31,2.943 -15.11,2.943c-4.064,-0.087 -7.599,-1.298 -10.426,-3.895m29.713,10.337l0,-44l8.75,0l0,17.301l17.5,0l0,-17.301l8.75,0l0,44l-8.75,0l0,-19.234l-17.5,0l0,19.234m40.649,-36.462l0,12.446l4.62,0c3.275,0 5.543,-0.263 6.635,-0.701c1.091,-0.438 2.015,-1.14 2.603,-2.104c0.672,-0.964 0.924,-2.103 0.924,-3.418c0,-1.578 -0.42,-2.892 -1.344,-3.944c-0.924,-1.052 -2.015,-1.666 -3.36,-1.929c-1.007,-0.175 -3.023,-0.263 -6.047,-0.263l-4.031,-0.087zm-8.399,36.462l0,-44l13.522,0c5.124,0 8.483,0.263 9.995,0.701c2.436,0.614 4.368,2.104 6.047,4.295c1.596,2.191 2.436,5.084 2.436,8.59c0,2.717 -0.42,4.996 -1.344,6.836c-0.924,1.84 -2.1,3.243 -3.527,4.295c-1.428,1.052 -2.94,1.753 -4.368,2.104c-2.016,0.438 -4.955,0.613 -8.735,0.613l-5.543,0l0,16.566l-8.483,0zm43,0l0.084,-44l31.072,0l0,7.465l-22.628,0l0,9.749l21.023,0l0,7.465l-21.023,0l0,11.856l23.472,0l0,7.465" fill="#251F1A"/>
    <path d="m285,136l18,0l0,5l-18,0l0,-5z" fill-rule="nonzero" fill="#251F1A"/>
    <path d="m307,164l0,-44l12.903,0l7.64,29.976l7.553,-29.976l12.904,0l0,44l-7.98,0l0,-34.622l-8.402,34.622l-8.234,0l-8.404,-34.622l0,34.622m64.717,-17.442l-6.135,-16.215l-5.873,16.215l12.008,0zm16.303,17.442l-9.466,0l-3.857,-9.992l-17.617,0l-3.594,9.904l-9.466,0l16.829,-43.912l9.29,0l17.881,44zm5,0l15.208,-22.876l-13.785,-21.124l10.672,0l8.538,13.06l8.627,-13.06l10.406,0l-13.785,20.948l15.119,23.052l-10.94,0l-9.604,-14.813l-9.784,14.813m35.328,0l0,-44l7,0l0,44m15.792,-22.543c0,4.923 1.099,8.637 3.297,11.228c2.198,2.505 4.987,3.8 8.453,3.8c3.382,0 6.171,-1.295 8.37,-3.8c2.197,-2.505 3.296,-6.305 3.296,-11.4c0,-5.01 -1.099,-8.725 -3.212,-11.143c-2.114,-2.418 -4.903,-3.714 -8.454,-3.714c-3.55,0 -6.34,1.21 -8.538,3.714c-2.113,2.505 -3.212,6.305 -3.212,11.315m-8.792,0.259c0,-4.405 0.676,-8.12 1.944,-11.142c0.93,-2.246 2.283,-4.232 3.889,-5.96c1.69,-1.727 3.466,-3.023 5.495,-3.887c2.62,-1.122 5.664,-1.727 9.13,-1.727c6.255,0 11.243,1.987 14.963,5.96c3.72,3.973 5.579,9.5 5.579,16.583c0,6.996 -1.86,12.524 -5.58,16.497c-3.719,3.973 -8.707,5.96 -14.878,5.96c-6.255,0 -11.328,-1.987 -15.047,-5.873c-3.635,-4.06 -5.495,-9.501 -5.495,-16.411m48,22.284l0,-44l8.393,0l17.642,29.538l0,-29.45l7.965,-0.088l0,44l-8.65,0l-17.3,-28.749l-0.085,28.749" fill="#251F1A"/>
    <path d="m56,174l488,0l0,7l-488,0l0,-7z" fill-rule="nonzero" fill="#251F1A"/>
   </g>
  </svg>