<svg xmlns="http://www.w3.org/2000/svg" viewBox="0.3600006103515625 0.6953716278076172 609.255615234375 124.28650665283203"><g fill="none" fill-rule="evenodd"><g fill-rule="nonzero"><g><path fill="#333" d="M28.33,55.8146282 C27.24,58.8246282 27.7,62.0146282 27.69,65.1146282 C27.65,80.9646282 27.58,96.8046282 27.81,112.654628 C27.87,116.994628 26.32,118.194628 22.18,117.984628 C16.26,117.674628 10.3,117.804628 4.36,118.024628 C1.27,118.134628 0,117.274628 0,113.964628 C0.09,82.8846282 0.02,51.7946282 0.07,20.7146282 C0.08,14.5146282 4.53,8.62462822 10.44,6.48462822 C18.11,3.70462822 24.63,5.15462822 29.74,11.4246282 C40.98,25.2246282 52.01,39.1946282 63.12,53.1046282 C66.63,57.5046282 70.13,61.9146282 73.63,66.3246282 C74.36,67.2546282 74.96,68.7846282 76.31,68.3146282 C77.74,67.8146282 77.03,66.1846282 77.03,65.0746282 C77.07,47.3946282 77.18,29.7246282 76.95,12.0546282 C76.9,7.78462822 77.85,6.06462822 82.45,6.37462822 C88.52,6.78462822 94.64,6.60462822 100.73,6.41462822 C103.77,6.31462822 105.04,7.03462822 105.030059,10.4246282 C104.91,40.8946282 105,71.3746282 104.93,101.844628 C104.92,109.294628 100.35,115.694628 93.75,118.064628 C87.16,120.434628 79.49,118.414628 74.8,112.604628 C60.28,94.6146282 45.92,76.5146282 31.45,58.4746282 C30.65,57.4746282 30.31,55.8646282 28.31,55.8046282 L28.33,55.8146282 Z" transform="translate(-40.000000, -24.000000) translate(40.360000, 24.695372)"/><path fill="#333" d="M500.15,39.1846282 C504.48,59.1146282 494.45,78.6546282 475.94,86.9246282 C471.05,89.1146282 465.94,90.4546282 460.51,90.4446282 C449.84,90.4146282 439.17,90.4846282 428.5,90.5046282 C422.38,90.5146282 422.4,90.5046282 422.43,96.3946282 C422.46,102.184628 422.37,107.974628 422.48,113.764628 C422.54,116.924628 421.24,118.084628 418.09,118.004628 C412,117.834628 405.89,117.754628 399.81,118.024628 C395.87,118.194628 394.35,116.944628 394.47,112.854628 C394.73,104.324628 394.57,95.7846282 394.58,87.2546282 L394.58,62.1046282 L394.58,62.1046282 L394.6,62.1046282 C394.6,45.1846282 394.72,28.2646282 394.5,11.3546282 C394.45,7.46462822 395.66,6.37462822 399.41,6.39462822 C419.38,6.53462822 439.35,6.70462822 459.31,6.39462822 C477.76,6.11462822 495.92,19.6946282 500.15,39.1846282 Z M426.37,34.3346282 C423.43,34.2646282 422.31,35.3846282 422.38,38.3546282 C422.54,45.0446282 422.57,51.7346282 422.41,58.4246282 C422.33,61.6346282 423.53,62.6646282 426.68,62.6146282 C437.47,62.4646282 448.27,62.6446282 459.07,62.4846282 C467.07,62.3646282 473.15,55.8746282 472.97,48.0346282 C472.79,40.3746282 466.72,34.5046282 458.76,34.4046282 C453.59,34.3446282 448.42,34.3946282 443.25,34.3946282 L443.25,34.3946282 L443.25,34.3746282 L440.837172,34.3792346 C436.011633,34.3958527 431.187143,34.4460568 426.37,34.3346282 Z" transform="translate(-40.000000, -24.000000) translate(40.360000, 24.695372)"/><path fill="#333" d="M560.28,6.47462822 C573.23,6.47462822 586.19,6.56462822 599.14,6.40462822 C602.38,6.36462822 603.8,7.01462822 603.63,10.6446282 C603.33,17.0346282 603.35,23.4446282 603.63,29.8346282 C603.79,33.5846282 602.33,34.4746282 598.85,34.4446282 C582.55,34.2946282 566.24,34.4946282 549.94,34.2846282 C545.88,34.2346282 544.71,35.4846282 544.82,39.4846282 C545.08,48.9046282 544.89,48.9046282 554.31,48.9046282 C565.89,48.9046282 577.47,49.0046282 589.05,48.8346282 C592.54,48.7846282 594.04,49.7046282 593.86,53.4446282 C593.6,59.0746282 593.62,64.7246282 593.84,70.3546282 C593.97,73.7446282 592.83,74.8246282 589.4,74.7746282 C576.15,74.6046282 562.89,74.8346282 549.63,74.6346282 C545.75,74.5746282 544.55,75.8446282 544.88,79.6346282 C545.47,86.3646282 549.11,89.9146282 556.29,89.9346282 C572.29,89.9946282 588.29,90.0546282 604.29,89.8646282 C608.06,89.8246282 609.42,90.8746282 609.24,94.7246282 C608.96,100.954628 609.04,107.214628 609.2,113.464628 C609.28,116.724628 608.3,118.054628 604.79,118.025124 C588.03,117.874628 571.27,118.104628 554.51,117.914628 C533.57,117.684628 516.91,100.994628 516.76,80.0346282 C516.6,57.0346282 516.81,34.0246282 516.659768,11.0146282 C516.64,7.28462822 517.91,6.36462822 521.42,6.41462822 C534.37,6.58462822 547.32,6.48462822 560.28,6.47462822 L560.28,6.47462822 Z" transform="translate(-40.000000, -24.000000) translate(40.360000, 24.695372)"/><path fill="#333" d="M173.37,6.46462822 C186.17,6.46462822 198.97,6.54462822 211.78,6.40368294 C214.87,6.37462822 216.13,7.16462822 216.01,10.4946282 C215.77,16.8846282 215.79,23.2946282 216.01,29.6946282 C216.13,33.2046282 215.14,34.5046282 211.39,34.4546282 C195.39,34.2546282 179.39,34.4746282 163.38,34.2946282 C159.57,34.2546282 158.42,35.3846282 158.51,39.2046282 C158.78,51.1046282 157.57,48.7346282 168.2,48.8546282 C179.78,48.9846282 191.37,48.9846282 202.95,48.8046282 C206.45,48.7546282 207.93,49.7246282 207.77,53.4346282 C207.52,59.2146282 207.56,65.0146282 207.73,70.8046282 C207.82,73.8046282 206.73,74.7546282 203.76,74.7346282 C190.35,74.6146282 176.94,74.6846282 163.53,74.6946282 C158.7,74.6946282 158.19,75.3546282 159.25,80.0146282 C160.58,85.8646282 166.28,89.9146282 173.44,89.9346282 C188.07,89.9746282 202.7,90.0846282 217.33,89.8446282 C221.74,89.7746282 223.69,90.7246282 223.32,95.6046282 C222.87,101.514628 223.11,107.484628 223.25,113.424628 C223.33,116.694628 222.24,118.044628 218.76,118.015117 C203.37,117.874628 187.98,117.994628 172.58,117.944628 C149.58,117.874628 131.06,100.124628 130.7,77.1746282 C130.35,54.9346282 130.71,32.6746282 130.6,10.4346282 C130.58,7.04462822 131.98,6.37462822 134.97,6.40368294 C147.77,6.51462822 160.57,6.45462822 173.38,6.45462822 L173.38,6.45462822 L173.37,6.46462822 Z" transform="translate(-40.000000, -24.000000) translate(40.360000, 24.695372)"/><g><path fill="#BBB6AB" d="M37.6135021,106.674628 C32.4735021,112.084628 27.0135021,117.204628 21.8335021,122.584628 C19.9935021,124.494628 18.8035021,124.694628 16.5835021,122.884628 C11.1335021,118.424628 6.56350209,113.104628 1.46350209,108.304628 C-1.26649791,105.744628 0.293502087,103.824628 2.32350209,101.804628 C12.7035021,91.4946282 23.0335021,81.1346282 33.3735021,70.7746282 C39.0535021,65.0846282 39.0335021,59.0446282 33.3035021,53.3046282 C23.0735021,43.0546282 12.9135021,32.7446282 2.54350209,22.6346282 C-0.416497913,19.7446282 -0.676497913,17.6246282 2.45350209,14.7646282 C6.72350209,10.8646282 10.7635021,6.69462822 14.7735021,2.51462822 C17.4035021,-0.215371781 19.7735021,-0.525371781 22.5135021,2.34462822 C33.7835021,14.1046282 46.0335021,24.9246282 56.6635021,37.3146282 C60.2210126,41.4665814 65.8087137,69.3335714 65.0635021,69.8046282 C64.9938537,69.8486538 48.0935021,95.6546282 37.6135021,106.674628 Z" transform="translate(-40.000000, -24.000000) translate(40.360000, 24.695372) translate(249.326498, 0.000000)"/><path fill="#333" d="M60.3135021,84.4446282 C58.5335021,80.1346282 56.3635021,75.9346282 55.0535021,71.4846282 C52.9235021,64.1946282 53.1835021,56.8446282 56.0235021,49.6746282 C56.4535021,48.5846282 56.4635021,47.3246282 56.6635021,46.1446282 C59.1935021,41.0446282 62.6135021,36.6346282 66.6435021,32.6346282 C76.8935021,22.4346282 87.1535021,12.2546282 97.2835021,1.94462822 C99.5335021,-0.345371781 101.003502,-0.885371781 103.443502,1.81462822 C107.833502,6.65462822 112.483502,11.2946282 117.313502,15.6946282 C119.993502,18.1346282 119.503502,19.6446282 117.203502,21.9146282 C106.903502,32.0346282 96.7535021,42.3046282 86.5335021,52.5046282 C79.6535021,59.3746282 79.6235021,64.7046282 86.4935021,71.6146282 C96.6935021,81.8646282 106.863502,92.1346282 117.183502,102.254628 C119.543502,104.564628 119.893502,106.024628 117.283502,108.444628 C112.253502,113.084628 107.493502,118.014628 102.753502,122.964628 C101.103502,124.694628 99.8435021,124.714628 98.2135021,123.094628 C95.9635021,120.864628 93.5935021,118.744628 91.2735021,116.574628 C85.5235021,111.374628 80.0635021,105.894628 74.8435021,100.154628 C74.2235021,99.5246282 73.6035021,98.9046282 72.9735021,98.2746282 C68.1435021,94.2246282 63.8835021,89.6546282 60.3035021,84.4646282 L60.3035021,84.4646282 L60.3135021,84.4446282 Z" transform="translate(-40.000000, -24.000000) translate(40.360000, 24.695372) translate(249.326498, 0.000000)"/></g><path fill="#333" d="M330.18,100.134628 C336.41,104.854628 341.85,110.354628 346.61,116.554628 C340.22,111.994628 334.77,106.494628 330.18,100.134628 Z" transform="translate(-40.000000, -24.000000) translate(40.360000, 24.695372)"/><path fill="#333" d="M315.64,84.4446282 C319.87,89.0446282 324.74,93.0546282 328.31,98.2546282 C322.92,94.7246282 318.4,90.3846282 315.64,84.4446282 Z" transform="translate(-40.000000, -24.000000) translate(40.360000, 24.695372)"/></g></g></g></svg>