<svg xmlns="http://www.w3.org/2000/svg" data-name="Camada 1" viewBox="0 -0.004459242802113295 2452.830078125 637.7764282226562"><g xmlns="http://www.w3.org/2000/svg"><g clip-path="url(#clip-path)"><g clip-path="url(#clip-path)"><g clip-path="url(#clip-path-3)"><path fill="#00263c" d="m1209.66,481.9q-29,0 -52.42,-9.88a118.22,118.22 0 0 1 -65.52,-66.45a126.8,126.8 0 0 1 -9,-47.36a134,134 0 0 1 8.74,-48.5a118.42,118.42 0 0 1 25.29,-40a120.91,120.91 0 0 1 40.25,-27.37q23.67,-10.09 53.11,-10.11t52.65,10.11a121.37,121.37 0 0 1 39.54,27.13a115.57,115.57 0 0 1 24.84,39.53a131.69,131.69 0 0 1 8.5,46.9q0,6 -0.23,11.49a46.83,46.83 0 0 1 -1.14,9.2l-186.22,0a71.18,71.18 0 0 0 6.89,25.28a61.84,61.84 0 0 0 34,30.81a64.85,64.85 0 0 0 23,4.14a71,71 0 0 0 34.71,-9q16.32,-9 22.3,-23.68l52.88,14.72q-13.33,27.58 -42.53,45.29t-69.66,17.7m62.53,-145.3q-2.3,-27.12 -20,-43.45t-43,-16.32a61.38,61.38 0 0 0 -23.17,4.42a60.39,60.39 0 0 0 -19.08,12.18a63,63 0 0 0 -13.56,18.85a66.36,66.36 0 0 0 -6.22,24.37l125.03,-0.05z" transform="translate(0 0)"/><path fill="#00263c" d="m1484.48,481.9q-29.45,0 -52.88,-10.12a118.56,118.56 0 0 1 -39.78,-27.35a120.71,120.71 0 0 1 -25.06,-39.78a134,134 0 0 1 0,-95.17a120.81,120.81 0 0 1 25.06,-39.78a118.87,118.87 0 0 1 39.78,-27.36q23.45,-10.09 52.88,-10.11t52.64,10.11a119.47,119.47 0 0 1 39.54,27.36a120.81,120.81 0 0 1 25.06,39.78a133.91,133.91 0 0 1 0,95.17a122.6,122.6 0 0 1 -24.83,39.78a116.17,116.17 0 0 1 -39.54,27.35q-23.44,10.11 -52.87,10.12m-63,-124.61a83.86,83.86 0 0 0 4.83,29.2a71.36,71.36 0 0 0 13.33,22.76a59.53,59.53 0 0 0 20,14.95a61,61 0 0 0 49.66,0a59.53,59.53 0 0 0 20,-14.95a70.8,70.8 0 0 0 13.34,-23a86.07,86.07 0 0 0 4.82,-29.43a84.7,84.7 0 0 0 -4.82,-29a70.8,70.8 0 0 0 -13.34,-23a59.67,59.67 0 0 0 -20,-14.95a58.74,58.74 0 0 0 -24.82,-5.28a56.74,56.74 0 0 0 -24.84,5.51a62.42,62.42 0 0 0 -20,15.18a70.78,70.78 0 0 0 -13.33,23a84.46,84.46 0 0 0 -4.83,29" transform="translate(0 0)"/><path fill="#00263c" d="m1741.35,478.68q-24.37,0 -44.14,-9.65a106.57,106.57 0 0 1 -34.21,-26.44a120.19,120.19 0 0 1 -22.31,-38.86a146.14,146.14 0 0 1 0.47,-95.63a126.6,126.6 0 0 1 23,-39.55a105.15,105.15 0 0 1 35.41,-26.67q20.68,-9.65 45.52,-9.65q28,0 49.2,12.64a106.81,106.81 0 0 1 35,33.8l0,-42.3l53.71,0l0,229.44q0,26.65 -10.11,47.82a105.09,105.09 0 0 1 -27.89,35.86q-17.68,14.71 -42.3,22.53a176,176 0 0 1 -53.56,7.82q-39.56,0 -66.44,-13.11a134.67,134.67 0 0 1 -46.21,-37l33.56,-32.65a95.5,95.5 0 0 0 34.72,26.67a104.54,104.54 0 0 0 44.37,9.66a95.45,95.45 0 0 0 27.36,-3.91a66.12,66.12 0 0 0 23.22,-12.19a56.62,56.62 0 0 0 15.86,-21.15q5.75,-12.87 5.74,-30.34l0,-30.36a81.27,81.27 0 0 1 -33.56,32a99,99 0 0 1 -46.44,11.26m20.69,-49.2a57.93,57.93 0 0 0 19.31,-3.22a68.72,68.72 0 0 0 30.81,-21.61a58,58 0 0 0 9.19,-15.63l0,-57.52a74.86,74.86 0 0 0 -26,-34q-17.72,-12.87 -37,-12.87a53.23,53.23 0 0 0 -25.75,6.2a64,64 0 0 0 -19.77,16.56a74.64,74.64 0 0 0 -12.65,23.68a87.84,87.84 0 0 0 -4.37,27.58a74.56,74.56 0 0 0 5.06,27.59a70.82,70.82 0 0 0 14,22.53a65.9,65.9 0 0 0 20.99,15.19a61.77,61.77 0 0 0 26.21,5.52" transform="translate(0 0)"/><path fill="#00263c" d="m2066.47,289.7q-28,0.46 -50.12,10.81t-31.73,31l0,145.79l-61.62,0l0,-240.93l56.56,0l0,51.49a110,110 0 0 1 15.17,-22.3a117.27,117.27 0 0 1 18.85,-17.24a87.4,87.4 0 0 1 20.46,-11.26a56.41,56.41 0 0 1 20,-3.91l7.59,0a25.21,25.21 0 0 1 4.83,0.46l0.01,56.09z" transform="translate(0 0)"/><path fill="#00263c" d="m2096.6,236.37l61.62,0l0,240.93l-61.62,0l0,-240.93zm66.22,-53.63a35.41,35.41 0 1 1 -35.41,-35.4a35.41,35.41 0 0 1 35.41,35.4" transform="translate(0 0)"/><path fill="#00263c" d="m2302.46,481.9a109.36,109.36 0 0 1 -46,-9.66a108.26,108.26 0 0 1 -36.32,-26.66a124.3,124.3 0 0 1 -23.68,-39.78a138.51,138.51 0 0 1 -8.51,-49a144,144 0 0 1 8,-48.73a128,128 0 0 1 22.31,-39.55a102.84,102.84 0 0 1 34,-26.67a97.25,97.25 0 0 1 43.22,-9.65q26.67,0 48.05,12.87a93.32,93.32 0 0 1 33.47,33.6l0,-126.74l61.61,0l0,254.56q0,9.66 3.22,13.8t11,4.59l0,52.42q-16.09,3.21 -26.2,3.22q-16.56,0 -27.13,-8.28a30.34,30.34 0 0 1 -12,-21.61l-1.38,-15.17a87.34,87.34 0 0 1 -36.09,34.71a102.55,102.55 0 0 1 -47.59,11.73m16.09,-52.42a57.63,57.63 0 0 0 17.93,-3a63.24,63.24 0 0 0 17,-8.5a74.75,74.75 0 0 0 14,-12.88a53.42,53.42 0 0 0 9.54,-16.1l0,-57.46a67.93,67.93 0 0 0 -10.35,-18.62a76.78,76.78 0 0 0 -15.17,-14.71a79.7,79.7 0 0 0 -17.93,-9.89a51.27,51.27 0 0 0 -18.63,-3.67a55.42,55.42 0 0 0 -25.51,6a60.51,60.51 0 0 0 -20,16.33a78.28,78.28 0 0 0 -12.88,23.68a83.93,83.93 0 0 0 -4.6,27.58a75.86,75.86 0 0 0 5.06,28.05a73,73 0 0 0 13.79,22.53a62.57,62.57 0 0 0 20.88,15.18a64.38,64.38 0 0 0 26.89,5.52" transform="translate(0 0)"/><polygon fill="#00263c" points="990.03 159.44 990.03 369.98 822 159.44 768.88 159.44 768.88 478.32 835.74 478.32 835.74 272.97 997.59 478.32 1051.75 478.32 1051.75 159.44 990.03 159.44"/><path fill="#f0000a" d="m509.93,92.41l-24.57,-14.18a903,903 0 0 1 -152.48,240.65a902.87,902.87 0 0 1 152.48,240.65l24.57,-14.18a183.05,183.05 0 0 0 91.53,-158.53l0,-135.88a183.05,183.05 0 0 0 -91.53,-158.53" transform="translate(0 0)"/><g opacity=".6"><g clip-path="url(#clip-path-4)"><path fill="#f0000a" d="m209.69,434.71a733.18,733.18 0 0 1 124,200.06a182.74,182.74 0 0 0 58.61,-21.48l93.1,-53.76a903,903 0 0 0 -152.52,-240.65a907.51,907.51 0 0 1 -123.19,115.83" transform="translate(0 0)"/></g></g><g opacity=".4"><g clip-path="url(#clip-path-5)"><path fill="#f0000a" d="m65,526.62a183.1,183.1 0 0 0 26.52,18.73l117.68,67.94a183,183 0 0 0 124.45,21.48a733.18,733.18 0 0 0 -124,-200.06a903,903 0 0 1 -144.65,91.91" transform="translate(0 0)"/></g></g><g opacity=".6"><g clip-path="url(#clip-path-6)"><path fill="#f0000a" d="m332.88,318.88a903,903 0 0 0 152.48,-240.65l-93.1,-53.76a183,183 0 0 0 -58.61,-21.47a733.18,733.18 0 0 1 -124,200.06a908.13,908.13 0 0 1 123.23,115.82" transform="translate(0 0)"/></g></g><g opacity=".4"><g clip-path="url(#clip-path-7)"><path fill="#f0000a" d="m333.65,3a183,183 0 0 0 -124.45,21.47l-117.67,67.94a183.1,183.1 0 0 0 -26.53,18.73a903,903 0 0 1 144.68,91.91a733.18,733.18 0 0 0 123.97,-200.05" transform="translate(0 0)"/></g></g><g opacity=".4"><g clip-path="url(#clip-path-8)"><path fill="#f0000a" d="m209.69,203.05a737.18,737.18 0 0 1 -127.34,115.83a737.59,737.59 0 0 1 127.34,115.83a907.51,907.51 0 0 0 123.19,-115.83a908.13,908.13 0 0 0 -123.19,-115.83" transform="translate(0 0)"/></g></g><g opacity=".2"><g clip-path="url(#clip-path-9)"><path fill="#f0000a" d="m82.35,318.88a733.7,733.7 0 0 1 -82.35,51.06l0,16.88a183,183 0 0 0 65,139.8a903,903 0 0 0 144.68,-91.91a737.59,737.59 0 0 0 -127.33,-115.83" transform="translate(0 0)"/></g></g><g opacity=".2"><g clip-path="url(#clip-path-10)"><path fill="#f0000a" d="m209.69,203.05a903,903 0 0 0 -144.69,-91.91a183,183 0 0 0 -65,139.8l0,16.88a733.7,733.7 0 0 1 82.35,51.06a737.18,737.18 0 0 0 127.34,-115.83" transform="translate(0 0)"/></g></g></g></g></g></g></svg>