<svg xmlns="http://www.w3.org/2000/svg" fill-rule="evenodd" clip-rule="evenodd" image-rendering="optimizeQuality" shape-rendering="geometricPrecision" text-rendering="geometricPrecision" viewBox="-2 1 6599.990234375 3300"><g><rect width="6599.99" height="3300" x="-2" y="1" fill="none"/><path fill-rule="nonzero" d="M1270.89 1525.29c20.36,0 36.89,16.51 36.89,36.75l0 346.17 -3.85 2.84c-22.79,16.6 -46.89,31.11 -71.59,43.12 -24.73,11.98 -51.41,22 -79.29,29.67 -27.81,7.71 -57.85,13.45 -89.33,17.1 -31.38,3.61 -65.48,5.43 -101.34,5.43 -65.16,0 -126.33,-11.63 -181.84,-34.58 -55.48,-22.94 -104.21,-55.1 -144.84,-95.56 -40.64,-40.46 -72.93,-89.08 -95.97,-144.54 -23.04,-55.41 -34.74,-116.44 -34.74,-181.35 0,-66.03 11.17,-127.61 33.18,-183 22.05,-55.52 54.07,-104.1 95.2,-144.42 41.06,-40.29 91.37,-72.06 149.5,-94.41 58.06,-22.28 123.71,-33.6 195.16,-33.6 36.89,0 72.12,3.09 104.7,9.15 32.54,6.09 63.01,14.54 90.46,25.04 27.52,10.58 53.15,23.37 76.08,38.05 5.72,3.64 11.59,7.63 17.49,11.73 29.54,20.91 36.96,61.13 16.89,91.54l-30.39 45.95c-6.4,9.57 -14.17,17.17 -23.11,22.67 -21.2,12.96 -47.1,11.24 -72.93,-4.87 -15.58,-9.28 -30.6,-17.52 -44.63,-24.38 -13.74,-6.76 -27.95,-12.3 -42.16,-16.5 -14.27,-4.24 -29.54,-7.36 -45.4,-9.28 -16.05,-1.93 -34.28,-2.95 -54.24,-2.95 -36.61,0 -69.93,6.52 -99.08,19.31 -29.08,12.75 -54.21,31 -74.67,54.22 -20.53,23.33 -36.61,51.78 -47.77,84.6 -11.27,33.04 -17,70.41 -17,111.15 0,45.05 6.33,85.55 18.73,120.29 12.37,34.65 29.65,64.22 51.34,87.93 21.66,23.65 47.67,41.9 77.32,54.3 29.79,12.43 62.9,18.74 98.37,18.74 27.28,0 51.7,-2.35 72.62,-6.97 18.87,-4.17 36.99,-9.67 53.92,-16.33l0 -116.61 -77.18 0c-15.3,0 -27.63,-4.31 -36.6,-12.79 -9.19,-8.58 -13.82,-19.58 -13.82,-32.64l0 -74.94c0,-25.39 20.74,-46.03 46.22,-46.03l247.7 0 0 0zm646.47 -100.93c25.51,25.18 45.69,56.43 59.93,92.89 14.2,36.26 21.41,77.84 21.41,123.63 0,14.39 -0.63,26.34 -1.87,35.45 -1.42,10.23 -4,18.29 -7.95,24.66 -4.35,7.01 -10.32,11.95 -17.74,14.68 -6.5,2.41 -14.38,3.61 -24.06,3.61l-349.16 0c6.57,43.96 21.06,76.43 43.11,96.51 23.79,21.64 55.06,32.61 92.94,32.61 20.56,0 38.37,-2.49 53,-7.32 15.05,-4.98 28.62,-10.65 40.39,-16.78 12.29,-6.42 23.57,-12.23 33.81,-17.45 11.59,-5.85 23.89,-8.83 36.54,-8.83 18.06,0 32.02,6.8 41.49,20.22l37.17 45.61c12.82,15.76 11.55,38.95 -2.86,52.79 -14.28,13.69 -29.47,25.53 -45.2,35.27 -22.83,14.12 -46.61,25.33 -70.64,33.31 -23.92,7.92 -48.2,13.53 -72.22,16.61 -23.78,3.01 -46.75,4.55 -68.34,4.55 -44.66,0 -87.21,-7.35 -126.4,-21.89 -39.43,-14.57 -74.38,-36.54 -103.88,-65.33 -29.51,-28.76 -53.15,-64.95 -70.22,-107.54 -17.03,-42.5 -25.65,-92.45 -25.65,-148.57 0,-42.56 7.42,-83.44 21.98,-121.48 14.63,-38.15 35.94,-72.06 63.39,-100.85 27.46,-28.76 61.13,-51.88 100.04,-68.7 38.94,-16.81 83.5,-25.36 132.3,-25.36 42.29,0 81.59,6.66 116.81,19.79 35.45,13.21 66.36,32.69 91.88,57.91l0 0zm543.67 425.38l42.86 66.76c4.38,6.8 6.86,14.82 6.05,22.85 -1.06,10.85 -6.97,20.14 -16.04,25.6 -19.23,11.6 -40.36,20.84 -62.83,27.54 -30.82,9.21 -63.11,13.9 -96.01,13.9 -30.74,0 -58.27,-4.55 -81.94,-13.52 -23.89,-9.04 -44.31,-22.11 -60.64,-38.78 -16.36,-16.71 -28.91,-37.13 -37.35,-60.67 -8.38,-23.26 -12.58,-49.57 -12.58,-78.12l0 -311.84 -43.5 0c-12.01,0 -22.47,-3.96 -31.1,-11.77 -8.83,-7.99 -13.28,-19.55 -13.28,-34.26l0 -45.4c0,-20.28 14.42,-37.73 34.45,-41.58l66.54 -12.85 35.3 -145.73c4.13,-16.46 16.15,-36.01 50.18,-36.01l64.69 0c23.4,0 42.34,18.85 42.34,42.11l0 139.49 119.93 0c17.52,0 31.76,14.18 31.76,31.63l0 71.25c0,23.82 -19.4,43.12 -43.32,43.12l-108.37 0 0 299.27c0,12.22 2.9,22.31 8.62,29.98 5.19,6.9 12.65,10.3 22.79,10.3 5.87,0 10.71,-0.56 14.39,-1.72 4.02,-1.19 7.48,-2.56 10.38,-4.1 3.54,-1.89 6.89,-3.5 10.04,-5 4.31,-2 9.19,-2.98 14.56,-2.98 7.73,0 14.24,1.96 19.33,5.81 4.38,3.36 8.55,8.16 12.75,14.72l0 0zm943.51 -745.23c14.98,0 27.17,12.15 27.17,27.07l0 829.52c0,19.69 -16.08,35.7 -35.83,35.7l-79.65 0c-16.89,0 -31.55,-2.7 -43.57,-7.99 -12.26,-5.46 -24.03,-15.28 -34.95,-29.21l-369.78 -494.56c0.24,4.2 0.49,8.4 0.71,12.54 0.84,14.68 1.27,28.65 1.27,41.58l0 439.87c0,20.81 -17.03,37.77 -37.92,37.77l-127.81 0c-18.05,0 -32.68,-14.61 -32.68,-32.58l0 -822.55c0,-20.49 16.74,-37.16 37.35,-37.16l79.29 0c9.19,0 17.1,0.42 23.53,1.29 6.93,0.91 13.29,2.67 18.94,5.26 5.66,2.59 11.17,6.27 16.29,10.89 4.77,4.31 10.14,10.09 16.01,17.17l372.54 498.41c-0.35,-5.5 -0.67,-10.93 -0.95,-16.26 -0.78,-15.9 -1.2,-31.07 -1.2,-45.15l0 -443.55c0,-15.49 12.65,-28.06 28.2,-28.06l143.04 0 0 0zm349.8 251.74c14.74,0 26.75,11.95 26.75,26.62l0 587.29c0,14.67 -12.02,26.65 -26.75,26.65l-152.12 0c-14.77,0 -26.75,-11.98 -26.75,-26.65l0 -587.29c0,-14.67 11.98,-26.62 26.75,-26.62l152.12 0zm689.69 60.55c18.79,21.86 33.18,48.17 42.79,78.22 9.47,29.78 14.27,62.5 14.27,97.28l0 360.57c0,24.24 -19.78,43.93 -44.1,43.93l-125.72 0c-19.75,0 -35.8,-15.98 -35.8,-35.63l0 -368.87c0,-27.95 -6.36,-49.85 -18.9,-65.01 -12.26,-14.82 -30.14,-22.04 -54.66,-22.04 -18.91,0 -36.97,4.14 -53.65,12.26 -15.97,7.78 -31.62,18.25 -46.43,31.11l0 406.91c0,22.73 -18.58,41.27 -41.41,41.27l-128.83 0c-19.51,0 -35.37,-15.81 -35.37,-35.25l0 -570.29c0,-19.3 15.76,-34.99 35.16,-34.99l89.92 0c13.47,0 25.06,3.15 34.46,9.39 9.64,6.37 16.5,15.97 20.38,28.44l6.51 21.68c8.83,-7.67 17.84,-14.95 26.89,-21.64 13.28,-9.99 27.77,-18.5 42.97,-25.36 15.19,-6.8 31.8,-12.27 49.4,-16.19 17.7,-3.92 37.13,-5.92 57.77,-5.92 35.3,0 67.1,6.24 94.52,18.5 27.46,12.33 50.96,29.7 69.83,51.63l0 0zm369.33 -60.55c13.82,0 25.06,11.21 25.06,24.98l0 643.92c0,29.92 -3.87,58.54 -11.49,85.02 -7.82,27.05 -20.86,51.04 -38.75,71.39 -17.97,20.39 -41.84,36.68 -71.02,48.38 -28.93,11.59 -65.03,17.45 -107.36,17.45 -15.61,0 -30.32,-0.92 -43.77,-2.77 -9.37,-1.3 -19.11,-3.05 -28.86,-5.26 -11.65,-2.56 -19.89,-13.59 -19.15,-25.61l5.23 -84.87c1.06,-11.18 5.06,-19.66 11.84,-25.3 6.72,-5.57 17.82,-8.16 34.98,-8.16 13.57,0 24.65,-1.12 33.08,-3.33 7.46,-1.92 13.12,-5.11 17.36,-9.73 4.24,-4.73 7.34,-11.46 9.17,-19.93 2.04,-9.57 3.1,-22.11 3.1,-37.28l0 -642.73c0,-14.43 11.81,-26.17 26.28,-26.17l154.3 0 0 0zm621.63 60.14c21.88,22.63 38.87,49.85 50.56,80.89 11.57,30.9 17.44,65.09 17.44,101.62l0 366.35c0,17.41 -14.22,31.56 -31.62,31.56l-63.36 0c-19.43,0 -33.98,-2.73 -44.53,-8.34 -11.17,-5.92 -20.01,-17.3 -26.94,-34.85l-8.51 -21.93c-12.19,9.91 -24.17,18.92 -35.61,26.83 -14.8,10.27 -30.4,19.13 -46.33,26.35 -16.02,7.25 -33.33,12.71 -51.47,16.25 -18.05,3.47 -38.22,5.25 -59.93,5.25 -29.34,0 -56.44,-3.88 -80.52,-11.56 -24.45,-7.81 -45.55,-19.47 -62.75,-34.74 -17.27,-15.31 -30.76,-34.58 -40.09,-57.28 -9.25,-22.49 -13.98,-48.69 -13.98,-77.87 0,-23.36 6.03,-47.61 17.81,-72.06 11.94,-24.62 32.64,-47.22 61.56,-67.12 28.45,-19.54 67.07,-36.08 114.87,-49.18 45.47,-12.4 102.84,-18.95 170.6,-19.51l0 -17.2c0,-34.08 -6.76,-58.71 -20.08,-73.14 -13.29,-14.44 -31.99,-21.44 -57.09,-21.44 -20.94,0 -38.14,2.24 -51.1,6.65 -13.48,4.63 -25.63,9.85 -36.18,15.56 -11.2,6.13 -22.25,11.66 -32.76,16.46 -11.69,5.36 -25.55,8.06 -41.28,8.06 -14.79,0 -27.62,-3.68 -38.26,-10.93 -10.18,-7.01 -18.37,-15.84 -24.24,-26.24l-24.61 -42.46c-7.58,-13.1 -4.56,-29.98 7.05,-39.34 34.76,-27.91 73.26,-49.42 114.46,-63.96 46.81,-16.43 97.58,-24.8 151,-24.8 38.71,0 74.28,6.37 105.57,18.99 31.42,12.64 58.48,30.51 80.32,53.14l0 -0.01zm642.85 300.27c8.76,19.17 13.16,42.29 13.16,68.66 0,31.92 -5.91,61.83 -17.64,88.88 -11.78,27.21 -29.54,50.96 -52.85,70.61 -23.1,19.48 -51.95,34.82 -85.69,45.54 -33.53,10.65 -72.53,16.05 -115.8,16.05 -21.72,0 -43.76,-2.11 -65.56,-6.17 -21.68,-4.06 -42.91,-9.63 -63.03,-16.53 -20.3,-6.94 -39.37,-15.35 -56.64,-24.98 -10.47,-5.82 -20.13,-12.01 -28.85,-18.39 -13,-9.53 -16.3,-27.68 -7.66,-41.34l33.13 -52.19c5.95,-9.18 13.24,-16.5 21.59,-21.79 8.76,-5.57 20.01,-8.37 33.37,-8.37 12.43,0 23.84,2.8 33.86,8.37l28 15.59c9.49,5.29 20.86,10.33 33.78,14.92 12.34,4.41 28.36,6.66 47.67,6.66 13.44,0 24.85,-1.4 34.02,-4.1 8.68,-2.63 15.57,-6.1 20.58,-10.37 4.85,-4.24 8.51,-8.97 10.71,-14.05 2.29,-5.18 3.43,-10.54 3.43,-15.97 0,-9.77 -3.18,-17.52 -9.7,-23.72 -7.58,-7.18 -17.72,-13.52 -30.23,-18.84 -13.33,-5.61 -28.69,-10.93 -45.6,-15.77 -17.52,-5.04 -35.65,-10.82 -53.82,-17.26 -18.3,-6.49 -36.64,-14.4 -54.44,-23.58 -18.3,-9.43 -34.84,-21.51 -49.1,-35.94 -14.43,-14.61 -26.24,-32.65 -35.08,-53.63 -8.89,-21.02 -13.41,-46.67 -13.41,-76.2 0,-27.53 5.46,-54.12 16.14,-78.99 10.75,-24.94 27.09,-47.15 48.48,-65.96 21.31,-18.74 48.33,-33.77 80.27,-44.74 31.79,-10.89 69.27,-16.39 111.45,-16.39 22.89,0 45.47,2.07 67.1,6.17 21.56,4.06 42.09,9.88 60.96,17.27 18.99,7.39 36.55,16.25 52.28,26.3 9,5.78 17.52,11.98 25.34,18.4 13.08,10.75 15.93,29.7 6.64,44.1l-30.92 47.99c-5.63,8.83 -11.86,15.31 -18.54,19.23 -13.86,8.2 -36.31,8.06 -55.86,-0.35l-28.61 -12.3c-9.82,-4.2 -21.06,-8.23 -33.53,-11.91 -11.94,-3.5 -25.79,-5.32 -41.24,-5.32 -21.55,0 -38.05,3.96 -48.97,11.74 -10.11,7.18 -15,16.91 -15,29.77 0,8.9 3.06,16.08 9.33,21.82 7.38,6.84 17.48,13 30.07,18.33 13.29,5.64 28.57,11.06 45.35,16.11 17.4,5.25 35.37,11.14 53.46,17.55 18.34,6.48 36.47,14.22 54.03,22.91 18.01,8.97 34.31,20.18 48.53,33.31 14.51,13.35 26.28,29.81 35.04,48.87l0 0zm-2398.55 -464.97c-103.25,0 -103.25,0 -103.25,-94.27 0,-56.78 46.21,-102.81 103.25,-102.81 57.03,0 103.28,46.03 103.28,102.81 0,94.27 0,94.27 -103.28,94.27zm1058.49 0c-103.29,0 -103.29,0 -103.29,-94.27 0,-56.78 46.24,-102.81 103.29,-102.81 57.04,0 103.25,46.03 103.25,102.81 0,94.27 0,94.27 -103.25,94.27zm-3119.13 341.03l211.82 0c-0.68,-10.62 -2.38,-21.14 -5.13,-31.23 -3.47,-12.69 -9.19,-24.18 -17.01,-34.14 -7.67,-9.78 -18.03,-17.87 -30.68,-24.01 -12.66,-6.13 -28.5,-9.22 -47.03,-9.22 -32.95,0 -58.83,9.26 -76.96,27.48 -16.58,16.65 -28.39,40.59 -35.01,71.12l0 0zm3568.27 177.02c-12.38,6.41 -20.9,13.53 -25.34,21.17 -4.64,7.88 -6.89,16.19 -6.89,25.48 0,18.12 4.61,30.73 13.65,37.46 9.91,7.4 25.23,11.15 45.52,11.15 22.57,0 42.5,-3.96 59.2,-11.71 16.1,-7.46 32.68,-19.62 49.35,-36.09l0 -71.75c-32.27,0.38 -59.45,2.73 -80.76,7.01 -23.11,4.66 -41.52,10.48 -54.72,17.28l-0.01 0z"/></g></svg>