<svg xmlns="http://www.w3.org/2000/svg" fill-rule="evenodd" clip-rule="evenodd" image-rendering="optimizeQuality" shape-rendering="geometricPrecision" text-rendering="geometricPrecision" viewBox="-2 1 6600 3300"><g><rect width="6600" height="3300" x="-2" y="1" fill="#373435"/><g fill="#fefefe" fill-rule="nonzero"><path d="M819.51 2019.74l-280.7 -317.57 0 342.91 -180.7 0 0 -576.45c0,-19.17 5.21,-33.93 15.6,-44.29 10.33,-10.37 25.09,-15.53 44.26,-15.53l34.51 0c15.35,0 28.99,2.51 40.86,7.47 11.9,5 22.84,12.86 32.77,23.62l279.59 316.37 0 -341.71 181.78 0 0 576.41c0,19.18 -5.14,33.96 -15.54,44.29 -10.31,10.35 -25.11,15.54 -44.3,15.54l-34.49 0c-15.33,0 -28.97,-2.51 -40.83,-7.46 -11.91,-5 -22.85,-12.86 -32.81,-23.6z"/><path d="M1377.5 2063.46c-42.98,0 -82.85,-8.62 -119.65,-25.91 -36.81,-17.22 -68.46,-40.63 -94.9,-70.16 -26.5,-29.52 -47.2,-64.6 -62.15,-105.27 -14.97,-40.69 -22.44,-84.37 -22.44,-131.16 0,-45.99 7.66,-89.56 22.97,-130.58 15.4,-41.01 36.28,-76.52 62.74,-106.41 26.45,-29.93 58.26,-53.7 95.5,-71.36 37.16,-17.62 77.26,-26.44 120.22,-26.44 37.59,0 72.5,7.29 104.72,21.86 32.2,14.58 60.17,36.04 83.96,64.4l0 -67.87 173.75 0 0 630.48 -164.53 0 0 -77.08c-23.78,31.47 -52.94,55.23 -87.46,71.34 -34.49,16.11 -72.1,24.16 -112.73,24.16zm40.28 -159.91c47.54,0 86.66,-16.89 117.32,-50.64 30.65,-33.73 46.04,-75.16 46.04,-124.28 0,-46.02 -15.39,-86.06 -46.04,-120.18 -30.66,-34.14 -69.78,-51.21 -117.32,-51.21 -46.04,0 -83.79,17.07 -113.35,51.21 -29.53,34.12 -44.31,74.95 -44.31,122.51 0,48.32 14.78,89.16 44.31,122.52 29.56,33.38 67.31,50.07 113.35,50.07z"/><path d="M2094.28 2045.08c-73.65,0 -131.37,-19.93 -173.18,-59.84 -41.82,-39.88 -62.72,-94.72 -62.72,-164.53l0 -582.17 186.37 0 0 176.06 164.56 0 0 157.61 -164.56 0 0 235.86c0,24.56 7.31,43.92 21.9,58.07 14.56,14.21 35.65,21.3 63.28,21.3l79.38 0 0 157.64 -115.03 0z"/><path d="M2617.75 2063.46c-98.21,0 -174.31,-27.2 -228.39,-81.7 -54.07,-54.45 -81.1,-127.69 -81.1,-219.77l0 -347.43 191 0 0 357.84c0,39.1 9.56,71.14 28.73,96.03 19.17,24.95 49.11,37.38 89.76,37.38 41.44,0 71.52,-12.43 90.32,-37.38 18.77,-24.89 28.18,-56.93 28.18,-96.03l0 -357.84 190.99 0 0 347.43c0,92.84 -27.04,166.28 -81.12,220.33 -54.09,54.08 -130.21,81.14 -228.37,81.14z"/><path d="M3271.25 1414.56l115.02 0 0 157.65 -79.37 0c-27.64,0 -48.73,7.08 -63.29,21.25 -14.58,14.21 -21.87,33.57 -21.87,58.13l0 393.45 -186.39 0 0 -406.11c0,-69.8 20.89,-124.65 62.72,-164.54 41.76,-39.86 99.52,-59.83 173.18,-59.83z"/><path d="M3724.52 2063.46c-42.96,0 -82.87,-8.62 -119.68,-25.91 -36.8,-17.22 -68.44,-40.63 -94.89,-70.16 -26.48,-29.52 -47.2,-64.6 -62.13,-105.27 -15,-40.69 -22.45,-84.37 -22.45,-131.16 0,-45.99 7.65,-89.56 23.01,-130.58 15.35,-41.01 36.24,-76.52 62.7,-106.41 26.46,-29.93 58.27,-53.7 95.49,-71.36 37.2,-17.62 77.28,-26.44 120.26,-26.44 37.53,0 72.48,7.29 104.68,21.86 32.22,14.58 60.19,36.04 83.96,64.4l0 -67.87 173.75 0 0 630.48 -164.52 0 0 -77.08c-23.81,31.47 -52.92,55.23 -87.45,71.34 -34.49,16.11 -72.1,24.16 -112.73,24.16zm40.25 -159.91c47.59,0 86.67,-16.89 117.34,-50.64 30.7,-33.73 46.06,-75.16 46.06,-124.28 0,-46.02 -15.36,-86.06 -46.06,-120.18 -30.67,-34.14 -69.75,-51.21 -117.34,-51.21 -46,0 -83.78,17.07 -113.3,51.21 -29.57,34.12 -44.33,74.95 -44.33,122.51 0,48.32 14.76,89.16 44.33,122.52 29.52,33.38 67.3,50.07 113.3,50.07z"/><path d="M4524.89 2058.84c-36.03,0 -67.9,-4.78 -95.51,-14.37 -27.58,-9.58 -50.61,-22.22 -69.03,-37.96 -18.38,-15.72 -32.2,-33.93 -41.41,-54.66 -9.19,-20.7 -13.8,-42.18 -13.8,-64.45 0,-29.88 8.08,-59.01 24.15,-87.41 16.13,-28.38 46.41,-54.44 90.92,-78.26l31.06 -17.26c-23.77,-26.07 -40.69,-51.75 -50.62,-77.09 -9.98,-25.28 -14.96,-49.07 -14.96,-71.32 0,-49.07 19.58,-90.45 58.66,-124.24 39.1,-33.73 86.67,-50.62 142.69,-50.62 30.65,0 57.91,4.78 81.66,14.36 23.78,9.63 43.73,22.47 59.84,38.56 16.09,16.09 28.38,34.14 36.81,54.09 8.45,19.93 12.64,40.28 12.64,60.95 0,36.07 -10.33,69.05 -31.05,98.94 -20.69,29.93 -49.44,56.37 -86.31,79.42l74.81 81.68c9.98,-12.25 19.58,-25.32 28.77,-39.14 9.17,-13.79 16.48,-27.96 21.85,-42.54l154.17 0c-14.6,35.25 -31.44,68.26 -50.6,98.95 -19.17,30.67 -39.89,58.29 -62.13,82.81l125.37 135.76 -173.7 0 -49.47 -51.74c-33.01,21.44 -66.72,37.79 -101.23,48.88 -34.56,11.09 -69.07,16.66 -103.58,16.66zm-59.82 -184.08c0,12.29 5.74,23.97 17.29,35.11 11.46,11.13 27.94,16.69 49.44,16.69 16.86,0 34.15,-2.7 51.79,-8.05 17.6,-5.41 34.88,-13.05 51.76,-23.01l-96.67 -100.11 -26.44 13.81c-17.65,9.98 -29.88,20.31 -36.84,31.07 -6.88,10.74 -10.33,22.22 -10.33,34.49zm101.25 -249.65l9.21 10.35c16.86,-9.96 30.28,-21.09 40.28,-33.36 9.95,-12.25 14.95,-25.71 14.95,-40.26 0,-10.76 -3.88,-20.91 -11.52,-30.49 -7.69,-9.59 -18.84,-14.37 -33.36,-14.37 -13.05,0 -24.36,4.59 -33.95,13.8 -9.6,9.19 -14.4,20.72 -14.4,34.51 0,9.19 2.09,18.62 6.35,28.17 4.23,9.62 11.7,20.13 22.44,31.65z"/><path d="M5347.38 2063.46c-53.68,0 -102.77,-8.62 -147.24,-25.91 -44.49,-17.24 -82.28,-40.82 -113.35,-70.73 -31.06,-29.91 -55.23,-65.4 -72.45,-106.42 -17.25,-41.06 -25.89,-84.95 -25.89,-131.73 0,-46.06 8.64,-89.37 25.89,-130.02 17.22,-40.65 41.39,-75.73 72.45,-105.29 31.07,-29.51 68.86,-53.09 113.35,-70.73 44.47,-17.66 93.95,-26.46 148.4,-26.46 25.3,0 50.64,2.67 75.95,8.04 25.3,5.39 46.37,11.89 63.26,19.54l0 164.53c-11.5,-5.35 -27.61,-10.93 -48.33,-16.66 -20.7,-5.76 -45.23,-8.64 -73.59,-8.64 -59.86,0 -106.64,16.11 -140.39,48.33 -33.77,32.22 -50.63,71.3 -50.63,117.36 0,48.31 16.86,88.55 50.63,120.77 33.75,32.22 80.53,48.35 140.39,48.35 28.36,0 52.89,-3.07 73.59,-9.23 20.72,-6.13 36.83,-11.9 48.33,-17.23l0 164.5c-16.09,7.68 -37.02,14.21 -62.68,19.58 -25.71,5.35 -51.6,8.05 -77.69,8.05z"/><path d="M5895.02 2063.46c-49.09,0 -94.52,-8.62 -136.33,-25.91 -41.82,-17.22 -77.87,-40.82 -108.19,-70.73 -30.26,-29.91 -54.05,-65.19 -71.32,-105.83 -17.22,-40.67 -25.87,-84.75 -25.87,-132.36 0,-46.02 8.65,-89.33 25.87,-129.98 17.27,-40.63 41.06,-75.95 71.32,-105.85 30.32,-29.89 66.37,-53.49 108.19,-70.76 41.81,-17.22 87.24,-25.87 136.33,-25.87 49.08,0 94.73,8.65 136.88,25.87 42.22,17.27 78.46,40.87 108.76,70.76 30.28,29.9 54.05,65.22 71.34,105.85 17.25,40.65 25.89,83.96 25.89,129.98 0,47.61 -8.64,91.69 -25.89,132.36 -17.29,40.64 -41.06,75.92 -71.34,105.83 -30.3,29.91 -66.54,53.51 -108.76,70.73 -42.15,17.29 -87.8,25.91 -136.88,25.91zm0 -159.91c47.53,0 86.26,-16.69 116.17,-50.07 29.94,-33.36 44.88,-74.99 44.88,-124.85 0,-47.53 -14.94,-87.98 -44.88,-121.36 -29.91,-33.35 -68.64,-50.03 -116.17,-50.03 -46.02,0 -84.18,16.68 -114.5,50.03 -30.26,33.38 -45.45,73.83 -45.45,121.36 0,49.86 15.19,91.49 45.45,124.85 30.32,33.38 68.48,50.07 114.5,50.07z"/></g></g></svg>