<svg xmlns="http://www.w3.org/2000/svg" fill-rule="evenodd" clip-rule="evenodd" image-rendering="optimizeQuality" shape-rendering="geometricPrecision" text-rendering="geometricPrecision" viewBox="-1.9900000095367432 1 6599.990234375 3300"><g><rect width="6599.99" height="3300" x="-1.99" y="1" fill="#820ad1"/><g fill="#fefefe"><g fill-rule="nonzero"><path d="M955.96 945.5c99.88,-104.94 232,-166.26 388.15,-166.26 303.44,0 504.47,221.26 543.03,553.15 12.64,108.1 12.64,259.82 12.01,435.56l0 714.35 -417.23 0 0 -487.4c0,0 -0.63,-417.23 -3.16,-495.62 -11.38,-339.48 -212.41,-553.15 -522.8,-553.78 -94.2,99.88 -144.14,220.63 -151.72,405.85 -1.27,25.92 -0.64,117.58 -0.64,237.7 0,62.58 0.64,132.75 0.64,206.08l0 687.8 -417.23 0 0 -750.38c0,-25.92 -0.64,-51.84 -0.64,-77.76 -0.63,-52.47 -1.89,-104.94 0.64,-157.41 4.42,-87.24 19.59,-173.21 60.68,-252.87 92.93,-182.06 283.85,-299.64 486.77,-299.64 6.96,0 13.91,0.63 21.5,0.63z"/><path d="M3544.05 1805.25c2.53,-52.47 1.9,-104.94 0.64,-157.41 -0.64,-25.92 -0.64,-51.84 -0.64,-77.76l0 -750.38 -417.23 0 0 687.8c0,73.33 0,143.5 0.63,206.08 0.64,120.75 0.64,212.41 -0.63,237.7 -7.58,185.22 -57.52,305.97 -151.09,405.22 -310.39,0 -512.05,-213.67 -522.8,-553.15 -2.53,-77.75 -3.79,-271.83 -3.79,-495.62l0 -488.66 -417.23 0.63 0 714.35c0,175.74 0,328.09 12.01,435.56 38.56,331.89 239.59,553.15 543.03,553.15 155.51,0 288.27,-61.32 388.15,-166.26 6.96,0 13.91,0.63 21.5,0.63 203.55,0 393.84,-117.58 486.77,-299.65 41.09,-79.65 56.26,-164.99 60.68,-252.23z"/></g><path d="M3838.38 1877.53c20.56,-12.45 58.44,-22.8 86.82,-25.8 256.56,-27.08 244.05,391.84 162,517.85 -27.06,41.57 -73.7,76.3 -147.25,77.29 -25.04,0.34 -78.17,-5.85 -96.69,-16.49 -7.02,-4.03 -4.91,-13.19 -4.89,-22.36l0.01 -530.49zm0.43 -66.42c-1.94,-18.89 -0.34,-262.62 -0.34,-303.89 0,-11.45 4.93,-42.07 -7.23,-44.25l-99.63 0.26c-10.7,2.8 -6.25,32.13 -6.25,43.99 0,123.28 -1.46,952.77 0.61,960.13 5.96,21.04 214.33,99.66 364.48,16.89 42.54,-23.45 77.73,-58.48 102.72,-100.07 43.42,-72.25 58.67,-154.82 59.84,-242.37 0.83,-62.14 -7.94,-122.27 -27.13,-176.04 -15.14,-42.41 -46.94,-97.42 -79.42,-123.33 -19.08,-15.22 -34.55,-28.12 -61.78,-40.43 -80.84,-36.54 -170.89,-25.48 -245.87,9.11zm2371.7 695.47l0 -4.29 -37.75 -45.69c-62.13,-73.6 -126.63,-157.94 -188.93,-232.05 -2.81,-3.34 -72.53,-87.26 -75.03,-93.59 29.93,-39.53 73.11,-87.21 103.91,-126.6 11.61,-14.84 22.94,-27.9 34.98,-42.4 23.47,-28.27 45.37,-55.86 69.25,-83.97l52.38 -63.7c2.86,-3.54 4.96,-6.29 8.36,-10.23 4.76,-5.53 5.3,-4.62 5.8,-7.9 1.13,-7.34 0.36,-2.16 -0.96,-4.22 -3.49,-3.26 -91.95,-1.72 -109.86,-1.45 -10.67,0.17 -10.95,1.09 -15.72,7.36l-98.37 127.6c-26.7,33.71 -51.4,67.71 -78.11,101.44 -6.9,8.71 -72.77,97.63 -79.99,100.67 -2.17,-24.38 -0.36,-298.36 -0.36,-330.91 0,-31.13 1.65,-325.17 -1.03,-329.68 -4.04,-6.78 -41.42,-4.13 -54.45,-4.13 -12.08,0 -47.36,-3.55 -54.87,3.52 -3.76,5.53 -1.43,813.14 -1.43,909.15 0,143.06 -9.49,133.03 26.9,133 18.03,-0.01 71.62,1.25 82.47,-1.25 5.3,-11.32 2.41,-229.12 2.41,-272.6 0,-26.18 -2.49,-68.17 0.48,-92.45 5.84,1.87 36.07,45.31 42.07,53.25l209.44 278.08c32.16,42.59 16.98,34.77 62.45,34.77 16.89,0 86.54,2.12 95.96,-1.73zm-1086.05 -0.39c3.66,-14.14 1.36,-372.63 1.36,-396.9 0,-66.03 0,-132.07 0,-198.11 0,-27.6 -3.75,-34.23 9.73,-39.52 12.3,-4.82 24.38,-8.88 37.67,-11.84 77.6,-17.29 184.48,-15.49 218.68,65.12 20.28,47.79 14.58,127.81 14.58,184.35l0 297.17c0,116.33 -8.05,101.85 33.24,101.85l68.22 0.1c15.52,-0.12 12.94,-7.85 12.85,-21.46l-0.01 -413.25c0,-99.59 1.88,-159.98 -52.87,-223.2 -40.3,-46.53 -116.94,-70.95 -203.08,-73.09 -84.71,-2.09 -162.59,13.33 -233.22,41.41 -8.6,3.42 -18.12,5.55 -19.85,14.01 -1.65,8.06 -0.14,601.31 -0.39,654.13 -0.12,25.2 -3.91,21.25 46.06,21.25 16,0 55.93,2.13 67.03,-2.02zm-386.9 -402.54c0,52.96 0.03,105.92 0.05,158.87 0.02,51.8 1.78,106.59 0.15,158 -0.43,13.76 -10.11,14.49 -22.23,18.62 -32.03,10.93 -69.6,15.56 -103.86,14.42 -47.42,-1.59 -92.77,-15.82 -116.7,-41.83 -14.76,-16.05 -22.24,-23.26 -30.87,-48.09 -21.75,-62.62 -8.56,-135.66 37.47,-178.73 55.02,-51.48 157.65,-74.32 235.99,-81.26zm-325.94 -204.59c6.71,-0.13 38.42,-15.85 49.06,-19.69 17.57,-6.34 35.18,-11.25 54.14,-15.4 38.46,-8.44 86.7,-11.91 125.3,-2.97 39.74,9.2 65.77,28.68 81.21,58.1 15.95,30.37 19.3,84.92 15.81,123.39 -176.14,15.97 -409.39,69.12 -391.03,286.29 20.58,243.48 359.91,212.15 483.99,149.12 15.85,-8.05 14.06,-7.63 13.98,-28.1l-0.01 -424.08c0.02,-56.33 -4.48,-97.95 -27.73,-142.74 -68.89,-132.73 -277.31,-122.96 -406.63,-65.4 -9.51,4.23 -24.82,6.79 -21.44,19.69 2.74,10.42 18.42,46.13 23.35,61.79z"/></g></g></svg>