<svg  id="fndm-4qzanqje53" viewBox="0.7394247055053711 0.5747880935668945 953.9801635742188 279.655517578125" xmlns="http://www.w3.org/2000/svg">
   <g xmlns="http://www.w3.org/2000/svg" fill="none">
    <path d="m123.75,42.5c19.15,55.1 45.17,104.52 87.87,144.35c-62.97,-18.7 -124.12,-12.76 -185.7,11.01c35.19,-50.9 78.93,-94.76 97.83,-155.36z" fill="#A5CD39"/>
    <path d="m207.26,206.95c-29.62,3.21 -55.89,15.64 -81.56,29.62c-19.71,10.73 -38.02,23.67 -56.71,36.02c-4.23,2.8 -8.32,6.09 -13.85,5.93c-4.53,-0.49 -9.05,0.18 -13.58,0.18c-15.27,-2.76 -21.61,-13.94 -24.59,-27.32c-2.29,-10.27 -2.83,-20.92 -4.55,-31.34c-0.92,-5.54 0.93,-7.83 6.35,-9.45c23.51,-7.05 47.66,-10.3 71.96,-12.39c39.41,-3.4 78.84,-3.66 118.17,1.37c3.49,0.45 6.93,1.26 10.39,1.9c1,2.35 -0.4,3.56 -2.18,4.6c-3.25,0.69 -6.66,-0.42 -9.85,0.88zm-97.18,-185.26c-23.55,60.21 -62.01,110.38 -101.76,160.22c-2.45,-24.75 -11.99,-48.73 -5.16,-73.73c5.81,-21.26 17.68,-38.2 37.54,-48.93c23.14,-12.49 46.25,-25.04 69.38,-37.56zm95.39,136.51c-32.66,-43.72 -58.15,-90.46 -73.78,-142.17c-0.75,-2.47 -1.93,-4.76 1.08,-6.74c24.86,-16.36 50.82,-9.12 55.55,16.96c7.6,41.89 12.55,84.23 17.12,126.58c0.19,1.77 0.03,3.58 0.03,5.37z" fill="#117831"/>
    <path d="m877.42,143.69c-16,4.32 -19.86,2.86 -27.65,-10.74c-8.51,-14.86 -16.95,-29.76 -26.77,-47.01c0,18.35 0.11,33.84 -0.09,49.32c-0.04,3.22 2.07,8.14 -2.23,9.32c-4.45,1.22 -9.58,0.7 -14.28,0.03c-2.68,-0.38 -1.91,-3.65 -1.91,-5.8c-0.03,-23.06 0.08,-46.13 -0.1,-69.19c-0.04,-4.81 1.28,-6.39 6.42,-6.89c11.38,-1.11 18.86,1.73 24.04,13.16c6.53,14.41 15.42,27.76 23.58,42.08l0,-52.94c5.35,-5.64 12.12,-3.97 17.61,-1.68c5.61,2.33 4.08,8.42 3.49,13.62c-2.12,18.46 -0.38,37.02 -1.01,55.52c-0.12,3.73 1.19,7.66 -1.1,11.2zm-594.04,-68.88c6.62,14.31 15.39,27.63 24.65,43.85l0,-2.912c-0.007,-14.884 -0.055,-27.33 0.02,-39.768c0.09,-15.52 -1.36,-12.74 12.44,-13.03c1.6,-0.03 3.21,0.03 4.82,0.05c2.75,2.74 2.81,6.27 2.85,9.79c0.27,23.49 0.18,46.97 -1.81,70.4c-0.13,1.19 -0.99,1.52 -1.59,2.19c-15.24,3.22 -23,-4.53 -29.05,-17.6c-6.43,-13.88 -14.97,-26.79 -23.71,-42.09c0,17.36 -0.57,32.7 0.22,47.96c0.47,9.04 -1.64,12.79 -11.37,11.78c-5.27,-0.55 -7.18,-1.64 -7.11,-7.17c0.28,-22.73 0.34,-45.47 -0.03,-68.2c-0.1,-6.34 2.54,-6.89 7.91,-7.33c10.34,-0.86 16.99,1.76 21.76,12.08z" fill="#127931"/>
    <path d="m547.33,95.6c-0.25,5.66 -3.28,10.14 -8.04,12.17c-6.89,2.94 -5.16,6.15 -2.15,10.75c4.37,6.7 8.13,13.78 12.35,20.59c2.43,3.92 3.06,5.85 -3,6.23c-9.08,0.58 -16.04,-0.83 -19.63,-10.6c-2.18,-5.93 -6.22,-11.16 -9.12,-16.87c-1.79,-3.52 -4.07,-4.99 -8.21,-5.13c-14.16,-0.49 -14.15,-0.68 -14.15,13.37l0,8.64c-0.02,10.2 -3.88,12.87 -14.17,10.45c-3.6,-0.85 -3.52,-3.08 -3.52,-5.66c-0.01,-23.69 0.05,-47.38 -0.06,-71.07c-0.02,-4.08 1.38,-5.68 5.58,-5.62c14.76,0.2 29.55,-0.3 44.29,0.34c11.57,0.5 17.22,5.98 19.93,17.02c-0.7,5.15 -0.51,10.27 -0.1,15.39z" fill="#117831"/>
    <path d="m653.26,97.37c-4.56,14.64 -15.71,19.11 -29.73,19.27c-8.01,0.09 -17.91,-2.48 -23.5,1.27c-5.65,3.8 -1.66,14.28 -1.85,21.8c-0.2,7.95 -5.74,5.13 -9.57,5.37c-3.89,0.25 -8.51,1.52 -8.43,-5.51c0.25,-23.69 0.16,-47.38 0.04,-71.08c-0.02,-4.08 1.32,-5.69 5.55,-5.63c14.12,0.22 28.26,-0.1 42.38,0.28c10.75,0.29 19.07,5.04 23.73,15.15c2.18,6.25 7.81,12.23 1.38,19.08zm61.1,48.74c11.91,-28.2 22.82,-53.73 33.45,-79.39c2.36,-5.71 6.9,-3.64 10.63,-3.64c4.09,0.01 9.06,-2.13 11.57,3.86c10.72,25.59 21.64,51.1 32.53,76.75c-17.19,3.82 -18.17,3.51 -24.21,-11.89c-1.93,-4.91 -4.3,-7.43 -9.79,-6.65c-2.83,0.4 -5.81,0.39 -8.65,0.02c-12.63,-1.66 -21.61,0.53 -25.09,15.45c-2.24,9.64 -12.13,2.39 -20.44,5.49z" fill="#117931"/>
    <path d="m399.13,122.98c-0.05,9.88 -5.4,16.22 -14.22,19.43c-13.7,4.98 -27.6,4.54 -41.36,-0.15c-7.67,-2.61 -11.05,-9.17 -14.35,-15.76c-2.26,-2.75 -1.78,-6.05 -1.79,-9.22c-0.05,-15.06 -0.06,-30.12 0,-45.18c0.01,-3.15 -0.5,-6.5 2.22,-9.01c17.08,-0.43 17.08,-0.43 17.08,16.83c0,11.54 -0.16,23.08 0.05,34.61c0.21,11.92 4.94,17 15.76,17.55c13.18,0.68 18.68,-2.98 19.49,-15.4c1,-15.32 1.04,-30.74 0.56,-46.09c-0.24,-7.89 3.74,-7.79 9.41,-7.78c5.48,0 9.18,0.26 8.68,7.51c-1.2,17.51 1.48,35.16 -1.54,52.64c-2.93,-17.73 -0.31,-35.59 -1.31,-52.02c0,13.39 -0.08,28.12 0.07,42.85c0.03,3.06 -1.19,6.41 1.25,9.19z" fill="#117831"/>
    <path d="m438.63,62.93c9.62,0 19.26,0.33 28.86,-0.12c6.03,-0.28 6.7,2.56 6.72,7.48c0.01,4.97 -0.82,7.69 -6.76,7.53c-6.32,-0.17 -14.7,-2.95 -18.53,1.21c-4.48,4.86 -1.38,13.42 -1.53,20.35c-0.27,12.79 -0.5,25.61 0.09,38.37c0.33,7.14 -3.07,7.8 -8.64,7.5c-5.06,-0.27 -10.12,1.19 -9.83,-7.28c0.59,-17.25 -0.11,-34.55 0.32,-51.81c0.17,-6.67 -1.8,-9.41 -8.59,-8.56c-3.16,0.4 -6.43,-0.17 -9.61,0.12c-5.84,0.54 -8.64,-0.89 -8.53,-7.75c0.1,-6.44 2.75,-7.33 8.12,-7.14c9.3,0.33 18.61,0.1 27.91,0.1zm445.141,0.423c21.48,-0.07 42.97,0.07 64.44,-0.35c6.26,-0.12 6.38,2.95 6.5,7.63c0.12,5.08 -0.97,7.27 -6.79,7.42c-20.08,0.52 -20.07,0.77 -20.07,20.56c0,11.83 -0.66,23.71 0.21,35.48c0.68,9.24 -2.05,13.14 -11.43,11.31c-2.03,-0.4 -4.55,1.17 -6.01,-1.49c0.78,-21.76 2.23,-43.54 -0.73,-65.26c-8.06,-1.37 -16.15,-0.79 -24.23,-0.4c-5.65,-4.35 -3.48,-9.66 -1.89,-14.9zm-225.931,-0.123c15.75,-0.76 15.68,-0.76 15.77,15.19c0.07,12.8 -0.38,25.61 0.86,38.41c0.9,9.31 5.63,13.89 14.91,13.96c5.79,0.05 11.6,0.43 17.35,-0.01c6.37,-0.49 6.31,3.17 6.45,7.76c0.15,4.9 -1.3,7.05 -6.51,6.71c-8.64,-0.56 -17.35,-0.28 -25.96,-1.08c-13.47,-1.25 -20.2,-7.68 -23.48,-21.38c-0.8,-1.6 -0.66,-3.22 -0.11,-4.86c0.81,-17.19 -0.36,-34.39 0.25,-51.58c-0.39,-1.12 -0.23,-2.16 0.47,-3.12z" fill="#127932"/>
    <path d="m555.22,103.98c0,-11.52 0.41,-23.07 -0.14,-34.57c-0.39,-8.27 5.05,-6.55 9.52,-6.41c4.23,0.14 9.94,-2.41 9.82,6.08c-0.35,23.36 -0.28,46.74 -0.05,70.11c0.09,9.43 -6.72,5.26 -10.89,5.91c-4.76,0.75 -8.72,0.47 -8.4,-6.55c0.52,-11.5 0.14,-23.04 0.14,-34.57z" fill="#137A33"/>
    <path d="m329.64,63.09c-0.14,21.14 -0.29,42.27 -0.43,63.41c-2.77,3.32 -0.99,7.28 -1.57,10.9c-0.45,2.82 1.53,6.57 -2.88,7.97c2.56,-12.36 0.87,-24.86 1.04,-37.28c0.21,-15.03 -0.31,-30.07 -0.51,-45.1c1.45,0.04 2.9,0.07 4.35,0.1z" fill="#FFF"/>
    <path d="m41.56,278.69c4.48,-3.33 9.01,-3.13 13.58,-0.18c-4.5,2.17 -9.03,2.35 -13.58,0.18z" fill="#0A742A"/>
    <path d="m547.33,95.6c-2.72,-5.14 -2.84,-10.25 0.09,-15.36c1.63,5.13 1.62,10.25 -0.09,15.36z" fill="#097329"/>
    <path d="m510.16,97.69l-3.86,0c-9.71,-0.01 -15.04,-8.67 -10.77,-17.41c0.63,-1.3 1.53,-2.03 2.87,-2.02c8.66,0.07 17.38,-0.98 25.97,0.71c5,0.99 6.3,4.77 6.34,9.41c0.04,4.99 -2.33,8.06 -7.09,8.74c-4.43,0.64 -8.96,0.54 -13.45,0.77c-0.01,-0.07 -0.01,-0.13 -0.01,-0.2z" fill="#F7FAF8"/>
    <path d="m521.74,76.1l-23.83,0l-0.03,-0.96l24.23,0c-0.12,0.33 -0.24,0.65 -0.37,0.96z" fill="#0D772E"/>
    <path d="m612.5,78c3.84,0.17 7.71,0.08 11.5,0.58c5.68,0.75 9.6,3.78 9.9,9.87c0.3,6.09 -2.22,10.64 -8.54,12.1c-7.9,1.82 -15.96,0.6 -23.94,0.8c-2.37,0.06 -3.36,-1.45 -3.37,-3.69c-0.01,-1.6 -0.01,-3.19 -0.03,-4.79c-0.17,-14.73 -0.17,-14.73 14.48,-14.87z" fill="#F8FAF9"/>
    <path d="m622.43,75.92l-22.66,0c0,-0.32 -0.01,-0.63 -0.01,-0.95l22.46,0c0.07,0.32 0.14,0.64 0.21,0.95z" fill="#0B762C"/>
    <path d="m748.7,110.79c-0.98,-10.64 6.46,-18.47 9.06,-28.18c5,9.04 9.04,18.02 11.57,27.63c-6.8,3.07 -13.7,2.15 -20.63,0.55z" fill="#F2F7F3"/>
    <path d="m748.7,110.79c6.88,-0.18 13.75,-0.37 20.63,-0.55c-6.49,5.51 -13.92,1.91 -20.95,2.11c-0.05,0 -0.22,-0.53 -0.16,-0.77c0.06,-0.28 0.31,-0.53 0.48,-0.79z" fill="#09742A"/>
    <path d="m399.13,122.98c-2.4,-1.81 -2.24,-4.43 -2.24,-7l0,-48.89c0.75,0 1.49,-0.01 2.24,-0.01l0,55.9z" fill="#0B742C"/>
    <path d="m657.86,118.6c0.06,-17.85 0.13,-35.71 0.19,-53.56c2.24,17.86 2.56,35.72 -0.19,53.56z" fill="#0D762D"/>
   </g>
  </svg>