<svg  id="fndm-p2uhk5baag" viewBox="0.5499515533447266 0.12000000476837158 1338.7938232421875 539.4269409179688" xmlns="http://www.w3.org/2000/svg">
   <g xmlns="http://www.w3.org/2000/svg" fill="none">
    <path d="m862.45,166.24c30.93,-8.3 60.78,-20.35 92,-27.56l1.56,3c-14.11,7.59 -28.18,15.26 -42.34,22.76c-14.43,7.64 -29,15.12 -43.23,24c45.2,5.33 90.48,6.84 135.14,15.25c-44.64,8.95 -90.07,9.65 -135.25,15.88c28.05,16.66 57.74,29.58 84.81,47.72c-24,-2.54 -45.94,-13.72 -72.94,-17.55c15.22,11.95 27.89,21.51 40.1,31.63c6.46,5.36 12.17,11.64 18.12,17.61c1.36,1.37 2.25,3.34 0.85,5.16c-1.6,2.06 -3.59,0.83 -5.1,-0.19c-3.49,-2.35 -6.77,-5 -10.21,-7.44c-49.77,-35.14 -106.59,-53.61 -164.7,-68.43c-71.88,-18.32 -145.13,-27.34 -219.2,-31c-40.65,-2 -81.29,-2.67 -121.87,-1c-110.77,4.44 -219.82,19.06 -324.21,59c-31.31,12 -60.19,28.5 -88.35,46.41c-1.57,1 -2.91,2.59 -7.08,0.65c6.78,-7.13 12.8,-14.3 19.67,-20.52c31.07,-28.14 67.19,-48.31 105.53,-64.39c73.36,-30.78 150.19,-47.73 229.13,-56.19a1063.71,1063.71 0 0 1 137.72,-6.24c69.85,1.59 139.14,8.9 207.33,24.87a12,12 0 0 0 3.38,0.64c4.49,-0.32 10,7.73 12.49,1.28c1.78,-4.56 -6.66,-6 -10.75,-8.22c-19.34,-10.46 -39.03,-20.55 -57.91,-32.55c32.54,5.66 63.19,17.38 95.18,26.3c-29.66,-35.54 -60,-70.43 -87.28,-108c38.39,24.77 71,56.59 109.11,87.27c-9.39,-34 -21.24,-63.94 -27.46,-95.71c11.42,12.11 17.31,27.57 25.2,41.71c7.89,14.14 15,29 23.91,46.32c4.81,-48.37 6.47,-93.71 14.62,-138.59c9.35,44.71 10.23,90.22 14.65,138.36c16.64,-28.11 27.64,-56.7 45.71,-81.43c-2.69,30.58 -15.2,58.35 -24.6,90.56c37.69,-31.25 71.32,-62.76 108.35,-89.93l2.5,2.49c-9.45,12.07 -18.57,24.43 -28.43,36.16c-16.27,19.37 -33.1,38.27 -49.52,57.52c-2.91,3.42 -6.51,6.57 -7.47,11.36c-0.59,0.64 -1.18,1.27 -1.78,1.89l2.62,-0.86z" fill="#D69005"/>
    <path d="m609.94,328.16c-13.47,57.74 -25,115.92 -37.29,173.94a49.67,49.67 0 0 0 -0.72,10.29c0,7.16 3.61,9.51 10.46,7.65c16.828,-4.377 28.66,-19.454 28.91,-36.84c0.79,-44.07 43.9,-91.2 90,-98.73c12.62,-2.07 25,-2.72 37.63,0.18c26.42,6.09 38.32,27.19 29.54,52.85c-10.53,30.77 -45.59,56.08 -76.16,55c-12.56,-0.45 -19.3,-5 -25.64,-17.66c29.4,1.17 48.2,-15.71 63.72,-37.64a45.26,45.26 0 0 0 6.78,-15.7c4.08,-17.73 -7.35,-28.46 -24.91,-23.91a39.65,39.65 0 0 0 -18,9.73c-23.1,22.59 -36.69,49.76 -37.55,82.34c-0.65,24.92 12,35 36.55,30.2c22.89,-4.48 41.55,-17.17 59.36,-31.25c16.27,-12.86 30.07,-28.23 43.38,-44.06c3.55,-4.22 5.39,-9.1 6.49,-14.41c2,-9.74 5.62,-19.44 5.83,-29.21c0.26,-12.87 5.94,-15.54 17.24,-14.24c9.45,1.08 23.78,-2.93 27.46,1.85c4.91,6.39 -2.26,18.39 -4.09,28c-0.69,3.61 -1.77,7.14 -2.94,11.81c7.38,-1.42 9.14,-7.44 12.4,-11.39c10.8,-13.12 22,-25.62 38.57,-31.59c9.86,-3.54 20.33,-5.29 27.85,3.18c7.52,8.47 4.91,18.75 0.76,28.23c-3.91,8.91 -9.49,16.55 -18.79,21.65c-1.59,-8.9 -4.44,-16.66 -14.28,-18.62c-11.58,-2.32 -20.17,3.44 -27.09,11.5c-11.6,13.53 -18.94,29.64 -25.44,46a268.1,268.1 0 0 0 -14.48,50.64c-1.25,6.88 -4,9.17 -10.54,8.44c-3.78,-0.43 -7.66,-0.07 -11.5,-0.06l-1.43,0c-22.876,-0.01 -22.715,-0.484 -17.57,-24.21c2.67,-12.26 5.1,-24.56 7.64,-36.85c0.89,-1.25 1.36,-2.57 -0.1,-3.66a16.13,16.13 0 0 0 -1.97,2c-19.18,17.52 -37.73,35.83 -61.09,48.06c-19.16,10 -38.72,18.08 -61.07,17.33c-18.24,-0.62 -33.88,-6.45 -45.45,-20.69c-4.22,-5.18 -6.13,-5.35 -11.14,-0.82c-14.51,13.11 -30.77,22.28 -51.54,21.55c-23.13,-0.82 -34.33,-13.55 -30.61,-36.66c1.21,-7.49 2.71,-14.94 3.19,-22.9c-10.35,11.74 -19.46,24.33 -31,34.72c-16.28,14.69 -33.73,26.34 -57.25,24.78c-18.92,-1.26 -33.41,-12.85 -37.59,-31.36c-8.49,-37.64 10.84,-79.12 47.35,-103c22.48,-14.69 47.05,-18.84 73.39,-18c26.08,0.86 26,0.17 31.51,-25.67c4.29,-20.21 9.05,-40.33 13,-60.61c1.11,-5.72 3.26,-7.54 8.92,-7.66c23.89,-0.52 37.68,-0.41 29.3,35.48zm-88.094,71.69c-9.89,0.042 -20.393,2.61 -29.806,9.88c-25.7,19.83 -39.88,45.85 -41.88,78.24c-0.616,9.544 -1.177,20.629 8.234,25.74c0.36,0.195 0.736,0.382 1.126,0.56c2.865,1.302 5.667,1.857 8.402,1.847l0.373,-0.005c7.817,-0.175 15.091,-4.914 21.765,-9.932a41.45,41.45 0 0 0 3.29,-3.21c24.06,-22.98 39.14,-51.61 50.89,-82.16a484.39,484.39 0 0 0 1.624,-4.271l0.172,-0.464c5.728,-15.459 3.79,-15.94 -16.828,-15.955l-1.408,0a61.302,61.302 0 0 0 -5.405,-0.27l-0.549,0zm584.004,55.36c12.58,-10.28 22.54,-20.95 24.36,-37.08c1.7,-15.07 -7.88,-24.22 -22.73,-21.11c-15.72,3.29 -26.22,13.61 -34.9,26.15c-14,20.24 -23.33,42.35 -23.78,67.24c-0.42,23.18 12.47,33.77 35.34,29.74c16.48,-2.91 31.11,-10.26 44.9,-19.61c18.2,-12.33 34.15,-27.1 48.89,-43.3c3,-3.35 4,-7.2 4.88,-11.37c9.82,-46.82 19.687,-93.627 29.6,-140.42c2.74,-13.06 9.85,-16.22 28.67,-12.33c10.15,2.1 15.54,10.47 13.14,21.76c-9,42.64 -18.33,85.23 -27.48,127.85c-0.12,0.55 0.42,1.25 0.72,2.09c5,-1.08 5.49,-6 7.62,-9.21c12.66,-19.31 25.65,-38.24 47.54,-48.44c8.9,-4.15 18,-5.7 27.92,-3.64c21.63,4.5 30.72,16.06 28.47,38.3c-2.28,22.52 -8.83,44.26 -12.86,66.47c-2.94,16.15 -6.5,32.59 6.83,46.74c-11,5.29 -21.85,4.74 -32.27,3.15c-15.35,-2.33 -23.93,-16.48 -20.78,-34.15c4.7,-26.36 10.23,-52.58 15.29,-78.89c1.19,-6.17 4.14,-13.44 -2.76,-17.66c-7.41,-4.53 -14.26,0 -19.75,4.79c-19.58,17 -30.67,39.91 -42.2,62.37a280.35,280.35 0 0 0 -21.62,55.54c-1.11,4.16 -2.54,6.54 -7.6,6.32c-10.34,-0.44 -20.72,-0.36 -31.06,0c-6.54,0.21 -6.43,-2.57 -5.15,-7.69c2.69,-10.74 4.76,-21.64 7,-32.5c0.79,-3.92 1.19,-7.92 2.22,-14.94c-17.84,17.07 -34.5,30.33 -53.2,40.7c-20.41,11.31 -42,18.88 -65.79,16.64c-18.68,-1.76 -34.58,-9.22 -44.8,-26.65c-9.44,7.85 -18.19,15.73 -28.91,21.09c-12.24,6.132 -25.15,6.81 -38.12,5.28c-13.62,-1.61 -22,-12.33 -21.37,-25.44c1.7,-35.82 13,-69.88 19.63,-104.77c4.11,-21.46 4.8,-21.33 27.22,-21.33c21.54,0 21.29,-0.06 16.74,20.84c-7.09,32.51 -13.74,65.12 -20.73,97.66c-1.1,5.1 -2,10.32 2.36,13.85c5.31,4.27 10.39,0.19 14.7,-2.54c6.42,-4.07 12.28,-9 18.36,-13.64c5.46,-4.15 4.47,-10.12 4.47,-15.83c0,-62.87 64.7,-115.35 126.45,-102.52c30.83,6.4 43.33,38.23 24.62,62.68c-9.47,12.31 -26.76,15.29 -50.08,7.81zm-743.14,-160.5c-25.26,-0.95 -46.59,1.23 -67.2,9.16c-68.9,26.49 -107.9,108.25 -82.54,173.77a82.44,82.44 0 0 0 15.36,25.37c18.84,21.2 43.47,24.74 66.69,8.67c31.75,-22 48.74,-54.25 60.28,-89.75c6.51,-20 11.11,-40.61 9.86,-62c-0.68,-11.71 -3.7,-22.17 -15.24,-27.39c-11.94,-5.4 -22.59,-1.49 -31.72,6.81c-25.81,23.48 -37.45,54.5 -45.33,87.25c-4.64,19.32 -6.43,39 -3,59c-22.12,-1 -37.89,-28.87 -40.79,-48.89c-7.18,-49.51 29.44,-96.35 70.15,-114.12c19,-8.29 38.49,-12 59.24,-9.2c30.2,4 54.45,27.75 54.28,59c-0.33,63.35 -23.75,116 -80.14,149.4c-45.83,27.1 -110,22.46 -145.76,-9c-25.8,-22.68 -34.2,-52 -32,-85.55c2.68,-40.25 17.12,-75.45 45.27,-104c35,-35.51 77.12,-53.2 127.87,-44.66c11.81,1.98 22.26,7.06 34.72,16.13zm620.68,-4.49c15.71,-0.1 26.06,9.78 26.27,25.1c0.24,16.51 -11.17,28.46 -27.46,28.78c-15.19,0.29 -26,-10.27 -26.24,-25.51c-0.2,-16.84 10.84,-28.26 27.43,-28.37zm-120.94,-123.98l-2.62,0.86c0.6,-0.62 1.19,-1.25 1.78,-1.89c0.27,0.34 0.55,0.7 0.84,1.03z" fill="#BF0101"/>
   </g>
  </svg>