<svg  id="fndm-4uduvcy9w7" viewBox="0 0 489 107" xmlns="http://www.w3.org/2000/svg">
   <g xmlns="http://www.w3.org/2000/svg" fill="none">
    <path d="m0,0l107,0l0,107l-107,0l0,-107z" fill="#312782"/>
    <path d="m52.673,100.08c-38.917,0.519 -58.42,-56.917 -24.726,-90.738c6.878,-6.66 16.63,1.384 24.29,7.698l3.222,0c8.27,-7.785 15.932,-13.407 24.203,-7.439c31.691,25.69 16.02,90.479 -26.99,90.479l0.001,0z" fill="#FFF"/>
    <path d="m53.108,92.987c-20.111,0 -25.248,-26.815 -17.064,-69.632c1.306,-6.142 6.007,-5.71 13.408,-0.173c2.699,2.335 5.572,1.99 8.532,0.173c5.833,-4.671 10.883,-6.488 13.233,0.865c7.923,41.866 4.702,68.508 -18.109,68.767zm62.892,-39.684c0,-5.705 0.782,-10.46 2.346,-14.35c1.129,-2.852 2.693,-5.358 4.69,-7.692c1.999,-2.248 4.17,-3.89 6.603,-5.014c3.128,-1.47 6.777,-2.247 10.947,-2.247c7.47,0 13.465,2.507 17.983,7.693c4.517,5.1 6.776,12.188 6.776,21.264c0,8.99 -2.259,16.077 -6.69,21.177c-4.43,5.1 -10.424,7.607 -17.896,7.607c-7.558,0 -13.552,-2.507 -18.07,-7.607c-4.43,-4.927 -6.689,-11.928 -6.689,-20.831zm10.599,-0.346c0,6.31 1.303,11.15 3.996,14.349c2.693,3.284 5.994,4.926 10.164,4.926c4.083,0 7.472,-1.642 10.078,-4.84c2.606,-3.198 3.91,-8.125 3.91,-14.608c0,-6.397 -1.304,-11.15 -3.823,-14.349c-2.52,-3.112 -5.908,-4.754 -10.165,-4.754c-4.257,0 -7.645,1.642 -10.25,4.754c-2.607,3.285 -3.91,8.125 -3.91,14.522zm77.231,28.006l-9.035,0l0,-5.964c-1.476,2.333 -3.3,4.062 -5.299,5.186c-2.085,1.123 -4.083,1.729 -6.168,1.729c-4.257,0 -7.819,-1.902 -10.86,-5.619c-3.04,-3.717 -4.517,-8.99 -4.517,-15.645c0,-6.829 1.477,-12.102 4.43,-15.646c2.954,-3.543 6.69,-5.359 11.12,-5.359c4.084,0 7.646,1.902 10.686,5.619l0,-20.227l9.73,0l0,55.926l-0.087,0zm-25.975,-21.178c0,4.322 0.521,7.434 1.65,9.336c1.564,2.766 3.736,4.149 6.603,4.149c2.259,0 4.17,-1.038 5.734,-3.112c1.563,-2.075 2.345,-5.186 2.345,-9.422c0,-4.667 -0.782,-8.039 -2.258,-10.027c-1.564,-2.074 -3.475,-3.111 -5.908,-3.111c-2.346,0 -4.257,1.037 -5.82,3.025c-1.564,2.16 -2.346,5.186 -2.346,9.162zm30.145,0.346c0,-3.544 0.782,-7.001 2.433,-10.286c1.564,-3.285 3.822,-5.878 6.776,-7.607c2.954,-1.728 6.168,-2.68 9.817,-2.68c5.56,0 10.164,1.989 13.726,5.965c3.562,3.976 5.3,8.99 5.3,15.04c0,6.137 -1.825,11.15 -5.387,15.213c-3.562,4.063 -8.08,6.051 -13.552,6.051c-3.388,0 -6.603,-0.864 -9.643,-2.507c-3.04,-1.642 -5.387,-4.149 -6.95,-7.347c-1.65,-3.284 -2.52,-7.174 -2.52,-11.842zm9.991,0.605c0,3.976 0.869,7.088 2.606,9.25c1.738,2.16 3.91,3.197 6.429,3.197c2.52,0 4.691,-1.037 6.429,-3.198c1.737,-2.16 2.606,-5.186 2.606,-9.335c0,-3.976 -0.869,-7.002 -2.606,-9.163c-1.738,-2.16 -3.823,-3.198 -6.429,-3.198c-2.52,0 -4.691,1.037 -6.429,3.198c-1.737,2.161 -2.606,5.187 -2.606,9.25l0,-0.001zm66.025,20.227l-9.73,0l0,-20.659c0,-4.408 -0.174,-7.174 -0.608,-8.47a6.87,6.87 0 0 0 -1.998,-3.026c-0.956,-0.692 -2.085,-1.038 -3.389,-1.038c-1.65,0 -3.214,0.52 -4.517,1.556c-1.303,1.038 -2.259,2.334 -2.78,4.063c-0.521,1.642 -0.782,4.754 -0.782,9.335l0,18.239l-9.73,0l0,-40.453l9.035,0l0,5.964c3.214,-4.581 7.298,-6.829 12.163,-6.829c2.171,0 4.083,0.432 5.907,1.297c1.738,0.864 3.128,1.902 3.996,3.285a13.042,13.042 0 0 1 1.912,4.494c0.347,1.643 0.52,4.063 0.52,7.175l0,25.067l0.001,0zm23.63,-40.453l0,8.557l-6.69,0l0,16.337c0,3.285 0.087,5.186 0.174,5.791c0.087,0.519 0.434,0.951 0.869,1.383c0.434,0.346 1.042,0.519 1.65,0.519c0.87,0 2.172,-0.346 3.91,-1.037l0.869,8.298c-2.26,1.037 -4.865,1.642 -7.732,1.642c-1.738,0 -3.301,-0.346 -4.778,-0.95c-1.39,-0.692 -2.433,-1.47 -3.128,-2.508c-0.695,-1.037 -1.13,-2.42 -1.39,-4.149c-0.174,-1.21 -0.347,-3.716 -0.347,-7.52l0,-17.892l-4.344,0l0,-8.558l4.43,0l0,-8.038l9.73,-6.224l0,14.262l6.777,0l0,0.087zm1.303,19.621c0,-3.544 0.782,-7.001 2.432,-10.286c1.564,-3.285 3.823,-5.878 6.777,-7.607c2.953,-1.728 6.168,-2.68 9.816,-2.68c5.56,0 10.165,1.989 13.727,5.965c3.562,3.976 5.299,8.99 5.299,15.04c0,6.137 -1.824,11.15 -5.386,15.213c-3.562,4.063 -8.08,6.051 -13.553,6.051c-3.388,0 -6.602,-0.864 -9.643,-2.507c-3.04,-1.642 -5.386,-4.149 -6.95,-7.347c-1.65,-3.284 -2.52,-7.174 -2.52,-11.842l0.001,0zm9.99,0.605c0,3.976 0.87,7.088 2.607,9.25c1.737,2.16 3.91,3.197 6.428,3.197c2.52,0 4.692,-1.037 6.43,-3.198c1.737,-2.16 2.605,-5.186 2.605,-9.335c0,-3.976 -0.868,-7.002 -2.606,-9.163c-1.737,-2.16 -3.822,-3.198 -6.429,-3.198c-2.519,0 -4.69,1.037 -6.428,3.198c-1.738,2.161 -2.607,5.187 -2.607,9.25l0,-0.001z" fill="#312782"/>
    <path d="m350,81.046l0,-56.046l16.481,0c6.279,0 10.377,0.26 12.208,0.868c2.878,0.867 5.407,2.69 7.325,5.465c2.006,2.863 2.965,6.42 2.965,10.932c0,3.47 -0.61,6.333 -1.744,8.676c-1.133,2.342 -2.616,4.164 -4.36,5.552c-1.744,1.302 -3.488,2.256 -5.32,2.69c-2.44,0.52 -6.016,0.78 -10.725,0.78l-6.715,0l0,21.17l-10.115,0l0,-0.087zm10.29,-46.503l0,15.877l5.668,0c4.098,0 6.802,-0.26 8.11,-0.867c1.395,-0.608 2.441,-1.475 3.226,-2.777c0.785,-1.214 1.134,-2.69 1.134,-4.338c0,-1.995 -0.523,-3.73 -1.657,-5.032a7.019,7.019 0 0 0 -4.098,-2.516c-1.221,-0.26 -3.663,-0.347 -7.413,-0.347l-4.97,0zm43.34,46.503l-9.767,0l0,-40.603l9.069,0l0,5.813c1.57,-2.69 2.964,-4.512 4.185,-5.38c1.221,-0.867 2.616,-1.3 4.186,-1.3c2.267,0 4.36,0.693 6.453,1.995l-3.052,9.37c-1.657,-1.128 -3.14,-1.736 -4.622,-1.736c-1.395,0 -2.529,0.434 -3.488,1.215c-0.96,0.78 -1.657,2.343 -2.267,4.512c-0.523,2.168 -0.785,6.68 -0.785,13.62l0,12.494l0.088,0zm36.624,-12.927l9.767,1.822c-1.221,3.904 -3.227,6.94 -5.93,8.936c-2.703,2.082 -6.104,3.123 -10.115,3.123c-6.453,0 -11.162,-2.256 -14.302,-6.94c-2.441,-3.731 -3.662,-8.33 -3.662,-13.969c0,-6.767 1.57,-11.972 4.796,-15.79c3.227,-3.817 7.238,-5.726 12.121,-5.726c5.494,0 9.854,1.996 12.993,5.987c3.14,3.99 4.71,10.064 4.535,18.306l-24.504,0c0.087,3.21 0.872,5.639 2.354,7.46c1.483,1.736 3.401,2.69 5.669,2.69c1.57,0 2.79,-0.434 3.836,-1.388c1.134,-0.954 1.919,-2.43 2.442,-4.511zm0.61,-10.845c-0.087,-3.123 -0.784,-5.466 -2.18,-7.114c-1.395,-1.649 -3.052,-2.43 -5.057,-2.43c-2.18,0 -3.924,0.868 -5.32,2.603c-1.395,1.735 -2.092,3.991 -2.092,6.941l14.65,0l-0.001,0zm24.679,23.772l-14.912,-40.603l10.29,0l6.976,20.735l2.006,6.94c0.523,-1.734 0.872,-2.95 1.046,-3.47c0.349,-1.127 0.698,-2.255 1.047,-3.47l7.063,-20.735l9.941,0l-14.65,40.603l-8.807,0z" fill="#009EE2"/>
   </g>
  </svg>