<svg  id="fndm-x1zui6k51k" viewBox="0 0 737 178.10000610351562" xmlns="http://www.w3.org/2000/svg">
   <path d="m246.1,109.8c-20.6,0 -37.4,-16.8 -37.4,-37.4s16.8,-37.4 37.4,-37.4c20.6,0 37.4,16.8 37.4,37.4s-16.8,37.4 -37.4,37.4zm0,-57.8c-11.3,0 -20.4,9.2 -20.4,20.4c0,11.3 9.2,20.4 20.4,20.4c11.3,0 20.4,-9.2 20.4,-20.4s-9.1,-20.4 -20.4,-20.4zm81.6,57.8c-18.3,0 -33.2,-14.9 -33.2,-33.2l0,-39.8l17,0l0,39.8c0,8.9 7.3,16.2 16.2,16.2c8.9,0 16.2,-7.3 16.2,-16.2l0,-39.8l17,0l0,39.8c0,18.3 -14.9,33.2 -33.2,33.2zm323.4,-1.8l-17,0l0,-39.7c0,-8.9 -7.3,-16.2 -16.2,-16.2c-8.9,0 -16.2,7.3 -16.2,16.2l0,39.7l-17,0l0,-39.7c0,-18.3 14.9,-33.2 33.2,-33.2c18.3,0 33.2,14.9 33.2,33.2l0,39.7zm-196.4,1.8c-20.6,0 -37.4,-16.8 -37.4,-37.4s16.8,-37.4 37.4,-37.4c20.6,0 37.4,16.8 37.4,37.4s-16.7,37.4 -37.4,37.4zm0,-57.8c-11.3,0 -20.4,9.2 -20.4,20.4c0,11.3 9.2,20.4 20.4,20.4c11.3,0 20.4,-9.2 20.4,-20.4s-9.1,-20.4 -20.4,-20.4zm244.9,57.8c-20.6,0 -37.4,-16.8 -37.4,-37.4s16.8,-37.4 37.4,-37.4c20.6,0 37.4,16.8 37.4,37.4s-16.8,37.4 -37.4,37.4zm0,-57.8c-11.3,0 -20.4,9.2 -20.4,20.4c0,11.3 9.2,20.4 20.4,20.4c11.3,0 20.4,-9.2 20.4,-20.4s-9.1,-20.4 -20.4,-20.4zm-300.4,-15.2c-14.5,0 -26.4,11.8 -26.4,26.4l0,44.8l17,0l0,-50c0,-2.4 1.9,-4.3 4.3,-4.3l18.3,0l0,-17l-13.2,0l0,0.1zm125.4,-19.8l18.3,0l0,-17l-13.2,0c-14.5,0 -26.4,11.8 -26.4,26.4l0,81.6l17,0l0,-54.3l11.7,0c4.7,0 8.5,-3.8 8.5,-8.5s-3.8,-8.5 -8.5,-8.5l-11.7,0l0,-15.5c0,-2.3 1.9,-4.2 4.3,-4.2zm27.4,19.8l17,0l0,71.2l-17,0l0,-71.2z" fill="#1d2859"/>
   <path fill="#1d2859" r="10.8" cy="10.8" cx="560.5"/>
   <path d="m221.1,158.9c3.6,0.7 8.2,2.4 8.1,7.7c0,2.5 -0.9,4.4 -2.8,5.8c-1.9,1.3 -4.2,2 -7,2c-5,0 -8.4,-1.9 -10.2,-5.8l5.5,-3.1c0.7,2.1 2.3,3.2 4.8,3.2c2.2,0 3.4,-0.7 3.4,-2.1c0,-1.3 -1.9,-2 -4.4,-2.7c-3.6,-0.9 -8.1,-2.4 -8.1,-7.5c0,-2.4 0.9,-4.3 2.6,-5.7c1.8,-1.4 4,-2.1 6.6,-2.1c3.9,0 7.4,1.9 9.3,5.2l-5.4,2.9c-0.8,-1.7 -2.1,-2.5 -3.9,-2.5c-1.6,0 -2.8,0.8 -2.8,2c-0.1,1.3 1.8,2.1 4.3,2.7zm30.4,-9.6l6.3,0l0,24.4l-6.3,0l0,-2.9c-1.9,2.4 -4.5,3.6 -7.9,3.6c-3.3,0 -6,-1.2 -8.4,-3.7c-2.3,-2.5 -3.5,-5.6 -3.5,-9.2c0,-3.6 1.2,-6.6 3.5,-9.1s5.1,-3.8 8.4,-3.8c3.4,0 6,1.2 7.9,3.6l0,-2.9zm-6.8,19c2,0 3.6,-0.6 4.8,-1.9c1.3,-1.3 1.9,-3 1.9,-5s-0.6,-3.7 -1.9,-4.9c-1.3,-1.3 -2.9,-2 -4.8,-2s-3.6,0.6 -4.8,2c-1.3,1.3 -1.9,2.9 -1.9,4.9c0,2 0.6,3.7 1.9,5c1.3,1.3 2.9,1.9 4.8,1.9zm34.9,-19l6.3,0l0,24.4l-6.3,0l0,-2.7c-1.5,2.3 -3.9,3.4 -7.3,3.4c-2.7,0 -4.9,-0.9 -6.6,-2.7c-1.7,-1.8 -2.6,-4.2 -2.6,-7.4l0,-15l6.3,0l0,14.2c0,3.3 1.9,5 4.8,5c3.3,0 5.4,-2 5.4,-6l0,-13.2zm2.4,-9.8l-5.4,6.7l-6,0l3.9,-6.7l7.5,0zm28.1,0l6.3,0l0,34.1l-6.3,0l0,-2.9c-1.9,2.4 -4.5,3.6 -7.9,3.6c-3.3,0 -6.1,-1.2 -8.4,-3.7c-2.3,-2.5 -3.5,-5.6 -3.5,-9.2c0,-3.6 1.2,-6.6 3.5,-9.1s5.2,-3.8 8.4,-3.8c3.4,0 6,1.2 7.9,3.6l0,-12.6zm-6.7,28.8c1.9,0 3.6,-0.6 4.8,-1.9c1.3,-1.3 1.9,-3 1.9,-5s-0.6,-3.7 -1.9,-4.9c-1.3,-1.3 -2.9,-2 -4.8,-2c-2,0 -3.6,0.6 -4.9,2c-1.3,1.3 -1.9,2.9 -1.9,4.9c0,2 0.6,3.7 1.9,5c1.3,1.3 2.9,1.9 4.9,1.9zm24,-4.2c0.8,3.1 3.1,4.6 6.9,4.6c2.4,0 4.2,-0.8 5.5,-2.4l5.1,2.9c-2.4,3.5 -5.9,5.2 -10.6,5.2c-4,0 -7.3,-1.2 -9.7,-3.7c-2.4,-2.4 -3.7,-5.5 -3.7,-9.2c0,-3.7 1.2,-6.7 3.6,-9.2c2.4,-2.5 5.5,-3.7 9.3,-3.7c3.6,0 6.5,1.2 8.8,3.7c2.3,2.5 3.5,5.5 3.5,9.2c0,0.8 -0.1,1.7 -0.2,2.6l-18.5,0zm12.4,-4.9c-0.7,-3.3 -3.2,-4.9 -6,-4.9c-3.4,0 -5.7,1.8 -6.4,4.9l12.4,0zm41.4,-9.9l6.3,0l0,24.4l-6.3,0l0,-2.9c-1.9,2.4 -4.5,3.6 -7.9,3.6c-3.3,0 -6,-1.2 -8.4,-3.7c-2.3,-2.5 -3.5,-5.6 -3.5,-9.2c0,-3.6 1.2,-6.6 3.5,-9.1s5.1,-3.8 8.4,-3.8c3.4,0 6,1.2 7.9,3.6l0,-2.9zm-6.8,19c1.9,0 3.6,-0.6 4.8,-1.9c1.3,-1.3 2,-3 2,-5s-0.6,-3.7 -2,-4.9c-1.3,-1.3 -2.9,-2 -4.8,-2c-2,0 -3.6,0.6 -4.8,2c-1.3,1.3 -1.9,2.9 -1.9,4.9c0,2 0.6,3.7 1.9,5c1.2,1.3 2.8,1.9 4.8,1.9zm38.9,-17c1.8,1.8 2.6,4.2 2.6,7.4l0,15l-6.3,0l0,-14.2c0,-3.3 -1.9,-5 -4.8,-5c-3.3,0 -5.4,2 -5.4,6l0,13.2l-6.3,0l0,-24.4l6.3,0l0,2.7c1.5,-2.3 3.9,-3.4 7.3,-3.4c2.7,0 4.9,0.9 6.6,2.7zm7.3,-8.8c0,-2.1 1.8,-3.9 3.9,-3.9c2.1,0 3.9,1.8 3.9,3.9c0,2.1 -1.8,3.9 -3.9,3.9c-2.2,0 -3.9,-1.8 -3.9,-3.9zm0.7,31.2l0,-24.4l6.3,0l0,24.4l-6.3,0zm48.2,-15l0,15l-6.3,0l0,-14.6c0,-2.9 -1.5,-4.6 -4.1,-4.6c-2.9,0 -4.5,2 -4.5,5.5l0,13.7l-6.3,0l0,-14.6c0,-2.9 -1.5,-4.6 -4.1,-4.6c-2.8,0 -4.6,2 -4.6,5.5l0,13.7l-6.3,0l0,-24.4l6.3,0l0,2.6c1.5,-2.2 3.7,-3.3 6.8,-3.3c3,0 5.2,1.2 6.6,3.5c1.6,-2.3 4,-3.5 7.3,-3.5c5.6,0 9.2,4 9.2,10.1zm23.9,-9.4l6.3,0l0,24.4l-6.3,0l0,-2.9c-1.9,2.4 -4.5,3.6 -7.9,3.6c-3.3,0 -6,-1.2 -8.4,-3.7c-2.3,-2.5 -3.5,-5.6 -3.5,-9.2c0,-3.6 1.2,-6.6 3.5,-9.1s5.1,-3.8 8.4,-3.8c3.4,0 6,1.2 7.9,3.6l0,-2.9zm-6.8,19c1.9,0 3.6,-0.6 4.8,-1.9c1.3,-1.3 2,-3 2,-5s-0.6,-3.7 -2,-4.9c-1.3,-1.3 -2.9,-2 -4.8,-2c-2,0 -3.6,0.6 -4.8,2c-1.3,1.3 -1.9,2.9 -1.9,4.9c0,2 0.6,3.7 1.9,5c1.3,1.3 2.9,1.9 4.8,1.9zm18.8,5.4l0,-35.6l6.3,0l0,35.6l-6.3,0z" fill="#1d2859"/>
   <linearGradient xmlns="http://www.w3.org/2000/svg" gradientUnits="userSpaceOnUse" y2="89.088" y1="89.088" x2="176.859" x1="1.63" id="fndm-fbqslixx3z">
    <stop stop-color="#037045" offset="0"/>
    <stop stop-color="#79bf43" offset="0.995"/>
   </linearGradient>
   <path d="m179.1,89.5c0,45.1 -33.4,82.4 -76.7,88.6l0,-30.4c0,-19.2 3.4,-45.3 9.8,-58.1c6.5,-12.9 15.1,-23.5 25.5,-31.6c10.4,-8 22.3,-13.6 35.4,-16.7c1.6,-0.4 4.2,-0.8 6,-1l0,49.2zm0,-58.5l-2.9,0.4c-36.3,4.6 -65.5,16.2 -86.6,34.6c-27.2,23.6 -41.1,56.4 -41.4,97.5l0,5.6c-28.7,-15.1 -48.2,-45 -48.2,-79.6c0,-49.4 40.1,-89.5 89.5,-89.5l89.5,0s0.1,13.6 0.1,31z" fill="url(#fndm-fbqslixx3z)"/>
  </svg>