<svg  id="fndm-udvkf2urfj" viewBox="16.256004333496094 17.820999145507812 160.24200439453125 157.11599731445312" xmlns="http://www.w3.org/2000/svg">
   <path d="m113.401,174.937c-62.161,0 -97.145,-43.729 -97.145,-79.338c0,-65.908 69.969,-77.778 99.018,-77.778c44.355,0 61.224,19.367 61.224,39.982c0,38.108 -42.168,33.11 -42.168,67.471c0,15.617 6.248,22.803 6.248,35.297c0,7.492 0.937,14.366 -27.177,14.366z" fill="#ebc54b"/>
   <path d="m118.088,95.987c0,4.701 -3.883,8.512 -8.668,8.512c-4.789,0 -8.668,-3.811 -8.668,-8.512s3.879,-8.512 8.668,-8.512c4.785,0.001 8.668,3.812 8.668,8.512zm0.311,37.094c0,13.284 -3.883,24.051 -8.668,24.051c-4.789,0 -8.67,-10.767 -8.67,-24.051c0,-13.285 3.881,-24.053 8.67,-24.053c4.788,0 8.668,10.768 8.668,24.053zm-22.178,0.546c0,13.499 -10.349,24.442 -23.114,24.442s-23.115,-10.943 -23.115,-24.442s10.35,-24.442 23.115,-24.442c12.766,0 23.114,10.943 23.114,24.442z" fill="#fff"/>
   <path d="m82.478,133.938c0,6.6 -4.16,11.948 -9.292,11.948s-9.293,-5.35 -9.293,-11.948c0,-6.598 4.161,-11.947 9.293,-11.947c5.131,0 9.292,5.35 9.292,11.947z" fill="#ebc54b"/>
  </svg>