<svg xmlns="http://www.w3.org/2000/svg" fill-rule="evenodd" clip-rule="evenodd" image-rendering="optimizeQuality" shape-rendering="geometricPrecision" text-rendering="geometricPrecision" viewBox="-1.9900000095367432 1 6599.990234375 3300"><g><rect width="6599.99" height="3300" x="-1.99" y="1" fill="none"/><g><g><path fill="#a7a9ac" fill-rule="nonzero" d="M4859.08 1911.16l79.14 0 0 -504.69c-0.04,-9.8 -8,-17.73 -17.8,-17.73 0,0 0,0 0,0l-79.14 0 0 504.83c0,9.82 7.97,17.79 17.8,17.79l0 -0.2zm0 0l0 0 0 0z"/></g><g><path fill="#a7a9ac" fill-rule="nonzero" d="M4273.37 1911.16l79.2 0 0 -389.69c0,0 0,0 0,0 0,-9.79 -7.93,-17.72 -17.72,-17.72 -0.02,0 -0.05,0 -0.07,0l-79.21 0 0 389.82c0,9.82 7.97,17.79 17.8,17.79l0 -0.2zm0 0l0 0 0 0z"/></g><g><path fill="#a7a9ac" fill-rule="nonzero" d="M3978.52 1749.39l0 -341.53c0,-9.83 -7.97,-17.79 -17.79,-17.79l-79.14 0 0 360.79c0,97.7 55.83,160.51 160.09,160.51l154.29 0 0 -77.4c0,0 0,0 0,0 0,-9.8 -7.92,-17.76 -17.72,-17.79l-135.88 0c-46.19,0 -63.85,-19.89 -63.85,-66.79l0 0zm0 0l0 0 0 0z"/></g><g><path fill="#a7a9ac" fill-rule="nonzero" d="M5690.58 1389.44c-1.2,-0.02 -2.51,-0.04 -3.73,-0.04 -48.1,0 -94.33,18.75 -128.86,52.24 -33.01,34.41 -51.49,80.27 -51.49,127.97 0,1.39 0.03,2.82 0.05,4.19l0 320.18c0,9.79 7.94,17.73 17.73,17.73l79.2 0 0 -142.5 175.66 0 0 124.78c0.03,9.66 7.78,17.53 17.44,17.72l79.21 0 0 -337.9c0.03,-1.44 0.05,-2.99 0.05,-4.45 0,-47.6 -18.4,-93.38 -51.34,-127.73 -33.77,-33.85 -80.81,-52.2 -133.78,-52.2l-0.14 0.01zm88.42 286.54l-175.79 0 0 -104.68c0,-54.22 33.14,-87.37 87.37,-87.37 54.22,0 88.28,33.15 88.28,87.37l0.14 104.68z"/></g><g><path fill="#a7a9ac" fill-rule="nonzero" d="M5240.53 1476.18c0.01,0 0.04,0 0.06,0 48.85,0 94.05,26.02 118.58,68.26 3.81,6.75 10.94,10.98 18.7,11.09l90.72 0c-31.06,-102.52 -114.87,-166.79 -228.34,-166.79 -136.36,0 -242.65,114.8 -242.65,261.49 0,146.69 106.29,261.55 242.65,261.55 111.31,0 195.82,-65.8 227.64,-167.48l-89.68 0c-7.75,0.11 -14.88,4.34 -18.7,11.09 -24.4,42.6 -69.54,69.16 -118.64,69.78 -82.27,0 -147.17,-79.48 -147.17,-174.81 0,-95.33 64.9,-174.05 147.17,-174.05l-0.34 -0.13zm0 0l0 0 0 0z"/></g><g><path fill="#a7a9ac" fill-rule="nonzero" d="M4596.27 1389.44c-1.19,-0.02 -2.48,-0.04 -3.7,-0.04 -48.1,0 -94.39,18.76 -128.91,52.24 -33.01,34.42 -51.46,80.36 -51.46,128.08 0,1.35 0.02,2.75 0.04,4.09l0 320.17c0,0.01 0,0.01 0,0.01 0,9.78 7.94,17.72 17.73,17.72 0.02,0 0.04,0 0.06,0l79.14 0 0 -340.06c0,-0.24 0,-0.51 0,-0.75 0,-46.11 36.1,-84.17 82.14,-86.62 58.48,-2.16 93.51,31.4 93.51,87.37l0 322.34c0,9.78 7.94,17.72 17.73,17.72l79.21 0 0 -337.9c0.02,-1.35 0.04,-2.81 0.04,-4.19 0,-47.68 -18.43,-93.55 -51.4,-127.98 -33.85,-33.84 -80.81,-52.2 -133.78,-52.2l-0.35 0zm0 0l0 0 0 0z"/></g><g><path fill="#00b5ad" fill-rule="nonzero" d="M1877.76 1388.74c-137.62,0 -249.21,115.08 -249.21,261.49 0,146.41 111.66,262.25 249.21,262.25 137.55,0 249.21,-115.98 249.21,-262.25 0,-149.21 -109.43,-261.49 -249.21,-261.49l0 0zm0 464.28c-103.63,0 -188.42,-88.34 -188.42,-202.79 0,-114.45 84.72,-202.87 188.42,-202.87 105.8,0 188.42,86.88 188.42,202.87 0,113.68 -84.72,202.79 -188.42,202.79z"/></g><g><path fill="#00b5ad" fill-rule="nonzero" d="M2855.95 1447.29c76.34,0 130.57,39.71 159.81,96.16 3.67,7.47 11.22,12.24 19.54,12.36l50.73 0c-32.03,-99.17 -115.77,-167.07 -230.08,-167.07 -137.48,0 -248.86,117.17 -248.86,261.14 0,143.96 111.66,261.83 248.86,261.83 107.75,0 196.03,-65.87 230.29,-167.48l-51.08 0c-8.15,0.1 -15.58,4.73 -19.26,12 -30.71,59.09 -91.83,96.17 -158.43,96.17 -0.5,0 -1.03,0 -1.53,0 -103.42,0 -188.07,-91.84 -188.07,-202.38 0,-110.54 84.65,-202.38 188.07,-202.38l0.01 -0.35zm0 0l0 0 0 0z"/></g><g><path fill="#00b5ad" fill-rule="nonzero" d="M2368.91 1388.74c-102.58,-0.98 -182.35,76.76 -182.35,179l0 327.09c0,9.74 7.91,17.65 17.66,17.65l45.01 0 0 -344.74c-0.02,-0.94 -0.03,-1.92 -0.03,-2.87 0,-65.08 52.78,-117.87 117.87,-117.87 65.08,0 117.86,52.79 117.86,117.87 0,0.95 -0.01,1.93 -0.02,2.87l0 327.08c0.03,9.77 7.95,17.66 17.71,17.66 0.03,0 0.05,0 0.07,0l44.88 0 0 -337.76c0,-99.87 -78.72,-185.08 -178.59,-185.98l-0.07 0zm0 0l0 0 0 0z"/></g><path fill="#a7a9ac" fill-rule="nonzero" d="M3612.29 1391.67c-30.81,0.24 -61.35,6.22 -89.97,17.52 31.74,15.75 58.41,40.3 76.78,70.62 4.34,-0.83 8.77,-1.41 13.19,-1.67 0.09,-0.01 0.24,-0.01 0.34,-0.01 48.3,0 93,25.73 117.25,67.5 3.79,6.65 10.82,10.82 18.49,10.94l89.6 0c-30.91,-101.39 -114.03,-164.9 -225.68,-164.9z"/><g><path fill="#a7a9ac" fill-rule="nonzero" d="M3613.96 1825.6c-82,0 -146.9,-79.21 -146.9,-174.47 0.12,-35.13 9.95,-69.59 28.33,-99.51 -21.28,-23.32 -46.57,-42.73 -74.58,-57.28 -31.81,45.81 -48.87,100.35 -48.87,156.16 0,0.3 0,0.7 0,1 0,146.13 105.8,260.58 241.88,260.58 110.75,0 195.05,-65.53 226.66,-167l-89.39 0c-7.74,0.12 -14.83,4.34 -18.63,11.08 -24.39,42.61 -69.55,69.19 -118.65,69.78l0.15 -0.34zm0 0l0 0 0 0z"/></g><g><path fill="#00b5ad" fill-rule="nonzero" d="M3371.25 1391.67c-136.85,0 -247.88,114.38 -247.88,260.02 0,145.64 111.03,260.79 247.88,260.79 27.87,-0.03 55.58,-5.04 81.7,-14.72 -19.95,-13.96 -44.66,-32.45 -56.17,-46.62 -8.42,1.45 -16.98,2.21 -25.53,2.23 -103,0 -187.23,-87.86 -187.23,-201.68 0,-113.82 84.23,-201.75 187.23,-201.75 105.24,0 187.31,86.47 187.31,201.75 -0.01,0.02 -0.01,0.13 -0.01,0.15 0,35.06 -8.72,69.6 -25.33,100.47 15.13,13.37 32.08,24.64 50.25,33.44 23.41,-40.75 35.79,-87.03 35.79,-134.06 0,-148.36 -108.79,-260.02 -247.81,-260.02l-0.2 0zm0 0l0 0 0 0z"/></g><path fill="#a7a9ac" fill-rule="nonzero" d="M4255.64 1477.58c0.77,-20.94 9,-86.61 96.93,-86.61l0 68.81c0,0 0,0 0,0 0,9.8 -7.92,17.76 -17.72,17.8l-79.21 0 0 0z"/><g><path fill="#a7a9ac" fill-rule="nonzero" d="M6235.4 1482.81l0 -78.3c0,-0.04 0,-0.09 0,-0.14 0,-8.63 -7,-15.63 -15.64,-15.63 0,0 0,0 0,0l-34.4 0c-72.65,0.7 -113.26,17.24 -140.34,51.08 -34.89,43.41 -46.55,109.29 -4.33,209.36 34.9,83.74 26.17,118.64 7.68,139.57 -19.68,21.77 -61.69,28.54 -100.56,28.54l-13.96 0c-8.63,0 -15.63,7 -15.63,15.63l0 78.1 51.57 0c75.72,0.69 137.83,-26.8 168.25,-60.72 52.06,-57.01 37.9,-127.22 6.98,-200.07 -34.26,-81.16 -32.52,-119.41 -13.96,-142.72 13.96,-16.54 47.18,-25.47 104.68,-24.7l-0.34 0zm0 0l0 0 0 0z"/></g><g><path fill="#a7a9ac" fill-rule="nonzero" d="M1070.55 1272.48c-44.88,0.3 -89.36,9.02 -131.05,25.55 46.2,22.85 84.97,58.51 111.66,102.64 6.29,-1.23 12.7,-2.07 19.1,-2.43 0.21,-0.01 0.45,-0.01 0.65,-0.01 70.15,0 135.05,37.4 170.26,98.06 5.53,9.7 15.77,15.78 26.94,15.97l130.22 0c-44.31,-147.39 -164.83,-239.78 -327.78,-239.78l0 0zm0 0l0 0 0 0z"/></g><g><path fill="#a7a9ac" fill-rule="nonzero" d="M1073.27 1903.27c-119.19,0 -213.48,-115.15 -213.48,-253.18 0.11,-51.26 14.35,-101.53 41.11,-145.21 -30.9,-33.92 -67.73,-62.11 -108.45,-83.18 -46.07,66.58 -70.76,145.77 -70.76,226.8 0,0.49 0,1.12 0,1.61 0,212.29 153.53,378.8 351.58,378.8 161.06,0 283.61,-95.26 329.6,-242.79l-130.15 0c-11.28,0.17 -21.63,6.3 -27.22,16.1 -34.89,57.85 -96.51,101.05 -172.23,101.05l0 0zm0 0l0 0 0 0z"/></g><g><path fill="#00b5ad" fill-rule="nonzero" d="M720.43 1272.48c-198.82,0 -360.16,166.37 -360.16,377.96 0,211.59 161.34,379.07 360.16,379.07 40.49,-0.04 80.72,-7.34 118.65,-21.43 -29.03,-19.89 -64.9,-47.17 -81.72,-67.69 -12.26,2.1 -24.7,3.19 -37.14,3.21 -149.62,0 -272.16,-127.7 -272.16,-293.1 0,-164.34 122.54,-293.1 272.16,-293.1 152.97,0 272.16,125.62 272.16,293.1 0.01,0.12 0.01,0.24 0.01,0.35 0,51 -12.68,101.29 -36.78,146.22 21.99,19.47 46.63,35.95 73.01,48.83 33.83,-59.05 51.7,-126.06 51.7,-194.16 0,-0.19 0,-0.48 0,-0.67 0.35,-216.27 -157.78,-378.59 -359.89,-378.59l0 0zm0 0l0 0 0 0z"/></g></g></g></svg>