<svg xmlns="http://www.w3.org/2000/svg" fill-rule="evenodd" clip-rule="evenodd" image-rendering="optimizeQuality" shape-rendering="geometricPrecision" text-rendering="geometricPrecision" viewBox="-2 1 6600 3300"><g><rect width="6600" height="3300" x="-2" y="1" fill="#373435"/><g fill="#fefefe"><path d="M1035.86 1862.52c239.15,0 433,-193.86 433,-433.01 0,-239.16 -193.85,-433.02 -433,-433.02 -239.16,0 -433.03,193.86 -433.03,433.02 0,239.15 193.87,433.01 433.03,433.01zm0 -141.11c161.21,0 291.89,-130.69 291.89,-291.9 0,-161.23 -130.68,-291.9 -291.89,-291.9 -161.22,0 -291.91,130.67 -291.91,291.9 0,161.21 130.69,291.9 291.91,291.9zm775.51 139.75l0 0c40.02,0 72.76,-32.74 72.76,-72.76l0 -222.71 277.85 0 173.69 263.81c22.01,33.42 67.36,42.77 100.79,20.76l0 0c33.43,-22.01 42.71,-67.33 20.76,-100.79l-140.65 -214.24c101.96,-69.44 148.26,-149.9 146.36,-252.88 -3.38,-183.31 -157.14,-285.53 -263.5,-285.53l-388.06 0 0 0 -2.42 0c-38.69,0 -70.35,31.67 -70.35,70.35l0 0 0.02 1.19 -0.02 1.23 0 718.81c0,40.02 32.74,72.76 72.77,72.76zm364.73 -436.16l-291.97 0 0 -287.48 292.85 0c68.28,0 145.33,47.8 144.84,144.83 -0.3,59.61 -46.08,142.65 -145.72,142.65zm634.09 436.67l0.01 0c40.02,0 72.76,-32.74 72.76,-72.76l0 -718.82c0,-40.02 -32.74,-72.76 -72.76,-72.76l-0.01 0c-40.02,0 -72.76,32.74 -72.76,72.76l0 718.82c0,40.02 32.74,72.76 72.76,72.76zm2478.33 0l0 0c40.02,0 72.76,-32.74 72.76,-72.76l0 -523.54 483.41 568.47c8.63,10.15 19.53,17.31 31.35,21.39 9.12,4.14 19.23,6.44 29.86,6.44l0 0c40.02,0 72.76,-32.74 72.76,-72.76l0 -718.81c0,-40.02 -32.74,-72.76 -72.76,-72.76l0 0c-40.02,0 -72.76,32.74 -72.76,72.76l0 525.51 -486.23 -571.78c-9.32,-10.97 -21.27,-18.44 -34.16,-22.31 -7.58,-2.71 -15.74,-4.18 -24.23,-4.18l0 0c-40.02,0 -72.76,32.74 -72.76,72.76l0 718.81c0,40.02 32.74,72.76 72.76,72.76zm-2119.42 -799.29l0 0c0,40.03 32.74,72.77 72.76,72.77l431.6 0 -493.01 616.29c-40.89,51.13 -13.96,117.95 64.1,117.95l572.78 0c40.03,0 72.77,-32.74 72.77,-72.77l0 0c0,-40.01 -32.74,-72.75 -72.77,-72.75l-428.46 0 492.12 -615.19c27.7,-34.62 14.17,-119.05 -74.24,-119.05l-564.89 0c-40,0 -72.76,32.74 -72.76,72.75zm1381.59 -66.47c198.86,23.14 356.95,179.87 382.1,378.12 -198.87,-23.14 -356.96,-179.88 -382.1,-378.12zm382.1 489.08c-25.15,198.23 -183.24,354.97 -382.1,378.11 25.14,-198.24 183.23,-354.97 382.1,-378.11zm-484.09 378.11c-198.85,-23.14 -356.95,-179.88 -382.09,-378.11 198.87,23.14 356.95,179.87 382.09,378.11zm-382.09 -489.07c25.14,-198.25 183.24,-354.98 382.09,-378.12 -25.14,198.24 -183.22,354.98 -382.09,378.12z"/><path fill-rule="nonzero" d="M2452.36 2124.23l48.64 128.71 48.18 -128.71 26.69 0 -64.02 160.61 -21.71 0 -64.71 -160.61 26.93 0zm134.79 160.61l64.7 -160.61 20.81 0 64.48 160.61 -26.93 0 -17.19 -43.66 -61.99 0 -16.74 43.66 -27.14 0zm75.11 -132.34l-26.7 69.91 52.48 0 -25.78 -69.91zm115.11 132.34l0 -160.61 25.34 0 0 138.22 86.19 0 0 22.39 -111.53 0zm212.61 1.13c-11.3,0 -21.6,-2.29 -30.88,-6.9 -9.27,-4.59 -17.26,-10.7 -23.97,-18.32 -6.72,-7.62 -11.88,-16.32 -15.49,-26.12 -3.62,-9.81 -5.44,-19.84 -5.44,-30.1 0,-10.7 1.93,-20.96 5.77,-30.76 3.85,-9.8 9.17,-18.48 15.95,-26.02 6.79,-7.54 14.86,-13.53 24.2,-17.98 9.36,-4.45 19.53,-6.67 30.55,-6.67 11.31,0 21.6,2.37 30.88,7.12 9.27,4.75 17.23,10.97 23.86,18.66 6.63,7.69 11.77,16.4 15.39,26.13 3.61,9.73 5.42,19.65 5.42,29.75 0,10.71 -1.91,20.97 -5.76,30.77 -3.85,9.8 -9.16,18.43 -15.96,25.9 -6.78,7.47 -14.81,13.42 -24.08,17.87 -9.29,4.45 -19.42,6.67 -30.44,6.67zm-49.99 -81.44c0,7.54 1.17,14.86 3.5,21.95 2.35,7.09 5.7,13.34 10.08,18.78 4.37,5.42 9.64,9.76 15.83,13 6.19,3.24 13.13,4.87 20.81,4.87 7.84,0 14.9,-1.7 21.15,-5.09 6.27,-3.4 11.54,-7.89 15.84,-13.47 4.3,-5.58 7.58,-11.83 9.85,-18.77 2.26,-6.94 3.39,-14.03 3.39,-21.27 0,-7.69 -1.22,-15.04 -3.62,-22.05 -2.42,-7.01 -5.81,-13.2 -10.19,-18.56 -4.37,-5.35 -9.65,-9.64 -15.83,-12.89 -6.18,-3.24 -13.05,-4.86 -20.59,-4.86 -7.84,0 -14.89,1.7 -21.15,5.09 -6.26,3.39 -11.53,7.8 -15.84,13.23 -4.29,5.43 -7.57,11.65 -9.83,18.67 -2.27,7.01 -3.4,14.13 -3.4,21.37zm173.48 80.31l0 -160.61 69.9 0c7.23,0 13.91,1.5 20.02,4.52 6.11,3.02 11.35,6.97 15.72,11.88 4.37,4.89 7.81,10.47 10.3,16.74 2.49,6.25 3.73,12.62 3.73,19.12 0,5.42 -0.76,10.63 -2.26,15.6 -1.51,4.98 -3.62,9.58 -6.34,13.8 -2.72,4.22 -6.03,7.89 -9.96,10.98 -3.92,3.09 -8.21,5.38 -12.89,6.89l38.24 61.08 -28.74 0 -35.29 -55.88 -37.1 0 0 55.88 -25.33 0zm25.33 -78.27l44.34 0c3.62,0 6.9,-0.79 9.84,-2.38 2.94,-1.58 5.47,-3.76 7.58,-6.55 2.12,-2.79 3.78,-6 4.98,-9.62 1.2,-3.62 1.8,-7.47 1.8,-11.53 0,-4.08 -0.71,-7.93 -2.14,-11.55 -1.43,-3.62 -3.32,-6.78 -5.66,-9.5 -2.33,-2.71 -5.05,-4.86 -8.14,-6.44 -3.09,-1.59 -6.3,-2.38 -9.61,-2.38l-42.99 0 0 59.95zm146.79 78.27l0 -160.39 25.33 0 0 160.39 -25.33 0zm70.55 -19.45l97.49 -118.77 -95.23 0 0 -22.39 124.65 0 0 19.45 -95.02 118.77 95.46 0 0 22.39 -127.35 0 0 -19.45zm157.18 19.45l64.7 -160.61 20.81 0 64.48 160.61 -26.92 0 -17.2 -43.66 -61.99 0 -16.73 43.66 -27.15 0zm75.11 -132.34l-26.69 69.91 52.47 0 -25.78 -69.91zm161.22 156.48l8.7 -23.25c-8.15,-1.04 -13.72,-3.18 -22.46,-8.24 -8.74,-5.05 -16.21,-11.42 -22.39,-19.11 -6.18,-7.7 -11.01,-16.33 -14.48,-25.91 -3.47,-9.58 -5.2,-19.26 -5.2,-29.07 0,-9.65 1.73,-19.26 5.2,-28.84 3.47,-9.58 8.48,-18.18 15.04,-25.79 6.56,-7.61 14.59,-13.76 24.09,-18.43 9.51,-4.68 20.29,-7.02 32.36,-7.02 14.32,0 26.65,3.24 36.99,9.72 10.33,6.49 18.06,14.94 23.18,25.35l-19.91 13.34c-2.11,-4.83 -4.75,-8.89 -7.91,-12.21 -3.17,-3.32 -6.61,-5.96 -10.3,-7.92 -3.69,-1.96 -7.5,-3.36 -11.42,-4.19 -3.92,-0.83 -7.77,-1.24 -11.54,-1.24 -8.15,0 -15.35,1.7 -21.6,5.09 -6.27,3.39 -11.51,7.88 -15.73,13.46 -4.22,5.58 -7.38,11.84 -9.5,18.78 -2.11,6.94 -3.16,13.87 -3.16,20.81 0,7.84 1.24,15.31 3.73,22.39 2.49,7.1 6,13.35 10.52,18.78 4.52,5.43 9.87,9.77 16.06,13.01 6.18,3.24 12.97,4.86 20.36,4.86 3.77,0 7.73,-0.49 11.88,-1.47 4.14,-0.98 8.07,-2.56 11.76,-4.75 3.69,-2.18 7.12,-4.94 10.29,-8.25 3.17,-3.32 5.81,-7.32 7.92,-11.99l21.04 11.99c-2.26,5.42 -5.39,10.29 -9.39,14.58 -3.99,4.31 -8.56,8.04 -13.69,11.2 -5.12,3.17 -10.55,5.7 -16.29,7.58 -5.72,1.88 -11.53,3.06 -17.41,3.51l-8.89 26.62 -17.85 -3.39zm111.54 -24.14l64.69 -160.61 20.82 0 64.47 160.61 -26.92 0 -17.19 -43.66 -61.99 0 -16.74 43.66 -27.14 0zm75.1 -132.34l-26.69 69.91 52.48 0 -25.79 -69.91zm14.25 -48.86c-3.47,0 -6.48,-0.49 -9.05,-1.47 -2.56,-0.98 -4.93,-2.11 -7.12,-3.4 -2.19,-1.27 -4.34,-2.4 -6.45,-3.39 -2.11,-0.98 -4.37,-1.47 -6.79,-1.47 -2.56,0 -4.56,0.53 -5.99,1.59 -1.44,1.05 -2.52,2.22 -3.28,3.5 -0.76,1.29 -1.25,2.53 -1.47,3.74 -0.23,1.2 -0.34,1.88 -0.34,2.03l-14.03 0c0,-1.2 0.38,-3.24 1.13,-6.11 0.76,-2.86 2.07,-5.77 3.96,-8.7 1.89,-2.95 4.38,-5.55 7.47,-7.81 3.09,-2.27 6.97,-3.4 11.65,-3.4 3.32,0 6.22,0.53 8.71,1.59 2.49,1.05 4.83,2.19 7.01,3.39 2.19,1.21 4.37,2.34 6.56,3.39 2.19,1.06 4.64,1.59 7.35,1.59 2.72,0 4.91,-0.53 6.56,-1.59 1.66,-1.05 2.9,-2.26 3.73,-3.62 0.83,-1.35 1.36,-2.6 1.59,-3.73 0.23,-1.13 0.34,-1.85 0.34,-2.15l14.26 0c0,0.91 -0.42,2.79 -1.25,5.66 -0.83,2.86 -2.23,5.8 -4.19,8.82 -1.96,3.02 -4.6,5.7 -7.91,8.03 -3.32,2.34 -7.47,3.51 -12.45,3.51zm166.92 182.33c-11.31,0 -21.6,-2.29 -30.88,-6.9 -9.27,-4.59 -17.27,-10.7 -23.98,-18.32 -6.71,-7.62 -11.87,-16.32 -15.49,-26.12 -3.62,-9.81 -5.43,-19.84 -5.43,-30.1 0,-10.7 1.92,-20.96 5.77,-30.76 3.85,-9.8 9.16,-18.48 15.95,-26.02 6.79,-7.54 14.86,-13.53 24.2,-17.98 9.36,-4.45 19.53,-6.67 30.54,-6.67 11.32,0 21.61,2.37 30.88,7.12 9.28,4.75 17.23,10.97 23.87,18.66 6.63,7.69 11.76,16.4 15.38,26.13 3.62,9.73 5.43,19.65 5.43,29.75 0,10.71 -1.92,20.97 -5.76,30.77 -3.85,9.8 -9.17,18.43 -15.96,25.9 -6.78,7.47 -14.81,13.42 -24.09,17.87 -9.28,4.45 -19.42,6.67 -30.43,6.67zm-49.99 -81.44c0,7.54 1.17,14.86 3.5,21.95 2.35,7.09 5.7,13.34 10.08,18.78 4.36,5.42 9.64,9.76 15.82,13 6.19,3.24 13.13,4.87 20.82,4.87 7.84,0 14.9,-1.7 21.15,-5.09 6.26,-3.4 11.54,-7.89 15.84,-13.47 4.3,-5.58 7.57,-11.83 9.84,-18.77 2.26,-6.94 3.39,-14.03 3.39,-21.27 0,-7.69 -1.21,-15.04 -3.62,-22.05 -2.41,-7.01 -5.8,-13.2 -10.18,-18.56 -4.38,-5.35 -9.65,-9.64 -15.84,-12.89 -6.18,-3.24 -13.04,-4.86 -20.58,-4.86 -7.84,0 -14.89,1.7 -21.15,5.09 -6.26,3.39 -11.54,7.8 -15.84,13.23 -4.29,5.43 -7.58,11.65 -9.84,18.67 -2.26,7.01 -3.39,14.13 -3.39,21.37zm256.05 80.31l0 -160.61 57.01 0c12.97,0 24.31,2.1 34.04,6.33 9.73,4.22 17.87,9.95 24.43,17.19 6.57,7.24 11.5,15.73 14.82,25.45 3.32,9.73 4.98,20.1 4.98,31.11 0,12.21 -1.85,23.26 -5.55,33.14 -3.69,9.88 -8.93,18.33 -15.72,25.34 -6.79,7.01 -15,12.43 -24.66,16.28 -9.65,3.85 -20.43,5.77 -32.34,5.77l-57.01 0zm109.49 -80.53c0,-8.45 -1.17,-16.22 -3.51,-23.3 -2.33,-7.09 -5.77,-13.16 -10.29,-18.22 -4.52,-5.05 -10.03,-9.01 -16.51,-11.87 -6.49,-2.87 -13.88,-4.3 -22.17,-4.3l-31.68 0 0 115.83 31.68 0c8.44,0 15.94,-1.48 22.51,-4.41 6.55,-2.95 12.06,-7.02 16.51,-12.22 4.45,-5.2 7.8,-11.35 10.06,-18.44 2.26,-7.09 3.4,-14.78 3.4,-23.07zm183.89 58.14l0 22.39 -110.18 0 0 -160.61 108.14 0 0 22.39 -82.8 0 0 45.69 71.72 0 0 21.05 -71.72 0 0 49.09 84.84 0zm130.48 22.39l0 -160.61 69.9 0c7.24,0 13.91,1.5 20.02,4.52 6.11,3.02 11.35,6.97 15.73,11.88 4.37,4.89 7.8,10.47 10.29,16.74 2.49,6.25 3.73,12.62 3.73,19.12 0,5.42 -0.76,10.63 -2.26,15.6 -1.5,4.98 -3.62,9.58 -6.34,13.8 -2.71,4.22 -6.02,7.89 -9.95,10.98 -3.92,3.09 -8.22,5.38 -12.89,6.89l38.23 61.08 -28.73 0 -35.3 -55.88 -37.09 0 0 55.88 -25.34 0zm25.34 -78.27l44.33 0c3.62,0 6.9,-0.79 9.85,-2.38 2.94,-1.58 5.46,-3.76 7.58,-6.55 2.11,-2.79 3.77,-6 4.97,-9.62 1.21,-3.62 1.81,-7.47 1.81,-11.53 0,-4.08 -0.71,-7.93 -2.14,-11.55 -1.44,-3.62 -3.32,-6.78 -5.67,-9.5 -2.33,-2.71 -5.05,-4.86 -8.14,-6.44 -3.09,-1.59 -6.3,-2.38 -9.61,-2.38l-42.98 0 0 59.95zm256.95 55.88l0 22.39 -110.17 0 0 -160.61 108.14 0 0 22.39 -82.8 0 0 45.69 71.71 0 0 21.05 -71.71 0 0 49.09 84.83 0zm140.9 -100.44c-1.51,-1.66 -3.69,-3.44 -6.56,-5.33 -2.87,-1.87 -6.22,-3.65 -10.06,-5.31 -3.85,-1.66 -8.12,-3.02 -12.78,-4.07 -4.68,-1.06 -9.66,-1.58 -14.94,-1.58 -9.95,0 -17.49,1.96 -22.62,5.88 -5.13,3.92 -7.69,9.42 -7.69,16.51 0,3.93 0.83,7.13 2.49,9.62 1.66,2.49 4.15,4.64 7.46,6.44 3.32,1.82 7.47,3.44 12.45,4.87 4.97,1.43 10.78,2.97 17.41,4.63 7.84,2.12 15.05,4.31 21.61,6.57 6.56,2.26 12.14,5.08 16.74,8.48 4.59,3.4 8.18,7.58 10.75,12.56 2.56,4.97 3.84,11.16 3.84,18.54 0,8.45 -1.58,15.61 -4.75,21.49 -3.17,5.89 -7.42,10.68 -12.79,14.37 -5.35,3.69 -11.57,6.41 -18.66,8.14 -7.08,1.74 -14.62,2.61 -22.62,2.61 -12.21,0 -24.05,-1.85 -35.52,-5.54 -11.46,-3.71 -21.79,-9.09 -30.99,-16.18l11.76 -21.71c1.96,1.96 4.75,4.13 8.37,6.55 3.62,2.42 7.89,4.64 12.79,6.67 4.9,2.04 10.29,3.78 16.17,5.21 5.89,1.43 11.99,2.15 18.32,2.15 9.66,0 17.16,-1.78 22.51,-5.32 5.36,-3.54 8.04,-8.71 8.04,-15.49 0,-4.08 -0.99,-7.47 -2.95,-10.19 -1.96,-2.71 -4.82,-5.08 -8.59,-7.12 -3.77,-2.04 -8.37,-3.84 -13.8,-5.43 -5.43,-1.59 -11.61,-3.28 -18.55,-5.09 -7.99,-2.11 -14.97,-4.34 -20.93,-6.67 -5.95,-2.34 -10.89,-5.17 -14.81,-8.49 -3.92,-3.32 -6.9,-7.2 -8.94,-11.65 -2.04,-4.45 -3.05,-9.84 -3.05,-16.17 0,-7.85 1.47,-14.82 4.41,-20.93 2.94,-6.11 7.01,-11.23 12.21,-15.38 5.21,-4.15 11.35,-7.27 18.44,-9.39 7.09,-2.12 14.71,-3.16 22.85,-3.16 11.16,0 21.3,1.73 30.42,5.19 9.13,3.48 17.16,7.77 24.1,12.9l-11.54 20.82zm64.44 122.83l0 -160.39 25.34 0 0 160.39 -25.34 0zm18.32 -177.35l-16.29 -4.98 12.9 -24.89 35.31 -5.03 -31.92 34.9zm63.99 177.35l0 -160.61 57.01 0c12.97,0 24.31,2.1 34.04,6.33 9.73,4.22 17.87,9.95 24.43,17.19 6.57,7.24 11.5,15.73 14.82,25.45 3.32,9.73 4.98,20.1 4.98,31.11 0,12.21 -1.84,23.26 -5.55,33.14 -3.69,9.88 -8.93,18.33 -15.71,25.34 -6.8,7.01 -15.01,12.43 -24.66,16.28 -9.66,3.85 -20.44,5.77 -32.35,5.77l-57.01 0zm109.49 -80.53c0,-8.45 -1.17,-16.22 -3.51,-23.3 -2.33,-7.09 -5.77,-13.16 -10.29,-18.22 -4.52,-5.05 -10.03,-9.01 -16.51,-11.87 -6.49,-2.87 -13.88,-4.3 -22.17,-4.3l-31.68 0 0 115.83 31.68 0c8.44,0 15.94,-1.48 22.51,-4.41 6.55,-2.95 12.06,-7.02 16.51,-12.22 4.45,-5.2 7.8,-11.35 10.06,-18.44 2.27,-7.09 3.4,-14.78 3.4,-23.07zm140.45 58.82c8.45,0 15.46,-1.66 21.04,-4.98 5.59,-3.32 10.07,-7.65 13.46,-13.01 3.39,-5.35 5.81,-11.46 7.24,-18.33 1.43,-6.85 2.15,-13.91 2.15,-21.15l0 -81.43 25.56 0 0 81.43c0,11.01 -1.28,21.38 -3.84,31.11 -2.57,9.73 -6.64,18.25 -12.22,25.56 -5.58,7.32 -12.78,13.09 -21.6,17.31 -8.83,4.22 -19.42,6.33 -31.79,6.33 -12.81,0 -23.64,-2.22 -32.46,-6.67 -8.82,-4.45 -15.95,-10.4 -21.38,-17.87 -5.43,-7.47 -9.35,-16.03 -11.76,-25.67 -2.42,-9.66 -3.62,-19.69 -3.62,-30.1l0 -81.43 25.33 0 0 81.43c0,7.4 0.72,14.52 2.16,21.38 1.43,6.87 3.84,12.97 7.23,18.33 3.4,5.35 7.92,9.65 13.58,12.89 5.65,3.24 12.63,4.87 20.92,4.87zm189.77 22.84c-11.31,0 -21.6,-2.29 -30.88,-6.9 -9.27,-4.59 -17.27,-10.7 -23.98,-18.32 -6.71,-7.62 -11.87,-16.32 -15.49,-26.12 -3.62,-9.81 -5.43,-19.84 -5.43,-30.1 0,-10.7 1.92,-20.96 5.77,-30.76 3.84,-9.8 9.16,-18.48 15.94,-26.02 6.8,-7.54 14.86,-13.53 24.21,-17.98 9.35,-4.45 19.53,-6.67 30.54,-6.67 11.32,0 21.61,2.37 30.88,7.12 9.27,4.75 17.23,10.97 23.87,18.66 6.63,7.69 11.76,16.4 15.38,26.13 3.62,9.73 5.42,19.65 5.42,29.75 0,10.71 -1.91,20.97 -5.76,30.77 -3.84,9.8 -9.16,18.43 -15.95,25.9 -6.79,7.47 -14.82,13.42 -24.09,17.87 -9.28,4.45 -19.42,6.67 -30.43,6.67zm-49.99 -81.44c0,7.54 1.17,14.86 3.5,21.95 2.34,7.09 5.7,13.34 10.07,18.78 4.37,5.42 9.65,9.76 15.83,13 6.19,3.24 13.13,4.87 20.82,4.87 7.84,0 14.89,-1.7 21.15,-5.09 6.26,-3.4 11.54,-7.89 15.83,-13.47 4.31,-5.58 7.58,-11.83 9.85,-18.77 2.26,-6.94 3.39,-14.03 3.39,-21.27 0,-7.69 -1.21,-15.04 -3.62,-22.05 -2.41,-7.01 -5.81,-13.2 -10.18,-18.56 -4.38,-5.35 -9.66,-9.64 -15.84,-12.89 -6.18,-3.24 -13.04,-4.86 -20.58,-4.86 -7.85,0 -14.89,1.7 -21.16,5.09 -6.25,3.39 -11.53,7.8 -15.83,13.23 -4.3,5.43 -7.58,11.65 -9.84,18.67 -2.26,7.01 -3.39,14.13 -3.39,21.37zm268.03 -42.52c-1.5,-1.66 -3.69,-3.44 -6.55,-5.33 -2.87,-1.87 -6.23,-3.65 -10.07,-5.31 -3.85,-1.66 -8.11,-3.02 -12.78,-4.07 -4.68,-1.06 -9.66,-1.58 -14.93,-1.58 -9.96,0 -17.5,1.96 -22.62,5.88 -5.14,3.92 -7.7,9.42 -7.7,16.51 0,3.93 0.83,7.13 2.49,9.62 1.66,2.49 4.15,4.64 7.47,6.44 3.32,1.82 7.46,3.44 12.44,4.87 4.97,1.43 10.78,2.97 17.42,4.63 7.84,2.12 15.04,4.31 21.6,6.57 6.56,2.26 12.14,5.08 16.74,8.48 4.6,3.4 8.18,7.58 10.75,12.56 2.56,4.97 3.84,11.16 3.84,18.54 0,8.45 -1.58,15.61 -4.75,21.49 -3.16,5.89 -7.42,10.68 -12.78,14.37 -5.35,3.69 -11.57,6.41 -18.66,8.14 -7.09,1.74 -14.63,2.61 -22.62,2.61 -12.22,0 -24.06,-1.85 -35.52,-5.54 -11.47,-3.71 -21.79,-9.09 -30.99,-16.18l11.76 -21.71c1.96,1.96 4.75,4.13 8.37,6.55 3.62,2.42 7.88,4.64 12.78,6.67 4.9,2.04 10.29,3.78 16.17,5.21 5.89,1.43 11.99,2.15 18.33,2.15 9.65,0 17.16,-1.78 22.51,-5.32 5.35,-3.54 8.03,-8.71 8.03,-15.49 0,-4.08 -0.98,-7.47 -2.94,-10.19 -1.96,-2.71 -4.83,-5.08 -8.59,-7.12 -3.78,-2.04 -8.38,-3.84 -13.81,-5.43 -5.43,-1.59 -11.61,-3.28 -18.55,-5.09 -7.99,-2.11 -14.97,-4.34 -20.92,-6.67 -5.96,-2.34 -10.9,-5.17 -14.82,-8.49 -3.92,-3.32 -6.9,-7.2 -8.93,-11.65 -2.05,-4.45 -3.06,-9.84 -3.06,-16.17 0,-7.85 1.47,-14.82 4.42,-20.93 2.93,-6.11 7.01,-11.23 12.2,-15.38 5.21,-4.15 11.35,-7.27 18.45,-9.39 7.08,-2.12 14.7,-3.16 22.84,-3.16 11.16,0 21.3,1.73 30.43,5.19 9.12,3.48 17.16,7.77 24.09,12.9l-11.54 20.82z"/></g></g></svg>