<svg xmlns="http://www.w3.org/2000/svg" fill-rule="evenodd" clip-rule="evenodd" image-rendering="optimizeQuality" shape-rendering="geometricPrecision" text-rendering="geometricPrecision" viewBox="-7.130000114440918 0.5299999713897705 6600 3300"><defs><linearGradient id="b" x1="1522.39" x2="1366.69" y1="2503.71" y2="797.35" gradientUnits="userSpaceOnUse"><stop offset="0" stop-color="#006b4b"/><stop offset="0.180392" stop-color="#67a991"/><stop offset="0.380392" stop-color="#cee8d7"/><stop offset="0.509804" stop-color="#00a3e3"/><stop offset="0.639216" stop-color="#cfe9d8"/><stop offset="1" stop-color="#046b4c"/></linearGradient><linearGradient id="a" x1="1976.26" x2="1976.26" y1="1762.71" y2="804.21" gradientUnits="userSpaceOnUse"><stop offset="0" stop-color="#006b4b"/><stop offset="0.168627" stop-color="#67a991"/><stop offset="0.360784" stop-color="#cee8d7"/><stop offset="0.490196" stop-color="#00a3e3"/><stop offset="0.619608" stop-color="#cfe9d8"/><stop offset="1" stop-color="#046b4c"/></linearGradient><linearGradient id="c" x1="1412.17" x2="1412.17" y1="1772.59" y2="1045.51" gradientUnits="userSpaceOnUse"><stop offset="0" stop-color="#006b4b"/><stop offset="0.172549" stop-color="#67a991"/><stop offset="0.368627" stop-color="#cee8d7"/><stop offset="0.490196" stop-color="#00a3e3"/><stop offset="0.619608" stop-color="#cfe9d8"/><stop offset="1" stop-color="#046b4c"/></linearGradient></defs><g><rect width="6600" height="3300" x="-7.13" y="0.53" fill="none"/><g><path fill="#00559c" fill-rule="nonzero" d="M2260.99 2053.66l25.32 0c47.35,0 73.22,-6.6 99.65,-25.32 28.08,-19.82 41.84,-50.1 41.84,-94.7 0,-42.94 -13.76,-73.22 -41.29,-92.49 -22.58,-15.96 -45.7,-21.47 -87.53,-21.47l-165.72 0c3.31,5.51 3.86,9.36 3.86,18.17l0 330.87c0,7.71 -1.11,12.12 -3.86,18.17l132.68 0c-3.85,-8.26 -4.95,-13.21 -4.95,-18.17l0 -115.06zm3359.11 40.19l103.5 0 24.22 74.87c1.65,6.06 2.75,10.47 2.75,13.77 0,0.55 0,2.2 -0.54,4.4l140.94 0c-4.96,-4.95 -7.72,-8.81 -11.02,-18.17l-118.36 -330.87c-1.65,-5.51 -3.31,-10.46 -3.31,-14.86l0 -3.31 -104.05 0c0.55,2.21 0.55,3.31 0.55,3.86 0,2.75 -1.1,7.7 -3.3,14.31l-115.62 330.87c-3.3,9.36 -5.5,13.22 -10.45,18.17l66.61 0c-0.55,-2.2 -1.1,-3.85 -1.1,-4.4 0,-2.76 1.1,-7.71 3.3,-13.77l25.88 -74.87zm19.27 -55.6l33.58 -106.26 32.48 106.26 -66.06 0zm-123.32 -206.45c-34.69,-13.77 -61.67,-18.72 -101.85,-18.72 -69.92,0 -115.07,14.31 -152.5,48.45 -35.78,33.03 -51.2,74.32 -51.2,138.18 0,130.47 62.76,193.79 191.58,193.79 44.6,0 74.33,-4.96 113.97,-19.82l0 -75.98c-37.44,28.63 -61.67,39.09 -88.64,39.09 -23.12,0 -45.7,-11.56 -60.56,-30.27 -18.72,-24.23 -26.97,-56.16 -26.97,-105.16 0,-82.03 31.92,-131.58 84.77,-131.58 28.63,0 53.96,11.56 91.4,40.74l0 -78.72zm-480.62 -12.12c3.3,5.51 3.85,9.36 3.85,18.17l0 330.87c0,8.26 -0.55,12.12 -3.85,18.17l131.57 0c-3.3,-6.05 -3.85,-9.91 -3.85,-18.17l0 -330.87c0,-8.81 0.55,-12.66 3.85,-18.17l-131.57 0zm-317.66 0l0 63.32c10.46,-2.21 15.96,-2.76 24.22,-2.76l60.56 0 0 288.48c0,8.81 -0.55,12.66 -3.85,18.17l131.57 0c-3.3,-6.05 -3.85,-9.91 -3.85,-18.17l0 -288.48 66.07 0c7.16,0 11.56,0.55 19.82,2.76l0 -63.32 -294.54 0zm-291.79 149.75l151.95 199.29c7.71,9.36 9.36,12.66 11.01,18.17l107.91 0c-2.76,-7.7 -3.86,-12.11 -3.86,-18.17l0 -330.87c0,-12.11 0.56,-13.77 3.86,-18.17l-62.76 0c3.3,6.06 3.85,9.91 3.85,18.72l0 203.15 -154.7 -203.15c-7.16,-9.91 -8.81,-13.21 -10.46,-18.72l-106.26 0c3.31,5.51 3.86,8.81 3.86,18.17l0 330.87c0,8.26 -0.55,12.12 -3.86,18.17l63.32 0c-3.31,-5.51 -3.86,-9.36 -3.86,-18.17l0 -199.29zm-345.18 124.42l103.5 0 24.22 74.87c1.65,6.06 2.75,10.47 2.75,13.77 0,0.55 0,2.2 -0.54,4.4l140.93 0c-4.95,-4.95 -7.71,-8.81 -11.01,-18.17l-118.36 -330.87c-1.65,-5.51 -3.31,-10.46 -3.31,-14.86l0 -3.31 -104.05 0c0.55,2.21 0.55,3.31 0.55,3.86 0,2.75 -1.1,7.7 -3.3,14.31l-104.34 298.6 0 -9.02c-7.71,3.31 -10.46,3.86 -25.88,3.86l-76.52 0 0 -293.44c0,-8.81 0.55,-12.66 3.85,-18.17l-131.58 0c3.31,5.51 3.86,9.36 3.86,18.17l0 330.32c0,8.81 -0.55,12.67 -3.86,18.72l208.4 0 21.73 0 44.88 0c-0.55,-2.2 -1.1,-3.85 -1.1,-4.4 0,-2.76 1.1,-7.71 3.3,-13.77l25.88 -74.87zm19.27 -55.6l33.58 -106.26 32.48 106.26 -66.06 0zm-41.84 -251.6l67.16 0 39.09 -48.45 39.09 48.45 68.27 0 -78.18 -84.23 -55.6 0 -79.83 84.23zm-1797.24 211.96l0 -127.17 10.45 0c22.58,0 31.38,17.06 31.38,62.76 0,50.1 -7.15,64.41 -32.47,64.41l-9.36 0zm232.32 95.24l103.51 0 24.22 74.87c1.65,6.06 2.75,10.47 2.75,13.77 0,0.55 0,2.2 -0.55,4.4l140.94 0c-4.95,-4.95 -7.71,-8.81 -11.01,-18.17l-118.37 -330.87c-1.65,-5.51 -3.3,-10.46 -3.3,-14.86l0 -3.31 -104.05 0c0.55,2.21 0.55,3.31 0.55,3.86 0,2.75 -1.1,7.7 -3.31,14.31l-115.61 330.87c-3.3,9.36 -5.5,13.22 -10.46,18.17l66.61 0c-0.54,-2.2 -1.09,-3.85 -1.09,-4.4 0,-2.76 1.09,-7.71 3.3,-13.77l25.87 -74.87zm19.27 -55.6l33.58 -106.26 32.49 106.26 -66.07 0zm325.92 -68.82l151.94 199.29c7.72,9.36 9.37,12.66 11.02,18.17l107.91 0c-2.76,-7.7 -3.86,-12.11 -3.86,-18.17l0 -330.87c0,-12.11 0.55,-13.77 3.86,-18.17l-62.76 0c3.3,6.06 3.84,9.91 3.84,18.72l0 203.15 -154.69 -203.15c-7.16,-9.91 -8.81,-13.21 -10.47,-18.72l-106.25 0c3.3,5.51 3.86,8.81 3.86,18.17l0 330.87c0,8.26 -0.56,12.12 -3.86,18.17l63.31 0c-3.3,-5.51 -3.85,-9.36 -3.85,-18.17l0 -199.29zm386.47 124.42l103.51 0 24.22 74.87c1.65,6.06 2.75,10.47 2.75,13.77 0,0.55 0,2.2 -0.55,4.4l140.94 0c-4.95,-4.95 -7.71,-8.81 -11.01,-18.17l-118.37 -330.87c-1.65,-5.51 -3.3,-10.46 -3.3,-14.86l0 -3.31 -104.05 0c0.55,2.21 0.55,3.31 0.55,3.86 0,2.75 -1.1,7.7 -3.31,14.31l-115.61 330.87c-3.3,9.36 -5.5,13.22 -10.46,18.17l66.61 0c-0.54,-2.2 -1.09,-3.85 -1.09,-4.4 0,-2.76 1.09,-7.71 3.3,-13.77l25.87 -74.87zm19.28 -55.6l33.57 -106.26 32.49 106.26 -66.06 0zm218.01 -218.57l0 63.32c10.46,-2.21 15.96,-2.76 24.22,-2.76l60.56 0 0 288.48c0,8.81 -0.55,12.66 -3.85,18.17l131.57 0c-3.3,-6.05 -3.85,-9.91 -3.85,-18.17l0 -288.48 66.07 0c7.15,0 11.56,0.55 19.81,2.76l0 -63.32 -294.53 0z"/><g fill="#00559c"><path fill-rule="nonzero" d="M5921.02 1818.1l0 -92.34 37.39 0c7.52,0 13.23,0.83 17.14,2.49 3.91,1.65 7.03,4.58 9.37,8.77 2.34,4.19 3.5,8.83 3.5,13.91 0,6.56 -1.95,12.08 -5.82,16.57 -3.87,4.49 -9.84,7.33 -17.93,8.56 2.97,1.55 5.21,3.09 6.74,4.6 3.26,3.27 6.34,7.37 9.23,12.29l14.59 25.15 -13.94 0 -11.16 -19.21c-3.24,-5.57 -5.93,-9.81 -8.03,-12.75 -2.12,-2.95 -4.01,-4.99 -5.68,-6.17 -1.64,-1.16 -3.35,-1.98 -5.08,-2.45 -1.26,-0.28 -3.32,-0.43 -6.2,-0.43l-12.93 0 0 41.01 -11.19 0zm11.19 -51.59l23.96 0c5.11,0 9.07,-0.58 11.94,-1.74 2.87,-1.14 5.05,-2.98 6.52,-5.55 1.49,-2.53 2.24,-5.28 2.24,-8.27 0,-4.37 -1.44,-7.98 -4.32,-10.79 -2.89,-2.82 -7.44,-4.21 -13.67,-4.21l-26.67 0 0 30.56z"/><path d="M5955.15 1689.06c47.81,0 86.56,38.75 86.56,86.56 0,47.8 -38.75,86.56 -86.56,86.56 -47.81,0 -86.56,-38.76 -86.56,-86.56 0,-47.81 38.75,-86.56 86.56,-86.56zm0 8.06c43.36,0 78.5,35.14 78.5,78.5 0,43.35 -35.14,78.49 -78.5,78.49 -43.36,0 -78.5,-35.14 -78.5,-78.49 0,-43.36 35.14,-78.5 78.5,-78.5z"/></g><g><path fill="url(#a)" d="M1516.69 804.21l604.71 33.78c150.73,8.41 307.71,208.68 314.19,427.81 5.9,199.44 -103.36,418.57 -239.7,435.46l-173.14 21.43 -324.93 27.89 -141.25 12.13c158.5,-77.85 257.63,-268.87 257.53,-442.4 -0.08,-129.22 -42.93,-264.12 -120.63,-367.67 -48.89,-65.16 -108.66,-114.75 -176.78,-148.43z"/><path fill="url(#b)" d="M2102.2 2508.71l-864.51 0c-296.31,-249.26 -459.76,-660.88 -450.43,-1033.26 9.26,-369.49 188.91,-701.43 531.08,-682.32l116.43 6.5c94.13,28.77 175.27,85.16 237.9,168.62 19.7,26.26 37.05,54.64 51.94,84.49l-565.48 -33.95 -4.19 4.57c-69.51,75.9 -118.42,167.91 -136.82,269.52 -15.58,85.97 -8.53,176.84 25.2,257.8 33.19,79.65 91.59,145.65 165.29,190.19 64.7,39.12 143.27,62.42 219.23,56.93 5.21,-0.37 10.37,-0.91 15.5,-1.51l182.62 -15.67c100.06,297.36 279.7,529.61 476.24,728.09z"/><path fill="url(#c)" d="M1169.98 1045.5c-64,71.38 -109.12,157.28 -126.27,252.02 -14.67,81.02 -8.19,166.83 23.62,243.16 31.06,74.55 85.77,136.25 154.74,177.94 60.05,36.31 133.35,58.34 203.9,53.24 217.8,-15.73 362.24,-248.65 362.12,-451.53 -0.05,-81.17 -17.76,-164.85 -50.96,-240.78l-567.15 -34.05z"/></g><path fill="#00559c" d="M5963.34 2390.31l-3926.73 0c-14.76,-16.34 -29.27,-32.82 -43.51,-49.46l3970.24 0 0 49.46zm-4890.81 0l-528.51 0 0 -49.46 489.22 0c12.71,16.83 25.8,33.34 39.29,49.46z"/></g></g></svg>