<svg  id="fndm-esekn42179" viewBox="-0.0005579659482464194 -0.0003732442855834961 200.0005645751953 102.94037628173828" xmlns="http://www.w3.org/2000/svg">
   <path d="m50.982,0.002c-3.881,0.07 -7.966,0.923 -11.803,2.61c-3.82,1.684 -7.373,4.14 -10.52,7.013c-3.127,2.89 -5.881,6.144 -8.297,9.622c-2.424,3.48 -4.543,7.154 -6.372,10.862c-1.84,3.689 -3.378,7.452 -4.747,11.12c-1.37,3.667 -2.489,7.256 -3.464,10.691c-0.982,3.433 -1.767,6.712 -2.438,9.75a196.008,196.008 0 0 0 -2.651,14.798c-0.24,1.788 -0.414,3.179 -0.513,4.149c-0.118,0.965 -0.171,1.497 -0.171,1.497a0.601,0.601 0 0 0 0.513,0.684a0.611,0.611 0 0 0 0.727,-0.513s0.106,-0.495 0.256,-1.454c0.144,-0.958 0.384,-2.378 0.685,-4.149c0.658,-3.537 1.6,-8.555 3.164,-14.497c0.777,-2.973 1.73,-6.191 2.823,-9.537c1.086,-3.33 2.321,-6.813 3.806,-10.35c1.47,-3.52 3.129,-7.107 5.046,-10.605c1.908,-3.504 4.079,-6.945 6.5,-10.136c2.406,-3.205 5.092,-6.13 8.04,-8.638c2.94,-2.486 6.174,-4.516 9.495,-5.816c3.303,-1.306 6.716,-1.814 9.921,-1.754c3.2,0.086 6.229,0.74 8.896,1.71c2.684,0.983 4.996,2.235 7.013,3.465c2.008,1.25 3.709,2.434 5.047,3.507c0.17,0.13 0.31,0.254 0.47,0.385c-0.127,0.053 -0.263,0.073 -0.385,0.128c-1.486,0.6 -2.896,1.358 -4.277,2.18a35.752,35.752 0 0 0 -3.977,2.695a43.698,43.698 0 0 0 -3.592,3.165a47.602,47.602 0 0 0 -3.207,3.378c-2.03,2.352 -3.776,4.852 -5.346,7.313c-3.105,4.958 -5.33,9.88 -6.928,14.241c-1.596,4.37 -2.535,8.165 -2.951,10.863c-0.21,1.35 -0.315,2.38 -0.342,3.121c-0.022,0.389 0,0.416 0,0.6l0,0.213c0,0.305 0.25,0.539 0.556,0.556c0.315,0.017 0.588,-0.216 0.599,-0.513c0,0 -0.012,-0.125 0,-0.3c0.01,-0.183 0.005,-0.135 0.042,-0.47c0.062,-0.677 0.199,-1.699 0.47,-2.994c0.516,-2.566 1.58,-6.214 3.336,-10.392c1.752,-4.16 4.173,-8.897 7.399,-13.514a57.633,57.633 0 0 1 5.431,-6.714a42.226,42.226 0 0 1 3.122,-3.036a37.605,37.605 0 0 1 3.464,-2.737a32.252,32.252 0 0 1 3.72,-2.31a26.855,26.855 0 0 1 3.892,-1.71c0.654,-0.25 1.345,-0.436 2.01,-0.642c0.156,-0.039 0.277,-0.092 0.428,-0.128c0.522,-0.125 1.055,-0.256 1.582,-0.342c0.67,-0.13 1.345,-0.202 2.01,-0.3c0.327,-0.046 0.652,-0.088 0.984,-0.128c0.257,-0.022 0.5,-0.03 0.77,-0.042l0.256,0c1.314,-0.081 2.623,0.063 3.892,0.17c1.259,0.17 2.46,0.377 3.635,0.685a35.598,35.598 0 0 1 6.5,2.352a46.548,46.548 0 0 1 5.175,2.865c0.734,0.495 1.425,0.946 2.053,1.412c0.62,0.45 1.2,0.88 1.71,1.282c0.493,0.394 0.976,0.722 1.369,1.027c0.383,0.313 0.68,0.58 0.94,0.812c0.54,0.443 0.856,0.685 0.856,0.685l0.043,0.085c0.027,0.022 0.094,0.026 0.128,0.043a2.87,2.87 0 0 0 3.464,-4.576s-0.352,-0.224 -0.94,-0.684a28.624,28.624 0 0 1 -1.07,-0.813c-0.443,-0.313 -0.963,-0.667 -1.54,-1.069c-0.56,-0.41 -1.219,-0.835 -1.924,-1.283c-0.69,-0.47 -1.478,-0.912 -2.31,-1.411c-1.703,-0.974 -3.655,-2.03 -5.9,-2.951c-2.235,-0.937 -4.772,-1.794 -7.528,-2.352a32.542,32.542 0 0 0 -4.276,-0.556c-1.48,-0.072 -2.992,-0.108 -4.533,0.043c-0.371,0.027 -0.746,0.04 -1.112,0.085c-0.195,-0.162 -0.483,-0.417 -0.898,-0.77a35.58,35.58 0 0 0 -1.454,-1.154c-0.587,-0.445 -1.23,-0.958 -2.01,-1.497c-1.52,-1.129 -3.463,-2.415 -5.774,-3.72a45.802,45.802 0 0 0 -8.296,-3.636c-3.178,-1.003 -6.812,-1.718 -10.692,-1.669zm134.456,41.698c-1.619,0 -3.913,0.676 -5.132,1.283l-0.599,0.3l0.385,1.71c-2.284,4.353 -27.163,52.627 -27.413,53.115a65.137,65.137 0 0 0 -1.582,2.908c-0.25,0.43 -0.264,0.826 -0.086,1.112c0.188,0.335 0.6,0.47 1.283,0.47l4.79,0c1.685,0 1.993,-0.419 2.48,-1.283l8.425,-16.85l11.248,0c2.605,-0.063 4.947,-2.707 5.003,-5.687l0,-0.855l-12.787,0l11.59,-23.008l8.596,45.46c0.475,2.232 0.686,2.565 1.839,2.565c1.053,0 3.22,-0.603 4.79,-1.069l0.77,-0.256c0.709,-0.216 1.056,-0.697 0.94,-1.283l-11.418,-55.682c-0.72,-2.63 -2.118,-2.951 -3.122,-2.951l0,0.001zm-48.197,0.043c-4.253,0 -11.04,1.006 -13.258,1.796l-0.085,0.043c-1.38,0.994 -2.455,3.347 -2.609,4.661a0.737,0.737 0 0 0 0.77,0.727c0.062,0 0.517,-0.061 1.155,-0.128l0.085,0c0.683,-0.065 1.526,-0.192 2.224,-0.257c-0.688,3.776 -2.114,13.328 -3.678,23.393c-1.829,12.004 -3.767,24.38 -4.704,29.466c-0.072,0.39 0.026,0.72 0.214,0.983c0.294,0.407 0.804,0.486 1.026,0.513l5.474,0c1.076,0 1.687,-0.807 1.882,-1.54c0.065,-0.464 6.964,-46.251 8.21,-53.584c0.783,-0.048 2.187,-0.043 2.823,-0.043c4.037,0 7.305,1.19 9.452,3.421c2.056,2.145 3.1,5.187 2.95,8.852c-0.383,9.589 -5.022,14.455 -13.77,14.455c-1.23,0 -2.106,-0.075 -2.994,-0.427c-0.544,-0.243 -0.87,0.003 -0.898,0.598c-0.121,1.815 0.52,3.507 1.71,4.534c1.04,0.886 2.042,1.154 4.491,1.154c7.821,0 19.645,-5.344 20.228,-20.142c0.233,-5.433 -1.165,-9.807 -4.19,-12.958c-3.506,-3.65 -9.074,-5.517 -16.508,-5.517zm-41.355,0.043c-25.849,0 -36.157,19.817 -36.778,33.143c-0.443,8.334 1.717,15.305 6.286,20.143c4.818,5.102 12.264,7.824 21.512,7.868l0.384,0c5.305,0 10.262,-0.713 15.995,-2.309l0.47,-0.128l0.128,-0.513c0.25,-1.386 0.719,-4.04 1.283,-7.142c1.258,-6.863 2.825,-15.45 3.208,-17.363c0.077,-0.63 0.118,-1.432 -0.385,-2.01c-0.373,-0.45 -0.96,-0.63 -1.753,-0.642c-0.56,0 -3.35,0.27 -3.85,0.343c-3.065,0.426 -7.187,1.49 -7.227,1.496l-0.085,0.043c-1.552,1.12 -3.004,5.118 -3.165,6.244c-0.027,0.181 -0.046,0.32 0.043,0.428c0.188,0.25 0.501,0.427 0.855,0.427l1.412,-0.17c1.002,-0.097 3.558,-0.492 4.533,-0.642c-0.04,0.205 -0.067,0.47 -0.129,0.812c-0.48,2.968 -1.637,9.883 -2.523,14.113c-1.326,0.412 -4.314,0.984 -7.013,0.984c-6.437,-0.04 -11.722,-2.005 -15.225,-5.688c-3.615,-3.834 -5.325,-9.366 -5.004,-16.037c0.738,-15.77 11.89,-26.814 27.157,-26.814l0.17,0c4.652,0.027 8.879,1.715 10.264,2.266c0.584,0.233 1.162,0.385 1.711,0.385c2.422,0 3.758,-2.17 4.234,-4.191l0.128,-0.513l-0.385,-0.342c-2.81,-2.43 -9.386,-4.157 -15.994,-4.191l-0.257,0z" fill="#004877"/>
  </svg>