<svg xmlns="http://www.w3.org/2000/svg" fill-rule="evenodd" clip-rule="evenodd" image-rendering="optimizeQuality" shape-rendering="geometricPrecision" text-rendering="geometricPrecision" viewBox="-2 1 6600 3300"><g fill-rule="nonzero"><rect width="6600" height="3300" x="-2" y="1" fill="#f16701"/><g><path fill="#373435" d="M310.14 1009.36l0 1292.63 344.59 0 0 -468.81 147.14 0c327.81,0 492,-132.81 492,-412.19 0,-283.11 -164.2,-411.63 -521.81,-411.63l-461.92 0zm2790.93 -9.34l0 463.4c-76.36,-106.18 -184.52,-154.84 -318.63,-154.84 -255.18,0 -412.85,182.02 -412.85,483.76 0,307.33 171.1,500.64 396.65,500.64 150.87,0 279.9,-48.73 354.41,-182.84l0 191.85 294.29 0 0 -1297.55 -313.87 -4.42zm-226.28 558.8c126.66,0 210.47,96.85 210.47,257.03 0,162.05 -66.28,229.16 -191.06,229.16 -119.21,0 -211.25,-67.11 -211.25,-225.43 0,-160.18 85.67,-260.76 191.84,-260.76zm-631.63 242.13c0,-329.67 -137.82,-484.27 -454.46,-484.27 -143.42,0 -268.22,20.49 -378.11,67.05l5.59 216.07c111.75,-52.15 208.6,-78.23 283.11,-78.23 152.74,0 234.69,48.73 234.69,153.01l0 13.03 -128.52 0c-344.54,0 -500.27,99.79 -500.27,313.99 0,182.53 134.9,289.65 330.46,289.65 126.97,0 235,-24.65 315.09,-138.26l7.45 149 284.97 0 0 -501.04zm-359.59 50.75l55.88 0 0 27.94c0,132.21 -95.01,214.56 -210.49,214.56 -44.48,0 -114.83,-44.57 -114.83,-109.76 0,-96.85 85.05,-132.74 269.44,-132.74zm-1228.84 -609.52l93.12 0c135.97,0 206.75,59.88 206.75,186.54 0,119.21 -70.81,171.63 -208.62,171.63l-91.25 0 0 -358.17z"/><path fill="#fefefe" d="M4053.93 1009.64l-309.18 95.27 0 221.65 -203.03 0 0 236.54 184.4 0 0 320.92c0,283.08 104.3,407.9 368.79,407.9 61.47,0 126.66,-7.45 199.3,-24.21l-5.59 -241.3c-131.12,17.85 -234.69,26.25 -234.69,-151.71l0 -311.6 234.69 0 0 -236.54 -234.69 0 0 -316.92zm2231.92 350.16c-96.85,-33.52 -208.18,-63.16 -290.13,-63.16 -344.58,0 -533.52,187.59 -533.52,498.65 0,299.88 204.37,496.91 515.42,496.91 117.35,0 206.63,-15.18 290.44,-44.97l1.58 -251.45c-190.39,115.38 -496.35,53.7 -496.35,-210.32 0,-263.23 334.89,-305.53 499.25,-185.38l13.31 -240.28zm-1225.16 348.58l-367.48 0c14.9,-132.25 89.41,-206.74 191.84,-206.74 104.31,0 162.61,74.49 175.64,206.74zm272.5 113.62c0,-333.4 -138.94,-521.52 -450,-521.52 -307.32,0 -502.89,189.98 -502.89,487.99 0,324.09 204.88,512.49 556.91,512.49 124.79,0 249.31,-27.66 357.34,-66.77l0 -234.69c-111.76,52.15 -228.82,89.13 -325.67,89.13 -162.05,0 -258.91,-72.65 -271.95,-195.58l636.26 0 0 -71.05z"/></g></g></svg>