<svg  id="fndm-fej19ucsuh" viewBox="0.8537827730178833 0.18607544898986816 838.9185791015625 248.6039276123047" xmlns="http://www.w3.org/2000/svg">
   <g xmlns="http://www.w3.org/2000/svg" fill="none">
    <path d="m566.21,113.25c0,20.76 -0.38,41.54 0.2,62.29c0.2,7.22 -2.14,8.52 -8.66,8.24c-12.87,-0.54 -12.87,-0.18 -12.87,-13c0,-26.31 0.22,-52.62 -0.14,-78.92c-0.08,-6 1.65,-7 7.42,-7.77c14.14,-1.9 22.37,2.91 28.61,16.15c8.41,17.86 19.32,34.53 30.51,54.07l0,-45.52c0,-3.63 -0.18,-7.26 -0.21,-10.88c-0.11,-13.53 -0.09,-13.17 13.1,-13.63c6.27,-0.23 8.13,1.38 8.05,7.84c-0.37,28.12 -0.3,56.24 0,84.36c0,5.33 -1,6.79 -6.76,7.43c-12.68,1.41 -20.19,-2.72 -26,-14.56c-9.53,-19.39 -21,-37.81 -31.72,-56.65l-1.53,0.55zm-81.22,-28.26c8.51,-2.69 11.95,1.64 15,9.21c11.18,27.4 23,54.52 35,81.6c2.82,6.38 1.78,8.1 -5.26,8c-14.51,-0.23 -15.08,0.28 -20,-13.95c-2.78,-8.05 -7,-10.89 -15.17,-9.92a64.67,64.67 0 0 1 -17.19,0c-11.13,-1.69 -17.64,2 -20.07,13.38c-0.75,3.49 -0.94,9 -5.07,9.86a43.93,43.93 0 0 1 -17.1,0.23c-5.33,-1 -1.25,-5 -0.38,-7.11c10.42,-25.09 21.09,-50.08 31.71,-75.1c0.94,-2.22 2.28,-4.33 2.87,-6.64c2.1,-8.27 6.58,-12.6 15.66,-9.56zm-1.18,19.43c-2.57,6.67 -4.64,11.86 -6.58,17.11c-8.42,22.73 -8.4,22.73 16.06,20.95l1.81,0c3,-0.11 3.34,-1.44 2.26,-4.09c-4.46,-10.83 -8.71,-21.72 -13.58,-33.97l0.03,0zm-218.63,-19.42c8.84,-2.76 12.41,1.35 15.53,9c11.13,27.42 23,54.54 34.87,81.66c2.62,6 2.5,8.35 -5.17,8.1c-14.69,-0.47 -15.31,0.14 -20,-13.95c-2.72,-8.13 -6.87,-10.67 -15.07,-9.92c-8.4,0.76 -16.93,0.4 -25.38,0c-5.09,-0.23 -8,1.48 -9.07,6.5c-0.31,1.46 -1.31,2.8 -1.52,4.25c-1.61,11.24 -8.4,14.16 -18.94,13.22c-6.08,-0.55 -8.11,-1 -5.22,-7.61c11.17,-25.44 21.85,-51.09 32.72,-76.65a46.24,46.24 0 0 0 2.14,-5c2.21,-7.82 6.08,-13.09 15.11,-9.6zm-0.76,19.61c-2.66,6.89 -4.68,12.15 -6.71,17.41c-8.7,22.48 -7.39,24 17.09,20.43c0.3,-0.05 0.6,-0.05 0.9,-0.08c2.74,-0.23 3.66,-1.35 2.49,-4.13c-4.47,-10.71 -8.81,-21.48 -13.77,-33.63zm561.78,78.98c-8,2.85 -12,-2.45 -13.58,-10.59c-2.09,-11 -8.5,-14.85 -19.19,-13c-2.64,0.46 -5.43,0.07 -8.15,0.07c-19.88,0 -20.17,-0.13 -27.72,18.69c-3.31,8.24 -9.7,3.66 -14.67,4.69c-7.89,1.62 -9.23,-1 -6,-8.49c12.15,-27.65 24.31,-55.32 35.24,-83.46c4,-10.42 11.39,-5.82 17.69,-7.06c6.3,-1.24 8.93,1.93 11.21,7.44c11.1,26.78 22.57,53.42 34,80.05c5.16,11.85 5.3,11.79 -8.83,11.66zm-54.85,-41.11l24.32,0c2.5,0 5.29,-0.2 3.77,-4c-4.31,-10.72 -8.71,-21.4 -13.86,-34c-5.13,13.64 -9.48,25.3 -14.23,38zm-76.59,41.18c0.51,3.74 1.93,3.57 3,3.86c10.23,2.81 14.23,8.19 11.63,15.6c-2.25,6.44 -15.59,13 -21.84,10.05a27.84,27.84 0 0 0 -8.38,-2.86c-4.15,-0.53 -4.68,-3.33 -4.12,-6.59c0.72,-4.19 3.58,-1.78 5.65,-1.56c3.9,0.41 7.77,1.17 11.68,1.31c2.44,0.08 4.93,-0.72 4.92,-4c0,-2.74 -1.9,-3.77 -4.19,-3.63c-5.15,0.32 -7.13,-2 -6.5,-7c0.55,-4.38 -2,-5.37 -5.84,-6.12c-20.64,-4.06 -30.66,-15 -33.69,-35.8a80.79,80.79 0 0 1 1.73,-32.33c4.75,-18.21 16.59,-28.45 35.33,-29.57c12.65,-0.75 25.37,-0.17 38,-0.68c8.24,-0.33 5.18,5.46 5.56,9.28c0.43,4.28 0.92,8.35 -6,7.92c-9.63,-0.59 -19.33,-0.23 -29,0c-12.46,0.27 -19,5.48 -21.86,17.51a71.71,71.71 0 0 0 -1,28.81c2.15,12.55 8.15,17.86 20.93,18.26c10.27,0.31 20.56,0.43 30.81,0c7.54,-0.35 6.38,4.47 6.19,8.85c-0.18,4 2.1,9.44 -6,8.87c-8.87,-0.66 -17.85,-0.18 -27.01,-0.18zm-691.9,65.12c-3.47,-13.32 0.48,-20.94 11.56,-27.76c52.13,-32 128.67,-30.65 178.9,4.32c7.16,5 7.51,6.4 5.41,23.45c-28.05,-25.53 -61.42,-36.13 -98.08,-36c-36.38,0.06 -69.66,10.33 -97.79,35.99zm-0.37,-212.41c-1.61,-15.71 -1.76,-16.13 11.69,-20.78c18.91,-6.55 38.28,-10.26 58.3,-13.17c39.81,-5.79 77.29,0.06 114.38,13.1c13.49,4.75 13.36,5.1 12.18,20.73c-65.54,-28.65 -131.11,-29.23 -196.55,0.12zm320.9,85.95c0,-11.95 0.34,-21.34 -0.13,-30.68c-0.28,-5.59 1.49,-7.81 7,-7.21c2.4,0.31 4.83,0.31 7.23,0c5.34,-0.84 6.78,1.39 6.71,6.5c-0.24,17.82 -0.16,35.66 -0.07,53.48c0.09,17.15 5,22.17 22,22.65c6.95,0.2 13.9,0.1 20.85,0c6.25,0 4.56,4.68 4.27,7.79c-0.29,3.11 2.74,8.89 -4.18,8.76c-12.66,-0.24 -25.41,1 -38,-1.33c-13.22,-2.46 -22,-11.41 -24.49,-24.59c-2.3,-12.57 -0.71,-25.29 -1.19,-35.37zm79.31,11c0,-13.87 0.33,-27.74 -0.15,-41.59c-0.21,-6.08 1.6,-7.67 7.55,-7.49c14.39,0.43 14.39,0.13 14.39,14.23c0,25.62 -0.25,51.24 0.18,76.85c0.12,6.94 -1.95,9.32 -8.62,8.27a23,23 0 0 0 -6.31,0.11c-5.38,0.64 -7.34,-1.26 -7.18,-7c0.43,-14.44 0.14,-28.92 0.14,-43.38z" fill="#2E395D"/>
    <path d="m101.31,186.72c-8.2,3.89 -17.1,1.27 -25.61,2.83c-29.57,5.41 -40.66,9.89 -72.46,30.56c-3.93,-13.75 -3,-16.61 8.92,-23.75c25.73,-15.42 54,-22 83.65,-23.44c1.67,-0.09 3.39,0.88 5.09,1.37c0.14,4.14 0.277,8.283 0.41,12.43zm-0.88,-48.51c-35.13,0.4 -67.95,9.14 -98,28.39c-1.46,-17.26 -1.58,-17.52 12.68,-23.92c12.76,-5.73 26,-9.6 39.72,-13c15,-3.77 29.87,-5.09 45,-6.25c2.29,4.82 2,9.78 0.6,14.78zm2.39,-49.64c-35.15,0.73 -68.78,7.66 -99.75,25.58c-3,-15.12 -2.51,-16 9.45,-21.49c25.88,-11.9 53.18,-17.45 81.5,-18.56c2.61,-0.1 5.51,-1 7.57,1.67c-0.03,4.35 -1.33,8.74 1.23,12.8z" fill="#2E395D"/>
    <path d="m101.31,186.72c-0.127,-4.14 -0.263,-8.283 -0.41,-12.43c28.8,-2 55.49,5.05 80.64,18.77a53.46,53.46 0 0 0 4.9,2.31c14.83,6.25 15.64,7.87 12,25.69c-12.36,-8.33 -24.61,-16.15 -38.18,-21.6a97.4,97.4 0 0 0 -31.92,-7.22a80,80 0 0 1 -27.03,-5.52z" fill="#E4D196"/>
    <path d="m100.74,163.04c-35.56,0.28 -68.3,9.72 -97.58,30.52c-3.47,-15.54 -2.92,-17.32 10.34,-24.08c27.54,-14.05 56.57,-22.07 87.78,-20.69l-0.54,14.25zm-5.27,-64.35l4.55,-0.09c-0.2,5.073 -0.397,10.143 -0.59,15.21c-34.58,-0.32 -66.61,8.9 -96.5,26.38c-2.85,-15.79 -2.7,-16 9.82,-22c25.35,-12.32 52.34,-17.86 80.25,-19.59l2.47,0.09z" fill="#2E395D"/>
    <path d="m100.43,138.21c1.4,-5 1.69,-10 -0.65,-14.81c16.36,0.6 32.29,3.8 48.35,6.86a161.15,161.15 0 0 1 46.86,16.72c7.5,4 4.79,10.34 4.25,15.79c-0.39,3.89 -3.9,1.36 -5.71,0.5c-6.44,-3.06 -12.85,-6.13 -19.36,-9c-17.07,-7.65 -34.81,-11.56 -53.28,-13.13c-6.9,-0.63 -13.64,-1.95 -20.46,-2.93zm0.99,-112.93c14.4,0.17 29,-1.16 43.12,1c12.35,1.85 24.32,7.07 36,11.86c4.36,1.79 8.58,4.14 13.21,5.24c3.71,0.88 6.23,2.55 5.87,6.62c-0.33,3.74 2,8.57 -1.63,11c-3.32,2.17 -6.79,-1.34 -9.82,-3c-19.16,-10.7 -39.95,-14.62 -61.56,-16.82c-8.39,-0.86 -17.39,1.38 -25.37,-3.11l0.18,-12.79zm-0.68,137.76l0.54,-14.25c22.87,-0.95 45.43,1.09 66.21,11.2c7.86,3.82 16.16,6.68 23.71,11.06c3,1.76 7.31,2.87 8.07,6.68c0.9,4.58 2.53,10.59 -1.08,13.72c-3.61,3.13 -6.73,-2.44 -9.73,-4.4c-26.7,-17.45 -56.67,-22.65 -87.72,-24.01z" fill="#E4D196"/>
    <path d="m101.13,63.37c-32.6,2.21 -64.66,6.7 -93.87,22.78c-4.61,2.54 -5.23,1.28 -5.66,-3.44c-0.69,-7.59 1.61,-11.76 9.07,-15c28.76,-12.44 58.71,-18.14 89.89,-18.24l0.57,13.9zm0.29,-38.09l-0.15,12.68c-10.11,3.49 -20.8,1.87 -31.18,3.52c-20.41,3.24 -40.1,8.44 -59,16.76c-2.62,1.15 -7.08,6.47 -8.59,1.59c-1.51,-4.65 -4.11,-12.11 3.81,-15.71a215.62,215.62 0 0 1 51,-15.53c14.57,-2.6 29.22,-4.7 44.11,-3.31z" fill="#2E395D"/>
    <path d="m99.43,113.81c0.187,-5.067 0.383,-10.137 0.59,-15.21c15.64,-0.66 30.66,3.37 46,5.59c15.84,2.29 29.22,10.31 44,14.67c9.56,2.82 10.33,8.35 9.81,16.15c-0.31,4.66 -1.79,4.9 -5.58,2.78c-6.8,-3.8 -13.84,-7.2 -20.85,-10.6c-20.32,-9.84 -42.16,-11.25 -64.22,-11.56c-3.29,-0.05 -6.52,-1.19 -9.75,-1.82zm1.7,-50.44l-0.57,-13.88c17.53,-0.84 34.66,1.05 51.08,7.62c4.82,1.93 10.06,1.35 15.06,2.22c9.63,1.66 17.37,7.71 26.75,9.66c5.67,1.17 9,11.43 5.75,16.37c-2.31,3.51 -4.94,1 -7.08,-0.09a183.87,183.87 0 0 0 -37,-13.88c-14.08,-3.66 -27.94,-6.69 -42.5,-6.25c-3.91,0.12 -7.92,0.47 -11.49,-1.77zm1.69,25.2c-2.56,-4.06 -1.26,-8.49 -1.23,-12.8c24.67,-1.57 48.38,3.46 71.67,10.84c7.86,2.5 15.39,6.07 23,9.37c3.34,1.46 5.25,15.06 2.51,17c-1.9,1.38 -3.36,-0.21 -4.84,-1.15c-12.82,-8.13 -27.52,-11.83 -41.33,-17.63c-12.12,-5.1 -25,-2.9 -37.53,-3.79c-4.08,-0.29 -8.55,1.22 -12.25,-1.84zm562.17,115.55l-178.26,0l0,-2.06l178.26,0l0,2.06zm-449.93,-2.88c53.46,0.37 106.93,-1.19 160.36,3.32l-160.43,0l0.07,-3.32zm575.44,0.06l45.52,0c1.84,0 3.83,0.44 3.75,2.82c-0.06,1.77 -1.69,2.33 -3.25,2.38a249.76,249.76 0 0 1 -46.07,-2.23l0.05,-2.97zm-17.73,5.37l-46.77,0c-2.56,0 -6.56,0.56 -6.44,-3c0.12,-3.85 4.22,-2.36 6.61,-2.36c15.57,0 31.18,-0.51 46.57,2.67l0.03,2.69zm-677.3,-107.98l-2.47,-0.12a1.46,1.46 0 0 1 2.47,0.12z" fill="#E4D196"/>
   </g>
  </svg>