<svg  id="fndm-xhkj9qfwwh" viewBox="2.8340001106262207 78.16400146484375 187.08865356445312 36.428001403808594" xmlns="http://www.w3.org/2000/svg">
   <g xmlns="http://www.w3.org/2000/svg" clip-rule="evenodd" fill-rule="evenodd">
    <path d="m39.378,114.592l0,-36.428l-36.544,0l0,36.428l36.544,0z" fill="#fbfbfb"/>
    <path d="m12.984,94.141l3.046,0c0.604,0 1.153,0.389 1.153,1.029c0,0.863 -0.688,1.469 -1.643,1.469l-3.26,0l0.704,-2.498zm14.985,0.017l2.877,0c1.365,0 1.418,0.928 1.418,1.191c0,0.616 -0.542,1.829 -2.199,1.829l-2.932,0c0.001,0 0.821,-2.947 0.836,-3.02zm-16.426,5.072l2.634,0c1.29,0 1.363,0.35 1.541,0.648c0.176,0.299 0.094,0.93 -0.027,1.146c-0.154,0.271 -0.415,1.117 -2.063,1.117l-2.925,0l0.84,-2.911z" fill="#278b5f"/>
    <path d="m39.378,91.442l0,23.15l-36.544,0l0,-23.15l7.032,0l-3.896,13.476l7.976,0c3.455,0 4.057,-0.807 4.758,-1.395c0.937,-0.785 1.439,-2.654 1.018,-3.955c-0.298,-0.92 -1.167,-1.477 -1.263,-1.504c1.08,-0.5 1.708,-1.599 1.785,-1.76c0.401,-0.833 0.711,-2.342 -0.285,-3.556c-0.828,-1.009 -2.437,-1.286 -3.604,-1.307l8.539,0l-3.91,13.503l3.957,0l1.445,-5.119l2.261,0c1.643,0 1.493,1.021 1.534,1.463l0.129,3.766l3.674,-0.002s-0.166,-4.227 -0.18,-4.535c-0.049,-1.084 -0.769,-1.574 -1.381,-1.574c1.177,-0.318 2.199,-1.387 2.607,-2.072c0.471,-0.789 0.826,-2.047 0.359,-3.295c-0.676,-1.812 -2.419,-2.112 -3.637,-2.134l7.626,0z" fill="#278b5f"/>
    <path d="m2.834,87.016l36.544,0l0,-8.852l-36.544,0l0,8.852z" fill="#ecb739"/>
    <path d="m96.766,93.398l0.509,-1.77l-12.392,0l-0.995,3.54l3.978,0l-2.838,9.943l4.414,0l2.837,-9.943l3.978,0l0.509,-1.77zm9.677,-1.77l-6.355,0l-3.322,11.714l-0.509,1.77l4.438,0l1.309,-4.703l1.334,0c0.824,0 1.334,0.096 1.625,0.314c0.461,0.34 0.389,0.971 0.072,2.037c-0.023,0.098 -0.049,0.17 -0.072,0.242c-0.266,1.068 -0.389,1.844 -0.363,2.109l4.486,0l0.121,-0.41c-0.533,0 -0.316,-0.584 0.193,-2.354c0.775,-2.717 0,-3.057 -1.262,-3.59c1.699,-0.436 2.742,-1.746 3.203,-3.298c0.727,-2.618 -0.388,-3.831 -4.898,-3.831zm0.606,4.535c-0.244,0.849 -0.945,1.214 -2.086,1.286l-2.135,0l0.777,-2.692l2.06,0c1.021,0 1.649,0.46 1.384,1.406zm-39.797,8.948l11.277,0l0.897,-3.152l-6.863,0l0.606,-2.109l5.579,0l0.897,-3.153l-5.579,0l0.559,-1.94l6.572,0l0.897,-3.129l-11.01,0l-3.832,13.483zm-4.656,-13.483l-6.5,0l-3.855,13.483l4.438,0l1.188,-4.195l2.231,0c0.242,0 0.485,0 0.727,-0.023c3.444,-0.219 5.457,-1.988 6.233,-4.729c0.776,-2.766 -0.582,-4.536 -4.462,-4.536zm0.242,4.56c-0.315,1.092 -1.091,1.527 -2.013,1.576l-2.061,0l0.849,-3.007l1.261,0c0.946,0 2.304,0.169 1.964,1.431zm104.935,-4.56l-0.291,0.437l-8.125,12.637l-0.266,0.41l4.342,0l1.018,-1.77l4.414,0l0,1.77l4.414,0l-0.994,-13.483l-4.512,0l0,-0.001zm-0.291,8.901l-1.382,0l1.383,-2.475l1.357,-2.376l0.049,4.851l-1.407,0zm22.385,-4.996c0.338,-2.352 -0.824,-4.269 -4.561,-4.269c-3.395,0 -6.281,1.431 -7.08,4.317c-1.48,5.142 6.693,3.735 6.111,5.796c-0.17,0.631 -1.02,0.994 -2.111,0.994c-0.436,0 -0.871,-0.121 -1.162,-0.338c-0.316,-0.244 -0.486,-0.584 -0.438,-1.068l-4.244,0c-0.582,2.426 1.141,4.512 4.705,4.512c3.711,0 6.766,-1.529 7.639,-4.656c1.406,-4.899 -6.717,-3.662 -6.135,-5.675c0.121,-0.485 0.631,-0.777 1.625,-0.777c0.412,0 0.799,0.073 1.066,0.243c0.266,0.17 0.438,0.461 0.363,0.922l4.222,0l0,-0.001zm-50.709,-3.905l-6.477,0l-3.832,13.483l6.598,0c0.291,0 0.58,0 0.873,-0.023c3.055,-0.17 5.311,-1.262 6.086,-4.025c0.412,-1.479 0,-2.74 -1.357,-3.105c1.018,-0.533 2.207,-1.551 2.594,-2.934c0.752,-2.692 -1.454,-3.396 -4.485,-3.396zm-0.777,9.095c-0.266,0.971 -1.066,1.213 -2.061,1.236l-2.135,0l0.703,-2.473l1.431,0c1.382,0 2.402,0.073 2.062,1.237zm0.898,-4.875c-0.219,0.776 -0.971,1.164 -1.867,1.164l-1.821,0l0.631,-2.255l1.553,0c0.946,0 1.793,0.024 1.504,1.091zm-16.759,-4.584c-0.678,0 -1.357,0.073 -2.012,0.219c-3.322,0.728 -6.039,3.226 -7.057,6.765c-1.285,4.609 0.799,7.229 5.02,7.229c0.703,0 1.383,-0.074 2.037,-0.219c3.201,-0.727 6.014,-3.152 7.105,-6.961c1.02,-3.565 -0.265,-7.033 -5.093,-7.033zm0.656,7.033c-0.486,1.771 -1.357,3.178 -2.668,3.688c-0.34,0.121 -0.703,0.193 -1.092,0.193c-2.109,0 -2.037,-2.158 -1.527,-3.881c0.389,-1.381 1.236,-2.982 2.619,-3.54a2.828,2.828 0 0 1 1.043,-0.194c1.965,-0.048 2.158,1.892 1.625,3.734zm36.181,-2.57c0.049,-0.097 0.074,-0.169 0.098,-0.267c0.291,-1.019 0.291,-1.843 -0.098,-2.45c-0.58,-0.946 -2.061,-1.382 -4.801,-1.382l-6.379,0l-3.83,13.483l4.414,0l1.357,-4.703l1.334,0c0.824,0 1.334,0.096 1.625,0.314c0.461,0.34 0.387,0.971 0.072,2.037c-0.025,0.098 -0.049,0.17 -0.072,0.242c-0.291,1.068 -0.389,1.844 -0.365,2.109l4.488,0l0.096,-0.41c-0.51,0 -0.291,-0.584 0.219,-2.354c0.775,-2.717 0,-3.057 -1.262,-3.59c1.602,-0.41 2.645,-1.598 3.104,-3.029zm-4.193,0.436c-0.244,0.849 -0.947,1.214 -2.086,1.286l-2.135,0l0.775,-2.692l2.062,0c1.019,0 1.65,0.46 1.384,1.406z" fill="#278b5f"/>
   </g>
  </svg>