<svg  id="fndm-aezhfgbfgk" data-name="Layer 6" viewBox="-0.003962993621826172 0.02435302734375 1067.058349609375 766.275634765625" xlink="http://www.w3.org/1999/xlink" xmlns="http://www.w3.org/2000/svg">
   <defs xmlns="http://www.w3.org/2000/svg">
    <radialGradient gradientUnits="userSpaceOnUse" gradientTransform="matrix(1.16 .26 .27 -1.1 -361.58 915.02)" r="201.36" cy="652.81" cx="958.43" id="fndm-ku9sg7r3ih">
     <stop stop-color="#00b3eb" offset="0"/>
     <stop stop-color="#0058aa" offset="1"/>
    </radialGradient>
    <radialGradient gradientUnits="userSpaceOnUse" gradientTransform="matrix(1.27 .17 .16 -1.1 -176.07 1159.08)" r="198.97" cy="791.38" cx="179.11" id="fndm-tnclsattp4">
     <stop stop-color="#00b3eb" offset="0.01"/>
     <stop stop-color="#0058aa" offset="1"/>
    </radialGradient>
    <radialGradient xmlns:xlink="http://www.w3.org/1999/xlink" xlink:href="#fndm-ku9sg7r3ih" gradientTransform="matrix(1.3 .16 .17 -1.24 -273.9 1177.57)" fy="647.408" fx="336.504" r="155.76" cy="612.46" cx="488.29" id="fndm-7oodiiqsnn"/>
    <radialGradient gradientUnits="userSpaceOnUse" gradientTransform="matrix(.88 -.32 -.33 -.84 336.15 1196.31)" r="220.58" cy="612.81" cx="651.47" id="fndm-atuc6ctxl1">
     <stop stop-color="#00b3eb" offset="0"/>
     <stop stop-color="#0085ca" offset="0.67"/>
     <stop stop-color="#0058aa" offset="1"/>
    </radialGradient>
   </defs>
   <path d="m844.96,711.14c0,-4 -1,-4 -8,-4c-2,0 -3,1 -3,4l0,36a34,34 0 0 0 10,1c3,0 2,-7 2,-13l0,-14l3,-3c8,-3 8,2 8,8l0,18c0,5 0,4 10,4c3,0 2,-9 2,-13l0,-14c15,-11 12,5 12,16l0,7c0,5 0,4 11,4c1,0 1,-2 1,-4c0,-7 1,-26 -2,-31c-4,-8 -13,-8 -20,-5c-2,1 -3,2 -5,3c-4,-7 -13,-6 -19,-2l-2,2zm-611,28c-3,0 -6,-2 -6,-4l0,-15c0,-3 13,-7 13,6c0,5 -1,13 -7,13zm-8,-28c0,-2 1,-2 0,-3c-2,-2 -8,-1 -10,0c-1,5 -1,47 -1,56c0,3 6,2 10,2c3,0 3,-5 3,-9l0,-11c7,4 15,4 21,-3c12,-17 0,-48 -23,-32zm382,17c0,-16 14,-11 14,-8l0,15c0,3 -14,8 -14,-7zm14,-19c-5,-2 -1,-3 -11,-3s-18,15 -14,30c2,10 12,16 22,11c2,0 2,-1 4,-2c1,3 -1,3 9,3a2.15,2.15 0 0 0 2,-2l0,-56c0,-3 -3,-2 -6,-1c-8,1 -6,0 -6,20zm-559,-5c0,6 0,7 3,12a21.77,21.77 0 0 0 8,5c1,1 2,1 4,2c1,1 2,1 4,2c12,6 3,12 -2,12c-12,0 -13,-8 -16,2c-2,5 -5,7 9,9c9,1 17,2 23,-5c6,-6 7,-18 0,-25c-3,-2 -1,-1 -5,-3c-2,-1 -3,-1 -4,-2c-2,0 -2,-1 -4,-2c-4,-1 -6,-2 -6,-6c0,-6 10,-4 14,-3c2,1 3,2 5,2c0,-1 1,-1 1,-2a3.67,3.67 0 0 0 1,-3c1,-2 2,-3 2,-5a43.48,43.48 0 0 0 -7,-4c-9,-2 -16,-2 -24,3c-2,2 -6,6 -6,11zm931,26c0,-5 0,-13 7,-13c2,0 6,1 6,3l0,14c0,4 -13,9 -13,-4zm-13,-4l0,4c0,18 17,22 26,16a7.69,7.69 0 0 1 3,-2c1,5 10,4 13,3c0,-3 1,-3 0,-7a3.67,3.67 0 0 0 -3,-1l0,-26c0,-6 1,-6 -9,-6c-2,0 -2,1 -3,3c-4,-3 -4,-4 -10,-4c-9,0 -17,10 -17,20zm-68,3c0,-19 13,-11 13,-8c0,12 2,17 -8,17c-3,0 -5,-5 -5,-9zm-13,-1c0,6 1,11 4,15c4,4 7,6 13,6c5,0 8,-3 11,-5c5,4 1,4 12,4c2,0 2,-4 2,-7c0,-2 -2,-2 -3,-2c-1,-4 -1,-19 -1,-26c0,-6 1,-6 -8,-6c-3,0 -3,1 -3,3c-5,-3 -4,-4 -11,-4c-4,0 -9,4 -12,7a33.13,33.13 0 0 0 -4,15zm-174,-5l-11,0a6.84,6.84 0 0 1 7,-7c5,0 7,7 4,7zm-24,3l0,3c0,11 8,20 19,20c5,0 10,0 15,-2c3,-2 3,-3 2,-7c-3,-8 -2,-1 -13,-1c-7,0 -9,-4 -10,-8c6,0 19,1 24,0c3,-12 -4,-25 -15,-25c-7,0 -12,1 -17,6c-2,3 -5,9 -5,14zm-171,-4l0,1l-12,0c0,-6 6,-8 10,-6a7.64,7.64 0 0 1 2,5zm-26,4l0,3c0,11 9,20 19,20c4,0 18,0 18,-5c0,-1 -1,-8 -2,-8c-3,0 -12,6 -18,1a20.92,20.92 0 0 1 -4,-6l25,0c2,-11 -4,-25 -15,-25c-7,0 -12,1 -17,6a20.26,20.26 0 0 0 -6,14zm161,-4l0,1l-12,0c0,-6 7,-8 10,-6a7.64,7.64 0 0 1 2,5zm-25,4l0,3c0,11 8,20 19,20c5,0 10,0 15,-2c3,-2 3,-3 2,-7c-3,-8 -2,-1 -13,-1c-7,0 -9,-4 -10,-8l24,0a21.33,21.33 0 0 0 -3,-18c-9,-13 -34,-7 -34,13zm-509,-4l0,1l-12,0c0,-9 12,-9 12,-1zm-26,3c0,7 1,13 6,18c10,10 31,4 31,1a18.84,18.84 0 0 0 -2,-8c-3,1 -6,3 -12,3c-5,0 -9,-4 -10,-8l16,0c8,0 10,1 9,-7c-1,-5 -1,-8 -4,-12c-9,-12 -34,-5 -34,13zm178,-2l-13,0c2,-10 13,-9 13,0zm-7,26c5,0 18,-1 18,-5c0,-1 -2,-8 -3,-8l-5,2c-7,2 -16,0 -16,-7l13,0c12,0 12,2 12,-7c0,-10 -8,-18 -16,-18s-11,1 -17,7c-10,10 -6,36 14,36zm135,-26l-12,0c1,-4 4,-7 7,-7c6,0 7,7 5,7zm-25,4c0,9 4,16 11,20c9,4 26,0 26,-3c0,-1 -1,-8 -3,-8s-11,6 -18,1c-2,-2 -2,-4 -3,-6l14,0c10,0 11,1 11,-5c0,-7 -3,-14 -8,-18c-8,-4 -18,-2 -25,5c-3,3 -5,9 -5,14zm652,1c0,-6 2,-12 8,-12c10,0 10,23 0,23c-6,0 -8,-6 -8,-11zm6,21c14,0 21,-7 22,-21c1,-10 -6,-22 -18,-22c-6,0 -13,1 -17,6a16.12,16.12 0 0 0 -4,7c0,2 -1,5 -1,8c-1,11 6,22 18,22zm-894,-41c-1,4 -1,21 -1,27c0,11 8,16 18,13c3,-1 4,-2 7,-3c0,4 3,3 10,3a2.15,2.15 0 0 0 2,-2l0,-37c0,-3 -10,-2 -12,-1c-2,6 -1,20 -1,27c-3,1 -1,2 -8,2s-2,-18 -4,-29c-7,-1 -4,-1 -11,0zm291,3c0,-2 1,-2 0,-3a17,17 0 0 0 -10,0a3.67,3.67 0 0 0 -1,3l0,33c0,5 2,4 10,4c3,0 2,-3 2,-5l0,-22c2,-1 1,-1 2,-1c3,-2 10,-5 11,2l0,19c0,8 -2,7 10,7c2,0 2,-2 2,-3c0,-9 1,-28 -2,-34c-5,-7 -15,-6 -21,-2c-2,1 -1,1 -3,2zm503,15c0,8 1,15 8,20c2,1 3,1 5,2c-1,2 -1,6 0,7c2,1 5,1 7,1c1,4 0,4 -4,4c-2,0 -2,-1 -4,-1c0,1 -1,3 -1,4c0,3 17,5 17,-5c0,-6 -4,-7 -9,-7c0,-4 1,-1 7,-3c6,-1 9,-2 4,-11c-2,0 -11,5 -16,-2c-3,-4 -2,-12 0,-15c5,-7 14,-2 16,-2c1,0 1,-3 1,-4c1,-1 1,-3 1,-4c0,-3 -10,-4 -13,-4c-11,0 -19,9 -19,20zm-183,11c-4,6 -12,0 -16,-1c-2,2 -3,6 -3,9c7,5 30,8 30,-10c0,-13 -17,-10 -17,-17c0,-3 7,-1 9,-1c5,2 4,2 6,-2c0,-2 1,-4 1,-5c0,-2 -18,-8 -26,1c-5,5 -5,16 6,20c2,1 4,1 6,2s3,1 4,4zm-284,-37l0,7c-6,0 -6,1 -6,7c0,3 4,2 6,2l0,19c0,17 17,15 25,11a23.88,23.88 0 0 0 -2,-9c-3,1 -11,5 -11,-3l0,-18l10,0c1,-4 2,-9 -2,-9l-8,0c0,-4 1,-8 0,-11l-7,0c-3,0 -5,0 -5,4zm-174,-2l0,9c-6,0 -5,0 -5,7c0,3 3,2 5,2c0,7 -1,24 2,28c6,9 22,3 22,1s0,-6 -1,-7c-2,-2 -11,6 -11,-5l0,-17c12,0 11,1 11,-7c0,-3 -7,-2 -11,-2c0,-13 2,-12 -7,-11c-2,0 -5,0 -5,2zm478,1l0,8c-7,0 -6,0 -6,7c0,3 4,2 6,2l0,21c0,18 24,11 24,8l-1,-6c-2,-6 -11,8 -11,-10l0,-13c11,0 10,1 10,-7c0,-3 -6,-2 -10,-2c0,-13 1,-12 -8,-11c-2,0 -4,0 -4,3zm-413,50c3,0 15,-1 15,-4c0,-2 -2,-7 -3,-8c-2,0 -10,4 -15,0c-5,-5 -5,-21 6,-21c4,0 6,2 9,2a23.88,23.88 0 0 0 2,-9c-5,-4 -15,-4 -21,-1c-9,4 -11,11 -12,19c0,4 2,12 5,15a16.13,16.13 0 0 0 14,7zm192,-38c0,-5 -3,-4 -9,-4a2.15,2.15 0 0 0 -2,2l0,37c0,3 4,2 10,2c3,0 2,-9 2,-13l0,-15c2,0 3,-2 7,-2l3,0a42.53,42.53 0 0 0 2,-11c-8,-2 -9,1 -13,4zm251,-2l0,37c0,3 5,2 10,2a3.19,3.19 0 0 0 3,-3l0,-35c0,-4 -6,-3 -9,-3c-2,0 -4,0 -4,2zm177,-16c0,3 2,4 2,7c4,0 3,-2 9,-2c3,0 4,4 8,3c3,-1 7,-3 8,-5c0,-2 -2,-5 -4,-7c-1,1 -5,3 -6,3c-3,0 -5,-3 -9,-3c-3,0 -7,2 -8,4zm-177,3c0,7 7,8 11,5c3,-3 2,-11 -4,-11c-4,0 -7,2 -7,6z" fill="#007dc5"/>
   <path transform="translate(-6.47 -156.86)" d="m1007.43,685c11,0 22,-1 32,-2c5,-1 10,-1 15,2a14.78,14.78 0 0 1 8,19a43.55,43.55 0 0 1 -16,22c-19,16 -41,25 -65,28c-37,5 -75,4 -112,-6a84.69,84.69 0 0 1 -30,-15c-20,-18 -25,-44 -12,-69c9,-19 22,-35 36,-50c17,-18 36,-35 55,-52a115.11,115.11 0 0 0 14,-17c8,-13 5,-22 -9,-26a83.29,83.29 0 0 0 -22,-3c-13,-1 -27,-2 -41,-3c-40,-4 -50,-33 -44,-65a72.51,72.51 0 0 1 25,-44c12,-12 27,-16 42,-13c58,9 113,27 161,62a76.9,76.9 0 0 1 18,18c11,14 13,30 7,48c-8,22 -22,39 -35,57c-17,22 -36,43 -52,66a66.32,66.32 0 0 0 -9,19c-2,11 3,20 13,23a170.22,170.22 0 0 0 21,1z" fill="url(#fndm-ku9sg7r3ih)"/>
   <path transform="translate(-6.47 -156.86)" d="m314.43,539c-24,11 -50,18 -75,25a80.83,80.83 0 0 0 -27,11c-18,11 -24,26 -19,48c4,18 13,34 22,49c9,14 18,28 23,43a3.67,3.67 0 0 1 1,3c8,22 -2,38 -25,39c-16,1 -29,-5 -43,-13c-32,-19 -56,-46 -78,-77q-70.5,-99 -84,-222c-6,-44 -3,-88 10,-131c27,-83 81,-134 163,-151c60,-13 117,-6 170,28c55,35 82,87 84,154c1,19 -4,47 -9,66c0,2 -93,124 -114,128l1,0z" fill="url(#fndm-tnclsattp4)"/>
   <path transform="translate(-6.47 -156.86)" d="m320.43,535c22,-95 113,-126 116,-127c51,-13 99,-11 142,21c22,15 39,43 48,69l-7,85c-1,-2 -1,5 -4,9c-6,8 -12,16 -20,23a118.66,118.66 0 0 1 -73,32c-16,1 -31,0 -47,-2c-3,-1 -7,-2 -9,2s-2,8 0,11c8,15 20,23 35,28c19,6 39,5 58,1c5,-1 9,-2 14,-3c11,-1 20,3 21,14c1,15 -7,26 -17,35c-16,13 -35,20 -56,23c-50,6 -98,-4 -139,-37c-39,-30 -60,-72 -66,-122c-2,-18 -2,-37 2,-55c1,-1 1,-5 2,-7z" fill="url(#fndm-7oodiiqsnn)"/>
   <path transform="translate(-6.47 -156.86)" d="m616.43,594c0,-39 11,-106 11,-108c8,-31 15,-62 28,-90c5,-9 9,-18 16,-26c9,-10 20,-15 33,-14a128.79,128.79 0 0 1 66,21c17,12 21,24 15,45c-4,17 -12,32 -18,48a84.47,84.47 0 0 0 -5,17c-1,10 3,15 13,17s20,1 30,3c12,2 17,8 16,21q0,42 -45,45c-7,1 -14,0 -20,0c-7,0 -11,3 -13,9a50.79,50.79 0 0 0 -3,17c-2,22 0,44 10,64q15,31.5 45,45c17,8 18,29 2,40c-11,7 -24,9 -36,10c-53,2 -111,-29 -132,-94c-7,-22 -12,-47 -13,-70z" fill="url(#fndm-atuc6ctxl1)"/>
  </svg>