<svg  id="fndm-b0dqr2riyn" viewBox="113.99999237060547 37.0001335144043 371.00018310546875 177.99986267089844" xmlns="http://www.w3.org/2000/svg">
   <g xmlns="http://www.w3.org/2000/svg" fill="none">
    <path d="m267,55.22c-1.366,-1.362 -2.823,-2.633 -4.28,-3.903l-58.828,58.64c-4.007,-3.993 -4.007,-10.53 0,-14.523l50.177,-50.018c-1.73,-0.998 -3.552,-1.906 -5.373,-2.814l-0.182,0.182l-58.92,58.732c-4.006,-3.995 -4.006,-10.53 0,-14.615l48.266,-48.111c-20.49,-4.993 -42.983,0.453 -58.92,16.43c-10.563,10.44 -16.482,23.783 -17.94,37.49l38.703,-38.58c4.007,3.995 4.007,10.53 0,14.525l-38.52,38.398c1.73,13.162 7.558,25.87 17.757,35.947l88.06,-87.78zm31.362,-16.22l-87.362,86.617c1.648,1.18 3.297,2.18 4.945,3.178l77.106,-76.448c4.03,3.995 4.03,10.532 0,14.617l-67.033,66.461a83.554,83.554 0 0 0 6.319,1.907l40.66,-40.403c4.028,3.995 4.028,10.532 0,14.527l-27.748,27.51c16.758,0.545 33.608,-5.538 46.337,-18.158c22.07,-21.61 24.267,-55.475 6.776,-79.808" fill="#B1C825"/>
    <path d="m130.133,188.712c-1.803,0 -3.515,-0.09 -4.957,-0.27l0,24.938c0,1.08 -0.54,1.62 -1.622,1.62l-7.932,0c-1.081,0 -1.622,-0.54 -1.622,-1.62l0,-59.96c0,-1.08 0.36,-1.62 1.622,-1.98c1.803,-0.54 8.292,-1.441 15.593,-1.441c15.772,0 24.785,6.752 24.785,19.356c0,12.514 -8.562,19.356 -25.867,19.356l0,0.001zm1.622,-32.32c-3.154,0 -4.957,0.18 -6.579,0.45l0,25.298c0.991,0.18 2.433,0.27 3.785,0.27c10.636,0 15.593,-4.411 15.593,-12.964c0.09,-7.922 -3.966,-13.054 -12.799,-13.054zm65.769,57.608l-8.116,0c-1.107,0 -1.845,-0.368 -2.214,-1.105l-7.01,-15.005c-1.106,-2.394 -3.228,-5.155 -6.271,-5.155l-2.675,0l0,19.884c0,0.92 -0.461,1.289 -1.384,1.289l-7.47,0c-0.923,0 -1.384,-0.368 -1.384,-1.289l0,-46.765c0,-0.92 0.277,-1.381 1.383,-1.657c1.568,-0.46 7.01,-1.197 13.559,-1.197c15.126,0 20.66,6.168 20.66,14.73c0,7.64 -6.456,11.599 -11.345,12.98l0,0.184c1.753,0.92 4.427,3.682 5.811,6.351l7.563,14.361c0.185,0.369 0.369,0.737 0.369,1.105c-0.184,0.92 -0.553,1.289 -1.476,1.289zm-21.767,-45.016c-2.121,0 -3.689,0.092 -4.611,0.276l0,18.78c0.737,0.092 1.844,0.092 3.228,0.092c7.47,0 11.621,-3.59 11.621,-9.298c0.185,-6.536 -2.951,-9.85 -10.238,-9.85zm50.788,46.016c-13.038,0 -22.545,-9.214 -22.545,-26.182c0,-16.24 9.145,-25.818 22.545,-25.818c13.4,0 22.455,9.579 22.455,25.818c0,16.968 -9.416,26.182 -22.455,26.182zm0,-45.614c-7.424,0 -11.77,7.298 -11.77,18.61c0,12.681 4.798,20.07 11.951,20.07c7.334,0 11.59,-7.389 11.59,-18.884c0,-12.498 -4.437,-19.796 -11.77,-19.796l-0.001,0zm103.227,44.614l-8.008,0c-0.91,0 -1.365,-0.374 -1.638,-1.308l-3.913,-12.143l-17.745,0l-4.095,12.143c-0.273,0.934 -0.637,1.308 -1.638,1.308l-6.37,0c-0.91,0 -1.365,-0.467 -1.365,-1.308c0,-0.373 0.091,-0.747 0.273,-1.214l17.29,-47.17c0.364,-0.934 0.637,-1.308 1.638,-1.308l7.462,0c1,0 1.365,0.374 1.729,1.308l17.29,47.17c0.182,0.374 0.273,0.84 0.273,1.214c0.182,0.841 -0.182,1.308 -1.183,1.308zm-19.838,-33.72c-1.547,-4.857 -2.366,-10.555 -2.366,-10.555l-0.182,0s-0.819,5.698 -2.366,10.555l-4.641,14.198l14.105,0l-4.55,-14.198zm61.679,33.72l-8.136,0c-1.11,0 -1.85,-0.368 -2.22,-1.105l-7.026,-15.005c-1.11,-2.394 -3.328,-5.155 -6.287,-5.155l-2.681,0l0,19.884c0,0.92 -0.463,1.289 -1.387,1.289l-7.49,0c-0.924,0 -1.386,-0.368 -1.386,-1.289l0,-46.765c0,-0.92 0.277,-1.381 1.387,-1.657c1.572,-0.46 7.027,-1.197 13.591,-1.197c15.163,0 20.71,6.168 20.71,14.73c0,7.64 -6.471,11.599 -11.464,12.98l0,0.184c1.757,0.92 4.438,3.682 5.825,6.351l7.581,14.361c0.185,0.369 0.37,0.737 0.37,1.105c-0.092,0.92 -0.462,1.289 -1.387,1.289zm-21.82,-45.016c-2.126,0 -3.606,0.092 -4.53,0.276l0,18.78c0.74,0.092 1.849,0.092 3.236,0.092c7.489,0 11.65,-3.59 11.65,-9.298c0,-6.536 -3.144,-9.85 -10.356,-9.85zm84.83,45.016l-7.618,0c-0.918,0 -1.193,-0.374 -1.285,-1.308l-2.02,-28.489c-0.275,-4.11 -0.367,-10.835 -0.367,-10.835l-0.183,0s-1.377,6.632 -2.846,10.835l-10.372,28.583c-0.367,0.934 -0.642,1.214 -1.652,1.214l-2.753,0c-1.01,0 -1.285,-0.28 -1.653,-1.214l-10.28,-28.583c-1.468,-4.11 -2.937,-10.835 -2.937,-10.835l-0.184,0s0,6.632 -0.275,10.835l-2.02,28.49c-0.091,0.933 -0.458,1.307 -1.376,1.307l-6.425,0c-0.826,0 -1.377,-0.374 -1.377,-1.12c0,-0.375 5.048,-48.572 5.048,-48.572c0.092,-0.934 0.367,-1.308 1.285,-1.308l8.261,0c0.918,0 1.377,0.467 1.652,1.308l10.189,27.741c1.285,3.55 2.02,7.66 2.02,7.66l0.183,0s0.734,-4.11 2.019,-7.66l10.188,-27.741c0.276,-0.841 0.735,-1.308 1.653,-1.308l8.169,0c0.918,0 1.285,0.374 1.376,1.308c0,0 4.957,48.197 4.957,48.571c-0.184,0.747 -0.55,1.121 -1.377,1.121m49.089,0l-8.014,0c-0.91,0 -1.366,-0.374 -1.639,-1.308l-3.825,-12.143l-17.757,0l-4.098,12.143c-0.273,0.934 -0.637,1.308 -1.639,1.308l-6.374,0c-0.91,0 -1.366,-0.467 -1.366,-1.308c0,-0.373 0.091,-0.747 0.273,-1.214l17.302,-47.17c0.364,-0.934 0.637,-1.308 1.64,-1.308l7.466,0c1.002,0 1.366,0.374 1.73,1.308l17.302,47.17c0.182,0.374 0.274,0.84 0.274,1.214c0.09,0.841 -0.274,1.308 -1.275,1.308zm-19.852,-33.72c-1.548,-4.857 -2.368,-10.555 -2.368,-10.555l-0.182,0s-0.82,5.698 -2.367,10.555l-4.645,14.198l14.115,0l-4.553,-14.198zm-194.822,4.11l0,-14.478l17.264,0c3.68,-0.187 6.698,-3.176 6.698,-6.912l-33.585,0c-0.943,0 -1.415,0.374 -1.415,1.308l0,48.384c0,0.934 0.472,1.308 1.415,1.308l8.113,0c0.944,0 1.415,-0.374 1.415,-1.308l0,-21.67l9.812,0c3.396,-0.374 6.132,-3.176 6.132,-6.632l-15.85,0l0.001,0z" fill="#0A0C06"/>
   </g>
  </svg>