<svg  id="fndm-351meg4584" viewBox="0 0 271.9849853515625 30.909000396728516" xmlns="http://www.w3.org/2000/svg">
   <path d="m28.855,0l-28.855,0l0,28.19l28.855,0l0,-28.19z" fill="#ED1C25"/>
   <path d="m24.75,9.841l-5.935,0l0,-5.738l-8.775,0l0,5.737l-5.936,0l0,8.508l5.936,0l0,5.738l8.775,0l0,-5.736l5.936,0l0,-8.51l-0.001,0.001z" fill="#fff"/>
   <path d="m53.95,17.33l-5.688,0l-1.72,6.743l-7.334,0l5.314,-20.168l12.874,0c4.301,0 7.484,2.388 7.484,5.443c0,5.412 -5.166,7.983 -10.93,7.983l0,-0.001zm-0.673,-9.703l-2.505,0l-1.574,5.987l1.948,0c3.219,0 6.285,-0.579 6.285,-3.658c0,-1.666 -2.282,-2.329 -4.154,-2.329zm30.458,11.973c-0.597,2.204 -0.708,3.539 -0.784,4.473l-7.11,0c0.111,-0.756 0.45,-2.056 0.709,-3.238c-1.574,2.057 -3.593,3.57 -6.959,3.57c-4.19,0 -6.138,-2.057 -6.138,-4.929c0,-7.44 8.532,-11.008 15.642,-11.008c2.545,0 5.987,0.36 7.373,0.815l-2.733,10.317zm-5.834,-7.652c-3.406,0 -7.11,2.872 -7.11,6.836c0,1.117 0.486,2.027 2.06,2.027c2.317,0 4.23,-2.69 5.237,-6.046l0.825,-2.694a3.935,3.935 0 0 0 -1.012,-0.123zm28.48,9.495c-1.832,6.802 -4.974,9.466 -14.184,9.466c-2.92,0 -5.688,-0.425 -7.298,-0.845l1.235,-3.718c2.02,0.816 3.927,1.058 5.653,1.058c4.751,0 6.396,-1.814 7.221,-4.414l0.526,-1.631c-1.796,1.873 -3.704,2.719 -6.77,2.719c-4.19,0 -6.174,-1.933 -6.174,-4.598c0,-7.469 8.83,-10.978 15.981,-10.978c2.393,0 5.652,0.366 7.074,0.786l-3.264,12.155zm-5.278,-9.466c-3.406,0 -7.186,2.877 -7.186,6.955c0,1.152 0.41,1.997 1.943,1.997c2.809,0 4.565,-3.292 5.349,-6.016l0.825,-2.813a3.527,3.527 0 0 0 -0.931,-0.123zm27.772,8.803c-0.263,1.058 -0.562,2.21 -0.673,3.298l-6.513,0l0.526,-2.694c-1.569,1.665 -3.628,3.025 -6.811,3.025c-3.067,0 -5.278,-1.028 -5.278,-3.628c0,-0.544 0.035,-1.088 0.187,-1.632l2.692,-10.37l6.928,0l-2.394,9.194c-0.111,0.455 -0.222,0.94 -0.222,1.389c0,0.94 0.561,1.513 1.907,1.513c2.171,0 3.143,-1.666 3.518,-3.144l2.317,-8.952l6.923,0l-3.107,12.002l0,-0.001zm23.951,-8.284c0,-3.178 -4.19,-3.994 -7.56,-3.994c-7.257,0 -12.985,4.325 -12.985,10.583c0,4.083 4.605,5.324 8.941,5.324c3.032,0 5.537,-0.366 7.971,-1.3l0.485,-3.297c-1.761,0.939 -4.043,1.572 -6.173,1.572c-2.019,0 -4.19,-0.603 -4.19,-2.512c0,-0.271 0,-0.637 0.151,-0.909c4.53,0.005 13.36,-0.781 13.36,-5.467zm-7.97,-0.998c1.047,0 1.872,0.36 1.872,1.3c0,1.814 -3.891,2.417 -6.776,2.417c0.79,-1.696 2.434,-3.717 4.904,-3.717zm39.107,12.58l-6.659,0l4.342,-16.633l-10.592,16.633l-6.174,0l-1.832,-16.663l-4.342,16.663l-6.361,0l5.314,-20.173l10.85,0l1.275,13.792l8.567,-13.792l10.926,0l-5.314,20.173zm11.948,-6.11c-0.152,0.272 -0.152,0.637 -0.152,0.91c0,1.902 2.171,2.51 4.19,2.51c2.136,0 4.413,-0.637 6.174,-1.571l-0.486,3.297c-2.434,0.939 -4.939,1.3 -7.97,1.3c-4.342,0 -8.942,-1.241 -8.942,-5.324c0,-6.258 5.723,-10.583 12.985,-10.583c3.365,0 7.56,0.815 7.56,3.994c0,4.68 -8.835,5.467 -13.359,5.467zm5.389,-6.47c-2.469,0 -4.119,2.026 -4.903,3.717c2.884,0 6.776,-0.604 6.776,-2.418c-0.005,-0.939 -0.825,-1.3 -1.873,-1.3l0,0.001zm29.113,2.298l-2.692,10.282l-6.923,0l2.394,-9.13c0.111,-0.485 0.263,-0.94 0.263,-1.394c0,-0.905 -0.521,-1.513 -1.872,-1.513c-2.171,0 -3.219,1.661 -3.593,3.144l-2.318,8.893l-6.923,0l3.143,-11.977c0.298,-1.088 0.562,-2.18 0.673,-3.298l6.548,0l-0.597,2.694c1.832,-2.086 3.669,-2.995 6.847,-2.995c2.996,0 5.278,1.028 5.278,3.628a6.48,6.48 0 0 1 -0.228,1.666zm10.187,10.613c-4.377,0 -8.755,-1.542 -8.755,-5.596c0,-6.258 5.278,-10.311 12.945,-10.311c4.377,0 8.755,1.483 8.755,5.566c0,6.228 -5.314,10.34 -12.945,10.34l0,0.001zm3.178,-12.368c-3.183,0 -4.681,4.355 -4.681,6.441c0,1.33 0.597,2.387 2.434,2.387c3.178,0 4.752,-4.354 4.752,-6.44c0.005,-1.36 -0.673,-2.388 -2.505,-2.388zm26.871,0.421c-1.609,-0.544 -3.33,-0.905 -5.091,-0.905c-1.194,0 -3.482,0.183 -3.482,1.453c0,1.997 8.457,1.785 8.457,5.809c0,4.562 -5.952,5.595 -10.476,5.595c-2.317,0 -4.6,-0.242 -6.811,-0.786l1.27,-3.54c1.645,0.727 3.441,1.182 5.349,1.182c1.311,0 3.927,-0.242 3.927,-1.631c0,-1.967 -8.269,-1.666 -8.269,-5.838c0,-4.266 6.174,-5.323 10.364,-5.323c2.019,0 4.155,0.301 6.098,0.726l-1.336,3.258z" fill="#0054A5"/>
  </svg>