<svg  id="fndm-krp5eqqe11" viewBox="0.9343857765197754 0.30000001192092896 708.0656127929688 280.70001220703125" xmlns="http://www.w3.org/2000/svg">
   <g xmlns="http://www.w3.org/2000/svg" fill="none">
    <path d="m22.3,1c-8.9,2.1 -18.1,11.1 -20.3,19.8c-1.3,5.3 -1.5,241.1 -0.1,245.8c1.8,6.2 7.6,14.4 10.2,14.4c0.5,0 0.9,-2.6 0.9,-5.8l0,-5.7l14,-10.8l14,-10.9l0,-7.4c0,-5.8 -0.3,-7.3 -1.2,-6.8c-1.3,0.8 -9.4,7 -19.8,15.1c-3,2.4 -5.8,4.3 -6.2,4.3c-0.5,0 -0.8,-9.4 -0.8,-21l0,-20.9l21.7,-16.7c21.3,-16.3 21.8,-16.6 24.3,-15.2c1.4,0.8 11.1,8.1 21.7,16.1c10.5,8.1 19.5,14.7 20,14.7s6.9,-4.6 14.3,-10.3l13.5,-10.2l0.3,-6.4c0.3,-6.6 -0.4,-10.3 -1.6,-8.5c-0.4,0.5 -6.4,5.4 -13.5,10.7c-8.4,6.5 -12.9,9.3 -13.2,8.4c-0.3,-0.7 -0.4,-10.2 -0.3,-21.2l0.3,-20l11.5,-8.8c23.5,-18 30.5,-23.3 31.8,-24.1c0.8,-0.5 2.6,0.2 4.5,1.7c1.8,1.4 11.1,8.6 20.7,16.1c9.6,7.4 18.1,13.5 18.8,13.6c1.2,0 26,-18.4 27.4,-20.5c1,-1.3 1,-14.5 0.1,-14.5c-0.5,0 -6.6,4.5 -13.8,9.9c-7.1,5.5 -13.3,9.7 -13.7,9.5c-0.5,-0.3 -0.8,-9.7 -0.8,-20.9l0,-20.4l12.8,-9.7c7,-5.4 17.1,-13.2 22.5,-17.3c5.7,-4.3 10.1,-7.1 10.5,-6.5c0.4,0.6 4.5,3.9 9.2,7.4c4.7,3.5 14.2,10.8 21.3,16.3l12.7,9.9l0,20.3c0,11.2 -0.4,20.6 -0.8,20.9c-0.4,0.2 -2.3,-0.7 -4.2,-2.2c-9.6,-7.6 -22.6,-17.2 -23.2,-17.2c-0.5,0 -0.8,3.1 -0.8,6.8c0,7.9 -0.4,7.4 15.1,19c15.5,11.7 13.9,8.1 13.9,31.7c0,11.4 -0.4,20.5 -0.9,20.5s-6.8,-4.5 -14,-10c-7.1,-5.5 -13.3,-10 -13.6,-10c-0.3,0 -0.5,3.3 -0.5,7.3l0,7.2l14.3,11.1l14.2,11l0.3,20.4c0.1,11.2 -0.1,20.7 -0.6,21.2c-0.7,0.7 -5.5,-2.5 -21.3,-14.9c-3,-2.3 -5.8,-4.3 -6.2,-4.3c-0.4,0 -0.7,3.3 -0.7,7.3l0,7.3l13.2,9.9c7.2,5.5 13.7,10.6 14.5,11.3c0.8,0.8 1.3,3.6 1.3,6.8c0,3 0.4,5.4 0.9,5.4c1.8,0 7.2,-7.5 9.1,-12.8c2,-5.1 2,-8.1 2,-123.8c0,-104.4 -0.2,-119.2 -1.6,-124c-1.9,-6.6 -8.8,-14.6 -15.3,-17.7l-4.6,-2.2l-120.5,-0.2c-66.3,0 -121.9,0.2 -123.7,0.7z" fill="#711A3A"/>
    <path d="m336,155.9l0,63.1l21,0l0.2,-20.3l0.3,-20.2l20,-0.6c21.6,-0.7 25.1,-1.4 35.3,-7c13.7,-7.6 20.2,-19.2 20.2,-35.7c0,-15.2 -5.5,-26.4 -16.8,-33.9c-11.1,-7.4 -12.6,-7.7 -48.4,-8.1l-31.8,-0.3l0,63zm62,-41.2c4.8,2.1 10.5,7.8 12.1,12c0.5,1.3 0.9,5.2 0.9,8.6c-0.1,8.1 -2.6,13.7 -8.1,17.7c-7,5 -12.5,6.1 -30,5.8l-15.4,-0.3l-0.3,-22c-0.1,-12.1 0,-22.6 0.3,-23.3c0.4,-1.2 3.8,-1.3 18.3,-1c15,0.4 18.4,0.8 22.2,2.5zm46,41.3l0,63l21,0l0,-62c0,-34.1 0.1,-62.3 0.3,-62.8c0.1,-0.4 -4.6,-0.8 -10.5,-1l-10.8,-0.3l0,63.1zm42,0l0,63.1l10.3,-0.3l10.2,-0.3l0.2,-44c0.1,-24.6 0.6,-44.1 1.1,-44.3c0.5,-0.1 1.6,0.8 2.4,2c0.9,1.3 4.4,5.9 7.9,10.4c10.1,12.8 14.6,18.6 49.9,64.2l9.4,12.3l9.1,-0.3l9,-0.3l0.3,-62.8l0.3,-62.7l-22.2,0l0.3,43c0.2,28.2 0,43 -0.7,43c-1.1,-0.1 -1.7,-0.9 -19.5,-24c-6.2,-8 -13.7,-17.8 -16.8,-21.8c-3.2,-4.1 -11.5,-14.8 -18.5,-23.8l-12.8,-16.4l-19.9,0l0,63zm129,0l0,63l94,0l0,-19l-36.2,-0.2l-36.3,-0.3l-0.3,-17.3l-0.2,-17.2l64,0l0,-19l-31.7,-0.2l-31.8,-0.3l-0.3,-16.8l-0.2,-16.7l72,0l0,-19l-93,0l0,63z" fill="#555A5A"/>
    <path d="m207.5,179.6c-3.8,3 -9.8,7.7 -13.3,10.5l-6.3,4.9l-3.7,-3c-10.5,-8.6 -21.8,-17 -22.9,-17c-0.9,0 -1.3,2 -1.3,6.8c0,7.8 -1.7,5.8 17.7,20.6l10.3,7.7l14,-10.6l14,-10.7l0,-7.4c0,-4.1 -0.3,-7.4 -0.7,-7.4c-0.5,0.1 -3.9,2.6 -7.8,5.6zm-134.5,60.8l0,7.5l12.2,9.3c6.7,5.1 13,9.9 13.9,10.5c1.5,1.1 3.6,-0.1 15.1,-8.9c7.3,-5.6 13.6,-10.6 14,-11.2c0.8,-1.1 1.1,-14.6 0.4,-14.6c-0.3,0 -6.4,4.5 -13.6,10c-7.3,5.5 -13.8,10 -14.4,10c-0.7,0 -3,-1.5 -5.2,-3.3c-4.1,-3.5 -19,-14.8 -21.1,-16.1c-1,-0.5 -1.3,1.1 -1.3,6.8zm87.2,-0.2l0.3,7.1l13,10.3c7.2,5.7 13.6,10.3 14.3,10.3c0.7,0.1 5.9,-3.3 11.5,-7.6c18.3,-13.7 16.7,-11.8 16.7,-20.1c0,-3.9 -0.3,-7.2 -0.7,-7.2c-0.5,0 -6.5,4.5 -13.5,10c-11.9,9.3 -15.1,11.2 -16,9.2c-0.4,-1 -24.2,-19.2 -25.2,-19.2c-0.4,0 -0.6,3.2 -0.4,7.2z" fill="#711A3A"/>
   </g>
  </svg>