<svg xmlns="http://www.w3.org/2000/svg" viewBox="0 0 635.010009765625 143"><path fill="#DC3B41" d="m100.038,37.919c-1.5693,-25.3134 -28.4494,-34.24448 -29.6643,-34.60173l-10.2763,-3.31727l0,3.2152l0,118.1968c-5.3659,-3.623 -10.6305,-8.676 -10.6812,-18.679c0,-8.5224 3.6954,-13.9832 8.3526,-17.9639l0,-17.1988c-7.1883,3.9807 -21.7673,14.2388 -22.9823,32.7647l-0.0506,0.612l-0.0506,1.735l0,0.102l0,0.051l0,0.205l0.1012,2.143c1.6706,25.109 28.4495,34.091 29.6644,34.5l10.2762,3.317l0,-121.4632c5.4166,3.6234 10.6812,8.6759 10.6812,18.7298l0,0.051c0,8.5229 -3.6954,14.0346 -8.4032,18.0664l0,17.1478c7.1883,-3.9297 21.8686,-14.2388 23.0329,-32.9176l0.051,-2.1435l0,-0.102l0,-0.0511l0,-0.051l-0.051,-2.3476z"/><path fill="#BB2F3B" d="m117.344,25.4678l-4.961,-9.6967c0,0 -4.809,4.8483 -12.048,12.1463c1.012,3.0111 1.772,6.2263 1.974,9.8498l0.101,2.6028l-0.101,2.3986c-0.101,1.7352 -0.455,3.2663 -0.759,4.8483c3.493,-3.4703 5.72,-5.7669 6.125,-6.1242c1.063,5.3077 1.266,11.2788 -2.683,17.2499l15.845,0c4.961,-16.1781 -3.038,-32.4072 -3.493,-33.2748z"/><path fill="#BB2F3B" d="m40.0512,39.449l1.7212,0.0511c-2.1768,-2.1945 -3.6954,-3.6746 -3.9485,-3.9808c6.1758,-1.2248 13.1616,-1.3779 19.9956,5.0525l0,-17.3519c-16.9077,-7.0939 -34.9797,2.0414 -35.8909,2.5517l-9.5675,5.0015l2.278,2.2965c0,0 3.9991,4.0318 9.77,9.8498c3.8472,-1.8373 8.2513,-3.1131 13.2629,-3.4193l2.3792,0l0,-0.0511z"/><path fill="#BB2F3B" d="m17.5761,117.636l4.9609,9.697l2.278,-2.297c0,0 3.8473,-3.879 9.8206,-9.901c-1.1136,-3.011 -1.873,-6.328 -2.1261,-10.003l0,-2.449l0.1013,-2.501c0.1012,-1.6842 0.4556,-3.1642 0.7593,-4.6953c-3.4929,3.5214 -5.7203,5.7673 -6.0746,6.1243c-1.0631,-5.3077 -1.3162,-11.2788 2.6323,-17.1989l-15.8952,0c-4.96097,16.1779 3.0879,32.3559 3.5435,33.2239z"/><path fill="#BB2F3B" d="m94.9594,103.653l-1.5692,-0.051c2.0248,2.041 3.3916,3.47 3.6954,3.725c-6.1759,1.225 -13.2123,1.378 -20.0463,-5.103l0,17.301c16.9583,7.145 34.9797,-1.991 35.9417,-2.45l9.618,-5.001l-2.278,-2.297c0,0 -3.898,-3.93 -9.568,-9.645c-3.897,1.888 -8.302,3.164 -13.3637,3.521l-2.4299,0z"/><path fill="#DC3B41" d="m40.1431,41.7981l-0.0506,0l-0.1013,0l-2.3792,0.051c-25.1084,1.5821 -33.96723,28.6817 -34.32158,29.9065l-3.29042,10.3601l3.18917,0l35.38463,0c4.5054,-7.0428 10.5294,-11.8401 15.1866,-14.8001l-32.398,0c3.5942,-5.4608 8.6057,-10.7684 18.5782,-10.7684c8.4538,0 13.8198,3.7256 17.7683,8.4208c0.0506,0 0.0506,0 0.0506,-0.0511l0,-18.2705c-4.3535,-2.5517 -9.4663,-4.389 -15.5409,-4.7973l-2.0755,-0.051z"/><path fill="#DC3B41" d="m131.761,61.0389l-35.536,0c-4.5054,7.0428 -10.58,11.8911 -15.1866,14.8001l32.5496,0c-3.594,5.4097 -8.605,10.7173 -18.578,10.7173c-8.4538,0 -13.8703,-3.7255 -17.8695,-8.4718c-0.0506,0 -0.1012,0.0511 -0.1012,0.0511l0,18.2705c4.3535,2.6028 9.5675,4.4909 15.6422,4.8479l2.1767,0.102l0.0506,0l0.1012,0l0.1013,0l2.2274,-0.102c25.1083,-1.5817 33.9673,-28.6812 34.3723,-29.9061l3.29,-10.3601l-3.24,0l0,0.0511z"/><path fill="#DC3B41" d="m405.179,95.3822l-3.594,-3.8787c-3.746,3.0621 -8.252,4.6442 -13.82,4.6442c-9.719,0 -15.591,-4.0828 -15.591,-12.7077c0,-6.6856 3.695,-10.7173 9.719,-13.7284l-1.215,-1.3779c-2.531,-2.807 -4.151,-5.8691 -4.151,-9.6967c0,-7.8083 6.125,-11.8401 14.124,-11.8401c5.821,0 9.618,1.7862 14.174,5.0014l-4.556,6.8898c-3.139,-2.3987 -6.48,-3.4194 -9.872,-3.4194c-2.784,0 -4.454,1.1738 -4.454,3.1642c0,2.0414 1.012,3.4193 2.531,5.2055l13.06,15.0554c1.063,-2.1945 2.177,-4.7973 3.341,-7.9105l7.644,2.4497c-1.468,4.6442 -3.24,8.676 -5.366,11.9422l8.96,10.258l-10.934,0l0,-0.051zm-18.274,-20.0567c-3.746,1.9903 -5.215,4.44 -5.215,7.2979c0,3.0621 2.43,5.0525 7.189,5.0525c2.936,0 5.366,-0.6634 7.34,-2.1435l-9.314,-10.2069z"/><path fill="#221F1F" d="m171.956,78.4374l-10.428,0l0,16.9436l-9.517,0l0,-47.8198l20.755,0c8.96,0 16.351,5.0014 16.351,15.1574c0,11.0746 -7.34,15.7188 -17.161,15.7188zm0.456,-21.5878l-10.884,0l0,12.2994l11.036,0c4.404,0 6.783,-2.0414 6.783,-6.2262c0,-4.1339 -2.733,-6.0732 -6.935,-6.0732z"/><path fill="#221F1F" d="m194.076,95.381l0,-47.8198l9.466,0l0,38.4294l23.792,0l0,9.3904l-33.258,0z"/><path fill="#221F1F" d="m264.949,95.381l-3.746,-10.6663l-17.363,0l-3.746,10.6663l-10.175,0l18.173,-47.8198l9.213,0l18.021,47.8198l-10.377,0zm-10.023,-28.4265c-0.962,-2.8069 -1.873,-5.6649 -2.379,-7.4511c-0.456,1.7862 -1.418,4.6442 -2.38,7.4511l-3.037,8.676l10.833,0l-3.037,-8.676z"/><path fill="#221F1F" d="m308.794,95.381l-17.414,-26.1299c-1.165,-1.7862 -2.734,-4.1849 -3.341,-5.4097c0,1.7862 0.151,7.8083 0.151,10.4622l0,21.0774l-9.365,0l0,-47.8198l9.062,0l16.806,25.2623c1.165,1.7863 2.683,4.1849 3.341,5.4097c0,-1.7862 -0.152,-7.8083 -0.152,-10.4621l0,-20.2099l9.365,0l0,47.8198l-8.453,0z"/><path fill="#221F1F" d="m343.477,96.1477c-12.959,0 -20.603,-10.1049 -20.603,-24.7009c0,-14.545 7.644,-24.6499 20.603,-24.6499c12.96,0 20.603,10.1049 20.603,24.6499c0.051,14.596 -7.643,24.7009 -20.603,24.7009zm0,-39.8583c-7.644,0 -10.833,6.6346 -10.833,15.1574c0,8.5228 3.189,15.1574 10.833,15.1574c7.644,0 10.833,-6.6346 10.833,-15.1574c0.051,-8.5228 -3.138,-15.1574 -10.833,-15.1574z"/><path fill="#221F1F" d="m442.886,78.4374l-10.428,0l0,16.9436l-9.517,0l0,-47.8198l20.755,0c8.96,0 16.351,5.0014 16.351,15.1574c0,11.0746 -7.341,15.7188 -17.161,15.7188zm0.455,-21.5878l-10.934,0l0,12.2994l11.036,0c4.404,0 6.783,-2.0414 6.783,-6.2262c0.051,-4.1339 -2.683,-6.0732 -6.885,-6.0732z"/><path fill="#221F1F" d="m464.964,95.381l0,-47.8198l9.517,0l0,38.4294l23.792,0l0,9.3904l-33.309,0z"/><path fill="#221F1F" d="m535.89,95.381l-3.696,-10.6663l-17.363,0l-3.746,10.6663l-10.175,0l18.173,-47.8198l9.213,0l18.022,47.8198l-10.428,0zm-10.024,-28.4265c-0.961,-2.8069 -1.873,-5.6649 -2.379,-7.4511c-0.455,1.7862 -1.417,4.6442 -2.379,7.4511l-3.037,8.676l10.833,0l-3.038,-8.676z"/><path fill="#221F1F" d="m579.66,95.381l-17.413,-26.1299c-1.165,-1.7862 -2.734,-4.1849 -3.341,-5.4097c0,1.7862 0.151,7.8083 0.151,10.4622l0,21.0774l-9.365,0l0,-47.8198l9.062,0l16.806,25.2623c1.164,1.7863 2.734,4.1849 3.341,5.4097c0,-1.7862 -0.152,-7.8083 -0.152,-10.4621l0,-20.2099l9.365,0l0,47.8198l-8.454,0z"/><path fill="#221F1F" d="m614.407,96.1477c-12.959,0 -20.603,-10.1049 -20.603,-24.7009c0,-14.545 7.644,-24.6499 20.603,-24.6499c12.959,0 20.603,10.1049 20.603,24.6499c0,14.596 -7.644,24.7009 -20.603,24.7009zm0,-39.8583c-7.644,0 -10.833,6.6346 -10.833,15.1574c0,8.5228 3.189,15.1574 10.833,15.1574c7.644,0 10.833,-6.6346 10.833,-15.1574c0.051,-8.5228 -3.189,-15.1574 -10.833,-15.1574z"/></svg>