<svg  id="fndm-1z09z4w7ug" viewBox="55 76.43000030517578 490 97.22699737548828" xmlns="http://www.w3.org/2000/svg">
   <g xmlns="http://www.w3.org/2000/svg" fill="none">
    <path d="m70,95l475,0l0,24l-475,0l0,-24z" fill="#F19F53"/>
    <path d="m71.559,173.57l0,-97.14l27.856,0c23.804,0 35.36,10.745 35.36,29.056c0,18.31 -11.643,29.056 -35.36,29.056l-8.538,0l0,39.028l-19.317,0l-0.001,0zm52.781,0l11.384,-44.1l11.298,0l11.125,44.1l-8.452,0l-2.242,-9.284l-12.16,0l-2.501,9.284l-8.452,0zm12.591,-16.677l8.71,0l-4.225,-17.795l-0.173,0l-4.312,17.795zm51.488,16.677l-7.676,-17.966l-4.14,0l0,17.966l-8.797,0l0,-44.1l12.764,0c10.608,0 15.61,4.9 15.61,13.153c0,5.502 -2.07,9.456 -6.899,11.261l8.624,19.686l-9.486,0zm-11.816,-24.844l4.485,0c3.88,0 6.21,-1.805 6.21,-6.103s-2.33,-6.104 -6.21,-6.104l-4.485,0l0,12.207zm26.477,24.844l11.384,-44.1l11.298,0l11.04,44.1l-8.367,0l-2.242,-9.284l-12.16,0l-2.501,9.284l-8.452,0zm12.591,-16.677l8.711,0l-4.226,-17.795l-0.086,0l-4.399,17.795zm26.477,16.677l0,-44.1l9.66,0l12.246,26.134l0.086,0l0,-26.134l8.02,0l0,44.1l-8.365,0l-13.454,-28.454l-0.086,0l0,28.454l-8.107,0zm35.36,0l11.384,-44.1l11.298,0l11.125,44.1l-8.452,0l-2.242,-9.284l-12.16,0l-2.501,9.284l-8.452,0zm12.505,-16.677l8.71,0l-4.225,-17.795l-0.173,0l-4.312,17.795zm30.53,16.677l0,-44.1l12.678,0c10.78,0 16.128,4.9 16.128,13.153c0,8.338 -5.261,13.152 -16.128,13.152l-3.88,0l0,17.71l-8.798,0l0,0.085zm8.797,-24.672l4.744,0c4.312,0 6.468,-2.063 6.468,-6.19c0,-4.126 -2.156,-6.189 -6.468,-6.189l-4.744,0l0,12.38l0,-0.001zm20.612,24.672l11.385,-44.1l11.297,0l11.04,44.1l-8.366,0l-2.242,-9.284l-12.16,0l-2.502,9.284l-8.452,0zm12.506,-16.677l8.71,0l-4.226,-17.795l-0.172,0l-4.312,17.795zm27.598,16.677l0,-44.1l9.659,0l12.246,26.134l0.173,0l0,-26.134l8.02,0l0,44.1l-8.365,0l-13.454,-28.454l-0.086,0l0,28.454l-8.193,0zm38.982,0l0,-44.1l24.061,0l0,7.48l-15.265,0l0,10.143l11.643,0l0,7.479l-11.643,0l0,11.605l15.955,0l0,7.48l-24.751,0l0,-0.087zm34.669,0l0,-44.1l12.247,0l7.934,28.97l0.087,0l7.934,-28.97l12.419,0l0,44.1l-7.503,0l0,-34.644l-0.086,0l-9.4,34.644l-6.642,0l-9.4,-34.644l-0.173,0l0,34.644l-7.417,0zm46.313,0l11.384,-44.1l11.298,0l11.126,44.1l-8.452,0l-2.243,-9.284l-12.16,0l-2.501,9.284l-8.452,0zm12.505,-16.677l8.711,0l-4.226,-17.795l-0.172,0l-4.313,17.795zm-467.525,-65.075l16.559,0l0,27.423l-16.559,0l0,-27.423z" fill="#753D29"/>
    <path d="m101.226,91.818l-29.666,0l0,27.422l29.667,0c9.487,0 14.23,-4.556 14.23,-13.668c0.087,-9.198 -4.657,-13.754 -14.23,-13.754l-0.001,0z" fill="#F19F53"/>
   </g>
  </svg>