<svg xmlns="http://www.w3.org/2000/svg" fill-rule="evenodd" clip-rule="evenodd" image-rendering="optimizeQuality" shape-rendering="geometricPrecision" text-rendering="geometricPrecision" viewBox="-2 1 6600 3300"><g><rect width="6600" height="3300" x="-2" y="1" fill="none"/><g><path fill="#4b4b4d" fill-rule="nonzero" d="M711.63 1796.64l0 -293.48c-37.81,-8 -68,-12 -90.54,-12 -37.1,0 -62.38,7.28 -75.84,21.81 -13.46,14.54 -20.18,40.38 -20.18,77.48l0 117.82c0,38.56 6.9,64.73 20.73,78.56 13.81,13.81 38.91,20.73 75.29,20.73 31.99,0 62.19,-3.64 90.54,-10.92zm2317.38 129.84c-71.16,15.08 -141.12,14.54 -209.49,0 -56,-12.36 -98.19,-36.37 -126.56,-72 -10.9,-16 -18.9,-32.75 -24,-50.19 -8,-26.93 -12,-58.56 -12,-94.92l0 -120.02c0,-36.36 4,-67.65 12,-93.84 15.27,-59.63 65.47,-100.74 150.56,-123.28 68.37,-14.55 138.2,-14.55 209.49,0 66.91,16 113.1,48.38 138.56,97.11 6.54,10.17 11.64,24.72 15.26,43.63l0.69 4.18 -156.69 171.85 0 -99.65c0,-39.28 -6.91,-65.46 -20.74,-78.55 -13.1,-13.1 -40.73,-19.64 -82.92,-19.64 -39.27,0 -66.17,6.18 -80.73,18.54 -14.54,12.37 -22.19,38.91 -22.92,79.65l0 120.02c0,39.27 7.1,65.46 21.27,78.55 14.19,13.1 41.65,19.64 82.38,19.64 39.29,0 66.19,-6.72 80.75,-20.18 1.78,-1.64 3.45,-3.51 5.02,-5.52l326.66 -358.25c33.96,-37.23 96.36,-62.2 165.91,-63.38 29.72,-0.49 59.05,2.89 87.82,8.63l0 125.54c-16.37,-2.16 -33.29,-3.24 -50.72,-3.24 -36.39,0 -62.2,6.29 -75.29,20.71l-316.12 347.97c-25.64,28.23 -96.19,61.97 -118.19,66.64zm-2321.73 -5.46c-41.46,11.65 -82.56,17.46 -123.29,17.46 -146.2,-3.64 -219.3,-80.36 -219.3,-230.21l0 -105.82c0,-79.29 16.55,-139.49 49.64,-180.58 33.1,-41.1 86.72,-61.64 160.91,-61.64 51.66,0 104.39,13.82 158.23,41.46l9.81 -31.64 129.84 0 0 485.53c0,24.71 -0.36,41.09 -1.09,49.09 0,39.27 -4.37,70.54 -13.1,93.83 -13.1,37.09 -30.91,64.73 -53.47,82.9 -30.54,26.92 -69.09,46.2 -115.64,57.84 -58.2,13.1 -142.21,19.64 -252.03,19.64l-46.92 0 0 -127.65c139.67,0 227.29,-6.56 262.95,-19.66 34.91,-12.36 52.73,-42.53 53.46,-90.55zm295.67 -550.97l134.21 0 14.17 48 49.1 -17.46c13.1,-5.08 31.28,-12 54.55,-20.71 39.29,-13.1 73.83,-19.65 103.65,-19.65l0 142.93c-88.01,2.18 -152.38,9.45 -193.11,21.81l0 403.7 -162.57 0 0 -558.62zm808.46 558.62l-9.81 -30.56c-53.83,26.91 -105.11,40.37 -153.84,40.37 -79.29,0 -134.21,-17.1 -164.74,-51.27 -29.84,-35.65 -44.74,-89.47 -44.74,-161.48l0 -355.68 162.56 0 0 310.95c0,29.1 1.1,51.27 3.29,66.54 2.17,16.75 9.81,30.92 22.89,42.56 13.1,11.64 31.28,17.46 54.56,17.46 34.91,0 67.64,-5.46 98.2,-16.36l0 -421.15 162.57 0 0 558.62 -130.94 0zm548.8 9.81c-43.63,0 -86.19,-6.17 -127.65,-18.53l0 225.83 -161.48 0 0 -775.73 129.85 0 9.82 31.64c53.81,-27.64 106.55,-41.46 158.19,-41.46 74.21,0 127.83,20.54 160.93,61.64 33.09,41.09 49.64,101.29 49.64,180.58l0 105.82c0,149.85 -73.1,226.57 -219.3,230.21zm-127.65 -435.32l0 293.48c28.36,7.28 58.56,10.92 90.55,10.92 36.38,0 61.48,-6.92 75.29,-20.73 13.83,-13.83 20.73,-40 20.73,-78.56l0 -117.82c0,-37.1 -6.72,-62.94 -20.18,-77.48 -13.46,-14.53 -38.74,-21.81 -75.84,-21.81 -22.53,0 -52.73,4 -90.55,12z"/><path fill="#00829a" d="M3629.16 1378.78l0 -112.93 0 -112.91 161.48 0 0 775.73 -129.84 0 -9.81 -31.65c-53.83,27.65 -106.57,41.46 -158.22,41.46 -74.19,0 -127.82,-20.54 -160.92,-61.65 -20.69,-25.69 -34.92,-58.82 -42.67,-99.43l153.41 -168.26 0 99.13c0,37.1 6.72,62.92 20.18,77.47 13.46,14.55 38.74,21.82 75.84,21.82 22.55,0 52.73,-4 90.55,-12l0 -211.6 0 -81.9 0 -123.28zm455.52 549.89l-161.48 0 0 -558.62 161.48 0 0 558.62zm7.64 -707l0 8.72c0,31.28 -6.38,52.37 -19.11,63.3 -12.73,10.9 -35.82,16.35 -69.28,16.35 -33.46,0 -56.56,-5.45 -69.27,-16.35 -12.74,-10.93 -19.11,-32.02 -19.11,-63.3l0 -8.72c0,-30.56 6.55,-51.29 19.65,-62.19 13.1,-10.92 36.01,-16.36 68.73,-16.36 32.73,0 55.65,5.44 68.75,16.36 13.08,10.9 19.64,31.63 19.64,62.19zm252.03 148.38l9.81 30.54c53.83,-26.9 103.29,-40.36 148.38,-40.36 77.83,0 132.39,16.72 163.67,50.18 67.65,-33.46 125.1,-50.18 172.38,-50.18 80,0 134.56,17.46 163.65,52.38 30.56,34.17 45.83,87.63 45.83,160.38l0 355.68 -162.58 0 0 -310.95c0,-29.1 -1.07,-51.29 -3.25,-66.55 -2.18,-16.74 -9.82,-30.91 -22.92,-42.56 -13.1,-11.64 -31.27,-17.45 -54.55,-17.45 -31.28,0 -63.27,6.18 -96.01,18.54 2.18,19.63 3.26,40.73 3.26,63.29l0 355.68 -162.56 0 0 -310.95c0,-29.1 -1.09,-51.29 -3.29,-66.55 -2.17,-16.74 -9.81,-30.91 -22.89,-42.56 -13.1,-11.64 -31.28,-17.45 -54.55,-17.45 -31.28,0 -62.19,5.45 -92.75,16.35l0 421.16 -162.56 0 0 -558.62 130.93 0zm954.1 220.4l184.38 0c6.56,-70.56 -20.02,-105.85 -79.65,-105.85l-4.37 0c-31.25,0 -54.72,7.84 -70.37,23.48 -15.61,15.63 -25.63,43.09 -29.99,82.37zm333.86 104.72l-336.04 0c0,37.1 5.64,64.21 16.9,81.29 11.26,17.1 29.03,27.35 52.91,32.2 65.57,13.33 143.31,9.44 233.5,-13.1l0 121.11c-78.56,14.54 -137.85,21.81 -177.84,21.81 -105.47,0 -179.84,-19.82 -222.58,-60 -43.1,-40.54 -64.36,-116.38 -64.36,-226.94 0,-117.83 23.66,-196.74 70.9,-236.76 24.03,-20.33 50.74,-34.55 80.2,-42.55 29.44,-8 67.11,-12 112.91,-12 79.29,0 138.61,17.85 178.94,52.38 40.4,34.56 61.1,95.26 61.1,183.29 0,26.9 -2.18,60 -6.54,99.27zm309.86 -334.94c43.6,-0.83 86.19,6.18 127.65,18.55l0 -225.84 161.48 0 0 775.73 -129.83 0 -9.82 -31.65c-53.83,27.65 -106.56,41.46 -158.22,41.46 -74.19,0 -127.82,-20.55 -160.92,-61.65 -33.07,-41.09 -49.64,-101.27 -49.64,-180.56l0 -105.82c0,-149.84 73.08,-227.45 219.3,-230.22zm127.65 435.33l0 -293.5c-28.36,-7.26 -58.56,-10.9 -90.55,-10.9 -36.38,0 -61.49,6.9 -75.29,20.71 -13.82,13.83 -20.72,40.03 -20.72,78.58l0 117.82c0,37.08 6.72,62.93 20.17,77.47 13.45,14.55 38.74,21.82 75.84,21.82 22.55,0 52.73,-4 90.55,-12z"/></g></g></svg>