<svg  id="fndm-xyn7k0dz4l" data-name="Capa 1" viewBox="3.8299996852874756 4.719997406005859 127.11882019042969 23.500001907348633" xmlns="http://www.w3.org/2000/svg">
   <path d="m15.58,28.22a11.75,11.75 0 1 0 -11.75,-11.75a11.75,11.75 0 0 0 11.75,11.75" fill="#fff"/>
   <path d="m20.58,16.47a5,5 0 1 1 -5,-5a5,5 0 0 1 5,5" fill="#f58220"/>
   <path d="m25.6,11.7a5,5 0 0 0 0,9.69a11.11,11.11 0 0 0 1.13,-4.88a10.89,10.89 0 0 0 -1.1,-4.81m-16.2,4.77a5,5 0 0 0 -3.82,-4.85a11.08,11.08 0 0 0 0,9.71a5,5 0 0 0 3.82,-4.86m9.27,5.33a5,5 0 0 0 -2.35,5.74a11.09,11.09 0 0 0 8.4,-4.83a5,5 0 0 0 -6.05,-0.91m-6.13,-10.69a5,5 0 0 0 2.35,-5.71a11,11 0 0 0 -8.45,4.76a5,5 0 0 0 6.1,0.95m-0.03,10.7a5,5 0 0 0 -6.17,0.86a11.07,11.07 0 0 0 8.4,4.87a5,5 0 0 0 -2.23,-5.73m6.2,-10.62a5,5 0 0 0 6.12,-0.8a11.07,11.07 0 0 0 -8.34,-5a5,5 0 0 0 2.22,5.76m95.57,9.78l2.81,-10.84l3.28,0l-2.89,11.11s-0.22,0.75 0,1.05s0.84,0.12 0.84,0.12l0,1.55s-2.85,0.84 -4.06,-0.51c-0.52,-0.58 0,-2.48 0,-2.48m-60.06,3.07l3.29,0s1.72,-6 1.92,-7.91c0.28,-2.54 -2.32,-2.68 -4.35,-2.68a11.81,11.81 0 0 0 -3.82,0.58l-0.67,2.63a10.2,10.2 0 0 1 4,-0.87c1,0 1.71,0.24 1.59,1c0,0.15 -0.12,0.5 -0.12,0.5c-4,0 -7.41,1.46 -7.58,4.12c-0.13,2 0.62,2.91 2.54,2.91c1,0 3,-0.37 3.51,-1.44l-0.31,1.16zm-1.18,-1.91c-0.67,0 -1.15,0 -1.21,-0.6a1.73,1.73 0 0 1 1,-1.76a6.91,6.91 0 0 1 2.64,-0.48c-0.14,0.64 -0.51,2.08 -0.51,2.08a3.05,3.05 0 0 1 -1.88,0.76m60.52,-4.09c0.58,-2.63 -1,-4.61 -3.93,-4.61c-4,0 -6.37,2.42 -7.18,6.08c-0.58,2.63 0.53,4.84 3.71,4.84c4.07,0 6.45,-2 7.4,-6.31m-3.41,0c-0.52,2.37 -1.1,3.95 -3.15,3.95c-1,0 -1.61,-0.7 -1.18,-2.52c0.4,-1.66 1,-3.72 3.12,-3.72c1.16,0 1.44,1.21 1.21,2.29m20.63,0c0.58,-2.63 -1,-4.61 -3.94,-4.61c-4,0 -6.37,2.42 -7.17,6.08c-0.58,2.63 0.52,4.84 3.7,4.84c4.08,0 6.46,-2 7.41,-6.31m-3.42,0c-0.52,2.37 -1.1,3.95 -3.14,3.95c-1,0 -1.62,-0.7 -1.18,-2.52c0.39,-1.66 1,-3.72 3.12,-3.72c1.15,0 1.44,1.21 1.2,2.29m-61.54,-4.34l-0.35,1.34a7,7 0 0 1 4.1,-1.42l-0.84,3.11a5.83,5.83 0 0 0 -3.78,0.41l-1.88,6.9l-3.23,0l2.73,-10.32l3.25,-0.02zm23.13,14.07l3.3,0l1.2,-4.24a3.52,3.52 0 0 0 2.31,0.59c2.89,0 6.11,-3 6.11,-7.28c0,-2.2 -1,-3.13 -3.47,-3.26c-2.15,-0.11 -5.65,0.13 -5.65,0.13l-3.8,14.06zm5,-6.23l1.42,-5.66a2.47,2.47 0 0 1 1.15,-0.16c1.6,0 2.35,0.32 1.78,2.66c-0.36,1.47 -1,3.3 -3,3.34a2.92,2.92 0 0 1 -1.35,-0.18m-17.2,2.01a9.3,9.3 0 0 1 -3.76,0.74c-3.28,0 -4.65,-1.34 -4.52,-3.8a7.26,7.26 0 0 1 7.13,-7a6.94,6.94 0 0 1 3.56,0.75l-0.67,2.89l-0.47,-0.09a3,3 0 0 0 -2.47,-1.24c-2,0 -3.58,2.14 -3.69,4.16a1.84,1.84 0 0 0 2.25,2a3.85,3.85 0 0 0 2.9,-1.28l0.45,0l-0.71,2.87zm13.43,-5.51c0.58,-2.63 -1,-4.61 -3.94,-4.61c-4,0 -6.37,2.42 -7.17,6.08c-0.58,2.63 0.52,4.84 3.7,4.84c4.08,0 6.46,-2 7.41,-6.31m-3.42,0c-0.52,2.37 -1.1,3.95 -3.14,3.95c-1,0 -1.62,-0.7 -1.18,-2.52c0.4,-1.66 1,-3.72 3.12,-3.72c1.15,0 1.44,1.21 1.2,2.29m-41.16,-7.66l-4.87,6.89l-1.23,-6.89l-4.07,0l0,0.05l-3.59,13.61l3.27,0l2.35,-8.66l0.71,4.06c0.62,3.54 2,2.69 3.67,0.22l2.94,-4.38l-2.31,8.76l3.48,0l3.66,-13.63l-4.01,-0.03z" fill="#231f20"/>
  </svg>