<svg xmlns="http://www.w3.org/2000/svg" fill-rule="evenodd" clip-rule="evenodd" image-rendering="optimizeQuality" shape-rendering="geometricPrecision" text-rendering="geometricPrecision" viewBox="-1.9900000095367432 1 6599.990234375 3300"><g><rect width="6599.99" height="3300" x="-1.99" y="1" fill="none"/><g fill-rule="nonzero"><path fill="#25447b" d="M3743.05 2911.97c-27.25,4.77 -45.44,31.12 -40.69,58.9 4.5,26.19 27.59,41.33 56.01,36.5 6.2,-1.07 12.27,-2.86 21.6,-5.1 0,11.17 1.54,20.55 -0.25,29.41 -7.59,37.66 -37.19,57.58 -68.81,75.54 1.16,1.9 2.24,3.75 3.42,5.68 3.04,0 6.38,0.86 9.08,-0.13 26.27,-9.55 49.88,-23.26 67.21,-45.58 26.4,-33.96 35.17,-71.98 22.21,-113.17 -9.93,-31.65 -38.08,-47.59 -69.78,-42.05z"/><path fill="#25447b" d="M5466.78 2817.89c-20.41,-12.55 -43.73,-20.47 -65.39,-31.26 -15.86,-7.83 -32.39,-15.15 -46.24,-25.77 -20.66,-15.94 -24.22,-37.49 -13.27,-57.82 11.43,-21.08 36.2,-30.88 60.2,-23.65 18.49,5.55 33.42,16.56 45.28,31.12 10.1,12.39 18.81,26.02 27.28,39.65 5.83,9.38 11.95,12.3 20.12,5.99 0,-20.56 0.55,-39.79 -0.17,-58.96 -0.52,-15.95 -2.56,-31.87 -4.19,-51.21 -7.15,2.93 -14.04,3.7 -17.71,7.56 -14.05,14.84 -28.97,14.54 -46.13,6.15 -21.52,-10.45 -44.59,-13.38 -68.51,-12.08 -48.42,2.62 -87.57,33.24 -101.39,79.9 -14.12,47.73 -1.16,86.85 40.86,115.96 17.11,11.83 36.67,20.16 55.32,29.76 12.19,6.24 25.54,10.65 36.88,18.1 10.57,7.01 20.75,15.87 27.98,26.02 11.97,17.02 12.19,36.42 2.57,54.9 -9.8,18.79 -26.35,27.32 -47.62,27.65 -25.96,0.38 -46.93,-11.01 -65.89,-26.87 -18.87,-15.7 -33.16,-35.13 -42.79,-57.67 -3.42,-8 -6.76,-15 -20.28,-9.71 1.94,41.03 3.98,82.99 6.21,129.87 9.58,-5.38 16.25,-7.54 20.67,-12.01 9.16,-9.07 19.03,-11.22 31.01,-7.31 11.47,3.7 23.14,7.23 34.79,10.4 50.26,13.47 96.31,4.23 137.72,-26.65 56.86,-42.57 65.17,-137.47 -7.31,-182.06z"/><path fill="#25447b" d="M2692.98 2816.95c-19.95,-11.92 -42.41,-19.61 -63.29,-30.15 -16.48,-8.33 -33.8,-16.03 -48.09,-27.26 -20.58,-16.33 -23.23,-37.41 -11.29,-57.97 11.67,-19.94 36.28,-30.79 58.44,-21.79 16,6.54 31.37,16.77 43.89,28.64 11.95,11.39 20.25,26.79 29.27,41.02 5.69,8.94 11.34,13.24 22.77,4.86 -1.72,-34.27 -3.43,-69.28 -5.44,-110.69 -10.1,5.3 -16.55,6.98 -20.44,11.01 -12.72,13.07 -26.24,13.38 -41.94,6.07 -9.46,-4.39 -19.5,-8.25 -29.74,-10.32 -88.81,-17.71 -144.02,38.1 -147.44,105.09 -1.71,34.26 10.4,62.27 37.66,81.61 22.21,15.61 47.15,27.69 71.87,39.56 19.09,9.16 38.38,17.54 52.04,34.32 15.14,18.57 17.93,39.34 6.98,60.75 -10.16,19.78 -27.48,28.25 -49.78,28.09 -20.44,-0.14 -37.85,-7.92 -53.99,-19.09 -23.92,-16.48 -40.94,-38.63 -52.83,-64.73 -3.81,-8.33 -6.9,-16.8 -20.42,-9.54 2.02,40.85 4.03,82.35 6.21,126.24 7.06,-1.93 14.46,-1.62 16.77,-4.93 12.75,-17.86 29.14,-14.02 45.91,-9.08 7.78,2.32 15.23,5.38 23.07,7.61 48.33,13.49 93.08,5.24 134,-22.92 62.38,-43.04 70.24,-141.81 -4.19,-186.4z"/><path fill="#25447b" d="M2998.03 2642.86c-115.82,-1.15 -204.38,86.14 -205.15,202.15 -0.78,109.01 79.7,187.61 192.96,188.52 117.61,0.94 198.56,-79.73 199.55,-198.92 0.94,-109.31 -78.6,-190.75 -187.36,-191.75zm61.91 296.53c-2.18,11.48 -7.45,23.01 -13.66,33.11 -19.58,31.78 -57.41,37.8 -85.05,12.47 -11.59,-10.54 -21.91,-24.33 -27.81,-38.73 -27.29,-66.44 -32.94,-135.19 -14.32,-204.85 4.05,-15.1 12.22,-29.94 21.77,-42.41 21.35,-27.73 54.07,-29.8 80.94,-7.09 17.25,14.54 26.79,34.02 33.33,54.9 11.17,35.57 14.04,72.2 14.98,123 -2.01,14.26 -5.05,42.13 -10.18,69.6z"/><path fill="#25447b" d="M4567.73 2642.78c-115.66,-0.94 -203.67,86.6 -204.05,203 -0.42,109.15 79.92,187.06 193.48,187.75 117.14,0.69 197.79,-80.29 199.03,-199.69 1.16,-108.32 -79.62,-190.15 -188.46,-191.06zm70.46 249.96c-2.65,27.31 -5.9,54.35 -20.44,78.35 -19.87,33.03 -58.33,39.51 -86.69,13.33 -10.95,-10.1 -20.5,-23.26 -26.32,-36.8 -8.55,-19.7 -14.84,-40.73 -19.04,-61.8 -4.44,-21.88 -5.21,-44.51 -8.16,-72.76 3.42,-20.63 6.15,-46.95 12.52,-72.45 3.56,-14.32 11.34,-28.47 20.25,-40.5 21.61,-28.86 55.24,-31.48 82.66,-7.83 17.71,15.31 27.59,35.56 33.63,57.41 12.91,46.96 16.25,94.69 11.59,143.05z"/><path fill="#25447b" d="M3618.93 2994.96c-16.94,-2.68 -25.63,-12.55 -26.96,-29.08 -0.93,-11.17 -1.84,-22.4 -1.84,-33.58 -0.17,-60.11 0,-120.31 -0.17,-180.46 -0.25,-100.92 -100.84,-130.77 -162.75,-94.99 -17.46,10.1 -34.1,21.58 -51.18,32.25 -5.76,3.65 -11.97,6.62 -21.99,12.09 0,-21.63 0,-38.71 0,-57.33 -53.6,10.23 -104.17,19.92 -155.68,29.85 0,6.48 0,12.47 0,19.56 6.54,0.94 12.14,1.46 17.57,2.45 29.83,5.47 35.04,10.88 35.18,41.5 0.38,72.23 0.38,144.35 -0.08,216.55 -0.23,30.18 -6.29,36.36 -35.48,41.58 -6.38,1.15 -12.75,2.48 -19.04,4 -1.41,0.33 -2.48,1.79 -4.28,3.09 0,5.68 0,11.78 0,19.17 67.9,0 134.69,0 203.06,0 -0.55,-8.47 -1.02,-15.34 -1.46,-21.79 -5.6,-1.85 -9.33,-3.54 -13.3,-4.23 -17.33,-3.09 -24.31,-14.32 -25.02,-30.65 -0.39,-9.63 -0.61,-19.23 -0.69,-28.86 -0.09,-56.97 1.49,-113.94 -0.69,-170.83 -0.94,-25.16 8.69,-39.09 30.37,-47.95 4.5,-1.85 8.78,-4.17 13.27,-5.79 50.82,-18.54 88.79,5.4 89.97,58.82 1.38,62.51 0.69,125.09 0,187.69 -0.33,26.1 -5.52,31.09 -31.09,38.1 -4.5,1.24 -8.77,3.23 -13.96,5.24 0.52,7.15 0.91,13.24 1.54,21.71 66.41,0.09 131.52,0.22 197.76,-0.08 -0.52,-9.85 -0.85,-16.09 -1.24,-22.87 -7.75,-1.93 -14.67,-4.08 -21.82,-5.16z"/><path fill="#25447b" d="M5168.51 2967.48c-1.07,-13.55 -2.18,-27.18 -2.23,-40.8 -0.25,-58.58 0.14,-117.09 -0.17,-175.67 -0.63,-99.92 -99.43,-129.11 -161.26,-95.15 -14.15,7.78 -27.5,16.86 -41.19,25.46 -9.3,5.85 -18.62,11.78 -31.2,19.73 -0.94,-21.24 -1.79,-38.87 -2.57,-57.22 -53.85,10.32 -104.42,20.03 -156.15,29.96 0.38,7.01 0.77,12.94 1.1,19.4 5.44,0.77 9.38,1.29 13.35,1.93 34.74,5.76 39.15,10.62 39.37,45.19 0.25,32.09 0.09,64.2 0.09,96.23 -0.09,40.86 0.38,81.83 -0.39,122.69 -0.47,23.56 -7.92,30.96 -31.23,35.43 -9.24,1.76 -18.57,3.61 -28.34,5.54 0,6.15 -0.24,10.07 0.06,14.02 0.17,2.23 1.32,4.3 2.81,8.77 66.41,-0.55 133.07,1.6 199.81,-1.16 0,-9.02 0,-15.31 0,-21.79 -5.3,-1.77 -9.8,-3.84 -14.46,-4.78 -16.17,-3.23 -22.93,-13.85 -23.87,-29.02 -0.52,-8.78 -0.69,-17.63 -0.69,-26.49 -0.08,-57.71 1.72,-115.62 -0.85,-173.2 -1.16,-26.49 9.1,-40.73 31.53,-49.58 11.21,-4.39 22.68,-9 34.49,-10.84 31.23,-4.94 55.87,11.53 64.17,41.79 2.1,7.62 3.65,15.78 3.65,23.65 0.24,61.72 0.46,123.54 -0.14,185.29 -0.31,27.64 -5.35,32.55 -32.31,39.56 -4.52,1.16 -8.86,3.01 -14.15,4.86 0.47,7.09 0.85,13.16 1.24,20.47 66.65,0 131.82,0 198.26,0 0,-7.4 0,-13.47 0,-21.93 -8.56,-1.94 -15.56,-3.78 -22.71,-5 -15.75,-2.79 -24.78,-11.56 -26.02,-27.34z"/><path fill="#25447b" d="M1950.44 2482.49c-0.09,-3.78 -0.94,-7.56 -1.55,-12.17 -68.06,0 -134.94,0 -203.69,0 0.47,8.39 0.85,15.23 1.32,22.79 9,1.38 16.09,2.62 23.32,3.45 7.2,0.85 14.59,0.63 21.74,1.93 23.14,4.3 30.29,14.4 26.7,37.19 -1.07,7.14 -2.48,14.24 -4.41,21.16 -26.96,95.76 -54.08,191.47 -81.25,287.15 -1.55,5.55 -4.66,10.54 -7.78,17.41 -3.01,-4.25 -4.8,-6.02 -5.66,-8.08 -40.94,-100.4 -81.88,-200.77 -122.44,-301.25 -3.56,-8.86 -5.52,-18.46 -6.81,-27.95 -1.71,-11.92 3.47,-20.55 15.83,-23.15 10.26,-2.18 20.75,-3.25 31.07,-4.77 18.65,-2.71 19.59,-4.33 14.62,-25.8 -86.24,0 -172.63,0 -260.64,0 0.47,8.47 0.86,15.31 1.24,22.24 6.38,1.63 10.96,3.39 15.7,3.86 26.88,2.62 44.51,17.63 55.79,40.86 4.19,8.64 7.36,17.8 11.56,26.49 6.29,13.16 5.52,25.63 0.69,39.42 -27.48,78.83 -54.13,157.9 -81.25,236.8 -2.24,6.54 -5.52,12.69 -10.1,23.01 -4.19,-10.92 -6.98,-17.38 -9.16,-24 -30.38,-93.09 -60.75,-186.15 -90.96,-279.23 -3.51,-10.71 -6.68,-21.55 -8.64,-32.56 -2.7,-15.17 2.04,-22.32 17.27,-26.87 6.9,-2.07 14.3,-2.4 21.44,-3.53 8.53,-1.41 17,-2.79 26.1,-4.33 0,-7.7 0.14,-13.16 -0.16,-18.63 -0.09,-1.16 -1.85,-2.31 -3.18,-3.78 -86.16,0 -172.62,0 -260.08,0 0,8.09 0,14.96 0,22.02 5.68,1.55 10.26,3.64 14.98,4.03 29.13,2.37 47.31,19.01 58.74,44.09 6.29,13.87 11.97,28.11 17.02,42.43 44.2,126.55 88.15,253.1 132.21,379.68 6.84,19.54 13.9,39.1 20.96,59.13 17.03,0 32.86,0 49.03,0 45.52,-125.34 90.49,-249.35 135.55,-373.45 2.01,0 4.03,0.08 5.98,0.08 51.43,124.87 102.77,249.66 153.73,373.37 18.24,0 33.33,0 49.17,0 17.32,-51.29 33.88,-101.48 51.34,-151.44 36.06,-102.99 72.39,-205.93 109.14,-308.7 12.45,-34.87 30.93,-64.36 74.27,-64.97 0.53,-6.15 1.25,-10.1 1.25,-13.93z"/><path fill="#25447b" d="M2109.6 2948.94c-0.08,-6.4 0,-12.86 0,-19.26 0,-86.68 0,-173.37 -0.08,-260.05 0,-8.31 -0.86,-16.61 -1.38,-25.64 -53.83,10.41 -104.4,20.26 -156.21,30.27 0,6.32 0,12.22 0,19.01 10.23,2.07 19.72,3.78 29.05,6.07 17.63,4.33 22.59,10.18 24.39,28.11 0.6,6.38 0.6,12.86 0.6,19.23 0,65.83 0.09,131.66 0,197.49 0,7.23 -0.3,14.45 -0.77,21.63 -1.02,15.86 -10.26,24.77 -25.24,28.25 -10.1,2.29 -20.45,3.83 -32.31,6.07 0.47,8.16 0.91,14.79 1.32,21.63 73.94,0 145.73,0 218.26,0 0,-7.78 0,-13.85 0,-20.94 -6.04,-1.52 -11.39,-3.15 -16.77,-4.22 -36.28,-7.56 -40.31,-12.17 -40.86,-47.65z"/><path fill="#25447b" d="M4196.43 2700.28c-20.66,-9.25 -41.96,-17.41 -61.52,-28.47 -16.64,-9.5 -33.19,-20.64 -46.24,-34.44 -24.53,-25.85 -27.04,-57.19 -14.05,-89.61 12.8,-31.95 38.43,-46.87 71.62,-49.02 27.95,-1.77 52.34,8.85 72.7,27.72 22.6,20.94 35.98,47.1 43.12,76.59 2.18,9.08 4.2,18.24 6.43,28.25 10.05,-0.85 17.66,-1.54 25.41,-2.23 0,-56.42 0,-110.63 0,-166.2 -8.3,0 -15.23,0 -23.92,0 -1.71,8.08 -2.4,13.69 -4.11,18.93 -5.43,16.77 -12.58,20.03 -29.13,13.41 -5.22,-2.1 -10.35,-4.64 -15.31,-7.26 -23.92,-12.61 -49.47,-20 -76.51,-21.33 -75.59,-3.53 -133.06,29.19 -158.39,94.77 -28.75,74.6 -8.08,144.43 58.41,190.92 24.25,16.94 52.28,28.58 78.54,42.74 19.1,10.32 39.54,19.01 57,31.64 37.86,27.26 50.57,74.52 34.35,118.25 -12.19,32.86 -40.31,53.11 -75.59,54.57 -64.31,2.62 -118.22,-37.24 -136.41,-101.14 -2.78,-9.88 -5.21,-19.81 -8.08,-30.87 -9.79,0.6 -18.18,1.07 -27.04,1.6 0,56.11 0,109.55 0,163.6 4.14,1.08 7.15,2.29 10.18,2.37 3.89,0.09 7.78,-0.82 12.12,-1.29 2.26,-6.79 3.89,-12.94 6.31,-18.71 7.45,-17.93 13.91,-20.41 31.62,-11.86 9.46,4.55 18.49,9.93 27.87,14.62 57.96,28.89 116.37,26.4 172.76,-2.07 100.67,-50.82 122.91,-192.16 43.29,-267.97 -21.91,-20.81 -48.03,-35.18 -75.43,-47.51z"/><path fill="#25447b" d="M2051.66 2569.17c34.32,-0.14 61.28,-27.48 60.67,-61.58 -0.63,-34.87 -27.04,-59.81 -62.63,-59.04 -34.62,0.77 -60.72,27.87 -59.81,62.19 0.77,32.19 28.75,58.6 61.77,58.43z"/><path fill="#25447b" d="M2368.83 2957.63c-0.77,-12.03 -0.64,-24.11 -0.64,-36.11 0,-155.66 0,-311.32 -0.05,-466.98 0,-9.16 -0.64,-18.4 -0.94,-26.96 -4.58,-0.69 -6.29,-1.38 -7.78,-1.07 -45.36,8.08 -90.71,16.03 -136.1,24.41 -14.12,2.63 -14.51,4.14 -10.56,25.47 7.61,0.85 15.61,1.32 23.47,2.79 20.59,3.69 26.41,9.38 28.97,29.54 1.33,10.32 1.24,20.81 1.24,31.26 0.09,121.95 0.09,243.98 0,365.89 0,15.26 0.39,30.49 -0.46,45.75 -1.72,32.33 -7.15,38.1 -39.15,44.42 -4.75,0.91 -9.47,2.06 -14.13,3.47 -1.32,0.36 -2.35,1.9 -4.66,4 0.3,5.16 0.69,11.15 1.07,18.07 72.95,0 144.65,0 216.41,0 0,-8 0,-14.15 0,-21.24 -8.6,-1.85 -16.38,-3.62 -24.14,-5.16 -23.86,-5.08 -31.01,-12.86 -32.55,-37.55z"/><path fill="#fff" d="M4347.65 2062.16c10.56,0.53 19.2,1.47 27.89,1.47 146.75,0.05 293.47,0.3 440.22,-0.17 25.02,-0.08 50.26,-1.46 74.87,-5.32 138.2,-21.47 245.55,-91.6 322.55,-206.37 54.52,-81.23 76.81,-171.83 75.95,-269.22 -1.29,-142.89 -0.38,-285.77 -0.22,-428.66 0,-28.94 1.08,-29.76 30.08,-29.85 43.81,-0.16 87.54,0.09 131.35,-0.16 8.52,0 17.08,-1.16 26.79,-1.85 0.63,-10.54 1.4,-18.46 1.4,-26.4 0.09,-292.15 0.09,-584.37 -0.08,-876.53 0,-8.47 -1.63,-16.86 -2.73,-27.48 -10.4,0 -18.32,0 -26.32,0 -150.78,0 -301.55,-0.31 -452.33,0.3 -25.02,0.08 -50.35,1.85 -74.9,6.24 -222.79,39.8 -385.98,233.5 -386.23,457.75 -0.13,149.25 0,298.6 -0.08,447.88 0,26.32 -0.69,26.93 -27.34,27.09 -44.58,0.17 -89.17,0 -133.75,0.17 -8.64,0 -17.25,0.91 -27.21,1.46 0.09,310 0.09,617.95 0.09,929.65z"/><path fill="#009ada" d="M4347.65 2062.16c0,-311.7 0,-619.65 0,-929.9 9.96,-0.52 18.56,-1.38 27.2,-1.46 44.58,-0.14 89.17,0.08 133.75,-0.14 26.65,-0.08 27.29,-0.69 27.34,-27.09 0.09,-149.28 -0.05,-298.63 0.09,-447.91 0.25,-224.25 163.44,-417.93 386.22,-457.73 24.55,-4.39 49.88,-6.16 74.91,-6.24 150.77,-0.54 301.55,-0.31 452.32,-0.31 7.92,0 15.92,0 26.32,0 1.11,10.63 2.73,19.02 2.73,27.49 0.17,292.14 0.17,584.39 0.09,876.53 0,7.92 -0.86,15.87 -1.41,26.41 -9.71,0.69 -18.26,1.85 -26.79,1.85 -43.81,0.13 -87.54,0 -131.35,0.13 -28.92,0.09 -29.99,0.94 -30.07,29.88 -0.17,142.89 -1.03,285.77 0.22,428.66 0.85,97.44 -21.44,187.99 -75.96,269.19 -77.05,114.8 -184.43,184.93 -322.54,206.39 -24.61,3.87 -49.94,5.25 -74.88,5.33 -146.75,0.44 -293.47,0.22 -440.22,0.14 -8.77,0.25 -17.46,-0.69 -27.97,-1.22z"/><path fill="#fff" d="M2064.57 189.08c-12.52,0 -20.52,0 -28.44,0 -150.01,0 -299.93,-0.46 -449.93,0.39 -30.6,0.15 -61.74,2.84 -91.6,9.23 -222.45,47.35 -375.02,233.04 -376.59,458.5 -0.99,146.89 -0.22,293.77 -0.14,440.66 0,8.47 1.08,17.02 1.93,28.03 12.75,0 23.07,0 33.41,0 167,0 333.95,0 500.97,0.08 10.18,0 20.33,1.08 33.33,1.77 0,313.64 0,624.65 0,938.73 12.58,0 22.13,0 31.67,0 143.49,0 286.96,0.16 430.45,-0.17 23.45,-0.05 47.23,-0.44 70.38,-3.92 167.47,-24.72 290.43,-111.76 367.11,-261.35 33.54,-65.53 47.31,-136.1 47.15,-209.46 -0.14,-144.51 -0.09,-289 0,-433.51 0,-10.07 1.02,-20.17 1.57,-29.63 39.37,-5.63 172.05,-3.62 190.45,3.14 0,51.38 0,103.41 0,155.53 0,51.34 0,102.77 0,154.11 0,52.2 0,104.4 0,156.51 0,52.2 0,104.37 0,156.52 0,51.34 -0.06,102.77 0,154.11 0.08,51.81 -0.39,103.63 0.33,156.43 10.57,0.69 17.77,1.52 24.91,1.52 148.38,0.08 296.67,0.55 445.05,-0.14 119.71,-0.55 226.12,-38.48 315.84,-117.56 108.59,-95.67 160.49,-217.23 161.12,-360.5 0.61,-143.66 0.14,-287.38 0.14,-431.03 0,-9.38 0,-18.79 0,-31.26 190.72,0 378.39,0 567.62,0 0,-313.31 0,-623.49 0,-935.73 -10.18,-0.46 -18.87,-1.15 -27.56,-1.15 -150,-0.08 -299.95,-0.46 -449.93,0.3 -29.85,0.16 -60.14,2.62 -89.28,8.47 -234.67,47.58 -381.86,253.36 -378.83,461.68 2.1,146.03 0.47,292.15 0.31,438.26 0,9.32 -0.94,18.54 -1.33,27.09 -27.95,5.24 -169.95,4.39 -191.25,-1.29 0,-10.24 0,-21.25 0,-32.34 0,-289 0,-578 -0.08,-866.92 0,-10.93 -1.08,-21.86 -1.85,-35.33 -11.12,0 -19.81,0 -28.52,0 -149.15,0 -298.3,-0.08 -447.42,0.15 -18.65,0 -37.52,0.08 -55.79,2.93 -175.08,27.02 -300.61,120.02 -374.66,279.68 -29.19,63.04 -39.07,130.25 -38.98,199.22 0.22,141.29 0.08,282.54 0,423.88 0,10.16 -0.86,20.39 -1.25,29.94 -28.52,5.85 -170.28,4.72 -190.17,-1.9 -0.14,-309.17 -0.14,-619.5 -0.14,-933.67z"/><path fill="#25447b" d="M2064.55 189.13c0,314.18 0,624.42 0,933.81 19.94,6.62 161.72,7.78 190.14,1.93 0.39,-9.55 1.24,-19.73 1.24,-29.96 0.09,-141.26 0.25,-282.52 0,-423.86 -0.14,-68.97 9.71,-136.18 39.01,-199.25 74.03,-159.66 199.56,-252.64 374.64,-279.67 18.35,-2.84 37.22,-2.84 55.79,-2.92 149.14,-0.23 298.29,-0.15 447.44,-0.15 8.69,0 17.46,0 28.5,0 0.69,13.55 1.88,24.48 1.88,35.33 0.08,288.99 0.08,577.99 0.08,866.9 0,11.09 0,22.1 0,32.34 21.27,5.71 163.27,6.54 191.25,1.32 0.44,-8.55 1.29,-17.79 1.29,-27.12 0.09,-146.11 1.8,-292.22 -0.3,-438.25 -3.03,-208.39 144.18,-414.17 378.86,-461.67 29.13,-5.93 59.51,-8.32 89.25,-8.47 150,-0.84 299.92,-0.38 449.93,-0.31 8.69,0 17.41,0.7 27.56,1.16 0,312.25 0,622.41 0,935.74 -189.21,0 -376.82,0 -567.6,0 0,12.47 0,21.85 0,31.23 0,143.66 0.47,287.4 -0.16,431.03 -0.61,143.19 -52.51,264.75 -161.1,360.54 -89.72,79.04 -196.16,116.92 -315.87,117.53 -148.35,0.69 -296.64,0.24 -445.01,0.16 -7.15,0 -14.38,-0.85 -24.94,-1.54 -0.78,-52.81 -0.23,-104.62 -0.31,-156.43 -0.08,-51.35 0,-102.77 0,-154.12 0,-52.2 0,-104.4 0,-156.51 0,-52.2 0,-104.37 0,-156.49 0,-51.37 0,-102.8 0,-154.14 0,-52.12 0,-104.15 0,-155.5 -18.43,-6.7 -151.02,-8.69 -190.48,-3.17 -0.55,9.49 -1.54,19.56 -1.54,29.66 -0.08,144.49 -0.25,289 0,433.48 0.05,73.36 -13.6,143.97 -47.15,209.46 -76.67,149.59 -199.66,236.66 -367.13,261.38 -23.15,3.37 -46.93,3.84 -70.38,3.92 -143.47,0.31 -286.96,0.17 -430.42,0.17 -9.58,0 -19.12,0 -31.7,0 0,-314.11 0,-625.2 0,-938.76 -12.97,-0.69 -23.15,-1.76 -33.33,-1.76 -167,-0.09 -333.94,-0.09 -500.97,-0.09 -10.32,0 -20.72,0 -33.38,0 -0.8,-11 -1.88,-19.47 -1.96,-28 -0.08,-146.88 -0.94,-293.77 0.16,-440.66 1.55,-225.48 154.12,-411.17 376.6,-458.51 29.82,-6.39 60.97,-9.08 91.6,-9.24 149.97,-0.92 299.92,-0.38 449.89,-0.38 8.09,-0.16 16.09,-0.16 28.62,-0.16z"/></g></g></svg>