<svg  id="fndm-wvha5sbkl0" viewBox="0.0030104820616543293 0 131.39698791503906 28.770008087158203" xmlns="http://www.w3.org/2000/svg">
   <g xmlns="http://www.w3.org/2000/svg" data-name="Camada 2">
    <path data-name="Layer 1" d="m33.44,7.2l5.76,0c6,0 7.25,0.77 7.25,5.12c0,3.95 -1.42,4.81 -6.9,4.81l-1.43,0l0,4.44l-4.68,0l0,-14.37zm6.22,7c2,0 2.12,-0.2 2.12,-1.9c0,-2 -0.1,-2 -2.12,-2l-1.54,0l0,3.9l1.54,0m8.16,0.21c0,-5.78 1.08,-7.41 6.71,-7.41s6.68,1.64 6.68,7.42s-1,7.38 -6.68,7.38s-6.71,-1.66 -6.71,-7.38m8.78,0c0,-3.88 -0.11,-4.12 -2.07,-4.12s-2.05,0.24 -2.05,4.12s0.09,4.1 2.05,4.1s2.07,-0.26 2.07,-4.1m6.27,3.9s1.81,0.12 4,0.12c2.61,0 3.33,-0.19 3.33,-1c0,-0.56 -0.19,-0.81 -1.07,-1l-3,-0.74c-3,-0.82 -3.6,-1.61 -3.6,-4.22c0.06,-3.08 1.91,-4.48 6.64,-4.48c2.22,0 4.44,0.22 4.44,0.22l0,3.27s-2,-0.11 -3.89,-0.11c-2.18,0 -2.72,0.15 -2.72,1c0,0.61 0.29,0.85 1.28,1.06l3,0.68c3,0.73 3.31,1.94 3.31,4.25c0,3.46 -2.15,4.48 -6.72,4.48c-2.38,0 -5,-0.24 -5,-0.24l0,-3.29zm13.36,-11.12l4.68,0l0,14.38l-4.68,0l0,-14.38zm10.19,3.23l-3.87,0l0,-3.23l12.36,0l0,3.23l-3.83,0l0,11.14l-4.66,0l0,-11.14zm10.14,-3.23l4.68,0l0,14.38l-4.68,0l0,-14.38zm16.16,0l4.72,0l-3.97,14.37l-6.69,0l-3.98,-14.37l4.73,0l2.59,11.84l2.6,-11.84zm5.28,7.21c0,-5.78 1.08,-7.41 6.72,-7.41s6.68,1.64 6.68,7.42s-1,7.38 -6.68,7.38s-6.72,-1.67 -6.72,-7.39m8.77,0c0,-3.88 -0.1,-4.12 -2.06,-4.12s-2,0.24 -2,4.12s0.08,4.1 2,4.1s2.06,-0.26 2.06,-4.1m-112.43,-14.41a14.55,14.55 0 0 0 -12.6,7.5a14.52,14.52 0 0 0 -1.23,10.69a23.59,23.59 0 0 0 5.19,-0.92a3.37,3.37 0 0 0 1.61,-1.27c2.06,-3.11 2.44,-5.29 3.09,-6a11.27,11.27 0 0 0 2.79,-7a1,1 0 0 1 2,-0.33a5.39,5.39 0 0 1 0.73,3.18c-0.13,2 -1.69,3.54 -1.19,4.64a1.27,1.27 0 0 0 0.94,0.68a50,50 0 0 1 6.13,1.11a1.4,1.4 0 0 1 1.15,1c0.22,0.82 -0.33,1.11 -0.33,1.86s0.79,0.92 0.74,1.85s-0.86,1 -1,1.75s0.37,0.91 0.1,1.66s-0.84,0.72 -1.16,1.22s0.05,0.94 -0.32,1.65c-0.21,0.4 -0.45,0.61 -1.35,0.88a22.8,22.8 0 0 1 -4.2,0.84c-1.63,0.16 -2.38,0 -4.22,0.28a12.17,12.17 0 0 0 -4.21,1.5a14.69,14.69 0 0 0 7.3,2a14.38,14.38 0 0 0 0.04,-28.77" fill="#444e5b"/>
   </g>
  </svg>