<svg xmlns="http://www.w3.org/2000/svg" fill-rule="evenodd" clip-rule="evenodd" image-rendering="optimizeQuality" shape-rendering="geometricPrecision" text-rendering="geometricPrecision" viewBox="-2 1 6600 3300"><g fill-rule="nonzero"><rect width="6600" height="3300" x="-2" y="1" fill="#727376"/><path fill="#fefefe" d="M292.75 1900.02l79.08 0 0 -283.42c11.3,1.03 21.57,1.03 34.92,1.03 61.61,0 125.28,-25.68 163.26,-77.03 26.7,-34.9 42.11,-78.05 42.11,-141.71 0,-59.55 -17.46,-109.88 -51.33,-142.73 -35.95,-35.95 -89.36,-51.35 -153.01,-51.35 -45.2,0 -83.18,5.13 -115.03,13.35l0 681.86zm79.08 -625.38c10.27,-3.08 25.67,-5.13 44.15,-5.13 87.3,0 117.08,63.66 117.08,134.51 0,97.55 -52.38,148.91 -130.43,148.91 -13.35,0 -21.55,-1.03 -30.8,-3.08l0 -275.21zm330.66 625.38l79.08 0 0 -283.42c11.3,1.03 21.58,1.03 34.93,1.03 61.6,0 125.28,-25.68 163.26,-77.03 26.7,-34.9 42.1,-78.05 42.1,-141.71 0,-59.55 -17.45,-109.88 -51.33,-142.73 -35.95,-35.95 -89.35,-51.35 -153.01,-51.35 -45.2,0 -83.18,5.13 -115.03,13.35l0 681.86zm79.08 -625.38c10.28,-3.08 25.68,-5.13 44.15,-5.13 87.31,0 117.08,63.66 117.08,134.51 0,97.55 -52.37,148.91 -130.43,148.91 -13.35,0 -21.55,-1.03 -30.8,-3.08l0 -275.21zm330.67 625.38l274.19 0 0 -66.75 -195.11 0 0 -625.39 -79.08 0 0 692.14zm589.43 -207.44l46.22 207.44 78.03 0 -154.03 -692.14 -87.28 0 -158.13 692.14 75.98 0 46.2 -207.44 153.01 0zm-141.71 -63.67l35.95 -175.59c9.25,-46.22 19.5,-105.78 27.73,-158.16l4.1 0c8.22,51.36 17.45,108.86 27.72,158.16l35.96 175.59 -131.46 0zm513.45 271.11l79.08 0 0 -283.42c11.3,1.03 21.57,1.03 34.92,1.03 61.61,0 125.29,-25.68 163.26,-77.03 26.71,-34.9 42.11,-78.05 42.11,-141.71 0,-59.55 -17.46,-109.88 -51.33,-142.73 -35.95,-35.95 -89.36,-51.35 -153.01,-51.35 -45.2,0 -83.18,5.13 -115.03,13.35l0 681.86zm79.08 -625.38c10.27,-3.08 25.67,-5.13 44.15,-5.13 87.3,0 117.08,63.66 117.08,134.51 0,97.55 -52.38,148.91 -130.43,148.91 -13.35,0 -21.55,-1.03 -30.8,-3.08l0 -275.21zm561.72 297.79c0,-111.93 -43.12,-177.64 -142.73,-177.64 -49.3,0 -95.5,17.45 -116.05,32.86l17.47 55.45c23.6,-15.4 51.33,-25.68 82.13,-25.68 62.66,0 79.08,46.21 79.08,112.96l0 15.4c-111.93,1.02 -211.53,56.48 -211.53,180.73 0,85.26 51.35,141.73 118.08,141.73 42.1,0 77.03,-22.6 98.6,-60.6l3.08 0 5.12 52.38 71.88 0c-5.13,-31.83 -5.13,-74.96 -5.13,-112.96l0 -214.63zm-78.05 171.51c0,8.2 0,18.47 -2.05,27.72 -9.23,49.28 -39.03,74.96 -73.93,74.96 -27.72,0 -60.6,-23.63 -60.6,-88.31 0,-107.83 95.5,-115.03 136.58,-115.03l0 100.66zm187.94 156.08l79.07 0 0 -275.21c0,-16.43 1.03,-31.83 3.08,-45.18 8.2,-57.51 45.18,-103.73 95.5,-103.73 6.15,0 11.3,0 16.43,1.05l0 -81.13c-5.13,0 -10.28,-1.03 -16.43,-1.03 -46.22,0 -88.32,39.01 -104.75,86.26l-2.05 0 -4.1 -78.06 -70.86 0c1.03,36.98 4.11,86.26 4.11,128.36l0 368.67zm297.79 -581.23l0 84.2 -60.58 0 0 60.61 60.58 0 0 287.51c0,68.81 10.27,102.71 29.77,125.28 19.53,21.58 47.25,29.78 78.06,29.78 25.67,0 44.15,-3.08 58.52,-8.2l-3.07 -60.6c-9.25,2.07 -19.5,3.09 -31.83,3.09 -28.75,0 -52.38,-17.47 -52.38,-82.15l0 -294.71 95.51 0 0 -60.61 -95.51 0 0 -116.03 -79.07 31.83zm323.49 581.23l0 -497.03 -79.08 0 0 497.03 79.08 0zm-41.08 -581.23c30.8,0 51.33,-22.6 51.33,-55.45 0,-32.85 -20.53,-55.46 -51.33,-55.46 -27.73,0 -49.3,22.61 -49.3,55.46 0,32.85 20.55,55.45 48.27,55.45l1.03 0zm383.04 508.32c-18.5,8.21 -35.95,13.35 -57.5,13.35 -72.93,0 -117.08,-69.82 -117.08,-185.88 0,-97.55 35.95,-192.03 115,-192.03 25.68,0 46.23,8.22 56.48,13.35l15.43 -64.68c-14.38,-8.23 -43.13,-15.4 -69.83,-15.4 -124.26,0 -196.16,116.03 -196.16,258.76 0,164.31 72.93,251.59 181.78,251.59 34.9,0 64.68,-8.2 82.13,-18.48l-10.25 -60.58zm157.11 72.91l0 -497.03 -79.08 0 0 497.03 79.08 0zm-41.08 -581.23c30.8,0 51.33,-22.6 51.33,-55.45 0,-32.85 -20.53,-55.46 -51.33,-55.46 -27.72,0 -49.3,22.61 -49.3,55.46 0,32.85 20.55,55.45 48.28,55.45l1.02 0zm149.93 778.39l79.08 0 0 -246.46 2.05 0c13.35,27.72 40.05,57.52 86.26,57.52 78.05,0 154.03,-73.95 154.03,-257.76 0,-163.28 -57.5,-255.69 -143.76,-255.69 -39.02,0 -78.05,18.48 -104.75,71.88l-2.05 0 -4.1 -63.68 -70.86 0c1.03,34.93 4.1,79.08 4.1,155.06l0 539.13zm79.08 -506.25c0,-13.35 0,-25.68 2.05,-38 5.13,-45.18 36.96,-90.38 72.91,-90.38 62.65,0 87.28,86.28 87.28,188.96 0,100.63 -20.53,191.01 -86.26,191.01 -21.55,0 -57.5,-13.36 -72.9,-84.21 -3.08,-11.3 -3.08,-25.67 -3.08,-41.08l0 -126.3zm594.58 -18.5c0,-111.93 -43.13,-177.64 -142.73,-177.64 -49.3,0 -95.51,17.45 -116.06,32.86l17.48 55.45c23.6,-15.4 51.33,-25.68 82.13,-25.68 62.65,0 79.08,46.21 79.08,112.96l0 15.4c-111.93,1.02 -211.54,56.48 -211.54,180.73 0,85.26 51.35,141.73 118.08,141.73 42.11,0 77.03,-22.6 98.61,-60.6l3.07 0 5.13 52.38 71.88 0c-5.13,-31.83 -5.13,-74.96 -5.13,-112.96l0 -214.63zm-78.05 171.51c0,8.2 0,18.47 -2.05,27.72 -9.23,49.28 -39.03,74.96 -73.93,74.96 -27.73,0 -60.6,-23.63 -60.6,-88.31 0,-107.83 95.5,-115.03 136.58,-115.03l0 100.66zm197.16 -425.15l0 84.2 -60.58 0 0 60.61 60.58 0 0 287.51c0,68.81 10.27,102.71 29.78,125.28 19.52,21.58 47.25,29.78 78.05,29.78 25.67,0 44.15,-3.08 58.53,-8.2l-3.08 -60.6c-9.25,2.07 -19.5,3.09 -31.83,3.09 -28.75,0 -52.37,-17.47 -52.37,-82.15l0 -294.71 95.5 0 0 -60.61 -95.5 0 0 -116.03 -79.08 31.83zm323.49 581.23l0 -497.03 -79.08 0 0 497.03 79.08 0zm-41.08 -581.23c30.8,0 51.33,-22.6 51.33,-55.45 0,-32.85 -20.53,-55.46 -51.33,-55.46 -27.73,0 -49.3,22.61 -49.3,55.46 0,32.85 20.55,55.45 48.28,55.45l1.02 0zm291.64 589.45c74.98,0 164.31,-64.7 164.31,-256.73 0,-173.54 -71.88,-256.72 -160.21,-256.72 -85.23,0 -166.36,75.98 -166.36,257.74 0,174.58 71.9,255.71 161.23,255.71l1.03 0zm1.03 -62.65c-70.86,0 -85.23,-111.93 -85.23,-194.08 0,-75.98 13.35,-193.06 84.2,-193.06 69.83,0 83.18,117.08 83.18,193.06 0,77.02 -13.35,194.08 -81.13,194.08l-1.02 0zm251.58 54.43l79.08 0 0 -313.22c0,-16.42 1.03,-31.82 3.08,-44.15 10.27,-53.4 42.1,-81.13 74.95,-81.13 57.5,0 68.8,59.58 68.8,118.11l0 320.39 79.08 0 0 -333.74c0,-120.16 -51.35,-171.49 -120.15,-171.49 -52.36,0 -92.41,27.73 -113.98,67.76l-2.05 0 -4.1 -59.56 -68.81 0c1.03,40.06 4.1,69.83 4.1,128.36l0 368.67zm383.05 -22.6c21.55,17.47 61.6,28.75 98.58,28.75 81.12,0 148.88,-48.25 148.88,-147.86 0,-68.8 -45.18,-113.98 -102.68,-150.96 -49.28,-33.9 -61.61,-52.37 -61.61,-86.25 0,-31.85 21.56,-62.65 64.68,-62.65 25.68,0 47.26,9.25 65.73,21.57l21.58 -59.57c-20.55,-12.31 -50.33,-25.66 -89.36,-25.66 -77,0 -136.58,57.51 -136.58,137.61 0,57.5 34.93,99.6 99.61,141.71 50.32,33.87 63.68,59.55 63.68,97.55 0,44.15 -27.73,71.88 -72.91,71.88 -31.83,0 -62.65,-14.38 -80.1,-25.68l-19.5 59.56z"/></g></svg>