<svg xmlns="http://www.w3.org/2000/svg" data-id="fndm-s8wjbyvwsc" fill-rule="evenodd" clip-rule="evenodd" image-rendering="optimizeQuality" shape-rendering="geometricPrecision" text-rendering="geometricPrecision" viewBox="-0.23999999463558197 0.11999999731779099 780 390"><defs><linearGradient id="a" x1="33.93" x2="745.59" y1="195.12" y2="195.12" gradientUnits="userSpaceOnUse"><stop offset="0" stop-color="#04bf8a"/><stop offset="1" stop-color="#007c86"/></linearGradient></defs><g><rect width="780" height="390" x="-0.24" y="0.12" fill="none"/><path fill="url(#a)" d="M647.05 237.42c-20.4,0 -53.46,3.27 -62.13,-18.17 -4.48,-11.09 -3.34,-20.48 -3.34,-32.48 0,-37.45 37.09,-33.77 64.65,-33.77 12.21,0 22.75,2.39 30.14,7.33 13.81,9.21 11.86,27.88 11.86,42.5 0,5.82 -1.33,11.57 -3.05,15.89 -5.6,14.03 -22.27,18.7 -38.13,18.7zm-499.06 -44.06l-57.76 0 0 -41.18 55.7 0c5.19,0 11.45,1.06 14.31,3.4 6.2,5.08 5.05,13.63 5.05,22.13 0,10.42 -6.52,15.65 -17.3,15.65zm-114.06 75.35c0,0.95 0.29,1.24 1.24,1.24l53.82 0c0.95,0 1.24,-0.29 1.24,-1.24l0 -43.65 68.47 0c29.69,0 55.24,-7.16 62.18,-35.82 1.85,-7.62 1.64,-12.15 1.64,-19.77 0,-16.18 -6.62,-29.31 -15.81,-36.48 -5.1,-3.97 -10.25,-6.62 -17.3,-8.64 -6.44,-1.84 -14.88,-3.46 -22.89,-3.46l-132.59 0 0 147.82zm291.83 -77.41l-29.12 0 0 -37.06 29.12 0c10.34,0 30.96,-1.46 39.07,1.81 1.15,0.46 1.81,0.89 2.64,1.48 5.1,3.58 5.35,7.62 5.35,15.24 0,6.43 -0.02,9.38 -2.93,13.13 -2.45,3.17 -6.33,4.37 -11.29,5.18 -3.75,0.61 -27.06,0.22 -32.84,0.22zm0 -70.41l-85.53 0 0 139.58c0,8.09 -1.08,9.39 2,9.53 1.23,0.05 2.88,-0.05 4.17,-0.05l46.55 0.01c4.85,0.08 3.69,1.18 3.69,-11.96 0,-10.43 0,-20.86 0,-31.29 8.71,0 13.72,-0.48 22.36,0.7 2.2,0.3 5.01,0.9 6.76,0.95 1.55,0.64 3.75,0.94 5.62,1.49 2.05,0.61 3.59,1.17 5.49,1.92 14.33,5.62 25.15,12.73 38.42,19.64 1.66,0.86 2.91,1.67 4.8,2.61 24.85,12.39 46.32,19.63 75.49,19.63 15.94,0 29.87,-1.28 44,-7.06 1.45,-0.59 3.79,-2.09 5,-2.41l0 -143.29 -53.94 0 0 106.23 4.82 2.18c4.73,2.01 12.97,4 18.24,4l0 2.88c-36.8,0 -46.11,-5.65 -80.29,-21.01l-11.12 -4.52c-1.89,-0.76 -4.45,-1.14 -5.77,-2.06 4.27,0 9.65,-0.97 13.49,-1.75 10.53,-2.13 24.41,-6.25 31.16,-14.95 5.71,-7.36 7.38,-11.69 8.54,-21.93 1.17,-10.32 -0.48,-19.34 -4.16,-26.04 -7.89,-14.34 -28.03,-20.97 -46.57,-22.2 -9.72,-0.64 -11.29,-0.83 -22.22,-0.83 -10.34,0 -20.67,0 -31,0zm198.58 69.58c0,11.65 -0.17,16.59 3.12,28.18 1.76,6.21 4.01,11.09 7,16.06 19.18,31.89 62.73,39.35 102.3,39.35 38.8,0 80.17,-8.83 98.74,-39.6 14.62,-24.21 13.62,-63.37 -4.73,-86.12 -1.93,-2.38 -3.47,-3.81 -5.59,-5.94 -27.28,-27.37 -93.73,-30.37 -132.46,-22.31 -23.47,4.89 -45.05,14.06 -58,34.23 -5.35,8.33 -10.38,22.58 -10.38,36.15z"/></g></svg>