<svg  id="fndm-6v5ti7cz1q" viewBox="0 0 148.5 42.599998474121094" xmlns="http://www.w3.org/2000/svg">
   <path d="m94.3,13.1l4.5,0l0,4l-4.5,0l0,-4zm-22.5,10.8c0.8,0 1.5,-0.1 2.1,-0.3c0.5,-0.2 1,-0.4 1.3,-0.7c0.3,-0.3 0.5,-0.7 0.7,-1.1c0.1,-0.4 0.2,-0.9 0.2,-1.4s-0.1,-1 -0.2,-1.4c-0.1,-0.4 -0.4,-0.7 -0.7,-1c-0.3,-0.3 -0.7,-0.5 -1.3,-0.6c-0.5,-0.2 -1.3,-0.2 -2.1,-0.2l-3.4,0l0,6.8l3.4,-0.1zm-8.2,-10.8l8.2,0c1.7,0 3.2,0.2 4.3,0.6c1.2,0.4 2,0.9 2.7,1.6c0.7,0.6 1.2,1.4 1.4,2.3c0.3,0.9 0.4,1.8 0.4,2.7c0,1 -0.2,2 -0.4,2.9c-0.3,0.9 -0.7,1.7 -1.4,2.4s-1.6,1.3 -2.7,1.7c-1.1,0.4 -2.5,0.6 -4.2,0.6l-3.6,0l0,8.1l-4.7,0l0,-22.9zm30.7,6.2l4.5,0l0,16.8l-4.5,0l0,-16.8zm8.1,0l4.3,0l0,2.3c0.7,-1 1.5,-1.7 2.4,-2.1s1.8,-0.7 2.8,-0.7c1.9,0 3.3,0.5 4.2,1.5c0.9,1 1.4,2.6 1.4,4.7l0,11l-4.4,0l0,-10.4c0,-1.2 -0.2,-2 -0.7,-2.4c-0.5,-0.4 -1,-0.6 -1.8,-0.6c-0.6,0 -1.1,0.1 -1.5,0.3c-0.4,0.2 -0.8,0.4 -1.2,0.7c-0.3,0.3 -0.6,0.7 -0.7,1.1c-0.2,0.4 -0.3,0.9 -0.3,1.4l0,9.9l-4.5,0l0,-16.7zm29.6,6.5c0,-1.2 -0.3,-2 -0.8,-2.7c-0.6,-0.6 -1.5,-0.9 -2.7,-0.9c-0.6,0 -1.1,0.1 -1.6,0.3c-0.5,0.2 -0.8,0.5 -1.2,0.8s-0.6,0.7 -0.7,1.2c-0.2,0.4 -0.3,0.9 -0.3,1.4l7.3,-0.1zm4.2,5c-0.3,1.9 -1,3.3 -2.3,4.3c-1.2,1 -3,1.5 -5.3,1.5c-2.8,0 -4.9,-0.8 -6.3,-2.3c-1.4,-1.5 -2.1,-3.7 -2.1,-6.5c0,-1.4 0.2,-2.7 0.6,-3.8c0.4,-1.1 1,-2 1.7,-2.8c0.7,-0.8 1.6,-1.4 2.7,-1.7c1,-0.4 2.1,-0.6 3.4,-0.6c2.6,0 4.5,0.7 5.8,2.2c1.3,1.5 1.9,3.5 1.9,6l0,1.8l-11.6,0c0.1,1.4 0.4,2.4 1,3.1c0.6,0.7 1.6,1.2 2.9,1.2c1.8,0 2.8,-0.7 3.1,-2.3l4.5,-0.1zm-53.4,-5.4l0,-0.5c0,-1 0.2,-1.9 0.5,-2.7s0.7,-1.4 1.3,-1.8c0.5,-0.5 1.2,-0.8 1.8,-1c0.7,-0.2 1.5,-0.3 2.3,-0.3c0.5,0 1.1,0.1 1.7,0.1c0.6,0.1 1.2,0.2 1.8,0.4l-0.6,3.2c-0.7,-0.2 -1.4,-0.3 -1.9,-0.3s-1.1,0.2 -1.6,0.5s-0.7,0.9 -0.7,1.8l0,11.2l-4.5,0l-0.1,-10.6zm56.3,0l0,-0.5c0,-1 0.2,-1.9 0.5,-2.7c0.3,-0.7 0.7,-1.4 1.3,-1.8c0.5,-0.5 1.2,-0.8 1.8,-1c0.7,-0.2 1.5,-0.3 2.3,-0.3c0.5,0 1.1,0.1 1.7,0.1c0.6,0.1 1.2,0.2 1.8,0.4l-0.6,3.2c-0.7,-0.2 -1.4,-0.3 -1.9,-0.3s-1.1,0.2 -1.6,0.5s-0.7,0.9 -0.7,1.8l0,11.2l-4.5,0l-0.1,-10.6zm-139.1,-5.7l39.5,0l0,13.1l-39.5,0l0,-13.1z" fill="#004b76"/>
   <path d="m26.1,42.6l26.3,-6.5l0,-13.2l-26.3,6.6l0,13.1z" fill="#39b54a"/>
   <path d="m13.1,0l26.4,6.6l0,13.1l-26.4,-6.6l0,-13.1z" fill="#77787b"/>
  </svg>