<svg xmlns="http://www.w3.org/2000/svg" viewBox="-0.001312255859375 -0.002105712890625 160.0001678466797 36.0275764465332"><g xmlns="http://www.w3.org/2000/svg" fill="none" fill-rule="evenodd"><g fill-rule="nonzero"><g><path fill="#00A1FC" d="m146.43275,30.62117c-4.33507,0 -7.22195,-3.20485 -7.22195,-7.82945c0,-4.6246 2.88878,-7.83323 7.22195,-7.83323c4.28016,0 7.16894,3.20295 7.16894,7.82944c0,4.6265 -2.88878,7.82945 -7.16894,7.82945l0,0.00379zm0,-21.06531c-7.95077,0 -13.6299,5.59193 -13.6299,13.22072c0,7.62879 5.67913,13.21692 13.6299,13.21692c7.89019,0 13.56742,-5.59192 13.56742,-13.21692c0,-7.62501 -5.67912,-13.20557 -13.56742,-13.20557m-29.04304,-7.32023l0,24.40455c0,5.69415 3.71604,8.95768 9.39517,8.95768l4.22148,0l0,-5.65439l-3.50591,0c-2.37198,0 -3.76526,-1.3251 -3.76526,-3.91283l0,-10.83175l7.27117,0l0,-5.23793l-7.27117,0l0,-7.72533l-6.34548,0zm-12.01513,33.36223l0,-16.07536c0,-2.5953 1.39328,-3.91661 3.76716,-3.91661l5.05063,0l0,-5.64493l-5.76999,0c-5.67912,0 -9.38948,3.25407 -9.38948,8.9501l0,16.6868l6.34168,0zm-22.71081,-4.99184c-4.33695,0 -7.22195,-3.20485 -7.22195,-7.82945c0,-4.6246 2.88878,-7.83323 7.22195,-7.83323c4.27828,0 7.16895,3.20295 7.16895,7.82944c0,4.6265 -2.89067,7.82945 -7.16895,7.82945l0,0.00379zm0,-21.06531c-7.95077,0 -13.62989,5.59193 -13.62989,13.22072c0,7.62879 5.69805,13.251 13.62989,13.251c7.8902,0 13.56364,-5.59193 13.56364,-13.21693c0,-7.625 -5.67912,-13.22071 -13.56364,-13.22071m-26.11071,6.84509l-7.3166,0l0,-10.77685l7.3166,0c4.02461,0 5.67913,2.53851 5.67913,5.38748c0,2.84896 -1.64695,5.38937 -5.67913,5.38937l0,0zm0.30857,-16.42178l-14.48555,0l0,35.59976l6.86038,0l0,-13.53306l7.63274,0c7.53241,0 12.01892,-4.57916 12.01892,-11.03429c0,-6.45514 -4.48651,-11.04377 -12.01892,-11.04377m-25.50872,-0.00189l-27.13674,0c-1.12454,0.00606 -2.20159,0.45413 -2.99858,1.24749c-0.7899,0.78738 -1.23109,1.85862 -1.22499,2.9739l0,27.14183c-0.00507,0.55173 0.1005,1.09889 0.31065,1.60905c0.21128,0.51117 0.52135,0.97563 0.91245,1.36675c0.79795,0.7933 1.87529,1.2419 3.00047,1.24938l27.13674,0c1.12517,-0.00748 2.20251,-0.45608 3.00047,-1.24938c0.39109,-0.39112 0.70117,-0.85558 0.91244,-1.36675c0.20976,-0.51033 0.31594,-1.05729 0.31245,-1.60905l0,-27.13047c0.00747,-1.11646 -0.43225,-2.18948 -1.22111,-2.97958c-0.3936,-0.39488 -0.86129,-0.70817 -1.37624,-0.9219c-0.51587,-0.21555 -1.06893,-0.32809 -1.62801,-0.33127z" transform="translate(-306.000000, -122.000000) translate(305.998678, 121.997891)"/><path fill="#FFF" d="m31.59711,19.12687c-3.17842,-3.84089 -13.65829,-1.83242 -21.82109,0.73827c-0.04517,0.01889 -0.0967,0.01466 -0.13819,-0.01136c-0.02048,-0.01258 -0.03741,-0.03017 -0.04922,-0.05111c-0.01254,-0.0205 -0.01909,-0.04411 -0.01893,-0.06814c0,-0.407 0.01704,-0.81967 0.01704,-1.22099c0.00947,-2.04652 -0.16469,-4.08964 -0.52059,-6.10493c-0.00342,-0.03407 0.0053,-0.06826 0.02461,-0.09654c0.02033,-0.02818 0.05093,-0.04722 0.08519,-0.053c6.75626,-2.44197 20.36723,-3.18213 22.69567,6.7599c0.03786,0.14765 -0.18931,0.23284 -0.27828,0.1098l0.00379,-0.0019l0,0zm-6.84713,11.15356c-0.22338,0.1609 -0.51491,-0.10412 -0.31046,-0.30478c3.2901,-3.31464 5.98958,-8.5715 -17.84002,2.13531c-0.14576,0.06436 -0.29153,-0.08519 -0.1893,-0.20445c1.31377,-1.83053 2.47799,-4.82904 3.01372,-9.05232c0.00265,-0.02614 0.01247,-0.05104 0.02839,-0.07194c0.01706,-0.02101 0.03922,-0.03731 0.06437,-0.04732c14.9323,-5.91373 31.80308,-5.69414 15.25223,7.55118l-0.01893,-0.00568l0,0zm-19.91858,-26.43575c-0.02892,-0.01334 -0.05186,-0.03695 -0.06436,-0.06625c-0.01137,-0.02922 -0.01137,-0.06164 0,-0.09087c0.00907,-0.03082 0.02932,-0.05715 0.05679,-0.07382c0.02634,-0.01706 0.0578,-0.02442 0.08897,-0.02083c4.13251,0 16.57736,-0.30666 22.99477,7.7613c0.08708,0.14009 -0.11548,0.28206 -0.24231,0.17227c-1.93469,-1.66206 -7.17462,-4.47316 -19.25222,-2.01226c-0.03873,0.01107 -0.08027,0.00631 -0.11548,-0.01325c-0.03587,-0.01773 -0.06315,-0.04909 -0.07572,-0.08708c-0.96735,-3.0288 -2.17321,-4.66814 -3.39044,-5.56921l0,0z" transform="translate(-306.000000, -122.000000) translate(305.998678, 121.997891)"/></g></g></g></svg>