<svg xmlns="http://www.w3.org/2000/svg" fill-rule="evenodd" clip-rule="evenodd" image-rendering="optimizeQuality" shape-rendering="geometricPrecision" text-rendering="geometricPrecision" viewBox="-2 1 6600 3300"><g><path fill="#913f98" fill-rule="nonzero" d="M1452.26 3036.41c-4.35,0 -6.52,-2.18 -6.52,-6.53l0 -417.05c0,-4.35 2.17,-6.52 6.52,-6.52l41.77 0c4.36,0 6.53,2.17 6.53,6.52l0 29.37 0.65 0c7.4,-12.62 18.17,-22.95 32.31,-31 14.14,-8.05 32.96,-12.07 56.46,-12.07 27.41,0 50.25,6.31 68.53,18.92 18.27,12.62 31.32,31.33 39.15,56.13 4.36,12.62 7.29,25.57 8.82,38.84 1.52,13.27 2.28,29.69 2.28,49.27 0,19.58 -0.76,36.12 -2.28,49.6 -1.53,13.49 -4.46,26.55 -8.82,39.16 -7.83,24.8 -20.88,43.51 -39.15,56.13 -18.28,12.62 -41.12,18.93 -68.53,18.93 -23.5,0 -42.32,-4.13 -56.46,-12.4 -14.14,-8.27 -24.91,-18.71 -32.31,-31.33l-0.65 0 0 147.5c0,4.35 -2.17,6.53 -6.53,6.53l-41.77 0zm124.66 -161.21c34.81,0 57.65,-15.88 68.53,-47.64 2.61,-8.27 4.46,-17.62 5.55,-28.07 1.09,-10.44 1.63,-22.84 1.63,-37.2 0,-13.92 -0.54,-26.1 -1.63,-36.55 -1.09,-10.44 -2.94,-20.01 -5.55,-28.71 -10.88,-31.33 -33.72,-47 -68.53,-47 -35.68,0 -58.74,15.67 -69.18,47 -2.61,7.83 -4.46,16.75 -5.55,26.75 -1.08,10.01 -1.63,22.85 -1.63,38.51 0,15.67 0.55,28.61 1.63,38.83 1.09,10.23 2.94,19.04 5.55,26.44 10.44,31.76 33.5,47.64 69.18,47.64zm334.82 50.91c-30.46,0 -56.46,-7.4 -78,-22.19 -21.53,-14.79 -36.65,-35.46 -45.36,-62 -3.48,-10.88 -6.09,-22.3 -7.83,-34.27 -1.74,-11.96 -2.61,-27.08 -2.61,-45.36 0,-18.27 0.87,-33.28 2.61,-45.03 1.74,-11.75 4.35,-23.06 7.83,-33.94 8.71,-26.98 23.83,-47.75 45.36,-62.33 21.54,-14.58 47.54,-21.86 78,-21.86 30.45,0 56.45,7.28 77.99,21.86 21.54,14.58 36.66,35.35 45.36,62.33 3.48,10.88 6.09,22.19 7.83,33.94 1.74,11.75 2.61,26.76 2.61,45.03 0,18.28 -0.87,33.4 -2.61,45.36 -1.74,11.97 -4.35,23.39 -7.83,34.27 -8.7,26.54 -23.82,47.21 -45.36,62 -21.54,14.79 -47.54,22.19 -77.99,22.19zm0 -50.91c17.4,0 32.19,-4.24 44.38,-12.73 12.18,-8.48 20.88,-20.55 26.1,-36.22 2.61,-8.7 4.46,-17.73 5.55,-27.08 1.09,-9.36 1.63,-21.65 1.63,-36.88 0,-15.23 -0.54,-27.41 -1.63,-36.55 -1.09,-9.13 -2.94,-18.05 -5.55,-26.76 -5.22,-15.66 -13.92,-27.73 -26.1,-36.22 -12.19,-8.48 -26.98,-12.73 -44.38,-12.73 -17.41,0 -32.2,4.25 -44.38,12.73 -12.19,8.49 -20.89,20.56 -26.11,36.22 -2.61,8.71 -4.46,17.63 -5.55,26.76 -1.09,9.14 -1.63,21.32 -1.63,36.55 0,15.23 0.54,27.52 1.63,36.88 1.09,9.35 2.94,18.38 5.55,27.08 5.22,15.67 13.92,27.74 26.11,36.22 12.18,8.49 26.97,12.73 44.38,12.73zm228.42 43.73c-4.35,0 -6.52,-2.18 -6.52,-6.53l0 -299.57c0,-4.35 2.17,-6.52 6.52,-6.52l41.77 0c4.36,0 6.53,2.17 6.53,6.52l0 31.98 0.65 0c6.97,-13.49 17.3,-24.47 31.01,-32.96 13.7,-8.48 31,-12.72 51.88,-12.72 12.62,0 24.48,2.06 35.57,6.2 11.1,4.13 20.56,9.9 28.39,17.29 3.05,3.05 3.48,6.09 1.31,9.14l-24.15 31.98c-2.61,3.48 -5.66,3.92 -9.14,1.31 -7.39,-4.79 -15.01,-8.49 -22.84,-11.1 -7.83,-2.61 -16.32,-3.92 -25.45,-3.92 -23.94,0 -41.12,8.38 -51.56,25.13 -10.45,16.75 -15.67,38.83 -15.67,66.25l0 170.99c0,4.35 -2.17,6.53 -6.53,6.53l-41.77 0zm351.79 3.26c-30.46,0 -52.11,-7.07 -64.94,-21.21 -12.84,-14.14 -19.26,-36.66 -19.26,-67.55l0 -178.83c0,-2.61 -1.3,-3.91 -3.91,-3.91l-26.11 0c-4.35,0 -6.52,-2.18 -6.52,-6.53l0 -31.33c0,-4.35 2.17,-6.52 6.52,-6.52l26.11 0c2.61,0 3.91,-1.31 3.91,-3.92l0 -88.11c0,-4.35 2.18,-6.53 6.53,-6.53l41.77 0c4.35,0 6.53,2.18 6.53,6.53l0 88.11c0,2.61 1.3,3.92 3.91,3.92l49.61 0c4.35,0 6.52,2.17 6.52,6.52l0 31.33c0,4.35 -2.17,6.53 -6.52,6.53l-49.61 0c-2.61,0 -3.91,1.3 -3.91,3.91l0 176.87c0,15.67 3.15,26.22 9.46,31.66 6.31,5.44 16.43,8.16 30.35,8.16l13.71 0c4.35,0 6.52,2.17 6.52,6.52l0 37.86c0,4.35 -2.17,6.52 -6.52,6.52l-24.15 0zm230.39 3.92c-30.46,0 -56.46,-7.4 -78,-22.19 -21.53,-14.79 -36.65,-35.46 -45.36,-62 -3.48,-10.88 -6.09,-22.3 -7.83,-34.27 -1.74,-11.96 -2.61,-27.08 -2.61,-45.36 0,-18.27 0.87,-33.28 2.61,-45.03 1.74,-11.75 4.35,-23.06 7.83,-33.94 8.71,-26.98 23.83,-47.75 45.36,-62.33 21.54,-14.58 47.54,-21.86 78,-21.86 30.45,0 56.45,7.28 77.99,21.86 21.54,14.58 36.66,35.35 45.36,62.33 3.48,10.88 6.09,22.19 7.83,33.94 1.74,11.75 2.61,26.76 2.61,45.03 0,18.28 -0.87,33.4 -2.61,45.36 -1.74,11.97 -4.35,23.39 -7.83,34.27 -8.7,26.54 -23.82,47.21 -45.36,62 -21.54,14.79 -47.54,22.19 -77.99,22.19zm0 -50.91c17.4,0 32.19,-4.24 44.38,-12.73 12.18,-8.48 20.88,-20.55 26.1,-36.22 2.61,-8.7 4.46,-17.73 5.55,-27.08 1.09,-9.36 1.63,-21.65 1.63,-36.88 0,-15.23 -0.54,-27.41 -1.63,-36.55 -1.09,-9.13 -2.94,-18.05 -5.55,-26.76 -5.22,-15.66 -13.92,-27.73 -26.1,-36.22 -12.19,-8.48 -26.98,-12.73 -44.38,-12.73 -17.41,0 -32.2,4.25 -44.38,12.73 -12.19,8.49 -20.89,20.56 -26.11,36.22 -2.61,8.71 -4.46,17.63 -5.55,26.76 -1.09,9.14 -1.63,21.32 -1.63,36.55 0,15.23 0.54,27.52 1.63,36.88 1.09,9.35 2.94,18.38 5.55,27.08 5.22,15.67 13.92,27.74 26.11,36.22 12.18,8.49 26.97,12.73 44.38,12.73zm334.82 50.97c-33.33,0 -61.95,-4.94 -85.85,-14.81 -23.9,-9.86 -43.53,-21.38 -58.88,-34.53 -3.07,-3.07 -3.07,-6.14 0,-9.21l42.76 -48.03c2.63,-2.63 5.7,-2.63 9.21,0 14.03,10.97 29.6,19.52 46.71,25.66 17.1,6.14 33.99,9.21 50.65,9.21 16.67,0 29.06,-2.85 37.17,-8.55 8.12,-5.7 12.17,-12.94 12.17,-21.71 0,-7.46 -2.96,-13.49 -8.88,-18.09 -5.92,-4.61 -18.09,-7.79 -36.51,-9.54l-35.52 -3.95c-33.77,-3.51 -59.54,-13.38 -77.3,-29.6 -17.76,-16.23 -26.65,-38.82 -26.65,-67.76 0,-31.58 11.41,-56.47 34.21,-74.67 22.81,-18.2 55.04,-27.3 96.71,-27.3 27.19,0 51.75,3.73 73.68,11.18 21.93,7.46 40.35,16.89 55.26,28.29 3.07,3.07 3.29,6.36 0.66,9.87l-36.84 45.39c-2.63,3.07 -5.7,3.51 -9.21,1.32 -10.97,-7.02 -23.91,-13.05 -38.82,-18.09 -14.91,-5.05 -30.7,-7.57 -47.36,-7.57 -13.6,0 -23.69,2.41 -30.26,7.24 -6.58,4.82 -9.87,11.18 -9.87,19.07 0,7.46 2.85,13.27 8.55,17.44 5.7,4.16 17.54,7.12 35.52,8.88l34.87 3.95c37.72,3.5 64.8,13.81 81.25,30.92 16.44,17.1 24.67,39.03 24.67,65.78 -0.44,32.89 -12.83,59.32 -37.17,79.27 -24.34,19.96 -59.32,29.94 -104.93,29.94zm399.98 -7.24c-4.39,0 -6.58,-2.19 -6.58,-6.47l0 -22.8 -0.66 0c-8.33,10.85 -18.97,19.62 -31.9,26.42 -12.94,6.69 -29.5,10.09 -49.67,10.09 -17.55,0 -33.01,-2.96 -46.38,-8.88 -13.38,-5.93 -24.56,-14.15 -33.55,-24.67 -8.99,-10.53 -15.79,-23.03 -20.4,-37.5 -4.6,-14.48 -6.9,-30.26 -6.9,-47.37l0 -200.65c0,-4.38 2.19,-6.57 6.57,-6.57l78.95 0c4.38,0 6.58,2.19 6.58,6.57l0 183.44c0,17.1 4.05,31.03 12.17,41.88 8.11,10.75 20.28,16.12 36.51,16.12 15.79,0 27.85,-5.26 36.18,-15.79 8.33,-10.64 12.5,-24.67 12.5,-42.21l0 -183.44c0,-4.38 2.19,-6.57 6.58,-6.57l78.94 0c4.39,0 6.58,2.19 6.58,6.57l0 305.25c0,4.39 -2.19,6.58 -6.58,6.58l-78.94 0zm362.48 0c-4.38,0 -6.57,-2.19 -6.57,-6.58l0 -23.02 -0.66 0c-7.46,10.96 -17.98,19.84 -31.58,26.64 -13.6,6.8 -30.92,10.2 -51.97,10.2 -26.75,0 -49.34,-6.47 -67.76,-19.41 -18.42,-12.94 -31.8,-31.91 -40.13,-56.91 -3.95,-12.71 -6.8,-25.76 -8.55,-39.14 -1.76,-13.37 -2.63,-30.37 -2.63,-50.98 0,-21.05 0.87,-38.16 2.63,-51.32 1.75,-13.15 4.6,-26.09 8.55,-38.81 8.33,-25.44 21.71,-44.51 40.13,-57.23 18.42,-12.72 41.01,-19.08 67.76,-19.08 21.05,0 38.37,3.4 51.97,10.2 13.6,6.79 24.12,15.68 31.58,26.64l0.66 0 0 -151.97c0,-4.38 2.19,-6.57 6.57,-6.57l78.95 0c4.38,0 6.58,2.19 6.58,6.57l0 434.19c0,4.39 -2.2,6.58 -6.58,6.58l-78.95 0zm-61.18 -70.39c25,0 41.23,-11.4 48.68,-34.21 2.2,-6.14 3.73,-13.27 4.61,-21.38 0.88,-8.11 1.32,-19.19 1.32,-33.22 0,-14.04 -0.44,-25.11 -1.32,-33.22 -0.88,-8.12 -2.41,-15.24 -4.61,-21.38 -7.01,-22.81 -23.24,-34.21 -48.68,-34.21 -25.87,0 -42.32,11.4 -49.34,34.21 -2.19,6.14 -3.72,13.26 -4.6,21.38 -0.88,8.11 -1.32,19.18 -1.32,33.22 0,14.03 0.44,25.11 1.32,33.22 0.88,8.11 2.41,15.24 4.6,21.38 7.46,22.81 23.91,34.21 49.34,34.21zm365.77 77.63c-36.4,0 -66.66,-7.9 -90.78,-23.69 -24.12,-15.79 -40.79,-38.15 -50,-67.1 -3.51,-10.09 -6.25,-21.05 -8.22,-32.89 -1.98,-11.84 -2.96,-26.1 -2.96,-42.76 0,-16.67 0.87,-31.03 2.63,-43.09 1.75,-12.06 4.38,-23.14 7.89,-33.22 9.21,-28.95 25.77,-51.21 49.67,-66.78 23.9,-15.57 52.96,-23.35 87.17,-23.35 35.52,0 65.02,7.89 88.48,23.68 23.46,15.79 39.8,37.72 49.01,65.79 1.75,5.26 3.29,10.85 4.6,16.77 1.32,5.92 2.42,12.61 3.29,20.07 0.88,7.45 1.54,16.12 1.98,25.98 0.44,9.87 0.66,21.6 0.66,35.2 0,4.39 -2.42,6.58 -7.24,6.58l-192.75 0c-2.64,0 -3.95,1.31 -3.95,3.95 0.44,6.57 1.75,12.49 3.95,17.76 4.38,14.03 12.28,24.56 23.68,31.57 11.4,7.02 25.44,10.53 42.1,10.53 15.79,0 29.61,-2.52 41.45,-7.56 11.84,-5.05 22.36,-11.96 31.57,-20.73 3.95,-3.07 7.02,-3.07 9.21,0l43.42 40.79c3.51,3.07 3.73,6.14 0.66,9.21 -15.35,16.23 -34.43,29.16 -57.23,38.81 -22.81,9.65 -48.9,14.48 -78.29,14.48zm48.68 -199.99c2.64,0 3.95,-1.32 3.95,-3.95 0,-4.82 -0.33,-9.1 -0.99,-12.83 -0.65,-3.73 -1.42,-7.34 -2.3,-10.85 -3.51,-10.97 -9.98,-19.52 -19.41,-25.66 -9.42,-6.14 -20.72,-9.21 -33.87,-9.21 -13.16,0 -24.46,3.07 -33.88,9.21 -9.43,6.14 -15.9,14.69 -19.41,25.66 -0.88,3.51 -1.65,7.12 -2.3,10.85 -0.66,3.73 -0.99,8.01 -0.99,12.83 0,2.63 1.31,3.95 3.95,3.95l105.25 0zm286.83 199.99c-33.33,0 -61.95,-4.94 -85.85,-14.81 -23.9,-9.86 -43.53,-21.38 -58.88,-34.53 -3.07,-3.07 -3.07,-6.14 0,-9.21l42.76 -48.03c2.63,-2.63 5.7,-2.63 9.21,0 14.03,10.97 29.6,19.52 46.71,25.66 17.1,6.14 33.99,9.21 50.65,9.21 16.67,0 29.06,-2.85 37.17,-8.55 8.12,-5.7 12.17,-12.94 12.17,-21.71 0,-7.46 -2.96,-13.49 -8.88,-18.09 -5.92,-4.61 -18.09,-7.79 -36.51,-9.54l-35.52 -3.95c-33.77,-3.51 -59.54,-13.38 -77.3,-29.6 -17.76,-16.23 -26.65,-38.82 -26.65,-67.76 0,-31.58 11.41,-56.47 34.21,-74.67 22.81,-18.2 55.04,-27.3 96.71,-27.3 27.19,0 51.75,3.73 73.68,11.18 21.93,7.46 40.35,16.89 55.26,28.29 3.07,3.07 3.29,6.36 0.66,9.87l-36.84 45.39c-2.63,3.07 -5.7,3.51 -9.21,1.32 -10.97,-7.02 -23.91,-13.05 -38.82,-18.09 -14.91,-5.05 -30.7,-7.57 -47.36,-7.57 -13.6,0 -23.69,2.41 -30.26,7.24 -6.58,4.82 -9.87,11.18 -9.87,19.07 0,7.46 2.85,13.27 8.55,17.44 5.7,4.16 17.54,7.12 35.52,8.88l34.87 3.95c37.72,3.5 64.8,13.81 81.25,30.92 16.44,17.1 24.67,39.03 24.67,65.78 -0.44,32.89 -12.83,59.32 -37.17,79.27 -24.34,19.96 -59.32,29.94 -104.93,29.94zm315.77 -3.29c-37.06,0 -63.26,-8.56 -78.72,-25.66 -15.46,-17.1 -23.25,-43.86 -23.25,-80.26l0 -144.73c0,-2.63 -1.31,-3.94 -3.94,-3.94l-19.74 0c-4.38,0 -6.58,-2.2 -6.58,-6.58l0 -54.61c0,-4.38 2.2,-6.57 6.58,-6.57l19.74 0c2.63,0 3.94,-1.32 3.94,-3.95l0 -85.52c0,-4.39 2.2,-6.58 6.58,-6.58l78.95 0c4.38,0 6.57,2.19 6.57,6.58l0 85.52c0,2.63 1.32,3.95 3.95,3.95l40.79 0c4.38,0 6.58,2.19 6.58,6.57l0 54.61c0,4.38 -2.2,6.58 -6.58,6.58l-40.79 0c-2.63,0 -3.95,1.31 -3.95,3.94l0 141.33c0,11.84 2.2,20.18 6.58,24.78 4.39,4.61 11.84,6.91 22.37,6.91l15.79 0c4.38,0 6.58,2.19 6.58,6.58l0 64.47c0,4.38 -2.2,6.58 -6.58,6.58l-34.87 0zm245.38 3.29c-36.4,0 -66.66,-7.9 -90.78,-23.69 -24.12,-15.79 -40.79,-38.15 -50,-67.1 -3.51,-10.09 -6.25,-21.05 -8.22,-32.89 -1.98,-11.84 -2.96,-26.1 -2.96,-42.76 0,-16.67 0.87,-31.03 2.63,-43.09 1.75,-12.06 4.38,-23.14 7.89,-33.22 9.21,-28.95 25.77,-51.21 49.67,-66.78 23.9,-15.57 52.96,-23.35 87.17,-23.35 35.52,0 65.02,7.89 88.48,23.68 23.46,15.79 39.8,37.72 49.01,65.79 1.75,5.26 3.29,10.85 4.6,16.77 1.32,5.92 2.42,12.61 3.29,20.07 0.88,7.45 1.54,16.12 1.98,25.98 0.44,9.87 0.66,21.6 0.66,35.2 0,4.39 -2.42,6.58 -7.24,6.58l-192.75 0c-2.64,0 -3.95,1.31 -3.95,3.95 0.44,6.57 1.75,12.49 3.95,17.76 4.38,14.03 12.28,24.56 23.68,31.57 11.4,7.02 25.44,10.53 42.1,10.53 15.79,0 29.61,-2.52 41.45,-7.56 11.84,-5.05 22.36,-11.96 31.57,-20.73 3.95,-3.07 7.02,-3.07 9.21,0l43.42 40.79c3.51,3.07 3.73,6.14 0.66,9.21 -15.35,16.23 -34.43,29.16 -57.23,38.81 -22.81,9.65 -48.9,14.48 -78.29,14.48zm48.68 -199.99c2.64,0 3.95,-1.32 3.95,-3.95 0,-4.82 -0.33,-9.1 -0.99,-12.83 -0.65,-3.73 -1.42,-7.34 -2.3,-10.85 -3.51,-10.97 -9.98,-19.52 -19.41,-25.66 -9.42,-6.14 -20.72,-9.21 -33.87,-9.21 -13.16,0 -24.46,3.07 -33.88,9.21 -9.43,6.14 -15.9,14.69 -19.41,25.66 -0.88,3.51 -1.65,7.12 -2.3,10.85 -0.66,3.73 -0.99,8.01 -0.99,12.83 0,2.63 1.31,3.95 3.95,3.95l105.25 0z"/><rect width="6600" height="3300" x="-2" y="1" fill="none"/><path fill="#abacb0" fill-rule="nonzero" d="M3386.49 243.45c193.69,16.7 367.34,86.83 520.95,203.71 227.08,173.64 360.65,407.4 400.72,691.25 30.06,227.07 -16.69,444.13 -130.23,644.5 0,3.33 -3.34,3.33 -6.68,6.68 -13.36,-3.34 -13.36,-16.7 -20.04,-26.72 -83.48,-180.33 -173.64,-360.65 -267.15,-537.64 -100.18,-183.66 -207.04,-367.33 -347.29,-527.62 -46.75,-53.43 -96.84,-103.52 -163.63,-136.91 -60.11,-30.06 -116.88,-26.72 -173.65,6.67 -93.5,56.77 -160.29,136.92 -223.74,220.4 -130.23,170.31 -237.09,357.32 -337.27,547.66 -76.81,143.59 -146.94,287.19 -213.72,434.12 -3.34,6.68 -6.68,16.7 -16.7,23.38 -46.75,-76.81 -83.48,-156.95 -106.86,-240.44 -90.16,-330.6 -36.73,-634.48 170.31,-908.31 160.29,-220.4 384.02,-350.64 657.85,-397.39 16.7,-3.34 36.74,0 50.09,-10.01 53.43,0 110.2,0 163.63,0 13.36,6.67 30.06,-3.35 43.41,6.67z"/><path fill="#d2d3d5" fill-rule="nonzero" d="M3386.49 243.45c-13.35,0 -30.05,6.68 -43.41,-6.67 13.36,0 30.06,0 43.41,0 0,0 0,3.33 0,6.67z"/><path fill="#abacb0" fill-rule="nonzero" d="M3282.98 2293.83c-217.07,0 -414.09,-63.45 -591.07,-187.01 -16.7,-10.01 -26.72,-20.03 0,-30.05 143.59,-73.47 290.52,-143.59 450.81,-183.67 143.6,-36.73 283.85,-13.35 420.76,33.4 110.2,36.73 213.72,90.16 317.24,140.25 26.72,13.36 23.38,20.04 3.34,36.73 -130.23,93.51 -273.83,150.28 -434.12,176.99 -60.1,10.02 -113.54,13.36 -166.96,13.36z"/></g></svg>