<svg xmlns="http://www.w3.org/2000/svg" fill-rule="evenodd" clip-rule="evenodd" image-rendering="optimizeQuality" shape-rendering="geometricPrecision" text-rendering="geometricPrecision" viewBox="-2 1 6600 3300"><g fill-rule="nonzero"><rect width="6600" height="3300" x="-2" y="1" fill="#001f4e"/><path fill="#fefefe" d="M2759.54 1430.31l-27.74 70.16 -193.36 0 0 615.15 -83.21 0 0 -921.09 83.21 -27.74 0 263.52 221.1 0 0 0zm2405.92 -235.78l83.22 -27.74 0 948.01 -83.22 0 0 -920.27zm-1366.54 869.69c-176.22,0 -238.22,-150.11 -238.22,-292.07 0,-141.96 61.18,-292.07 238.22,-292.07 158.28,0 222.73,150.11 222.73,292.07 0,142.77 -64.45,292.07 -222.73,292.07zm0 -654.3c-101.16,0 -199.88,52.21 -235.77,150.11l-2.45 0 0 -393.24 -83.22 27.74 0 920.28 76.69 0 0 -129.72 2.45 0c38.34,93 132.98,150.11 242.3,150.11 206.41,0 305.13,-168.88 305.13,-363.05 0,-193.35 -98.72,-362.23 -305.13,-362.23l0 0zm1118.53 -215.39l83.21 -27.74 0 948.01 -83.21 0 0 -920.27zm-636.36 530.3c13.05,-124.82 88.93,-243.94 224.36,-243.94 135.43,0 212.93,118.3 217.01,243.94l-441.37 0zm224.36 -314.91c-217.02,0 -308.39,181.93 -308.39,362.23 0,194.99 91.37,363.05 308.39,363.05 166.43,0 255.35,-84.85 293.7,-230.07l-83.22 0c-29.36,95.46 -94.63,159.91 -210.48,159.91 -159.91,0 -223.54,-147.67 -224.36,-269.23l524.59 0c6.52,-193.36 -80.77,-385.89 -300.23,-385.89zm1171.55 654.3c-157.46,0 -235.78,-146.03 -235.78,-292.07 0,-146.04 78.32,-292.07 235.78,-292.07 157.46,0 235.78,146.03 235.78,292.07 0,146.04 -78.32,292.07 -235.78,292.07zm0 -654.3c-205.59,0 -318.18,165.61 -318.18,362.23 0,196.62 111.77,363.05 318.18,363.05 205.59,0 318.18,-166.43 318.18,-363.05 0,-196.62 -112.59,-362.23 -318.18,-362.23zm-2627.84 654.3c-157.46,0 -235.78,-146.03 -235.78,-292.07 0,-146.04 78.32,-292.07 235.78,-292.07 157.46,0 235.78,146.03 235.78,292.07 0.82,146.04 -77.5,292.07 -235.78,292.07zm0 -654.3c-205.59,0 -318.18,165.61 -318.18,362.23 0,196.62 112.59,362.24 318.18,362.24 205.6,0 318.18,-166.43 318.18,-362.24 0,-196.62 -111.77,-362.23 -318.18,-362.23zm-695.91 19.57l17.95 0 0 70.17 -16.32 0c-144.41,-1.63 -260.26,111.77 -260.26,249.65l0 365.5 -83.21 0 0 -685.32 76.69 0 0 160.73 2.44 0c40.8,-105.25 146.04,-161.54 262.7,-160.73l0.01 0zm-1403.26 202.34l-259.44 0 0 -387.53 260.26 0c124.01,0 209.67,63.63 209.67,193.35 -0.81,130.54 -86.48,194.18 -210.49,194.18l0 0zm20.4 -465.04l-369.58 0 0 948.02 89.74 0 0 -406.29 279.84 0c168.06,0 279.02,-99.54 279.02,-270.87 -0.82,-171.32 -110.96,-270.86 -279.02,-270.86zm612.7 897.43c-157.46,0 -235.78,-146.03 -235.78,-292.07 0,-146.04 78.32,-292.07 235.78,-292.07 157.46,0 235.78,146.03 235.78,292.07 0,146.04 -78.32,292.07 -235.78,292.07zm0 -654.3c-205.59,0 -317.37,165.61 -317.37,362.23 0,196.62 111.78,363.05 317.37,363.05 205.59,0 317.36,-166.43 317.36,-363.05 0.82,-196.62 -110.95,-362.23 -317.36,-362.23z"/></g></svg>