<svg  id="fndm-5pefvpdoh5" viewBox="0.5399916172027588 0.280059814453125 1801.1600341796875 312.5499267578125" xmlns="http://www.w3.org/2000/svg">
   <g xmlns="http://www.w3.org/2000/svg" fill="none">
    <path d="m456.74,0.32c14.28,5 29.49,8.32 42.68,15.39c30.21,16.18 53.83,39.38 63.11,73.53c3,11.13 5.31,14.59 17.38,10.27c30.51,-10.91 61.92,-11.24 92,0.86c27.71,11.13 51.83,27.68 66.51,55.34c9.15,17.23 25.66,7.29 38.37,7.64c10.83,0.3 5.35,-11.8 5.47,-18c0.64,-31.4 0.3,-62.82 0.3,-93.73c9.26,0 18.06,1 26.53,-0.23c14.34,-2.12 16.64,4.34 16.23,16.92c-0.91,27.41 0,54.88 -0.58,82.3c-0.22,10.42 3.35,13.59 13.8,13.82c45,1 45,1.32 45,-43.68c0,-19.44 0.32,-38.88 -0.21,-58.31c-0.23,-8.21 1.11,-11.23 10.68,-11.08c32.75,0.5 32.75,0 32.76,32.83c0,22.86 0.44,45.74 -0.12,68.59c-0.22,8.94 2.24,12.7 11.47,11.56a53,53 0 0 1 15.4,0c15.6,2.73 24,-3.83 32.1,-17.47c18.3,-31 48.7,-48.23 82.78,-52.2c36.62,-4.28 74,0.33 105.74,23c10.25,7.31 18.57,17.32 29.67,27.9c0,-13.94 1.05,-26.23 -0.28,-38.26c-1.51,-13.66 4.11,-15.94 16.3,-15.61c31.42,0.84 62.87,0.11 94.31,0.37c51,0.43 76.82,28.78 72.65,79.82c-0.42,5.14 2.18,9.33 4.76,12.19c2.1,2.34 5.32,-2.67 8.08,-4.35c16.22,-9.85 33.12,-15.8 52.82,-14.63c22.21,1.31 44.6,-0.51 66.85,0.42c14.91,0.63 16.56,-6.4 12.88,-17.71c-4.94,-15.19 -16.74,-20.93 -31.74,-21c-24.58,-0.18 -49.21,-1 -73.72,0.31c-18.28,1 -12.89,-11.11 -13.46,-20.28c-0.61,-9.71 -2.42,-19.1 13.73,-17.89c21,1.58 42.28,0.88 63.42,0.33c37,-1 75.12,24.93 81.63,47.5c2.65,9.15 -1.23,22.93 7.65,26.69c9.78,4.13 22.54,0.55 33.77,2.08c14.62,2 16.71,-4.73 16.34,-17.22c-0.81,-26.85 0.67,-53.78 -0.62,-80.58c-0.67,-14.17 4.37,-17.54 17.14,-16.32c8.32,0.8 17,1.22 26.69,-2.54c0,34.5 0.53,68.06 -0.29,101.58c-0.29,12.11 3.32,16.4 15.29,15.05c7.91,-0.89 16.12,0.75 24,-0.37c14.72,-2.12 17.77,3.91 17.81,17.82c0.04,13.91 -4.19,16.9 -17.3,16.66c-39.47,-0.71 -39.47,-0.15 -39.46,40.06c0,17.15 -1.2,34.4 0.3,51.42c1.95,22.11 -13.84,16.95 -25.61,18.64c-14.11,2 -19.07,-3.58 -18.47,-18.13c1.11,-26.83 0,-53.73 0.49,-80.59c0.15,-8.64 -1.91,-11.65 -11.26,-12c-41.59,-1.36 -41.57,-1.71 -41.57,40.2l0,58.31c0,6.48 0.52,12.36 -9.31,12.3c-45.67,-0.31 -91.35,0.12 -137,-0.27c-6.61,-0.06 -14.08,-1.71 -19.57,-5.16c-9.15,-5.74 -14.56,-16.6 -24.55,1.76c-5.16,9.48 -23.59,4 -35.57,2.85c-6.64,-0.66 -3.14,-10.87 -3.19,-16.63c-0.32,-43.44 -0.06,-86.89 -0.25,-130.34c-0.09,-22.77 -6.86,-31.44 -28.75,-33c-21,-1.46 -42.27,-0.36 -63.41,-0.57c-11.28,-0.11 -8.92,8.1 -8.93,14.5c-0.11,48.59 -0.71,97.19 0.3,145.77c0.35,16.49 -4.45,21.79 -21.13,21.38c-15.12,-0.37 -23.22,-2.2 -22,-20.36c1.61,-24.47 -0.1,-49.14 0.54,-73.7c0.29,-11.29 -2.27,-16.1 -15,-15.95c-55.453,0.667 -110.903,0.697 -166.35,0.09c-14.51,-0.16 -14.79,6.89 -12.07,17.17c12.24,46.31 48.53,63.21 97.58,56.13c14,-2 27.49,-5.61 36.76,-17.93c5,-6.66 10.91,-7.15 17.31,-1.21a100,100 0 0 0 12.14,9.43c11.31,7.59 11,13.32 -0.83,21c-48.49,31.58 -98.53,34.08 -148.76,6.66c-30.13,-16.46 -50.38,-42.62 -55.23,-77.7c-1.53,-11.1 -5.2,-14.95 -15.83,-13.51c-4.544,0.6 -9.146,0.6 -13.69,0c-10.46,-1.39 -13.87,2.53 -13.59,13.23c0.7,27.42 -0.35,54.89 0.47,82.3c0.33,11.12 -2.55,14.42 -13.94,14.14c-29.33,-0.72 -29.35,-0.13 -29.34,-29.5c0,-22.29 -0.53,-44.61 0.23,-66.87c0.38,-10.81 -3.36,-14.14 -13.75,-13.32a161.08,161.08 0 0 1 -30.82,0c-13,-1.49 -15.15,4.65 -14.89,15.73c0.63,26.29 -0.28,52.61 0.67,78.87c0.44,12.24 -3.52,15.43 -15.45,15.1c-27.15,-0.74 -27.16,-0.11 -27.16,-26.79c0,-22.87 -0.4,-45.75 0.17,-68.6c0.25,-9.72 -1.41,-14.35 -12.82,-14.28c-72.6,0.453 -145.2,0.453 -217.8,0c-16.64,-0.07 -14.15,10.58 -11,19.45c20.27,56.92 90,74.86 135.2,34.61c8.26,-7.35 12.5,-2.95 18.55,1.52c25.71,19 25.61,21.2 -2.53,36.58c-54.21,29.62 -123.75,20.34 -164.46,-21.9c-13,-13.45 -21.42,-29.45 -26.28,-47.28c-1.48,-5.45 -2.47,-8.43 -8.78,-5.58c-40.82,18.49 -84.23,11.66 -126.71,11.8c-16.1,0.06 -20.28,4.75 -19.14,19.9c1.28,17.05 -0.1,34.29 0.46,51.42c0.28,8.49 -1.59,11.71 -11.08,11.89c-31.2,0.6 -31.24,1.07 -31.185,-29.46c0.172,-94.313 0.368,-188.623 0.595,-282.93l150.97,0.04zm-109.55,114.37l0.1,0c0,22.82 0.19,45.65 -0.11,68.47c-0.1,7.41 1.17,11.82 10.08,11.57c31.86,-0.91 63.91,2.14 95.56,-2.82c53.57,-8.39 93,-68.32 59.63,-115.67c-15.64,-22.21 -37.07,-34.94 -63.77,-38.49c-30.08,-4 -60.38,-0.91 -90.54,-2.11c-9.77,-0.38 -11.2,4.15 -11.07,12.3c0.36,22.25 0.12,44.5 0.12,66.75zm1136.42,160.34c13.1,0 26.21,-0.35 39.29,0.14c7.7,0.28 11.28,-1.46 11,-10.21c-0.61,-18.2 -0.65,-36.46 0.06,-54.65c0.37,-9.39 -3.11,-11.37 -11.78,-11.18c-24.47,0.53 -49,-0.17 -73.46,0.23c-23.71,0.39 -41.64,16.24 -41.801,36.06c-0.169,21.51 18.911,39.36 42.531,39.65c11.38,0.11 22.8,-0.04 34.16,-0.04zm-930.08,-111.75l139,0c-24.6,-48.93 -106.37,-49.25 -139,0zm611.24,0.55c-20.59,-28.86 -46.73,-38.11 -78,-37.31c-27.45,0.7 -46.69,14.29 -64,37.31l142,0zm-930.99,-163.51c26.08,9.93 33.53,29.72 31.07,56c-1.38,14.69 -0.18,29.62 -0.26,44.44c-0.14,25.91 -12.85,40.85 -38.93,42.06c-30.14,1.4 -60.39,0.67 -90.59,0.74c-29.07,0.07 -58.16,-0.48 -87.22,0.14c-21.45,0.45 -37.36,-7.48 -47.31,-26.71l0,-96c9.92,-7.42 19.05,-16 30.87,-20.58l202.37,-0.09z" fill="#054C8F"/>
    <path d="m0.54,195.83c7,-22.71 26.73,-27 45.54,-27.41c58.72,-1.32 117.5,-0.66 176.25,-0.43c24.49,0.09 42,18.14 42.13,42.49c0.09,20 0.33,39.93 0,59.89c-0.4,24.36 -15.35,39.43 -39.69,39.49c-61.6,0.15 -123.21,-0.45 -184.81,0c-19.15,0.14 -30,-10.68 -39.41,-24.83l-0.01,-89.2z" fill="#F48A1F"/>
    <path d="m31.41,0.32c-11.82,4.56 -20.95,13.16 -30.87,20.58c0,-20.58 0,-20.58 30.87,-20.58z" fill="#F8FAFA"/>
    <path d="m1757.05,94.85l43.27,0c0,68 -0.1,135.94 0.13,203.87c0,7.6 -3.69,10 -10.07,10.74c-1.13,0.13 -2.29,0 -3.43,0.07c-29.9,2.29 -29.9,2.3 -29.9,-27.27l0,-187.41zm44.65,-46.96c-4.16,9.19 4.2,18.46 -5.58,22.87c-11.68,5.28 -24.79,3.58 -36.8,0.85c-4.85,-1.11 -1.64,-9.2 -2,-14.1c-0.36,-5.92 4.31,-5.68 8.25,-5.93c11.19,-0.71 22.47,1.92 36.13,-3.69z" fill="#054C8F"/>
   </g>
  </svg>