<svg xmlns="http://www.w3.org/2000/svg" viewBox="24 50 543.5110473632812 151"><defs xmlns="http://www.w3.org/2000/svg"><path id="a" d="m0.232,0.438l43.277,0l0,60.808l-43.277,0l0,-60.808z"/></defs><g xmlns="http://www.w3.org/2000/svg" fill="none" fill-rule="evenodd"><path fill="#00406F" d="m102.522,84.946c-11.079,0 -20.442,3.864 -28.215,11.59c-7.782,7.692 -11.669,17.008 -11.669,27.91c0,10.903 3.887,20.224 11.712,27.908c7.82,7.73 17.184,11.593 28.172,11.593c11.125,0 20.532,-3.82 28.262,-11.508c7.734,-7.684 11.578,-17 11.578,-27.992c0,-10.988 -3.844,-20.309 -11.578,-27.997c-7.73,-7.683 -17.137,-11.504 -28.262,-11.504m1.3,-34.946c21.153,0 39.32,7.312 54.453,21.929c15.137,14.62 22.725,32.15 22.725,52.518c0,20.722 -7.627,38.323 -22.872,52.833c-15.25,14.48 -33.825,21.72 -55.61,21.72c-21.713,0 -40.216,-7.274 -55.534,-21.827c-15.327,-14.582 -22.984,-32.145 -22.984,-52.726c0,-20.795 7.735,-38.396 23.17,-52.838c15.433,-14.403 34.306,-21.609 56.652,-21.609"/><path fill="#00406F" d="m123.535,129.405l15.02,17.147a1.788,1.788 0 0 1 -0.185,2.542a1.82,1.82 0 0 1 -1.03,0.432l-1.97,0.248c-11.138,1.414 -16.182,2.055 -24.424,2.226a1.836,1.836 0 0 1 -1.636,-0.94l-4.745,-5.136l-0.004,0l-19.03,-18.843a1.781,1.781 0 0 1 0.009,-2.547a1.836,1.836 0 0 1 1.364,-0.521c4.069,0 7.519,-0.004 10.904,-0.004c4.19,0 8.286,-0.005 13.333,-0.009c2.866,0 5.017,0.29 6.96,1.128c1.962,0.842 3.603,2.183 5.434,4.277"/><path fill="#FEFEFE" d="m122.087,131.703l14.913,16.867c-12.437,1.56 -17.51,2.248 -26.081,2.429a4.042,4.042 0 0 0 -0.103,-0.193l-4.858,-5.207l-18.958,-18.586l24.151,-0.013c5.189,-0.004 7.66,1 10.936,4.703"/><path fill="#FEFEFE" d="m121.87,131.776l14.82,17.13c-1.589,0.679 -1.572,2.749 -0.777,4.14c2.939,5.151 4.61,4.63 8.087,7.161l-1.897,24.087c-0.26,0.606 -0.457,1.007 -0.765,1.263a1.59,1.59 0 0 1 -0.867,0.355c-1.628,0.153 -3.426,0.136 -3.994,-0.29c-1.081,-0.683 -1.039,-2.088 -1.162,-4.99c-0.082,-1.997 -0.42,-0.909 -0.599,-0.12c-0.487,2.105 -1.315,5.037 -1.973,5.178c-1.017,0.132 -2.978,-0.022 -3.696,-0.133c-0.888,-0.303 -1.35,-3.614 -1.606,-5.77c-0.23,-1.95 -0.415,-1.028 -0.658,0.026c-0.513,2.24 -1.397,4.916 -1.952,5.057c-1.432,0.286 -3.055,0.316 -4.708,-0.345c-0.522,-0.163 -0.543,-3.423 -0.735,-5.523c-0.133,-1.472 -0.389,-0.678 -0.59,0.073c-0.461,1.745 -1.188,4.293 -1.952,4.758c-0.855,0.53 -4.79,0.303 -5.063,-1.502a17.508,17.508 0 0 1 -0.004,-3.35c1.128,-8.083 -0.432,-19.478 -1.008,-27.608a4.136,4.136 0 0 0 -0.103,-0.196l-4.827,-5.288l-18.841,-18.876l24.001,-0.013c5.157,-0.004 7.613,1.016 10.869,4.776"/><path fill="#FEFEFE" d="m110.105,159.834l0,0.004l0,-0.004zm-1.981,-1.497a2.98,2.98 0 0 1 -0.595,-1.882l0.004,-0.027l0.176,-3.97l0,-0.022a2.815,2.815 0 0 1 0.303,-1.094c0.446,-0.832 1.332,-1.383 2.316,-1.34l0.004,0.005l0,-0.005l3.514,0.167l2.812,0.135l0.022,0c0.2,0.014 0.385,0.04 0.556,0.092a2.58,2.58 0 0 1 1.82,2.587l-0.18,4.006a2.01,2.01 0 0 1 -0.236,0.893c0.826,0.437 1.408,1.129 1.357,2.298l-0.184,4.097c-0.03,0.705 -0.266,1.23 -0.63,1.615c0.433,0.376 0.698,0.889 0.664,1.58l-0.18,4.001l0,0.004a2.434,2.434 0 0 1 -0.124,0.683a2.562,2.562 0 0 1 -0.282,0.6c-0.116,0.18 -0.261,0.346 -0.42,0.495a2.281,2.281 0 0 1 -0.445,0.324c0.099,0.302 0.15,0.621 0.137,0.954l-0.184,4.01l0,0.022a2.587,2.587 0 0 1 -0.094,0.573a3.122,3.122 0 0 1 -0.206,0.52c-0.449,0.828 -1.326,1.38 -2.315,1.34l-0.009,0l-1.9,-0.096l-0.013,0l-4.413,-0.21l-0.017,0a2.507,2.507 0 0 1 -0.56,-0.092a2.8,2.8 0 0 1 -0.506,-0.22a2.576,2.576 0 0 1 -1.314,-2.363l0,-0.009l0.18,-4.005l0.004,-0.013l-0.004,0l0.004,-0.004a2.855,2.855 0 0 1 0.283,-1.09c0.068,-0.145 0.15,-0.28 0.244,-0.412c-0.287,-0.49 -0.445,-1.063 -0.424,-1.593l0,-0.005l0.18,-4.01l0,-0.003c0,-0.036 0.004,-0.07 0.008,-0.123c0.018,-0.188 0.056,-0.377 0.116,-0.556a2.542,2.542 0 0 1 0.381,-0.744c-0.304,-0.543 -0.475,-1.178 -0.454,-1.703l0.184,-4.014c0.005,-0.079 0,-0.066 0,-0.087c0.005,-0.018 0.005,-0.031 0.009,-0.049a2.58,2.58 0 0 1 0.094,-0.494c0.043,-0.167 0.103,-0.337 0.18,-0.5c0.043,-0.091 0.085,-0.179 0.137,-0.266zm2.136,-1.348l0.004,0a1.22,1.22 0 0 1 1.083,1.234a1.213,1.213 0 0 1 -1.212,1.217c-0.077,0 0.077,0.096 0.03,0.206a0.826,0.826 0 0 0 -0.042,0.109a1.452,1.452 0 0 1 -0.013,0.061l0,0.022c-0.005,0.03 -0.005,0.013 -0.005,0l0,0.005l-0.18,4.01c-0.008,0.183 0.108,0.433 0.279,0.586a1.21,1.21 0 0 1 1.04,1.221a1.21,1.21 0 0 1 -1.207,1.221c-0.068,0 -0.128,0.027 -0.154,0.07c-0.009,0.018 -0.004,0.005 -0.009,0.013c0,0 0,0.005 -0.004,0.014l0,0.008l-0.18,4.006a0.52,0.52 0 0 0 0.172,0.372a0.13,0.13 0 0 1 0.03,0.021c0.62,0.066 1.095,0.622 1.07,1.266c-0.022,0.682 -0.578,1.212 -1.242,1.186c-0.013,0 -0.051,0.074 -0.094,0.157l-0.03,0.07c-0.004,0.014 -0.004,0.027 -0.008,0.044l0,0.013l-0.184,3.997a0.12,0.12 0 0 0 0.06,0.105c0.004,0 0.008,0 0.02,0.004l0.022,0.009l4.409,0.21l0.025,0l1.897,0.092a0.132,0.132 0 0 0 0.098,-0.066a0.098,0.098 0 0 1 0.013,-0.022l0,-0.031l0.004,0l0.176,-3.991a0.147,0.147 0 0 0 -0.018,-0.075l-0.008,-0.004c0,-0.004 0,0 -0.009,-0.009l-0.004,-0.004c-0.167,-0.149 -1.42,-0.263 -2.157,-0.329a7.738,7.738 0 0 1 -0.723,-0.087a1.217,1.217 0 0 1 -0.818,-0.525a1.254,1.254 0 0 1 0.317,-1.712c0.295,-0.21 1.254,-0.245 2.268,-0.236c0.818,0.009 1.7,0.026 2.119,0.026l0,-0.004l0.004,0l0,0.004a0.196,0.196 0 0 0 0.137,-0.052c0.004,0 0.009,-0.005 0.017,-0.018c0.005,-0.013 0.009,-0.013 0.009,-0.013c0,-0.005 0.004,-0.013 0.004,-0.026l0.18,-4.001c0.004,-0.1 -1.438,-0.079 -2.269,-0.18c-0.488,-0.061 -0.86,-0.11 -1.125,-0.219a1.249,1.249 0 0 1 -0.227,-0.118a1.182,1.182 0 0 1 -0.428,-0.49a1.242,1.242 0 0 1 0.548,-1.65c0.3,-0.153 0.625,-0.158 1.087,-0.158c0.757,0 2.363,-0.004 2.38,-0.376l0.184,-4.097c0.008,-0.224 -1.464,-0.408 -2.427,-0.534c-0.445,-0.053 -0.822,-0.101 -1.139,-0.189l-0.004,-0.004a1.227,1.227 0 0 1 -0.882,-1.213c0.017,-0.674 0.57,-1.212 1.229,-1.199l0.021,0c0.291,0.009 2.072,0.048 2.08,-0.052l0.18,-4.006a0.106,0.106 0 0 0 -0.056,-0.105l-0.021,-0.004l-0.021,-0.009l-0.009,0l-2.808,-0.136l-3.514,-0.166c-0.042,0 -0.077,0.026 -0.098,0.066l-0.013,0.022l0,0.017l-0.004,0.013l-0.176,3.966l0,0.03a0.421,0.421 0 0 0 0.193,0.368c0.013,0.014 0.034,0.022 0.06,0.035a0.196,0.196 0 0 0 0.073,0.01l0,0.004z"/><path fill="#00406F" d="m110.015,157.604c-0.947,-0.083 -1.502,-0.907 -1.471,-1.607l0.191,-3.79c0.036,-0.7 0.671,-1.239 1.418,-1.206l3.65,0.154l2.924,0.128c0.752,0.033 1.33,0.626 1.294,1.326l-0.187,3.79c-0.062,1.25 -3.067,1.167 -3.458,1.16c0.973,0.256 4.703,0.194 4.623,1.859l-0.191,3.873c-0.09,1.847 -4.019,1.37 -4.299,1.503c0.338,0.203 4.4,0.2 4.334,1.52l-0.187,3.79c-0.035,0.7 -0.675,1.206 -1.418,1.206c-0.84,0.004 -3.765,-0.05 -3.858,0.004c0.182,0.09 2.956,0.128 3.627,0.667c0.303,0.244 0.485,0.613 0.472,1.019l-0.192,3.794c-0.03,0.695 -0.67,1.234 -1.422,1.205l-1.97,-0.087l-4.604,-0.199c-0.743,-0.033 -1.325,-0.625 -1.29,-1.321l0.187,-3.798c0.036,-0.692 0.685,-1.392 1.432,-1.371c-0.747,-0.034 -1.36,-0.878 -1.325,-1.578l0.191,-3.795c0.036,-0.695 0.667,-1.209 1.422,-1.2c-0.773,-0.046 -1.404,-1.065 -1.373,-1.761l0.191,-3.794c0.031,-0.696 0.671,-1.491 1.29,-1.491"/><path fill="#FEFEFE" d="m143.826,183.079l8.785,10.016l0.026,0.03c3.779,4.54 7.125,4.87 12.187,4.87c0.485,0 0.983,0 1.495,-0.005c0.546,-0.004 1.11,-0.009 1.69,-0.009l16.894,0l-32.197,-32.646c-0.642,-0.57 -0.928,-1.6 -1.829,-5.518c-0.403,-1.751 -0.858,-3.723 -1.335,-5.315a21.184,21.184 0 0 1 -0.251,-0.925c-0.295,-1.155 -0.347,-1.363 -1.855,-1.946c-3.88,-1.501 -7.008,-2.4 -9.04,-2.604c-0.65,-0.069 -1.102,0.03 -1.253,0.281c-0.213,0.346 -0.2,1.168 0.2,1.942c1.126,2.219 2.994,3.477 5.364,5.073c0.763,0.51 1.548,1.038 2.38,1.647c0.42,0.307 0.654,0.805 0.61,1.332l-1.871,23.777zm20.998,17.921c-5.587,0 -9.9,-0.428 -14.489,-5.938l-9.192,-10.482a1.523,1.523 0 0 1 -0.368,-1.108l1.859,-23.56a110.31,110.31 0 0 0 -1.608,-1.098c-2.626,-1.769 -4.889,-3.296 -6.371,-6.206c-0.641,-1.258 -1.044,-3.3 -0.078,-4.87c0.399,-0.644 1.378,-1.738 3.458,-1.738c0.213,0 0.434,0.013 0.66,0.039c2.335,0.23 5.638,1.168 9.829,2.79c2.752,1.063 3.246,2.278 3.683,4.012c0.066,0.251 0.13,0.515 0.213,0.788c0.511,1.686 0.975,3.719 1.391,5.513c0.364,1.592 0.82,3.55 1.066,4.113l34.693,35.176a1.5,1.5 0 0 1 -1.074,2.552l-20.487,0a223,223 0 0 0 -1.669,0.008c-0.52,0.005 -1.027,0.009 -1.516,0.009z"/><path fill="#00406F" d="m151.978,193.684l-9.202,-10.29l1.92,-23.937c-3.52,-2.52 -6.506,-3.851 -8.2,-7.118c-0.941,-1.824 -0.772,-4.636 2.548,-4.314c2.783,0.276 6.684,1.604 9.436,2.652c2.675,1.01 2.432,1.917 3.004,3.758c1.166,3.788 2.124,9.493 2.753,9.977l34.763,34.574l-20.485,0c-7.092,0 -11.578,0.548 -16.537,-5.302"/><path fill="#1D1D1B" d="m231.167,101.617c-13.63,0 -17.244,15.773 -17.244,26.75c0,11.617 1.485,28.962 16.777,28.962c15.021,0 18.36,-16.606 18.36,-28.595c0,-11.9 -2.97,-27.117 -17.893,-27.117zm28.55,69.37c-2.966,0.83 -6.116,1.013 -9.176,1.013c-6.678,0 -17.06,-6.18 -22.065,-10.332c-18.815,0 -24.476,-16.05 -24.476,-32.011c0,-17.435 11.219,-32.657 29.575,-32.657c18.914,0 25.4,13.471 25.4,30.542c0,14.014 -5.932,28.775 -20.765,32.465c4.45,3.04 14.833,9.593 20.584,9.593c0.18,0 1.017,0 1.206,-0.09l-0.283,1.478l0,-0.001zm38.075,-9.824l-0.466,-7.786c-3.14,5.842 -10.064,8.623 -16.44,8.623c-9.056,0 -10.625,-7.048 -10.625,-14.65l0,-25.676c0,-2.592 -3.14,-3.335 -5.175,-3.335l-0.086,-1.575c4.615,-0.373 9.144,-1.3 13.764,-1.764l0,33.557c0,4.446 1.475,8.344 6.556,8.344c5.265,0 11.822,-4.915 11.822,-10.478l0,-25.023c0,-2.043 -2.493,-2.975 -4.153,-3.06l0,-1.576c4.247,-0.468 8.315,-1.39 12.562,-1.764l0,38.282c0,3.988 1.386,5.937 5.449,6.027l0,1.854l-13.208,0zm43.606,-20.911c-1.585,-0.463 -3.165,-0.557 -4.745,-0.557c-6.791,0 -11.722,2.874 -11.722,10.182c0,5.642 4.186,8.233 9.396,8.233c2.416,0 4.84,-0.368 7.071,-1.293l0,-16.565zm10.602,19.615c-6.042,1.203 -12.187,2.133 -18.323,2.133c-8.746,0 -17.677,-1.945 -17.677,-12.495c0,-10.358 9.767,-13.695 18.698,-13.695c2.235,0 4.47,0.188 6.7,0.745l0,-7.123c0,-5.826 -1.49,-10.547 -8.376,-10.547c-4.93,0 -9.116,3.98 -10.511,8.426c-1.675,-1.208 -3.906,-3.517 -3.906,-5.744c0,-4.532 11.162,-6.567 14.603,-6.567c9.77,0 16.561,2.035 16.561,13.142l0,24.974c0,2.129 0.186,4.716 2.231,5.92l0,0.83l0,0.001zm25.344,1.833c-2.255,0.93 -4.88,1.3 -7.322,1.3c-8.917,0 -9.76,-3.44 -9.76,-11.16l0,-49.096c0,-3.345 -1.781,-5.489 -5.262,-5.489l0,-1.58c4.697,-0.37 9.295,-1.3 13.992,-1.675l0,57.84c0,6.14 3.28,7.72 9.008,7.44l-0.656,2.42zm16.369,-56.02c-2.954,0 -5.714,-2.39 -5.714,-5.34c0,-2.855 2.76,-5.34 5.714,-5.34c2.858,0 5.715,2.212 5.715,5.161c0,2.94 -2.668,5.52 -5.715,5.52l0,-0.001zm10.287,55.32l-20,0l0,-1.658c2.857,-0.366 5.617,-1.47 5.617,-4.692l0,-31.295c0,-3.589 -2.57,-4.045 -5.617,-4.416l0,-1.845l14.383,-2.02l0,39.576c0,3.038 2.76,4.509 5.617,4.692l0,1.658zm32.442,-34.437c-0.65,-4.16 -3.903,-7.677 -8.366,-7.677c-9.016,0 -10.875,11.652 -10.875,18.502c0,8.23 2.789,20.448 13.105,20.448c2.793,0 5.766,-0.094 8.46,-1.298c-0.185,1.392 -0.555,3.149 -1.67,4.164c-1.024,0.835 -6.79,1.298 -8.366,1.298c-14.782,0 -20.73,-10.269 -20.73,-23.875c0,-11.93 7.897,-23.125 20.631,-23.125c4.188,0 12.369,0.368 12.369,6.105c0,2.592 -2.419,4.532 -4.558,5.458m28.577,-7.685c-9.476,0 -11.917,11.266 -11.917,18.65c0,7.015 0.66,20.5 10.601,20.5c10.783,0 12.099,-12.467 12.099,-20.5c0,-7.205 -1.03,-18.65 -10.783,-18.65m-2.723,43.122c-14.353,0 -18.296,-11.728 -18.296,-23.827c0,-13.198 8.916,-23.173 22.613,-23.173c13.692,0 18.387,9.513 18.387,21.698c0,13.946 -7.509,25.302 -22.704,25.302m53.622,-36.825c-0.857,-1.926 -3.512,-3.942 -5.792,-3.942c-4.935,0 -7.59,5.593 -7.59,9.709l0,23.46c0,2.75 2.848,4.765 5.502,4.858l0,1.74l-19.946,0l0,-1.557c2.659,-0.365 5.608,-2.105 5.608,-5.041l0,-30.513c0,-3.852 -2.286,-4.582 -5.7,-5.223l0,-1.65l13.49,-1.834l0.475,7.973c2.281,-4.858 7.59,-8.155 13.096,-8.155c1.428,0 4.939,0.276 4.939,2.202c0,2.656 -2.188,6.233 -4.082,7.973"/><g transform="translate(524 115)"><mask id="b"><use xmlns:xlink="http://www.w3.org/1999/xlink" xlink:href="#a"/></mask><path fill="#1D1D1B" d="m25.774,4.897c-6.227,0 -11.705,5.737 -11.705,11.646l0,24.034c2.227,1.37 4.92,1.643 7.525,1.643c10.866,0 12.818,-11.565 12.818,-19.94c0,-5.825 -0.374,-17.383 -8.638,-17.383m-4.554,41.603c-2.412,0 -4.924,-0.363 -7.056,-1.459l0,10.47c0,2.731 2.786,4.19 5.289,4.37l-0.086,1.366l-19.135,0l0,-1.454c2.597,0 5.289,-1.825 5.289,-4.552l0,-44.881c0,-3.28 -1.669,-6.377 -5.29,-6.466l0,-1.364l13.281,-2.092c0.09,2.912 0.279,5.918 0.279,8.919c2.045,-6.28 9.381,-8.919 15.509,-8.919c11.704,0 14.211,10.744 14.211,20.114c0,13.656 -6.966,25.947 -22.291,25.947" mask="url(#b)"/></g></g></svg>