<svg  id="fndm-ugui5oyc4g" viewBox="0.00009033549576997757 0.0000026226043701171875 211.99964904785156 117.9999771118164" xmlns="http://www.w3.org/2000/svg">
   <path d="m82.394,65.365c10.381,3.727 19.154,10.255 28.364,16.085c12.877,8.153 27.21,11.925 42.35,11.639c13.971,-0.264 24.565,-6.945 30.71,-19.677c5.85,-12.123 4.883,-24.129 -3.167,-34.95c-6.493,-8.725 -15.453,-13.457 -26.503,-13.549c-7.483,-0.062 -14.97,0.129 -22.447,-0.078c-2.774,-0.076 -3.305,0.83 -3.278,3.43c0.137,12.578 0.075,25.16 0.056,37.742c-0.01,6.765 -4.934,9.701 -10.698,6.167c-4.824,-2.957 -9.377,-6.361 -14.096,-9.496c-0.995,-0.662 -1.019,-1.499 -1.019,-2.48c0.01,-17.741 -0.026,-35.485 0.038,-53.226c0.016,-4.328 2.539,-6.688 6.903,-6.695c15.82,-0.028 31.677,-0.698 47.453,0.153c22.939,1.238 39.897,12.8 49.552,33.774c15.465,33.589 -3.782,73.163 -39.612,81.937c-14.117,3.457 -28.243,1.662 -42.148,-1.867c-12.23,-3.104 -23.46,-8.437 -33.844,-15.658c-13.556,-9.425 -28.675,-14.042 -45.12,-14.343c-5.022,-0.093 -7.34,-2.462 -7.376,-7.622c-0.024,-3.55 -0.012,-7.097 0.01,-10.645c0.032,-5.36 2.214,-7.564 7.566,-7.68c11.86,-0.257 21.073,-10.712 19.113,-21.69c-1.234,-6.925 -6.873,-11.688 -14.006,-11.73c-7.483,-0.045 -14.97,0.103 -22.449,-0.062c-2.466,-0.054 -2.968,0.73 -2.96,3.084c0.086,26.883 0.051,53.766 0.058,80.648c0,5.769 -2.139,7.936 -7.925,7.959c-3.634,0.014 -7.271,0.087 -10.904,0.01c-4.492,-0.095 -6.997,-2.549 -7,-7.04c-0.028,-34.087 -0.015,-68.174 0.026,-102.26c0.008,-4.553 2.482,-6.962 6.976,-6.969c15.396,-0.027 30.79,-0.141 46.183,0.025c19.442,0.209 36.48,17.527 36.784,37.123c0.183,11.97 -0.182,13.33 -7.59,27.94" fill="#2C7650"/>
  </svg>