<svg  id="fndm-9uovirxwqe" viewBox="72.41200256347656 369.008056640625 450.45098876953125 103.87405395507812" xmlns="http://www.w3.org/2000/svg">
   <g xmlns="http://www.w3.org/2000/svg" fill-rule="evenodd" fill="#00385f">
    <path d="m474.263,370.107c27.839,0 48.6,22.075 48.6,45.525c0,14.167 -7.579,25.392 -19.715,32.06l-10.756,-16.315a37.52,37.52 0 0 0 5.957,-20.335c0,-20.955 -17.139,-37.942 -38.282,-37.942c-2.041,0 -4.045,0.16 -6,0.465c6.184,-2.226 13.014,-3.458 20.196,-3.458z"/>
    <path d="m453.203,424.644c3.69,17.135 19.048,29.986 37.437,29.986a38.335,38.335 0 0 0 28.78,-12.926c-8.144,16.393 -25.167,27.796 -44.373,27.796c-8.873,0 -18.17,-2.308 -25.65,-7.578c-12.643,-8.91 -18.663,-23.844 -11.492,-40.554l15.298,3.276z"/>
    <path d="m460.505,377.386c11.662,0 21.994,6.894 28.38,17.504l-5.513,5.266a38.425,38.425 0 0 0 -15.611,-3.289c-21.143,0 -38.282,16.987 -38.282,37.942c0,2.14 0.181,4.237 0.525,6.28c-2.937,-6.224 -4.616,-13.432 -4.616,-21.117c0,-23.52 15.723,-42.586 35.117,-42.586zm-56.24,91.924l-24.355,0l0,-51.82c0,-13.925 1.31,-29.103 -15.984,-29.103c-16.016,0 -18.632,16.014 -18.632,29.494l0,51.43l-24.42,0l0,-55.076c0,-19.174 -8.284,-26.146 -16.81,-25.802c-9.04,0.365 -18.354,9.165 -18.354,27.986l0,52.893l-24.125,0l0,-97.769l22.435,0l0,15.48l0.39,0c9.881,-16.574 31.984,-24.12 48.285,-12.188c5.06,3.703 8.506,8.603 10.331,14.665c7.268,-13.492 15.392,-20.238 29.796,-20.238c21.51,0 31.442,13.265 31.442,39.792l0.001,60.256zm-170.255,0l-22.755,0l0,-15.48l-0.39,0c-17.147,32.372 -65.996,22.887 -65.996,-23.855l0,-58.433l25.633,0l0,56.152c0,38.163 39.794,30.128 39.794,-2.598l0,-53.554l23.714,0l0,97.768zm-104.859,-73.713c-2.672,-2.085 -6.55,-3.128 -11.57,-3.128c-17.116,0 -20.449,18.801 -20.449,33.013l0,43.829l-24.72,0l0,-97.769l22.162,0l0,20.14l0.39,0c2.152,-6.876 5.476,-12.22 9.973,-16.099c4.497,-3.845 9.484,-5.768 15.024,-5.768c4.008,0 7.072,0.62 9.19,1.825l0,23.957z"/>
   </g>
  </svg>