<svg xmlns="http://www.w3.org/2000/svg" fill-rule="evenodd" clip-rule="evenodd" image-rendering="optimizeQuality" shape-rendering="geometricPrecision" text-rendering="geometricPrecision" viewBox="-2 1.0099999904632568 6599.990234375 3299.989990234375"><g><rect width="6599.99" height="3299.99" x="-2" y="1.01" fill="none"/><g><g><path fill="#82008f" fill-rule="nonzero" d="M2828.83 542.56l-373.66 170.1 0 187.87 373.66 -116.42 0 -241.55zm2722.31 430.83c-116.43,0 -210.54,40.08 -300.12,125.13l0 -100.73 -261.77 0 0 1067.66 268.74 0 0 -566.08c0,-147.79 64.83,-270.83 246.09,-270.83 168.01,0 215.06,123.04 215.06,270.83l0 566.08 266.31 0 0 -649.04c0,-243.99 -145.35,-443.02 -434.31,-443.02l0 0zm-1477.58 429.78c37.99,-132.11 138.73,-194.85 261.78,-194.85 127.57,0 221.68,55.77 255.15,194.85l-516.93 0 0 0zm259.68 -429.78c-317.89,0 -535.05,248.17 -535.05,552.82 0,306.74 219.25,552.83 535.05,552.83 255.15,0 429.79,-141.17 497.06,-346.83l-277.81 0c-37.99,64.84 -98.29,100.74 -203.56,100.74 -158.95,0 -250.62,-80.87 -277.46,-217.16l787.76 0c2.44,-26.84 4.53,-47.05 4.53,-73.89 0,-369.48 -237.37,-568.51 -530.52,-568.51zm-1034.19 1537.52c-143.26,0 -239.47,-104.92 -239.47,-243.99 0,-138.73 96.21,-244 239.47,-244 141.17,0 239.46,105.27 239.46,244 0,139.07 -98.29,243.99 -239.46,243.99zm87.14 -946.7l378.54 -335.67 0 -230.75 -909.06 0 0 248.52 523.9 0 -335.67 293.15 223.77 259.68c-291.05,18.13 -470.21,223.78 -470.21,470.22 0,277.46 226.22,490.08 503.68,490.08 275.36,0 506.12,-212.62 506.12,-490.08 0,-147.8 -40.44,-257.59 -132.11,-364.95l-288.96 -340.2zm-2513.86 -461.16l0 -105.26 -261.78 0 0 1067.66 268.75 0 0 -563.99c0,-147.79 64.83,-261.77 261.77,-261.77l80.52 0 0 -255.15 -58.21 0c-116.42,0 -201.47,33.46 -291.06,118.51l0.01 0zm1589.46 962.39l270.84 0 0 -1105.65 -270.84 67.27 0 1038.38zm-682.84 -246.08c-163.13,0 -277.46,-118.52 -277.46,-293.15 0,-174.63 114.33,-295.58 277.46,-295.58 163.47,0 277.8,120.95 277.8,295.58 0,174.63 -114.32,293.15 -277.8,293.15zm4.53 -845.97c-310.92,0 -550.74,246.08 -550.74,552.82 0,319.99 210.54,552.83 521.81,552.83 105.26,0 223.78,-42.53 308.83,-132.11l0 118.51 261.77 0 0 -563.98c0,-293.14 -228.31,-528.07 -541.67,-528.07z"/></g></g></g></svg>