<svg xmlns="http://www.w3.org/2000/svg" data-id="fndm-2c7k72ppwy" fill-rule="evenodd" clip-rule="evenodd" image-rendering="optimizeQuality" shape-rendering="geometricPrecision" text-rendering="geometricPrecision" viewBox="-0.23999999463558197 0.11999999731779099 780 390"><g><rect width="780" height="390" x="-0.24" y="0.12" fill="none"/><g fill-rule="nonzero"><path fill="#00a89c" d="M647.32 229.68c-0.27,0 -0.55,-0.01 -0.84,-0.04 -4.3,-0.46 -7.43,-4.32 -6.97,-8.63 0.79,-7.48 1.19,-15.11 1.19,-22.68 0,-59.79 -25.35,-117.19 -69.57,-157.5 -3.2,-2.91 -3.43,-7.88 -0.51,-11.08 2.92,-3.2 7.88,-3.43 11.08,-0.51 23.29,21.23 41.65,46.5 54.56,75.11 13.36,29.61 20.13,61.23 20.13,93.98 0,8.12 -0.43,16.31 -1.28,24.33 -0.43,4.03 -3.83,7.02 -7.79,7.02z"/><path fill="#00a89c" d="M550.19 363.05c-2.29,0 -4.56,-1 -6.12,-2.93 -2.71,-3.37 -2.18,-8.31 1.19,-11.03 45.14,-36.37 71.02,-90.45 71.02,-148.35 0,-44.77 -15.84,-88.27 -44.61,-122.49 -2.79,-3.31 -2.36,-8.26 0.96,-11.05 3.31,-2.79 8.26,-2.36 11.05,0.95 31.14,37.04 48.29,84.13 48.29,132.59 0,62.67 -28.02,121.19 -76.86,160.57 -1.45,1.17 -3.19,1.74 -4.92,1.74z"/><path fill="#64b53b" d="M536.23 342.51c-2.28,0 -4.53,-0.98 -6.08,-2.88 -2.74,-3.35 -2.25,-8.29 1.1,-11.03 38.52,-31.54 60.6,-78.14 60.6,-127.86 0,-5.3 -0.25,-10.65 -0.75,-15.89 -0.41,-4.32 2.75,-8.15 7.06,-8.56 4.32,-0.39 8.15,2.75 8.56,7.06 0.55,5.75 0.83,11.59 0.83,17.39 0,54.44 -24.19,105.47 -66.36,140 -1.46,1.19 -3.22,1.77 -4.96,1.77z"/><path fill="#64b53b" d="M567.45 256.34c-0.84,0 -1.69,-0.13 -2.52,-0.41 -4.1,-1.39 -6.31,-5.85 -4.91,-9.95 4.92,-14.53 7.41,-29.75 7.41,-45.24 0,-31.05 -9.89,-60.5 -28.62,-85.16 -2.63,-3.45 -1.95,-8.37 1.49,-10.99 3.46,-2.62 8.38,-1.94 11,1.5 20.82,27.41 31.82,60.14 31.82,94.65 0,17.21 -2.77,34.13 -8.24,50.27 -1.11,3.27 -4.16,5.33 -7.43,5.33z"/><path fill="#a7c111" d="M507 303.37c-2.22,0 -4.42,-0.94 -5.98,-2.77 -2.8,-3.3 -2.4,-8.25 0.9,-11.06 26.11,-22.19 41.09,-54.56 41.09,-88.8 0,-37.07 -17.04,-71.08 -46.76,-93.33 -3.46,-2.59 -4.17,-7.51 -1.58,-10.98 2.6,-3.47 7.52,-4.18 10.98,-1.58 16.11,12.06 29.45,27.87 38.6,45.73 9.59,18.74 14.45,38.98 14.45,60.16 0,38.85 -16.99,75.57 -46.62,100.76 -1.47,1.26 -3.28,1.87 -5.08,1.87z"/><polygon fill="#00594d" points="125.43,158.24 153.38,158.24 153.38,250.97 125.43,250.97"/><path fill="#00594d" d="M196.56 250.97l-29.22 0 0 -57.85c0,-6.62 1.1,-12.18 2.75,-16.68 1.66,-4.49 4.31,-8.11 7.69,-10.82 3.36,-2.73 7.64,-4.61 12.67,-5.73 5.03,-1.13 10.93,-1.65 17.55,-1.65l10.03 0c3.26,0 7.01,0.08 11.27,0.32l-4.26 21.61c-1.06,-0.13 -17.82,0.38 -21.92,1.79 -1.93,0.65 -3.47,1.47 -4.53,2.66 -1.05,1.18 -1.52,2.74 -1.81,4.7 -0.3,1.95 -0.22,4.23 -0.22,6.84l0 54.81z"/><path fill="#00594d" d="M329.73 250.9l0 -60.15c0,-6.5 0.52,-11.98 2.18,-16.42 1.66,-4.44 4.09,-8.05 7.59,-10.83 3.48,-2.77 7.94,-4.76 13.49,-5.95 5.57,-1.17 12.22,-1.78 20.03,-1.78 7.82,0 14.47,0.61 20.05,1.78 5.56,1.19 10.08,3.18 13.57,5.95 3.48,2.78 6.32,6.39 7.97,10.83 1.66,4.44 2.76,9.92 2.76,16.42l0 60.15 -29.22 0 0 -58.02c0,-2.48 0.05,-4.62 -0.3,-6.39 -0.36,-1.77 -0.96,-3.24 -2.03,-4.44 -1.05,-1.18 -2.58,-2.03 -4.63,-2.58 -2.09,-0.53 -4.8,-0.79 -8.23,-0.79 -3.44,0 -6.18,0.26 -8.25,0.79 -2.07,0.55 -3.63,1.4 -4.7,2.58 -1.05,1.2 -1.61,2.67 -1.97,4.44 -0.35,1.77 -0.37,3.91 -0.37,6.39l0 58.02 -27.94 0z"/><path fill="#00594d" d="M305.2 166.06c-7.04,-5.15 -17.89,-7.73 -32.67,-7.73 -6.88,0 -12.9,0.01 -18.12,0.08 -5.21,0.06 -9.53,0.12 -12.96,0.24l-4.07 21.79c2.6,-0.11 5.44,-0.29 8.5,-0.34 3.08,-0.07 6.14,-0.27 9.15,-0.27l8.61 0 7.11 0c3.91,0 7.06,0.46 9.37,1.07 2.31,0.6 4.15,1.67 5.4,2.91 1.24,1.24 2.19,2.76 2.62,4.52 0.4,1.79 0.86,3.92 0.86,6.4l0 1.95c-2.53,-1.3 -5.59,-2.42 -9.2,-3.38 -3.61,-0.93 -8.62,-1.4 -14.54,-1.4 -12.19,0 -21.23,2.21 -27.13,6.65 -5.92,4.45 -8.83,11.56 -8.83,21.39l0 3.72c0,4.39 0.54,8.22 1.73,11.65 1.18,3.44 3.08,6.3 5.81,8.72 2.72,2.43 6.29,4.12 10.74,5.37 4.44,1.23 9.97,1.57 16.6,1.57l25.66 0c16.53,0 25.84,-8.75 25.84,-22.7l0 -36.37c0,-12.08 -3.46,-20.7 -10.48,-25.84zm-27.03 65.86l0 0 -9.09 0c-4.96,0 -8.6,-0.81 -10.49,-2.36 -1.89,-1.53 -3.03,-4.05 -3.03,-7.48l0 -1.25c0,-3.67 1.17,-6.52 3.13,-8.01 1.95,-1.47 5.9,-2.49 11.46,-2.49l2.49 0c6.27,0 10.08,1.14 12.04,2.84 1.96,1.73 2.63,6.29 2.63,8.37 0,6.81 -3.6,10.38 -9.14,10.38z"/><path fill="#00594d" d="M155.67 128.11c0,-8.99 -7.28,-16.27 -16.27,-16.27 -8.98,0 -16.26,7.28 -16.26,16.27 0,8.97 7.28,16.26 16.26,16.26 8.99,0 16.27,-7.29 16.27,-16.26z"/><polygon fill="#00594d" points="432.83,158.24 460.78,158.24 460.78,250.97 432.83,250.97"/><path fill="#00594d" d="M463.07 128.11c0,-8.99 -7.28,-16.27 -16.27,-16.27 -8.98,0 -16.26,7.28 -16.26,16.27 0,8.97 7.28,16.26 16.26,16.26 8.99,0 16.27,-7.29 16.27,-16.26z"/></g></g></svg>