<svg xmlns="http://www.w3.org/2000/svg" data-id="fndm-xzo1xc5i07" fill-rule="evenodd" clip-rule="evenodd" image-rendering="optimizeQuality" shape-rendering="geometricPrecision" text-rendering="geometricPrecision" viewBox="-0.7400000095367432 0.9200000166893005 781 390.5"><g><rect width="781" height="390.5" x="-0.74" y="0.92" fill="none"/><path fill="#0539ac" d="M99.88 226.6l16.39 0 19.06 -43.47 1.34 0c0.14,1.74 11.88,30.68 13.56,34.92 0.92,2.32 2.13,4.38 3.96,5.74 4.92,3.67 8.89,2.81 16.92,2.81 -0.1,-1.16 -2.73,-6.94 -3.35,-8.35 -7.17,-16.35 -14.54,-34.18 -21.73,-50.16l-3.68 -8.37 -13.37 0 -3.54 8.17c-1.22,2.94 -2.47,5.44 -3.68,8.36 -5.62,13.52 -12.69,28.25 -18.34,41.85 -0.6,1.45 -1.26,2.8 -1.85,4.16 -0.47,1.07 -1.59,3.22 -1.69,4.34zm77.92 0l15.05 0 0 -37.12 1.7 -0.02 7.91 9.14c5.57,5.98 13.86,16.78 19.9,23.57 0.81,0.91 1.16,1.45 2,2.34 1.2,1.27 1.2,2.09 2.26,2.09l14.05 0 0 -66.88 -15.05 0 0 37.12 -1.89 -0.03 -1.71 -2.06 -27.91 -32.95c-0.66,-0.74 -1.19,-2.08 -2.27,-2.08l-14.04 0 0 66.88zm224.38 0l15.05 0 0 -37.12 1.7 -0.02 7.91 9.14c5.57,5.98 13.87,16.78 19.9,23.57 0.81,0.91 1.17,1.45 2.01,2.34 1.19,1.27 1.19,2.09 2.26,2.09l14.04 0 0 -66.88 -15.05 0 0 37.12 -1.88 -0.03 -1.71 -2.06 -27.92 -32.95c-0.65,-0.74 -1.19,-2.08 -2.26,-2.08l-14.05 0 0 66.88zm-42.47 -11.7c-14.6,0 -21.06,-9.69 -21.06,-23.41 0,-9.22 8.57,-19.4 19.39,-19.4 20.55,0 27.1,29.96 9.27,40.37 -1.94,1.13 -4.73,2.44 -7.6,2.44zm-38.12 -22.41c0,14.86 7.92,28.16 22.02,33.83 14.11,5.67 30.05,2.61 40.26,-7.66 18.78,-18.88 11.85,-47.04 -9.89,-57.16 -24.66,-11.48 -52.39,6.42 -52.39,30.99zm260.56 22.41c-14.6,0 -21.07,-9.69 -21.07,-23.41 0,-9.22 8.58,-19.4 19.4,-19.4 20.55,0 27.09,29.96 9.26,40.37 -1.94,1.13 -4.72,2.44 -7.59,2.44zm-38.12 -22.41c0,14.86 7.91,28.16 22.02,33.83 14.1,5.67 30.04,2.61 40.26,-7.66 18.78,-18.88 11.84,-47.04 -9.89,-57.16 -24.66,-11.48 -52.39,6.42 -52.39,30.99zm-261.56 19.06l-15.05 0 0 -36.78c9.14,0 20.65,-1.22 26.34,4.42 4.53,4.5 6.1,7.92 6.1,14.97 0,9.49 -7.47,17.39 -17.39,17.39zm-30.1 15.05l29.43 0c12.2,0 21.95,-5.24 27.95,-13.18 4.52,-5.99 6.16,-13.59 6.16,-21.6 0,-8.49 -4.31,-18.22 -10.29,-23.49 -5.71,-5.03 -14.53,-8.61 -25.16,-8.61l-28.09 0 0 66.88zm-174.56 -43.81l0 3.01c0,4.6 -4.63,7.36 -9.36,7.36l-31.1 0 0 33.11 15.72 0 0 -19.06 9.03 0 2.9 4.11 3.04 3.99c1.08,1.31 2.1,2.64 3.09,3.93 11.77,15.38 9.9,15.39 29.09,15.39 1.45,0 0.74,-0.75 0.35,-1.28 -0.49,-0.65 -0.9,-1.13 -1.35,-1.73l-13.24 -17.53c-0.94,-1.26 -1.62,-2.25 -2.59,-3.44 -0.84,-1.03 -2.23,-2.5 -2.57,-3.78 2.65,-0.7 8.33,-5.68 9.84,-7.88 3.71,-5.41 4.54,-8.37 4.54,-15.53 0,-11.62 -10.15,-23.81 -23.07,-23.74 -15.6,0.08 -31.22,0 -46.82,0 2.26,3.37 7.22,10.33 10.76,12.65 0.83,0.55 2.06,1.2 3.08,1.6 2.54,1 5.11,1.14 8.57,1.13 6.24,0 12.48,0.02 18.72,0 5.49,-0.02 11.37,1.76 11.37,7.69zm548.09 43.81l15.38 0 0 -51.16 20.4 0c9.94,0 11.58,17.48 -1,18.06 -5.53,0.26 -11.78,0 -17.39,0 0.32,1.2 1.07,1.88 1.81,2.86l17.77 24.37c1.34,1.79 2.97,3.27 4.96,4.4 4.13,2.33 10.94,1.81 17.26,1.81 -0.11,-1.24 -0.87,-1.85 -1.58,-2.78l-12.8 -17.62c3.12,-0.73 7.8,-5.36 9.6,-7.78 11.6,-15.55 -0.82,-39.04 -21.64,-39.04l-32.77 0 0 66.88zm103.66 -33.44l-20.06 0 0 -18.06 19.39 0c8.29,0 11.8,9.82 6.62,15.31 -1.2,1.27 -3.61,2.75 -5.95,2.75zm-34.11 -32.77l0 66.21 15.38 0 0 -18.06 19.74 0c17.65,0 29,-18.89 21.07,-35.12 -5.2,-10.64 -15.06,-14.03 -26.09,-14.03l-30.09 0 -0.01 1zm-220.7 31.43c0,28.18 29.06,46.06 53.73,33.67 3.84,-1.93 9.29,-5.32 11.48,-8.59l-10.7 -9.69c-5.51,3.68 -9.71,7.02 -17.73,7.02 -11.02,0 -19.62,-10.2 -19.2,-20.98 0.78,-20.45 21.68,-26.58 35.15,-15.04 0.78,0.66 0.95,1.02 1.78,1.57l10.7 -10.03c-0.79,-1.18 -1.31,-1.42 -2.39,-2.29 -8.96,-7.2 -14.71,-9.75 -27.71,-9.75 -17.33,0 -35.11,16.46 -35.11,34.11z"/></g></svg>