<svg  id="fndm-qj7aw9tusv" viewBox="0.2199999988079071 0.8606972694396973 1878.22509765625 272.1434631347656" xmlns="http://www.w3.org/2000/svg">
   <path d="m0.22,134.08c34.57,-79.29 122.31,-137.55 202.7,-131.78c-25.36,11.33 -47.05,22.53 -66.24,38.14c-60.5,49.22 -75.69,134.53 -32.66,199c24.42,36.54 76.46,28.13 95.11,-3.46c8.73,-14.8 3.42,-28.72 -4.34,-42.07c-10,-17.13 -22.85,-32.33 -37,-45.76c-37.66,-35.82 -27.83,-97.67 18,-124.88c15,-8.86 31.94,-12.11 48.49,-17c25.89,-7.65 49.84,-6.2 74.64,-1.72c40.59,7.33 73.42,29 101.26,58.47c28.51,30.21 27.43,83.1 -1.85,122.09c-26.32,35 -62.24,56.31 -102.57,71.17a298.3,298.3 0 0 1 -63.81,15.7c-4.12,0.55 -6.68,0.75 -9.16,-3.88c36.06,-14 68.08,-34.17 90.81,-66.34c35.76,-50.63 36.41,-104.08 10,-158.55c-9.26,-19.09 -24.43,-33 -46.88,-33.95c-22.79,-0.93 -42.6,6.94 -53.8,28.24c-11.84,22.52 2.86,40.11 14.3,56.69c11.44,16.58 26.31,31 39.16,46.71c17.91,22 13.24,65.82 -9.48,90.81c-28.13,30.95 -65.66,41.05 -104.92,41.29c-49.79,0.31 -94.29,-16.88 -131,-52c-15.89,-15.2 -24.24,-34.37 -30.76,-54.7l0,-32.22zm610.67,-58.1c17.24,0 34.51,-0.55 51.73,0.16c18.08,0.74 30.68,10.44 36.94,27.3c6,16.15 -1.27,29.37 -12.43,40c-5.78,5.48 -7.62,8.39 -2.51,15.42c6,8.26 2.94,18.4 2.3,27.8c-0.31,4.71 -3.48,10.64 -1.63,13.88c13.72,23.85 -4.6,18.42 -16.62,18.83c-3.57,0.12 -7.22,-0.45 -10.71,0.1c-13.22,2.09 -17.5,-3.16 -17.5,-16.56c0,-38 -0.51,-37.45 -39.59,-36.92c-12,0.17 -14.28,6.19 -14.93,15.43c-0.12,1.71 0.78,3.49 0.74,5.22c-0.84,30.49 -10.82,38.13 -41.24,32.94c-7.19,-1.23 -6.61,-4.36 -5.88,-9.64c5.76,-41.2 11.51,-82.41 16.74,-123.68c1.27,-10 6,-12.32 15.29,-11.78c13.06,0.76 26.19,0.19 39.3,0.19l0,1.31zm-15.57,46.73c-0.8,6.85 -1.87,12 6.81,11.87a230.15,230.15 0 0 1 33.08,2.13c8,1.07 18.3,-5.19 20,-16.18c1.93,-12.7 -8.52,-12.41 -16.36,-13.34c-8.2,-1 -16.71,0.43 -24.84,-0.82c-14.63,-2.24 -19.27,4.75 -18.69,16.35l0,-0.01zm587.9,96.66c-28,0 -29,-1.06 -26.59,-28.46c2.11,-24.45 2.08,-24.48 -21,-24.61c-29.29,-0.15 -28.91,-0.08 -34.36,28.36c-1.52,7.9 1.74,20.41 -5.48,22.87c-10.72,3.64 -23.41,1.66 -35.27,1.63c-6.38,0 -5.42,-4.91 -4.85,-9.06c5.86,-42.39 11.81,-84.77 17.55,-127.18c0.74,-5.5 2.32,-8.55 8.68,-8.35c32.71,1 65.46,-1.41 98.17,1.5c18.09,1.6 28.43,13.71 35.34,27.64c7.5,15.12 -2.62,28.13 -12.05,39.06c-5.24,6.07 -8.49,9.13 -2.4,17c7.4,9.54 -1.91,21.21 1.15,31.9c0.6,2.08 -1.6,5.25 -0.68,6.93c14.81,27.31 -7.08,19.62 -18.21,20.77zm-35.27,-82c7.31,-4.93 20.84,-2.26 22.91,-16.12c2.33,-15.52 -10.8,-12.84 -19.11,-14.29c-7.5,-1.3 -15.52,0.55 -23.07,-0.62c-17.62,-2.72 -17.48,10.09 -17.87,20.73c-0.51,14.1 11,5.36 16.89,7.19c5.89,1.83 12.94,-1.69 20.25,3.07l0,0.04zm-363.86,82c-19.06,0 -38.15,-0.59 -57.18,0.23c-10.38,0.44 -12.21,-3.7 -10.9,-12.63c6,-41.16 12.11,-82.32 17.38,-123.58c1.11,-8.68 5.38,-8.82 11.8,-8.8c36.33,0.13 72.68,-0.13 109,0.28c5.06,0.06 15.84,-4.63 13.14,7.46c-2.07,9.22 6,25.19 -13.26,25.46c-22,0.3 -44.09,0.16 -66.13,0c-8,0 -15.05,-1 -15.26,11.2c-0.25,14.29 9.82,7.36 14.72,7.61c17.82,0.94 35.73,0.05 53.59,0.6c4.46,0.14 14.46,-4.54 11.76,6.66c-2.23,9.21 5.79,25 -12.9,25.55c-20.24,0.59 -40.61,1.44 -60.72,-0.27c-16.29,-1.38 -13.23,10.31 -14.63,18.25c-2.11,12 8.1,7.29 13.13,7.41c22,0.52 44.09,-0.07 66.12,0.47c4.46,0.11 15.69,-4.1 11.92,6c-3.46,9.35 9.46,27.52 -12.61,28c-19.64,0.4 -39.32,0.1 -58.97,0.1zm641.37,-46.87c19.83,-10.35 23.15,12.95 36.07,16.85c9.56,2.89 37.54,0.95 43.8,-6.34c6.1,-7.1 3.58,-12.07 -4.88,-14.05c-15,-3.51 -30.14,-6.62 -45.24,-9.79c-27.06,-5.67 -39.33,-15.55 -40.94,-33.12c-1.84,-19.95 12,-40.8 34.92,-48.63c32.61,-11.15 64.91,-10.72 94.24,10c10,7 12.21,18.51 11.47,30.44c-0.28,4.59 -2.66,6.06 -6.88,6c-10.14,-0.11 -20.28,0 -30.42,-0.12c-3,0 -4.66,-1.27 -6.36,-4.5c-9,-17 -31.69,-22.08 -47.67,-11c-7.83,5.43 -9.73,10.48 1,15.13c6.85,3 13.09,6.08 21.21,5.83c8.12,-0.25 16.39,2.48 24.54,4.14c28.61,5.82 41.83,16.43 43.14,34.45c1.4,19.24 -13,39.47 -36.42,47.71a127.31,127.31 0 0 1 -82.45,1.28a48.18,48.18 0 0 1 -19.72,-11.8c-8.61,-8.56 -14.56,-19.59 -10.43,-30.47c3.3,-8.66 14.54,2.29 21.02,-2.01zm-152.66,-97.85c22.77,0 22.88,0 19.81,21.66c-2.76,19.44 -5.49,38.88 -8.77,58.23c-4.37,25.79 -1.56,31.95 17.07,34.79c21.25,3.24 34.55,-6.33 37.74,-27.71c3.43,-22.93 7.92,-45.86 9.13,-68.93c0.86,-16.38 7.61,-19 21.92,-18.36c26.18,1.11 26.33,0.32 23,26.25c-2.43,18.88 -5.28,37.72 -7.81,56.59c-7.3,54.39 -38,64.53 -87,65.62c-7.07,0.16 -14.24,-1.32 -21.28,-2.55c-28.06,-4.9 -42.51,-23.24 -39.62,-51.75c2.41,-23.67 6.27,-47.18 9.19,-70.8c2.83,-23.02 2.66,-23.04 26.62,-23.04zm335.99,0.01c27.28,0 27,-0.05 23,24.51c-3.43,20.55 -6.56,41.16 -9.14,61.82c-1.58,12.71 -2.56,25.27 15.66,28.12c18.83,3 33.54,-2.43 37.16,-18.33c4.87,-21.36 7.87,-43.21 10.55,-65c4,-32.14 10.65,-37.27 42.27,-31.33c5.66,1.06 7,3.28 6.15,8.14c-5.38,32.74 -6.68,66.12 -16.1,98.24c-5.77,19.7 -19.33,30.35 -38.06,36.22a127.79,127.79 0 0 1 -68.63,2.17c-26.11,-6.17 -38.78,-26.32 -35.09,-53.59c3,-22.38 6.68,-44.68 9.16,-67.11c1.74,-16.11 3.62,-30.71 23.07,-23.86zm-570.95,89.23c-12.53,42.12 -53,65.29 -99,58.1c-40.7,-6.35 -62.11,-28.82 -60.75,-63.73c1.65,-42 33.71,-83.78 69.09,-82.75c19.46,0.56 38.93,-8 58.79,0.87c17.91,8 32.07,18 36.57,37.93c2,8.84 0.64,15 -11.15,13.92c-14.82,-1.36 -29.94,4.12 -40.08,-15.38c-6.22,-12 -23.64,-9.37 -36.34,-5.43c-22.27,6.91 -38.2,42.35 -29.68,63.94c7.06,17.89 42.26,26.66 55,9.77c16.45,-21.71 35.97,-17.4 57.55,-17.24zm773.26,55.48c-17.86,0 -35.73,-0.12 -53.6,0.06c-6.58,0.06 -11.87,0 -10.55,-9.28a14460.42,14460.42 0 0 0 17.68,-128.92c0.74,-5.53 3.76,-6.08 8.38,-6.69c35.52,-4.74 39.68,0.42 32.57,35.1c-4.43,21.61 -5.36,43.92 -8.89,65.75c-1.48,9.15 2.46,9.77 9.39,9.7c20.85,-0.19 41.7,0.25 62.53,-0.2c8.68,-0.19 10.05,2 9.81,11.1c-0.48,18.51 -6.44,26.65 -26.28,23.75c-13.4,-1.96 -27.34,-0.37 -41.04,-0.37z" fill="#172A5B"/>
  </svg>