<svg  id="fndm-7z4yfhsds5" viewBox="0.5522212982177734 0.05481719970703125 1208.3377685546875 519.9052734375" xmlns="http://www.w3.org/2000/svg">
   <g xmlns="http://www.w3.org/2000/svg" fill="none">
    <path d="m215.16,519.96c-62.62,-43.56 -124.86,-87.71 -188.11,-130.33c-18.91,-12.74 -27.13,-26.94 -26.46,-50.17c1.58,-54.72 1,-109.52 0.2,-164.27c-0.29,-18.34 5.11,-30.84 20.87,-41.32c60.41,-40.23 120.03,-81.55 180.03,-122.43c14.29,-9.74 30,-19.45 43.25,-0.77s-0.67,30.28 -15.14,40.14c-51.54,35.13 -102.61,71 -154.9,104.94c-19,12.35 -24,27 -27.87,49.12c-17.89,103.27 16.82,176.09 114.25,218.09c14.63,6.3 27.18,17.42 47,30.44c0,-48.84 0.75,-91.41 -0.32,-133.94c-0.52,-20.94 5.14,-36.46 23.23,-48.53c59.28,-39.57 117.61,-80.57 177,-120c29.46,-19.53 44.8,-11 45.24,24.89c0.78,62.39 0.24,124.81 0.14,187.21c0,17.18 -0.45,35.65 -24.34,34.79c-23.39,-0.84 -23,-19.31 -23,-36.41l0,-151.08c-51.1,35.23 -97.77,66.24 -142.89,99.36c-10.47,7.68 -4.86,24.06 -5.57,36.58c-3.26,57.94 8.5,116.92 -12,173.66l-30.61,0.03z" fill="#98C941"/>
    <path d="m1208.89,389.96c-62.41,3.95 -62.41,3.95 -62.41,-58.71l0,-186.33c0,-60.37 1.91,-62 62.4,-53.08l0.01,298.12zm-191.63,-115c0,-50.83 1.13,-101.69 -0.45,-152.47c-0.86,-27.62 11.64,-34.05 36.43,-35.48c27.86,-1.61 26.92,13.79 26.78,33.14c-0.53,75 0.51,150 -0.81,225c-0.27,15.38 11.67,40.25 -11.67,45c-26.36,5.34 -55.81,7.17 -72.94,-25c-24.45,-45.92 -51,-90.7 -76.76,-135.93c-5,-8.81 -10.36,-17.44 -22.6,-26.11l0,152.29c0,16.69 1.8,33.92 -22.64,36.22c-25.77,2.43 -42.26,1.21 -40.85,-34c3,-74.87 0.3,-150 1.45,-224.93c0.23,-14.66 -11.24,-38 10.3,-42.93c25.27,-5.77 54.9,-7.68 71.69,20.66c24.57,41.49 47.68,83.83 71.46,125.78c7.89,13.92 15.93,27.75 23.91,41.61l6.7,-2.85zm-218.71,114c-73,6.2 -72,5.65 -103.86,-51c-13.72,-24.38 -17,-61.5 -60.61,-56.75c-15.71,1.72 -23,4.82 -21.89,21.72c1.14,17.71 -0.84,35.63 0.5,53.31c1.77,23.28 -0.66,37.31 -31.07,36.56c-27.14,-0.67 -34,-8.76 -33.49,-34.9c1.62,-76.18 1.9,-152.45 -0.12,-228.62c-0.75,-28.37 9.24,-36.83 36,-39.81c43.16,-4.79 85.9,-9.93 128.45,1.83c77.49,21.41 101.62,112.56 42.87,167.49c-14.72,13.77 -15,21.07 -6,36.61c17.1,29.26 31.78,59.96 49.22,93.56zm-150.27,-160.1c56.92,0.14 73,-10.77 72.28,-45.06c-0.7,-31.85 -22.66,-44.13 -68.81,-47.16c-36.67,-2.41 -41.27,14.38 -39.74,44.69c1.46,28.99 -4.78,60.27 36.27,47.53z" fill="#078A96"/>
   </g>
  </svg>