<svg xmlns="http://www.w3.org/2000/svg" fill-rule="evenodd" clip-rule="evenodd" image-rendering="optimizeQuality" shape-rendering="geometricPrecision" text-rendering="geometricPrecision" viewBox="-2 1 6599.990234375 3300"><g><rect width="6599.99" height="3300" x="-2" y="1" fill="#373435"/><g fill="#fefefe" fill-rule="nonzero"><path d="M4826.78 1815.53l0 126.2 236.22 0 -246.62 225.48 0 152.71 471.31 0 0 -145.73 -251.17 0 230.57 -217.7 0 -140.96 -440.31 0zm-270.74 504.39l192.73 0 0 -504.39 -192.73 0 0 504.39zm-273.69 -504.39l0 335.96c0,0 -7.38,48.16 -57.36,48.16 -49.97,0 -57.35,-48.16 -57.35,-48.16l0 -335.96 -185.33 0 0 321.19c0,32.09 6.56,66.17 22.27,94.25 49.96,89.25 166.89,88.95 166.89,88.95l107.05 0c0,0 189.11,0.59 189.11,-183.2l0 -321.19 -185.28 0zm-312.84 349.58l-305.43 0 0 -343.77 -199.29 0 0 489.01 504.72 0 0 -145.24zm0 349.54l-305.43 0 0 343.76 -199.29 0 0 -489 504.72 0 0 145.24zm-1056.56 -349.54l305.43 0 0 -343.77 199.3 0 0 489.01 -504.73 0 0 -145.24zm0 349.54l305.43 0 0 343.76 199.3 0 0 -489 -504.73 0 0 145.24zm-974.77 -772.59l265.9 0 0 -89.38 -265.9 0 0 89.38zm428.92 577.86l-169.1 -504.39 -263.26 0 -169.09 504.39 191.39 0 109.32 -400.92 109.36 400.92 191.38 0zm-1051.23 -149.65l0 126.09c0,0 98.26,23.56 205.05,23.56 0,0 243.74,21.03 235.6,-171.29 0,0 3.59,-70.19 -81.21,-116.6 0,0 -50.62,-27.35 -107.58,-27.35 -118.58,-5.46 -91.12,-87.43 19,-87.43 0,0 66.43,-3.58 134.78,26.76l0 -114.69c0,0 -79.73,-21.17 -157.58,-21.17 0,0 -241.53,-16.14 -255.63,153.91l0 21.34c3.49,22.06 24.68,104.57 148.36,134.58 0,0 63.61,9.8 82.6,9.8 0,0 35.13,3.59 35.13,33.01 0,0 6.62,49.08 -92.08,49.08 0,0 -74.68,11.56 -166.44,-39.6zm1323.42 149.65c179.62,0 272.19,-84.93 272.19,-255.14 0,-170.21 -97.45,-255.14 -272.19,-255.14 -174.75,0 -272.19,83.31 -272.19,255.14 0,171.83 92.56,255.14 272.19,255.14zm0 -399.12c47.82,0 86.58,31.09 86.58,143.98 0,112.89 -38.76,143.98 -86.58,143.98 -47.82,0 -86.58,-35.15 -86.58,-143.98 0,-108.83 38.76,-143.98 86.58,-143.98z"/><path d="M3715.51 1320.49c111.39,36.77 198.53,59.41 329.72,-70.44 58.71,-58.1 94.6,-120.16 128.51,-197.49 37.11,-84.64 67.25,-254.49 41.37,-351.08 -23.68,28.53 -62.77,81.32 -103.45,158.65 -40.7,77.39 -73.39,125.47 -94.59,160.76 -52.52,87.42 -98.91,133.45 -148.81,183.67 -49.97,50.31 -107.9,90.28 -152.75,115.93zm-83.21 -2c-39.53,-13.96 -97.89,-31.39 -131.78,-33.03 -34.3,-1.66 -113.24,-8.48 -104.95,34.85 11.15,58.27 192.95,16.52 236.73,-1.82zm47.78 22.1c-81.45,37.59 -216.24,53.14 -284.98,22.64 -27.39,-12.14 -37.07,-39.52 -37.07,-62.5 0,-35.78 57.83,-58 87.38,-58.77 61.99,-1.63 149.9,27.2 221.73,59.88 100.33,-74.56 176.22,-167.82 250.18,-277.32 85.07,-125.96 173.59,-246.92 284.79,-350.13 -20.83,-48.84 -50.47,-97.19 -87.68,-123.65 -128.21,-91.2 -379.78,-57.22 -504.79,102.45 -92.28,117.87 -158.54,347.97 51.45,347.97 151.88,0 290.88,-192.26 326.04,-303.18 7.2,-22.72 10.85,-34.68 16.2,-34.68 3.73,0 6.59,1.24 8.55,3.7 1.95,2.45 -0.96,21.62 -1.22,26.75 -8.95,175.39 -201.13,342.59 -340.97,338.99 -220.85,-5.67 -212.02,-289.4 -115.75,-413.19 159.67,-205.31 387.73,-214.11 549.15,-112.64 43.29,27.21 88.7,90.93 119.33,148.19 18.83,-14.91 119.03,-96.54 129.04,-96.54 6.96,0 13,7.24 13,13.96 0,4.61 -109.22,92.88 -127.98,112.13 30.14,107.45 13.23,255.24 -13.1,332.16 -21.14,61.78 -54.84,138.35 -96.3,196.27 -149.01,208.21 -266.1,180.41 -447,127.51zm723.62 -781.21l-0.58 -89.51 79.74 0c12.66,0 26.04,15.02 26.04,27.68l0 116.37c0,33.62 -38.81,71.97 -72.43,72.43 -33.65,0.47 -54.47,-33.17 -29.27,-56.16 9.94,-9.09 38.18,9.4 39.04,-18.71 0.57,-18.62 -16.51,-48.91 -42.54,-52.1zm791.83 584.25c14.99,7.34 28.56,16.49 35.5,26.89 15.09,22.59 18.12,54.64 18.12,81.1l0 125.41 -96.96 0 0 -108.11c0,-15.78 -1.29,-48.66 -12.76,-61.14 -10.86,-11.81 -40.79,-13.2 -55.4,-13.2l-165.87 0 0 182.45 -94.11 0 0 -543.53 253.06 0c40.47,0 98.32,3.55 131.78,29.11 32.22,24.61 40.26,66.62 40.26,104.91l0 91.3c0,34.29 -23.75,65.38 -53.62,84.81zm-914.1 -124.2c0,-50.24 7.52,-112.14 45.9,-148.76 38.65,-36.9 104.48,-43.44 155.25,-43.44l63.87 0c50.48,0 117.33,6.13 155.82,42.85 38.17,36.39 45.33,99.51 45.33,149.35l0 171.67c0,50.25 -7.53,112.52 -46.06,149.04 -38.68,36.68 -104.42,43.17 -155.09,43.17l-63.87 0c-50.67,0 -116.57,-6.45 -155.22,-43.18 -38.47,-36.56 -45.93,-98.81 -45.93,-149.03l0 -171.67zm-2575.45 124.2c14.99,7.34 28.56,16.49 35.51,26.89 15.08,22.59 18.11,54.64 18.11,81.1l0 125.41 -96.96 0 0 -108.11c0,-15.78 -1.28,-48.66 -12.76,-61.14 -10.85,-11.81 -40.79,-13.2 -55.4,-13.2l-165.87 0 0 182.45 -94.1 0 0 -543.53 253.05 0c40.47,0 98.32,3.55 131.78,29.11 32.22,24.61 40.26,66.62 40.26,104.91l0 91.3c0,34.29 -23.74,65.38 -53.62,84.81zm240.35 -219.56l0 128.94 269.02 0 0 88.48 -269.02 0 0 145.67 277.5 0 0 89.87 -370.17 0 0 -543.53 370.17 0 0 90.57 -277.5 0zm351.75 452.96l0 -543.53 271.63 0c49.96,0 112.94,6.75 151.04,42.8 37.8,35.76 45.56,95.54 45.56,144.88l0 167.13c0,49.63 -7.85,109.61 -45.76,145.66 -38.04,36.17 -100.85,43.06 -150.84,43.06l-271.63 0zm628.34 -452.96l0 128.94 269.02 0 0 88.48 -269.02 0 0 145.67 277.5 0 0 89.87 -370.17 0 0 -543.53 370.17 0 0 90.57 -277.5 0zm1991.74 0l0 180.64 147.4 0c16.67,0 59.77,-1 73.6,-11.78 11.3,-8.82 13.03,-28.45 13.03,-41.54l0 -74c0,-12.58 -1.51,-33.35 -12.4,-41.97 -13.19,-10.41 -58.24,-11.35 -74.23,-11.35l-147.4 0zm-388.32 -6.97l-31.36 0c-20.66,0 -50.8,0.01 -70.85,5.22 -11.36,2.95 -21.78,7.9 -30.74,15.56 -7.89,6.73 -12.48,15.87 -15.22,25.75 -5.43,19.55 -5.48,50.08 -5.48,70.32l0 143.56c0,19.92 0.03,50.45 5.46,69.67 2.77,9.82 7.39,18.78 15.24,25.47 8.96,7.66 19.38,12.61 30.74,15.56 20.05,5.21 50.19,5.22 70.85,5.22l31.36 0c20.94,0 50.94,-0.03 71.27,-5.23 11.45,-2.93 22.02,-7.86 31.04,-15.56 7.59,-6.46 12.1,-15.14 14.77,-24.63 5.35,-19.05 5.24,-50.73 5.24,-70.5l0 -144.14c0,-20.27 -0.05,-50.86 -5.49,-70.44 -2.73,-9.86 -7.32,-19.01 -15.21,-25.73 -8.81,-7.51 -19.18,-12.25 -30.35,-15.1 -20.03,-5.13 -50.6,-5 -71.27,-5zm-3101.23 6.97l0 180.64 147.4 0c16.67,0 59.77,-1 73.6,-11.78 11.3,-8.82 13.03,-28.45 13.03,-41.54l0 -74c0,-12.58 -1.51,-33.35 -12.4,-41.97 -13.18,-10.41 -58.23,-11.35 -74.23,-11.35l-147.4 0zm964.09 365.88l167.51 0c23.63,0 70.2,-1.98 88.52,-19.67 17.85,-17.25 20.09,-58.34 20.09,-81.27l0 -163.77c0,-22.95 -2.06,-67.67 -19.9,-85.03 -18.2,-17.71 -65.17,-19.63 -88.71,-19.63l-167.51 0 0 369.37z"/></g></g></svg>