<svg xmlns="http://www.w3.org/2000/svg" fill-rule="evenodd" clip-rule="evenodd" image-rendering="optimizeQuality" shape-rendering="geometricPrecision" text-rendering="geometricPrecision" viewBox="-2 1 6599.990234375 3300"><g><rect width="6599.99" height="3300" x="-2" y="1" fill="none"/><g><g><path fill="#01904a" fill-rule="nonzero" d="M765.11 1030.14l-10.32 13.31 -8.52 0.53c-8.22,0.49 -8.63,0.66 -12.3,4.32l-3.7 3.85 -10.7 -0.18 -10.62 -0.18 -2.79 4.91 -2.79 4.91 -2.29 -2.04c-1.92,-1.71 -3.93,-2.25 -11.49,-2.81l-9.31 -0.69 -3.95 -4.72c-2.51,-3.04 -5.93,-5.65 -9.13,-7.17 -8.4,-3.87 -29.75,-11.94 -32.08,-12.11 -4.36,-0.33 -2.39,3.37 8.17,15.07l10.66 11.71 0.21 20.1c0.18,10.94 0.39,21.49 0.56,23.17l0.26 3.27 10.86 0.8 10.95 0.8 -0.94 5.05 -0.87 5.16 -9.81 -0.43 -9.91 -0.42 -1.77 6.86 -1.86 6.95 -17.48 5.7 -17.47 5.8 -25.75 -1.21 -25.75 -1.21 -4.26 -7.01c-4.71,-7.73 -5.52,-11.33 -4.85,-22.01 0.51,-6.95 -0.29,-12.13 -1.84,-12.25 -0.49,-0.02 -3.97,2.27 -7.98,5.12 -6.17,4.57 -10.66,7.29 -11.82,7.2 -0.2,-0.01 -1.06,-1.55 -1.9,-3.48 -1.84,-4.17 -2.59,-4.62 -7,-4.25 -2.45,0.11 -3.58,0.91 -4.49,2.82 -1.16,2.57 -1.26,2.56 -12.85,2.4 -6.42,-0.19 -16.33,-0.61 -22.05,-1.04 -7.18,-0.53 -10.8,-0.39 -11.43,0.33 -0.64,0.64 -2.47,7.21 -4.18,14.66 -2.66,11.12 -3.03,13.56 -1.91,14.33 0.64,0.54 4.39,1.21 8.27,1.5 6.59,0.48 6.98,0.59 6.83,2.66 -0.34,4.71 -1.24,4.93 -13.81,3.51 -14.11,-1.63 -13.59,-2.09 -14.58,11.62l-0.7 9.6 5.95 8.12 5.85 8.11 -0.66 19.83c-0.38,13.36 -0.17,24.01 0.75,32.74l1.31 12.89 -8.5 20.54c-4.71,11.27 -9.43,22.53 -10.48,25.01l-1.89 4.49 -15.28 -1.71 -15.18 -1.71 -7.39 7.92 -7.31 8.02 -18.73 -2.57 -4.86 6.63 -4.96 6.62 -7.66 -0.56c-8.93,-0.66 -8.4,-1.21 -10.09,10.09 -1.84,11.87 -1.72,11.68 -6.67,11.32 -2.33,-0.15 -4.59,0.15 -4.92,0.62 -0.43,0.56 -1.78,9.81 -3.15,20.74 -1.27,10.83 -2.82,20.07 -3.35,20.62 -0.61,0.45 -3.74,0.49 -7.12,0.18l-6.08 -0.85 -1.29 9.64c-0.77,5.26 -1.74,14.64 -2.18,20.81l-0.82 11.26 5.97 5.07 5.97 5.16 -0.51 7.05 -0.52 7.15 7.76 9.92c4.19,5.43 9.63,12.43 12.05,15.36l4.48 5.55 7.56 0.55c8.63,0.64 8.72,0.72 8.13,8.97 -0.55,7.54 -0.17,7.76 16.57,8.11l14.11 0.33 3.93 -4.53c3.41,-3.98 4.73,-4.77 9.89,-5.97 3.27,-0.74 6.03,-1.22 6.22,-1.11 0.19,0.11 -0.19,10.61 -0.7,23.18l-0.98 22.96 86.3 6.36 0.81 -7.23c0.74,-6.15 0.99,-6.91 1.95,-5.37 1.04,1.75 1.33,1.77 6.01,0.44 6.67,-1.97 7.4,-2.6 7.71,-6.81 0.29,-4.01 1.61,-4.8 7.72,-4.35 3.78,0.29 5.04,-1.01 6.31,-6.43 1.39,-5.7 8.15,-11.5 12.26,-10.41 2,0.55 4.7,-0.22 10.75,-3.15 7.17,-3.4 8.76,-3.78 14.09,-3.39 7.18,0.53 14.54,3.83 17.19,7.67l1.84 2.79 -2.9 7.76c-2.45,6.91 -2.9,9.14 -2.97,18.19l-0.16 10.32 6.3 11.3c8.65,15.2 15.08,21.88 32.5,33.2 18.62,12.1 46.69,25.59 77.91,37.34l25.15 9.44 1.62 6.02c1.54,5.63 1.9,6.05 6.52,8.16 4.44,2 4.8,2.42 4.59,5.36 -0.13,1.76 -0.09,5.21 0.02,7.78 0.27,4.35 0.25,4.54 -2.17,4.37 -1.55,-0.12 -4.28,1.26 -7.38,3.69l-4.96 3.86 4.52 8.9c4.1,8.08 4.55,9.88 5.54,20.49 0.62,6.34 1.29,11.91 1.54,12.42 0.26,0.43 11.58,1.64 25.06,2.63l24.72 1.83 0.24 2.17c0.19,1.3 0.36,4.36 0.46,7.03 0.28,7.01 2.85,11.92 9.42,18.11 4.57,4.18 6.17,6.37 6.65,9.16 4.1,22.84 4.24,23.54 7.16,26.31l2.91 2.88 -3.08 6.17 -2.98 6.28 -2.38 40.97 -2.38 41.07 -3.42 10.77 -3.41 10.78 2.25 5.38c1.25,2.95 2.7,5.71 3.26,6.15 0.55,0.44 11.77,1.65 24.96,2.63 21.04,1.55 23.93,1.95 23.36,3.2 -1.37,2.75 1.23,4.52 7.05,4.95l5.52 0.4 0.33 3.57c0.5,5.25 1.78,6.43 7.31,6.84l4.85 0.37 -1.93 18.56c-1.77,16.4 -1.85,18.76 -0.52,19.35 1.13,0.49 14.47,-1.98 23.72,-4.55 0.8,-0.26 0.68,8.12 -0.23,28.83 -0.77,16.08 -1.11,30.23 -0.72,31.54 0.62,2.21 1.19,2.35 8.95,2.92l8.25 0.61 -1.52 12.88c-2.15,17.56 -3.14,19.06 -17.48,25.98 -8.48,4.1 -12.18,5.4 -18.47,6.12 -4.43,0.44 -8.37,1.06 -8.88,1.41 -0.51,0.26 -1.11,3.26 -1.36,6.69l-0.45 6.17 -8.81 4.66c-8.11,4.23 -9.46,5.41 -18.09,15.6 -8.85,10.47 -9.31,11.42 -10.98,18.39l-1.71 7.35 -13.72 13.26c-7.55,7.32 -14.89,14.36 -16.36,15.83 -2.3,2.19 -2.43,2.68 -1.35,3.93 0.82,0.75 6.93,2.58 13.84,4.08 12.1,2.57 12.76,2.81 20.07,8.17 7.05,5.05 7.77,5.89 9.18,10.62 1.4,4.83 1.85,5.45 10.48,11.4l9.01 6.18 10.23 1.45c11.78,1.56 18.22,4.2 19.24,7.62 0.39,1.31 0.57,4.17 0.41,6.43 -0.22,3.04 0.72,6.25 3.76,12.77 3.54,7.65 4.34,8.69 7.39,9.7l3.43 1.05 0.6 10.57 0.7 10.59 -3.37 2.02c-3.26,1.92 -4.5,4.29 -6.56,12.6 -0.55,2.13 -0.57,3.8 0.08,4.24 0.55,0.45 4.75,0.43 9.44,0.19l8.43 -0.57 4.66 -5.17c3.71,-4.16 5.86,-5.57 10.86,-7.27l6.28 -2 3.17 -10.11c1.76,-5.48 4.7,-12.45 6.48,-15.47 3.22,-5.37 3.62,-5.54 20.62,-14.13 16.18,-8.06 17.51,-8.94 19.75,-13.01 1.44,-2.35 5.43,-9.05 9.16,-14.78 5.52,-8.85 7.54,-11.16 12.88,-15 6.26,-4.36 6.48,-4.64 13.78,-19.26l7.4 -14.81 4.87 -1.22c4.56,-1.13 4.99,-1.6 8.15,-7.57 2.48,-4.74 5.14,-7.69 10.95,-12.58l7.57 -6.33 3.19 -34.61 3.18 -34.61 5.22 -7.39c4.56,-6.56 6.02,-7.83 12.61,-11.28 4.25,-2.25 12.17,-7.96 18.09,-13.04 10.19,-8.8 10.62,-9.36 12.95,-15.98l2.35 -6.81 8.08 -2.56c5.49,-1.76 12.9,-3.09 22.9,-3.92 16.58,-1.44 20.38,-2.83 22.5,-7.8l1.41 -3.34 14.5 0.29c7.99,0.11 15.03,-0.18 15.55,-0.62 0.61,-0.45 1.62,-2.24 2.33,-3.96l1.29 -3.05 32.51 2.09 32.59 2.21 3.26 -3.2c1.68,-1.75 3.86,-4.94 4.6,-7.05 1.57,-4.21 0.37,-3.71 17.25,-6.7 8.19,-1.36 8.8,-1.71 12.22,-5.79 3.52,-4.27 3.53,-4.37 3.81,-13.6 0.18,-5.2 0.71,-9.89 1.36,-10.73 0.74,-0.83 3.31,-1.33 8.08,-1.18l6.91 0.11 2.15 -4.17c1.24,-2.27 2.74,-6.89 3.38,-10.29 1.21,-5.91 1.64,-6.57 10.52,-16.05l9.3 -9.95 2.89 -10.32c2.21,-7.61 3.04,-12.37 3.05,-17.88 0.12,-5.8 0.64,-8.91 2.79,-14.37 2.53,-6.7 2.96,-11.2 1.46,-16.13 -0.48,-1.51 -0.08,-1.58 3.28,-0.85 3.36,0.74 13.36,-0.11 15.9,-1.48 0.5,-0.26 1.61,-6.09 2.4,-13.02 1.32,-10.23 2.06,-13.63 4.3,-17.69 1.48,-2.95 3.49,-9.2 4.55,-14.34 2.44,-12.22 4.27,-16.02 10.1,-21.1l4.8 -4.37 3.01 -36.2c2.69,-31.8 2.84,-36.61 1.74,-40.24 -0.71,-2.31 -1.04,-4.6 -0.71,-5.07 0.42,-0.46 2.39,-0.71 4.43,-0.56 6.4,0.47 16.64,-4.97 26.36,-14 8.15,-7.67 8.37,-7.95 8.72,-12.84 0.4,-5.49 1.9,-7.44 7.54,-9.88 2.42,-1.1 3.39,-2.41 5.09,-7.01 1.84,-5.28 2.69,-6.2 9.17,-10.94 4.32,-3.13 10.71,-9.25 16.35,-15.72l9.14 -10.55 6.4 -0.81c3.44,-0.44 6.71,-1.18 7.23,-1.63 0.52,-0.45 1.32,-3.45 1.85,-6.76l1.02 -5.93 4.05 -0.78c9.18,-1.59 8.66,-1.13 15.43,-12.45 3.44,-5.85 6.42,-11.93 6.53,-13.5 0.21,-2.94 2.43,-5.33 7.62,-8.39 1.63,-0.96 3.92,-4.34 6.47,-9.86l3.92 -8.38 3.24 -36.67 3.13 -36.68 -2.87 -4.74c-2.43,-4.12 -2.95,-6.42 -3.91,-17.42 -0.57,-6.93 -1.2,-12.98 -1.47,-13.4 -0.16,-0.42 -11.95,-1.86 -26.09,-3.2l-25.84 -2.59 -8.83 -7.25c-4.88,-4 -13.62,-12.52 -19.3,-18.94 -17.57,-19.81 -28.02,-29.04 -43.52,-38.45 -16.71,-10.19 -34.33,-16.02 -52.75,-17.38 -7.76,-0.56 -12.56,-1.51 -19.31,-3.88 -4.95,-1.75 -10.01,-3.2 -11.27,-3.29 -1.26,-0.11 -13.41,-4.63 -27.06,-9.97l-24.74 -9.79 -2.95 3.02c-1.58,1.66 -2.97,3.43 -3,3.82 -0.08,1.08 -2.88,0.67 -6.56,-0.98 -2.17,-0.95 -5.4,-4.83 -10.78,-12.71 -7.48,-11.08 -7.75,-11.4 -13.36,-13.39 -3.33,-1.13 -9.03,-4.5 -13.56,-7.98 -14.04,-10.68 -15.82,-11.7 -23.89,-13.38 -6.62,-1.47 -7.94,-2.07 -9.42,-4.53 -0.96,-1.55 -3.5,-5.48 -5.69,-8.89l-3.96 -6 -22.3 -1.57c-18.43,-1.28 -22.53,-1.25 -23.49,-0.14 -0.63,0.74 -2.73,5.5 -4.56,10.49 -3.13,8.23 -3.79,9.27 -7.34,11.27l-3.86 2.17 -3.34 -2.41 -3.33 -2.5 1.18 -8.19 1.18 -8.18 7.55 -8.79c5.98,-7.14 7.19,-9.12 6.29,-10.07 -0.72,-0.84 -7.94,-2.16 -18.55,-3.64 -14.77,-2.07 -17.55,-2.67 -18.51,-4.22 -3.22,-5.35 -3.41,-5.47 -11.26,-6.05l-7.57 -0.55 -1.02 -8.74c-0.53,-4.86 -0.96,-9.61 -0.89,-10.59 0.06,-0.98 2.08,-4.57 4.38,-8.05 2.84,-4.22 4.82,-8.7 5.92,-13.14l1.76 -6.77 -5.55 -9.56 -5.54 -9.66 -9.15 -1.46c-5.01,-0.86 -9.24,-1.66 -9.42,-1.87 -0.18,-0.22 -3.35,-15.7 -6.97,-34.47 -3.61,-18.77 -6.87,-34.37 -7.14,-34.68 -0.27,-0.34 -2.56,-0.98 -5.07,-1.36l-4.62 -0.83 -18.75 31.5c-10.31,17.25 -18.85,31.49 -19.06,31.67 -0.32,0.39 -54.58,-9.54 -59.55,-10.89 -2.77,-0.79 -5.5,-0.71 -9.77,0.26 -4.86,1.22 -8.47,1.24 -19.99,0.11l-14.04 -1.34 -1.58 9.83 -1.59 9.82 -13.72 -0.33c-32.2,-0.9 -31.32,-0.94 -37.09,3.27l-5.15 3.85 -12.27 -0.22c-6.81,-0.19 -12.75,-0.26 -13.34,-0.19 -4,0.11 -22.86,-3.36 -23.08,-4.26 -0.15,-0.7 -0.66,-3.1 -1.08,-5.3 -0.62,-3.58 -1.96,-5.36 -8.71,-11.76l-8.03 -7.58 5.7 -34.23c3.11,-18.87 5.75,-36.39 6.03,-38.93 0.32,-4.41 0.15,-4.81 -2.86,-6.32l-3.2 -1.61 0.95 -6.43c0.91,-5.84 0.78,-6.73 -1.38,-10.53l-2.43 -4.12 -7.08 -0.52 -7.18 -0.53 -10.23 13.38z"/><path fill="#fdc802" fill-rule="nonzero" d="M1042.73 1359.84l-12.21 36.81c56.21,0 71.19,11.98 52.42,67.61l-111.68 338.95c-24.07,71.03 -33.78,82.16 -102.39,82.16l-12.21 36.81 286.83 0 11.38 -36.81c-82.66,0 -86.29,-10.27 -64.08,-79.6l41.2 -126.67c16.8,4.28 40,10.27 66.44,10.27 125.65,0 255.46,-51.35 275.97,-209.7 12.85,-99.29 -72.11,-119.83 -170.47,-119.83l-261.2 0zm181.04 44.51c16.76,-1.71 25.13,-2.57 40.02,-2.57 66.95,0 92.45,26.53 84.13,90.73 -11.3,87.3 -58.74,147.22 -157.93,147.22 -17.36,0 -31.9,-2.57 -43.26,-4.28l77.04 -231.1z"/><path fill="#25221e" fill-rule="nonzero" d="M2829.29 1375.31l-10.98 36.21c58.11,0 62.9,16 48.07,65.68l-101.79 336.78c-21.6,69.04 -36.11,78.3 -91.24,78.3l-11.75 36.21 248.85 0 10.99 -36.21c-62.59,0 -69.67,-9.26 -48.91,-77.46l40.05 -130.5 17.9 0c24.58,0 33.13,3.37 38.23,29.47 12.87,54.73 18.81,79.98 43.8,214.7l162.42 0 11.01 -36.21c-33.53,0 -52.2,-5.9 -64.19,-42.95 -40.05,-127.13 -48.77,-166.71 -66.05,-184.39l1.24 -4.21c76.7,-18.52 151.09,-61.45 163.78,-168.38 10.38,-87.56 -62.86,-117.04 -153,-117.04l-238.43 0zm207.45 41.25c56.62,0 75.92,32.01 69.43,86.74 -11.49,96.82 -55.47,134.71 -154.51,140.6l-27.47 -0.85 68.28 -223.95c15.2,-2.53 29.36,-2.54 44.27,-2.54l0 0zm-1078.01 50.78c-49.93,63.22 -73.13,80.39 -130.31,104.59l-9 33.56 42.28 0 -71.88 227.15c-5.7,17.95 -9.78,34.34 -11.39,47.61 -5.57,46.05 17.28,60.88 53.91,60.88 67.64,0 109.53,-49.18 133.74,-80.4l-19.67 -17.95c-23.73,27.32 -38.26,36.68 -53.05,36.68 -11.98,0 -14.04,-6.24 -12.81,-16.39 1.6,-13.27 10.35,-39.02 10.35,-39.02l69.43 -218.57 67.64 0 12.66 -40.59 -69.75 0 31.54 -97.56 -43.69 0.01zm-274.69 86.63c-129.63,0 -224.4,119.43 -239.33,242.76 -10.01,82.74 19.07,145.18 111.37,145.18 59.18,0 117.25,-25.76 168.07,-102.25l-18.25 -17.95c-32.01,37.46 -63.08,55.41 -101.13,55.41 -39.45,0 -66.68,-19.51 -58.46,-87.42l1.24 -10.14c80.46,-7.03 208.28,-44.5 220.65,-146.76 8.03,-66.35 -42.59,-78.83 -84.16,-78.83l0 0zm867.19 0.78c-123.3,0 -210.72,105.39 -225.74,229.49 -14.17,117.09 47.32,156.11 122.71,156.11 124,0 209.24,-104.58 224.26,-228.69 14.36,-118.65 -47.25,-156.91 -121.23,-156.91l0 0zm-239.73 1.57c-74.68,0 -103.67,88.21 -131.42,142.85l-9.86 0 44.48 -140.51 -35.93 0 -113.76 8.58 -3.98 32.79c0,0 14.29,-1.57 22.04,-1.57 19.03,0 22.21,8.59 20.41,23.42 -1.7,14.05 -7.4,32 -12.2,48.39l-83.59 259.93 102.15 0 32.12 -102.25c15.05,-31.22 81.23,-188.12 124.92,-188.12 2.81,0 1.47,34.34 31.77,34.34 23.95,0 51.97,-21.85 56.69,-60.88 4.82,-39.81 -14.25,-56.98 -43.84,-56.98l0 0.01zm3532.38 6.36c-24.28,0 -45.63,11.26 -49.28,39.06 -5.13,39.07 32.75,42.07 24.95,101.43 -9.07,69.12 -68.67,119.48 -145.15,175.08l-4.42 0 10.68 -42.07c12.34,-93.92 17.35,-171.33 22.62,-267.51l-58.88 0 -99.26 10.53 -4.25 32.31c9.77,-1.51 16.5,-2.25 23.86,-2.25 25.02,0 27.61,8.25 26.55,44.32 -2.51,86.4 -12.17,199.12 -22.73,279.51l77.27 0c111.32,-63.11 224.62,-152.53 242.38,-287.78 6.91,-52.6 -4.6,-82.64 -44.33,-82.64l-0.01 0.01zm-2337.59 2.24c-135.42,0 -234.41,114.96 -250,233.68 -10.46,79.65 19.91,139.77 116.31,139.77 61.82,0 122.47,-24.8 175.56,-98.44l-19.05 -17.29c-33.44,36.07 -65.88,53.37 -105.62,53.37 -41.21,0 -69.66,-18.8 -61.07,-84.17l1.27 -9.76c84.05,-6.76 217.58,-42.84 230.5,-141.27 8.39,-63.87 -44.49,-75.88 -87.91,-75.88l0.01 -0.01zm334 0.75c-118.49,0 -224.38,105.95 -241.26,234.44 -10.06,76.64 15.07,137.5 110.74,137.5 78.74,0 129.8,-41.33 168.15,-92.42l-18.45 -16.53c-24.99,27.8 -58.55,48.09 -101.98,48.09 -41.21,0 -60.91,-18.03 -50.26,-99.18 11.94,-90.92 50.62,-178.07 116.85,-178.07 22.08,0 28.15,9.76 26.86,19.53 -1.57,12.02 -14.39,25.53 -17.05,45.82 -3.26,24.8 10.62,36.84 34.17,36.84 37.53,0 59.23,-30.82 63.28,-61.63 6.31,-48.09 -32.18,-74.39 -91.06,-74.39l0.01 0zm324.54 0c-128.79,0 -220.11,101.45 -235.79,220.92 -14.8,112.71 49.43,150.27 128.18,150.27 129.52,0 218.54,-100.69 234.23,-220.16 15,-114.21 -49.34,-151.04 -126.62,-151.04l0 0.01zm512.2 0c-100.08,0 -159.12,102.19 -189.97,146.52l-10.29 0 54.8 -142.75 -34.59 0 -121.78 8.26 -4.15 31.56c0,0 14.18,-1.5 22.28,-1.5 18.39,0 23.31,7.5 21.43,21.78 -1.18,9.01 -5.27,23.3 -5.27,23.3l-94.16 274.26 104.49 0 40.38 -111.21c25.21,-51.85 106.1,-180.34 145.1,-180.34 12.51,0 14.62,12.04 12.55,27.81 -2.37,18.04 -10.09,37.56 -10.09,37.56l-64.97 158.54c-2.17,5.26 -5.66,15.03 -7.24,27.06 -3.94,30.05 8.21,49.59 58.26,49.59 91.25,0 132.02,-63.86 141.69,-75.88l-20.54 -17.29c-12.91,14.28 -33.34,35.31 -55.42,35.31 -11.77,0 -14.66,-6 -13.48,-15.02 0.99,-7.51 4.48,-17.28 4.48,-17.28l66.45 -169.81c5.66,-15.03 11.61,-32.31 14.07,-51.1 4.44,-33.81 -3.98,-59.37 -54.02,-59.37l-0.01 0zm341.47 0c-118.49,0 -224.38,105.95 -241.26,234.44 -10.06,76.64 15.05,137.5 110.72,137.5 78.74,0 129.8,-41.33 168.16,-92.42l-18.43 -16.53c-24.99,27.8 -58.56,48.09 -101.98,48.09 -41.21,0 -60.94,-18.03 -50.28,-99.18 11.94,-90.92 50.62,-178.07 116.85,-178.07 22.08,0 28.16,9.76 26.88,19.53 -1.58,12.02 -14.39,25.53 -17.06,45.82 -3.26,24.8 10.62,36.84 34.17,36.84 37.54,0 59.24,-30.82 63.28,-61.63 6.32,-48.09 -32.18,-74.39 -91.05,-74.39l0 0zm313.5 0c-100.82,0 -208.28,95.43 -226.73,235.94 -13.52,102.94 33.54,136.76 89.47,136.76 47.1,0 78.24,-24.05 113.01,-64.63l5.88 0c-1.53,6.01 -2.23,11.27 -2.82,15.78 -4.74,36.07 13.03,46.58 50.56,46.58 78.01,0 114.3,-46.58 135.71,-75.14l-21.09 -18.79c-13.85,15.78 -29.26,32.33 -49.13,32.33 -15.46,0 -17.11,-9.77 -15.73,-20.29 1.48,-11.27 7.22,-27.05 7.22,-27.05l85.8 -255.48 -60.33 0 -34.08 35.31 -4.41 0c-12.79,-20.28 -26.23,-41.33 -73.33,-41.33l0 0.01zm802.16 0c-128.79,0 -220.1,101.45 -235.79,220.92 -14.8,112.71 49.43,150.27 128.18,150.27 129.52,0 218.54,-100.69 234.23,-220.16 15,-114.21 -49.34,-151.04 -126.61,-151.04l-0.01 0.01zm-3596.52 25.77c33.82,0 37.79,42.94 30.51,103.05 -14.26,117.86 -60.44,208.39 -108.35,208.39 -33.12,0 -36.99,-43.7 -29.62,-104.59 14.17,-117.08 58.14,-206.85 107.46,-206.85l0 0zm-885.9 2.35c16.21,0 20.14,14.04 17.4,36.68 -7.94,65.57 -59.41,112.41 -116.43,117.88 18.04,-73.38 60.28,-154.56 99.03,-154.56l0 0zm3678.01 5.71c30.91,0 38.1,29.3 32.67,70.62 -5.03,38.32 -20.51,83.4 -33.58,115.71 -23.99,59.36 -46.44,90.18 -83.97,90.18 -27.97,0 -40.52,-16.54 -32.23,-79.65 12.53,-95.43 58.98,-196.86 117.11,-196.86l0 0zm-1179.13 1.5c35.32,0 39.47,41.33 31.87,99.18 -14.9,113.46 -63.15,200.61 -113.2,200.61 -34.58,0 -38.61,-42.07 -30.91,-100.69 14.8,-112.7 60.73,-199.1 112.24,-199.1l0 0zm1969.32 0c35.33,0 39.47,41.33 31.87,99.18 -14.9,113.46 -63.15,200.61 -113.19,200.61 -34.59,0 -38.62,-42.07 -30.92,-100.69 14.8,-112.7 60.73,-199.1 112.24,-199.1l0 0zm-2647.41 2.25c16.93,0 21.04,13.52 18.18,35.31 -8.29,63.12 -62.04,108.2 -121.61,113.46 18.84,-70.63 62.95,-148.77 103.43,-148.77l0 0z"/><rect width="4839.5" height="36.64" x="1436.57" y="1988.68" fill="#25221e"/></g></g></g></svg>