<svg xmlns="http://www.w3.org/2000/svg" viewBox="0.5 0.6000003814697266 101 40.30000305175781"><defs xmlns="http://www.w3.org/2000/svg"><path id="b" d="m0.6,18.2c0,1.3 0.5,3.1 2,4.5c0.5,0.5 1,0.9 1.7,1.2c-0.4,2 -0.5,4.2 -0.3,6.8l1.4,-0.1c-0.5,-2.4 -0.6,-4.5 -0.3,-6.4c5.8,2.2 15,-2.8 7.9,-23.6c-0.8,9.4 -12.3,8.7 -12.4,17.6"/><path id="c" d="m0.6,18.2c0,1.3 0.5,3.1 2,4.5c0.5,0.5 1,0.9 1.7,1.2c0.3,-1.6 0.8,-3 1.3,-4.3c-0.9,-1.5 -1.9,-4.4 -1.9,-6.4c0.4,1.7 1.3,4 2.2,5.6c0.7,-1.5 1.6,-2.8 2.4,-4.1c-1,-1.4 -1.2,-3.8 -1.2,-4.3c0.3,0.8 0.7,2.2 1.6,3.6c0.8,-1.2 1.6,-2.4 2.3,-3.7c-0.4,-0.9 -0.7,-2.3 -0.7,-2.7c0.2,0.6 0.7,1.4 1.1,1.9c0.9,-1.7 1.3,-3.2 1.5,-4.1c0.2,-1.4 0.2,-3 0,-4.7c-0.7,9.3 -12.2,8.6 -12.3,17.5"/><path id="f" d="m0.5,18.2c0,1.3 0.5,3.1 2,4.5c5,5 18.6,2.1 10.4,-22c-0.8,9.3 -12.2,8.6 -12.4,17.5"/><path id="i" d="m0.5,9.2c0,1.3 0.5,3.1 2,4.5c0.2,0.2 0.4,0.3 0.5,0.5c2.5,-2 4.2,-6.3 3.2,-13.4c-2.9,2 -5.6,4.1 -5.7,8.4"/><path id="l" d="m0.5,18.2c0,1.3 0.5,3.1 2,4.5c5,5 18.6,2.1 10.4,-22c-0.8,9.3 -12.2,8.6 -12.4,17.5"/><path id="o" d="m0.5,9.2c0,1.3 0.5,3.1 2,4.5c0.2,0.2 0.3,0.3 0.5,0.4c2.5,-2.1 4.1,-6.2 3.1,-13.3c-2.8,2.1 -5.5,4.1 -5.6,8.4"/><radialGradient id="d" cx="-28.246%" cy="-17.128%" r="279.075%" fx="-28.246%" fy="-17.128%" gradientTransform="matrix(1 0 0 .5431 0 -.078)"><stop offset="0%" stop-color="#C9D647"/><stop offset="19.1%" stop-color="#C9D647"/><stop offset="35.2%" stop-color="#9FBB3E"/><stop offset="53.8%" stop-color="#749F35"/><stop offset="68.4%" stop-color="#5A8E30"/><stop offset="77%" stop-color="#50882E"/><stop offset="100%" stop-color="#50882E"/></radialGradient><radialGradient id="g" cx="-17.666%" cy="-15.077%" r="170.698%" fx="-17.666%" fy="-15.077%" gradientTransform="matrix(1 0 0 .76296 0 -.036)"><stop offset="0%" stop-color="#DBE5F4"/><stop offset="13.6%" stop-color="#D7E3F3"/><stop offset="25.7%" stop-color="#CDDEF1"/><stop offset="37.3%" stop-color="#BAD5EC"/><stop offset="48.6%" stop-color="#A1C8E6"/><stop offset="59.6%" stop-color="#80B8DE"/><stop offset="70.4%" stop-color="#57A4D5"/><stop offset="80.8%" stop-color="#288DC9"/><stop offset="88.5%" stop-color="#0079C0"/><stop offset="100%" stop-color="#0079C0"/></radialGradient><radialGradient id="j" cx="-54.115%" cy="-98.294%" r="524.828%" fx="-54.115%" fy="-98.294%" gradientTransform="matrix(1 0 0 .5 0 -.491)"><stop offset="0%" stop-color="#FFF"/><stop offset="1.7%" stop-color="#F4F8FC"/><stop offset="6.6%" stop-color="#DAE7F5"/><stop offset="12.1%" stop-color="#C6D9EF"/><stop offset="18.2%" stop-color="#B8CFEB"/><stop offset="25.7%" stop-color="#B0CAE9"/><stop offset="38.2%" stop-color="#ADC8E8"/><stop offset="44.5%" stop-color="#8FBAE1"/><stop offset="61.7%" stop-color="#4397CF"/><stop offset="73.9%" stop-color="#1281C4"/><stop offset="80%" stop-color="#0079C0"/><stop offset="100%" stop-color="#0079C0"/></radialGradient><radialGradient id="m" cx="-17.516%" cy="-14.738%" r="170.696%" fx="-17.516%" fy="-14.738%" gradientTransform="matrix(1 0 0 .76296 0 -.035)"><stop offset="0%" stop-color="#FFF100"/><stop offset="13.5%" stop-color="#FFF100"/><stop offset="17.6%" stop-color="#FFE701"/><stop offset="27%" stop-color="#FFD604"/><stop offset="37.2%" stop-color="#FFCC06"/><stop offset="50%" stop-color="#FFC906"/><stop offset="55.6%" stop-color="#FDBE0A"/><stop offset="81.9%" stop-color="#F68E1A"/><stop offset="95%" stop-color="#F37C20"/><stop offset="100%" stop-color="#F37C20"/></radialGradient><radialGradient id="p" cx="-54.685%" cy="-99.07%" r="532.8%" fx="-54.685%" fy="-99.07%" gradientTransform="matrix(1 0 0 .49624 0 -.5)"><stop offset="0%" stop-color="#FFF100"/><stop offset="3%" stop-color="#FEE603"/><stop offset="10.2%" stop-color="#FDD20A"/><stop offset="18.4%" stop-color="#FDC40E"/><stop offset="28.4%" stop-color="#FCBC11"/><stop offset="45%" stop-color="#FCB912"/><stop offset="54%" stop-color="#F8A117"/><stop offset="64.5%" stop-color="#F58D1C"/><stop offset="74.9%" stop-color="#F4801F"/><stop offset="85%" stop-color="#F37C20"/><stop offset="100%" stop-color="#F37C20"/></radialGradient><linearGradient id="a" x1="46.788%" x2="56.734%" y1="30.358%" y2="93.099%"><stop offset="0%" stop-color="#C5CE21"/><stop offset="3.4%" stop-color="#C5CE21"/><stop offset="18.1%" stop-color="#B4C423"/><stop offset="47.3%" stop-color="#88AA28"/><stop offset="80%" stop-color="#50882E"/><stop offset="100%" stop-color="#50882E"/></linearGradient></defs><g xmlns="http://www.w3.org/2000/svg" fill="none" fill-rule="evenodd"><use xmlns:xlink="http://www.w3.org/1999/xlink" fill="url(#a)" xlink:href="#b"/><mask id="e"><use xmlns:xlink="http://www.w3.org/1999/xlink" xlink:href="#c"/></mask><path fill="url(#d)" fill-rule="nonzero" d="m0.5,0.7l12.6,0l0,23.2l-12.6,0l0,-23.2z" mask="url(#e)"/><g transform="translate(9)"><mask id="h"><use xmlns:xlink="http://www.w3.org/1999/xlink" xlink:href="#f"/></mask><path fill="url(#g)" fill-rule="nonzero" d="m0.5,0.7l20.6,0l0,27l-20.6,0l0,-27z" mask="url(#h)"/></g><g transform="translate(9 9)"><mask id="k"><use xmlns:xlink="http://www.w3.org/1999/xlink" xlink:href="#i"/></mask><path fill="url(#j)" fill-rule="nonzero" d="m0.5,0.8l6.7,0l0,13.4l-6.7,0l0,-13.4z" mask="url(#k)"/></g><g transform="translate(18)"><mask id="n"><use xmlns:xlink="http://www.w3.org/1999/xlink" xlink:href="#l"/></mask><path fill="url(#m)" fill-rule="nonzero" d="m0.5,0.7l20.6,0l0,27l-20.6,0l0,-27z" mask="url(#n)"/></g><g transform="translate(18 9)"><mask id="q"><use xmlns:xlink="http://www.w3.org/1999/xlink" xlink:href="#o"/></mask><path fill="url(#p)" fill-rule="nonzero" d="m0.5,0.8l6.6,0l0,13.3l-6.6,0l0,-13.3z" mask="url(#q)"/></g><path fill="#50882E" fill-rule="nonzero" d="m96.9,30.9l-2.2,0l-4,9.9l2.2,0l0.8,-2.1l4.7,0l0.6,1.4c0.1,0.3 0.3,0.7 1,0.7l1.5,0l-4.6,-9.9zm-2.8,6.3l1.6,-4.4l1.8,4.4l-3.4,0zm-71.3,-0.9l4.8,0l0,-1.3l-4.8,0l0,-2.8l5,0l0,-1.3l-7,0l0,9.9l7.1,0l0,-1.4l-5.1,0l0,-3.1zm19.5,0l4.8,0l0,-1.3l-4.8,0l0,-2.8l5,0l0,-1.3l-7,0l0,9.9l7.1,0l0,-1.4l-5.1,0l0,-3.1zm45.2,-5.4l2.1,0l0,9.9l-2.1,0l0,-9.9zm-5.2,5.3c0,0.3 0.2,0.6 0.9,0.6l0.7,0l0,2.1c-0.4,0.2 -0.9,0.3 -1.5,0.3c-2,0 -3.1,-1.2 -3.1,-3.4c0,-2 1,-3.4 3.1,-3.4c0.8,0 1.6,0.1 2.4,0.3l0,-1.6c-0.7,-0.2 -1.5,-0.3 -2.4,-0.3c-3.6,0 -5.2,2.6 -5.2,5c0,2.5 1.6,5 5.2,5c1.5,0 2.7,-0.5 3.4,-1.2l0,-4l-2.7,0c-0.7,-0.1 -0.8,0.4 -0.8,0.6zm-48.5,-5.3c-3.6,0 -5.2,2.5 -5.2,5s1.6,5 5.2,5c3.5,0 5.2,-2.6 5.2,-5c0,-2.5 -1.6,-5 -5.2,-5zm0,8.3c-2,0 -3.1,-1.2 -3.1,-3.4s1.1,-3.4 3.1,-3.4s3.1,1.2 3.1,3.4s-1.1,3.4 -3.1,3.4zm40,-3c0.8,-0.2 2.1,-0.9 2.1,-2.6c0,-1.4 -1.1,-2.7 -3.1,-2.7l-4.4,0l0,9.9l2,0l0,-8.6l1.6,0c1.5,0 1.8,0.9 1.8,1.5c0,0.9 -0.7,1.5 -1.7,1.5c-0.7,0 -1.1,0.3 -1.1,0.7c0,0.3 0.2,0.6 0.9,0.7c0.9,0.1 1.3,1.1 1.8,2.2c0,0 0.4,1 0.6,1.3c0.1,0.3 0.3,0.7 1,0.7l1.6,0l-0.7,-1.5c-0.8,-1.6 -1.4,-2.5 -2.4,-3.1zm-56.7,-5.3l0,6.8l-5.4,-6.8l-2.1,0l0,9.9l2,0l0,-7.3s4.4,5.7 5.4,7c0.1,0.2 0.3,0.3 0.7,0.3l1.5,0l0,-9.9l-2.1,0zm44.9,5.4l4.8,0l0,-1.3l-4.8,0l0,-2.8l5,0l0,-1.3l-7,0l0,9.9l7.1,0l0,-1.4l-5.1,0l0,-3.1zm-5.7,-5.4l0,6.8l-5.4,-6.8l-2.2,0l0,9.9l2,0l0,-7.3s4.4,5.7 5.4,7c0.1,0.2 0.3,0.3 0.7,0.3l1.5,0l0,-9.9l-2,0z"/></g></svg>