<svg  id="fndm-vloc8r1vbl" viewBox="0.07278032600879669 0 394.9272155761719 197.5994110107422" xmlns="http://www.w3.org/2000/svg">
   <defs xmlns="http://www.w3.org/2000/svg">
    <linearGradient y2="91.662%" y1="8.596%" x2="77.534%" x1="21.629%" id="fndm-36zlicza3h">
     <stop stop-color="#4CA5CA" offset="0%"/>
     <stop stop-color="#D6DA6B" offset="100%"/>
    </linearGradient>
   </defs>
   <g xmlns="http://www.w3.org/2000/svg" fill="none">
    <path transform="translate(252)" d="m71.5,0c39.488,0 71.5,32.012 71.5,71.5s-32.012,71.5 -71.5,71.5s-71.5,-32.012 -71.5,-71.5s32.012,-71.5 71.5,-71.5zm5,6c-32.309,0 -58.5,26.191 -58.5,58.5s26.191,58.5 58.5,58.5s58.5,-26.191 58.5,-58.5s-26.191,-58.5 -58.5,-58.5z" fill="url(#fndm-36zlicza3h)"/>
    <path d="m3,96.3l-2.5,1.25l-0.3,19c-0.35,23.8 -0.35,23.65 5.1,23.25l4.2,-0.3l0.3,-7.75c0.4,-10.4 1.95,-10.35 10.15,0.25c6.6,8.55 9.9,10.05 14.55,6.6c2.15,-1.55 2.45,-1 -5.4,-10.35c-2.4,-2.95 -4.2,-5.45 -4,-5.6c0.2,-0.15 1.85,-0.9 3.6,-1.6c9.5,-3.75 9.2,-19.7 -0.45,-23.7c-4.8,-2.05 -21.9,-2.7 -25.25,-1.05zm20.25,8.85c2.3,1.2 2.4,8.05 0.15,9.9c-0.85,0.75 -4.25,1.55 -7.5,1.75l-5.9,0.45l0,-13.9l5.75,0.45c3.15,0.25 6.55,0.85 7.5,1.35zm21.75,-9.4c-2.75,1.05 -2.95,2.65 -3,22.4c0,23.95 -1.65,22 18.05,21.65c16.65,-0.35 17.9,-0.8 16.6,-6.15l-0.7,-2.65l-23.95,0l0,-9.8l8.25,0.55c9.3,0.55 11.15,-0.4 10.55,-5.45l-0.3,-2.8l-9.25,-0.3l-9.25,-0.3l0,-8.55l10.75,0.4c11.35,0.4 12.55,0.05 13.65,-3.45c1.55,-5 -1.95,-6.3 -16.65,-6.2c-7.3,0 -13.9,0.3 -14.75,0.65zm39,0.25c-1.25,0.75 -1.55,4.3 -1.7,20.05c-0.25,22.5 0.15,24.2 5.45,23.75l3.75,-0.3l0.5,-14.45l0.5,-14.45l10.4,14.7c9.65,13.65 10.6,14.7 13.55,14.7c5.4,0 5.55,-0.6 5.55,-22.5c0,-21.55 -0.2,-22.5 -5.1,-22.5c-4.7,0 -5.2,1.8 -4.7,16c0.55,14.5 0.4,14.75 -3.4,8.7c-12.95,-20.45 -19.7,-26.95 -24.8,-23.7zm56,1.55c-11.3,6.4 -15.1,18.95 -9.25,30.5c10.8,21.4 42.85,13.8 42.7,-10.05c-0.1,-17.7 -18.45,-28.9 -33.45,-20.45zm17.8,9.5c6.5,3.95 7.75,12.75 2.65,18.85c-10.4,12.35 -29.65,-2.8 -19.85,-15.65c4.3,-5.6 11.2,-6.9 17.2,-3.2zm19.7,-10.85c-1.1,0.6 -2.15,1.2 -2.35,1.4c-0.3,0.25 12.35,32.05 15.6,39.15c1.5,3.3 6.65,4.6 9.9,2.5c1,-0.65 17.35,-39.55 17.35,-41.3c0,-0.4 -1.35,-1.25 -3.05,-1.95c-5.95,-2.5 -7.25,-0.8 -12.55,15.7c-2.6,8.15 -5.05,15.15 -5.4,15.6c-0.35,0.4 -2.8,-5.9 -5.4,-14c-5.65,-17.6 -8.05,-20.5 -14.1,-17.1zm53.6,0.2c-2.6,3.1 -16.8,41.5 -15.75,42.55c3.55,3.55 9.1,0.6 11.65,-6.3l1.5,-4.05l15.75,0l1.9,5.05c2.35,6.3 5.45,8.1 10,5.8c1.65,-0.9 2.75,-2.1 2.45,-2.75c-0.3,-0.65 -4,-9.75 -8.15,-20.2c-4.2,-10.45 -8.35,-19.55 -9.25,-20.25c-2.15,-1.7 -8.65,-1.6 -10.1,0.15zm7.9,15.85c1.25,3.45 2.5,6.8 2.75,7.5c0.35,0.9 -1.2,1.25 -5.75,1.25c-5.55,0 -6.15,-0.2 -5.45,-1.75c0.4,-0.95 1.7,-4.35 2.85,-7.5c2.6,-7.15 2.8,-7.15 5.6,0.5z" fill="#275C6E"/>
    <path d="m85,151.8c-0.8,0.3 -1.85,1 -2.25,1.6c-1,1.5 -0.9,39.8 0.1,41.4c1.3,2 30.65,1.25 30.65,-0.8c0,-1.25 -2.2,-1.5 -13.5,-1.6l-13.5,-0.15l-0.3,-8.6l-0.3,-8.6l10.8,-0.25c8.8,-0.25 10.8,-0.6 10.8,-1.8c0,-1.25 -1.85,-1.5 -10.5,-1.55l-10.5,0l0,-15.95l13.3,-0.3c12,-0.25 13.3,-0.45 13,-2c-0.35,-1.7 -23.4,-2.85 -27.8,-1.4zm36.55,0.45c-0.75,2.35 -1.2,42.65 -0.5,43.85c2.65,4.25 3.35,-0.1 3.05,-19.65c-0.15,-11 0,-19.65 0.35,-19.3c0.35,0.3 3.65,4.9 7.35,10.1c22.45,31.9 21,30.1 22.95,28.9c1.2,-0.75 2,-43.7 0.85,-44.85c-3.05,-3.1 -3.65,0.85 -3,19.2c0.8,20.6 0.6,21.1 -4.85,12.65c-2.1,-3.25 -7.35,-10.75 -11.7,-16.75s-8.65,-11.9 -9.55,-13.15c-1.75,-2.45 -4.35,-3 -4.95,-1zm45.65,0.1c-0.5,0.65 -0.85,10.6 -0.8,22.15l0.1,21l15.85,0.3c14.7,0.25 15.8,0.15 15.45,-1.5c-0.3,-1.6 -1.75,-1.8 -13.8,-1.85l-13.5,-0.1l-0.3,-8.65l-0.3,-8.65l10.8,-0.25c8.8,-0.25 10.8,-0.6 10.8,-1.8c0,-1.25 -1.85,-1.5 -10.5,-1.55l-10.5,0l-0.3,-8.25l-0.3,-8.2l13.65,0c12.4,0 13.55,-0.15 13.25,-1.75c-0.4,-2.15 -28.05,-2.95 -29.6,-0.9zm39.6,-0.65c-1.8,0.45 -3.3,41.9 -1.65,44.55c2.3,3.7 3.95,-0.45 3.75,-9.5c-0.25,-11.35 2.05,-13.05 8.1,-6.05c7.15,8.25 15.05,16.3 16.05,16.3c3.4,0 1.5,-3.6 -5.9,-11.25l-8.1,-8.25l4.35,-0.65c12.8,-1.9 16.45,-17.9 5.3,-23.2c-3.2,-1.5 -18.25,-2.85 -21.9,-1.95zm19.2,5.05c6.7,3.35 6.35,12.95 -0.55,15.85c-3.65,1.5 -17.2,1.65 -16.7,0.15c0.15,-0.4 0.25,-4.6 0.25,-9.25l0,-8.5l6.75,0c4.4,0 7.95,0.6 10.25,1.75z" fill="#BBC97E"/>
    <path d="m253.5,152.9c-19.2,8.9 -15.75,40.9 4.7,43.7c6.95,0.95 11.4,-0.25 16,-4.4l4.1,-3.7l-0.5,3.25c-0.3,2.1 0.05,3.7 0.95,4.45c2.35,1.95 2.8,-0.3 2.25,-11.35l-0.5,-10.35l-9.25,-0.3c-8.75,-0.25 -9.25,-0.15 -9.25,1.75s0.6,2.05 8.1,2.05l8.1,0l-0.65,2.75c-5,20.2 -32.45,14.6 -32.55,-6.7c-0.05,-17.2 19.85,-26.25 29.8,-13.55c2.25,2.85 3.75,3.2 4.55,1.05c2.75,-7.15 -15.8,-13.3 -25.85,-8.65zm37.45,-1.5c-1.45,1.4 -0.1,45.1 1.4,45.4c2.45,0.5 2.75,-2.6 2.45,-24.8c-0.3,-20.15 -0.9,-23.55 -3.85,-20.6zm27.4,0.85c-2.85,3.9 -17.45,43.05 -16.45,44.05c1.6,1.6 2.95,-0.1 6.1,-8l2.75,-6.8l9.9,-0.3l9.85,-0.25l2.4,7.05c2.6,7.6 4.45,10.05 6.3,8.2c2,-2 -15.8,-45.2 -18.7,-45.2c-0.7,0 -1.65,0.55 -2.15,1.25zm6.7,15.2c2.05,5.2 3.55,9.6 3.4,9.75c-0.6,0.65 -15.45,0 -15.6,-0.65c-0.2,-1.2 7.4,-19.65 7.95,-19.1c0.25,0.3 2.2,4.8 4.25,10z" fill="#BBC97E"/>
   </g>
  </svg>