<svg  id="fndm-wnjzfdydtw" viewBox="0 -0.0000019073486328125 170 55.80000305175781" xmlns="http://www.w3.org/2000/svg">
   <path d="m80.5,33c2.1,0.1 3.9,0.7 3.9,3.2s-1.8,3.1 -3.9,3.2l0,5.4c2.9,0.2 3,1.7 3.3,4.7c0.2,2 0.4,4 0.9,5.9l8.3,0c-0.7,-2.3 -1.1,-4.4 -1.3,-6.7c-0.5,-4.3 -1.4,-6.8 -6.3,-6.9l0,-0.1c3.8,-0.5 7,-2.6 7,-6.8c0,-5.8 -6.1,-7.1 -10.7,-7.1l-1.2,0l0,5.2zm-3.9,6.3l0,-6.3l4,0l0,-5.4l-11.7,0l0,27.6l7.7,0l0,-10.5l3.9,0l0,-5.4l-3.9,0zm38,2.2c0,4.1 -1,8.9 -6.3,8.9l0,5.3c9.1,0 14.3,-5.3 14.3,-14.4s-5.2,-14.3 -14.3,-14.3l0,5.4c5.2,0 6.3,4.8 6.3,9.1m-6.3,9c-5.2,0 -6.3,-4.8 -6.3,-8.9c0,-4.3 1.1,-9.2 6.3,-9.2l0,-5.4c-9.1,0 -14.3,5.3 -14.3,14.4s5.2,14.4 14.3,14.4l0,-5.3zm23.7,4.7l0,-23.3l0.1,0l6,23.3l6.9,0l6.5,-23.2l0.1,0.1l0,23.1l6.6,0l0,-27.6l-11.8,0l-4.4,18.7l-0.1,0l-4.5,-18.7l-12,0l0,27.6l6.6,0zm30.3,-27.6l7.7,0l0,27.6l-7.7,0l0,-27.6z"/>
   <path d="m0,27.6c0,-15.3 12.3,-27.6 27.5,-27.6c15.3,0 27.6,12.3 27.6,27.6c0,11.5 -7,21.4 -17,25.5l-10.6,-10.5l0,5.7c-11.3,-0.1 -20.5,-9.3 -20.5,-20.7s9.2,-20.5 20.5,-20.5s20.6,9.2 20.6,20.6c0,7.3 -3.9,13.8 -9.6,17.4l-10.9,-11l0,-6.5l10.6,10.6c2.7,-2.7 4.4,-6.5 4.4,-10.6c0,-8.2 -6.7,-14.9 -14.9,-14.9s-14.9,6.7 -14.9,14.9c0,8.3 6.7,14.9 14.9,14.9l0,-6.5l10.6,10.6l0.1,0.1c6.7,-3.8 11.2,-11 11.2,-19.2c0,-12.1 -9.8,-22 -22,-22c-12.1,0 -22,9.8 -22,22s9.9,22 22,22l0,5.7c-15.3,0 -27.6,-12.3 -27.6,-27.6" fill="#0067A6"/>
  </svg>