<svg xmlns="http://www.w3.org/2000/svg" fill-rule="evenodd" clip-rule="evenodd" image-rendering="optimizeQuality" shape-rendering="geometricPrecision" text-rendering="geometricPrecision" viewBox="-7.130000114440918 0.5299999713897705 6600 3300"><g><rect width="6600" height="3300" x="-7.13" y="0.53" fill="none"/><path fill="#f16136" d="M1550.8 2220.13l239.18 0 0 -945.37 300.24 0c82.87,0 167.63,66.55 167.96,179.74 0.36,123.8 -89.68,176.89 -173.06,176.89l-143.81 0 0 135.25 270.3 453.49 281.2 0 -249.82 -419.12c137.12,-45.42 245.63,-136.5 247.71,-364.18 1.65,-179.52 -153.38,-364.32 -400.48,-364.32l-300.24 0 -77.09 0 -162.09 0 0 1147.62zm1781.48 -319.01c-3.22,-66.79 -2.43,-112.1 -5.32,-182.44 -9.75,-237.96 -167.06,-309.25 -392.82,-309.62 -259.15,-0.43 -427.91,101.67 -431.24,405.97 -2.72,248.19 169.61,412.53 375.68,405.1l414.39 0 -23.56 -185.3 -414.39 0c-62.85,-5.51 -113.29,-74.72 -116.29,-133.71l593.55 0zm-598.6 -166.3c4.58,-93.52 65.29,-147.27 203.83,-145.52 133.18,1.69 177.84,70.56 175.19,145.52l-379.02 0zm1287 -476.92l0 -154.98c-26.4,-16.57 -95.45,-26.54 -144.87,-28.19 -163.55,-5.46 -344.2,75.93 -318.58,333.11l-163.19 0 0 190.35 151.63 0 0 621.94 229.33 0 0 -621.94 201.89 0 0 -190.35 -199.04 0c-5.02,-87.82 36.9,-149.67 92.49,-149.75l150.34 -0.19zm794.76 962.23l155.31 0 99.13 -170.49 -143.84 0c-71.89,0 -114.64,-46.57 -114.64,-99.84l0 -351.61 241.78 0 -106.96 -190.35 -142.46 0 0 -230.79 -147.08 0 -57.3 230.79 -113.77 0 0 190.35 106.13 0 0 385.75c0,105.4 80.64,236.19 223.7,236.19zm-690.43 0l229.32 0 0 -812.29 -229.32 0 0 812.29zm114.66 -1148.97c80.94,0 138.91,55.01 138.91,122.85 0,67.85 -57.97,122.85 -138.91,122.85 -80.94,0 -138.91,-55 -138.91,-122.85 0,-67.84 57.97,-122.85 138.91,-122.85zm-2455.23 -458.95l-485.14 0 -568.98 1038.32 568.98 1038.31 485.14 0 0 -192.04 -371.49 0 -463.75 -846.27 463.75 -846.28 371.49 0 0 -192.04zm3016.85 0l485.14 0 568.98 1038.32 -568.98 1038.31 -485.14 0 0 -192.04 371.49 0 463.74 -846.27 -463.74 -846.28 -371.49 0 0 -192.04z"/></g></svg>