<svg xmlns="http://www.w3.org/2000/svg" fill-rule="evenodd" clip-rule="evenodd" image-rendering="optimizeQuality" shape-rendering="geometricPrecision" text-rendering="geometricPrecision" viewBox="-2 1 6599.990234375 3299.989990234375"><g><rect width="6599.99" height="3299.99" x="-2" y="1" fill="none"/><g><path fill="#215b4a" d="M3200.59 2343.54c363.93,0 672.05,-196.53 672.05,-548.33l0 -4.85c0,-257.17 -157.7,-397.89 -405.16,-463.39l368.77 -274.16 0 -376.05 -1261.6 0 0 424.58 611.4 0 -361.5 283.86 72.79 242.61 230.48 0c145.56,0 215.92,50.95 215.92,131.02l0 4.85c0,75.21 -65.51,131.02 -186.81,131.02 -135.87,0 -264.45,-63.08 -385.76,-179.54l-325.1 334.81c179.53,184.38 417.29,293.57 754.52,293.57l0 0z"/><path fill="#215b4a" d="M4350.6 1453.13l0 -320.26 237.76 0c126.16,0 208.65,50.95 208.65,157.71l0 2.43c0,101.9 -80.06,160.13 -211.08,160.13l-235.33 -0.01zm-548.32 856.44l548.32 0 0 -468.25 116.45 0 308.12 465.82 625.95 0 -380.9 -553.16c198.95,-97.04 322.68,-262.03 322.68,-499.79l0 -4.85c0,-167.4 -50.94,-288.71 -150.42,-385.76 -114.02,-114.03 -298.42,-186.83 -589.56,-186.83l-800.64 0 0 1632.82z"/><path fill="#215b4a" d="M5083.3 2819.06l55.8 0 0 -228.06 101.9 150.42 101.9 -152.85 0 230.49 58.22 0 0 -320.25 -60.65 0 -99.47 150.42 -97.04 -150.42 -60.66 0 0 320.25zm-206.23 4.86c82.49,0 138.29,-46.1 138.29,-143.14l0 -181.97 -58.22 0 0 184.39c0,58.22 -29.11,89.77 -80.06,89.77 -50.95,0 -82.49,-31.55 -82.49,-92.19l0 -181.97 -55.81 0 0 184.39c0,94.62 53.38,140.72 138.29,140.72l0 0zm-434.28 -4.86l242.61 0 0 -50.94 -184.38 -0.01 0 -84.91 160.12 0 0 -50.95 -160.12 0 0 -82.49 181.96 0 0 -50.95 -240.19 0 0 320.25zm-274.16 0l225.63 0 0 -50.94 -169.83 -0.01 0 -269.3 -55.8 0 0 320.25zm-228.06 -46.09c-65.51,0 -111.6,-50.95 -111.6,-114.03 0,-63.08 46.09,-114.02 109.17,-114.02 65.51,0 111.61,50.94 111.61,114.02 -2.43,63.08 -46.1,114.03 -109.18,114.03l0 0zm-2.42 53.37c99.47,0 169.83,-77.64 169.83,-167.41 0,-92.19 -70.36,-164.98 -167.4,-164.98 -99.47,0 -169.83,75.21 -169.83,164.98 0,92.2 67.93,167.41 167.4,167.41l0 0zm-422.16 -167.41l0 -109.17 84.91 0c41.25,0 65.51,19.41 65.51,53.37 0,33.97 -26.68,55.8 -65.51,55.8l-84.91 0zm-55.8 160.13l55.8 0 0 -111.6 72.79 0 77.64 111.6 67.93 0 -87.34 -121.3c46.1,-12.13 77.64,-43.68 77.64,-97.05 0,-29.11 -9.7,-53.37 -26.68,-70.36 -21.84,-19.41 -53.38,-31.54 -94.63,-31.54l-143.15 0 0 320.25zm-211.07 0l58.22 0 0 -269.3 101.9 0 0 -50.95 -262.02 0 0 50.95 101.9 0 0 269.3zm-378.48 0l242.62 0 0 -50.94 -184.39 -0.01 0 -84.91 160.12 0 0 -50.95 -160.12 0 0 -82.49 181.97 0 0 -50.95 -240.2 0 0 320.25zm-242.61 -152.85l0 -116.45 65.5 0c43.68,0 70.36,19.41 70.36,58.23 0,33.96 -26.68,58.22 -70.36,58.22l-65.5 0zm-55.81 152.85l55.81 0 0 -101.9 65.5 0c70.36,0 128.59,-38.81 128.59,-111.6 0,-65.51 -46.1,-106.76 -123.74,-106.76l-126.16 0.01 0 320.25z"/><path fill="#068ca0" d="M1958.41 1906.82c101.9,-145.57 264.45,-77.64 303.27,104.32 55.8,262.03 317.82,296 317.82,296 0,0 -191.66,172.25 -473.1,38.81 -184.39,-87.34 -218.36,-339.67 -148,-439.14l0.01 0.01z"/><path fill="#a1d64a" d="M2363.57 967.9c-101.9,145.57 -264.45,77.64 -303.27,-104.32 -55.79,-262.04 -317.82,-298.42 -317.82,-298.42 0,0 189.25,-172.26 470.67,-38.82 186.82,87.34 218.36,342.09 150.42,441.56z"/><path fill="#a1d64a" d="M1970.53 963.04c31.55,174.68 -133.44,240.19 -288.71,138.29 -225.63,-145.57 -434.28,14.56 -434.28,14.56 0,0 9.7,-257.17 303.27,-359.07 194.1,-67.93 397.9,87.34 419.73,206.23l-0.01 -0.01z"/><path fill="#4cc084" d="M1689.1 1234.78c145.57,101.9 77.64,264.45 -106.75,303.27 -262.03,53.37 -295.99,315.39 -295.99,315.39 0,0 -174.69,-189.24 -41.25,-468.25 89.77,-184.39 344.52,-218.36 443.99,-150.42l0 0.01z"/><path fill="#068ca0" d="M1681.82 1625.39c177.12,-31.54 245.05,133.44 140.72,288.71 -145.57,223.21 14.56,431.86 14.56,431.86 0,0 -257.17,-12.13 -361.5,-303.27 -67.93,-191.67 87.34,-395.47 206.23,-417.3l-0.01 0z"/></g></g></svg>