<svg  id="fndm-ius6ejpxl1" viewBox="136 91.00007629394531 329 65.99992370605469" xmlns="http://www.w3.org/2000/svg">
   <path d="m136.138,153.588l15.447,0.068l0.137,-50.426l24.825,0.137c6.552,0.204 17.033,-1.16 19.447,5.117c3.31,8.462 -4.483,11.805 -11.516,11.737l-25.032,0l0,11.873l20.687,0.068l15.723,22.45l18.136,0l-16.274,-23.542c3.654,-2.115 13.584,-3.684 14.067,-17.741c0.759,-25.52 -28.342,-22.108 -42.271,-22.245l-33.514,0l0.138,62.504zm119.85,-61.753c23.307,0 42.133,14.193 42.133,31.661c0,17.469 -18.826,31.662 -42.134,31.662c-23.307,0 -42.133,-14.193 -42.133,-31.662c0,-17.468 18.894,-31.661 42.133,-31.661l0.001,0zm0,12.146c14.343,0 25.997,8.734 25.997,19.515s-11.654,19.516 -25.998,19.516c-14.343,0 -25.997,-8.735 -25.997,-19.516c0.07,-10.781 11.654,-19.515 25.997,-19.515l0.001,0zm46.27,32.275l-0.137,13.102c10.62,7.642 64.89,14.534 69.096,-7.711c5.172,-27.43 -38.272,-20.403 -51.512,-24.087c-4.827,-1.365 -6.69,-4.845 -2.896,-8.393c6.895,-6.346 29.652,-4.504 39.513,-0.887l10.895,4.23l0,-12.76c-10.206,-6.346 -39.582,-8.052 -52.201,-3.343c-6.62,2.456 -13.999,7.574 -14.895,15.216c-1.104,9.212 6.62,14.057 13.516,16.65c11.654,4.435 33.79,2.115 40.547,5.254c4.758,2.252 2.345,6.823 -1.517,8.666c-18.964,8.939 -49.581,-6.005 -50.409,-5.937zm74.475,0l-0.138,13.102c10.62,7.642 64.89,14.534 69.097,-7.711c5.172,-27.43 -38.272,-20.403 -51.512,-24.087c-4.827,-1.365 -6.69,-4.845 -2.896,-8.393c6.895,-6.346 29.652,-4.504 39.513,-0.887l10.895,4.23l0,-12.76c-10.206,-6.346 -39.582,-8.052 -52.201,-3.343c-6.62,2.456 -13.999,7.574 -14.895,15.216c-1.104,9.212 6.62,14.057 13.516,16.65c11.653,4.435 33.79,2.115 40.547,5.254c4.758,2.252 2.345,6.823 -1.517,8.666c-18.964,8.939 -49.512,-6.005 -50.409,-5.937zm74.062,-41.76l14.205,0l0,62.504l-14.205,0l0,-62.504z" fill-rule="evenodd" fill="#CB0F19"/>
  </svg>