<svg  id="fndm-b1w8hfgc72" viewBox="0 0 13000 6400" clip-rule="evenodd" xmlns="http://www.w3.org/2000/svg">
   <path d="m133,5760l178,-845l627,0c146,0 234,1 263,4c28,3 54,12 78,29c28,19 45,46 50,80c4,34 -1,88 -16,161c-13,62 -26,107 -40,136s-33,52 -58,69c-27,19 -64,31 -112,38c54,4 90,20 108,47c10,16 15,35 14,58c-2,23 -10,71 -25,145l-17,78l-255,0l9,-45c10,-47 16,-81 16,-101c1,-20 -2,-35 -10,-46c-7,-10 -19,-16 -35,-19s-51,-4 -105,-4l-365,0l-45,215l-260,0zm269,-1344l1489,0l847,-4052l-1488,0l-848,4052zm3834,0l1488,0l848,-4052l-1489,0l-847,4052zm-1901,0l1489,0l847,-4052l-1489,0l-847,4052zm-1853,918l365,0c64,-1 102,-2 114,-4c13,-1 24,-4 34,-9c12,-7 22,-18 30,-31c7,-14 14,-35 20,-63s8,-49 5,-62c-2,-14 -9,-24 -21,-30c-8,-4 -18,-6 -31,-7c-12,-1 -48,-2 -108,-2l-364,0l-44,208zm977,-419l273,0l-178,845l-272,0l177,-845zm961,-13c184,0 309,4 376,14c97,13 148,60 153,140c4,56 -8,149 -36,281c-27,132 -55,226 -82,281c-39,81 -110,128 -212,141c-71,9 -197,14 -379,14c-185,0 -312,-5 -379,-14c-96,-13 -147,-60 -153,-141c-3,-55 9,-150 37,-286c28,-129 55,-221 81,-276c40,-80 111,-127 213,-140c70,-10 197,-14 381,-14zm-45,220c-138,0 -221,4 -250,11c-34,8 -59,26 -75,55s-33,86 -51,171c-11,52 -16,89 -15,113c1,42 27,67 78,73c38,5 112,8 223,8c105,0 174,-2 210,-6c35,-4 62,-12 81,-25c18,-11 32,-28 42,-51c10,-22 20,-59 31,-110c13,-61 20,-106 22,-134c2,-29 -1,-50 -9,-65c-10,-18 -30,-29 -61,-33c-30,-5 -106,-7 -226,-7zm581,358l251,0c-9,42 -7,69 8,81c11,8 26,12 46,14c19,1 81,2 186,3c109,0 175,-1 197,-2c23,-1 41,-4 55,-10c21,-8 35,-29 42,-64c5,-25 2,-41 -10,-50c-12,-8 -38,-13 -79,-14c-32,0 -99,-2 -202,-7c-105,-5 -173,-8 -205,-9c-62,-2 -108,-8 -140,-18c-31,-9 -54,-25 -68,-47c-24,-36 -27,-97 -10,-182c20,-96 53,-163 98,-202c34,-31 81,-50 140,-59c60,-8 178,-13 355,-13c125,0 212,4 261,11c76,11 125,32 148,65c22,32 25,87 9,164c-2,7 -5,20 -9,39l-251,0c4,-23 5,-39 4,-48s-6,-16 -14,-21c-10,-7 -29,-11 -56,-13c-28,-2 -88,-3 -179,-3c-111,0 -178,4 -204,10c-25,7 -41,26 -48,57c-6,30 2,48 25,55c19,5 109,10 271,15c137,4 228,9 273,15c45,5 80,16 104,32c27,18 44,44 50,76c6,33 2,79 -10,140c-17,80 -40,139 -70,178c-22,28 -49,50 -81,64s-75,23 -128,28c-57,5 -162,8 -315,8c-128,0 -222,-4 -281,-10c-60,-7 -103,-19 -131,-36c-28,-18 -45,-42 -51,-71c-6,-30 -2,-75 10,-136l9,-40zm1245,-565l259,0l-81,388c-18,89 -26,146 -26,169c-1,33 16,55 50,65c35,11 107,16 217,16c90,0 153,-3 189,-8c35,-5 62,-15 80,-31c12,-11 21,-23 28,-39c7,-15 16,-41 26,-79c10,-37 17,-69 23,-93l81,-388l259,0l-81,388c-32,135 -54,224 -69,265c-25,71 -70,123 -135,156c-37,19 -86,32 -147,39c-61,6 -160,10 -297,10c-102,0 -181,-2 -236,-6s-102,-10 -141,-20c-86,-21 -128,-76 -125,-163c1,-34 4,-64 8,-91c4,-28 17,-91 37,-190l81,-388zm1221,0l272,0l-132,629l605,0l-46,216l-877,0l178,-845zm936,0l942,0l-41,198l-687,0l-26,123l652,0l-39,185l-652,0l-28,136l691,0l-43,203l-947,0l178,-845zm1028,0l454,0l313,630l27,0l127,-630l263,0l-178,845l-450,0l-315,-630l-28,0l-127,630l-264,0l178,-845zm1154,565l251,0c-9,42 -6,69 9,81c11,8 26,12 45,14c20,1 82,2 186,3c110,0 176,-1 198,-2s41,-4 54,-10c21,-8 35,-29 43,-64c5,-25 2,-41 -10,-50c-12,-8 -38,-13 -80,-14c-32,0 -99,-2 -201,-7c-105,-5 -173,-8 -205,-9c-62,-2 -109,-8 -140,-18c-31,-9 -54,-25 -68,-47c-25,-36 -28,-97 -10,-182c20,-96 53,-163 97,-202c35,-31 82,-50 141,-59c60,-8 178,-13 355,-13c125,0 212,4 261,11c76,11 125,32 147,65c23,32 26,87 9,164c-1,7 -4,20 -9,39l-251,0c4,-23 6,-39 4,-48c-1,-9 -5,-16 -13,-21c-10,-7 -29,-11 -57,-13s-87,-3 -179,-3c-110,0 -178,4 -203,10c-26,7 -42,26 -48,57c-6,30 2,48 25,55c18,5 109,10 271,15c137,4 227,9 273,15c45,5 79,16 103,32c28,18 44,44 50,76c6,33 3,79 -10,140c-16,80 -40,139 -69,178c-23,28 -50,50 -81,64c-32,14 -75,23 -128,28c-57,5 -162,8 -315,8c-128,0 -222,-4 -282,-10c-59,-7 -103,-19 -130,-36c-28,-18 -45,-42 -51,-71c-6,-30 -3,-75 10,-136l8,-40zm1250,-565l942,0l-42,198l-686,0l-26,123l652,0l-39,185l-652,0l-29,136l692,0l-43,203l-947,0l178,-845z" fill-rule="nonzero" fill="#1f1f1f"/>
   <path d="m13000,0l-1036,4868c-177,842 -1016,1532 -1864,1532l-10100,-3l7,-32l10059,-114c803,0 1597,-653 1764,-1451l1170,-4800zm-6854,4416l1488,0l413,-1971c-461,-179 -788,-625 -788,-1147c0,-374 167,-709 431,-934l-697,0l-847,4052zm2352,-4052c519,0 939,418 939,934s-420,934 -939,934s-940,-418 -940,-934s421,-934 940,-934z" fill="#ef6b00"/>
  </svg>