<svg  id="fndm-vt8qyleric" viewBox="0 0.39999985694885254 238.1999969482422 41.5" xmlns="http://www.w3.org/2000/svg">
   <path d="m31.5,19.5c-0.1,-1.5 -0.5,-3 -1.3,-4.3l-6.8,-11.9c-0.5,-0.9 -0.9,-1.9 -1.1,-2.9l-0.3,0.5c-1.7,2.9 -1.7,6.6 0,9.5l5.5,9.5c1.7,2.9 1.7,6.6 0,9.5l-0.3,0.5c-0.2,-1 -0.6,-2 -1.1,-2.9l-5,-8.7l-3.2,-5.6c-0.5,-0.9 -0.9,-1.9 -1.1,-2.9l-0.3,0.5c-1.7,2.9 -1.7,6.5 0,9.5l5.5,9.5c1.7,2.9 1.7,6.6 0,9.5l-0.3,0.5c-0.2,-1 -0.6,-2 -1.1,-2.9l-6.9,-11.9c-0.9,-1.6 -1.3,-3.4 -1.3,-5.2c-7.3,1.9 -12.4,6 -12.4,10.7c0,6.6 9.8,11.9 21.9,11.9s21.9,-5.3 21.9,-11.9c0.1,-4.5 -4.9,-8.6 -12.3,-10.5zm20.7,20.3c0.1,-1.7 0.3,-2.8 0.8,-4.2c2.3,1.1 5.3,1.6 7.5,1.6c3.8,0 6,-1.2 6,-3.7c0,-2.4 -1.6,-3.5 -5.4,-5.2l-2.1,-0.8c-3.9,-1.7 -6.5,-3.9 -6.5,-8.2c0,-4.7 3.3,-7.7 9.9,-7.7c2.7,0 5.2,0.4 7.5,1.2c-0.1,1.6 -0.4,2.9 -0.8,4.1c-2.2,-0.8 -4.9,-1.2 -6.8,-1.2c-3.6,0 -5.2,1.4 -5.2,3.6c0,2.1 1.6,3.4 4.5,4.6l2.2,0.9c5.2,2.2 7.4,4.6 7.4,8.6c0,4.7 -3.6,8 -10.6,8c-3.3,0 -6.1,-0.5 -8.4,-1.6zm41.1,-19.7l0,20.6l-4.2,0l-0.2,-2.5c-1.2,1.8 -2.9,3 -5.8,3c-5.4,0 -9.1,-4 -9.1,-10.9c0,-7.2 3.9,-11.4 11.5,-11.4c3,0.1 5.5,0.4 7.8,1.2zm-4.5,15.9l0,-12.9c-0.9,-0.2 -2,-0.2 -3.3,-0.2c-4.7,0 -6.9,2.9 -6.9,7.5c0,4.2 1.7,7.2 5.7,7.2c1.9,-0.1 3.3,-0.7 4.5,-1.6zm27.7,-9.1l0,13.8l-4.5,0l0,-13c0,-3.3 -1.1,-4.8 -5.6,-4.8c-1.1,0 -2.3,0.1 -3.6,0.3l0,17.5l-4.5,0l0,-20.6c2.9,-0.7 6.1,-1.2 8.2,-1.2c7.6,0.1 10,3 10,8zm12.6,10.5c1.3,0 2.6,-0.2 3.5,-0.6c-0.1,1.2 -0.3,2.6 -0.5,3.8c-1.2,0.5 -2.6,0.7 -3.8,0.7c-4.4,0 -7.2,-2 -7.2,-7l0,-21.7c1.4,-0.5 3.1,-0.7 4.5,-0.7l0,7.8l7.2,0c-0.1,1.4 -0.2,2.7 -0.4,3.9l-6.8,0l0,10.1c0,2.6 1.3,3.7 3.5,3.7zm24.3,-17.3l0,20.6l-4.2,0l-0.2,-2.5c-1.2,1.8 -2.9,3 -5.8,3c-5.4,0 -9.1,-4 -9.1,-10.9c0,-7.2 3.9,-11.4 11.5,-11.4c3,0.1 5.4,0.4 7.8,1.2zm-4.6,15.9l0,-12.9c-0.9,-0.2 -2,-0.2 -3.3,-0.2c-4.7,0 -6.9,2.9 -6.9,7.5c0,4.2 1.7,7.2 5.7,7.2c1.9,-0.1 3.4,-0.7 4.5,-1.6zm27.8,-9.1l0,13.8l-4.6,0l0,-13c0,-3.3 -1.1,-4.8 -5.6,-4.8c-1.1,0 -2.3,0.1 -3.6,0.3l0,17.5l-4.5,0l0,-20.6c2.9,-0.7 6.1,-1.2 8.2,-1.2c7.6,0.1 10.1,3 10.1,8zm22.9,-15l0,28.8l-4.2,0l-0.2,-2.6c-1.2,1.9 -2.9,3.1 -5.9,3.1c-5.4,0 -9.1,-4 -9.1,-10.9c0,-7.2 3.9,-11.4 11.5,-11.4c1.2,0 2.3,0.1 3.4,0.3l0,-6.8c1.4,-0.4 3,-0.5 4.5,-0.5zm-4.5,24.1l0,-12.7c-1.2,-0.2 -2.4,-0.4 -3.6,-0.4c-4.5,0 -6.6,2.8 -6.6,7.5c0,4.2 1.7,7.2 5.7,7.2c1.8,-0.1 3.3,-0.7 4.5,-1.6zm27.3,-4.1l-14.5,0c0.6,3.7 2.7,5.4 6.8,5.4c2.5,0 5,-0.5 7.2,-1.6c-0.2,1.2 -0.4,2.8 -0.7,4.1c-2.1,0.9 -4.2,1.3 -6.7,1.3c-7.6,0 -11.2,-4.2 -11.2,-11.2c0,-6.1 2.8,-11 10,-11c6.5,0 9.3,4.2 9.3,9.4c0,1.4 0,2.4 -0.2,3.6zm-14.5,-3.8l10.2,0c0,-3.4 -1.8,-5.4 -4.9,-5.4c-3.3,0.1 -5,1.9 -5.3,5.4zm30.4,-8.9c0,1.4 -0.2,3 -0.4,3.9c-1.1,-0.1 -2.1,-0.2 -3.4,-0.2c-1.1,0 -2.2,0.1 -3.3,0.2l0,17.6l-4.5,0l0,-20.6c1.9,-0.7 5.2,-1.2 7.7,-1.2c1.3,0.1 2.9,0.1 3.9,0.3z" fill="#ea1d25"/>
  </svg>