<svg  id="fndm-8n2egkh1wk" viewBox="8 62.39999771118164 584.0214233398438 125.20001220703125" xmlns="http://www.w3.org/2000/svg">
   <path clip-rule="evenodd" d="m186.2,116.6l4.3,-16.9s-20.9,8 -67,3l48.5,-40.3l-27.2,0l-23.6,19.6l-38.3,33c7.1,0.6 13.7,1.4 19.6,2.4c57.8,9.1 83.7,-0.8 83.7,-0.8zm-60.4,-54.2l-24.6,0l-42,34.9c-26.5,1 -40,6.9 -40,6.9l-4.3,16.9c13.5,-5.9 32.5,-7.5 50.9,-7.1l60,-51.6zm14.4,89.7l-42.7,35.5l-25.7,0l63.8,-52.6c32.9,1.3 47.9,-4.4 47.9,-4.4l-4.3,16.9c0.1,0 -12.3,4.7 -39,4.6zm-86.5,35.5l-26.9,0l52.7,-41.4c-47.3,-4.7 -71.5,5.8 -71.5,5.8l4.3,-16.9s29.7,-12.9 87.6,-3.8c6.4,1 12.7,1.8 19.1,2.5l-65.3,53.8zm176.3,-38.2c-4.2,0 -8,-0.4 -11.3,-1.1c-3.3,-0.7 -6.2,-1.6 -8.6,-2.7l2.6,-11.9l1.4,0c2.3,2.1 5,3.1 8,4.2c3.1,1.1 6.4,1.7 9.9,1.7c3.6,0 6.3,-0.5 8,-1.5c1.7,-1 2.6,-1.8 2.6,-3.6c0,-0.7 -0.1,-1.3 -0.4,-1.8c-0.3,-0.5 -0.8,-1 -1.6,-1.5s-1.9,-1 -3.3,-1.4c-1.4,-0.5 -3.2,-1 -5.4,-1.6c-2.4,-0.7 -4.6,-1.4 -6.5,-2.2c-1.9,-0.8 -3.5,-1.7 -4.9,-2.8c-1.3,-1.1 -2.4,-2.3 -3.1,-3.8c-0.7,-1.4 -1,-3.1 -1,-5.1c0,-5 2.2,-8.9 6.6,-11.9c4.4,-3 10.3,-4.4 17.9,-4.4c3.7,0 7.1,0.3 10.3,0.9c3.2,0.6 6,1.4 8.3,2.4l-2.4,11.4l-1.4,0c-1.7,-1.6 -4,-2.3 -6.8,-3.4s-5.9,-1.6 -9.2,-1.6c-3.3,0 -5.8,0.5 -7.6,1.4c-1.8,1 -2.7,1.6 -2.7,3.3c0,0.8 0.1,1.4 0.4,1.9c0.3,0.5 0.8,1 1.6,1.5c0.7,0.4 1.8,0.9 3.4,1.4c1.5,0.5 3.3,1.1 5.4,1.6c5.5,1.5 9.5,3.2 11.9,5.2c2.4,2 3.5,4.7 3.5,8.1c0,2.9 -0.6,5.4 -1.9,7.5c-1.3,2.2 -3,3.9 -5.3,5.3c-2.4,1.4 -5.1,2.5 -8.1,3.2c-3,0.9 -6.5,1.3 -10.3,1.3zm68,-18.6l-2.5,-18.1l-15.4,18.1l17.9,0zm18.8,17.5l-16,0l-1.4,-10.3l-25.7,0l-7.1,10.3l-14.6,0l39.8,-50.3l16.5,0l8.5,50.3zm61.1,0.2l-14,0l-20.8,-34.4l-8.1,34.4l-15.1,0l11.7,-49.6l18.4,0l17.7,28.7l6.7,-28.7l15.2,0l-11.7,49.6zm57,-49.6l-2.2,9.2l-23.9,0l-2.1,8.7l22.2,0l-2.1,9.3l-22.3,0l-2.9,12.3l24,0l-2.1,9.3l-37.2,0l11.4,-48.8l37.2,0zm34.3,14c-0.1,-1.8 -0.9,-3.2 -2.4,-4.1c-1.5,-0.9 -3.8,-1.3 -6.7,-1.3l-5.5,0l-3.1,14.1l4.9,0c4.2,0 7.4,-0.8 9.6,-2.3c2.2,-1.4 3.3,-3.6 3.2,-6.4zm14.6,-0.8c0.2,6 -2.2,10.8 -7.3,14.5c-5.1,3.7 -12.4,5.5 -21.8,5.5l-5.2,0l-3.4,16.4l-13.8,0l10.4,-50.3l19.1,0c3.5,0 6.5,0.2 9.1,0.7c2.6,0.5 4.9,1.2 6.8,2.3c1.9,1.1 3.4,2.6 4.4,4.3c1,1.7 1.6,3.9 1.7,6.6zm108.2,-1.3c0.2,4 -1,7.4 -3.7,10.2c-2.7,2.7 -6.4,4.8 -11.1,6.2l14.3,21.3l-20,0l-13.4,-19.9c4.8,-0.1 8.8,-0.7 13.4,-4.5c2.1,-1.7 3.1,-4.1 3.1,-7.2c0,-2.5 -0.7,-4.2 -2.1,-5.3c-1.4,-1 -3.5,-1.5 -6.3,-1.5l-7.2,0l-4.1,17.6l-0.1,0l-3.8,20.8l-14.8,0l10.8,-50.3l22.4,0c7,0 12.5,1 16.4,3.1c3.9,2.1 6,5.3 6.2,9.5zm-79.2,20l-2.5,-18.1l-15.4,18.1l17.9,0zm18.8,17.5l-16,0l-1.4,-10.3l-25.7,0l-7.1,10.3l-14.5,0l39.7,-50.3l16.5,0l8.5,50.3z" fill-rule="evenodd" fill="#008bd2"/>
  </svg>