<svg xmlns="http://www.w3.org/2000/svg" fill-rule="evenodd" clip-rule="evenodd" image-rendering="optimizeQuality" shape-rendering="geometricPrecision" text-rendering="geometricPrecision" viewBox="-2 1 6599.990234375 3300"><g><rect width="6599.99" height="3300" x="-2" y="1" fill="none"/><g fill-rule="nonzero"><path d="M1132.86 1722.88l0 -3.77c0,0 99.88,-27.79 99.88,-151.69 0,-99.87 -63.6,-163.47 -171.48,-163.47l-155.46 0c-16.02,0 -27.8,11.78 -27.8,32.03l0 498.42c0,19.78 11.78,32.03 27.8,32.03 19.78,0 32.03,-11.77 32.03,-32.03l0 -203.51 127.2 0 119.65 203.51c7.07,11.78 16.02,32.03 40.05,32.03 16.01,0 27.79,-11.77 27.79,-32.03 0,-16.02 -9.42,-26.38 -19.78,-43.81l-99.87 -167.71 -0.01 0zm-72.07 -48.05l-123.43 0 0 -215.29 123.43 0c71.6,0 111.65,40.04 111.65,107.88 0,67.84 -39.58,107.41 -111.65,107.41zm-342.96 -19.79l-131.43 0c-16.02,0 -27.79,11.78 -27.79,27.8 0,16.01 11.77,27.79 27.79,27.79l99.87 0 0 135.67c-19.78,43.82 -63.6,75.85 -119.66,75.85 -75.84,0 -131.43,-56.06 -131.43,-171.48l0 -135.67c0,-115.42 56.06,-171.48 131.43,-171.48 35.81,0 81.5,16.02 107.88,56.06 10.37,16.02 16.02,32.04 35.81,32.04 16.01,0 27.79,-11.78 27.79,-32.04 0,-40.04 -71.6,-111.65 -171.48,-111.65 -111.65,0 -191.26,79.62 -191.26,227.54l0 135.67c0,147.46 79.61,227.54 191.26,227.54 74.91,0 133.79,-37.69 160.17,-79.61 10.37,-16.02 19.32,-40.05 19.32,-51.82l0 -159.7c-0.47,-20.73 -12.25,-32.51 -28.27,-32.51l0 0zm1762.83 -267.11c-111.65,0 -191.27,79.62 -191.27,227.54l0 135.67c0,147.46 79.62,227.54 191.27,227.54 111.65,0 191.26,-79.61 191.26,-227.54l0 -135.67c0,-147.92 -79.61,-227.54 -191.26,-227.54zm131.43 362.74c0,115.42 -56.06,171.48 -131.43,171.48 -75.85,0 -131.44,-56.06 -131.44,-171.48l0 -135.67c0,-115.42 56.06,-171.48 131.44,-171.48 75.84,0 131.43,56.06 131.43,171.48l0 135.67zm-933.23 -350.96c-19.78,0 -32.03,11.78 -32.03,32.03l0 326.94c0,111.65 -51.82,163.47 -123.43,163.47 -71.61,0 -123.43,-51.82 -123.43,-163.47l0 -326.94c0,-19.78 -11.77,-32.03 -32.03,-32.03 -16.02,0 -27.8,11.78 -27.8,32.03l0 326.94c0,143.68 75.85,219.53 183.26,219.53 107.88,0 183.25,-75.85 183.25,-219.53l0 -326.94c0.47,-19.78 -11.77,-32.03 -27.79,-32.03l0 0zm342.95 4.24l-135.67 0c-16.02,0 -27.79,11.78 -27.79,32.03l0 498.42c0,19.78 11.77,32.03 27.79,32.03 19.79,0 32.03,-11.77 32.03,-32.03l0 -163.47 103.64 0c119.66,0 191.27,-71.6 191.27,-183.25 0.47,-112.12 -71.61,-183.73 -191.27,-183.73l0 0zm0 310.92l-103.64 0 0 -255.33 103.64 0c83.86,0 131.44,48.05 131.44,127.66 0,79.62 -47.58,127.67 -131.44,127.67l0 0z"/><path d="M3173.16 1370.97c-26.38,-121.07 16.96,-238.37 147.45,-278.41 148.87,-45.7 335.89,-8.95 466.86,78.2 51.82,34.39 117.3,-32.98 77.25,-85.74 -54.17,-71.13 -265.69,-138.03 -424.92,-132.38 -153.58,2.36 -348.61,75.85 -390.54,270.41 -23.55,112.59 -5.65,248.74 86.21,325.52 197.39,184.67 710.41,82.45 657.18,463.09 -35.34,250.62 -441.42,293.02 -685.44,92.33 -57,-46.64 -136.15,24.03 -81.97,90.45 25.91,31.56 125.31,80.56 194.09,111.18 232.25,88.09 624.67,62.18 690.62,-245.44 20.25,-94.69 12.72,-198.8 -35.33,-284.54 -115.89,-206.81 -366.98,-181.37 -558.25,-265.22 -62.65,-28.27 -122.01,-71.14 -143.21,-139.45l0 0zm1550.83 190.32l-504.06 0 0 -457.43 468.73 0c115.42,0.95 206.34,78.68 225.66,189.85 8.95,51.82 -0.48,100.35 -22.62,147.46 -6.59,13.66 -9.89,27.32 -5.18,41.45 7.54,24.03 23.56,40.05 48.99,43.81 25.91,3.77 44.76,-9.42 58.42,-30.15 50.41,-78.67 61.24,-163.94 37.22,-253.44 -41.46,-154.52 -179.02,-260.05 -339.66,-260.52l-534.69 -0.47c-32.51,0 -58.42,26.38 -58.42,58.42l0 578.97c0,34.86 28.27,62.65 62.66,62.65l603 0c143.21,0 242.14,171.01 209.16,310.92 -29.21,123.9 -130.02,203.52 -259.1,203.99 0,0 -488.52,-0.47 -493.7,-0.95l0 -314.21 0 0c0,-33.45 -27.33,-60.78 -60.77,-60.78 0,0 0,0 0,0 0,0 0,0 0,0 -33.45,0 -60.78,27.33 -60.78,60.78 0,0 0,229.89 0,364.62 0,39.57 32.04,71.61 71.61,71.61l562.48 0c258.16,0 409.38,-250.62 363.22,-457.43 -40.05,-175.72 -190.8,-297.73 -372.17,-299.15l0 0zm1213.54 30.63l-601.12 0c-32.03,0 -57.47,25.91 -57.47,57.47l0 622.31c0,33.45 27.32,60.77 60.77,60.77 33.45,0 60.77,-27.32 60.77,-60.77l0 -559.19 537.05 -0.47c32.97,0 60.3,-26.85 60.3,-60.3 0,-32.97 -26.86,-59.83 -60.3,-59.83l0 0.01zm222.82 -609.6l-822.52 0c-32.51,0 -58.89,26.38 -58.89,58.89l0.94 382.05c0,33.45 26.86,60.3 60.3,60.3 33.45,0 60.3,-26.85 60.3,-60.3l0 -319.4 759.87 -0.94c32.98,0 60.3,-26.85 60.3,-60.3 -0.47,-33.44 -27.32,-60.3 -60.3,-60.3z"/></g></g></svg>