<svg  id="fndm-1595vpvka6" viewBox="215 7 170 235" xmlns="http://www.w3.org/2000/svg">
   <g xmlns="http://www.w3.org/2000/svg" fill-rule="evenodd" fill="none">
    <path d="m237.944,214.693l-4.992,0c-0.208,-1.42 -0.728,-2.537 -1.664,-3.248c-0.936,-0.71 -2.184,-1.218 -4.056,-1.218c-1.456,0 -2.912,0.507 -3.848,0.913c-0.936,0.711 -1.456,1.422 -1.456,2.335c0,1.624 2.392,2.842 6.76,3.756l0.208,0c3.848,0.914 6.448,1.624 7.696,2.842c1.248,0.914 1.976,2.335 1.976,4.467c0,2.538 -0.936,4.466 -2.6,5.888c-1.976,1.42 -4.576,2.131 -7.904,2.131c-3.64,0 -6.448,-0.71 -8.424,-2.131c-2.184,-1.422 -3.12,-3.553 -3.64,-6.294l5.512,0c0,1.421 0.52,2.538 1.664,3.553c1.248,0.913 2.912,1.218 4.784,1.218c1.664,0 2.912,-0.203 3.848,-0.71c0.936,-0.711 1.456,-1.625 1.456,-2.538c0,-1.422 -1.976,-2.538 -5.512,-3.249c-0.728,-0.203 -0.936,-0.203 -1.248,-0.507c-3.848,-0.71 -6.448,-1.625 -7.696,-2.843c-1.248,-0.913 -1.664,-2.537 -1.664,-4.67c0,-2.334 0.728,-4.263 2.6,-5.684c1.664,-1.218 4.368,-1.929 7.488,-1.929c3.328,0 6.032,0.711 7.904,2.132c1.872,1.32 2.808,3.249 2.808,5.786zm22.36,3.35c-0.936,0.914 -2.912,1.624 -5.512,2.132c-0.728,0.203 -1.248,0.203 -1.456,0.203c-1.976,0.508 -3.12,0.914 -4.056,1.624c-0.728,0.71 -0.936,1.624 -0.936,2.842c0,1.219 0.208,2.132 1.248,2.843c0.936,0.913 1.976,1.218 3.328,1.218c2.392,0 4.368,-0.71 5.512,-2.132c1.248,-1.42 1.976,-3.756 1.976,-6.598l0,-2.132l-0.104,0zm5.304,-1.421l0,8.73c0,1.218 0.208,2.335 0.208,3.553c0.208,0.914 0.52,1.929 0.936,2.842l-5.72,0c-0.208,-0.71 -0.52,-1.218 -0.52,-1.928c0,-0.508 -0.208,-1.219 -0.208,-1.93c-1.248,1.625 -2.6,2.843 -4.056,3.554c-1.456,0.71 -3.12,1.218 -5.096,1.218c-2.6,0 -4.576,-0.71 -6.24,-2.132c-1.664,-1.421 -2.392,-3.248 -2.392,-5.685c0,-1.218 0.208,-1.928 0.52,-2.842c0.208,-0.71 0.728,-1.624 1.456,-2.132c1.456,-1.42 4.576,-2.334 9.36,-2.842l1.456,0a10.611,10.611 0 0 0 3.848,-1.218c0.728,-0.508 0.936,-1.218 0.936,-2.132c0,-1.218 -0.52,-1.929 -1.456,-2.538c-0.728,-0.507 -2.184,-0.913 -3.64,-0.913c-1.664,0 -3.12,0.507 -4.056,1.218c-0.936,0.71 -1.664,1.624 -1.976,2.842l-5.512,0c0.52,-2.538 1.664,-4.466 3.64,-5.684c1.976,-1.219 4.576,-1.93 7.696,-1.93c3.848,0 6.76,0.711 8.424,2.336c1.664,1.522 2.392,4.06 2.392,7.613zm20.28,-5.888c-2.184,0 -3.64,0.71 -4.784,2.335c-1.248,1.624 -1.976,3.756 -1.976,6.294s0.728,4.974 1.976,6.294c1.248,1.624 2.6,2.537 4.784,2.537c1.976,0 3.328,-0.913 4.784,-2.537c1.248,-1.625 1.976,-3.756 1.976,-6.294s-0.728,-4.67 -1.976,-6.294c-1.144,-1.624 -2.912,-2.335 -4.784,-2.335zm-12.272,-15.734l5.512,0l0,16.242c0.936,-1.624 2.184,-2.538 3.64,-3.553c1.456,-0.71 3.12,-0.914 5.096,-0.914c2.912,0 5.512,1.219 7.696,3.553c1.976,2.538 2.912,5.685 2.912,9.44c0,3.757 -0.936,6.802 -3.12,9.137c-1.976,2.538 -4.576,3.756 -7.696,3.756c-1.976,0 -3.64,-0.508 -5.096,-1.421c-1.456,-0.71 -2.6,-2.132 -3.328,-3.96l0,4.467l-5.512,0l0,-36.747l-0.104,0zm54.392,25.784l-19.968,0c0,2.538 0.728,4.467 2.184,5.685c1.456,1.42 3.328,2.131 5.512,2.131c1.456,0 2.912,-0.203 3.848,-0.913c1.248,-0.71 1.976,-1.421 2.6,-2.538l5.512,0c-0.936,2.335 -2.392,4.264 -4.368,5.38c-2.184,1.421 -4.576,2.132 -7.488,2.132c-4.056,0 -7.488,-1.218 -9.88,-3.553c-2.392,-2.335 -3.848,-5.38 -3.848,-9.44c0,-3.757 1.248,-7.005 3.64,-9.441c2.392,-2.335 5.512,-3.553 9.672,-3.553c3.848,0 6.968,1.218 9.152,3.553c2.184,2.132 3.328,5.38 3.328,9.643l0,0.914l0.104,0zm-5.824,-3.756c-0.208,-2.132 -0.936,-3.756 -2.184,-4.974c-1.456,-1.218 -2.912,-1.929 -5.096,-1.929c-1.976,0 -3.328,0.71 -4.784,1.929c-1.248,1.218 -1.976,2.842 -2.392,4.974l14.456,0zm31.616,-2.335l-5.304,0c0,-1.42 -0.52,-2.537 -1.456,-3.248c-0.936,-0.71 -2.392,-1.218 -4.056,-1.218c-1.664,0 -2.912,0.507 -3.848,0.913c-0.936,0.711 -1.456,1.422 -1.456,2.335c0,1.624 2.392,2.842 6.76,3.756l0.208,0c3.848,0.914 6.448,1.624 7.696,2.842c1.248,0.914 1.976,2.335 1.976,4.467c0,2.538 -0.936,4.466 -2.912,5.888c-1.664,1.42 -4.368,2.131 -7.696,2.131c-3.64,0 -6.448,-0.71 -8.632,-2.131c-1.976,-1.422 -3.12,-3.553 -3.328,-6.294l5.512,0c0,1.421 0.52,2.538 1.664,3.553c1.248,0.913 2.6,1.218 4.784,1.218c1.664,0 2.912,-0.203 3.848,-0.71c0.936,-0.711 1.456,-1.625 1.456,-2.538c0,-1.422 -1.976,-2.538 -5.824,-3.249c-0.52,-0.203 -0.728,-0.203 -1.248,-0.507c-3.64,-0.71 -6.24,-1.625 -7.488,-2.843c-1.248,-0.913 -1.664,-2.537 -1.664,-4.67c0,-2.334 0.728,-4.263 2.6,-5.684c1.664,-1.218 4.056,-1.929 7.488,-1.929c3.328,0 6.032,0.711 7.904,2.132c1.976,1.32 3.016,3.249 3.016,5.786zm11.96,13.4l0,13.907l-5.512,0l0,-34.311l5.512,0l0,4.263a9.709,9.709 0 0 1 3.328,-3.958c1.456,-0.711 3.12,-1.219 5.096,-1.219c3.12,0 5.824,1.219 7.696,3.756c2.184,2.335 3.12,5.38 3.12,9.136c0,3.756 -0.936,6.802 -3.12,9.441c-1.976,2.335 -4.576,3.553 -7.696,3.553c-1.976,0 -3.328,-0.203 -4.784,-1.218c-1.456,-0.71 -2.6,-1.929 -3.64,-3.35zm6.552,-17.156c-1.976,0 -3.64,0.71 -4.784,2.335c-1.248,1.624 -1.664,3.756 -1.664,6.294c0,2.842 0.52,4.974 1.664,6.598c1.456,1.421 2.912,2.335 4.784,2.335c2.184,0 3.64,-0.914 5.096,-2.335c1.248,-1.624 1.664,-3.756 1.664,-6.294c0,-2.537 -0.52,-4.67 -1.976,-6.293c-1.248,-1.625 -2.912,-2.64 -4.784,-2.64z" fill="#0B0C0B"/>
    <path d="m300,95.152l85,0l0,0.516c0,46.346 -38.193,84.332 -85,84.332c-46.6,0 -84.792,-37.986 -84.792,-84.332l-0.208,-15.278l0,-73.39l56.978,0l0,88.152l39.127,16.515c10.379,4.335 17.54,14.554 17.54,26.012c0,15.483 -12.766,28.18 -28.334,28.18c-15.567,0 -28.333,-12.697 -28.333,-28.18l0,-42.527l28.022,0z" fill="#007EC3"/>
    <path d="m385,46.784l0,-35.043c-9.123,-2.886 -18.764,-4.741 -28.302,-4.741c-46.755,0 -84.698,37.723 -84.698,84l113,0l-38.876,-15.77c-10.574,-4.328 -17.728,-14.532 -17.728,-26.282c0,-15.46 12.752,-28.137 28.302,-28.137c15.55,0 28.302,12.677 28.302,28.137l0,-2.164z" fill="#007EC3"/>
   </g>
  </svg>