<svg  id="fndm-frc7sj3k5z" viewBox="0.5099999904632568 0.2648412883281708 1275.16845703125 374.0023193359375" xmlns="http://www.w3.org/2000/svg">
   <g xmlns="http://www.w3.org/2000/svg" fill="none">
    <path d="m0.51,306.72c3.72,-1.51 6.49,-0.92 9.73,0.39c38,15.36 77.56,25.14 118,31.69a856.1,856.1 0 0 0 151.13,11.15c63.05,-1 125.49,-7.73 186.72,-23.56c21.35,-5.52 42.59,-11.32 62.8,-20.41c25.45,-11.37 49.83,-24.35 69.83,-44.26c12.74,-12.74 22.48,-27 23.58,-46c1.21,-21.07 -8.7,-37.06 -22.1,-51.59c-14.41,-15.63 -32.37,-26.4 -51.8,-36c4,-2.11 7.11,-0.29 9.71,0.9c21.65,9.9 42.78,20.81 60.91,36.52c12.54,10.87 23,23.51 30.09,38.74c10.12,21.89 5.57,42.18 -6.59,61.75c-11.53,18.57 -28.07,31.44 -46.53,42.49c-47.15,28.22 -98.78,43.88 -152.28,53.66c-51.78,9.47 -104.14,12.63 -156.79,12c-50.08,-0.64 -99.67,-5.45 -148.65,-15.8c-46.77,-9.89 -92,-24.18 -133.49,-48.71c-1.37,-0.89 -2.61,-1.81 -4.27,-2.96z" fill="#252222"/>
    <path d="m1002.38,72.19c-12.52,-3.06 -23.25,-9.36 -35,-13.22a650.24,650.24 0 0 0 -110.77,-25.57c-41.75,-6.05 -83.76,-8 -125.95,-8c-55.07,0.05 -109.64,4.54 -163.58,15.91c-42.62,9 -84.3,20.74 -122.75,41.92c-15.34,8.46 -30,18 -42.34,30.58c-29.35,29.91 -30.73,63.19 -3.35,94.91c14.17,16.39 32.74,26.92 51.83,36.51c4.14,2.08 5.54,3 8.57,6.7c-4.46,1.59 -7.37,-2.19 -10.73,-3.69c-28.41,-12.69 -56.11,-26.64 -77.86,-49.77c-14.29,-15.2 -24.29,-32.48 -23.66,-54.09c0.58,-19.86 9.75,-36.1 23.14,-50.16c21.11,-22.19 47.21,-36.69 75.08,-48.53c43.76,-18.58 89.55,-29.28 136.35,-36.62a769.35,769.35 0 0 1 84.05,-8.05a805.54,805.54 0 0 1 128.46,4.7c45,5.15 89.15,13.52 132.08,27.85c25.59,8.54 50.71,18.3 73,34.09a7,7 0 0 1 3.43,4.53zm130.28,293.1c-33,-0.22 -59.17,-25.29 -58.09,-57c1.2,-35.1 27.47,-55.9 59.23,-56.52c32.69,-0.64 58.67,25.53 58.67,56.84a56.18,56.18 0 0 1 -59.81,56.68zm1.89,-90.45c-18.37,-0.14 -33.93,15.6 -33.72,34.11c0.21,18.06 15.11,33.76 32.28,34c16.63,0.25 32.67,-15 33,-31.32c0.37,-20.51 -13.48,-36.66 -31.56,-36.79zm-246.83,-104.18c0.21,-32.67 25.73,-57.59 59.56,-56.35c32.45,1.19 57.54,22.75 57.6,57.65c0,31.74 -25.62,56.32 -58.12,56.09c-35.04,-0.25 -59.24,-23.78 -59.04,-57.39zm26.41,-0.93c-1.34,18.79 11.74,34 30.63,35.65c16.21,1.39 32.37,-13.22 33.65,-30.44c1.45,-19.44 -11.72,-36 -29.66,-37.64c-17.94,-1.64 -35.62,14.42 -34.6,32.42l-0.02,0.01zm-15.29,140.22c0,-15.61 0.13,-31.21 -0.06,-46.82c-0.07,-6.26 1.39,-9.64 8.8,-9.09c12.54,0.92 25.19,-0.83 37.71,0.93c14.22,2 24.67,9.51 28.4,23.58c3.49,13.14 0.22,25 -11.34,33.44c-3.7,2.68 -3.24,4.59 -0.77,7.91c9.46,12.73 18.59,25.7 27.82,38.61c0.92,1.28 2.7,2.45 2,4.21c-0.9,2.47 -3.26,1.07 -5,1.36c-15.55,2.58 -27.23,-1.57 -34.33,-17.05c-3.7,-8.08 -10.13,-14.88 -15,-22.45c-2.63,-4.07 -6.11,-5.63 -10.45,-4.23c-4.62,1.49 -2.11,5.49 -2.13,8.48c-0.06,9.58 -0.18,19.17 0.09,28.74c0.14,5 -1.8,6.7 -6.77,6.56c-22.9,-0.65 -18.65,3.47 -19,-18c-0.09,-12.09 0.03,-24.14 0.03,-36.18zm25.66,-23.09c0.08,13.08 0.08,13.08 11.66,12.95c7.82,-0.09 13.78,-5.22 14,-12c0.22,-6.78 -7,-12.84 -15.19,-12.79c-10.54,0.03 -10.54,0.03 -10.47,11.84zm274.74,44.86c8.36,5.76 15.38,9.14 23,11.13a33.13,33.13 0 0 0 19.37,-0.43c3.94,-1.33 6.92,-3.61 7.68,-7.73c0.83,-4.55 -1.64,-7.92 -5.18,-10.4c-5,-3.48 -10.76,-5.25 -16.35,-7.45c-18.7,-7.37 -27.7,-22.21 -24.09,-39.46c3.08,-14.76 16.9,-25 34.59,-26.06c8.42,-0.5 16.2,1.92 24.06,4.18c3.69,1.07 5.3,3.64 4.74,7.47c-0.71,4.84 0.09,11 -2.6,14.19c-3.4,4 -7.84,-2.13 -12.24,-2.74c-6.31,-0.88 -12.36,-2.15 -18.41,0.77c-6.46,3.13 -7.31,10.11 -1.6,14.39c4.65,3.49 10.31,4.82 15.59,7c11.67,4.79 21.5,11.5 26.11,24.23c6.08,16.76 -3.61,41.15 -27.64,44.12a79.24,79.24 0 0 1 -34.61,-3.07c-6.11,-1.94 -10.61,-4.79 -10.18,-12.58c0.32,-5.03 -1.2,-10.16 -2.24,-17.56z" fill="#0B559C"/>
    <path d="m707.82,195.18c11.59,6.87 22.08,12 34.29,11.27c3.58,-0.2 7.12,-0.56 10.22,-2.58a9.69,9.69 0 0 0 1.62,-15.43c-3.36,-3.38 -7.62,-5.2 -12.1,-6.53a58.47,58.47 0 0 1 -18.82,-9.78c-10.76,-8.21 -15.22,-21.41 -11.62,-33.41c4.07,-13.55 16.26,-23.11 30.88,-24.42c7.75,-0.7 15.19,0.62 22.73,2.2c7.08,1.49 10.21,4.44 9.11,12.34c-1.65,11.76 -1.07,11.61 -12.12,8.86c-5.73,-1.42 -11.46,-3.53 -17.69,-1.27c-4.41,1.6 -7,4.39 -7.65,8.69c-0.65,4.08 2.08,6.33 5.39,8.29c7.77,4.6 16.81,6.18 24.49,11.18c18.91,12.33 22.6,37 7.6,53.16a28.29,28.29 0 0 1 -14,8c-14.42,3.78 -28.69,3.35 -42.67,-2c-5.48,-2.12 -9.06,-5.36 -8.52,-12.16c0.42,-4.87 -0.61,-9.8 -1.14,-16.41zm45.13,170.29c-21.35,0.8 -39.7,-5.91 -52.13,-23.7c-25,-35.71 -4.75,-80.7 39.36,-89.26c11.75,-2.28 22.88,0.29 34,2.82c4.51,1 7.67,4.27 6.2,9.72c-1.29,4.76 1.48,11.33 -2.09,14.09c-3.2,2.48 -8.25,-2.2 -12.61,-3.37c-18.92,-5.1 -39.77,3.05 -45.86,19.3c-10.2,27.25 9.42,50.17 38.1,48.1c5.87,-0.42 12,-0.87 17.44,-4c4,-2.28 5.64,-0.62 4.79,3.79c-0.25,1.34 -0.26,2.72 -0.38,4.09c-1.38,15.58 -2.61,16.78 -18.67,18c-2.68,0.22 -5.38,0.29 -8.15,0.42zm122.66,-1.42c-8.38,2.71 -12.11,-2.56 -14.86,-11c-6,-18.42 -12.77,-36.6 -19.34,-54.84c-0.76,-2.09 -0.3,-5.74 -3.47,-5.65c-2.8,0.07 -3.1,3.47 -3.88,5.67c-6.89,19.26 -14,38.46 -20.32,57.92c-2.11,6.5 -5.3,8.26 -11.78,8.06c-15.26,-0.49 -15.33,-0.19 -9.81,-14.41c11.333,-29.28 22.73,-58.54 34.19,-87.78c1.88,-4.83 3.21,-9.67 10.54,-8.91c6.56,0.69 11.41,1.18 14.27,8.87c11.53,31 23.91,61.6 36,92.36c3.83,9.75 3.83,9.75 -6.85,9.71l-4.69,0zm-38.74,-209.33c-4.56,12.27 -9.21,24.66 -13.77,37.08c-3.29,9 -6.88,17.88 -9.53,27.06c-1.69,5.89 -4.71,7.63 -10.59,7.52c-15.91,-0.29 -16.2,-0.16 -10.62,-14.66c11.57,-30.09 23.73,-60 35.05,-90.13c2.75,-7.35 7.88,-5.14 12.67,-5.49c4.63,-0.35 7.85,0.49 9.95,6c12.76,33.13 26,66.08 39.28,99c1.45,3.61 1.15,5.15 -2.86,5.24c-0.54,0 -1.09,-0.05 -1.64,0c-19.61,0.72 -19.68,0.75 -26.54,-18c-6.1,-16.67 -12,-33.41 -18,-50.12c-0.47,-1.29 -0.55,-2.78 -3.4,-3.5zm165.26,154.72c0,-15.6 0.24,-31.2 -0.13,-46.78c-0.13,-5.88 1.52,-8.24 7.67,-8.54c19,-0.9 19,-1.11 19,17.79c0,20.79 0.14,41.59 -0.2,62.37c-0.09,5.67 1.59,6.88 7.1,6.5c9.81,-0.67 19.68,-0.18 29.53,-0.4c6.06,-0.14 8.71,1.74 8.4,8.55c-0.68,15.11 -0.3,15.12 -15.28,15.12c-16.41,0 -32.82,-0.14 -49.24,0.1c-5.31,0.07 -7.21,-1.63 -7.1,-7.12c0.32,-15.86 0.12,-31.73 0.12,-47.59l0.13,0zm-148.91,-205.47c-6.2,-1.24 -12.28,-4.18 -18.32,-7.29c-6.65,-3.44 -12.92,-5.48 -16,4.47c-1.5,4.78 -4.84,1.54 -7.47,1.21c-3,-0.37 -5,-1.25 -4.38,-5.16c2.21,-13.21 10.31,-24.85 26.67,-16.67c3.4,1.7 6.83,3.36 10.33,4.84c6.3,2.65 12.29,4.27 14.57,-5.06c0.88,-3.6 3.75,-2.2 6.07,-1.91c2.32,0.29 4.88,0.2 5.59,3.53c1.73,8.25 -8.24,21.72 -17.06,22.04z" fill="#0B559C"/>
    <path d="m924.5,286.86c-0.07,-11.81 -0.07,-11.81 10.44,-11.86c8.15,0 15.38,6 15.19,12.79c-0.19,6.79 -6.15,11.93 -14,12c-11.55,0.15 -11.55,0.15 -11.63,-12.93z" fill="#FDFDFD"/>
   </g>
  </svg>