<svg  id="fndm-qi7sh1eqbg" viewBox="94.99996948242188 45.9998893737793 410.0000305175781 159.00030517578125" xmlns="http://www.w3.org/2000/svg">
   <g xmlns="http://www.w3.org/2000/svg" transform="translate(95 46)" fill-rule="evenodd" fill="none">
    <path d="m53.781,85.686c23.347,11.455 46.531,12.665 69.555,3.792a90.6,90.6 0 0 1 1.696,11.696c0.566,2.098 1.373,3.71 2.262,4.84l-7.917,5.082c-5.089,2.743 -5.089,7.421 -2.989,12.987c4.443,8.873 8.886,17.666 13.33,26.54c3.15,5.646 -0.404,9.598 -5.736,5.323c-8.402,-7.421 -16.884,-14.842 -25.285,-22.264c-2.747,-3.145 -6.544,-3.065 -11.229,0c-8.24,7.744 -16.48,15.569 -24.8,23.313c-4.12,4.275 -9.048,1.13 -6.948,-3.953c4.847,-9.76 9.775,-19.44 14.622,-29.2c2.666,-5.163 1.535,-9.358 -2.504,-12.665c-8.16,-5.808 -12.522,-7.099 -20.762,-12.907c-5.574,-2.178 -7.19,-16.455 6.705,-12.584zm85.63,-2.661c6.948,-0.484 10.26,6.291 5.01,11.938l-4.929,3.227c0.323,-6.13 -0.08,-10.084 -0.08,-15.165l-0.001,0z" fill="#3D4A71"/>
    <path d="m125.156,101.671c-2.344,-26.337 -13.743,-47.053 -34.196,-62.149c3.557,-3.131 7.437,-6.102 11.641,-8.912c0.809,-0.562 1.455,-1.205 2.021,-1.847l8.327,4.015c4.931,2.89 8.973,0.481 12.692,-4.095c5.255,-8.351 10.51,-16.702 15.845,-25.053c3.234,-5.54 8.489,-4.657 7.519,2.088c-2.022,11 -3.962,22.001 -5.983,33.001c-1.212,3.935 0.809,7.147 5.82,9.556c10.915,3.05 21.91,6.022 32.823,9.073c5.82,1.285 5.659,7.146 0.242,7.95c-10.833,0.883 -21.746,1.766 -32.58,2.569c-5.82,0.401 -8.81,3.533 -9.538,8.591c-0.728,9.957 0.404,14.293 -0.324,24.25c0.97,6.022 -10.428,14.694 -14.309,0.963zm-47.696,-73.55c-1.86,-5.06 2.102,-9.716 8.731,-8.351l3.476,1.686l-12.207,6.664l0,0.001z" fill="#D2DBF0"/>
    <path d="m63.507,90.208c3.546,-25.147 16.519,-45.089 38.758,-59.745c8.783,-6.567 4.27,-15.857 -4.754,-13.614c-8.703,4.725 -17.405,9.53 -26.188,14.255c-4.754,3.123 -8.944,0.961 -12.811,-3.524c-5.64,-8.089 -11.281,-16.097 -16.922,-24.186c-3.464,-5.366 -8.621,-4.245 -7.413,2.483c2.498,10.891 4.996,21.703 7.494,32.595c1.45,3.924 -0.403,7.128 -5.318,9.77c-10.717,3.524 -21.514,7.048 -32.23,10.572c-5.722,1.522 -5.319,7.368 0.16,7.929c10.878,0.32 21.676,0.72 32.553,1.04c5.802,0.161 8.944,3.044 9.911,8.17c0.484,3.844 0.645,6.807 0.645,9.61c1.611,-0.32 3.626,-0.24 6.124,0.48c3.384,1.522 6.688,2.964 9.991,4.165zm-15.31,9.29l0.081,0.641c-0.483,4.725 6.769,10.812 11.442,6.247c-3.706,-2.163 -7.01,-3.844 -11.522,-6.888l-0.001,0z" fill="#8792C8"/>
    <circle fill="#3D4A71" r="15" cy="72" cx="93"/>
    <path d="m367,102.838l0,-61.583c0,-6.806 3.179,-12.478 8.07,-16.61c4.809,-4.052 11.33,-6.402 17.932,-6.645l14.998,0l0,17.34l-14.264,0c-1.63,0.081 -3.26,0.649 -4.484,1.702c-1.222,0.972 -1.956,2.43 -1.956,4.295l0,61.663l-20.296,0l0,-0.162zm-11.256,-9.124c-16.542,9.835 -42.961,13.704 -59.824,2.338c-6.585,-4.434 -11.002,-10.64 -13.49,-18.46c-1.768,-5.643 -2.57,-12.011 -2.41,-19.105l0,-0.403c1.365,-23.78 19.433,-41.595 43.122,-39.983c31.076,2.016 35.252,24.667 36.858,50.624l-59.343,0l0.723,2.66c3.694,20.878 31.96,23.458 47.458,8.383l6.906,13.946zm-14.775,-40.547c-0.803,-11.85 -8.191,-20.233 -19.032,-20.959c-13.812,-0.242 -20.236,9.754 -21.842,20.959l40.874,0zm-68.779,-16.827c-5.839,-2.876 -25.055,-12.304 -30.244,0.32c-2.838,9.667 8.838,12.623 13.784,13.902c10.46,3.915 19.702,11.105 21.162,22.69c0.649,5.193 -0.487,10.307 -3.162,14.86c-2.433,4.155 -6.244,7.75 -11.108,10.467c-10.946,5.992 -27.892,6.95 -46.622,-3.835l8.432,-14.062c6.892,3.995 31.136,15.74 34.865,-2.876c0.568,-12.703 -28.216,-8.15 -33.73,-31.319c-1.216,-5.033 -0.891,-10.227 0.892,-14.86c1.865,-4.874 5.352,-9.109 10.46,-11.985c9,-5.113 23.19,-5.672 42.081,3.755l-6.81,12.943z" fill="#3D4A71"/>
    <path d="m224.502,122.186c-0.729,0 -1.377,0.154 -1.944,0.462c-0.566,0.309 -1.133,0.694 -1.619,1.234s-0.81,1.157 -1.133,1.85c-0.243,0.695 -0.486,1.466 -0.486,2.237l9.554,0c0,-0.849 -0.081,-1.542 -0.324,-2.236a4.973,4.973 0 0 0 -0.89,-1.851c-0.405,-0.54 -0.81,-0.925 -1.377,-1.234c-0.486,-0.308 -1.053,-0.462 -1.781,-0.462zm1.538,15.807c0.972,0 1.943,-0.077 2.753,-0.232c0.81,-0.154 1.7,-0.462 2.51,-0.77l0,2.775c-0.648,0.386 -1.538,0.617 -2.51,0.848c-0.972,0.232 -2.024,0.309 -3.158,0.309c-1.376,0 -2.59,-0.154 -3.805,-0.54c-1.215,-0.385 -2.186,-1.002 -3.077,-1.85c-0.89,-0.849 -1.538,-1.928 -2.024,-3.239c-0.486,-1.31 -0.729,-2.93 -0.729,-4.858c0,-1.85 0.243,-3.47 0.729,-4.858c0.486,-1.388 1.133,-2.544 1.862,-3.47c0.81,-0.925 1.7,-1.619 2.753,-2.081a7.88,7.88 0 0 1 3.239,-0.694c1.052,0 2.024,0.154 2.914,0.54a6.445,6.445 0 0 1 2.349,1.773a9.888,9.888 0 0 1 1.619,3.161c0.405,1.311 0.567,2.853 0.567,4.704l0,1.311l-12.955,0c0,1.31 0.162,2.39 0.567,3.315c0.323,0.926 0.89,1.62 1.457,2.236c0.648,0.54 1.376,1.003 2.186,1.234c0.89,0.232 1.781,0.386 2.753,0.386zm13.36,-7.634c0,1.157 0.08,2.236 0.324,3.239c0.243,0.925 0.566,1.773 1.052,2.467c0.486,0.694 1.053,1.157 1.7,1.542c0.648,0.386 1.458,0.54 2.349,0.54c0.647,0 1.214,-0.077 1.781,-0.308c0.486,-0.155 0.972,-0.463 1.376,-0.694c0.405,-0.309 0.81,-0.617 1.053,-0.926c0.324,-0.308 0.567,-0.617 0.729,-0.925l0,-10.718c-0.648,-0.694 -1.377,-1.234 -2.186,-1.696a6.158,6.158 0 0 0 -2.672,-0.617c-0.567,0 -1.215,0.154 -1.863,0.385c-0.647,0.232 -1.214,0.694 -1.78,1.311c-0.568,0.617 -0.973,1.465 -1.377,2.468c-0.324,0.925 -0.486,2.313 -0.486,3.932zm-3.239,0c0,-1.388 0.162,-2.699 0.405,-3.778c0.243,-1.08 0.567,-2.082 1.053,-2.853c0.404,-0.848 0.89,-1.542 1.457,-2.082c0.567,-0.54 1.134,-1.003 1.781,-1.388c0.567,-0.386 1.215,-0.617 1.863,-0.771a7.56,7.56 0 0 1 1.78,-0.232c1.134,0 2.106,0.232 2.997,0.617a6.27,6.27 0 0 1 2.267,1.85l0.08,0l0,-12.722l3.078,0l0,31.306l-2.349,0l-0.647,-2.313l-0.081,0c-0.243,0.308 -0.486,0.694 -0.81,1.002c-0.324,0.309 -0.729,0.617 -1.133,0.925c-0.405,0.309 -0.891,0.463 -1.458,0.694c-0.567,0.155 -1.214,0.232 -1.943,0.232c-1.053,0 -2.024,-0.154 -2.996,-0.54s-1.862,-1.002 -2.672,-1.85c-0.729,-0.849 -1.376,-1.928 -1.862,-3.24c-0.567,-1.31 -0.81,-2.93 -0.81,-4.857zm30.12,10.564c-0.971,0 -1.862,-0.154 -2.59,-0.309c-0.81,-0.23 -1.458,-0.54 -2.025,-1.002c-0.567,-0.385 -1.052,-0.925 -1.457,-1.465a8.697,8.697 0 0 1 -0.972,-1.928c-0.162,-0.54 -0.324,-1.08 -0.405,-1.696c-0.08,-0.617 -0.08,-1.311 -0.08,-2.005l0,-12.568l3.076,0l0,12.57c0,1.156 0.162,2.081 0.405,2.852c0.324,0.848 0.81,1.542 1.538,2.082c0.729,0.463 1.62,0.771 2.672,0.771c1.134,0 2.105,-0.308 2.753,-0.848c0.729,-0.54 1.215,-1.31 1.539,-2.236c0.242,-0.694 0.323,-1.542 0.323,-2.622l0,-12.569l3.077,0l0,12.646c0,0.694 0,1.311 -0.08,1.928c-0.082,0.617 -0.163,1.157 -0.325,1.62c-0.243,0.693 -0.566,1.387 -0.971,1.927c-0.405,0.617 -0.89,1.08 -1.539,1.542c-0.566,0.463 -1.295,0.771 -2.105,1.002c-0.89,0.232 -1.781,0.309 -2.834,0.309l0,-0.001zm21.457,-21.59c0.89,0 1.781,0.077 2.59,0.308c0.81,0.231 1.54,0.463 2.106,0.848l0,2.776c-0.81,-0.308 -1.62,-0.617 -2.267,-0.771a9.781,9.781 0 0 0 -2.105,-0.231c-0.729,0 -1.539,0.154 -2.267,0.385c-0.73,0.309 -1.458,0.694 -2.025,1.388c-0.566,0.617 -1.052,1.465 -1.457,2.468c-0.324,1.002 -0.567,2.313 -0.567,3.855c0,1.08 0.162,2.16 0.405,3.084c0.243,0.926 0.648,1.774 1.215,2.468c0.566,0.694 1.214,1.234 2.024,1.62c0.81,0.385 1.7,0.539 2.753,0.539c0.728,0 1.538,-0.077 2.267,-0.231c0.81,-0.155 1.538,-0.463 2.267,-0.772l0,2.776a4.426,4.426 0 0 1 -0.89,0.463c-0.325,0.154 -0.73,0.231 -1.215,0.386c-0.405,0.077 -0.89,0.154 -1.377,0.23c-0.485,0.078 -0.971,0.078 -1.457,0.078c-1.296,0 -2.43,-0.231 -3.563,-0.617c-1.133,-0.385 -2.105,-1.08 -2.915,-1.928a9.097,9.097 0 0 1 -2.024,-3.315c-0.486,-1.311 -0.728,-2.93 -0.728,-4.704c0,-1.388 0.161,-2.544 0.404,-3.624c0.243,-1.08 0.567,-2.005 1.053,-2.853a7.17,7.17 0 0 1 1.538,-2.082c0.567,-0.54 1.215,-1.08 1.944,-1.388c0.647,-0.385 1.376,-0.617 2.105,-0.77a5.981,5.981 0 0 1 2.186,-0.386zm20.647,18.814c-0.324,0.308 -0.648,0.694 -1.053,1.002c-0.405,0.309 -0.81,0.617 -1.295,0.926c-0.486,0.308 -1.053,0.462 -1.62,0.617a7.227,7.227 0 0 1 -1.862,0.23c-0.89,0 -1.781,-0.153 -2.51,-0.462c-0.729,-0.308 -1.376,-0.694 -1.943,-1.31c-0.567,-0.54 -0.972,-1.234 -1.296,-2.083c-0.324,-0.848 -0.485,-1.773 -0.485,-2.775c0,-1.003 0.161,-1.928 0.485,-2.776c0.324,-0.771 0.81,-1.465 1.377,-2.082a5.99,5.99 0 0 1 2.186,-1.311c0.81,-0.309 1.781,-0.463 2.834,-0.463c0.971,0 1.862,0.077 2.672,0.309c0.81,0.154 1.538,0.385 2.186,0.617l0.08,0l0,-1.388c0,-0.54 0,-1.08 -0.08,-1.465c-0.081,-0.463 -0.162,-0.849 -0.324,-1.157c-0.324,-0.694 -0.89,-1.234 -1.62,-1.696c-0.728,-0.463 -1.78,-0.694 -2.995,-0.694c-0.972,0 -1.862,0.077 -2.672,0.308c-0.81,0.154 -1.7,0.463 -2.51,0.771l0,-2.776a8.108,8.108 0 0 1 1.133,-0.462a7.1,7.1 0 0 1 1.377,-0.386c0.486,-0.077 0.972,-0.154 1.538,-0.231c0.486,-0.077 1.053,-0.077 1.539,-0.077c1.862,0 3.4,0.385 4.615,1.079c1.214,0.771 2.105,1.696 2.59,2.93a8.67,8.67 0 0 1 0.406,1.542c0.08,0.54 0.162,1.157 0.162,1.85l0,13.726l-2.591,0l-0.324,-2.313zm-0.162,-6.786c-0.567,-0.154 -1.215,-0.308 -2.024,-0.54c-0.81,-0.154 -1.62,-0.23 -2.591,-0.23c-1.296,0 -2.348,0.308 -3.077,0.925c-0.729,0.617 -1.134,1.542 -1.134,2.776c0,0.616 0.081,1.156 0.243,1.696c0.162,0.463 0.405,0.848 0.729,1.157c0.324,0.308 0.729,0.54 1.134,0.694c0.404,0.154 0.89,0.23 1.376,0.23c0.648,0 1.295,-0.076 1.862,-0.308a9.399,9.399 0 0 0 1.539,-0.77c0.404,-0.31 0.81,-0.54 1.133,-0.849c0.324,-0.308 0.567,-0.54 0.648,-0.694l0,-4.087l0.162,0zm17.003,-12.028c0.89,0 1.782,0.077 2.591,0.308c0.81,0.231 1.539,0.463 2.105,0.848l0,2.776c-0.81,-0.308 -1.619,-0.617 -2.267,-0.771a9.781,9.781 0 0 0 -2.105,-0.231c-0.729,0 -1.538,0.154 -2.267,0.385c-0.729,0.309 -1.457,0.694 -2.024,1.388c-0.567,0.617 -1.053,1.465 -1.458,2.468c-0.324,1.002 -0.566,2.313 -0.566,3.855c0,1.08 0.161,2.16 0.404,3.084c0.243,0.926 0.648,1.774 1.215,2.468c0.567,0.694 1.214,1.234 2.024,1.62c0.81,0.385 1.7,0.539 2.753,0.539c0.729,0 1.538,-0.077 2.267,-0.231c0.81,-0.155 1.539,-0.463 2.267,-0.772l0,2.776a4.46,4.46 0 0 1 -0.89,0.463c-0.324,0.154 -0.73,0.231 -1.215,0.386c-0.405,0.077 -0.89,0.154 -1.376,0.23c-0.486,0.078 -0.972,0.078 -1.458,0.078c-1.295,0 -2.429,-0.231 -3.562,-0.617c-1.134,-0.385 -2.106,-1.08 -2.915,-1.928a9.097,9.097 0 0 1 -2.024,-3.315c-0.486,-1.311 -0.73,-2.93 -0.73,-4.704c0,-1.388 0.163,-2.544 0.406,-3.624c0.243,-1.08 0.566,-2.005 1.052,-2.853a7.17,7.17 0 0 1 1.539,-2.082c0.566,-0.54 1.214,-1.08 1.943,-1.388c0.648,-0.385 1.376,-0.617 2.105,-0.77c0.81,-0.31 1.457,-0.386 2.186,-0.386zm9.878,21.05l0,-20.51l3.077,0l0,20.51l-3.077,0zm-0.08,-25.291l0,-3.702l3.076,0l0,3.702l-3.077,0l0.001,0zm22.751,15.036c0,-1.234 -0.161,-2.39 -0.404,-3.393c-0.243,-1.002 -0.648,-1.85 -1.215,-2.545c-0.486,-0.694 -1.133,-1.233 -1.781,-1.542c-0.729,-0.385 -1.458,-0.54 -2.267,-0.54c-0.81,0 -1.62,0.155 -2.267,0.54c-0.73,0.386 -1.296,0.848 -1.782,1.542c-0.486,0.694 -0.89,1.543 -1.214,2.545a14.012,14.012 0 0 0 -0.405,3.393c0,1.233 0.162,2.39 0.405,3.392c0.243,1.003 0.647,1.851 1.214,2.468c0.486,0.694 1.134,1.234 1.782,1.542c0.728,0.386 1.457,0.54 2.267,0.54c0.81,0 1.619,-0.154 2.267,-0.54c0.729,-0.385 1.295,-0.848 1.781,-1.542c0.486,-0.694 0.89,-1.542 1.215,-2.468a14,14 0 0 0 0.404,-3.392zm3.158,0c0,1.619 -0.243,3.084 -0.648,4.395a10.577,10.577 0 0 1 -1.78,3.393c-0.81,0.925 -1.701,1.696 -2.754,2.236c-1.133,0.54 -2.348,0.77 -3.643,0.77c-1.377,0 -2.672,-0.23 -3.725,-0.77a7.81,7.81 0 0 1 -2.834,-2.236a10.577,10.577 0 0 1 -1.781,-3.393a14.827,14.827 0 0 1 -0.648,-4.395c0,-1.62 0.243,-3.085 0.648,-4.395a10.577,10.577 0 0 1 1.781,-3.393c0.81,-0.926 1.7,-1.697 2.834,-2.236c1.134,-0.54 2.348,-0.771 3.644,-0.771c1.376,0 2.59,0.23 3.724,0.77a7.81,7.81 0 0 1 2.834,2.237a10.577,10.577 0 0 1 1.781,3.393c0.324,1.31 0.567,2.775 0.567,4.395zm7.773,-7.403c0.405,-0.462 0.81,-0.925 1.215,-1.31a9.24,9.24 0 0 1 1.376,-1.08a5.542,5.542 0 0 1 1.7,-0.694a8.545,8.545 0 0 1 2.025,-0.231c0.89,0 1.62,0.154 2.429,0.385c0.728,0.232 1.376,0.694 1.943,1.234c0.567,0.54 0.972,1.31 1.295,2.236c0.324,0.925 0.486,2.082 0.486,3.393l0,13.725l-3.077,0l0,-13.185c0,-1.774 -0.323,-3.008 -0.971,-3.856c-0.648,-0.77 -1.539,-1.156 -2.753,-1.156c-1.053,0 -2.024,0.308 -3.077,0.925c-0.971,0.617 -1.862,1.542 -2.51,2.622l0,14.573l-3.077,0l0,-20.51l2.348,0l0.648,2.93l0,-0.001zm29.31,15.422c-0.323,0.308 -0.647,0.694 -1.052,1.002c-0.405,0.309 -0.81,0.617 -1.295,0.926c-0.486,0.308 -1.053,0.462 -1.62,0.617a7.227,7.227 0 0 1 -1.862,0.23c-0.89,0 -1.781,-0.153 -2.51,-0.462c-0.729,-0.308 -1.376,-0.694 -1.943,-1.31c-0.567,-0.54 -0.972,-1.234 -1.296,-2.083c-0.324,-0.848 -0.486,-1.773 -0.486,-2.775c0,-1.003 0.162,-1.928 0.486,-2.776c0.324,-0.771 0.81,-1.465 1.377,-2.082a5.99,5.99 0 0 1 2.186,-1.311c0.81,-0.309 1.781,-0.463 2.834,-0.463c0.971,0 1.862,0.077 2.672,0.309c0.81,0.154 1.538,0.385 2.186,0.617l0.08,0l0,-1.388c0,-0.54 0,-1.08 -0.08,-1.465c-0.081,-0.463 -0.162,-0.849 -0.324,-1.157c-0.324,-0.694 -0.89,-1.234 -1.62,-1.696c-0.728,-0.463 -1.78,-0.694 -2.995,-0.694c-0.972,0 -1.863,0.077 -2.672,0.308c-0.81,0.154 -1.7,0.463 -2.51,0.771l0,-2.776a8.108,8.108 0 0 1 1.133,-0.462a7.1,7.1 0 0 1 1.377,-0.386c0.486,-0.077 0.971,-0.154 1.538,-0.231c0.486,-0.077 1.053,-0.077 1.539,-0.077c1.862,0 3.4,0.385 4.615,1.079c1.214,0.771 2.105,1.696 2.59,2.93a8.67,8.67 0 0 1 0.406,1.542c0.08,0.54 0.162,1.157 0.162,1.85l0,13.726l-2.591,0l-0.324,-2.313l-0.001,0zm-0.161,-6.786c-0.567,-0.154 -1.215,-0.308 -2.024,-0.54c-0.81,-0.154 -1.62,-0.23 -2.591,-0.23c-1.296,0 -2.349,0.308 -3.077,0.925c-0.729,0.617 -1.134,1.542 -1.134,2.776c0,0.616 0.081,1.156 0.243,1.696c0.162,0.463 0.405,0.848 0.729,1.157c0.324,0.308 0.729,0.54 1.133,0.694c0.405,0.154 0.891,0.23 1.377,0.23c0.648,0 1.295,-0.076 1.862,-0.308a9.399,9.399 0 0 0 1.539,-0.77c0.404,-0.31 0.81,-0.54 1.133,-0.849c0.324,-0.308 0.567,-0.54 0.648,-0.694l0,-4.087l0.162,0zm9.068,9.022l0,-31.306l3.077,0l0,31.306l-3.077,0z" fill="#D2DBF0"/>
   </g>
  </svg>