<svg xmlns="http://www.w3.org/2000/svg" fill-rule="evenodd" clip-rule="evenodd" image-rendering="optimizeQuality" shape-rendering="geometricPrecision" text-rendering="geometricPrecision" viewBox="-2 1 6599.990234375 3300"><g><rect width="6599.99" height="3300" x="-2" y="1" fill="none"/><g><g fill-rule="nonzero"><path d="M5936.61 1465.51c13.42,-98.72 -48.36,-170.79 -142.65,-170.97 -113.69,-0.18 -227.38,0.06 -341.05,-0.18 -13.03,0 -26.27,-0.38 -39.02,-2.65 -34.03,-6.05 -56.68,-33.21 -57.71,-67.39 -1.03,-34.12 20.29,-62.85 53.26,-71.37 6.75,-1.74 13.89,-3.01 20.88,-3.01 134.75,0.47 269.71,-3.16 404.22,2.95 144.1,6.51 259.3,128.85 263.16,273.45 2.95,109.56 2.89,219.33 0.18,328.9 -3.28,131.26 -93.05,247.46 -222.34,263.54 -114.55,14.24 -233.55,15.33 -348.01,1.38 -141.09,-17.19 -227.8,-145.81 -217.24,-291.47 10.94,-150.58 111.04,-255.58 256.9,-261.5 110.48,-4.52 221.28,-1.39 331.94,-1.69 11.88,0 23.86,0 37.48,0l0 0.01zm0 135.01c-116.81,0 -231.27,-1.71 -345.7,0.65 -62.97,1.33 -104.85,41.79 -118.38,104.99 -20.77,96.85 32.58,177.31 121.12,179.55 69.25,1.74 138.61,1.62 207.86,0 73.35,-1.68 125.02,-44.06 133.84,-117.23 6.45,-54.12 1.26,-109.59 1.26,-167.96z"/><path d="M790.23 2030.99c-65.39,0 -130.83,0.97 -196.16,-0.3 -49.13,-0.97 -78.71,-27.16 -80.83,-67.68 -1.92,-38.11 21.85,-69.13 59.89,-74.38 21.74,-3.01 44.12,-2.36 66.16,-2.42 100.59,-0.23 201.22,-0.77 301.82,0.18 46.01,0.44 83.84,-12.98 105.52,-55.53 23.24,-45.51 21.03,-91.78 -6.28,-134.93 -19.67,-31.09 -49.67,-45.21 -86.86,-45.36 -68.42,-0.18 -136.87,0.97 -205.08,-2.27 -149.32,-7.14 -253.96,-111.95 -252.31,-249.83 1.62,-140.62 109.92,-245.2 261.15,-248.44 107.59,-2.36 215.3,-0.92 322.94,-0.24 40.41,0.24 68.37,19.79 77.48,50.58 8.88,29.94 -1.03,64.91 -28.14,79.28 -17.69,9.35 -39.9,13.89 -60.13,14.18 -99.57,1.39 -199.16,0.53 -298.79,0.68 -71.43,0.06 -113.01,38.25 -113.51,103.9 -0.47,64.47 42.26,105.88 111.83,107.09 71.34,1.27 143.01,-1.8 214.15,2.89 142.35,9.44 238.76,119.12 237.5,264.99 -1.21,142.18 -99.13,247.64 -240.31,255.01 -63.14,3.34 -126.64,0.57 -189.99,0.57 -0.05,0.76 -0.05,1.38 -0.05,2.03l0 0z"/><path d="M2789.56 1981.47c46.92,16.31 88.71,30.5 130.24,45.21 47.27,16.78 67.27,53.21 52.94,95.23 -14.31,41.82 -52.15,58.93 -100.75,42.5 -111.21,-37.57 -222.25,-75.7 -332.85,-115.08 -52.82,-18.84 -106.91,-36.39 -156.25,-62.55 -177.07,-93.93 -261.71,-285.87 -220.66,-491.13 38.4,-192 193.8,-334.41 387.12,-356.5 287.6,-32.86 527.49,211.72 489.92,510.51 -18.87,150.58 -99.74,257.31 -235.44,323.55 -3.39,1.63 -6.48,3.72 -14.27,8.26l0 0zm-479.1 -381.13c1.74,13.86 2.54,40.32 8.61,65.45 26.4,109.03 88.1,189.19 197.75,223.49 102.93,32.17 194.94,6.46 272.68,-66.54 126.67,-118.88 128.8,-338.86 5.87,-462.4 -103.13,-103.67 -266.96,-110.72 -377.09,-15.1 -73.49,63.76 -105.96,146.6 -107.82,255.1z"/><path d="M4938.57 1590.67c0,228.15 -143.45,409.38 -361.99,445.92 -303.74,50.76 -521.39,-159.94 -527.26,-434.86 -4.33,-204.26 117.03,-393.34 318.66,-448.72 297.64,-81.67 570.59,128.05 570.59,437.66zm-733.71 0.06c3.19,25.83 3.93,52.29 9.97,77.45 26.99,113.1 90.98,195.38 207.01,224.34 114.22,28.52 214.02,-2.15 289.31,-94.58 66.36,-81.46 82.85,-176.95 63.88,-278.7 -34.24,-183.88 -213.67,-286.72 -385.55,-221.87 -111.39,41.97 -182.44,156.13 -184.62,293.36l0 0z"/><path d="M5210.25 1591.7c0,123.78 0.06,247.47 -0.06,371.25 -0.06,52.14 -28.25,81.43 -78.6,82.16 -52.05,0.71 -81.25,-28.31 -81.25,-82.54 -0.26,-248.51 -0.2,-496.98 0,-745.48 0.06,-52.91 30.85,-83.52 81.79,-82.55 49.51,0.92 78.06,31.09 78.12,82.91 0.06,124.78 0,249.53 0,374.25l0 0z"/><path d="M3943.44 1454.45c0,71.43 0.18,142.86 0,214.35 -0.62,208.33 -149.08,364.75 -356.94,378.17 -85.97,5.55 -169.17,-3.45 -245.79,-44.62 -122.42,-65.91 -184.44,-172.44 -188.1,-308.87 -4.36,-160.85 -1.21,-321.91 -0.91,-482.88 0.06,-43.88 31.08,-71.1 79.33,-70.98 48.28,0.11 78.3,26.98 78.42,71.84 0.29,150.94 -0.59,301.79 0.41,452.73 0.62,87.92 30.14,163.18 111.22,206.92 84.76,45.69 172.97,44.98 256.85,-1.89 75.5,-42.14 105.64,-113.63 106.29,-197.24 1.21,-151.88 2.92,-303.92 -0.71,-455.68 -1.8,-75.8 74.26,-97.59 122.8,-72.82 25.48,12.98 37.72,34.15 37.49,63.62 -0.8,82.37 -0.36,164.83 -0.36,247.35l0 0z"/><path d="M1456.69 1650.75c0,40.37 -4.95,76.23 1.03,110.24 13.6,77.68 73.47,124.43 154.25,124.96 100.6,0.73 201.16,0.11 301.76,0.23 10.03,0 20.18,-0.06 30.05,1.27 38.23,5.07 65.51,34.92 65.45,70.72 -0.06,36.57 -26.49,67.13 -65.21,70.37 -35.98,3.04 -72.31,2.54 -108.47,2.42 -81.46,-0.24 -163.01,1.33 -244.29,-2.33 -169.04,-7.67 -286.22,-119.97 -296.54,-289.61 -5.81,-95.12 -5.75,-191.47 2.24,-286.31 16.58,-197.78 119.3,-297.82 317.49,-316.9 92.48,-8.93 184.56,-5.43 274.66,21.8 202.28,61.22 224.76,245.1 185.44,375.17 -24.8,82.16 -94.46,112.63 -173.97,114.81 -134.72,3.69 -269.47,2.36 -404.22,3.15 -12.8,0.06 -25.66,0 -39.67,0l0 0.01zm-6.16 -135.9c36.07,0 66.97,0 97.88,0 102.4,0 204.86,0.29 307.25,-0.21 40.44,-0.18 60.31,-12.59 69.54,-40.49 27.64,-83.94 -19.76,-170.2 -105.96,-187.84 -76.36,-15.57 -153.77,-15.39 -230.34,-0.18 -71.6,14.25 -114.63,59.05 -127.43,130.95 -5.43,30.43 -7.02,61.52 -10.94,97.77l0 0z"/></g></g></g></svg>