<svg  id="fndm-xnhtywkbtz" viewBox="-0.02611398696899414 0.10000000149011612 710.1622924804688 439.4617614746094" xmlns="http://www.w3.org/2000/svg">
   <g xmlns="http://www.w3.org/2000/svg" fill="none">
    <path d="m223.07,253.23c-2.83,-3.38 1,-4.86 2.29,-6.55c20.07,-26.29 40.84,-52.05 60.34,-78.75c12.62,-17.27 27.51,-32.76 39.27,-50.58c11.94,-18.1 27.23,-33.51 39.59,-51.2c8.52,-12.2 17.64,-23.91 26.66,-35.71c6.12,-8 13.65,-14.81 18.36,-24c2.5,-4.89 8.37,-1.37 12.5,-2.74c2.43,0.17 4.87,0.46 7.3,0.49c12.94,0.18 25.89,0.29 38.83,0.43c0.04,56.707 0.087,113.417 0.14,170.13c0,3.81 0.25,7.63 0.39,11.44c1.31,3.37 4.23,1.83 6.37,1.84c16,0.14 32,0.18 48,0c5,-0.06 7.2,1.25 7.09,6.84c-0.34,17.12 -0.3,34.26 0,51.38c0.1,5.43 -1.75,6.93 -7,6.83c-16,-0.29 -32,0.11 -48,-0.2c-5.69,-0.11 -7.22,1.82 -7.12,7.37c0.35,17.8 -0.06,35.61 0.28,53.41c0.12,5.76 -1.86,7.31 -7.35,7.18c-14,-0.33 -28,-0.42 -41.92,0c-6.18,0.18 -7.57,-2.09 -7.47,-7.83c0.34,-18 0.08,-36.06 0.23,-54.09c0,-4.07 -0.79,-6.11 -5.58,-6.09c-59.947,0.147 -119.9,0.193 -179.86,0.14c-1.1,-0.04 -2.22,0.14 -3.34,0.26zm188.55,-147.44l-1.58,-0.77c-6.37,11.44 -15.83,20.34 -23.87,30.43c-12.74,16 -23,33.87 -37.19,48.74c-0.8,0.85 -1.79,2 -0.76,2.82a6.38,6.38 0 0 0 3.74,0.81c18.24,0.05 36.48,0 54.72,0.06c3.2,0 5,-0.72 5,-4.45c-0.1,-25.88 -0.06,-51.76 -0.06,-77.64zm152.14,-0.91a155.26,155.26 0 0 1 41.25,-68.48a81.63,81.63 0 0 1 19.07,-13.62c15,-7.94 30.16,-15.89 47.07,-19.37a10.93,10.93 0 0 0 6.66,-0.94l9.68,-1.21l2.59,-0.44l2.75,-0.22l2.36,-0.29l12.75,-0.21c2.49,1.08 1.92,3.34 1.93,5.27c0,18.49 -0.11,37 0.12,55.47c0.06,4.77 -1.62,5.94 -6.2,6.14c-20.48,0.89 -40.24,4.25 -57.54,16.66c-19.53,14 -28,33.89 -31.78,56.66c-1,6 2.81,5.45 6.48,5.45l79.83,0c9.12,0 9.13,0 9.14,9.19c0,16.23 -0.33,32.48 0.2,48.7c0.24,7.1 -2.17,8.64 -8.86,8.54c-26.61,-0.38 -53.22,0 -79.82,-0.32c-6.38,-0.09 -8.05,2 -8,8.07c0.19,30.89 0.52,61.8 -0.2,92.68c-0.71,30.21 -8.73,58.78 -25.37,84.09a136.63,136.63 0 0 1 -44.3,42.14c-3.46,2.08 -4,-0.85 -5,-2.32c-4.77,-6.87 -7,-14.86 -9.72,-22.65c-3.2,-9.14 -6.65,-18.21 -10.45,-27.1c-1.95,-4.55 -1.3,-7 3,-9.82c21.36,-13.81 31.53,-34.36 34.65,-59c2.64,-20.88 0.81,-41.85 1.22,-62.77c0.28,-14.42 -0.14,-28.85 -0.24,-43.27l0,-46c0.5,-11.74 0.993,-23.483 1.48,-35.23c0.09,-0.9 0.17,-1.8 0.25,-2.7a6.92,6.92 0 0 0 1,-5.47c1.34,-4.87 2.69,-9.74 3,-14.82a2.75,2.75 0 0 0 1,-2.81z" fill="#242021"/>
    <path d="m104.11,3.95c61.05,0 122.11,0.1 183.16,-0.17c6.86,0 8.82,1.72 8.6,8.63c-0.53,16.89 -0.4,33.8 -0.07,50.69c0.11,5.52 -1.32,7.33 -7.07,7.27c-26.35,-0.3 -52.71,-0.15 -79.07,-0.13c-2.7,0 -5.39,0.2 -8.09,0.3c-5.86,-1.77 -6.54,1.32 -5.58,5.95c-0.047,52 -0.09,103.967 -0.13,155.9c0,21.6 0.17,43.19 0.26,64.78c-0.13,6.26 -0.41,12.52 -0.33,18.78c0,3.46 -1.28,4.81 -4.7,4.79c-15.68,-0.073 -31.347,-0.073 -47,0c-3.44,0 -4.85,-1.37 -4.81,-4.78c0,-2.66 -0.33,-5.33 -0.52,-8c0.14,-28.86 0.37,-57.71 0.42,-86.56c0.1,-48 0,-96.06 0.23,-144.09c0,-5.62 -1.47,-7.59 -7.2,-7.2c-7.18,0.5 -14.42,0.07 -21.64,0.18c-22.25,0.33 -39,10.81 -51.76,28.4a37.69,37.69 0 0 0 -5.56,11.17c-1.45,4.84 -3.37,6.57 -7.88,3.41c-12.81,-9 -27.79,-13.74 -41.62,-20.75c-3.87,-2 -4.56,-3.77 -3,-7.81c10.2,-26.52 27.43,-47.25 50.93,-63a7.73,7.73 0 0 0 4.42,-2.71a0.6,0.6 0 0 0 0.73,-0.36a8,8 0 0 0 4.75,-2.44l1.82,-0.82c4,-1.18 8.35,-1.42 11.29,-5l2.44,-1.34l26.98,-5.09z" fill="#242021"/>
    <path d="m695.19,0.31l-2.36,0.29l2.36,-0.29z" fill="#84AFAA"/>
   </g>
  </svg>