<svg  id="fndm-r62hr7dmec" viewBox="176.2540283203125 391.4315185546875 242.76797485351562 36.80621337890625" xmlns="http://www.w3.org/2000/svg">
   <g xmlns="http://www.w3.org/2000/svg" fill-rule="evenodd" fill="#05315a">
    <path d="m250.527,413.151c-1.658,2.072 -5.028,6.02 -9.122,5.614c-8.652,-0.858 -6.87,-14.06 1.125,-16.666c5.033,-1.64 7.906,1.099 8.992,4.803l15.078,0.009l-1.238,6.212l-14.835,0.028zm112.805,-20.29l0.208,-1.009l-14.373,-0.013c-0.744,6.261 -1.857,17.167 -5.075,22.778c-7.042,12.277 -33.476,12.205 -37.002,0.587c-1.501,-4.945 2.749,-20.317 3.07,-23.25l-13.874,-0.007c-0.257,0.94 -2.453,11.618 -2.773,13.411l-12.535,-0.032l2.524,-13.345l-14.075,-0.014l-1.555,8.283c-10.383,-8.916 -19.878,-11.455 -33.26,-5.846c-5.854,2.453 -7.603,5.494 -9.18,6.127c-1.436,-2.411 -5.42,-5.102 -8.941,-6.576c-7.773,-3.251 -19.108,-2.957 -26.734,0.23c-3.514,1.47 -7.665,3.988 -9.116,6.74c-1.965,3.73 0.39,7.537 4.92,9.325c9.594,3.787 15.867,2.242 19.698,4.072c8.02,3.832 -10.05,9.026 -10.935,1.103l-18.07,0.02c0.193,13.564 26.683,14.136 36.39,10.514c4.765,-2.042 6.807,-4.001 10.763,-6.801c1.077,0.831 2.246,2.464 3.468,3.546c4.15,3.672 9.574,5.297 15.492,5.51c7.225,0.26 13.49,-1.625 19.251,-5.354c0.864,-0.56 1.445,-0.987 2.179,-1.514l-1.178,6.337l14.188,-0.021l2.357,-12.154l12.245,0.014l-1.962,12.082l122.876,0.088l2.063,-10.963l-18.852,0.017c0.516,-0.378 1,-0.778 1.581,-1.194c4.769,-3.41 11.247,-7.503 16.212,-10.908c5.056,-3.467 3.675,-1.189 5.695,-12.661l-39.135,-0.014l-2.12,10.208l19.002,0.037c-0.78,0.666 -6.477,4.393 -7.742,5.254c-2.533,1.725 -5.401,3.64 -7.894,5.31c-5.297,3.497 -4.066,3.954 -8.926,3.967l-13.2,0.014l4.325,-23.898zm-141.974,15.67c-7.542,-5.39 -16.792,-3.393 -20.929,-4.754c-4.794,-1.578 -3.663,-4.71 0.966,-5.608c3.349,-0.65 8.212,-0.25 8.712,3.822l13.974,0.036c-1.202,1.623 -1.985,4.221 -2.723,6.503l0,0.001z"/>
    <path d="m320.395,411.733c2.554,3.305 8.316,2.521 11.22,0c2.564,-2.226 4.244,-15.897 4.795,-19.792l-13.423,0c-0.687,3.245 -4.006,17.962 -2.592,19.792z"/>
   </g>
  </svg>