<svg xmlns="http://www.w3.org/2000/svg" fill-rule="evenodd" clip-rule="evenodd" image-rendering="optimizeQuality" shape-rendering="geometricPrecision" text-rendering="geometricPrecision" viewBox="-2 1 6600 3300"><g><rect width="6600" height="3300" x="-2" y="1" fill="#373435"/><g fill="#fefefe" fill-rule="nonzero"><path d="M3497.6 1781.83c6.71,-15.09 13.42,-30.19 20.13,-43.61 62.06,-140.9 124.12,-281.79 186.18,-422.69 3.36,-6.71 6.71,-10.07 15.1,-10.07 57.03,0 115.74,0 172.77,0 8.38,0 10.06,3.36 10.06,11.75 0,204.63 0,410.95 0,615.58 0,8.39 -1.68,11.75 -11.74,11.75 -35.22,0 -68.77,0 -104,0 -10.06,0 -11.74,-3.36 -11.74,-11.75 0,-159.34 0,-318.69 0,-478.04 0,-5.03 1.68,-10.07 -1.67,-16.77 -10.07,25.16 -21.81,46.96 -31.87,70.44 -62.07,140.9 -125.81,283.48 -187.87,424.37 -3.35,8.39 -8.39,11.75 -16.77,11.75 -26.84,0 -53.68,0 -80.52,0 -10.06,0 -13.41,-3.36 -16.77,-11.75 -72.13,-161.02 -142.57,-322.05 -214.7,-483.07 -1.68,-3.36 -3.35,-6.71 -6.71,-10.07 0,5.03 0,8.39 0,13.42 0,159.35 0,318.7 0,476.37 0,11.74 -1.68,15.1 -15.1,15.1 -33.54,-1.68 -68.77,0 -102.31,0 -8.39,0 -10.07,-1.68 -10.07,-10.07 0,-206.31 0,-410.95 0,-617.26 0,-8.39 3.36,-10.07 11.74,-10.07 58.71,0 117.42,0 176.13,0 8.38,0 11.74,3.36 15.09,10.07 67.1,152.64 134.19,305.27 201.28,457.91 0,1.68 1.68,3.36 3.36,6.71l0 0z"/><path d="M1145.95 2263.23c-6.71,0 -13.42,0 -20.13,0 -223.09,0 -444.5,0 -667.59,0 0,-3.35 0,-8.39 0,-11.74 0,-154.31 0,-308.63 0,-461.27 0,-11.74 1.68,-15.09 13.42,-15.09 97.29,0 196.25,0 293.54,0 5.03,0 10.06,0 16.78,0 1.1,0 2.22,0 3.32,0.48l0.03 -0.49 0.94 0c-1.42,-0.03 -2.86,-0.24 -4.3,-1.67 -63.74,-57.03 -125.8,-114.06 -189.54,-171.09 -45.29,-40.26 -90.57,-80.52 -137.54,-124.13 20.13,-18.45 40.26,-36.9 60.39,-57.03 98.96,-97.29 197.92,-196.25 296.89,-295.21 20.12,-20.13 43.61,-36.9 70.45,-50.32 45.28,-25.17 92.25,-36.91 142.57,-36.91 219.73,0 439.47,0 657.53,0 10.05,0 13.41,1.68 13.41,11.74 0,156 0,310.32 0,466.31 0,10.07 -3.36,11.74 -13.41,11.74 -104,0 -208,0 -312,0l-3.35 0 -0.11 0 -0.15 0 -0.16 0 -0.16 0 -0.16 0 -0.15 0 -0.16 0 -0.16 0 -0.16 0 -0.15 0 -0.16 0 -276.76 0c-38.58,0 -70.45,13.42 -97.29,40.26 -43.61,45.29 -88.9,88.9 -132.51,132.51 -25.16,25.16 -48.64,48.64 -72.12,73.8l3.35 0c93.93,0 187.86,0 281.8,0 30.19,0 58.7,-10.06 80.51,-31.87 72.13,-70.45 142.57,-142.57 213.02,-213.02 1.68,0 3.36,0 5.03,0 30.2,28.51 60.39,55.35 92.26,83.87 75.48,67.09 149.28,135.86 224.76,202.96 6.71,6.71 6.71,10.06 0,15.09 -87.22,87.22 -176.12,176.12 -265.02,265.02 -35.22,35.23 -67.09,70.45 -105.67,102.32 -13.42,11.74 -26.84,23.48 -45.29,30.19 -40.26,20.13 -82.19,31.88 -125.8,33.55l0 0zm-359.69 -488.11l0.11 0 0.05 0 0.11 0 0.05 0 0.1 0 0.06 0 0.1 0 0.05 0 0.11 0zm578.68 -246.57c0,0 0,0 0,0l0 0z"/><path d="M5983.44 1694.61c53.67,82.19 105.67,164.38 157.67,246.57 -3.36,3.36 -6.71,1.68 -11.74,1.68 -41.94,0 -83.87,0 -125.8,0 -8.39,0 -11.74,-3.36 -16.78,-10.07 -45.29,-72.12 -90.57,-145.93 -135.86,-218.05 -5.03,-6.71 -8.39,-10.07 -16.78,-10.07 -67.09,0 -132.51,0 -199.6,0 -10.06,0 -13.42,1.68 -13.42,13.42 0,70.45 0,140.9 0,213.03 0,10.06 -3.35,11.74 -11.74,11.74 -35.23,0 -72.13,0 -107.35,0 -8.39,0 -10.07,-1.68 -10.07,-10.07 0,-206.31 0,-410.95 0,-617.26 0,-8.39 1.68,-10.07 10.07,-10.07 135.86,0 270.05,0 405.92,1.68 38.58,0 75.48,8.39 109.03,23.48 68.77,31.87 103.99,85.55 109.02,161.03 6.71,95.61 -41.93,169.41 -132.51,199.61 -1.67,1.67 -5.03,1.67 -10.06,3.35l0 0zm-216.38 -276.76c-43.61,0 -88.9,0 -132.51,0 -8.39,0 -11.74,1.67 -11.74,10.06 0,53.68 0,105.67 0,159.35 0,8.39 1.68,10.06 10.06,10.06 85.55,0 169.41,0 254.96,0 20.13,0 41.93,-3.35 60.38,-11.74 33.55,-15.09 50.33,-38.58 50.33,-75.48 0,-36.9 -15.1,-63.74 -50.33,-80.51 -20.12,-8.39 -41.93,-11.74 -63.73,-11.74 -36.91,0 -77.16,0 -117.42,0l0 0z"/><path d="M2613.63 1506.75c-68.77,-78.84 -159.34,-100.65 -258.31,-98.97 -31.87,0 -62.06,3.36 -92.25,15.1 -18.45,6.71 -35.23,16.77 -46.97,31.87 -20.13,26.84 -11.74,58.71 18.45,73.8 31.87,15.1 65.42,18.45 100.64,23.48 70.45,10.07 140.9,15.1 209.67,30.2 33.55,6.71 65.42,16.77 93.93,33.54 53.68,30.2 75.49,77.16 72.13,135.87 -3.35,85.54 -53.67,135.87 -127.48,167.74 -48.64,21.8 -98.96,30.19 -152.64,31.87 -92.25,5.03 -181.15,-8.39 -266.7,-46.97 -46.96,-21.81 -90.57,-50.32 -122.44,-92.25 -5.03,-5.04 -6.71,-8.39 0,-15.1 25.16,-25.16 50.32,-52 73.8,-78.84 5.03,-5.03 6.71,-6.71 11.74,0 57.03,72.13 135.87,107.35 226.45,117.42 53.67,6.71 107.35,3.35 159.34,-13.42 18.45,-5.03 33.55,-13.42 48.65,-26.84 28.51,-25.16 26.83,-75.48 -15.1,-92.25 -31.87,-13.42 -67.09,-16.78 -100.64,-21.81 -70.45,-10.06 -142.58,-13.42 -211.35,-30.19 -21.8,-5.03 -43.61,-11.74 -65.41,-21.81 -80.52,-35.22 -104,-102.31 -82.19,-182.83 15.09,-58.71 57.03,-93.93 110.7,-119.09 68.77,-31.87 142.58,-38.58 216.38,-33.55 68.77,5.03 132.51,20.13 194.57,52 33.55,16.77 62.07,38.58 85.55,68.77 3.35,3.36 5.03,5.03 1.68,10.07 -28.52,30.19 -55.36,57.03 -82.19,82.19l-0.01 0z"/><path d="M4046.09 1624.16c0,-102.32 0,-204.64 0,-306.96 0,-8.38 1.68,-11.74 11.75,-11.74 134.18,0 268.37,0 402.56,1.68 41.93,0 82.19,10.06 119.09,28.52 55.36,28.51 87.23,72.12 95.61,134.18 8.39,62.07 1.68,120.77 -41.93,169.42 -33.55,38.58 -77.16,55.35 -127.48,65.41 -21.81,3.36 -45.29,5.03 -68.77,5.03 -83.87,0 -166.06,0 -249.93,0 -10.06,0 -11.74,3.36 -11.74,11.75 0,70.45 0,139.22 0,209.67 0,10.06 -1.68,13.41 -11.74,11.74 -35.23,0 -68.77,0 -104,0 -11.74,0 -15.09,-1.68 -15.09,-13.42 1.67,-100.64 1.67,-202.96 1.67,-305.28l0 0zm273.41 -26.84c40.26,0 80.52,0 120.77,0 21.81,0 43.61,-3.35 62.06,-13.42 55.36,-25.16 65.42,-102.31 20.13,-140.89 -23.48,-20.13 -52,-25.16 -80.51,-25.16 -85.55,0 -169.41,0 -254.96,0 -8.38,0 -10.06,3.35 -10.06,10.06 0,52 0,105.67 0,157.67 0,10.07 3.35,11.74 13.42,11.74 41.93,0 85.54,0 129.15,0l0 0z"/><path d="M5408.11 1944.54c-45.29,0 -90.58,0 -134.19,0 -6.71,0 -6.71,-5.04 -10.07,-10.07 -20.12,-41.93 -41.93,-85.54 -62.06,-127.48 -3.35,-8.38 -8.39,-10.06 -16.77,-10.06 -110.71,0 -221.41,0 -332.12,0 -8.39,0 -13.42,3.35 -16.77,10.06 -20.13,43.61 -41.94,85.55 -63.74,129.16 -1.68,5.03 -5.03,8.39 -11.74,8.39 -41.94,0 -83.87,0 -125.8,0 -1.68,0 -1.68,0 -5.04,-1.68 5.04,-10.07 8.39,-18.45 13.42,-28.52 80.52,-162.7 162.71,-327.08 243.22,-489.78 18.45,-36.91 35.22,-72.13 53.67,-109.03 3.36,-6.71 6.71,-10.07 15.1,-10.07 41.93,0 83.87,0 125.8,0 6.71,0 10.07,1.68 13.42,8.39 102.32,207.99 206.32,414.31 308.63,622.3 3.36,3.35 5.04,5.03 5.04,8.38l0 0.01zm-389.15 -508.24c-41.93,83.86 -82.19,164.38 -122.45,248.25 82.19,0 162.71,0 244.9,0 -40.26,-82.19 -80.52,-164.39 -122.45,-248.25l0 0z"/><path d="M2816.59 1625.84c0,-102.32 0,-204.64 0,-306.96 0,-10.06 1.68,-13.42 13.42,-13.42 35.23,0 70.45,0 105.68,0 8.38,0 10.06,1.68 10.06,10.07 0,206.31 0,410.95 0,617.26 0,8.39 -3.35,10.07 -11.74,10.07 -35.23,0 -70.45,0 -105.67,0 -10.07,0 -11.75,-3.36 -11.75,-13.42 0,-98.97 0,-201.28 0,-303.6z"/></g></g></svg>