<svg  id="fndm-zr8ag4qdjj" viewBox="55 68 489 110.99981689453125" xmlns="http://www.w3.org/2000/svg">
   <g xmlns="http://www.w3.org/2000/svg" fill-rule="evenodd" fill="#00593C">
    <path d="m246.403,167l-191.403,0l18.682,-34l1.613,1.105l1.614,0.935l1.783,1.02l1.868,0.935l1.953,0.935l1.953,0.935l2.123,0.935l2.123,0.765l2.208,0.85l2.293,0.85l2.377,0.68l2.378,0.765l2.548,0.765l2.547,0.595l2.633,0.68l2.717,0.68l2.717,0.51l2.802,0.595l2.888,0.51l2.887,0.425l3.057,0.51l3.057,0.34l3.057,0.425l3.227,0.34l3.227,0.255l3.226,0.255l3.312,0.255l3.397,0.17l3.481,0.17l3.482,0.085l3.482,0.085l7.218,0l3.566,-0.085l3.652,-0.085l3.566,-0.17l3.567,-0.17l3.566,-0.255l3.567,-0.255l3.566,-0.255l3.567,-0.34l3.481,-0.425l3.482,-0.34l3.482,-0.51l3.481,-0.425l3.482,-0.51l3.396,-0.595l3.397,-0.51l3.312,-0.68l3.312,-0.595l3.311,-0.68l3.227,-0.68l3.312,-0.765l3.142,-0.765l3.142,-0.765l3.142,-0.85l3.142,-0.85l2.972,-0.935l2.972,-0.85l2.972,-0.935l2.887,-1.02l2.887,-0.935l2.803,-1.02l2.717,-1.02l-18.597,33.915zm22.304,-40.548l-1.772,0.59l-1.687,0.505l-1.771,0.505l-1.687,0.421l-1.687,0.421l-1.687,0.337l-1.687,0.337l-1.687,0.337l-1.602,0.253l-1.687,0.252l-1.603,0.169l-1.603,0.168l-1.687,0.085l-1.518,0.084l-1.603,0.084l-1.602,0l-2.362,-0.084l-2.277,-0.084l-2.193,-0.169l-2.11,-0.253l-2.023,-0.252l-1.94,-0.421l-1.94,-0.421l-1.772,-0.506l-1.687,-0.505l-1.602,-0.674l-1.519,-0.59l-1.434,-0.758l-1.35,-0.758l-1.264,-0.842l-1.097,-0.926l-1.097,-0.927l-0.927,-0.926l-0.844,-1.095l-0.675,-1.095l-0.59,-1.095l-0.506,-1.18l-0.422,-1.263l-0.253,-1.263l-0.169,-1.347l-0.084,-1.348l0.084,-1.432l0.253,-1.432l0.338,-1.516l0.422,-1.516l0.59,-1.6l0.675,-1.6l0.843,-1.6l0.928,-1.6l1.012,-1.517l1.097,-1.516l1.18,-1.516l1.35,-1.6l1.35,-1.432l1.518,-1.516l1.603,-1.516l1.687,-1.432l1.771,-1.432l1.856,-1.432l1.94,-1.347l1.94,-1.348l2.108,-1.263l2.194,-1.264l2.277,-1.263l2.277,-1.095l2.446,-1.179l2.447,-1.01l2.53,-1.011l2.615,-0.927l2.615,-0.842l2.783,-0.842l2.784,-0.758l2.783,-0.59l2.952,-0.59l2.868,-0.505l3.037,-0.421l3.036,-0.337l3.121,-0.253l3.121,-0.168l5.315,0l2.108,0.084l2.109,0.084l2.024,0.253l2.109,0.169l1.94,0.252l2.024,0.337l1.94,0.337l-9.278,16.93l-0.675,-0.759l-0.76,-0.758l-0.674,-0.674l-0.76,-0.673l-0.758,-0.59l-0.844,-0.674l-0.843,-0.505l-0.928,-0.506l-0.506,-0.252l-0.422,-0.253l-0.506,-0.253l-0.59,-0.168l-0.507,-0.168l-0.59,-0.253l-0.506,-0.169l-0.59,-0.084l-0.591,-0.168l-0.675,-0.084l-0.59,-0.085l-0.675,-0.084l-0.675,-0.084l-0.675,0l-0.759,-0.084l-0.759,0l-1.265,0.084l-1.265,0l-1.266,0.084l-1.265,0.253l-1.18,0.168l-1.182,0.253l-1.18,0.253l-1.181,0.42l-1.181,0.338l-1.097,0.42l-1.096,0.422l-1.012,0.505l-1.097,0.506l-1.012,0.59l-1.012,0.589l-1.013,0.673l-1.012,0.59l-0.928,0.758l-0.927,0.674l-0.844,0.758l-0.843,0.758l-0.844,0.842l-0.843,0.842l-0.844,0.843l-0.759,0.926l-0.76,0.927l-0.674,0.926l-0.675,0.927l-0.674,1.01l-0.675,1.01l-0.59,1.012l-0.591,1.01l-0.675,1.18l-0.59,1.179l-0.506,1.179l-0.422,1.095l-0.422,1.095l-0.337,1.01l-0.169,1.011l-0.253,0.926l-0.084,1.011l-0.085,0.842l0,0.927l0.085,0.758l0.084,0.842l0.169,0.758l0.253,0.674l0.253,0.674l0.421,0.674l0.422,0.59l0.422,0.589l0.59,0.505l0.59,0.505l0.676,0.421l0.759,0.422l0.759,0.337l0.843,0.336l0.928,0.337l0.928,0.253l1.012,0.168l1.097,0.169l1.18,0.084l1.182,0.084l2.193,0l0.843,-0.084l0.928,-0.084l0.928,-0.084l0.928,-0.169l0.927,-0.084l0.844,-0.253l0.928,-0.168l0.928,-0.253l0.843,-0.252l0.844,-0.253l0.843,-0.253l1.687,-0.59l1.518,-0.589l1.519,-0.59l1.35,-0.59l1.264,-0.589l1.097,-0.59l1.012,-0.505l0.844,-0.505l0.674,-0.337l0.506,-0.337l-7.928,14.487z"/>
    <path d="m179.888,70l29.95,0l-27.554,49.494l16.43,0l1.37,-0.085l1.368,-0.084l1.37,0l1.369,-0.085l1.369,-0.085l1.37,-0.084l1.368,-0.085l1.455,-0.17l1.455,-0.084l1.54,-0.169l1.54,-0.17l1.712,-0.168l-7.103,12.775l-62.897,0l33.888,-61zm-75.705,61l-1.683,0l-1.768,-0.084l-1.684,-0.084l-1.768,-0.085l-1.684,-0.168l-1.768,-0.169l-1.684,-0.168l-1.684,-0.168l-1.684,-0.337l-1.6,-0.253l-1.599,-0.337l-1.6,-0.253l-1.6,-0.42l-1.515,-0.338l-1.43,-0.42l-1.432,-0.422l8.335,-15.329l0.59,0.421l0.589,0.421l0.505,0.422l0.673,0.337l0.59,0.42l0.589,0.338l0.673,0.336l0.674,0.422l0.59,0.252l0.673,0.337l0.758,0.337l0.673,0.253l0.758,0.252l0.673,0.253l0.758,0.253l0.758,0.252l0.842,0.253l0.757,0.169l0.758,0.252l0.842,0.169l0.842,0.084l0.842,0.168l0.842,0.169l0.842,0.084l1.768,0.253l1.768,0.084l1.852,0.168l3.452,0l1.43,-0.168l1.348,-0.084l1.347,-0.169l1.179,-0.252l1.263,-0.253l1.094,-0.337l1.01,-0.337l0.926,-0.421l0.927,-0.421l0.757,-0.421l0.674,-0.506l0.337,-0.168l0.336,-0.253l0.253,-0.252l0.252,-0.253l0.253,-0.253l0.168,-0.252l0.169,-0.253l0.168,-0.253l0.169,-0.337l0.084,-0.337l0.084,-0.337l0.084,-0.252l0,-0.59l-0.084,-0.252l-0.084,-0.253l-0.084,-0.253l-0.169,-0.252l-0.084,-0.169l-0.253,-0.253l-0.168,-0.168l-0.253,-0.253l-0.252,-0.168l-0.169,-0.169l-0.589,-0.336l-0.59,-0.337l-0.589,-0.337l-0.589,-0.253l-1.263,-0.421l-1.094,-0.421l-0.758,-0.253l-0.758,-0.253l-0.757,-0.252l-0.842,-0.253l-0.842,-0.337l-0.926,-0.337l-0.926,-0.252l-1.01,-0.337l-1.01,-0.337l-1.095,-0.421l-1.01,-0.337l-0.927,-0.421l-1.01,-0.421l-0.842,-0.337l-0.842,-0.421l-0.926,-0.422l-0.758,-0.505l-0.757,-0.421l-0.758,-0.421l-0.59,-0.506l-0.673,-0.42l-0.59,-0.506l-0.505,-0.505l-0.505,-0.506l-0.505,-0.505l-0.337,-0.59l-0.42,-0.59l-0.253,-0.505l-0.253,-0.673l-0.168,-0.59l-0.168,-0.674l0,-0.59l-0.085,-0.757l0.085,-0.674l0.084,-0.674l0.168,-0.758l0.253,-0.758l0.252,-0.842l0.421,-0.758l0.421,-0.842l1.01,-1.685l1.18,-1.6l1.346,-1.516l1.431,-1.432l1.6,-1.348l1.684,-1.263l1.852,-1.263l1.852,-1.095l2.02,-1.095l2.106,-1.01l2.189,-0.843l2.189,-0.842l2.357,-0.843l2.357,-0.673l2.358,-0.59l2.525,-0.59l2.442,-0.505l2.526,-0.421l2.441,-0.337l2.526,-0.337l2.526,-0.168l2.525,-0.169l2.526,-0.084l4.883,0l2.357,0.168l2.358,0.085l2.273,0.252l2.273,0.337l2.105,0.337l2.105,0.421l1.936,0.506l-8.587,15.665l-0.927,-0.673l-1.01,-0.674l-1.01,-0.674l-1.01,-0.505l-1.095,-0.59l-1.094,-0.505l-1.095,-0.506l-1.179,-0.42l-1.178,-0.422l-1.263,-0.337l-1.263,-0.337l-1.263,-0.252l-1.431,-0.169l-1.431,-0.168l-1.432,-0.084l-1.6,-0.085l-1.346,0.085l-1.263,0.084l-1.179,0.084l-1.094,0.168l-1.095,0.253l-0.926,0.253l-0.842,0.337l-0.842,0.252l-0.673,0.337l-0.674,0.337l-0.505,0.337l-0.505,0.337l-0.42,0.337l-0.338,0.421l-0.252,0.337l-0.253,0.337l-0.168,0.252l-0.084,0.253l-0.085,0.253l0,0.674l0.085,0.252l0.084,0.253l0.168,0.168l0.169,0.253l0.168,0.253l0.337,0.252l0.252,0.253l0.421,0.169l0.421,0.252l0.505,0.253l0.59,0.253l0.589,0.336l0.59,0.253l0.757,0.253l1.515,0.59l1.768,0.589l1.937,0.674l2.105,0.674l2.357,0.842l2.442,0.758l1.178,0.42l1.095,0.422l1.01,0.421l0.926,0.506l0.926,0.42l0.758,0.506l0.758,0.421l0.757,0.505l0.59,0.506l0.589,0.505l0.505,0.506l0.505,0.505l0.421,0.505l0.337,0.59l0.337,0.505l0.252,0.505l0.253,0.59l0.168,0.59l0.084,0.59l0.085,0.589l0.084,0.59l0,0.589l-0.084,0.59l0,0.589l-0.169,0.59l-0.168,0.673l-0.168,0.59l-0.169,0.59l-0.252,0.673l-0.337,0.59l-0.253,0.59l-0.337,0.59l-0.673,1.094l-0.758,1.095l-0.757,1.095l-0.842,1.01l-1.01,1.011l-1.011,1.01l-1.094,1.012l-1.095,0.926l-1.263,1.01l-1.263,0.843l-1.43,0.842l-1.348,0.927l-1.431,0.758l-1.6,0.842l-1.515,0.758l-1.684,0.674l-1.684,0.758l-1.684,0.59l-1.768,0.589l-1.852,0.59l-1.852,0.59l-1.852,0.504l-1.937,0.422l-2.02,0.42l-2.02,0.338l-2.021,0.337l-2.021,0.336l-2.189,0.169l-2.105,0.253l-2.105,0.084l-2.188,0.084l-2.274,0zm197.915,11.768l-1.508,11.224l-9.048,0l10.556,-11.224zm5.278,-14.768l-39.376,40l10.221,0l8.043,-8.439l13.488,0l-1.172,8.439l13.154,0l3.266,-40l-7.624,0zm21.348,46.128l-0.864,0l-0.951,-0.084l-0.52,-0.084l-0.431,-0.084l-0.433,-0.084l-0.432,-0.168l-0.432,-0.168l-0.346,-0.168l-0.346,-0.168l-0.26,-0.168l-0.086,-0.168l-0.086,-0.168l-0.087,-0.168l0,-0.672l0.087,-0.168l0.086,-0.252l0.173,-0.252l0.26,-0.252l0.259,-0.252l0.346,-0.252l0.346,-0.252l0.432,-0.252l0.432,-0.252l0.865,-0.504l0.95,-0.42l1.038,-0.42l0.951,-0.336l1.643,0.588l1.297,0.504l1.038,0.42l0.778,0.336l0.605,0.252l0.432,0.252l0.173,0.168l0.173,0.084l0.086,0.084l0.087,0.084l0.173,0.252l0.086,0.252l0,0.42l-0.086,0.168l-0.087,0.168l-0.086,0.168l-0.087,0.168l-0.345,0.252l-0.346,0.252l-0.432,0.252l-0.52,0.168l-0.518,0.168l-0.519,0.168l-0.519,0.084l-0.518,0.168l-0.606,0.084l-0.518,0.084l-1.038,0.084l-1.297,0l0,0.084zm8.3,-24.024l0.173,-0.504l0.26,-0.588l0.346,-0.672l0.345,-0.672l0.433,-0.672l0.432,-0.672l0.432,-0.672l0.52,-0.672l0.518,-0.672l0.519,-0.588l0.605,-0.504l0.605,-0.504l0.26,-0.252l0.345,-0.168l0.346,-0.168l0.346,-0.168l0.346,-0.084l0.26,-0.084l1.297,0l0.258,0.084l0.173,0.084l0.087,0.168l0.086,0.168l0.087,0.168l0.086,0.168l0,0.672l-0.086,0.336l-0.26,0.336l-0.173,0.504l-0.259,0.588l-0.26,0.672l-0.345,0.672l-0.346,0.672l-0.432,0.672l-0.433,0.756l-0.518,0.672l-0.52,0.672l-0.518,0.588l-0.26,0.336l-0.259,0.252l-0.259,0.252l-0.26,0.252l-0.345,0.252l-0.346,0.168l-0.26,0.168l-0.345,0.168l-0.346,0.084l-0.346,0.084l-0.26,0.084l-0.951,0l-0.259,-0.084l-0.173,-0.168l-0.173,-0.168l-0.086,-0.168l-0.087,-0.168l-0.086,-0.168l0,-0.672l0.086,-0.336l0.087,-0.252l-0.087,-0.252zm26.976,-12.432l-12.969,0l-0.346,-0.084l-0.432,-0.168l-0.519,-0.084l-0.605,-0.084l-0.692,-0.084l-0.778,-0.084l-0.865,-0.084l-2.075,0l-1.037,0.084l-1.038,0.084l-0.95,0.168l-0.952,0.168l-0.95,0.168l-0.865,0.252l-0.865,0.252l-0.865,0.252l-0.778,0.336l-0.778,0.336l-0.778,0.336l-0.778,0.336l-0.692,0.42l-0.692,0.42l-0.691,0.42l-0.605,0.42l-0.606,0.42l-0.518,0.42l-0.52,0.504l-0.518,0.42l-0.432,0.504l-0.433,0.504l-0.432,0.504l-0.346,0.504l-0.346,0.504l-0.345,0.504l-0.087,0.252l-0.26,0.504l-0.259,0.504l-0.172,0.42l-0.173,0.42l-0.173,0.504l-0.087,0.42l-0.086,0.42l0,1.68l0.086,0.336l0.087,0.336l0.086,0.336l0.087,0.252l0.086,0.252l0.173,0.252l0.173,0.252l0.173,0.252l0.26,0.252l0.431,0.42l0.433,0.42l0.432,0.336l0.432,0.252l0.779,0.42l0.691,0.252l-1.383,0.672l-1.297,0.756l-0.692,0.336l-0.605,0.336l-0.605,0.336l-0.519,0.42l-0.519,0.336l-0.518,0.42l-0.433,0.42l-0.346,0.42l-0.345,0.42l-0.26,0.42l-0.26,0.42l-0.172,0.42l-0.087,0.42l0,0.672l0.087,0.336l0.086,0.252l0.173,0.252l0.26,0.252l0.259,0.252l0.26,0.252l0.345,0.252l0.346,0.252l0.346,0.252l0.778,0.42l0.951,0.504l-1.816,0.336l-2.075,0.504l-1.124,0.252l-1.124,0.252l-1.21,0.336l-1.124,0.336l-1.124,0.42l-1.037,0.42l-0.52,0.252l-0.432,0.252l-0.432,0.252l-0.432,0.252l-0.432,0.252l-0.346,0.252l-0.346,0.252l-0.346,0.336l-0.26,0.336l-0.259,0.336l-0.173,0.336l-0.173,0.336l-0.086,0.42l0,0.672l0.086,0.336l0.087,0.336l0.173,0.336l0.26,0.336l0.259,0.252l0.259,0.252l0.346,0.252l0.346,0.252l0.432,0.252l0.432,0.252l0.433,0.252l0.518,0.252l0.52,0.168l0.518,0.168l0.605,0.168l0.605,0.168l0.606,0.168l1.296,0.252l1.384,0.252l1.47,0.168l1.47,0.168l1.47,0.084l3.285,0l1.815,-0.084l0.865,-0.084l0.865,-0.084l0.864,-0.084l0.865,-0.168l0.864,-0.168l0.865,-0.168l0.865,-0.168l0.864,-0.168l0.865,-0.168l0.864,-0.252l0.779,-0.252l0.778,-0.252l0.778,-0.252l0.778,-0.336l0.692,-0.336l0.691,-0.336l0.692,-0.336l0.692,-0.42l0.605,-0.42l0.519,-0.42l0.518,-0.42l0.52,-0.42l0.431,-0.504l0.433,-0.504l0.346,-0.504l0.345,-0.504l0.26,-0.504l0.26,-0.588l0.086,-0.42l0.086,-0.42l0,-1.176l-0.086,-0.42l-0.087,-0.336l-0.086,-0.336l-0.173,-0.336l-0.26,-0.336l-0.259,-0.336l-0.26,-0.252l-0.345,-0.252l-0.346,-0.252l-0.346,-0.252l-0.432,-0.252l-0.432,-0.252l-0.433,-0.252l-0.519,-0.252l-0.518,-0.252l-1.124,-0.504l-1.21,-0.504l-1.298,-0.504l-1.383,-0.504l-1.556,-0.504l-1.557,-0.504l-1.21,-0.42l-0.951,-0.336l-0.692,-0.252l-0.432,-0.252l-0.173,-0.084l-0.086,-0.168l-0.087,-0.084l-0.086,-0.084l0,-0.588l0.086,-0.168l0.087,-0.168l0.086,-0.168l0.346,-0.252l0.346,-0.252l0.691,-0.42l0.433,-0.252l0.519,0.084l0.605,0.084l2.594,0l0.778,-0.084l0.778,-0.084l0.778,-0.084l0.778,-0.168l0.778,-0.168l0.778,-0.168l0.779,-0.168l0.778,-0.252l0.778,-0.252l0.778,-0.252l0.692,-0.252l0.691,-0.336l0.692,-0.336l0.692,-0.336l0.691,-0.42l0.606,-0.42l0.605,-0.42l0.605,-0.42l0.519,-0.42l0.519,-0.42l0.518,-0.504l0.433,-0.42l0.432,-0.504l0.432,-0.504l0.346,-0.504l0.346,-0.504l0.346,-0.504l0.26,-0.504l0.258,-0.504l0.26,-0.504l0.173,-0.504l0.173,-0.672l0.086,-0.588l0,-0.924l-0.086,-0.42l-0.087,-0.336l-0.086,-0.336l-0.173,-0.252l4.842,0.168l3.458,-4.956zm5.213,-0.09l-17.213,29.418l12.023,0l1.47,-2.244l1.471,-2.16l0.692,-1.08l0.779,-1.164l0.778,-1.08l0.779,-0.998l0.778,-1.08l0.779,-0.997l0.865,-0.998l0.778,-0.914l0.778,-0.997l0.865,-0.914l0.865,-0.831l0.865,-0.831l0.606,-0.582l0.605,-0.582l0.692,-0.498l0.606,-0.499l0.605,-0.498l0.606,-0.416l0.605,-0.415l0.606,-0.416l0.692,-0.332l0.519,-0.25l0.692,-0.249l0.605,-0.25l0.606,-0.165l0.605,-0.084l0.52,-0.083l0.605,-0.083l0.519,0.083l0.865,0l0.346,0.083l4.93,-8.31l-0.346,-0.083l-0.432,-0.083l-1.557,0l-0.692,0.083l-0.606,0.083l-0.605,0.083l-0.606,0.25l-0.605,0.166l-0.692,0.25l-0.52,0.248l-0.605,0.333l-0.692,0.332l-0.519,0.333l-0.605,0.415l-0.606,0.416l-0.519,0.415l-0.605,0.416l-0.52,0.498l-1.037,0.914l-1.125,0.998l-0.951,0.997l-1.038,0.997l-1.817,1.995l-1.643,1.911l6.747,-11.551l-11.591,0zm47.752,-12.582l-17.508,6.822l0.431,3.123l18.112,-2.383l-1.035,-7.562zm-18.802,12.904l-17.163,29.096l12.592,0l17.25,-29.096l-12.679,0zm48.837,0.478l-0.951,-0.406l-0.952,-0.244l-1.038,-0.244l-0.951,-0.244l-1.038,-0.081l-1.125,-0.163l-3.806,0l-1.47,0.081l-1.47,0.163l-1.471,0.244l-1.384,0.325l-1.384,0.325l-1.384,0.407l-1.384,0.488l-1.297,0.487l-1.298,0.488l-1.297,0.65l-1.211,0.65l-1.125,0.57l-1.21,0.732l-1.125,0.731l-1.038,0.732l-1.125,0.813l-0.951,0.813l-0.952,0.813l-0.951,0.813l-0.865,0.813l-0.779,0.895l-0.778,0.894l-0.692,0.813l-0.692,0.894l-0.692,0.813l-0.52,0.894l-0.518,0.895l-0.519,0.813l-0.346,0.813l-0.346,0.813l-0.26,0.732l-0.259,0.65l-0.087,0.488l-0.086,0.569l-0.087,0.488l-0.086,0.487l0,0.488l0.086,0.488l0.087,0.488l0.086,0.406l0.087,0.407l0.173,0.406l0.173,0.407l0.26,0.325l0.259,0.325l0.26,0.407l0.345,0.244l0.26,0.325l0.432,0.244l0.346,0.325l0.433,0.244l0.432,0.162l0.433,0.244l0.519,0.163l0.519,0.163l0.519,0.162l0.519,0.081l0.605,0.163l0.606,0l0.605,0.163l1.298,0l0.692,0.081l1.21,-0.081l1.298,-0.082l1.211,-0.08l1.211,-0.164l1.211,-0.243l1.211,-0.244l1.125,-0.244l1.21,-0.325l1.125,-0.244l1.038,-0.407l1.038,-0.325l1.124,-0.325l1.99,-0.813l1.903,-0.732l-2.163,-4.553l-0.519,0.244l-0.865,0.407l-1.124,0.406l-1.298,0.57l-0.778,0.243l-0.692,0.244l-0.692,0.163l-0.778,0.244l-0.606,0.162l-0.692,0.163l-0.605,0.081l-0.865,0l-0.346,-0.081l-0.26,0l-0.26,-0.082l-0.259,-0.08l-0.173,-0.082l-0.173,-0.081l-0.173,-0.163l-0.173,-0.081l-0.173,-0.163l-0.086,-0.163l-0.087,-0.162l-0.173,-0.244l-0.086,-0.407l0,-0.975l0.086,-0.244l0.087,-0.57l0.086,-0.243l0.173,-0.488l0.26,-0.569l0.26,-0.57l0.345,-0.65l0.26,-0.569l0.432,-0.569l0.346,-0.65l0.433,-0.57l0.519,-0.65l0.432,-0.569l0.52,-0.65l0.518,-0.57l0.606,-0.65l0.605,-0.569l0.606,-0.569l0.605,-0.569l0.692,-0.57l0.605,-0.487l0.692,-0.569l0.692,-0.488l0.692,-0.406l0.779,-0.488l0.692,-0.407l0.692,-0.325l0.778,-0.406l0.692,-0.244l0.779,-0.244l0.778,-0.244l0.779,-0.163l0.692,-0.08l0.778,-0.164l1.384,0l0.606,0.082l0.605,0.081l0.52,0.081l0.432,0.082l0.432,0.162l0.52,0.082l0.345,0.162l4.325,-4.878zm4.367,21.618l0.34,-0.917l0.427,-1.083l0.512,-1.25l0.682,-1.333l0.768,-1.417l0.853,-1.5l0.938,-1.5l0.938,-1.5l0.512,-0.75l0.512,-0.667l0.511,-0.666l0.512,-0.667l0.512,-0.667l0.512,-0.583l0.511,-0.583l0.512,-0.5l0.512,-0.5l0.511,-0.417l0.512,-0.417l0.512,-0.333l0.512,-0.25l0.511,-0.167l0.512,-0.166l1.109,0l0.256,0.166l0.256,0.167l0.17,0.167l0.17,0.166l0.086,0.25l0.085,0.25l0,1l-0.085,0.5l-0.17,0.5l-0.256,0.667l-0.342,0.833l-0.511,1.084l-0.597,1.25l-0.768,1.333l-0.768,1.417l-0.852,1.5l-0.939,1.583l-0.511,0.75l-0.512,0.75l-0.512,0.75l-0.511,0.667l-0.512,0.666l-0.512,0.667l-0.512,0.583l-0.511,0.584l-0.512,0.5l-0.512,0.416l-0.512,0.417l-0.511,0.333l-0.512,0.25l-0.512,0.167l-0.511,0.167l-1.023,0l-0.257,-0.084l-0.17,-0.083l-0.256,-0.083l-0.17,-0.167l-0.171,-0.167l-0.171,-0.166l-0.085,-0.25l-0.086,-0.25l-0.085,-0.334l0,-0.416l0.085,-0.417l0.086,-0.25zm-11.77,-3.417l-0.256,0.667l-0.17,0.667l-0.086,0.666l-0.085,0.667l0,1.833l0.085,0.5l0.086,0.5l0.17,0.5l0.17,0.5l0.257,0.5l0.255,0.417l0.342,0.417l0.34,0.416l0.342,0.334l0.426,0.333l0.427,0.333l0.426,0.25l0.427,0.25l0.511,0.25l0.512,0.25l0.512,0.25l0.512,0.167l0.597,0.167l0.597,0.166l0.597,0.167l0.682,0.083l0.682,0.084l0.683,0.083l1.364,0l1.45,-0.083l1.365,-0.084l1.364,-0.166l1.28,-0.25l1.279,-0.25l1.28,-0.334l1.193,-0.416l1.194,-0.417l1.194,-0.5l1.109,-0.5l1.109,-0.583l1.023,-0.667l1.024,-0.667l1.023,-0.666l1.024,-0.75l0.938,-0.75l0.853,-0.75l0.853,-0.75l0.852,-0.75l0.768,-0.834l0.768,-0.833l0.682,-0.833l0.682,-0.834l0.597,-0.833l0.597,-0.833l0.512,-0.834l0.512,-0.833l0.426,-0.75l0.427,-0.75l0.34,-0.75l0.342,-0.75l0.256,-0.75l0.256,-0.667l0.17,-0.666l0.085,-0.667l0.086,-0.667l0.085,-0.583l0,-1.083l-0.085,-0.5l-0.086,-0.5l-0.17,-0.5l-0.17,-0.417l-0.257,-0.417l-0.255,-0.416l-0.256,-0.417l-0.341,-0.417l-0.342,-0.416l-0.34,-0.334l-0.427,-0.333l-0.427,-0.333l-0.426,-0.25l-0.512,-0.25l-0.512,-0.25l-0.511,-0.25l-0.512,-0.167l-0.597,-0.167l-0.597,-0.166l-0.682,-0.084l-0.683,-0.166l-0.682,-0.084l-0.768,-0.083l-2.729,0l-1.28,0.083l-1.278,0.167l-1.28,0.25l-1.194,0.25l-1.194,0.333l-1.194,0.417l-1.194,0.417l-1.109,0.416l-1.108,0.5l-1.109,0.584l-1.109,0.583l-1.023,0.583l-1.024,0.667l-0.938,0.667l-0.938,0.666l-0.853,0.75l-0.853,0.75l-0.853,0.75l-0.767,0.75l-0.768,0.834l-0.767,0.75l-0.683,0.833l-0.597,0.833l-0.597,0.834l-0.511,0.833l-0.512,0.833l-0.427,0.834l-0.426,0.75l-0.341,0.75l-0.341,0.75l-0.768,1.166zm59.098,-34.583l-24.695,43l12.305,0l24.695,-43l-12.305,0zm13.391,35.926l0.085,-0.408l0.169,-0.49l0.253,-0.491l0.253,-0.49l0.253,-0.573l0.338,-0.572l0.338,-0.572l0.338,-0.654l0.422,-0.654l0.422,-0.654l0.422,-0.654l0.507,-0.654l0.506,-0.654l0.507,-0.654l0.506,-0.654l0.591,-0.654l0.591,-0.654l0.591,-0.654l0.591,-0.572l0.676,-0.572l0.59,-0.572l0.676,-0.49l0.675,-0.491l0.676,-0.49l0.675,-0.41l0.676,-0.408l0.675,-0.327l0.676,-0.245l0.675,-0.246l0.675,-0.163l0.676,-0.082l1.857,0l0.422,0.082l0.338,0.082l-0.929,1.471l-0.928,1.39l-0.929,1.308l-0.844,1.307l-0.845,1.227l-0.844,1.144l-0.844,1.063l-0.76,0.98l-1.435,1.717l-1.182,1.39l-1.013,1.063l-0.676,0.735l-0.422,0.409l-0.59,0.49l-0.592,0.49l-0.675,0.491l-0.338,0.246l-0.338,0.245l-0.422,0.245l-0.338,0.164l-0.422,0.163l-0.337,0.082l-0.423,0.082l-0.928,0l-0.17,-0.082l-0.168,-0.082l-0.169,-0.082l-0.169,-0.081l-0.169,-0.164l-0.084,-0.163l-0.084,-0.164l-0.085,-0.245l-0.084,-0.245l0,-0.573l-0.085,-0.327zm31.914,-18.8l-0.76,-0.246l-1.013,-0.327l-1.182,-0.327l-1.35,-0.327l-0.76,-0.163l-0.845,-0.164l-0.844,-0.163l-0.929,-0.082l-1.013,-0.164l-1.013,-0.081l-1.098,-0.082l-2.786,0l-1.604,0.163l-1.604,0.164l-1.52,0.245l-1.52,0.327l-1.435,0.409l-1.435,0.409l-1.435,0.49l-1.351,0.49l-1.267,0.654l-1.266,0.654l-1.266,0.654l-1.182,0.736l-1.182,0.736l-1.098,0.817l-1.098,0.818l-1.013,0.899l-1.013,0.899l-0.929,0.9l-0.844,0.898l-0.844,0.9l-0.844,0.899l-0.76,0.899l-0.76,0.9l-0.675,0.898l-0.591,0.9l-0.507,0.899l-0.507,0.899l-0.422,0.899l-0.422,0.9l-0.338,0.817l-0.253,0.817l-0.169,0.654l-0.169,0.654l-0.084,0.654l0,1.635l0.084,0.327l0.085,0.327l0.084,0.327l0.085,0.327l0.169,0.327l0.168,0.245l0.17,0.245l0.253,0.245l0.253,0.246l0.253,0.245l0.253,0.245l0.338,0.245l0.338,0.246l0.338,0.163l0.422,0.164l0.422,0.163l0.422,0.164l0.507,0.081l0.506,0.082l2.533,0l0.675,-0.082l0.676,-0.081l0.675,-0.164l0.591,-0.163l0.591,-0.164l0.591,-0.163l0.591,-0.246l0.591,-0.245l0.591,-0.245l0.507,-0.245l0.506,-0.246l0.507,-0.245l0.506,-0.327l0.507,-0.327l1.013,-0.654l0.929,-0.654l0.929,-0.735l0.844,-0.736l0.844,-0.736l0.76,-0.735l0.76,-0.654l0.675,-0.654l-4.559,7.929l10.976,0l16.041,-27.303l0,0.001z"/>
   </g>
  </svg>