<svg  id="fndm-zu0sb2i2xc" viewBox="56.084999084472656 83.5140151977539 488.9150085449219 82.88599395751953" xmlns="http://www.w3.org/2000/svg">
   <path d="m262.193,92.557c-6.013,-1.279 -12.705,-2.046 -18.887,-2.046c-12.96,0 -29.306,2.813 -29.306,18.58c0,22.415 29.983,15.34 29.983,23.097c0,2.897 -4.574,3.92 -9.74,3.92c-6.522,0 -13.721,-1.278 -19.565,-3.75l0,14.915c8.215,1.875 15.16,2.727 23.46,2.727c12.706,0 27.782,-3.92 27.782,-19.261c0,-22.16 -29.899,-15.17 -29.899,-22.586c0,-3.75 5.93,-3.835 9.317,-3.835c6.183,0 12.027,1.193 16.94,2.898l0,-14.66l-0.085,0l0,0.001zm11.858,27.017c4.065,-2.046 9.317,-3.665 14.23,-3.665c5.166,0 10.756,0.682 10.84,6.222c-1.863,-0.17 -5.166,-0.597 -7.961,-0.597c-10.164,0 -22.022,2.727 -22.022,15.852c0,8.95 7.623,12.614 15.585,12.614c5.844,0 11.095,-2.386 13.975,-7.244l0.17,0l0,6.221l19.141,0l0,-26.165c0,-15.681 -14.23,-17.812 -26.002,-17.812c-8.046,0 -11.688,0.767 -17.787,2.472l0,12.102l-0.17,0l0.001,0zm25.07,11.932c0,3.664 -2.117,7.67 -6.352,7.67c-3.218,0 -4.912,-1.193 -4.912,-4.176c0,-4.432 4.997,-4.858 9.147,-4.858l2.033,0l0,1.364l0.085,0l-0.001,0zm25.833,-25.483l0,42.954l20.582,0l0,-15.596c0,-6.307 4.828,-11.336 10.503,-11.336c1.863,0 3.642,0.17 4.658,0.682l0,-17.3c-0.847,-0.257 -2.117,-0.427 -3.388,-0.427c-6.437,0 -10.587,4.602 -13.043,10.739l-0.085,0l0,-9.716l-19.227,0zm42.858,13.55c4.15,-2.045 9.316,-3.664 14.229,-3.664c5.167,0 10.841,0.682 10.841,6.222c-1.863,-0.17 -5.166,-0.597 -7.961,-0.597c-10.249,0 -22.022,2.727 -22.022,15.852c0,8.95 7.708,12.614 15.585,12.614c5.76,0 11.095,-2.386 13.805,-7.244l0.17,0l0,6.221l19.141,0l0,-26.165c0,-15.681 -14.314,-17.812 -26.087,-17.812c-8.047,0 -11.689,0.767 -17.872,2.472l0,12.102l0.17,0l0.001,-0.001zm25.155,11.933c0,3.664 -2.117,7.67 -6.437,7.67c-3.219,0 -4.828,-1.193 -4.828,-4.176c0,-4.432 4.828,-4.858 9.148,-4.858l2.117,0l0,1.364zm25.748,17.556l20.582,0l0,-42.954l-20.582,0l0,42.954zm20.582,-59.062l-20.582,0l0,11.506l20.582,0l0,-11.506zm35.742,16.023l-5.336,28.125l-0.169,0l-5.336,-28.125l-21.09,0l12.62,42.954l26.51,0l12.96,-42.954l-20.159,0zm26.003,13.55c4.065,-2.045 9.316,-3.664 14.229,-3.664c5.167,0 10.757,0.682 10.841,6.222c-1.863,-0.17 -5.082,-0.597 -7.961,-0.597c-10.164,0 -22.022,2.727 -22.022,15.852c0,8.95 7.708,12.614 15.67,12.614c5.844,0 11.01,-2.386 13.89,-7.244l0.254,0l0,6.221l19.057,0l0,-26.165c0,-15.681 -14.23,-17.812 -26.087,-17.812c-7.962,0 -11.688,0.767 -17.787,2.472l0,12.102l-0.084,0l0,-0.001zm25.07,11.933c0,3.664 -2.032,7.67 -6.267,7.67c-3.219,0 -4.913,-1.193 -4.913,-4.176c0,-4.432 4.913,-4.858 9.232,-4.858l1.948,0l0,1.364zm-402.16,-36.077l61.071,-11.915l11.807,60.772l-61.157,11.828l-11.721,-60.685zm-67.867,11.742c21.49,-20.314 53.852,-25.628 62.26,-11.142l11.977,61.8c-11.297,-14.058 -33.126,-15.515 -62.855,8.571l-11.382,-59.229zm6.54,2.315l8.664,46.2c21.405,-15.429 41.196,-18.172 50.624,-11.143l-9.258,-46.543c-6.2,-6.171 -28.285,-6.857 -50.03,11.486z"/>
  </svg>