<svg  id="fndm-h0w3qwsdis" viewBox="0 0.7996978759765625 512.8839721679688 186.4962921142578" xmlns="http://www.w3.org/2000/svg">
   <g xmlns="http://www.w3.org/2000/svg" fill-rule="evenodd" fill="none">
    <path d="m335.103,133.463l0,-97.815c0,-33.426 34.921,-40.463 59.965,-30.963l0,18.648c-17.284,-7.037 -36.684,-5.277 -36.684,16.186l27.866,0l0,18.648l-27.866,0l0,74.944l-23.281,0.352zm111.113,-108.37l17.284,0l3.527,14.426l21.518,0l0,18.648l-19.048,0l0,43.277c0,8.797 3.88,13.019 11.287,13.019l11.993,0l0,18.648l-23.28,0c-15.521,0 -23.634,-8.444 -23.634,-24.981l0,-83.037l0.353,0zm-41.624,14.426l23.634,0l0,93.593l-23.634,0l0,-93.593zm0,-33.778l23.634,0l0,19.352l-23.634,0l0,-19.352z" fill="#FCB823"/>
    <path d="m512.884,133.111c-20.812,32.722 -57.144,54.185 -98.768,54.185c-41.623,0 -77.955,-21.463 -98.767,-54.185c24.34,22.519 59.613,36.24 98.767,36.24c39.155,0.353 74.429,-13.721 98.768,-36.24" fill="#FCB823"/>
    <path d="m2.822,111.648l0,-12.667c6.702,2.815 14.815,4.223 23.633,4.223c6.703,0 9.877,-2.111 9.877,-6.334c0,-3.87 -2.116,-5.981 -6.702,-5.981l-10.935,0c-12.345,0 -18.695,-6.333 -18.695,-18.649c0,-12.667 9.171,-19 27.161,-19c7.76,0 14.815,1.055 21.87,3.518l0,12.667c-6.702,-2.815 -14.11,-4.222 -22.223,-4.222c-8.466,0 -12.346,2.11 -12.346,6.333c0,3.87 2.47,5.982 7.408,5.982l9.877,0c13.404,0 20.458,6.333 20.458,18.648c0,12.666 -8.818,19 -26.102,19c-8.819,0 -16.226,-1.408 -23.281,-3.519l0,0.001zm59.613,2.815l0,-60.87l11.993,0l1.764,7.74c7.055,-5.277 14.11,-7.74 20.811,-7.74c7.76,0 13.052,2.814 16.226,8.444c7.76,-5.63 15.168,-8.444 21.87,-8.444c13.052,0 19.401,7.74 19.401,23.222l0,37.648l-15.52,0l0,-38.352c0,-6.685 -2.822,-10.204 -8.466,-10.204c-4.586,0 -9.524,2.463 -14.463,7.741l0,40.815l-15.52,0l0,-38.352c0,-7.037 -2.822,-10.204 -8.466,-10.204c-4.938,0 -9.877,2.463 -14.462,7.741l0,40.815l-15.168,0zm103.705,-19c0,-12.667 8.819,-18.648 26.456,-18.648c5.291,0 10.23,0.352 14.11,1.055l0,-3.87c0,-5.278 -5.292,-8.093 -15.874,-8.093c-6.702,0 -13.404,1.056 -19.753,2.815l0,-12.315c6.702,-1.759 13.404,-2.814 19.753,-2.814c20.812,0 31.394,6.685 31.394,20.055l0,40.815l-7.76,0l-6.702,-4.222c-5.291,2.815 -10.935,4.222 -16.932,4.222c-16.579,0 -24.692,-6.333 -24.692,-19zm40.565,-5.982c-3.88,-0.703 -8.465,-1.055 -14.11,-1.055c-7.407,0 -11.287,2.463 -11.287,7.037s3.175,7.037 9.171,7.037c6.35,0 11.64,-1.76 15.874,-4.926l0,-8.093l0.352,0zm30.689,24.982l0,-60.87l11.993,0l1.764,7.74c5.29,-5.277 10.935,-7.74 16.931,-7.74l0,12.314c-5.644,0 -10.935,2.463 -15.52,7.741l0,40.815l-15.168,0zm40.212,-70.722l11.288,0l2.469,9.852l14.11,0l0,12.314l-12.346,0l0,28.149c0,5.63 2.469,8.444 7.407,8.444l4.939,0l0,12.315l-12.699,0c-10.23,0 -15.52,-5.63 -15.52,-16.537l0,-54.538l0.352,0l0,0.001z" fill-rule="nonzero" fill="#000"/>
   </g>
  </svg>