<svg  id="fndm-7dl6s3e9eu" viewBox="25 75 549.9998168945312 100" xmlns="http://www.w3.org/2000/svg">
   <g xmlns="http://www.w3.org/2000/svg" fill="none">
    <path d="m550.81,156.933c1.076,-5.042 3.23,-10.57 9.102,-10.57s5.676,5.43 4.6,10.57c-1.077,5.043 -3.23,10.57 -9.103,10.57c-5.872,0 -5.676,-5.43 -4.6,-10.57l0.001,0zm23.685,0c2.153,-10.085 -2.642,-16.872 -13.213,-16.872c-10.57,0 -18.303,6.884 -20.456,16.872c-2.153,10.085 2.643,16.873 13.213,16.873c10.57,0.097 18.303,-6.788 20.456,-16.873zm-65.185,16l4.11,-19.2c1.175,-4.654 4.307,-7.272 7.342,-7.272c4.698,0 4.893,3.878 4.208,7.272l-4.11,19.2l9.591,0l4.502,-20.751c0.196,-1.067 0.49,-3.103 0.49,-5.043c-0.196,-4.654 -5.873,-6.981 -9.103,-6.981c-4.893,0 -8.319,1.939 -10.962,4.848l-0.098,-0.097l3.818,-17.745l-9.592,0l-9.886,45.77l9.69,0l0,-0.001zm-32.495,-32l-9.591,0l-6.852,31.903l9.592,0l4.11,-19.2c1.078,-4.654 4.307,-7.272 7.342,-7.272c4.795,0 4.893,3.878 4.208,7.272l-4.11,19.2l9.591,0l4.503,-20.751c0.195,-1.067 0.489,-3.103 0.489,-5.043c-0.196,-4.654 -5.873,-6.981 -9.103,-6.981c-4.893,0 -8.319,1.939 -10.962,4.848l-0.097,-0.194l0.88,-3.782zm-24.762,-13.963l-1.762,8.242l10.277,0l1.762,-8.242l-10.277,0zm-2.74,13.963l-6.852,31.903l9.592,0l6.851,-31.903l-9.592,0l0.001,0zm-28.972,0l-1.37,6.4l6.46,0l-3.328,15.71c-1.468,6.981 -0.685,10.86 6.753,10.86c1.37,0 6.558,-0.485 7.733,-0.97l1.174,-5.624c-1.077,0.097 -2.055,0.194 -3.132,0.194c-3.328,0 -3.72,-1.164 -2.838,-5.333l3.132,-14.837l7.243,0l1.37,-6.4l-7.145,0l2.055,-9.697l-10.375,3.394l-1.37,6.303l-6.362,0zm-21.924,0c-0.391,2.328 -0.783,5.043 -1.076,6.4l-5.384,25.6l9.592,0l3.426,-15.806c0.49,-2.133 1.076,-3.879 2.447,-5.624c1.272,-1.358 3.523,-2.23 5.187,-2.327l4.209,0l1.86,-8.437c-4.796,-0.097 -9.2,1.164 -12.333,6.206l-0.098,0l1.077,-5.818l-8.907,0l0,-0.194zm-27.699,9.115c0.196,-1.454 1.958,-4.557 5.286,-4.557c3.425,0 3.915,2.618 3.621,3.976l-0.685,3.006c-3.817,-0.097 -8.711,0.097 -12.92,1.745c-6.362,2.521 -8.515,7.855 -9.004,10.085c-1.37,6.206 2.447,9.697 8.417,9.697c4.405,0 8.026,-1.552 10.962,-5.236l0.098,0a29.884,29.884 0 0 0 -0.587,4.266l8.613,0c0.098,-0.97 0,-1.94 0.293,-3.49l3.72,-17.455c2.055,-9.6 -4.698,-11.927 -11.158,-11.927c-3.426,0 -6.95,0.484 -9.983,2.036c-2.839,1.454 -5.188,3.976 -6.069,7.951l9.396,0l0,-0.097zm7.047,7.855c-0.783,3.782 -2.25,9.6 -7.536,9.6c-2.74,0 -4.306,-1.94 -3.72,-4.558c1.077,-5.139 7.929,-5.139 11.256,-5.042zm-30.635,-24.436l0.098,0.097l-8.417,39.272l9.298,0l9.886,-45.963l-15.758,0l-17.716,33.454l-0.098,0l-2.544,-33.357l-16.346,0l-9.787,45.963l9.298,0l8.417,-39.272l0.196,-0.097l3.817,39.466l8.32,0l21.336,-39.563zm-96.113,23.466c1.076,-5.042 3.23,-10.57 9.102,-10.57c5.873,0 5.677,5.43 4.6,10.57c-1.076,5.043 -3.23,10.57 -9.102,10.57c-5.873,0 -5.677,-5.43 -4.6,-10.57zm23.686,0c2.153,-10.085 -2.643,-16.872 -13.214,-16.872c-10.57,0 -18.302,6.884 -20.456,16.872c-2.153,10.085 2.643,16.873 13.214,16.873c10.57,0.097 18.302,-6.788 20.456,-16.873zm-57.355,-6.885c0.195,-1.454 1.957,-4.557 5.285,-4.557c3.425,0 3.915,2.618 3.621,3.976l-0.685,3.006c-3.817,-0.097 -8.71,0.097 -12.92,1.745c-6.361,2.521 -8.515,7.855 -9.004,10.085c-1.37,6.206 2.447,9.697 8.417,9.697c4.405,0 8.026,-1.552 10.962,-5.236l0.098,0a29.884,29.884 0 0 0 -0.587,4.266l8.71,0c0.099,-0.97 0,-1.94 0.295,-3.49l3.719,-17.455c2.055,-9.6 -4.698,-11.927 -11.158,-11.927c-3.426,0 -6.95,0.484 -9.983,2.036c-2.839,1.454 -5.188,3.976 -6.069,7.951l9.299,0l0,-0.097zm7.047,7.855c-0.783,3.782 -2.252,9.6 -7.537,9.6c-2.74,0 -4.306,-1.94 -3.72,-4.558c1.078,-5.139 7.929,-5.139 11.257,-5.042zm-6.852,-22.69c0.98,-1.552 2.251,-2.91 4.111,-2.91c1.37,0 2.643,0.582 4.013,1.164c1.37,0.581 2.838,1.163 4.404,1.163c4.503,0 7.733,-3.588 8.907,-7.66l-3.23,0c-0.783,1.357 -1.664,2.909 -3.425,2.909c-1.566,0 -2.839,-0.679 -4.21,-1.164c-1.37,-0.679 -2.74,-1.163 -4.501,-1.163c-4.405,0 -7.733,3.878 -9.2,7.757l3.131,0l0,-0.097l0,0.001zm-15.464,4.848c1.958,-9.213 -4.013,-14.061 -12.92,-14.061c-9.493,0 -20.26,4.655 -22.51,15.127c-1.763,8.146 6.459,11.055 12.625,12.703c3.72,0.97 10.277,1.358 9.102,6.788c-1.076,4.946 -6.557,6.11 -10.57,6.11c-5.188,0 -7.439,-3.395 -5.97,-8.534l-10.18,0c-2.838,11.54 3.818,15.612 14.388,15.612c9.983,0 20.848,-3.976 23.294,-15.321c1.958,-9.212 -8.025,-11.152 -14.68,-12.994c-3.818,-0.97 -8.125,-1.552 -7.048,-6.497c0.881,-3.976 4.992,-5.915 8.613,-5.915c4.796,0 6.851,2.327 6.264,6.885l9.592,0l0,0.097zm-111.579,-65.061l28.5,0l-12.298,43.056c-0.488,-10.642 -7.027,-23.92 -20.301,-28.802l4.099,-14.254zm8.98,68.44l-8.786,30.56l-28.694,0l18.837,-65.414c17.569,6.15 20.595,21.87 18.642,34.855l0.001,-0.001zm28.02,-68.44l28.5,0l-12.298,43.056c-0.488,-10.642 -7.027,-23.92 -20.301,-28.802l4.099,-14.254zm8.98,68.44l-8.688,30.56l-28.792,0l18.837,-65.414c17.666,6.15 20.595,21.87 18.642,34.855l0.001,-0.001z" fill="#00447C"/>
    <path d="m54.15,75l28.85,0l-12.45,43c-0.493,-10.628 -7.113,-23.889 -20.55,-28.764l4.15,-14.236z" fill="#00A94F"/>
    <path d="m63.462,144.167l-9.014,30.833l-29.448,0l19.331,-66c18.13,6.206 21.134,22.066 19.131,35.167" fill="#00447C"/>
   </g>
  </svg>