<svg xmlns="http://www.w3.org/2000/svg" fill-rule="evenodd" clip-rule="evenodd" image-rendering="optimizeQuality" shape-rendering="geometricPrecision" text-rendering="geometricPrecision" viewBox="-2 1 6600 3300"><g><rect width="6600" height="3300" x="-2" y="1" fill="#9bb43c"/><g><path fill="#1e4524" d="M985.68 633.43l441.19 0c-310.59,118.31 -465.5,849.76 -161.15,1016.65 0,0 226.72,90.05 680.15,270.18 119.92,52.11 53.19,230.65 -69.93,173.69l-890.26 -348.72 0 -1111.8zm803.87 0l828.96 0 0 325.69 -828.96 -325.69zm828.96 509.04l0 1107.65 -427.64 0c175.64,-85.01 282.27,-257.71 319.87,-518.06 17.79,-230.53 -54.17,-394.78 -215.94,-492.78 0,0 -187.84,-81.76 -563.59,-245.32 -164.27,-32.08 -163.32,-267.89 53.05,-176.1l834.25 324.61zm-1632.83 1107.65l0 -313.19 811.84 313.19 -811.84 0z"/><g><path fill="#fefefe" d="M1787.97 1095.31c191.07,0 346.01,154.93 346.01,346.03 0,191.1 -154.94,346.07 -346.01,346.07 -191.06,0 -345.98,-154.97 -345.98,-346.07 0,-191.1 154.92,-346.03 345.98,-346.03z"/><path fill="#fefefe" d="M3108.14 1178.18l182.18 0c67.8,0 101.7,28.62 101.7,85.84 0,33.44 -10.35,56.78 -31.07,69.98 -20.65,13.2 -48.15,19.81 -82.5,19.81l-170.31 0 0 -175.63zm-290.45 400.1l534.73 0c42.21,0 83.17,-6.15 122.77,-18.49 39.6,-12.29 75.05,-30.56 106.27,-54.79 31.25,-24.23 55.9,-54.37 73.93,-90.45 18.06,-36.12 27.08,-77.02 27.08,-122.81 0,-64.24 -15.18,-115.32 -45.55,-153.16 -30.36,-37.86 -69.76,-65.16 -118.16,-81.87 37.83,-21.13 66.66,-46.02 86.47,-74.63 19.78,-28.59 29.71,-65.35 29.71,-110.27 0,-27.27 -4.42,-54.33 -13.22,-81.18 -8.8,-26.85 -24.19,-52.17 -46.19,-75.94 -22,-23.76 -53.05,-42.92 -93.07,-57.43 -40.07,-14.54 -89.59,-21.77 -148.55,-21.77l-516.22 0 0 942.79zm290.45 -718.33l153.14 0c31.67,0 56.13,5.08 73.29,15.18 17.15,10.14 25.76,26.63 25.76,49.53 0,29.04 -8.38,49.3 -25.08,60.73 -16.75,11.46 -41.41,17.18 -73.97,17.18l-153.14 0 0 -142.62z"/><g><g><path fill="#fefefe" d="M3709.09 1106.87c0,71.32 11.46,137.33 34.35,198.08 22.89,60.73 55.47,113.11 97.69,157.14 42.27,44 92.86,78.12 151.84,102.35 58.96,24.2 123.68,36.29 194.1,36.29 70.4,0 135.1,-12.09 194.06,-36.29 58.96,-24.23 109.59,-58.35 151.86,-102.35 42.24,-44.03 74.8,-96.41 97.67,-157.14 22.91,-60.75 34.33,-126.76 34.33,-198.08 0,-71.28 -11.42,-137.33 -34.33,-198.06 -22.87,-60.76 -55.43,-113.12 -97.67,-157.12 -42.27,-44.05 -92.9,-78.15 -151.86,-102.36 -58.96,-24.21 -123.66,-36.31 -194.06,-36.31 -70.42,0 -135.14,12.1 -194.1,36.31 -58.98,24.21 -109.57,58.31 -151.84,102.36 -42.22,44 -74.8,96.36 -97.69,157.12 -22.89,60.73 -34.35,126.78 -34.35,198.06l0 0zm290.49 0c0,-49.3 5.93,-91.11 17.81,-125.44 11.89,-34.34 27.28,-61.17 46.21,-80.55 18.94,-19.37 38.96,-33.01 60.07,-40.92 21.13,-7.93 42.25,-11.91 63.4,-11.91 21.11,0 42.23,3.98 63.34,11.91 21.15,7.91 41.17,21.55 60.09,40.92 18.93,19.38 34.34,46.21 46.23,80.55 11.84,34.33 17.81,76.14 17.81,125.44 0,49.32 -5.97,91.15 -17.81,125.46 -11.89,34.33 -27.3,61.18 -46.23,80.55 -18.92,19.36 -38.94,33.01 -60.09,40.94 -21.11,7.91 -42.23,11.86 -63.34,11.86 -21.15,0 -42.27,-3.95 -63.4,-11.86 -21.11,-7.93 -41.13,-21.58 -60.07,-40.94 -18.93,-19.37 -34.32,-46.22 -46.21,-80.55 -11.88,-34.31 -17.81,-76.14 -17.81,-125.46z"/></g></g><path fill="#fefefe" d="M5024.41 1241.57l91.09 -290.49 2.64 0 84.49 290.49 -178.22 0zm-397.43 336.71l291.81 0 42.23 -134.67 299.7 0 39.6 134.67 301.07 0 -343.31 -942.79 -283.88 0 -347.22 942.79z"/></g><path fill="#1e4524" d="M2826.52 2054.18c0.51,41.95 9.83,76.57 27.9,103.83 18.12,27.28 40.66,47.98 67.64,62.15 27,14.15 53.73,23.73 80.19,28.69 26.49,4.96 50.2,7.48 71.17,7.48 33.05,0 64.91,-3.41 95.57,-10.21 30.69,-6.83 58.35,-17.84 82.94,-33.04 24.68,-15.19 44.31,-35.26 59,-60.17 14.7,-24.91 22.02,-54.94 22.02,-90.06 0,-24.66 -4.32,-46.14 -12.96,-64.5 -8.65,-18.34 -20.3,-33.69 -35.01,-46 -14.67,-12.31 -31.05,-22.41 -49.15,-30.3 -18.07,-7.87 -38.38,-14.93 -60.92,-21.23 -9.46,-2.61 -26.23,-6.82 -50.34,-12.6 -38.3,-9.42 -66.33,-17.95 -84.16,-25.55 -17.85,-7.6 -27.23,-18.49 -28.32,-32.64 0,-14.13 6.42,-23.98 19.25,-29.49 12.85,-5.5 27.17,-8.24 42.87,-8.24 9.46,0 18.61,1.15 27.53,3.53 8.93,2.35 16.8,5.88 23.61,10.6 14.14,9.47 21.22,21.77 21.22,36.99 0,0.51 -0.25,1.83 -0.76,3.9l0 3.93 163.53 0c-1.04,-33.01 -7.96,-61.35 -20.81,-84.9 -12.87,-23.62 -30.03,-42.63 -51.5,-57.04 -21.52,-14.42 -45.88,-24.91 -73.17,-31.48 -27.23,-6.53 -56.87,-9.83 -88.85,-9.83 -29.89,0 -58.3,3.69 -85.3,11.01 -27.04,7.35 -51.15,18.63 -72.36,33.83 -21.24,15.2 -38.01,34.74 -50.34,58.6 -12.32,23.85 -18.47,51.24 -18.47,82.18 0,25.69 5.06,47.59 15.33,65.68 10.24,18.08 23.71,32.93 40.51,44.45 16.77,11.53 34.18,20.59 52.28,27.14 18.08,6.57 42.33,14.29 72.78,23.2l9.38 2.35c26.23,7.35 46.81,13.37 61.77,18.1 14.91,4.73 26.73,9.31 35.38,13.77 8.66,4.44 14.81,9.19 18.47,14.15 3.66,4.96 5.48,11.15 5.48,18.47 0,9.97 -2.17,18.36 -6.66,25.19 -4.48,6.82 -10.35,12.05 -17.72,15.72 -7.33,3.66 -15.02,6.3 -23.2,7.85 -8.1,1.59 -16.09,2.38 -23.94,2.38 -19.4,0 -36.57,-3.02 -51.52,-9.05 -14.92,-6.05 -25.29,-16.65 -31.05,-31.87 -4.22,-11.01 -6.32,-23.32 -6.32,-36.97l-172.99 0z"/><path fill="#1e4524" d="M3584.38 2042.4l54.27 -173.04 1.55 0 50.34 173.04 -106.16 0zm-236.7 200.56l173.78 0 25.16 -80.22 178.51 0 23.59 80.22 179.29 0 -204.43 -561.54 -169.11 0 -206.79 561.54z"/><polygon fill="#1e4524" points="3973.01,2242.95 4146.04,2242.95 4146.04,2029.03 4370.14,2029.03 4370.14,1895.33 4146.04,1895.33 4146.04,1825.31 4407.12,1825.31 4407.12,1681.4 3973.01,1681.4"/><path fill="#1e4524" d="M4460.44 2242.95l173.02 0 0 -195.83 91.99 0c16.27,0 29.37,3.01 39.33,9.04 9.96,6.02 17.58,14.03 22.8,23.98 5.25,9.96 8.8,20.58 10.64,31.85 1.82,11.3 3.52,25.84 5.09,43.67l0 0.78c3.16,36.19 7.89,65.02 14.15,86.51l173.05 0c-5.77,-9.42 -9.86,-22.66 -12.19,-39.72 -2.37,-17.04 -4.07,-37.6 -5.14,-61.7 -0.5,-8.41 -1.04,-14.7 -1.57,-18.92 -3.16,-35.65 -11.8,-65.66 -25.95,-90.05 -14.13,-24.38 -33.05,-41.04 -56.62,-49.93 27.27,-9.97 48.13,-28.19 62.51,-54.67 14.42,-26.5 21.63,-55.19 21.63,-86.13 0,-50.87 -17.56,-90.34 -52.7,-118.37 -35.12,-28.07 -78.59,-42.06 -130.5,-42.06l-329.54 0 0 561.55zm173.02 -427.87l80.98 0c31.48,0 53.6,4.59 66.45,13.78 12.85,9.19 19.28,23.19 19.28,42.07 0,12.05 -2.36,21.88 -7.07,29.5 -4.73,7.6 -10.74,13.26 -18.1,16.91 -7.31,3.68 -15.2,6.18 -23.57,7.48 -8.4,1.3 -17.6,1.96 -27.53,1.96l-90.44 0 0 -111.7z"/><path fill="#1e4524" d="M5258.66 2042.4l54.31 -173.04 1.55 0 50.34 173.04 -106.2 0zm-236.7 200.56l173.82 0 25.18 -80.22 178.52 0 23.57 80.22 179.28 0 -204.42 -561.54 -169.08 0 -206.87 561.54z"/><g><path fill="#1e4524" d="M4180.94 2608.23c0,14.6 -2.93,27.04 -8.76,37.26 -5.87,10.24 -13.63,18.57 -23.39,25.05 -9.74,6.45 -20.76,11.12 -33.07,14.07 -12.29,2.91 -24.89,4.36 -37.8,4.36 -10.99,0 -22.97,-1.41 -36.03,-4.19 -13.03,-2.81 -25.16,-7.75 -36.34,-14.79 -11.19,-7.05 -20.59,-16.65 -28.13,-28.69 -7.56,-12.06 -11.32,-27.51 -11.32,-46.23l43.83 0c0,11.18 1.82,20.7 5.48,28.49 3.65,7.8 8.65,14.14 14.97,19 6.37,4.89 13.84,8.4 22.5,10.61 8.64,2.21 18.06,3.29 28.32,3.29 6.84,0 13.55,-0.79 20.27,-2.38 6.69,-1.59 12.68,-4.15 17.89,-7.66 5.26,-3.57 9.5,-8.1 12.79,-13.71 3.3,-5.62 4.93,-12.44 4.93,-20.47 0,-8.27 -1.8,-14.98 -5.49,-20.1 -3.62,-5.14 -8.74,-9.32 -15.33,-12.62 -6.59,-3.26 -14.36,-6.09 -23.39,-8.41 -9.02,-2.31 -18.88,-4.79 -29.58,-7.47 -10.45,-2.69 -20.95,-5.56 -31.4,-8.6 -10.51,-3.01 -19.95,-7.2 -28.34,-12.41 -8.39,-5.25 -15.23,-11.94 -20.45,-20.08 -5.25,-8.18 -7.87,-18.73 -7.87,-31.64 0,-14.13 2.78,-26.05 8.4,-35.81 5.6,-9.75 12.96,-17.71 22.11,-23.94 9.15,-6.22 19.54,-10.72 31.23,-13.53 11.7,-2.77 23.51,-4.18 35.45,-4.18 13.41,0 26.09,1.45 37.99,4.38 11.96,2.9 22.44,7.61 31.42,14.05 9.03,6.46 16.24,15.01 21.74,25.59 5.51,10.6 8.61,23.59 9.33,38.93l-41.64 0c0,-9.04 -1.61,-16.75 -4.78,-23.19 -3.16,-6.47 -7.43,-11.73 -12.8,-15.74 -5.35,-4.01 -11.59,-6.94 -18.78,-8.76 -7.19,-1.82 -14.69,-2.76 -22.48,-2.76 -6.09,0 -12.43,0.63 -19,1.83 -6.59,1.26 -12.6,3.35 -18.1,6.43 -5.45,3.05 -9.91,7.04 -13.3,12.02 -3.43,5 -5.15,11.28 -5.15,18.83 0,8.29 2.48,15 7.32,20.12 4.85,5.1 11.21,9.32 19.02,12.6 7.79,3.27 16.55,6.1 26.3,8.41 9.73,2.29 19.71,4.79 29.97,7.48 10.69,2.7 20.99,5.66 30.87,8.96 9.81,3.3 18.51,7.68 25.92,13.12 7.44,5.51 13.41,12.45 17.89,20.86 4.53,8.4 6.78,18.92 6.78,31.62l0 0zm157.48 -59.22c-2.9,-9.25 -8.1,-16.52 -15.54,-21.73 -7.42,-5.26 -16.36,-7.87 -26.86,-7.87 -9.52,0 -17.66,1.64 -24.45,4.94 -6.84,3.28 -12.5,7.75 -17.01,13.34 -4.54,5.62 -7.89,12.13 -10.24,19.56 -2.32,7.42 -3.56,15.16 -3.82,23.2l0 4.38 97.92 -35.82zm41.29 63.97c-1.45,11.69 -4.58,22.16 -9.32,31.42 -4.77,9.25 -10.95,17.12 -18.63,23.56 -7.68,6.47 -16.44,11.34 -26.3,14.63 -9.89,3.28 -20.66,4.93 -32.33,4.93 -14.13,0 -26.96,-2.5 -38.38,-7.49 -11.44,-4.98 -21.26,-11.8 -29.42,-20.47 -8.14,-8.68 -14.42,-18.88 -18.82,-30.68 -4.36,-11.83 -6.57,-24.55 -6.57,-38.19 0,-14.14 2.21,-27.41 6.57,-39.86 4.4,-12.41 10.68,-23.13 18.82,-32.14 8.16,-9.02 18.18,-16.13 29.96,-21.38 11.81,-5.24 25.04,-7.85 39.64,-7.85 10.72,0 20.95,1.45 30.7,4.4 9.73,2.9 18.45,7.29 26.13,13.12 7.68,5.87 13.92,13.1 18.8,21.77 4.87,8.63 7.91,18.57 9.15,29.76l-138.51 50.44c1.01,6.59 2.83,12.83 5.53,18.82 2.63,5.97 6.14,11.13 10.4,15.55 4.25,4.36 9.44,7.85 15.51,10.41 6.11,2.54 13.04,3.84 20.86,3.84 13.12,0 24.15,-4.15 33.06,-12.45 8.86,-8.28 13.94,-19 15.16,-32.14l37.99 0zm293.39 69.81l0 -111.47c0,-6.82 -0.73,-13.24 -2.21,-19.21 -1.43,-5.95 -3.8,-11.19 -7.11,-15.68 -3.29,-4.52 -7.58,-8.05 -12.99,-10.63 -5.31,-2.54 -11.8,-3.83 -19.38,-3.83 -8.26,0 -15.43,1.6 -21.51,4.74 -6.09,3.16 -11.15,7.45 -15.16,12.82 -4.03,5.37 -7.02,11.44 -8.94,18.24 -1.97,6.86 -2.94,14.02 -2.94,21.58l0 103.44 -39.81 0 0 -111.47c0,-6.82 -0.74,-13.24 -2.23,-19.21 -1.46,-5.95 -3.82,-11.19 -7.12,-15.68 -3.29,-4.52 -7.59,-8.05 -12.96,-10.63 -5.35,-2.54 -11.81,-3.83 -19.39,-3.83 -8.27,0 -15.44,1.6 -21.51,4.74 -6.13,3.16 -11.16,7.45 -15.18,12.82 -4.03,5.37 -7.01,11.44 -8.95,18.24 -1.94,6.86 -2.95,14.02 -2.95,21.58l0 103.44 -39.81 0 0 -188.93 39.81 0 0 33.59c6.36,-13.16 14.95,-22.78 25.78,-28.84 10.84,-6.11 23.55,-9.15 38.17,-9.15 16.59,0 30.35,4.03 41.3,12.07 10.97,8.03 18.16,19.12 21.55,33.21 5.6,-15.59 14.08,-27.02 25.39,-34.33 11.34,-7.31 25.3,-10.95 41.81,-10.95 20.24,0 36.35,5.97 48.27,17.91 11.94,11.92 17.89,27.87 17.89,47.88l0 127.54 -39.82 0zm211.56 -133.78c-2.94,-9.25 -8.1,-16.52 -15.52,-21.73 -7.42,-5.26 -16.4,-7.87 -26.87,-7.87 -9.49,0 -17.63,1.64 -24.49,4.94 -6.79,3.28 -12.45,7.75 -16.98,13.34 -4.5,5.62 -7.91,12.13 -10.24,19.56 -2.28,7.42 -3.56,15.16 -3.82,23.2l0 4.38 97.92 -35.82zm41.31 63.97c-1.49,11.69 -4.59,22.16 -9.32,31.42 -4.77,9.25 -10.97,17.12 -18.65,23.56 -7.68,6.47 -16.46,11.34 -26.3,14.63 -9.89,3.28 -20.64,4.93 -32.33,4.93 -14.15,0 -26.92,-2.5 -38.38,-7.49 -11.46,-4.98 -21.24,-11.8 -29.4,-20.47 -8.16,-8.68 -14.44,-18.88 -18.8,-30.68 -4.42,-11.83 -6.59,-24.55 -6.59,-38.19 0,-14.14 2.17,-27.41 6.59,-39.86 4.36,-12.41 10.64,-23.13 18.8,-32.14 8.16,-9.02 18.14,-16.13 29.96,-21.38 11.83,-5.24 25.04,-7.85 39.62,-7.85 10.72,0 20.95,1.45 30.7,4.4 9.75,2.9 18.45,7.29 26.13,13.12 7.68,5.87 13.94,13.1 18.82,21.77 4.88,8.63 7.91,18.57 9.15,29.76l-138.51 50.44c1.01,6.59 2.81,12.83 5.49,18.82 2.69,5.97 6.16,11.13 10.4,15.55 4.31,4.36 9.44,7.85 15.55,10.41 6.09,2.54 13.04,3.84 20.82,3.84 13.16,0 24.19,-4.15 33.06,-12.45 8.9,-8.28 13.98,-19 15.18,-32.14l38.01 0zm163.32 69.81l0 -111.47c0,-6.82 -0.76,-13.28 -2.19,-19.38 -1.48,-6.09 -3.86,-11.33 -7.14,-15.71 -3.29,-4.38 -7.63,-7.85 -12.96,-10.43 -5.37,-2.54 -11.83,-3.83 -19.37,-3.83 -8.27,0 -15.46,1.6 -21.55,4.74 -6.11,3.16 -11.18,7.39 -15.2,12.62 -4.03,5.24 -6.97,11.35 -8.95,18.29 -1.9,6.93 -2.89,14.17 -2.89,21.73l0 103.44 -39.87 0 0 -188.93 39.87 0 0 33.59c6.32,-13.16 14.93,-22.78 25.72,-28.84 10.88,-6.11 23.59,-9.15 38.22,-9.15 20.2,0 36.29,5.97 48.19,17.91 11.96,11.92 17.95,27.87 17.95,47.88l0 127.54 -39.83 0zm119.1 -163l0 163 -39.83 0 0 -162.65 -19.71 0 0 -25.92 19.71 0 0 -42.76 39.83 -22.31 0 64.71 19.71 0 0 25.93 -19.71 0zm171.71 29.22c-2.9,-9.25 -8.1,-16.52 -15.54,-21.73 -7.37,-5.26 -16.36,-7.87 -26.81,-7.87 -9.51,0 -17.67,1.64 -24.5,4.94 -6.82,3.28 -12.5,7.75 -16.98,13.34 -4.51,5.62 -7.92,12.13 -10.21,19.56 -2.35,7.42 -3.63,15.16 -3.88,23.2l0 4.38 97.92 -35.82zm41.31 63.97c-1.46,11.69 -4.58,22.16 -9.33,31.42 -4.74,9.25 -10.97,17.12 -18.6,23.56 -7.72,6.47 -16.48,11.34 -26.34,14.63 -9.89,3.28 -20.63,4.93 -32.35,4.93 -14.11,0 -26.89,-2.5 -38.34,-7.49 -11.46,-4.98 -21.25,-11.8 -29.44,-20.47 -8.14,-8.68 -14.41,-18.88 -18.81,-30.68 -4.36,-11.83 -6.55,-24.55 -6.55,-38.19 0,-14.14 2.19,-27.41 6.55,-39.86 4.4,-12.41 10.67,-23.13 18.81,-32.14 8.19,-9.02 18.18,-16.13 30.02,-21.38 11.76,-5.24 24.96,-7.85 39.62,-7.85 10.72,0 20.95,1.45 30.68,4.4 9.75,2.9 18.43,7.29 26.15,13.12 7.63,5.87 13.93,13.1 18.78,21.77 4.84,8.63 7.95,18.57 9.15,29.76l-138.49 50.44c0.97,6.59 2.81,12.83 5.48,18.82 2.68,5.97 6.15,11.13 10.41,15.55 4.29,4.36 9.44,7.85 15.55,10.41 6.1,2.54 13.02,3.84 20.83,3.84 13.14,0 24.17,-4.15 33.07,-12.45 8.88,-8.28 13.92,-19 15.16,-32.14l37.99 0zm188.9 14.62c0,11.43 -2.42,20.95 -7.33,28.49 -4.88,7.56 -11.26,13.71 -19.15,18.46 -7.92,4.75 -16.74,8.1 -26.49,10.06 -9.77,1.94 -19.5,2.91 -29.23,2.91 -11.71,0 -22.72,-1.3 -33.09,-3.84 -10.35,-2.56 -19.34,-6.57 -27.04,-12.06 -7.65,-5.48 -13.78,-12.48 -18.25,-21.01 -4.5,-8.53 -6.9,-18.9 -7.1,-31.04l37.97 0c0.47,14.37 5.04,24.95 13.71,31.77 8.64,6.81 20.29,10.24 34.88,10.24 4.64,0 9.46,-0.54 14.44,-1.67 4.99,-1.08 9.56,-2.77 13.71,-5.1 4.13,-2.32 7.6,-5.35 10.43,-9.15 2.75,-3.74 4.18,-8.33 4.18,-13.7 0,-5.35 -1.16,-9.77 -3.47,-13.32 -2.32,-3.51 -5.73,-6.53 -10.23,-8.96 -4.54,-2.44 -10,-4.45 -16.44,-6.02 -6.47,-1.57 -13.82,-3.24 -22.13,-4.93 -10.7,-2.21 -20.45,-4.65 -29.23,-7.31 -8.76,-2.67 -16.24,-6.1 -22.47,-10.23 -6.2,-4.17 -11.01,-9.27 -14.44,-15.36 -3.41,-6.1 -5.09,-13.64 -5.09,-22.66 0,-8.53 1.99,-16.14 6.01,-22.83 4.01,-6.71 9.43,-12.33 16.28,-16.83 6.82,-4.5 14.84,-7.97 24.13,-10.41 9.22,-2.44 19.19,-3.64 29.92,-3.64 10.22,0 20.18,0.97 29.8,2.9 9.61,1.98 18.16,5.32 25.56,10.08 7.42,4.75 13.43,10.94 17.89,18.61 4.54,7.7 6.92,17.12 7.15,28.35l-36.9 0c0,-12.45 -4.15,-21.56 -12.43,-27.43 -8.29,-5.86 -18.27,-8.77 -29.94,-8.77 -7.81,0 -14.29,0.95 -19.38,2.91 -5.08,1.98 -9.11,4.34 -12.06,7.15 -2.93,2.81 -4.92,5.7 -6.01,8.77 -1.12,3.04 -1.67,5.79 -1.67,8.22 0,6.59 2.76,11.86 8.22,15.91 5.51,4.01 11.96,7.23 19.37,9.67 7.44,2.45 15.17,4.39 23.2,5.86 8.02,1.45 14.63,2.91 19.75,4.38 6.57,1.94 13.04,4.15 19.38,6.57 6.32,2.44 11.98,5.62 16.96,9.5 5,3.9 9.01,8.72 12.06,14.44 3.04,5.72 4.57,12.72 4.57,21.02l0 0z"/></g></g></g></svg>