<svg xmlns="http://www.w3.org/2000/svg" fill-rule="evenodd" clip-rule="evenodd" image-rendering="optimizeQuality" shape-rendering="geometricPrecision" text-rendering="geometricPrecision" viewBox="-2.009999990463257 1 6600 3300"><g><rect width="6600" height="3300" x="-2.01" y="1" fill="#414041"/><g fill="#fefefe" fill-rule="nonzero"><path d="M887.47 1061.87c-15.62,0 -28.27,12.68 -28.27,28.35l0 160.61 -160.59 0c-15.7,0 -28.38,12.68 -28.38,28.33 0,15.62 12.68,28.3 28.38,28.3l160.59 0 0 160.59c0,15.64 12.65,28.27 28.27,28.27 15.62,0 28.33,-12.63 28.33,-28.27l0 -160.59 160.56 0c15.67,0 28.35,-12.68 28.35,-28.3 0,-15.65 -12.68,-28.33 -28.35,-28.33l-160.56 0 0 -160.61c0,-15.67 -12.71,-28.35 -28.33,-28.35z"/><path d="M2397.57 2183.48c-240.56,0 -436.32,-195.74 -436.32,-436.33 0,-147.14 68.01,-279.7 181.93,-354.52 59.23,-38.93 145.53,-65.48 249.73,-77.63 82.99,9.3 186.27,30.02 256.75,75.98 115.31,75.12 184.21,208.27 184.21,356.17 0,240.59 -195.73,436.33 -436.3,436.33zm2460.22 -932.66c-110.48,0 -185.87,30.32 -230.6,92.76 -39.78,55.5 -49.13,130.27 -50.86,194.97 -0.2,1.35 -0.32,2.84 -0.32,4.34l-0.42 601.1c0,7.73 -2.99,38.78 -16.75,38.78 -18.03,0 -18.27,-35.96 -18.27,-36.38l0 -601.81c0,-152.47 -80.24,-223.77 -147.55,-256.68 -63.83,-31.27 -129.8,-35.92 -164.14,-35.92l-0.09 0c-33.7,0 -99.67,4.73 -163.42,36.32 -67.16,33.25 -147.22,105.23 -147.22,259.15l0 134.35c0,0.46 -0.24,36.39 -18.24,36.39 -13.76,0 -16.75,-31.17 -16.75,-38.99l-0.45 -131.75c0,-153.92 -80.07,-225.9 -147.19,-259.15 -63.79,-31.59 -129.73,-36.32 -164.05,-36.32l-0.15 0c-33.74,0 -99.66,4.65 -163.45,35.92 -67.35,32.91 -147.55,104.21 -147.55,256.68l0 136.24c0,0.39 -0.29,36.27 -18.29,36.27 -13.83,0 -16.72,-31.07 -16.72,-38.85l-0.45 -135.5c0,-1.47 -0.16,-3.07 -0.37,-4.41 -4.26,-146.42 -47.42,-287.51 -281.37,-287.51l-413.29 0c-48.26,0 -93.95,2.33 -136.89,7.05 -56.56,-6.04 -104.04,-7.05 -128.63,-7.05l-444.2 0c-286.59,0 -494.62,208.05 -494.62,494.45l-0.04 7.65c-4.05,237.42 -200.47,430.56 -437.99,430.56 -15.6,0 -28.28,12.65 -28.28,28.3 0,15.62 12.68,28.35 28.28,28.35 268.23,0 490.13,-218.13 494.62,-486.48l0.07 -8.16c0,-253.83 184.13,-438.02 437.96,-438.02l364.19 0c-26.53,11.06 -50.71,23.6 -72.22,37.77 -129.93,85.4 -207.51,235.64 -207.51,401.91 0,271.84 221.14,492.98 493,492.98 271.84,0 492.95,-221.14 492.95,-492.98 0,-167.18 -78.45,-318.03 -209.96,-403.64 -21.5,-14.03 -45.32,-25.93 -70.46,-36.04l333.02 0c188.23,0 225.12,94.42 225.12,257.64 0,0.66 0,1.4 0.05,2.09l0.29 111.09c0,46.01 23.03,95.5 73.45,95.5 51.5,0 74.88,-48.19 74.88,-92.97l0 -136.24c0,-98.93 38.99,-168.21 115.9,-205.84 39.02,-19.1 89.54,-30.13 139.11,-30.13l0.19 0c48.8,0 99.2,11.13 138.18,30.45 76.76,38.09 115.77,108.16 115.77,208.39l0.4 131.87c0,47.55 22.7,95.5 73.45,95.5 44.09,0 74.87,-38.23 74.87,-93.02l0 -134.35c0,-100.23 38.95,-170.3 115.78,-208.39 38.99,-19.32 89.38,-30.45 138.82,-30.45l0.14 0c48.98,0 99.45,11.03 138.54,30.13 76.89,37.63 115.85,106.91 115.85,205.84l0 601.81c0,44.81 23.5,93.05 74.93,93.05 50.42,0 73.43,-49.46 73.43,-95.4l0.37 -577.93 0.07 -1c0,-163.22 36.81,-257.64 225.08,-257.64l340.83 0c170.27,0 263.25,88.88 277.6,171.49 13.98,80.07 -41.27,152.79 -143.97,189.55 -65.92,23.24 -98.3,30.11 -132.53,37.32 -34.9,7.41 -71.03,14.99 -142.34,40.15 -106.74,38.65 -144.82,127.94 -144.82,198.75 0,88.16 25.94,158.79 77.1,209.78 77.21,77.13 189.55,85.62 235.12,85.62l0.64 0 -0.05 -28.35 1.45 28.35 0.1 0c33.37,0 98.88,-4.66 162.03,-36.01 66.65,-32.93 146.06,-104.23 146.06,-256.62l0 -137.44c0,-5.84 0.76,-35.24 16.68,-35.24 15.03,0 18.29,30.31 18.29,37.82l0.44 135.49c0,163.29 0.88,292 244.93,292l82.06 0c15.7,0 28.35,-12.73 28.35,-28.35 0,-15.65 -12.65,-28.3 -28.35,-28.3l-82.06 0c-188.28,0 -188.28,-74.39 -188.28,-237.13l0 -0.71 -0.41 -133.1c0,-46.87 -25.75,-94.42 -74.97,-94.42 -44.52,0 -73.38,36.1 -73.38,91.94l0 137.44c0,99 -38.54,168.28 -114.47,205.88 -38.63,19.11 -88.54,30.1 -136.92,30.1l-0.1 0 -1.45 0 -0.61 0c-38.39,0 -132.78,-6.87 -195.09,-69.02 -40.08,-40.05 -60.43,-97.16 -60.43,-169.73 0,-17.84 5.14,-108.43 107.14,-145.33 67.67,-23.87 100.41,-30.76 135.01,-38.14 34.56,-7.31 70.27,-14.82 139.87,-39.34 155.98,-55.9 195.66,-167.21 180.81,-252.72 -26.08,-150.03 -191.09,-218.38 -333.45,-218.38l-340.83 0z"/></g></g></svg>