<svg  id="fndm-0tq2uj8wv7" viewBox="0.8904209136962891 0.03247298300266266 249.02891540527344 491.7513427734375" xmlns="http://www.w3.org/2000/svg">
   <g xmlns="http://www.w3.org/2000/svg" fill="none">
    <path d="m63.62,246.14c-16.13,-0.01 -32.29,-0.64 -48.38,0.22c-10.57,0.57 -13.95,-2.36 -13.21,-13.33c4.88,-72.55 35.3,-132.05 91.31,-178.01c41.55,-34.1 89.81,-51.87 143.58,-54.91c9.56,-0.54 13.21,1.56 12.99,12.06c-0.69,33.19 -0.49,66.4 -0.09,99.59c0.1,8.08 -1.62,11.09 -10.53,12.32c-64.92,8.98 -103.22,46.76 -112.53,111c-1.36,9.37 -4.73,11.53 -13.33,11.23c-16.59,-0.57 -33.21,-0.17 -49.81,-0.17z" fill="#002EFE"/>
    <path d="m147.54,441.08c-2,1.98 -4.01,3.96 -6.01,5.95c-5.8,3.26 -9,1.61 -9.31,-5.07c-0.18,-3.79 -0.05,-7.59 -0.05,-11.39c0,-55.51 -0.01,-111.02 0.02,-166.53c0,-3.78 -0.54,-7.63 0.43,-11.32c0.92,-3.48 3.28,-5.63 7.07,-5.95c4.35,-0.36 7.33,1.58 8.92,5.49c0.9,2.21 0.56,4.67 0.56,7.03c0.01,58.83 0.03,117.66 0.01,176.5c-0.02,1.97 -0.42,3.74 -1.64,5.29z" fill="#022EF9"/>
    <path d="m198.94,388.54c0,-44.8 0.11,-89.61 -0.11,-134.41c-0.03,-6.73 2.09,-9.09 8.92,-8.92c6.05,0.15 8.28,2.02 8.25,8.2c-0.19,36.4 0.06,72.8 -0.17,109.21c-0.07,11.2 -8.92,18.06 -16.89,25.92z" fill="#0631F6"/>
    <path d="m102.15,315.86c3.97,-7.25 7.94,-14.5 13.81,-25.23l0,169.3c0,2.01 -0.56,3.65 -2.66,4.37c-7.73,3.43 -12.58,2.75 -12.54,-7.5c0.19,-45.65 -0.03,-91.31 0.11,-136.96c0.02,-1.52 0.76,-2.68 1.28,-3.98z" fill="#0A34F2"/>
    <path d="m178.94,415.9c-0.91,1 -1.82,1.99 -2.74,2.99c-10.21,4.55 -9.86,-2.46 -9.86,-9.02c-0.02,-37.81 -0.11,-75.63 0.04,-113.44c0.06,-15.11 -0.83,-30.23 0.56,-45.32c7.25,-4.32 13.4,-4.18 13.37,5.9c-0.12,52.05 1.15,104.12 -0.63,156.16c-0.02,0.92 -0.48,1.82 -0.74,2.73z" fill="#0834F7"/>
    <path d="m48.89,424.7c0.01,17.48 -0.41,34.98 0.2,52.44c0.29,8.34 -2.32,12.62 -10.77,12.631c-9.2,0.019 -5.73,-7.321 -5.76,-11.431c-0.27,-34.96 0.25,-69.93 -0.22,-104.88c-0.12,-9.15 4.98,-12.27 11.77,-12.49c3.312,-0.113 4.305,0.084 4.89,1.03c0.971,1.57 -0.069,4.572 0,7c0.5,17.46 -0.13,38.22 -0.11,55.7z" fill="#012EF8"/>
    <path d="m2,369c8.01,-0.23 14.31,1.99 14.26,11.52c-0.19,35.48 -0.07,70.96 -0.21,106.43c-0.01,1.54 -1.54,3.07 -2.36,4.61c-9.46,1.18 -13.01,-2.21 -12.79,-12.44c0.69,-32.07 0.29,-64.17 0.21,-96.26c-0.01,-4.75 -0.11,-8.86 0.89,-13.86z" fill="#0B37F8"/>
    <path d="m68,349c0.86,-0.58 1.6,-1.1 2.46,-1.68c6.07,-2.38 10.31,-1.79 10.32,6.13c0.04,38.86 0.01,77.73 0.02,116.59c0,5.49 -2.08,9.24 -7.91,9.78c-5.23,0.48 -6.31,-2.88 -6.23,-7.23c0.76,-41.18 1.34,-83.59 1.34,-123.59z" fill="#0732F3"/>
    <path d="m232.41,323c0,-23.05 0.09,-46.1 -0.07,-69.15c-0.04,-5.67 1.37,-8.57 7.88,-8.6c6.65,-0.03 7.8,3.05 7.67,8.66c-0.56,23.65 -4.79,46.57 -15.48,69.09z" fill="#022EF8"/>
   </g>
  </svg>