<svg  id="fndm-lvmhfgukk4" viewBox="0.4203009605407715 0.4500004053115845 717.0797729492188 225.24534606933594" xmlns="http://www.w3.org/2000/svg">
   <path d="m43.5,1.1c-22.9,3.5 -36.4,15.4 -39.6,34.8c-2.3,13.9 1.5,25.5 11.1,34.5c7.4,6.8 15.2,10.1 38,15.9c25.3,6.6 32,9.8 36.1,18c1.8,3.4 2.1,5.3 1.7,11.2c-0.9,13.6 -9,23.2 -23.3,27.8c-5.8,1.8 -9.2,2.2 -20,2.2c-14.9,-0.1 -21.8,-1.6 -33.3,-7.2c-6.2,-3.1 -7.6,-3.4 -9.8,-2.5c-3.4,1.6 -4.8,5 -3.5,8.5c1.3,3.4 11.7,8.6 23.6,11.8c10.8,3 33.7,3.2 43.5,0.5c10.5,-2.9 18.4,-7.2 24.5,-13.7c8.1,-8.4 10.8,-15 11.3,-27.1c0.6,-13.1 -1.2,-18.4 -8.7,-25.9c-7,-7 -14.4,-10.1 -38.2,-16.4c-26.5,-7 -35.6,-12.1 -38.9,-22c-1.6,-5 -0.9,-17.1 1.4,-21.7c8.6,-17.7 38.1,-21.9 65.8,-9.6c8,3.6 11.6,3.2 13.2,-1.4c1.4,-4 -1.5,-7.5 -9,-10.9c-12.8,-5.8 -33,-8.8 -45.9,-6.8zm216,-0.1c-21.5,3.9 -38.7,18.4 -46.3,39l-2.7,7.5l-0.3,52.9c-0.3,59 -0.5,57.6 6.2,57.6c6.8,0 6.6,1.9 6.6,-52.7c0,-29.2 0.4,-51.2 1,-54.4c2.7,-13.9 12.5,-26.6 25.5,-33c6.8,-3.3 7.4,-3.4 19.1,-3.4c11.9,0 12.1,0 19.6,3.8c12.2,6 21.8,17.9 24.7,30.8c0.6,2.7 1.1,24.3 1.1,54.4c0,55.7 -0.1,54.5 6.4,54.5c6.9,0 6.6,2.1 6.6,-55.1s0,-57.2 -6.7,-70.9c-6.8,-13.9 -22.2,-26.3 -37.4,-29.9c-6.8,-1.6 -17.7,-2.1 -23.4,-1.1zm161.9,0c-16.8,2.6 -33,13.5 -41.7,28.1c-7.6,12.9 -8.2,16.5 -8.2,50.4c0,26.3 0.2,30.7 1.8,36c2.5,8.1 7.8,18 12.7,23.7c5.6,6.5 17.7,14.3 26.3,17c10.1,3.2 26.4,3.1 35.7,-0.1c17.5,-6.1 30.6,-19 37.3,-36.7c2.1,-5.6 2.2,-7.6 2.5,-37.2c0.3,-25.8 0,-32.3 -1.3,-37.5c-4.8,-19.1 -20.5,-35.9 -39,-41.6c-7.2,-2.3 -19.1,-3.2 -26.1,-2.1zm27.6,17.1c9.7,4.7 16.9,11.8 21.8,21.8l3.7,7.5l0.3,30.2c0.3,28.6 0.2,30.5 -1.8,36.5c-4.2,12.3 -12,21.3 -23.5,27c-22.4,11 -49.6,1.3 -60.5,-21.6c-4.3,-9.1 -5.3,-18.5 -4.7,-45.9c0.4,-20.4 0.7,-23.8 2.6,-29.1c4.6,-12.8 14.9,-23.4 27.3,-28.1c5.4,-2.1 7.7,-2.4 16.8,-2.1c9.7,0.2 11.1,0.5 18,3.8zm205.5,-17.5c-16.6,2.2 -26.1,4.8 -37.1,10c-5.5,2.6 -7.4,4.1 -8.4,6.4c-1.1,2.8 -1.1,3.4 0.7,5.8c2.8,3.7 6.6,3.4 17.7,-1.3c16.4,-6.9 35.6,-9.2 49.4,-6c12,2.8 18.7,7.8 23.3,17.1c2.7,5.5 3.2,7.6 3.3,14.5l0.1,8l-4.1,3.8c-5.4,5.1 -12.5,7.3 -37.4,11.6c-22.8,4 -31.7,6.3 -40.3,10.7c-16.1,8.1 -23.6,22.8 -20.8,40.8c3.6,22.9 19.9,35.1 49.1,36.6c19.1,1.1 36.1,-4.8 47.8,-16.6l6,-6l0.4,9.6c0.2,8.1 0.6,9.8 2.2,11c2.5,1.8 6.7,1.8 9.2,0c1.8,-1.4 1.9,-3.2 1.9,-59.3c0,-56.9 0,-57.9 -2.2,-64.8c-6.3,-20 -22.5,-30.6 -48.8,-31.9c-4.9,-0.2 -10.3,-0.2 -12,0zm49.3,89.1c-0.6,16.9 -1.7,21.8 -7.4,32.3c-3.2,5.9 -12.3,14.9 -18,17.8c-8.4,4.3 -15,5.5 -27.3,5c-23.7,-1 -35.8,-10 -36.9,-27.4c-1.2,-18.5 8.8,-26.4 40.2,-31.9c33.3,-5.9 37.4,-6.8 42.6,-9c3,-1.3 5.9,-2.4 6.4,-2.4c0.4,-0.1 0.6,7 0.4,15.6zm-554.8,-81.7c-2,2 -2,3.3 -2,73.8c0,79.7 -0.3,76.2 6.4,76.2c7,0 6.6,4.4 6.6,-76.2c0,-69 -0.1,-72.6 -1.8,-74.1c-2.5,-2.3 -6.8,-2.1 -9.2,0.3zm391.4,-1.2c-3.3,2.2 -3.4,4.9 -3.4,75.9c0,78.8 -0.3,75.3 6.5,75.3c4,0 6.2,-2 7,-6.3c0.3,-1.8 0.5,-34.3 0.3,-72.3c-0.3,-66.4 -0.4,-69.3 -2.2,-71.3c-1.9,-2.1 -6.1,-2.8 -8.2,-1.3zm-63.4,143.2c-1.9,1.9 -2,3.3 -2,36.5l0,34.6l2.6,2.5c1.9,2 3.1,2.4 5.2,1.9c5.2,-1.2 5.2,-1.3 5.2,-39c0,-32.8 -0.1,-35.3 -1.8,-36.8c-2.5,-2.3 -6.8,-2.1 -9.2,0.3z" fill="#E6552F"/>
  </svg>