<svg  id="fndm-51ek978mgu" viewBox="25.46299934387207 38 550.2611083984375 174.5399932861328" xmlns="http://www.w3.org/2000/svg">
   <g xmlns="http://www.w3.org/2000/svg" fill="none">
    <path d="m87.196,38c-32.579,53.053 40.075,62.171 40.075,62.171c57.383,8.29 71.266,26.71 71.266,26.71l0,-88.881l-111.341,0z" fill="#2870BE"/>
    <path d="m153.186,147.145c-61.085,-11.975 -73.116,-24.869 -73.116,-24.869c-41.835,-35.552 -10.55,-79.394 -6.85,-84.276l-47.757,0l0,174.54l160.117,0c20.361,-54.343 -32.394,-65.395 -32.394,-65.395z" fill="#2EA44C"/>
    <path d="m230.475,129.065c-0.092,1.47 0.093,2.48 0.463,3.216c0.832,1.287 2.497,1.93 5.087,1.93c1.572,0 2.867,-0.184 3.885,-0.552c1.942,-0.643 3.145,-1.837 3.515,-3.583c0.185,-1.011 -0.093,-1.838 -0.832,-2.39c-0.74,-0.55 -2.128,-1.01 -3.978,-1.47l-3.145,-0.735c-3.145,-0.735 -5.18,-1.562 -6.29,-2.39c-1.85,-1.47 -2.405,-3.675 -1.757,-6.8c0.555,-2.756 2.127,-5.145 4.532,-6.983c2.405,-1.838 5.643,-2.757 9.62,-2.757c3.33,0 5.92,0.92 7.955,2.573c2.035,1.654 2.683,4.32 2.035,7.627l-6.29,0c0.278,-1.837 -0.277,-3.216 -1.572,-4.043c-0.925,-0.551 -2.128,-0.827 -3.608,-0.827c-1.665,0 -3.145,0.368 -4.255,1.01c-1.202,0.644 -1.85,1.655 -2.127,2.85c-0.278,1.102 0.092,1.93 0.925,2.48c0.555,0.368 1.85,0.828 3.792,1.287l5.18,1.287c2.22,0.55 3.885,1.286 4.903,2.297c1.572,1.47 2.035,3.584 1.48,6.34c-0.648,2.85 -2.22,5.238 -4.81,7.076c-2.59,1.93 -5.92,2.849 -9.898,2.849c-4.07,0 -7.122,-0.92 -9.065,-2.757c-1.942,-1.838 -2.59,-4.41 -1.85,-7.627l6.105,0l0,0.092zm38.943,-21.687l7.4,0l4.44,31.244l-7.123,0l-0.648,-6.433l-11.562,0l-3.515,6.433l-6.845,0l17.853,-31.244zm-4.625,19.481l7.955,0l-1.295,-12.313l-6.66,12.313zm27.935,-19.481l6.937,0l7.862,21.779l4.718,-21.779l6.105,0l-6.66,31.244l-6.567,0l-8.14,-22.238l-4.718,22.238l-6.105,0l6.568,-31.244zm55.5,0l-1.203,5.514l-9.435,0l-5.457,25.73l-6.66,0l5.457,-25.73l-9.435,0l1.203,-5.514l25.53,0zm22.107,28.487c-2.867,2.39 -6.567,3.676 -11.1,3.676c-4.533,0 -7.678,-1.195 -9.528,-3.676c-2.59,-2.94 -3.237,-7.26 -2.035,-12.865c1.203,-5.697 3.7,-10.016 7.493,-12.865c2.868,-2.39 6.567,-3.676 11.1,-3.676c4.533,0 7.678,1.195 9.528,3.676c2.59,2.849 3.237,7.168 2.035,12.865c-1.203,5.605 -3.7,9.924 -7.493,12.865zm0.925,-12.865c0.74,-3.492 0.555,-6.249 -0.555,-8.086c-1.11,-1.93 -2.96,-2.85 -5.55,-2.85s-4.902,0.92 -6.845,2.85c-1.942,1.93 -3.33,4.594 -4.07,8.178c-0.74,3.492 -0.555,6.249 0.555,8.178c1.11,1.93 3.053,2.849 5.643,2.849s4.902,-0.919 6.845,-2.849c1.942,-1.93 3.237,-4.778 3.977,-8.27zm15.91,6.065c-0.093,1.47 0.092,2.48 0.462,3.216c0.833,1.287 2.498,1.93 5.088,1.93c1.572,0 2.867,-0.184 3.885,-0.552c1.942,-0.643 3.145,-1.837 3.515,-3.583c0.185,-1.011 -0.093,-1.838 -0.833,-2.39c-0.74,-0.55 -2.127,-1.01 -3.977,-1.47l-3.145,-0.735c-3.145,-0.735 -5.18,-1.562 -6.29,-2.39c-1.85,-1.47 -2.405,-3.675 -1.757,-6.8c0.555,-2.756 2.127,-5.145 4.532,-6.983c2.405,-1.838 5.642,-2.757 9.62,-2.757c3.33,0 5.92,0.92 7.955,2.573c1.942,1.746 2.682,4.32 2.035,7.627l-6.29,0c0.278,-1.837 -0.278,-3.216 -1.572,-4.043c-0.925,-0.551 -2.128,-0.827 -3.608,-0.827c-1.665,0 -3.145,0.368 -4.255,1.01c-1.11,0.644 -1.85,1.655 -2.127,2.85c-0.278,1.102 0.092,1.93 0.925,2.48c0.554,0.368 1.85,0.828 3.792,1.287l5.18,1.287c2.22,0.55 3.885,1.286 4.903,2.297c1.572,1.47 2.034,3.584 1.48,6.34c-0.648,2.85 -2.22,5.238 -4.81,7.076c-2.59,1.93 -5.92,2.849 -9.898,2.849c-4.07,0 -7.123,-0.92 -9.065,-2.757c-1.942,-1.838 -2.59,-4.41 -1.85,-7.627l6.105,0l0,0.092zm63.18,-17.677c0.646,1.318 0.831,3.012 0.462,4.894c-0.37,1.977 -1.2,3.483 -2.492,4.706c-0.646,0.66 -1.57,1.318 -2.77,1.788c1.478,0.565 2.493,1.506 3.047,2.824c0.553,1.318 0.646,2.824 0.277,4.706c-0.37,1.882 -1.2,3.576 -2.492,5.082c-0.831,1.036 -1.754,1.883 -2.77,2.541c-1.2,0.753 -2.491,1.318 -3.876,1.6a22.96,22.96 0 0 1 -4.522,0.471l-14.214,0l6.645,-32l15.23,0c3.876,0 6.368,1.13 7.475,3.388zm-20.12,14.494l-1.754,8.565l7.753,0c1.384,0 2.492,-0.188 3.323,-0.565c1.569,-0.658 2.492,-2.07 2.953,-3.953c0.37,-1.694 -0.092,-2.823 -1.292,-3.388c-0.646,-0.376 -1.661,-0.565 -3.046,-0.565l-7.937,0l0,-0.094zm2.492,-12.33l-1.477,7.06l7.753,0c1.384,0 2.584,-0.283 3.507,-0.753c1.015,-0.565 1.57,-1.506 1.846,-2.824c0.277,-1.506 -0.092,-2.447 -1.107,-2.917c-0.923,-0.377 -2.123,-0.47 -3.692,-0.47l-6.83,0l0,-0.095l0,-0.001zm49.314,-3.142c0.55,0.828 0.826,1.655 1.01,2.666c0.184,0.919 0.184,2.021 -0.092,3.308c-0.367,1.47 -1.01,2.94 -2.02,4.41c-1.011,1.47 -2.48,2.482 -4.318,3.033c1.286,0.551 2.113,1.378 2.572,2.481c0.368,1.103 0.368,2.665 -0.184,4.87l-0.459,2.114c-0.275,1.47 -0.46,2.39 -0.46,2.94c0,0.827 0.276,1.379 0.828,1.746l-0.184,0.827l-7.165,0c-0.091,-0.735 -0.091,-1.286 -0.091,-1.654c0,-0.919 0.091,-1.746 0.275,-2.665l0.551,-2.94c0.368,-2.022 0.276,-3.308 -0.275,-3.951c-0.551,-0.644 -1.837,-1.011 -3.674,-1.011l-6.706,0l-2.571,12.221l-6.338,0l6.613,-31.243l15.34,0c2.204,0 3.765,0.276 4.868,0.827c1.01,0.368 1.928,1.103 2.48,2.022l0,-0.001zm-17.452,2.482l-1.745,8.362l7.44,0c1.47,0 2.571,-0.184 3.398,-0.551c1.47,-0.552 2.296,-1.746 2.756,-3.492c0.367,-1.93 0,-3.125 -1.103,-3.86c-0.643,-0.367 -1.653,-0.551 -3.03,-0.551l-7.716,0l0,0.092zm33.985,-5.514l7.348,0l4.409,31.244l-7.073,0l-0.643,-6.433l-11.48,0l-3.49,6.433l-6.798,0l17.728,-31.244l-0.001,0zm-4.593,19.481l7.9,0l-1.286,-12.313l-6.614,12.313zm26.178,2.206c-0.092,1.47 0.092,2.48 0.46,3.216c0.826,1.287 2.48,1.93 5.051,1.93c1.562,0 2.848,-0.184 3.858,-0.552c1.929,-0.643 3.123,-1.837 3.49,-3.583c0.184,-1.011 -0.092,-1.838 -0.826,-2.39c-0.735,-0.55 -2.113,-1.01 -3.95,-1.47l-3.123,-0.735c-3.123,-0.735 -5.144,-1.562 -6.246,-2.39c-1.837,-1.47 -2.388,-3.675 -1.745,-6.8c0.551,-2.756 2.113,-5.145 4.5,-6.983c2.389,-1.838 5.604,-2.757 9.553,-2.757c3.307,0 5.879,0.92 7.9,2.573c2.02,1.654 2.663,4.32 2.02,7.627l-6.246,0c0.276,-1.837 -0.275,-3.216 -1.561,-4.043c-0.919,-0.551 -2.113,-0.827 -3.582,-0.827c-1.654,0 -3.123,0.368 -4.226,1.01c-1.194,0.644 -1.837,1.655 -2.112,2.85c-0.276,1.102 0.092,1.93 0.918,2.48c0.552,0.368 1.837,0.828 3.766,1.287l5.144,1.287c2.204,0.55 3.858,1.286 4.868,2.297c1.562,1.47 2.02,3.584 1.47,6.34c-0.643,2.85 -2.205,5.238 -4.776,7.076c-2.572,1.838 -5.879,2.849 -9.829,2.849c-4.041,0 -7.072,-0.92 -9.001,-2.757c-1.929,-1.838 -2.572,-4.41 -1.837,-7.627l6.062,0l0,0.092zm27.28,9.557l-6.521,0l6.613,-31.244l6.521,0l-6.613,31.244zm11.757,-31.244l6.522,0l-5.42,25.638l15.431,0l-1.194,5.606l-21.952,0l6.613,-31.244z" fill="#2870BE"/>
   </g>
  </svg>