<svg  id="fndm-t3bmmwinxz" viewBox="57.00004196166992 65.12699127197266 485.9999694824219 118.95801544189453" xmlns="http://www.w3.org/2000/svg">
   <g xmlns="http://www.w3.org/2000/svg" fill-rule="evenodd" fill="none">
    <g fill-rule="nonzero">
     <path d="m70.07,106.644c-11.425,14.248 -15.308,35.42 -11.852,64.758c0.26,2.73 0.57,4.953 0.818,6.506l0.136,0.092c12.455,-6.085 61.045,-33.707 60.827,-93.896l-0.117,-0.104c-23.238,2.435 -39.546,9.849 -49.812,22.644zm109.283,-13.341c-2.97,10.143 -7.278,19.77 -12.88,28.683c-17.913,28.503 -46.181,45.521 -66.745,54.772a205.454,205.454 0 0 1 -18.395,7.244l0.004,0.063l0.002,0.02c16.792,-0.314 31.933,-2.928 45.12,-7.794c14.962,-5.525 27.153,-13.834 36.222,-24.68c13.329,-15.927 19.12,-36.362 16.724,-58.312l-0.052,0.004z" fill="#00B35A"/>
     <path d="m126.234,78.843l-0.09,0.218c0.594,10.052 -0.048,19.858 -1.925,29.183c-3.383,16.738 -10.712,32.288 -21.79,46.22c-4.71,5.925 -10.04,11.463 -15.883,16.583l0.018,0.053c24.724,-8.998 54.354,-25.026 72.583,-53.032c18.008,-27.664 15.532,-43.372 13.606,-52.927l-0.05,-0.014c-10.643,8.146 -29.552,11.102 -46.47,13.716l0.001,0z" fill="#00B35A"/>
     <path d="m257.024,125.558c-3.142,-2.238 -9.48,-4.804 -16.026,-4.804c-6.809,0 -11.208,3.002 -11.208,7.7c0,4.148 3.613,6.06 9.637,6.823l5.76,0.765c10.58,1.474 16.813,6.114 16.813,14.687c0,9.883 -8.484,16.271 -22.05,16.271c-6.127,0 -14.403,-1.528 -20.95,-6.661l3.98,-6.662c3.72,3.004 8.695,5.515 17.022,5.515c8.171,0 13.2,-2.784 13.2,-7.917c0,-3.822 -3.248,-6.224 -10.004,-7.098l-5.762,-0.71c-11.156,-1.42 -16.55,-6.66 -16.55,-14.524c0,-9.937 7.908,-15.943 20.007,-15.943c7.856,0 15.031,2.184 19.85,5.624l-3.719,6.934zm58.976,18.602c0,15.682 -10.93,22.84 -22.974,22.84c-12.15,0 -23.026,-7.158 -23.026,-22.84l0,-30.16l8.701,0l0,29.34c0,10.601 6.102,15.3 14.325,15.3c8.171,0 14.273,-4.699 14.273,-15.3l0,-29.34l8.701,0l0,30.16zm50.534,-22.772l-30.296,36.666l30.762,0l0,7.946l-42,0l0,-6.39l30.658,-36.61l-29.778,0l0,-8l40.654,0l0,6.388zm56.466,44.521l-8.756,0l0,-6.926c-4.004,4.854 -9.93,8.017 -17.885,8.017c-14.254,0 -25.359,-11.345 -25.359,-27s11.105,-27 25.359,-27c7.956,0 13.881,3.164 17.885,8.073l0,-6.982l8.756,0l0,51.818zm-43.085,-25.909c0,10.31 7.047,18.655 17.459,18.655c10.25,0 17.404,-8.019 17.404,-18.655c0,-10.582 -7.154,-18.6 -17.404,-18.6c-10.571,0 -17.459,8.291 -17.459,18.6zm101.085,-6.237l0,32.237l-8.682,0l0,-29.34c0,-9.562 -5.08,-15.19 -13.814,-15.19c-8.1,0 -14.875,5.736 -14.875,15.408l0,29.122l-8.629,0l0,-51.908l8.575,0l0,6.777c4.13,-5.847 10.64,-7.869 16.463,-7.869c12.387,0 20.962,8.304 20.962,20.763zm62,6.237c0,15.382 -11.34,27 -26.527,27c-15.188,0 -26.473,-11.618 -26.473,-27c0,-15.381 11.285,-27 26.473,-27c15.188,0 26.527,11.619 26.527,27zm-44.194,0c0,10.854 7.595,18.655 17.667,18.655c10.02,0 17.668,-7.801 17.668,-18.655c0,-10.854 -7.648,-18.6 -17.668,-18.6c-10.072,0 -17.667,7.746 -17.667,18.6z" fill="#042A8A"/>
    </g>
   </g>
  </svg>