<svg xmlns="http://www.w3.org/2000/svg" viewBox="0.09999847412109375 0.873077392578125 503.29998779296875 151.41616821289062"><g fill="none" fill-rule="evenodd"><g fill-rule="nonzero"><g><path fill="#D6D6D6" d="M124.2,18.1269173 C125,19.3269173 126.1,20.3269173 127.2,21.2269173 C127.9,22.1269173 128.9,22.9269173 129.5,23.9269173 C130,25.0269173 130.8,25.9269173 131.8,26.5269173 C132.4,27.1269173 132.9,27.7269173 133.3,28.4269173 C133.7,29.1269173 134,29.9269173 134.8,30.3269173 C135.6,30.9269173 136,31.7269173 136.3,32.6269173 L136.3,32.6269173 C137,33.2269173 137.4,34.0269173 137.8,34.9269173 L137.8,34.9269173 C138.6,35.5269173 138.8,36.4269173 139.3,37.2269173 L139.3,37.2269173 C139.4,37.4269173 139.4,37.5269173 139.3,37.7269173 C139.1,37.8269173 139,37.8269173 138.8,37.8269173 C138.2,37.6269173 137.9,37.2269173 137.6,36.7269173 C134.5,31.5269173 130.5,27.0269173 126.5,22.4269173 C123.4,18.9269173 120.3,15.6269173 116,13.6269173 C110.9,11.2269173 106.1,12.1269173 101.2,14.3269173 C100.6,14.6269173 100.1,15.1269173 99.3,15.0269173 C99.1,14.9269173 99,14.8269173 98.9,14.6269173 C98.8,14.0269173 99.1,13.7269173 99.6,13.6269173 C100.2,13.4269173 100.8,13.3269173 101.3,13.0269173 L101.3,13.0269173 C101.8,12.5269173 102.6,12.5269173 103.2,12.2269173 L103.2,12.2269173 C104.1,11.5269173 105.3,11.8269173 106.3,11.4269173 C106.4,11.4269173 106.5,11.4269173 106.7,11.4269173 C108.7,10.8269173 110.8,10.8269173 112.8,11.4269173 C113,11.4269173 113.3,11.4269173 113.5,11.4269173 C114.2,11.7269173 115.1,11.6269173 115.8,12.2269173 L115.8,12.2269173 C116.3,12.5269173 116.9,12.5269173 117.3,13.0269173 L117.3,13.0269173 C117.8,13.3269173 118.4,13.3269173 118.8,13.8269173 C119.2,14.0269173 119.5,14.3269173 119.9,14.5269173 C120.6,14.9269173 121.2,15.5269173 121.8,16.0269173 C122.1,16.2269173 122.3,16.5269173 122.6,16.7269173 C123.3,16.9269173 123.8,17.5269173 124.2,18.1269173 Z" transform="translate(-77.000000, -338.000000) translate(77.100000, 338.873083)"/><path fill="#D1D3D4" d="M145.5,47.7269173 C145.7,48.3269173 145.8,48.9269173 146,49.5269173 C145.9,49.5269173 145.9,49.6269173 145.8,49.6269173 C144.7,49.4269173 144.8,48.2269173 144.2,47.6269173 C143.1,45.3269173 141.8,43.0269173 140.4,40.8269173 C140.1,39.6269173 138.7,38.8269173 139.1,37.3269173 C139.2,37.3269173 139.4,37.3269173 139.5,37.3269173 C140,37.4269173 140,37.8269173 140.3,38.1269173 C140.3,38.2269173 140.3,38.3269173 140.3,38.4269173 C141.1,39.0269173 141.3,39.9269173 141.8,40.7269173 L141.8,40.7269173 C142.3,41.1269173 142.2,41.7269173 142.6,42.2269173 C142.8,42.6269173 143.1,43.0269173 143.3,43.3269173 C144.1,44.8269173 144.6,46.4269173 145.5,47.7269173 L145.5,47.7269173 Z" transform="translate(-77.000000, -338.000000) translate(77.100000, 338.873083)"/><path fill="#000" d="M129.1,121.326917 C127.3,124.926917 125.7,128.626917 123.1,131.726917 C122,133.026917 121,134.426917 119.7,135.526917 C116.7,138.526917 113.3,140.926917 109.7,143.126917 C108.8,143.626917 108,144.226917 107.1,144.626917 C103.2,146.626917 99,147.826917 95,149.426917 C93.8,150.026917 92.4,150.326917 91.1,150.526917 C89.8,150.426917 88.6,151.126917 87.3,151.326917 C86.8,151.326917 86.2,151.626917 86,151.126917 C85.8,150.526917 86.5,150.426917 86.9,150.226917 C87.1,150.126917 87.2,150.026917 87.4,150.026917 C87.7,149.826917 88,149.626917 88.4,149.526917 C89.3,149.326917 90.2,148.926917 91,148.526917 C91.1,148.426917 91.3,148.326917 91.5,148.326917 C93.8,147.426917 95.9,146.026917 98.1,144.926917 C98.2,144.826917 98.4,144.726917 98.5,144.626917 C99.2,144.326917 99.8,143.926917 100.3,143.326917 C102.8,141.726917 105.3,140.126917 107.7,138.426917 C117.1,131.326917 117.5,119.926917 112.4,111.026917 C111.3,109.426917 110.8,107.426917 109.3,105.926917 C108.9,105.426917 108.6,104.926917 108.4,104.326917 C106.6,101.026917 104.1,98.2269173 101.9,95.2269173 C101.3,94.4269173 100.8,93.5269173 100,92.9269173 C98.7,91.3269173 97.5,89.6269173 96.2,88.0269173 C95.6,87.4269173 95.3,86.5269173 94.6,86.0269173 C91.6,82.0269173 88.5,78.2269173 85.5,74.3269173 C83.9,72.1269173 82,70.0269173 80.3,67.9269173 C78.2,64.6269173 76,61.4269173 74.6,57.7269173 C72.7,52.8269173 72.2,47.7269173 73.5,42.5269173 C74.1,40.1269173 75.7,38.3269173 77.1,36.3269173 C79.9,32.4269173 82.8,28.7269173 86.3,25.3269173 C87,24.1269173 87.9,23.0269173 89.2,22.4269173 C89.6,22.5269173 89.8,22.7269173 89.8,23.1269173 C89.6,23.8269173 89.4,24.5269173 89.3,25.3269173 C88.8,25.8269173 89.1,26.6269173 88.7,27.2269173 C88.4,27.8269173 88.4,28.6269173 88.4,29.2269173 C87.9,34.4269173 89.2,39.2269173 92,43.5269173 C96,49.5269173 100.5,55.1269173 105.2,60.6269173 C106,61.4269173 106.6,62.4269173 107.5,63.0269173 C107.7,63.2269173 107.9,63.4269173 108,63.6269173 C108.3,64.1269173 108.7,64.5269173 109.1,65.0269173 C109.3,65.2269173 109.4,65.4269173 109.6,65.6269173 C110,66.3269173 110.4,67.1269173 111.2,67.4269173 C112.9,69.6269173 114.9,71.5269173 116.3,73.9269173 C116.5,74.6269173 117,75.0269173 117.5,75.5269173 C118.4,76.9269173 119.4,78.3269173 120.4,79.7269173 C120.8,79.8269173 120.7,80.1269173 120.8,80.4269173 C123.2,84.3269173 125.1,88.3269173 126.9,92.5269173 C127,92.8269173 127.1,93.1269173 127,93.4269173 C127.1,93.5269173 127.2,93.6269173 127.3,93.8269173 C127.9,94.5269173 127.8,95.6269173 128.3,96.3269173 C129.9,101.126917 131.3,106.126917 131.2,111.226917 C131.2,113.526917 131.2,115.926917 130.3,118.126917 C129.6,118.826917 129.4,120.026917 129.1,121.326917 Z" transform="translate(-77.000000, -338.000000) translate(77.100000, 338.873083)"/><path fill="#595959" d="M126.6,93.0269173 C125,88.8269173 122.9,84.8269173 120.7,80.8269173 C120.6,80.5269173 120.5,80.2269173 120.5,79.9269173 C122.3,81.3269173 122.8,83.4269173 123.8,85.2269173 C124.8,87.0269173 125.6,89.0269173 126.5,91.0269173 C126.3,91.7269173 127.4,92.3269173 126.6,93.0269173 Z" transform="translate(-77.000000, -338.000000) translate(77.100000, 338.873083)"/><path fill="#D2D4D4" d="M93.5,24.2269173 C93.5,23.9269173 93.4,23.6269173 93.4,23.3269173 C93.7,21.5269173 94.9,20.1269173 95.3,18.4269173 C95.8,18.2269173 96,17.8269173 96.1,17.2269173 C96.1,17.2269173 96.1,17.2269173 96.1,17.2269173 C96.4,16.9269173 96.5,16.1269173 97.3,16.5269173 C97.5,16.7269173 97.5,17.0269173 97.4,17.3269173 C96.8,18.4269173 96,19.3269173 95.6,20.5269173 C94.7,21.7269173 95,23.5269173 93.5,24.2269173 Z" transform="translate(-77.000000, -338.000000) translate(77.100000, 338.873083)"/><path fill="#595959" d="M120.1,79.2269173 C118.7,78.1269173 117.9,76.6269173 116.9,75.2269173 C117,75.1269173 117,75.1269173 117.1,75.0269173 C117.7,75.1269173 117.9,75.5269173 118.1,75.9269173 C118.8,77.0269173 119.9,77.8269173 120.1,79.2269173 Z" transform="translate(-77.000000, -338.000000) translate(77.100000, 338.873083)"/><path fill="#747474" d="M88.8,21.4269173 C89.2,20.4269173 90,19.8269173 90.7,19.1269173 C91.8,19.4269173 91.4,20.0269173 91.1,20.7269173 C90.9,21.0269173 90.7,21.3269173 90.4,21.6269173 C90.1,21.6269173 90.1,20.9269173 89.7,21.4269173 C89.5,21.5269173 89.3,21.7269173 89.1,21.7269173 C89,21.6269173 88.9,21.6269173 88.8,21.4269173 Z" transform="translate(-77.000000, -338.000000) translate(77.100000, 338.873083)"/><path fill="#CBCBCB" d="M91.2,18.5269173 C91.5,18.0269173 91.9,17.3269173 92.4,17.6269173 C93.3,18.2269173 92.2,18.9269173 92.3,19.6269173 C92.3,19.6269173 92.1,19.6269173 92.1,19.6269173 L91.9,19.6269173 C91.5,19.3269173 91.5,18.8269173 91.2,18.5269173 Z" transform="translate(-77.000000, -338.000000) translate(77.100000, 338.873083)"/><path fill="#505050" d="M88.9,25.4269173 C88.9,25.2269173 88.8,25.0269173 88.8,24.8269173 C88.3,24.0269173 88.8,23.5269173 89.2,22.9269173 C89.3,22.8269173 89.5,22.8269173 89.6,22.8269173 C89.6,22.9269173 89.7,22.9269173 89.7,23.0269173 C89.8,24.0269173 89.4,24.7269173 88.9,25.4269173 Z" transform="translate(-77.000000, -338.000000) translate(77.100000, 338.873083)"/><path fill="#A9A9A9" d="M91.2,18.5269173 C92,18.5269173 91.9,19.1269173 91.9,19.6269173 C91.6,20.0269173 91.4,20.3269173 91.1,20.7269173 C91.1,20.2269173 91.3,19.5269173 90.7,19.1269173 C90.9,18.9269173 91,18.7269173 91.2,18.5269173 Z" transform="translate(-77.000000, -338.000000) translate(77.100000, 338.873083)"/><path fill="#505050" d="M89.6,21.0269173 C89.9,20.7269173 90.2,20.4269173 90.6,19.9269173 C90.5,20.7269173 90.5,21.1269173 90.4,21.6269173 C90.3,22.2269173 90.1,22.7269173 89.7,23.1269173 C89.6,23.0269173 89.6,23.0269173 89.5,22.9269173 C89.3,22.3269173 89.6,21.7269173 89.6,21.0269173 Z" transform="translate(-77.000000, -338.000000) translate(77.100000, 338.873083)"/><path fill="#686868" d="M115.8,73.6269173 C116,73.6269173 116.1,73.5269173 116.3,73.5269173 C116.5,73.8269173 116.7,74.1269173 117,74.4269173 C117.3,74.5269173 117.3,74.8269173 117.1,75.0269173 C117,75.1269173 117,75.2269173 116.9,75.2269173 C116.5,74.7269173 115.9,74.3269173 115.8,73.6269173 Z" transform="translate(-77.000000, -338.000000) translate(77.100000, 338.873083)"/><path fill="#BCBCBC" d="M117.1,74.9269173 C117.1,74.7269173 117,74.5269173 117,74.3269173 C117.7,74.6269173 118.2,75.0269173 118.1,75.8269173 C117.7,75.5269173 117.4,75.2269173 117.1,74.9269173 Z" transform="translate(-77.000000, -338.000000) translate(77.100000, 338.873083)"/><path fill="#B7B7B7" d="M54.1,96.3269173 C54,96.3269173 53.8,96.3269173 53.7,96.3269173 C52.1,93.9269173 49.8,92.0269173 48.3,89.5269173 C48.4,89.5269173 48.6,89.5269173 48.7,89.4269173 C49.5,89.3269173 49.7,90.0269173 50.1,90.4269173 C51.5,92.0269173 53.1,93.5269173 54.2,95.4269173 C54.3,95.7269173 54.2,96.0269173 54.1,96.3269173 Z" transform="translate(-77.000000, -338.000000) translate(77.100000, 338.873083)"/><path fill="#DFDFDF" d="M8.4,100.126917 C6.9,98.4269173 6.3,96.3269173 5.4,94.3269173 C3.8,90.7269173 2.3,87.1269173 1.1,83.3269173 C0.5,81.5269173 2.84217094e-14,79.6269173 2.84217094e-14,77.6269173 C2.84217094e-14,74.2269173 2.84217094e-14,70.8269173 0.4,67.4269173 C0.4,67.4269173 0.4,67.4269173 0.4,67.4269173 C0.5,67.4269173 0.6,67.4269173 0.8,67.4269173 C1.7,68.5269173 1.3,69.9269173 1.2,71.1269173 C0.7,73.4269173 0.9,75.7269173 1.2,77.9269173 C1.2,78.1269173 1.3,78.3269173 1.3,78.5269173 C1.9,81.6269173 1.9,81.3269173 5,81.8269173 C10.2,82.5269173 15.4,82.5269173 20.6,82.5269173 C21.5,82.5269173 22.8,83.0269173 23.3,82.1269173 C23.8,81.2269173 22.6,80.5269173 22.2,79.6269173 C21.4,78.1269173 20.1,76.9269173 20.5,75.0269173 C22,76.8269173 23,78.9269173 24.2,80.9269173 C28.8,88.5269173 34.4,95.3269173 39.6,102.426917 C39.9,102.826917 40.2,103.126917 40.2,103.626917 C39.7,103.926917 39.3,103.626917 39,103.326917 C38.1,102.626917 37.5,101.626917 36.9,100.626917 C35.9,99.3269173 34.9,98.1269173 33.9,96.7269173 C30,91.6269173 30,91.6269173 23.7,91.6269173 C18.4,91.6269173 13.1,91.0269173 7.8,91.2269173 C5.4,91.3269173 5.3,91.4269173 6.2,93.7269173 C6.6,94.6269173 7,95.6269173 7.4,96.5269173 C8,97.6269173 9.2,98.6269173 8.4,100.126917 Z" transform="translate(-77.000000, -338.000000) translate(77.100000, 338.873083)"/><path fill="#D2D3D4" d="M8.4,100.126917 C8.5,98.8269173 7.6,97.8269173 7.3,96.7269173 C7,95.3269173 8.1,95.4269173 8.8,95.5269173 C12,95.9269173 15.3,95.5269173 18.5,95.8269173 C22.9,96.3269173 27.3,96.0269173 31.8,96.1269173 C32.8,96.1269173 33.8,96.1269173 34.7,96.7269173 C35.4,98.1269173 36.8,99.0269173 37.4,100.526917 C35.4,101.626917 33.2,101.226917 31.1,100.926917 C25,100.126917 18.9,100.326917 12.8,100.326917 C10.3,100.326917 10.2,100.526917 11,102.926917 C11.7,104.226917 12.3,105.526917 13,106.826917 C13.2,107.326917 13.6,107.926917 13.1,108.426917 C10.9,106.026917 9.7,103.026917 8.4,100.126917 Z" transform="translate(-77.000000, -338.000000) translate(77.100000, 338.873083)"/><path fill="#D5D6D6" d="M20.5,75.0269173 C21,76.5269173 21.6,77.9269173 22.4,79.2269173 C22.8,80.3269173 21.9,80.4269173 21.3,80.4269173 C16.8,80.5269173 12.3,80.8269173 7.9,80.2269173 C6.3,80.0269173 4.7,79.7269173 3,79.7269173 C1.8,79.7269173 0.9,79.4269173 0.8,78.0269173 C0.2,75.7269173 0.2,73.4269173 0.8,71.2269173 C1.5,71.9269173 1.3,72.8269173 1.3,73.7269173 C1.3,75.1269173 1.9,75.9269173 3.4,76.1269173 C5.9,76.5269173 8.4,76.3269173 10.9,76.4269173 C13.1,76.4269173 15.3,76.4269173 17.5,76.4269173 C19.7,76.4269173 19.9,76.2269173 19,74.2269173 C18.8,73.9269173 18.7,73.5269173 18.5,73.2269173 C17.8,72.2269173 17.6,70.9269173 16.8,70.0269173 C16.6,69.7269173 16.4,69.3269173 16.4,68.9269173 C16.4,68.5269173 16.5,68.1269173 16.8,67.8269173 C18.2,70.1269173 19.3,72.6269173 20.5,75.0269173 Z" transform="translate(-77.000000, -338.000000) translate(77.100000, 338.873083)"/><path fill="#CFD0D1" d="M18.6,72.8269173 C19.4,74.0269173 20.7,75.3269173 20,76.6269173 C19.4,77.8269173 17.8,76.9269173 16.7,76.9269173 C13.3,77.0269173 9.9,76.9269173 6.5,77.0269173 C5,77.0269173 3.6,76.7269173 2.2,76.6269173 C1.3,76.5269173 0.8,75.9269173 0.8,74.9269173 C0.8,73.7269173 0.8,72.5269173 0.8,71.3269173 C0.8,70.0269173 0.8,68.8269173 0.8,67.5269173 C0.8,66.3269173 1,65.1269173 1.6,64.1269173 C2.5,65.1269173 1.9,66.1269173 1.8,67.2269173 C1.8,67.5269173 1.8,67.8269173 1.7,68.2269173 C1.7,69.2269173 1.7,70.1269173 1.7,71.1269173 C1.8,73.5269173 1.9,73.5269173 4.3,73.5269173 C8.4,73.6269173 12.5,73.3269173 16.6,73.7269173 C17.4,73.6269173 18,73.1269173 18.6,72.8269173 Z" transform="translate(-77.000000, -338.000000) translate(77.100000, 338.873083)"/><path fill="#A2A5A6" d="M5.3,54.5269173 C6.2,52.5269173 7.4,50.7269173 9.1,49.1269173 C9.3,49.2269173 9.3,49.4269173 9.3,49.6269173 C8.9,50.9269173 7.8,51.8269173 7.3,53.0269173 C7.1,53.3269173 7,53.6269173 6.9,53.8269173 C6.3,54.9269173 6.6,55.5269173 7.9,55.5269173 C9.5,55.5269173 11.1,55.5269173 12.6,55.5269173 C13.4,55.5269173 14.3,55.4269173 14.9,56.0269173 C15.1,56.8269173 14.9,57.5269173 14.9,58.3269173 C14.6,59.2269173 13.9,59.8269173 12.9,59.9269173 C10.5,60.1269173 8.1,60.2269173 5.7,59.7269173 C4.9,59.5269173 4.1,59.2269173 3.8,58.3269173 C3.9,56.9269173 4.8,55.8269173 5.3,54.5269173 Z" transform="translate(-77.000000, -338.000000) translate(77.100000, 338.873083)"/><path fill="#919596" d="M7.2,52.6269173 C7.5,51.3269173 8.5,50.6269173 9.1,49.6269173 C9.4,49.2269173 9.3,48.2269173 10.3,48.4269173 C11.6,49.9269173 15.5,50.0269173 16.6,48.5269173 C17.4,47.5269173 18.3,46.5269173 18.9,45.3269173 C19.1,45.0269173 19.2,44.7269173 19.4,44.3269173 C19.7,43.6269173 19.6,42.8269173 19.8,42.1269173 C20.2,41.2269173 19.7,40.0269173 20.5,39.2269173 C21.6,42.7269173 20.7,45.7269173 18.2,48.4269173 C17.5,49.5269173 16.9,50.8269173 16.2,51.9269173 C15.7,53.3269173 14.7,53.8269173 13.3,53.9269173 C11.5,54.0269173 9.7,53.7269173 7.9,53.4269173 C7.7,53.4269173 7.2,53.2269173 7.2,52.6269173 Z" transform="translate(-77.000000, -338.000000) translate(77.100000, 338.873083)"/><path fill="#C9CBCD" d="M12.9,108.526917 C12.8,108.026917 12.7,107.526917 12.5,107.026917 C12.6,107.026917 12.7,106.926917 12.8,106.926917 C14.2,107.626917 14.2,109.326917 15.1,110.326917 C15.8,111.426917 16.3,112.626917 17,113.726917 C17.9,115.026917 18.7,116.426917 19.7,117.826917 C20.6,119.026917 21.4,120.126917 22.3,121.226917 C22.9,122.026917 23.5,122.826917 24.2,123.526917 C24.9,124.526917 25.6,125.426917 26.5,126.126917 C27.4,127.326917 28.4,128.526917 29.5,129.526917 C30.5,130.526917 31.3,131.526917 32.5,132.226917 C34.4,133.826917 36.5,135.326917 38.7,136.326917 C41.7,137.926917 44.8,138.226917 48.1,137.726917 C48.9,137.626917 49.7,137.326917 50.5,137.226917 C50.9,137.226917 51.3,137.326917 51.6,137.626917 C47.8,139.526917 43.8,139.726917 39.9,138.026917 C34.3,135.626917 29.9,131.826917 26,127.226917 C22.9,123.626917 19.7,119.926917 17.2,115.926917 C15.7,113.526917 14.1,111.226917 12.9,108.526917 Z" transform="translate(-77.000000, -338.000000) translate(77.100000, 338.873083)"/><path fill="#C9CBCD" d="M47.9,113.026917 C50.5,115.726917 53.1,118.326917 55.6,121.026917 C56.8,122.226917 58,123.226917 59.7,123.426917 C61,123.626917 61.3,124.326917 61,125.526917 C60.3,128.126917 59.6,130.726917 57.7,132.826917 C57.3,132.326917 57.5,131.826917 57.6,131.326917 C57.6,131.026917 57.7,130.826917 57.8,130.626917 C58,130.226917 58.2,129.926917 58.5,129.526917 C58.9,129.126917 59.1,128.526917 59.2,128.026917 C59.2,127.826917 59.3,127.726917 59.3,127.526917 C59.4,127.126917 59.5,126.726917 59.6,126.226917 C60,125.126917 59.5,124.526917 58.4,124.226917 C57.7,124.026917 57,123.626917 56.4,123.226917 C56,122.926917 55.7,122.626917 55.4,122.326917 C53.9,120.826917 52.4,119.326917 50.9,117.826917 C49.9,116.726917 48.8,115.826917 47.9,114.726917 C47.6,114.226917 47.1,113.726917 47.3,113.026917 C47.6,112.926917 47.7,112.926917 47.9,113.026917 Z" transform="translate(-77.000000, -338.000000) translate(77.100000, 338.873083)"/><path fill="#D2D3D4" d="M47.9,113.026917 C47.8,113.026917 47.6,113.026917 47.5,113.026917 C45.9,112.926917 45.4,111.626917 44.5,110.626917 C43.9,109.326917 42.6,108.426917 41.8,107.226917 C41.1,105.826917 39.6,104.926917 39,103.426917 C39,103.326917 39.1,103.226917 39.1,103.126917 C39.5,103.226917 39.9,103.426917 40.2,103.526917 C42.9,106.626917 45.6,109.726917 47.9,113.026917 Z" transform="translate(-77.000000, -338.000000) translate(77.100000, 338.873083)"/><path fill="#ACB0B3" d="M58.1,131.326917 C58,131.826917 57.9,132.326917 57.7,132.826917 C56.3,135.226917 54.1,136.726917 51.6,137.726917 C51.2,137.726917 50.8,137.726917 50.4,137.726917 C50.3,137.526917 50.3,137.426917 50.4,137.226917 C51.8,136.226917 53.4,135.526917 54.7,134.326917 C55.5,133.726917 55.9,132.726917 56.6,132.026917 C57.1,131.726917 57.4,131.026917 58.1,131.326917 Z" transform="translate(-77.000000, -338.000000) translate(77.100000, 338.873083)"/><path fill="#C2C4C4" d="M1.2,67.1269173 C1.5,66.1269173 1.7,65.1269173 1.6,64.0269173 C2.1,61.6269173 2.6,59.3269173 3.9,57.2269173 C4.1,57.4269173 4.1,57.7269173 4.1,58.0269173 C4,59.3269173 3.4,60.6269173 3.2,61.9269173 C2.9,63.1269173 2.4,64.3269173 2.5,65.6269173 C2.3,66.3269173 2.2,67.1269173 1.2,67.1269173 Z" transform="translate(-77.000000, -338.000000) translate(77.100000, 338.873083)"/><path fill="#919596" d="M11.4,46.5269173 C12.9,44.4269173 14.6,42.6269173 16.7,41.2269173 C16.8,41.3269173 16.9,41.5269173 16.9,41.7269173 C16.5,42.6269173 15.7,43.1269173 15.1,43.8269173 C14.6,44.3269173 14,44.8269173 13.5,45.4269173 C12.8,46.0269173 12.6,47.2269173 11.4,47.0269173 C11.2,46.8269173 11.3,46.6269173 11.4,46.5269173 Z" transform="translate(-77.000000, -338.000000) translate(77.100000, 338.873083)"/><path fill="#C2C4C4" d="M15.2,58.7269173 C14.9,61.3269173 16,63.7269173 16,66.3269173 C16.1,67.0269173 16.8,67.5269173 16.3,68.3269173 C15.3,68.2269173 15.2,67.4269173 15.1,66.7269173 C14.9,65.5269173 14.7,64.2269173 14.5,63.0269173 C14.4,62.8269173 14.4,62.6269173 14.4,62.4269173 C14.4,61.2269173 14.1,60.0269173 14.7,58.9269173 C14.8,58.6269173 15,58.6269173 15.2,58.7269173 Z" transform="translate(-77.000000, -338.000000) translate(77.100000, 338.873083)"/><path fill="#858A8B" d="M16.7,41.6269173 C16.7,41.4269173 16.7,41.3269173 16.7,41.1269173 C17.4,40.1269173 18.5,39.5269173 19.5,38.9269173 C19.9,38.6269173 20.5,38.4269173 20.6,39.3269173 C20.4,40.3269173 20.9,41.4269173 20.2,42.4269173 C19.6,41.9269173 19.9,41.1269173 19.5,40.5269173 C18.5,40.6269173 17.9,41.9269173 16.7,41.6269173 Z" transform="translate(-77.000000, -338.000000) translate(77.100000, 338.873083)"/><path fill="#BCBEBF" d="M15.2,58.7269173 C15.1,58.7269173 15,58.7269173 14.8,58.7269173 C14.7,58.6269173 14.6,58.5269173 14.7,58.4269173 C14.7,58.3269173 14.8,58.3269173 14.8,58.3269173 C14.8,57.5269173 14.8,56.8269173 14.8,56.0269173 C14.2,54.8269173 14.4,53.8269173 15.8,53.2269173 C15.9,53.3269173 15.9,53.3269173 16,53.4269173 C16.2,55.3269173 15.1,56.9269173 15.2,58.7269173 Z" transform="translate(-77.000000, -338.000000) translate(77.100000, 338.873083)"/><path fill="#BCBEBF" d="M16.3,51.5269173 C17,50.5269173 17.1,49.2269173 18.2,48.5269173 C17.7,50.3269173 16.8,51.8269173 16,53.5269173 C16,53.5269173 15.9,53.4269173 15.9,53.4269173 C15.5,52.6269173 16,52.1269173 16.3,51.5269173 Z" transform="translate(-77.000000, -338.000000) translate(77.100000, 338.873083)"/><path fill="#B4B6B7" d="M3.8,58.0269173 C3.8,57.7269173 3.8,57.5269173 3.8,57.2269173 C4.2,56.2269173 4.4,55.2269173 5.3,54.5269173 C4.9,55.6269173 4.6,56.8269173 4.2,57.9269173 C4.1,58.1269173 4,58.1269173 3.8,58.0269173 Z" transform="translate(-77.000000, -338.000000) translate(77.100000, 338.873083)"/><path fill="#999D9E" d="M11.4,46.5269173 C11.4,46.7269173 11.4,46.8269173 11.4,47.0269173 C11.4,47.8269173 11,48.3269173 10.3,48.5269173 C9.9,48.9269173 9.5,49.3269173 9.2,49.6269173 C9.2,49.4269173 9.2,49.3269173 9.2,49.1269173 C9.6,48.0269173 10.4,47.2269173 11.4,46.5269173 Z" transform="translate(-77.000000, -338.000000) translate(77.100000, 338.873083)"/><path fill="#C9CACB" d="M16.4,68.2269173 C16.3,67.6269173 16.2,66.9269173 16,66.3269173 C16.5,66.7269173 16.7,67.2269173 16.7,67.8269173 C16.7,68.2269173 16.7,68.6269173 16.7,68.9269173 C16.4,69.0269173 16.2,68.8269173 16.1,68.6269173 C16.2,68.5269173 16.2,68.3269173 16.4,68.2269173 Z" transform="translate(-77.000000, -338.000000) translate(77.100000, 338.873083)"/><path fill="#000" d="M411,59.1269173 C412.4,61.0269173 412.6,63.1269173 412.6,65.4269173 C412.6,69.9269173 412.6,74.4269173 412.6,78.8269173 C412.6,87.6269173 412.6,96.5269173 412.6,105.326917 C412.6,108.226917 412.1,110.826917 410.2,113.026917 C407.8,116.326917 404.5,118.126917 400.4,118.326917 C393.1,118.526917 387.3,113.026917 387.2,105.526917 C387.1,92.0269173 387.2,78.6269173 387.2,65.1269173 C387.2,63.5269173 387.4,61.8269173 388.2,60.3269173 C388.9,58.5269173 390.1,56.9269173 391.5,55.6269173 L391.5,55.6269173 C392.4,55.0269173 393.2,54.2269173 394.3,53.8269173 C400.1,51.5269173 405.1,52.4269173 409.4,57.0269173 C410.1,57.7269173 410.4,58.5269173 411,59.1269173 Z" transform="translate(-77.000000, -338.000000) translate(77.100000, 338.873083)"/><path fill="#000" d="M173.3,18.1269173 C174.8,16.2269173 176.3,14.4269173 177.9,12.5269173 C181.1,9.92691735 184.3,7.52691735 188.2,6.02691735 C188.7,5.82691735 189.1,5.72691735 189.6,5.52691735 C192.8,4.02691735 196.2,3.62691735 199.6,3.02691735 C201.4,2.72691735 203.1,2.62691735 204.9,2.72691735 C217.7,2.72691735 230.5,2.72691735 243.2,2.72691735 C245.8,2.72691735 248.4,2.82691735 250.7,4.22691735 C251.4,4.22691735 252,4.52691735 252.5,4.92691735 C253.1,6.02691735 254.3,6.72691735 255.1,7.62691735 C258.7,11.9269173 258.5,19.9269173 254.5,23.9269173 C254.1,24.3269173 253.5,24.4269173 253.1,24.9269173 L253.1,24.9269173 C250.7,27.1269173 247.8,28.1269173 244.6,28.1269173 C231.6,28.1269173 218.6,28.2269173 205.6,28.1269173 C203,28.1269173 200.6,28.6269173 198.3,29.8269173 C198.1,30.0269173 197.9,30.1269173 197.6,30.3269173 C196.6,31.3269173 195.6,32.4269173 194.9,33.6269173 C193.2,37.3269173 194.1,40.7269173 196.5,43.8269173 C198.5,46.4269173 201.1,48.1269173 204.6,47.7269173 C205.2,47.6269173 205.7,47.7269173 206.3,48.0269173 C210.8,48.1269173 215.4,48.2269173 219.9,47.9269173 C220.3,47.7269173 220.8,47.7269173 221.3,47.7269173 C223.6,47.7269173 226,47.7269173 228.3,47.7269173 C230.9,47.7269173 233.6,47.6269173 236.2,47.7269173 C238.1,48.4269173 240.1,48.0269173 242,48.2269173 C248.2,48.9269173 253.6,51.2269173 258.6,55.0269173 C260.1,56.1269173 261.3,57.4269173 262.6,58.7269173 C266.8,63.5269173 269.3,69.2269173 270.4,75.4269173 C271.4,81.2269173 271.2,86.9269173 270,92.7269173 C268.6,97.9269173 266.6,102.826917 263.4,107.326917 C262.8,108.226917 262.1,109.026917 261.3,109.726917 C259,112.726917 255.7,114.526917 252.5,116.426917 C246,118.926917 239.2,118.426917 232.5,118.426917 C220.5,118.426917 208.6,118.426917 196.6,118.526917 C193.2,118.526917 189.9,118.326917 186.8,116.826917 C184.6,115.126917 182.6,113.426917 181.5,110.826917 C179.4,105.826917 180.6,100.226917 184.5,96.4269173 C184.8,96.1269173 185,95.9269173 185.3,95.6269173 C188.5,93.4269173 192.1,92.9269173 195.9,92.9269173 C208.9,93.0269173 221.8,92.9269173 234.8,92.9269173 C237.5,92.9269173 239.9,92.1269173 241.6,90.0269173 C244.5,87.6269173 245.4,84.5269173 244.5,81.0269173 C243.7,77.5269173 241.4,75.2269173 238,73.9269173 C236.6,73.4269173 235.1,73.2269173 233.5,73.2269173 C222,73.2269173 210.4,73.5269173 198.9,73.1269173 C196.1,72.8269173 193.3,72.2269173 190.6,71.1269173 C188.3,70.3269173 186.2,69.2269173 184.1,68.0269173 C181.8,66.6269173 179.7,64.9269173 177.9,62.9269173 C176.5,61.6269173 175.3,60.3269173 174.2,58.8269173 C169.7,51.9269173 167.8,44.3269173 167.9,36.2269173 C167.9,34.8269173 168.2,33.4269173 168.1,32.0269173 C168.3,30.3269173 168.6,28.7269173 169.2,27.1269173 C170.2,24.0269173 171.8,21.0269173 173.3,18.1269173 Z" transform="translate(-77.000000, -338.000000) translate(77.100000, 338.873083)"/><path fill="#DFDFDF" d="M135.2,103.526917 C136.3,101.026917 137.7,98.8269173 138.4,96.1269173 C139.7,91.0269173 139.2,86.2269173 136.9,81.4269173 C136.6,80.7269173 136.3,79.9269173 136,79.2269173 C136.1,79.1269173 136.3,79.0269173 136.4,79.1269173 C136.9,79.4269173 137.1,79.8269173 137.3,80.3269173 C137.6,80.8269173 137.8,81.4269173 138.2,81.9269173 C138.3,82.0269173 138.4,82.2269173 138.5,82.4269173 C139.3,84.4269173 140.8,85.0269173 142.9,84.9269173 C145.1,84.8269173 147.3,84.9269173 149.5,84.9269173 C152,84.9269173 152.2,84.7269173 152.6,82.1269173 C152.6,81.9269173 152.7,81.7269173 152.7,81.5269173 C152.9,80.9269173 152.9,80.2269173 153,79.6269173 C153.1,79.1269173 153.3,78.5269173 153.2,78.0269173 C153.2,77.5269173 153.2,77.0269173 153.2,76.6269173 C153.2,76.2269173 153.2,75.8269173 153.2,75.4269173 C153.3,74.7269173 153,73.8269173 154.1,73.6269173 C154.5,81.9269173 152.6,89.6269173 148.5,96.8269173 C147.2,99.0269173 146,101.326917 143.8,102.926917 C143.7,102.826917 143.6,102.626917 143.5,102.426917 C143.7,100.926917 144.8,100.026917 145.8,99.0269173 C146.7,97.8269173 147.3,96.6269173 148,95.3269173 C148.5,94.3269173 148.3,93.7269173 147.2,93.6269173 C145.2,93.5269173 143.2,93.5269173 141.2,93.6269173 C140.4,93.6269173 139.9,94.1269173 139.8,94.9269173 C139.7,96.1269173 139.1,97.2269173 138.9,98.3269173 C138.3,99.7269173 137.7,101.226917 136.8,102.526917 C136.5,102.926917 136.2,103.726917 135.2,103.526917 Z" transform="translate(-77.000000, -338.000000) translate(77.100000, 338.873083)"/><path fill="#C4C6C6" d="M154.2,73.5269173 C153.6,74.0269173 153.9,74.8269173 153.8,75.4269173 C152.8,76.2269173 151.6,76.1269173 150.5,75.9269173 C147,75.4269173 143.4,75.6269173 139.9,75.6269173 C138.1,75.6269173 136.2,75.4269173 134.4,75.2269173 C134.1,75.2269173 133.7,75.1269173 133.5,74.9269173 C133.1,73.9269173 132.4,73.1269173 131.8,72.2269173 C131.5,71.8269173 131.2,71.3269173 132,71.1269173 C134.3,72.2269173 136.7,72.3269173 139.2,72.2269173 C143,72.1269173 146.9,72.3269173 150.7,72.6269173 C151.7,72.7269173 152.7,72.6269173 153.5,71.7269173 C153.7,71.5269173 153.9,71.5269173 154.1,71.6269173 C154.2,72.3269173 154.2,72.9269173 154.2,73.5269173 Z" transform="translate(-77.000000, -338.000000) translate(77.100000, 338.873083)"/><path fill="#D3D4D5" d="M146.2,99.3269173 C145.1,100.126917 144.4,101.126917 143.9,102.326917 C143.1,103.126917 142.9,104.526917 141.5,104.726917 C140.9,104.526917 140.4,104.126917 139.7,104.026917 C135.7,103.226917 133.7,105.526917 134.7,109.926917 C135.5,109.926917 136,108.926917 136.9,109.126917 C137,109.226917 137.1,109.326917 137,109.426917 C137,109.526917 137,109.626917 136.9,109.626917 C136,110.526917 135,111.926917 133.9,111.626917 C132.8,111.226917 133.5,109.526917 133.5,108.326917 C133.4,106.526917 133.2,104.726917 135,103.526917 C136.9,102.226917 137.2,99.9269173 138.4,98.2269173 C140.6,97.2269173 142.8,97.6269173 145,97.9269173 C145.9,98.0269173 146.7,98.4269173 146.2,99.3269173 Z" transform="translate(-77.000000, -338.000000) translate(77.100000, 338.873083)"/><path fill="#DADADB" d="M137.1,109.626917 C137.1,109.526917 137.1,109.326917 137.1,109.226917 C138,107.026917 139.5,105.526917 141.7,104.626917 C142.7,104.026917 142.9,102.826917 144,102.326917 C144,102.426917 144,102.626917 144,102.726917 C142.1,105.526917 139.9,107.826917 137.1,109.626917 Z" transform="translate(-77.000000, -338.000000) translate(77.100000, 338.873083)"/><path fill="#D3D3D4" d="M131.8,71.2269173 C132.1,72.5269173 133.3,73.4269173 133.7,74.6269173 C133.6,74.8269173 133.4,74.8269173 133.3,74.6269173 C130.8,71.0269173 128.2,67.5269173 126.1,63.6269173 C126.8,63.4269173 127.1,63.9269173 127.4,64.2269173 C127.9,65.0269173 128.4,65.8269173 129,66.5269173 C129.6,67.7269173 130.6,68.6269173 131.2,69.8269173 C131.4,70.3269173 131.8,70.7269173 131.8,71.2269173 Z" transform="translate(-77.000000, -338.000000) translate(77.100000, 338.873083)"/><path fill="#B4B6B7" d="M127.2,64.4269173 C126.8,64.1269173 126.4,63.9269173 126.1,63.6269173 C124.1,60.7269173 121.8,58.0269173 120,54.9269173 C120.1,54.8269173 120.3,54.7269173 120.5,54.8269173 C120.9,55.0269173 121.2,55.3269173 121.5,55.6269173 C122,56.3269173 122.5,56.9269173 123,57.5269173 C123.7,58.5269173 124.6,59.4269173 125.3,60.5269173 C125.9,61.5269173 126.9,62.3269173 127.5,63.4269173 C127.6,63.7269173 127.6,63.9269173 127.5,64.2269173 C127.3,64.3269173 127.3,64.4269173 127.2,64.4269173 Z" transform="translate(-77.000000, -338.000000) translate(77.100000, 338.873083)"/><path fill="#D7D8D8" d="M133.3,74.7269173 C133.4,74.7269173 133.6,74.7269173 133.7,74.7269173 C133.8,74.8269173 134,75.0269173 134.1,75.1269173 C134.8,75.5269173 135.1,76.2269173 135.6,76.8269173 C135.9,77.5269173 136.5,78.1269173 136.6,78.8269173 C136.6,79.0269173 136.5,79.1269173 136.4,79.3269173 C136.3,79.3269173 136.1,79.3269173 136,79.3269173 C135.1,77.7269173 133.8,76.4269173 133.3,74.7269173 Z" transform="translate(-77.000000, -338.000000) translate(77.100000, 338.873083)"/><path fill="#A5A9AA" d="M114.7,48.5269173 C114.8,47.7269173 113.9,47.4269173 113.9,46.6269173 C115.2,46.4269173 115.4,47.7269173 116.1,48.3269173 C116.5,48.8269173 116.9,49.3269173 116.7,50.0269173 C116.5,50.1269173 116.4,50.1269173 116.2,50.0269173 C115.7,49.5269173 114.9,49.3269173 114.7,48.5269173 Z" transform="translate(-77.000000, -338.000000) translate(77.100000, 338.873083)"/><path fill="#A9ADAE" d="M116.2,50.0269173 C116.3,50.0269173 116.5,50.0269173 116.6,50.0269173 C117,50.1269173 117.3,50.4269173 117.6,50.6269173 C118,51.0269173 118.4,51.4269173 118.7,51.8269173 C119,52.3269173 119.4,52.7269173 119.4,53.4269173 C119.4,53.6269173 119.3,53.7269173 119.2,53.8269173 C118,52.7269173 117,51.5269173 116.2,50.0269173 Z" transform="translate(-77.000000, -338.000000) translate(77.100000, 338.873083)"/><path fill="#A1A4A5" d="M119.2,53.8269173 C119.2,53.7269173 119.2,53.5269173 119.2,53.4269173 C120.2,53.4269173 120.7,53.9269173 120.3,54.9269173 C120.2,54.9269173 120,54.9269173 119.9,54.9269173 C119.6,54.7269173 119.3,54.3269173 119.2,53.8269173 Z" transform="translate(-77.000000, -338.000000) translate(77.100000, 338.873083)"/><path fill="#6B6B6B" d="M460.8,131.626917 C462.8,131.626917 464.7,131.626917 466.7,131.626917 C467.7,131.626917 468.4,131.926917 468.4,133.126917 C468.4,134.326917 467.8,134.626917 466.8,134.626917 C463.7,134.626917 460.6,134.626917 457.5,134.626917 C455,134.626917 454.7,135.026917 454.7,137.526917 C454.7,138.826917 454.7,140.026917 454.7,141.326917 C454.7,143.926917 455.2,144.426917 457.8,144.426917 C460.6,144.426917 463.5,144.426917 466.3,144.426917 C467.2,144.426917 468.5,144.026917 468.5,145.726917 C468.5,147.226917 467.5,147.226917 466.4,147.226917 C462.9,147.226917 459.3,147.226917 455.8,147.226917 C452.7,147.226917 451.1,145.626917 451,142.526917 C450.9,140.426917 450.9,138.326917 451,136.226917 C451.1,133.226917 452.8,131.626917 455.8,131.526917 C457.3,131.626917 459.1,131.626917 460.8,131.626917 Z" transform="translate(-77.000000, -338.000000) translate(77.100000, 338.873083)"/><path fill="#6B6B6B" d="M349.3,133.526917 C350,135.526917 349.4,137.226917 347.6,138.526917 C347,138.926917 345.8,139.126917 346.1,139.926917 C346.4,141.026917 347.3,141.926917 348.4,142.326917 C349.179167,142.610251 349.506771,142.040633 349.809288,141.435475 L349.915712,141.221745 C350.004687,141.044626 350.095833,140.872751 350.2,140.726917 C350.7,139.926917 351,138.826917 352.4,139.026917 C353.3,139.126917 353.7,139.526917 353.3,140.426917 C352.8,141.326917 352.3,142.226917 351.7,143.026917 C351,144.026917 351.1,144.626917 352.4,144.826917 C352.8,144.826917 353.3,144.926917 353.7,145.126917 C354.4,145.426917 354.6,145.926917 354.5,146.626917 C354.3,147.326917 353.8,147.626917 353.2,147.426917 C350,146.026917 346.9,146.726917 343.8,147.726917 C342.3,148.126917 340.7,147.926917 339.2,147.226917 C337.3,146.426917 335.9,145.126917 335.9,143.026917 C335.8,141.026917 337.2,139.726917 338.9,139.026917 C340.5,138.426917 341.3,137.826917 340.8,135.826917 C340.2,133.026917 342.6,130.826917 345.1,130.926917 C347.3,130.826917 348.7,131.726917 349.3,133.526917 Z M340.4,140.826917 C339.4,141.126917 338.7,141.826917 338.8,142.926917 C338.8,144.126917 339.7,144.526917 340.6,144.826917 C341.2,144.926917 341.7,144.926917 342.3,145.026917 C343.3,145.126917 344.3,144.826917 345.3,144.526917 C345.7,144.426917 346.2,144.226917 345.9,143.826917 C345,142.626917 344.1,141.426917 343,140.426917 C342.2,139.726917 341.3,140.526917 340.4,140.826917 Z M345.3,133.226917 C344,133.326917 343.3,134.026917 343.3,134.926917 C343.3,136.226917 343.5,137.126917 344.7,137.226917 C345.7,137.426917 347.1,136.026917 347.1,135.026917 C347.1,133.926917 346.4,133.226917 345.3,133.226917 Z" transform="translate(-77.000000, -338.000000) translate(77.100000, 338.873083)"/><path fill="#000" d="M488.4,117.926917 C488.3,117.926917 488.2,117.926917 488.1,117.926917 C484.9,117.026917 482.4,115.226917 480,112.926917 C466.1,98.9269173 452,84.9269173 438,70.9269173 C426.8,59.7269173 415.7,48.6269173 404.5,37.4269173 C400.2,33.1269173 395.9,28.8269173 391.6,24.5269173 C386.5,19.4269173 386.5,11.4269173 391.6,6.32691735 C392.1,5.82691735 392.5,5.32691735 393,4.82691735 C398,1.32691735 404.8,1.82691735 409.2,6.02691735 C423.8,20.4269173 438.3,34.8269173 452.9,49.2269173 C460.6,56.8269173 468.4,64.4269173 476.2,72.0269173 C477.5,72.9269173 477.7,72.2269173 477.7,71.0269173 C477.5,53.6269173 477.8,36.1269173 477.5,18.7269173 C477.4,14.1269173 478.5,10.1269173 481.5,6.72691735 L481.5,6.72691735 C482.1,6.42691735 482.5,5.92691735 483,5.62691735 C490,0.326917348 501,4.02691735 502.8,13.3269173 C503.1,15.0269173 503.3,16.7269173 503.3,18.4269173 C503.3,46.7269173 503.3,75.0269173 503.3,103.326917 C503.3,106.226917 502.9,108.926917 501.6,111.526917 C500.1,113.126917 498.9,115.226917 496.9,116.326917 C495.5,117.126917 494.1,117.726917 492.5,117.926917 C491.2,118.326917 489.8,118.326917 488.4,117.926917 Z" transform="translate(-77.000000, -338.000000) translate(77.100000, 338.873083)"/><path fill="#696969" d="M503.2,139.426917 C503.2,141.426917 503.2,143.526917 503.2,145.526917 C503.2,147.026917 502.4,147.126917 501.2,147.126917 C499.9,147.226917 499.8,146.426917 499.8,145.426917 C499.7,140.726917 499.6,140.726917 494.8,140.726917 C493,140.726917 491.3,140.726917 489.5,140.726917 C488.2,140.726917 487.6,141.226917 487.7,142.526917 C487.7,143.526917 487.7,144.526917 487.7,145.526917 C487.7,146.626917 487.3,147.126917 486.2,147.126917 C485.1,147.126917 484.6,146.726917 484.6,145.626917 C484.6,141.426917 484.6,137.226917 484.6,133.126917 C484.6,132.026917 485.1,131.726917 486.1,131.726917 C487.2,131.726917 487.8,132.026917 487.7,133.226917 C487.7,134.126917 487.8,135.126917 487.7,136.026917 C487.6,137.526917 488.1,138.226917 489.7,138.226917 C492.5,138.126917 495.3,138.126917 498,138.226917 C499.5,138.326917 499.9,137.726917 499.8,136.326917 C499.7,135.826917 499.7,135.326917 499.8,134.826917 C500.1,133.626917 498.8,131.626917 501.5,131.726917 C504.1,131.826917 503,133.726917 503.1,134.926917 C503.3,136.426917 503.2,137.926917 503.2,139.426917 Z" transform="translate(-77.000000, -338.000000) translate(77.100000, 338.873083)"/><path fill="#6B6B6B" d="M299.4,131.626917 C301.9,131.626917 303.6,133.026917 304,135.526917 C304.5,139.026917 303.7,142.626917 298.4,142.326917 C295.8,142.126917 293.1,142.326917 290.5,142.326917 C289.1,142.326917 288.5,142.826917 288.7,144.226917 L288.7,145.526917 L288.7,145.526917 C288.9,147.026917 288.1,147.326917 286.8,147.326917 C285.6,147.326917 284.9,147.026917 285,145.626917 C285.1,141.526917 285.1,137.426917 285,133.326917 C285,132.026917 285.5,131.626917 286.7,131.726917 C288.8,131.726917 291,131.626917 293.2,131.626917 L299.4,131.626917 L299.4,131.626917 Z M298.4,134.726917 L289.9,134.726917 C289,134.726917 288.5,135.026917 288.6,136.026917 C288.6,136.626917 288.7,137.326917 288.6,137.926917 C288.5,139.026917 289,139.526917 290.1,139.526917 L290.1,139.526917 L294.1,139.5275 L294.1,139.5275 L294.1,139.726917 C295.7,139.626917 297.2,139.626917 298.8,139.426917 C300.3,139.226917 300.3,138.026917 300.3,136.826917 C300.2,135.626917 299.8,134.726917 298.4,134.726917 L298.4,134.726917 Z" transform="translate(-77.000000, -338.000000) translate(77.100000, 338.873083)"/><path fill="#6C6C6C" d="M392.5,131.626917 C395.2,131.626917 397.8,131.626917 400.5,131.626917 C401.6,131.626917 402.2,131.926917 402.1,133.126917 C402.1,134.226917 401.5,134.726917 400.4,134.626917 C398.9,134.526917 397.5,134.626917 396,134.626917 C394.7,134.526917 394.2,135.026917 394.2,136.426917 C394.3,139.426917 394.2,142.526917 394.2,145.526917 C394.2,146.826917 393.8,147.326917 392.5,147.326917 C391.2,147.326917 390.7,146.826917 390.7,145.526917 C390.7,142.526917 390.7,139.426917 390.7,136.426917 C390.7,135.126917 390.3,134.626917 388.9,134.626917 C387.3,134.726917 385.7,134.626917 384.2,134.626917 C383.1,134.626917 382.8,134.126917 382.8,133.126917 C382.8,132.026917 383.2,131.626917 384.3,131.626917 C387.1,131.626917 389.8,131.626917 392.5,131.626917 Z" transform="translate(-77.000000, -338.000000) translate(77.100000, 338.873083)"/><path fill="#696969" d="M264.6,131.626917 C267.1,131.626917 268.9,133.426917 269,135.826917 C269.1,138.126917 269,140.526917 269,142.826917 C269,145.226917 267.3,147.026917 264.9,147.126917 C261.3,147.226917 257.7,147.226917 254.1,147.126917 C251.6,147.026917 250,145.326917 250,142.826917 L250,136.026917 L250,136.026917 C250.1,133.426917 251.8,131.626917 254.4,131.626917 L264.6,131.626917 L264.6,131.626917 Z M263.1,134.626917 C260.8,134.726917 258.6,134.626917 256.3,134.626917 C254,134.626917 253.7,134.926917 253.7,137.226917 L253.7,138.726917 C253.7,143.771845 253.115081,144.429879 257.009244,144.452131 L257.420898,144.452349 C257.990884,144.450106 258.646377,144.438512 259.4,144.426917 C260.6,144.426917 261.8,144.426917 262.9,144.526917 C264.4,144.526917 265.3,143.926917 265.3,142.426917 C265.4,140.426917 265.4,138.426917 265.3,136.526917 C265.3,135.226917 264.5,134.626917 263.1,134.626917 Z" transform="translate(-77.000000, -338.000000) translate(77.100000, 338.873083)"/><path fill="#6A6A6A" d="M194.7,131.626917 C197.5,131.626917 199.1,133.326917 199.2,136.126917 C199.2,137.226917 199.3,138.426917 199,139.526917 C198.6,141.226917 197,142.226917 194.9,142.326917 C191.9,142.326917 188.8,142.426917 185.8,142.326917 C184.3,142.226917 183.7,142.826917 183.9,144.226917 C184,144.626917 183.9,145.126917 183.9,145.526917 C184,146.926917 183.4,147.326917 182.1,147.226917 C180.9,147.226917 180.2,147.026917 180.2,145.626917 C180.3,141.526917 180.2,137.426917 180.2,133.326917 C180.2,132.126917 180.6,131.626917 181.9,131.626917 C184,131.726917 186.3,131.626917 188.6,131.626917 L194.7,131.626917 L194.7,131.626917 Z M193.7,134.626917 L186.8,134.626917 C186.404,134.638917 186.05984,134.640837 185.760781,134.641145 L185.345175,134.641454 C183.59828,134.646997 183.8,134.774917 183.8,137.726917 L183.8,138.626917 C183.8,139.126917 184.1,139.426917 184.6,139.426917 C187.7,139.426917 190.9,139.526917 194,139.326917 C195.7,139.226917 195.5,137.726917 195.5,136.526917 C195.5,135.426917 195,134.626917 193.7,134.626917 L193.7,134.626917 Z" transform="translate(-77.000000, -338.000000) translate(77.100000, 338.873083)"/><path fill="#C9C9C9" d="M233.2,141.226917 C233.2,141.026917 233.1,140.926917 233.1,140.726917 C232.9,140.126917 233.2,139.626917 233.3,139.026917 C233.7,136.626917 233.3,134.426917 232,132.326917 C231.9,132.126917 231.7,131.826917 231.6,131.626917 C235.2,133.226917 236,138.126917 233.2,141.226917 Z" transform="translate(-77.000000, -338.000000) translate(77.100000, 338.873083)"/><path fill="#C9C9C9" d="M231.7,131.626917 C226.2,131.626917 220.8,131.626917 215.3,131.626917 C215.8,131.126917 216.4,131.326917 216.9,131.326917 C221.8,131.326917 226.7,131.326917 231.6,131.326917 C231.6,131.326917 231.6,131.326917 231.6,131.326917 C231.7,131.426917 231.7,131.526917 231.7,131.626917 Z" transform="translate(-77.000000, -338.000000) translate(77.100000, 338.873083)"/><path fill="#505050" d="M86.3,25.0269173 C86.1,25.0269173 85.9,24.9269173 85.8,24.9269173 C86.6,23.5269173 87.7,22.5269173 88.8,21.5269173 C88.9,21.5269173 89.1,21.5269173 89.2,21.5269173 C89.5,21.9269173 89.1,22.1269173 88.8,22.3269173 C87.9,23.0269173 87,23.9269173 86.3,25.0269173 Z" transform="translate(-77.000000, -338.000000) translate(77.100000, 338.873083)"/><path fill="#5A5A5A" d="M28.1,59.5269173 C26.2,56.1269173 25.3,52.3269173 24.3,48.5269173 C23.9,46.7269173 23.2,45.0269173 23.5,43.1269173 C23.7,42.9269173 23.9,42.9269173 24.1,43.1269173 C25,44.3269173 25,45.7269173 25.2,47.1269173 C25.7,51.0269173 27.5,54.6269173 28.5,58.3269173 C28.5,58.8269173 28.5,59.2269173 28.1,59.5269173 Z" transform="translate(-77.000000, -338.000000) translate(77.100000, 338.873083)"/><path fill="#333" d="M28.1,59.5269173 C28.1,59.1269173 28.1,58.7269173 28.1,58.4269173 C29.5,59.3269173 30.4,61.4269173 30,62.9269173 C29.9,62.9269173 29.7,62.9269173 29.6,62.9269173 C29,61.9269173 28.4,60.7269173 28.1,59.5269173 Z" transform="translate(-77.000000, -338.000000) translate(77.100000, 338.873083)"/><path fill="#8F9191" d="M97.2,17.3269173 C97.2,17.1269173 97.2,16.8269173 97.3,16.6269173 C97.3,16.5269173 97.3,16.4269173 97.3,16.3269173 C97.7,15.6269173 98.2,15.1269173 98.9,14.7269173 C99,14.7269173 99.1,14.7269173 99.2,14.7269173 C102,13.2269173 105,12.0269173 108.2,11.7269173 C113.8,11.1269173 118.3,13.5269173 122.3,17.1269173 C124,18.7269173 125.8,20.1269173 127,22.2269173 C126.9,22.3269173 126.7,22.3269173 126.5,22.3269173 C125.2,21.5269173 124.3,20.3269173 123.2,19.4269173 C122.4,18.2269173 121.1,17.5269173 120,16.6269173 C118,14.9269173 115.8,13.9269173 113.1,14.0269173 C110.4,14.1269173 107.7,14.2269173 104.9,14.1269173 C102.5,14.0269173 100.6,15.1269173 99,16.6269173 C98.7,16.9269173 98.3,17.3269173 97.9,17.5269173 C97.6,17.5269173 97.4,17.4269173 97.2,17.3269173 Z" transform="translate(-77.000000, -338.000000) translate(77.100000, 338.873083)"/><path fill="#75797A" d="M126.5,22.3269173 C126.6,22.3269173 126.8,22.3269173 126.9,22.3269173 C130.8,26.4269173 134.5,30.7269173 137.5,35.6269173 C137.9,36.3269173 138.4,36.9269173 138.9,37.6269173 C139.4,38.7269173 140,39.8269173 140.5,40.9269173 C140.6,41.0269173 140.6,41.1269173 140.6,41.2269173 C140.6,41.3269173 140.6,41.4269173 140.5,41.4269173 C140.3,41.5269173 140.2,41.5269173 140,41.5269173 C139.6,41.2269173 139.4,40.8269173 139,40.4269173 C138.8,40.1269173 138.5,39.8269173 138.2,39.5269173 C138,38.9269173 137.8,38.3269173 137.4,37.8269173 C136.9,37.0269173 136.4,36.1269173 135.9,35.3269173 C135.6,34.9269173 135.4,34.5269173 135.1,34.1269173 C134.7,33.5269173 134.2,32.8269173 133.7,32.3269173 C133.4,31.9269173 133.1,31.5269173 132.8,31.2269173 C132.3,30.6269173 131.9,29.9269173 131.4,29.3269173 C130.9,28.7269173 130.3,28.3269173 129.9,27.7269173 C129.5,27.0269173 128.8,26.5269173 128.3,25.9269173 C127.7,24.9269173 126.5,24.4269173 126.1,23.1269173 C126.1,23.0269173 126.1,22.9269173 126.1,22.8269173 C126.4,22.4269173 126.4,22.3269173 126.5,22.3269173 Z" transform="translate(-77.000000, -338.000000) translate(77.100000, 338.873083)"/><path fill="#000" d="M364.8,44.1269173 C363.9,44.2269173 363.8,44.9269173 363.4,45.5269173 C359.4,51.5269173 355.3,57.4269173 351.5,63.5269173 C348.7,68.0269173 345.7,72.4269173 342.8,76.8269173 C342.1,77.9269173 341.8,79.1269173 341.8,80.4269173 C341.8,88.6269173 341.8,96.7269173 341.8,104.926917 C341.8,109.226917 340.5,112.826917 337,115.526917 C332,119.326917 324.3,118.926917 320.1,113.526917 C318,110.726917 317.1,107.726917 317.1,104.226917 C317.2,94.8269173 317.2,85.5269173 317.1,76.1269173 C317.1,72.6269173 318.1,69.6269173 320,66.8269173 C327.3,56.0269173 334.5,45.1269173 341.7,34.2269173 C342.1,33.6269173 342.5,33.1269173 342.5,32.3269173 C342.2,31.9269173 342.4,31.6269173 342.7,31.4269173 C343.9,30.5269173 344.5,29.3269173 345,28.0269173 C348.2,23.1269173 351.6,18.3269173 354.7,13.4269173 C354.9,13.2269173 355,13.0269173 355.2,12.7269173 C356.6,11.9269173 357.1,10.4269173 357.9,9.22691735 C360.9,4.42691735 365.1,2.22691735 370.7,2.92691735 C375.6,3.52691735 379.1,6.22691735 380.9,10.8269173 C382.4,14.6269173 382.3,18.3269173 380,21.8269173 C376.5,27.4269173 372.5,32.8269173 369.2,38.6269173 C368.2,40.4269173 366.9,42.1269173 365.8,43.8269173 C365.5,43.8269173 365.3,44.1269173 364.8,44.1269173 Z" transform="translate(-77.000000, -338.000000) translate(77.100000, 338.873083)"/><path fill="#000" d="M303.1,57.2269173 C301.7,56.3269173 300.3,55.4269173 299,54.5269173 C297.9,53.1269173 296.7,51.7269173 295.6,50.3269173 C292.9,46.9269173 290.3,43.5269173 287.6,40.1269173 C283.5,34.8269173 279.4,29.5269173 275.2,24.2269173 C274.9,23.9269173 274.7,23.5269173 274.2,23.5269173 C273.9,23.1269173 273.7,22.7269173 273.4,22.4269173 C270.5,17.5269173 270.8,12.6269173 273.8,7.92691735 C274.4,7.12691735 275.1,6.42691735 275.7,5.62691735 C276.6,4.42691735 277.9,3.82691735 279.3,3.42691735 C280.5,3.52691735 281.5,2.82691735 282.6,2.72691735 C287.1,2.42691735 290.9,3.82691735 293.8,7.32691735 C296.6,10.7269173 299.2,14.2269173 301.9,17.7269173 C303.8,20.0269173 305.6,22.3269173 307.5,24.5269173 C307.6,24.6269173 307.7,24.7269173 307.8,24.9269173 C308.1,25.4269173 308.4,25.9269173 308.9,26.2269173 C309.4,26.8269173 309.9,27.5269173 310.4,28.1269173 C310.7,28.7269173 311,29.2269173 311.5,29.7269173 C311.7,29.9269173 311.8,30.1269173 312,30.3269173 C312.7,31.5269173 313.5,32.6269173 314.4,33.6269173 C314.8,34.3269173 315.4,35.0269173 316,35.6269173 C316.5,36.7269173 317.5,37.4269173 318.2,38.3269173 C318.3,38.4269173 318.4,38.6269173 318.5,38.7269173 C319.1,39.6269173 319.5,40.6269173 319.7,41.7269173 C321.4,46.2269173 320.2,50.2269173 317.4,53.9269173 C314.1,57.1269173 310.3,58.8269173 305.6,58.1269173 C304.9,57.7269173 303.9,57.7269173 303.1,57.2269173 L303.1,57.2269173 Z" transform="translate(-77.000000, -338.000000) translate(77.100000, 338.873083)"/><path fill="#525252" d="M127.7,95.0269173 C127.7,95.2269173 127.6,95.4269173 127.6,95.6269173 C127.3,94.9269173 126.9,94.1269173 126.9,93.3269173 C127.7,93.6269173 127.6,94.4269173 127.7,95.0269173 Z" transform="translate(-77.000000, -338.000000) translate(77.100000, 338.873083)"/><path fill="#000" d="M79.4,91.7269173 C79.5,92.1269173 79.7,92.4269173 79.8,92.8269173 C80.5,93.7269173 80.3,94.9269173 80.9,95.9269173 L80.9,95.9269173 C81.1,97.9269173 81.7,99.8269173 81.8,101.826917 C82,104.826917 81.2,107.626917 80.1,110.426917 C78.7,112.926917 77,115.126917 75.2,117.326917 C74.7,117.726917 74.4,118.326917 74,118.726917 C73.9,118.826917 73.8,119.026917 73.6,119.126917 C71.5,121.426917 69.4,123.726917 67.2,126.126917 C66.6,126.826917 66,127.526917 65.2,128.126917 C65,127.026917 65.8,126.226917 65.6,125.226917 C65.5,123.426917 66.2,121.626917 66.2,119.826917 C66.2,115.226917 65,111.026917 62.4,107.226917 C60.2,103.926917 57.8,100.726917 55.3,97.5269173 L55.3,97.5269173 C54.9,96.7269173 54.2,96.3269173 53.8,95.6269173 C52,93.6269173 50.3,91.5269173 48.5,89.5269173 C46.2,86.0269173 43.2,83.0269173 40.6,79.6269173 C36.5,74.4269173 32.5,69.1269173 29.9,62.9269173 C29.7,61.2269173 28.8,59.8269173 28,58.4269173 C25.9,53.5269173 24.6,48.4269173 23.9,43.2269173 C23.9,42.8269173 23.9,42.4269173 23.9,42.1269173 C23.6,40.7269173 23.6,39.3269173 23.9,37.9269173 C23.8,34.4269173 25.2,31.2269173 26.2,28.0269173 C27.2,24.7269173 29.5,22.2269173 31.2,19.3269173 C32.2,17.8269173 34,16.9269173 34.6,15.1269173 C34.6,15.1269173 34.6,15.1269173 34.6,15.1269173 C35.8,14.4269173 36.6,13.2269173 37.6,12.4269173 C39.1,11.2269173 40.7,10.0269173 42.2,8.72691735 C46,6.72691735 49.8,4.52691735 53.9,3.02691735 C55.4,2.42691735 57.1,2.42691735 58.5,1.42691735 C60.5,1.62691735 62.3,0.726917348 64.2,0.326917348 C65.2,0.126917348 66.2,-0.173082652 67.6,0.126917348 C64.1,1.82691735 60.7,2.82691735 57.8,5.02691735 C54.2,7.12691735 50.6,9.32691735 47.2,11.8269173 C44,13.4269173 42.3,16.2269173 40.7,19.1269173 C37.5,24.9269173 37.9,30.9269173 40.2,36.8269173 C42.1,40.9269173 43.8,45.2269173 47.1,48.5269173 C49.6,51.7269173 52.1,54.8269173 54.7,58.0269173 C56.1,59.7269173 57.6,61.3269173 58.8,63.2269173 C59.9,64.9269173 61.3,66.5269173 62.4,68.3269173 C64.5,71.0269173 66.7,73.6269173 68.8,76.3269173 C69.6,78.0269173 70.9,79.3269173 72.1,80.8269173 C74.1,83.4269173 76,86.1269173 77.7,89.0269173 C78,89.5269173 78.1,90.1269173 78.7,90.2269173 C78.7,90.2269173 78.7,90.2269173 78.7,90.2269173 C78.9,90.7269173 79,91.3269173 79.4,91.7269173 Z" transform="translate(-77.000000, -338.000000) translate(77.100000, 338.873083)"/><path fill="#D1D3D4" d="M145.9,49.5269173 C148,53.1269173 149.6,56.9269173 151.1,60.7269173 C151.4,61.4269173 151.6,62.1269173 151.9,62.8269173 C152,62.9269173 152,63.0269173 152,63.1269173 C152,63.2269173 152,63.3269173 151.9,63.3269173 C151.7,63.4269173 151.6,63.4269173 151.4,63.3269173 C150.9,62.9269173 150.8,62.3269173 150.5,61.8269173 C150.2,61.2269173 150,60.6269173 149.8,60.0269173 C149.7,59.9269173 149.7,59.7269173 149.6,59.5269173 C149.4,58.6269173 148.9,57.8269173 148.5,57.0269173 C147.8,55.7269173 147.4,54.2269173 146.6,52.9269173 C146.3,51.8269173 145.1,50.9269173 145.7,49.5269173 L145.9,49.5269173 Z" transform="translate(-77.000000, -338.000000) translate(77.100000, 338.873083)"/><path fill="#7D8284" d="M140.5,41.3269173 C140.5,41.1269173 140.5,41.0269173 140.6,40.8269173 C142.2,42.9269173 143.4,45.2269173 144.4,47.7269173 C144.8,48.4269173 145.1,49.1269173 145,49.9269173 C144.7,50.8269173 144,50.7269173 143.3,50.7269173 C138.1,50.4269173 132.9,50.6269173 127.6,50.6269173 C124.6,50.6269173 121.6,49.7269173 118.6,50.2269173 C117.3,50.4269173 116.6,49.3269173 115.8,48.5269173 C114.9,48.1269173 114.9,46.9269173 113.9,46.6269173 C110.3,42.3269173 106.8,38.0269173 103.2,33.7269173 C103.3,33.6269173 103.5,33.5269173 103.6,33.5269173 C103.9,33.5269173 104.1,33.6269173 104.3,33.8269173 C104.8,34.4269173 105.5,34.7269173 105.9,35.4269173 C106.5,36.2269173 107.3,36.9269173 107.9,37.6269173 C108.2,38.0269173 108.4,38.4269173 108.8,38.8269173 C109,39.0269173 109.1,39.2269173 109.3,39.4269173 C109.6,39.9269173 110,40.3269173 110.4,40.7269173 C111.2,41.4269173 111.7,42.3269173 112.3,43.1269173 C112.8,43.9269173 113.5,44.5269173 114.1,45.1269173 C115.4,46.7269173 117,47.3269173 119.1,47.2269173 C124.7,47.0269173 130.3,47.3269173 135.9,47.2269173 C137.5,47.2269173 139.1,47.7269173 140.8,47.5269173 C141.8,47.4269173 142.8,47.2269173 142.2,45.8269173 C141.7,45.0269173 141.3,44.1269173 140.8,43.3269173 C140.5,42.7269173 140,42.1269173 140.5,41.3269173 Z" transform="translate(-77.000000, -338.000000) translate(77.100000, 338.873083)"/><path fill="#919597" d="M144.7,49.6269173 C144.6,49.0269173 144.5,48.3269173 144.3,47.7269173 C145.2,48.1269173 144.9,49.3269173 145.7,49.7269173 C145.8,50.9269173 146.8,51.8269173 146.9,53.0269173 C147.1,53.8269173 147.6,54.5269173 147.8,55.3269173 C148.2,56.5269173 147.8,57.3269173 146.4,57.4269173 C145.2,57.5269173 144,57.6269173 142.8,57.4269173 C139.1,56.7269173 135.4,57.4269173 131.7,57.1269173 C128.9,56.9269173 126.2,56.5269173 123.4,56.6269173 C122.5,56.7269173 121.7,56.2269173 121,55.7269173 C120.7,55.4269173 120.5,55.2269173 120.2,54.9269173 C120.2,54.1269173 119.6,53.7269173 119.1,53.4269173 C118.9,52.9269173 118.3,52.6269173 118.3,51.9269173 C118.5,51.8269173 118.7,51.8269173 118.8,51.9269173 C120.8,53.6269173 123.2,53.2269173 125.5,53.3269173 C128.5,53.3269173 131.4,53.2269173 134.4,53.6269173 C135.5,53.8269173 136.7,53.8269173 137.8,53.6269173 C139.6,53.3269173 141.3,53.4269173 143,53.9269173 C145.2,54.5269173 145.8,53.8269173 145.1,51.7269173 C144.9,51.0269173 145.1,50.2269173 144.7,49.6269173 Z" transform="translate(-77.000000, -338.000000) translate(77.100000, 338.873083)"/><path fill="#333" d="M74.1,118.726917 C74.2,117.926917 74.6,117.526917 75.3,117.326917 C75.1,117.926917 74.7,118.426917 74.1,118.726917 Z" transform="translate(-77.000000, -338.000000) translate(77.100000, 338.873083)"/><path fill="#1E1E1E" d="M88.9,22.2269173 C89,21.9269173 89.1,21.7269173 89.3,21.4269173 C89.4,21.3269173 89.6,21.1269173 89.7,21.0269173 C90.5,21.7269173 89.5,22.2269173 89.6,22.9269173 C89.6,22.9269173 89.5,23.0269173 89.5,23.0269173 C89.5,23.0269173 89.4,23.0269173 89.4,23.0269173 C89.2,22.6269173 89.1,22.4269173 88.9,22.2269173 Z" transform="translate(-77.000000, -338.000000) translate(77.100000, 338.873083)"/><path fill="#1E1E1E" d="M88.2,26.5269173 C88.1,27.3269173 88.3,28.1269173 87.8,28.8269173 C87.8,28.0269173 87.4,27.1269173 88.2,26.5269173 Z" transform="translate(-77.000000, -338.000000) translate(77.100000, 338.873083)"/><path fill="#75797A" d="M123.4,19.2269173 C124.5,20.1269173 125.6,21.0269173 126.4,22.2269173 L126.4,22.2269173 C122.8,21.4269173 119.2,21.8269173 115.6,21.5269173 C114.6,21.4269173 113.6,21.4269173 112.6,21.5269173 C110.9,21.7269173 109.2,21.5269173 107.5,21.2269173 C104.1,20.5269173 100.7,20.9269173 97.3,21.0269173 C96.3,21.0269173 95.7,21.8269173 95.3,22.6269173 C95.1,23.1269173 95.1,23.5269173 94.9,24.0269173 C94.3,24.9269173 94.3,25.7269173 95.6,26.0269173 C96,26.1269173 96.4,26.4269173 96.6,26.8269173 C96.6,27.0269173 96.6,27.1269173 96.5,27.3269173 C96.1,27.2269173 95.8,26.9269173 95.5,27.0269173 C93.5,27.1269173 93.3,25.8269173 93.6,24.3269173 C94.2,23.0269173 94.8,21.7269173 95.4,20.4269173 C96,19.7269173 96.3,18.7269173 97.3,18.3269173 C98.2,17.9269173 99.3,17.8269173 100.3,17.9269173 C106.2,18.6269173 112.1,18.1269173 118,18.2269173 C119.8,18.3269173 121.7,18.5269173 123.4,19.2269173 Z" transform="translate(-77.000000, -338.000000) translate(77.100000, 338.873083)"/><path fill="#6F7476" d="M96.5,27.3269173 C96.5,27.1269173 96.5,27.0269173 96.5,26.8269173 C96.6,26.8269173 96.7,26.7269173 96.7,26.7269173 C97.9,26.8269173 98.5,27.7269173 99.3,28.4269173 C99.8,29.0269173 100.4,29.5269173 100.9,30.0269173 C101.2,30.4269173 101.6,30.8269173 101.7,31.3269173 C101.7,31.5269173 101.6,31.6269173 101.5,31.7269173 C99.7,30.3269173 98.1,28.8269173 96.5,27.3269173 Z" transform="translate(-77.000000, -338.000000) translate(77.100000, 338.873083)"/><path fill="#606769" d="M101.4,31.8269173 C101.4,31.6269173 101.4,31.5269173 101.5,31.3269173 C101.9,31.1269173 102.2,31.3269173 102.4,31.5269173 C102.9,32.1269173 103.8,32.5269173 103.7,33.5269173 C103.5,33.5269173 103.4,33.6269173 103.2,33.6269173 C102.6,33.1269173 102,32.4269173 101.4,31.8269173 Z" transform="translate(-77.000000, -338.000000) translate(77.100000, 338.873083)"/><path fill="#86898A" d="M96.9,18.8269173 C96.1,19.0269173 96.2,20.1269173 95.3,20.3269173 C95.6,19.1269173 96.3,18.1269173 97.2,17.3269173 C97.3,17.3269173 97.5,17.3269173 97.6,17.3269173 C97.9,18.1269173 97.2,18.4269173 96.9,18.8269173 Z" transform="translate(-77.000000, -338.000000) translate(77.100000, 338.873083)"/><path fill="#4D4D4D" d="M53.9,95.6269173 C54.7,96.0269173 55.3,96.5269173 55.4,97.5269173 C54.7,97.4269173 54.6,96.6269173 54,96.3269173 C54,96.0269173 54,95.8269173 53.9,95.6269173 Z" transform="translate(-77.000000, -338.000000) translate(77.100000, 338.873083)"/><path fill="#D8D8D9" d="M34.6,96.7269173 C32.2,96.7269173 29.8,96.6269173 27.4,96.7269173 C21.8,96.9269173 16.3,96.0269173 10.8,96.3269173 C10.2,96.3269173 9.6,96.0269173 9,96.0269173 C8.4,96.0269173 7.5,95.6269173 7.3,96.7269173 C6.2,95.4269173 5.9,93.7269173 5.2,92.2269173 C4.6,90.9269173 5.5,90.6269173 6.7,90.6269173 C11.7,90.6269173 16.8,90.6269173 21.8,91.0269173 C24.2,91.2269173 26.7,91.0269173 29.2,91.0269173 C30,91.0269173 30.6,91.2269173 31.1,91.9269173 C32.1,93.6269173 33.4,95.1269173 34.6,96.7269173 Z" transform="translate(-77.000000, -338.000000) translate(77.100000, 338.873083)"/><path fill="#CFD0D1" d="M10.7,103.526917 C10.5,103.126917 10.2,102.626917 10,102.226917 C9.1,100.426917 9.5,99.7269173 11.5,99.7269173 C16,99.7269173 20.5,99.5269173 24.9,99.8269173 C29,100.026917 33.1,100.726917 37.3,100.526917 C37.9,101.426917 38.8,102.126917 39.2,103.226917 C39.2,103.226917 39.2,103.226917 39.2,103.226917 C38.7,104.226917 37.8,104.126917 36.9,104.126917 C29.2,104.226917 21.4,103.926917 13.7,103.426917 C12.7,103.426917 11.7,103.626917 10.7,103.526917 Z" transform="translate(-77.000000, -338.000000) translate(77.100000, 338.873083)"/><path fill="#DADBDB" d="M0.8,78.1269173 C1.3,78.5269173 1.4,79.2269173 2.3,79.3269173 C8.5,79.7269173 14.6,80.3269173 20.8,80.0269173 C21.4,80.0269173 22.3,80.3269173 22.5,79.2269173 C23.4,80.2269173 24.7,81.6269173 24.3,82.7269173 C24,83.6269173 22,82.9269173 20.8,83.0269173 C18.3,83.1269173 15.9,82.9269173 13.4,83.1269173 C9.8,83.4269173 6.3,81.9269173 2.7,82.3269173 C1.8,82.4269173 1.2,81.8269173 1.2,80.8269173 C1.1,79.8269173 0.9,78.9269173 0.8,78.1269173 Z" transform="translate(-77.000000, -338.000000) translate(77.100000, 338.873083)"/><path fill="#C9CBCD" d="M10.7,103.526917 C11.6,102.226917 12.9,102.726917 14,102.926917 C15.3,103.126917 16.5,103.226917 17.7,103.226917 C24.1,103.226917 30.4,103.826917 36.8,103.626917 C37.6,103.626917 38.4,103.726917 39.2,103.226917 C40.1,104.526917 41.5,105.526917 42.2,107.026917 C41.4,107.826917 40.3,107.626917 39.3,107.526917 C37.5,107.226917 35.8,107.226917 34,107.226917 C26.8,107.426917 19.7,106.426917 12.5,107.026917 C12.5,107.026917 12.5,107.026917 12.5,107.026917 C11.7,106.026917 11.3,104.726917 10.7,103.526917 Z" transform="translate(-77.000000, -338.000000) translate(77.100000, 338.873083)"/><path fill="#C9CACB" d="M18.6,72.8269173 C18.7,74.0269173 18.1,74.5269173 17,74.3269173 C12.7,73.5269173 8.4,74.1269173 4.2,74.0269173 C0.8,73.9269173 1.2,74.4269173 1.2,70.9269173 C2.3,70.0269173 3.6,70.3269173 4.8,70.4269173 C8.1,70.9269173 11.4,70.6269173 14.7,70.7269173 C15.6,70.7269173 16.4,70.4269173 17.1,69.8269173 C18,70.5269173 18.1,71.8269173 18.6,72.8269173 Z" transform="translate(-77.000000, -338.000000) translate(77.100000, 338.873083)"/><path fill="#C2C4C4" d="M17.1,69.7269173 C17.3,71.0269173 16.6,71.2269173 15.4,71.2269173 C10.6,71.2269173 5.9,71.1269173 1.1,70.8269173 C1.1,69.8269173 1.1,68.8269173 1.1,67.8269173 C2.3,67.3269173 3.6,67.5269173 4.8,67.6269173 C7.8,68.0269173 10.9,67.9269173 13.9,67.9269173 C14.7,67.9269173 15.5,68.0269173 16.3,68.5269173 C16.4,68.6269173 16.6,68.8269173 16.7,68.9269173 C16.7,69.3269173 16.8,69.6269173 17.1,69.7269173 Z" transform="translate(-77.000000, -338.000000) translate(77.100000, 338.873083)"/><path fill="#BCBEBF" d="M16.4,68.6269173 C11.8,68.7269173 7.2,68.6269173 2.7,68.2269173 C2.2,68.2269173 1.7,68.0269173 1.3,67.8269173 C1.3,67.5269173 1.3,67.3269173 1.3,67.0269173 C2,66.7269173 2.1,66.1269173 2.1,65.5269173 C2.8,64.9269173 3.6,64.9269173 4.4,64.9269173 C6.7,64.9269173 8.9,64.8269173 11.2,64.9269173 C13,65.0269173 14.4,64.7269173 15,62.8269173 C15.5,64.0269173 15.7,65.3269173 15.7,66.6269173 C15.7,67.3269173 15.8,67.9269173 16.5,68.2269173 C16.4,68.3269173 16.4,68.5269173 16.4,68.6269173 Z" transform="translate(-77.000000, -338.000000) translate(77.100000, 338.873083)"/><path fill="#ABAEAF" d="M3.8,58.0269173 C3.9,58.0269173 4,58.0269173 4.2,58.0269173 C4.8,59.6269173 6.3,59.3269173 7.5,59.5269173 C9.2,59.7269173 10.9,59.5269173 12.5,59.6269173 C13.5,59.7269173 14,58.8269173 14.8,58.4269173 C14.8,58.5269173 14.8,58.7269173 14.8,58.8269173 C14.8,60.1269173 14.8,61.3269173 14.8,62.6269173 C14.4,63.0269173 13.9,63.1269173 13.4,63.1269173 C10.5,63.1269173 7.5,63.4269173 4.6,62.8269173 C3.8,62.7269173 3.1,62.4269173 2.6,61.8269173 C2.8,60.4269173 3.3,59.2269173 3.8,58.0269173 Z" transform="translate(-77.000000, -338.000000) translate(77.100000, 338.873083)"/><path fill="#999D9E" d="M16.3,51.5269173 C16.2,52.1269173 16,52.7269173 15.9,53.4269173 C14.9,54.1269173 14.9,55.1269173 14.8,56.1269173 C12.4,56.1269173 10,56.1269173 7.6,56.1269173 C5.4,56.1269173 5.4,56.0269173 6.3,54.0269173 C6.5,53.5269173 6.6,52.9269173 7.2,52.6269173 C9.5,53.3269173 11.8,53.4269173 14.2,53.3269173 C15.5,53.4269173 15.5,51.9269173 16.3,51.5269173 Z" transform="translate(-77.000000, -338.000000) translate(77.100000, 338.873083)"/><path fill="#858A8B" d="M10.3,48.5269173 C10.7,48.0269173 11.1,47.5269173 11.4,47.0269173 C12.3,46.7269173 12.4,45.5269173 13.3,45.1269173 C13.9,46.0269173 14.7,46.2269173 15.7,46.1269173 C16.9,45.9269173 18.1,45.5269173 19.4,45.5269173 C18.7,47.1269173 17.5,48.3269173 16.5,49.6269173 C16.1,50.1269173 11,50.2269173 10.4,49.9269173 C9.8,49.4269173 10.3,48.9269173 10.3,48.5269173 Z" transform="translate(-77.000000, -338.000000) translate(77.100000, 338.873083)"/><path fill="#797E80" d="M16.7,41.6269173 C17,41.4269173 17.3,41.1269173 17.6,41.0269173 C18.5,40.8269173 18.9,39.1269173 19.8,39.7269173 C20.5,40.1269173 19.9,41.5269173 20.1,42.4269173 C20,43.2269173 20.4,44.0269173 19.7,44.7269173 C18.4,45.5269173 17,45.4269173 15.6,45.2269173 C14.7,45.1269173 14.2,44.6269173 14.7,43.6269173 C15.3,42.7269173 16,42.1269173 16.7,41.6269173 Z" transform="translate(-77.000000, -338.000000) translate(77.100000, 338.873083)"/><path fill="#7B8082" d="M14.8,43.5269173 C14.7,44.4269173 15.2,44.7269173 16,44.7269173 C17.2,44.7269173 18.5,44.7269173 19.7,44.7269173 C19.6,45.0269173 19.4,45.2269173 19.3,45.5269173 C17.8,46.6269173 16,46.5269173 14.3,46.6269173 C13.1,46.7269173 12.9,46.1269173 13.2,45.1269173 C13.7,44.4269173 14.2,43.9269173 14.8,43.5269173 Z" transform="translate(-77.000000, -338.000000) translate(77.100000, 338.873083)"/><path fill="#BBBDC0" d="M48.3,114.526917 C49.5,115.426917 50.5,116.426917 51.3,117.526917 C51.1,117.726917 50.9,117.826917 50.6,117.826917 C44.5,117.526917 38.5,118.226917 32.4,117.326917 C28.8,116.826917 25.2,117.126917 21.6,117.026917 C20.7,117.026917 20.1,117.526917 19.4,117.926917 C18.3,116.626917 17.5,115.226917 16.7,113.726917 C16.8,112.426917 17.8,112.426917 18.6,112.426917 C20.6,112.326917 22.5,112.226917 24.5,112.426917 C30.9,113.026917 37.3,112.626917 43.6,112.826917 C45.4,112.926917 47.2,112.926917 48.3,114.526917 Z" transform="translate(-77.000000, -338.000000) translate(77.100000, 338.873083)"/><path fill="#BFC2C4" d="M48.3,114.526917 C47,113.626917 45.5,113.426917 44,113.426917 C42.4,113.326917 40.8,113.326917 39.3,113.426917 C32.5,113.726917 25.7,112.926917 18.9,113.026917 C18.1,113.026917 17.2,112.826917 16.8,113.826917 C15.9,112.826917 15.4,111.626917 14.9,110.426917 C14.5,109.526917 15.2,109.326917 15.8,109.226917 C16.5,109.026917 17.2,109.126917 17.9,109.126917 C26.3,108.926917 34.6,109.526917 42.9,109.926917 C43.6,109.926917 44.3,110.126917 44.9,110.526917 C45.6,111.526917 46.5,112.426917 47.6,113.226917 C47.7,113.626917 48.3,113.926917 48.3,114.526917 Z" transform="translate(-77.000000, -338.000000) translate(77.100000, 338.873083)"/><path fill="#B4B7BA" d="M19.4,118.026917 C19.2,116.726917 19.9,116.426917 21.1,116.526917 C26,116.626917 30.9,116.526917 35.8,117.226917 C39.9,117.726917 44.1,117.326917 48.3,117.326917 C49.3,117.326917 50.3,117.426917 51.3,117.726917 C53,119.126917 54.5,120.626917 55.9,122.326917 C55.4,122.726917 54.9,122.526917 54.5,122.126917 C53.1,120.926917 51.5,120.926917 49.9,120.926917 C47.1,120.926917 44.2,121.026917 41.4,120.626917 C40.3,120.426917 39.2,120.426917 38.2,120.626917 C33.7,121.426917 29.3,120.526917 24.8,120.326917 C23.6,120.326917 22.7,120.426917 22.1,121.526917 C20.9,120.426917 20.2,119.126917 19.4,118.026917 Z" transform="translate(-77.000000, -338.000000) translate(77.100000, 338.873083)"/><path fill="#C5C7C9" d="M44.8,110.426917 C35.5,110.226917 26.2,109.326917 16.8,109.726917 C16.1,109.726917 15.1,109.226917 14.8,110.426917 C13.6,109.626917 13.8,107.826917 12.5,107.026917 C13.1,106.226917 14,106.326917 14.9,106.226917 C22.4,106.026917 29.9,106.826917 37.4,106.626917 C38.9,106.626917 40.5,107.126917 42.1,106.926917 C42.9,108.226917 44.3,108.926917 44.8,110.426917 Z" transform="translate(-77.000000, -338.000000) translate(77.100000, 338.873083)"/><path fill="#A8ACB0" d="M29.3,129.726917 C28,128.826917 27.1,127.626917 26.3,126.326917 C26,125.626917 24.9,125.126917 25.5,124.226917 C26,123.426917 26.9,123.526917 27.7,123.526917 C34.5,123.426917 41.3,123.526917 48.2,124.126917 C51.1,124.426917 54,124.126917 56.9,124.226917 C60,124.326917 60.3,124.726917 59.8,127.826917 L59.8,127.826917 C59.5,128.126917 59.6,129.026917 58.7,128.526917 C58.1,127.826917 57.3,127.626917 56.5,127.726917 C48.2,128.026917 39.9,127.026917 31.5,126.926917 C31,126.926917 30.5,126.926917 30,126.926917 C28.9,126.926917 28.4,127.326917 29.2,128.426917 C29.4,128.726917 29.6,129.226917 29.3,129.726917 Z" transform="translate(-77.000000, -338.000000) translate(77.100000, 338.873083)"/><path fill="#ACB0B3" d="M59.7,127.826917 C59.7,124.826917 59.7,124.726917 56.6,124.826917 C47,125.026917 37.5,123.626917 28,124.026917 C25.4,124.126917 25.4,124.026917 26.3,126.326917 C25.3,125.626917 24.5,124.826917 24,123.626917 C22.9,121.926917 23.1,121.326917 25.1,121.126917 C26.8,121.026917 28.5,121.026917 30.2,121.126917 C37.9,121.526917 45.7,121.826917 53.4,121.926917 C54.6,121.926917 55.6,122.426917 56.6,122.926917 C57.6,123.326917 58.7,123.726917 59.7,124.126917 C60.5,124.326917 60.4,124.926917 60.3,125.426917 C60.3,126.226917 60.2,127.126917 59.7,127.826917 Z" transform="translate(-77.000000, -338.000000) translate(77.100000, 338.873083)"/><path fill="#979CA1" d="M55.1,134.726917 C53.7,135.726917 52.4,137.026917 50.6,137.426917 C49.9,137.826917 49.1,137.826917 48.3,138.226917 C44.8,139.026917 41.5,138.726917 38.4,136.726917 C37.3,136.026917 36.2,135.326917 35.1,134.626917 C34.5,134.226917 34.1,133.826917 34.7,133.126917 C36.7,132.326917 38.9,132.626917 40.9,132.826917 C44.9,133.126917 48.9,133.126917 52.8,133.226917 C53.9,133.026917 55.4,132.826917 55.1,134.726917 Z" transform="translate(-77.000000, -338.000000) translate(77.100000, 338.873083)"/><path fill="#A4A8AB" d="M29.3,129.726917 C29.3,129.026917 28.7,128.626917 28.3,128.126917 C28,127.726917 27.2,127.426917 27.6,126.726917 C27.9,126.126917 28.6,126.226917 29.1,126.226917 C32.1,126.326917 35.1,126.326917 38.2,126.526917 C41.8,126.726917 45.5,127.126917 49.1,127.026917 C51.8,126.926917 54.4,127.026917 57.1,127.026917 C58.2,127.026917 59,127.226917 58.9,128.526917 C59.2,128.926917 59.1,129.326917 58.9,129.626917 C58.7,129.926917 58.4,130.126917 58.2,130.426917 C57.6,130.226917 57,129.826917 56.2,129.826917 C48.4,130.126917 40.6,128.826917 32.8,129.026917 C32.6,129.026917 32.4,129.026917 32.2,129.026917 C31.8,129.026917 31.2,128.926917 31,129.426917 C30.8,129.826917 31.2,130.126917 31.4,130.426917 C31.7,130.826917 32.1,131.126917 32.3,131.626917 C32.4,131.826917 32.4,132.026917 32.3,132.226917 C30.9,131.926917 30.1,130.826917 29.3,129.726917 Z" transform="translate(-77.000000, -338.000000) translate(77.100000, 338.873083)"/><path fill="#B0B3B7" d="M56.6,122.926917 C54.7,122.426917 52.7,122.526917 50.8,122.526917 C45.1,122.626917 39.5,122.126917 33.8,122.026917 C31,122.026917 28.1,121.926917 25.3,121.726917 C23.7,121.626917 23,122.026917 23.9,123.626917 C23,123.126917 22.4,122.326917 22,121.326917 C21.7,119.526917 22.1,119.226917 24,119.426917 C27.5,119.926917 31,120.426917 34.5,120.026917 C38.9,119.526917 43.3,120.226917 47.7,120.126917 C50.6,120.126917 53.5,119.626917 55.8,122.026917 C56.1,122.426917 56.4,122.626917 56.6,122.926917 Z" transform="translate(-77.000000, -338.000000) translate(77.100000, 338.873083)"/><path fill="#A0A4A8" d="M32.3,132.426917 C32.3,132.326917 32.3,132.126917 32.3,132.026917 C32.4,132.026917 32.5,131.926917 32.5,131.926917 C33.4,132.126917 34,132.826917 34.5,133.526917 C35.5,134.926917 37.3,135.226917 38.3,136.626917 C36.1,135.626917 34,134.326917 32.3,132.426917 Z" transform="translate(-77.000000, -338.000000) translate(77.100000, 338.873083)"/><path fill="#9BA0A4" d="M48.3,138.126917 C48.9,137.526917 49.7,137.326917 50.6,137.326917 C50.6,137.426917 50.6,137.526917 50.6,137.726917 C49.8,137.826917 49,138.026917 48.3,138.126917 Z" transform="translate(-77.000000, -338.000000) translate(77.100000, 338.873083)"/><path fill="#A0A4A8" d="M32.3,132.026917 C31.4,131.126917 29.5,130.426917 30,129.226917 C30.4,127.926917 32.3,128.726917 33.5,128.726917 C41.3,128.526917 49.1,129.826917 56.9,129.426917 C57.8,129.426917 58.2,129.726917 58.2,130.626917 C58.2,130.826917 58.2,131.126917 58.2,131.326917 C57.8,131.726917 57.4,132.126917 57.1,132.426917 C49.7,131.626917 42.4,131.426917 35,131.526917 C34,131.526917 33.1,131.526917 32.3,132.026917 L32.3,132.026917 Z" transform="translate(-77.000000, -338.000000) translate(77.100000, 338.873083)"/><path fill="#ACB0B3" d="M58.9,129.726917 C58.9,129.326917 58.9,128.926917 58.9,128.626917 C59.2,128.326917 59.4,128.126917 59.7,127.826917 C59.7,128.626917 59.5,129.226917 58.9,129.726917 Z" transform="translate(-77.000000, -338.000000) translate(77.100000, 338.873083)"/><path fill="#9BA0A4" d="M32.3,132.026917 C32.2,131.026917 32.8,130.926917 33.6,130.926917 C41,130.826917 48.4,131.126917 55.8,131.726917 C56.4,131.726917 56.8,132.026917 57,132.526917 C56.2,133.126917 56,134.326917 55.1,134.826917 C55,134.026917 54.6,133.726917 53.9,133.726917 C53.5,133.726917 53.1,133.726917 52.8,133.726917 C47.4,134.026917 42,133.226917 36.6,133.326917 C35.9,133.326917 35.2,133.126917 34.6,133.726917 C33.5,133.526917 33.2,132.426917 32.3,132.026917 Z" transform="translate(-77.000000, -338.000000) translate(77.100000, 338.873083)"/><path fill="#B4B6B7" d="M2.7,61.8269173 C6.7,62.9269173 10.8,62.5269173 14.8,62.6269173 C14.8,62.7269173 14.8,62.9269173 14.8,63.0269173 C14.8,65.7269173 14.8,65.7269173 12.2,65.7269173 C8.8,65.7269173 5.3,65.7269173 1.9,65.7269173 C1.7,64.2269173 2.4,63.0269173 2.7,61.8269173 Z" transform="translate(-77.000000, -338.000000) translate(77.100000, 338.873083)"/><path fill="#D7D8D8" d="M153.1,81.5269173 C153.1,82.1269173 153.2,82.8269173 153.1,83.4269173 C152.9,84.5269173 152.4,85.4269173 151,85.3269173 C147.9,85.2269173 144.7,85.2269173 141.5,85.3269173 C139.1,85.3269173 138.6,83.6269173 137.9,81.9269173 C138.3,81.2269173 139.1,81.0269173 139.9,81.0269173 C143.8,80.9269173 147.7,80.9269173 151.6,81.0269173 C152.1,80.9269173 152.7,81.0269173 153.1,81.5269173 Z" transform="translate(-77.000000, -338.000000) translate(77.100000, 338.873083)"/><path fill="#DADADB" d="M146.2,99.3269173 C145.9,98.1269173 145,98.2269173 144.1,98.2269173 C142.3,98.2269173 140.4,98.2269173 138.6,98.2269173 C138.6,96.7269173 139.6,95.4269173 139.6,93.9269173 C139.6,93.3269173 140.3,92.9269173 141.1,92.9269173 C143.3,92.9269173 145.5,92.8269173 147.7,92.9269173 C149.3,93.0269173 149.6,93.7269173 148.8,95.1269173 C148,96.6269173 147.3,98.1269173 146.2,99.3269173 Z" transform="translate(-77.000000, -338.000000) translate(77.100000, 338.873083)"/><path fill="#CECFCF" d="M136.4,78.8269173 C136,78.2269173 135.6,77.5269173 135.3,76.9269173 C135.9,76.2269173 136.8,76.3269173 137.6,76.3269173 C140.8,76.3269173 144,76.2269173 147.2,76.6269173 C149.4,76.9269173 151.7,76.6269173 153.9,76.5269173 C153.9,77.0269173 153.9,77.5269173 153.9,78.0269173 C153.6,78.6269173 153.5,79.3269173 153,79.8269173 C152.8,79.9269173 152.6,80.0269173 152.4,80.0269173 C147.8,79.8269173 143.1,79.7269173 138.5,79.7269173 C137.6,79.8269173 136.9,79.4269173 136.4,78.8269173 Z" transform="translate(-77.000000, -338.000000) translate(77.100000, 338.873083)"/><path fill="#C9CBCB" d="M153.8,76.6269173 C151.7,78.1269173 149.2,77.5269173 147,77.3269173 C143,76.9269173 139.1,77.2269173 135.2,77.0269173 C134.9,76.3269173 134,76.0269173 134.1,75.1269173 C134.5,74.6269173 135,74.6269173 135.5,74.7269173 C138.9,75.4269173 142.4,75.0269173 145.8,75.0269173 C148.5,75.0269173 151.1,75.7269173 153.9,75.4269173 C153.8,75.8269173 153.8,76.2269173 153.8,76.6269173 Z" transform="translate(-77.000000, -338.000000) translate(77.100000, 338.873083)"/><path fill="#D3D3D4" d="M136.4,78.8269173 C137.6,79.2269173 138.9,79.2269173 140.1,79.2269173 C144.4,79.0269173 148.8,79.5269173 153.1,79.6269173 C153.4,80.2269173 153.4,80.9269173 153.1,81.5269173 C153.1,81.5269173 153.1,81.5269173 153.1,81.5269173 C149.1,81.5269173 145.1,81.5269173 141.1,81.5269173 C140,81.5269173 139,81.6269173 138,81.9269173 C138,81.9269173 138,81.9269173 138,81.9269173 C137.7,81.4269173 137.7,80.8269173 137.2,80.4269173 C136.9,80.0269173 136.7,79.6269173 136.4,79.3269173 C136.4,79.1269173 136.4,79.0269173 136.4,78.8269173 Z" transform="translate(-77.000000, -338.000000) translate(77.100000, 338.873083)"/><path fill="#D7D8D8" d="M153.1,81.5269173 C153.1,80.9269173 153.1,80.2269173 153.1,79.6269173 C153.2,79.4269173 153.4,79.4269173 153.5,79.6269173 C153.4,80.2269173 153.7,81.0269173 153.1,81.5269173 Z" transform="translate(-77.000000, -338.000000) translate(77.100000, 338.873083)"/><path fill="#D7D8D8" d="M137.1,80.4269173 C137.8,80.7269173 137.9,81.3269173 137.9,81.9269173 C137.4,81.5269173 137.2,81.0269173 137.1,80.4269173 Z" transform="translate(-77.000000, -338.000000) translate(77.100000, 338.873083)"/><path fill="#D3D3D4" d="M153.4,79.6269173 C153.3,79.6269173 153.1,79.6269173 153,79.6269173 C153.1,79.0269173 153.3,78.5269173 153.8,78.1269173 C153.9,78.6269173 153.7,79.1269173 153.4,79.6269173 Z" transform="translate(-77.000000, -338.000000) translate(77.100000, 338.873083)"/><path fill="#BFC1C1" d="M153.1,67.8269173 C153.2,67.8269173 153.3,67.8269173 153.5,67.8269173 C153.6,69.1269173 153.8,70.3269173 153.9,71.6269173 C154,72.7269173 153.6,73.2269173 152.4,73.1269173 C146.8,72.6269173 141.1,72.8269173 135.4,72.7269173 C134,72.7269173 132.9,72.0269173 131.8,71.2269173 C131.3,71.0269173 131,70.6269173 131,70.1269173 C131.6,69.7269173 132.2,69.9269173 132.8,69.9269173 C138.6,69.7269173 144.3,70.5269173 150.1,70.3269173 C151.1,70.3269173 152.2,70.5269173 152.5,69.0269173 C152.6,68.6269173 152.7,68.1269173 153.1,67.8269173 Z" transform="translate(-77.000000, -338.000000) translate(77.100000, 338.873083)"/><path fill="#CBCDCF" d="M141.7,104.726917 C140,106.126917 138.5,107.626917 137.1,109.326917 C136.1,109.726917 135.2,111.326917 134.4,110.826917 C133.6,110.326917 134.2,108.726917 134.1,107.626917 C133.9,105.826917 134.8,104.626917 136.3,103.826917 C137.8,103.026917 140.5,103.526917 141.7,104.726917 Z" transform="translate(-77.000000, -338.000000) translate(77.100000, 338.873083)"/><path fill="#B4B6B7" d="M153.1,67.8269173 C153.1,68.2269173 153.1,68.6269173 153.1,68.9269173 C152.9,69.1269173 152.7,69.2269173 152.4,69.2269173 C146.8,68.9269173 141.3,69.5269173 135.7,68.9269173 C134.8,68.8269173 133.9,68.7269173 133,68.8269173 C131.1,69.0269173 129.7,68.3269173 128.7,66.7269173 C127.9,66.1269173 127.4,65.3269173 127.2,64.4269173 C127.2,64.4269173 127.2,64.4269173 127.2,64.4269173 C134.4,66.1269173 141.7,65.4269173 149,65.7269173 C149.9,65.7269173 150.8,65.6269173 150.9,64.4269173 C150.9,64.2269173 151,64.0269173 151.1,63.8269173 C151.2,63.6269173 151.3,63.4269173 151.5,63.3269173 C151.6,63.3269173 151.7,63.3269173 151.8,63.3269173 C151.8,64.0269173 151.9,64.6269173 152.2,65.2269173 C152.6,66.0269173 152.5,67.0269173 153.1,67.8269173 L153.1,67.8269173 Z" transform="translate(-77.000000, -338.000000) translate(77.100000, 338.873083)"/><path fill="#BABCBD" d="M128.7,66.7269173 C129.9,68.1269173 131.5,68.2269173 133.3,68.3269173 C139.2,68.7269173 145.1,68.6269173 151,68.6269173 C151.7,68.6269173 152.3,68.8269173 153,69.0269173 C153.2,70.5269173 152.7,70.9269173 151.1,70.9269173 C145,71.0269173 138.9,70.2269173 132.8,70.5269173 C132.2,70.5269173 131.6,70.3269173 131,70.1269173 C130.2,69.0269173 129.1,68.1269173 128.7,66.7269173 Z" transform="translate(-77.000000, -338.000000) translate(77.100000, 338.873083)"/><path fill="#999D9E" d="M121.2,55.7269173 C124.2,56.4269173 127.2,56.0269173 130.2,56.4269173 C132.6,56.7269173 135.1,56.8269173 137.6,56.5269173 C140.3,56.2269173 143,57.0269173 145.7,56.9269173 C148,56.8269173 148.2,56.6269173 147.3,54.5269173 C147.1,54.0269173 146.9,53.6269173 147,53.0269173 C148,54.2269173 148.4,55.7269173 148.9,57.2269173 C149.1,57.9269173 149.7,58.6269173 149.4,59.4269173 C148.5,60.3269173 147.3,60.1269173 146.2,60.0269173 C139.8,59.7269173 133.5,59.6269173 127.1,59.7269173 C125.2,59.7269173 123.8,59.2269173 122.8,57.6269173 C121.9,57.2269173 121.5,56.4269173 121.2,55.7269173 Z" transform="translate(-77.000000, -338.000000) translate(77.100000, 338.873083)"/><path fill="#A1A4A5" d="M122.7,57.6269173 C123.9,59.0269173 125.5,59.1269173 127.3,59.2269173 C131.6,59.2269173 135.8,59.2269173 140.1,59.4269173 C142.7,59.5269173 145.4,59.7269173 148.1,59.6269173 C148.5,59.6269173 149,59.6269173 149.3,59.2269173 C150,59.0269173 149.7,59.8269173 150.1,60.0269173 L150.1,60.0269173 C150.6,62.5269173 150.4,62.8269173 148,62.9269173 C145.2,62.9269173 142.4,62.8269173 139.5,62.6269173 C135.9,62.3269173 132.3,62.6269173 128.8,62.6269173 C127.3,62.6269173 125.9,62.3269173 125.1,60.9269173 C124.1,59.7269173 123.1,58.8269173 122.7,57.6269173 Z" transform="translate(-77.000000, -338.000000) translate(77.100000, 338.873083)"/><path fill="#ADAFB0" d="M151.5,64.0269173 C151.8,65.8269173 151.1,66.3269173 149.3,66.3269173 C142.9,66.4269173 136.5,65.6269173 130.1,65.9269173 C128.7,66.0269173 128.2,64.9269173 127.2,64.3269173 C127.2,64.0269173 127.2,63.8269173 127.2,63.5269173 C127.9,62.8269173 128.8,62.9269173 129.7,62.9269173 C136.3,62.6269173 142.9,63.4269173 149.6,63.3269173 C150.3,63.4269173 151,63.5269173 151.5,64.0269173 Z" transform="translate(-77.000000, -338.000000) translate(77.100000, 338.873083)"/><path fill="#A8ABAC" d="M151.5,64.0269173 C143.4,64.2269173 135.3,63.3269173 127.2,63.6269173 C126.3,62.7269173 125.3,61.8269173 124.9,60.6269173 C126,61.5269173 127.2,61.8269173 128.6,61.8269173 C131.9,61.6269173 135.2,61.5269173 138.4,61.6269173 C141.5,61.7269173 144.6,62.0269173 147.8,62.2269173 C149.7,62.3269173 150.3,61.6269173 150,59.9269173 C150.5,60.4269173 150.6,61.1269173 150.8,61.8269173 C151.1,62.4269173 151.1,63.2269173 151.5,63.7269173 C151.5,63.8269173 151.5,63.9269173 151.5,64.0269173 Z" transform="translate(-77.000000, -338.000000) translate(77.100000, 338.873083)"/><path fill="#84898B" d="M144.7,49.6269173 C145.2,50.0269173 145.4,50.5269173 145.5,51.1269173 C146.1,52.6269173 145,52.7269173 144,52.8269173 C140.9,52.9269173 137.8,53.0269173 134.7,52.8269173 C130.4,52.5269173 126.2,52.1269173 121.9,52.2269173 C120.2,52.2269173 118.7,51.9269173 117.3,50.8269173 C117,50.6269173 116.8,50.3269173 116.5,50.1269173 C116.2,49.6269173 116,49.1269173 115.7,48.6269173 C117.6,50.0269173 119.6,50.0269173 121.7,49.4269173 C121.9,49.3269173 122.2,49.3269173 122.4,49.3269173 C128.8,50.9269173 135.3,49.6269173 141.7,50.0269173 C142.3,50.0269173 142.9,50.1269173 143.6,50.3269173 C144.4,50.4269173 144.7,50.1269173 144.7,49.6269173 Z" transform="translate(-77.000000, -338.000000) translate(77.100000, 338.873083)"/><path fill="#8A8E90" d="M117.4,50.7269173 C119.4,51.7269173 121.5,51.4269173 123.5,51.5269173 C130.2,51.7269173 136.9,52.5269173 143.6,52.2269173 C144.4,52.2269173 145.5,52.6269173 145.4,51.1269173 C146.1,52.0269173 147,53.2269173 146.2,54.1269173 C145.4,55.0269173 143.7,54.8269173 142.6,54.3269173 C141.2,53.7269173 140,53.8269173 138.6,54.0269173 C137.2,54.2269173 135.7,54.3269173 134.3,54.1269173 C131,53.5269173 127.6,53.8269173 124.3,53.8269173 C122.1,53.8269173 120,53.7269173 118.5,51.9269173 C118,51.6269173 117.6,51.2269173 117.4,50.7269173 Z" transform="translate(-77.000000, -338.000000) translate(77.100000, 338.873083)"/><path fill="#696969" d="M426.2,132.026917 C428.4,132.026917 430.5,132.026917 432.7,132.026917 C433.5,132.026917 434.5,131.926917 434.4,133.226917 C434.4,134.426917 433.4,134.326917 432.6,134.326917 C429.2,134.326917 425.9,134.426917 422.5,134.326917 C421,134.326917 420.6,134.926917 420.7,136.226917 C420.8,137.526917 420.7,138.626917 422.5,138.626917 C425.4,138.526917 428.3,138.626917 431.2,138.626917 C431.9,138.626917 432.7,138.526917 432.8,139.526917 C432.8,140.526917 432,140.526917 431.3,140.526917 C428.5,140.526917 425.7,140.526917 422.9,140.526917 C421.8,140.526917 420.7,140.426917 420.7,142.026917 C420.6,143.726917 421.2,144.826917 422.9,144.926917 C424.2,145.026917 425.6,144.926917 426.9,144.926917 C429,144.926917 431.1,144.926917 433.2,144.926917 C433.8,144.926917 434.4,144.826917 434.4,145.726917 C434.4,146.526917 433.9,146.826917 433.2,146.826917 C429.3,146.826917 425.5,146.926917 421.6,146.826917 C419.3,146.726917 417.9,145.226917 417.8,142.626917 C417.7,139.626917 417.8,136.726917 417.8,133.726917 C417.8,132.526917 418.3,132.026917 419.6,132.026917 C421.8,132.126917 424,132.026917 426.2,132.026917 Z" transform="translate(-77.000000, -338.000000) translate(77.100000, 338.873083)"/><path fill="#6A6A6A" d="M230.4,131.926917 C230.8,132.026917 231.5,132.226917 232.1,132.426917 C234.4,134.426917 234.8,137.826917 233.2,140.726917 C231.9,141.526917 231.8,142.526917 232.5,143.826917 C232.7,144.226917 233,144.626917 233.1,145.026917 C233.127273,145.190554 233.21405,145.369066 233.307588,145.550283 L233.401427,145.731951 C233.616529,146.155843 233.772727,146.572372 233.2,146.826917 C232.4,147.126917 231.3,147.226917 230.7,146.126917 C230.6,145.926917 230.4,145.726917 230.4,145.426917 C229.7,142.326917 227.7,141.526917 224.8,141.926917 C224.2,142.026917 223.5,141.926917 222.9,141.926917 L222.266211,141.927796 C219.298438,141.94098 219.275,142.151917 218.9,145.526917 C218.8,146.626917 218.2,146.826917 217.3,146.826917 C216.4,146.826917 215.6,146.726917 215.6,145.526917 L215.6,133.426917 L215.6,133.426917 C215.6,132.526917 216.1,131.926917 217.1,131.926917 L230.4,131.926917 L230.4,131.926917 Z M220.5,134.526917 C219.5,134.426917 218.6,134.726917 218.8,135.926917 C218.848485,136.217826 218.820569,136.555751 218.78179,136.903649 L218.751693,137.165863 C218.636364,138.173749 218.566667,139.187523 220.1,139.326917 C223.1,139.626917 226,139.526917 229,139.326917 C230.485714,139.326917 230.591837,138.03355 230.599417,136.887996 L230.6,136.626917 C230.6,135.426917 230.1,134.626917 228.7,134.626917 L228.7,134.626917 L223.849537,134.626454 C222.763889,134.62414 221.666667,134.610251 220.5,134.526917 Z" transform="translate(-77.000000, -338.000000) translate(77.100000, 338.873083)"/><path fill="#353535" d="M23.9,37.8269173 C23.9,39.2269173 23.9,40.6269173 23.9,42.0269173 C23.3,40.6269173 23.4,39.2269173 23.9,37.8269173 Z" transform="translate(-77.000000, -338.000000) translate(77.100000, 338.873083)"/><path fill="#7D8081" d="M96.9,18.8269173 C96.8,18.1269173 97.5,17.8269173 97.7,17.3269173 C98,17.0269173 98.2,16.8269173 98.5,16.5269173 C99.3,15.9269173 100.1,15.5269173 101.1,15.6269173 C106.7,15.9269173 112.4,15.9269173 118,15.9269173 C118.9,15.9269173 119.8,16.0269173 120.5,16.5269173 C121.6,17.3269173 122.8,17.9269173 123.5,19.2269173 C122,20.0269173 120.8,18.7269173 119.4,18.8269173 C114.2,18.9269173 108.9,18.9269173 103.7,18.8269173 C101.3,18.8269173 99.1,18.0269173 96.9,18.8269173 Z" transform="translate(-77.000000, -338.000000) translate(77.100000, 338.873083)"/><path fill="#86898A" d="M120.4,16.6269173 C116.4,16.4269173 112.4,16.4269173 108.4,16.4269173 C105.1,16.4269173 101.7,15.8269173 98.4,16.6269173 C100,14.7269173 102,13.6269173 104.5,13.6269173 C107.8,13.6269173 111,13.6269173 114.3,13.6269173 C116.9,13.5269173 118.8,14.8269173 120.4,16.6269173 Z" transform="translate(-77.000000, -338.000000) translate(77.100000, 338.873083)"/><path fill="#D2D4D4" d="M97.3,16.6269173 C97.5,15.5269173 98.1,14.9269173 99.2,14.7269173 C98.7,15.5269173 98.1,16.1269173 97.3,16.6269173 Z" transform="translate(-77.000000, -338.000000) translate(77.100000, 338.873083)"/><path fill="#4B5356" d="M103.7,33.6269173 C103.2,33.0269173 102.7,32.4269173 102.2,31.7269173 C101.6,30.3269173 102.5,29.8269173 103.5,30.0269173 C112.5,30.9269173 121.5,30.1269173 130.5,30.4269173 C131.9,30.5269173 133.1,30.7269173 134.1,31.7269173 C134.9,32.1269173 135.2,32.9269173 135.6,33.6269173 C136.1,34.8269173 135.4,35.1269173 134.4,35.0269173 C125.2,34.4269173 116,34.6269173 106.8,34.5269173 C105.8,34.5269173 104.9,34.4269173 104.1,33.9269173 C104,33.9269173 103.9,33.7269173 103.7,33.6269173 Z" transform="translate(-77.000000, -338.000000) translate(77.100000, 338.873083)"/><path fill="#676D6F" d="M94.6,24.2269173 C94.6,23.7269173 94.6,23.2269173 94.6,22.7269173 C95.9,21.4269173 97.6,22.0269173 99.1,22.0269173 C105,22.2269173 110.8,22.0269173 116.7,22.1269173 C118.9,22.1269173 121.1,22.4269173 123.3,22.1269173 C124.4,22.0269173 125.4,22.2269173 126.4,22.7269173 C127.2,23.6269173 127.9,24.5269173 128.7,25.4269173 C128.3,25.7269173 127.9,25.7269173 127.4,25.7269173 C121.1,25.6269173 114.8,25.7269173 108.5,25.5269173 C104.3,25.4269173 100.1,24.7269173 95.9,24.8269173 C95.4,24.7269173 94.9,24.6269173 94.6,24.2269173 Z" transform="translate(-77.000000, -338.000000) translate(77.100000, 338.873083)"/><path fill="#575E61" d="M107.9,37.8269173 C107,37.2269173 106.2,36.5269173 105.7,35.5269173 C106.2,35.0269173 106.8,34.9269173 107.4,34.9269173 C110.6,34.9269173 113.7,34.7269173 116.9,35.1269173 C117.7,35.2269173 118.4,35.1269173 119.2,35.0269173 C121.7,34.8269173 124.2,34.8269173 126.7,35.3269173 C129.4,35.9269173 132.1,35.6269173 134.8,35.5269173 C135.5,35.5269173 135.9,35.0269173 136.4,34.7269173 C137,35.5269173 137.6,36.3269173 137.9,37.3269173 C138.5,38.4269173 137.7,38.8269173 136.8,38.9269173 C135.7,39.0269173 134.6,39.2269173 133.6,38.9269173 C129.3,37.8269173 124.9,38.4269173 120.6,38.2269173 C117.1,38.1269173 113.5,38.2269173 110,38.2269173 C109.3,38.4269173 108.5,38.4269173 107.9,37.8269173 Z" transform="translate(-77.000000, -338.000000) translate(77.100000, 338.873083)"/><path fill="#606769" d="M94.6,24.2269173 C95.7,24.2269173 96.8,24.3269173 97.8,24.2269173 C102.8,23.7269173 107.6,25.3269173 112.6,25.0269173 C117.2,24.8269173 121.8,25.0269173 126.4,24.9269173 C127.2,24.9269173 128,25.1269173 128.8,25.3269173 C129.3,25.9269173 130.3,26.2269173 130.3,27.2269173 C128.6,28.0269173 127,27.4269173 125.3,27.2269173 C122.5,27.0269173 119.8,26.8269173 117,27.2269173 C115.1,27.5269173 113.2,27.0269173 111.4,27.0269173 C106.9,26.9269173 102.3,27.0269173 97.8,26.6269173 C97.4,26.6269173 96.9,26.5269173 96.5,26.7269173 L96.5,26.7269173 C96,26.5269173 95.5,26.3269173 94.9,26.1269173 C93.5,25.7269173 93.4,25.0269173 94.6,24.2269173 Z" transform="translate(-77.000000, -338.000000) translate(77.100000, 338.873083)"/><path fill="#6A7072" d="M112.1,43.1269173 C111.3,42.5269173 110.8,41.6269173 110.2,40.8269173 C112.5,40.7269173 114.8,40.5269173 117.1,40.7269173 C121.9,41.1269173 126.7,40.8269173 131.5,41.0269173 C133.9,41.1269173 136.4,40.7269173 138.8,41.4269173 C139.3,41.6269173 139.8,41.2269173 140.3,41.1269173 C140.4,41.1269173 140.5,41.1269173 140.7,41.1269173 C140.9,41.8269173 141,42.5269173 141.5,43.0269173 C141.3,44.5269173 140.1,44.3269173 139.2,44.3269173 C135.7,44.4269173 132.2,44.2269173 128.8,44.3269173 C123.9,44.5269173 119,43.2269173 114.1,43.5269173 C113.2,43.8269173 112.6,43.6269173 112.1,43.1269173 Z" transform="translate(-77.000000, -338.000000) translate(77.100000, 338.873083)"/><path fill="#6F7476" d="M126.5,22.6269173 C118.2,22.6269173 109.8,22.6269173 101.5,22.6269173 C99.2,22.6269173 97,22.2269173 94.7,22.6269173 C95.5,20.7269173 96.9,20.1269173 98.9,20.3269173 C101,20.5269173 103.1,20.5269173 105.2,20.3269173 C107.2,20.1269173 108.8,21.4269173 110.7,21.1269173 C114.1,20.6269173 117.5,21.2269173 120.8,21.1269173 C122.8,21.0269173 124.8,20.9269173 126.5,22.2269173 C126.5,22.4269173 126.5,22.5269173 126.5,22.6269173 Z" transform="translate(-77.000000, -338.000000) translate(77.100000, 338.873083)"/><path fill="#50585B" d="M136.4,34.8269173 C136.5,36.1269173 135.7,36.3269173 134.6,36.3269173 C130.8,36.4269173 127,35.9269173 123.2,35.6269173 C117.4,35.2269173 111.5,35.5269173 105.7,35.5269173 C105.5,34.7269173 104.4,34.8269173 104.2,34.0269173 C111,34.0269173 117.8,34.0269173 124.6,34.0269173 C127.5,34.0269173 130.5,35.0269173 133.4,34.1269173 C133.6,34.0269173 133.9,34.3269173 134.2,34.5269173 C135.2,35.0269173 135.6,34.7269173 135.6,33.6269173 C135.8,34.0269173 136.1,34.4269173 136.4,34.8269173 Z" transform="translate(-77.000000, -338.000000) translate(77.100000, 338.873083)"/><path fill="#5A6163" d="M96.5,26.8269173 C97.5,25.3269173 99.1,26.0269173 100.2,26.2269173 C102.2,26.5269173 104.2,26.4269173 106.2,26.5269173 C108.8,26.6269173 111.5,26.3269173 114.1,26.8269173 C115.7,27.2269173 117.3,26.5269173 119,26.5269173 C122.8,26.4269173 126.5,26.7269173 130.3,27.2269173 C130.9,27.6269173 131.4,28.1269173 131.8,28.7269173 C130.1,29.7269173 128.3,29.2269173 126.5,29.0269173 C125.8,28.9269173 125,28.6269173 124.3,28.6269173 C115.9,28.7269173 107.5,28.3269173 99.2,28.7269173 C98.2,28.1269173 97.6,27.2269173 96.5,26.8269173 Z" transform="translate(-77.000000, -338.000000) translate(77.100000, 338.873083)"/><path fill="#555C5F" d="M99.1,28.7269173 C99.3,27.5269173 100.3,28.0269173 100.9,28.0269173 C107.6,28.0269173 114.4,28.1269173 121.1,27.9269173 C124.7,27.8269173 128.1,29.2269173 131.7,28.7269173 C132.5,29.1269173 132.7,29.9269173 133.2,30.6269173 C130.8,30.9269173 128.5,30.0269173 126.1,30.0269173 C119.4,30.1269173 112.7,30.1269173 106,30.0269173 C104.2,30.0269173 102.4,29.8269173 100.5,30.2269173 C100,29.9269173 99.5,29.4269173 99.1,28.7269173 Z" transform="translate(-77.000000, -338.000000) translate(77.100000, 338.873083)"/><path fill="#50575A" d="M100.7,30.2269173 C100.8,29.3269173 101.6,29.4269173 102.2,29.4269173 C111,29.4269173 119.9,29.3269173 128.7,29.4269173 C130.3,29.4269173 131.8,30.1269173 133.4,30.5269173 C133.6,30.9269173 134.2,31.0269173 134.2,31.6269173 C132.8,30.7269173 131.2,30.8269173 129.6,30.8269173 C122,30.8269173 114.4,30.8269173 106.9,30.8269173 C105.9,30.8269173 104.9,30.8269173 103.9,30.4269173 C102.8,29.9269173 102.2,30.4269173 102.2,31.6269173 C102,31.5269173 101.7,31.3269173 101.5,31.2269173 C101.2,31.0269173 100.9,30.6269173 100.7,30.2269173 Z" transform="translate(-77.000000, -338.000000) translate(77.100000, 338.873083)"/><path fill="#636A6D" d="M140.2,41.2269173 C140.2,42.3269173 139.6,42.6269173 138.8,42.1269173 C137.6,41.4269173 136.4,41.5269173 135.1,41.5269173 C130.4,41.5269173 125.8,41.5269173 121.1,41.5269173 C118.4,41.5269173 115.7,40.8269173 113.1,41.5269173 C112,41.8269173 111.3,40.6269173 110.3,40.7269173 C109.7,40.4269173 109.2,39.9269173 109.1,39.2269173 C109.4,39.0269173 109.7,38.9269173 110.1,39.1269173 C112,39.8269173 114,39.3269173 115.9,39.4269173 C119.3,39.6269173 122.7,39.5269173 126.1,39.4269173 C128.9,39.4269173 131.7,39.8269173 134.6,39.4269173 C136.3,39.1269173 137.8,40.6269173 139.6,39.9269173 C139.9,40.3269173 140.1,40.7269173 140.2,41.2269173 Z" transform="translate(-77.000000, -338.000000) translate(77.100000, 338.873083)"/><path fill="#5E6567" d="M107.9,37.8269173 C115.5,37.8269173 123,37.8269173 130.6,37.8269173 C132.6,37.8269173 134.4,38.9269173 136.5,38.6269173 C137.3,38.5269173 138.1,38.5269173 138,37.4269173 C138.9,37.8269173 138.8,38.6269173 138.8,39.3269173 C138.7,40.1269173 138.1,40.1269173 137.6,40.0269173 C134.1,39.2269173 130.5,40.1269173 127,39.6269173 C123,39.4269173 119,38.7269173 115,39.2269173 C114.8,39.2269173 114.6,39.2269173 114.4,39.2269173 C112.6,38.9269173 110.7,39.1269173 108.9,38.9269173 C108.1,38.8269173 107.9,38.4269173 107.9,37.8269173 Z" transform="translate(-77.000000, -338.000000) translate(77.100000, 338.873083)"/><path fill="#606769" d="M126.5,39.3269173 C130.3,39.5269173 134.1,38.9269173 137.8,39.7269173 C138.1,39.8269173 138.4,39.6269173 138.6,39.3269173 C139.1,39.3269173 139.3,39.6269173 139.4,40.1269173 C138.8,41.5269173 137.6,41.0269173 136.9,40.6269173 C136,40.1269173 135.1,40.1269173 134.2,40.1269173 C128,40.4269173 121.8,39.9269173 115.6,40.1269173 C114.2,40.1269173 112.8,39.8269173 111.3,40.1269173 C110.7,40.2269173 110,40.3269173 109.8,39.4269173 C109.8,38.6269173 110.5,38.8269173 110.9,38.9269173 C112.1,38.9269173 113.2,38.7269173 114.4,39.1269173 C117.8,39.1269173 121.3,39.2269173 124.7,39.3269173 C125.3,39.2269173 125.9,39.0269173 126.5,39.3269173 Z" transform="translate(-77.000000, -338.000000) translate(77.100000, 338.873083)"/><path fill="#A8ABAC" d="M150,59.8269173 C149.7,59.5269173 149.5,59.3269173 149.2,59.0269173 C149.1,58.4269173 149,57.7269173 148.8,57.1269173 C149.6,57.9269173 150,58.8269173 150,59.8269173 Z" transform="translate(-77.000000, -338.000000) translate(77.100000, 338.873083)"/><path fill="#ADAFB0" d="M151.5,63.7269173 C150.6,63.3269173 150.7,62.5269173 150.8,61.8269173 C151.3,62.2269173 151.5,62.7269173 151.6,63.3269173 C151.5,63.4269173 151.5,63.5269173 151.5,63.7269173 Z" transform="translate(-77.000000, -338.000000) translate(77.100000, 338.873083)"/><path fill="#BFC1C1" d="M153.1,67.8269173 C152.2,67.1269173 152.3,66.1269173 152.3,65.1269173 C152.4,65.1269173 152.5,65.1269173 152.6,65.1269173 C152.8,66.1269173 152.9,66.9269173 153.1,67.8269173 Z" transform="translate(-77.000000, -338.000000) translate(77.100000, 338.873083)"/><path fill="#717779" d="M112.1,43.1269173 C115.9,43.2269173 119.7,43.3269173 123.5,43.7269173 C128.9,44.3269173 134.4,43.8269173 139.9,43.9269173 C140.5,43.9269173 141,43.7269173 141.3,43.1269173 C141.7,43.9269173 142.1,44.6269173 142.4,45.4269173 C142.7,46.8269173 141.6,46.6269173 140.9,46.7269173 C138.5,46.8269173 136.1,46.9269173 133.7,46.6269173 C131.1,46.3269173 128.5,46.3269173 125.9,46.6269173 C124.2,46.8269173 122.5,46.8269173 120.8,46.3269173 C119.5,45.8269173 118,46.0269173 116.7,46.0269173 C115.5,46.0269173 114.4,45.8269173 113.5,45.0269173 C112.9,44.6269173 112.2,44.1269173 112.1,43.1269173 Z" transform="translate(-77.000000, -338.000000) translate(77.100000, 338.873083)"/><path fill="#787E80" d="M113.6,45.0269173 C114.6,45.3269173 115.6,45.4269173 116.6,45.4269173 C118.5,45.5269173 120.3,45.3269173 122.2,46.0269173 C124.1,46.7269173 126.3,45.9269173 128.4,45.8269173 C132.6,45.6269173 136.7,46.4269173 140.9,46.2269173 C141.5,46.2269173 142.4,46.5269173 142.6,45.4269173 C143.5,45.8269173 143.5,46.6269173 143.2,47.3269173 C142.9,48.2269173 142.1,48.0269173 141.4,48.0269173 C133.3,47.5269173 125.2,47.7269173 117.1,47.6269173 C115.2,47.7269173 114.6,46.1269173 113.6,45.0269173 Z" transform="translate(-77.000000, -338.000000) translate(77.100000, 338.873083)"/><path fill="#5E6568" d="M114.3,39.0269173 C112.8,39.2269173 111.2,38.6269173 109.7,39.4269173 C109.4,39.4269173 109.2,39.4269173 108.9,39.4269173 C108.8,39.3269173 108.6,39.1269173 108.5,39.0269173 C110.5,38.4269173 112.4,38.3269173 114.3,39.0269173 Z" transform="translate(-77.000000, -338.000000) translate(77.100000, 338.873083)"/><path fill="#5E6568" d="M126.5,39.3269173 C123.1,39.3269173 119.7,39.3269173 116.3,39.3269173 C115.6,39.3269173 114.9,39.6269173 114.3,38.9269173 C118.4,38.1269173 122.4,38.8269173 126.5,39.3269173 Z" transform="translate(-77.000000, -338.000000) translate(77.100000, 338.873083)"/></g></g></g></svg>