<svg xmlns="http://www.w3.org/2000/svg" xmlns:xlink="http://www.w3.org/1999/xlink" viewBox="0 0 297.360107421875 108.83805847167969"><defs><polygon id="a" points="0.000877725 8.77023454e-16 43.5483259 8.77023454e-16 43.5483259 37.1523438 -1.48606752e-15 37.1523438"/><polygon id="c" points="0 9.74470504e-17 261.211838 9.74470504e-17 261.211838 73.5121019 0.000877725 73.5121019"/></defs><g fill="none" fill-rule="evenodd"><g><g><g transform="translate(-94.000000, -363.000000) translate(94.000000, 363.000000) translate(253.811738, 11.085473)"><mask id="b" fill="#fff"><use xlink:href="#a"/></mask><path fill="#4B9C35" fill-rule="nonzero" d="M0.955842525,32.4521264 L39.216753,0.610018875 C39.7570294,0.161592344 40.4535406,-0.0534112048 41.152573,0.0124575678 C41.8516053,0.0783263405 42.4956944,0.419652654 42.9426956,0.961108875 C43.8714847,2.09076987 43.7146952,3.75822642 42.5916056,4.69495103 L4.33069515,36.5449581 C3.20438962,37.4743013 1.53868215,37.3181289 0.604752525,36.1956236 C-0.321750007,35.0614648 -0.165345098,33.3934065 0.955842525,32.4512487" mask="url(#b)"/></g><path fill="#F6A010" fill-rule="nonzero" d="M233.501182,35.1088066 L283.478843,35.1088066 C284.944644,35.1088066 286.13835,36.298124 286.13835,37.7428594 C286.13835,39.1928611 284.944644,40.3751566 283.478843,40.3751566 L233.501182,40.3751566 C232.038014,40.3751566 230.841675,39.1928611 230.841675,37.7428594 C230.841675,36.2911022 232.038014,35.1088066 233.501182,35.1088066" transform="translate(-94.000000, -363.000000) translate(94.000000, 363.000000)"/><path fill="#20325E" fill-rule="nonzero" d="M225.505107,0.583493775 L279.013856,43.6157173 C279.558506,44.0516285 279.906234,44.6872315 279.979598,45.3809752 C280.052962,46.0747188 279.845871,46.7689944 279.404444,47.3091841 C278.484588,48.430039 276.8055,48.5994399 275.67499,47.6883613 L222.160975,4.66315957 C221.618378,4.22570711 221.272813,3.58978997 221.200966,2.896527 C221.129118,2.20326403 221.336931,1.50999664 221.778287,0.9705705 C222.695509,-0.155550675 224.374597,-0.3249516 225.505107,0.5843715" transform="translate(-94.000000, -363.000000) translate(94.000000, 363.000000)"/><path fill="#E9530C" fill-rule="nonzero" d="M264.13554,21.306581 L276.401747,69.5481025 C276.758606,70.96172 275.906855,72.3981681 274.495328,72.7632091 L274.488306,72.7702309 C273.073445,73.1237525 271.638761,72.2679624 271.277588,70.855035 L259.011381,22.6135135 C258.654148,21.1979703 259.505194,19.7591853 260.9178,19.3905073 C262.334938,19.0346614 263.77318,19.8910944 264.13554,21.306581" transform="translate(-94.000000, -363.000000) translate(94.000000, 363.000000)"/><g transform="translate(-94.000000, -363.000000) translate(94.000000, 363.000000) translate(0.000000, 35.325605)"><mask id="d" fill="#fff"><use xlink:href="#c"/></mask><path fill="#002969" fill-rule="nonzero" d="M215.133031,69.9450275 C212.682422,67.9956003 211.174491,66.1093693 209.95972,63.2155099 C209.121492,60.8912941 208.868707,59.1147787 208.823066,56.6527601 C208.89065,51.4232746 209.788563,47.6323803 213.804155,44.0925154 C216.558456,41.8323735 219.664725,40.5526504 223.066787,39.6020743 C229.138888,37.9054318 238.227731,37.2050073 245.008157,36.7354244 L249.016727,36.4440197 L249.016727,32.4494932 L248.932465,30.8318461 C248.69899,28.9956454 248.516423,27.8616247 247.702772,26.1825367 L247.292875,25.4821122 C245.71297,23.1982717 244.2814,22.1748444 241.750919,21.0917317 C239.561873,20.2710589 237.693196,19.8839821 235.389168,19.5732675 C233.809816,19.4053521 232.224141,19.3034473 230.636287,19.2678192 C228.260286,19.2502647 226.344212,19.4073775 223.998931,19.8313186 C222.743784,20.0744485 221.540423,20.3579536 220.312486,20.6827119 C218.426984,21.2010272 216.562704,21.7936615 214.724011,22.4592273 L214.186843,22.6584709 L214.186843,15.2004415 L214.458938,15.1425117 L215.027704,15.0178747 C216.361846,14.7405136 217.695988,14.480707 219.031885,14.2305554 C221.42193,13.7952038 223.726836,13.4388475 226.145846,13.1886958 C228.857563,12.9368948 231.580099,12.8197209 234.303422,12.8376058 C237.027003,12.8832475 239.629458,13.0219281 242.331095,13.3379091 C244.564905,13.6407242 246.59245,14.0216569 248.766575,14.6281648 C250.861705,15.2601268 252.570635,15.9421192 254.448967,17.0901835 C255.920034,18.0670914 256.991736,19.0053794 258.087137,20.3992067 C259.044735,21.7061392 259.627544,22.8419154 260.176122,24.3630128 C260.954664,26.7521803 261.185506,28.8780302 261.211838,31.387446 L261.211838,71.8268699 L261.192528,71.8532017 C260.21562,72.8037778 257.874727,73.4778706 255.15378,73.4778706 C252.426688,73.4778706 250.089307,72.8037778 249.108888,71.8540794 L249.016727,71.7478747 L249.016727,40.6386675 L244.133942,41.1538921 C238.408542,41.7481119 232.136319,41.9868531 226.991973,44.7525646 C223.649596,46.8652486 222.127621,49.1060806 221.46845,53.0286336 C221.157735,56.3086919 221.407887,59.1218005 223.12735,61.9858172 C228.055776,68.9821632 237.322796,67.1047094 244.519264,65.3773466 L244.519264,71.5767183 C235.598944,73.5910972 222.611248,75.2684297 215.133031,69.9441498 L215.133031,69.9450275 Z M175.284316,67.3434506 C177.734924,67.434734 179.860774,67.383826 182.272762,66.8931777 C186.956303,65.9382129 190.478613,64.2459591 191.665297,59.2280053 C191.898772,57.2066046 191.884729,56.2244303 191.05089,54.374186 C189.982699,52.0034508 188.648557,51.1248481 186.376126,50.0943989 C184.307329,49.2307175 182.277151,48.7233925 180.106537,48.2195783 C177.245153,47.5797168 174.332862,47.1250552 171.510976,46.3982989 C168.703134,45.6566213 166.230582,44.7595864 163.708001,43.2858861 C161.838446,42.0921801 160.49816,40.9616703 159.20966,39.1395132 C157.842164,36.9882092 157.285687,35.1449867 157.028513,32.6267937 C156.751152,29.9269116 156.845069,27.9678294 157.796523,25.4241823 C158.384599,23.8451551 159.104333,22.6760254 160.148826,21.3568047 C162.017502,19.1186059 163.865991,17.7318004 166.435092,16.3625494 C168.768085,15.1881534 171.041393,14.3964454 173.570996,13.7688721 C176.616702,13.0824911 179.420156,12.8103964 182.535202,12.7357897 C185.152578,12.719113 187.644439,12.8323395 190.247771,13.1360323 C192.835305,13.4695678 195.127922,13.9654825 197.639094,14.6588852 C198.987279,15.0485951 200.27578,15.4655145 201.589734,15.9614291 L201.72227,16.0140926 L201.72227,23.7731816 L201.510739,23.6555665 C199.574477,22.5768424 197.725988,21.6648862 195.657191,20.8924882 C193.711961,20.2004078 191.714664,19.664469 189.684272,19.2897623 C187.153791,18.8728429 184.841863,18.7280183 182.272762,18.8658211 C180.40233,19.0124012 178.856656,19.2818628 177.060831,19.8506286 C175.442306,20.4185167 174.417123,20.940763 172.969755,21.9317146 C171.060703,23.5809598 170.426986,24.5262697 169.818722,26.9812665 C169.646688,29.2870501 169.798534,30.4833892 170.848294,32.5504316 C171.780437,33.9556693 172.45453,34.6411726 173.867668,35.5127535 C175.32908,36.3114832 176.711497,36.8030092 178.29579,37.2840025 C180.75342,37.9914489 183.224216,38.530372 185.739776,39.0096099 C191.752192,40.1164211 199.237431,41.8885479 202.73341,47.4094381 C203.571637,48.8866493 203.947303,50.0610454 204.279083,51.7190679 C204.621396,53.8589614 204.696003,55.8083887 204.337013,57.9333609 C203.603235,61.5987405 201.912737,64.4118491 199.119816,66.8765009 C196.688518,68.893513 194.116783,70.2294104 191.157095,71.3379771 C188.073647,72.4210897 185.395708,72.9222707 182.141103,73.2400072 C180.084594,73.403264 178.103568,73.4655825 176.049692,73.4506612 C173.876527,73.4088902 171.706765,73.2594939 169.548383,73.0030214 C167.502639,72.7187286 165.473414,72.3261266 163.469259,71.8268699 C161.237205,71.2396719 159.130665,70.604199 156.974972,69.7817707 L156.618616,69.6343129 L156.618616,61.4328505 L156.652847,61.4539159 L156.989893,61.6584258 L157.333962,61.8559139 C159.573038,63.1242265 162.135117,64.2793126 164.555005,65.1508936 C168.226529,66.4455379 171.371418,67.1459625 175.283438,67.3434506 L175.284316,67.3434506 Z M138.525193,38.8340649 C138.29874,33.4404448 138.46463,29.3809666 135.816533,24.5841995 C130.172762,15.4848244 116.352981,15.9421192 109.923646,23.9171285 C106.343406,28.8587203 106.218769,33.1376296 105.953696,38.8340649 L138.525193,38.8340649 Z M103.991103,67.0810108 C99.9948206,63.9694757 97.577566,60.633243 95.793151,55.8856285 C94.478319,52.0490925 94.0087361,48.6242095 93.891121,44.5805305 C93.8384575,39.1518013 94.417756,34.3962873 96.4532002,29.3326918 C98.4035052,24.8150412 101.099876,21.2506 105.054905,18.2522914 C114.02701,11.8334884 129.388075,10.8829123 139.040417,15.7683296 C144.306767,18.6297131 147.205015,22.8155836 148.974509,28.4804208 C150.080442,32.3239786 150.416611,35.8787648 150.455231,39.8662695 L150.455231,43.2209344 L106.014259,43.2209344 C106.721705,52.7758488 107.839049,60.3234061 117.640604,64.5707173 C122.246905,66.4648479 127.914375,66.9414526 132.869133,66.5587645 C135.188082,66.3472327 137.275312,65.9426015 139.522288,65.3360935 C142.969992,64.3732292 146.200898,62.9583365 149.300145,61.1221358 L149.300145,69.3841612 C142.772504,72.0120699 136.668804,73.3119806 129.553965,73.473482 C127.558019,73.5042024 125.600692,73.473482 123.607379,73.3593778 C119.815607,73.0907939 116.451287,72.5729362 112.799073,71.4784131 C109.454941,70.3953004 106.84722,69.1524418 103.991103,67.0810108 L103.991103,67.0810108 Z M12.1038278,15.253105 L29.868104,15.253105 L29.868104,22.4206074 L22.5680652,22.4206074 C17.9380658,22.4206074 13.7214749,22.8682471 12.0968059,24.7500895 C12.0889064,29.6021533 12.077496,21.2962417 12.077496,53.9046031 C12.2486524,60.9053377 16.165939,64.5180538 21.5042625,66.0698716 C25.7384079,67.3021975 29.1360814,66.5587645 33.1376297,65.7187816 L33.1376297,72.2025362 C28.5673156,72.9170044 23.9882243,73.8193057 19.6136428,73.3260242 C8.99668125,72.1112528 0.151846425,67.3653937 0,54.9684058 L0,1.64397892 L0.01930995,1.62466897 C0.9970956,0.6740928 3.33711045,0 6.05805795,0 C8.78602725,0 11.1260421,0.6740928 12.1038278,1.62379125 L12.1038278,15.253105 Z M42.5784397,69.9441498 C40.1269538,67.9956003 38.6199,66.1084915 37.4060063,63.2155099 C36.5660235,60.8912941 36.3158719,59.1147787 36.2623306,56.6527601 C36.3272823,51.4232746 37.2330945,47.6323803 41.2513195,44.0925154 C44.0056206,41.8323735 47.1092562,40.5526504 50.5113183,39.6020743 C56.5834198,37.9054318 65.6748954,37.2050073 72.4526878,36.7354244 L76.4568693,36.4440197 L76.4568693,32.4494932 L76.377874,30.8318461 C76.1391328,28.9956454 75.9539329,27.8616247 75.1473036,26.1825367 L74.7330174,25.4821122 C73.1610119,23.1982717 71.7206652,22.1748444 69.1945726,21.0917317 C67.0090374,20.2710589 65.1403609,19.8839821 62.8336996,19.5732675 C61.2552271,19.4053581 59.6704299,19.3034532 58.0834519,19.2678192 C55.7004285,19.2502647 53.7834771,19.4073775 51.4390736,19.8313186 C50.1891932,20.0744485 48.9875877,20.3579536 47.7570172,20.6827119 C45.8716187,21.2013772 44.0073525,21.7940071 42.1685422,22.4592273 L41.6269858,22.6584709 L41.6269858,15.2004415 L41.9043469,15.1425117 L42.4669687,15.0178747 C43.8011107,14.7405136 45.1352527,14.480707 46.4764165,14.2305554 C48.8673394,13.7952038 51.1740007,13.4388475 53.5912553,13.1886958 C56.3035639,12.9369675 59.0266802,12.8197938 61.7505869,12.8376058 C64.4715344,12.8832475 67.0696004,13.0219281 69.7782598,13.3379091 C72.0094367,13.6407242 74.0369815,14.0216569 76.211984,14.6281648 C78.3062359,15.2601268 80.0177996,15.9421192 81.8864761,17.0901835 C83.3671982,18.0670914 84.4362673,19.0053794 85.5343012,20.3992067 C86.4848774,21.7061392 87.0720754,22.8419154 87.6145095,24.3630128 C88.3939293,26.7521803 88.6256487,28.8780302 88.6590023,31.387446 L88.6590023,71.8268699 L88.6326705,71.8532017 C87.6627844,72.8037778 85.3175032,73.4778706 82.5939225,73.4778706 C79.8712196,73.4778706 77.5329602,72.8037778 76.5551745,71.8540794 L76.4638911,71.7478747 L76.4638911,40.6386675 L71.5811069,41.1538921 C65.8530736,41.7481119 59.5834839,41.9868531 54.4356268,44.7525646 C51.0941277,46.8652486 49.5677639,49.1060806 48.9147365,53.0286336 C48.6022664,56.3086919 48.8550512,59.1218005 50.5648595,61.9858172 C55.5003072,68.9821632 64.7629391,67.1047094 71.9567732,65.3773466 L71.9567732,71.5767183 C63.0469867,73.5910972 50.0566567,75.2675519 42.5784397,69.9441498 Z" mask="url(#d)"/></g></g></g></g></svg>