<svg  id="fndm-hnnq4kfc7k" viewBox="-0.00030726194381713867 55.998992919921875 462.99981689453125 137.00082397460938" xmlns="http://www.w3.org/2000/svg">
   <path d="m339,183l-17.65,0c-0.696,0 -1.044,-0.115 -1.277,-0.806c-2.322,-7.135 -4.644,-14.27 -6.966,-21.52c-0.116,-0.46 -0.349,-0.806 -0.465,-1.267c-0.58,-1.956 -1.625,-2.647 -3.948,-2.877l0,26.355l-18.694,0l0,-72.159c0,-1.726 0,-1.726 1.858,-1.726l32.976,0c2.322,0 4.76,0.345 6.967,1.036c4.064,1.15 6.038,4.143 6.038,8.17c0.116,7.366 0,14.617 0,21.982c0,5.87 -2.555,10.588 -6.619,14.731c-1.393,1.381 -1.51,2.647 -0.812,4.488c2.902,7.711 5.69,15.537 8.592,23.593zm-30.422,-51.443l0,8.17c0,1.037 0.465,1.612 1.394,1.957l5.573,2.072c2.322,0.92 2.903,0.69 3.6,-1.726c0.116,-0.346 0.232,-0.691 0.232,-1.036c0.116,-5.754 0.116,-11.509 0.116,-17.263c0,-1.15 -0.697,-1.726 -1.858,-1.726l-7.547,0c-1.161,0 -1.51,0.345 -1.51,1.496c0.116,2.647 0,5.294 0,8.056zm85.192,51.443l-34.302,0c-2.878,0 -5.64,-0.344 -8.173,-1.49c-3.338,-1.374 -4.72,-4.008 -5.18,-7.33c-0.115,-1.031 -0.115,-2.062 -0.115,-3.208l0,-59.91c0,-1.947 0,-1.947 1.842,-1.947l15.194,0c1.381,0 1.842,0.343 1.842,1.718l0,57.504c0,0.917 0.46,1.375 1.266,1.375l7.482,0c0.92,0 1.266,-0.573 1.266,-1.49l0,-57.389c0,-1.833 0,-1.833 1.842,-1.833l15.654,0c1.152,0 1.612,0.344 1.612,1.604l0,70.792c-0.23,0.573 -0.23,1.031 -0.23,1.604zm-113.886,0l-34.236,0c-3.007,0 -6.014,-0.345 -8.79,-1.611c-2.776,-1.266 -4.28,-3.568 -4.627,-6.56c-0.231,-1.957 -0.231,-3.798 -0.231,-5.754l0,-58.119c0,-1.956 0,-1.956 1.966,-1.956l15.268,0c1.272,0 1.735,0.345 1.735,1.726l0,56.507c0,2.762 0.115,2.877 3.007,2.877l4.858,0c1.966,0 2.197,-0.345 2.197,-2.301l0,-56.968c0,-1.841 0,-1.841 1.967,-1.841l15.383,0c1.156,0 1.619,0.345 1.619,1.611l0,71.123c0,0.23 -0.116,0.69 -0.116,1.266zm-51.884,0l-18.55,0c-0.576,-2.99 -1.152,-5.865 -1.498,-8.855c-0.115,-1.15 -0.691,-1.726 -1.728,-2.07c-3.226,-1.15 -6.337,-2.53 -9.448,-3.796c-0.115,-0.115 -0.346,0 -0.691,-0.115c-0.346,1.84 -0.692,3.565 -0.922,5.406c-0.46,2.875 -0.922,5.75 -1.498,8.51c-0.115,0.345 -0.576,0.92 -0.922,0.92l-17.397,0c-0.116,0 -0.116,-0.115 -0.346,-0.23c0.46,-2.3 0.922,-4.485 1.498,-6.785c1.037,-4.6 2.074,-9.316 3.226,-13.916c2.304,-10.35 4.724,-20.701 7.028,-30.937l3.802,-17.25c0.23,-1.266 0.461,-2.53 0.922,-3.796c0.115,-0.46 0.807,-1.035 1.267,-1.035c5.877,-0.115 11.753,0 17.744,0c0.806,0 1.152,0.345 1.383,1.15c1.843,8.396 3.802,16.676 5.645,25.071c1.268,5.52 2.42,11.041 3.687,16.561c1.613,7.246 3.226,14.376 4.84,21.621c0.575,3.22 1.267,6.326 1.958,9.546zm-26.27,-45.772c-0.115,0 -0.23,0 -0.46,0.115c-0.23,1.38 -0.461,2.76 -0.807,4.14c-0.691,4.255 -1.498,8.625 -2.19,12.88c-0.114,0.346 0.116,1.036 0.347,1.15c1.958,0.92 4.032,1.726 6.567,2.646a2001.027,2001.027 0 0 0 -3.457,-20.931zm200.27,45.772l0,-12.161c0,-1.148 0.35,-1.492 1.514,-1.492l19.564,0c2.213,-0.114 2.563,-0.344 2.563,-2.638c0,-2.754 -0.117,-5.622 0,-8.376c0,-1.262 -0.466,-1.835 -1.514,-2.294c-3.843,-1.492 -7.686,-2.868 -11.53,-4.475c-2.445,-0.917 -4.774,-1.95 -6.987,-3.212c-2.329,-1.377 -3.494,-3.671 -3.494,-6.31c0,-7.916 -0.116,-15.833 0,-23.864c0,-5.392 3.727,-8.03 8.735,-8.834a32.235,32.235 0 0 1 4.774,-0.344l30.628,0c0.582,0 1.048,0 1.747,0.115c0,0.344 0,0.573 -0.116,0.803c-2.213,4.015 -4.426,8.146 -6.755,12.161c-0.233,0.459 -1.164,0.688 -1.747,0.688l-16.187,0c-2.213,0 -3.028,0.345 -2.911,2.869a152.63,152.63 0 0 1 0,10.325c0,0.918 0.232,1.492 1.28,1.836c5.59,2.065 11.064,4.245 16.537,6.425c4.193,1.606 6.056,4.474 6.056,8.834c0,6.425 0,12.964 -0.116,19.389c0,1.606 -0.466,3.327 -0.932,4.933c-0.932,2.64 -3.028,4.016 -5.59,4.59c-2.562,0.573 -5.24,0.803 -7.919,0.803c-8.618,0.114 -17.235,0 -25.853,0c-0.582,0.229 -1.048,0.229 -1.747,0.229zm-260.791,-60.075l-20.209,0c0.58,-1.956 1.161,-3.682 1.626,-5.524a544.422,544.422 0 0 0 2.09,-7.02c0.233,-0.92 0.697,-1.381 1.743,-1.381l52.147,0c0.465,0 0.93,0.115 1.394,0.115c-0.697,2.877 -1.278,5.64 -1.858,8.401c-0.349,1.381 -0.697,2.647 -0.93,4.028c-0.116,1.036 -0.696,1.266 -1.625,1.266l-13.357,0c-1.858,0 -1.858,0 -1.858,1.842l0,58.348l-19.047,0c-0.116,-19.91 -0.116,-39.82 -0.116,-60.075zm320.123,-10.999a47.413,47.413 0 0 0 -1.701,2.234l-1.57,-1.971l-0.393,0c0,0.788 0,1.708 -0.13,2.497c-0.131,0.394 -0.393,0.788 -0.655,1.183c-0.262,-0.395 -0.654,-0.657 -0.785,-1.052a28.56,28.56 0 0 1 0,-4.73c0,-0.395 0.393,-0.92 0.654,-1.052c0.393,-0.131 0.916,0.131 1.178,0.394c0.523,0.657 0.916,1.314 1.57,2.234c0.523,-0.657 0.785,-1.445 1.308,-1.84c0.393,-0.394 1.047,-0.525 1.57,-0.788c0.131,0.526 0.524,0.92 0.524,1.446c0.13,1.314 0.13,2.628 0,3.942c0,0.526 -0.393,1.051 -0.654,1.577c-0.262,-0.526 -0.524,-0.92 -0.655,-1.446c-0.13,-0.788 0,-1.577 0,-2.365c0,-0.131 -0.13,-0.131 -0.261,-0.263zm-11.332,-2.03c0.227,-0.266 0.568,-0.796 0.795,-0.796a14.646,14.646 0 0 1 3.41,0c0.34,0 0.568,0.398 0.795,0.663c-0.227,0.265 -0.455,0.664 -0.795,0.664c-0.796,0 -1.023,0.53 -0.91,1.327l0,3.45c0,0.265 -0.34,0.53 -0.568,0.796c-0.227,-0.265 -0.682,-0.53 -0.795,-0.796c-0.114,-0.93 -0.114,-1.858 0,-2.654c0,-1.327 0,-2.654 -1.818,-1.99c0,-0.266 0,-0.399 -0.114,-0.664zm-321,44.91c-1.685,0.673 -2.92,1.234 -4.269,1.794c-5.392,2.02 -10.896,3.253 -16.513,4.15c-6.515,1.01 -13.03,1.122 -19.658,0.897a90.412,90.412 0 0 1 -17.3,-2.355c-1.347,-0.336 -2.134,-0.112 -3.032,1.122c-4.943,6.84 -9.998,13.682 -14.94,20.523c-1.461,2.02 -2.36,4.374 -3.595,6.505a18.055,18.055 0 0 1 -2.36,3.365c-2.021,2.243 -4.718,2.691 -7.526,1.682c-6.74,-2.58 -13.48,-5.495 -19.546,-9.309c-3.258,-2.018 -6.403,-4.373 -9.099,-6.953c-4.606,-4.374 -6.628,-9.982 -6.74,-16.374c-0.112,-5.608 0.899,-11.103 2.247,-16.599c0.112,-0.56 0,-1.346 -0.225,-1.794c-2.696,-4.15 -4.718,-8.524 -5.729,-13.346c-1.236,-5.944 -0.899,-11.776 1.236,-17.496c0.674,-1.794 1.572,-3.477 2.359,-5.271l0.898,-1.347c0,0.785 0.113,1.122 0.113,1.458c-0.337,6.617 1.01,12.898 3.482,19.066a45.687,45.687 0 0 0 9.773,15.028c0.562,0.673 0.674,1.122 0.337,1.907c-1.685,5.271 -3.033,10.542 -3.258,16.15c-0.224,8.86 2.921,14.243 11.795,18.393c2.921,1.346 5.954,2.58 8.987,3.813c2.696,1.121 4.83,0.336 6.852,-2.692c4.83,-7.177 9.549,-14.467 14.267,-21.757c0.112,-0.112 0.112,-0.225 0.225,-0.561c-7.077,-5.495 -13.593,-11.44 -17.637,-19.739c0.786,0.673 1.685,1.346 2.471,2.019l2.697,2.019c5.953,4.261 12.58,7.29 19.658,9.533c11.009,3.476 22.354,4.822 33.812,4.598c0.562,0 1.236,-0.112 1.798,-0.449c-1.573,-0.897 -3.258,-1.682 -4.83,-2.58c-6.74,-3.588 -12.807,-8.186 -18.536,-13.345c-4.38,-4.038 -8.425,-8.412 -11.795,-13.346c-1.91,-2.804 -3.707,-5.832 -5.729,-8.524c-2.471,-3.14 -5.392,-5.72 -9.323,-7.066c-5.73,-2.018 -10.672,0.449 -13.256,5.384c-1.01,1.906 -1.46,4.15 -2.134,6.28c-0.113,0.449 -0.225,1.01 -0.45,1.458c-0.112,0 -0.337,0 -0.449,-0.112c0.225,-2.58 0.112,-5.271 0.674,-7.85c0.899,-4.487 3.145,-8.188 6.852,-11.104c5.617,-4.261 12.133,-4.15 17.862,-0.897c5.84,3.253 9.323,8.524 12.132,14.356c1.348,2.803 2.808,5.383 4.268,8.075l0.562,0c0.562,-1.234 1.123,-2.468 1.573,-3.701c1.572,-4.935 0.561,-9.421 -1.798,-13.795c-3.37,-6.169 -8.425,-10.991 -13.817,-15.477c-5.841,-4.935 -11.795,-9.645 -17.524,-14.692c-6.403,-5.72 -12.02,-12.113 -17.3,-18.73c-0.224,-0.336 -0.336,-0.672 -0.449,-1.121c2.135,1.794 4.044,3.589 6.291,5.271c7.19,5.271 14.379,10.542 21.905,15.477c7.864,5.16 15.952,9.645 23.927,14.58c4.718,2.916 8.538,6.729 10.672,12a23.724,23.724 0 0 1 1.685,10.43c-0.45,6.505 -2.584,12.45 -5.841,18.057c-0.562,1.01 -0.562,1.682 0.449,2.467c4.943,3.925 10.335,7.402 16.064,10.094c4.83,2.243 9.773,4.374 14.715,6.28c3.595,1.683 7.639,2.804 12.02,4.15l0,0.001z"/>
  </svg>