<svg xmlns="http://www.w3.org/2000/svg" fill-rule="evenodd" clip-rule="evenodd" image-rendering="optimizeQuality" shape-rendering="geometricPrecision" text-rendering="geometricPrecision" viewBox="-2 1 6600 3300"><g><rect width="6600" height="3300" x="-2" y="1" fill="none"/><g><path fill="#373435" d="M744.58 2545.22l0 404.62 -87.93 0 0 -404.62 -205.18 0 0 -88.49 498.28 0 0 88.49 -205.17 0zm5399.95 157.41c0,77.88 -27.75,144.94 -87.16,195.85 -52.12,44.66 -121,65.18 -188.93,65.18 -67.71,0 -138.26,-21.19 -190.1,-65.86 -59.23,-51.04 -87.14,-117.21 -87.14,-195.17 0,-77.86 29.21,-143.7 88.3,-194.52 52,-44.72 120.89,-66.51 188.94,-66.51 67.5,0 137.02,21.85 188.4,66.53 58.38,50.78 87.69,117.21 87.69,194.5zm-1018.29 158.72l322.52 0 0 88.49 -408.52 0 0 -493.11 86 0 0 404.62zm-261.73 -158.72c0,77.89 -27.75,144.94 -87.16,195.85 -52.12,44.66 -121,65.18 -188.93,65.18 -67.71,0 -138.26,-21.19 -190.1,-65.86 -59.23,-51.04 -87.14,-117.21 -87.14,-195.17 0,-77.85 29.21,-143.7 88.3,-194.52 52,-44.72 120.89,-66.51 188.94,-66.51 67.5,0 137.02,21.85 188.4,66.53 58.38,50.79 87.69,117.21 87.69,194.5zm-935.5 -171.23c-34.08,0 -128.52,4.74 -128.52,56.09 0,20.81 14.26,31.18 32.33,38.25 25.55,9.99 58.17,12.33 85.4,14.2 39.93,2.76 79.25,4.69 118.98,10.3 87.05,12.31 166.25,43.91 166.25,143.84 0,26.93 -5.75,53.08 -19.35,76.5 -43.46,74.82 -146.68,90.44 -225.19,90.44 -94.68,0 -189.89,-18.56 -263.19,-82.32l-5.65 -4.92 48.42 -70.24 6.88 4.64c65.8,44.31 134.6,66.99 214.13,66.99 47.42,0 149.45,-8.89 149.45,-75.83 0,-10.79 -2.01,-21.48 -8.54,-30.32 -12.92,-17.51 -41.54,-23.75 -61.69,-27.13 -39.67,-6.66 -82.65,-8.22 -122.88,-11.16 -56.84,-4.16 -149.1,-11.15 -186.89,-60.42 -16.06,-20.94 -21.16,-46.39 -21.16,-72.29 0,-21.93 4.51,-43.27 14.66,-62.79 38.31,-73.64 137.12,-90.34 211.94,-90.34 86.21,0 169.42,20.01 239.37,72.06l7.05 5.24 -53.67 65.53 -6.13 -3.44c-60.32,-33.8 -122.53,-52.88 -192,-52.88zm-352.63 171.23c0,77.88 -27.75,144.94 -87.16,195.85 -52.12,44.66 -121,65.18 -188.93,65.18 -67.71,0 -138.26,-21.19 -190.09,-65.86 -59.24,-51.04 -87.15,-117.21 -87.15,-195.17 0,-77.86 29.21,-143.7 88.3,-194.52 52,-44.72 120.9,-66.51 188.94,-66.51 67.5,0 137.02,21.85 188.4,66.53 58.39,50.78 87.69,117.21 87.69,194.5zm-1142.95 -129.58l0 376.79 -90.47 0 0 -493.11 103.72 0 327.42 376.76 0 -376.76 90.48 0 0 493.11 -103.1 0 -328.05 -376.79zm-223.93 -30.98l-54.47 69.11 -6.67 -7.27c-50.69,-55.26 -114.98,-73.17 -188.58,-73.17 -72.73,0 -149.96,26.75 -187.24,93.36 -13.41,23.94 -19.85,50.48 -19.85,77.87 0,31.4 7.54,61.8 24.52,88.41 39.9,62.52 116.81,83.47 187.02,83.47 73.37,0 133.68,-18.62 183.87,-73.48l6.66 -7.28 57.04 72.34 -5.17 5.27c-68.77,70.04 -150.23,92.3 -246.85,92.3 -72.55,0 -150.06,-19.68 -207.93,-64.94 -63.41,-49.61 -95.39,-115.65 -95.39,-196.09 0,-80.35 33.63,-145.29 96.65,-194.76 57.77,-45.35 134.03,-65.61 206.67,-65.61 92.44,0 179.25,28.26 244.58,95.21l5.14 5.26zm-1018.42 3.15l0 104.94 244.63 0 0 88.49 -244.63 0 0 122.7 368.09 0 0 88.49 -454.1 0 0 -493.11 437.95 0 0 88.49 -351.94 0zm4864.56 157.41c0,-52.16 -19.09,-95.59 -59.29,-129.09 -35.24,-29.36 -82.56,-42.8 -127.91,-42.8 -102.84,0 -188.35,64.63 -188.35,171.89 0,110.72 82.22,171.88 188.35,171.88 105.76,0 187.2,-61.91 187.2,-171.88zm-1280.02 0c0,-52.17 -19.09,-95.59 -59.29,-129.09 -35.24,-29.36 -82.56,-42.8 -127.91,-42.8 -102.84,0 -188.35,64.63 -188.35,171.89 0,110.72 82.22,171.88 188.35,171.88 105.76,0 187.2,-61.91 187.2,-171.88zm-1288.13 0c0,-52.16 -19.09,-95.59 -59.29,-129.09 -35.24,-29.36 -82.56,-42.8 -127.91,-42.8 -102.84,0 -188.35,64.63 -188.35,171.89 0,110.72 82.22,171.88 188.35,171.88 105.76,0 187.2,-61.91 187.2,-171.88z"/><g><circle cx="3295.89" cy="1296.42" r="886.44" fill="#ed3237"/><path fill="#fefefe" d="M3419.94 921.22l0 1119.63 -66.29 129.06c-2.78,0.19 -5.58,0.35 -8.38,0.51l0 -891.07c0,-20.49 -33.47,-31.04 -49.38,-31.04 -17.35,0 -49.39,8.79 -49.39,31.04l0 891.07c-2.8,-0.15 -5.59,-0.32 -8.38,-0.51l-66.29 -129.06 0 -1119.63 -508.51 0 0 -178.76 1265.14 0 0 178.76 -508.52 0z"/><path fill="#373435" d="M3295.89 2254.52c529.14,0 958.09,-428.96 958.09,-958.1 0,-529.14 -428.95,-958.09 -958.09,-958.09 -529.14,0 -958.09,428.95 -958.09,958.09 0,529.14 428.95,958.1 958.09,958.1zm-23.12 -64.73c506.16,0 916.49,-410.32 916.49,-916.49 0,-506.16 -410.33,-916.49 -916.49,-916.49 -506.16,0 -916.49,410.33 -916.49,916.49 0,506.17 410.33,916.49 916.49,916.49z"/><path fill="#d2d3d5" d="M3272.77 2189.79c121.93,0 238.27,-23.87 344.69,-67.1 -99.7,38.83 -208.14,60.17 -321.57,60.17 -489.57,0 -886.44,-396.87 -886.44,-886.44 0,-489.56 396.87,-886.44 886.44,-886.44 489.56,0 886.44,396.88 886.44,886.44 0,113.44 -21.34,221.88 -60.17,321.57 43.23,-106.4 67.1,-222.75 67.1,-344.69 0,-506.16 -410.33,-916.49 -916.49,-916.49 -506.16,0 -916.49,410.33 -916.49,916.49 0,506.17 410.33,916.49 916.49,916.49z"/><polygon fill="#373435" points="3158.73,934.32 2650.21,934.32 2676.42,908.12 3184.94,908.12"/><polygon fill="#bdbfc1" points="3915.35,755.56 2676.42,755.56 2676.42,908.12 2650.21,934.32 2650.21,729.35 3941.56,729.35"/><polygon fill="#bdbfc1" points="3158.73,2044.02 3158.73,934.32 3184.94,908.12 3184.94,2037.68"/><path fill="#373435" d="M3332.17 1279.35c0,-10.76 -28.63,-17.94 -36.28,-17.94 -8.9,0 -36.29,5.24 -36.29,17.94l0 486.82 0 404.88c-12.33,-0.5 -24.6,-1.26 -36.79,-2.27l-64.08 -124.76 26.21 -6.34 48.46 94.36 0 -227.32 0 -625.37c0,-36.73 49.06,-44.14 62.49,-44.14 9.89,0 39.09,5.3 53.8,21.81l-17.52 22.33z"/><path fill="#bdbfc1" d="M3332.17 2171.05l0 -788.46 0 -103.24 17.52 -22.33c1.91,2.14 3.57,4.46 4.91,6.99 2.38,4.46 3.78,9.55 3.78,15.34l0 852.69 -9.23 38.17c-5.65,0.34 -11.31,0.61 -16.98,0.84z"/><path fill="#373435" d="M3433.04 934.32l0 1109.7 -64.07 124.76c-6.59,0.54 -13.2,1.03 -19.82,1.43l9.23 -38.17 48.46 -94.36 0 -1129.56 508.51 0 0 -152.56 26.21 -26.21 0 135.23 0 69.74 -29.85 0 -478.67 0z"/><path fill="#fefefe" d="M2676.42 755.56l1238.93 0 0 152.56 -508.51 0 0 1129.56 -48.46 94.36 0 -852.69c0,-34.37 -49.06,-44.14 -62.49,-44.14 -13.43,0 -62.49,7.41 -62.49,44.14l0 852.69 -48.46 -94.36 0 -1129.56 -508.52 0 0 -152.56z"/></g></g></g></svg>