<svg  id="fndm-0ke4tysu4q" viewBox="0 0 121.30900573730469 31.621000289916992" xmlns="http://www.w3.org/2000/svg">
   <defs xmlns="http://www.w3.org/2000/svg">
    <linearGradient y2="64.5%" y1="0%" x2="64.6%" x1="0%" id="fndm-uovmd94frw">
     <stop stop-color="#B01D23" offset="0%"/>
     <stop stop-color="#7E0C10" offset="100%"/>
    </linearGradient>
    <linearGradient y2="182.6%" y1="47.9%" x2="89.6%" x1="25%" id="fndm-ys4qib6ldr">
     <stop stop-color="#B01D23" offset="0%"/>
     <stop stop-color="#7E0C10" offset="100%"/>
    </linearGradient>
    <linearGradient y2="146.8%" y1="14.9%" x2="112.3%" x1="-14.2%" id="fndm-b5g4a8e8au">
     <stop stop-color="#B81E24" offset="0%"/>
     <stop stop-color="#97171B" offset="100%"/>
    </linearGradient>
    <linearGradient y2="89.5%" y1="24.9%" x2="121.1%" x1="-76.5%" id="fndm-k4ud610bkh">
     <stop stop-color="#B01D23" offset="0%"/>
     <stop stop-color="#8E1418" offset="100%"/>
    </linearGradient>
    <linearGradient y2="50.1%" y1="50.1%" x2="100%" x1="0%" id="fndm-f6hqyi3ol0">
     <stop stop-color="#CC2128" offset="0%"/>
     <stop stop-color="#FFF" offset="30%"/>
     <stop stop-color="#CC2128" offset="100%"/>
    </linearGradient>
    <linearGradient y2="104.1%" y1="-25%" x2="154.2%" x1="25%" id="fndm-b50xbp6918">
     <stop stop-color="#B81E24" offset="0%"/>
     <stop stop-color="#97171B" offset="100%"/>
    </linearGradient>
    <linearGradient y2="89.5%" y1="24.9%" x2="221.3%" x1="23.4%" id="fndm-pj2u5nnkkr">
     <stop stop-color="#B01D23" offset="0%"/>
     <stop stop-color="#760209" offset="100%"/>
    </linearGradient>
    <linearGradient y2="181.5%" y1="48.5%" x2="89.6%" x1="25%" id="fndm-50p3as59dm">
     <stop stop-color="#CC2128" offset="0%"/>
     <stop stop-color="#A81B20" offset="100%"/>
    </linearGradient>
    <linearGradient y2="48.6%" y1="-84.9%" x2="48.7%" x1="-85.1%" id="fndm-hieyh9kvh2">
     <stop stop-color="#CC2128" offset="0%"/>
     <stop stop-color="#A81B20" offset="100%"/>
    </linearGradient>
    <linearGradient y2="96.6%" y1="-38.4%" x2="146.8%" x1="11.6%" id="fndm-6vr28e1ihe">
     <stop stop-color="#CC2128" offset="0%"/>
     <stop stop-color="#A81B20" offset="100%"/>
    </linearGradient>
    <linearGradient y2="-5.6%" y1="105.6%" x2="95.3%" x1="4.6%" id="fndm-cq3sn598ej">
     <stop stop-color="#CC2128" offset="0%"/>
     <stop stop-color="#FFF" offset="20%"/>
     <stop stop-color="#D35A2A" offset="100%"/>
    </linearGradient>
    <linearGradient y2="50.1%" y1="50.1%" x2="100%" x1="0%" id="fndm-8sxv5aed3l">
     <stop stop-color="#CC2128" offset="0%"/>
     <stop stop-color="#FFF" offset="50%"/>
     <stop stop-color="#CC2128" offset="100%"/>
    </linearGradient>
   </defs>
   <g xmlns="http://www.w3.org/2000/svg" fill-rule="evenodd" fill="none">
    <path d="m16.455,16.455l0,15.166l15.149,-15.166l-15.149,0z" fill="url(#fndm-uovmd94frw)"/>
    <path d="m0,15.166l15.81,-15.166l15.81,15.166l-31.62,0z" fill="url(#fndm-ys4qib6ldr)"/>
    <path d="m0,15.166l15.81,-15.166l0,9.652l-15.81,5.514z" fill="#CC2128"/>
    <path d="m15.81,9.652l0,-9.652l15.81,15.166l-15.81,-5.514z" fill="url(#fndm-b5g4a8e8au)"/>
    <path d="m16.455,16.455l0,15.166l4.953,-10.229l-4.953,-4.937z" fill="url(#fndm-k4ud610bkh)"/>
    <path d="m16.455,16.455l4.953,4.937l10.196,-4.937l-15.149,0z" fill="#CC2128"/>
    <path d="m28.296,17.829l-10.2,0l-1.641,-1.374l1.595,1.595l10.263,0l3.308,-1.595l-3.325,1.374z" fill="url(#fndm-f6hqyi3ol0)"/>
    <path d="m15.183,16.455l0,15.166l-15.149,-15.166l15.149,0z" fill="url(#fndm-b50xbp6918)"/>
    <path d="m15.182,16.455l0,15.166l-4.953,-10.229l4.953,-4.937z" fill="url(#fndm-pj2u5nnkkr)"/>
    <path d="m15.183,16.455l-4.949,4.937l-10.2,-4.937l15.149,0z" fill="#CC2128"/>
    <path transform="translate(3.325 3.054)" d="m12.485,0l-10.619,10.314l21.239,0l-10.62,-10.314z" fill="url(#fndm-50p3as59dm)"/>
    <path transform="translate(3.325 3.054)" d="m14.725,14.996l0,10.28l10.263,-10.28l-10.263,0z" fill="url(#fndm-hieyh9kvh2)"/>
    <path transform="translate(3.325 3.054)" d="m10.263,25.276l0,-10.28l-10.263,0l10.263,10.28z" fill="url(#fndm-6vr28e1ihe)"/>
    <path transform="translate(1.646 3.054)" d="m3.545,10.314l-3.545,1.238l3.461,-1.425l10.704,-10.127l-10.62,10.314z" fill-rule="nonzero" fill="url(#fndm-cq3sn598ej)"/>
    <path d="m3.342,17.829l10.192,0l1.649,-1.374l-1.595,1.595l-10.263,0l-3.291,-1.595l3.308,1.374z" fill="url(#fndm-8sxv5aed3l)"/>
    <path d="m44.887,10.721l4.733,0l0.594,-2.782l-12.723,0l-0.594,2.782l4.733,0l-2.733,12.994l3.257,0l2.733,-12.994zm17.473,-2.782l-11.5,0l-3.327,15.776l11.875,0l0.594,-2.8l-8.669,0l0.848,-4.088l7.634,0l0.577,-2.782l-7.617,0l0.7,-3.325l8.3,0l0.585,-2.781zm13.89,5.157c0.322,-2.324 -0.9,-5.581 -5.581,-5.581c-4.02,0 -7.769,2.816 -8.94,8.329c-1.154,5.445 1.238,8.278 5.395,8.278c3.919,0 6.65,-2.392 8.024,-5.819l-3.274,0a4.333,4.333 0 0 1 -4.088,2.969c-2.765,0 -3.342,-2.545 -2.748,-5.378c0.933,-4.462 3.478,-5.513 5.038,-5.513c2.7,0 2.833,1.781 2.884,2.731l3.29,0l0,-0.016zm9.516,5.819l-0.051,0l-3.88,-10.976l-3.444,0l-3.325,15.776l3.053,0l2.375,-11.264l0.034,0l4,11.264l3.274,0l3.329,-15.776l-3.053,0l-2.312,10.976zm10.216,-10.976l-3.257,0l-3.325,15.776l3.257,0l3.325,-15.776zm-1.339,10.908c-0.407,1.951 -0.136,5.276 5.581,5.276c1.374,0 6.243,-0.424 7.244,-5.174c0.594,-2.833 -1.171,-3.715 -3.206,-4.241l-3.613,-0.95c-0.628,-0.153 -1.561,-0.424 -1.306,-1.646c0.305,-1.425 1.883,-1.883 3.121,-1.883c2.85,0 2.765,1.662 2.7,2.375l3.138,0c0.39,-1.934 -0.237,-5.089 -5.021,-5.089c-5.072,0 -6.667,3.1 -7.04,4.852c-0.729,3.478 1.595,4.037 3.987,4.631l1.595,0.39c1.578,0.39 2.68,0.729 2.426,1.951c-0.356,1.662 -2.154,2.036 -3.7,2.036c-2.85,0 -2.935,-1.662 -2.782,-2.545l-3.121,0l-0.003,0.017zm17.031,1.611l5.768,0l0.322,3.257l3.545,0l-2.188,-15.776l-3.766,0l-8.889,15.776l3.444,0l1.764,-3.257zm4.75,-8.974l0.051,0l0.628,6.243l-3.987,0l3.308,-6.243z" fill="#000"/>
   </g>
  </svg>