<svg  id="fndm-38gp0eheay" viewBox="32.664737701416016 70.2547378540039 535.6742553710938 110.7105484008789" xmlns="http://www.w3.org/2000/svg">
   <g xmlns="http://www.w3.org/2000/svg" fill-rule="evenodd" fill="none">
    <path d="m217.176,97.28l0,6.931l-19.223,0l0,48.52l-7.578,0l0,-48.52l-19.13,0l0,-6.931l45.931,0zm19.024,31.422l0,17.098l33.64,0l0,6.93l-41.218,0l0,-55.45l41.217,0l0,6.931l-33.639,0l0,17.745l29.204,0l0,6.746l-29.204,0zm71.285,25.322c-17.374,0 -29.018,-12.847 -29.018,-28.926c0,-16.265 11.644,-29.019 29.018,-29.019c13.215,0 19.316,7.023 19.316,7.023l-4.344,5.915s-5.822,-5.73 -14.879,-5.73c-12.569,0 -21.348,9.704 -21.348,21.811c0,12.015 8.78,21.719 21.348,21.719c9.334,0 14.879,-5.731 14.879,-5.731l4.344,5.916s-6.193,7.022 -19.316,7.022zm70.563,-1.293l0,-23.844l-31.884,0l0,23.844l-7.579,0l0,-55.451l7.58,0l0,24.768l31.883,0l0,-24.768l7.67,0l0,55.45l-7.67,0l0,0.001zm69.747,0l-39.37,-39.832l0,39.832l-7.579,0l0,-55.451l2.126,0l39.278,39.37l0,-39.37l7.67,0l0,55.45l-2.125,0l0,0.001zm13.409,-27.632c0,-16.266 11.183,-29.02 28.741,-29.02c17.744,0 28.928,12.754 28.928,29.02c0,16.078 -11.184,28.926 -28.928,28.926c-17.558,0 -28.741,-12.848 -28.741,-28.926zm49.905,0c0,-12.108 -8.225,-21.811 -21.164,-21.811c-12.753,0 -20.978,9.703 -20.978,21.81c0,12.015 8.226,21.625 20.978,21.625c12.939,0 21.164,-9.61 21.164,-21.624zm35.789,21.81c9.334,0 13.309,-3.604 13.309,-8.78c0,-4.713 -3.144,-7.116 -14.602,-10.35c-13.308,-3.79 -19.316,-7.856 -19.316,-16.451c0,-9.52 7.763,-15.248 20.794,-15.248c13.862,0 19.962,5.36 19.962,5.36l-4.159,6.284s-5.637,-4.528 -15.803,-4.528c-7.485,0 -12.754,2.866 -12.754,8.04c0,4.158 3.42,6.284 14.602,9.334c14.51,3.973 19.408,8.872 19.408,17.282c0,9.15 -6.47,16.173 -21.348,16.173c-14.325,0 -20.887,-6.746 -20.887,-6.746l4.16,-5.73c-0.002,0 6.099,5.36 16.634,5.36z" fill-rule="nonzero" fill="#000"/>
    <path d="m32.665,125.775c-0.093,-30.57 24.616,-55.43 55.191,-55.52c30.574,-0.094 55.432,24.621 55.521,55.19c0.098,30.575 -24.614,55.43 -55.19,55.52c-30.57,0.096 -55.43,-24.614 -55.522,-55.19z" fill-rule="nonzero" fill="#C41C17"/>
    <path d="m43.059,113.404l0,19.728c2.605,-2.865 6.014,-5.643 10.052,-7.99c11.503,-6.687 23.575,-7.365 26.971,-1.514c2.731,4.69 -0.962,12.152 -8.468,18.372l32.917,0c-7.62,-6.193 -11.414,-13.688 -8.7,-18.418c3.362,-5.87 15.446,-5.268 26.989,1.351c4.085,2.343 7.538,5.127 10.166,8.003l0,-19.532l-89.927,0z" fill="#FFF"/>
   </g>
  </svg>