<svg  id="fndm-dtasidplld" viewBox="0.3092184066772461 0.45999717712402344 947.6536865234375 171.17002868652344" xmlns="http://www.w3.org/2000/svg">
   <g xmlns="http://www.w3.org/2000/svg" fill="none">
    <path d="m676.51,80.51c28.32,-21.51 54.89,-42 81.8,-62c12.91,-9.6 28,-12.27 43.86,-11.53c4.69,0.22 9.61,1.92 11.12,6c1.58,4.24 -3.34,6.71 -6.43,9c-21.69,16.31 -43.31,32.72 -65.31,48.62c-5.21,3.76 -6.07,7.17 -4.43,13.08c5.92,21.37 11.07,43 17,64.33c2.39,8.57 -1.1,13 -8.54,15.45a64.89,64.89 0 0 1 -26.52,2.67c-18.41,-1.74 -23,-6.07 -27.4,-24.06c-4.83,-19.75 -10,-39.42 -15.4,-60.57c-7.76,23.06 -15.31,44.76 -22.3,66.63c-2.64,8.24 -7.85,13.12 -15.8,15.19c-13,3.37 -26.16,4.36 -39.36,1.12c-9.61,-2.35 -12.1,-6.66 -8.94,-16.15c13.62,-40.9 27.333,-81.77 41.14,-122.61c3.31,-9.79 9.89,-14 20.72,-16.09c10.65,-2 20.81,-3.48 31.23,-1.43c13,2.56 15.21,7 11.06,19.55c-5.59,16.93 -11.23,33.85 -17.5,52.8zm-138.51,-47.05c-6,11.22 -8.38,23.73 -12.61,35.58c-2,5.49 2.68,4.18 5.36,4.19c17.3,0.05 34.59,-0.09 51.88,0c5.91,0 13.13,-1.65 13.31,8c0.17,9.15 -6.52,18.4 -14.11,18.5c-19.14,0.25 -38.29,0.31 -57.43,-0.15c-6.56,-0.16 -9.86,1.5 -11.6,8.23c-2.61,10.08 -6.46,19.83 -10.12,30.73c20.11,0 39.42,-0.24 58.72,0.15c5.25,0.1 13.49,-3.74 13.79,6.92c0.3,10.66 -7,20.48 -15.54,20.77c-8,0.26 -16.06,0 -24.08,0c-29.027,0 -58.053,-0.02 -87.08,-0.06c-14,0 -17.08,-4.6 -12.83,-17.78c13.16,-40.72 26.263,-81.477 39.31,-122.27c4.65,-14.44 11.06,-19 26.51,-19.06c35.2,-0.04 70.403,-0.04 105.61,0c10.54,0 12.58,2.75 9.24,12.87c-1.32,4 -2.16,8.44 -6,11.17c-2.13,0.09 -4.56,-0.56 -5.6,2.24a176.94,176.94 0 0 1 -33.35,0.09c-11.11,-3.95 -22.24,-3.72 -33.38,-0.12zm370.87,-28.21c2.77,0 5.55,-0.06 8.33,0c11.26,0.33 15.83,4.14 17,15.23c3.39,31.25 6.52,62.54 9.76,93.82c1.24,11.95 2.31,23.93 3.83,35.85c1,7.5 -2.38,11.55 -9.09,13.9c-11.58,4.05 -23.15,3 -34.54,-0.27c-5.64,-1.64 -9.26,-5.81 -10,-12.1c-0.41,-3.66 -1.3,-7.27 -1.91,-10.92c-3.1,-18.34 -3.1,-18.34 -21.33,-18.34c-11.72,0 -23.46,0.28 -35.16,-0.13c-5.3,-0.19 -8.54,1.63 -11.39,5.93c-5.11,7.69 -10.88,14.95 -16.07,22.59c-7.25,10.67 -17.86,14.64 -30,15.51c-5.05,0.36 -10.39,-0.34 -13.05,-5.18c-2.74,-5 1.52,-8.7 4.3,-12.19a46654.056,46654.056 0 0 1 92.66,-116.49c1.92,-2.41 3.86,-4.81 5.75,-7.24c13.14,-16.85 19.38,-19.9 40.91,-19.97zm-28.67,56.49c-9.44,12.28 -17.51,22.79 -26.66,34.71c10.12,0 18.33,-0.16 26.52,0.07c4.1,0.11 5.41,-1.26 4.71,-5.34c-1.56,-9.04 -2.83,-18.12 -4.57,-29.44zm-489.78,-54.98l63.93,0c9.63,0 11.42,2.34 9.5,11.74c-2.31,11.22 -7,15.19 -18.29,15.27c-8.34,0 -16.7,0.34 -25,-0.19c-6.1,-0.38 -8.56,2.14 -10.35,7.7c-11.43,35.8 -23.43,71.4 -34.86,107.18c-2.43,7.66 -7,12.15 -14.2,14.3c-13.24,3.94 -26.69,5 -40.22,1.62c-9.95,-2.46 -12.5,-7.12 -9.3,-16.81c11.5,-34.81 22.66,-69.74 34.87,-104.31c3.34,-9.47 0.4,-10.12 -7.47,-9.59c-7.69,0.52 -15.44,0.22 -23.15,0.08c-9,-0.16 -10.84,-2.86 -8.08,-11.62c4,-12.64 7.62,-15.38 20.55,-15.39l62.07,0.02z" fill="#343434"/>
    <path d="m260.5,63.64c-3.15,24.38 -15.62,36.43 -38.46,39.91c-30.47,4.65 -60.86,9.83 -91.29,14.76c-6.2,1 -12.29,2.87 -17,6.82c-11.3,9.47 -24.55,13.53 -38.64,16.33c-23.23,4.61 -47,6.31 -69.75,13.67c-5.33,1.74 -5.53,-1.45 -4.66,-5.57c3.58,-16.92 13.72,-25.34 31,-30c22.54,-6.08 45.61,-8.75 68.38,-13.26c10.13,-2 19.59,-5.27 27.36,-12.44s17.76,-9.73 28,-10.66c17.34,-1.59 34.76,-3.74 51.59,-6.74c17.45,-3.17 36.17,-3 53.47,-12.82zm-244.78,42.23c3.77,-27.27 20,-40.74 46.22,-40.49c7,0.06 13.92,-3.18 21,-4.47c11,-2 22,-3.67 33,-5.43c11.19,-1.79 21.18,-6 29.87,-13.51c6.33,-5.49 14.09,-6.57 22.4,-8c9.3,-1.62 18.76,-2.92 28.1,-4.37c12.59,-2 25.26,-3.82 37.85,-5.63c12.38,-1.77 25.26,-2.68 37.16,-7.56c1.87,-0.76 3.64,-2.46 6,-1.56c-2,21 -13.92,33.89 -34.09,37.18a20621.953,20621.953 0 0 0 -98.51,16.24c-3.86,0.65 -8.3,1.68 -11.14,4.1c-17.42,14.83 -38.84,17.44 -60.14,21.1c-19.32,3.29 -38.97,4.78 -57.72,12.4zm82.54,65.76c1.94,-22.48 17.06,-35.08 33.54,-37.18c28.23,-3.58 56,-10 84.59,-11.83c8.46,-0.55 18.1,-2.95 26.23,-8.55c-0.11,20.95 -13,36.24 -32.56,39.13c-30.49,4.53 -61,8.81 -91.47,13.47c-6.81,1.05 -13.49,3.26 -20.33,4.96zm53.35,-171.17c-1.8,24.37 -14.6,36.45 -41.95,40.09c-18,2.39 -36,5.11 -54,7.46c-7.82,1 -15.13,3.91 -22.9,6.27c4,-25.94 15.56,-36.51 43.3,-39.58c20.55,-2.27 40.78,-6.83 61.5,-8.2c4.44,-0.29 8.99,-4.6 14.05,-6.04zm386.39,33c11.14,-3.62 22.27,-3.85 33.39,0.08c-11.13,1.28 -22.26,0.64 -33.39,-0.08zm66.78,0c1,-2.8 3.47,-2.15 5.6,-2.24c-1.12,2.74 -3.3,2.68 -5.6,2.24z" fill="#363636"/>
   </g>
  </svg>