<svg  id="fndm-5x34sdqdju" viewBox="-7.303357278942713e-7 0 265.52008056640625 53.5930061340332" xmlns="http://www.w3.org/2000/svg">
   <path d="m40.587,0.424l-28.297,0c-6.525,0 -11.865,5.34 -11.865,11.866l0,20.022l0.307,-0.103l0.372,-0.125c2.098,-0.703 3.398,-1.507 4.296,-2.521c0.951,-1.075 1.667,-2.634 2.469,-4.659c1.057,-2.673 3.549,-7.825 7.035,-11.906c2.228,-2.609 4.894,-4.818 7.955,-5.855c3.441,-1.166 7.141,-0.893 10.941,1.755c2.216,1.543 4.455,3.947 6.667,7.44c1.548,2.445 2.359,4.868 3.15,7.234c0.882,2.635 1.733,5.178 3.654,6.838c1.217,1.051 3.135,2.25 5.18,3.165l0,-21.285c0,-6.526 -5.339,-11.866 -11.865,-11.866l0.001,0zm-40.162,39.894l0,0.985c0,6.527 5.34,11.866 11.866,11.866l28.296,0c6.393,0 11.647,-5.125 11.858,-11.47a26.138,26.138 0 0 1 -2.936,-1.095c-2.747,-1.21 -5.436,-2.907 -7.213,-4.442c-3.494,-3.02 -4.67,-6.535 -5.889,-10.176c-0.646,-1.93 -1.307,-3.908 -2.376,-5.595c-1.617,-2.554 -3.146,-4.237 -4.58,-5.236c-1.535,-1.07 -2.923,-1.216 -4.149,-0.8c-1.607,0.544 -3.188,1.917 -4.617,3.59c-2.793,3.27 -4.843,7.532 -5.724,9.76c-1.081,2.732 -2.133,4.932 -3.87,6.894c-1.791,2.023 -4.101,3.533 -7.573,4.697l-0.372,0.124c-1.438,0.483 -2.204,0.74 -2.721,0.898z" fill="#043a94"/>
   <path d="m40.586,0.848l-28.296,0a11.408,11.408 0 0 0 -8.08,3.361a11.408,11.408 0 0 0 -3.363,8.081l0,19.435l0.121,-0.041c1.018,-0.341 1.84,-0.706 2.517,-1.108a6.577,6.577 0 0 0 1.597,-1.293c0.45,-0.509 0.848,-1.139 1.23,-1.885c0.386,-0.753 0.761,-1.64 1.16,-2.65c0.62,-1.563 1.725,-3.97 3.232,-6.519c1.091,-1.846 2.394,-3.77 3.877,-5.506c1.196,-1.4 2.518,-2.689 3.96,-3.75c1.298,-0.955 2.693,-1.726 4.18,-2.23c1.856,-0.63 3.788,-0.853 5.772,-0.535c1.82,0.291 3.675,1.037 5.548,2.342c1.158,0.806 2.323,1.844 3.488,3.145c1.103,1.23 2.203,2.695 3.294,4.418a23.566,23.566 0 0 1 1.893,3.711c0.5,1.222 0.903,2.425 1.301,3.614c0.437,1.306 0.867,2.59 1.418,3.737c0.54,1.123 1.2,2.128 2.112,2.916c0.603,0.52 1.387,1.082 2.278,1.626c0.685,0.419 1.43,0.826 2.202,1.196l0,-20.623c0,-3.146 -1.287,-6.007 -3.361,-8.08a11.408,11.408 0 0 0 -8.08,-3.363l0,0.001zm-28.296,-0.848l28.296,0c3.38,0 6.453,1.383 8.68,3.61a12.253,12.253 0 0 1 3.61,8.68l0,21.937l-0.596,-0.266a25.861,25.861 0 0 1 -2.894,-1.522c-0.929,-0.568 -1.752,-1.157 -2.39,-1.709c-1.01,-0.873 -1.735,-1.97 -2.322,-3.191c-0.576,-1.2 -1.013,-2.505 -1.457,-3.833c-0.394,-1.177 -0.793,-2.368 -1.282,-3.56a22.756,22.756 0 0 0 -1.826,-3.583c-1.067,-1.685 -2.138,-3.111 -3.208,-4.305c-1.114,-1.244 -2.23,-2.239 -3.342,-3.013c-1.767,-1.23 -3.504,-1.932 -5.197,-2.203c-1.84,-0.295 -3.637,-0.085 -5.368,0.502c-1.402,0.475 -2.721,1.205 -3.952,2.111c-1.386,1.02 -2.661,2.264 -3.818,3.618c-1.445,1.692 -2.72,3.575 -3.79,5.387c-1.479,2.5 -2.564,4.863 -3.172,6.4c-0.402,1.015 -0.786,1.92 -1.197,2.722c-0.413,0.808 -0.85,1.495 -1.35,2.06a7.412,7.412 0 0 1 -1.799,1.462c-0.723,0.43 -1.6,0.82 -2.679,1.181l-0.372,0.125l-0.307,0.103l-0.558,0.187l0,-20.61c0,-3.38 1.383,-6.453 3.61,-8.68a12.253,12.253 0 0 1 8.68,-3.61zm-11.442,40.629l0,0.674c0,3.146 1.287,6.007 3.361,8.081a11.408,11.408 0 0 0 8.081,3.362l28.296,0c3.078,0 5.881,-1.232 7.943,-3.226a11.422,11.422 0 0 0 3.478,-7.513a28.343,28.343 0 0 1 -2.67,-1.016a32.897,32.897 0 0 1 -3.94,-2.076c-1.29,-0.795 -2.454,-1.636 -3.378,-2.434c-1.794,-1.55 -2.992,-3.226 -3.897,-4.98c-0.897,-1.739 -1.502,-3.544 -2.116,-5.381l0,-0.001c-0.638,-1.906 -1.292,-3.858 -2.333,-5.503c-0.778,-1.228 -1.533,-2.249 -2.264,-3.085c-0.758,-0.866 -1.492,-1.534 -2.2,-2.028c-0.686,-0.477 -1.332,-0.756 -1.94,-0.873a3.534,3.534 0 0 0 -1.832,0.125c-0.71,0.241 -1.422,0.66 -2.12,1.203c-0.8,0.621 -1.577,1.4 -2.312,2.261c-1.156,1.354 -2.184,2.882 -3.051,4.36a40.149,40.149 0 0 0 -2.6,5.282c-0.545,1.377 -1.084,2.623 -1.71,3.78a17,17 0 0 1 -2.238,3.238a14.75,14.75 0 0 1 -3.247,2.748c-1.264,0.794 -2.74,1.476 -4.508,2.07l-0.372,0.124l-1.707,0.572c-0.277,0.091 -0.512,0.168 -0.724,0.236zm-0.848,0.674l0,-1.297l0.3,-0.092c0.226,-0.07 0.547,-0.174 1.007,-0.326c0.68,-0.225 1.131,-0.376 1.704,-0.568l0.372,-0.125c1.703,-0.57 3.119,-1.225 4.326,-1.983a13.918,13.918 0 0 0 3.065,-2.593c0.844,-0.953 1.523,-1.968 2.124,-3.079c0.604,-1.116 1.132,-2.336 1.668,-3.69c0.515,-1.304 1.429,-3.3 2.66,-5.398c0.89,-1.52 1.947,-3.09 3.137,-4.482c0.773,-0.905 1.59,-1.725 2.433,-2.38c0.77,-0.598 1.563,-1.063 2.37,-1.336c0.705,-0.24 1.46,-0.31 2.261,-0.155c0.723,0.14 1.48,0.462 2.265,1.008c0.76,0.53 1.544,1.244 2.352,2.168c0.761,0.87 1.543,1.926 2.344,3.19c1.095,1.73 1.765,3.732 2.419,5.686c0.604,1.805 1.197,3.578 2.066,5.262c0.86,1.667 1.998,3.26 3.699,4.73c0.892,0.77 2.02,1.583 3.27,2.353a32.021,32.021 0 0 0 3.837,2.02c0.494,0.218 0.983,0.418 1.462,0.596c0.46,0.172 0.937,0.334 1.426,0.482l0.31,0.094l-0.01,0.325a12.265,12.265 0 0 1 -3.752,8.416a12.244,12.244 0 0 1 -8.53,3.464l-28.295,0a12.25,12.25 0 0 1 -8.68,-3.61a12.253,12.253 0 0 1 -3.61,-8.68z" fill-rule="nonzero" fill="#173066"/>
   <path d="m61.82,14.467l21.785,0l0,4.895l-8.112,0l0,24.025l-5.54,0l0,-24.025l-8.133,0l0,-4.895zm45.683,4.895l-14.789,0l0,6.41l13.761,0l0,4.869l-13.76,0l0,7.87l15.312,0l0,4.876l-20.847,0l0,-28.92l20.323,0l0,4.895zm10.902,19.15l13.762,0l0,4.875l-19.296,0l0,-28.684l5.534,0l0,23.809zm38.036,-19.15l-14.789,0l0,6.41l13.762,0l0,4.869l-13.762,0l0,7.87l15.313,0l0,4.876l-20.847,0l0,-28.92l20.323,0l0,4.895zm5.234,-4.895l10.96,0c2.17,0 3.791,0.094 4.857,0.29a6.876,6.876 0 0 1 2.86,1.191c0.842,0.606 1.538,1.408 2.1,2.418c0.561,1.003 0.842,2.134 0.842,3.38a7.038,7.038 0 0 1 -1.034,3.73a6.584,6.584 0 0 1 -2.815,2.545c1.666,0.512 2.956,1.387 3.85,2.62c0.9,1.239 1.346,2.693 1.346,4.363a8.986,8.986 0 0 1 -0.868,3.838c-0.58,1.239 -1.372,2.235 -2.374,2.976c-1.003,0.74 -2.24,1.199 -3.715,1.374c-0.92,0.1 -3.147,0.168 -6.677,0.195l-9.332,0l0,-28.92zm5.54,4.814l0,6.687l3.626,0c2.158,0 3.498,-0.034 4.021,-0.101c0.945,-0.115 1.692,-0.458 2.234,-1.03c0.543,-0.573 0.811,-1.327 0.811,-2.263c0,-0.895 -0.23,-1.623 -0.696,-2.181c-0.472,-0.56 -1.168,-0.896 -2.087,-1.01c-0.549,-0.068 -2.125,-0.102 -4.73,-0.102l-3.178,0l-0.001,0zm0,11.501l0,7.73l5.12,0c1.998,0 3.261,-0.054 3.798,-0.175a3.393,3.393 0 0 0 2.01,-1.151c0.517,-0.613 0.779,-1.435 0.779,-2.458c0,-0.869 -0.204,-1.603 -0.6,-2.209c-0.402,-0.606 -0.977,-1.05 -1.73,-1.326s-2.393,-0.41 -4.908,-0.41l-4.468,0l-0.001,-0.001zm22.118,12.605l0,-28.92l11.656,0c2.93,0 5.055,0.263 6.382,0.781c1.328,0.519 2.394,1.441 3.192,2.768c0.798,1.333 1.193,2.848 1.193,4.558c0,2.168 -0.606,3.966 -1.812,5.38c-1.207,1.407 -3.02,2.303 -5.426,2.666c1.2,0.741 2.19,1.55 2.968,2.431c0.779,0.882 1.826,2.444 3.147,4.693l3.351,5.643l-6.619,0l-4.002,-6.296c-1.424,-2.249 -2.394,-3.663 -2.917,-4.249c-0.524,-0.585 -1.079,-0.983 -1.666,-1.205c-0.587,-0.215 -1.513,-0.323 -2.79,-0.323l-1.116,0l0,12.073l-5.54,0l-0.001,0zm5.54,-16.692l4.092,0c2.655,0 4.315,-0.115 4.979,-0.35a3.019,3.019 0 0 0 1.55,-1.226c0.371,-0.579 0.562,-1.3 0.562,-2.168c0,-0.976 -0.248,-1.757 -0.74,-2.357c-0.491,-0.599 -1.187,-0.976 -2.087,-1.138c-0.447,-0.06 -1.794,-0.094 -4.04,-0.094l-4.315,0l0,7.333l-0.001,0zm46.827,16.692l-6.026,0l-2.394,-6.572l-10.96,0l-2.26,6.572l-5.871,0l10.678,-28.92l5.853,0l10.98,28.92zm-10.194,-11.44l-3.78,-10.733l-3.701,10.733l7.48,0l0.001,0zm-6.958,-19.136l2.579,-5.899l5.891,0l-5.144,5.899l-3.326,0zm18.683,21.169l5.387,-0.558c0.32,1.912 0.977,3.312 1.973,4.208c0.99,0.889 2.323,1.34 4.008,1.34c1.781,0 3.128,-0.397 4.028,-1.199c0.906,-0.794 1.36,-1.723 1.36,-2.787c0,-0.687 -0.192,-1.266 -0.575,-1.744c-0.377,-0.485 -1.04,-0.903 -1.992,-1.253c-0.644,-0.242 -2.125,-0.66 -4.43,-1.266c-2.967,-0.774 -5.048,-1.73 -6.242,-2.861c-1.685,-1.59 -2.527,-3.528 -2.527,-5.818c0,-1.474 0.395,-2.848 1.187,-4.134c0.791,-1.28 1.934,-2.256 3.421,-2.93c1.494,-0.666 3.287,-1.002 5.394,-1.002c3.446,0 6.031,0.794 7.774,2.383c1.736,1.596 2.649,3.717 2.738,6.377l-5.534,0.256c-0.236,-1.488 -0.747,-2.559 -1.525,-3.205c-0.779,-0.654 -1.947,-0.977 -3.504,-0.977c-1.609,0 -2.873,0.344 -3.78,1.044c-0.586,0.444 -0.88,1.044 -0.88,1.791c0,0.687 0.274,1.273 0.823,1.757c0.696,0.62 2.394,1.266 5.088,1.933c2.693,0.673 4.685,1.367 5.974,2.08a7.926,7.926 0 0 1 3.032,2.943c0.728,1.246 1.091,2.78 1.091,4.606a8.819,8.819 0 0 1 -1.308,4.652c-0.875,1.448 -2.106,2.525 -3.702,3.226c-1.596,0.707 -3.587,1.057 -5.968,1.057c-3.466,0 -6.128,-0.842 -7.985,-2.532c-1.858,-1.69 -2.968,-4.155 -3.326,-7.387z" fill-rule="nonzero" fill="#043a94"/>
  </svg>