<svg xmlns="http://www.w3.org/2000/svg" fill-rule="evenodd" clip-rule="evenodd" image-rendering="optimizeQuality" shape-rendering="geometricPrecision" text-rendering="geometricPrecision" viewBox="-2 1 6600 3300"><g><rect width="6600" height="3300" x="-2" y="1" fill="#373435"/><path fill="#fefefe" d="M2395.89 606.28l0 294.96c166.86,-0.26 141.19,-307.8 0,-294.96l0 0zm-910.04 1448.63c-64.18,-89.85 -51.34,-153.77 12.83,-153.77 64.18,12.58 64.18,128.1 -12.83,153.77l0 0zm-25.68 589.67l-115.26 -179.44c-128.36,89.59 0,269.03 115.26,179.44l0 0zm615.34 320.38l-179.44 -256.46 89.6 -140.94 -153.78 -243.62 -102.68 115.27 -115.27 -166.61c128.1,-102.69 192.28,-205.11 192.28,-320.38 0,-179.44 -115.52,-269.29 -333.21,-269.29 -307.54,0 -435.9,230.79 -269.29,538.33 -525.49,358.88 -77.02,999.9 435.9,679.52l51.34 64.18 384.55 0 0 0 0 0zm3025.36 -935.72c0,205.11 0,410.23 0,615.34 102.43,-12.84 166.61,-115.27 153.78,-320.38 0,-192.53 -38.26,-294.96 -153.78,-294.96l0 0zm-371.72 -333.47l397.4 0c307.54,25.67 500.07,205.11 500.07,602.5 12.84,384.56 -140.93,615.34 -487.24,666.69l-410.23 0 0 -1269.19 0 0zm-307.54 0l-384.55 0 0 1269.19 653.84 0 0 -333.22 -269.29 0 0 -935.97 0 0 0 0zm-423.06 1269.19l-666.68 0 0 -1269.19 653.84 0 0 307.54 -282.12 0 0 153.77 256.45 0 0 307.54 -256.45 0 0 166.61 294.96 0 0 333.73 0 0zm-1102.58 -1269.19l384.55 0 0 1269.19 -384.55 0 0 -1269.19 0 0zm-692.36 1269.19l384.56 0 0 -474.41 243.62 0 0 -307.54 -243.62 0 0 -179.44 269.29 0 0 -320.38 -653.85 12.84 0 1268.93 0 0 0 0zm2230.84 -1358.78l371.72 0 0 -512.66 166.61 512.66 397.39 0 -256.46 -653.85 256.46 -615.34 -371.72 0 -192.28 474.41 0 -474.41 -371.72 0 0 1269.19 0 0zm-1205.27 -435.9l115.27 0 -64.18 -371.72 -51.09 371.72 0 0zm-2012.63 -833.29l1320.53 0c358.89,0 474.41,551.16 153.78,705.19l140.93 320.38 269.29 -1025.57 397.39 0 128.1 641.01c51.34,-564 320.64,-730.61 769.11,-641.01l0 320.63c-230.78,-89.85 -371.72,25.67 -371.72,320.38 0,307.54 140.94,371.72 371.72,294.96 -12.83,115.26 0,217.95 0,333.21 -282.12,89.85 -512.91,38.51 -666.68,-192.27l38.51 192.27 -371.72 0 -25.67 -166.6 -192.28 0 -25.67 166.6 -589.67 0 -179.44 -474.4 0 474.4 -371.73 0 0 -948.55 -205.11 0 0 948.55 -371.72 0 0 -948.55 -217.95 0 0 -320.63 0 0 0 0z"/></g></svg>