<svg  id="fndm-eduza6pqxm" viewBox="0.05000000447034836 0.6170161366462708 1654.980712890625 776.8130493164062" xmlns="http://www.w3.org/2000/svg">
   <g xmlns="http://www.w3.org/2000/svg" fill="none">
    <path d="m1199,258.21c1,3.13 0.49,6.3 0.24,9.46c-0.06,3.56 -0.13,7.12 -0.19,10.67c-0.91,3.8 0.16,7.69 -0.6,11.49l-0.2,10.72c-0.89,3.78 0.16,7.66 -0.58,11.45l-0.2,11.44c-0.93,3.8 0.16,7.7 -0.6,11.51l-0.2,10.68c-0.91,3.79 0.17,7.69 -0.59,11.49l-0.2,10.7c-0.9,3.78 0.16,7.67 -0.59,11.46c-0.06,3.81 -0.13,7.62 -0.19,11.44c-0.73,2.68 -0.22,5.42 -0.33,8.14c0,0.68 0.15,1.31 1.1,1c6.32,-13.89 14.33,-26.93 20.79,-40.73c6.46,-13.8 14.28,-26.68 20.63,-40.4c6.09,-13.16 13.61,-25.57 19.72,-38.7c3,-6.5 6.3,-12.86 9.62,-19.21a4.13,4.13 0 0 1 4.23,-2.58c47.48,0.06 94.957,0.06 142.43,0c2.14,0 3,0.14 2.3,2.81a54121.436,54121.436 0 0 0 -38.39,139.66a50659.68,50659.68 0 0 1 -19.71,71.54a8.52,8.52 0 0 0 -0.08,2a2.84,2.84 0 0 0 -0.11,2.88c0.15,0.32 0.57,-0.28 0.85,-0.46c8.16,-13 16.317,-26 24.47,-39c5.92,-9.41 11.89,-18.79 17.8,-28.21a34603.01,34603.01 0 0 0 38.31,-61.15c9.73,-15.63 19.1,-31.49 29.06,-47a2433.323,2433.323 0 0 0 25.75,-40.91a4.13,4.13 0 0 1 4,-2.17c44.32,0.06 88.633,0.06 132.94,0c2.28,0 3.1,0.44 3.31,3c3.62,44.54 7.32,89.073 11.1,133.6c3.12,37.3 6.253,74.603 9.4,111.91c0,0.62 -0.09,1.34 0.74,1.61l0,11.81c-1.37,-0.71 -2.85,-0.36 -4.27,-0.36c-32.3,0 -64.6,-0.08 -96.9,0.08c-3.41,0 -4.31,-1 -4,-4.11c0.07,-2.236 0,-4.473 -0.21,-6.7c-0.77,-4.59 0.33,-9.26 -0.59,-13.84c-0.06,-4.093 -0.123,-8.187 -0.19,-12.28c-0.8,-4.6 0.33,-9.29 -0.61,-13.89a10,10 0 0 0 -0.16,-5.1c-1,-0.67 -2,-0.4 -3.07,-0.4l-78.54,0c-1,0 -2.11,-0.24 -3.08,0.36a73265.341,73265.341 0 0 0 -22.13,38.85c-2.83,5 -5.7,9.93 -8.35,15c-0.9,1.72 -2,2 -3.76,2l-171.72,0c-1.94,0 -3.13,0.55 -2.18,-2.81c4.84,-17.27 9,-34.74 13.58,-52.08c4.85,-18.19 10.08,-36.28 15,-54.46c3.59,-13.35 6.8,-26.8 10.34,-40.17c3.76,-14.21 7.69,-28.38 11.57,-42.56c0.85,-3.12 1.78,-6.22 2.67,-9.32a1.61,1.61 0 0 0 0,-2c-0.23,-0.3 -0.51,0.28 -0.81,0.38c-6.61,12.5 -13.25,25 -19.82,37.52c-17.427,33.22 -34.843,66.453 -52.25,99.7c-10.79,20.57 -21.67,41.1 -32.31,61.75c-1.53,3 -3.12,4.15 -6.53,4.13c-24.79,-0.16 -49.57,-0.09 -74.36,-0.07c-1.43,0 -2.86,0.19 -4.3,0.29c-1.67,-1.66 -0.69,-3.61 -0.61,-5.46l0.2,-12.28c0.91,-4.32 -0.16,-8.73 0.59,-13l0.2,-12.26c0.92,-4.32 -0.17,-8.74 0.6,-13.07l0.19,-12.24c0.93,-4.33 -0.17,-8.75 0.6,-13.09c0.17,-4.07 0.6,-8.14 0.18,-12.23c0.94,-4.06 -0.15,-8.23 0.6,-12.31l0.21,-12.3c0.9,-4.31 -0.16,-8.71 0.59,-13c0.073,-4.087 0.14,-8.177 0.2,-12.27c0.91,-4.38 -0.17,-8.79 0.59,-13.12c0.067,-4.08 0.13,-8.163 0.19,-12.25c0.93,-4.32 -0.16,-8.74 0.61,-13.08c0.17,-4.08 0.6,-8.15 0.18,-12.23c0.75,-3.2 0.22,-6.45 0.32,-9.67c0,-0.74 -0.15,-1.63 -1.33,-1.14c-5.48,19.25 -11,38.49 -16.43,57.76a49574.897,49574.897 0 0 0 -32.47,116.35c-2.57,9.22 -5.22,18.42 -7.63,27.68c-0.57,2.17 -1.35,3 -3.67,3c-34.56,-0.067 -69.117,-0.087 -103.67,-0.06a5.83,5.83 0 0 1 -1.11,-0.21c6.16,-13.48 12.59,-26.71 18.35,-40.28c5.107,-12 10.083,-24.067 14.93,-36.2c3.34,-8.43 6.39,-17 9.33,-25.55c8.56,-24.92 15.82,-50.23 22.24,-75.77c3,-12.15 5.43,-24.47 7.82,-36.77c1.85,-9.52 3.34,-19.12 4.78,-28.71c0.72,-4.77 0.92,-9.61 1.44,-14.41c0.29,-2.72 1.71,-3.69 4.64,-3.69c51.333,0.1 102.647,0.123 153.94,0.07c1.45,0 2.9,0 4.35,-0.07zm347.93,56.27l-52.27,86c18.72,0 36.62,-0.09 54.51,0.09c3.31,0 3.82,-1 3.63,-4c-1.4,-21.85 -2.63,-43.71 -3.93,-65.56c-0.33,-5.45 -0.72,-10.9 -1.09,-16.34l-0.85,-0.19z" fill="#0A0B0C"/>
    <path d="m872.25,341.87c-1.37,-9.6 -3.35,-19 -9.17,-27.09c-5.52,-7.63 -13,-12 -22.46,-13.33c-17.34,-2.51 -33.17,3.1 -49.1,8.41c-10.34,3.44 -20.21,8.06 -30.69,12.75c3.69,-21.19 7.29,-41.87 10.9,-62.55c1,-1.36 2.43,-0.67 3.63,-0.68l216.46,0c1.28,0 2.65,-0.43 3.83,0.47a591.317,591.317 0 0 1 -8,53.85a735.42,735.42 0 0 1 -18.06,72.65a772.65,772.65 0 0 1 -55.33,134.87a717.66,717.66 0 0 1 -68.92,107.42c-11.12,14.31 -23,28 -35.33,41.3c-24.42,26.32 -51.24,49.75 -81.4,69.25c-23.67,15.31 -48.81,27.4 -76.48,33.72a152.33,152.33 0 0 1 -25.3,3.84c-1.61,0.55 -3.27,0.15 -4.9,0.27c-4.44,0.25 -8.91,-0.52 -13.33,0.41l-0.79,0c-3.33,-2 -7.23,-0.29 -10.69,-1.66c-0.77,-0.3 -1.79,0 -2.35,-1c0.75,-0.87 1.9,-0.25 2.77,-0.69c1.34,-0.56 2.85,0.15 4.16,-0.57l1.37,-0.15c1.27,-0.74 2.81,0.17 4.07,-0.67a133.62,133.62 0 0 0 34.58,-9.86c20.46,-8.8 38.9,-20.92 56.69,-34.25c19.19,-14.37 36.41,-30.85 52.72,-48.22a313.38,313.38 0 0 0 30.35,-38.41a455.82,455.82 0 0 0 24.81,-41.06c9.13,-17 16.82,-34.65 24.19,-52.49c7,-17 12.69,-34.41 18.4,-51.82c6.75,-20.61 12.27,-41.6 17.64,-62.61c1.67,-6.52 1.73,-13.45 2.56,-20.19c0.5,-4.07 1.06,-8.12 1.59,-12.18c0.75,-1.3 0,-2.81 0.6,-4.13c0.07,-1 0.13,-2 0.2,-3c0.82,-1.84 -0.1,-3.87 0.59,-5.73l0.21,-4.49c0.73,-1.61 0,-3.38 0.57,-5c0.07,-2.54 0.15,-5.07 0.22,-7.6a119.62,119.62 0 0 0 -0.01,-19.59l-0.24,-6c-0.56,-1.39 0.24,-2.89 -0.56,-4.19z" fill="#DC7500"/>
    <path d="m608.6,777.42c4.42,-1.76 9,-0.34 13.5,-0.67c0.22,0.16 0.29,0.32 0.21,0.46c-0.08,0.14 -0.17,0.21 -0.25,0.21l-13.46,0z" fill="#F1C99C"/>
    <path d="m622.05,777.42a3.77,3.77 0 0 1 0,-0.67l4.73,0a3.87,3.87 0 0 0 0,0.68l-4.73,-0.01z" fill="#F8E7D3"/>
    <path d="m345.68,421.96l-9.24,32.71c-0.82,2.9 1.34,2.16 2.72,2.16l109.47,0c-4.36,19.29 -7.55,38.52 -10,57.84c-0.64,5.07 -2.34,5.47 -6.44,5.47c-69.1,-0.053 -138.213,-0.08 -207.34,-0.08l-4.68,0c16.79,-61.51 33.53,-122.82 50.32,-184.34c-1.16,-0.05 -2.16,-0.14 -3.17,-0.14c-24.8,0 -49.6,0.05 -74.4,-0.09c-2.9,0 -4,0.89 -4.71,3.6c-8.53,31.36 -17.2,62.68 -25.81,94c-7.72,28.093 -15.387,56.2 -23,84.32c-0.49,1.81 -0.82,2.68 -2.89,2.68c-32.77,-0.03 -65.46,-0.03 -98.39,-0.03c16.79,-61.54 33.54,-122.89 50.36,-184.52l-88.43,0c4.57,-17.15 9,-34.08 13.58,-51c2.23,-8.29 4.64,-16.53 6.79,-24.83c0.31,-1.22 0.7,-1.5 1.73,-1.49l491.97,0c4.75,0 4.77,0 2.73,4.12a824.631,824.631 0 0 0 -25,55.69c-0.92,2.29 -2,3.31 -4.79,3.3c-36.67,-0.14 -73.35,0 -110,-0.18c-3.49,0 -4.48,1.14 -5.25,4.35c-2.2,9.19 -4.91,18.25 -7.39,27.37a28.84,28.84 0 0 0 -0.49,3.07c-0.47,1.19 -0.33,2.11 1.14,2.28c1.052,0.06 2.108,0.06 3.16,0l103.93,0c1.42,0 2.9,-0.37 4.27,0.36c-6.74,18.15 -12.4,36.63 -17.39,55.32c-0.63,2.35 -1.09,4.74 -1.63,7.12c-1.32,0.92 -2.82,0.45 -4.22,0.45c-34.4,0.04 -68.8,0.057 -103.2,0.05c-1.46,0.1 -2.94,-0.24 -4.31,0.44z" fill="#0A0B0C"/>
    <path d="m476.28,526.52c0.06,-1.26 0.13,-2.52 0.19,-3.78c0.79,-1.57 -0.05,-3.34 0.59,-4.93c0.07,-1.49 0.15,-3 0.22,-4.48c0.67,-1.34 0,-2.87 0.59,-4.23c1.1,-9.43 1.94,-18.9 3.4,-28.28c1.59,-10.3 3.54,-20.55 5.74,-30.74c5,-22.91 10.77,-45.6 17.95,-67.92c6,-18.72 12.51,-37.26 19.89,-55.48c4.48,-11 9.36,-21.87 14.2,-32.74c6.27,-14.09 13.38,-27.75 20.38,-41.46c5.45,-10.68 11.71,-21 17.77,-31.31a670.18,670.18 0 0 1 45,-66.88c7.08,-9.3 14.69,-18.2 22.13,-27.23c12.55,-15.22 26.66,-28.88 40.56,-42.74c8.61,-8.58 18.22,-16.11 27.63,-23.86a313.69,313.69 0 0 1 59.49,-38.59c21.58,-10.77 44.32,-18.44 68.51,-20.6c32,-2.85 61.82,3.4 87.87,23.27c4.89,3.74 9.35,8 14,12.07a3.47,3.47 0 0 1 2.53,2.59c4.75,6.21 9.94,12.07 14.27,18.61c14.37,21.7 23.35,45.6 29.39,70.76c2.81,11.69 4.47,23.58 6.44,35.41c0.62,1.32 -0.14,2.84 0.6,4.14l0.2,3c0.64,1.61 -0.17,3.39 0.58,5l0.22,4.52c-0.24,1.64 -1.55,1.13 -2.48,1.13c-31.87,0 -63.74,0 -95.6,0.08c-2.56,0 -3,-0.94 -3,-3.24c0,-4.72 0.44,-9.46 -0.27,-14.17c-0.07,-1.47 -0.14,-3 -0.2,-4.42c-0.66,-1.63 0.14,-3.42 -0.59,-5c-1.89,-15.1 -5.52,-29.62 -14.76,-42.12c-9.24,-12.5 -21.51,-19.84 -36.91,-21.74c-1.29,-0.16 -2.27,-1.44 -3.69,-0.88c-1.83,-0.85 -3.85,0.09 -5.69,-0.6a60.85,60.85 0 0 0 -11.13,0c-1.91,0.64 -4,-0.19 -5.86,0.56c-11.13,0.73 -21.8,3.58 -32.28,7.19c-26.7,9.19 -50.33,23.79 -72.38,41.18a381.12,381.12 0 0 0 -38.09,34.3c-27.36,28.28 -51.06,59.44 -72.15,92.63a728.94,728.94 0 0 0 -44.2,80.81a782.43,782.43 0 0 0 -47.15,126.82c-5.42,19.89 -10.14,39.89 -13.79,60.17c-2.29,12.57 -4.51,25.21 -5,38c-0.71,1.31 0,2.84 -0.59,4.17c-0.07,1.24 -0.14,2.48 -0.2,3.72c-0.76,1.59 0.07,3.38 -0.6,5c-0.06,1.23 -0.13,2.47 -0.2,3.71c-0.81,2.13 0.13,4.43 -0.58,6.58l-0.21,5.28c-0.86,3 0.16,6 -0.57,9a335.38,335.38 0 0 0 0,34.88c0.71,2.69 -0.27,5.5 0.57,8.18l0.21,4.48c0.63,1.64 -0.13,3.44 0.58,5.08c0,2.24 0.037,4.487 0.11,6.74c0.46,1 0.6,1.75 -0.89,1.685a245.791,245.791 0 0 1 -8.39,-34.005c-1.47,-8.18 -2.78,-16.37 -3.53,-24.64c-0.63,-1.33 0.12,-2.86 -0.6,-4.18c-0.07,-1.51 -0.14,-3 -0.22,-4.53c-0.61,-1.62 0.17,-3.4 -0.56,-5c-0.08,-2 -0.15,-4.06 -0.23,-6.08c-0.7,-2.7 0.27,-5.51 -0.57,-8.19l0,-35.86c0.86,-2.68 -0.15,-5.49 0.59,-8.18c0.07,-2.29 0.13,-4.59 0.2,-6.88c0.76,-1.87 -0.12,-3.9 0.56,-5.78z" fill="#DC7500"/>
    <path d="m1430.16,581.38c-4.19,15.65 -7.39,31.53 -11,47.3c-1.57,6.81 -2.68,13.79 -7.78,19.25c-3.68,4 -8.37,5.38 -13.4,6.29c-7.2,1.31 -14.06,-0.09 -20.55,-3c-3.94,-1.79 -4.25,-7.88 -0.8,-10.28c1.43,-1 2,0.35 2.84,1.16c5.65,5.57 14.13,6.92 20.56,3.26c6,-3.44 7.55,-9.61 8.85,-15.68c0.38,-1.74 -1.5,-1.19 -2.53,-0.71a27.09,27.09 0 0 1 -12.3,2.64a15.81,15.81 0 0 1 -15,-13.81a33.62,33.62 0 0 1 5.53,-23.74a26.23,26.23 0 0 1 19.73,-12c3.13,-0.37 6.26,-0.69 9.4,-1c5.44,-0.22 10.97,-1 16.45,0.32zm-422.64,16.46c-2,8.47 -4.35,16.87 -5.71,25.43c-0.91,5.78 -5.25,6.56 -9.1,7.41a52.69,52.69 0 0 1 -22,0.25c-9.55,-2 -16.65,-9.27 -18.38,-19.36c-2.83,-16.54 2.31,-30.28 14.46,-41.46c5.84,-5.37 13.28,-7.2 21,-8.14c2.35,-0.39 4.75,-0.39 7.1,0c4.63,1.16 9.39,1.8 13.72,4c2,1.06 2.79,2.36 1.89,4.55c-0.39,0.94 -0.6,2 -0.9,2.93c-1.2,3.92 -1.64,4.09 -4.64,1.28c-3.19,-3 -7.11,-3.66 -11.19,-4a7.36,7.36 0 0 0 -4.66,0c-9.76,0.45 -16.32,5.88 -21.19,13.8c-2.6,4.22 -4.56,8.72 -4.74,13.81c-0.76,1.29 0,2.8 -0.6,4.11c-1.25,7.24 3.2,17 10.13,19.15a9.74,9.74 0 0 0 3.75,0.73c1.33,0.7 2.84,0 4.18,0.57l2.41,0c1.34,-0.59 2.87,0.12 4.2,-0.58c2.5,-0.35 4.05,-0.87 4.89,-4.15c1.75,-6.83 2.37,-13.87 4.37,-20.62c3.66,-0.19 7.35,-0.65 11.01,0.29zm131.53,14.51l0,0.06c0.66,-1.4 0,-3 0.61,-4.37c3,-15.82 11.5,-25.25 31,-27.05c6.58,-0.22 13.16,-0.85 19.72,0.31c-3.39,16.29 -7.41,32.44 -10.24,48.84c-1.89,1 -4.06,-0.07 -6,0.79a5.36,5.36 0 0 0 -3.22,0c-1.7,-0.36 0.65,-3.22 -1.89,-3.07a24.36,24.36 0 0 1 -17.54,2.59c-7.26,-1.64 -10.27,-7.05 -11.83,-13.68c-0.61,-1.44 0.03,-3.03 -0.61,-4.42zm512.74,-31.12c-1.72,7.54 -3.54,15.06 -5.12,22.63c-1.83,8.73 -3.45,17.5 -5.16,26.25c-1.87,1.08 -4,-0.06 -6,0.82c-1.35,-0.9 -4.07,1.14 -4.35,-2.38c-0.13,-1.73 -1.67,-0.33 -2.44,0c-5.49,2.45 -11,3.24 -16.91,1.41c-7,-2.17 -9.58,-7.54 -10.81,-14a21.42,21.42 0 0 1 0.05,-7.13c3,-16.61 11.58,-26.18 31,-27.84c6.58,-0.26 13.17,-0.75 19.74,0.24zm-11.27,7.05c-2.93,0 -5.56,-0.22 -8.15,0.03c-12.405,1.103 -21.678,11.88 -20.92,24.31c0.31,4.93 3.2,9.02 7.31,10.26c4.88,1.46 12.13,-0.35 14.61,-3.71a4.81,4.81 0 0 0 0.8,-1.77c2.12,-9.61 4.2,-19.22 6.35,-29.12zm-443.94,18.97a32.56,32.56 0 0 1 10.58,-21.94c3.35,-3.09 7.53,-4.13 11.75,-5.14c1.39,-0.53 2.93,0.08 4.3,-0.56l0.08,0c1.64,0.72 3.45,0 5.1,0.59c6.49,2 11.89,5 13.83,12.25c3.43,12.75 -3.67,34.67 -18.66,38c-5.51,1.24 -11,1.83 -16.28,0.11c-6.46,-2.1 -10,-7 -10.7,-13.88a39.48,39.48 0 0 1 0,-9.43zm128.24,-0.79a36.31,36.31 0 0 1 7.18,-17.76c3.82,-5.11 8.94,-7.31 14.88,-8.35c1.53,-0.27 3.07,-0.5 4.61,-0.74c1.65,0.73 3.49,-0.09 5.13,0.62c2.73,1.41 5.85,1.85 8.33,4c3.71,3.21 5.14,7.41 6.06,11.94a16.34,16.34 0 0 1 0,6.31c-1.1,6.83 -3,13.32 -7,19.15c-4.66,6.83 -11.44,9.43 -19.2,9.91c-5.94,0.37 -11.68,-0.26 -16.21,-5.08c-2.45,-2.62 -3.23,-5.67 -3.82,-8.94c-0.56,-1.38 0.08,-2.92 -0.57,-4.29l0,-2.41c0.68,-1.4 0.08,-2.96 0.61,-4.36zm-298.37,8.21c1,5.2 4.41,8.06 10.16,8.47c2.47,0.55 5.03,0.55 7.5,0c3.91,0.3 6.55,-2.6 9.77,-4c0.82,-0.35 1.51,-1.13 2.33,-0.53c0.82,0.6 -0.25,1.34 -0.39,2c-1.9,9.29 -2.13,8.53 -14.74,10.82c-4.33,0.79 -8.8,0 -13.25,-1.33c-7,-2.15 -10.9,-8.88 -11.4,-15.53c-0.57,-7.64 0.23,-15 4.19,-21.79c4.3,-7.4 10.41,-11.83 19.08,-12.49a31.65,31.65 0 0 0 3.82,-0.71c1.4,0.66 3,0 4.39,0.61c5.45,1.64 10.51,3.94 12.61,9.76c1.31,3.64 2.19,7.42 1,11.41c-0.44,1.44 -0.15,3.11 -0.19,4.68c-0.89,1.5 -2.33,0.69 -3.5,0.74c-7.13,0.29 -14.27,-0.42 -21.39,0.39a28.35,28.35 0 0 0 -9.85,0.27a15.2,15.2 0 0 0 -0.14,7.23zm290.52,7.86c-0.78,2.51 -1.55,5 -2.33,7.54c-1.58,1 -3.31,0.43 -5,0.48c-9.29,0.27 -18.6,-0.42 -27.89,0.38c-5.94,-0.57 -5.71,-0.52 -4.45,-6.7c2.54,-12.48 5.76,-24.81 8.25,-37.31c1.44,-7.21 3.32,-14.36 4.72,-21.6a2.19,2.19 0 0 1 2.35,-2.07c0.133,0.01 0.267,0.01 0.4,0c9.63,-1.15 9.65,-1.15 7.38,8.44c-4,16.73 -8.21,33.39 -11.66,50.46l14,0c4.8,-0.17 9.54,-0.91 14.23,0.38zm-219.98,-42.29c2.16,0.77 4.31,1.57 6.49,2.3c2,0.66 2.5,1.67 1.82,3.84c-1.71,5.41 -1.57,5.44 -6.46,2.69a15.23,15.23 0 0 0 -14,-1a5.63,5.63 0 0 0 -3.7,4.58c-0.39,2.35 0.07,4.58 2.25,5.83a97.81,97.81 0 0 0 9,4.49c4.79,2.11 8.21,5.37 9.55,10.56a6.92,6.92 0 0 1 0,3.93c-2.29,10.59 -12.07,14.64 -20.47,14.27c-4.53,-0.2 -8.9,-0.39 -13.32,-2.27c-4.1,-1.74 -4.55,-4 -3.38,-7.48c0.31,-0.92 0.77,-1.8 1.29,-3c4,2.53 7.73,5.64 12.88,6a13.94,13.94 0 0 0 10.6,-3.47c3.74,-3.31 1.47,-9.08 -4.09,-11.4c-4.63,-1.94 -9.71,-3.49 -12.5,-8a14.29,14.29 0 0 1 8.1,-21c1.35,-0.42 2.77,-0.65 4.15,-1c1.66,-0.63 3.47,0.14 5.11,-0.59l0.89,0c1.85,0.89 3.9,-0.06 5.79,0.72zm396.72,38.06c-2.86,9.61 -11.05,13.58 -20.25,13.5c-5.85,-0.06 -11.58,-0.43 -16.57,-4a2.59,2.59 0 0 1 -0.64,-3.16c0.45,-1.72 0.89,-3.45 1.37,-5.27c1.59,0 2.62,1.25 3.89,2.1c5.46,3.63 11,5.23 17.38,1.81a7.86,7.86 0 0 0 4.38,-6.63c0.25,-2.91 -2.2,-4.34 -4.62,-5.51s-4.92,-3 -7.57,-3.91c-5.67,-2 -8.69,-7.28 -8.3,-14.62c0.24,-4.5 5.44,-10 10.8,-11.45c1.13,-0.31 2.25,-0.65 3.38,-1c1.66,-0.64 3.49,0.13 5.14,-0.6a1.22,1.22 0 0 0 1.53,0c1.66,0.75 3.52,0 5.18,0.64c1.24,0.39 2.49,0.71 3.7,1.17c6.77,2.65 5.24,1.86 3.79,8c-0.48,2 -1.45,2.45 -3.3,1a17.25,17.25 0 0 0 -14.59,-3.08c-2.94,0.62 -4.92,2.29 -5.41,5.33c-0.53,3.25 0.83,5.47 3.9,6.8c2.62,1.13 5.08,2.63 7.7,3.75a15.84,15.84 0 0 1 9.13,9.55a13.46,13.46 0 0 1 -0.02,5.58zm91.25,-38.69c0.28,0.31 0.56,0.33 0.83,0c1.65,0.73 3.48,0 5.14,0.61c1.95,1 4.2,1.14 6,2.44c1.11,0.78 3,0.55 2,3c-0.76,2 -0.64,4.85 -2.22,6c-1.41,1 -3,-1.76 -4.89,-2.17a16.08,16.08 0 0 1 -3,-1.34a15.72,15.72 0 0 0 -6.86,0c-7,1.23 -13.47,9.12 -14.09,17.27a19.53,19.53 0 0 0 0,7.73c0.3,7.88 9.78,12.8 17.67,10c2.35,-0.83 4,-4.32 6.81,-2.59c1.32,0.81 -3.53,8.74 -6,9.77c-7.5,3.16 -19,1 -24.27,-4.95c-4.47,-5.08 -6,-11.07 -5.3,-18a37.88,37.88 0 0 1 5.68,-16.38c4,-6.41 10.25,-9.36 17.37,-10.85c1.68,-0.61 3.49,0.19 5.13,-0.54zm-473.68,8.52c0.38,-6.17 0.56,-6.4 7,-6.93c1.28,-0.1 2,-0.36 2,-1.73c0,-2.7 1.69,-4.94 1.71,-7.72c0,-4.13 4,-3.76 6.56,-4.54c5.37,-1.61 5.46,-1.46 4,4c-0.84,3.13 -3.16,7 -1.79,9.24s5.82,0.36 8.9,0.67c0.312,0.067 0.62,0.154 0.92,0.26c-0.54,2.22 -1.077,4.447 -1.61,6.68c-3.44,1.42 -7.12,-0.14 -10.59,0.85c-2.25,9.15 -5,18.19 -6,27.61a7.31,7.31 0 0 0 0.06,5a1.82,1.82 0 0 0 2.13,1.63a5.81,5.81 0 0 0 4.28,-0.06c1.08,0.53 1.88,-1.42 2.75,-0.5c0.71,0.75 0,1.89 -0.1,2.88c-0.39,3.21 -1.86,5.16 -5.11,5.64a17.11,17.11 0 0 1 -6.3,0c-7.28,-1.17 -10.49,-6.29 -8.66,-14.39c2,-8.68 4.22,-17.28 6.34,-25.92c0.68,-1.52 0.1,-2.12 -1.48,-2.22c-1.58,-0.1 -3.46,0.48 -5.01,-0.45zm400.51,42.99c-5.69,-1 -8.77,-4.24 -8.66,-9.2c0.74,-1.66 0,-3.51 0.62,-5.18c1.887,-8.407 3.783,-16.82 5.69,-25.24c0.84,-1.92 0.41,-2.88 -1.88,-2.92c-1.47,0 -3.08,0.62 -4.42,-0.54c0.5,-6.25 0.5,-6.29 7,-6.84c1.28,-0.11 1.67,-0.34 1.82,-1.76c0.18,-1.7 1.65,-3.36 1.55,-5c-0.3,-4.68 2,-6.26 6.24,-7.12c6.18,-1.27 6.13,-1.54 4.54,4.4c-0.1,0.37 -0.43,0.68 -0.53,1c-2.12,8.07 -2.11,8.1 6.16,8.29c1.93,0 3.18,0.09 1.93,2.57a19.8,19.8 0 0 0 -1.1,4.49c-3.42,1.21 -7,-0.17 -10.48,0.79c-2.3,9.72 -4.68,19.42 -6.82,29.17c-0.48,2.17 -0.06,4.51 2.9,5a5.68,5.68 0 0 0 4.25,0c1,0.53 1.84,-1.47 2.73,-0.46c0.69,0.78 0.26,1.95 0.08,3c-0.53,3.06 -2.13,5 -5.31,5.48a17,17 0 0 1 -6.31,0.07zm-74.82,-0.2c-3.19,0 -4.51,-0.42 -3.41,-4.54c3.27,-12.28 5.75,-24.77 8.57,-37.17c1.61,-7 1.68,-6.8 8.81,-8.23c3.32,-0.67 4.17,-0.6 3.11,3.07c-4.07,14 -6.25,28.42 -9.5,42.6a16.33,16.33 0 0 0 -0.16,3.14c-2.24,1.92 -5.07,-0.05 -7.42,1.13zm97.32,0.01c-5,-0.4 -5.08,-0.41 -4,-5.4c2.57,-11.41 5.23,-22.81 7.67,-34.25c0.31,-1.46 0.93,-3.13 0.77,-4.4c-0.65,-5.06 2.65,-5.37 6.11,-5.7c6.36,-0.59 6.46,-0.55 4.8,5.7c-3.58,13.53 -6.33,27.24 -8.73,41a17,17 0 0 1 -0.69,2.24c-1.85,1.02 -4.01,-0.06 -5.93,0.81z" fill="#0A0B0C"/>
    <path d="m1162.63,570.8c-2.32,-0.16 -3.52,2.13 -5.58,2.55c-1.62,-6.39 3.14,-11.46 10.09,-10.76a14.43,14.43 0 0 1 6.65,2c4.53,3 8.83,2.64 12.94,-0.81c0.59,-0.5 1.21,-1.28 2,-0.59c0.32,0.3 0.17,1.21 0.1,1.82a11,11 0 0 1 -15.87,8.48c-1.78,-0.88 -3.54,-1.81 -5.3,-2.72a7.37,7.37 0 0 0 -5.03,0.03z" fill="#0B0C0D"/>
    <path d="m995.65,259.84c-32.133,-0.073 -64.267,-0.137 -96.4,-0.19c-40.82,-0.06 -81.647,-0.1 -122.48,-0.12c-1.69,0 -3.43,-0.34 -5,0.53c0.74,-1.64 2.24,-1.1 3.47,-1.1l217.2,0c1.1,0 2.39,-0.37 3.21,0.88z" fill="#FCFCFC"/>
    <path d="m1464.84,561.24c-4.06,3.45 -7.3,7.63 -10.6,11.76c-1.22,1.53 -2.4,3 -4.7,2.49c-1.52,-1 -3.63,0.62 -5,-1.13c2.88,-4.913 5.763,-9.823 8.65,-14.73c3.38,-0.59 6.79,-0.18 10.19,-0.24c1.15,-0.03 2.79,-0.15 1.46,1.85z" fill="#0B0C0D"/>
    <path d="m1556.18,560.52a3,3 0 0 0 -0.45,0.65c-2.37,7.38 -3,7.8 -11,8c-2,0 -2.82,-0.41 -1.63,-2.4a3.3,3.3 0 0 0 0.41,-1.08c1.24,-6.62 1.24,-6.62 7.81,-7.62c1.79,0.53 5.46,-2.63 4.86,2.45z" fill="#0C0D0E"/>
    <path d="m895.23,164.4c1,4.55 0.62,9.17 0.56,13.76c0,2.38 0.31,3.47 3.13,3.46c31.52,-0.1 63,-0.06 94.55,-0.08c1.09,0 2.44,0.52 3.14,-0.94c0.49,0.66 0.49,1.28 -0.4,1.44a15.7,15.7 0 0 1 -2.75,0.12c-31.33,0 -62.66,0 -94,0.09c-3.5,0 -4.64,-0.93 -4.4,-4.43c0.33,-4.45 0.14,-8.94 0.17,-13.42zm-418.83,194.28c-1.51,-0.72 -3.12,-0.36 -4.67,-0.37c-35.02,0 -70.043,-0.033 -105.07,-0.1c-1,0 -4.62,1.86 -2.76,-2.23c0.52,2.87 2.83,1.85 4.44,1.86c34.827,0.053 69.653,0.053 104.48,0c1.17,0 2.34,0.09 3.51,0.15c0.07,0 0.18,0.18 0.19,0.28a1.33,1.33 0 0 1 -0.12,0.41zm-130.72,63.28c1.25,-1.12 2.77,-0.53 4.14,-0.53c34.28,-0.04 68.56,-0.04 102.84,0c1.58,0 3.15,-0.18 4.72,-0.27c-0.81,1.25 -2.1,0.88 -3.23,0.88l-108.47,-0.08zm1117.72,41.96c0.61,-1.05 1.64,-0.64 2.48,-0.64l79.84,0c0.79,0 1.89,-0.59 2.37,0.67l-84.69,-0.03zm-181.62,167.01c7.67,-1.13 15.39,-0.34 23.08,-0.58l9.78,-0.28c-0.8,1.27 -2.09,0.9 -3.22,0.91c-9.88,0 -19.76,-0.017 -29.64,-0.05zm-245.38,-23.75c6.77,-0.82 13.57,-0.12 20.35,-0.36c1.55,0 3.17,0.33 4.54,-0.77c-0.66,1.7 -2.16,1.17 -3.37,1.18c-7.17,0.02 -14.35,-0.03 -21.52,-0.05zm153.94,-25.88l-19.72,-0.31c6.59,-0.93 13.17,-1.5 19.72,0.31zm461.51,-0.07l-19.74,-0.24c6.59,-0.93 13.18,-1.39 19.74,0.24zm-778.8,-229.17a69,69 0 0 1 0,19.67l0,-19.67zm557.11,229.32c-5.49,-0.8 -11,0 -16.52,-0.4c5.53,-0.83 11.06,-1.63 16.52,0.4zm34.68,-20.14c0.63,-1.51 -0.14,-1.76 -1.45,-1.73c-3.39,0.09 -6.78,0.09 -10.17,0.12c3.63,-1.45 7.42,-0.53 11.12,-0.57c1.62,0 2.13,1 0.5,2.18zm-147.87,61.29c-4.69,-1 -9.45,0.13 -14.15,-0.39c4.74,-0.84 9.48,-1.57 14.15,0.39zm232.08,-127.3c0.85,4.59 0.65,9.22 0.59,13.84c-1.45,-4.56 -0.35,-9.23 -0.59,-13.84zm-0.8,-26.17c0.91,4.6 0.64,9.25 0.61,13.89c-1.47,-4.57 -0.34,-9.26 -0.61,-13.89zm-429.2,-5.09c0,4.37 0.28,8.74 -0.6,13.07c0.21,-4.35 -0.82,-8.77 0.6,-13.07zm0.77,-25.33c0,4.37 0.31,8.76 -0.6,13.09c0.24,-4.36 -0.8,-8.78 0.6,-13.09zm1.58,-49.87c0.06,4.35 0.24,8.71 -0.58,13c0.23,-4.31 -0.77,-8.71 0.58,-13zm0.79,-25.33c0,4.36 0.27,8.73 -0.59,13.06c0.22,-4.35 -0.8,-8.76 0.59,-13.06zm0.8,-25.33c0,4.37 0.29,8.75 -0.6,13.08c0.23,-4.36 -0.81,-8.77 0.6,-13.08zm-4.76,151.19c0,4.36 0.26,8.72 -0.58,13c0.2,-4.3 -0.8,-8.7 0.58,-13zm2.37,-75.24c0,4.12 0.32,8.24 -0.6,12.31c0.26,-4.06 -0.83,-8.22 0.6,-12.31zm1.56,-99c1.31,-1.16 1.77,-0.58 1.69,0.87c-0.2,3.31 0.23,6.67 -0.68,9.94c-0.59,-3.57 1.01,-7.35 -1.01,-10.81zm73.71,84.77c-0.23,0.44 -0.37,1.16 -0.69,1.25c-1.12,0.32 -0.79,-0.67 -0.76,-1.15c0.22,-3.08 -0.27,-6.21 0.68,-9.24c0.48,3.03 -0.76,6.2 0.77,9.14zm-0.58,-20.58c-0.06,-3.83 -0.25,-7.67 0.59,-11.46c-0.18,3.82 0.78,7.7 -0.59,11.46zm0.76,-22.19c0,-3.84 -0.28,-7.69 0.59,-11.49c-0.17,3.86 0.81,7.75 -0.59,11.49zm0.82,-22.14c0,-3.85 -0.31,-7.71 0.6,-11.51c-0.22,3.84 0.78,7.74 -0.6,11.51zm-189.35,262.92l-11,-0.26c3.66,-0.92 7.35,-1.32 11,0.26zm190.15,-285.87c-0.07,-3.83 -0.25,-7.66 0.58,-11.45c-0.2,3.82 0.8,7.69 -0.58,11.45zm0.78,-22.17c0,-3.84 -0.27,-7.69 0.6,-11.48c-0.2,3.82 0.78,7.74 -0.6,11.48zm-70.14,299.12c3.42,-1.66 7.14,0.43 10.59,-0.85c-3.4,1.99 -7.06,0.56 -10.59,0.85zm391.96,0.02c3.38,-1.69 7,0.33 10.48,-0.79c-3.38,1.83 -6.99,0.5 -10.48,0.79zm-17.13,-0.88c1.38,0.66 2.84,0.34 4.25,0.22c2.88,-0.23 3.65,0.72 2.05,3.24c0.09,-1.75 -0.65,-2.53 -2.49,-2.51c-1.3,-0.01 -2.9,0.63 -3.81,-0.95zm-306.56,19.19l0,9.47a14.76,14.76 0 0 1 0,-9.47zm2.66,-339.61l-0.24,-9.46c1.57,3.12 1.18,6.28 0.24,9.46zm158.91,208.98a3.91,3.91 0 0 1 -2.22,3.26a12.34,12.34 0 0 1 1.48,-5.68c0.06,0.86 -0.14,1.86 0.74,2.42zm-246.87,111.51c1.7,0 3.4,0.19 5.1,0.13c2.45,-0.09 2.32,1 1.27,2.56c-0.18,-1.81 -1.5,-1.75 -2.84,-1.81c-1.34,-0.06 -2.63,0.49 -3.53,-0.88zm-622.86,20.66c0,-3 -0.34,-6 0.57,-9c-0.15,3.03 0.76,6.09 -0.57,9zm-12.93,-69.61c0.05,2.74 0.27,5.5 -0.59,8.18c0.15,-2.73 -0.8,-5.54 0.59,-8.18zm1080.69,21.34c0.53,-5 -3.26,-1.55 -4.81,-2.49a4.55,4.55 0 0 1 5,-0.15c0.93,0.54 0.68,1.81 -0.19,2.64zm-1067.19,91.33c-0.84,-2.68 -0.62,-5.44 -0.57,-8.18c1.36,2.64 0.4,5.45 0.57,8.18zm-14.09,-68.66c0.86,2.68 0.62,5.44 0.57,8.19c-1.35,-2.65 -0.42,-5.46 -0.57,-8.19zm1092.99,29.96a10.58,10.58 0 0 1 0,-7.73l0,7.73zm33.16,-4.32l0,7.1a8.47,8.47 0 0 1 0,-7.1z" fill="#FCFCFC"/>
    <path d="m1044.11,623.12a11,11 0 0 1 -7.5,0l7.5,0z" fill="#FDFDFD"/>
    <path d="m994.87,561.98l-7.1,0a8.54,8.54 0 0 1 7.1,0z" fill="#FCFCFC"/>
    <path d="m1026.45,614.67a8.67,8.67 0 0 1 0.1,-7.22c-0.03,2.41 -0.06,4.81 -0.1,7.22z" fill="#FDFDFD"/>
    <path d="m1436.97,630.92c2.38,-1 5.08,0.14 7.42,-1.13c-2.15,2.5 -4.96,0.66 -7.42,1.13z" fill="#FCFCFC"/>
    <path d="m489.05,669.83c0.71,-0.34 0.74,-1 0.89,-1.68c1.19,1.58 0.84,3.32 0.54,5.69l-1.43,-4.01z" fill="#E59A46"/>
    <path d="m1511.79,631.12l6.31,0a6.74,6.74 0 0 1 -6.31,0zm70.2,-42.97a8.18,8.18 0 0 1 6.86,0l-6.86,0zm-1092.79,6.4c-0.07,-2.22 -0.25,-4.45 0.58,-6.58c-0.14,2.19 0.75,4.49 -0.58,6.58zm630.77,36.58l6.3,0a6.72,6.72 0 0 1 -6.3,0zm251.08,-28.66l0,-6.31a6.69,6.69 0 0 1 0,6.31zm-274.06,-22.23l-5.86,-0.63c1.92,0.14 4.03,-0.75 5.86,0.63zm-280.55,-489.99c1.89,-0.8 3.88,-0.63 5.86,-0.56c-1.85,1.27 -3.9,0.44 -5.86,0.56zm677.27,528.05l0,-5.51a5.46,5.46 0 0 1 0,5.51zm-1017.43,-91.78a14.34,14.34 0 0 1 -0.59,5.78c0.13,-1.93 -0.7,-3.97 0.59,-5.78zm641.16,-11.89c0.44,1.79 -0.48,3.74 0.61,5.46c-2.24,-1.59 -1.38,-3.53 -0.61,-5.46zm416.85,116.3l6,-0.78c-1.84,1.61 -4,0.55 -6,0.78zm-662.24,-242.15c0.242,1.93 0.04,3.89 -0.59,5.73c0.15,-1.91 -0.68,-3.93 0.59,-5.73zm763.56,242.15l6,-0.82c-1.83,1.69 -4.01,0.57 -6,0.82zm-802.18,-541.25c1.93,-0.1 3.87,-0.34 5.69,0.6c-1.9,-0.16 -3.91,0.67 -5.69,-0.6z" fill="#FCFCFC"/>
    <path d="m1307.62,316.77a3.14,3.14 0 0 1 1.53,-2.39a4.62,4.62 0 0 1 -0.76,4l-0.77,-1.61z" fill="#BDBEBE"/>
    <path d="m1174.13,630.93l6,-0.79c-1.84,1.63 -4.01,0.56 -6,0.79zm410.83,-51.32a14.21,14.21 0 0 1 -5.1,0.6c1.58,-1.27 3.39,-0.5 5.1,-0.6zm-1109.26,17.85a10,10 0 0 1 0.56,5c-1.21,-1.55 -0.47,-3.33 -0.56,-5zm1115.23,-17.25l-5.14,-0.61c1.72,0.13 3.55,-0.67 5.14,0.61zm-696.49,-425.27c0.84,1.6 0.65,3.33 0.59,5c-1.25,-1.52 -0.49,-3.31 -0.59,-5zm-404.66,506.47c-0.81,-1.62 -0.66,-3.36 -0.58,-5.08c1.24,1.57 0.48,3.38 0.58,5.08zm999.03,-81.18a13.39,13.39 0 0 1 -5.18,-0.64c1.74,0.16 3.59,-0.68 5.18,0.64zm-6.71,-0.63a14.2,14.2 0 0 1 -5.14,0.6c1.59,-1.26 3.42,-0.48 5.14,-0.6zm-485.71,-403.54a10,10 0 0 1 -0.58,-5c1.24,1.58 0.48,3.35 0.58,5zm360.23,404.17c-1.73,0 -3.48,0.13 -5.12,-0.62c1.71,0.12 3.55,-0.69 5.12,0.62zm-483.78,-200.94a10,10 0 0 1 -0.57,5c0.1,-1.68 -0.63,-3.45 0.57,-5zm355.55,200.91a12.91,12.91 0 0 1 -5.09,-0.59c1.75,0.1 3.51,-0.66 5.09,0.59zm-751.34,-62.39a10.1,10.1 0 0 1 -0.59,4.93c0.12,-1.68 -0.6,-3.41 0.59,-4.93zm685.58,52.99a4.26,4.26 0 0 1 5,0l-5,0zm-40.31,50.72c-1.25,-1.65 -0.79,-3.32 -0.06,-5l0.06,5zm381.43,-4.78c-0.21,1.73 -0.41,3.45 -0.62,5.17c0.15,-1.72 -0.65,-3.57 0.62,-5.17zm-334.7,11.07c0.62,-0.79 1.35,-1.4 1.48,0.2c0.08,1 -0.16,2 0.41,2.87c-1.71,-0.37 -0.63,-2.45 -1.89,-3.07zm-78.81,-48.21l-5.11,0.59c1.59,-1.24 3.4,-0.48 5.11,-0.59zm354.33,-5.24c1.44,1.31 3.43,0.22 5,1.13c-1.71,-0.26 -3.75,1.05 -5,-1.13zm-954.59,9.9a9.77,9.77 0 0 1 0.6,-5c-0.11,1.68 0.64,3.46 -0.6,5zm497.24,38.09a6.18,6.18 0 0 1 -4.2,0.58c1.27,-1.12 2.78,-0.53 4.2,-0.58zm-6.6,0.57c-1.43,0.07 -2.88,0.31 -4.18,-0.57c1.41,0.05 2.91,-0.54 4.18,0.57zm67.29,-42.72c-1.48,0 -3,0.12 -4.39,-0.61c1.53,0.11 3.06,-0.53 4.39,0.61zm-557.13,-4.65a7,7 0 0 1 0.59,-4.17c-0.06,1.41 0.55,2.91 -0.59,4.17zm637.95,47.51a3.84,3.84 0 0 1 -4.28,0.06l4.28,-0.06zm391.87,0.05a3.73,3.73 0 0 1 -4.25,0l4.25,0zm-64.35,1.55a4.2,4.2 0 0 0 0.64,3.16c-1.92,-0.7 -1.57,-1.87 -0.64,-3.16zm-233.04,-45.05a9.14,9.14 0 0 1 -4.3,0.56c1.31,-1.11 2.85,-0.51 4.3,-0.56zm101.05,33.61a9.66,9.66 0 0 1 0.57,4.29c-1.13,-1.3 -0.52,-2.84 -0.57,-4.29zm-335.21,-42.47a5.65,5.65 0 0 1 4.66,0l-4.66,0zm112.82,46.76l0,-3.93a3,3 0 0 1 0,3.93zm-624,-108.45a7.77,7.77 0 0 1 -0.59,4.23c0.06,-1.39 -0.57,-2.91 0.59,-4.23zm393.4,-111.57a7.08,7.08 0 0 1 -0.6,4.13c0.08,-1.39 -0.54,-2.89 0.6,-4.13zm267.78,214.86a10.33,10.33 0 0 1 0.63,4.37c-1.26,-1.31 -0.56,-2.9 -0.63,-4.37zm-266.8,-270.48a7.21,7.21 0 0 1 0.58,4.12c-1.1,-1.24 -0.5,-2.73 -0.58,-4.12zm267.38,266.19a9.68,9.68 0 0 1 -0.61,4.36c0.1,-1.48 -0.58,-3.07 0.61,-4.36zm-144.02,-439.94a7.19,7.19 0 0 1 -0.6,-4.14c1.15,1.24 0.53,2.74 0.6,4.14zm-519.13,438.87a7.34,7.34 0 0 1 0.6,4.18c-1.16,-1.25 -0.53,-2.76 -0.6,-4.18zm848.34,-0.53a9.64,9.64 0 0 1 -0.57,4.35c0.08,-1.46 -0.57,-3.03 0.57,-4.35zm-717.68,166.25c-1.25,0.88 -2.68,0.63 -4.07,0.67c1.2,-1.21 2.69,-0.55 4.07,-0.67zm-5.44,0.82a7.34,7.34 0 0 1 -4.16,0.57c1.26,-1.1 2.76,-0.5 4.16,-0.57z" fill="#FCFCFC"/>
    <path d="m944.91,39.2l-2.53,-2.59c1.82,-0.09 2.67,0.79 2.53,2.59z" fill="#FEFEFE"/>
    <path d="m962.56,602.47c-0.07,-1.41 -0.3,-2.84 0.6,-4.11c-0.11,1.39 0.52,2.88 -0.6,4.11z" fill="#FCFCFC"/>
    <path d="m1413.84,588.2c4.62,0 4.63,0 3.58,4.54c-1.77,7.69 -3.56,15.37 -5.31,23.05c-1.1,4.83 -5,7.71 -11,8.1c-5.61,0.36 -9.54,-2 -11.16,-6.8c-3.76,-11.09 4.61,-25.7 16.06,-27.91c2.57,-0.5 5.22,-0.66 7.83,-0.98zm-234.68,0.29c-2.207,9.613 -4.413,19.193 -6.62,28.74a5.35,5.35 0 0 1 -1,2.1c-2.7,3.38 -9.86,5 -14.63,3.4c-4.18,-1.41 -6.9,-5.36 -7.13,-10.36c-0.504,-12.43 8.873,-23.05 21.27,-24.09a27.52,27.52 0 0 1 8.11,0.21zm54,10.41a44.85,44.85 0 0 1 -5,17.87a14.23,14.23 0 0 1 -7,6.63c-7.57,3.16 -14.24,-0.58 -14.48,-8.75a36.66,36.66 0 0 1 5.9,-21.71a12.77,12.77 0 0 1 4.22,-4.08c3.76,-2.19 7.68,-2.84 11.61,-0.68c4.05,2.27 4.69,6.29 4.75,10.72zm101.29,12.64a40.85,40.85 0 0 1 4,-15.18c2.27,-4.7 5.56,-8.25 11,-9.23c5.64,-1 10.55,2.12 11.16,7.75a36.51,36.51 0 0 1 -5.8,24a11.68,11.68 0 0 1 -5,4.29c-8.57,3.97 -15.67,-0.88 -15.36,-11.63zm-294.49,-11.48l-10.29,0c-1.55,0 -2.08,-0.24 -1.59,-2c2,-7 9,-12.05 16.13,-11.48a9.33,9.33 0 0 1 8.45,12.15c-0.44,1.59 -1.45,1.25 -2.41,1.26c-3.43,0.14 -6.86,0.07 -10.29,0.07z" fill="#FEFEFE"/>
   </g>
  </svg>