<svg xmlns="http://www.w3.org/2000/svg" viewBox="135.1179962158203 83.4159927368164 329.7640380859375 87.1679916381836"><g xmlns="http://www.w3.org/2000/svg" fill="none"><path fill="#E20C20" d="m135.118,83.535l106.824,0l0,19.681l-106.824,0l0,-19.681zm0,33.773l42.976,0l0,19.681l-42.976,0l0,-19.681zm0,33.535l42.976,0l0,19.681l-42.976,0l0,-19.681zm63.788,-33.535l42.976,0l0,19.681l-42.976,0l0,-19.681zm0,33.535l42.976,0l0,19.681l-42.976,0l0,-19.681z"/><path fill="#1C3E85" d="m261.472,83.535l69.218,0l0,19.622l-26.355,0l0,67.308l-16.744,0l0,-67.308l-26.12,0m77.768,-19.622l18.926,0l0,86.989l-18.926,0l0,-86.989zm39.385,-0.119l21.167,0l21.992,53.514l21.992,-53.335l21.107,0l0,86.989l-15.624,-0.179l0,-60.767l-19.575,47.567l-15.8,0l-19.575,-48.28l0,61.48l-15.684,0l0,-86.989z"/></g></svg>