<svg  id="fndm-vrrpesuqw8" viewBox="0 -0.010834106244146824 624.9000244140625 169.3108367919922" xmlns="http://www.w3.org/2000/svg">
   <path d="m0,169.3l560.7,0s64.2,0 64.2,-57.2l0,-112.1l-561.9,0s-63,-2.2 -63,56.1l0,113.2z" fill="#f58220"/>
   <path d="m387.5,84.7c0,-25.8 22.9,-46.7 51.1,-46.7c28.2,0 51.1,20.9 51.1,46.7c0,25.8 -22.9,46.7 -51.1,46.7c-28.2,0 -51.1,-20.9 -51.1,-46.7" fill="#0058a9"/>
   <path d="m486.8,84.7c0,-25.8 22.9,-46.7 51.1,-46.7c28.2,0 51.1,20.9 51.1,46.7c0,25.8 -22.9,46.7 -51.1,46.7c-28.2,0 -51.1,-20.9 -51.1,-46.7" fill="#0058a9"/>
   <path d="m404.7,92.4l0,3.1c0,11.6 6.9,12.9 17.6,13.5c3.8,0.2 7.6,0.2 11.4,0.2c7.3,0 14.5,-0.2 21.8,-0.5c12.9,-0.9 18.9,-3.2 18.9,-15.8c0,-13.2 -7.6,-15.5 -20.6,-15.5c-3.8,0 -7.5,-0.1 -11.2,-0.1l-11.4,-0.2c-3.9,-0.2 -9.7,0.4 -9.7,-4.6c0,-3.1 3.2,-3.7 6.2,-3.8c4.4,-0.2 8.6,-0.4 13,-0.4c2.7,0 5.4,0 8.2,0.1c3.8,0.2 6.3,1 6.5,4.8l16.7,0c-0.1,-3.2 0,-6.7 -1.8,-9.7c-4,-6 -11.7,-6.1 -18.6,-6.2l-11.9,-0.2c-6.5,0 -19.1,0.1 -25.1,1.5c-8.9,2.1 -10.4,7.3 -10.4,14.8c0,9.6 3.4,14.1 14.3,14.8c9.3,0.5 18.7,0.5 28,0.5l2.8,0c3.7,0 7.9,0.4 7.9,4.5c0,4.4 -3.8,4.3 -7.5,4.4c-3.9,0.2 -7.6,0.3 -11.4,0.3c-2.7,0 -5.4,-0.1 -8,-0.1c-3.9,-0.2 -8.7,-0.1 -8.7,-4.7c0,-0.3 0,-0.5 -0.1,-0.8l-16.9,0l0,0.1zm146,-3.5l-24,0l12,-20.2l12,20.2zm6.3,10.6l5.3,9.3l18.7,0l-30.5,-51l-23,0l-31.2,51l18.9,0l5.5,-9.3l36.3,0zm-529.4,-28.3l23.2,0l0,37l16.5,0l0,-37l23.2,0l0,-12.2l-62.9,0l0,12.2zm64.9,37l59.9,0l0,-11.9l-43.4,0l0,-7.8l40.2,0l0,-10.2l-40.2,0l0,-7.9l42.5,0l0,-11.4l-59,0l0,49.2zm64.7,0l16.5,0l0,-18.9l7.3,0l23.8,18.9l23.4,0l-32.6,-25.2l29.1,-24l-22.4,0l-20.9,18l-7.7,0l0,-18l-16.5,0l0,49.2zm71.9,0l16.5,0l0,-35.8l0.2,0l31,35.8l25.6,0l0,-49.2l-16.5,0l0,35.7l-0.2,0l-31,-35.7l-25.6,0l0,49.2zm95,-27.3c0,-6.1 1.6,-9.8 10.3,-9.8l19.3,0c8.7,0 10.3,3.7 10.3,9.8l0,5.3c0,7.1 -1.6,9.8 -9.5,9.8l-21.1,0c-7.8,0 -9.4,-2.7 -9.4,-9.8l0,-5.3l0.1,0zm-16.9,10c0,14.4 8.9,17.8 23.7,17.8l26.5,0c14.9,0 23.7,-3.4 23.7,-17.8l0,-14.7c0,-14.4 -8.9,-17.8 -23.7,-17.8l-26.5,0c-14.9,0 -23.7,3.4 -23.7,17.8l0,14.7z" fill="#fff"/>
  </svg>