<svg  id="fndm-iq2gtrxc91" viewBox="96 67 409 119" xmlns="http://www.w3.org/2000/svg">
   <defs xmlns="http://www.w3.org/2000/svg">
    <radialGradient fy="43.155%" fx="76.499%" r="74.575%" cy="43.155%" cx="76.499%" id="fndm-p60j7lwj31">
     <stop stop-opacity="0" stop-color="#231161" offset="16.79%"/>
     <stop stop-color="#231161" offset="100%"/>
    </radialGradient>
   </defs>
   <g xmlns="http://www.w3.org/2000/svg" fill="none">
    <path d="m286.239,104.932l-14.201,0l0,49.363c0,0.924 -0.806,1.705 -1.757,1.705l-11.493,0c-0.952,0 -1.757,-0.781 -1.757,-1.705l0,-49.363l-14.274,0c-0.952,0 -1.757,-0.71 -1.757,-1.633l0,-8.665c0,-0.924 0.805,-1.634 1.757,-1.634l43.409,0c0.951,0 1.83,0.71 1.83,1.634l0,8.736c0.073,0.923 -0.805,1.562 -1.757,1.562zm31.761,55.068c-14.469,0 -26,-7.804 -26,-28.273l0,-10.454c0,-20.395 11.531,-28.273 26,-28.273s26,7.804 26,28.273l0,10.454c-0.073,20.395 -11.531,28.273 -26,28.273zm10.87,-38.727c0,-10.529 -3.525,-15.02 -10.87,-15.02c-7.345,0 -10.797,4.491 -10.797,15.02l0,10.454c0,10.529 3.452,15.02 10.797,15.02c7.345,0 10.87,-4.491 10.87,-15.02l0,-10.454zm64.369,-16.341l-14.201,0l0,49.363c0,0.924 -0.806,1.705 -1.757,1.705l-11.493,0c-0.952,0 -1.757,-0.781 -1.757,-1.705l0,-49.363l-14.274,0c-0.952,0 -1.757,-0.71 -1.757,-1.633l0,-8.665c0,-0.924 0.805,-1.634 1.757,-1.634l43.409,0c0.951,0 1.83,0.71 1.83,1.634l0,8.736c0.073,0.923 -0.805,1.562 -1.757,1.562zm62.688,-10.097l-12.984,54.4c-1.97,8.444 -8.389,9.765 -14.37,9.765s-12.474,-1.321 -14.443,-9.764l-13.057,-54.4c0,-0.147 -0.073,-0.294 -0.073,-0.441c0,-0.808 0.73,-1.395 1.605,-1.395l12.109,0c0.875,0 1.531,0.734 1.75,1.615l10.869,50.656c0.146,0.955 0.438,1.322 1.24,1.322s1.021,-0.367 1.24,-1.322l10.869,-50.656c0.146,-0.88 0.802,-1.615 1.677,-1.615l12.182,0c0.875,0 1.459,0.514 1.459,1.395c0,0.073 -0.073,0.294 -0.073,0.44zm25.213,65.165c-6.86,0 -12.04,-0.81 -16.492,-1.914c-0.875,-0.295 -1.75,-0.81 -1.75,-1.767l0,-8.615c0,-1.251 0.729,-1.693 1.604,-1.693l0.292,0c3.576,0.368 13.135,1.03 16.564,1.03c5.984,0 7.735,-1.914 7.735,-6.184c0,-2.577 -1.24,-3.976 -5.765,-6.7l-12.04,-7.215c-8.098,-4.86 -10.288,-10.382 -10.288,-16.787c0,-9.645 5.4,-17.155 22.328,-17.155c6.349,0 15.178,1.03 18.461,1.914c0.657,0.148 1.314,0.59 1.314,1.62l0,8.909c0,0.81 -0.365,1.472 -1.46,1.472l-0.145,0c-2.408,-0.147 -12.551,-0.957 -18.462,-0.957c-4.961,0 -6.786,1.473 -6.786,4.639c0,2.43 1.168,3.607 5.838,6.184l11.164,6.038c9.048,4.933 11.748,10.75 11.748,17.89c-0.073,9.351 -6.202,19.291 -23.86,19.291zm-266.14,-33.5c0,32.835 -26.591,59.5 -59.5,59.5c-32.835,0 -59.5,-26.591 -59.5,-59.5c0,-32.835 26.591,-59.5 59.5,-59.5c32.835,0 59.5,26.665 59.5,59.5z" fill="#00ACC8"/>
    <path transform="translate(96 67)" d="m119,59.5c0,32.835 -26.591,59.5 -59.5,59.5c-32.835,0 -59.5,-26.591 -59.5,-59.5c0,-32.835 26.591,-59.5 59.5,-59.5c32.835,0 59.5,26.665 59.5,59.5z" fill="url(#fndm-p60j7lwj31)"/>
    <path opacity="0.5" d="m195.78,100.638c-3.847,-3.247 -53.787,-15.869 -57.56,-14.54c-1.332,1.254 -2.072,10.776 -2.22,21.035c15.537,3.617 34.181,8.931 36.475,10.85c1.628,2.289 2.293,15.28 2.22,27.237c10.505,2.435 19.606,4.207 21.085,3.69c2.96,-2.731 2.96,-44.065 0,-48.272zm-61.255,33.317c-1.554,-2.287 -2.293,-15.273 -2.22,-27.225c-10.505,-2.435 -19.606,-4.206 -21.085,-3.616c-2.96,2.73 -2.96,44.048 0,48.253c3.847,3.247 53.787,15.864 57.56,14.535c1.332,-1.254 2.072,-10.772 2.22,-21.027c-15.537,-3.69 -34.255,-9.002 -36.475,-10.92z" fill="#FFF"/>
    <path d="m172.76,117.54c-2.311,-1.864 -21.091,-7.026 -36.741,-10.54c-0.15,11.616 0.596,24.236 2.235,26.46c2.31,1.864 21.09,7.026 36.74,10.54c0.075,-11.688 -0.67,-24.308 -2.235,-26.46l0.001,0z" fill="#FFF"/>
   </g>
  </svg>