<svg xmlns="http://www.w3.org/2000/svg" fill-rule="evenodd" clip-rule="evenodd" image-rendering="optimizeQuality" shape-rendering="geometricPrecision" text-rendering="geometricPrecision" viewBox="-2 1.0099999904632568 6599.990234375 3299.989990234375"><g><rect width="6599.99" height="3299.99" x="-2" y="1.01" fill="none"/><g><rect width="2680.47" height="2680.47" x="1957.75" y="310.76" fill="#4364e8" rx="691.18" ry="691.18"/><path fill="#fff" d="M3433.9 2013.33c25.39,93.34 78.01,158.1 153.86,193.89 71.3,33.62 180.12,49.28 329.46,49.28l111.6 0c103.69,0 187.72,-84.04 187.72,-187.73 0,-10.72 -8.65,-19.37 -19.37,-19.37l-242.14 0c-143.1,0 -189.18,-13.97 -218.66,-25.26 -35.13,-13.49 -57.94,-49.09 -69.7,-96.82 -14.05,-57.19 -26.76,-123.82 -26.76,-272.94 0,-149.12 12.71,-221.26 26.76,-278.44 11.76,-47.73 34.57,-81.4 69.74,-94.9 29.4,-11.33 75.43,-23.14 218.62,-23.14l73.32 0c103.45,0 187.3,-83.84 187.3,-187.3 0,-10.48 -8.51,-19 -18.99,-19l-22.58 -0.09c-339.71,0 -210.3,-0.85 -255.63,-0.85 -149.31,0 -253.19,16.37 -324.48,49.99 -75.8,35.78 -134.35,100.91 -159.75,193.65 -23.46,85.77 -35.17,177.86 -35.17,359.99 0,180.9 11.38,272.7 34.85,359.04l0 0z"/><path fill="#fff" d="M3277.36 1050.68l-860.24 0c-20.84,0 -37.72,16.88 -37.72,37.67l0 140.18c0,20.84 16.88,37.67 37.67,37.67l273.5 0 0 958.34c0,20.83 16.88,37.67 37.67,37.67 116.01,0 210.02,-94.01 210.02,-209.97l0 -767.51c0,-10.2 8.27,-18.53 18.53,-18.53l162.84 0c101.39,0 184.87,-76.84 195.31,-175.5 2.3,-21.92 -15.52,-40.02 -37.58,-40.02l0 0z"/></g></g></svg>