<svg  id="fndm-j09ea56ye7" viewBox="0.699999988079071 0.800000011920929 749.1000366210938 123.69999694824219" xmlns="http://www.w3.org/2000/svg">
   <g xmlns="http://www.w3.org/2000/svg" fill="none">
    <path d="m214.6,30.9l0,91.9l-32.6,0l0,-91.9l-32.6,0l0,-28.4l97.9,0l0,28.3l-32.7,0l0,0.1zm49.7,-28.4l55.5,0c13.4,0 24.3,3.7 32.6,11.1c8.3,7.4 12.5,17.2 12.5,29.3c0,8.4 -2,15.7 -6.1,22c-4.1,6.3 -9.7,11.2 -16.9,14.6l28.2,43.3l-37.8,0l-23.5,-38.7l-11.7,0l0,38.7l-32.6,0l0,-120.3l-0.2,0zm32.6,27.5l0,29.2l18.9,0c5.2,0 9.2,-1.3 12,-4c2.9,-2.6 4.3,-6.2 4.3,-10.7c0,-4.5 -1.4,-8 -4.3,-10.7c-2.9,-2.6 -6.9,-4 -12,-4l-18.9,0l0,0.2zm87.2,-27.5l33.5,0l0,120.3l-33.5,0l0,-120.3zm91.8,38.6c2.5,2 7.6,4.7 15.3,8c22.2,9.6 33.3,22.3 33.3,38c0,10.7 -4.2,19.6 -12.6,26.7c-8.4,7.2 -19.3,10.7 -32.6,10.7c-5.7,0 -11.3,-0.7 -16.8,-2c-5.4,-1.3 -9.9,-2.9 -13.5,-4.7c-3.6,-1.8 -6.7,-3.7 -9.4,-5.5c-2.7,-1.8 -4.8,-3.4 -6,-4.6l-1.9,-2.1l18.9,-20.6c1,1 2.4,2.3 4.2,3.7c1.8,1.4 5.3,3.4 10.6,5.8c5.3,2.5 10.4,3.7 15.3,3.7c3,0 5.4,-0.7 7.4,-2.1c1.9,-1.4 2.9,-3.2 2.9,-5.4c0,-2.9 -1.7,-5.6 -5.2,-8.2c-3.4,-2.6 -10.1,-6.1 -19.9,-10.3c-18.2,-7.9 -27.3,-19.8 -27.3,-35.6c0,-10.4 4,-19 12,-25.7c8,-6.7 18.5,-10.1 31.4,-10.1c7.9,0 15.4,1.4 22.5,4.1c7.1,2.7 12.2,5.5 15.3,8.2l4.6,4l-18.9,20.6c-0.7,-0.8 -1.7,-1.8 -3.1,-3c-1.4,-1.2 -4.1,-2.8 -8.1,-4.7c-4,-1.9 -8,-2.9 -12,-2.9c-3.2,0 -5.7,0.7 -7.6,2c-1.8,1.3 -2.7,2.9 -2.7,4.9c0.1,2.7 1.4,5.1 3.9,7.1zm169.3,-38.6l0,69.9c0,15.7 -5,28.3 -14.9,37.8c-9.9,9.5 -22.9,14.3 -38.9,14.3s-28.8,-4.6 -38.4,-13.7c-9.6,-9.2 -14.3,-21.6 -14.3,-37.3l0,-71l33.2,0l0,69.6c0,6.9 1.9,12.3 5.6,16.3c3.7,4 8.7,6 15,6c6.3,0 11.3,-2 15,-6c3.7,-4 5.6,-9.4 5.6,-16.3l0,-69.6l32.1,0zm17,120.3l0,-120.3l32.6,0l0,91.1l55,0l0,29.2l-87.6,0z" fill="#000"/>
    <path d="m121,2.5l-120.3,0l0,28.4l91.9,0l28.4,-28.4zm-120.3,74.3l46,0l28.3,-28.3l-74.3,0l0,28.3zm0,46l28.4,-28.4l-28.4,0l0,28.4z" fill="#F9C646"/>
    <path d="m92.6,30.9l0,91.9l28.4,0l0,-120.3l-28.4,28.4zm-45.9,45.9l0,46l28.3,0l0,-74.3l-28.3,28.3zm-17.6,46l0,-28.4l-28.4,28.4l28.4,0z" fill="#C69214"/>
   </g>
  </svg>