<svg  id="fndm-cqorkxmwp6" viewBox="135 18 329 211.82398986816406" xmlns="http://www.w3.org/2000/svg">
   <g xmlns="http://www.w3.org/2000/svg" fill-rule="evenodd" fill="none">
    <path d="m439,97l25,0l0,25l-25,0l0,-25z" fill="#4AC7EB"/>
    <path d="m402.22,94.868l-47.972,0c-9.594,0 -19.722,3.546 -27.273,10.106c-9.061,7.534 -14.125,17.64 -14.125,26.238c0,21.63 21.676,36.788 41.398,36.788l39.354,0c9.595,0 19.722,-2.482 27.273,-9.042c9.061,-6.028 14.125,-17.64 14.125,-27.746l0,-47.868c0,-10.105 -6.574,-21.186 -12.615,-27.745c-7.55,-6.028 -15.19,-8.599 -25.23,-8.599l-178.205,0c-10.127,0 -20.166,3.546 -27.805,10.105c-8.618,7.535 -13.592,16.134 -13.592,26.24c0,21.629 21.231,36.787 41.397,36.787l47.972,0c7.107,0 14.658,5.053 14.658,11.08c0,6.56 -6.041,12.588 -14.658,12.588l-91.946,0c-7.55,0 -15.19,-5.053 -15.19,-12.588l0,-83.148l-24.786,0l0,83.148c0,21.63 16.168,36.788 37.4,36.788l94.433,0c18.656,0 39.887,-15.158 39.887,-36.788c0,-8.598 -3.553,-18.615 -12.614,-26.238c-7.551,-6.56 -17.679,-10.106 -27.273,-10.106l-47.972,0c-10.127,0 -15.19,-5.053 -15.19,-11.612c0,-6.028 6.573,-11.08 15.19,-11.08l174.741,0c3.554,0 7.107,0.974 11.105,3.545c2.487,2.482 3.553,5.053 3.553,7.535l0,47.868c0,6.56 -6.04,12.587 -14.658,12.587l-39.354,0c-9.594,0 -16.168,-6.027 -16.168,-12.587c0,-6.028 7.55,-11.08 16.168,-11.08l47.971,0" fill-rule="nonzero" fill="#003E69"/>
    <path d="m135,18l24,0l0,22l-24,0l0,-22z" fill="#4AC7EB"/>
    <path d="m241.206,224.89l0,0.97l-1.505,1.497l-0.974,0c0,0.97 -1.505,0.97 -1.505,0.97c-0.974,0 -2.479,1.497 -3.541,1.497l-3.984,0c-2.48,0 -3.542,0 -6.02,-1.498c-0.974,0 -3.542,-0.969 -5.047,-3.524c-0.974,-1.497 -2.479,-2.466 -2.479,-5.021c-0.974,-2.467 -0.974,-5.021 -0.974,-7.488c0,-3.524 0,-5.99 0.974,-8.545c1.505,-1.498 1.505,-3.965 3.984,-5.022c0.974,-2.466 2.479,-3.964 5.047,-3.964c0.973,-0.97 3.54,-0.97 6.02,-0.97l4.958,0c0.974,0.97 2.479,0.97 2.479,0.97l0.974,1.498l1.505,0.969l0,2.467c0,1.497 -1.505,1.497 -1.505,1.497l-0.974,-1.498s-1.505,0 -1.505,-0.969c-0.974,0 -2.48,0 -2.48,-1.497l-3.54,0c-2.48,0 -3.985,0 -5.047,1.497c-0.974,0 -2.48,0.97 -3.542,2.467c0,0.969 -1.505,2.467 -1.505,5.021c-0.974,0.97 -0.974,3.524 -0.974,5.99c0,1.498 0,3.965 0.974,5.022c0,2.467 1.505,3.524 1.505,5.022c0.974,0.969 2.48,2.466 3.542,2.466c0.974,0.97 2.479,0.97 5.046,0.97c0.974,0 2.48,0 3.542,-0.97c1.505,0 1.505,0 2.479,-1.497c1.505,0 1.505,0 1.505,-0.97l2.479,0l0,0.97s0.088,0.176 0.088,1.673m28.686,-28.542l0,0.969l-11.067,0l0,32.507l-3.984,0l0,-32.508l-11.067,0l0,-3.435l26.206,0l0,0.969s-0.088,0 -0.088,1.498m25.144,31.009l0,2.467l-17.619,0c-1.505,0 -1.505,0 -1.505,-1.498c0,0 -0.974,0 -0.974,-0.969l0,-31.01c0,-1.497 0.974,-1.497 0.974,-2.466l19.124,0l0,3.436l-15.051,0l0,11.54l12.572,0l0,0.97l0.974,0l0,2.466l-13.546,0l0,13.478l15.14,0l-0.09,1.586m28.686,0l0,0.97l-1.505,0l0,1.497l-17.087,0s-1.505,0 -1.505,-1.498l0,-34.445l18.592,0l0,3.436l-14.608,0l0,11.54l12.04,0c1.506,0 1.506,0 1.506,0.97l0,2.466l-13.546,0l0,13.478l16.113,0l0,1.586m29.748,-23.521c0,2.466 -0.974,3.524 -0.974,5.021c-0.974,2.467 -0.974,2.467 -2.48,3.524c-0.973,1.498 -2.478,2.467 -3.54,2.467c-2.48,1.497 -3.985,1.497 -6.552,1.497l-3.541,0l0,13.479l-4.958,0l0,-36.031l13.457,0c1.505,0.969 2.479,0.969 3.984,0.969c0.974,1.498 0.974,1.498 2.479,2.467c0,1.497 0.974,2.466 0.974,2.466c0.088,1.674 1.15,2.643 1.15,4.14m-4.514,0.97c0,-0.97 -1.506,-2.467 -1.506,-3.524c-0.973,-1.498 -0.973,-2.467 -2.479,-2.467c0,0 -0.973,-1.497 -2.479,-1.497l-6.019,0l0,15.064l3.54,0c1.506,0 2.48,0 3.985,-0.97c0.973,0 0.973,0 2.479,-1.497c0,0 0.973,-0.969 0.973,-2.466c-0.088,-1.146 1.506,-1.146 1.506,-2.643" fill-rule="nonzero" fill="#003E69"/>
   </g>
  </svg>