<svg xmlns="http://www.w3.org/2000/svg" fill-rule="evenodd" clip-rule="evenodd" image-rendering="optimizeQuality" shape-rendering="geometricPrecision" text-rendering="geometricPrecision" viewBox="-2 1 6599.990234375 3300"><g><rect width="6599.99" height="3300" x="-2" y="1" fill="none"/><g><g><g fill="#19294b" fill-rule="nonzero"><g><g><path d="M2105.1 1756.23c-14.63,-60.27 -53.17,-103.55 -97.63,-135.17 -44.47,-31.63 -103.17,-47.44 -176.09,-47.44 -101.19,0 -179.65,30.64 -235.38,91.7 -55.93,61.07 -83.79,149.61 -83.79,265.82 0,72.92 13.63,135.37 40.91,187.35 27.27,51.98 65.41,91.31 114.82,117.99 49.21,26.87 106.92,40.31 172.73,40.31 50.2,0 94.66,-4.15 133.79,-12.45 37.55,-7.9 66.8,-16.4 96.25,-28.66 2.37,-0.98 3.95,-3.35 3.76,-5.92l-1.19 -135.18c0,-4.94 -5.53,-7.91 -9.49,-5.14 -10.67,6.91 -22.53,11.46 -39.13,17.78 -21.54,8.31 -44.86,15.22 -69.96,20.36 -25.1,5.34 -51.58,7.91 -79.84,7.91 -66.8,0 -116.21,-17.99 -148.42,-54.15 -24.71,-27.67 -35.77,-48.62 -41.5,-95.85 -0.2,-1.78 1.18,-3.56 3.16,-3.56l423.52 0c3.36,0 6.13,-2.77 6.13,-6.13 0.98,-78.26 1.58,-161.07 -12.65,-219.57l0 0zm-357.32 -31.62c22.33,-13.63 48.62,-20.35 78.46,-20.35 49.21,0 85.18,15.22 108.1,45.45 16.8,22.33 27.87,55.14 33.21,98.62 0.19,1.78 -1.19,3.56 -3.17,3.56l-278.26 0c-1.98,0 -3.36,-1.78 -3.16,-3.56 2.96,-21.54 7.31,-40.12 13.24,-55.73 12.06,-31.82 29.25,-54.35 51.58,-67.99l0 0z"/><path d="M2207.67 1656.43c0,-3.75 2.17,-7.31 5.53,-8.89 17.19,-7.91 37.35,-15.81 60.28,-23.72 25.49,-8.69 53.16,-16.4 83,-23.12 29.85,-6.52 60.08,-11.86 90.32,-15.81 30.24,-3.95 59.09,-5.93 86.36,-5.93 61.47,0 112.46,8.1 152.97,24.31 40.51,16.21 71.15,41.7 92.29,76.48 21.15,34.79 31.62,80.24 31.62,136.57l0 436.96c0,3.36 -2.76,6.12 -6.12,6.12l-153.76 0c-3.36,0 -6.12,-2.76 -6.12,-6.12l0 -407.91c0,-16.6 -2.18,-32.81 -6.53,-48.22 -4.34,-15.42 -11.85,-29.06 -22.33,-40.91 -10.47,-11.86 -25.1,-21.35 -43.48,-28.27 -18.38,-7.11 -42.29,-10.47 -71.14,-10.47 -21.94,0 -44.47,2.37 -67.2,7.31 -20.95,4.55 -39.52,9.49 -55.33,15.02 -2.57,0.79 -4.15,3.16 -4.15,5.93l0 507.71c0,3.36 -2.77,6.13 -6.13,6.13l-153.76 0c-3.36,0 -6.12,-2.77 -6.12,-6.13l-0.2 -597.04 0 0z"/><path d="M3615.98 2279.36c-109.09,0 -190.71,-30.24 -245.26,-90.91 -54.54,-60.67 -81.82,-148.22 -81.82,-262.45 0,-122.14 27.87,-211.07 83.8,-266.41 55.73,-55.33 136.56,-83 242.1,-83 73.91,0 135.37,13.04 184.58,38.93 49.21,25.89 85.97,64.82 110.08,116.8 24.11,51.98 36.37,116.6 36.37,193.88 0,114.23 -28.27,201.78 -84.98,262.45 -56.92,60.28 -138.54,90.71 -244.87,90.71l0 0zm0 -135.97c38.74,0 70.16,-9.09 94.27,-27.07 24.11,-17.99 41.9,-43.09 53.36,-75.1 11.46,-32.02 17.19,-70.56 17.19,-115.42 0,-50.2 -5.92,-90.91 -17.78,-122.73 -11.86,-31.62 -29.85,-54.94 -54.15,-69.96 -24.11,-15.02 -55.14,-22.33 -92.89,-22.33 -38.74,0 -70.16,7.91 -94.27,23.72 -24.11,15.81 -41.5,39.52 -52.17,71.14 -10.48,31.62 -15.81,71.74 -15.81,119.96 0,70.36 12.45,124.12 37.55,161.47 25.09,37.74 66.79,56.32 124.7,56.32z"/></g><g><path d="M1304.69 1457.81l-159.09 74.11c-2.17,0.99 -3.56,3.17 -3.56,5.74l0 545.06c0,64.23 17.99,113.24 54.15,147.04 35.97,33.79 87.95,50.79 155.54,50.79 19.37,0 39.33,-1.78 60.08,-5.34 19.17,-3.36 36.76,-8.89 52.57,-16.8 2.17,-0.99 3.36,-3.16 3.36,-5.53l0 -129.05c0,-4.75 -4.94,-7.71 -9.09,-5.54 -8.7,4.55 -18.58,8.5 -29.85,11.66 -15.41,4.35 -30.04,6.53 -44.27,6.53 -26.28,0 -44.86,-6.53 -55.33,-19.77 -10.48,-13.24 -15.81,-33.4 -15.81,-60.67l0 -323.13c0,-3.36 2.76,-6.12 6.12,-6.12l141.9 0c3.36,0 6.13,-2.77 6.13,-6.13l0 -119.37c0,-3.36 -2.77,-6.12 -6.13,-6.12l-141.7 0c-3.36,0 -6.12,-2.77 -6.12,-6.13l0 -125.1c0,-4.94 -4.75,-8.1 -8.9,-6.12l0 -0.01z"/><path d="M3082.58 1457.81l-158.9 74.11c-2.17,0.99 -3.56,3.17 -3.56,5.74l0 545.26c0,64.23 17.99,113.24 54.15,147.03 35.97,33.8 87.95,50.8 155.54,50.8 19.37,0 39.33,-1.78 60.08,-5.34 19.17,-3.36 36.76,-8.89 52.57,-16.8 2.17,-0.99 3.36,-3.16 3.36,-5.53l0 -129.06c0,-4.74 -4.94,-7.7 -9.09,-5.53 -8.7,4.55 -18.58,8.5 -29.85,11.66 -15.41,4.35 -30.04,6.52 -44.27,6.52 -26.28,0 -44.86,-6.52 -55.33,-19.76 -10.48,-13.24 -15.81,-33.4 -15.81,-60.67l0 -323.33c0,-3.36 2.76,-6.12 6.12,-6.12l141.9 0c3.36,0 6.13,-2.77 6.13,-6.13l0 -119.37c0,-3.36 -2.77,-6.12 -6.13,-6.12l-141.9 0c-3.36,0 -6.12,-2.77 -6.12,-6.13l-0.2 -125.1c0.2,-4.94 -4.55,-8.1 -8.7,-6.12l0.01 -0.01z"/><path d="M828.21 1817.7l199.01 -169.96c1.38,-1.19 1.98,-2.77 1.98,-4.55l0 -101.38c0,-3.36 -2.77,-6.13 -6.13,-6.13l-441.11 0c-3.36,0 -6.13,2.77 -6.13,6.13l0 124.11c0,3.36 2.77,6.13 6.13,6.13l207.71 0c2.77,0 4.15,3.35 2.17,5.33l-167.78 149.41c-2.38,2.37 -3.76,5.53 -3.76,8.89l0 100.99c0,3.36 2.77,6.13 6.13,6.13l78.26 0c104.94,0 162.25,47.82 162.25,103.56 0,59.88 -57.11,94.66 -149.41,94.66 -62.05,0 -124.5,-13.64 -177.47,-37.75 -4.15,-1.97 -8.89,0.99 -8.89,5.54l0 142.69c0,2.76 1.78,5.13 4.55,5.92 58.3,17.2 122.92,26.49 186.36,26.49 227.08,0 330.83,-113.44 330.83,-237.55 0,-106.72 -83.59,-200.6 -223.12,-223.33 -2.57,-0.39 -3.56,-3.55 -1.58,-5.33l0 0z"/></g></g><path d="M4416.78 1917.9c-20.75,-14.04 -42.69,-24.9 -66.01,-32.41 -23.32,-7.51 -46.05,-14.23 -67.99,-20.36 -21.93,-6.13 -42.49,-12.25 -61.26,-18.38 -18.97,-6.13 -33.99,-15.02 -45.46,-26.28 -11.46,-11.47 -17.19,-26.29 -17.19,-44.87 0,-21.14 9.49,-37.55 28.26,-49.4 18.97,-11.86 45.46,-17.79 79.84,-17.79 37.75,0 70.95,6.52 99.61,19.76 21.74,10.08 44.07,21.15 67,33.2 4.15,2.18 9.09,-0.79 9.09,-5.53l0 -120.55c0,-2.38 -1.19,-4.55 -3.36,-5.54 -22.53,-11.86 -46.05,-21.94 -70.95,-30.04 -30.83,-10.08 -71.15,-16.01 -121.35,-17.79 -29.05,0 -58.89,3.76 -89.72,11.27 -30.83,7.51 -58.89,19.56 -84.39,36.36 -25.49,16.8 -46.24,38.74 -62.05,66.01 -15.81,27.28 -23.72,60.67 -23.72,100.2 0,33.4 5.53,61.86 16.4,84.98 11.07,23.32 25.7,42.49 44.27,57.31 18.38,15.02 38.94,26.88 61.27,35.58 22.33,8.69 45.06,15.81 67.98,21.14 22.93,7.12 44.86,14.03 66.01,21.15 21.15,7.11 38.54,15.61 52.18,25.69 13.63,10.08 20.35,24.31 20.35,42.89 0,19.37 -8.89,35.77 -26.28,49.41 -17.59,13.63 -44.07,20.35 -79.05,20.35 -29.85,0 -57.91,-3.56 -83.8,-10.47 -25.89,-7.12 -50.2,-16.41 -72.53,-28.26 -18.97,-10.08 -37.15,-20.56 -54.55,-31.43 -4.15,-2.57 -9.48,0.4 -9.48,5.14l0 134.98c0,2.37 1.38,4.75 3.75,5.73 29.65,13.44 60.48,24.91 92.69,34.59 33.4,10.08 73.92,15.22 121.35,15.22 46.64,0 91.3,-7.12 133.79,-21.15 42.69,-14.03 77.08,-36.76 103.56,-67.98 26.29,-31.23 39.92,-72.34 40.91,-123.33 0,-38.73 -6.32,-69.76 -19.17,-92.88 -12.65,-23.72 -29.45,-42.49 -50,-56.52l0 0z"/></g></g><g><path fill="#b0282b" fill-rule="nonzero" d="M6056.71 647.33c3.76,-1.78 8.11,0.99 8.11,5.14l0 337.75c0,135.97 -79.65,260.87 -202.77,318.38l-840.92 392.1c-74.9,34.98 -123.12,110.67 -123.12,193.28l0 26.49c0,5.53 -3.16,10.47 -8.11,12.64l-121.74 57.12c-3.75,1.78 -8.1,-0.99 -8.1,-5.14l0 -91.3c0,-135.97 79.65,-260.88 202.77,-318.39l840.92 -392.1c74.9,-34.98 123.12,-110.67 123.12,-193.28l0 -129.64 -907.72 425.1c-74.5,34.98 -122.72,110.67 -122.72,193.08l0 26.29c0,5.53 -3.17,10.47 -8.11,12.65l-121.74 57.11c-3.75,1.78 -8.1,-0.99 -8.1,-5.14l0 -90.91c0,-135.57 79.45,-260.47 202.18,-317.98l1096.05 -513.25 0 0zm-1290.13 2007.33c-3.75,1.78 -8.1,-0.99 -8.1,-5.14l0 -337.75c0,-135.97 79.65,-260.87 202.77,-318.38l840.92 -392.1c74.9,-34.98 123.12,-110.67 123.12,-193.28l0 -26.48c0,-5.54 3.16,-10.48 8.1,-12.65l121.74 -57.11c3.76,-1.78 8.11,0.98 8.11,5.13l0 91.11c0,135.97 -79.65,260.87 -202.77,318.38l-840.92 392.1c-74.9,34.98 -123.12,110.68 -123.12,193.28l0 129.65 907.71 -425.1c74.51,-34.98 122.73,-110.67 122.73,-193.09l0 -26.28c0,-5.54 3.16,-10.48 8.1,-12.65l121.74 -57.11c3.76,-1.78 8.11,0.98 8.11,5.13l0 90.91c0,135.58 -79.45,260.48 -202.18,317.99l-1096.06 513.44 0 0z"/></g></g></g></svg>