<svg xmlns="http://www.w3.org/2000/svg" viewBox="0.9912261962890625 0.43145751953125 336.5087585449219 324.9911193847656"><g xmlns="http://www.w3.org/2000/svg" fill="none" fill-rule="evenodd"><g fill-rule="nonzero"><g transform="translate(-224.000000, -185.000000) translate(224.991227, 185.431461)"><path fill="#2C2F63" d="m34.63877,0.03854l265.74,0c4.13,0 8.24,0.24 12.13,1.87c2.04606,2.83151 5.57782,2.05223 8.24277,3.37925l0.24723,0.13075c4.06,3.89 7.19,8.56 10.66,12.94c4.52,10.64 3.52,20.71 -3.4,30c-2.45,3.28 -5.41,6.18 -8.14,9.25c-4.35631,2.78631 -8.00013,6.55342 -10.64,11c-1.46,2.59 -4.72,3.44 -5.41,6.48c-3.51111,2.97222 -6.32778,6.54321 -9.09986,10.14369l-1.108,1.44041c-1.84783,2.39882 -3.71436,4.77701 -5.79214,6.9659c-0.77161,0.99176 -1.32995,2.13227 -1.64,3.35c-3.90148,5.2751 -8.18286,10.25835 -12.81,14.91c-6.29028,4.00457 -10.54929,9.8816 -14.67239,15.82741l-0.77196,1.11521c-0.12854,0.18585 -0.25708,0.37166 -0.38565,0.55738c-2,2.86 -5.63,4.41 -6.29,8.24c-13.32,16.36 -27.11,32.33 -41.21,48c-4.86,3 -8.07,7.42 -10.72,12.33c-5.49912,5.9706 -12.74381,10.05143 -20.7,11.66c-7.61143,1.30151 -15.38857,1.30151 -23,0l0.05,0c-3.23,-3.37 -8,-3.76 -11.85,-6.07c-2.06709,-1.23871 -3.78655,-2.86701 -5.45303,-4.53979l-0.83019,-0.83849c-2.20935,-2.23735 -4.41182,-4.4515 -7.30587,-5.82437l-0.55091,-0.24735c-2.82,-5.05 -7.13,-8.86 -11.24,-12.83c-6.78,-7.32 -13.33,-14.84 -19.41,-22.75c-1.32,-2.68286 -3.41143,-4.69714 -5.55638,-6.6663l-1.07362,-0.9837l0,0c-11.18,-12.29 -22,-24.87 -32.45,-37.82c-2.64816,-5.21468 -6.50554,-9.72009 -11.25,-13.14c-3.56,-4.1225 -7.14562,-8.22563 -10.73593,-12.32578l-5.38637,-6.15006c-8.97442,-10.25322 -17.9127,-20.53916 -26.4877,-31.11416c-9.42,-11.62 -8,-27.85 2,-38.56c5.17,-4 12,-4.65 17.21,-8.63c2.94268,-0.89393 6.01904,-1.26621 9.09,-1.1zm-3.57,16.01996c-6.13,-0.00996 -10.93,1.82004 -14.45,6.82004c-3.22,2.91 -3.38,6.19 -2,10.19c2.92,8.47 8.69,14.6 15.51,20l0,0l0,-0.07c2.96245,5.13215 6.87955,9.65005 11.54,13.31c6.60706,6.8497 12.85222,14.03947 18.71,21.54c2.032,4.272 5.3632,7.4688 8.75968,10.62464l0.84977,0.7887c0.56646,0.52604 1.13189,1.05333 1.69055,1.58666c15.41334,17.05333 30.49,34.44333 45.23,52.17c0.67,2.19 2.32,3.47 4.21,4.54c3.17091,2.72727 5.64893,6.04165 8.10338,9.36998l0.92063,1.24765c0.61475,0.83072 1.23327,1.65782 1.86599,2.47237c2.69,3.82 5.26,7.73 9,10.66c1.43,1.37 2.81,2.8 4.29,4.1c11.96,10.57 27.59,14.78 41.72,1.52c3,-2.83 6.26,-5.51 9,-8.6c11.27,-12.68 22.39,-25.48 33.57,-38.24c0.83507,-0.33322 1.59124,-0.83733 2.22,-1.48c6.8,-7.81 13.58,-15.63 20.27,-23.54c5.75,-6.79 12.03,-13.14 16.82,-20.7c6.28,-7.45333 12.58,-14.88667 18.9,-22.3c9.26,-10.86 18.76,-21.58 27.76,-32.58c5.77,-7.08 5.09,-15.29 -0.91,-20.35c-3.14545,-2.65455 -6.83636,-2.96198 -10.62945,-2.99594l-0.75985,-0.00376l0,0l-0.3807,-0.0003c-90.60666,0.05333 -181.21,0.02667 -271.81,-0.08004z"/><path fill="#2D3062" d="m302.61877,288.74854c0.05,7.23 0.05,14.46 0.16,21.69c0.13,8.46 1.35,9.72 9.61,10.37c0.89504,0.05299 1.78448,0.17671 2.66,0.37c0.24,0.06 0.37,0.56 0.88,1.42l-46.47,0c2.32,-2.58 4.63,-1.74 6.55,-1.91c4.61,-0.39 7,-2.72 7,-7.26c0.09,-6.33 0,-12.66 0.09,-19c-0.0539,-1.62641 -0.54437,-3.20836 -1.42,-4.58c-6.74,-12.16 -13.47666,-24.32667 -20.21,-36.5c-2.7,-4.89 -5.63,-9.54 -11.59,-11.33l38.64,0c-9.27,3.69 -9.28,3.7 -4.51,13.05c2.21,4.33 4.46,8.65 6.68,13c1.51,5.29 5.21,9.57 6.87,14.79c0.82,2.69 5.53,2.08 5.06,5.89z"/><path fill="#2C2F63" d="m206.14877,244.58854c0.24859,0.54778 0.32193,1.15896 0.21,1.75c-0.16819,0.20087 -0.3236,0.40225 -0.46693,0.60447c-1.1848,1.20689 -1.7405,2.90848 -1.48307,4.59553c0.00487,0.04598 0.00969,0.09195 0.01445,0.13793c-0.00918,0.84106 0.07599,1.72604 0.22194,2.67005c0.46363,7.10206 -0.05492,14.22436 0.18361,21.29202c0.06,1.9 -0.56,4.02 1.44,5.43c6.97,1.51 12.56,-0.57 16.64,-6.49c0.32302,-0.93042 0.60265,-1.87327 0.83855,-2.8255c1.88943,-2.99196 3.16926,-6.07352 0.88145,-9.8645c-0.0282,-0.39519 -0.06058,-0.78276 -0.1,-1.17c-0.07948,-1.04476 -0.21114,-2.03505 -0.39392,-2.97007c0.37797,-3.48763 -1.07721,-6.93699 -3.86608,-9.09993c-1.08,-0.89 -2.23,-2.13 -1.64,-3.73c0.72,-1.94 2.6,-1.44 4.17,-1.67c3.37,-0.48 5.74,2.83 9.09,2.29c7.91,1.84 11.35,7.78 12.58,14.94c1.42,8.35 -1.8,15.22 -8.8,20.07c-6,4.17 -13,5.06 -20.06,5.24c-8.86,0.24 -8.86,0.29 -9.58,8.53c-0.99148,0.50401 -1.57433,1.56267 -1.47,2.67c0.53,4.14 0,8.32 0.41,12.47c1.32,12.4 -0.58,13.23 -13.39,12.27c-3.07,-0.23 -4.72,-2.06 -3.41,-5.23c0.82353,-2.02588 0.89426,-4.07211 0.89916,-6.13869l0.00007,-0.88692c0.00001,-0.14802 0.00018,-0.29616 0.00077,-0.44439l0,-54.82l0,0c0.07843,-1.62857 0.02157,-3.26084 -0.17,-4.88c-0.86,-4.91 0,-6.37 4.75,-6.43c0.87489,0 1.7651,-0.06747 2.66066,-0.14454l0.89696,-0.07813c3.09312,-0.26538 6.21006,-0.41594 8.94238,1.91267z"/><path fill="#2C2F62" d="m102.29877,314.03854c-2.94,-1.16 -0.89,-4.71 -3,-6.26c-1.91,-17.2 -0.51,-34.46 -1,-51.68c-0.06,-2.5 0.39,-5.07 -1,-7.39l-3.45,-4.06c-1.38,-1.58 -1.82,-2.93 1,-3c7.36,-0.08 14.73,-0.04938 22.09,0c1.71,0 3.32,1 2,2.51c-2.16,2.53 -1.18,5.51 -2.07,8.16c0.06,13.18 0.12667,26.36 0.2,39.54c0,3.79 0.08,7.59 0.35,11.37c0.65,9.33 3.38,12.67 12.32,15.38c1,1.49 2.47,1.15 3.88,1.23c1.18,0.07 2.81,-0.37 3,1.42c0.19,1.79 -1.11,1.83 -2.51,2c-1.23,0.13 0.8,0.74 0,1.14c-7.4,1.11 -14.66,0.8 -21.66,-2.13c-2.78,-3.42 -6.82,-5.42 -10.15,-8.23z"/><path fill="#35355E" d="m79.37877,264.06854c-3.6,-2.12 -3.11,-5.05 -4,-7.26c-3.23807,-8.32418 -12.19517,-12.90588 -20.84,-10.66c-2.09,0.51 -1.9,1.78 -1.89,3.2c0,21.33333 0,42.66666 0,64c0,4.34 2.18,6.59 6.46,7.21c1.63,0.23 3.75,-0.7 5.21,2l-42.8,0l-0.14,-0.84c0.54543,-0.38315 1.14103,-0.68936 1.77,-0.91c9.43,-1.72 9.85,-2.16 9.87,-11.86c0,-19.35 -0.07,-38.71 0.11,-58.06c0,-3.72 -0.92,-4.92 -4.79,-4.84c-11.65,0.23 -15.68,3 -19.21,14.32c-0.36,1.18 -0.28,3 -1.83,2.92c-1.85,-0.07 -1.15,-1.91 -1.17,-3c-0.06,-5.07 0.13,-10.14 -0.1,-15.19c-0.12,-2.91 1,-3.77 3.73,-3.76009c22.07,0.07009 44.15,0 66.22,0.05009c1.41,0 3.31,-0.22 3.35,1.79c0.18,6.75 0.05,13.5 0.05,20.89z"/><path fill="#33345A" d="m206.17877,246.71854c-1.44,-4.06 -4.87,-2.08 -7.44,-2.29c-2.84,-0.23 -6.21,-0.7 -8.48,0.54c-3.3,1.8 0.67,4.44 0.62,7c-0.36,19.83 -0.2,39.68 -0.2,59.52c0.06283,0.89866 0.01919,1.80159 -0.13,2.69c-1.53,6.25 -1.56,6.28 5.19,6.21c9,-0.08 7.9,1 8,-8.22c0,-3.43 0,-6.85 0,-10.28c0,-2.83 0.86,-6.16 -5.65,-5.58c3.78,-2.52 5.95,-1.77 8,-2c0.16,5.6 0.21,11.2 0.52,16.78c0.43,7.93 0.95,8.42 8.62,9.6c0.83,0.12 1.64,0.39 2.78,0.67c-3.31,2.13 -35.64,2.6 -41.37,0.85c0.17,-1.91 1.79,-1.47 2.87,-1.63c6.72,-1 8,-2.15 8.07,-9c0.15,-17.55 0.13,-35.1 0.13,-52.66c0,-12.39 0,-12.39 -11,-16.21c0,-1.3 0.9,-1.36 1.79,-1.34c13.76,0.25 27.53,-0.57 41.26,0.56c4.25,0.35 8.69,0.45 12.17,3.6c-0.91,1.51 -2.59,3.12 -3.7,1.22c-2.37,-4.11 -5.48,-1.9 -9.06,-1.62c8.48,4.28 5.28,13 8.08,19.4c1.59,3.63 -0.91,7.51 -4.3,10.07c-1.4,-3.52 0.11,-7.05 0.05,-10.58c-0.19,-11.55 -2.59,-14.52 -13.85,-16.16c-1.08771,-0.04652 -2.13051,-0.44679 -2.97,-1.14z"/><path fill="#333258" d="m134.15877,324.38854l-2.27,-1.29c1.08,-1.2 2.93,0.12 3.83,-1.31c-0.59,-3.65 -5.63,1.05 -5.92,-3.16c14.07,1.83 22.88,-5.43 24.15,-19.55c1.31,-14.46 0.39,-28.93 0.68,-43.39c0.17,-7.94 -3.32,-12.62 -12.71,-12.13l1.15,-1.56l29.31,0c-12.9,4.89 -12.94,5.08 -13.1,18.33c-0.16,13.74 1,27.55 -0.59,41.21c-1.69,13.98 -10.24,21.45 -24.53,22.85z"/><path fill="#353559" d="m302.61877,288.74854c-6.1,-3.27 -7.77,-9.59 -10.66,-15.13c-0.97347,-1.68685 -1.41604,-3.6279 -1.27,-5.57l9.57,16.43c6.75,-11.12 13.82,-21.71 19.29,-33.23c1.78,-3.73 0.24,-6.23 -3.95,-7c-1.48,-0.27 -3.23,-0.08 -4.82,-2.33l25.73,0c-15.62,10.07 -20.1,27.48 -29.88,41.07c-1.37,1.91 -2.68,3.86 -4.01,5.76z"/><path fill="#434361" d="m97.37877,248.70854c2,0.95 2.07,2.72 2.06,4.58c-0.06,18.17333 -0.10666,36.33666 -0.14,54.49c-1.64,-3.31 -1.71,-6.93 -1.74,-10.47c-0.18,-16.2 -0.18,-32.4 -0.18,-48.6z"/><path fill="#434361" d="m116.92877,252.33854c-0.38,-3.18 -0.64,-6.35 2.13,-10.06c-8.58,0 -16.35,0 -24.13,0c-1.83,0 -1.08,1.39 -1,2.35l-6.94,-1.52c3,-2.28 37.38,-2.6 42.27,0c-6.43,0.3 -12.25,1.32 -12.33,9.23z"/><path fill="#35365A" d="m129.86877,192.18854c2,0 4,-0.09 5.42,1.74c4.28193,5.74444 10.30386,9.95314 17.17,12c1.45,0.42 3.45,1.43 3.4,3.75c-11.15,-2.13 -19.48,-8.48 -25.99,-17.49z"/><path fill="#39375B" d="m251.46877,137.67854c-1.24,-2.75 -0.72,-4.08 2.32,-5.77c3.53202,-2.15886 6.19896,-5.4837 7.54,-9.4c2.16,-6 7.62,-7.7 12.26,-10.57c-6.93846,8.94433 -14.32107,17.53512 -22.12,25.74z"/><path fill="#35375A" d="m286.37877,97.02854c-0.23,-2.2 -0.13,-4 2.19,-5.46c4.11,-2.64 4.37,-8.38 8.5,-11.23c2.33,-1.61 4.38,-3.63 6.56,-5.46c0.46483,0.19062 0.80544,0.5986 0.91,1.09c-5.76,7.26 -11.68,14.39 -18.16,21.06z"/><path fill="#363658" d="m304.55877,75.96854l-0.91,-1.09c-1,-4.2 3.51,-5.35 5.17,-7.79c2.58,-3.8 5.25,-9.16 11.32,-9.46c-4.78215,6.45106 -9.98691,12.57784 -15.58,18.34l0,0z"/><path fill="#37385B" d="m25.54877,1.13854c0,1.57 -0.84,3.14 -2.15,3.41c-5.27,1.09 -9.62,4.73 -15.06,5.22c4.30981,-5.11585 10.53233,-8.23615 17.21,-8.63l0,0z"/><path fill="#3A395A" d="m199.53877,198.02854c0,-5.54 5.42,-11.75 10.72,-12.33c-3.07678,4.51667 -6.67491,8.65519 -10.72,12.33z"/><path fill="#3C3B5A" d="m48.94877,97.91854c6.32,2 11.33,7.8 11.25,13.14c-4.18208,-3.99077 -7.95114,-8.39304 -11.25,-13.14z"/><path fill="#39374D" d="m155.80877,209.69854l23,0c-7.44576,2.60278 -15.55424,2.60278 -23,0z"/><path fill="#3C3C5E" d="m331.67877,18.39854c-4.78,-3.3 -8,-7.89 -10.66,-12.94c5.13119,2.72602 8.96668,7.38186 10.66,12.94z"/><path fill="#3B3E5C" d="m118.68877,179.27854c4.93,3.26 10.31,6.14 11.16,12.93c-4.13509,-3.93352 -7.8731,-8.26439 -11.16,-12.93l0,0z"/><path fill="#3D3D5A" d="m102.29877,314.03854c4.48,1.39 8.85,2.94 10.2,8.22c-4.12,-1.8 -8,-3.99 -10.2,-8.22z"/><path fill="#3E3F5E" d="m320.99877,5.43854c-3.1,-0.52 -7.32,1.67 -8.49,-3.51c3.14284,0.18786 6.13204,1.42368 8.49,3.51z"/><path fill="#424360" d="m92.64877,148.84854c3.5,1.43 6.42,3.36 6.63,7.65c-2.65304,-2.12953 -4.89918,-4.72122 -6.63,-7.65l0,0z"/><path fill="#363758" d="m229.55877,140.00854c12.64,-15.64 25.9,-30.75 39.31,-45.72c-0.14,1.23 0.2,3 -0.49,3.63c-4.59,4.34 -7.33,10.38 -11.85,14.4c-6.19,5.5 -10.06,12.72 -15.85,18.44c-2.55,2.51 -6.19,4.34 -7.14,8.51c-0.3,1.33 -2.57,0.73 -3.98,0.74z"/><path fill="#35355A" d="m16.58877,22.78854c-3,6.71 -1.16,12.51 3.3,17.85c3.43,4.11 6.82,8.25 10.23,12.38c-5.49,1 -7.45,-3.82 -10.17,-6.7c-4.73,-5 -7,-11.48 -7.37,-18.42c-0.13,-2.56 0.4,-5.2 4.01,-5.11z"/><path fill="#3A3C5D" d="m30.08877,52.94854c4.27104,4.05017 8.13607,8.50802 11.54,13.31c-5.11,-1.3 -11.42,-8.56 -11.54,-13.31z"/><path fill="#3A3C5C" d="m60.37877,87.84854c4.17883,3.96859 7.97552,8.32105 11.34,13c-5.03,-3.31 -11.04,-5.71 -11.34,-13z"/><path fill="#3F4061" d="m132.00877,170.56854c4.11,2.61 6.11,7 9,10.66c-4.63,-2.17 -8.56,-4.95 -9,-10.66z"/><path fill="#43445D" d="m116.90877,152.93854c1.76693,1.13028 3.21602,2.69296 4.21,4.54c-3.55,0.47 -4.82,-1.17 -4.21,-4.54z"/><path fill="#2F3158" d="m206.15877,246.71854c0,11.46 0.03667,22.92 0.11,34.38c-2.54,0.56 -2.8,-0.46 -2.69,-2.87c0.3,-6.83 0.15,-13.69 0.14,-20.54c0,-1.6 0.25,-3.25 -0.75,-4.71c-2.73,-4.01 -0.09,-5.3 3.19,-6.26z"/><path fill="#2D3063" d="m52.00877,244.33854c-3,3.14 -2.56,6 -2.56,8.84c0,18.97333 0,37.93667 0,56.89c0,1.62 -0.4,3.62 0.38,4.78c4.16,6.15 -0.34,5.5 -4.11,5.52c-10.56,0.06 -10.66,0.06 -11.38,-9.93c-0.2,-2.75 -0.95,-5.77 1.52,-8.19c0.79,-0.77 0.54,-2 0.11,-3.08c-2.67,-6.58 -1.68,-12.92 -0.24,-19.78c1.44,-6.86 2.1,-14.23 -0.73,-21.13c-0.7,-1.71 -0.88,-3.06 0.19,-4.5c1.36,-1.81 1.45,-3.36 0,-5.35c-1.83,-2.46 -0.89,-4.05 2.25,-4.06c4.46,-0.03 8.94,-0.01 14.57,-0.01z"/><path fill="#2D3061" d="m179.87877,58.33854c0,30.57 -0.17,61.13 -0.05,91.69c0,3.92 -0.7,5.58 -5,5.24c-4.87317,-0.36502 -9.76682,-0.36502 -14.64,0c-3.8,0.27 -4.38,-1.28 -4.36,-4.63c0.11,-29.84 0.06,-59.68 0.06,-89.52c0,-0.9 -0.07,-1.81 -0.11,-2.71c-15.37,-0.73 -30.75,-0.12 -46.12,-0.32c-1.62999,0.09019 -3.26442,0.06011 -4.89,-0.09c-5.07,-0.8 -6.44,-2.36 -6.44,-7.55c0,-13.24 -0.91,-10.72 10.48,-10.75c40,-0.11 80,0 120,0c7.51,0 8.05,0.56 8,7.93c-0.11,10.5 -0.12,10.43 -10.82,10.51c-15.35,0.05 -30.73,-0.45 -46.11,0.2z"/><path fill="#37374F" d="m179.87877,58.33854c1.76,-1.41 3.83,-0.8 5.76,-0.81c14.3,-0.05 28.59,0 42.88,0c6.94,0 7.84,-1.08 7.83,-9.07c0,-7 -1.06,-8.25 -7.53,-8.25c-41.43,0 -82.86,0.06 -124.3,-0.08c-4.12,0 -5,1.3 -5.22,5.25c-0.57,10.28 1.27,12.07 12.24,12.13c12.84,0.07 25.69,0 38.54,0.06c1.92,0 4,-0.63 5.73,0.84c-17.74,0 -35.48,-0.19 -53.22,-0.06c-3.67,0 -5.33,-0.76 -4.92,-4.74c0.48,-4.65 -1.88,-10.63 0.86,-13.67c2.74,-3.04 8.86,-1 13.48,-1c40.19,-0.08 80.39,0 120.58,-0.13c4.42,0 6.44,0.78 5.14,5.68c-0.45873,2.30434 -0.55321,4.66638 -0.28,7c0.41,6.74 0.48,6.73 -6.52,6.75l-51.05,0.1z"/><polygon fill="#2C2D6B" points="175.948773 139.308539 175.948773 71.3085386 177.018773 71.3085386 177.018773 139.308539"/></g></g></g></svg>