<svg  id="fndm-giwb4z9f2a" viewBox="0 0.030000001192092896 1168.6099853515625 94.71000671386719" xmlns="http://www.w3.org/2000/svg">
   <g xmlns="http://www.w3.org/2000/svg" fill="none">
    <path d="m1168.61,30.67c-4.78,13.32 -9.25,26.77 -14.54,39.89c-1.42,3.52 -5.35,6.04 -8.12,9.02c-2.47,-2.82 -5.92,-5.25 -7.22,-8.53c-4.98,-12.59 -9.27,-25.45 -14.81,-40.99c-5.46,14.84 -9.59,27.25 -14.7,39.24c-1.7,3.98 -5.93,6.89 -9.01,10.29c-2.58,-3.3 -6.24,-6.21 -7.55,-9.95c-5.68,-16.23 -10.67,-32.7 -13.78,-50.12c15.44,10.83 13.05,30.75 22.69,47.14c6.7,-17.1 13.03,-33.25 19.36,-49.41c1.91,-0.02 3.82,-0.03 5.73,-0.05c6.19,16.07 12.38,32.14 19.69,51.1c4.7,-14.52 8.16,-26.85 12.82,-38.71c1.68,-4.28 6.21,-7.44 9.44,-11.1l0,12.18zm-1168.61,-12.21c13.67,-0.06 27.34,-0.09 41,-0.18c10.06,-0.07 21.49,0.9 22.81,12.44c0.92,7.99 -4.87,16.75 -7.66,25.17c-1.68,-0.15 -3.35,-0.31 -5.03,-0.46l17.97,21.81c-0.72,1.08 -1.43,2.17 -2.15,3.25c-4.19,-2.58 -9.99,-4.17 -12.29,-7.91c-10.22,-16.68 -24.5,-21.08 -42.42,-16.12c-8.82,5.1 7.92,23.58 -12.23,23.03l0,-61.03zm10.26,28.96c12.78,0 24.43,0.93 35.76,-0.52c3.8,-0.49 9.56,-7.12 9.43,-10.78c-0.13,-3.6 -6.26,-9.5 -10.3,-9.98c-11.32,-1.37 -22.92,-0.48 -34.9,-0.48c0.01,7.89 0.01,13.86 0.01,21.76zm699.35,-47.39c-14.31,15.73 -28.63,31.47 -43.89,48.25c8.11,9.5 16.4,19.2 24.69,28.91c-0.67,0.68 -1.34,1.36 -2,2.04c-9.51,-7.82 -19.03,-15.63 -30.67,-25.2c-13.77,13.55 -27.58,27.13 -41.39,40.71l-6.1,0c13.54,-15.07 27.08,-30.13 41.58,-46.28c-8.06,-9.36 -16.13,-18.72 -24.19,-28.08c0.7,-0.8 1.39,-1.61 2.09,-2.41l28.98,24.04c12.84,-11.51 25.5,-23.12 38.5,-34.35c3.61,-3.13 8.23,-5.12 12.4,-7.63zm-444.45,28.72l0,50.66c-1.55,-0.09 -3.1,-0.17 -4.64,-0.26l0,-59.92c1.07,-1.15 2.15,-2.3 3.22,-3.45c16.18,16.4 32.37,32.81 51.74,52.44l0,-53.07c8.53,10.85 9.77,29.7 6.28,68c-22.06,-15.05 -35.2,-36.11 -56.6,-54.4zm-73.17,49.37l-56.74,0l0,-58.61l54.89,0c0.14,1.47 0.29,2.94 0.43,4.41l-46.41,0c-0.47,7.97 -0.75,12.81 -1.21,20.61l46.04,0l0.18,5.76l-45.22,0l0,22.55l48.13,0l-0.09,5.28zm256.85,4.19c-22.57,-25.21 -45.06,-26.57 -67.48,0.29c-0.45,-1.61 -0.9,-3.22 -1.35,-4.82c9.35,-18.19 18.51,-36.48 28.15,-54.52c3.91,-7.32 9.74,-7.65 13.71,-0.33c9.78,18.03 18.83,36.46 28.17,54.72c-0.4,1.55 -0.8,3.1 -1.2,4.66zm-48.49,-25.56l28.81,0c-4.67,-9.76 -8.81,-18.42 -14.17,-29.63c-5.65,11.43 -9.79,19.8 -14.64,29.63zm160.68,-38.84c8.82,10.71 7.85,46.97 -0.78,55.33c-10.2,9.88 -36.9,10.47 -48.49,1.07c-9.67,-7.84 -11.83,-43.64 0.79,-55.87c0,9.92 -0.03,19.83 0.01,29.75c0.08,20.43 9.46,28.31 29.46,24.86c10.38,-1.79 16.26,-7.07 15.99,-18.4c-0.27,-11.12 0.22,-22.25 0.51,-33.38c0.01,-0.76 1.08,-1.5 2.51,-3.36zm456.42,32.85l-44.61,0l0,21.54l48.3,0l0.15,4.98l-57.21,0l0,-57.64l54.47,0c0.13,1.62 0.27,3.23 0.4,4.85l-46.56,2.07l0,18.31l45.87,0c-0.26,1.96 -0.53,3.93 -0.81,5.89zm-259.44,-32.64c15.61,1.99 15.03,14.39 19.59,22.05c5.12,8.59 8.78,18.05 13.49,28.01c9.08,-17.42 17.37,-33.48 25.99,-49.36c0.44,-0.81 3.65,-0.1 7.35,-0.1c-9.08,19.5 -17.25,37.83 -26.16,55.79c-3.81,7.68 -9.79,7.44 -13.55,-0.07c-8.96,-17.91 -17.21,-36.17 -26.71,-56.32zm127.14,63.26l0,-63.07c10.16,6.48 10.98,51.89 0,63.07z" fill="#000"/>
    <path d="m10.26,47.42l0,-21.76c11.98,0 23.58,-0.89 34.9,0.48c4.03,0.49 10.17,6.38 10.3,9.98c0.13,3.65 -5.63,10.29 -9.43,10.78c-11.35,1.45 -22.99,0.52 -35.77,0.52zm390.09,9.33c4.85,-9.82 8.99,-18.2 14.64,-29.63c5.36,11.21 9.5,19.87 14.17,29.63l-28.81,0z" fill="#FFF"/>
   </g>
  </svg>