<svg  id="fndm-dc25kovqw0" viewBox="0.8042677640914917 0.8806124329566956 519.1991577148438 86.95486450195312" xmlns="http://www.w3.org/2000/svg">
   <path d="m155.74,65c1.53,-2.32 0.93,-4.18 0.93,-5.91c0,-17 0.2,-34 -0.11,-50.95c-0.08,-4.57 1.7,-5.27 5.49,-4.92c3.12,0.3 6.41,-1.14 6.34,4.59c-0.32,24.3 -0.21,48.62 -0.06,72.93c0,3.55 -1.18,4.29 -4.49,4.42c-4.81,0.19 -8.15,-0.94 -11.42,-5c-13.87,-17.44 -28.26,-34.48 -42.46,-51.66c-0.71,-0.87 -1.48,-1.7 -2.58,-3c-1.14,2.73 -0.69,5.19 -0.69,7.52c-0.06,15.82 -0.15,31.64 0.08,47.46c0.05,3.79 -1,4.82 -4.76,4.68c-7,-0.28 -7,0 -7,-7.14c0,-23 0,-46 0.07,-68.94c0,-1.91 -1.42,-5.2 1.36,-5.53c3.3,-0.38 7.2,-1.76 10.14,1.86c8.92,11 18,21.83 27,32.73l22.16,26.86zm-154.85,-35.38c0,-7.83 0.16,-15.66 -0.08,-23.48c-0.1,-3.38 1.1,-4.46 4.26,-4c1.158,0.16 2.332,0.16 3.49,0c3.08,-0.43 4,0.81 3.94,3.88c-0.15,13 -0.12,26 0,39a36.9,36.9 0 0 0 5.74,20.39c5.63,8.6 14.09,10.67 23.61,9.29c9.85,-1.43 16.16,-7.37 19.27,-16.66a45.73,45.73 0 0 0 2.23,-14.76c0,-12.32 0.1,-24.65 -0.07,-37c-0.05,-3.31 1,-4.9 4.23,-4c2.6,0.7 7.48,-2.49 7.55,2.47c0.21,17 1.26,34 -0.46,50.93c-1.8,17.75 -16.17,29.84 -34.5,30.57c-10.85,0.44 -20.85,-1.46 -29,-9.39c-6.69,-6.51 -9.82,-14.56 -10.13,-23.7c-0.28,-7.88 -0.07,-15.71 -0.08,-23.54zm369.48,55.47c-4.09,1.32 -6.2,-1.3 -7.5,-5.49c-1,-3.16 -2.82,-6.1 -3.52,-9.3c-1.15,-5.33 -4.25,-6.43 -9.25,-6.23c-9.14,0.38 -18.3,0.2 -27.46,0.05c-2.76,-0.05 -4.25,0.85 -5.13,3.49c-1.21,3.62 -3.23,7 -4.08,10.71c-1.35,5.82 -4.7,7.21 -10.3,6.94c-4.39,-0.2 -4.85,-1 -3.2,-4.93a6130.04,6130.04 0 0 0 29.83,-72.94c1.29,-3.22 2.79,-4.26 6.12,-4.22c9.7,0.14 9.6,0.05 13.18,9.19c8.74,22.27 17.6,44.49 26.39,66.74c2.34,5.92 2.32,5.92 -5.08,5.99zm-32.28,-68.14c-5,12.19 -9.4,22.92 -13.82,33.65c-1,2.38 -0.24,3.27 2.33,3.25c7.64,-0.07 15.28,0 22.92,0c2.16,0 3.22,-0.63 2.3,-2.93c-4.4,-10.83 -8.79,-21.69 -13.73,-33.97zm143.71,-13.4c5.83,-2.06 7.55,1.6 9.37,6.29a4838.421,4838.421 0 0 0 28.1,70.94c1.53,3.78 0.73,4.37 -3,4.31c-8,-0.12 -8,0 -11.14,-7.71c-1.74,-4.31 -2.53,-9.91 -5.73,-12.46c-3.2,-2.55 -9,-0.68 -13.63,-0.77c-6.49,-0.11 -13,0.19 -19.47,-0.1c-3.46,-0.16 -5.15,1.07 -6.09,4.28c-0.88,3 -2.26,5.89 -3.39,8.84c-3.14,8.16 -3.14,8 -12,7.93c-3.28,0 -3.54,-0.81 -2.34,-3.69c7.4,-17.81 14.62,-35.69 21.92,-53.55c2.45,-6 5.33,-11.85 7.29,-18c1.69,-5.3 4.28,-8.02 10.11,-6.31zm-0.8,13.37c-5.27,13 -10,24.73 -14.95,36.9c9.31,0 17.8,-0.09 26.27,0c3.15,0.05 3.24,-1.07 2.21,-3.55c-2.68,-6.45 -5.16,-13 -7.77,-19.45c-1.67,-4.19 -3.48,-8.39 -5.76,-13.9zm-218.91,-15.99c10.69,-0.54 19.81,3.39 28.15,9.74c2.34,1.78 2.52,3.23 0.26,5c-0.135,0.1 -0.26,0.214 -0.37,0.34c-5,5.5 -5,5.5 -11,1.67c-13.59,-8.66 -31.58,-5.88 -41.52,6.43c-10.3,12.75 -9.64,30.19 1.59,41.87c11.149,11.483 29.099,12.88 41.89,3.26c1.32,-1 2.49,-3.49 4.56,-1.81a45.88,45.88 0 0 1 6.93,7.07c0.65,0.82 -1,1.92 -1.85,2.63c-13.74,11.23 -29.24,13.61 -45.44,7.21c-16,-6.32 -25.4,-18.81 -26.82,-36.08c-1.91,-23.25 12.4,-42 34.64,-46.8c2.98,-0.65 5.98,-0.37 8.98,-0.53zm145,86.48c-5.58,0.49 -11.66,-1.13 -17.62,-3.43c-6.31,-2.45 -1.64,-6.35 -1,-9.42c0.89,-4.35 3.29,-0.87 4.74,-0.26a37.06,37.06 0 0 0 20.48,2.85c6.05,-0.95 10.51,-4.85 11.69,-10.14c1.34,-6 -0.77,-10.95 -6.13,-14.61c-4.45,-3.05 -9.64,-4.46 -14.5,-6.6c-12.07,-5.31 -17.35,-13.56 -16.81,-24.47c0.49,-10.18 13,-21.35 24.35,-19.73c5.19,0.74 10.77,-1 16.18,0.72c5.7,1.82 7.16,6.76 3.19,11.16c-1.4,1.56 -2.43,0.19 -3.5,-0.27a31.34,31.34 0 0 0 -17.68,-2.12c-5.72,0.93 -9.76,4.61 -10.59,9.86c-0.83,5.25 1.59,9.25 6,12.18c4.78,3.15 10.25,4.76 15.37,7.15c12.47,5.82 18,14.95 16.1,26.28c-2.12,12.35 -11.74,20.4 -24.95,20.86c-1.48,0.04 -2.98,-0.01 -5.32,-0.01zm-219.32,-43.85c0,-12.15 0.1,-24.3 -0.08,-36.44c0,-3.1 0.91,-4 3.95,-3.93c7.74,0.13 7.75,0 7.78,7.68l0,2c0,22.29 -0.14,44.59 0.12,66.88c0,4.53 -1.29,5.72 -5.59,5.4c-3.6,-0.26 -6.57,0.48 -6.33,-5.17c0.47,-12.12 0.16,-24.28 0.15,-36.42z" fill="#2A2728"/>
  </svg>