<svg  id="fndm-tjhuvj79l8" viewBox="0.738908052444458 0.6325798034667969 411.2102966308594 179.2210235595703" xmlns="http://www.w3.org/2000/svg">
   <g xmlns="http://www.w3.org/2000/svg" fill="none">
    <path d="m267.05,117.96c14.91,0.42 25.29,8.77 27.02,23.48c1.2,10.2 0.34,20.62 0.64,30.94c0.14,4.9 -2.11,7 -6.72,6.61c-4.17,-0.35 -10.55,2.28 -10.11,-5.65c0.47,-8.58 -5.46,-7.62 -10.29,-6.92c-4.6,0.67 -12.57,-4.3 -12.87,5.49c-0.25,8.21 -5.6,7.02 -10.72,7.14c-7.85,0.18 -5.77,-5.67 -6.01,-9.93c-0.23,-4.21 -0.05,-8.44 -0.05,-12.67c0.02,-27.56 8.72,-39.06 29.11,-38.49zm-0.72,14.61c-8.1,-0.21 -11.21,5.38 -11.75,12.92c-0.67,9.26 6.25,5.69 11.07,6.69c3.59,-2.42 12.17,4.42 12.01,-6.07c-0.11,-7.27 -3.24,-13.33 -11.33,-13.54zm-84.84,-13.25c10.32,0.48 20.85,-0.29 30.91,1.55c13.34,2.44 21.86,17.41 14.3,27.91c-8.07,11.19 -6.77,19.14 2.11,28.72c-10.44,2.85 -17.88,2.73 -22.68,-6.92c-2,-4.02 -4.45,-8.73 -10.55,-7.35c-5.71,1.3 -3.28,6.06 -3.37,9.27c-0.21,7.35 -5.2,6.3 -9.88,6.61c-5.76,0.38 -7.26,-2.53 -7.21,-7.66c0.15,-15.05 0.14,-30.1 0.03,-45.15c-0.03,-4.5 1.28,-7.21 6.34,-6.98zm19.1,13.39c-6.81,-0.91 -8.76,2.23 -8.77,8.66c-0.01,5.92 1.67,8.81 7.68,7.72c6.26,0.3 11.9,-0.77 11.91,-8.24c-0.01,-6.67 -5.59,-7.44 -10.82,-8.14z" fill="#030E77"/>
    <path d="m58.12,150.05c0,7.06 -0.11,14.12 0.04,21.17c0.1,4.86 -1.44,9.9 -6.73,7.52c-9.69,-4.36 -18.16,0.43 -27.2,1.05c-12.87,0.88 -21.67,-7.43 -22.93,-21.55c-0.88,-9.81 0.12,-19.77 -0.51,-29.61c-0.49,-7.62 2.53,-9.43 9.69,-9.55c8.34,-0.14 7.44,4.83 7.41,10.06c-0.05,8 -0.15,16 0.11,23.99c0.23,7.11 4.07,11.82 11.27,11.83c6.99,0.01 11.4,-4.08 11.64,-11.44c0.26,-7.99 0.52,-16 0.22,-23.98c-0.25,-6.67 1.02,-10.49 9.08,-10.45c7.68,0.04 8.18,4.01 7.98,9.79c-0.26,7.05 -0.07,14.12 -0.07,21.17z" fill="#020E77"/>
    <path d="m141.04,119.17c6.11,-0.02 12.23,0.19 18.33,-0.08c5.7,-0.25 8.62,1.27 8.4,7.81c-0.19,5.49 -2.07,8.11 -7.45,7.21c-10.08,-1.69 -11.9,3.51 -11.3,12.06c0.56,7.95 -0.15,15.98 0.2,23.95c0.28,6.47 -1.75,9.21 -8.76,9.2c-7.37,-0.02 -8.61,-3.58 -8.35,-9.65c0.27,-6.57 -0.25,-13.17 0.13,-19.73c0.56,-9.52 0.95,-18.16 -13.06,-15.95c-5.58,0.88 -5.12,-3.88 -5.29,-7.67c-0.2,-4.35 0.78,-7.3 6,-7.18c7.04,0.17 14.1,0.05 21.15,0.03z" fill="#0A157B"/>
    <path d="m71.77,147.47c0,-6.1 0.34,-12.22 -0.09,-18.29c-0.49,-6.89 1.32,-10.16 9.15,-10.15c7.62,0 8.36,3.73 7.97,9.57c-0.25,3.74 -0.15,7.51 -0.02,11.26c0.25,7.44 -1.8,16.34 1.6,21.89c3.52,5.76 12.98,1.9 19.8,2.13c5.81,0.2 6.92,2.82 6.98,7.86c0.05,5.36 -1.79,7.91 -7.32,7.39c-1.86,-0.18 -3.75,-0.03 -5.63,-0.01c-32.44,0.24 -32.44,0.24 -32.44,-31.65z" fill="#071379"/>
    <path d="m351.58,66.04c18.08,-3.52 36.35,-0.76 54.5,-1.61c5.15,-0.24 6.57,2.47 5.57,7.07c-1.25,5.76 -0.79,12.47 -9.96,12.29c-17.36,-0.35 -34.72,-0.16 -52.09,-0.2c-5.59,-6.55 1.81,-11.64 1.98,-17.55z" fill="#06E607"/>
    <path d="m356.21,47.13c-2.31,6.78 -7.13,9.16 -14.14,8.99c-12.72,-0.31 -25.46,0.19 -38.17,-0.25c-3.65,-0.13 -10.83,3.39 -9.65,-5.45c0.78,-5.82 0.49,-12.85 9.69,-12.72c12.25,0.18 24.51,-0.19 36.76,0.1c6.99,0.17 13.06,-0.91 16.99,-7.38c4.7,6.04 2.64,11.46 -1.48,16.71z" fill="#0192FE"/>
    <path d="m351.58,66.04l-1.98,17.56c-1.91,6.2 -6.11,8.98 -12.61,8.87c-9.36,-0.16 -18.74,-0.29 -28.1,0.04c-10.87,0.38 -12.47,-8.75 -12.68,-15.12c-0.25,-7.51 7.82,-3.64 12.09,-3.93c9.32,-0.64 18.74,-0.54 28.08,-0.09c6.67,0.32 11.8,-1.43 15.2,-7.33z" fill="#0895FE"/>
    <path d="m356.21,47.13c0.5,-5.57 0.99,-11.13 1.49,-16.7c13.7,-4.5 27.79,-1.85 41.66,-1.78c9.15,0.05 10.4,9.49 10.73,15.67c0.28,5.36 -6.68,2.73 -10.27,2.81c-14.54,0.32 -29.08,0.05 -43.61,0z" fill="#08E709"/>
    <path d="m362.98,11.13c-2.27,4.97 -5.49,8.95 -11.44,9.02c-12.97,0.15 -25.93,0.05 -42.88,0.05c17.59,-16.86 34.49,-22.4 54.63,-18.25c2.37,3.14 1.9,6.19 -0.31,9.18z" fill="#0E98FE"/>
    <path d="m345.9,101.31l51.06,0c-16.98,15.13 -33.55,22.02 -53.84,17.59c-5.8,-6.93 1.69,-11.75 2.78,-17.59z" fill="#04E605"/>
    <path d="m345.9,101.31c-0.93,5.86 -1.85,11.73 -2.78,17.59c-7.53,-0.37 -14.36,-2.51 -21.78,-8.9c9.99,-0.76 19.57,0.6 24.56,-8.69z" fill="#159EF7"/>
    <path d="m362.98,11.13c0.1,-3.06 0.21,-6.12 0.31,-9.18c7.07,-0.14 13.1,2.55 22.63,9.18l-22.94,0z" fill="#0EE713"/>
   </g>
  </svg>