<svg  id="fndm-ojwm34t7sv" viewBox="45 55.999996185302734 510 138" xmlns="http://www.w3.org/2000/svg">
   <g xmlns="http://www.w3.org/2000/svg" fill="none">
    <path d="m553.47,56c-3.167,0 -11.47,3.903 -18.57,10.949c-7.1,7.046 -11.032,15.285 -11.032,27.86l0,46.072c0,18.538 -12.235,26.451 -30.368,26.451s-30.368,-7.913 -30.368,-26.45l0,-46.074c0,-12.575 -3.932,-20.705 -11.033,-27.86c-7.099,-7.045 -15.402,-10.948 -18.569,-10.948c-1.092,0 -1.529,0.867 -1.529,1.518l0,86.29c-0.001,37.509 32.769,50.192 61.499,50.192c28.838,0 61.5,-12.683 61.5,-50.192l0,-86.29c0,-0.65 -0.437,-1.518 -1.53,-1.518z" fill="#8FB435"/>
    <path d="m76.452,132.641c0,8.302 -2.85,11.069 -9.863,11.069c-7.233,0 -9.425,-2.435 -9.425,-11.069l0,-34.866l-12.164,0l0,32.985c0,18.263 8.22,24.13 21.48,24.13c15.013,0 21.588,-8.745 21.588,-24.13l0,-32.985l-11.616,0l0,34.866zm64.22,21.474l12.273,0l0,-56.34l-12.274,0l0,56.34l0.001,0zm65.205,-56.34l-11.288,42.06l-0.329,0l-11.945,-42.06l-13.808,0c-2.192,18.927 -5.041,56.34 -5.041,56.34l10.301,0l3.068,-39.073l0.33,0l10.958,39.073l11.617,0l10.63,-39.073l0.438,0l2.411,39.073l11.726,0s-2.85,-37.523 -4.822,-56.34l-14.246,0zm29.37,56.34l12.273,0l0,-56.34l-12.274,0l0,56.34l0.001,0zm56.766,-19.37l-0.328,0.11c-0.658,-2.214 -19.398,-36.97 -19.398,-36.97l-12.712,0l0,56.34l10.959,0l0,-38.851l0.329,-0.11l20.164,38.961l11.945,0l0,-56.45l-11.068,0l0.11,36.97l-0.001,0zm34.083,-36.97c-6.357,19.149 -16.768,56.34 -16.768,56.34l11.179,0l3.726,-13.504l16,0l3.616,13.504l12.493,0s-10.74,-37.523 -16.657,-56.34l-13.59,0l0.001,0zm0.986,32.652l4.931,-20.034l0.33,0l5.04,20.034l-10.301,0zm-218.082,-17.267c0,-3.652 2.52,-5.534 6.356,-5.755c4.932,-0.332 13.37,1.66 13.37,1.66l0,-10.847c-0.11,0 -6.247,-1.218 -11.397,-1.218c-12.274,0 -21.041,5.866 -21.041,16.824c0,17.268 23.013,15.386 23.013,24.794c0,3.764 -1.972,5.535 -6.575,5.977c-6.356,0.554 -15.562,-3.32 -15.562,-3.32l0,11.622s6.356,2.103 14.137,2.103c11.945,0 20.603,-5.645 20.603,-17.489c0.11,-16.381 -22.904,-15.828 -22.904,-24.35l0,-0.001zm265.096,0c0,-3.652 2.52,-5.534 6.356,-5.755c4.931,-0.332 13.37,1.66 13.37,1.66l0,-10.847c-0.11,0 -6.247,-1.218 -11.398,-1.218c-12.274,0 -21.04,5.866 -21.04,16.824c0,17.268 23.013,15.386 23.013,24.794c0,3.764 -1.973,5.535 -6.575,5.977c-6.357,0.554 -15.562,-3.32 -15.562,-3.32l0,11.622s6.356,2.103 14.137,2.103c11.945,0 20.603,-5.645 20.603,-17.489c0.11,-16.381 -22.904,-15.828 -22.904,-24.35l0,-0.001z" fill="#000"/>
   </g>
  </svg>