<svg  id="fndm-2dza714ggi" viewBox="2.390000104904175 2.39031982421875 104.70500183105469 40.75168228149414" xmlns="http://www.w3.org/2000/svg">
   <g xmlns="http://www.w3.org/2000/svg" fill-rule="evenodd">
    <path d="m50.97,14.62c-7.158,5.373 -13.782,4.794 -19.876,-1.735c12.353,-4.735 18.862,-12.051 25.203,-5.778l-4.703,6.728l-0.008,0l0,0.01l-0.008,0l0,0.001l-0.001,0l0,0.01l-0.01,0l0,0.003l-0.008,0l0,0.001c-0.005,0 -0.003,0.005 -0.006,0.005l0,0.003l-0.001,0l0,0.003l-0.002,0l-0.001,0.006l-0.002,0l-0.002,0.004l-0.001,0c0,0.003 -0.003,0.003 -0.003,0.005l-0.002,0l0,0.005c-0.009,0 -0.015,0.013 -0.02,0.013l-0.001,0l-0.001,0.005l0.002,0l0,0.001l-0.002,0l-0.004,0.007l-0.009,0.006l0,0.003l-0.002,0c0,0.006 -0.012,0.021 -0.017,0.024l0,0.002l-0.002,0l0,0.015l-0.003,0l0,0.004l-0.002,0l0,0.007l-0.005,0.002l-0.002,0l-0.005,0.004l0,0.002c-0.003,0.001 -0.005,0.003 -0.005,0.008l-0.003,0.004l-0.012,0.005l0,0.002l-0.003,0.002a0.722,0.722 0 0 0 -0.063,0.08l-0.002,0.004l-0.002,0c0,0.006 -0.006,0.013 -0.006,0.022l-0.001,0l0,0.003c-0.009,0.004 -0.026,0.024 -0.036,0.024l0,0.003c-0.018,0.009 -0.033,0.025 -0.053,0.033l0,0.003l-0.007,0l0,0.003l-0.002,0l-0.003,0.006c-0.004,0 -0.005,0.003 -0.009,0.003l0,0.002l-0.015,0.01l0,0.005l-0.003,0l0,0.002a0.163,0.163 0 0 1 -0.03,0.02l-0.012,0.015l-0.003,0l0,0.003l-0.004,0.008l0,0.003l-0.006,0c0,0.122 -0.172,0.167 -0.172,0.246l-0.003,0c0,0.009 -0.02,0.027 -0.02,0.039l-0.003,0c-0.003,0.004 -0.013,0.014 -0.013,0.018l-0.003,0c-0.008,0.009 -0.003,0.047 -0.003,0.058" fill="#ecb833"/>
    <path d="m51.604,13.822c-18.664,16.892 -25.982,-23.064 -49.214,-7.942l26.178,37.262" fill="#00939a"/>
    <g clip-rule="evenodd">
     <path d="m55.904,24.35l6.39,13.854l1.468,-0.011l5.614,-13.93l-2.504,-0.085l-3.8,10.294l-4.578,-10.208m11.659,13.842l2.763,0.087l1.123,-3.46l5.874,0l1.12,3.373l2.677,0.087l-5.613,-13.93l-1.986,0" fill="#77787b"/>
     <path d="m75.205,32.57l3.541,0l-1.555,-4.888" fill="#fff"/>
    </g>
   </g>
   <path d="m87.599,38.02l0,-13.215l2.445,0l0,10.97l6.08,0l0,2.245m3.057,-0.086l0,-13.41l7.914,0l0,1.036c-0.577,0.36 -1.124,0.816 -1.659,1.233l-4.157,0l0,2.972l5.216,0l0,2.26l-5.216,0l0,3.648l5.803,0l0,2.261" fill="#77787b"/>
  </svg>