<svg xmlns="http://www.w3.org/2000/svg" fill-rule="evenodd" clip-rule="evenodd" image-rendering="optimizeQuality" shape-rendering="geometricPrecision" text-rendering="geometricPrecision" viewBox="-2 1.0099999904632568 6599.990234375 3299.989990234375"><defs><linearGradient id="a" x1="3486.31" x2="3486.31" y1="826.09" y2="2018.98" gradientUnits="userSpaceOnUse"><stop offset="0" stop-color="#848688"/><stop offset="1" stop-color="#373435"/></linearGradient></defs><g><g><g><g><rect width="6599.99" height="3299.99" x="-2" y="1.01" fill="#ed3237"/><g><path fill="#fefefe" fill-rule="nonzero" d="M1743.98 2196.89c0,58.82 -20.66,88.25 -62.03,88.25 -20.58,0 -36.11,-7.48 -46.55,-22.5 -10.44,-14.97 -15.66,-36.92 -15.66,-65.75 0,-58.74 20.7,-88.08 62.08,-88.08 20.19,0 35.63,7.35 46.24,22.07 4.47,6.17 7.99,13.65 10.57,22.41l-38.57 0c-0.32,-0.9 -0.65,-1.73 -1,-2.47 -3.64,-7.67 -9.37,-11.47 -17.24,-11.47 -7.83,0 -13.52,3.85 -17.16,11.55 -3.59,7.66 -5.39,23.01 -5.39,45.99 0,22.58 1.8,37.86 5.35,45.82 3.55,7.91 9.28,11.89 17.2,11.89 7.78,0 13.52,-3.81 17.15,-11.42 2.63,-5.51 4.32,-15.08 5.06,-28.76l-19.35 0 0 -26.74 19.66 0 31.28 0 8.17 0c0.13,2.98 0.19,6.05 0.19,9.21zm881.07 0c0,58.82 -20.66,88.25 -62.03,88.25 -20.58,0 -36.11,-7.48 -46.55,-22.5 -10.43,-14.97 -15.65,-36.92 -15.65,-65.75 0,-58.74 20.7,-88.08 62.07,-88.08 20.19,0 35.63,7.35 46.24,22.07 10.62,14.67 15.92,36.7 15.92,66.01zm-39.53 0c0,-23.06 -1.8,-38.42 -5.39,-46.07 -3.63,-7.67 -9.37,-11.47 -17.24,-11.47 -7.83,0 -13.52,3.85 -17.15,11.55 -3.6,7.66 -5.39,23.01 -5.39,45.99 0,22.58 1.79,37.86 5.34,45.82 3.55,7.91 9.28,11.89 17.2,11.89 7.78,0 13.52,-3.81 17.16,-11.42 3.63,-7.62 5.47,-23.02 5.47,-46.29zm-289.39 -85.52l49.28 0c14.94,0 26.53,1.24 34.78,3.77 8.22,2.48 15.15,8.17 20.76,16.98 5.6,8.81 8.38,19.72 8.38,32.77 0,12.53 -2.27,22.89 -6.76,31.1 -4.53,8.17 -10.78,14.12 -18.78,17.75 -8,3.64 -20.28,5.43 -36.88,5.43l-13.3 0 0 63.41 -37.48 0 0 -171.21zm37.48 27.73l0 50.82 11.72 0c10.35,0 17.03,-2.4 19.98,-7.19 2.99,-4.75 4.49,-10.95 4.49,-18.61 0,-6.46 -1.15,-11.68 -3.46,-15.66 -2.31,-3.98 -5.01,-6.55 -8.09,-7.65 -3.04,-1.16 -7.36,-1.71 -12.92,-1.71l-11.72 0zm-265.78 -27.73l37.47 0 0 97.84c0,13.78 0.64,23.4 1.88,28.83 1.24,5.44 3.85,9.54 7.84,12.37 3.98,2.78 8.81,4.19 14.58,4.19 6.29,0 11.25,-1.54 14.93,-4.62 3.64,-3.12 5.9,-7.23 6.77,-12.32 0.8,-5.09 1.24,-14.59 1.24,-28.45l0 -97.84 31.56 0 0 96.3c0,19.2 -1.11,33.54 -3.33,42.99 -2.18,9.46 -7.83,17.55 -16.9,24.35 -9.07,6.75 -21.51,10.13 -37.39,10.13 -14.88,0 -26.57,-2.48 -35.08,-7.44 -8.55,-5 -14.59,-11.98 -18.18,-20.96 -3.6,-8.99 -5.39,-24.86 -5.39,-47.57l0 -97.8zm-218.04 0l53.74 0c10.39,0 18.39,0.47 23.95,1.46 5.56,0.94 11.17,3.55 16.85,7.74 5.66,4.23 10.1,10.01 13.31,17.32 3.21,7.32 4.84,15.53 4.84,24.65 0,21.38 -8,36.45 -24.01,45.13l31.45 74.91 -40.64 0 -22.89 -67.77 -19.12 0 0 67.77 -37.48 0 0 -171.21zm37.48 27.73l0 47.99 16.51 0c14.68,0 21.99,-8.21 21.99,-24.68 0,-5.69 -1.07,-10.35 -3.25,-13.99 -2.18,-3.64 -4.71,-6.07 -7.57,-7.4 -2.87,-1.28 -7.1,-1.92 -12.66,-1.92l-15.02 0zm3045.99 324.22l0 126.63c-277.42,-137.78 -352.59,3.79 -289.04,63.46 64.58,60.63 333.58,40.33 333.58,236.19 0,208.5 -276.34,247.78 -480.29,134.89l0 -139.02c266.12,174.09 394.47,41.68 323.3,-26.48 -65.08,-62.35 -333.12,-58.4 -336.51,-252.58 -3.35,-191.7 256.29,-227.09 448.96,-143.09zm-857.57 498.46c60.64,0 109.52,-19.1 146.49,-57.47 37.14,-38.21 55.63,-88.57 55.63,-150.86 0,-62.61 -18.49,-112.94 -55.63,-151.14 -36.97,-38.05 -85.85,-57.16 -146.49,-57.16 -60.93,0 -110.01,19.11 -147.3,57.16 -37.12,38.2 -55.79,88.53 -55.79,151.14 0,62.29 18.67,112.65 55.79,150.86 37.29,38.37 86.37,57.47 147.3,57.47zm-0.02 -541.69c104.08,0 188.27,33.42 252.76,100.2 64.35,66.96 96.6,144.68 96.6,233.32 0,90.1 -32.68,168.12 -97.92,234.13 -65.27,66.01 -149.17,99.09 -251.44,99.09 -103.49,0 -187.68,-32.93 -252.79,-98.6 -64.93,-65.85 -97.49,-143.9 -97.49,-234.62 0,-88.95 32.25,-166.82 96.9,-233.47 64.5,-66.63 148.99,-100.05 253.38,-100.05zm-787.79 341.91l230.09 -332.39 119.87 0 0 647.73 -138.63 0 0 -404.46 -178.2 257.01 -65.69 0 -177.79 -257.01 0 404.46 -138.67 0 0 -647.73 119.18 0 229.84 332.39zm-649.32 56.28l-108.87 -277.65 -98.65 277.65 207.52 0zm-29.63 -388.67l278.26 647.73 -140.57 0 -50.31 -128.23 -318.84 0 -45.52 128.23 -138.14 0 253.13 -647.73 161.99 0zm-346 0l-259.29 657.22 -112.19 0 -273.27 -657.22 147.56 0 180.17 462.49 171.59 -462.49 145.43 0z"/><path fill="#e6e7e8" d="M3271.33 2420.64l631.4 -1013.86c80.24,-128.85 117.43,-279.35 117.43,-442.76 0,-413.57 -335.26,-748.83 -748.83,-748.83 -413.55,0 -748.81,335.26 -748.81,748.83 0,163.41 37.19,313.91 117.43,442.76l631.38 1013.86z"/><path fill="#5cc6d0" d="M3271.33 356.58c281.25,0 517.82,191.15 586.97,450.62 -58.04,-47.29 -120.13,-105.09 -145.17,-116.11l0.22 1.11c-0.99,-0.29 -2.04,-0.4 -3.16,-0.28 -51.98,5.38 -82.34,72.96 -116.39,111.51 -59.13,-62.89 -115.56,-131.31 -175.28,-216.77l-0.02 3.56c-11.62,-15.64 -42.01,-28.11 -58.74,-18.64 -77.54,43.93 -122.44,105.41 -193.36,159.39 -57.2,43.54 -113.98,90.37 -179.98,118.87 -17.92,7.73 -37.19,-22 -56.04,-16.98 -29.09,7.75 -50.15,34.98 -76.26,49.63l-57.06 -86.12c-7.61,-11.31 -18.94,-16.34 -29.41,-14.31l-0.01 0c-26.58,-0.55 -61.06,20.14 -87.86,43.5 62.65,-268.77 303.72,-468.98 591.55,-468.98zm-527.18 472.85c-0.86,2.83 -1.92,5.66 -2.97,8.44 1.05,-2.78 2.11,-5.6 2.97,-8.44zm-8.59 58.11c-0.92,4.16 -1.92,8.26 -2.97,12.29 1.05,-4.03 2.05,-8.13 2.97,-12.29zm-2.81 16.68c-0.96,2.65 -1.94,5.26 -2.97,7.85 1.03,-2.59 2.01,-5.21 2.97,-7.85zm-4.14 16.19c-0.98,2.27 -1.95,4.52 -2.97,6.74 1.02,-2.22 1.99,-4.47 2.97,-6.74zm-2.36 7.61c-0.97,2.2 -1.95,4.39 -2.97,6.56 1.02,-2.17 2,-4.36 2.97,-6.56zm-8.19 22.11c-0.96,2.03 -1.96,4.05 -2.97,6.05 1.01,-2 2.01,-4.02 2.97,-6.05zm-47.39 75l-3.32 3.65 0 -0.01 3.32 -3.64z"/><path fill="#21b354" d="M3858.3 807.2c13.33,50.02 20.48,102.58 20.48,156.82 0,335.48 -271.96,607.43 -607.45,607.43 -313.59,0 -571.65,-237.64 -603.98,-542.67 51.9,-55.83 70.82,-119.63 75.38,-215.43 7.07,-37.07 38.76,-40.18 54.33,-16.98 62.26,93.95 124.52,187.92 186.78,281.87 170.37,-11.31 299.97,28.3 404.12,67.93 47.54,0 95.09,0 142.63,0 -61.69,-61.14 -142.07,-137.54 -241.12,-183.39 5.66,-43.02 1.75,-88.43 16.98,-129.05 16.1,-42.93 55.18,-74 74.72,-115.47 18.17,-38.53 37.64,-88.31 37.35,-131.6 98.48,140.93 188.02,235.54 295.46,335.36 37.86,35.17 80.37,60.85 125.65,85.76 -48.68,-46.42 -93.95,-105.56 -142.63,-151.97 7.93,-50.95 21.79,-137.55 16.13,-164.72 25.04,11.02 87.13,68.82 145.17,116.11z"/><path fill="#074" d="M2667.34 1028.78c51.91,-55.83 70.82,-119.63 75.39,-215.43 3.63,-19.08 13.8,-29.16 24.92,-31.29 -26.57,-0.55 -61.07,20.14 -87.87,43.5 -10.38,44.47 -15.88,90.82 -15.88,138.46 0,21.88 1.18,43.48 3.44,64.76zm1046.01 -336.58c-0.99,-0.29 -2.04,-0.4 -3.16,-0.28 -51.98,5.38 -82.34,72.96 -116.39,111.51 38.38,40.82 77.89,79.3 120.18,118.59 37.86,35.17 80.37,60.85 125.65,85.76 -48.68,-46.42 -93.95,-105.56 -142.63,-151.97 7.82,-50.28 21.43,-135.27 16.35,-163.61zm-294.85 -101.98c-11.62,-15.64 -42.01,-28.11 -58.74,-18.64 -77.54,43.93 -122.44,105.41 -193.36,159.39 -57.2,43.54 -113.98,90.37 -179.98,118.87 -17.92,7.73 -37.19,-22 -56.04,-16.98 -29.09,7.75 -50.15,34.98 -76.26,49.63l129.72 195.75c170.37,-11.31 299.97,28.3 404.12,67.93 47.54,0 95.09,0 142.63,0 -61.69,-61.14 -142.07,-137.54 -241.12,-183.39 5.66,-43.02 1.75,-88.43 16.98,-129.05 16.1,-42.93 55.18,-74 74.72,-115.47 17.67,-37.48 36.57,-85.6 37.33,-128.04z"/><path fill="#fefefe" d="M3039.32 1052.78l149.24 -239.65c18.95,-30.45 27.74,-66.02 27.74,-104.65 0,-97.75 -79.24,-176.99 -176.98,-176.99 -97.76,0 -177.01,79.24 -177.01,176.99 0,38.63 8.8,74.2 27.76,104.65l149.25 239.65zm0 -453.11c44.4,0 80.39,36 80.39,80.4 0,44.4 -35.99,80.39 -80.39,80.39 -44.4,0 -80.4,-35.99 -80.4,-80.39 0,-44.4 36,-80.4 80.4,-80.4z"/><path fill="url(#a)" d="M3521.47 2018.97c4.47,-250.9 6.18,-687.64 -210.57,-845.48 -75.14,-54.72 -208.29,-101.33 -323.46,-96.59 -9.11,-10.4 -17.05,-23.53 -22.93,-32.47 265.51,-25.97 651.01,50.48 955.67,332.77 -5.58,9.98 -11.39,19.84 -17.45,29.58l-381.26 612.19z"/><path fill="#fefefe" d="M3771.78 1617.03l16.97 -27.23c-101.79,-205.84 -241,-393.85 -456.72,-465.8 233.58,100.33 338.8,265.35 439.75,493.03zm27.8 -44.62l17.13 -27.52c-112.41,-191.09 -264.69,-362.49 -476.98,-420.89 211.71,71.58 346.38,236.07 459.85,448.41z"/><path fill="#fff212" d="M3537.29 1993.58l31.39 -50.4c-1.93,-97.96 -11.72,-208.63 -22.05,-300.94 -18.74,-167.5 -60.15,-369.37 -204.6,-474.55 -40.45,-29.46 -140.31,-87.46 -212.89,-101.66 147.95,2.01 242.74,35.01 325.85,62.34 175.19,57.6 313.55,157.69 443.35,285.46l4.39 -7.05c3.27,-5.25 6.45,-10.54 9.58,-15.87 -132.57,-123.5 -289.91,-215.77 -462.69,-272.59 -144.36,-47.47 -220.59,-54.78 -336.61,-55.13 73,24.11 144.46,52.33 206.96,97.85 140.31,102.17 186.54,311.22 204.73,473.76 12,107.2 14.14,215.54 13.06,323.33 -0.12,11.82 -0.29,23.63 -0.47,35.45z"/></g></g></g></g></g></svg>