<svg xmlns="http://www.w3.org/2000/svg" viewBox="0.000010000000656873453 0.00014000000373926014 222 111"><g xmlns="http://www.w3.org/2000/svg" fill="none" fill-rule="evenodd"><g transform="translate(0.000010, 0.000140)"><rect width="222" height="111"/><path fill="#008F4F" d="m121.06501,40.24658l7.03437,0l-6.09693,29.9848l-7.0347,0l6.09726,-29.9848zm31.60271,0l6.37745,0l0.65692,0l3.00709,0c4.05688,0 7.62469,3.12078 7.42321,7.65631c-0.14733,3.34278 -3.14264,6.08415 -7.10232,7.12116c2.35993,1.22335 4.68723,2.72824 3.54561,7.35963c-1.39826,5.66907 -1.50556,6.3048 -1.258,7.8477l-5.86988,0c-1.00505,-2.38885 0.04507,-5.04915 0.78171,-8.74243c0.55298,-2.77365 -0.24218,-4.14063 -2.80157,-4.14063l-1.20351,0l-2.6196,12.88306l-7.03438,0l6.09727,-29.9848zm6.02595,4.95968l-1.51094,7.43061c3.87322,0.10596 6.02864,-1.27212 6.35862,-4.12348c0.22536,-1.95427 -0.69392,-3.47295 -4.84768,-3.30713zm-27.70694,-4.95968l6.37745,0l0.65692,0l3.00709,0c4.05688,0 7.62469,3.12078 7.42321,7.65631c-0.14733,3.34278 -3.14265,6.08415 -7.10232,7.12116c2.35993,1.22335 5.20758,3.24557 4.06428,7.8783c-1.39961,5.67042 -4.8803,7.32903 -9.77102,7.32903l-3.7185,0l-0.54256,0l-6.49182,0l6.09727,-29.9848zm6.02595,4.95968l-1.51094,7.43061c3.87322,0.10596 6.02864,-1.27212 6.35861,-4.12348c0.22537,-1.95427 -0.69391,-3.47295 -4.84767,-3.30713zm-2.46924,12.14206l-1.74977,8.60519l1.33974,0c2.21966,0 4.61726,-1.60042 5.10768,-4.06092c0.55366,-2.77365 -0.93408,-4.54427 -3.49414,-4.54427l-1.20351,0zm-74.04407,12.88306l5.31589,-12.77004l1.80426,-4.33405l5.36231,-12.88071l5.81472,0l1.21965,0l2.09218,0l-0.03633,29.9848l-7.03437,0l3.23313,-25.79236l-3.61658,8.68827l-5.31623,12.76971l-1.80425,4.33438l-5.36231,12.88037l-5.81472,0l-1.21966,0l-6.27654,0l6.31287,-30.68208l4.09086,-20.34899l-3.39896,8.1659l-12.48279,29.9848l-5.81472,0l-1.21965,0l-2.09218,0l0.03632,-29.9848l7.03438,0l-3.23313,25.79203l3.39929,-8.1659l12.48245,-29.98446l5.81472,0l1.21966,0l6.27654,0l-6.31287,30.68208l-4.09086,20.34899l3.61692,-8.68794zm112.67005,0l-7.03437,0l12.48245,-29.9848l5.81472,0l1.21965,0l2.09218,0l-0.03632,29.9848l-7.03438,0l3.23313,-25.79236l-10.73706,25.79236zm-60.40822,-29.9848l7.03471,0l-12.48246,29.9848l-5.81505,0l-1.21965,0l-2.09219,0l0.03633,-29.9848l7.03437,0l-3.23279,25.79203l10.73673,-25.79203z"/></g></g></svg>