<svg xmlns="http://www.w3.org/2000/svg" viewBox="0.5729999542236328 0.09940900653600693 800.5307006835938 579.328857421875"><g xmlns="http://www.w3.org/2000/svg" fill="none" fill-rule="evenodd"><g fill-rule="nonzero"><path fill="#576FF3" d="m114.827,195.20059c0.4375,36.5 0.40625,73 0.3457,109.5l-0.03632,21.9c-0.02188,14.6 -0.03438,29.2 -0.00938,43.8c-0.08594,0.60155 -0.24572,1.12925 -0.41589,1.64657c0.00261,0.08441 0.00904,0.16895 0.01589,0.25343c0.2,2.4 0.4,4.7 0.7,7c0.1368,1.43639 0.83502,1.42245 1.58264,1.2062l0.19582,-0.06018c0.06542,-0.02105 0.13088,-0.0428 0.19604,-0.06444l0.19424,-0.06377c0.09633,-0.03089 0.19123,-0.05969 0.28357,-0.08362c-0.01698,-0.01206 -0.03459,-0.02328 -0.05231,-0.03419c0.8,-1.7 2,-2.9 3.7,-3.7c-0.0377,0.10232 -0.06553,0.20551 -0.08476,0.30942c0.05816,-0.07387 0.11922,-0.14388 0.18476,-0.20942c2.24109,-3.50779 5.14677,-6.44592 8.62454,-8.72188c-0.00928,-0.05773 -0.01729,-0.11772 -0.02454,-0.17812c18.4,-18.5 36.6,-37.2 55.1,-55.6c7.6,-7.6 14.5,-15.9 23.2,-22.3l0.24625,0.14852l-0.04625,-0.14852l0,0l0.1,0c0.00134,-0.00068 0.00067,-0.00034 0,0c5.7,-8.1 13.2,-14.3 20.3,-21l-0.00388,0.10614l0.00388,-0.00614c15.9,-16.1 31.8,-32.1 47.7,-48.2c0.6,-0.6 1.4,-0.8 2.2,-1.2c0.02728,0.03411 0.05596,0.06914 0.08559,0.10495l0.11441,-0.10495c11.1,-13.1 23.9,-24.5 35.9,-36.7c0.31122,-0.36957 0.61487,-0.76563 0.92273,-1.16977l0.3722,-0.48767c1.1272,-1.4676 2.36996,-2.94462 4.27767,-3.57268c0.00832,-0.02275 0.0178,-0.04633 0.0274,-0.06988l0.17657,0.00675c0.0078,-0.00227 0.01561,-0.00451 0.02343,-0.00675l0.006,0.00795l0.0136,0.00164c2.34003,0.14311 2.21047,1.51638 1.93281,2.80635l-0.0516,0.23333c-0.1131,0.50229 -0.22734,0.9793 -0.20081,1.35073c0.2,20.4 0.2,40.8 0.3,61.2l0,65c0,19.5 -6.9,36.1 -20.8,49.7c-5.9,5.8 -11.9,11.5 -17.9,17.3c-0.15485,-0.11718 -0.30847,-0.22735 -0.46091,-0.33068c0.05536,0.10607 0.10872,0.21651 0.16091,0.33068c-26.8,27 -53.7,54 -80.5,81c-1.07455,1.4653 -2.1491,3.21687 -4.24905,3.85645l0.04905,-0.05645c-12.54167,13.59167 -25.62778,26.63889 -38.7621,39.63791l-8.44524,8.35475c-6.5661,6.50057 -13.11766,13.01567 -19.59266,19.60734c-3.5,3.5 -6.5,7.5 -10.8,10.2l-0.05713,-0.05055c0.01894,0.04982 0.03798,0.1 0.05713,0.15055c-1.96875,2.04688 -3.90332,4.14014 -5.83118,6.24545l-1.15612,1.26437l-1.73406,1.89836l-1.15787,1.26438c-9.08,9.89524 -18.4364,19.52588 -30.92077,25.32744c-38.9,18.1 -76.5,-11.9 -79.7,-43.4l-0.001,-0.00105l-0.17213,-0.23595c-1.20135,-1.75392 -0.92687,-3.84996 -0.92687,-5.763l0,-214.6c0,-0.8 0.2,-1.7 0.3,-2.5c0.00062,-0.00066 0.00031,-0.00033 0,0c-0.1,-37.6 -0.2,-75.3 -0.3,-112.9c0,-1.5 0.3,-2.9 0.5,-4.3c0.0007,-0.03131 0.00035,-0.06565 0,-0.1c0.4,-5.8 0.5,-11.7 4.4,-16.6l0.12259,0.0429c-0.00749,-0.01431 -0.01502,-0.02861 -0.02259,-0.0429c6.7,-18.1 20.2,-28.5 38.3,-33.4c36,-9.8 71.1,19.2 71.5,55.2z" transform="translate(0.573000, 0.099409)"/><path fill="#14BCCD" d="m794.727,170.30059c4,9.1 5.9,18.4 5.8,28.3c-0.2,41.1 -0.1,82.1 -0.1,123.2c0,1.92019 -0.18435,3.65601 -0.28757,5.47298l-0.01243,-0.17298c0.1,1.5 0.3,2.9 0.3,4.4l0,191.5l0,0c0,9.8 -2.3,18.9 -7.9,27c-0.40502,0.35439 -0.79671,0.66675 -1.17424,0.93665c0.39489,-0.16178 0.7895,-0.34428 1.17424,-0.53665c-9.7,20.4 -38.7,34.9 -64.5,26.5c-27.6,-9 -42.2,-30.4 -42.2,-59.4c-0.1,-54.4 -0.1,-108.9 -0.1,-163.3c0,-4.6 -0.3,-9.2 -0.4,-13.7c-0.09767,-2.05116 -0.00454,-3.91152 -2.79569,-3.34465l-0.20431,0.04465l0,0c-0.9,0.9 -1.8,1.9 -2.7,2.8c-0.17126,0.10276 -0.34581,0.19425 -0.52313,0.27625c0.21456,0.00554 0.42297,-0.01694 0.62313,-0.07625c-14.2,15.7 -29.6,30.3 -44.7,45c-3.66667,3.41667 -7.33333,6.83334 -10.94213,10.30787l-2.15787,2.09213l0,0c-11.1,13.2 -24,24.6 -36,36.9c-9.4,9.6 -19.3,18.8 -29,28.2l-0.15999,0.0191c0.05278,0.027 0.10612,0.05397 0.15999,0.0809c-9,10.7 -19.4,20 -29.2,29.9c-14.6,14.8 -29.4,29.5 -44.2,44.2c-0.27097,0.27097 -0.53684,0.60822 -0.80912,0.9611l-0.23523,0.30511c-0.87022,1.12411 -1.83629,2.2596 -3.25565,1.83379c-1.55294,-0.49412 -1.46159,-1.93495 -1.27352,-3.33767l0.04814,-0.34932c0.06448,-0.46318 0.12538,-0.91301 0.12538,-1.31301c-0.2,-40.2 -0.3,-80.5 -0.7,-120.7c-0.2,-22.9 6.7,-42.5 24.3,-57.8c3.6,-3.3 6.3,-7.4 10.4,-10c18.29494,-19.29466 36.98965,-38.08959 56.28398,-56.28489l-0.08398,0.08489c17.5,-17.7 35,-35.3 52.5,-52.9c2.7,-2.8 4.9,-6.2 8.7,-7.9l-0.04268,0.17935c0.0822,-0.12568 0.16314,-0.25209 0.24268,-0.37935c11.4,-13.2 24.4,-25 36.7,-37.4c6.8,-6.8 13,-14.3 20.8,-20.1c0.7043,-0.81183 1.40947,-1.62105 2.11669,-2.42619l0.84971,-0.9641l0,0l0.85214,-0.95959c11.94899,-13.40017 24.74275,-25.30818 43.98146,-28.65012c22.8,-3.9 50.5,10.3 59.7,31.5z" transform="translate(0.573000, 0.099409)"/><path fill="#86888B" d="m456.927,193.20059c0.6,49.4 0.3,98.9 0.3,148.3l0.00694,29.3l0.03056,58.6c0.0125,29.3 0.0125,58.6 -0.0375,87.9c0,0.80572 0.03233,1.61731 0.0728,2.43125l0.04229,0.8146c0.19446,3.66803 0.39062,7.35987 -1.61509,10.75415l0,0.1c-4.6,18.1 -13.3,33.2 -30.8,41.8c-25,12.4 -54.8,5 -71.2,-17.4c-6.1,-8.3 -10.7,-17.1 -10.9,-27.7c-1.6,-3.6 -0.9,-7.4 -0.9,-11.1c0,-105.8 0.1,-211.5 0,-317.3c0,-25.8 10.5,-45 34,-56.3c36.2,-17.4 80.5,9.5 81,49.8zm-57.4,-193.2003c32.3,-0.0997 57.50029,25.1003 57.50029,57.3003c0.09971,31.3 -26.00029,57.5 -57.10029,57.6c-32,0 -58,-26 -57.90029,-58c0.10029,-31.5 25.80029,-57 57.50029,-56.9003z" transform="translate(0.573000, 0.099409)"/></g></g></svg>