<svg xmlns="http://www.w3.org/2000/svg" fill-rule="evenodd" clip-rule="evenodd" image-rendering="optimizeQuality" shape-rendering="geometricPrecision" text-rendering="geometricPrecision" viewBox="-2 1 6600 3300"><g><rect width="6600" height="3300" x="-2" y="1" fill="none"/><g><g><g><path fill="#816964" fill-rule="nonzero" d="M2080.67 2543.47c-63.71,0 -109.75,-29.24 -109.8,-117.57l0 -31.66c0,-92.1 50.2,-117.05 109.8,-117.22 36.44,0 69.36,4.84 77.24,5.78l0 19.15c-16.2,-1.3 -55.46,-4.04 -73.8,-4.04 -53.34,0 -88.13,18.79 -88.08,96.33l0 31.66c0,74.22 32.66,96.4 87.78,96.4 16.06,0 34.44,-0.51 49,-1.84l0 -114.35 25.1 -0.09 0.05 130.97c-16.44,2.6 -45.77,6.48 -77.29,6.48l0 0zm0 0l0 0 0 0z"/></g></g><g><path fill="#816964" fill-rule="nonzero" d="M2739.17 2354.15c0,-42.34 -27.83,-53.79 -84.45,-53.79 -12.38,0.15 -27.4,0.76 -40.07,1.08l0 111.81c12.46,0.25 26.93,0.25 40.87,0.13 57.41,0 83.7,-14.12 83.65,-56.38l0 -2.85 0 0zm12.1 184.47l-69.51 -105.01c-8.26,0.35 -18.75,0.35 -26.24,0.35 -13.94,0 -29.65,0 -40.87,-0.35l0.1 105.01 -25.15 0 -0.09 -257.55c26.57,-1.17 41.98,-1.45 65.21,-1.45 65.6,0 109.85,16.05 109.85,74.53l0 2.85c0.1,41.64 -19.84,62.33 -56.24,71.78l72.49 109.85 -29.55 0 0 -0.01z"/></g><g><g><path fill="#816964" fill-rule="nonzero" d="M3294.5 2542.48c-68.17,0 -98.24,-38.37 -98.24,-114.69l-0.04 -146.92 25.13 0 0 144.59c0,67.85 17.34,96.33 73.15,96.33 55.09,0 73.1,-28.86 73.1,-96.33l-0.17 -144.76 24.77 0 0 147.09c0,76.31 -30.2,114.69 -97.7,114.69l0 0zm0 0l0 0 0 0z"/></g></g><g><path fill="#816964" fill-rule="nonzero" d="M3978.61 2353.35c-0.23,-42.61 -26.47,-53.41 -82.66,-53.41 -16.24,0 -30.44,0.7 -42.11,0.99l0.1 111.82c14.98,0.35 28.91,0.35 41.22,0.35 56.56,0 83.64,-12.55 83.45,-55.3l0 -4.44 0 -0.01zm-83.45 80.12c-12.31,0 -26.55,0 -41.22,-0.39l0.04 105.12 -25.13 0 -0.14 -257.93c22.56,-0.37 43.6,-0.97 67.24,-0.97 65.61,0 107.51,15.08 107.89,74.05l0 4.44c0,58.97 -42.66,75.68 -108.68,75.68z"/></g><g><g><path fill="#816964" fill-rule="nonzero" d="M4600.05 2395.7c0,-74.49 -33.43,-98.74 -79.84,-98.74 -46.98,0.16 -80.37,24.36 -80.19,98.92l0 27c0,74.46 33.73,98.72 80.24,98.72 46.54,0 79.79,-24.26 79.79,-98.72l0 -27.18 0 0zm-79.79 146.78c-66.73,0 -105.41,-38.24 -105.41,-119.6l0 -27c0,-81.56 38.61,-119.65 105.36,-119.65 66.36,0 104.91,38.09 104.91,119.46l0 27.19c0,81.36 -38.51,119.6 -104.86,119.6l0 0zm0 0l0 0 0 0z"/></g></g><g><path fill="#a0a590" fill-rule="nonzero" d="M2474.82 770.28l-207.13 0 -106.72 0 0 106.15c0,58.13 46.7,105.34 104.81,105.99l1.29 1.41 207.75 0c66.26,0 120.23,53.98 120.23,120.36l0 302.66c0,0 202.03,-402.27 181.51,-445.49 -53.66,-112.89 -168.71,-191.08 -301.74,-191.08z"/></g><g><path fill="#a0a590" fill-rule="nonzero" d="M4129.13 770.28l207.23 0 106.73 0 0 106.15c0,58.13 -46.71,105.34 -104.89,105.99l-1.35 1.41 -207.72 0c-66.29,0 -120.17,53.98 -120.17,120.36l0 302.66c0,0 -202.07,-402.27 -181.56,-445.49 53.74,-112.89 168.85,-191.08 301.73,-191.08z"/></g><g><path fill="#816964" fill-rule="nonzero" d="M1374.11 770.28c-40.8,0 -75.91,23.31 -93.75,57.32l-353.88 678.69c-25.79,50.44 -53.58,74.35 -70.93,77.73 -17.35,-3.38 -45.14,-27.29 -70.84,-77.73l-353.97 -678.69c-17.75,-34.01 -52.9,-57.32 -93.7,-57.32l-171.2 0 428.68 833.32c62.64,122.34 157.67,193.14 261.03,195 103.49,-1.86 198.38,-72.66 261.06,-195l428.69 -833.32 -171.19 0 0 0z"/></g><g><path fill="#816964" fill-rule="nonzero" d="M6001.59 953.53c-62.6,-122.41 -157.81,-193.04 -261.02,-195 -103.48,1.96 -198.36,72.59 -261.05,195l-428.63 833.37 171.06 0c40.89,0 76.03,-23.3 93.88,-57.2l353.73 -678.88c25.92,-50.46 53.62,-74.34 71.01,-77.7 17.21,3.36 44.99,27.24 70.86,77.7l353.89 678.88c17.81,33.9 52.92,57.2 93.71,57.2l171.12 0 -428.56 -833.37 0 0z"/></g><g><path fill="#816964" fill-rule="nonzero" d="M1854.65 770.56c-1.34,0 -2.58,-0.28 -3.99,-0.28 -58.31,0 -105.46,46.71 -106.17,105.03l-1.34 1.46 0 203.15 0 276.86 0 323.46 0 106.66 106.05 0c58.24,0 105.36,-46.71 106.16,-105.1l1.28 -1.25 0 -323.77 0 -276.86 0 -202.89 0 -106.47 -101.99 0 0 0z"/></g><g><path fill="#816964" fill-rule="nonzero" d="M3241.69 770.28l-106.74 0 -207.17 0c-175.8,0 -320.05,136.82 -332.6,309.64l-1.11 706.98 105.98 0c58.33,0 106.76,-46.72 107.65,-105.1l0 -577.61c0,-66.38 53.71,-120.36 120.08,-120.36l208.91 0c58.26,-0.78 105,-49.27 105,-107.4l0 -106.15 0 0z"/></g><g><path fill="#816964" fill-rule="nonzero" d="M4761.89 770.56c-1.49,0 -2.76,-0.28 -3.97,-0.28 -58.46,0 -105.51,46.71 -106.26,105.03l-1.45 1.46 0 203.15 0 276.86 0 323.46 0 106.66 106.12 0c58.29,0 105.44,-46.71 106.12,-105.1l1.36 -1.25 0 -323.77 0 -276.86 0 -202.89 0 -106.47 -101.92 0 0 0z"/></g><g><path fill="#816964" fill-rule="nonzero" d="M4010.04 1494.61l-0.98 -348.41 0 -48.66 -0.17 0 -0.15 -17.62c-12.44,-172.82 -156.62,-309.64 -332.53,-309.64l-207.17 0 -106.81 0 0 106.15c0,58.12 46.81,106.63 104.99,107.4l208.99 0c66.33,0 120.33,53.98 120.33,120.36l0 98.41 -1.05 1.09 0 161.93 0 323.14 0 106.78 106 0c58.38,0 105.39,-46.7 106.14,-105.03l1.43 -1.27 0 -194.63 0.98 0 0 0z"/></g></g></g></svg>