<svg  id="fndm-njbolvkfj9" viewBox="401.94000244140625 1715.42578125 3292.121337890625 665.148193359375" xmlns="http://www.w3.org/2000/svg">
   <path d="m1937.573,1768.436c11.506,-10.387 28.48,-17.629 50.943,-21.746l0,-16.89l-194.356,0l0,16.89c3.695,0.655 6.376,1.14 7.917,1.415c21.555,3.42 36.798,9.29 45.855,17.628c9.036,8.255 13.575,16.953 13.575,25.989c0,14.082 -7.368,39.247 -21.956,75.496l-149.937,368.212l-161.674,-372.878c-14.356,-33.145 -21.471,-57.466 -21.471,-73.173c0,-11.253 4.307,-20.479 13.09,-27.678c8.697,-7.22 27.698,-12.224 57.065,-15.01l0,-16.89l-697.094,0l0,16.89c3.822,0.654 6.44,1.14 8.023,1.414c21.492,3.42 36.819,9.29 45.792,17.628c9.12,8.255 13.659,16.953 13.659,25.989c0,14.082 -7.368,39.247 -22.02,75.496l-149.934,368.212l-161.632,-372.878c-14.378,-33.145 -21.513,-57.466 -21.513,-73.173c0,-11.253 4.37,-20.479 13.11,-27.678c8.72,-7.22 27.741,-12.224 57.044,-15.01l0,-16.89l-260.119,0l0,16.89c19.339,1.604 34.708,5.172 46.13,10.703c11.358,5.574 21.006,13.237 28.733,23.033c5.045,6.334 13.617,23.814 25.756,52.294l237.466,547.853l18.684,0l220.366,-541.14c12.73,-31.857 27.382,-55.523 43.997,-70.998c11.443,-10.387 28.48,-17.629 50.88,-21.746l9.669,0c14.968,0 29.345,3.737 43.131,11.232c9.67,5.658 16.045,12.371 19.17,20.12c4.053,10.281 6.122,31.562 6.122,63.652l0,412.652c0,38.086 -3.758,62.09 -11.252,72.076c-11.886,15.264 -30.971,22.906 -57.171,22.906l-22.463,0l0,16.953l271.308,0l0,-16.953l-22.843,0c-14.947,0 -29.07,-3.673 -42.392,-11.252c-9.986,-5.595 -16.51,-12.287 -19.592,-20.078c-3.99,-10.302 -6.08,-31.54 -6.08,-63.652l0,-412.652c0,-38.065 3.863,-62.07 11.674,-72.076c11.78,-15.264 30.528,-22.928 56.39,-22.928l6.904,0c19.275,1.605 34.686,5.173 46.108,10.704c11.358,5.574 20.964,13.237 28.733,23.033c4.983,6.334 13.575,23.814 25.757,52.294l237.466,547.853l18.62,0l220.408,-541.14c12.773,-31.857 27.403,-55.523 43.955,-70.998m1695.875,559.466c-14.483,-12.73 -30.591,-40.471 -48.41,-83.16l-219.647,-529.316l-17.418,0l-225.854,522.814c-19.38,46.53 -36.988,77.417 -52.907,92.576c-5.404,5.256 -15.411,9.796 -29.81,13.743c-21.576,-4.729 -39.943,-11.949 -55.08,-21.64c-21.513,-13.89 -47.206,-41.927 -77.143,-84.235l-131.76,-182.766c53.477,-11.907 92.914,-32.153 118.354,-60.95c25.503,-28.733 38.234,-62.617 38.234,-101.674c0,-36.524 -11.148,-67.96 -33.4,-94.37c-22.315,-26.432 -49.443,-44.525 -81.364,-54.385c-31.943,-9.817 -81.598,-14.736 -148.945,-14.736l-230.921,0l0,16.89l23.793,0c23.94,0 41.928,6.861 54.004,20.563c8.74,9.711 13.068,34.539 13.068,74.42l0,412.673c0,36.164 -3.25,59.07 -9.774,68.782c-11.506,17.48 -30.57,26.22 -57.298,26.22l-1.457,0c-25.862,-1.625 -46.066,-8.74 -60.59,-21.449c-14.483,-12.73 -30.613,-40.471 -48.39,-83.16l-219.668,-529.316l-17.438,0l-225.855,522.814c-19.38,46.53 -36.967,77.417 -52.864,92.576c-7.79,7.642 -24.954,13.743 -51.45,18.536l0,16.932l200.31,0l0,-16.932c-30.57,-2.196 -50.415,-7.01 -59.662,-14.377c-9.205,-7.368 -13.787,-15.94 -13.787,-25.715c0,-12.202 5.3,-30.738 15.94,-55.566l41.801,-96.967l0.106,-0.105l1.119,-2.491l15.18,-35.194l1.287,-2.934l109.887,-254.124l106.15,257.058l17.692,42.942l34.328,83.328c12.499,29.641 18.769,51.407 18.769,65.215c0,10.302 -4.497,19.021 -13.364,26.22c-8.91,7.22 -25.968,11.485 -51.217,12.71l0,16.932l500.709,0l0,-16.932l-24.722,0c-23.581,0 -41.294,-6.84 -53.075,-20.626c-8.719,-9.649 -13.026,-34.518 -13.026,-74.377l0,-478.966c30.422,-7.008 54.596,-10.492 72.414,-10.492c40.366,0 72.751,12.456 97.22,37.284c24.469,24.827 36.777,57.15 36.777,96.819c0,40.598 -15.2,74.145 -45.517,100.281c-26.665,23.118 -64.603,36.08 -113.899,38.867l18.684,31.457l214.834,296.685l319.676,0l0,-16.932c-30.528,-2.196 -50.415,-7.01 -59.64,-14.377c-9.184,-7.368 -13.766,-15.94 -13.766,-25.715c0,-12.202 5.236,-30.738 15.876,-55.566l41.042,-94.961l17.164,-39.796l111.238,-257.058l102.498,248.276l1.056,2.639l2.597,6.143l16.023,38.994l35.975,87.276c12.498,29.641 18.726,51.407 18.726,65.215c0,10.302 -4.433,19.021 -13.364,26.22c-8.845,7.22 -25.967,11.485 -51.217,12.71l0,16.932l251.78,0l0,-16.932c-25.904,-1.626 -46.066,-8.74 -60.612,-21.45"/>
  </svg>