<svg  id="fndm-rxn6ux2mp9" viewBox="0.34210658073425293 0.7433629035949707 680.2719116210938 158.23460388183594" xmlns="http://www.w3.org/2000/svg">
   <g xmlns="http://www.w3.org/2000/svg" fill="none">
    <path d="m180.65,158.88c-26.65,0 -52.59,0.3 -78.51,-0.15c-9.6,-0.17 -17.33,-5.05 -22.33,-13.63c-25.35,-43.5 -50.47,-87.14 -76.23,-130.4c-7.11,-11.93 -1.71,-13.07 8.43,-12.89c14.56,0.27 29.4,1.82 43.65,-0.32c25.7,-3.87 39.33,7.51 51,29.36c22.79,42.72 48.32,83.98 73.99,128.03z" fill="#0497C0"/>
    <path d="m170.33,3.53l86.27,0c-11.48,19.67 -22,38.78 -33.59,57.2c-7.36,11.69 -15.06,7.23 -20.71,-2.2c-10.59,-17.58 -20.68,-35.43 -31.97,-55z" fill="#F2AF42"/>
    <path d="m642.54,27.76c6.07,0 12.22,-0.19 18.16,0.79c9.78,1.59 16.56,7.57 18.91,17.23c2.29,9.42 1,19.94 -7.4,24.58c-12.45,6.9 -8.77,12.27 -1.56,19.52c2,2 2.56,5.75 4.74,7.43c5.08,3.91 5.83,8.89 1,11.84c-3.77,2.31 -9.81,4.54 -14,-2.06c-4.88,-7.65 -10.78,-14.63 -16,-22c-5,-7 -11.9,-10.6 -20.12,-9.11c-10,1.82 -4.84,10.57 -5.66,16.22c-1,7.06 1.19,15.48 -10.45,14.84c-11.2,-0.62 -7.24,-9.14 -7.57,-15c-0.51,-8.48 -0.15,-17 -0.15,-25.5c0.18,-39 0.18,-39 40.1,-38.78zm-1.85,32.81c4.067,-1.298 9.896,0.854 14.603,-0.329c2.984,-0.737 5.515,-2.812 6.857,-7.951c0.048,-0.188 0.088,-0.374 0.12,-0.558c0.671,-3.674 -1.825,-6.737 -5.64,-7.462c-3.777,-0.712 -7.579,-1.246 -11.384,-1.54a80.08,80.08 0 0 0 -9.835,-0.182l-0.785,0.04c-3.924,0.217 -7.83,0.754 -11.696,1.682c-2.043,0.494 -2.557,2.153 -2.591,4.116c-0.031,1.634 0.272,3.481 0.302,5.042a11.5,11.5 0 0 1 -0.001,0.492l-0.003,0.19l0.003,-0.17c-0.1,4.21 1.64,6.74 6.25,6.65c3.198,-0.06 6.408,-0.04 10.115,-0.028l0.808,0.003c0.648,0.002 1.312,0.004 1.994,0.004l0.042,0l0.841,0.001zm-114.69,5.1c0,-38 0,-38.45 37.22,-37.59c8.65,0.2 25,-7.16 24.36,8.58c-0.5,13.13 -15.78,3.71 -24.11,6c-3.93,1.1 -8.43,0.29 -12.66,0.15c-5.7,-0.19 -7,3.05 -7.09,8c-0.1,5.13 1.56,8.15 7.08,8.16c9.087,0 18.173,0.02 27.26,0.06c4.52,0 8.61,0.7 8.76,6.56c0.15,5.86 -3.57,6.81 -8.34,6.74c-7.26,-0.1 -14.54,-0.13 -21.8,0.07c-5.6,0.15 -13,-2.39 -12.78,7.69c0.2,8.78 5.61,11 13.18,10.91c7.87,-0.11 15.75,0 23.62,0c4.94,0 7.83,1.86 8.11,7.39c0.32,6.43 -2.68,8.63 -8.61,8.59c-15.14,-0.1 -30.29,-0.2 -45.43,0c-7.57,0.1 -9,-4.12 -8.83,-10.42c0.21,-10.3 0.06,-20.6 0.06,-30.89zm-59.17,20.37c7.77,-17.33 14,-31.66 20.61,-45.84c6.26,-13.43 6.42,-13.36 25.14,-10.41c-10.64,23.22 -21.34,46 -31.45,69c-3.42,7.78 -9.35,7.71 -16.19,8.38c-7.64,0.74 -10.72,-3.09 -13.34,-9.1c-7.93,-18.14 -15.33,-36.52 -26.47,-53.12c-3.43,-5.13 -8.23,-12.81 0.16,-16.48c7,-3.06 15.08,-2 19.1,8c6.29,15.57 13.83,30.73 22.44,49.57zm-134.5,-3.15c6.35,-13.92 13.43,-27.78 19,-42.21c4.62,-11.93 11.76,-16 25.6,-11c-10.72,23.56 -20.92,47.24 -32.26,70.35c-5.59,11.4 -22.39,10.28 -28.23,-1.64c-9.05,-18.49 -17.66,-37.22 -25.68,-56.18c-1.71,-4 -9.24,-10.18 -1.65,-13.54c6.73,-3 15.3,-2.92 19.36,7.32c5.35,13.45 11.86,26.47 17.86,39.73c1.16,2.69 1.37,5.99 6,7.17zm75.09,-14.85c0,10.27 -0.17,20.54 0.06,30.8c0.14,6.43 -3,8.28 -8.89,8.24c-5.89,-0.04 -9.11,-2.06 -9.09,-8.34c0.08,-21.13 0.05,-42.27 0.06,-63.4c0,-5.15 2.46,-7.54 7.73,-7.69c5.7,-0.16 9.73,1.73 9.89,7.79c0.3,10.86 0.09,21.73 0.09,32.6l0.15,0z" fill="#0D2840"/>
   </g>
  </svg>