<svg  id="fndm-i1j8oiiko3" viewBox="7.993000030517578 0.5462530851364136 284.01776123046875 80.90914154052734" xmlns="http://www.w3.org/2000/svg">
   <path d="m36.743,81.242c-15.812,-0.197 -28.75,-0.748 -28.75,-1.223c0,-1.459 110.83,-2.431 199.42,-1.75c46.153,0.355 84.142,0.87 84.417,1.145c0.275,0.275 0.231,0.769 -0.096,1.097c-0.675,0.676 -211,1.279 -254.991,0.731zm-3.75,-17.933c0,-0.42 0.856,-1.693 1.904,-2.829s5.355,-10.839 9.573,-21.564c8.745,-22.236 11.023,-26.582 16.272,-31.039l3.751,-3.185l-9.502,0.568c-10.862,0.65 -17.26,2.574 -21.24,6.387c-3.027,2.9 -4.887,8.059 -4.054,11.244c0.733,2.805 -1.265,2.554 -4.368,-0.549c-3.675,-3.675 -2.754,-8.66 2.512,-13.603c6.587,-6.183 11.074,-7.037 40.652,-7.735c14.3,-0.338 26.152,-0.532 26.337,-0.431s-0.918,1.006 -2.453,2.013c-2.087,1.369 -5.19,1.914 -12.336,2.166c-8.634,0.305 -9.807,0.583 -12.259,2.9c-2.814,2.66 -8.489,15.359 -15.758,35.264c-4.133,11.315 -7.453,17.104 -10.821,18.867c-2.577,1.35 -8.21,2.397 -8.21,1.526zm85,0.119c0,-0.387 0.827,-1.898 1.837,-3.358c1.011,-1.46 2.088,-3.329 2.395,-4.154c0.306,-0.825 1.494,-3.851 2.638,-6.725l2.081,-5.225l-4.499,3.435c-7.687,5.867 -15.929,7.129 -19.997,3.061c-4.289,-4.289 -2.6,-13.665 4.114,-22.833c7.531,-10.286 21.432,-14.086 21.432,-5.858c0,3.775 -5.656,10.193 -12.953,14.696c-6.088,3.758 -7.889,7.008 -5.919,10.688c1.195,2.234 3.34,2.197 8.372,-0.145c6.258,-2.911 12.005,-9.632 14.932,-17.463c1.413,-3.778 2.568,-7.009 2.568,-7.18c0,-0.171 -1.013,-0.501 -2.25,-0.732c-2.082,-0.389 -2.015,-0.52 0.889,-1.747c1.727,-0.729 3.927,-2.709 4.89,-4.398c5.391,-9.464 12.562,-13.731 24.145,-14.367c7.74,-0.425 8.312,-0.312 10.75,2.127c1.417,1.417 2.576,3.081 2.576,3.698c0,1.541 -5.549,6.969 -7.123,6.969c-0.993,0 -1.01,-0.267 -0.076,-1.2c0.659,-0.66 1.199,-2.449 1.199,-3.977c0,-6.05 -9.232,-7.642 -16.072,-2.772c-2.836,2.02 -8.928,10.242 -8.928,12.05c0,0.39 4.5,0.462 10,0.159c10.613,-0.585 12.647,0.32 7.132,3.172c-8.071,4.173 -15.814,26.471 -9.505,27.372c4.779,0.682 13.373,-14.601 13.373,-23.78c0,-2.659 0.344,-2.845 9,-4.863c10.904,-2.543 12.413,-2.19 11.711,2.739c-0.282,1.98 -0.852,4.442 -1.266,5.472c-0.413,1.029 1.359,-0.386 3.94,-3.145c5.23,-5.592 9.359,-7.759 13.028,-6.838c4.842,1.215 4.391,3.843 -3.802,22.111c-2.28,5.086 -3.592,9.548 -3.6,12.25c-0.015,4.902 -1.072,5.281 -4.679,1.674c-3.464,-3.463 -2.879,-8.098 2.533,-20.055c2.273,-5.023 4.133,-9.635 4.133,-10.25c0,-4.559 -10.078,7.082 -16.5,19.057c-4.592,8.564 -5.265,9.351 -8.25,9.639c-1.787,0.172 -3.25,-0.021 -3.25,-0.432c0,-0.409 2.25,-6.518 5,-13.575c5.914,-15.175 6.186,-17.129 2.25,-16.188c-3.9,0.932 -4.25,1.235 -4.25,3.689c-0.002,2.81 -5.146,13.706 -8.627,18.271c-5.395,7.071 -14.297,10.263 -19.15,6.864c-5.073,-3.554 -1.332,-18.462 6.549,-26.102l3.964,-3.841l-5.79,0.334l-5.79,0.335l-4.186,11.665c-5.786,16.124 -10.37,25.729 -13.133,27.517c-2.738,1.77 -7.837,3.176 -7.836,2.159zm0.186,-33.171c3.748,-3.963 5.286,-8.223 3.252,-9.003c-2.835,-1.088 -8.606,6.077 -10.925,13.562l-0.743,2.4l2.865,-2.059c1.576,-1.133 4.074,-3.338 5.551,-4.9zm-30.552,24.585c-2.071,-1.629 -2.635,-2.939 -2.635,-6.119l0,-4.046l-3.5,2.67c-7.928,6.046 -15.006,7.152 -19.164,2.994c-2.324,-2.323 -2.508,-3.066 -1.901,-7.646c1.602,-12.074 10.871,-23.087 21.25,-25.248c2.456,-0.511 3.648,-0.199 5.211,1.364c1.706,1.706 1.862,2.497 0.991,4.998c-1.28,3.671 -9.19,11.2 -14.745,14.033c-3.792,1.935 -4.142,2.444 -4.142,6.033c0,2.156 0.404,4.171 0.897,4.476c2.386,1.475 7.863,-1.069 12.617,-5.858c4.136,-4.167 6.294,-7.849 12.03,-20.519c6.584,-14.543 7.184,-15.492 10.314,-16.303c1.829,-0.474 3.708,-0.726 4.176,-0.56c0.468,0.167 -2.449,7.8 -6.482,16.963c-8.689,19.742 -10.826,25.862 -10.826,31.01c0,4.404 -0.471,4.607 -4.092,1.758l0.001,0zm-10.557,-23.38c4.642,-4.399 6.575,-8.295 4.932,-9.938c-0.753,-0.753 -1.569,-0.75 -2.787,0.01c-3.905,2.437 -11.357,16.674 -7.639,14.593c0.767,-0.429 3.239,-2.529 5.494,-4.665zm187.471,23.308c-2.291,-1.801 -2.668,-2.76 -2.359,-6c0.203,-2.12 0.019,-3.855 -0.408,-3.855c-0.428,0 -0.776,0.447 -0.776,0.994c0,1.969 -8.265,7.006 -11.495,7.006c-3.492,0 -6.505,-2.549 -6.505,-5.503c0,-1.731 -0.14,-1.718 -2.25,0.212c-6.241,5.707 -14.196,6.936 -18.306,2.828l-2.463,-2.465l-3.631,2.465c-4.212,2.857 -9.465,3.207 -11.882,0.789c-2.403,-2.402 -1.466,-6.465 4.579,-19.838c5.146,-11.383 5.168,-11.413 9.305,-12.277c2.281,-0.476 4.297,-0.756 4.48,-0.621c0.184,0.134 -2.179,5.841 -5.25,12.681c-5.779,12.874 -6.711,16.729 -4.043,16.729c2.37,0 7.46,-4.165 7.46,-6.104c0,-2.986 3.974,-11.157 7.548,-15.518c4.092,-4.994 10.58,-8.377 16.067,-8.377c6.61,0 8.567,4.138 3.749,7.928c-3.219,2.532 -4.822,2.666 -3.861,0.322c2.226,-5.422 -1.113,-6.942 -5.695,-2.592c-8.504,8.072 -12.682,26.918 -5.497,24.79c4.884,-1.446 9.563,-5.735 12.722,-11.662c6.842,-12.836 14.057,-18.062 25.128,-18.202c3.664,-0.046 6.992,0.244 7.396,0.645c0.404,0.401 -0.426,3.326 -1.844,6.5c-4.314,9.655 -7.921,21.503 -8.07,26.517c-0.078,2.613 -0.42,4.752 -0.758,4.752c-0.338,0.001 -1.842,-0.963 -3.342,-2.143l0.001,0l0,-0.001zm-6.246,-10.35c3.295,-3.393 13.268,-22.273 12.285,-23.256c-1.166,-1.167 -6.221,1.148 -9.029,4.134c-3.934,4.183 -8.194,12.062 -9.384,17.356c-1.464,6.512 0.866,7.184 6.128,1.766zm-36.051,-32.202c-1.711,-0.644 -1.577,-4.787 0.202,-6.264c2.263,-1.878 5.048,-0.856 5.048,1.852c0,2.522 -3.176,5.192 -5.25,4.412z" fill="#2F4F5A"/>
  </svg>