<svg xmlns="http://www.w3.org/2000/svg" viewBox="0.279998779296875 0.983001708984375 283.5 87.10140991210938"><g xmlns="http://www.w3.org/2000/svg" fill="none" fill-rule="evenodd"><g fill-rule="nonzero"><g><path fill="#09090F" d="m272.06,0.017c3.12769,0.16999 6.26231,0.16999 9.39,0c1.78,-0.09 2.05,0.56 2,2.14c-0.05333,19.43333 -0.05333,38.86333 0,58.29c0,7.75 -0.06,15.51 0.05,23.26999c0,1.68001 -0.49,2 -2,1.93001c-3.33333,-0.12001 -6.66667,-0.12001 -10,0c-1.45,0.05 -1.79,-0.45 -1.73,-1.8c0.1,-2.47001 0,-4.95 0,-7c-1.4,1.21 -2.93,2.52 -4.43,3.86c-6.22,5.55 -13.63,6.89 -21.64,6.14999c-14,-1.28999 -24.64,-12.79999 -26.59,-26.64c-1.65,-11.68 0.85,-22.08 9.3,-30.74c10.89,-11.13999 32.41,-12 42.61,1.83001c0.11,0.16 0.2,0.34999 0.3,0.52l0.44,-0.26001c0,-9.75 0.06,-19.48999 -0.05,-29.22999c0,-1.92 0.49,-2.41 2.35,-2.32zm-11.99969,37.085c-6.02707,-3.49417 -13.46043,-3.50751 -19.5,-0.035c-6.03957,3.47251 -9.76781,9.90332 -9.78031,16.87c0.16,11.46 8.16,19.71 19.47,19.71c11.37,0 19.5,-8.14 19.53003,-19.64c0.01247,-6.96668 -3.69265,-13.41083 -9.71972,-16.905z" transform="translate(-166.000000, -236.000000) translate(166.280000, 236.983005)"/><path fill="#09090F" d="m106.82,21.057c10.1,0 15.56,2.52 23.09,11c0,-2.88 0.1,-5.37001 0,-7.86c-0.08,-1.52 0.4,-1.90001 1.88,-1.85001c3.41,0.12001 6.83,0.08001 10.24,0c1.17,0 1.73,0.10001 1.72013,1.55001c-0.05346,20.05999 -0.05346,40.11666 0,60.17c0,1.19 -0.29013,1.56999 -1.52013,1.53999c-3.62,-0.08 -7.25,-0.06999 -10.88,0c-1.12,0 -1.45,-0.31 -1.41,-1.42999c0.06,-2.57001 -0.03,-5.17 -0.03,-8.31c-9.77,12.59999 -24.55,13.39999 -35.62,8.28c-8.54,-3.95 -13.88,-11 -16.31,-19.90001c-2.31588,-8.2011 -1.77639,-16.94574 1.53,-24.79999c4.62585,-11.02404 15.35558,-18.24923 27.31,-18.39zm13.44361,15.62731c-6.10752,-3.60032 -13.68557,-3.61195 -19.80412,-0.03039c-6.11854,3.58155 -9.81858,10.19492 -9.66949,17.28308c0.07,11.38 8.23,19.71 19.51,19.71c10.97,0.31999 19.48,-8.14 19.58,-19.65001c0.17084,-7.08766 -3.50887,-13.71236 -9.61639,-17.31268z" transform="translate(-166.000000, -236.000000) translate(166.280000, 236.983005)"/><path fill="#08090F" d="m0,0.157c5.33,0 10.31,0 15.28,0c1.29,0 1.51,0.75 1.84,1.62c4.08,10.47333 8.16,20.94 12.24,31.39999c4.23,10.86 8.48,21.71 12.88,33.00001c1,-2.50001 1.89,-4.62 2.72,-6.75001c6.46667,-16.6 12.92667,-33.20333 19.38,-49.80999c1,-2.57 2,-5.14 2.91,-7.74c0.25011,-1.13024 1.33661,-1.87063 2.48,-1.69c4.68,0.1 9.36,0 14.28,0c-2.22,5.55 -4.35,10.91999 -6.51,16.28c-6.24667,15.54 -12.5,31.07666 -18.76,46.60999c-2.86667,7.14 -5.72333,14.29001 -8.57,21.45c-0.20423,0.75908 -0.94133,1.24762 -1.72,1.14001c-4.13,-0.06001 -8.26,-0.08 -12.38,0c-0.98957,0.14668 -1.9272,-0.48709 -2.16,-1.46c-3.16,-7.93001 -6.39,-15.84 -9.59,-23.77l-17.06,-42.27c-2.38,-5.91001 -4.76,-11.81 -7.26,-18.01z" transform="translate(-166.000000, -236.000000) translate(166.280000, 236.983005)"/><path fill="#09090F" d="m155.2,42.767c0,-13.59 0,-27.18 0,-40.76c0,-1.57 0.32,-2.06 2,-2c3.26,0.15 6.55,0.16 9.81,0c1.75,-0.08 2,0.52 2,2.12c-0.05,22.68999 0,45.38 -0.08,68.07c0,2.04999 0.32,2.93999 2.61,2.70999c2.29,-0.22999 4.69,0 7,-0.08c1.26,-0.05 1.77,0.24001 1.72,1.62001c-0.09,3.2 -0.1,6.4 0,9.59999c0.05,1.45 -0.55,1.58 -1.75,1.58c-7.18,-0.05 -14.37,-0.08 -21.55,0c-1.58,0 -1.8,-0.52 -1.79,-1.91999c0.05,-13.63001 0.03,-27.29 0.03,-40.94z" transform="translate(-166.000000, -236.000000) translate(166.280000, 236.983005)"/><path fill="#090A0F" d="m205,54.227c0,9.81999 0,19.62999 0,29.45c0,1.64 -0.44,2 -2,2c-3.19,-0.13001 -6.4,-0.14 -9.6,0c-1.61,0.06999 -2,-0.39 -2,-2c0.06,-15.51 0,-31.00001 0.08,-46.53001c0,-1.69 -0.44,-2.15999 -2.09,-2.05999c-2.49,0.14 -5,-0.06001 -7.47,0.07c-1.39,0.07 -1.65,-0.41001 -1.61,-1.67c0.08,-3.2 0.08,-6.4 0,-9.60001c0,-1.23999 0.36,-1.52 1.54,-1.51025c7,0 14.09,0.08025 21.13,0c1.59,0 2,0.34026 2,2.00026c0.02,9.92 0.02,19.88 0.02,29.85z" transform="translate(-166.000000, -236.000000) translate(166.280000, 236.983005)"/><path fill="#090A0F" d="m196.64,0.087c2.23367,-0.08324 4.40029,0.7718 5.97512,2.35803c1.57483,1.58622 2.41422,3.75896 2.31488,5.99197c0,4.57291 -3.70708,8.28 -8.28,8.28c-4.57292,0 -8.28,-3.70709 -8.28,-8.28c-0.09898,-2.22941 0.73774,-4.39883 2.30811,-5.98439c1.57037,-1.58556 3.73163,-2.44313 5.96189,-2.36561z" transform="translate(-166.000000, -236.000000) translate(166.280000, 236.983005)"/></g></g></g></svg>