<svg  id="fndm-7k5lhhsqmu" viewBox="0 0 142.57200622558594 139.781005859375" xmlns="http://www.w3.org/2000/svg">
   <path d="m142.572,0l0,139.781" fill="none"/>
   <path clip-rule="evenodd" d="m0,61.511l142.174,0c3.62,101.216 -138.981,103.556 -142.174,0" fill-rule="evenodd" fill="#B0ABA7"/>
   <path clip-rule="evenodd" d="m82.583,1.473c32.671,0 59.167,26.789 59.167,59.827c0,33.036 -26.496,59.829 -59.167,59.829c-32.676,0 -59.171,-26.793 -59.171,-59.829c0,-33.038 26.495,-59.827 59.171,-59.827" fill-rule="evenodd" fill="#FB610D"/>
   <path clip-rule="evenodd" d="m119.833,68.567c-4.083,15.829 -16.443,0 0,0m-74.385,-16.135c2.071,-10.332 7.817,-15.007 16.075,-15.813l13.18,0.104l-1.011,7.779l-5.474,-0.073c-3.587,0.155 -5.573,4.989 -5.594,8.22l37.259,0.006l-2.257,8.979l-2.499,-0.774c-4.371,-1.188 -7.86,0.122 -10.727,1.901c-8.485,4.866 -3.92,13.969 9.823,10.516c4.048,-5.541 10.2,-8.679 18.264,-9.631l8.021,0.049c0.251,-4.837 -4.69,-4.507 -11.784,-1.693l-4.126,0.76c0.323,-7.864 3.459,-9.307 9.896,-9.466c4.377,-0.242 8.693,-0.321 12.945,-0.104c2.424,0.067 8.804,0.681 9.01,8.443l-5.231,20.428l-14.918,0.023l-0.126,-3.598c-6.063,5.667 -15.851,5.023 -19.043,0.651l-10.892,2.923c-3.919,0.896 -7.842,0.92 -11.767,0.074c-11.267,-2.1 -13.357,-13.451 -7.56,-20.502l-8.097,0l-5.41,20.274l-15.938,-0.104l5.062,-20.17l-31.725,0l0.668,-9.227l33.976,0.025z" fill-rule="evenodd" fill="#FFF"/>
  </svg>