<svg  id="fndm-mhyf2z1hax" viewBox="0.11935978382825851 0.39868640899658203 1247.971435546875 169.33543395996094" xmlns="http://www.w3.org/2000/svg">
   <g xmlns="http://www.w3.org/2000/svg" fill="none">
    <path d="m704.17,79.8c1.22,1 1.6,1.53 2.08,1.63c26.6,5.54 32.72,24.31 30.69,45.51c-2.18,22.85 -16.59,37.16 -39.64,39.72c-15,1.67 -30.16,0.44 -45.24,0.79c-2.19,0.06 -5.06,0.68 -4.9,-2.88c0.13,-2.93 2.76,-2.58 4.57,-2.26c6.31,1.09 6.69,-2.36 6.67,-7.36c-0.14,-46.14 -0.14,-92.28 0,-138.42c0,-5.39 0.15,-9.87 -7.36,-8.25c-2.16,0.47 -4.18,-0.31 -3.91,-3.05c0.21,-2.23 2.16,-2.22 3.91,-2.19c15.66,0.19 31.36,-0.3 47,0.72c19.68,1.29 31.62,12.34 34.15,29.81c3.06,21.11 -5.85,37.66 -24.15,44.84c-1.08,0.41 -2.14,0.76 -3.87,1.39zm-24.41,43.32c0,11.09 -0.06,22.17 0,33.26c0,2.55 -1.22,6.15 3.58,6c16,-0.36 24.38,-2.36 28.32,-19.32c2.6,-11.21 2,-22.62 1.49,-34c-0.84,-19 -9.49,-26.49 -28.3,-25.67c-4.24,0.19 -5.27,1.61 -5.2,5.53c0.24,11.46 0.11,22.83 0.11,34.2zm0,-80.48l0,29.92c0,2.42 -0.74,4.94 3.25,5.64c12.75,2.22 22.7,-4.36 25,-17.32a98,98 0 0 0 0.65,-32.33c-2.38,-15.46 -7.75,-20.11 -23.06,-20.53c-4.33,-0.12 -6.14,0.82 -6,5.55c0.39,9.68 0.16,19.36 0.16,29.07z" fill="#060606"/>
    <path d="m1039.04,24.31l0,125.54c0,6.72 0.42,13 9.63,12.63c1.56,-0.06 2.8,0.53 2.85,2.34c0,2.22 -1.3,2.89 -3.28,2.88l-23.94,0c-1.94,0 -3.34,-0.28 -3.4,-2.63c-0.06,-2.35 1.49,-2.63 3.34,-2.65c7.87,-0.09 9,-5.23 8.94,-11.61c-0.08,-44.18 -0.08,-88.363 0,-132.55c0,-6.07 -1.52,-10.13 -8.48,-9.83c-2.28,0.09 -4.1,-0.37 -3.79,-3.17c0.27,-2.51 2.35,-2 3.95,-2c9.41,0 18.82,0.15 28.22,-0.1c4.49,-0.12 4.78,3.19 5.91,6c15.3,37.693 30.593,75.387 45.88,113.08c0.61,1.49 1.3,3 1.94,4.43c2.56,-0.58 1.67,-2.31 1.67,-3.41l0,-102.62c0,-6.49 -0.31,-12.37 -9,-12.16c-2,0.05 -3.31,-0.68 -3.27,-2.86c0,-2.54 2,-2.33 3.66,-2.34l23.09,0c1.73,0 3.66,0 3.71,2.37c0,2.13 -1.47,2.89 -3.42,2.83c-8.41,-0.27 -8.58,5.37 -8.57,11.52c0.06,46.18 0.023,92.357 -0.11,138.53c0,3 2.93,8.53 -2.92,9c-5.54,0.41 -11.75,2.76 -15.22,-6.1c-17.44,-44.5 -35.66,-88.68 -53.62,-133c-0.61,-1.49 -1.38,-2.9 -2.08,-4.34l-1.69,0.22zm-875.82,143.36c-13.69,0 -27.37,0.07 -41.06,-0.07c-2.14,0 -5.76,1.58 -5.71,-2.76c0,-3.73 3.32,-2.6 5.17,-2.36c5.8,0.78 5.56,-2.7 5.55,-6.72c-0.073,-47.033 -0.073,-94.07 0,-141.11c0,-4.47 -0.64,-7.07 -5.88,-6.38c-2.06,0.27 -5.17,0.82 -4.9,-2.8c0.27,-3.62 3.45,-2.17 5.38,-2.18c24.23,-0.1 48.46,0 72.69,-0.14c4.09,0 6.07,0.51 5.93,5.45c-0.35,13.1 0,26.22 0,39.33c0,2.33 1.06,5.39 -3.22,5.45c-4.12,0.06 -3.51,-2.77 -3.51,-5.27c0,-6.27 0.15,-12.55 0,-18.81c-0.39,-12.53 -7.81,-20.23 -20.2,-20.84c-6.26,-0.31 -12.56,0.21 -18.8,-0.22c-4.84,-0.33 -5.54,1.79 -5.51,5.94c0.16,21.1 0.26,42.2 0,63.29c-0.09,5.73 2.49,5.94 6.76,5.2c9.54,-1.66 15.67,-9.55 16.54,-21c0.17,-2.32 -2,-6.24 3,-6.44c5.54,-0.22 3.64,4 3.66,6.7c0.14,16 0.09,31.93 0.05,47.89c0,2.65 1.13,6.12 -3.66,5.95c-4.27,-0.16 -2.9,-3.36 -3.08,-5.65c-0.95,-12.39 -6.77,-19.61 -17,-21.46c-4.23,-0.77 -6.28,-0.24 -6.22,4.83c0.22,21.087 0.22,42.18 0,63.28c-0.05,4.61 1.49,5.86 5.89,5.72c9.11,-0.28 18.25,0.12 27.36,-0.13c13.14,-0.36 20.8,-8.45 21,-21.84c0.087,-6.267 0.087,-12.54 0,-18.82c0,-2.67 0.45,-4.39 3.65,-4.32c3.4,0.07 3.24,2.14 3.22,4.62c-0.09,13.4 -0.26,26.8 0.05,40.19c0.11,4.77 -1.72,5.66 -6,5.59c-13.78,-0.25 -27.47,-0.11 -41.15,-0.11zm393.04,-148.65l0,-11.44c0,-1.94 -0.56,-4.29 2.38,-4.52c2.94,-0.23 2.87,1.91 2.92,4c0.26,13.1 0.6,26.2 0.89,39.31c0,2.16 0.83,4.81 -2.89,4.83c-3.11,0 -3.44,-2.05 -3.95,-4.46c-1.65,-7.79 -3.07,-15.65 -6.52,-22.94c-7,-14.8 -19.11,-20.3 -30.59,-13.85c-11.48,6.45 -14.45,24.28 -6.14,36.3c5.27,7.62 12.92,12.8 20,18.57s14.48,11.14 21.1,17.36c20.18,19 21.62,55.47 3.34,76.28c-13.94,15.87 -36.69,14.87 -50.43,-2.27c-2.39,-3 -4.53,-6.18 -8,-11l0,18c0,1.93 0.36,4.39 -2.72,4.18c-2.23,-0.16 -2.32,-2 -2.32,-3.84l0,-47.89c0,-2 -0.09,-4.08 2.86,-4.21c2.6,-0.11 3.32,1.22 3.67,3.56c0.8,5.35 1.77,10.69 2.92,16a51.53,51.53 0 0 0 10.33,21.34c6.59,8.27 14.86,12.45 25.5,9.62c10.81,-2.87 15.41,-11.26 16.94,-21.41c1.7,-11.3 -1.43,-21.35 -9.21,-30c-9.84,-10.89 -22.26,-18.64 -33.41,-27.92c-15.87,-13.22 -22.31,-29.88 -18.5,-50.19c3.9,-20.8 21,-34.19 39.1,-31.29c10.79,1.79 16.9,9.15 22.73,17.88zm414.56,148.49l-17.08,0c-2.12,0 -5,0.87 -5,-2.78c0,-3 2.57,-2.71 4.42,-2.44c6.45,1 6.92,-1.72 5.35,-7.17a194.38,194.38 0 0 1 -5.66,-24.95c-0.89,-5.92 -3.61,-7.26 -9.06,-7c-8,0.43 -15.94,0.27 -23.9,0c-3.51,-0.11 -5.07,1.12 -5.77,4.52c-1.79,8.63 -3.87,17.2 -5.82,25.8c-1.15,5 0.09,8.48 6,8.73c2,0.08 4.27,-0.07 3.94,3c-0.27,2.38 -2.18,2.24 -3.88,2.24l-24.77,0c-1.8,0 -3.5,-0.09 -3.67,-2.43c-0.17,-2.34 1.15,-2.92 3.16,-2.92c10.34,0 12,-7.76 13.86,-15.4c10.867,-45.333 21.737,-90.69 32.61,-136.07c0.86,-3.61 0.26,-8 6.54,-7.87c5.88,0.16 5,4.34 5.79,7.63c10.98,47.96 21.9,95.933 32.76,143.92c1.19,5.3 2.52,9.26 9.15,7.89c1.58,-0.32 3.59,-0.19 3.78,2.23c0.23,2.95 -1.84,3 -4,3c-6.22,0.06 -12.49,0.07 -18.75,0.07zm-36.56,-121.58l-1.27,0.4c-4.52,19.607 -9.043,39.21 -13.57,58.81c-3,12.79 -3,13 9.84,12.71c6.67,-0.14 15.74,3 19.27,-1.44c2.65,-3.39 -1.4,-12.21 -2.77,-18.54c-3.75,-17.32 -7.66,-34.61 -11.5,-51.94z" fill="#0B0B0B"/>
    <path d="m305.54,84.93c0,-23.09 -0.11,-46.18 0.1,-69.26c0.05,-5 -0.51,-8.37 -6.71,-7.38c-1.84,0.29 -4.43,0.53 -4.48,-2.41c-0.06,-3.81 3.14,-2.52 5.07,-2.54c11.4,-0.12 22.8,-0.09 34.21,0c1.8,0 4.47,-0.88 4.7,2.11c0.27,3.62 -2.71,3.13 -4.83,2.87c-5.23,-0.67 -6.62,1.26 -6.59,6.58c0.233,46.747 0.233,93.493 0,140.24c0,6.15 1.81,8 7.68,7.43c5.38,-0.49 10.83,0.07 16.24,-0.14c12.73,-0.5 20.51,-8.44 20.8,-21.17c0.14,-6.26 0.07,-12.54 0,-18.81c0,-2.77 -0.07,-5.23 3.86,-5c3.62,0.25 2.86,2.84 2.85,5c0,13.39 -0.29,26.79 -0.07,40.18c0.08,4.41 -1.62,5.14 -5.49,5.12c-24.52,-0.14 -49,-0.06 -73.54,-0.11c-2,0 -5,0.93 -4.86,-2.83c0.14,-3.1 2.75,-2.61 4.49,-2.3c6.5,1.15 6.69,-2.61 6.66,-7.46c-0.22,-23.4 -0.09,-46.78 -0.09,-70.12z" fill="#060606"/>
    <path d="m1240.82,150.27c-3.21,0.71 -3.35,3.34 -4.46,5.1c-9.68,15.42 -27.33,18.88 -42,8.09a56,56 0 0 1 -20.13,-28c-11,-32.94 -11.35,-66 1,-98.73c3.85,-10.25 9.46,-19.48 17.74,-26.8c17.15,-15.16 35.71,-12 46.74,7.8c0.46,0.84 0.22,2.41 2.37,2.26l0,-14.09c0,-1.69 0.78,-2.83 2.4,-2.84c1.62,-0.01 2.45,1.05 2.46,2.77c0.047,14.24 0.123,28.483 0.23,42.73c0,1.92 -0.49,3.31 -2.84,3.17c-2.35,-0.14 -2.34,-1.9 -2.71,-3.57c-1.54,-6.94 -2.72,-14 -4.87,-20.75c-4.36,-13.71 -12.66,-21.51 -21.63,-21.22c-9.79,0.31 -17.23,8.24 -20,23.35c-4.49,24.52 -3.3,49.38 -3.13,74.14c0.1,14.25 0.27,28.5 3.79,42.46c2.73,10.84 8,16.86 16.14,17.53c9.68,0.79 15.14,-5.33 19.28,-12.93c5.66,-10.39 7.7,-22 10.41,-33.3c0.57,-2.35 0.14,-5.86 3.92,-5.33c3.94,0.55 2.17,4 2.13,6.24c-0.25,14.81 -0.63,29.62 -0.94,44.43c0,2.27 0.51,5 -3.06,4.7c-3,-0.29 -2,-2.89 -2.12,-4.72c-0.48,-4.1 0.82,-8.33 -0.72,-12.49zm-425.4,17.4l-35.9,0c-2,0 -5,1.21 -5.05,-2.58c-0.05,-3.79 3.1,-2.82 5,-2.58c5.29,0.65 5.87,-2 5.85,-6.45c-0.127,-47 -0.127,-94 0,-141c0,-4.92 -0.68,-7.65 -6.33,-6.71c-1.82,0.31 -4.37,0.75 -4.57,-2.22c-0.24,-3.81 2.82,-2.79 4.86,-2.8c11.393,-0.067 22.787,-0.067 34.18,0c1.83,0 4.5,-0.85 4.79,2.06c0.35,3.5 -2.47,3.38 -4.69,3c-6.5,-1.17 -6.51,2.66 -6.5,7.42c0.11,46.44 0.18,92.88 -0.06,139.32c0,5.88 1.45,8 7.48,7.46c5.36,-0.53 10.82,0.06 16.22,-0.15c12.67,-0.48 20.61,-8.52 20.91,-21.14c0.15,-6.55 0,-13.1 0,-19.66c0,-2.09 0,-4.06 2.87,-4.18c2.87,-0.12 4,1.17 4,4.08c-0.12,14 -0.22,27.92 -0.09,41.88c0,4.18 -2.16,4.43 -5.39,4.4c-12.46,-0.21 -25.04,-0.15 -37.58,-0.15zm-774.13,0c-11.68,0 -23.36,0.1 -35,-0.09c-2.13,0 -5.76,1.81 -6.09,-2.33c-0.34,-4.45 3.51,-3 5.53,-2.75c5.42,0.52 5,-2.77 5,-6.38c-0.047,-47.273 -0.047,-94.547 0,-141.82c0,-4 -0.31,-6.65 -5.33,-6.05c-2,0.23 -5.07,1.2 -5.27,-2.38c-0.22,-3.91 3.05,-2.57 5,-2.59c11.39,-0.12 22.79,-0.08 34.18,0c1.84,0 4.52,-0.73 4.68,2.17c0.19,3.47 -2.76,3.25 -4.9,2.86c-6.55,-1.22 -6.55,2.62 -6.55,7.38c0.1,46.42 0.16,92.84 -0.06,139.26c0,5.75 1.18,8.15 7.34,7.55c5.65,-0.56 11.4,0.12 17.08,-0.17c12.22,-0.63 19.93,-8.66 20.18,-20.86c0.14,-6.55 0.09,-13.1 0,-19.65c0,-2.6 0.32,-4.43 3.55,-4.46c3.45,0 3.3,2.15 3.3,4.56c-0.05,13.39 -0.19,26.78 0.07,40.16c0.08,4.61 -1.56,5.78 -6,5.69c-12.22,-0.27 -24.46,-0.1 -36.71,-0.1zm380.06,-82.74c0,-23.06 -0.08,-46.12 0.07,-69.18c0,-4.77 0,-8.58 -6.51,-7.44c-1.89,0.33 -4.28,0.34 -4.32,-2.6c0,-3.23 2.6,-2.42 4.36,-2.43c11.387,-0.067 22.777,-0.067 34.17,0c2.11,0 5.16,-0.77 4.87,2.86c-0.21,2.72 -2.76,2.54 -4.68,2.21c-5.71,-1 -6.34,1.87 -6.33,6.73c0.167,46.667 0.167,93.36 0,140.08c0,5 0.48,8.41 6.72,7.3c1.92,-0.34 4.28,-0.41 4.27,2.62c-0.01,3.03 -2.26,2.65 -4.26,2.65l-35,0c-1.95,0 -4.21,0.28 -4.12,-2.78c0.09,-3.06 2.64,-2.75 4.36,-2.43c6.73,1.24 6.47,-2.89 6.45,-7.51c-0.11,-23.41 -0.05,-46.75 -0.05,-70.08z" fill="#0B0B0B"/>
   </g>
  </svg>