<svg  id="fndm-yhr9dr1ieb" viewBox="0 0 2152.999755859375 437" xmlns="http://www.w3.org/2000/svg">
   <g xmlns="http://www.w3.org/2000/svg" fill="none">
    <path d="m0,218.5c0,120.2 0.4,218.5 0.8,218.5c0.5,0 5.8,-6.4 11.7,-14.3c6,-7.8 82.6,-105.6 170.2,-217.4c87.6,-111.7 159.3,-203.4 159.3,-203.7c0,-0.3 -15.9,-0.6 -35.2,-0.6l-35.3,0.1l-107.5,137.2l-107.5,137.2l-0.3,-137.8l-0.2,-137.7l-56,0l0,218.5zm366.8,-199.8c-7.9,10.4 -84.6,108.4 -170.6,218c-85.9,109.5 -156.2,199.4 -156.2,199.7c0,0.3 15.9,0.6 35.4,0.6l35.5,0l39.2,-50l39.2,-50l136.7,0l0,100l56,0l0,-218.5c0,-120.2 -0.2,-218.5 -0.4,-218.5c-0.3,0 -6.9,8.4 -14.8,18.7zm-40.8,203.3l0,59l-46.1,0c-25.3,0 -45.9,-0.4 -45.7,-0.8c0.3,-1 91.1,-117.1 91.6,-117.2c0.1,0 0.2,26.5 0.2,59zm1530,8.5l0,80.5l21,0l0,-161l-21,0l0,80.5zm-1326.8,-75.8c0.3,1 14.1,37.3 30.8,80.8c16.6,43.4 30.7,80.1 31.2,81.5c0.8,2 1.1,2.2 1.8,1c0.9,-1.7 63,-163.7 63,-164.5c0,-0.3 -5.1,-0.5 -11.3,-0.5l-11.4,0l-20.3,54.5c-11.2,30 -20.5,54.3 -20.8,54c-0.3,-0.2 -9.5,-24.7 -20.6,-54.2l-20.1,-53.8l-11.4,-0.3c-10.5,-0.2 -11.3,-0.1 -10.9,1.5zm237.8,77.8l0,79.5l21,0l0,-159l-21,0l0,79.5zm270,0l0,79.5l20,0l0,-14.2l4,3.6c4.9,4.4 14.1,9.1 21.7,11.1c7.3,1.9 22.3,1.9 29.6,0c18.8,-4.9 34.5,-20.3 40.1,-39.4c2,-6.9 2.1,-22.7 0.1,-30c-4.8,-18.1 -19.3,-33.2 -37.6,-39.1c-9.4,-3.1 -24.2,-3.4 -33.4,-0.6c-6.4,1.9 -15.9,6.9 -21.2,11.2l-3.3,2.7l0,-64.3l-20,0l0,79.5zm76.8,-6.5c15.1,8 22.8,24.4 18.8,40c-2.9,11.4 -10.3,20.2 -21.2,25.2c-7.5,3.5 -20.8,3.3 -28.6,-0.4c-7.4,-3.4 -15.2,-11.3 -18.5,-18.6c-3.8,-8.2 -3.9,-20.3 -0.2,-28.2c4.5,-9.6 10.6,-15.4 20.8,-19.7c4.7,-2 6.9,-2.3 14.1,-2c7.4,0.3 9.3,0.7 14.8,3.7zm388.3,5.7c-18.9,42.8 -34.5,78.4 -34.8,79c-0.4,1 2.1,1.3 10.3,1.3l10.9,0l8.5,-20.3l8.5,-20.2l60.7,0l8.2,20l8.3,20l11.1,0.3l11.2,0.3l-0.9,-2.3c-2.9,-7.6 -66.4,-154.4 -67,-155.1c-0.4,-0.4 -16.2,34.2 -35,77zm45.3,-4.8c5.8,13.9 10.6,25.5 10.6,25.7c0,0.2 -9.9,0.4 -22.1,0.4c-17.3,0 -22,-0.3 -21.6,-1.3c1.6,-4.1 20.1,-47.5 20.9,-49c0.5,-1 1.1,-1.7 1.3,-1.5c0.1,0.1 5.1,11.7 10.9,25.7zm460.1,-63.9c-5.9,3.9 -8,11.5 -5.1,18.5c2,4.7 6.9,7.5 13,7.5c14.2,0 19.7,-16 8.7,-25.3c-4.1,-3.4 -11.9,-3.8 -16.6,-0.7zm-1160.2,39c-31.2,5.6 -52,35.5 -46,66.1c3.1,15.6 10.9,27.7 23.4,36.3c10,6.8 16.6,8.9 30,9.4c12.9,0.5 24.4,-1.4 33.6,-5.5l5.7,-2.6l0,-28.4l-4.3,4.1c-8.2,7.9 -23.2,13.2 -34.8,12.3c-12.6,-0.8 -24.7,-8.9 -30.5,-20.4c-2.6,-5.2 -2.9,-6.8 -2.9,-15.3c0,-8.4 0.3,-10.2 2.8,-15.2c3.6,-7.3 10.1,-13.9 17.3,-17.4c13.9,-6.8 35.4,-2.8 48,8.8l4.4,4.1l0,-28.4l-5.2,-2.3c-11,-4.9 -30.7,-7.5 -41.5,-5.6zm107.2,-0.4c-22.2,3.4 -41.1,19.8 -46.8,40.4c-7.4,26.4 4.5,54 28.2,66c9,4.5 15.5,6 26.1,6c14.9,0 27,-4.1 37,-12.7l4,-3.5l0,14.2l20,0l0,-108l-20,0l0,12.9l-7.7,-5.2c-4.3,-2.9 -10.8,-6.3 -14.6,-7.5c-6.6,-2.2 -20.2,-3.5 -26.2,-2.6zm23.7,24.2c11.3,5.6 18.6,16 20.4,28.9c1.3,10.5 -5,24.9 -13.9,31.4c-7.8,5.7 -12.3,7.2 -22.2,7.3c-7.8,0.1 -9.8,-0.3 -14.7,-2.6c-7.9,-3.7 -14.2,-9.8 -18,-17.7c-2.9,-5.8 -3.3,-7.5 -3.3,-15.1c0,-9.9 2.6,-16.8 9.1,-24c7.8,-8.7 16.1,-12.1 27.9,-11.8c6.8,0.3 9.1,0.8 14.7,3.6zm291.1,-23.8c-18,3.3 -32.9,14.4 -41.2,31c-12.5,25 -4.9,54.9 18.1,71c9.9,7 19.8,10 32.6,10c14.7,0 24.8,-3.3 35.5,-11.4l4.7,-3.6l0,13l21,0l0,-108l-21,0l0,13.2l-4,-3.4c-11,-9.4 -30.5,-14.5 -45.7,-11.8zm24.9,23.2c25.4,11.8 28.3,46.6 5.3,62.3c-18.1,12.3 -42.5,5.9 -52.8,-14c-2.9,-5.5 -3.2,-6.8 -3.2,-15.5c0,-7.6 0.4,-10.4 2.2,-14.2c2.2,-4.9 8.7,-12.5 13.5,-15.9c9.1,-6.5 24.4,-7.7 35,-2.7zm89.1,-23.2c-10.5,2.2 -19.7,9.1 -23.3,17.4c-4.1,9.4 -3.4,21.8 1.8,29.5c4,5.9 10.4,10.4 25.3,17.9c10.4,5.2 13.9,7.5 15.7,10.2c3.7,5.5 1.7,12.6 -4.5,16.7c-3.4,2.2 -12.6,2.2 -16.9,0c-3.9,-2 -9.2,-7.9 -10,-11.2c-0.3,-1.4 -1,-2.5 -1.5,-2.5c-0.7,0 -16.2,9.2 -17.8,10.6c-0.9,0.8 6.4,11.6 10,14.9c8.1,7.3 20.3,10.4 33.7,8.5c13.5,-1.9 23,-8 27.6,-17.9c3.1,-6.7 3.1,-23.8 -0.1,-29.6c-3.7,-7.1 -10.5,-12.2 -24.6,-18.9c-18.9,-9 -23.5,-15 -17.2,-22.5c5.3,-6.3 14.1,-6.4 20.4,-0.2c2.1,2 4,4.3 4.3,5.1c0.4,1.4 2.4,0 15.8,-10.7c0.2,-0.2 -0.5,-2 -1.5,-3.9c-2.6,-4.9 -8.8,-10 -14.4,-11.9c-5.7,-1.9 -17.2,-2.7 -22.8,-1.5zm-176.4,1.6c-2.5,0.7 -6.6,3.1 -9,5.2l-4.3,3.9l-3.4,-4.3l-3.3,-4.4l-20.9,0l0,108l20.9,0l0.3,-33.3l0.3,-33.2l2.9,-5.3c1.7,-2.9 4.8,-6.6 7,-8.3c4.7,-3.4 15.1,-6.9 20.7,-6.9l3.9,0l0,-23l-5.2,0.1c-2.9,0 -7.4,0.7 -9.9,1.5zm613.1,7l0,8.6l-4.2,-3.7c-5.8,-4.9 -14.9,-9.2 -23.3,-11c-36.7,-7.7 -70.3,20.6 -68.2,57.5c1.7,31.4 27.8,54.6 59.2,52.7c12.5,-0.8 21.6,-4.1 30.9,-11.2c2.5,-1.9 4.8,-3.5 5.1,-3.5c0.3,0 0.5,2.5 0.5,5.5l0,5.5l20,0l0,-109l-20,0l0,8.6zm-26.3,15.6c7,2.6 15.7,10.8 19.3,18.3c2.1,4.2 2.5,6.5 2.5,14.5c0,8.4 -0.3,10.2 -2.8,15.1c-7.4,15.2 -24.8,23.5 -40.7,19.5c-18.3,-4.6 -30.2,-22.5 -26.9,-40.3c1.4,-7.4 4,-12.4 9.7,-18.5c10.3,-11 24.3,-14.1 38.9,-8.6zm137.3,-23c-19.7,2.7 -34.6,17.2 -39.6,38.4c-2.3,10 -1.5,30.5 1.6,39.3c4.8,13.5 16,25.3 28.7,30.1c7.2,2.8 24,3.8 32.6,2c9.5,-1.9 20.5,-8.1 27.4,-15.2c3.3,-3.5 6.7,-7.7 7.6,-9.5l1.7,-3.2l-6.7,-3.9c-12,-6.9 -10.8,-6.8 -14.2,-1.9c-3.4,5 -9.7,10.9 -13.9,13.1c-4.3,2.2 -13.5,3.4 -19.3,2.5c-12.6,-2 -23.6,-14.1 -25.5,-28.2l-0.7,-4.7l80.3,0l0,-5.3c-0.1,-8.9 -2.7,-20.5 -6.4,-28.3c-6.6,-13.9 -17.5,-22.3 -32.4,-25c-8.7,-1.5 -11.9,-1.5 -21.2,-0.2zm20.1,19.3c6.5,2.2 11.3,6.7 14.8,13.7c5.3,10.6 7.4,9.8 -25.4,9.8c-15.7,0 -28.5,-0.2 -28.5,-0.5c0,-0.2 0.9,-2.8 2,-5.8c3,-8 10.7,-15.2 19,-17.8c4.3,-1.3 13.4,-1 18.1,0.6zm181.9,-11.9l0,8.6l-4.2,-3.7c-9.7,-8.3 -25.2,-13.1 -38.8,-12.1c-40.7,2.9 -64.9,44.6 -46.8,80.7c7.3,14.6 21.4,25.7 37.4,29.5c15.8,3.7 35.4,-0.6 47.9,-10.6l4,-3.2l0.3,5.6l0.3,5.6l19.9,0l0,-109l-20,0l0,8.6zm-26.5,15.5c7.2,2.7 15.3,10.1 19,17.4c4,8 4.7,19.5 1.5,27.7c-3,8 -10.4,15.9 -18.8,20c-5.9,2.9 -7.6,3.3 -14.7,3.3c-6.8,0 -8.9,-0.5 -14.5,-3.1c-13.1,-6.2 -20.2,-16.7 -20.8,-30.9c-0.5,-10.2 2,-17.3 8.5,-24.5c10.7,-12 24.9,-15.5 39.8,-9.9zm-485.5,-13.1l0,10l28.9,0.2l28.9,0.3l-34.9,43.3c-19.2,23.9 -34.9,43.6 -34.9,43.8c0,0.2 24.3,0.4 54,0.4l54,0l0,-20l-33.3,-0.2l-33.4,-0.3l34.9,-43.2c19.1,-23.8 34.8,-43.5 34.8,-43.8c0,-0.3 -22.3,-0.5 -49.5,-0.5l-49.5,0l0,10zm383,44l0,54l21,0l0,-108l-21,0l0,54zm-1347.7,-18.8c0.5,38.1 0.8,40.4 7.4,53.1c4.5,8.5 13.1,16.7 21,19.8c5,2.1 7.6,2.4 18.8,2.4c12.6,0 13.2,-0.1 19.8,-3.2c8.6,-4.1 15.5,-11.1 20.2,-20.6c5.8,-11.9 6.5,-17.1 6.5,-53.5l0,-32.2l-20,0l0,28.2c0,30.9 -0.8,39.6 -4.4,47.3c-4.7,10.2 -10.7,14 -22.1,14c-11.5,0 -17.6,-3.6 -22.3,-13c-3.6,-7.4 -4.2,-13.5 -4.2,-45.5l0,-31l-21.2,0l0.5,34.2z" fill="#133777"/>
    <path d="m56,0l108.66,0l-108.66,157.961l0,-157.961z" fill="#A9BF70"/>
    <path d="m164.66,0l106.84,1.1l-215,274.4l-0.5,-117.539l108.66,-157.961z" fill="#E9CD5F"/>
   </g>
  </svg>