<svg xmlns="http://www.w3.org/2000/svg" data-id="fndm-ilnmrl8c5f" fill-rule="evenodd" clip-rule="evenodd" image-rendering="optimizeQuality" shape-rendering="geometricPrecision" text-rendering="geometricPrecision" viewBox="26.579986572265625 112.75997924804688 726.3699951171875 164.71005249023438"><g><path fill="#0f4b55" d="M26.58 161.48l14.74 0.03c10.63,0.02 24.05,9.16 28.06,19l30.29 74.29c4.14,10.14 13.07,10.14 17.21,0l30.29 -74.29c4.01,-9.84 17.43,-18.98 28.07,-19l14.74 -0.03 -35.46 86.78c-5.79,14.16 -24.59,27.6 -36.65,27.6l-19.18 0c-12.07,0 -30.87,-13.44 -36.65,-27.6l-35.46 -86.78zm184.51 114.2l34.23 0 0 -113.99 -34.23 0 0 113.99zm17.12 -129.1c11.74,0 21.26,-7.57 21.26,-16.91 0,-9.34 -9.52,-16.91 -21.26,-16.91 -11.75,0 -21.27,7.57 -21.27,16.91 0,9.34 9.52,16.91 21.27,16.91zm286.29 12.96c46.26,0 73.2,26.36 73.47,58.97 0,0.75 -1.42,2.24 -2.4,2.24l-24.3 0 -8.82 0 -75.91 0c0.82,23.44 17.67,42.08 37.96,42.08 20.28,0 32.16,-10.23 37.59,-25.06l35.19 0c-8.72,23.13 -31.31,39.7 -72.78,39.7 -41.48,0 -73.21,-26.35 -73.48,-58.96 0.27,-32.61 27.21,-58.97 73.48,-58.97zm37.35 50.09c-2.98,-20.22 -16.29,-35.45 -37.35,-35.45 -21.06,0 -34.38,15.23 -37.36,35.45l74.71 0zm127.62 -50.09c46.26,0 73.21,26.36 73.48,58.97 -0.27,32.61 -27.22,58.96 -73.48,58.96 -46.26,0 -73.2,-26.35 -73.47,-58.96 0.27,-32.61 27.21,-58.97 73.47,-58.97zm38 58.97c0,-24.48 -13.95,-44.33 -38,-44.33 -24.04,0 -37.99,19.85 -37.99,44.33 0,24.48 13.95,44.32 37.99,44.32 24.05,0 38,-19.84 38,-44.32zm-447.5 -57.03l14.74 0.03c10.63,0.02 24.05,9.16 28.06,19l30.29 74.29c4.14,10.14 13.08,10.14 17.21,0l30.29 -74.29c4.01,-9.84 17.43,-18.98 28.07,-19l14.74 -0.03 -35.46 86.78c-5.79,14.16 -24.59,27.6 -36.65,27.6l-19.18 0c-12.07,0 -30.87,-13.44 -36.65,-27.6l-35.46 -86.78z"/></g></svg>