<svg  id="fndm-damb4f25v0" viewBox="0 0 979.14599609375 686.5250244140625" xmlns="http://www.w3.org/2000/svg">
   <g xmlns="http://www.w3.org/2000/svg" fill="#005da4">
    <path d="m3.701,0l-3.701,0l0,541.838l382.673,0l0,-389.707l-88.1,0l0,300.609l-59.157,0l0,-304.263l-88.099,0l0,304.263l-55.456,0l0,-363.642l887.239,0l0,-89.098l-975.399,0z"/>
    <path d="m742.848,152.113l0,389.77l144.184,0l0,63.034l-887.032,0l0,81.608l979.146,0l0,-534.412l-232.492,0l-3.806,0zm88.46,92.875l55.724,0l0,211.482l-55.725,0l0.001,-211.482z"/>
    <path d="m439.862,152.113l0,389.77l247.413,0l0,-85.413l-158.953,0l0,-59.38l162.607,0l0,-244.976l-251.067,-0.001zm88.46,89.069l70.341,0l0,70.646l-70.341,0l0,-70.646z"/>
   </g>
  </svg>