<svg xmlns="http://www.w3.org/2000/svg" fill-rule="evenodd" clip-rule="evenodd" image-rendering="optimizeQuality" shape-rendering="geometricPrecision" text-rendering="geometricPrecision" viewBox="-2 1 6600 3300"><g><rect width="6600" height="3300" x="-2" y="1" fill="#727376"/><g><g data-name="Layer 2"><g fill="#fefefe" fill-rule="nonzero" data-name="Layer 1"><path d="M5458.81 2068.48c-32.97,-44.38 -65.23,-89.3 -98.9,-133.02 -76.74,-98.9 -161.83,-191.21 -240.71,-288.47 -52.79,-64.95 -104.96,-130.14 -157.3,-195.04 -6.43,-7.96 -13.35,-15.58 -20.19,-23.21 -3.67,-4.12 -7.54,-8.77 -13.76,-7.29 -7.17,1.69 -8.82,7.95 -9.48,14.26 -0.93,7.44 -1.54,15.01 -1.7,22.5 0.34,163.3 0.81,326.61 1.41,489.94 0.21,42.32 18.79,70.43 49.78,78.75 9.98,2.33 20.21,4.13 30.36,5.26 6.43,0.95 13.81,2.64 13.44,9.77 -0.37,8.24 -8.74,7.38 -14.63,7.09 -66.51,-3.26 -133.07,-3.3 -199.66,-2.02 -5.36,0 -11.99,0.99 -12.69,-6.72 -0.7,-7.7 6.01,-8.24 10.92,-10.26 2.61,-0.8 5.3,-1.44 8,-1.88 42.86,-10.72 59.3,-29.96 62.93,-74.18 4.57,-55.22 3.83,-110.61 4.86,-165.95 2.31,-124.99 1.69,-250.18 8.94,-375.01 3.84,-65.93 -27.19,-106.65 -72.52,-144.23 -9.11,-7.54 -28.15,-12.36 -24.44,-23.99 3.71,-11.62 22.01,-5.39 33.71,-5.31 86.54,0.45 66.43,-10.55 119.51,59.22 138.5,181.98 289.04,354.4 431.25,533.21 14.88,18.75 29.63,37.62 44.63,56.33 3.3,4.12 6.14,10.39 12.66,8.7 6.51,-1.69 5.56,-8.66 6.26,-13.85 4.86,-35.36 3.01,-70.96 3.46,-106.44 1.73,-138.69 3.36,-277.43 4.9,-416.22 0,-10.25 -0.18,-20.5 -0.53,-30.74 -1.65,-35.57 -18.88,-55.02 -54.32,-61.37 -10.79,-1.97 -21.71,-3.21 -32.51,-5.23 -5.32,-0.99 -11.79,-2.64 -10.88,-9.72 0.82,-6.35 6.84,-8.25 12.36,-8.25 10.26,0 20.61,0.54 30.87,0.58 50.11,0 100.18,0 150.29,0 7.62,0 18.54,-3.38 20.61,7.83 2.06,11.21 -8.58,12.08 -16.24,14.63 -55.68,18.38 -55.55,18.38 -57.7,77.15 -8.24,229.45 -12.85,458.95 -11.04,688.57 0,11.54 1.03,23.24 -3.83,34.24l-8.12 0.37 0 0z"/><path d="M6002.41 2068.48c-22.83,-8.24 -47.27,-5.97 -70.68,-10.83 -160.72,-33.34 -259.62,-132.25 -295.1,-289.13 -34.17,-150.75 -8.24,-291.93 99.44,-409.17 90.95,-99.19 208.44,-133.64 340.88,-124.37 75.99,5.31 146.01,29.42 212.77,64.7 11.21,5.93 18.3,12.65 18.71,26.41 1.32,45.04 3.79,90.05 5.4,135.09 0.24,7.42 3.71,18.05 -8.95,19.16 -10.09,0.87 -11.16,-7.83 -13.26,-15.16 -32.44,-114.86 -117.04,-181.33 -241.16,-188.42 -72.53,-4.12 -142.71,4.95 -205.8,44.14 -75.05,46.48 -112.71,117.45 -128.62,201.1 -22.87,120.21 -10.92,235.76 54.93,341.59 90.66,145.18 249.53,186.56 393.93,144.44 14.57,-3.97 28.3,-10.76 40.3,-19.95 12.24,-8.83 19.49,-23.02 19.49,-38.12 0,-0.22 0,-0.44 0,-0.66 0,-34.86 0.7,-69.72 -0.29,-104.5 -1.11,-38.37 -14.83,-51.85 -53.57,-56.17 -8.86,-0.99 -17.6,-2.64 -26.46,-3.79 -6.1,-0.83 -10.84,-3.79 -11.08,-10.02 -0.29,-7.66 5.85,-10.26 12.36,-11.33 1.41,-0.14 2.84,-0.22 4.26,-0.22 1.99,0 3.99,0.15 5.96,0.42 37.89,2.73 76.14,4.24 114.21,4.24 26.94,0 54.26,-0.76 81.02,-2.08 2.49,-0.22 5.01,-0.31 7.5,-0.31 9.1,0 18.2,1.18 27.01,3.47l0 12.37c-5.49,2.67 -11.19,4.97 -17.01,6.79 -47.51,11.5 -61.07,26.99 -62.35,76.24 -0.99,38.2 -0.37,76.44 0.5,114.64 0.28,12.37 -3.22,20.61 -14.92,25.84 -34.78,16.2 -69.52,32.56 -107.15,41.75 -31.81,7.83 -63.83,14.59 -95.77,21.8l-86.5 0.04 0 0z"/><path d="M1606.65 1247.79c103.03,3.46 205.85,-0.57 308.75,-2.47 23.82,-0.41 26.58,2.02 25.59,25.39 -0.16,6.28 -0.31,12.83 -0.31,19.15 0,24.36 1.48,48.79 4.42,72.93 0.78,6.8 4.12,17.1 -6.26,18.95 -10.39,1.86 -10.22,-8.9 -12.82,-15.45 -2.6,-6.55 -4.49,-12.94 -6.55,-19.45 -11.17,-35.11 -35.65,-54.98 -72,-57.94 -71.25,-5.81 -142.58,-4.12 -213.92,-0.33 -12.36,0.66 -18.29,6.47 -18.66,19.32 -2.85,94.29 -0.95,188.58 -1.24,282.91 0,13.97 6.02,19.24 19.99,19.12 54.89,-0.62 109.82,0.33 164.84,-0.91 40.88,-0.94 49.45,-8.94 60.33,-47.35 1.77,-6.3 2.02,-16.19 10.63,-15 8.61,1.2 6.06,11.09 5.4,17.23 -5.24,52.01 0,103.68 4.12,155.44 0.49,6.31 3.34,16.9 -4.7,17.89 -9.73,1.23 -8.98,-9.85 -10.38,-16.9 -10.47,-52.21 -26.05,-65.69 -79,-66.43 -48.71,-0.66 -97.42,-1.69 -146.17,0.33 -16.86,0.66 -24.19,5.52 -23.7,24.07 2.39,88.1 3.34,176.25 5.19,264.36 0.42,10.88 1.94,21.8 4.51,32.41 4.45,19.21 16.28,30.99 36.72,33.3 27.55,3.33 55.64,5.03 83.47,5.03 40.05,0 80.1,-3.48 119.47,-10.35 34.08,-6.27 58.6,-28.85 75.16,-58.89 4.22,-8.52 7.9,-17.45 10.91,-26.48 1.93,-5.2 3.09,-11.87 10.3,-9.98 7.21,1.9 5.11,8.94 4.45,14.05 -1.15,8.78 -2.83,17.54 -4.99,26.13 -6.38,25.14 -13.84,50.03 -19.49,75.33 -4.12,18.67 -14.01,25.22 -33.22,24.73 -126.96,-2.15 -253.93,-2.24 -380.91,-0.26 -17.8,0.29 -35.6,1.73 -53.57,2.56 -4.7,0.2 -10.59,1.23 -11.54,-5.24 -0.95,-6.47 4.66,-7.41 9.23,-8.98 12.37,-4.12 24.73,-8.24 37.09,-12.77 20.03,-7.79 30.04,-23.21 31.07,-44.18 0.97,-19.23 1.42,-38.35 1.36,-57.37 -0.46,-184.53 -1.04,-369.07 -1.73,-553.61 -0.27,-19.02 -1.57,-38.34 -3.84,-57.21 -3.54,-31.12 -21.92,-47.23 -53.57,-48.34 -42.03,-1.45 -70.51,16.07 -87.53,54.89 -104.42,237.87 -208.62,475.77 -312.61,713.69 -1.4,3.13 -2.59,6.34 -4.12,9.39 -2.92,5.9 -3.75,14.38 -12.36,14.8 -10.18,0.53 -10.96,-9.15 -13.64,-15.58 -63.66,-151.1 -127.17,-302.32 -190.56,-453.64 -1.07,-2.51 -1.85,-5.15 -3.04,-7.58 -3.51,-7.09 -4.5,-17.47 -15.01,-17.1 -8.73,0.33 -11.12,9.1 -14.13,15.9 -10.99,25.03 -21.98,50.07 -32.97,75.13 -56.62,129.65 -113.28,259.28 -169.99,388.9 -2.84,6.47 -3.5,16.48 -12.73,16.73 -9.23,0.25 -9.48,-10.22 -12.16,-16.82 -94.2,-232.25 -187.87,-464.84 -291.39,-693.43 -4.78,-10.59 -10.1,-20.98 -15.91,-31.03 -14.55,-25.18 -32.97,-45.33 -64.62,-48.09 -8.07,-0.75 -18.58,-1.86 -17.88,-12.61 0.66,-9.94 10.96,-8.62 18.13,-8.74 62.44,-1.36 124.91,1.98 187.3,-2.06 5.03,-0.33 10.55,0 12.36,5.31 2.11,6.39 -3.01,9.9 -8.03,12.37 -3.08,1.52 -6.28,2.81 -9.56,3.83 -31.4,10.55 -37.62,20.94 -31.44,53.21 4.41,22.95 13.23,44.5 22,65.93 71.43,175.28 142.95,350.53 214.58,525.75 1.9,5.11 4.18,10.14 6.76,14.92 5.32,9.15 11.7,8.62 17.51,0.58 2.97,-4.57 5.65,-9.41 7.96,-14.35 54.35,-103.03 93.71,-212.56 140.69,-318.8 9.64,-21.84 19.16,-43.81 29.67,-65.32 3.19,-5.84 4.87,-12.41 4.87,-19.09 0,-5.57 -1.17,-11.09 -3.43,-16.17 -25.59,-60.25 -50.69,-120.83 -75.87,-181.62 -12.36,-29.79 -36.35,-42.73 -66.92,-47.35 -8.57,-1.27 -23.45,0.95 -22.34,-11.95 1.11,-13.51 15.58,-7.7 23.82,-7.41 60.37,2.1 120.62,5.68 180.99,0 7.63,-0.7 19.33,-2.52 20.36,8.24 1.03,10.75 -10.67,9.93 -18.3,11.7 -27.77,6.31 -38.28,22.59 -29.91,51.76 9.06,31.49 19.36,62.72 31.52,93.13 66.29,165.56 133.07,330.96 200.32,496.21 0.78,1.89 1.28,3.91 2.23,5.73 3.75,6.8 4.12,17.72 14.67,17.39 9.1,-0.25 10.26,-10.02 13.18,-16.49 45.86,-103.02 91.58,-206.05 137.19,-309.07 34.84,-78.74 69.51,-157.56 104.01,-236.46 7.81,-16.7 13.41,-34.45 16.49,-52.62 3.42,-23.53 -7.87,-40.18 -31.03,-45.33 -10.71,-2.39 -21.63,-3.71 -32.43,-5.52 -6.22,-1.41 -14.14,-2.72 -13.89,-9.65 0.21,-9.06 9.07,-9.19 15.83,-8.69 38.36,2.59 76.69,3.33 115.38,2.8 67.05,-1.11 134.31,-0.45 201.56,-0.45l-0.01 -0.01z"/><path d="M2935.5 1244.58c120.09,2.43 240.21,5.85 360.25,0.95 6.02,-0.25 13.4,-1.82 15.01,6.51 1.27,6.51 -4.41,9.39 -9.48,11.7 -13.85,6.31 -31.94,5.56 -38.45,23.74 -7.5,21.02 -0.83,40.96 6.59,59.83 32.97,83.91 67.01,167.48 100.97,251.01 42.74,105.14 85.69,210.14 128.82,315.01 3.13,7.62 3.62,19.62 15.12,19.41 9.6,0 11.42,-10.76 15.13,-17.72 53.86,-100.97 92.59,-208.56 138.5,-313.2 10.72,-24.39 21.47,-48.79 32.97,-72.85 3.24,-5.9 4.95,-12.53 4.95,-19.27 0,-5.51 -1.14,-10.97 -3.35,-16.01 -25.55,-60.41 -50.35,-121.16 -75.86,-181.61 -10.55,-24.93 -28.85,-41.21 -56.75,-44.84 -6.75,-0.95 -13.52,-2.36 -20.11,-4.12 -5.77,-1.48 -13.39,-2.02 -12.98,-10.34 0.41,-8.33 8.24,-7.71 14.09,-7.71 14.39,0 28.85,-0.49 43.19,0.74 21.89,1.88 44.19,2.96 66.22,2.96 21.75,0 43.59,-0.99 65.26,-2.9 5.17,-0.33 10.41,-0.54 15.6,-0.54 3.04,0 6.13,0.08 9.14,0.18 5.64,0 11.87,1.45 12.36,8.25 0.5,6.8 -4.94,8.61 -10.55,10.42 -41.74,13.27 -48.17,25.43 -34.04,66.97 50.65,148.89 115.39,292.22 172.67,438.59 18.63,47.72 38.16,95.16 57.69,142.55 2.93,7.17 4.12,17.72 14.72,17.22 9.06,-0.41 10.17,-10.22 13.06,-16.73 79.29,-178.57 158.41,-357.32 237.34,-536.25 8.82,-19.98 17.59,-40.14 20.11,-62.18 2.88,-25.47 -8,-40.51 -33.22,-45.33 -11.41,-2.27 -22.99,-3.75 -34.41,-6.06 -4.78,-0.95 -9.64,-3.38 -9.31,-9.19 0.37,-4.53 4.16,-8.03 8.71,-8.03 0.54,0 1.09,0.06 1.63,0.16 61.82,5.15 123.63,1.15 185.16,2.43 4.12,0 8.94,0.66 9.68,5.69 0.78,5.81 -3.67,8.24 -8.49,9.89 -0.63,0.27 -1.29,0.45 -1.98,0.53 -49.86,1.98 -68.4,37.09 -85.55,76.61 -100.85,231.93 -202.21,463.61 -304.08,695.04 -1.12,2.52 -2.06,5.11 -3.34,7.5 -2.8,5.24 -4.12,12.37 -11.87,12.37 -7.75,0 -9.31,-7.01 -11.7,-12.37 -16.49,-38.24 -33.38,-76.44 -49.45,-114.89 -48.47,-116.02 -96.81,-232.09 -145.02,-348.22 -3.05,-7.34 -4.37,-17.97 -13.97,-18.55 -10.92,-0.61 -13.27,10.47 -16.69,18.3 -66.59,152.15 -133.11,304.33 -199.54,456.56 -1.61,3.79 -2.92,7.71 -4.86,11.29 -2.43,4.66 -3.83,11.13 -10.8,10.76 -6.96,-0.37 -7.87,-6.88 -9.85,-11.74 -48.71,-119.51 -96.43,-239.64 -146.33,-358.53 -48.05,-114.73 -96.14,-229.41 -147.49,-342.78 -14.34,-31.65 -37.59,-46.24 -70.06,-47.72 -64.45,-2.89 -128.9,-3.75 -193.27,2.97 -12.36,1.27 -18.71,7.25 -18.83,19.69 0,8.25 -0.41,16.49 -0.41,24.73 -0.01,200.94 -0.01,401.88 -0.01,602.81 0,47.73 15.21,66.31 62.27,76.45 10.72,2.31 21.51,4.12 32.19,6.76 5.4,1.23 11.25,3.09 10.51,10.3 -0.75,7.21 -6.97,8.45 -12.37,8.49 -14.38,0 -28.84,-0.95 -43.14,-0.99 -70.68,-0.25 -141.4,0 -212.07,-0.66 -7.17,0 -18.96,5.28 -19.9,-7.09 -0.87,-11.49 11.62,-8.94 18.75,-11.29 6.57,-1.71 13.34,-3.13 20.06,-4.13 49.08,-10.22 60.62,-24.36 63.67,-74.96 5.61,-92.19 2.52,-184.5 3.46,-276.73 1.2,-112.04 0.87,-224.13 1.08,-336.22 0,-37.09 -5.94,-43.48 -42.2,-44.06 -8.35,-0.06 -17.23,-0.23 -25.78,-0.23 -41.39,0 -83.28,2.01 -124.33,5.7 -44.92,3.34 -74.59,26.58 -93.55,65.85 -2.93,6.02 -4.37,17.52 -14.63,12.37 -8.24,-4.12 -1.32,-12.7 0.54,-18.34 10.22,-31.32 14.63,-63.88 21.63,-95.86 3.38,-15.28 10.06,-19.49 24.97,-19.41 118.56,0.66 237.25,0.42 355.97,0.42l0.03 -0.06z"/><path d="M2331.41 1240.5c32.43,-1.73 68.82,6.96 105.74,9.52 10.47,0.74 18.79,5.97 19.53,17.51 2.48,39.48 4.54,79.04 6.6,118.56 0.33,6.1 -2.43,11.17 -8.86,11.83 -5.44,0.58 -8.66,-3.67 -10.02,-8.61 -2.63,-9.89 -5.4,-19.78 -7.37,-29.8 -8.74,-44.3 -36.14,-68.28 -80.24,-76.52 -29.34,-5.28 -58.68,-7.54 -87.86,-1.45 -88.1,18.38 -133.85,111.27 -95.27,192.78 18.04,38.12 47.96,66.27 79.9,92.48 36.64,30 76.94,54.93 115.88,81.68 21.89,15.2 42.72,32.06 62.16,50.3 78.3,72.65 66.84,227.81 4.78,291.31 -40.96,41.95 -92.14,60.66 -148.35,68.53 -20.55,2.68 -41.38,4.02 -62.15,4.02 -38.27,0 -76.42,-4.62 -113.57,-13.63 -12.9,-2.97 -19.21,-8.74 -20.36,-21.22 -3.59,-37.92 -9.42,-76.1 -16.86,-113.46 -0.52,-3.12 -0.78,-6.29 -0.78,-9.44 0,-0.98 0.03,-1.97 0.08,-2.94 0,-5.27 -1.4,-11.74 6.22,-13.18 7.62,-1.45 9.35,4.12 11.17,9.47 1.36,3.88 2.18,7.92 3.34,11.83 17.51,59.14 55.42,96.1 117.28,107.15 50.56,8.94 99.85,8.61 144.89,-20.61 77.06,-49.95 91.24,-161.99 29.26,-229.41 -27.57,-30 -60.08,-53.58 -93.38,-76.9 -44.47,-30.83 -89.22,-60.99 -129.15,-98.04 -72.78,-67.54 -70.35,-166.69 -44.06,-233.16 29.43,-73.77 99.57,-117.33 188.04,-118.6 6.23,-0.05 12.37,0 23.41,0l0 0z"/><path d="M4531.06 2048.04c-34.95,0 -70.06,0 -104.88,0 -6.27,0 -15.17,3.3 -16.49,-6.71 -1.31,-9.03 6.89,-11.05 13.36,-12.7 50.81,-13.06 63.87,-46.36 64.28,-92.14 1.38,-148.19 2.16,-296.37 2.35,-444.53 0,-52.54 3.46,-105.08 -0.99,-157.67 -4.12,-47.84 -14.87,-61.11 -61.81,-71.95 -5.81,-1.32 -16.2,0 -14.34,-10.38 1.61,-8.86 10.71,-7.01 17.22,-6.76 70.06,2.35 139.83,3.42 209.76,0 4.66,-0.25 10.51,-1.44 12.36,4.57 1.9,6.68 -3.29,9.69 -8.57,11.99 -1.23,0.54 -2.55,0.91 -3.87,1.36 -59.88,21.1 -68.78,32.23 -71.13,94.04 -7.66,200.04 -5.44,400.07 0.33,600.1 1.32,46.15 14.79,60.62 60.74,71.33 9.11,2.15 25.26,0.29 23.45,13.48 -1.61,11.62 -16.24,5.23 -25.1,5.36 -32.22,0.49 -64.45,0.2 -96.67,0.2l0 0.41z"/></g></g></g></g></svg>