<svg  id="fndm-68vieocivu" viewBox="11.684995651245117 66.94823455810547 234.3310089111328 124.9168930053711" xmlns="http://www.w3.org/2000/svg">
   <g xmlns="http://www.w3.org/2000/svg" fill-rule="evenodd">
    <path d="m194.156,117.857c-6.51,0 -11.395,4.574 -11.395,11.627c0,6.977 4.73,11.782 11.395,11.782c6.745,0 11.008,-4.65 11.008,-11.704c0,-6.975 -4.263,-11.705 -11.008,-11.705zm3.721,17.364a3.722,3.722 0 0 1 -3.721,3.72c-2.013,0 -3.643,-1.628 -3.643,-3.72l0,-11.782a3.641,3.641 0 0 1 3.643,-3.644c2.016,0 3.721,1.629 3.721,3.644l0,11.782m-27.75,-16.977c-1.627,0 -3.876,0.31 -5.039,1.939l0,-2.094c-2.944,0.543 -3.41,0.698 -10.232,0.698l0,2.326c2.248,0 3.644,0.155 3.644,2.635l0,21.86c-0.077,2.79 0.388,4.805 -3.72,4.805l0,2.482l14.572,0l0,-2.482l-0.465,0c-2.791,0 -3.799,-1.472 -3.799,-3.1l0,-8.139c1.319,1.783 3.101,2.17 4.728,2.17c6.28,-0.078 9.69,-4.263 9.69,-11.782c0,-6.822 -2.79,-11.318 -9.38,-11.318l0.001,0zm1.628,17.597c0,1.705 -1.319,3.1 -3.024,3.1a3.11,3.11 0 0 1 -3.1,-3.1l0,-11.781c0,-1.706 1.396,-3.024 3.1,-3.024c1.705,0 3.024,1.318 3.024,3.024l0,11.782" fill="#231f20"/>
    <path d="m120.672,127.237c-1.24,1.239 -2.403,2.48 -3.566,3.643l0,-4.341l3.101,-3.1c0.233,0.309 0.465,0.465 0.465,1.396l0,2.402m17.905,-16.667a177.72,177.72 0 0 0 -6.898,6.125l0,-1.86c-0.697,0.542 -3.1,1.085 -4.03,1.161a160.361,160.361 0 0 1 9.302,-8.603l0,3.1l1.626,0.078" fill="#f9b018"/>
    <path d="m147.105,103.361c14.572,-11.782 30.387,-22.246 46.587,-29.378c11.007,-4.495 17.363,-6.356 21.859,-1.395c4.497,4.884 -5.192,20.775 -7.21,22.79c-2.48,-0.775 -3.41,0.465 -3.41,0.465c0.93,-0.311 2.558,0.388 1.473,2.868c-0.464,0.929 -2.324,2.248 -3.101,0.077c-0.928,2.325 -3.176,6.279 -5.89,9.921c-9.146,12.482 -21.86,24.496 -40.385,41.007c-30.31,26.975 -45.968,33.021 -56.51,37.44c-7.597,2.867 -26.898,7.054 -14.262,-16.278c2.635,-6.046 9.689,-16.124 19.766,-27.75l-3.1,0l0,-1.086c-7.442,8.683 -14.73,18.216 -19.535,27.674c-3.876,6.898 -11.394,28.68 16.51,20.23c9.148,-2.867 33.719,-14.727 60.774,-38.99c28.602,-25.58 43.098,-43.719 48.06,-49.687c1.006,-1.162 2.014,-3.024 1.24,-4.418c4.884,-7.287 11.626,-22.48 6.744,-27.131c-5.427,-5.193 -16.124,-1.783 -20.232,-0.232c-6.435,2.557 -31.084,14.417 -54.804,33.873l5.426,0" fill="#f9b018"/>
    <path d="m97.805,90.107c-0.233,1.006 -0.852,2.48 -4.573,4.728c-9.457,5.504 -25.115,6.046 -37.363,5.737c-18.836,-0.465 -26.665,-4.807 -28.603,-6.512c-1.086,-1.008 -0.93,-1.939 0.31,-2.868c3.488,-2.636 15.813,-3.565 23.953,-3.565c8.138,0 17.44,1.86 17.363,4.03c0,2.248 -4.496,2.558 -5.504,2.635c-0.697,0.079 -1.473,-0.232 -1.473,-0.62c0.156,-0.62 1.24,-0.62 1.783,-0.775c0.466,-0.078 0.698,-0.465 0.698,-1.008c0,-0.697 -2.016,-1.394 -3.643,-1.628c-4.729,-1.24 -10.93,-0.852 -14.186,-0.62c-5.813,0.388 -9.845,2.171 -9.845,3.567c0,1.317 3.41,5.27 20.387,5.813c21.86,0.698 32.092,-3.024 37.052,-6.589c3.411,-2.636 0.853,-4.419 -2.402,-6.047c-8.914,-4.185 -25.813,-4.573 -34.262,-4.65c-9.534,-0.155 -25.425,1.008 -32.17,2.248c-1.472,0.388 -1.161,1.628 0.931,1.162c2.48,-0.386 19.844,-1.626 28.294,-1.162c8.449,0.388 18.758,0.156 28.293,4.884c1.627,1.006 2.17,2.79 -0.31,4.185c-2.403,1.319 -8.605,4.341 -23.1,4.419c-13.333,0.156 -15.038,-2.094 -16.2,-3.023c-0.466,-0.388 -0.543,-1.55 1.24,-2.481a9.568,9.568 0 0 1 3.953,-0.854c1.085,0 1.472,1.164 0.31,1.242c-1.163,0.309 -2.404,0.464 -2.404,1.317c0,0.699 0.776,0.776 1.63,1.085c0.773,0.311 4.882,1.24 10.076,1.24c7.596,0 13.41,-1.084 16.82,-3.1c1.396,-0.697 1.783,-2.946 -0.62,-3.721c-3.72,-1.24 -10.387,-3.41 -24.263,-3.41c-9.534,0 -27.284,1.473 -32.4,2.867c-1.784,0.543 -5.892,1.706 -5.892,3.876c0,2.171 2.791,3.179 4.108,3.643c7.52,2.636 28.759,5.815 37.131,5.892c23.332,0.232 36.432,-1.705 44.493,-8.604c0.62,-0.776 1.706,-1.937 1.86,-3.101c0.156,-1.55 -1.162,-1.628 -1.472,-0.232m-22.402,15.812c5.814,0 7.364,-0.154 9.767,-0.775l0,16.28c2.093,-3.49 4.806,-3.49 7.907,-3.49c2.635,0 6.046,2.403 6.046,7.752l0,6.822c0,4.34 0.233,6.046 3.1,6.046l0.078,0l0,2.015l-12.171,0l0,-2.015c2.17,0 2.325,-2.48 2.325,-4.496l0.078,-1.55l0,-6.589c0,-2.79 -0.93,-4.419 -2.713,-4.419c-3.644,0 -4.651,2.947 -4.651,6.822l0,4.883c0.155,3.256 0,5.349 2.713,5.349l0,2.015l-12.712,0l0,-2.015c2.714,0 3.411,-1.55 3.411,-4.574l0,-23.099c0,-2.248 0.078,-2.79 -1.55,-2.481c-2.094,0.621 -2.713,1.705 -3.644,4.573l-9.069,28.683l-2.015,0l-6.899,-19.38l-7.054,19.38l-2.016,0l-12.634,-30.62c-0.774,-2.481 -2.712,-2.713 -5.193,-2.868l0,-2.25l15.969,0l0,2.25l-0.621,0c-1.705,0 -1.627,0.541 -1.627,1.628c0,0.62 0.077,1.163 0.542,2.79l6.821,18.604l4.651,-13.022l-1.938,-4.807c-1.162,-3.721 -1.473,-5.193 -5.038,-5.193l0,-2.25l14.417,0l0,2.25l-0.774,0.077c-1.163,0.155 -1.318,0.698 -1.318,1.783c0,0.543 0.077,0.853 0.542,2.248l5.426,17.595l6.047,-19.146c0.388,-1.86 -1.473,-2.557 -2.481,-2.634l0,-2.172l6.28,0m39.685,5.582c0,2.015 -1.705,3.72 -3.797,3.72c-2.015,0 -3.643,-1.705 -3.643,-3.72c0,-2.093 1.705,-3.721 3.643,-3.721c2.092,0 3.798,1.628 3.798,3.721m-10.155,29.069l12.79,0l0,-2.171c-2.79,0 -3.023,-1.395 -3.023,-5.814l0,-14.805c-2.092,0.697 -4.728,0.775 -10.31,0.775l0,2.248l0.931,0c2.48,0 2.868,2.636 2.868,2.713l0,9.069c0,4.341 -0.387,5.814 -3.256,5.814l0,2.17m25.115,-20.542c2.094,-2.558 5.582,-1.783 5.892,-1.783c2.248,0 3.409,2.404 3.409,4.032c0,2.248 -1.47,3.953 -3.487,3.953c-1.938,0 -3.41,-1.24 -3.41,-3.18c0,-0.618 0.077,-1.006 0.309,-1.317c0.233,-0.232 0.233,-0.308 0.233,-0.387c0,-0.077 0.078,-0.62 -0.078,-0.62c-0.31,0 -0.852,-0.31 -1.55,0.62c-1.24,1.474 -1.318,2.714 -1.318,4.65l0,9.304c0.155,1.007 0.388,2.17 1.397,2.79c0.542,0.31 0.619,0.465 1.782,0.465l0,2.015l-12.79,0l0,-2.17c2.79,0 3.023,-1.318 3.023,-5.66l0,-9.3c0,-2.791 -1.318,-2.636 -3.72,-2.636l0,-2.171c5.425,0 7.673,-0.077 10.308,-0.62l0,2.015m112.242,13.023c0,4.34 0.931,5.04 3.723,5.425l0,1.939l-14.11,0l0,-2.015c2.791,-0.31 3.722,-1.008 3.722,-5.348l0,-21.783c0,-2.17 -1.319,-3.177 -2.945,-3.255l-0.776,0.078l0,-2.248c5.504,0 7.597,0.076 10.386,-0.622l0,27.83m-22.633,-15.194c-6.51,0 -11.395,4.574 -11.395,11.627c0,6.977 4.651,11.782 11.318,11.782c6.742,0 11.084,-4.65 11.084,-11.704c0,-6.975 -4.342,-11.705 -11.007,-11.705zm3.643,17.364c0,2.092 -1.628,3.72 -3.643,3.72a3.722,3.722 0 0 1 -3.721,-3.72l0,-11.782c0,-2.015 1.705,-3.644 3.721,-3.644a3.64,3.64 0 0 1 3.643,3.644l0,11.782m-73.253,-2.171c0,4.34 0.931,5.04 3.722,5.425l0,1.939l-14.11,0l0,-2.015c2.791,-0.31 3.8,-1.008 3.8,-5.348l0,-21.783c-0.078,-2.17 -1.395,-3.177 -3.023,-3.255l-0.776,0.078l0,-2.248c5.582,0 7.597,0.076 10.388,-0.622l0,27.83" fill="#231f20"/>
   </g>
  </svg>