<svg  id="fndm-iq6nc3huwf" viewBox="93 205.39996337890625 50.09999084472656 27.100006103515625" xmlns="http://www.w3.org/2000/svg">
   <path d="m129.4,209.4l6.6,0c0.1,0 0.2,0 0.2,0.1s0,0.1 -0.1,0.2l-4.3,2.4c-1.6,0.9 -2.5,1.7 -2.5,3.4s1.1,2.6 2.5,3.4l6.8,3.4c0.1,0.1 0.2,0.1 0.2,0.2s0,0.1 -0.1,0.1l-9.2,5.2l0,4.7l10.8,-6.3c1.9,-1.1 2.8,-2.1 2.8,-3.8c0,-2 -1.1,-3 -2.8,-3.9l-6.3,-3.2c-0.1,0 -0.1,-0.1 -0.1,-0.1c0,-0.1 0.1,-0.1 0.1,-0.2l6.4,-3.8c1.7,-1 2.5,-1.8 2.4,-3.5c-0.1,-1.5 -1.4,-2.3 -3.5,-2.3l-9.8,0l-0.1,4zm-13.1,-3.8l0,5.9c0,0.1 -0.1,0.2 -0.1,0.2s-0.1,0 -0.2,-0.1l-2.4,-3.7c-1,-1.5 -1.7,-2.5 -3.5,-2.5c-1.7,0 -2.5,1.1 -3.3,2.5l-3.5,6.5c-0.1,0.1 -0.1,0.2 -0.2,0.1c-0.1,0 -0.1,0 -0.1,-0.1l-5.2,-8.8l-4.8,0l6.3,10.4c1,1.7 2.1,2.7 3.8,2.7c2,0 2.8,-1.1 3.6,-2.6l3.2,-6.2c0,-0.1 0.1,-0.1 0.2,-0.1s0.1,0.1 0.2,0.1l4.3,6.5c0.9,1.3 1.9,2.2 3.2,2.2c1.7,0 2.5,-1 2.5,-3l0,-10l-4,0zm10.6,12.9l-4,0l0,-12.9l4,0l0,12.9z" fill="#f7901e"/>
  </svg>