<svg  id="fndm-ek2jzsctkz" viewBox="0.736372709274292 0.14470291137695312 1200.8275146484375 468.6109313964844" xmlns="http://www.w3.org/2000/svg">
   <g xmlns="http://www.w3.org/2000/svg" fill="none">
    <path d="m289.14,390.8c113.91,-64.69 136.17,-227.21 1.17,-312.83c32.81,-24.23 65.31,-47.61 97,-72c10.21,-7.86 17.37,-8.24 25.6,1.78c5.2,6.33 10.87,12.66 17.48,17.36c18.39,13.07 19.31,25.95 3.37,42.2c-6.52,6.64 -18.54,14.64 -12.31,25.68c8,14.16 21.47,3.24 29.89,-0.16c22.71,-9.14 31.89,0.21 37.5,20.44c5.18,18.65 25.26,38.6 -8.47,51.58c-8.42,3.23 -22.79,6.43 -21,19.1c2.26,15.76 18.35,11.24 28,11.53c38.3,1.15 23.38,29.27 26.68,48.69c3.87,22.76 -8.8,27.74 -27.55,29.38c-9.48,0.82 -23.58,-2.85 -26.93,9.37c-4.15,15.13 12.09,18.33 21,21.92c33.3,13.41 13.2,33.29 8.17,51.8c-5.59,20.52 -15.72,29.32 -37.84,19.68c-8.46,-3.68 -21.83,-10.62 -28.49,-0.89c-8.15,11.93 5.34,21.34 12.5,28.28c18.56,18 9.4,30.14 -5.94,42c-14.06,10.87 -22,37 -48.38,13.61c-27.54,-24.38 -58.87,-44.43 -91.45,-68.52z" fill="#1F2F54"/>
    <path d="m215.5,189.37c37.6,66.67 45.53,91.81 46.74,153.93c-22.09,-32.71 -53.83,-45.09 -81.66,-63.19c-78,-50.72 -101.16,-141 -56.6,-233.27c28.69,43.49 75.23,56.94 116.26,79.55c88.79,48.93 110.07,150.54 46.44,225.93c-7.17,-63 -16.1,-124 -65.64,-168.59c-3.61,-4.78 -6.72,-10.78 -14.32,-5.91l8.78,11.55z" fill="#67B05D"/>
    <path d="m692.36,242.41c6.8,-25.37 14.43,-50.54 20.09,-76.15c3.54,-16 11.2,-21.44 27.59,-21.06c16.06,0.37 26.9,1.6 30.7,21a290.62,290.62 0 0 0 26.25,75.42c5.62,-25.46 12.27,-50.74 16.58,-76.41c5,-29.81 27.8,-20.32 43.39,-18.42c19.77,2.4 6,17.51 4,26c-10.39,44.06 -22.85,87.64 -32.92,131.77c-4,17.29 -13.36,20.56 -28.49,19c-14.24,-1.44 -30.94,5.57 -35.75,-17.68c-4.9,-23.66 -13.1,-46.65 -22.32,-78.43c-9.35,32.65 -17.32,55.83 -22.44,79.62c-5.19,24.25 -23.23,14.49 -36.92,16.25c-13.45,1.75 -22.46,-0.66 -26.29,-17.53c-10.24,-45.1 -23.61,-89.47 -34.41,-134.47c-1.83,-7.63 -12.79,-23.16 4.47,-24.34c14.38,-1 36.63,-13.12 42.8,14.91c5.92,27 12.62,53.72 19,80.57l4.67,-0.05zm409.71,2.67c12.81,-31.79 24,-56 32.3,-81.06c9.93,-29.9 33.79,-17 51.89,-17.59c23.16,-0.79 13.07,19.33 13.37,30.18c1.2,42.17 -0.5,84.43 0.92,126.59c0.69,20.39 -10,20.23 -24.76,20.62c-16,0.42 -25.5,-2.14 -23.59,-21.5c1.61,-16.29 0.33,-32.87 0.33,-53c-15.11,13.07 -15.25,30.22 -22.76,43.29c-7,12.09 -3.89,30.79 -27,31.45c-25.11,0.72 -22.55,-19.76 -29.31,-32.73c-6.76,-12.97 -11.16,-27.25 -22.34,-39.42c0,15.11 -1,30.31 0.25,45.31c1.57,19 -3.1,26.76 -24.83,27.18c-24.26,0.47 -23.29,-11.86 -23.07,-28.48c0.54,-41.17 -0.29,-82.36 0.52,-123.52c0.19,-9.47 -7.37,-27.08 11.23,-25.75c18,1.29 42.08,-14.23 53,15.29c9.45,25.7 20.58,50.81 33.85,83.14z" fill="#1F2F54"/>
    <path d="m251.13,363.99c-23.88,-19.48 -44.48,-26.95 -67.89,-28.66c-93.12,-6.79 -147.22,-57.78 -180.41,-160c-4.73,-14.55 -2.24,-23.09 15.74,-14.52c6.45,3.07 13.64,7.05 20.34,6.77c58,-2.43 63.31,40.94 70,81.48c1.45,8.73 6.41,9 10.51,11.38c29.14,17.18 58.83,33.42 87.89,50.73c18.19,10.84 36,22.54 43.82,52.82z" fill="#67B05D"/>
    <path d="m880.19,239.97c0,-27.54 1.23,-50.31 -0.38,-72.89c-1.37,-19.21 7.48,-22.22 23.7,-21.73c14.8,0.45 25.93,0.27 24.79,20.77c-1.6,28.79 1.55,57.91 -1,86.56c-2.36,26.73 7.35,34 32.6,31.86c11,-0.93 30.68,-10.6 31.06,15.88c0.24,16.4 -2.71,25 -21.62,23.29c-28.51,-2.58 -65.66,11.67 -83.53,-5.44c-18.08,-17.31 -3.01,-54.68 -5.62,-78.3z" fill="#1F2F54"/>
    <path d="m215.5,189.37l-8.78,-11.56c7.6,-4.87 10.71,1.13 14.32,5.91l-5.54,5.65z" fill="#FDFDFD"/>
   </g>
  </svg>