<svg  id="fndm-zlw7kga97a" viewBox="0.3069925010204315 0.07303380966186523 603.9614868164062 134.0399627685547" xmlns="http://www.w3.org/2000/svg">
   <g xmlns="http://www.w3.org/2000/svg" fill="none">
    <path d="m552.1,1.416c-7.749,1.862 -13.784,4.992 -18.627,9.76c-7.227,7.153 -9.984,14.306 -9.537,25.184c0.223,6.11 0.596,7.897 2.384,11.697c4.47,9.165 14.306,16.839 28.388,22.203c9.76,3.726 15.125,6.334 17.658,8.792c2.608,2.46 2.831,2.98 2.831,6.706c0,4.694 -1.043,6.482 -4.992,8.94c-2.235,1.417 -3.8,1.715 -8.717,1.715c-5.44,0 -6.557,-0.298 -11.623,-2.832c-3.055,-1.49 -6.93,-3.576 -8.569,-4.545c-4.47,-2.756 -11.027,-2.607 -15.05,0.298c-1.64,1.192 -3.502,3.279 -4.247,4.62c-0.67,1.415 -2.086,3.874 -3.055,5.513c-2.384,3.95 -2.31,4.918 0.596,7.526c7.004,6.333 15.721,11.474 24.438,14.529c4.098,1.49 6.334,1.713 16.318,1.713c9.537,0.075 12.293,-0.149 15.646,-1.34c8.568,-2.981 13.635,-6.036 18.329,-10.953c13.635,-14.38 13.262,-38.744 -0.745,-51.932c-5.96,-5.663 -12.666,-9.016 -26.152,-13.188c-9.016,-2.831 -13.337,-5.364 -14.455,-8.568c-1.043,-3.055 0,-6.11 2.757,-7.973c4.024,-2.682 7.45,-2.83 13.635,-0.596c13.262,4.843 18.701,3.055 25.109,-8.195c3.65,-6.483 3.576,-6.11 1.043,-8.792c-2.086,-2.161 -8.121,-5.663 -13.933,-7.973c-3.949,-1.639 -15.348,-3.725 -19.67,-3.65c-2.31,0 -6.705,0.67 -9.76,1.34l0,0.001z" fill="#000234"/>
    <path d="m434.75,1.64c-8.717,2.16 -17.062,5.215 -17.881,6.556c-0.224,0.372 -1.267,0.745 -2.235,0.745c-0.969,0 -2.087,0.447 -2.385,0.968c-0.298,0.522 -2.607,2.534 -5.14,4.396c-2.46,1.938 -5.589,4.694 -6.855,6.11c-4.173,4.768 -10.58,15.349 -10.58,17.435c0,0.596 -0.522,1.937 -1.118,2.98c-1.937,3.65 -2.831,9.388 -3.13,20.266c-0.372,11.102 0.746,19.148 3.205,24.066c0.596,1.192 1.043,2.608 1.043,3.13c0,1.34 3.949,8.046 6.78,11.622c1.192,1.49 2.16,2.98 2.16,3.279c0,0.596 5.738,6.333 6.334,6.333c0.298,0 2.235,1.49 4.321,3.353c2.16,1.862 4.396,3.353 5.141,3.353c0.67,0 1.49,0.372 1.714,0.745c0.67,1.117 5.737,3.576 9.09,4.396c1.564,0.372 5.439,1.415 8.717,2.235c7.45,2.011 18.701,2.086 25.482,0.298c5.14,-1.416 6.63,-1.043 8.12,1.713c3.428,6.408 6.781,8.494 13.412,8.494c2.608,0 4.918,-0.298 5.216,-0.67c0.223,-0.447 2.011,-1.49 3.949,-2.459c10.133,-4.843 11.176,-7.674 5.737,-15.945c-1.863,-2.756 -3.353,-5.513 -3.353,-6.11c0,-0.595 0.968,-2.309 2.16,-3.8c5.589,-7.152 9.836,-14.23 11.922,-19.818c4.992,-13.635 5.14,-32.783 0.372,-44.183c-0.596,-1.341 -1.043,-2.757 -1.043,-3.13c0,-1.266 -7.302,-12.964 -10.058,-16.242c-4.173,-4.843 -14.976,-13.188 -19,-14.752c-0.596,-0.224 -2.086,-0.82 -3.353,-1.341c-4.843,-2.087 -7.6,-2.906 -11.92,-3.577c-6.557,-1.043 -23.396,-1.34 -26.823,-0.447l-0.001,0.001zm22.725,28.834c6.706,2.384 9.91,4.246 13.188,7.674c3.428,3.576 7.376,9.984 8.121,13.113c0.224,1.118 0.895,3.353 1.416,4.992c1.118,3.65 0.894,8.941 -0.521,14.976c-1.044,4.098 -3.13,8.494 -4.098,8.494c-0.224,0 -1.49,-0.969 -2.906,-2.235c-5.141,-4.545 -10.878,-4.024 -20.713,1.862c-8.121,4.918 -8.42,5.514 -4.918,10.804s3.204,5.96 -2.905,5.96c-4.47,0 -5.887,-0.372 -10.357,-2.682c-12.74,-6.407 -19.148,-16.615 -19.148,-30.473c0,-8.718 1.937,-14.455 6.929,-21.16c4.023,-5.365 8.196,-8.196 16.913,-11.549c4.396,-1.64 14.007,-1.565 19,0.224l-0.001,0z" fill="#74E1B6"/>
    <path d="m0.447,2.906c-0.522,0.82 0.447,3.278 2.384,6.11c0.67,1.117 3.279,5.215 5.737,9.164c2.46,4.023 4.992,8.047 5.588,9.015c0.596,0.969 3.13,4.992 5.588,8.941c2.46,3.949 4.992,7.972 5.589,8.941c0.596,0.969 3.576,5.737 6.556,10.58c3.055,4.843 6.706,10.804 8.27,13.262c4.843,7.824 4.843,7.675 5.29,31.666l0.373,21.98l9.611,0.223c9.24,0.224 9.761,0.15 12.443,-1.713c5.44,-3.577 5.44,-3.651 5.96,-24.96l0.373,-19l2.46,-4.47c1.415,-2.459 2.905,-4.992 3.426,-5.588c0.447,-0.596 3.204,-4.918 6.036,-9.537c2.83,-4.62 5.662,-9.24 6.258,-10.208c0.596,-0.968 3.13,-4.992 5.588,-8.94c2.459,-3.95 5.067,-8.122 5.737,-9.165c0.67,-1.118 1.714,-2.757 2.236,-3.651c0.521,-0.894 2.98,-4.843 5.439,-8.792c2.458,-3.874 4.843,-7.749 5.215,-8.494a32.192,32.192 0 0 1 1.788,-2.607c0.522,-0.671 0.82,-1.714 0.522,-2.31c-0.596,-1.714 -24.364,-1.64 -28.91,0.074c-2.83,1.043 -8.79,6.408 -8.79,7.898c0,0.298 -0.97,1.937 -2.162,3.725c-1.117,1.789 -2.905,4.62 -3.874,6.334c-0.969,1.713 -4.023,6.705 -6.706,11.176c-4.768,7.748 -7.078,12.89 -7.525,16.466c-0.372,2.831 -1.64,1.788 -3.204,-2.682c-1.34,-3.875 -12.368,-23.172 -20.34,-35.391c-2.683,-4.247 -3.95,-5.44 -7.078,-6.93c-3.651,-1.639 -4.769,-1.788 -16.69,-1.788c-7.004,0 -12.964,0.298 -13.188,0.67l0,0.001zm135.678,0.596c-0.298,0.223 -0.522,24.662 -0.522,54.241c0,47.61 0.15,54.167 1.193,56.7c1.564,3.726 2.98,5.365 6.407,7.079c2.533,1.266 4.694,1.415 25.929,1.415c20.266,0 23.917,-0.149 29.728,-1.49c23.545,-5.215 40.681,-21.83 46.195,-44.853c1.862,-7.75 2.086,-19.149 0.447,-25.407c-0.596,-2.385 -1.118,-4.843 -1.118,-5.514c0,-2.682 -7.6,-16.466 -11.697,-21.31c-5.067,-5.885 -12.816,-11.846 -19.596,-15.124c-11.847,-5.737 -15.87,-6.259 -49.25,-6.259c-14.975,0 -27.492,0.224 -27.716,0.522zm58.265,26.823c7.674,2.384 15.274,8.27 19,14.901c3.501,6.184 4.32,9.537 4.246,18.03c0,8.122 -0.149,8.867 -3.725,16.392c-1.416,3.055 -8.718,11.102 -10.878,12.07c-0.82,0.373 -2.012,0.97 -2.608,1.342c-4.694,2.757 -7.302,3.204 -19.745,3.576c-8.195,0.224 -13.41,0.075 -14.678,-0.447l-2.086,-0.82l0,-31.963c0,-17.584 0.224,-32.485 0.447,-33.156c0.67,-1.788 24.14,-1.714 30.027,0.075zm79.127,-26.302c-1.416,0.522 -3.651,2.161 -4.843,3.726l-2.31,2.831l0,38.073c0,35.019 0.149,38.446 1.341,42.246c2.831,8.494 5.96,13.635 11.698,19.372c7.45,7.45 14.454,11.027 25.705,13.039c26.077,4.768 49.77,-7.153 57.967,-29.207c3.203,-8.494 3.576,-15.423 3.352,-54.614l-0.223,-36.136l-13.933,-0.224l-14.007,-0.149l0,37.254c0,35.391 -0.075,37.477 -1.49,41.5c-2.012,5.812 -4.918,9.09 -10.134,11.773c-3.874,1.937 -5.14,2.235 -10.729,2.235c-5.513,0 -6.854,-0.298 -10.43,-2.086c-4.322,-2.235 -5.44,-3.204 -7.898,-6.855c-3.13,-4.545 -3.279,-6.78 -3.279,-44.406c0,-19.82 -0.223,-36.807 -0.447,-37.776c-0.447,-1.564 -0.745,-1.639 -9.164,-1.564c-4.843,0 -9.76,0.447 -11.176,0.968z" fill="#000234"/>
   </g>
  </svg>