<svg  id="fndm-ffaxjjp3ky" viewBox="69.50001525878906 67.5 360.99993896484375 365" xmlns="http://www.w3.org/2000/svg">
   <path d="m341.2,118.9c0.8,-2.1 -0.9,-4.1 -0.9,-4.1s-13.6,-23.1 -61.5,-28.2c-25.7,-2.7 -60.7,2.5 -85.2,15.7c-44.4,23.9 -51.1,63.3 -51.1,63.3c-0.2,1 -0.7,3.9 0.3,5.2c1,1.3 2.5,1.3 4.3,0.6c15.7,-5.3 62.4,-20.8 91.9,-28.6c42,-11.1 76.4,-17.9 98.5,-21.7c1.7,-0.2 3.2,-0.7 3.7,-2.2" fill="#faaf18"/>
   <path d="m389.1,304.7c-25.1,56.4 -73.3,95.6 -136.4,96.5c-46,0.7 -86.5,-15.1 -115.8,-42.6l-17.7,7.6l0,-27.4c-19.3,-26 -30.5,-59 -30.5,-96.4c0,-95.9 73.4,-171.4 175.8,-171.4c16.7,0 31.8,2.6 43.2,5.2c-17.5,-5.6 -35,-8.7 -54.4,-8.7c-109.9,0 -183.8,89.1 -183.8,181c0,100.1 78.6,184 181.7,184c98.5,0 151.6,-69.4 168.6,-111.2l-30.7,-16.6" fill="#185494"/>
   <path d="m363.7,284.9c14.5,-1.6 24.4,-7.4 29.9,-12.8c5,-4.9 6.2,-11.7 6.2,-16.7c0.2,-7.4 0,-30.7 0,-30.7l-38.2,8.3l0,8.9c0.1,5.9 2.9,9.1 9.1,8c1.9,-0.3 4.9,-1.3 4.9,-1.3l0.1,7.3c0,-0.2 0.6,4.1 -9.1,6c-12.6,2 -18.3,-5.8 -18.5,-19.5c0.2,-14.7 8.6,-23.2 18.6,-25.5c11.3,-2.6 17.8,0.1 21.5,0.7c12.7,1.9 16.3,-17.1 4.7,-21.5c-8.5,-3.4 -19.6,-4.1 -30.1,-1.9c-14.1,2.8 -41.7,14.6 -41.8,52.8c0.1,30.3 22.5,40.2 42.7,37.9" fill="#ed1d21"/>
   <path d="m239.4,317.5s11.7,-4 12.7,-4.4c9.4,-3.3 12.9,-8.9 12.8,-18.6c-0.1,-10.5 -0.1,-31.1 -0.1,-31.1l27.3,31.4c4.4,4.6 10,5 15.1,3.5c5.3,-1.5 9.6,-6.3 9.8,-13.1l0,-78.1s-7.1,1.5 -12.9,3.2c-6.7,1.9 -11.9,6.2 -11.9,17.5l0,27s-15.4,-19.3 -25.4,-29.3c-5.4,-5.4 -14.3,-2.2 -14.3,-2.2l-13.1,4l0,90.2" fill="#ee1c23"/>
   <path d="m231.1,229.4s-8.2,2.4 -14.9,4.8c-8.7,3.1 -13.7,8.2 -13.7,21.3l0,74.9s7.6,-2.6 14.7,-5.3c10.1,-3.8 13.9,-9 13.9,-19.6l0,-76.1" fill="#ed1c23"/>
   <path d="m190.3,247.2c-7.5,-3.4 -14,0.4 -16.8,4.6l-23.2,39.4l0,-31.8l-27.3,11.4l-0.1,89.9l19.2,-8.1s3.8,-1.1 6.1,-4.7c2.1,-3.3 2,-8.8 2,-8.8l0,-28.5l21.5,22.8c4.7,4.9 13.4,7.4 21.1,1.2c6.9,-5.6 5.9,-15.1 2,-19.4l-19.6,-19.7s17.2,-27.2 20.1,-31.7c3.7,-6 1.9,-13.5 -5,-16.6" fill="#ee1d23"/>
   <path d="m179.6,352.8c-1,2.3 1.3,4.7 1.3,4.7c9.9,12.5 54.1,28.3 102,16.7c73.2,-17.7 88.7,-69.5 90.4,-76.8c0.4,-1.5 0.6,-3.9 -0.7,-5.3c-1.2,-1.2 -2.8,-1.2 -5.1,-0.7c-50.8,12 -135.5,37.8 -184.2,58.7c-2.1,0.9 -3,1.2 -3.7,2.7" fill="#faaf18"/>
   <path d="m136.2,235c-0.1,-5 -3.9,-7.7 -10.6,-4.3l0,15.9s2.2,-1 3.7,-1.7c3.9,-1.7 7,-5 6.9,-9.9m-10.7,-14.4c1.2,-0.5 2.1,-0.9 3.1,-1.3c3.6,-1.8 6.2,-5 6.2,-9.2c0,-4.8 -3.9,-6 -9.2,-3.3l-0.1,13.8zm28.2,12.2c0.2,12.6 -8.8,19.3 -20.6,24.1l-24.2,10.3l-0.1,-65.5s15.2,-6.2 20.2,-8c14.1,-5.1 22.4,1.1 22.4,10.5c0,6.3 -2.7,11.6 -8.5,16.3c5.7,1 10.7,5.7 10.8,12.3z" fill="#ee1c23"/>
   <path d="m199.5,177.5c0,-5.5 -3.8,-7 -8.4,-5.7c-3.7,1.1 -8,2.7 -8,2.7l0,40.7c0,4.1 -0.7,9.1 -5.7,10.4c-3.8,1 -5.6,-1.6 -5.6,-5.6l-0.1,-33.3c0,-5.5 -3.9,-7.2 -8.4,-5.7c-5.1,1.7 -8.2,3 -8.2,3s0.1,28.8 0,40.3c-0.1,13.5 9.2,20.3 23.4,16.1c12.5,-3.7 20.9,-10.7 21,-28.7l0,-34.2" fill="#ed1d1f"/>
   <path d="m333.8,194.3c3.6,-0.8 5.9,-3.3 5.9,-7.7l0,-7l-19.6,4.3l0,-11.5s9.6,-2 12.3,-2.6c3.4,-0.7 5.1,-2.6 5.1,-6.4l0,-6.7l-17.4,3.7l0,-9.1s9,-1.9 13.9,-2.9c3.8,-0.8 5,-3.4 5,-7l0,-6.9c-8.7,1.5 -25.1,4.8 -35.4,7.2l-0.1,59.7c0.1,-0.1 19.6,-4.7 30.3,-7.1" fill="#ee1c23"/>
   <path d="m220.6,191.9s9.7,-5 9.6,-12.9c-0.1,-6.8 -6.3,-5.3 -9.6,-4.1l0,17m0,9.2l0,16c0,4.3 -3,7.4 -6.7,8.9c0,0.1 0,-0.1 0,0c-3.1,1.1 -9.8,3.4 -9.8,3.4l0,-61.4s13.7,-4.8 21.8,-6.6c12.5,-2.9 21.4,2.8 21.3,12.9c-0.1,9.6 -5.5,15.5 -10.3,19.5l10.6,10.2c3.3,3.2 3.5,8.9 -0.2,12.3c-2.2,2 -8,4.2 -12.5,-0.5l-14.2,-14.7zm138.7,-42.2s9.6,-3.6 9.5,-11.3c-0.1,-6.5 -6.5,-5.3 -9.5,-4.6l0,15.9m-16,33.6l0,-58.9s17.2,-3 21.6,-3.6c12.3,-1.6 20.6,5.3 20.4,15c-0.1,8.6 -5.4,13.7 -10,16.8c0,0 8.4,9.5 10.6,12c3,3.4 2.9,9.1 -1.6,12c-4.4,2.8 -8.7,1.3 -11.3,-1.5l-13.7,-16.3l0,14.4c0,4.3 -2.6,7.5 -7.1,8.4l-8.9,1.7z" fill="#ee1d23"/>
   <path d="m299.7,167.8l-24.4,5.5l0,6.8c0,3.2 2.2,5.2 5.4,4.5c2,-0.4 3.6,-0.8 3.6,-0.8l0,6.8c0,2.7 -4,4.4 -8.2,4.3c-5.9,-0.2 -9.1,-4.7 -9.2,-13.4c0.2,-11.4 5.5,-18.1 12.8,-19.9c3.6,-0.9 7,-0.5 9.5,-0.1c6.3,1 9.9,-2 10,-7.2c0.1,-5.6 -4.8,-9 -15.4,-8.6c-23,0.8 -34.7,17.3 -34.7,37c0,20.2 13.2,29.1 29.3,26.2c9.1,-1.8 13.6,-4.8 16.7,-7.5c3.1,-2.7 4.4,-6.9 4.4,-10.4l0.2,-23.2" fill="#ee1d23"/>
   <path d="m203.5,101.8c-26.9,11.9 -45.1,40.2 -46.1,52.1c-0.4,4.8 5.9,5.4 6.5,0.4c5.7,-21.8 23.1,-42.4 39.6,-52.5m89.2,20.3c14.5,-3.6 22.5,-4.1 22.6,-10.6c0.3,-10.9 -30.7,-23.4 -59.1,-21.2c28.9,1.9 46.2,13.1 46.3,20.8c0.2,5 -4.1,9.3 -9.8,11m9,240c21.8,-8.6 42.7,-24.9 54.3,-49.4c3.3,-7.1 -6.3,-10.7 -9,-2.4c-6.8,17.4 -20.7,37.9 -45.3,51.8" fill="#fff"/>
   <path d="m411.4,288.5l3,0c1.6,0 3.7,0.3 3.7,2.2c0,2.2 -1.5,2.5 -3.5,2.5l-3.2,0l0,-4.7m-3.5,15l3.5,0l0,-7.6l2.2,0l4.3,7.6l3.7,0l-4.8,-7.8c2.6,-0.2 4.7,-1.5 4.7,-4.8c0,-3.9 -2.5,-5.3 -7,-5.3l-6.7,0l0.1,17.9zm-10,-8.9c0,9.7 7.7,15.9 16.3,15.9c8.6,0 16.3,-6.2 16.3,-15.9c0,-9.6 -7.7,-15.8 -16.3,-15.8c-8.6,0 -16.3,6.2 -16.3,15.8zm4.3,0c0,-7.2 5.3,-12.4 12,-12.4c6.6,0 12,5.2 12,12.4c0,7.3 -5.4,12.5 -12,12.5c-6.7,0.1 -12,-5.2 -12,-12.5z" fill="#ee1d23"/>
  </svg>